<?xml version="1.0" encoding="UTF-8" standalone="no"?>
<!-- Created with Inkscape (http://www.inkscape.org/) -->

<svg
   xmlns:dc="http://purl.org/dc/elements/1.1/"
   xmlns:cc="http://creativecommons.org/ns#"
   xmlns:rdf="http://www.w3.org/1999/02/22-rdf-syntax-ns#"
   xmlns:svg="http://www.w3.org/2000/svg"
   xmlns="http://www.w3.org/2000/svg"
   xmlns:sodipodi="http://sodipodi.sourceforge.net/DTD/sodipodi-0.dtd"
   xmlns:inkscape="http://www.inkscape.org/namespaces/inkscape"
   id="svg2"
   version="1.1"
   inkscape:version="0.48.3.1 r9886"
   width="400"
   height="400"
   sodipodi:docname="Icon.4_21.png">
  <metadata
     id="metadata8">
    <rdf:RDF>
      <cc:Work
         rdf:about="">
        <dc:format>image/svg+xml</dc:format>
        <dc:type
           rdf:resource="http://purl.org/dc/dcmitype/StillImage" />
        <dc:title></dc:title>
      </cc:Work>
    </rdf:RDF>
  </metadata>
  <defs
     id="defs6" />
  <sodipodi:namedview
     pagecolor="#ffffff"
     bordercolor="#666666"
     borderopacity="1"
     objecttolerance="10"
     gridtolerance="10"
     guidetolerance="10"
     inkscape:pageopacity="0"
     inkscape:pageshadow="2"
     inkscape:window-width="1855"
     inkscape:window-height="1056"
     id="namedview4"
     showgrid="false"
     inkscape:zoom="0.59"
     inkscape:cx="200"
     inkscape:cy="200"
     inkscape:window-x="65"
     inkscape:window-y="24"
     inkscape:window-maximized="1"
     inkscape:current-layer="svg2" />
  <path
     style="fill:#000000"
     d="m 0,0 400,0 0,400 -400,0 z"
     id="rect3026" />
  <path
     id="path2989"
     style="fill:#ffffff"
     d="M 84.111113,109.25 C 87.41549,103.80138 100.58872,90.472406 106.27646,86.822596 L 111.16964,83.682652 82.841399,55.341326 54.513159,27 40.756579,27 27,27 27,43.24318 27,59.48636 53.743055,86.24318 C 68.451735,100.95943 80.790033,113 81.161495,113 c 0.371463,0 1.69879,-1.6875 2.949618,-3.75 z m 6.341238,48 c 2.738257,-11.2531 13.509929,-28.28729 25.236589,-39.9088 11.93039,-11.82343 25.28337,-20.362 37.53078,-23.99909 2.66175,-0.790456 4.57268,-1.868999 4.2465,-2.396763 C 155.853,88.335105 150.18044,86.65783 143,86.66795 c -17.17242,0.0242 -37.58139,13.239335 -49.913807,32.31999 -8.340004,12.9036 -11.235383,27.36503 -7.272519,36.32374 2.364234,5.34475 3.676363,5.89303 4.638677,1.93832 z M 116.92535,173 c 4.79991,-11.78794 11.3327,-21.25805 22.07465,-32 14.76186,-14.76186 27.96855,-22.19564 48.28345,-27.1778 l 9.02784,-2.21404 -3.63039,-3.13823 c -11.80808,-10.207279 -33.95609,-7.22297 -55.63056,7.49589 -12.03275,8.17128 -25.07227,23.28754 -30.70909,35.59996 -8.218917,17.95249 -8.290342,34.01918 -0.19475,43.80848 l 3.20395,3.87425 2.66769,-10.37425 C 113.48536,183.16842 115.69361,176.025 116.92535,173 z M 306.5,310.55536 c -19.08778,-4.97621 -31.83682,-12.01284 -48,-26.49285 -18.0996,-16.21479 -33.42481,-18.2144 -50.35282,-6.56998 l -4.88686,3.36156 -3.63657,-5.17704 -3.63657,-5.17705 2.75641,-2.28349 c 4.5953,-3.80689 16.39422,-9.16258 22.75641,-10.32944 5.81229,-1.06601 15.26937,-0.76606 18.65769,0.59177 1.53488,0.61508 1.54084,0.34414 0.0804,-3.65727 -2.02544,-5.54939 -2.19061,-19.76173 -0.30519,-26.26061 1.01353,-3.49354 1.10873,-5.04709 0.32529,-5.30823 -2.96894,-0.98965 -18.54606,-13.75408 -23.6586,-19.38667 -10.2604,-11.3041 -20.78552,-31.03297 -21.75846,-40.78524 -0.33311,-3.33889 -0.2237,-3.44998 4.65888,-4.73071 2.75,-0.72134 5.45601,-1.32021 6.01335,-1.33082 0.55734,-0.0106 1.56239,2.34321 2.23344,5.23071 0.67106,2.8875 3.21786,9.30318 5.65958,14.25706 10.9848,22.28659 33.40118,39.7967 60.20833,47.03053 l 6.11471,1.65004 -1.50899,5.99041 -1.50899,5.99041 -3.60571,-0.65001 c -1.98315,-0.3575 -7.34886,-1.92736 -11.92381,-3.48856 -9.88039,-3.3717 -9.69907,-3.53089 -9.6476,8.47012 0.0295,6.87458 0.48604,8.96398 3.24538,14.8524 6.73541,14.37332 20.60403,27.50325 37.53523,35.53595 8.19456,3.88776 22.66725,8.11165 27.79368,8.11165 5.84963,0 6.86181,1.89794 5.2664,9.875 -0.59382,2.96909 -0.85574,3.12255 -5.25,3.07583 -2.54375,-0.027 -8.675,-1.105 -13.625,-2.39547 z m 66.19252,63.08575 c -0.2868,-0.74738 -3.48189,-10.75988 -7.1002,-22.25 C 353.04087,311.53342 345.21306,291.62361 340.66924,288 319.84357,271.39193 310.51858,252.07577 309.53148,223.5 l -0.37997,-11 -7.85076,-6.61485 c -24.54539,-20.68132 -40.26454,-44.7028 -45.27734,-69.19129 -1.34181,-6.55503 -1.13279,-6.40923 -13.80112,-9.62675 -35.45045,-9.00376 -72.07562,-0.25073 -94.22229,22.51813 -3.37597,3.47081 -5.01778,5.83332 -4.25133,6.11753 4.5447,1.68519 16.86094,11.13778 22.76912,17.47507 11.70297,12.55293 17.13608,26.02454 18.17762,45.07216 l 0.58782,10.75 -6.01662,0 c -5.9386,0 -6.02471,-0.0405 -6.64161,-3.125 -0.34375,-1.71875 -0.625,-5.36629 -0.625,-8.10566 0,-6.48876 -2.4006,-15.65386 -6.22587,-23.76934 -2.19689,-4.66079 -5.22776,-8.62216 -10.71151,-14 -8.10376,-7.94724 -18.16931,-14.67013 -20.14036,-13.45196 -1.84615,1.14099 -7.63442,14.38045 -9.90414,22.65367 -4.51068,16.44156 -4.27984,40.93758 0.53611,56.89127 0.32701,1.08328 2.70668,1.99076 7.4372,2.83615 23.8538,4.26291 44.31719,19.83586 52.71083,40.11373 l 2.70829,6.54287 10.09767,0.0817 c 32.11254,0.25976 71.91296,20.92136 80.57966,41.83132 l 2.136,5.15348 12.13806,5.15175 c 17.91617,7.60413 39.5496,15.54186 58.95645,21.63226 18.45667,5.79221 21.20055,6.3585 20.37413,4.20489 z" />
</svg>
