<?xml version="1.0" encoding="UTF-8" standalone="no"?>
<!-- Created with Inkscape (http://www.inkscape.org/) -->

<svg
   xmlns:dc="http://purl.org/dc/elements/1.1/"
   xmlns:cc="http://creativecommons.org/ns#"
   xmlns:rdf="http://www.w3.org/1999/02/22-rdf-syntax-ns#"
   xmlns:svg="http://www.w3.org/2000/svg"
   xmlns="http://www.w3.org/2000/svg"
   version="1.1"
   width="512"
   height="512"
   id="svg2">
  <metadata
     id="metadata8">
    <rdf:RDF>
      <cc:Work
         rdf:about="">
        <dc:format>image/svg+xml</dc:format>
        <dc:type
           rdf:resource="http://purl.org/dc/dcmitype/StillImage" />
        <dc:title></dc:title>
      </cc:Work>
    </rdf:RDF>
  </metadata>
  <defs
     id="defs6" />
  <path
     d="m 0,0 512,0 0,512 -512,0 z"
     id="rect3030"
     style="fill:#000000" />
  <path
     d="m 345.88288,193.64006 c 4.06842,-4.02595 7.39712,-7.92377 7.39712,-8.66182 0,-0.73805 -6.33187,-7.65413 -14.07082,-15.36909 l -14.07081,-14.02719 -7.68919,7.60895 c -4.22905,4.18492 -7.68918,8.19358 -7.68918,8.90812 0,1.26924 26.86524,28.86097 28.10106,28.86097 0.34359,0 3.9534,-3.29396 8.02182,-7.31994 z M 119.0169,270.72401 c 12.59439,-2.18517 31.17082,-2.73393 46.1031,-1.36192 l 9.6,0.88206 50.3577,-50.4458 50.35768,-50.44579 -3.30986,-10.4776 c -4.55081,-14.40584 -6.23381,-30.63565 -4.62916,-44.64056 0.70544,-6.15692 1.28736,-11.9144 1.29314,-12.7944 0.0225,-3.430468 -25.1971,-0.83801 -44.1495,4.53836 -41.59342,11.79912 -76.2817,38.40661 -97.65463,74.90554 -14.13436,24.13749 -21.04408,48.12739 -22.89606,79.49286 -0.75052,12.71106 -0.63221,13.90266 1.3065,13.15872 1.17247,-0.44992 7.30196,-1.71509 13.62109,-2.81147 z m -68.740398,23.45193 c 4.379924,-2.23524 14.46415,-6.71934 22.40939,-9.96468 l 14.445892,-5.90059 0.481188,-15.31534 C 88.149091,245.93166 90.82432,228.52472 95.278189,213.12 112.53439,153.43549 160.63282,106.45112 221.4902,89.831291 234.85836,86.18052 254.29134,83.2 264.72622,83.2 l 8.75379,0 4.23083,-11.2 c 2.32696,-6.16 6.20692,-15.147031 8.62215,-19.971181 2.41522,-4.824148 4.21034,-8.951476 3.98916,-9.17184 -1.46763,-1.46219 -24.11584,-6.098754 -35.71433,-7.311476 C 229.20598,32.889524 200.25453,37.739153 173.183,49.184892 106.42067,77.411749 53.274867,143.25571 38.280283,216.32 c -4.768328,23.23469 -4.131107,55.45139 1.525375,77.12 0.689158,2.64 1.535239,4.8 1.88018,4.8 0.344941,0 4.210739,-1.82883 8.590664,-4.06406 z m 227.173558,-19.30595 55.35904,-55.37 -21.12907,-21.09996 -21.12907,-21.09996 -55.67118,55.66015 -55.67118,55.66014 20.78116,20.80982 c 11.42962,11.4454 21.07817,20.80982 21.4412,20.80982 0.36305,0 25.57164,-24.91651 56.0191,-55.37001 z m -4.61725,129.64678 c 33.39984,-5.80121 60.50379,-18.6972 84.28719,-40.10364 25.00497,-22.5059 43.58516,-55.18082 50.63028,-89.03781 1.82938,-8.79149 4.44496,-32.22608 3.70641,-33.20799 -0.16244,-0.21596 -6.26265,0.27812 -13.55602,1.09795 -16.37628,1.84083 -30.9608,0.31049 -46.46598,-4.87561 L 340.5868,234.76132 290.01751,285.38066 239.4482,336 l 1.3834,5.76 c 3.05997,12.74065 0.85739,51.82575 -3.57086,63.36559 -1.09469,2.8527 17.47229,2.53493 35.57207,-0.60882 z m 22.67643,67.92282 c 35.48309,-7.52013 70.1974,-24.3339 100.17588,-48.5199 13.42632,-10.83205 33.30435,-31.95358 43.68915,-46.42217 9.33374,-13.0042 23.37969,-40.21556 27.6969,-53.65752 7.60068,-23.6652 10.60243,-50.63805 7.90591,-71.04 -1.33086,-10.06924 -5.98544,-31.26932 -7.11407,-32.40215 -0.22035,-0.22118 -4.4796,1.65197 -9.46498,4.16257 -4.98538,2.51059 -13.53733,6.34158 -19.00434,8.51332 -5.46701,2.17173 -10.36627,4.61856 -10.88726,5.43743 -0.52097,0.81885 -0.9661,5.52083 -0.98918,10.44883 -0.19291,41.20509 -21.28727,89.61487 -52.76608,121.09368 -33.80301,33.803 -74.29511,51.01824 -125.20652,53.23161 l -17.33534,0.75365 -4.29963,11.02053 c -2.3648,6.06129 -6.85047,16.14176 -9.96815,22.40102 -4.18778,8.40766 -5.25432,11.6365 -4.08289,12.36048 1.34116,0.82887 8.13557,2.24884 26.78136,5.59705 7.77642,1.39641 43.33425,-0.53374 54.86924,-2.97843 z M 132.15567,407.36436 c 38.54638,-38.5416 70.08433,-70.66342 70.08433,-71.38183 0,-0.7184 -6.33993,-7.62646 -14.08873,-15.35123 l -14.08873,-14.04505 -69.75127,69.74248 -69.75127,69.74246 0,15.68441 0,15.6844 13.755675,0 13.755676,0 70.084319,-70.07564 z"
     id="path2989"
     style="fill:#ffffff" />
</svg>
