<?xml version="1.0" encoding="UTF-8" standalone="no"?>
<!-- Created with Inkscape (http://www.inkscape.org/) -->

<svg
   xmlns:dc="http://purl.org/dc/elements/1.1/"
   xmlns:cc="http://creativecommons.org/ns#"
   xmlns:rdf="http://www.w3.org/1999/02/22-rdf-syntax-ns#"
   xmlns:svg="http://www.w3.org/2000/svg"
   xmlns="http://www.w3.org/2000/svg"
   xmlns:sodipodi="http://sodipodi.sourceforge.net/DTD/sodipodi-0.dtd"
   xmlns:inkscape="http://www.inkscape.org/namespaces/inkscape"
   id="svg2"
   version="1.1"
   inkscape:version="0.48.3.1 r9886"
   width="400"
   height="400"
   sodipodi:docname="Icon.3_85.png">
  <metadata
     id="metadata8">
    <rdf:RDF>
      <cc:Work
         rdf:about="">
        <dc:format>image/svg+xml</dc:format>
        <dc:type
           rdf:resource="http://purl.org/dc/dcmitype/StillImage" />
        <dc:title></dc:title>
      </cc:Work>
    </rdf:RDF>
  </metadata>
  <defs
     id="defs6" />
  <sodipodi:namedview
     pagecolor="#ffffff"
     bordercolor="#666666"
     borderopacity="1"
     objecttolerance="10"
     gridtolerance="10"
     guidetolerance="10"
     inkscape:pageopacity="0"
     inkscape:pageshadow="2"
     inkscape:window-width="1855"
     inkscape:window-height="1056"
     id="namedview4"
     showgrid="false"
     inkscape:zoom="0.59"
     inkscape:cx="200"
     inkscape:cy="200"
     inkscape:window-x="65"
     inkscape:window-y="24"
     inkscape:window-maximized="1"
     inkscape:current-layer="svg2" />
  <path
     style="fill:#000000"
     d="m 0,0 400,0 0,400 -400,0 z"
     id="rect3030" />
  <path
     id="path2989"
     style="fill:#ffffff"
     d="m 270.221,151.2813 c 3.17845,-3.14528 5.779,-6.19045 5.779,-6.76705 0,-0.5766 -4.94677,-5.97979 -10.99283,-12.0071 l -10.99282,-10.95874 -6.00718,5.94449 C 244.70323,130.76237 242,133.89413 242,134.45237 242,135.44396 262.98847,157 263.95395,157 c 0.26843,0 3.0886,-2.57341 6.26705,-5.7187 z M 92.98195,211.50313 c 9.83937,-1.70716 24.35221,-2.13588 36.01805,-1.064 l 7.5,0.68911 39.34195,-39.41078 39.34194,-39.41077 -2.58583,-8.18563 c -3.55532,-11.25456 -4.87016,-23.9341 -3.61653,-34.875432 0.55113,-4.810096 1.00575,-9.308128 1.01027,-9.995628 0.0176,-2.680053 -19.68524,-0.654695 -34.4918,3.545595 -32.49486,9.218065 -59.59508,30.005165 -76.29268,58.519955 -11.042465,18.85741 -16.440691,37.59952 -17.887543,62.10379 -0.586347,9.93052 -0.493916,10.86146 1.020703,10.28025 0.91599,-0.3515 5.704651,-1.33991 10.64147,-2.19646 z m -53.703433,18.32182 c 3.421816,-1.74628 11.300117,-5.24948 17.507336,-7.7849 l 11.285853,-4.60984 0.375928,-11.96511 C 68.866477,192.13411 70.9565,178.53494 74.436085,166.5 87.917494,119.87148 125.49439,83.164941 173.03922,70.180696 183.48309,67.328531 198.66511,65 206.81736,65 l 6.8389,0 3.30533,-8.75 c 1.81794,-4.8125 4.84916,-11.833618 6.73606,-15.602485 1.88689,-3.768866 3.28933,-6.993341 3.11653,-7.1655 -1.14659,-1.142336 -18.8405,-4.764652 -27.90182,-5.712091 -19.84519,-2.074983 -42.46351,1.713789 -63.61314,10.655773 C 83.141147,60.477929 41.62099,111.91852 29.906471,169 c -3.725256,18.1521 -3.227427,43.3214 1.191699,60.25 0.538405,2.0625 1.199406,3.75 1.468891,3.75 0.269485,0 3.28964,-1.42877 6.711456,-3.17505 z m 177.479343,-15.08277 43.24925,-43.25781 -16.50709,-16.48435 -16.50708,-16.48434 -43.49311,43.48449 -43.49311,43.48449 16.23528,16.25767 C 165.17139,250.68405 172.70932,258 172.99294,258 c 0.28363,0 19.97784,-19.46602 43.76492,-43.25782 z m -3.60723,101.28655 c 26.09363,-4.5322 47.26859,-14.60719 65.84937,-31.33097 19.53513,-17.58274 34.05091,-43.11002 39.55491,-69.56079 1.4292,-6.86835 3.47262,-25.17663 2.89563,-25.94374 -0.12691,-0.16872 -4.8927,0.21728 -10.59064,0.85777 -12.79397,1.43815 -24.18813,0.24257 -36.30155,-3.80907 l -8.47491,-2.83465 -39.50726,39.54636 -39.50727,39.54636 1.08078,4.5 c 2.3906,9.95363 0.66983,40.48887 -2.78974,49.50437 -0.85522,2.22867 13.65023,1.98041 27.79068,-0.47564 z m 17.71596,53.0647 c 27.72117,-5.8751 54.84172,-19.01086 78.26241,-37.90617 10.48931,-8.46254 26.01902,-24.96374 34.13215,-36.26732 7.29198,-10.15953 18.26538,-31.41841 21.6382,-41.91994 5.93803,-18.48844 8.28315,-39.56098 6.17649,-55.5 -1.03973,-7.86659 -4.67612,-24.42916 -5.55786,-25.31418 -0.17215,-0.1728 -3.49969,1.2906 -7.39452,3.25201 -3.89483,1.9614 -10.57604,4.95436 -14.84714,6.65103 -4.2711,1.69666 -8.09865,3.60825 -8.50567,4.24799 -0.40701,0.63973 -0.75477,4.31315 -0.7728,8.16315 -0.15071,32.19148 -16.63068,70.01162 -41.2235,94.60444 -26.4086,26.40859 -58.04305,39.858 -97.81759,41.58719 l -13.54324,0.58879 -3.35908,8.60979 c -1.8475,4.73538 -5.35193,12.61075 -7.78762,17.5008 -3.2717,6.56848 -4.10494,9.09101 -3.18976,9.65662 1.04778,0.64756 6.35592,1.75691 20.92294,4.3727 6.07533,1.09094 33.85488,-0.41699 42.86659,-2.3269 z M 103.24662,318.25341 C 133.36098,288.14278 158,263.04761 158,262.48635 c 0,-0.56125 -4.95307,-5.95817 -11.00682,-11.99315 L 135.98636,239.52051 81.493182,294.00682 27,348.49312 27,360.74656 27,373 l 10.746621,0 10.746622,0 54.753377,-54.74659 z" />
</svg>
