<?xml version="1.0" encoding="UTF-8" standalone="no"?>
<!-- Created with Inkscape (http://www.inkscape.org/) -->

<svg
   xmlns:dc="http://purl.org/dc/elements/1.1/"
   xmlns:cc="http://creativecommons.org/ns#"
   xmlns:rdf="http://www.w3.org/1999/02/22-rdf-syntax-ns#"
   xmlns:svg="http://www.w3.org/2000/svg"
   xmlns="http://www.w3.org/2000/svg"
   version="1.1"
   width="512"
   height="512"
   id="svg2">
  <metadata
     id="metadata8">
    <rdf:RDF>
      <cc:Work
         rdf:about="">
        <dc:format>image/svg+xml</dc:format>
        <dc:type
           rdf:resource="http://purl.org/dc/dcmitype/StillImage" />
        <dc:title></dc:title>
      </cc:Work>
    </rdf:RDF>
  </metadata>
  <defs
     id="defs6" />
  <path
     d="m 0,0 512,0 0,512 -512,0 z"
     id="rect3026"
     style="fill:#000000" />
  <path
     d="m 66.545915,153.60754 c 5.256522,-2.81321 38.166245,-13.38496 56.010045,-17.99238 54.26511,-14.01172 97.54768,-18.55793 166.51321,-17.48981 44.69,0.69215 77.07096,3.16915 106.20611,8.12429 6.55339,1.11456 12.17403,1.76773 12.49028,1.45148 C 408.57393,126.89275 384.46762,110.60316 369.92,102.12737 295.78154,58.93255 209.68914,39.073526 85.12,36.432259 68.224,36.074008 50.8,35.527866 46.4,35.218609 c -4.4,-0.309259 -8,-0.03846 -8,0.601766 0,0.640229 2.875292,4.962842 6.38954,9.605805 24.487053,32.35188 28.121241,71.07558 10.060596,107.19957 l -3.6726,7.34574 6.598136,-2.60074 c 3.628976,-1.4304 7.575584,-3.12385 8.770243,-3.76321 z m 29.070482,139.00054 c 0.562981,-0.98555 5.343603,-5.67112 10.623603,-10.41237 33.27791,-29.88234 70.41586,-54.35787 118.4,-78.03078 49.98817,-24.66161 93.0724,-40.45573 148.48,-54.43089 13.376,-3.37376 23.456,-6.44927 22.4,-6.83446 -1.056,-0.38519 -9.12,-1.57699 -17.92,-2.64846 -87.66086,-10.6733 -162.06756,-8.57461 -231.68,6.53467 -24.27421,5.26869 -58.755935,15.8629 -75.996041,23.34911 l -6.236041,2.7079 5.647314,4.31204 c 11.210634,8.55996 20.543493,23.5761 25.687008,41.32923 2.559087,8.83283 2.881788,12.6768 2.77337,33.03593 -0.09948,18.67991 -0.611016,24.91726 -2.703124,32.96 -2.343187,9.00797 -2.103438,12.72751 0.523911,8.12808 z M 222.37336,355.2 c 34.77511,-50.87 76.67396,-100.56234 117.7252,-139.62292 19.01061,-18.08875 48.69484,-44.58877 57.29052,-51.14502 2.53033,-1.92998 4.36951,-3.74013 4.08709,-4.02256 -0.75872,-0.75871 -16.69496,2.94457 -39.87617,9.26647 -99.01617,27.00331 -195.50394,76.99214 -247.68,128.31919 -10.45965,10.28945 -10.71379,10.67415 -6.57795,9.95749 6.06347,-1.0507 25.24424,1.32793 34.90895,4.32908 33.90999,10.52998 57.24184,43.91874 52.64441,75.33614 -0.79053,5.40217 -1.84777,10.97413 -2.34945,12.38213 -0.50167,1.408 3.83859,-4.928 9.64504,-14.08 5.80645,-9.152 14.88851,-22.976 20.18236,-30.72 z m 248.01879,85.56595 c 3.24105,-3.97871 5.64366,-7.86671 5.33914,-8.64 -0.30453,-0.77327 -4.39963,-7.45395 -9.10022,-14.84595 -10.39787,-16.35132 -25.79011,-47.28065 -32.16863,-64.64 -6.23907,-16.97981 -12.71332,-42.9215 -15.38064,-61.62866 -2.79918,-19.63205 -2.81742,-58.23546 -0.0371,-78.45547 1.10751,-8.05429 1.86589,-14.7919 1.68529,-14.9725 -0.27807,-0.27806 -47.97006,111.30231 -50.22845,117.51473 -0.53589,1.47411 13.60212,22.44221 45.5262,67.52 C 441.49469,418.57814 462.81907,448 463.4153,448 c 0.59623,0 3.73582,-3.25532 6.97685,-7.23405 z m -53.44638,33.40461 C 427.18849,471.6661 449.28,461.61148 449.28,459.45413 c 0,-0.82953 -22.16978,-32.80738 -49.26618,-71.06191 l -49.26616,-69.55368 30.7028,-71.95597 c 16.88654,-39.57579 30.49788,-72.16089 30.24743,-72.41134 -0.89619,-0.89619 -38.93895,32.63749 -60.54497,53.36877 -35.21578,33.79003 -60.4764,62.38367 -90.79949,102.78006 -16.72931,22.28678 -51.69898,73.85994 -50.08142,73.85994 0.22608,0 4.99135,-2.22591 10.58952,-4.94646 51.03283,-24.80056 108.14061,-21.47655 139.95926,8.14646 16.26244,15.14026 23.99931,32.45508 25.3873,56.81581 l 0.75754,13.29581 10.66295,-0.7525 c 5.86463,-0.41387 14.55737,-1.70472 19.31719,-2.86856 z"
     id="path2989"
     style="fill:#ffffff" />
</svg>
