<?xml version="1.0" encoding="UTF-8" standalone="no"?>
<!-- Created with Inkscape (http://www.inkscape.org/) -->

<svg
   xmlns:dc="http://purl.org/dc/elements/1.1/"
   xmlns:cc="http://creativecommons.org/ns#"
   xmlns:rdf="http://www.w3.org/1999/02/22-rdf-syntax-ns#"
   xmlns:svg="http://www.w3.org/2000/svg"
   xmlns="http://www.w3.org/2000/svg"
   xmlns:sodipodi="http://sodipodi.sourceforge.net/DTD/sodipodi-0.dtd"
   xmlns:inkscape="http://www.inkscape.org/namespaces/inkscape"
   id="svg2"
   version="1.1"
   inkscape:version="0.48.3.1 r9886"
   width="400"
   height="400"
   sodipodi:docname="Icon.4_14.png">
  <metadata
     id="metadata8">
    <rdf:RDF>
      <cc:Work
         rdf:about="">
        <dc:format>image/svg+xml</dc:format>
        <dc:type
           rdf:resource="http://purl.org/dc/dcmitype/StillImage" />
        <dc:title></dc:title>
      </cc:Work>
    </rdf:RDF>
  </metadata>
  <defs
     id="defs6" />
  <sodipodi:namedview
     pagecolor="#ffffff"
     bordercolor="#666666"
     borderopacity="1"
     objecttolerance="10"
     gridtolerance="10"
     guidetolerance="10"
     inkscape:pageopacity="0"
     inkscape:pageshadow="2"
     inkscape:window-width="1855"
     inkscape:window-height="1056"
     id="namedview4"
     showgrid="false"
     inkscape:zoom="0.59"
     inkscape:cx="200"
     inkscape:cy="200"
     inkscape:window-x="65"
     inkscape:window-y="24"
     inkscape:window-maximized="1"
     inkscape:current-layer="svg2" />
  <path
     style="fill:#000000"
     d="m 0,0 400,0 0,400 -400,0 z"
     id="rect3026" />
  <path
     id="path2989"
     style="fill:#ffffff"
     d="m 51.988996,120.00589 c 4.106658,-2.19782 29.817378,-10.457 43.757849,-14.05655 42.394615,-10.946656 76.209125,-14.498382 130.088445,-13.663911 34.91406,0.540741 60.21169,2.475896 82.97352,6.347099 5.11984,0.870754 9.51096,1.381042 9.75803,1.133969 C 319.19838,99.134958 300.36533,86.408721 289,79.787011 231.07933,46.041055 163.81964,30.526192 66.5,28.462702 53.3,28.182819 39.6875,27.756145 36.25,27.514538 32.8125,27.27293 30,27.484488 30,27.984668 c 0,0.500179 2.246322,3.87722 4.991828,7.504535 19.13051,25.274906 21.96972,55.5278 7.859841,83.749667 l -2.869219,5.73886 5.154794,-2.03183 c 2.835137,-1.1175 5.918425,-2.44051 6.851752,-2.94001 z M 74.70031,228.60006 C 75.140139,227.8301 78.875,224.1695 83,220.4654 c 25.99837,-23.34558 55.01239,-42.46709 92.5,-60.96155 39.05326,-19.26688 72.71281,-31.60604 116,-42.52413 10.45,-2.63575 18.325,-5.03849 17.5,-5.33942 -0.825,-0.30093 -7.125,-1.23203 -14,-2.06911 -68.48505,-8.33852 -126.61528,-6.69892 -181,5.10521 -18.964229,4.11616 -45.903074,12.39289 -59.371907,18.24149 l -4.871907,2.11555 4.411964,3.36878 c 8.758308,6.68747 16.049604,18.41883 20.067975,32.28846 1.999287,6.90065 2.251397,9.90375 2.166695,25.80932 -0.07772,14.59368 -0.477356,19.46661 -2.111815,25.75 -1.830615,7.03748 -1.643311,9.94337 0.409305,6.35006 z M 173.72919,277.5 c 27.16805,-39.74219 59.90153,-78.56433 91.97281,-109.08041 14.85204,-14.13183 38.04284,-34.83497 44.75822,-39.95704 1.97682,-1.5078 3.41368,-2.92198 3.19304,-3.14263 -0.59275,-0.59274 -13.04294,2.30045 -31.15326,7.23943 -77.35638,21.09634 -152.73745,60.15011 -193.5,100.24937 -8.1716,8.03863 -8.370148,8.33918 -5.139024,7.77929 4.737089,-0.82086 19.722064,1.03744 27.272614,3.38209 26.49218,8.22655 44.72019,34.31152 41.12845,58.85636 -0.6176,4.22045 -1.44357,8.57354 -1.83551,9.67354 -0.39193,1.1 2.9989,-3.85 7.53519,-11 4.53629,-7.15 11.63165,-17.95 15.76747,-24 z m 193.76468,66.8484 c 2.53207,-3.10837 4.40911,-6.14587 4.1712,-6.75 -0.23791,-0.60412 -3.43721,-5.8234 -7.10955,-11.5984 -8.12333,-12.77447 -20.14852,-36.93801 -25.13174,-50.5 -4.87427,-13.26548 -9.93228,-33.53242 -12.01612,-48.14739 -2.18686,-15.33754 -2.20111,-45.49645 -0.029,-61.29334 0.86524,-6.29241 1.45772,-11.55617 1.31663,-11.69726 -0.21724,-0.21724 -37.47661,86.95493 -39.24098,91.80838 -0.41866,1.15165 10.62666,17.53298 35.56735,52.75 C 344.91773,327.01417 361.5774,350 362.0432,350 c 0.46581,0 2.91861,-2.54322 5.45067,-5.6516 z m -41.75499,26.09735 C 333.74101,368.48914 351,360.63397 351,358.94854 c 0,-0.64807 -17.32014,-25.63077 -38.4892,-55.51712 l -38.48919,-54.33881 23.98656,-56.2156 c 13.19261,-30.91859 23.82647,-56.3757 23.63081,-56.57136 -0.70015,-0.70015 -30.42106,25.49804 -47.30076,41.69435 -27.51233,26.39846 -47.24719,48.73724 -70.9371,80.29692 C 190.33134,275.70847 163.01129,316 164.27501,316 c 0.17662,0 3.89949,-1.73899 8.27306,-3.86442 39.8694,-19.37544 84.48485,-16.77856 109.34317,6.36442 12.70503,11.82833 18.74946,25.35553 19.83383,44.38735 l 0.59183,10.38735 8.33043,-0.58789 c 4.58174,-0.32333 11.37294,-1.33181 15.09155,-2.24106 z" />
</svg>
