<?xml version="1.0" encoding="UTF-8" standalone="no"?>
<!-- Created with Inkscape (http://www.inkscape.org/) -->

<svg
   xmlns:dc="http://purl.org/dc/elements/1.1/"
   xmlns:cc="http://creativecommons.org/ns#"
   xmlns:rdf="http://www.w3.org/1999/02/22-rdf-syntax-ns#"
   xmlns:svg="http://www.w3.org/2000/svg"
   xmlns="http://www.w3.org/2000/svg"
   xmlns:sodipodi="http://sodipodi.sourceforge.net/DTD/sodipodi-0.dtd"
   xmlns:inkscape="http://www.inkscape.org/namespaces/inkscape"
   id="svg2"
   version="1.1"
   inkscape:version="0.48.3.1 r9886"
   width="400"
   height="400"
   sodipodi:docname="Icon.5_16.png">
  <metadata
     id="metadata8">
    <rdf:RDF>
      <cc:Work
         rdf:about="">
        <dc:format>image/svg+xml</dc:format>
        <dc:type
           rdf:resource="http://purl.org/dc/dcmitype/StillImage" />
        <dc:title></dc:title>
      </cc:Work>
    </rdf:RDF>
  </metadata>
  <defs
     id="defs6" />
  <sodipodi:namedview
     pagecolor="#ffffff"
     bordercolor="#666666"
     borderopacity="1"
     objecttolerance="10"
     gridtolerance="10"
     guidetolerance="10"
     inkscape:pageopacity="0"
     inkscape:pageshadow="2"
     inkscape:window-width="1855"
     inkscape:window-height="1056"
     id="namedview4"
     showgrid="false"
     inkscape:zoom="0.59"
     inkscape:cx="200"
     inkscape:cy="200"
     inkscape:window-x="65"
     inkscape:window-y="24"
     inkscape:window-maximized="1"
     inkscape:current-layer="svg2" />
  <path
     style="fill:#000000"
     d="m 0,0 400,0 0,400 -400,0 z"
     id="rect3026" />
  <path
     id="path2989"
     style="fill:#ffffff"
     d="M 232.90749,82.75 C 225.12918,67.700059 213.3727,51.351335 204.44724,43.172766 191.68541,31.478865 178.71794,26.933729 158.59004,27.09968 c -18.54591,0.152907 -18.46248,0.05683 -7.64409,8.801834 11.07037,8.948689 23.91955,22.387372 33.31983,34.848486 6.95352,9.217671 6.99335,9.25 11.39548,9.25 6.17296,0 21.68041,1.836981 28.83874,3.416179 9.25632,2.042032 9.78551,2.000101 8.40749,-0.666179 z m -70.1717,26.7154 c 5.59038,-2.50034 14.05606,-10.228407 16.60569,-15.158864 l 1.54984,-2.997056 -7.16674,-5.90474 C 147.50641,63.803367 130.62626,52.692376 116.84213,47.963106 105.90164,44.209474 94.165416,42.774545 84.464678,44.004478 71.779832,45.61276 55.956444,50.376508 57.684705,52.066787 58.133117,52.505345 63.45,54.771252 69.5,57.102138 c 30.400468,11.712398 64.91218,33.734975 79.61488,50.803762 4.82168,5.59763 4.63901,5.57671 13.62091,1.5595 z M 222,160.65286 c -3.025,-0.68814 -7.3,-2.11303 -9.5,-3.16643 -6.08791,-2.915 -13.87898,-11.30317 -17.88241,-19.25293 l -3.56538,-7.0799 6.60938,-0.70781 c 19.74653,-2.11467 33.23153,3.72048 36.86374,15.95146 1.92109,6.46901 1.97661,14.60275 0.0997,14.60275 -0.75625,0 -2.66875,0.20341 -4.25,0.45201 -1.58125,0.24861 -5.35,-0.11101 -8.375,-0.79915 z M 286.97305,304.75 c -2.21012,-3.59585 -3.50595,-7.8809 -4.50809,-14.90734 l -0.66426,-4.65734 -3.15035,1.29546 c -12.81693,5.27045 -25.29472,0.59245 -30.42913,-11.40805 -1.6555,-3.86935 -2.20323,-16.32509 -0.97063,-22.07273 l 0.75058,-3.5 -6.38334,0.33014 c -14.83852,0.76742 -22.43018,-9.32882 -19.07447,-25.36739 C 223.34451,220.63365 224,217.38808 224,217.25037 224,217.11267 223.3321,217 222.51578,217 c -0.81633,0 -2.89914,-1.26423 -4.62848,-2.80939 -8.56875,-7.65618 -1.64741,-26.02658 12.6127,-33.47623 6.36471,-3.32499 19.93046,-2.78332 15.46171,0.61738 -8.0667,6.13873 -8.86605,18.50068 -1.75319,27.11283 3.02131,3.65815 3.23467,4.39594 2.93823,10.16035 -0.23282,4.52713 0.20795,7.4085 1.62245,10.60621 2.36055,5.33641 7.50247,11.36085 11.43013,13.39193 2.29184,1.18516 2.76061,1.94777 2.22827,3.62504 -1.20345,3.79172 -0.54487,10.71834 1.44728,15.22193 3.56176,8.05195 13.81051,17.17796 21.44245,19.09346 2.10238,0.52766 2.68267,1.27238 2.68267,3.44277 0,4.70566 2.70224,9.56067 7.9449,14.27427 5.62783,5.05991 5.49965,5.61286 -1.90696,8.22606 -2.35917,0.83237 -4.46443,1.51339 -4.67836,1.51339 -0.21394,0 -1.28787,-1.4625 -2.38653,-3.25 z M 182.45,370.15038 c -0.5225,-0.46729 -2.95062,-1.6239 -5.39582,-2.57025 C 165.77026,363.21298 151.04124,352.88981 139.454,341.22716 111.46982,313.06087 94,272.16289 94,234.81642 c 0,-26.32996 8.28625,-43.30716 25,-51.221 6.09659,-2.88669 7.24384,-3.08172 18.48544,-3.14251 l 11.98543,-0.0648 2.66511,-7.94404 c 1.46581,-4.36923 3.23193,-10.98155 3.92472,-14.69405 1.38082,-7.39959 1.12922,-7.23397 9.29002,-6.11541 l 4.62987,0.6346 -0.58004,4.1154 c -1.07445,7.62318 -4.47756,19.04457 -9.12215,30.61541 -2.53888,6.325 -4.57152,12.24238 -4.51698,13.14974 0.15954,2.65383 9.61861,22.04883 15.90707,32.61606 20.08893,33.75774 53.45674,66.68503 81.83151,80.75118 14.35035,7.11386 21.19855,8.81298 33.44736,8.29871 8.42552,-0.35375 10.36999,-0.806 16.47988,-3.83291 4.45878,-2.20894 9.76331,-6.12329 14.88612,-10.98485 l 7.95888,-7.55302 -10.27972,-5.47245 c -5.65384,-3.00985 -11.18428,-6.68494 -12.28986,-8.16686 l -2.01013,-2.69439 3.25411,-8.6219 c 1.78976,-4.74204 3.06417,-8.81183 2.83202,-9.04398 -0.23215,-0.23216 -4.03619,0.10466 -8.45342,0.74848 -6.53434,0.95239 -8.64266,0.91735 -11.31114,-0.18797 C 281.22754,263.19475 276,256.93168 276,251.61183 c 0,-1.79866 1.7998,-4.09697 6.49944,-8.29966 3.5747,-3.19669 6.4997,-6.06739 6.5,-6.37933 3.1e-4,-0.31193 -3.48694,-1.37236 -7.74944,-2.35651 -10.99782,-2.53922 -15.85001,-4.87171 -18.21959,-8.7583 -2.8948,-4.74807 -2.54808,-6.98354 1.96959,-12.69881 2.2,-2.78321 4,-5.32339 4,-5.64483 0,-0.32145 -2.5875,-1.724 -5.75,-3.11678 -7.29337,-3.21205 -9.25,-4.98803 -9.25,-8.39597 0,-3.88943 4.68869,-5.00899 12.21895,-2.91763 7.76231,2.1558 12.88695,8.82996 13.13551,17.10725 l 0.14554,4.84656 6.28984,0.001 c 11.79353,0.002 19.90678,6.99802 21.79265,18.79159 l 0.6397,4.00045 6.4428,-3.01496 c 4.19625,-1.96365 8.67855,-3.19441 12.85457,-3.52962 5.54889,-0.44541 7.15088,-0.15306 11.90401,2.17243 10.54627,5.15981 15.01852,14.3163 14.42753,29.53888 -0.19311,4.97383 -0.28551,9.0431 -0.20535,9.04282 0.57868,-0.002 6.97288,-10.95459 9.68943,-16.59695 5.65374,-11.74298 7.13527,-18.42883 7.06959,-31.90355 -0.0499,-10.23398 -0.45091,-13.17735 -2.72494,-20 -1.46655,-4.4 -4.1676,-10.68323 -6.00234,-13.96274 l -3.33589,-5.96273 -9.4208,-1.84354 c -17.41473,-3.40786 -31.96856,-10.85317 -42.83078,-21.91098 -6.2198,-6.33179 -10.71118,-13.48979 -15.18556,-24.20153 -7.64609,-18.3048 -23.25262,-28.27237 -58.22232,-37.185321 C 221.43199,95.56567 205.58528,93.013421 199,93.008271 c -4.46575,-0.0035 -4.52275,0.04023 -7.48871,5.744105 -6.4721,12.446584 -20.13218,22.714434 -35.74099,26.865384 l -6.7297,1.78967 -3.70183,-4.45371 C 133.80068,109.0721 116.58934,95.279293 97.337868,84.486804 l -5.162132,-2.893921 -7.547388,1.7793 C 61.232238,88.887825 40.017582,106.46514 30.861996,127.92008 L 28.05411,134.5 28.027055,252.75 28,371 l 77.7,0 c 42.735,0 77.2725,-0.38233 76.75,-0.84962 z" />
</svg>
