<?xml version="1.0" encoding="UTF-8" standalone="no"?>
<!-- Created with Inkscape (http://www.inkscape.org/) -->

<svg
   xmlns:dc="http://purl.org/dc/elements/1.1/"
   xmlns:cc="http://creativecommons.org/ns#"
   xmlns:rdf="http://www.w3.org/1999/02/22-rdf-syntax-ns#"
   xmlns:svg="http://www.w3.org/2000/svg"
   xmlns="http://www.w3.org/2000/svg"
   xmlns:sodipodi="http://sodipodi.sourceforge.net/DTD/sodipodi-0.dtd"
   xmlns:inkscape="http://www.inkscape.org/namespaces/inkscape"
   id="svg2"
   version="1.1"
   inkscape:version="0.48.3.1 r9886"
   width="400"
   height="400"
   sodipodi:docname="Icon.2_75.png">
  <metadata
     id="metadata8">
    <rdf:RDF>
      <cc:Work
         rdf:about="">
        <dc:format>image/svg+xml</dc:format>
        <dc:type
           rdf:resource="http://purl.org/dc/dcmitype/StillImage" />
        <dc:title></dc:title>
      </cc:Work>
    </rdf:RDF>
  </metadata>
  <defs
     id="defs6" />
  <sodipodi:namedview
     pagecolor="#ffffff"
     bordercolor="#666666"
     borderopacity="1"
     objecttolerance="10"
     gridtolerance="10"
     guidetolerance="10"
     inkscape:pageopacity="0"
     inkscape:pageshadow="2"
     inkscape:window-width="1855"
     inkscape:window-height="1056"
     id="namedview4"
     showgrid="false"
     showguides="true"
     inkscape:guide-bbox="true"
     inkscape:zoom="0.59"
     inkscape:cx="200"
     inkscape:cy="200"
     inkscape:window-x="65"
     inkscape:window-y="24"
     inkscape:window-maximized="1"
     inkscape:current-layer="svg2" />
  <path
     style="fill:#000000"
     d="m 0,0 400,0 0,400 -400,0 z"
     id="rect3020" />
  <path
     id="path2989"
     style="fill:#ffffff"
     d="M 148,168.89548 C 122.97139,165.89237 87.734993,137.25224 72.255766,107.3306 66.781823,96.749371 64.657814,88.714866 65.177385,80.555155 65.870605,69.668346 71.57802,64.708699 83.224358,64.87264 c 34.333312,0.483298 86.575942,52.40846 86.893872,86.36584 0.12589,13.44638 -7.36591,19.42709 -22.11823,17.657 z m 193.29625,167.48453 30.71253,-31.11999 -19.75439,-10.78678 C 313.10586,273.09639 282.90766,253.97221 262,237.31617 244.83939,223.6452 218.03898,194.3805 220.59498,192.10397 c 0.49776,-0.44333 4.29945,-3.91059 8.44819,-7.70501 20.08993,-18.37417 49.77156,-41.36213 76.69484,-59.39896 7.79927,-5.225 14.19883,-9.72875 14.22124,-10.00833 0.0224,-0.27959 -10.00588,-10.54753 -22.28509,-22.817642 L 275.34831,69.864725 263.2938,88.182362 c -20.37158,30.955978 -56.31219,77.269638 -58.31736,75.148718 -0.43216,-0.45709 -3.09967,-8.59586 -5.92781,-18.08615 C 187.62589,106.91407 179.87878,92.452747 160.61397,73.5 133.04912,46.381657 100.24901,30.063373 72.917328,29.870311 56.142591,29.75182 44.495802,34.98219 36.870401,46.058355 31.884368,53.300745 30,60.467239 30,72.187379 c 0,25.881354 14.854814,56.888331 40.472291,84.479251 19.229988,20.71137 36.447669,29.98699 76.806919,41.37791 10.32521,2.91417 18.64884,5.59145 18.49695,5.94953 -0.39537,0.93207 -16.85061,15.40925 -26.27616,23.11755 -13.51707,11.05438 -27.58684,21.41808 -47.89357,35.27807 L 72.151646,275.6682 94.333978,297.8341 C 106.53426,310.02535 116.80042,320 117.14767,320 c 0.34724,0 5.61001,-7.58203 11.69503,-16.84896 17.80632,-27.11742 33.20361,-47.55401 53.22971,-70.65104 13.15198,-15.16879 12.01186,-14.5031 17.84555,-10.41969 12.89047,9.02295 32.58985,28.56861 45.77691,45.41969 15.8853,20.29904 37.72742,54.74543 56.91203,89.75383 3.2412,5.91461 6.36194,10.63961 6.93496,10.5 0.57302,-0.1396 14.8625,-14.25783 31.75439,-31.37382 z" />
</svg>
