<?xml version="1.0" encoding="UTF-8" standalone="no"?>
<!-- Created with Inkscape (http://www.inkscape.org/) -->

<svg
   xmlns:dc="http://purl.org/dc/elements/1.1/"
   xmlns:cc="http://creativecommons.org/ns#"
   xmlns:rdf="http://www.w3.org/1999/02/22-rdf-syntax-ns#"
   xmlns:svg="http://www.w3.org/2000/svg"
   xmlns="http://www.w3.org/2000/svg"
   version="1.1"
   width="512"
   height="512"
   id="svg2">
  <metadata
     id="metadata8">
    <rdf:RDF>
      <cc:Work
         rdf:about="">
        <dc:format>image/svg+xml</dc:format>
        <dc:type
           rdf:resource="http://purl.org/dc/dcmitype/StillImage" />
        <dc:title></dc:title>
      </cc:Work>
    </rdf:RDF>
  </metadata>
  <defs
     id="defs6" />
  <rect
     width="512"
     height="512"
     x="0"
     y="0"
     id="rect3001"
     style="fill:#000000;fill-opacity:1;stroke:none" />
  <path
     d="M 58.88,79.730217 C 52.480282,76.458623 49.345235,69.608073 51.161304,62.863704 53.044736,55.869175 57.652988,52.48 65.28,52.48 c 7.471916,0 12.158929,3.323284 14.174363,10.050205 C 83.111588,74.736932 70.210257,85.522346 58.88,79.730217 z M 200.38702,190.1348 c 35.86714,-40.69486 67.57792,-76.65109 70.4684,-79.90273 L 276.11086,104.32 249.98259,81.28 C 235.61206,68.608 222.59112,57.376 221.04717,56.32 c -2.77467,-1.89777 -2.78358,-1.88295 -0.76954,1.28 22.01095,34.567137 30.60237,48.71671 30.60237,50.40029 0,2.51975 -52.39738,62.23971 -54.60817,62.23971 -0.86985,0 -3.1873,-2.16 -5.14987,-4.8 C 169.23692,136.00088 139.19369,108.19399 106.97757,87.559043 96.017728,80.539091 92.897558,77.924522 93.229846,76.039043 93.46626,74.697569 93.700029,70.432 93.749331,66.56 93.990167,47.645709 75.679941,33.789414 57.556957,39.171363 42.628562,43.60462 34.035809,58.021344 37.286797,73.180177 c 1.110259,5.176957 2.764041,7.926414 7.976921,13.261845 5.4956,5.624795 7.749705,6.988578 13.716923,8.299028 6.115771,1.343072 8.213303,1.256311 14.614252,-0.604494 6.860048,-1.994271 7.568495,-2.003085 8.629392,-0.107367 0.635682,1.135899 5.627435,7.660021 11.092785,14.498041 19.61767,24.54483 53.76635,54.58222 79.35351,69.79985 5.70318,3.3919 10.36942,6.74995 10.36942,7.46233 0,0.71239 -9.936,12.55756 -22.08,26.32259 -12.144,13.76503 -23.58227,26.8007 -25.41838,28.96817 -3.11566,3.67792 -3.62803,3.8472 -7.68,2.53746 C 125.47373,242.84576 111.712,236.65094 97.28,229.85135 82.848,223.05176 72.192,218.57258 73.6,219.89763 c 1.408,1.32505 12.275062,10.99814 24.149025,21.49578 11.873965,10.49762 23.969965,21.22262 26.880005,23.83332 l 5.29097,4.74672 2.62702,-2.924 c 1.44488,-1.60821 31.97288,-36.21981 67.84,-76.91465 z M 474.42531,461.92054 C 473.34968,451.62958 467.21167,433.96288 458.91566,417.28 436.31764,371.83647 397.49848,321.67932 328.77033,249.12291 L 316.8,236.48582 l -5.76,3.03709 c -7.63471,4.02558 -23.64783,4.32378 -31.18843,0.58081 -6.13669,-3.04609 -12.68109,-9.66858 -15.68685,-15.87402 -3.49857,-7.22284 -3.8722,-20.38985 -0.77714,-27.38677 l 2.53734,-5.73604 -10.82176,-9.34506 -10.82175,-9.34506 -2.97136,3.07161 c -1.63425,1.6894 -12.27499,13.6851 -23.64609,26.65714 l -20.67474,23.58553 2.94538,2.85067 c 6.26125,6.05993 273.99414,241.17828 274.63344,241.17828 0.37216,0 0.30793,-3.52776 -0.14273,-7.83946 z"
     id="path2987"
     style="fill:#ffffff" />
</svg>
