<?xml version="1.0" encoding="UTF-8" standalone="no"?>
<!-- Created with Inkscape (http://www.inkscape.org/) -->

<svg
   xmlns:dc="http://purl.org/dc/elements/1.1/"
   xmlns:cc="http://creativecommons.org/ns#"
   xmlns:rdf="http://www.w3.org/1999/02/22-rdf-syntax-ns#"
   xmlns:svg="http://www.w3.org/2000/svg"
   xmlns="http://www.w3.org/2000/svg"
   version="1.1"
   width="512"
   height="512"
   id="svg2">
  <metadata
     id="metadata8">
    <rdf:RDF>
      <cc:Work
         rdf:about="">
        <dc:format>image/svg+xml</dc:format>
        <dc:type
           rdf:resource="http://purl.org/dc/dcmitype/StillImage" />
        <dc:title></dc:title>
      </cc:Work>
    </rdf:RDF>
  </metadata>
  <defs
     id="defs6" />
  <rect
     width="512"
     height="512"
     x="0"
     y="0"
     id="rect3002"
     style="fill:#000000;fill-opacity:1;stroke:none" />
  <path
     d="M 347.50804,115.75022 C 367.66071,98.452845 384.4606,83.4891 384.84111,82.497455 385.66575,80.348493 355.22505,44.332351 352.14332,43.810812 349.68425,43.394651 270.72,110.9921 270.72,113.51335 c 0,1.95961 36.31567,33.58902 38.63342,33.64808 0.83238,0.0213 18.00197,-14.11383 38.15462,-31.41121 z m 8.78232,219.97877 c -23.87853,-23.52977 -29.19472,-37.83707 -20.46234,-55.06961 5.03204,-9.93025 6.15045,-10.30529 11.63807,-3.90262 16.94666,19.77251 26.93333,45.4453 24.2241,62.27304 -0.62161,3.86095 -1.77233,7.22877 -2.55715,7.48404 -0.78483,0.25527 -6.56404,-4.59791 -12.84268,-10.78485 z m 31.90277,128.39852 c 7.97212,-3.82237 21.05779,-16.28418 30.77061,-29.30359 7.41154,-9.93472 15.3912,-26.24324 19.62352,-40.10581 3.18376,-10.4281 3.46933,-13.13983 3.48762,-33.11811 0.0242,-26.47933 -1.81597,-34.51256 -13.30783,-58.09384 -4.24933,-8.7196 -7.43754,-16.14233 -7.08494,-16.49495 0.35262,-0.3526 6.80348,0.65836 14.33527,2.24658 15.50912,3.27041 23.76533,2.93081 30.54005,-1.2562 5.596,-3.45852 9.60819,-11.80098 9.58297,-19.92571 -0.031,-9.9627 -0.40207,-10.17438 -13.59467,-7.75304 -6.24016,1.14531 -13.97594,2.08119 -17.19065,2.07976 C 430.51386,262.3962 414.26771,256.96675 401.28,247.67329 397.056,244.65078 341.472,197.48031 277.76,142.85001 214.048,88.219721 161.056,43.561649 160,43.609852 c -2.03621,0.09295 -33.28,35.995642 -33.28,38.242537 0,0.726239 42.48,37.692581 94.4,82.147421 92.96696,79.59999 106.56,91.53622 106.56,93.57176 0,0.5653 -2.01691,4.0655 -4.48201,7.77822 -6.42305,9.6738 -9.60593,19.65865 -9.5562,29.97824 0.0863,17.90438 7.2145,30.54697 30.35821,53.84314 9.328,9.38946 16.96,17.78701 16.96,18.66124 0,3.51447 -14.61535,18.96535 -28.66557,30.30432 -17.26861,13.93631 -20.83591,19.23676 -19.50106,28.97559 2.1984,16.03908 18.96009,32.71485 39.84663,39.64242 3.18984,1.05798 9.46287,1.55104 16.64,1.30786 9.44151,-0.31989 12.8539,-1.02987 18.91313,-3.93509 z m -246.88631,-118.743 c -0.50834,-0.82251 -0.90073,-6.43851 -0.87195,-12.48 0.0834,-17.52962 7.39795,-34.91271 22.90081,-54.42451 l 6.03849,-7.6 3.61192,4.3265 c 7.95975,9.5345 9.36947,23.28383 3.56659,34.78596 -3.76264,7.45807 -15.30014,21.45925 -24.67175,29.94008 -8.10545,7.33502 -9.095,7.84523 -10.57411,5.45197 z m 20.15834,120.55662 c 18.99209,-5.92738 35.7954,-22.98973 37.86948,-38.45328 1.29872,-9.6826 -2.26859,-15.58394 -16.05486,-26.55931 -14.02313,-11.16393 -27.05601,-24.14186 -30.30774,-30.17994 l -2.22081,-4.12383 17.17595,-17.23239 c 23.75921,-23.83727 30.70687,-36.13153 30.7153,-54.35238 0.005,-10.46973 -3.23547,-20.26202 -10.06113,-30.40492 -3.28805,-4.88601 -4.1728,-7.20974 -3.28278,-8.6219 0.67012,-1.06325 13.49759,-12.58918 28.5055,-25.61318 15.0079,-13.024 27.50519,-24.35083 27.77176,-25.17074 0.58784,-1.8081 -36.13232,-33.70926 -38.8014,-33.70926 -1.03801,0 -19.92136,15.48576 -41.963,34.4128 -22.04165,18.92704 -43.59442,37.08878 -47.89504,40.35944 -9.70947,7.38411 -19.220647,11.80545 -30.567856,14.20967 -11.366204,2.40827 -19.006198,2.36991 -32.816414,-0.16476 -6.197333,-1.13743 -11.573764,-1.76217 -11.947621,-1.38831 -1.646466,1.64646 -1.943885,11.60732 -0.500507,16.76256 2.644706,9.44595 11.999684,16.1286 22.578298,16.1286 2.332154,0 10.036077,-1.23412 17.119828,-2.7425 7.083753,-1.50838 13.233383,-2.38866 13.665844,-1.9562 0.432462,0.43246 -2.746717,7.85858 -7.064841,16.50249 C 72.50027,325.42881 69.857838,336.73734 69.840667,361.6 c -0.01517,21.9531 2.290269,32.91551 10.799526,51.3521 11.940576,25.87108 33.715607,48.97668 51.199807,54.32837 6.32065,1.93469 21.30548,1.25722 29.62516,-1.33934 z"
     id="path2987"
     style="fill:#ffffff" />
</svg>
