<?xml version="1.0" encoding="UTF-8" standalone="no"?>
<!-- Created with Inkscape (http://www.inkscape.org/) -->

<svg
   xmlns:dc="http://purl.org/dc/elements/1.1/"
   xmlns:cc="http://creativecommons.org/ns#"
   xmlns:rdf="http://www.w3.org/1999/02/22-rdf-syntax-ns#"
   xmlns:svg="http://www.w3.org/2000/svg"
   xmlns="http://www.w3.org/2000/svg"
   xmlns:sodipodi="http://sodipodi.sourceforge.net/DTD/sodipodi-0.dtd"
   xmlns:inkscape="http://www.inkscape.org/namespaces/inkscape"
   id="svg2"
   version="1.1"
   inkscape:version="0.48.3.1 r9886"
   width="400"
   height="400"
   sodipodi:docname="1.svg">
  <metadata
     id="metadata8">
    <rdf:RDF>
      <cc:Work
         rdf:about="">
        <dc:format>image/svg+xml</dc:format>
        <dc:type
           rdf:resource="http://purl.org/dc/dcmitype/StillImage" />
        <dc:title />
      </cc:Work>
    </rdf:RDF>
  </metadata>
  <defs
     id="defs6" />
  <sodipodi:namedview
     pagecolor="#ffffff"
     bordercolor="#666666"
     borderopacity="1"
     objecttolerance="10"
     gridtolerance="10"
     guidetolerance="10"
     inkscape:pageopacity="0"
     inkscape:pageshadow="2"
     inkscape:window-width="1216"
     inkscape:window-height="1000"
     id="namedview4"
     showgrid="false"
     inkscape:zoom="0.834386"
     inkscape:cx="266.35116"
     inkscape:cy="169.22139"
     inkscape:window-x="64"
     inkscape:window-y="24"
     inkscape:window-maximized="1"
     inkscape:current-layer="svg2" />
  <rect
     style="fill:#000000;fill-opacity:1;stroke:none"
     id="rect3030"
     width="400"
     height="400"
     x="0"
     y="0" />
  <path
     id="path2989"
     style="fill:#ffffff"
     d="M 112.69736,84.986504 114.24927,38.701903 117.3678,32.850951 120.48632,27 l 18.50928,0 18.50928,0 -0.56885,11.55019 -0.56884,11.550189 -11.72179,21.699811 c -27.74032,51.35394 -32.67734,60.29353 -33.07719,59.89368 -0.23252,-0.23252 0.27559,-21.25084 1.12915,-46.707366 z m 117.66771,65.635786 24.3426,-39.52586 33.5,-20.644682 c 18.425,-11.354576 36.3125,-22.40824 39.75,-24.563696 3.4375,-2.155456 6.25,-3.57251 6.25,-3.149008 0,0.423503 -10.9125,18.483066 -24.25,40.132366 l -24.25,39.36236 -39.49028,24.3095 c -21.71965,13.37023 -39.64882,24.15096 -39.8426,23.95719 -0.19377,-0.19378 10.60186,-18.13895 23.99028,-39.87817 z m 32.08056,126.80642 c 0.31421,-0.31421 18.50171,-10.29337 40.41667,-22.1759 l 39.84537,-21.60461 13.25,-0.42221 13.25,-0.42222 -0.0108,17.84812 -0.0108,17.84811 -7.23922,3.76792 -7.23921,3.76791 -28,0.82669 c -35.43233,1.04611 -65.0025,1.30664 -64.26205,0.56619 z M 169.544,349.3902 c -36.20998,-8.58539 -66.17134,-15.9179 -66.58081,-16.29448 -0.40946,-0.37657 23.79134,-6.49632 53.77956,-13.59945 29.98822,-7.10312 54.99257,-13.20434 55.56522,-13.55826 0.69937,-0.43223 0.50139,-2.57953 -0.60305,-6.54075 -1.82397,-6.54188 -5.63924,-18.73867 -5.99998,-19.181 -0.18307,-0.22446 -103.83576,30.43434 -109.441199,32.37095 -2.37191,0.81946 0.46594,-1.9634 41.656299,-40.84908 l 39.21237,-37.01835 -2.04649,-2.60989 c -2.80105,-3.5722 -17.04991,-16.23214 -17.88206,-15.888 -0.36987,0.15296 -18.18282,18.82707 -39.58434,41.49802 -21.401519,22.67094 -39.046269,40.83019 -39.210559,40.35387 -0.16429,-0.47631 6.72859,-24.35906 15.31751,-53.07278 8.588919,-28.71371 15.406229,-52.75398 15.149579,-53.42281 -0.51423,-1.34005 -19.467249,-5.96043 -22.224719,-5.41796 -1.41047,0.27748 -4.07261,10.21267 -14.52073,54.19179 -7.0365,29.61861 -13.01815,54.07653 -13.29256,54.35094 -0.2744,0.27441 -0.95761,-1.234 -1.51823,-3.35202 -3.22173,-12.1717 -30.28572,-127.18645 -30.31976,-128.85094 -0.0449,-2.19309 29.76465,-128.776289 31.08142,-131.984249 0.87352,-2.128098 1.17872,-0.928536 20.26507,79.649119 l 10.34285,43.66487 5.50914,0.64895 c 3.03003,0.35692 10.628749,2.00579 16.886059,3.66415 l 11.37692,3.01519 3.76006,-3.6716 c 2.06804,-2.01939 21.92342,-22.93079 44.12308,-46.46978 22.19966,-23.538998 40.4789,-42.499679 40.62054,-42.13485 0.14164,0.36483 -7.78917,27.61743 -17.62401,60.56133 l -17.88153,59.89801 5.11396,4.04235 c 2.81268,2.2233 9.06815,7.99654 13.90104,12.82943 4.83289,4.8329 9.20854,8.78708 9.72367,8.78708 0.51512,0 28.0288,-8.09916 61.1415,-17.99814 33.1127,-9.89897 60.35658,-17.84647 60.54195,-17.6611 0.29438,0.29439 -72.35323,69.35345 -86.05867,81.80765 l -5.11543,4.64842 2.92106,8.35158 c 1.60658,4.59338 4.1033,13.05053 5.54827,18.79367 l 2.62722,10.44208 61.16853,14.50778 c 33.64269,7.97929 60.93439,14.75535 60.64824,15.05792 -0.39336,0.41592 -128.28167,31.47362 -131.57699,31.95349 -0.36502,0.0532 -30.29002,-6.92776 -66.5,-15.51315 z"
     inkscape:connector-curvature="0" />
</svg>
