<?xml version="1.0" encoding="UTF-8" standalone="no"?>
<!-- Created with Inkscape (http://www.inkscape.org/) -->

<svg
   xmlns:dc="http://purl.org/dc/elements/1.1/"
   xmlns:cc="http://creativecommons.org/ns#"
   xmlns:rdf="http://www.w3.org/1999/02/22-rdf-syntax-ns#"
   xmlns:svg="http://www.w3.org/2000/svg"
   xmlns="http://www.w3.org/2000/svg"
   xmlns:sodipodi="http://sodipodi.sourceforge.net/DTD/sodipodi-0.dtd"
   xmlns:inkscape="http://www.inkscape.org/namespaces/inkscape"
   id="svg2"
   version="1.1"
   inkscape:version="0.48.3.1 r9886"
   width="400"
   height="400"
   sodipodi:docname="Icon.4_30.svg">
  <metadata
     id="metadata8">
    <rdf:RDF>
      <cc:Work
         rdf:about="">
        <dc:format>image/svg+xml</dc:format>
        <dc:type
           rdf:resource="http://purl.org/dc/dcmitype/StillImage" />
        <dc:title></dc:title>
      </cc:Work>
    </rdf:RDF>
  </metadata>
  <defs
     id="defs6" />
  <sodipodi:namedview
     pagecolor="#ffffff"
     bordercolor="#666666"
     borderopacity="1"
     objecttolerance="10"
     gridtolerance="10"
     guidetolerance="10"
     inkscape:pageopacity="0"
     inkscape:pageshadow="2"
     inkscape:window-width="1216"
     inkscape:window-height="1000"
     id="namedview4"
     showgrid="false"
     inkscape:zoom="1.668772"
     inkscape:cx="254.55544"
     inkscape:cy="182.13984"
     inkscape:window-x="64"
     inkscape:window-y="24"
     inkscape:window-maximized="1"
     inkscape:current-layer="svg2" />
  <rect
     style="fill:#000000;fill-opacity:1;stroke:none"
     id="rect3596"
     width="400"
     height="400"
     x="0"
     y="-1.5258789e-05" />
  <path
     id="path3513"
     style="fill:#ffffff"
     d="m 238.72675,104.5 c 9.34513,-17.05 17.77818,-32.534073 18.74012,-34.409051 l 1.74899,-3.409051 -4.27735,-21.490839 -4.27734,-21.490839 -1.58059,1.942757 C 248.21126,26.711493 241.875,34.016707 235,41.876785 l -12.5,14.291051 -0.64411,8.666082 c -0.68298,9.188962 -1.11282,71.790472 -0.48808,71.082752 0.2023,-0.22917 8.01382,-14.36667 17.35894,-31.41667 z M 193.46041,87.247233 192.79829,74.994466 177.64915,54.547807 162.5,34.101149 l -0.58759,0.699425 c -0.32317,0.384684 -1.84024,12.021226 -3.37128,25.858982 L 155.75744,85.819112 174.62872,119.6126 193.5,153.40609 193.81126,126.45305 194.12252,99.5 193.46041,87.247233 z m 84.6829,51.884507 30.6433,-18.22887 10.24637,-23.478433 10.24636,-23.47843 -0.50553,-0.50553 -0.50553,-0.50553 -23.46318,10.143785 -23.46317,10.143785 -17.65987,29.638743 c -9.71292,16.30131 -18.8701,31.64304 -20.34928,34.09273 l -2.68943,4.45399 3.42833,-2.02369 c 1.88557,-1.11302 17.21781,-10.22668 34.07163,-20.25255 z M 165.72576,167.25 c -0.21576,-0.4125 -6.15251,-12.9 -13.1928,-27.75 l -12.80051,-27 -2.11623,-2.12125 C 135.91993,108.67843 69.759205,61.372276 65.294017,58.667024 l -1.205983,-0.73065 5.020785,10.781813 C 71.870251,74.648184 77.812943,86.925 82.314802,96 L 90.5,112.5 128,140.20904 c 20.625,15.23997 37.63906,27.72747 37.80902,27.75 0.16996,0.0225 0.13249,-0.29654 -0.0833,-0.70904 z m 171.43904,7.87466 3.6648,-0.62466 15.99005,-15 15.99006,-15 -1.65486,-0.59757 c -0.91017,-0.32866 -10.5344,-1.65431 -21.38717,-2.9459 l -19.73232,-2.34835 -7.76768,5.41311 C 317.99545,146.9985 305.725,155.66596 295,163.28231 l -19.5,13.84791 29,-0.69045 c 15.95,-0.37975 30.64916,-0.97155 32.6648,-1.31511 z M 154.94423,194.1511 160.38846,193.5 131.36228,176.37668 102.33611,159.25336 64.418055,158.51779 26.5,157.78222 l 0.567144,0.5927 c 0.311929,0.32599 15.161929,8.6984 33,18.60537 L 92.5,194.99296 l 28.5,-0.0954 28.5,-0.0954 5.44423,-0.65111 z m 193.32661,17.21617 c 11.97396,-4.21241 21.62777,-7.802 21.4529,-7.97686 -0.43287,-0.43287 -66.7244,-10.38873 -69.18,-10.38967 -2.31819,-8.8e-4 -42.6921,14.18423 -42.08873,14.7876 0.59069,0.59069 61.4313,11.00214 65.04499,11.13093 l 3,0.10692 21.77084,-7.65892 z M 109.44854,236.25 135.88377,219.5 132.69189,218.86276 C 130.93635,218.51228 121.175,217.94435 111,217.6007 c -10.175,-0.34366 -23.02569,-0.9 -28.55709,-1.23632 l -10.05709,-0.61147 -16.240443,14.24268 -16.240443,14.24268 0.620492,0.63086 c 0.753581,0.76619 35.853745,7.84402 39.731226,8.01168 L 83.013303,253 109.44854,236.25 z M 191.5,244.11951 c 4.95,-6.05971 9.29308,-11.04058 9.6513,-11.06858 0.35821,-0.028 3.05821,3.10624 6,6.96501 l 5.3487,7.01595 0.27418,-16.51595 0.27418,-16.51594 1.32434,0 c 0.72839,0 6.41068,1.125 12.6273,2.5 6.21662,1.375 11.43378,2.5 11.59368,2.5 0.1599,0 -1.67993,-4.3875 -4.08852,-9.75 l -4.37924,-9.75 15.18704,-14.70035 15.18704,-14.70034 -1.12501,-0.0497 c -0.61875,-0.0273 -7.81875,1.71316 -16,3.86771 L 228.5,177.83471 227.81143,177.16736 C 227.43272,176.80031 224.58573,172 221.48478,166.5 218.38384,161 215.4632,156.1045 214.99447,155.62112 l -0.85223,-0.87888 -4.13919,13.12888 -4.13918,13.12888 -0.68194,-0.0204 c -0.37506,-0.0112 -6.0786,-4.52121 -12.67452,-10.02222 l -11.9926,-10.00183 -0.25281,0.77222 c -0.13904,0.42472 1.74674,8.42222 4.19064,17.77222 l 4.44344,17 -0.69804,0.61512 c -0.38392,0.33832 -8.6539,3.48247 -18.37772,6.98699 -9.72383,3.50452 -17.57879,6.47275 -17.45549,6.59606 0.12331,0.1233 8.07917,1.42733 17.67968,2.89783 9.60052,1.4705 17.59089,2.78587 17.75638,2.92304 0.1655,0.13718 -1.522,9.01844 -3.75,19.73613 C 181.8229,246.97287 180,256.08007 180,256.49339 l 0,0.7515 1.25,-1.05386 c 0.6875,-0.57962 5.3,-6.0118 10.25,-12.07152 z m 166.33333,45.93528 c -0.18333,-0.51986 -7.41301,-9.87729 -16.06595,-20.79427 l -15.73262,-19.84906 -36.26738,-10.27919 c -19.94706,-5.65355 -37.09164,-10.51312 -38.09907,-10.79904 l -1.83168,-0.51986 19.33168,18.85505 c 10.63243,10.37027 23.43726,22.81298 28.45517,27.65047 l 9.12348,8.79543 24.87652,3.81592 c 13.68209,2.09876 25.25152,3.87304 25.70985,3.94284 L 358.16667,291 357.83333,290.05479 z M 100.67779,316.08694 135.5,295.17389 153.34063,263.51091 c 9.81235,-17.41464 17.68735,-31.79811 17.5,-31.96327 C 170.65328,231.38248 156.325,239.23319 139,248.99366 l -31.5,17.74632 -21.214176,35.13001 C 74.618028,321.1915 65.248033,337 65.463614,337 c 0.215581,0 16.06196,-9.41087 35.214176,-20.91306 z m 181.53226,6.38836 -8.76904,-38.02471 -22.97051,-25.5538 c -12.63377,-14.0546 -23.09742,-25.25023 -23.25254,-24.87918 -0.15513,0.37106 2.21882,17.23862 5.27543,37.48348 l 5.55748,36.80883 21.72457,22.35861 C 271.72395,342.96577 283.525,355.30266 286,358.08384 l 4.5,5.05669 0.23954,-1.32026 c 0.13175,-0.72615 -3.70652,-18.43139 -8.52949,-39.34497 z m -72.76336,24.34525 4.77877,-13.67945 -5.2143,-34.82055 c -2.86787,-19.1513 -5.3378,-34.95225 -5.48874,-35.11323 -0.15094,-0.16097 -1.9166,4.33903 -3.92369,10 -2.00709,5.66098 -5.56996,15.69268 -7.91749,22.29268 l -4.26823,12 5.281,31.5 c 2.90456,17.325 5.55321,32.625 5.8859,34 l 0.6049,2.5 2.74156,-7.5 c 1.50786,-4.125 4.892,-13.65575 7.52032,-21.17945 z m -56.82358,14.5661 15.84104,-16.61336 1.19475,-24.63664 c 0.65712,-13.55016 1.22769,-27.95336 1.26793,-32.00712 L 171,280.75907 152.11388,306.79076 c -10.38736,14.31742 -19.20601,26.5493 -19.597,27.18193 l -0.71089,1.15025 2.26963,21.43853 C 135.32393,368.35266 136.44355,378 136.56367,378 c 0.12012,0 7.34687,-7.47601 16.05944,-16.61335 z" />
</svg>
