<?xml version="1.0" encoding="UTF-8" standalone="no"?>
<!-- Created with Inkscape (http://www.inkscape.org/) -->

<svg
   xmlns:dc="http://purl.org/dc/elements/1.1/"
   xmlns:cc="http://creativecommons.org/ns#"
   xmlns:rdf="http://www.w3.org/1999/02/22-rdf-syntax-ns#"
   xmlns:svg="http://www.w3.org/2000/svg"
   xmlns="http://www.w3.org/2000/svg"
   version="1.1"
   width="512"
   height="512"
   id="svg2">
  <metadata
     id="metadata8">
    <rdf:RDF>
      <cc:Work
         rdf:about="">
        <dc:format>image/svg+xml</dc:format>
        <dc:type
           rdf:resource="http://purl.org/dc/dcmitype/StillImage" />
        <dc:title></dc:title>
      </cc:Work>
    </rdf:RDF>
  </metadata>
  <defs
     id="defs6" />
  <path
     d="m 0,0 512,0 0,512 -512,0 z"
     id="rect3022"
     style="fill:#000000" />
  <path
     d="m 470.40211,266.24 c 8.60647,-34.53304 7.27713,-71.4914 -3.72045,-103.4363 C 453.13221,123.44627 423.14116,87.51678 384.67973,64.564814 361.95416,51.003268 339.91206,43.038463 311.68,38.186729 c -20.00279,-3.437517 -54.82523,-2.764131 -72.96,1.41088 -33.57868,7.730529 -53.18519,26.809923 -55.26491,53.779117 l -0.79452,10.303274 4.98971,0.002 c 2.74434,9.6e-4 9.77207,0.84338 15.61716,1.87204 27.46938,4.83426 54.88277,15.60407 82.48617,32.40609 7.29817,4.44234 7.40915,4.46456 14.72,2.94598 11.74626,-2.43989 34.56781,-3.20437 44.54311,-1.49212 48.64217,8.34943 83.76638,42.36011 107.84528,104.42626 2.32712,5.9984 7.168,22.0981 10.58399,35.2 1.42897,5.48072 1.56054,5.60484 2.71366,2.56 0.66654,-1.76 2.57565,-8.672 4.24246,-15.36 z M 342.0138,426.40659 c 13.69136,-20.88747 25.07517,-48.91316 29.98227,-73.81303 3.01827,-15.31549 3.00444,-46.49207 -0.0281,-63.31356 -9.45998,-52.47488 -42.08079,-101.68246 -87.82099,-132.47547 -32.6581,-21.98596 -68.0213,-34.93239 -101.25537,-37.0695 -24.69854,-1.58824 -45.18266,4.58021 -58.48302,17.61116 -6.11658,5.99268 -15.33201,19.51709 -14.12277,20.72633 0.26435,0.26435 5.65418,3.08623 11.97739,6.27085 22.02458,11.09243 42.6189,30.7818 60.80072,58.12904 4.82404,7.25582 8.95212,13.66881 9.17351,14.25108 0.2214,0.58228 7.13103,1.70892 15.35475,2.50365 30.45038,2.9427 57.08992,14.47811 77.42702,33.52733 34.0716,31.91395 50.39498,79.94729 48.85451,143.75983 -0.28704,11.89074 -0.0194,20.74519 0.61507,20.35303 0.61774,-0.38177 4.00398,-5.0891 7.52498,-10.46074 z M 110.44119,474.19538 C 127.38594,465.6496 139.93792,456.54208 153.6,442.88 c 22.54783,-22.54783 36.72462,-49.40444 43.10131,-81.65144 3.28983,-16.63673 2.96832,-48.03812 -0.66704,-65.14972 C 186.78885,252.56092 161.97962,212.4366 128.77976,187.30712 108.16057,171.70016 86.796457,167.88079 68.36411,176.50633 34.467299,192.36856 24.291315,238.136 49.210761,262.6503 c 3.360298,3.30567 10.798545,8.42782 16.529436,11.38257 35.094583,18.09412 56.954353,40.15583 66.473073,67.08713 7.43234,21.02829 7.32324,43.22697 -0.34337,69.87067 -4.46315,15.51071 -17.19942,42.04217 -27.44129,57.16411 -3.93174,5.80512 -7.14861,10.84512 -7.14861,11.2 0,1.27392 1.818883,0.56088 13.16119,-5.1594 z"
     id="path2989"
     style="fill:#ffffff" />
</svg>
