<?xml version="1.0" encoding="UTF-8" standalone="no"?>
<!-- Created with Inkscape (http://www.inkscape.org/) -->

<svg
   xmlns:dc="http://purl.org/dc/elements/1.1/"
   xmlns:cc="http://creativecommons.org/ns#"
   xmlns:rdf="http://www.w3.org/1999/02/22-rdf-syntax-ns#"
   xmlns:svg="http://www.w3.org/2000/svg"
   xmlns="http://www.w3.org/2000/svg"
   version="1.1"
   width="512"
   height="512"
   id="svg2">
  <metadata
     id="metadata8">
    <rdf:RDF>
      <cc:Work
         rdf:about="">
        <dc:format>image/svg+xml</dc:format>
        <dc:type
           rdf:resource="http://purl.org/dc/dcmitype/StillImage" />
        <dc:title></dc:title>
      </cc:Work>
    </rdf:RDF>
  </metadata>
  <defs
     id="defs6" />
  <path
     d="m 0,0 512,0 0,512 -512,0 z"
     id="rect3024"
     style="fill:#000000;fill-opacity:1;stroke:none" />
  <path
     d="M 217.91825,430.78847 215.68,405.25692 154.88,365.76508 c -33.44,-21.72052 -61.94853,-40.13481 -63.352289,-40.92064 -3.698379,-2.07036 1.192238,3.42272 67.832289,76.18848 l 60.16,65.69005 0.31825,-5.20149 c 0.17502,-2.86081 -0.68898,-16.69067 -1.92,-30.73301 z M 135.14847,151.52114 c -5.55035,-18.21663 -10.82579,-35.51589 -11.72318,-38.44281 l -1.63162,-5.32167 12.38316,-5.16127 c 6.81074,-2.838706 18.6222,-7.785195 26.24768,-10.9922 l 13.86451,-5.830919 -4.37734,6.073864 C 167.50414,95.186761 161.75898,103.392 157.14464,110.08 l -8.3897,12.16 -0.94081,27.20823 c -0.51745,14.96453 -1.30831,29.00504 -1.75746,31.20114 -0.67455,3.29819 -2.57246,-1.7698 -10.9082,-29.12823 z M 279.88803,328.64 c -8.72511,-10.032 -32.05841,-36.96 -51.85177,-59.84 l -35.98793,-41.6 -0.0242,-27.33971 -0.0242,-27.3397 52.47679,72.04845 52.47677,72.04844 41.92323,13.57465 c 23.05776,7.46605 43.93921,14.21631 46.40321,15.00057 3.48086,1.10793 -6.00293,1.4551 -42.52407,1.55662 l -47.004,0.13068 -15.86383,-18.24 z m 64.80825,134.27167 c 39.98296,-6.57374 73.17887,-12.47411 73.76868,-13.11195 0.9641,-1.04259 42.34789,-182.7802 42.67314,-187.39972 0.0744,-1.056 -17.52273,-32.96541 -39.10462,-70.90982 L 382.79369,122.50035 306.52552,80.450176 c -41.94748,-23.127597 -76.95606,-42.051478 -77.79684,-42.05307 -0.84077,-0.0015 -34.72264,10.222409 -75.29303,22.72 L 79.671296,83.84 66.06671,134.92439 c -7.482523,28.09642 -13.409708,51.27928 -13.171522,51.51747 0.238185,0.23818 12.098537,-4.79747 26.356337,-11.19034 14.2578,-6.39286 26.306945,-11.24605 26.775875,-10.78487 0.46893,0.4612 4.36035,16.37244 8.64759,35.35832 l 7.79499,34.51981 -3.95499,-3.63215 C 100.75118,214.39884 89.672196,204.8 88.606609,204.8 c -0.695504,0 -7.136135,6.70838 -14.312516,14.90751 -12.535269,14.32174 -12.95614,14.99454 -10.711029,17.12261 1.285315,1.2183 30.7832,29.68285 65.550866,63.25456 34.76765,33.57172 63.62292,60.57054 64.12283,59.99739 0.4999,-0.57313 4.28609,-15.36869 8.41376,-32.87901 l 7.50485,-31.83693 29.91898,89.75693 c 16.85506,50.56517 30.57103,89.75342 31.41231,89.74889 0.82134,-0.004 34.20667,-5.38656 74.18962,-11.96028 z"
     id="path2989"
     style="fill:#ffffff" />
</svg>
