<?xml version="1.0" encoding="UTF-8" standalone="no"?>
<!-- Created with Inkscape (http://www.inkscape.org/) -->

<svg
   xmlns:dc="http://purl.org/dc/elements/1.1/"
   xmlns:cc="http://creativecommons.org/ns#"
   xmlns:rdf="http://www.w3.org/1999/02/22-rdf-syntax-ns#"
   xmlns:svg="http://www.w3.org/2000/svg"
   xmlns="http://www.w3.org/2000/svg"
   version="1.1"
   width="512"
   height="512"
   id="svg2">
  <metadata
     id="metadata8">
    <rdf:RDF>
      <cc:Work
         rdf:about="">
        <dc:format>image/svg+xml</dc:format>
        <dc:type
           rdf:resource="http://purl.org/dc/dcmitype/StillImage" />
        <dc:title></dc:title>
      </cc:Work>
    </rdf:RDF>
  </metadata>
  <defs
     id="defs6" />
  <path
     d="m 0,0 512,0 0,512 -512,0 z"
     id="rect3050"
     style="fill:#000000;fill-opacity:1;stroke:none" />
  <path
     d="m 118.62188,148.70821 c -8.26356,-2.02989 -7.85463,-0.85837 -4.61544,-13.22264 l 1.22461,-4.67443 7.34448,1.8972 c 4.03946,1.04346 7.71069,2.28296 8.15831,2.75443 0.4476,0.47148 -0.4164,4.05678 -1.92,7.96735 l -2.73384,7.11012 -7.45812,-1.83203 z m 28.84796,12.47405 -5.3545,-3.93774 2.09214,-4.06226 c 4.60177,-8.93522 5.5883,-9.89248 8.56336,-8.30952 1.51204,0.80453 4.9401,3.21856 7.61792,5.36451 l 4.86876,3.90172 -5.97991,5.49052 c -3.28896,3.01978 -6.08643,5.49051 -6.21661,5.49051 -0.13017,0 -2.64619,-1.77198 -5.59116,-3.93774 z m 21.28116,30.52463 -7.24901,-1.24452 -0.43099,-6.72366 -0.431,-6.72367 7.49522,-1.54563 c 4.12238,-0.85009 7.84929,-1.19156 8.28205,-0.75882 1.25907,1.25909 1.90601,18.58642 0.68718,18.40511 -0.60745,-0.0904 -4.3665,-0.72433 -8.35345,-1.40881 z m 49.169,8.53319 c -3.696,-1.68859 -6.72,-3.29097 -6.72,-3.56085 0,-0.70054 34.55058,-81.6897 35.80788,-83.93638 0.74783,-1.33629 2.71979,1.47114 6.95092,9.89581 3.24879,6.46873 6.40147,11.76134 7.00596,11.76134 0.60448,0 8.05344,-11.376 16.55323,-25.28 8.49979,-13.904 16.21699,-26.311633 17.14933,-27.572517 1.49754,-2.025294 3.32134,1.555531 15.64633,30.719997 7.67317,18.15689 14.32892,33.45704 14.79059,34.00033 0.46166,0.5433 5.36475,-5.37322 10.89576,-13.14781 5.53101,-7.7746 10.49345,-13.69111 11.02766,-13.14781 1.45266,1.47737 42.1164,70.74174 42.44714,72.30213 0.28575,1.34807 -10.10782,8.43813 -12.5148,8.53707 -0.704,0.0289 -7.904,-11.42232 -16,-25.44723 -8.096,-14.02492 -15.296,-25.33522 -16,-25.134 -0.704,0.20123 -9.22415,11.55375 -18.93367,25.22785 -9.70952,13.6741 -18.41416,25.62606 -19.34364,26.55992 -1.40298,1.40959 -2.69809,0.98734 -7.62633,-2.4864 -3.265,-2.30139 -5.93636,-4.70247 -5.93636,-5.33575 0,-0.63328 4.36095,-7.20601 9.69101,-14.60606 5.33005,-7.40005 10.01208,-14.29139 10.40453,-15.31409 0.39245,-1.02269 -3.80612,-12.4809 -9.33014,-25.46268 -7.69089,-18.07407 -10.38464,-23.22957 -11.4992,-22.0081 -0.80054,0.87733 -6.17919,9.28849 -11.95257,18.69147 l -10.49707,17.09631 5.19172,9.97913 c 2.85545,5.48853 5.19172,10.27993 5.19172,10.64755 0,0.36762 -3.12198,2.35935 -6.93774,4.42605 l -6.93775,3.75765 -7.07042,-13.58151 c -11.17632,-21.46848 -8.90185,-22.36531 -21.99369,8.67216 -6.26995,14.86448 -11.70153,26.97915 -12.07015,26.92147 -0.36864,-0.0577 -3.69425,-1.48645 -7.39025,-3.17505 z m -59.84,24.18424 c -3.52,-1.81306 -6.62061,-3.49485 -6.89025,-3.73732 -0.26963,-0.24246 1.00751,-3.60413 2.83809,-7.4704 l 3.32835,-7.02955 6.56761,2.72937 c 3.61219,1.50115 6.8383,3.43476 7.16913,4.2969 0.49559,1.2915 -5.34314,14.76107 -6.3145,14.56708 -0.16413,-0.0328 -3.17843,-1.54301 -6.69843,-3.35608 z m -15.68,31.92973 c -2.288,-0.28393 -4.16,-1.08869 -4.16,-1.78834 0,-2.52099 2.93042,-13.31052 3.91053,-14.39821 1.10471,-1.22597 13.62546,1.3756 14.65755,3.04557 0.3521,0.56971 -0.0366,3.96783 -0.86379,7.55138 -1.64106,7.1095 -1.56149,7.07665 -13.54429,5.5896 z M 341.76,272.64 c -1.056,-0.68244 -3.288,-1.24963 -4.96,-1.2604 -2.71967,-0.0175 -2.9557,-0.44108 -2.24,-4.0196 0.44,-2.2 0.8,-5.944 0.8,-8.32 0,-4.95919 0.6977,-5.13239 9.68768,-2.40485 10.2364,3.1057 10.32433,3.27744 5.47411,10.69267 -4.42483,6.76486 -5.50269,7.41837 -8.76179,5.31218 z m -40.71843,-3.43572 c -1.49807,-4.06674 -2.30928,-7.78508 -1.80267,-8.26297 C 299.94241,260.27767 312.99837,256 314.32037,256 c 0.14065,0 0.92615,2.736 1.74555,6.08 0.81942,3.344 1.75261,6.96831 2.0738,8.05403 0.42228,1.42745 -0.92279,2.37807 -4.85788,3.4333 -2.99301,0.8026 -6.35864,1.81292 -7.47916,2.24515 -1.56757,0.60466 -2.66536,-0.91901 -4.76111,-6.6082 z m -30.25498,16.91133 c -2.0754,-3.84749 -3.5154,-7.18144 -3.2,-7.40877 5.52819,-3.98478 11.80999,-7.27754 12.76169,-6.68937 0.67023,0.41424 2.97669,3.30843 5.12546,6.43157 l 3.90686,5.67841 -7.02882,4.49628 c -3.86584,2.47295 -7.20047,4.49426 -7.41029,4.49179 -0.20982,-0.003 -2.07953,-3.15242 -4.1549,-6.99991 z m -124.81373,4.51864 c -2.81625,-3.95508 -6.89004,-12.86374 -6.19858,-13.55521 0.22235,-0.22234 3.85609,-1.19332 8.075,-2.15773 l 7.67072,-1.75349 2.66392,5.44165 2.66393,5.44164 -5.27237,5.17445 c -2.89981,2.84594 -5.64336,5.17444 -6.09677,5.17444 -0.45342,0 -2.03104,-1.69459 -3.50585,-3.76575 z m 214.95916,4.33216 c -0.6574,-1.72909 -2.04663,-4.79015 -3.08719,-6.80239 l -1.89195,-3.6586 6.19678,-3.37271 c 3.40823,-1.85499 6.87053,-3.37271 7.694,-3.37271 1.16769,0 7.75634,12.43512 7.75634,14.63899 0,0.26729 -3.48136,1.66167 -7.73636,3.0986 l -7.73636,2.61261 -1.19526,-3.14379 z m -121.57007,6.90055 c -0.78888,-3.05083 -1.73055,-6.5666 -2.0926,-7.8128 -0.48174,-1.65822 0.48266,-2.73269 3.59619,-4.00667 10.02277,-4.10108 9.7841,-4.16693 13.24277,3.65376 1.74443,3.94446 3.17169,7.39703 3.17169,7.67238 0,0.27534 -3.024,1.49482 -6.72,2.70994 -3.696,1.21512 -7.40484,2.46154 -8.24186,2.76983 -0.91352,0.33646 -2.09522,-1.65679 -2.95619,-4.98644 z M 176.64,310.11634 c -3.872,-0.99889 -7.50152,-2.26601 -8.06559,-2.81583 -0.56407,-0.54983 0.29993,-4.25794 1.92,-8.24025 2.18253,-5.36489 3.44297,-7.03165 4.86559,-6.43412 1.056,0.44354 4.39049,1.36356 7.40997,2.04446 4.23395,0.9548 5.343,1.72436 4.84757,3.36372 -0.35332,1.16912 -1.18866,4.61853 -1.85631,7.66534 -0.66764,3.04682 -1.40905,5.69564 -1.64757,5.88626 -0.23851,0.19063 -3.60166,-0.47068 -7.47366,-1.46958 z m 28.15982,-5.06423 1.8e-4,-7.90791 7.09853,-0.88689 c 3.9042,-0.4878 7.34513,-0.64032 7.64652,-0.33894 0.30139,0.30139 0.70705,3.97105 0.90147,8.15481 L 220.8,311.68 l -8.00018,0.64 -8.00019,0.64 1.9e-4,-7.90789 z m 161.97567,18.14877 c -0.50386,-4.03274 -0.43447,-7.76916 0.1542,-8.30314 0.58867,-0.53398 4.30271,-1.32809 8.2534,-1.7647 l 7.18309,-0.79381 0.72336,7.97726 c 0.39785,4.38751 0.61795,8.08269 0.48912,8.21151 -0.12882,0.12883 -3.75612,0.63269 -8.06064,1.11969 l -7.82642,0.88546 -0.91611,-7.33227 z m 59.80366,101.17676 c -5.79747,-5.85774 -15.77998,-14.13712 -22.18336,-18.39861 l -11.64251,-7.74817 -6.11432,3.76218 c -16.95428,10.43207 -37.3819,16.60564 -54.47896,16.46447 l -10.24,-0.0846 6.41496,-2.28485 c 8.22859,-2.9308 16.40313,-7.09323 23.66504,-12.05012 6.56974,-4.48442 17.92,-14.77927 17.92,-16.25369 0,-1.12306 -12.08794,-6.29079 -32.72598,-13.99072 l -14.16596,-5.28524 -1.34761,-13.69416 c -0.74119,-7.5318 -1.2785,-13.78622 -1.19404,-13.89872 0.0845,-0.11251 4.25462,1.09789 9.267,2.68973 12.56933,3.99181 28.35924,11.82892 42.37496,21.03223 l 11.80836,7.75388 8.58683,-12.43564 c 4.72275,-6.83961 9.20098,-13.35194 9.95163,-14.47184 1.2075,-1.80147 2.94101,-1.36932 15.03917,3.7492 l 13.67434,5.78537 -1.99568,3.93082 c -3.29266,6.48541 -14.18584,20.65346 -19.73191,25.66401 l -5.19383,4.69231 6.92162,7.26724 c 9.01454,9.46465 18.23172,22.05644 22.88761,31.26724 2.04619,4.048 3.56805,7.32132 3.38192,7.27405 -0.18614,-0.0472 -5.08182,-4.87866 -10.87928,-10.73641 z M 474.88,455.29149 c 0,-0.21367 -2.02762,-6.40567 -4.50583,-13.76 -9.93585,-29.48563 -16.6102,-60.08888 -20.36365,-93.37149 -2.14213,-18.99473 -4.55362,-59.65617 -4.56394,-76.9552 l -0.007,-11.0352 -15.24891,-8.7449 -15.24892,-8.74489 14.80955,-15.78508 14.80953,-15.78506 -0.91059,-23.95484 c -0.50081,-13.17516 -1.3111,-26.18309 -1.80062,-28.90652 l -0.89004,-4.9517 -26.16936,0.22216 -26.16935,0.22216 22.64935,-18.72858 c 12.45756,-10.30071 22.64978,-19.6627 22.64978,-20.80441 0,-3.48376 -6.40792,-23.323143 -10.46066,-32.386885 -3.38792,-7.57693 -5.15535,-9.625393 -15.51845,-17.985928 -6.43229,-5.18932 -12.66263,-10.145931 -13.84518,-11.014694 -5.21927,-3.834301 -66.64107,-8.094425 -128.81849,-8.934655 l -52.80278,-0.713548 0.60797,3.693885 c 0.33438,2.031637 1.49918,14.061885 2.58846,26.733885 1.08927,12.672 2.23802,24.601427 2.55277,26.50984 0.44636,2.70632 -5.64628,-2.848792 -27.68833,-25.245465 l -28.26063,-28.715302 -7.85734,0.708248 c -21.26642,1.916922 -78.555863,9.974534 -79.805808,11.224481 -0.176483,0.176483 6.579724,6.017079 15.013795,12.979104 8.43407,6.962025 15.334673,12.909256 15.334673,13.216069 0,0.306814 -9.872773,0.140112 -21.939496,-0.37045 -19.866347,-0.840576 -21.864837,-0.733734 -21.149396,1.130674 3.033579,7.905381 8.820243,30.719271 11.020427,43.447971 4.925888,28.49768 5.764471,71.02865 2.034692,103.19483 -0.367341,3.168 -2.955758,25.056 -5.752039,48.64 -2.796282,23.584 -5.730724,50.2425 -6.520984,59.2411 l -1.436835,16.36109 4.84237,5.39891 c 2.663305,2.9694 22.722043,25.19505 44.574971,49.39032 l 39.7326,43.99143 10.8694,-0.88193 c 18.54811,-1.50499 16.4587,0.11635 27.53252,-21.36472 l 9.85751,-19.12163 7.61583,11.87741 c 4.18871,6.53258 8.12154,12.38313 8.73963,13.00122 0.64505,0.64505 8.9398,-5.19972 19.47129,-13.72017 L 252.8,409.64906 l 0.84786,6.05546 c 0.46633,3.33051 0.89833,11.87389 0.96,18.98527 l 0.11213,12.92979 25.28,0.85959 c 25.39306,0.86342 53.51036,2.17807 111.68,5.22169 28.50442,1.49145 83.2,2.53713 83.2,1.59063 z"
     id="path2989"
     style="fill:#ffffff" />
</svg>
