<?xml version="1.0" encoding="UTF-8" standalone="no"?>
<!-- Created with Inkscape (http://www.inkscape.org/) -->

<svg
   xmlns:dc="http://purl.org/dc/elements/1.1/"
   xmlns:cc="http://creativecommons.org/ns#"
   xmlns:rdf="http://www.w3.org/1999/02/22-rdf-syntax-ns#"
   xmlns:svg="http://www.w3.org/2000/svg"
   xmlns="http://www.w3.org/2000/svg"
   xmlns:sodipodi="http://sodipodi.sourceforge.net/DTD/sodipodi-0.dtd"
   xmlns:inkscape="http://www.inkscape.org/namespaces/inkscape"
   id="svg2"
   version="1.1"
   inkscape:version="0.48.3.1 r9886"
   width="400"
   height="400"
   sodipodi:docname="Icon.2_72.png">
  <metadata
     id="metadata8">
    <rdf:RDF>
      <cc:Work
         rdf:about="">
        <dc:format>image/svg+xml</dc:format>
        <dc:type
           rdf:resource="http://purl.org/dc/dcmitype/StillImage" />
        <dc:title></dc:title>
      </cc:Work>
    </rdf:RDF>
  </metadata>
  <defs
     id="defs6" />
  <sodipodi:namedview
     pagecolor="#ffffff"
     bordercolor="#666666"
     borderopacity="1"
     objecttolerance="10"
     gridtolerance="10"
     guidetolerance="10"
     inkscape:pageopacity="0"
     inkscape:pageshadow="2"
     inkscape:window-width="1855"
     inkscape:window-height="1056"
     id="namedview4"
     showgrid="false"
     inkscape:zoom="1.18"
     inkscape:cx="286.71779"
     inkscape:cy="259.24164"
     inkscape:window-x="65"
     inkscape:window-y="24"
     inkscape:window-maximized="1"
     inkscape:current-layer="svg2" />
  <path
     style="fill:#000000"
     d="m 0,-1.5258789e-5 400,0 L 400,399.99998 l -400,0 z"
     id="rect3020" />
  <path
     id="path2989"
     style="fill:#ffffff"
     d="m 32.519441,274 c 5.346264,-33.75404 18.645897,-68.38456 36.737858,-95.66063 8.60619,-12.97499 28.567474,-33.5729 39.274781,-40.52736 41.27657,-26.80939 85.03848,-24.31891 123.38829,7.02202 2.2438,1.83372 4.07963,3.08627 4.07963,2.78346 0,-1.53773 -16.83463,-21.15681 -24.29152,-28.30935 C 191.75707,100.17105 170.59206,88.023311 149.10414,83.376113 138.05573,80.986672 120.6672,81.233722 110.5,83.924586 93.288273,88.479864 75.235741,100.44166 63.739303,114.90872 55.711794,125.01049 53.558952,128.55533 49.873135,137.74058 39.161145,164.43542 32.277158,192.13321 28.807098,222.5 c -1.462437,12.79791 -1.725696,55.24039 -0.396974,64 l 0.910123,6 0.768056,-4 c 0.42243,-2.2 1.516443,-8.725 2.431138,-14.5 z m 314.890749,47.47311 c 14.8006,-29.41734 26.7256,-53.66927 26.5,-53.89317 l -35.61667,8.41286 c 0,0 -1.21205,-4.88785 -1.22838,-19.2428 -0.049,-43.08799 -7.26625,-81.00153 -22.63906,-118.9276 C 292.60477,83.987323 253.67471,43.689837 211.8176,31.609775 171.28353,19.911548 129.0241,32.800728 95.299358,67.147984 86.942675,75.65892 82.376072,81 83.455937,81 c 0.330603,0 3.190594,-1.307174 6.355536,-2.904832 7.055758,-3.561735 16.381787,-6.679537 24.245147,-8.105435 7.60604,-1.379239 24.75529,-1.377662 33.39833,0.0031 16.32917,2.608597 35.88953,11.133165 52.79201,23.007196 10.27889,7.220951 30.40798,26.624841 39.09014,37.681831 26.96547,34.34136 47.5155,81.32606 58.09161,132.81817 l 3.78001,22.13103 -34.47071,9.3041 c -0.69768,0.63072 52.11764,79.96625 53.26199,80.00648 0.275,0.01 12.60958,-24.05116 27.41019,-53.4685 z"
     inkscape:connector-curvature="0"
     sodipodi:nodetypes="sssssssssssscsscccsssssssssscccccc" />
</svg>
