<?xml version="1.0" encoding="UTF-8" standalone="no"?>
<!-- Created with Inkscape (http://www.inkscape.org/) -->

<svg
   xmlns:dc="http://purl.org/dc/elements/1.1/"
   xmlns:cc="http://creativecommons.org/ns#"
   xmlns:rdf="http://www.w3.org/1999/02/22-rdf-syntax-ns#"
   xmlns:svg="http://www.w3.org/2000/svg"
   xmlns="http://www.w3.org/2000/svg"
   xmlns:sodipodi="http://sodipodi.sourceforge.net/DTD/sodipodi-0.dtd"
   xmlns:inkscape="http://www.inkscape.org/namespaces/inkscape"
   id="svg2"
   version="1.1"
   inkscape:version="0.48.3.1 r9886"
   width="400"
   height="400"
   sodipodi:docname="Icon.3_47.png">
  <metadata
     id="metadata8">
    <rdf:RDF>
      <cc:Work
         rdf:about="">
        <dc:format>image/svg+xml</dc:format>
        <dc:type
           rdf:resource="http://purl.org/dc/dcmitype/StillImage" />
        <dc:title></dc:title>
      </cc:Work>
    </rdf:RDF>
  </metadata>
  <defs
     id="defs6" />
  <sodipodi:namedview
     pagecolor="#ffffff"
     bordercolor="#666666"
     borderopacity="1"
     objecttolerance="10"
     gridtolerance="10"
     guidetolerance="10"
     inkscape:pageopacity="0"
     inkscape:pageshadow="2"
     inkscape:window-width="1855"
     inkscape:window-height="1056"
     id="namedview4"
     showgrid="false"
     inkscape:zoom="0.59"
     inkscape:cx="200"
     inkscape:cy="200"
     inkscape:window-x="65"
     inkscape:window-y="24"
     inkscape:window-maximized="1"
     inkscape:current-layer="svg2" />
  <path
     style="fill:#000000"
     d="m 0,0 400,0 0,400 -400,0 z"
     id="rect3026" />
  <path
     id="path2989"
     style="fill:#ffffff"
     d="m 201.50518,162.88043 12.279,-4.11958 -2.34381,-5.29978 c -7.96494,-18.01014 -7.78117,-38.35969 0.50696,-56.138706 10.78413,-23.133193 27.32078,-36.244411 52.18694,-41.376829 8.83619,-1.823806 12.78783,-2.077067 26.78038,-1.716355 l 16.41465,0.423151 -6.96998,-6.576166 C 292.13914,40.320447 284.90049,35.83125 274.83492,32.246703 268.31007,29.923074 265.95384,29.627159 253.5,29.567296 c -12.09386,-0.05813 -14.94132,0.248046 -20.91366,2.248792 -13.74196,4.60358 -25.13032,11.774771 -34.64638,21.816648 -23.56943,24.871787 -29.71375,58.299084 -17.43768,94.867264 2.83699,8.45089 7.23589,18.5 8.0982,18.5 0.34413,0 6.15125,-1.85381 12.9047,-4.11957 z M 220.01017,204.75 c 7.58465,-5.16207 9.92517,-13.19644 6.09763,-20.93156 -5.24415,-10.598 -17.70109,-12.46044 -26.2386,-3.92293 -10.31804,10.31804 -3.05687,27.08992 11.73292,27.10075 3.64938,0.003 6.04342,-0.63691 8.40805,-2.24626 z M 310.5,223.5143 c 9.45332,-2.62867 23.35013,-9.69587 31.15496,-15.84379 C 354.9807,197.17372 366.65554,179.5947 370.65807,164 c 2.25896,-8.80137 2.22602,-24.55116 -0.069,-32.98291 -2.99444,-11.00149 -8.4143,-20.63438 -16.66617,-29.62135 -8.04634,-8.763122 -7.54778,-9.352479 -7.09938,8.39226 1.00385,39.72583 -11.33885,62.86754 -41.68001,78.1472 -18.07162,9.10077 -41.81192,9.34739 -59.04764,0.61339 L 241,185.96631 l 0,4.35791 c 0,5.85118 -2.26384,13.02184 -5.4157,17.15415 -1.42137,1.8635 -2.57972,3.75571 -2.57413,4.20491 0.0234,1.88004 21.02677,9.64875 33.2206,12.28763 11.48645,2.48579 34.54291,2.24798 44.26923,-0.45661 z M 34.866161,321.18024 C 80.397314,281.23649 146.84015,236.28551 186,218.93273 c 4.125,-1.82789 7.69576,-3.4688 7.93502,-3.64644 0.23927,-0.17765 -1.20103,-2.00224 -3.20065,-4.05465 -5.48712,-5.63197 -8.11405,-12.35584 -8.14928,-20.85888 l -0.0295,-7.12723 -3.52778,1.26405 C 125.68122,203.6244 63.653243,236.7855 31.75,263.24652 l -4.75,3.93972 0,29.90688 C 27,313.5419 27.277272,327 27.616161,327 c 0.338889,0 3.601389,-2.61889 7.25,-5.81976 z m 96.523599,50.45491 c 30.90418,-37.99145 61.85907,-92.51836 82.51312,-145.3465 l 2.03747,-5.21135 -8.72018,3.02249 c -12.27131,4.25334 -38.94192,17.52082 -40.60429,20.19888 C 165.86434,245.5094 161.0655,253.25 155.95179,261.5 136.48302,292.90916 108.55942,330.5553 81.31064,362.13001 76.739788,367.42651 73,372.03901 73,372.38001 73,372.721 85.887891,373 101.63976,373 c 22.98821,0 28.85884,-0.26933 29.75,-1.36485 z" />
</svg>
