<?xml version="1.0" encoding="UTF-8" standalone="no"?>
<!-- Created with Inkscape (http://www.inkscape.org/) -->

<svg
   xmlns:dc="http://purl.org/dc/elements/1.1/"
   xmlns:cc="http://creativecommons.org/ns#"
   xmlns:rdf="http://www.w3.org/1999/02/22-rdf-syntax-ns#"
   xmlns:svg="http://www.w3.org/2000/svg"
   xmlns="http://www.w3.org/2000/svg"
   version="1.1"
   width="512"
   height="512"
   id="svg2">
  <metadata
     id="metadata8">
    <rdf:RDF>
      <cc:Work
         rdf:about="">
        <dc:format>image/svg+xml</dc:format>
        <dc:type
           rdf:resource="http://purl.org/dc/dcmitype/StillImage" />
        <dc:title></dc:title>
      </cc:Work>
    </rdf:RDF>
  </metadata>
  <defs
     id="defs6" />
  <path
     d="m 294.80744,423.48228 c 42.10311,-5.36249 79.73882,-20.0207 107.55645,-41.89067 4.47486,-3.5181 10.04855,-8.3699 12.38598,-10.78179 l 4.24987,-4.38526 -4.90964,-4.83581 -4.90964,-4.83582 -8.34023,5.51498 c -14.01355,9.26645 -30.73438,16.47254 -42.34023,18.24715 l -4,0.61163 2.5,-2.13918 c 1.375,-1.17655 6.1,-5.22405 10.5,-8.99443 4.4,-3.77039 10.25,-9.18742 13,-12.03785 l 5,-5.18261 -5.5,3.20108 c -8.60129,5.00607 -26.98388,13.70195 -35.96651,17.01395 -17.9311,6.61141 -42.84918,11.06739 -51.61372,9.22983 L 288.5,381.39567 297,378.58316 c 26.07225,-8.62689 64.47565,-33.50728 77.91974,-50.48182 l 3.31187,-4.18157 -10.28362,-10.70989 c -5.656,-5.89043 -11.0216,-11.51087 -11.92357,-12.48987 -1.568,-1.70189 -1.88822,-1.67018 -7.29869,0.72258 -13.92711,6.15923 -32.81619,9.87763 -47.62862,9.3759 l -9.40289,-0.31849 17.40289,-8.74101 c 9.57159,-4.80756 20.43961,-10.68656 24.15115,-13.06446 l 6.74826,-4.32345 -7.06517,-7.66755 -7.06518,-7.66755 -5.18308,3.06802 C 307.2178,280.07451 287.7882,288.01958 271,292.42021 c -19.78861,5.18711 -26.93955,6.01067 -52.5,6.04632 -28.09221,0.0392 -38.6798,-1.39424 -63.78631,-8.63579 -10.75927,-3.10333 -10.79187,-3.10621 -13,-1.14623 -3.4292,3.04382 -50.908159,46.34851 -53.628364,48.91345 l -2.414673,2.27684 5.632167,6.88419 c 11.11282,13.58318 30.7458,31.15582 47.12726,42.18161 29.4241,19.80434 66.10129,32.91085 100.76127,36.00682 13.16183,1.17567 40.54609,0.45426 55.61609,-1.46514 z"
     id="path3183"
     style="fill:#ffffff" />
  <path
     d="m 470.12646,348.25983 26.84325,-15.74016 -6.32826,-6.50984 c -3.48053,-3.5804 -33.59827,-34.9364 -66.92831,-69.67998 l -60.60005,-63.17015 -6.94632,10.67015 c -14.8546,22.81796 -26.23553,41.46386 -25.90805,42.44632 0.3584,1.07518 111.94984,117.70297 112.63288,117.71623 0.21538,0.004 12.47107,-7.07547 27.23486,-15.73257 z"
     id="path3181"
     style="fill:#ffffff" />
  <path
     d="M 102.05562,298.37545 C 119.41121,282.49395 133.66734,269.05 133.73591,268.5 133.85216,267.56754 111.86375,255 110.11605,255 c -0.84609,0 -59.42087,54.72114 -59.896866,55.95624 -0.154448,0.40076 2.712332,5.78788 6.370623,11.97137 l 6.651439,11.24271 3.629377,-3.45971 c 1.996157,-1.90285 17.829407,-16.45367 35.184997,-32.33516 z"
     id="path3179"
     style="fill:#ffffff" />
  <path
     d="m 82,253.0594 c 0,-0.3906 -2.895867,-3.05973 -6.435261,-5.9314 -3.539394,-2.87167 -10.041111,-9.03055 -14.448261,-13.6864 l -8.013001,-8.46518 -6.9615,0.647 c -3.828825,0.35585 -7.532418,0.99985 -8.230205,1.43111 -2.322818,1.43558 6.128191,35.83018 12.623199,51.37492 l 1.553194,3.71732 14.955917,-14.18859 C 75.269837,260.15445 82,253.45 82,253.0594 z"
     id="path3177"
     style="fill:#ffffff" />
  <path
     d="M 180.65394,168.75 222.7237,90.5 220.11185,89.137783 C 218.67533,88.388563 215.475,85.818279 213,83.42604 L 208.5,79.076514 166,158.13445 c -23.375,43.48186 -42.61347,79.57715 -42.75215,80.21174 -0.23831,1.09049 12.06816,8.49816 14.29424,8.60418 0.57314,0.0273 19.97348,-35.16287 43.11185,-78.20037 z"
     id="path3175"
     style="fill:#ffffff" />
  <path
     d="m 330.08932,208.35855 c 2.71918,-4.30618 4.70451,-8.45344 4.41184,-9.21612 C 333.88227,197.52962 276.0247,89.653838 272.25464,83.0834 l -2.53422,-4.416601 -2.61021,3.062146 c -1.43561,1.68418 -4.49266,4.38847 -6.79342,6.009533 l -4.18322,2.947388 33.00664,61.407064 c 18.15365,33.77389 33.46005,62.23311 34.01423,63.24272 1.23056,2.24182 0.9096,2.56473 6.93488,-6.9771 z"
     id="path3173"
     style="fill:#ffffff" />
  <path
     d="m 41.221984,206.6467 c 5.897091,-0.69153 10.961311,-1.49666 11.25382,-1.78917 0.528894,-0.52889 -7.123912,-42.83897 -7.886379,-43.60144 -0.505373,-0.50537 -22.736245,2.5574 -23.40312,3.22427 -0.436732,0.43673 0.672831,17.0139 2.46111,36.76964 l 0.611006,6.75 3.120789,-0.048 c 1.716435,-0.0264 7.945683,-0.61379 13.842774,-1.30532 z"
     id="path3171"
     style="fill:#ffffff" />
  <path
     d="m 246.61609,73.086884 c 2.26385,-1.028055 5.41385,-3.570643 7,-5.650195 C 256.17369,64.083494 256.5,62.84604 256.5,56.5 c 0,-6.297496 -0.33601,-7.596216 -2.80169,-10.828894 -3.83293,-5.025227 -8.07507,-7.061707 -14.79652,-7.103208 -7.16965,-0.04427 -12.72112,3.361706 -15.78064,9.681843 -7.57613,15.6502 7.83955,31.946544 23.49494,24.837143 z"
     id="path3155"
     style="fill:#ffffff" />
</svg>
