<?xml version="1.0" encoding="UTF-8" standalone="no"?>
<!-- Created with Inkscape (http://www.inkscape.org/) -->

<svg
   xmlns:dc="http://purl.org/dc/elements/1.1/"
   xmlns:cc="http://creativecommons.org/ns#"
   xmlns:rdf="http://www.w3.org/1999/02/22-rdf-syntax-ns#"
   xmlns:svg="http://www.w3.org/2000/svg"
   xmlns="http://www.w3.org/2000/svg"
   version="1.1"
   width="512"
   height="512"
   id="svg2">
  <metadata
     id="metadata8">
    <rdf:RDF>
      <cc:Work
         rdf:about="">
        <dc:format>image/svg+xml</dc:format>
        <dc:type
           rdf:resource="http://purl.org/dc/dcmitype/StillImage" />
        <dc:title></dc:title>
      </cc:Work>
    </rdf:RDF>
  </metadata>
  <defs
     id="defs6" />
  <path
     d="m 110.6745,140.996 c -3.75402,-0.99752 -7.06189,-2.05005 -7.35081,-2.33897 -0.90218,-0.90218 3.02961,-15.85537 4.29687,-16.34167 0.66123,-0.25374 4.79853,0.50905 9.194,1.69507 l 7.99177,2.15641 -2.72404,8.10687 c -1.49822,4.45878 -3.14214,8.20341 -3.65316,8.32141 -0.51102,0.11799 -4.0006,-0.60161 -7.75463,-1.59912 z M 143,155.28591 c -2.475,-1.90526 -5.16433,-3.8364 -5.9763,-4.29141 -1.22697,-0.68757 -0.80476,-2.10622 2.5,-8.40011 2.18697,-4.16506 4.33849,-7.57768 4.78117,-7.58361 1.24204,-0.0166 11.95975,7.4839 14.10012,9.86763 1.87331,2.08632 1.87331,2.15669 0,4.23292 -1.04775,1.16124 -3.92999,3.80499 -6.40499,5.87501 l -4.5,3.76368 -4.5,-3.46411 z m 23.5,32.2138 c -0.55,-0.18832 -3.025,-0.6135 -5.5,-0.94484 l -4.5,-0.60244 0,-4.72621 c 0,-2.59942 -0.32362,-5.87425 -0.71915,-7.27741 -0.70644,-2.50607 -0.56786,-2.58263 7.83712,-4.32954 4.70595,-0.9781 8.77225,-1.56238 9.03623,-1.29841 0.99598,0.99598 2.5514,14.72384 1.94295,17.1481 -0.52179,2.07896 -1.21234,2.51694 -3.8662,2.45209 -1.77702,-0.0434 -3.68095,-0.23302 -4.23095,-0.42134 z m 51.56039,9.04073 c -4.09178,-1.74795 -7.58556,-3.61595 -7.76395,-4.15112 -0.17839,-0.53517 8.04647,-20.5292 18.27747,-44.43118 10.23099,-23.90198 19.03717,-44.5654 19.56926,-45.91873 0.88851,-2.259782 1.5138,-1.42443 7.66214,10.23619 3.68208,6.98322 7.14469,12.77284 7.69469,12.86581 0.55,0.093 8.94488,-12.77318 18.65528,-28.591465 9.71041,-15.81828 18.03541,-29.137639 18.5,-29.598574 0.4646,-0.460936 7.81972,15.554808 16.34472,35.590539 8.525,20.03574 15.725,36.42721 16,36.4255 0.275,-0.002 5.42647,-6.95611 11.44772,-15.45421 6.02124,-8.49811 11.01332,-15.35257 11.0935,-15.23215 0.0802,0.12042 9.52012,16.19395 20.97765,35.71895 11.45753,19.525 22.07554,37.61081 23.59558,40.19068 l 2.7637,4.69068 -4.68907,2.69095 c -2.579,1.48001 -6.06228,3.51322 -7.74063,4.51822 l -3.05155,1.82729 -16.42103,-27.95891 C 361.9443,154.58151 354.24783,142 353.8726,142 c -0.37523,0 -9.9929,13.05 -21.3726,29 -11.3797,15.95 -21.0075,29 -21.3951,29 -0.52626,0 -11.30275,-7.39764 -13.95641,-9.58054 -0.19333,-0.15903 4.64614,-7.26181 10.75439,-15.78396 6.10824,-8.52214 11.38432,-16.22035 11.7246,-17.10712 0.36139,-0.94175 -3.86994,-12.2189 -10.17392,-27.11509 -8.47679,-20.0305 -11.04544,-25.22496 -11.97081,-24.20804 C 295.242,108.66771 274,144.10348 274,145.37902 c 0,0.70411 2.49848,6.06439 5.55218,11.91174 l 5.55217,10.63154 -7.30217,3.78062 c -4.0162,2.07935 -7.5998,3.92104 -7.96357,4.09265 -0.36376,0.17161 -4.63876,-7.35541 -9.5,-16.72672 -4.86123,-9.37131 -9.06361,-17.0423 -9.33861,-17.04665 -0.275,-0.004 -5.81146,12.48859 -12.30324,27.76208 -6.49178,15.27348 -12.11678,28.25694 -12.5,28.85211 -0.46599,0.72373 -3.1608,0.0295 -8.13637,-2.09595 z m -65.00629,25.94095 c -3.54524,-1.91026 -6.80923,-3.83652 -7.25331,-4.2806 -0.90734,-0.90734 5.94417,-15.49363 7.05069,-15.01031 0.38975,0.17023 4.1661,1.60128 8.3919,3.18009 l 7.68328,2.87058 -1.28835,2.62942 c -5.6537,11.53878 -7.03904,14.12658 -7.55183,14.10672 -0.32256,-0.0125 -3.48713,-1.58565 -7.03238,-3.4959 z m -15.65259,34.324 c -6.95124,-1.07116 -6.69187,-0.15643 -3.71895,-13.1154 0.94793,-4.13199 2.00571,-6.64545 2.68987,-6.39155 0.62016,0.23015 4.51646,1.41844 8.65843,2.64063 l 7.53087,2.22217 -1.93705,7.91938 c -2.19001,8.95361 -1.39222,8.54789 -13.22317,6.72477 z m 210.2531,16.90528 c -5.64936,-1.93943 -5.82543,-2.10657 -5.25,-4.9837 C 342.73207,267.08964 343,263.09768 343,259.85595 l 0,-5.89405 2.75,0.58413 c 6.40439,1.36038 16.28053,4.78583 17.28383,5.99473 0.81742,0.98493 -0.0731,3.04615 -3.62166,8.38266 -2.58808,3.89212 -4.97708,7.013 -5.30889,6.93528 -0.3318,-0.0777 -3.23371,-1.04433 -6.44867,-2.14803 z M 308.50185,276.25 c -0.39166,-0.9625 -1.7424,-4.72693 -3.00163,-8.3654 l -2.28951,-6.6154 8.57181,-2.65744 c 4.71449,-1.46159 8.89392,-2.30966 9.28762,-1.8846 0.69471,0.75007 3.92986,14.10292 3.92986,16.22025 0,0.57892 -0.68624,1.05259 -1.52498,1.05259 -0.83874,0 -4.08565,0.9 -7.21534,2 -6.90543,2.42706 -6.87235,2.426 -7.75783,0.25 z m -33.8934,13.5 c -5.2451,-9.39462 -5.32018,-8.79058 1.64542,-13.2385 3.43537,-2.19367 6.69613,-4.09491 7.24613,-4.22498 0.9198,-0.21752 11.07207,13.63434 10.32841,14.09219 -0.18063,0.1112 -1.90341,1.33271 -3.82841,2.71446 C 286.40918,291.67063 279.19554,296 278.49178,296 c -0.21664,0 -1.96414,-2.8125 -3.88333,-6.25 z m -134.43041,4.17746 c -2.90486,-3.95 -7.84199,-14.66333 -7.05877,-15.31717 0.2094,-0.17482 4.11797,-1.20998 8.68571,-2.30036 l 8.30498,-1.98253 1.48316,3.5497 c 0.81573,1.95234 2.19557,4.33691 3.0663,5.29906 2.17381,2.40203 1.46865,3.64869 -5.45824,9.64955 l -6.0066,5.20361 -3.01654,-4.10186 z m 228.83192,0.43422 C 367.35448,290.71061 366,287.41847 366,287.04583 c 0,-0.37265 1.9125,-1.72356 4.25,-3.00202 2.3375,-1.27846 5.71617,-3.2003 7.50816,-4.27075 l 3.25816,-1.94627 3.43382,7.33661 c 5.14006,10.98211 5.23565,10.61082 -3.45014,13.40076 -4.125,1.32498 -7.83302,2.41509 -8.24004,2.42245 -0.40703,0.007 -2.09453,-2.97385 -3.75,-6.62493 z M 239.58814,303.75 c -0.97766,-3.9875 -1.98147,-7.7646 -2.2307,-8.39355 -0.46175,-1.16527 14.52921,-6.80313 15.50221,-5.83013 1.40498,1.40498 6.84468,15.07428 6.25214,15.71087 -0.8019,0.86152 -14.92374,5.76281 -16.6041,5.76281 -0.6281,0 -1.9419,-3.2625 -2.91955,-7.25 z M 171.5,314.15349 c -10.57683,-3.0683 -10.07739,-2.04952 -5.48374,-11.18583 3.63333,-7.22633 4.2945,-8.00328 6.27258,-7.37105 1.21614,0.3887 4.39521,1.28502 7.0646,1.99183 2.66939,0.70681 5.05397,1.48563 5.29905,1.73072 0.24509,0.24509 -0.37213,3.98604 -1.37159,8.31323 -2.09929,9.08889 -2.38473,9.24689 -11.7809,6.5211 z m 31.5,-2.12365 c 0,-3.17891 -0.2685,-7.12233 -0.59666,-8.76315 l -0.59667,-2.98332 8.33558,-1.06413 c 5.90814,-0.75424 8.52784,-0.75305 8.99578,0.004 0.36311,0.58752 0.97481,4.00604 1.35934,7.59671 0.38453,3.59066 0.91401,7.08842 1.17663,7.77279 0.46259,1.20549 -0.3213,1.35447 -14.924,2.83631 l -3.75,0.38054 0,-5.77985 z m 174.52629,18.35336 c -0.358,-3.23576 -0.87791,-7.09467 -1.15535,-8.57536 -0.55401,-2.95668 -1.02938,-2.76954 11.81673,-4.65203 l 5.68766,-0.83349 0.62319,6.58884 c 0.34276,3.62386 0.85657,7.82634 1.1418,9.33884 0.47008,2.49276 0.24426,2.75 -2.41417,2.75 -1.61302,0 -5.65891,0.28494 -8.99086,0.6332 l -6.05809,0.63319 -0.65091,-5.88319 z m 70.56449,113.32656 c -9.30025,-10.67663 -27.19053,-25.28235 -38.90953,-31.76595 l -4.31875,-2.38937 -4.68125,2.78517 c -20.52353,12.21078 -41.35022,18.67821 -60.04172,18.64508 -9.7385,-0.0173 -13.65915,-1.29425 -7.48845,-2.43905 6.13997,-1.13909 17.82713,-6.37191 25.63934,-11.47977 8.27559,-5.41084 22.89471,-18.01048 22.44892,-19.34785 -0.40516,-1.21549 -10.67295,-5.61242 -32.03038,-13.7162 -9.78508,-3.71282 -17.96039,-6.91991 -18.16736,-7.12689 -0.54163,-0.54163 -3.6207,-29.12916 -3.1844,-29.56546 0.65001,-0.65002 16.77429,4.79095 25.80336,8.70707 9.0429,3.92212 28.57975,15.10994 37.22222,21.3154 l 4.88277,3.50592 2.22092,-2.66893 c 1.2215,-1.46791 5.96744,-8.29393 10.54654,-15.16893 4.5791,-6.875 8.43306,-12.65062 8.56436,-12.83472 0.21793,-0.30555 28.45569,11.63593 29.24338,12.36675 0.18742,0.17388 -0.85678,2.7128 -2.32043,5.64206 -3.43361,6.87178 -11.79487,17.74885 -19.39841,25.23517 l -6.00178,5.90925 7.72758,8.59075 c 9.84293,10.94237 13.70547,15.90644 19.10212,24.54965 3.66154,5.86428 9.57122,17.63369 8.78756,17.50085 -0.13056,-0.0221 -2.67154,-2.83464 -5.64661,-6.25 z m 44.60445,25.9003 c 0.10738,-0.0919 -2.24525,-7.35433 -5.22807,-16.13862 -16.00967,-47.14797 -23.72037,-97.6234 -25.33238,-165.82982 L 461.5,260.78324 446,251.83878 c -8.525,-4.91945 -15.9059,-9.34908 -16.40199,-9.84361 -0.53501,-0.53333 5.69588,-7.64 15.3146,-17.46715 l 16.21659,-16.56799 -0.611,-13.23001 c -0.83685,-18.12043 -2.46675,-41.54564 -3.16445,-45.48002 l -0.57633,-3.25 -27.98386,0 -27.98387,0 24.56236,-20.25 c 23.69869,-19.53796 24.54193,-20.35549 23.98151,-23.25 -1.14187,-5.89761 -8.15659,-26.146707 -11.8782,-34.288263 L 433.68682,59.923752 418.83036,47.961876 C 410.65931,41.382844 403.59282,36 403.12705,36 402.66128,36 395.57965,35.334355 387.3901,34.520789 356.15966,31.418298 315.00468,29.005808 275.5,27.961834 239.53809,27.011483 212,27.323386 212,28.68105 c 0,0.784823 4.92629,53.656024 5.48048,58.81895 l 0.53669,5 -30.279,-30.896773 -30.27899,-30.896773 -16.97959,1.698806 c -23.21388,2.322546 -69.458303,8.899646 -76.827499,10.926769 -0.466349,0.128284 6.886286,6.647218 16.339189,14.486521 l 17.187098,14.253277 -24.089276,-0.692715 -24.089275,-0.692716 2.068122,5.906802 c 3.807461,10.87456 9.754139,35.769312 11.871648,49.698622 5.629756,37.03345 4.560153,76.11467 -3.960476,144.70818 -4.410077,35.50238 -6.798128,56.73162 -8.475676,75.34688 l -1.518188,16.84689 2.372084,2.81906 c 1.304647,1.55048 22.977568,25.60235 48.162046,53.4486 41.606763,46.00421 46.027063,50.58318 48.385283,50.12213 1.42743,-0.27908 7.85285,-1.04196 14.27871,-1.69529 6.42585,-0.65334 12.10888,-1.45797 12.62895,-1.78808 0.52006,-0.3301 5.50219,-9.71269 11.07138,-20.85019 5.5692,-11.1375 10.26435,-20.25 10.43366,-20.25 0.16931,0 4.32967,6.29863 9.24523,13.99695 4.91557,7.69833 9.1624,13.98161 9.4374,13.96285 0.275,-0.0188 9.5,-7.37214 20.5,-16.34085 l 20,-16.30675 0.61765,15.0939 c 0.33971,8.30165 0.67721,17.83405 0.75,21.18311 l 0.13235,6.08921 32.75,0.66316 c 18.0125,0.36473 44.9,1.3243 59.75,2.13238 34.00761,1.85055 90.40228,4.45708 105.5,4.87615 9.9382,0.27585 37.13236,-0.25804 37.69523,-0.74005 z"
     id="path2989"
     style="fill:#ffffff" />
</svg>
