<?xml version="1.0" encoding="UTF-8" standalone="no"?>
<!-- Created with Inkscape (http://www.inkscape.org/) -->

<svg
   xmlns:dc="http://purl.org/dc/elements/1.1/"
   xmlns:cc="http://creativecommons.org/ns#"
   xmlns:rdf="http://www.w3.org/1999/02/22-rdf-syntax-ns#"
   xmlns:svg="http://www.w3.org/2000/svg"
   xmlns="http://www.w3.org/2000/svg"
   version="1.1"
   width="512"
   height="512"
   id="svg2">
  <metadata
     id="metadata8">
    <rdf:RDF>
      <cc:Work
         rdf:about="">
        <dc:format>image/svg+xml</dc:format>
        <dc:type
           rdf:resource="http://purl.org/dc/dcmitype/StillImage" />
        <dc:title></dc:title>
      </cc:Work>
    </rdf:RDF>
  </metadata>
  <defs
     id="defs6" />
  <path
     d="M 469.14483,79.75 C 464.39177,72.905292 455.8482,63.488626 448.41385,56.900461 411.68205,24.349505 361.439,16.880826 319.5,37.737291 302.52228,46.180391 283.67928,61.933987 271.64047,77.75 l -4.75736,6.25 102.60648,0 102.60649,0 -2.95125,-4.25 z M 60.291834,105.992 C 81.111784,98.202259 87.002149,71.002149 71.27495,55.27495 64.953191,48.953191 58.929524,46.535599 49.5,46.535599 c -6.417931,0 -8.973548,0.475632 -12.922911,2.405112 C 20.770621,56.663035 14.325194,75.06182 21.979565,90.610054 29.062983,104.99852 45.407865,111.56081 60.291834,105.992 z M 215,177.49498 c 0,-0.38775 -99.32886,-149.883042 -100.53972,-151.317694 -0.60307,-0.71453 -22.156938,7.076746 -27.593935,9.974635 l -5.822273,3.103239 4.558532,5.070185 c 14.390005,16.005148 16.742656,39.479392 5.768684,57.558575 -1.874912,3.08885 -3.896709,6.3022 -4.492884,7.14079 -0.8649,1.21658 2.804835,7.58233 18.159176,31.5 10.58372,16.48641 20.31061,31.66279 21.61532,33.72529 l 2.37219,3.75 42.98745,0 C 195.65565,178 215,177.77274 215,177.49498 z m -108,-0.16486 c 0,-0.36843 -7.954602,-13.08093 -17.676892,-28.25 -9.722291,-15.16907 -17.714005,-27.65933 -17.759366,-27.75615 -0.04536,-0.0968 -2.712987,0.71202 -5.928061,1.79742 -12.146817,4.10074 -24.977214,3.45876 -36.906459,-1.84667 -3.173928,-1.41157 -5.946336,-2.38835 -6.160906,-2.17061 -0.823159,0.83532 -3.627168,16.29937 -4.558602,25.1406 -1.089783,10.34429 -1.303121,28.05854 -0.379428,31.50529 l 0.602977,2.25 44.383368,0 C 87.027484,178 107,177.69855 107,177.33012 z M 495.65277,199.5 c 3.18717,-18.6233 2.55774,-42.06109 -1.67409,-62.33788 -2.085,-9.99023 -7.00913,-25.27641 -10.11878,-31.41212 l -1.90055,-3.75 -100.06301,0 c -55.03465,0 -99.91301,0.36575 -99.72967,0.81278 0.18333,0.44703 8.88333,14.39141 19.33333,30.9875 13.43105,21.33042 19.43965,30.0481 20.5,29.74275 0.825,-0.23759 4.17149,-1.36162 7.43664,-2.49786 17.93343,-6.24066 37.65621,-1.78909 50.89509,11.48739 8.24422,8.26763 12.38774,16.97889 14.13957,29.72674 l 0.65403,4.7593 49.66474,-0.2593 49.66473,-0.2593 1.19797,-7 z m -136.23685,35.08494 c 10.91925,-5.34229 17.04937,-15.2704 17.03233,-27.58494 -0.0132,-9.51002 -2.81879,-16.20215 -9.35639,-22.3173 -19.19067,-17.95064 -50.0336,-5.92208 -51.83513,20.2154 -1.62174,23.52907 22.96346,40.05694 44.15919,29.68684 z m 100.02462,40.27875 c 11.21173,-13.3973 22.22308,-31.32519 27.56674,-44.88215 L 488.97082,225 l -48.73541,0.002 -48.73541,0.002 -2.81239,5.38264 c -9.44806,18.08265 -32.01805,28.55867 -52.30462,24.27758 C 313.2158,249.77597 297,229.75724 297,206.04588 c 0,-6.81109 3.24777,-18.10216 6.92676,-24.08128 1.75886,-2.85851 3.00195,-5.70743 2.76242,-6.33094 -0.73243,-1.90658 -46.80001,-74.32194 -55.70416,-87.563472 -26.67859,-39.674243 -63.36675,-62.154643 -105.66,-64.742379 -8.96529,-0.548546 -10.57714,-0.427197 -10.12082,0.761951 0.29852,0.777924 38.9044,59.125969 85.79085,129.66232 L 306.24314,282 l 73.62843,-0.0189 73.62843,-0.0189 5.94054,-7.09857 z m -207.87541,89.44544 c -0.35687,-0.92998 -15.11833,-24.55498 -32.80325,-52.5 L 186.60747,261 l -67.38776,0 -67.387769,0 3.277946,4.25 c 9.092046,11.78824 51.984523,52.08266 75.201863,70.64677 1.52515,1.21949 2.02875,1.13228 3.96757,-0.68708 3.67163,-3.4454 14.77031,-8.05381 22.22068,-9.22648 23.72276,-3.73393 46.79699,10.88793 54.07518,34.26679 l 1.79006,5.75 19.92437,0 c 18.29932,0 19.87145,-0.13791 19.27552,-1.69087 z m -76.93383,38.55586 c 18.61685,-6.96546 25.73776,-28.91794 14.79451,-45.60885 C 173.22339,332.5438 134.65156,342.9964 133.17342,372.5 c -1.13136,22.5819 20.30207,38.28039 41.45788,30.36499 z M 261.95339,481 c 11.97303,-28.47451 30.62139,-54.81565 58.44408,-82.55332 18.31353,-18.25756 26.79144,-25.64347 62.66337,-54.59197 C 416.60691,316.78316 434,301.96609 434,300.45993 c 0,-0.25296 -30.9375,-0.47195 -68.75,-0.48665 L 296.5,299.94656 262.14524,247.97328 227.79048,196 124.39524,196 C 36.858319,196 21,196.21291 21,197.38813 c 0,4.19397 5.927218,20.80274 11.549073,32.36187 l 6.444218,13.25 78.753359,0.0226 78.75335,0.0226 44.1069,69.72741 44.10691,69.7274 -35.51988,0.26281 c -21.1978,0.15684 -35.99372,0.65607 -36.69505,1.23812 -0.64636,0.53643 -1.74128,2.89316 -2.43317,5.23719 -0.6919,2.34404 -2.39529,6.37006 -3.78532,8.94673 l -2.52733,4.68484 2.37347,2.89533 c 12.45783,15.19696 19.42112,24.32433 25.23707,33.08034 7.41831,11.16839 18.60689,32.28638 23.23851,43.86171 1.58606,3.96389 3.17938,6.88889 3.5407,6.5 0.36133,-0.38889 2.07609,-4.08207 3.81058,-8.20707 z"
     id="path2989"
     style="fill:#ffffff" />
</svg>
