<?xml version="1.0" encoding="UTF-8" standalone="no"?>
<!-- Created with Inkscape (http://www.inkscape.org/) -->

<svg
   xmlns:dc="http://purl.org/dc/elements/1.1/"
   xmlns:cc="http://creativecommons.org/ns#"
   xmlns:rdf="http://www.w3.org/1999/02/22-rdf-syntax-ns#"
   xmlns:svg="http://www.w3.org/2000/svg"
   xmlns="http://www.w3.org/2000/svg"
   version="1.1"
   width="512"
   height="512"
   id="svg2">
  <metadata
     id="metadata8">
    <rdf:RDF>
      <cc:Work
         rdf:about="">
        <dc:format>image/svg+xml</dc:format>
        <dc:type
           rdf:resource="http://purl.org/dc/dcmitype/StillImage" />
        <dc:title></dc:title>
      </cc:Work>
    </rdf:RDF>
  </metadata>
  <defs
     id="defs6" />
  <path
     d="M 226.1859,107.70492 C 225.17573,84.608182 236.76437,66.955843 253,66.860479 c 11.38139,-0.06685 20.63881,8.555337 25.15712,23.430885 1.66544,5.483119 1.99351,8.749809 1.67503,16.678976 l -0.39604,9.86039 2.1671,-3.81525 C 287.25645,103.06277 290.67929,85.220315 289.47149,72 287.85893,54.349269 282.38073,41.195542 272.54647,31.361285 267.48819,26.303001 265.26272,24.841536 260.51806,23.462226 242.59988,18.253269 225.70359,32.487577 218.92782,58.5 216.28512,68.64544 216.06363,86.308002 218.4534,96.333201 219.73167,101.69561 225.63866,117 226.43011,117 c 0.0893,0 -0.0206,-4.18279 -0.24421,-9.29508 z m 116.39994,180.83079 c 3.59577,-2.35603 6.40608,-7.45804 6.41042,-11.63783 0.006,-6.03067 -3.4503,-9.77737 -15.14989,-16.42156 -14.58337,-8.28189 -22.69145,-13.85017 -34.03775,-23.37567 -12.03407,-10.10289 -13.31642,-11.7323 -15.80213,-20.07887 -3.22172,-10.81793 -4.07458,-16.80949 -4.13105,-29.02178 -0.0629,-13.60322 1.95483,-25.47042 6.71602,-39.5 1.86652,-5.5 3.39702,-10.26997 3.40111,-10.59994 0.004,-0.32997 -3.70507,0.47762 -8.24257,1.79465 -4.5375,1.31703 -11.175,2.487 -14.75,2.59994 l -6.5,0.20535 -0.91268,-5.75547 c -0.8322,-5.24795 0.69981,-19.69579 3.00445,-28.33376 0.50782,-1.90338 -0.18313,-2.24879 -7.76718,-3.88284 -4.57852,-0.98648 -8.8356,-1.98721 -9.46017,-2.22385 -2.15774,-0.81752 -4.76346,14.27784 -4.8157,27.89809 -0.0466,12.16065 -0.13398,12.68458 -2.04872,12.28937 -1.1,-0.22705 -4.66974,-0.9295 -7.93275,-1.56101 -3.26301,-0.63151 -7.7207,-1.77903 -9.90599,-2.55004 -2.18528,-0.77102 -4.12721,-1.24787 -4.31539,-1.05969 -0.18819,0.18819 0.9985,4.82342 2.63707,10.30051 5.08734,17.00488 6.37323,25.4916 6.34541,41.87869 -0.022,12.94192 -0.3834,16.34583 -2.63424,24.80888 -2.4323,9.14531 -2.93301,10.10026 -7.40145,14.11598 -8.15596,7.32964 -16.69982,14.29061 -31.52237,25.68233 -15.95624,12.263 -18.75723,15.73235 -18.76517,23.24281 -0.004,4.21938 0.4532,5.30832 3.51972,8.37484 3.28399,3.28399 3.86316,3.49234 8.47599,3.0491 7.03774,-0.67624 16.16699,-5.52824 25.95071,-13.79226 9.62673,-8.13141 11.69538,-9.34463 20.33137,-11.92393 25.03913,-7.4784 57.15763,-5.92243 76.21709,3.69231 2.75,1.38726 8.6,5.95774 13,10.15661 4.4,4.19887 8.98271,8.45537 10.1838,9.4589 5.49049,4.58736 14.68308,5.58973 19.90204,2.17014 z M 410.35202,490.75 c 0.34683,-2.8875 0.63451,-7.35718 0.63929,-9.93261 0.009,-5.0922 -0.0747,-5.16356 -7.49131,-6.35139 -2.2,-0.35235 -4.7875,-0.85667 -5.75,-1.12071 -1.59348,-0.43713 -1.75,0.55455 -1.75,11.08732 L 396,496 l 6.86071,0 6.86071,0 0.6306,-5.25 z M 378,483.62921 l 0,-12.37079 -7.0966,-0.69928 c -3.90312,-0.3846 -7.3027,-0.49317 -7.55461,-0.24126 -0.25191,0.2519 -0.14268,6.13344 0.24272,13.07007 L 364.29225,496 l 6.85387,0 6.85388,0 0,-12.37079 z M 345.99131,488.25 c -0.005,-4.2625 -0.29951,-10.17202 -0.65496,-13.13227 l -0.64626,-5.38227 -7.92246,0.54301 c -4.35735,0.29866 -8.12657,0.74714 -8.37606,0.99662 -0.42375,0.42376 2.30829,20.72798 3.15869,23.47491 0.26153,0.84479 2.6663,1.25 7.41836,1.25 l 7.03138,0 -0.009,-7.75 z m -32.99886,5.5 c -0.008,-2.23587 -1.51959,-12.73987 -2.59115,-18 -0.6507,-3.19421 -1.55225,-3.31032 -12.7598,-1.64341 l -7.44019,1.10659 2.41861,9.14341 c 1.33024,5.02888 2.62082,9.70591 2.86796,10.39341 0.31175,0.86721 3.06195,1.25 8.98074,1.25 8.18293,0 8.53107,-0.0919 8.52383,-2.25 z M 268.43114,365.74248 c -2.68105,-10.90491 -2.50645,-22.074 0.43858,-28.05551 3.36748,-6.83954 8.53519,-9.88498 17.78029,-10.47829 19.50286,-1.25162 43.0463,15.11619 46.80741,32.54132 0.38582,1.7875 0.29543,3.25 -0.20086,3.25 -1.22787,0 -58.21126,8.88697 -60.90068,9.4979 -1.92773,0.4379 -2.32384,-0.24389 -3.92474,-6.75542 z m -16.54315,37.59921 C 245.70665,396.66078 235.72369,392.80343 220,391.02038 c -5.775,-0.65488 -10.67766,-1.36753 -10.89481,-1.58368 -0.21714,-0.21614 -0.38435,-7.26532 -0.37158,-15.66484 0.02,-13.12488 0.3821,-16.63634 2.576,-24.97767 1.40402,-5.3382 4.38341,-13.61229 6.62085,-18.38687 4.31082,-9.19906 13.51648,-23.59967 17.44616,-27.29141 l 2.3528,-2.21034 6.55144,5.59273 6.55145,5.59273 -5.46265,7.20448 c -10.57093,13.94159 -17.18621,30.5909 -18.85514,47.45449 -0.71253,7.19976 -0.70074,7.25 1.70162,7.25 3.91537,0 15.83616,3.45712 21.93673,6.36181 6.38857,3.04182 15.30796,9.79074 16.27704,12.31614 0.44736,1.16581 -0.81773,3.17365 -4.14294,6.57534 -6.69796,6.85199 -7.53687,7.18181 -10.39898,4.0884 z m 99.49952,16.9708 C 349.0237,413.0983 348.5005,409.77701 348.50276,402 c 0.003,-10.60544 1.46687,-14.60697 7.628,-20.85264 3.50615,-3.55426 11.77674,-9.57677 12.35094,-8.99375 0.18762,0.19051 3.55006,12.04639 7.47208,26.34639 3.92202,14.3 7.3938,26.87128 7.71506,27.93619 0.62559,2.07365 -0.45569,1.2345 -14.4083,-11.18185 l -7.01842,-6.24565 -3.27507,9.24565 c -1.80128,5.08511 -3.59388,9.61128 -3.98354,10.05815 -0.38967,0.44686 -2.00786,-3.15314 -3.596,-8 z M 237.5,493.51227 c 3.3,-0.84828 9.23495,-3.12153 13.18877,-5.05167 7.41701,-3.62075 20.32876,-13.12649 20.28839,-14.93649 -0.0126,-0.56326 -2.448,-10.0186 -5.41208,-21.01186 -2.96408,-10.99326 -5.20781,-20.28131 -4.98607,-20.6401 0.32675,-0.52869 12.41024,-3.7775 15.80472,-4.24932 0.48605,-0.0676 2.74488,6.62717 5.01961,14.87717 3.62183,13.13562 4.38203,14.97652 6.11627,14.81113 1.08922,-0.10388 7.38039,-0.87902 13.98039,-1.72255 37.74464,-4.82399 80.49696,-4.25312 105.97289,1.41505 2.18508,0.48616 4.21008,0.64563 4.5,0.35438 0.28991,-0.29125 0.45298,-9.6401 0.36237,-20.77523 -0.17984,-22.10031 -2.26166,-43.89809 -5.65842,-59.24657 L 404.5,367.5 l -14.73422,-2.38877 -14.73423,-2.38877 0.62728,-2.61123 c 3.08015,-12.82196 16.20925,-25.38578 32.12513,-30.74196 l 6.39958,-2.15366 -9.84177,-5.47768 C 377.08706,306.56865 361.13793,298 360.15756,298 c -0.59838,0 -2.62971,1.35366 -4.51405,3.00814 -7.38192,6.48141 -18.28146,9.22017 -27.78314,6.98116 -8.75705,-2.06356 -14.39751,-5.54958 -24.40511,-15.08331 C 289.26163,279.38445 281.31897,276.5677 257.5,276.60862 c -21.22427,0.0365 -32.75096,2.93048 -40.87585,10.26274 -20.45277,18.45749 -40.06902,24.32735 -54.80927,16.40082 l -4.68512,-2.51941 -2.81488,2.19503 c -3.55477,2.77199 -12.32176,12.7484 -16.3572,18.61372 -10.79887,15.6956 -15.31748,36.32832 -13.01718,59.43848 3.68876,37.05937 15.52511,65.757 36.00813,87.3029 12.82411,13.48957 30.99727,23.71073 47.4259,26.67383 6.7445,1.21646 21.60246,0.46938 29.12547,-1.46446 z"
     id="path2989"
     style="fill:#ffffff" />
</svg>
