<?xml version="1.0" encoding="UTF-8" standalone="no"?>
<!-- Created with Inkscape (http://www.inkscape.org/) -->

<svg
   xmlns:dc="http://purl.org/dc/elements/1.1/"
   xmlns:cc="http://creativecommons.org/ns#"
   xmlns:rdf="http://www.w3.org/1999/02/22-rdf-syntax-ns#"
   xmlns:svg="http://www.w3.org/2000/svg"
   xmlns="http://www.w3.org/2000/svg"
   version="1.1"
   width="512"
   height="512"
   id="svg2">
  <metadata
     id="metadata8">
    <rdf:RDF>
      <cc:Work
         rdf:about="">
        <dc:format>image/svg+xml</dc:format>
        <dc:type
           rdf:resource="http://purl.org/dc/dcmitype/StillImage" />
        <dc:title></dc:title>
      </cc:Work>
    </rdf:RDF>
  </metadata>
  <defs
     id="defs6" />
  <path
     d="m 282.70469,138.25 c 0.43742,-2.0625 0.77753,-12.525 0.7558,-23.25 -0.0376,-18.537301 -0.69611,-24.314229 -3.99731,-35.065104 -0.37833,-1.232081 1.17031,-1.952582 7.27812,-3.386123 4.26728,-1.001559 8.25454,-2.007329 8.86057,-2.235043 0.67686,-0.254324 1.97548,3.55902 3.36669,9.886123 2.60081,11.828274 3.79356,37.554657 2.29729,49.550147 -1.05396,8.44955 -1.37239,8.25986 8.7868,5.23432 12.41445,-3.69718 20.51658,-11.05181 25.00937,-22.70201 3.13599,-8.13191 3.84842,-26.02814 1.47069,-36.943702 -5.59499,-25.685119 -28.2133,-59.447763 -43.12141,-64.367883 -2.95099,-0.973914 -4.07817,-0.826314 -7.93025,1.038448 -9.41812,4.559234 -24.02285,22.807238 -32.45003,40.544959 -8.34645,17.567789 -11.25992,33.243869 -9.05951,48.745128 2.75651,19.41889 12.54146,30.96262 29.78859,35.1429 8.08638,1.95994 8.06277,1.96573 8.94459,-2.19216 z M 343,328.46482 c 0,-40.75474 0.0363,-41.51574 1.93426,-40.5 8.5745,4.58893 18.06574,-5.20949 18.06574,-18.65044 0,-7.86063 -2.15969,-13.67358 -8.67221,-23.34187 -11.29422,-16.76706 -11.30135,-16.80369 -11.31592,-58.15193 L 343,154.14117 l -6.48897,1.85568 c -25.2841,7.2306 -58.5459,7.26567 -84.44363,0.089 l -6.84241,-1.89612 -0.50169,9.65511 c -0.63415,12.20415 -1.57201,15.14435 -7.91304,24.80755 -6.01003,9.15878 -8.81248,15.87737 -8.80468,21.1083 0.0179,12.02033 7.61138,20.19055 15.06016,16.20409 1.90401,-1.019 1.93426,0.0889 1.93426,70.83333 0,39.52768 0.3,72.16852 0.66667,72.53518 0.36666,0.36667 22.41666,0.66667 49,0.66667 L 343,370 l 0,-41.53518 z m 104.3561,119.33007 c 18.81533,-14.55276 38.09674,-36.92004 47.01967,-54.54489 l 2.65792,-5.25 -165.51684,0 C 240.48258,388 166,387.82628 166,387.61395 c 0,-0.21232 1.72517,-3.02482 3.83371,-6.25 19.62083,-30.01151 6.01582,-71.74444 -29.19018,-89.53997 C 90.542265,266.49936 38.881801,317.35619 56.661064,374.5 c 0.855613,2.75 3.533856,9.37449 5.951652,14.72108 2.417795,5.34659 4.884906,12.00081 5.482468,14.78714 1.894843,8.83536 -1.795395,18.51669 -8.824785,23.15182 -5.454577,3.59671 -17.918439,1.58375 -22.209741,-3.58695 C 36.342607,422.70789 35.410898,422 34.990194,422 33.987675,422 23,435.60783 23,436.84942 c 0,1.74326 11.193946,8.42026 17.395823,10.37631 22.692457,7.15713 45.599519,-9.80885 47.329903,-35.05462 C 88.423934,401.98446 86.982099,395.72634 81.004866,383 74.721567,369.622 73,362.82492 73,351.39524 c 0,-19.12443 9.037286,-35.31306 23.925014,-42.85724 15.944166,-8.07952 36.541436,-2.93546 50.525836,12.61856 8.55063,9.51036 12.04266,19.44342 11.33843,32.25208 -0.78186,14.2203 -8.42301,25.24631 -21.78928,31.44144 -4.85756,2.25143 -7.10609,2.59547 -19.25,2.94545 -7.5625,0.21794 -13.75,0.73128 -13.75,1.14075 0,1.18423 9.25978,16.27015 14.57247,23.7413 5.82732,8.19487 21.26643,24.39588 30.92753,32.45378 l 7,5.83839 143.3561,0.0151 143.35609,0.0151 4.14391,-3.20511 z"
     id="path2989"
     style="fill:#ffffff" />
</svg>
