<?xml version="1.0" encoding="UTF-8" standalone="no"?>
<!-- Created with Inkscape (http://www.inkscape.org/) -->

<svg
   xmlns:dc="http://purl.org/dc/elements/1.1/"
   xmlns:cc="http://creativecommons.org/ns#"
   xmlns:rdf="http://www.w3.org/1999/02/22-rdf-syntax-ns#"
   xmlns:svg="http://www.w3.org/2000/svg"
   xmlns="http://www.w3.org/2000/svg"
   version="1.1"
   width="512"
   height="512"
   id="svg2">
  <metadata
     id="metadata8">
    <rdf:RDF>
      <cc:Work
         rdf:about="">
        <dc:format>image/svg+xml</dc:format>
        <dc:type
           rdf:resource="http://purl.org/dc/dcmitype/StillImage" />
        <dc:title></dc:title>
      </cc:Work>
    </rdf:RDF>
  </metadata>
  <defs
     id="defs6" />
  <path
     d="m 210.14621,71.539734 c 29.05238,-13.670358 64.03839,-13.415866 92.21452,0.670778 l 5.86073,2.930069 2.41098,-2.265006 c 1.32605,-1.245754 3.58274,-4.659979 5.01488,-7.587168 C 321.56523,53.192639 315.54633,40.61671 299.35138,31.239581 280.68921,20.433893 254.10766,17.45022 230.5,23.511286 c -9.33381,2.396377 -21.9027,8.849864 -27.58147,14.161686 -11.22098,10.495919 -12.64307,21.15143 -4.34774,32.577028 1.89675,2.6125 3.62256,4.75 3.83513,4.75 0.21258,0 3.6957,-1.55712 7.74029,-3.460266 z M 351.7041,82.352897 c 19.50176,-9.200124 19.51991,-37.545537 0.0304,-47.488337 -4.54915,-2.320803 -12.08331,-3.39691 -17.14048,-2.44818 l -3.58894,0.67329 2.01851,3.956612 c 6.66913,13.072568 6.04114,28.970373 -1.62401,41.112756 -1.31978,2.09067 -2.3996,4.225837 -2.3996,4.744816 0,1.261742 9.61015,2.859827 14,2.328079 1.925,-0.233177 5.84184,-1.528743 8.7041,-2.879036 z m -170.88664,1.501099 2.31745,-0.855788 -2.10423,-2.955118 c -8.18003,-11.487795 -9.64987,-28.967451 -3.46256,-41.177521 1.41149,-2.78544 2.31057,-5.320212 1.99796,-5.632826 -1.52776,-1.527751 -11.6943,-1.350888 -16.6326,0.289351 -18.40585,6.113443 -24.02077,30.323954 -10.2309,44.113824 7.32809,7.328083 18.4487,9.787594 28.11488,6.218078 z m -0.73181,49.771264 c 25.38589,-9.38462 48.75453,-13.60208 75.45236,-13.61727 28.43869,-0.0162 59.80187,6.20708 83.01214,16.47177 2.99742,1.3256 5.44985,2.18962 5.44985,1.92005 0,-0.26957 -2.31433,-3.95731 -5.14295,-8.19497 -6.9893,-10.47093 -25.34342,-28.56016 -35.13321,-34.626153 -37.48872,-23.22896 -79.06053,-18.290065 -113.02354,13.427643 -7.18681,6.71169 -17.67803,19.55812 -22.06336,27.01646 -1.83504,3.12093 -1.83375,3.15291 0.0856,2.12568 1.07179,-0.57361 6.18517,-2.60905 11.36306,-4.52321 z m 223.68058,63.23559 c 7.21313,-2.34218 16.71224,-8.36389 21.12875,-13.39402 3.95188,-4.50094 12.20118,-16.75487 15.0623,-22.37432 3.41284,-6.70307 4.97534,-12.93904 5.55957,-22.18852 0.98526,-15.59829 4.79391,-26.02444 14.85081,-40.65399 3.11924,-4.5375 5.32508,-8.231244 4.90185,-8.208319 -0.42323,0.02292 -5.83201,1.08685 -12.01951,2.364278 l -11.25,2.322598 0,-2.969934 c 0,-7.429415 4.24413,-18.836529 10.29372,-27.666802 l 3.02002,-4.408179 -7.36363,0.684377 c -19.50291,1.812605 -32.10582,8.159503 -36.56865,18.416186 -2.33183,5.359116 -1.98658,18.262308 1.0752,40.184035 1.41869,10.15753 2.8582,24.33253 3.1989,31.5 l 0.61946,13.03176 -4.77991,5.30531 c -6.05436,6.71985 -12.99308,10.30443 -21.22562,10.96526 -3.44822,0.27679 -6.26949,0.86372 -6.26949,1.30429 0,0.68566 0.8248,4.57027 3.56318,16.78181 0.49109,2.18997 0.86122,2.31007 5.23264,1.69778 2.5873,-0.36239 7.52398,-1.57451 10.97041,-2.6936 z M 124.99738,192 c 0.89656,-4.125 1.96925,-8.5125 2.38375,-9.75 0.72113,-2.15294 0.51509,-2.25 -4.77623,-2.25 -8.50973,0 -15.78271,-3.20747 -22.30843,-9.83829 l -5.546524,-5.63586 0.546339,-15.51292 C 95.596771,140.48082 96.994973,125.4 98.403399,115.5 99.811826,105.6 100.97224,94.769176 100.98209,91.431501 101.02072,78.342 96.153715,70.595166 84.722033,65.550322 77.011397,62.147589 56,58.501872 56,60.566722 c 0,0.311697 1.0736,1.999197 2.385779,3.75 5.091323,6.79321 8.725244,16.113756 10.061358,25.806107 l 0.637268,4.622828 -11.292203,-2.288351 c -6.210711,-1.258594 -11.441557,-2.139511 -11.624103,-1.957595 -0.182545,0.181917 2.124944,3.856402 5.127755,8.165523 10.291886,14.769156 13.329518,23.420246 13.99559,39.859016 0.530075,13.08232 2.391154,18.50158 11.086206,32.28185 9.738435,15.43385 21.548807,24.53218 35.9843,27.72115 10.42427,2.30284 10.75316,2.13294 12.63543,-6.52725 z m 361.41927,171.97151 6.91664,-2.16599 -4.83607,-3.01005 c -6.82822,-4.24999 -13.48333,-11.41603 -17.36418,-18.69724 -1.82899,-3.43154 -3.12452,-6.44008 -2.87895,-6.68565 0.24557,-0.24557 4.78886,-0.73173 10.0962,-1.08036 5.30734,-0.34863 9.64971,-0.92353 9.64971,-1.27756 0,-0.35403 -2.25911,-2.36651 -5.02025,-4.47218 -7.92757,-6.04564 -17.37068,-16.89486 -21.43163,-24.62286 -2.0509,-3.90288 -4.81043,-11.13743 -6.13229,-16.07678 -3.77163,-14.09336 -8.67447,-23.2278 -16.87205,-31.43421 -12.95754,-12.9715 -25.83469,-19.81112 -39.73047,-21.1026 L 392,232.7128 l 0,10.00669 0,10.00669 6.46156,0.51867 c 8.48814,0.68135 16.26379,4.86028 18.90779,10.16178 3.79131,7.60195 8.89352,24.74683 14.7287,49.49256 3.29409,13.96956 6.8486,27.84416 7.89889,30.83244 3.90756,11.1177 10.21473,18.94135 17.52222,21.73523 5.4724,2.09226 19.81046,1.35032 28.89749,-1.49535 z m -431.634777,0.4499 c 9.599445,-4.78361 14.527821,-13.66453 19.829372,-35.73248 9.294414,-38.68842 11.568298,-47.26139 14.946006,-56.34926 2.011425,-5.41182 4.515504,-10.7757 5.56462,-11.91975 3.490412,-3.80622 10.974499,-6.82654 17.932479,-7.23693 l 6.55435,-0.38657 0,-9.89821 0,-9.89821 -4.25513,0 c -15.20896,0 -34.020674,10.07445 -46.827545,25.07809 -6.868773,8.04697 -9.740786,14.70074 -15.936872,36.92191 -2.739251,9.82384 -13.116646,23.06991 -25.308232,32.3043 -2.320494,1.75764 -4.232994,3.5332 -4.25,3.9457 -0.01701,0.4125 2.106579,0.75391 4.719079,0.75869 2.6125,0.005 7.105897,0.29168 9.985326,0.63756 l 5.235327,0.62886 -3.185925,5.9774 c -3.926563,7.36699 -10.304346,14.57845 -16.554365,18.71829 -2.6017,1.7233 -4.730363,3.4194 -4.730363,3.76911 0,1.49474 16.436664,5.11235 23.553656,5.18402 6.211802,0.0626 8.47288,-0.382 12.728217,-2.50252 z m 226.148977,37.3892 c 3.61303,-1.10694 10.39415,-3.9902 15.06915,-6.40725 45.54048,-23.54516 75.94616,-84.32725 75.99131,-151.90949 0.0143,-21.47948 -2.88286,-41.37655 -9.15707,-62.88758 -3.31886,-11.37868 -4.92593,-13.93696 -10.99851,-17.50839 l -3.66427,-2.15505 -0.5223,2.77858 c -0.28727,1.52821 -2.4561,32.11082 -4.81963,67.96134 -2.36353,35.85053 -4.46787,65.01222 -4.67632,64.80377 -0.20845,-0.20845 -2.97156,-32.75452 -6.14024,-72.32461 -3.16869,-39.57009 -6.06465,-72.43653 -6.43548,-73.03655 -0.68915,-1.11506 -17.38741,-6.69265 -17.97739,-6.00484 -0.17902,0.2087 -2.1981,42.67946 -4.48684,94.37946 -2.28874,51.7 -4.48803,96.925 -4.8873,100.5 -0.51818,4.63957 -2.30017,-22.96928 -6.22596,-96.45998 l -5.5,-102.95998 -3.5,-0.7216 c -1.925,-0.39687 -6.7625,-1.03025 -10.75,-1.4075 l -7.25,-0.68592 0,133.73104 0,133.73103 4.68085,-0.70194 c 2.57446,-0.38606 7.63696,-1.60761 11.25,-2.71454 z M 247,271.5 247,138 l -3.75,0.073 c -4.51578,0.0879 -14.06942,1.39364 -14.6032,1.99586 -0.21017,0.23713 -2.79191,45.99364 -5.7372,101.68114 -2.94528,55.6875 -5.60495,101.25 -5.91038,101.25 -0.30542,0 -2.52653,-44.4375 -4.93579,-98.75 -2.40926,-54.3125 -4.71104,-99.1294 -5.11507,-99.59312 -0.40402,-0.46371 -4.58107,0.33014 -9.28232,1.7641 l -8.54772,2.60722 -0.55239,4.2359 c -0.30381,2.32975 -3.05993,35.9529 -6.12471,74.71813 -3.06479,38.76522 -5.66345,70.57333 -5.7748,70.68468 -0.11135,0.11135 -2.15293,-28.90565 -4.53685,-64.48223 -2.38391,-35.57657 -4.6258,-67.05927 -4.98198,-69.96155 l -0.64759,-5.27686 -6.95187,4.27686 -6.95188,4.27687 -3.27904,10.18433 c -24.26263,75.3569 -2.97327,165.2457 48.98235,206.81533 13.02699,10.42288 35.0622,20.22727 45.95044,20.44528 L 247,405 247,271.5 z m 85.90755,210.05086 c 3.96312,-7.221 12.51202,-20.08499 13.90594,-20.92502 0.37758,-0.22754 5.18651,3.58525 10.68651,8.47288 5.5,4.88762 10.25616,8.88989 10.56924,8.89393 0.31309,0.004 0.16029,-3.25515 -0.33955,-7.24265 -1.00513,-8.01845 -0.36329,-25.5164 0.98542,-26.86511 0.48027,-0.48027 4.95196,2.71857 10.12425,7.24242 5.09523,4.45644 9.4284,7.93826 9.62928,7.73738 0.20088,-0.20088 -0.0822,-4.19011 -0.62897,-8.86496 -1.7704,-15.13562 1.15496,-33.27714 5.97774,-37.07074 4.37031,-3.43769 13.23601,-14.18764 16.02348,-19.42899 2.43713,-4.5826 2.6516,-5.91829 2.56913,-16 -0.15329,-18.73982 -4.58712,-30.67861 -15.41229,-41.5 -6.1872,-6.18505 -15.89072,-12.53567 -18.05282,-11.81497 C 378.05002,324.48333 371,339.5094 371,341.11841 c 0,0.35142 1.4625,1.23935 3.25,1.97318 4.35001,1.78583 12.49631,9.49081 14.79192,13.99059 1.66703,3.26763 1.71983,4.13476 0.52709,8.65622 -3.31281,12.55827 -10.64301,22.18663 -31.59568,41.50157 -22.06604,20.34128 -27.81545,27.84519 -32.0721,41.85931 -1.82715,6.01549 -2.07095,8.68448 -1.62053,17.74073 0.42833,8.61198 3.03782,22.15999 4.26826,22.15999 0.14865,0 2.11001,-3.35211 4.35859,-7.44914 z m -148.45208,-0.32242 c 5.16308,-20.10644 1.70202,-36.7294 -11.12624,-53.43772 -2.4109,-3.1401 -11.62991,-12.33572 -20.4867,-20.43471 -17.75004,-16.23134 -23.23488,-22.54424 -28.27488,-32.54359 -4.93335,-9.78774 -5.36688,-13.77292 -2.104,-19.34061 2.84722,-4.85842 11.22795,-12.10532 15.13261,-13.08533 3.03035,-0.76056 3.01185,-1.13379 -0.45676,-9.21887 -1.57328,-3.66718 -3.14436,-7.48171 -3.4913,-8.47671 -1.06867,-3.06494 -13.22649,4.05882 -21.01183,12.31169 -10.45721,11.08519 -14.585694,22.68857 -14.619006,41.08769 -0.01573,8.68807 0.266768,10.15887 3.002916,15.63439 1.66116,3.32427 6.34664,9.6565 10.41219,14.07162 7.03023,7.63472 7.47617,8.40625 9.11409,15.76839 1.35079,6.07154 1.61479,10.72709 1.2242,21.58811 C 121.49687,452.76875 121.44024,459 121.64491,459 c 0.20467,0 4.44317,-3.65013 9.41889,-8.11139 4.97571,-4.46126 9.26229,-7.89586 9.52572,-7.63243 1.60644,1.60645 2.40232,14.013 1.51398,23.60087 -0.54005,5.82883 -0.81237,10.76741 -0.60516,10.97463 0.20722,0.20721 5.01736,-3.71691 10.68921,-8.72028 5.67185,-5.00337 10.62559,-9.10027 11.00831,-9.10422 0.98835,-0.0102 13.17942,18.55927 15.91602,24.24331 1.25792,2.61278 2.61248,4.41278 3.01013,4 0.39766,-0.41277 1.44771,-3.57269 2.33346,-7.02205 z"
     id="path2989"
     style="fill:#ffffff" />
</svg>
