<?xml version="1.0" encoding="UTF-8" standalone="no"?>
<!-- Created with Inkscape (http://www.inkscape.org/) -->

<svg
   xmlns:dc="http://purl.org/dc/elements/1.1/"
   xmlns:cc="http://creativecommons.org/ns#"
   xmlns:rdf="http://www.w3.org/1999/02/22-rdf-syntax-ns#"
   xmlns:svg="http://www.w3.org/2000/svg"
   xmlns="http://www.w3.org/2000/svg"
   version="1.1"
   width="512"
   height="512"
   id="svg2">
  <metadata
     id="metadata8">
    <rdf:RDF>
      <cc:Work
         rdf:about="">
        <dc:format>image/svg+xml</dc:format>
        <dc:type
           rdf:resource="http://purl.org/dc/dcmitype/StillImage" />
        <dc:title></dc:title>
      </cc:Work>
    </rdf:RDF>
  </metadata>
  <defs
     id="defs6" />
  <path
     d="m 243.5,492.97705 c 38.23124,-2.52837 74.92387,-10.8448 96,-21.75852 14.87809,-7.70423 27.47696,-23.83249 33.83701,-43.31596 6.50161,-19.91714 7.97946,-50.83218 3.76302,-78.71836 C 367.53727,285.93918 335.27105,221.04699 302.4821,199.1164 280.55611,184.4514 243.45757,180.92136 213.5,190.64948 154.49473,209.81025 98.415514,278.69463 78.485264,356.49356 c -6.220084,24.28047 -8.262525,49.53267 -5.529513,68.3654 3.219566,22.1855 13.937894,39.10805 30.173889,47.63982 28.71473,15.08917 88.96015,23.87822 140.37036,20.47827 z"
     id="path3025"
     style="fill:#ffffff" />
  <path
     d="m 322.75907,186.75 c 5.59075,-5.96819 4.67855,-12.2923 -2.93408,-20.34153 -13.06573,-13.81509 -39.96465,-23.21331 -55.66167,-19.44765 -9.097,2.18234 -15.03145,8.12981 -16.76606,16.80288 l -0.58468,2.92338 10.03341,0.65753 c 11.7676,0.77117 21.04801,2.57624 34.15401,6.64306 9.12986,2.83301 23.16862,10.10073 25.92375,13.42045 1.80372,2.17336 3.34585,1.99943 5.83532,-0.65812 z"
     id="path3023"
     style="fill:#ffffff" />
  <path
     d="m 169.86155,168.56972 c 16.21658,-8.16654 34.86525,-9.29218 52.01418,-3.13961 5.94406,2.13257 7.12427,1.99594 7.12427,-0.82477 0,-1.31707 0.93151,-5.41056 2.07003,-9.09664 1.13851,-3.68609 1.92601,-6.82282 1.75,-6.97052 -1.02583,-0.86079 -11.48277,-3.76135 -18.17944,-5.04263 -13.22811,-2.53096 -27.44537,-1.76896 -40.14059,2.15139 -6.81357,2.10407 -20.5,8.46856 -20.5,9.53295 0,1.22486 7.91452,16.82011 8.53612,16.82011 0.2826,0 3.57904,-1.54362 7.32543,-3.43028 z"
     id="path3021"
     style="fill:#ffffff" />
  <path
     d="m 380.5,147.47465 c 7.15,-1.89126 18.50916,-4.55847 25.24257,-5.92713 13.69202,-2.7831 16.86024,-4.09835 20.61167,-8.55667 5.64622,-6.71014 5.72597,-17.13112 0.22415,-29.28818 -4.68308,-10.347934 -3.77173,-10.284156 -17.24106,-1.20656 -26.3732,17.7741 -50.87339,35.87331 -64.83733,47.89774 -3.85,3.31526 -7.16809,6.13848 -7.37354,6.27382 -0.20544,0.13534 -0.12705,0.88842 0.17422,1.6735 0.44589,1.16198 3.30482,0.60404 15.37354,-3.00022 8.15418,-2.4352 20.67578,-5.97504 27.82578,-7.8663 z"
     id="path3019"
     style="fill:#ffffff" />
  <path
     d="M 331.74654,137.75 C 347.64326,124.17772 363.36361,112.45022 393,92.054439 414.17927,77.478855 417.62025,74.664701 420.02377,69.953413 424.29251,61.585992 421.04439,52.974573 409.58187,42.269845 397.27754,30.778957 380.49194,23.778441 365,23.676754 355.63633,23.615293 349.33738,25.679903 345.35998,30.114165 341.47711,34.443045 318.0052,75.201247 310.009,91.5 c -7.05484,14.37995 -16.90964,39.07337 -15.90309,39.84873 0.21675,0.16696 3.8663,1.54688 8.11011,3.06648 4.24381,1.5196 10.54381,4.50167 14,6.62681 3.45619,2.12515 6.45383,3.88507 6.66142,3.91094 0.20759,0.0259 4.19868,-3.21546 8.8691,-7.20296 z"
     id="path3017"
     style="fill:#ffffff" />
  <path
     d="m 241.63998,138.97774 c 2.4,-2.21225 5.48783,-4.53448 6.86183,-5.16052 1.374,-0.62604 2.49819,-1.93654 2.49819,-2.91222 0,-2.62319 -10.69051,-15.60552 -18.91707,-22.9725 -3.95067,-3.53787 -13.31166,-10.809453 -20.80219,-16.159062 l -13.61914,-9.726563 -5.28959,7.226563 C 189.46274,93.248047 187.06888,96.95 187.05233,97.5 c -0.0166,0.55 5.44541,4.825 12.13771,9.5 13.66496,9.54586 27.33081,21.98828 33.3137,30.33132 2.19794,3.06498 4.17094,5.5943 4.38443,5.62069 0.21349,0.0264 2.35181,-1.76203 4.75181,-3.97427 z"
     id="path3015"
     style="fill:#ffffff" />
  <path
     d="M 280.92862,114 C 287.72781,94.398374 300.27766,69.187266 316.12245,43.299942 318.2551,39.815599 320,36.631625 320,36.224443 320,34.841323 307.52265,27.151892 302.71505,25.572224 284.99696,19.750465 271.73489,32.506371 265.36162,61.5 c -3.38843,15.414841 -2.82723,41.21655 1.26151,58 2.17582,8.93126 1.97636,8.6546 5.99178,8.31084 L 276.2459,127.5 280.92862,114 z"
     id="path2989"
     style="fill:#ffffff" />
</svg>
