<?xml version="1.0" encoding="UTF-8" standalone="no"?>
<!-- Created with Inkscape (http://www.inkscape.org/) -->

<svg
   xmlns:dc="http://purl.org/dc/elements/1.1/"
   xmlns:cc="http://creativecommons.org/ns#"
   xmlns:rdf="http://www.w3.org/1999/02/22-rdf-syntax-ns#"
   xmlns:svg="http://www.w3.org/2000/svg"
   xmlns="http://www.w3.org/2000/svg"
   version="1.1"
   width="512"
   height="512"
   id="svg2">
  <metadata
     id="metadata8">
    <rdf:RDF>
      <cc:Work
         rdf:about="">
        <dc:format>image/svg+xml</dc:format>
        <dc:type
           rdf:resource="http://purl.org/dc/dcmitype/StillImage" />
        <dc:title></dc:title>
      </cc:Work>
    </rdf:RDF>
  </metadata>
  <defs
     id="defs6" />
  <path
     d="m 374,145.95331 c -9.77284,-2.52344 -22.27974,-8.72625 -29.37839,-14.57024 -5.92774,-4.88005 -13.43524,-14.13727 -16.77624,-20.68617 l -1.96651,-3.85468 5.31057,-15.435045 c 3.11201,-9.044993 5.79079,-15.325781 6.47053,-15.171113 1.49384,0.339908 72.29894,50.085168 72.32237,50.811248 0.0419,1.2965 -25.04477,20.94747 -26.6781,20.89763 C 382.3119,147.91464 378.125,147.01842 374,145.95331 z M 62.573643,275.1695 c 2.236653,-5.35306 6.8524,-12.22898 10.620437,-15.8209 7.334887,-6.99206 12.895128,-9.28883 60.30592,-24.91061 25.85,-8.51753 53.3,-17.97652 61,-21.01998 28.94615,-11.44109 54.63566,-25.26033 74.89315,-40.28752 11.70455,-8.68254 31.15905,-27.35742 39.21951,-37.64783 C 311.83629,131.3672 314.7805,128 315.15534,128 c 0.37485,0 1.59254,1.47403 2.70598,3.27562 2.98785,4.83443 15.78361,16.89002 22.44676,21.14831 6.91972,4.42226 16.84376,8.98292 24.20094,11.12172 l 5.33316,1.55039 -4.8272,7.78305 c -17.38203,28.02561 -27.65418,58.31066 -33.01452,97.33569 l -1.19704,8.71478 -5.65171,-2.83987 C 285.66333,256.24761 195.4614,249.0746 124,260.09378 c -23.37043,3.60366 -42.913775,8.96996 -56.179576,15.42604 l -6.769736,3.29463 1.522955,-3.64495 z M 415.5,289.90828 c -3.99597,-1.24103 -5.82857,-2.75752 -8.36968,-6.92596 -2.69253,-4.41683 -2.70487,-9.18773 -0.0361,-13.93624 3.90496,-6.94795 12.47471,-9.40971 19.69996,-5.65904 9.32739,4.84191 9.63673,20.27424 0.5,24.94397 -4.04326,2.06649 -8.36015,2.6438 -11.79422,1.57727 z M 172,346.42011 c -26.40771,-1.41496 -56.96243,-5.43743 -76.5,-10.07109 -11.471956,-2.72076 -32.12835,-9.62556 -34.934656,-11.67758 -1.193283,-0.87255 -1.852071,-3.83965 -2.48222,-11.17962 -0.471798,-5.4955 -0.737401,-10.12543 -0.590229,-10.28873 0.147172,-0.1633 3.133978,1.26156 6.637345,3.16634 17.208213,9.35613 49.77428,17.1049 87.36976,20.78876 17.43258,1.70816 70.17557,1.7083 88,2.2e-4 32.39941,-3.10476 59.62861,-8.84221 78.75,-16.59336 l 10.75,-4.35768 0,9.82363 0,9.82363 -7.7905,3.00433 c -17.44829,6.72877 -47.31253,12.84678 -76.66598,15.70584 -14.57169,1.4193 -59.3212,2.56377 -72.54352,1.85531 z m 98.4646,146.05482 c 16.53465,-2.67081 31.62943,-7.54207 42.72957,-13.78934 22.28275,-12.54095 34.96236,-31.47887 37.28348,-55.68559 0.3428,-3.575 -0.0563,-27.2 -0.88684,-52.5 -1.10914,-33.78605 -1.25827,-51.4904 -0.56167,-66.67788 2.47408,-53.94027 13.23784,-91.78459 35.78659,-125.82212 6.46872,-9.76459 11.36323,-14.74903 22.39522,-22.8067 1.71171,-1.25022 1.78737,0.63036 1.7502,43.5 l -0.0388,44.8067 -5.06375,2.46719 c -6.52592,3.17959 -13.16885,10.61163 -15.93791,17.83118 -4.32061,11.26477 -3.63657,17.4665 9.32238,84.52014 6.35836,32.90018 11.73302,59.99086 11.94367,60.20151 0.21065,0.21065 15.55482,-4.56472 34.09815,-10.61194 C 467.5056,390.00939 477,386.49484 477,385.42772 c 0,-4.86905 -23.27225,-122.25588 -25.02371,-126.22131 -1.14331,-2.58853 -3.51819,-6.22402 -5.27751,-8.07887 -3.70017,-3.90107 -11.95675,-8.10359 -15.94878,-8.11777 L 428,243 l 0,-52.4569 0,-52.4569 7,-5.65574 c 3.85,-3.11065 7,-6.00718 7,-6.43672 0,-0.42954 -3.15,-2.93329 -7,-5.56388 -3.85,-2.63058 -7,-5.03446 -7,-5.34193 0,-0.30748 5.43577,-6.0079 12.0795,-12.66762 l 12.07949,-12.108566 -1.06281,-5.74926 C 445.99345,56.959283 406.52159,26.458811 373.09971,24.293502 359.25696,23.39667 360.14651,22.735077 351.21504,40.570072 l -7.77717,15.530012 -7.84215,-5.626824 c -4.31319,-3.094753 -8.16808,-5.254772 -8.56643,-4.800042 C 326.63094,46.127948 321.67435,59.775 316.01466,76 c -5.6597,16.225 -11.32637,31.33413 -12.5926,33.57584 -2.6101,4.62087 -13.67068,18.73949 -19.82026,25.30017 -7.10227,7.57707 -25.35074,22.75069 -35.41812,29.4502 -29.99444,19.96031 -53.98792,30.01681 -131.68368,55.19323 -35.794439,11.59878 -44.277289,15.20567 -52.734677,22.42264 -7.870045,6.71577 -11.103174,10.67046 -15.634926,19.12431 -7.877014,14.69432 -10.839537,29.69549 -9.732591,49.2824 3.262241,57.72383 42.643961,124.96658 90.612774,154.71778 24.21732,15.02006 59.22952,26.01158 91.98942,28.8786 13.25152,1.15972 37.67748,0.43371 49.4646,-1.47024 z"
     id="path3101"
     style="fill:#ffffff" />
</svg>
