<?xml version="1.0" encoding="UTF-8" standalone="no"?>
<!-- Created with Inkscape (http://www.inkscape.org/) -->

<svg
   xmlns:dc="http://purl.org/dc/elements/1.1/"
   xmlns:cc="http://creativecommons.org/ns#"
   xmlns:rdf="http://www.w3.org/1999/02/22-rdf-syntax-ns#"
   xmlns:svg="http://www.w3.org/2000/svg"
   xmlns="http://www.w3.org/2000/svg"
   version="1.1"
   width="512"
   height="512"
   id="svg2">
  <metadata
     id="metadata8">
    <rdf:RDF>
      <cc:Work
         rdf:about="">
        <dc:format>image/svg+xml</dc:format>
        <dc:type
           rdf:resource="http://purl.org/dc/dcmitype/StillImage" />
        <dc:title></dc:title>
      </cc:Work>
    </rdf:RDF>
  </metadata>
  <defs
     id="defs6" />
  <path
     d="m 250.26588,162.23714 4.62027,-8.76285 -21.03506,-9.48715 c -11.56928,-5.21793 -21.20349,-9.75711 -21.40934,-10.08707 -0.20586,-0.32996 2.76054,-2.31831 6.59198,-4.41856 3.83145,-2.10025 6.96627,-4.13066 6.96627,-4.51202 0,-0.38136 -2.51993,-1.19946 -5.59984,-1.81799 -11.62425,-2.33449 -21.88454,-9.04439 -42.95491,-28.091147 C 170.10732,88.427159 163.94645,83 163.75444,83 c -0.7062,0 1.1071,14.699788 2.60169,21.09092 3.99336,17.07637 11.2791,30.57472 22.62867,41.92428 8.69449,8.6945 18.19623,14.73075 29.9268,19.01189 7.10005,2.59119 19.89391,5.58265 25.1612,5.88317 0.9991,0.057 3.25812,-3.10665 6.19308,-8.67312 z m 62.16319,11.78726 c 18.86924,-6.49197 32.82385,-21.27439 37.06536,-39.26413 1.69991,-7.20991 1.93832,-19.07299 0.54008,-26.87378 -1.27124,-7.09224 -5.33323,-21.889019 -6.00569,-21.877178 -0.29085,0.0051 -2.77882,4.159006 -5.52882,9.230853 -11.15693,20.576805 -18.92854,29.777595 -29.07636,34.423425 l -5.42666,2.4844 4.32498,5.67601 c 2.37873,3.1218 4.65481,6.23663 5.05795,6.92184 0.49699,0.84473 -3.06827,3.70954 -11.07346,8.8979 -6.49355,4.20862 -12.03145,7.85119 -12.30645,8.09458 -0.67651,0.59876 14.21321,14.18404 15.59345,14.22736 0.6014,0.0189 3.67743,-0.8547 6.83562,-1.94128 z m -20.9067,121.65421 c 7.91035,-18.48997 10.00071,-22.5706 11.01371,-21.5 0.68766,0.72676 9.68824,10.99639 20.00128,22.82139 10.31304,11.825 19.07914,21.63101 19.48023,21.79114 0.65098,0.25989 7.88079,-19.68263 15.44318,-42.59807 l 2.74139,-8.30693 7.88975,11.30693 c 4.33936,6.21881 8.99477,12.65693 10.34535,14.30693 l 2.4556,3 0.0851,-3.5 c 0.0468,-1.925 1.82645,-29.375 3.95483,-61 2.12838,-31.625 3.73246,-57.64425 3.56463,-57.82055 -0.2506,-0.26325 -10.31613,17.25519 -30.56597,53.19821 l -2.74801,4.87767 -1.47993,-2.87767 C 352.88952,227.79495 348.98122,219.3 345.01837,210.5 c -3.96285,-8.8 -7.51294,-16.32729 -7.88908,-16.72731 -0.37615,-0.40002 -6.28942,10.51248 -13.14061,24.25 C 317.1375,231.76021 311.3657,243 311.16246,243 c -0.20325,0 -11.37454,-8.1634 -24.8251,-18.1409 -13.68541,-10.1517 -24.81613,-17.74855 -25.2743,-17.25 -0.45031,0.49 -2.48491,8.0896 -4.52134,16.88801 -2.03643,8.79841 -3.79901,16.09352 -3.91684,16.21135 -0.11784,0.11783 -17.25903,-13.04098 -38.09155,-29.24179 -20.83251,-16.20082 -38.03992,-29.29342 -38.23867,-29.09466 -0.5054,0.5054 45.06789,98.62354 45.80917,98.62599 0.3321,0.001 3.4821,-4.73063 7,-10.51496 4.79714,-7.88773 6.64617,-10.18683 7.39617,-9.19645 9.84298,12.99762 44.84294,57.69386 45.01883,57.49072 0.13207,-0.15252 4.63366,-10.54694 10.00354,-23.0987 z M 177,321.62162 c 5.68269,-1.68994 7.43255,-2.62491 7.22165,-3.85858 C 183.74747,314.98941 111.91439,64.581061 111.4636,64.130267 110.91672,63.583383 94.056703,68.099235 93.543173,68.930145 93.235401,69.42813 155.28439,287.9448 163.91296,316.75 c 2.48838,8.30708 2.06489,8.14944 13.08704,4.87162 z M 76.506877,240.61299 C 38.350969,91.521306 40.666607,103.57926 47.024474,87.092758 55.211856,65.862168 72.205911,49.629397 88.501815,47.473481 93.996346,46.746566 357.11456,58.837395 358.1299,59.863453 c 1.09882,1.110426 111.84311,288.496867 111.35881,288.981167 -0.25471,0.25471 -67.16992,-1.70803 -148.70049,-4.36164 -163.36561,-5.31712 -156.25962,-5.3501 -172.63614,0.80117 -12.87421,4.83575 -19.44683,9.048 -29.25195,18.74695 l -8.62449,8.5311 L 76.506877,240.61299 z M 110.7826,410.64308 c 7.99714,-23.20128 25.20879,-40.71007 47.96373,-48.79176 4.00375,-1.42198 9.25128,-2.19196 17.25367,-2.53164 6.325,-0.26849 71.125,1.57945 144,4.10652 173.11715,6.00317 178.14908,6.16034 178.44632,5.5738 C 498.64436,368.60922 373.04221,43.224945 371.80712,40.929128 371.42286,40.214861 105.79793,27.715016 93.488788,27.831954 68.109334,28.073061 46.450246,43.930856 32.479729,72.5 26.009479,85.731402 23.762187,93.841334 23.612414,104.5 23.507741,111.94913 26.357621,123.64696 65,274.38243 l 41.5,161.88242 0.65757,-8.50629 c 0.41242,-5.33504 1.76387,-11.7159 3.62503,-17.11548 z M 446.37258,463.75 c -1.27831,-3.7736 -0.62073,-27.79329 0.93105,-34.00849 l 1.43775,-5.7585 -10.31973,-3.2415 -10.31974,-3.24151 16.69905,-9.82896 c 14.14794,-8.3274 17.26961,-10.60852 20.43392,-14.93179 2.05418,-2.80656 3.50205,-5.33566 3.21748,-5.62022 -0.28456,-0.28456 -66.09026,-2.8063 -146.23487,-5.60386 C 165.46167,376.0434 170.43275,376.0609 159.39834,380.94194 139.16676,389.89133 125,411.54288 125,433.51411 c 0,8.70917 2.49377,17.99094 5.50519,20.49019 1.02309,0.84909 44.02496,2.68759 151.21223,6.4649 183.32127,6.46029 165.6127,6.10745 164.65516,3.2808 z"
     id="path2989"
     style="fill:#ffffff" />
</svg>
