<?xml version="1.0" encoding="UTF-8" standalone="no"?>
<!-- Created with Inkscape (http://www.inkscape.org/) -->

<svg
   xmlns:dc="http://purl.org/dc/elements/1.1/"
   xmlns:cc="http://creativecommons.org/ns#"
   xmlns:rdf="http://www.w3.org/1999/02/22-rdf-syntax-ns#"
   xmlns:svg="http://www.w3.org/2000/svg"
   xmlns="http://www.w3.org/2000/svg"
   version="1.1"
   width="512"
   height="512"
   id="svg2">
  <metadata
     id="metadata8">
    <rdf:RDF>
      <cc:Work
         rdf:about="">
        <dc:format>image/svg+xml</dc:format>
        <dc:type
           rdf:resource="http://purl.org/dc/dcmitype/StillImage" />
        <dc:title></dc:title>
      </cc:Work>
    </rdf:RDF>
  </metadata>
  <defs
     id="defs6" />
  <path
     d="m 336.27195,236.11627 c 30.12708,-18.33611 72.63697,-33.99611 118.53017,-43.66473 11.50269,-2.42334 17.81762,-4.25867 20.29683,-5.89892 9.82482,-6.50013 15.83218,-24.39319 15.88124,-47.30262 L 491,130 l -8.25,-0.10589 c -4.5375,-0.0582 -12.20857,-0.39574 -17.04683,-0.75 L 456.90634,128.5 471.45317,116.71754 C 479.45393,110.23718 486,104.55326 486,104.0866 486,102.48039 480.97773,89.898813 477.86407,83.70481 472.97744,73.983824 468.10791,67.134282 460.13437,58.765993 447.88195,45.906982 431.39548,34.563883 414.77086,27.55477 l -6.72914,-2.837074 -12.09591,7.232763 c -6.65276,3.978019 -12.34785,6.980832 -12.65577,6.672917 -0.30791,-0.307915 -0.0313,-4.681291 0.61472,-9.718614 0.64601,-5.037323 0.94778,-9.385552 0.6706,-9.662731 -1.19921,-1.199213 -14.8946,-1.392099 -21.19629,-0.298529 -14.88724,2.583472 -19.09411,6.32383 -28.16256,25.039568 -18.05504,37.262488 -40.04659,70.10124 -64.7222,96.64605 l -9.41587,10.12912 4.71078,1.77006 c 12.05414,4.5293 30.04239,19.72147 41.40816,34.9717 10.22865,13.72448 19.77451,35.75697 19.81627,45.73734 0.0167,3.99598 0.9893,7.8706 1.85004,7.37034 0.34997,-0.20341 3.68369,-2.22454 7.40826,-4.49141 z M 279.5,278.97071 c 2.2,-2.3032 9.24982,-8.63038 15.66626,-14.06042 13.37082,-11.31531 14.37236,-13.08716 14.17933,-25.08495 C 308.87685,210.69031 276.14655,170.24951 250,166.4993 c -5.0705,-0.72726 -3.54015,-1.59488 -22.20159,12.587 -6.21413,4.72246 -13.84259,10.26991 -16.95214,12.32766 l -5.65374,3.74136 7.15374,3.7038 c 29.57132,15.31033 54.06726,49.21123 59.16444,81.88001 0.78148,5.00865 1.71275,4.80252 7.98929,-1.76842 z m 176.64466,108.06516 c 3.49544,-1.08027 8.60534,-3.38275 11.35534,-5.11663 5.67841,-3.58025 15.5,-11.69982 15.5,-12.81394 0,-0.40703 -2.5875,-1.54086 -5.75,-2.51962 -7.75927,-2.40141 -24.17803,-9.57143 -32.75,-14.30182 -18.05372,-9.96284 -26.96476,-17.38108 -55.5,-46.20252 -24.56461,-24.811 -34.16445,-32.31592 -47.80303,-37.37126 -11.6866,-4.33182 -14.25575,-4.45587 -19.3529,-0.9345 -9.04232,6.24691 -17.05747,13.20452 -15.70672,13.63432 0.74946,0.23847 4.51265,1.43206 8.36265,2.65242 13.46955,4.26953 27.28774,12.30079 39.35212,22.87183 8.60185,7.53711 17.6519,18.07726 34.40158,40.06585 7.75075,10.175 17.66085,22.64126 22.02245,27.7028 7.30304,8.47501 8.4163,9.35967 14.07702,11.18638 8.54012,2.75589 9.18357,2.8642 17.79149,2.99482 5.06545,0.0769 9.78888,-0.54667 14,-1.84813 z M 142.76177,371.9117 c -5.21575,-11.1449 -15.10167,-27.73158 -22.11106,-37.0981 l -5.01928,-6.70717 -3.61204,2.19678 C 110.03277,331.51145 104.05093,335.2 98.726411,338.5 l -9.680943,6 4.717724,4 c 7.547768,6.3995 11.825298,11.44086 16.528858,19.4804 C 116.5739,378.7176 122,393.89891 122,400.73724 c 0,1.61118 0.3176,3.24703 0.70578,3.63521 0.38818,0.38818 6.05062,-4.63906 12.5832,-11.17163 l 11.87742,-11.87742 -4.40463,-9.4117 z M 194.0936,400.5 c 16.33644,-33.33611 32.01008,-59.16229 50.28466,-82.85636 8.61078,-11.16439 9.89843,-14.59491 9.81305,-26.14364 -0.22496,-30.42659 -27.31895,-68.80899 -55.89358,-79.18102 -11.76258,-4.26959 -13.2076,-3.91817 -41.62084,10.12182 -30.03153,14.83966 -54.5373,25.26432 -96.109447,40.88461 l -8.932557,3.35632 5.454168,0.64103 c 6.341215,0.74528 17.234421,4.28587 24.471009,7.95374 l 5.060062,2.56469 17.939935,-7.80418 c 9.86697,-4.2923 18.05444,-7.70457 18.19439,-7.58281 0.13995,0.12176 -3.07325,7.15687 -7.14044,15.63359 l -7.3949,15.41221 7.71236,8.04104 c 30.94631,32.26518 53.85945,76.70258 61.08067,118.45896 2.13437,12.34194 1.97958,12.01292 3.76392,8 0.85595,-1.925 6.84885,-14.3 13.31754,-27.5 z m -97.07847,30.25 c 5.8111,-3.94907 7.50081,-8.70206 7.37674,-20.75 -0.0884,-8.58198 -0.60223,-11.96135 -2.813,-18.5 -4.922106,-14.55774 -15.422838,-28.35089 -25.067947,-32.92779 -1.962266,-0.93116 -9.06747,-3.29557 -15.78934,-5.25424 -6.721871,-1.95868 -12.345093,-3.66751 -12.496049,-3.7974 -0.150956,-0.12989 12.111544,-8.00724 27.25,-17.50522 C 90.61399,322.51737 103,314.42087 103,314.02312 c 0,-0.39775 -2.5875,-2.95653 -5.75,-5.68617 C 78.182605,291.87937 64.084388,284.98624 49.539901,285.00977 21.799443,285.05464 11.820965,322.18959 27.86938,365.65672 43.192475,407.15932 80.310557,442.102 97.01513,430.75 z m 51.69336,32.37913 c 7.6895,-3.96262 13.29796,-12.40604 13.28561,-20.00125 -0.0124,-7.6144 -4.65271,-32.81978 -7.5544,-41.03393 -0.32213,-0.91188 -8.48237,6.4899 -23.2182,21.06014 C 109.26065,444.86818 102.8053,450 97.451881,450 c -6.484546,0 16.981589,11.77114 29.048119,14.57119 7.52506,1.7462 17.24658,1.11495 22.20849,-1.44206 z M 419.27271,490.25 c -0.36548,-0.9625 -5.72512,-13.43874 -11.91031,-27.72497 -6.18519,-14.28623 -11.11151,-26.10926 -10.94737,-26.27339 0.16413,-0.16414 3.97334,1.2745 8.4649,3.19697 21.23183,9.0876 41.75544,13.19423 61.12007,12.22969 10.51225,-0.5236 23.36209,-2.87361 25.2771,-4.62272 0.42741,-0.39038 -4.52259,-2.61453 -11,-4.94254 -16.2302,-5.83323 -39.90316,-17.79121 -51.21684,-25.8713 -18.18158,-12.98504 -30.80606,-26.40048 -55.43573,-58.9089 -19.73376,-26.04635 -29.76687,-36.73886 -42.50264,-45.29594 -8.84896,-5.94557 -19.48706,-10.67536 -29.304,-13.02881 -13.73412,-3.29253 -13.23232,-3.4617 -24.31947,8.19874 l -9.705,10.20683 6.35329,2.14757 c 22.86246,7.72809 38.70708,22.28235 51.10031,46.93877 1.93516,3.85 7.90428,18.025 13.26471,31.5 10.87918,27.34794 16.26014,38.70314 23.95455,50.55024 12.14308,18.69673 30.08093,33.21232 51.28379,41.49966 5.96349,2.33088 6.33689,2.34441 5.52264,0.2001 z"
     id="path2989"
     style="fill:#ffffff" />
</svg>
