<?xml version="1.0" encoding="UTF-8" standalone="no"?>
<!-- Created with Inkscape (http://www.inkscape.org/) -->

<svg
   xmlns:dc="http://purl.org/dc/elements/1.1/"
   xmlns:cc="http://creativecommons.org/ns#"
   xmlns:rdf="http://www.w3.org/1999/02/22-rdf-syntax-ns#"
   xmlns:svg="http://www.w3.org/2000/svg"
   xmlns="http://www.w3.org/2000/svg"
   version="1.1"
   width="512"
   height="512"
   id="svg2">
  <metadata
     id="metadata8">
    <rdf:RDF>
      <cc:Work
         rdf:about="">
        <dc:format>image/svg+xml</dc:format>
        <dc:type
           rdf:resource="http://purl.org/dc/dcmitype/StillImage" />
        <dc:title></dc:title>
      </cc:Work>
    </rdf:RDF>
  </metadata>
  <defs
     id="defs6" />
  <path
     d="m 316,415.88033 c 0,-2.72279 -5.23487,-33.73649 -7.99743,-47.38033 -6.56737,-32.43522 -16.59812,-65.95745 -27.21886,-90.96399 -3.27875,-7.71981 -6.66464,-15.72351 -7.52422,-17.78601 -1.81624,-4.35795 -1.52114,-4.31696 -20.0874,-2.79011 -6.41965,0.52794 -17.43919,1.13502 -24.48786,1.34906 l -12.81577,0.38918 -4.45995,-8.88029 c -2.45297,-4.88416 -5.40395,-11.45374 -6.55772,-14.59907 -1.15378,-3.14532 -2.44206,-6.09613 -2.86286,-6.55734 -1.3629,-1.49383 -31.39252,5.32953 -52.98793,12.03995 -24.74096,7.68786 -56.036839,21.3343 -78.5,34.22962 -12.839211,7.37055 -31.876251,19.6125 -33.452846,21.51218 -0.859326,1.03543 1.857476,3.23794 12.679593,10.27933 C 119.15995,351.89915 203.07985,387.57124 301,413.53203 c 14.20034,3.76483 15,3.89002 15,2.3483 z"
     id="path3019"
     style="fill:#ffffff" />
  <path
     d="m 344,406.96914 c 12.71315,-10.60537 37.70869,-33.94964 51.50489,-48.10235 41.92277,-43.00609 70.26062,-87.09021 88.18321,-137.1833 1.93172,-5.39908 3.25888,-10.06984 2.94925,-10.37947 -0.30962,-0.30963 -10.59219,2.17959 -22.85015,5.5316 -58.73129,16.0604 -128.42168,30.86152 -168.0971,35.70111 -3.73525,0.45562 -5.63217,1.11123 -5.31217,1.83598 20.32642,46.03669 31.88518,85.74153 40.06677,137.63106 1.43056,9.07293 2.84434,18.00258 3.14175,19.84367 0.48605,3.0089 0.71128,3.20568 2.22714,1.94573 0.92753,-0.77093 4.61141,-3.84175 8.18641,-6.82403 z"
     id="path3017"
     style="fill:#ffffff" />
  <path
     d="M 55.144832,263.23194 C 95.86484,239.03493 141.25189,221.56432 187,212.47759 c 4.675,-0.92857 8.62493,-1.80333 8.77762,-1.9439 0.15269,-0.14058 -0.83282,-3.80566 -2.19001,-8.14464 -7.46035,-23.85084 -18.16255,-66.32259 -24.63768,-97.77477 C 166.81151,94.227127 164.83737,85.504038 164.56297,85.229632 162.79654,83.463211 123.46137,121.08814 108.87119,138.5 86.257621,165.48694 65.730875,197.56889 47.12834,235 37.617895,254.13645 26,279.70735 26,281.50331 c 0,0.36475 3.4875,-1.77276 7.75,-4.75002 4.2625,-2.97726 13.890175,-9.06187 21.394832,-13.52135 z"
     id="path3015"
     style="fill:#ffffff" />
  <path
     d="m 260.36959,238.4972 c 55.85195,-5.1172 128.8355,-19.49313 201.32631,-39.65622 l 18.19591,-5.06114 -2.69591,-2.20121 C 475.71316,190.36797 470.675,186.66303 466,183.34544 407.49718,141.82918 344.01852,113.30604 271.5,95.949926 243.84469,89.331082 188.585,79.383149 184.01627,80.200972 182.51452,80.469791 182.72302,82.368941 186.08006,99 c 9.73387,48.22232 26.13305,107.34983 37.09595,133.75 l 3.01063,7.25 8.89025,0 c 4.88965,0 16.27136,-0.67626 25.2927,-1.5028 z"
     id="path2989"
     style="fill:#ffffff" />
</svg>
