<?xml version="1.0" encoding="UTF-8" standalone="no"?>
<!-- Created with Inkscape (http://www.inkscape.org/) -->

<svg
   xmlns:dc="http://purl.org/dc/elements/1.1/"
   xmlns:cc="http://creativecommons.org/ns#"
   xmlns:rdf="http://www.w3.org/1999/02/22-rdf-syntax-ns#"
   xmlns:svg="http://www.w3.org/2000/svg"
   xmlns="http://www.w3.org/2000/svg"
   version="1.1"
   width="512"
   height="512"
   id="svg2">
  <metadata
     id="metadata8">
    <rdf:RDF>
      <cc:Work
         rdf:about="">
        <dc:format>image/svg+xml</dc:format>
        <dc:type
           rdf:resource="http://purl.org/dc/dcmitype/StillImage" />
        <dc:title></dc:title>
      </cc:Work>
    </rdf:RDF>
  </metadata>
  <defs
     id="defs6" />
  <path
     d="m 24.986043,308.31703 -6.082908,-8.77498 0.685629,4.47897 c 1.044311,6.82214 5.21855,20.7702 8.223636,27.47898 l 2.6876,6 0.284475,-10.204 0.284475,-10.20399 -6.082907,-8.77498 z m 458.506247,14.30066 c 2.7214,-8.1069 5.80965,-21.64909 5.09905,-22.35968 -0.24413,-0.24413 -1.12364,0.87067 -1.95448,2.47733 -0.83083,1.60665 -4.23901,6.601 -7.57373,11.09853 L 473,322.01121 l 0.05,11.74439 0.05,11.7444 3.94698,-7.71993 c 2.17085,-4.24597 5.07124,-11.06904 6.44533,-15.16238 z M 67,367.63171 l 0,-15.36829 -9,-7.65457 -9,-7.65456 0,14.59428 0,14.59429 8.428571,8.42857 c 4.635715,4.63571 8.685715,8.42857 9,8.42857 C 66.742857,383 67,376.08427 67,367.63171 z m 387.07948,3.21978 c 0.50629,-0.946 0.92052,-8.10448 0.92052,-15.90772 0,-16.28262 1.32929,-15.5924 -10.88369,-5.65118 l -7.11631,5.7926 0,16.0385 0,16.03851 8.07948,-7.29535 c 4.44372,-4.01245 8.49372,-8.06936 9,-9.01536 z M 238.64185,108.25 c -0.34091,-2.0625 -0.62479,-6.1125 -0.63084,-9 L 238,94 l 9.25,-0.0023 9.25,-0.0023 -0.32069,8.40419 c -0.36874,9.66345 -0.25593,9.5633 -10.79847,9.58683 l -6.11916,0.0136 -0.61983,-3.75 z M 288.5,113.41872 c -1.1,-0.1699 -4.475,-0.57684 -7.5,-0.90432 l -5.5,-0.59541 0.35302,-8.70949 c 0.19416,-4.790227 0.44665,-8.81199 0.56109,-8.937255 0.35107,-0.384287 16.83293,1.641466 17.32027,2.128799 0.99974,0.999743 -0.99853,17.595636 -2.10266,17.462776 -0.62244,-0.0749 -2.03172,-0.2752 -3.13172,-0.4451 z m -85.91281,1.4532 C 201.35752,111.06902 199.9931,99.618478 200.69541,98.995656 201.40036,98.370486 214.20843,96 216.88136,96 c 0.54785,0 1.24867,2.025 1.55737,4.5 0.3087,2.475 0.80424,6.46093 1.10119,8.85763 l 0.53993,4.35762 -5.34271,0.62793 c -2.93849,0.34536 -6.77452,0.9143 -8.52452,1.2643 -2.25198,0.45039 -3.31146,0.23544 -3.62543,-0.73556 z m 115.33657,3.44591 -6.57623,-1.52228 1.44457,-8.64778 c 0.79451,-4.75627 1.55028,-8.769234 1.67949,-8.91769 0.3317,-0.381123 16.66406,3.57224 17.27283,4.18101 0.2757,0.27569 -0.36199,4.00848 -1.41708,8.29508 -2.20763,8.9691 -2.21121,8.97101 -12.40358,6.61166 z m -150.18873,6.00034 c -1.28103,-2.243 -4.85041,-14.47202 -4.51648,-15.47383 0.48162,-1.44485 15.93525,-6.11536 16.86055,-5.09572 0.78385,0.86377 4.26469,16.29072 3.75703,16.65102 -0.18487,0.1312 -3.03613,0.96574 -6.33613,1.85452 -3.3,0.88878 -6.74198,1.90086 -7.64885,2.24907 -0.90687,0.34822 -1.85912,0.26494 -2.11612,-0.18506 z m 186.13765,4.61735 -7.62732,-2.9885 2.49733,-8.22351 c 1.37353,-4.52293 2.6179,-8.36058 2.76525,-8.52811 0.14736,-0.16753 4.10087,1.18247 8.78557,3 l 8.51764,3.3046 -3.12674,8.25 c -1.71971,4.5375 -3.36472,8.23291 -3.65558,8.21201 -0.29086,-0.0209 -3.96112,-1.38281 -8.15615,-3.02649 z m -223.15339,2.54794 C 128.67368,127.34936 127,123.73317 127,123.44748 c 0,-0.56719 16.2155,-8.57847 16.57232,-8.18756 0.46584,0.51033 6.35475,16.14448 6.14724,16.31996 C 149.29312,131.94049 135.0456,139 134.74425,139 c -0.16812,0 -1.97936,-3.38244 -4.02496,-7.51654 z M 389.5,146.55568 c -1.1,-0.73667 -3.89053,-2.50485 -6.20119,-3.92928 l -4.20118,-2.58986 3.97286,-7.93754 3.97287,-7.93754 7.97832,4.65572 c 4.38808,2.56064 7.97832,5.03118 7.97832,5.49008 0,1.58241 -9.17815,13.69262 -10.33778,13.64029 C 392.023,147.9187 390.6,147.29236 389.5,146.55568 z m -289.973981,5.01674 c -3.132906,-3.56843 -5.429066,-6.92028 -5.102577,-7.44855 C 95.072091,143.07434 107.55396,134 108.34896,134 c 0.26982,0 2.77323,3.13836 5.56313,6.97413 l 5.07255,6.97413 -5.74232,4.1794 c -3.15828,2.29868 -6.25482,4.57392 -6.88121,5.05611 -0.75538,0.58147 -3.05707,-1.30812 -6.835091,-5.61135 z M 414.25,165.58779 c -2.8875,-2.80028 -5.23246,-5.54061 -5.21102,-6.08961 0.0215,-0.549 2.43329,-3.6613 5.35965,-6.91622 l 5.32066,-5.91803 2.89035,2.08428 c 1.5897,1.14635 4.67271,3.92557 6.85113,6.17604 l 3.96077,4.09177 -5.92947,5.99199 c -3.2612,3.29559 -6.39355,5.91982 -6.96077,5.8316 -0.56721,-0.0882 -3.3938,-2.45153 -6.2813,-5.25182 z M 73.668548,178.53227 c -3.207299,-2.39901 -6.07365,-4.60404 -6.369669,-4.90006 -0.663442,-0.66344 5.567903,-9.24191 9.144094,-12.58834 l 2.624764,-2.45613 6.080206,6.0802 6.080206,6.08021 -4.766309,5.87592 c -2.62147,3.23176 -5.260304,5.96461 -5.864075,6.07299 -0.603771,0.10838 -3.721919,-1.76577 -6.929217,-4.16479 z m 362.146352,13.96698 -3.68509,-6.48224 6.18509,-4.67887 c 3.40181,-2.57339 6.66857,-5.04172 7.25947,-5.4852 1.32101,-0.99141 11.02996,15.98979 9.77572,17.09798 -0.9647,0.85236 -13.97831,6.054 -15.11061,6.03982 -0.40671,-0.005 -2.39777,-2.92626 -4.42458,-6.49149 z m -379.498132,19.28011 -7.183232,-2.04387 3.081531,-8.61774 c 1.694841,-4.73976 3.177799,-8.74325 3.29546,-8.89665 0.117662,-0.15339 3.906836,1.16662 8.420388,2.93335 6.207083,2.42963 8.08667,3.59393 7.714792,4.77889 -2.982313,9.50294 -5.112357,14.05669 -6.538419,13.97828 -0.884008,-0.0486 -4.839742,-1.00813 -8.79052,-2.13226 z M 281.80797,210.56701 C 272.83858,199.87886 265.05,191.12616 264.5,191.11656 c -0.55,-0.01 -6.81945,6.93524 -13.93211,15.43299 C 243.45523,215.0473 237.28176,222 236.84907,222 c -0.43269,0 -3.98679,-2.07012 -7.898,-4.60027 l -7.11129,-4.60028 1.91438,-2.14972 c 1.05292,-1.18235 10.59237,-12.42383 21.19879,-24.98106 10.60641,-12.55723 19.64116,-22.45723 20.0772,-22 1.25245,1.3133 34.19923,66.33133 33.61227,66.33133 -0.28957,0 -7.86507,-8.74485 -16.83445,-19.43299 z m 170.55334,21.69961 -5.13868,-0.36342 -0.70957,-6.62586 c -0.39027,-3.64423 -0.90349,-7.13122 -1.14051,-7.74886 -0.27154,-0.70764 2.79354,-1.74461 8.28702,-2.80365 4.79487,-0.92435 8.84777,-1.55082 9.00643,-1.39216 0.45659,0.45658 2.29228,13.87602 2.31419,16.91733 0.0217,3.01694 0.48308,2.94321 -12.61888,2.01662 z M 47.656431,245.82133 c -0.351476,-2.92673 -0.642958,-7.52522 -0.647739,-10.21886 L 47,230.70495 l 8.686865,0.66772 c 4.777775,0.36725 8.766347,0.77114 8.863493,0.89753 0.09714,0.12639 0.42303,3.64689 0.724187,7.82334 l 0.547559,7.59353 -6.661052,1.21394 c -3.663579,0.66767 -7.60707,1.44518 -8.763313,1.7278 -1.884257,0.46056 -2.168531,-0.038 -2.741308,-4.80748 z M 448,268.82473 c -4.125,-1.64843 -7.65295,-3.1488 -7.83988,-3.33415 -0.60709,-0.60196 4.71092,-14.9908 5.5378,-14.98353 0.44114,0.004 4.33166,0.63724 8.64559,1.40746 l 7.84351,1.4004 -0.5998,3.09254 c -0.6366,3.28235 -4.49359,13.64144 -5.49314,14.75349 -0.32675,0.36351 -3.96908,-0.68778 -8.09408,-2.33621 z M 355.54278,278 c 7.71244,-24.36846 22.14524,-71.57389 21.95183,-71.79796 -0.14146,-0.16387 -12.83484,4.89863 -28.20752,11.25 C 333.91441,223.80342 321.04101,229 320.67954,229 c -0.36147,0 -2.42484,-3.51562 -4.58526,-7.81249 l -3.92805,-7.8125 46.56726,-19.2038 c 25.61199,-10.56209 46.73319,-19.03786 46.93601,-18.83505 0.38444,0.38445 -49.29917,103.65764 -50.32999,104.61676 -0.32338,0.3009 -0.23191,-0.57792 0.20327,-1.95292 z M 60.323271,281.60653 C 54.26014,271.02933 54.173876,271.38442 63.75,267.50121 c 4.5375,-1.84 8.25,-2.89372 8.25,-2.3416 0,0.55212 1.554638,3.65645 3.454751,6.8985 l 3.454751,5.89463 -6.204751,4.694 c -3.412613,2.5817 -6.660253,5.03363 -7.216978,5.44874 -0.598265,0.44608 -2.710347,-2.20765 -5.164502,-6.48895 z m 366.290379,17.50832 -5.82375,-5.88516 4.75246,-5.86484 c 2.61386,-3.22567 5.10019,-6.00287 5.5252,-6.17157 0.59104,-0.23459 11.65467,7.26873 13.82189,9.37397 C 445.70446,291.35895 434.48849,305 433.02253,305 c -0.32183,0 -3.20582,-2.64832 -6.40888,-5.88515 z m -217.4395,13.34594 c -23.82922,-1.80354 -43.55117,-3.50447 -43.82655,-3.77986 -0.91037,-0.91036 -41.49517,-132.86669 -41.01307,-133.34879 0.25971,-0.25971 2.20318,0.37061 4.31883,1.4007 4.7745,2.32466 84.5115,53.43563 84.06314,53.88399 -0.179,0.17901 -13.76319,-5.2868 -30.18709,-12.14624 -16.42389,-6.85944 -29.98685,-12.34648 -30.13991,-12.19343 -0.25371,0.25372 25.63526,84.77886 26.20615,85.56068 0.13569,0.18581 19.29467,1.73154 42.57552,3.43494 l 42.32883,3.0971 40.5,-2.74463 c 22.275,-1.50955 41.76276,-2.98407 43.30613,-3.27673 l 2.80613,-0.53209 -4.6716,9.34179 c -2.56938,5.13798 -4.73214,9.41597 -4.80613,9.50664 -0.5016,0.61468 -71.92059,5.31528 -79.13453,5.20841 -4.95,-0.0733 -28.49663,-1.60895 -52.32585,-3.41248 z m -125.157663,-0.94416 -6.477514,-6.5356 6.181719,-6.18172 6.181719,-6.18172 5.798794,5.4412 c 3.189337,2.99267 5.898455,5.89121 6.020255,6.44121 0.12181,0.55 -2.354541,3.82425 -5.502996,7.27612 l -5.724463,6.27612 -6.477514,-6.53561 z m 314.351713,12.00473 -5.13179,-7.24591 6.84804,-5.05963 6.84805,-5.05963 5.99525,6.76231 5.99524,6.76232 -2.71149,1.99305 c -1.49133,1.09619 -4.9615,3.59064 -7.7115,5.54324 l -5,3.55017 -5.1318,-7.24592 z M 120.5,338.5657 c -1.1,-0.73117 -4.5937,-2.95594 -7.76377,-4.94393 l -5.76376,-3.61454 5.12712,-7.04916 c 2.81992,-3.87704 5.41362,-6.91617 5.76377,-6.75362 4.17703,1.9391 14.06029,8.12896 13.78582,8.63404 -1.37585,2.53186 -8.90379,15.15122 -9.01315,15.10906 -0.0748,-0.0288 -1.03603,-0.65068 -2.13603,-1.38185 z m 244.83209,2.39803 -3.1679,-8.02396 7.75273,-3.898 7.75273,-3.898 3.8544,7.90556 c 2.11992,4.34805 3.65675,8.08795 3.41517,8.31089 -0.86378,0.79713 -14.9047,7.63966 -15.66426,7.63362 -0.42623,-0.003 -2.20052,-3.61694 -3.94287,-8.03011 z m -215.50708,11.23788 c -3.67125,-1.49504 -6.94675,-2.99002 -7.2789,-3.32216 -0.33214,-0.33215 0.80502,-4.20333 2.52702,-8.60263 l 3.13093,-7.99871 7.94299,3.01774 c 7.86048,2.9864 7.93614,3.04889 7.28462,6.01525 -1.4268,6.49617 -4.19149,13.19948 -5.52616,13.39883 -0.77303,0.11546 -4.40926,-1.01328 -8.0805,-2.50832 z m 180.32614,0.98307 c -1.09606,-4.77198 -1.91596,-8.7367 -1.82199,-8.81049 0.094,-0.0738 3.8334,-1.24633 8.30986,-2.60564 l 8.13903,-2.47146 2.11639,7.28379 c 1.16402,4.00608 2.35014,7.89292 2.63583,8.6374 0.35201,0.91732 -0.85845,1.73705 -3.75542,2.54322 -2.35117,0.65428 -6.37995,1.84433 -8.95285,2.64455 l -4.67801,1.45495 -1.99284,-8.67632 z M 185.25,363.23518 c -4.87507,-1.23472 -6.25,-1.99446 -6.25,-3.45355 0,-1.5506 2.94745,-14.78104 3.45364,-15.50264 0.24789,-0.35336 15.5709,3.41222 16.12016,3.96148 0.27351,0.27351 -0.0919,4.04379 -0.81204,8.37841 -1.52106,9.1556 -1.83347,9.3208 -12.51176,6.6163 z m 108.21777,-2.77985 c -0.39147,-4.69957 -0.53815,-8.71828 -0.32596,-8.93048 0.2122,-0.21219 4.03106,-1.01532 8.48637,-1.78473 l 8.10055,-1.39893 1.24738,8.38432 c 0.68606,4.61138 0.98134,8.65037 0.65618,8.97553 -0.53589,0.53589 -13.50448,3.11994 -16.29252,3.24635 -0.7414,0.0336 -1.41717,-3.03193 -1.872,-8.49206 z m -73.27004,8.80991 -4.30227,-0.38534 0.55227,-4.43995 c 0.30375,-2.44197 0.80969,-6.4973 1.12432,-9.01183 l 0.57205,-4.57188 6.67795,0.62303 c 10.81274,1.00879 11.18468,1.15784 10.68756,4.2829 -0.23954,1.50581 -0.70957,5.32533 -1.04452,8.48783 l -0.609,5.75 -4.67805,-0.17471 c -2.57292,-0.0961 -6.61406,-0.34811 -8.98031,-0.56005 z M 254.15556,364.5 C 253.93985,352.72637 253.69094,353 264.61663,353 l 9.38337,0 0,9 0,9 -9,0 -9,0 -0.14191,-3.75 -0.1419,-3.75 -0.71619,4 c -0.62277,3.47824 -0.73292,3.08692 -0.84444,-3 z M 292.5,389.46747 c 53.69321,-6.0275 101.11812,-24.01107 138.63572,-52.57079 11.2497,-8.56366 27.39933,-25.02958 34.71678,-35.39668 22.24116,-31.51051 28.85792,-64.88629 19.67007,-99.2183 C 471.03174,148.13416 412.02054,100.66072 335.5,81.59128 290.82513,70.457994 238.76601,68.816969 193.5,77.115107 137.56378,87.369301 90.89812,110.14148 58.218451,143.13057 18.682973,183.04038 8.0013275,231.51403 28.47907,278.08883 39.563332,303.29899 62.568689,328.60607 91.491345,347.40558 130.97407,373.06905 179.13057,387.53309 238,391.41016 c 9.98246,0.65743 41.27412,-0.45798 54.5,-1.94269 z M 105,393.02305 c 0,-16.52959 -0.0593,-17.01336 -2.25,-18.3589 -2.52338,-1.54986 -15.824469,-8.97653 -17.024594,-9.50568 -0.426026,-0.18784 -0.651026,7.21237 -0.5,16.44491 L 85.5,398.38982 l 9,5.74695 c 4.95,3.16082 9.3375,5.77311 9.75,5.80509 0.4125,0.032 0.75,-7.58149 0.75,-16.91881 z m 304.72611,13.36604 9.27389,-5.61091 0,-16.84767 0,-16.84768 -7.75,4.09824 C 397.52411,378.43938 399,375.56689 399,395.02305 399,404.36037 399.32675,412 399.72611,412 c 0.39935,0 4.89935,-2.52491 10,-5.61091 z M 145,410 c 0,-13.71892 -0.2973,-18.00643 -1.25,-18.02702 -0.6875,-0.0149 -5.6375,-1.7668 -11,-3.89321 l -9.75,-3.86619 0,17.71593 0,17.71594 9.75,4.09728 c 5.3625,2.2535 10.3125,4.13327 11,4.17727 0.95667,0.0612 1.25,-4.144 1.25,-17.92 z m 226.5,15.20456 9,-3.72525 0.27355,-17.85568 c 0.25683,-16.7647 0.16518,-17.81053 -1.5,-17.1167 -0.97545,0.40644 -5.82355,2.21044 -10.77355,4.00888 l -9,3.2699 -0.27307,17.60715 c -0.31972,20.61447 -1.35292,19.45173 12.27307,13.8117 z m -187.5,-4.16602 0,-17.96145 -3.75,-0.978 C 170.73572,399.61777 164.15786,398 163.5831,398 c -0.34552,0 -0.50557,8.18913 -0.35566,18.19807 l 0.27256,18.19806 8.5,2.20625 c 13.30441,3.45328 12,5.14508 12,-15.56384 z m 147.5,16.62453 9,-2.2876 0.27256,-18.18774 c 0.14991,-10.00325 -0.0751,-18.16935 -0.5,-18.14688 -0.42491,0.0225 -5.04756,1.08602 -10.27256,2.36345 l -9.5,2.32259 -0.27256,18.13656 c -0.2129,14.16683 0.006,18.13115 1,18.11189 0.69991,-0.0136 5.32256,-1.05409 10.27256,-2.31227 z M 223,426.62921 l 0,-18.37079 -7.25,-0.67312 c -3.9875,-0.37021 -8.7125,-0.92844 -10.5,-1.2405 l -3.25,-0.56738 0,18.53933 0,18.53934 5.75,0.63349 c 3.1625,0.34842 6.425,0.7786 7.25,0.95596 0.825,0.17735 2.9625,0.37466 4.75,0.43846 L 223,445 l 0,-18.37079 z m 68.5,17.88758 c 12.69303,-1.01816 11.5,1.02842 11.5,-19.72766 l 0,-18.07609 -9.08779,0.68604 c -4.99828,0.37732 -10.39828,0.94813 -12,1.26848 L 279,409.25 l 0,17.70833 c 0,9.73959 0.30495,18.01329 0.67767,18.386 0.37271,0.37272 1.38521,0.48338 2.25,0.24592 0.86478,-0.23747 5.17233,-0.72052 9.57233,-1.07346 z M 261.77256,428.25 262.04512,410 l -6.77256,-0.011 c -3.72491,-0.006 -8.46006,-0.28993 -10.52256,-0.63084 l -3.75,-0.61983 0,18.56748 0,18.56748 3.25,0.42272 c 1.7875,0.2325 6.4,0.37351 10.25,0.31336 l 7,-0.10936 0.27256,-18.25 z"
     id="path3662"
     style="fill:#ffffff" />
</svg>
