<?xml version="1.0" encoding="UTF-8" standalone="no"?>
<!-- Created with Inkscape (http://www.inkscape.org/) -->

<svg
   xmlns:dc="http://purl.org/dc/elements/1.1/"
   xmlns:cc="http://creativecommons.org/ns#"
   xmlns:rdf="http://www.w3.org/1999/02/22-rdf-syntax-ns#"
   xmlns:svg="http://www.w3.org/2000/svg"
   xmlns="http://www.w3.org/2000/svg"
   version="1.1"
   width="512"
   height="512"
   id="svg2">
  <metadata
     id="metadata8">
    <rdf:RDF>
      <cc:Work
         rdf:about="">
        <dc:format>image/svg+xml</dc:format>
        <dc:type
           rdf:resource="http://purl.org/dc/dcmitype/StillImage" />
        <dc:title></dc:title>
      </cc:Work>
    </rdf:RDF>
  </metadata>
  <defs
     id="defs6" />
  <path
     d="m 162.24735,267.30663 c -9.35832,-9.79365 -21.16089,-22.67908 -26.22795,-28.6343 -8.8505,-10.40183 -9.18607,-10.97211 -8.53215,-14.5 1.77757,-9.58994 11.53292,-20.79802 25.27689,-29.04102 32.58564,-19.54336 86.15844,-29.12344 175.73586,-31.4257 l 8,-0.20561 -11,-2.73696 c -14.37575,-3.5769 -30.91803,-6.34282 -46.84603,-7.83281 -16.31113,-1.52584 -57.8365,-0.65335 -73.65397,1.54754 -36.22848,5.04093 -69.58957,14.77436 -94.49378,27.5695 -5.30195,2.724 -9.896,4.95273 -10.20899,4.95273 -1.187849,0 0.75628,-9.18684 2.80466,-13.2532 10.97445,-21.78607 44.62137,-37.21839 96.89811,-44.44279 9.3752,-1.2956 19.5468,-1.73142 40.68901,-1.74338 15.50395,-0.009 28.10395,-0.0835 28,-0.16612 -0.47963,-0.38109 -33.27308,-9.52446 -42.18901,-11.76301 -13.03902,-3.27376 -38.75301,-8.14692 -54.5,-10.32851 -8.64009,-1.197 -19.29345,-1.74276 -34.5,-1.76737 -22.43877,-0.0363 -28.7933,0.65529 -41.938956,4.56461 L 89.5,109.90269 95.300489,104.44775 C 123.39391,78.027917 181.38783,60.235355 245.75,58.289769 256.3375,57.969723 265,57.404456 265,57.033622 c 0,-1.772898 -45.08217,-11.079579 -70,-14.450671 -16.03732,-2.169663 -16.33175,-2.251574 -10.5,-2.921095 38.47549,-4.41722 101.17292,-4.694352 136.5,-0.603351 43.28337,5.012368 71,18.104771 71,33.538006 0,4.605619 -5.04389,19.397231 -6.61564,19.400891 -0.61361,0.0014 -6.23861,-1.347372 -12.5,-2.997335 C 317.056,74.288534 255.32297,72.376028 200,83.644063 c -6.875,1.400281 -13.12875,2.895671 -13.89721,3.323089 -0.76847,0.427417 6.20653,1.090173 15.5,1.47279 89.06179,3.666723 154.4339,22.583698 170.03409,49.203418 l 2.58551,4.41183 -1.25996,11.72241 c -0.69297,6.44732 -1.24624,21.5099 -1.22949,33.4724 0.0168,11.9625 -0.18435,21.75 -0.44687,21.75 -0.26253,0 -1.6718,-0.843 -3.1317,-1.87334 -4.34363,-3.06555 -14.20715,-7.70255 -21.15437,-9.94501 -18.46415,-5.95996 -32.98827,-7.57038 -62.26673,-6.90407 -24.17274,0.55011 -37.01893,2.03499 -61.32338,7.08831 C 207.75774,200.62025 173,210.39385 173,211.54076 c 0,0.21199 10.95216,0.40144 24.33813,0.42099 25.02067,0.0365 41.21635,0.96971 62.16187,3.58166 12.98871,1.61972 43.15596,7.21604 45.35207,8.41326 0.77086,0.42023 -1.3203,1.0164 -4.86467,1.38686 -8.7898,0.91871 -27.48852,5.17228 -40.9874,9.32378 -23.76346,7.3083 -38.51972,13.70424 -26.75,11.59451 2.3375,-0.419 18.425,-0.73415 35.75,-0.70033 33.17035,0.0648 46.62585,1.1833 66.7915,5.55236 18.7221,4.0563 35.01862,10.87352 40.82071,17.07628 l 2.88779,3.0872 -3.1073,-0.58512 c -9.83903,-1.85276 -40.60979,-2.90333 -68.8927,-2.35213 -37.9045,0.73871 -62.14286,3.0003 -93,8.67749 -10.26616,1.8888 -29.73332,6.34484 -32.61877,7.46645 -1.18073,0.45897 -6.22301,-4.18919 -18.63388,-17.17739 z M 342.5,368.49067 c -15.10012,-3.29312 -31.72401,-4.76483 -59,-5.22326 l -28,-0.47059 -8.44277,-9.14841 c -4.64352,-5.03163 -16.52027,-17.32845 -26.39278,-27.32628 l -17.95002,-18.17786 3.39279,-2.06588 c 8.03767,-4.89415 29.65994,-11.24432 50.89278,-14.94652 21.81498,-3.8037 32.85185,-4.63275 61,-4.58213 29.24998,0.0526 40.95032,1.2236 55.65403,5.56993 l 7.15403,2.1147 0.57151,4.13281 c 0.58296,4.21563 2.39363,25.49674 2.8616,33.63282 l 0.25883,4.5 -9.5,-4.73355 c -12.77953,-6.36765 -36.65246,-14.964 -35.82255,-12.89927 0.1774,0.44135 5.94755,5.77845 12.82255,11.86021 6.875,6.08176 14.71172,13.3344 17.41494,16.11698 l 4.91494,5.05924 -11.21998,-3.95214 C 334.53687,337.88687 306.32715,332.95721 278,333.07849 c -19.34381,0.0828 -21.01569,0.94674 -7.36687,3.80674 20.69641,4.33677 47.32393,14.56461 67.36687,25.87616 8.13276,4.58985 12.61019,7.50864 10.95,7.1382 -0.2475,-0.0552 -3.15,-0.68924 -6.45,-1.40892 z M 328.62007,492.25 c -0.28309,-0.9625 -1.23111,-4.58323 -2.1067,-8.04606 -6.68815,-26.45045 -25.30447,-63.38917 -44.93052,-89.15165 -6.20725,-8.14806 -6.16746,-7.92759 -1.33308,-7.38508 48.62486,5.45666 78.03994,14.03057 95.11143,27.72309 1.80581,1.44839 1.78251,1.7671 -0.78309,10.71124 -5.33908,18.61298 -17.82434,46.36873 -27.97045,62.18064 l -3.71029,5.78218 11.80132,-0.28218 L 366.5,493.5 372,482.80056 c 5.38932,-10.48413 5.5805,-10.71225 9.5,-11.33564 7.51641,-1.19547 27.07779,-6.32319 33.8589,-8.87559 18.19432,-6.84832 30.16726,-16.15498 33.21115,-25.81529 0.914,-2.90072 1.88395,-9.09904 2.15544,-13.77404 0.42761,-7.36337 0.13631,-9.56977 -2.17841,-16.5 -3.47169,-10.39416 -8.28744,-19.09714 -16.04698,-29 -6.04752,-7.71794 -17.05004,-18.88301 -24.6715,-25.03599 l -3.67139,-2.96401 -0.26085,-12 -0.26084,-12 2.43224,-0.27993 c 1.33773,-0.15395 5.80724,-0.98782 9.93224,-1.85302 48.68556,-10.21164 44.09371,-34.95581 -8.7909,-47.37164 l -8.92005,-2.09418 -2.13822,-18.20062 c -3.43405,-29.23078 -4.22664,-39.22963 -4.44503,-56.07633 l -0.2058,-15.87573 11.75264,-3.35193 c 27.7736,-7.92123 44.06564,-17.44224 49.38177,-28.85852 4.63472,-9.95297 2.22092,-18.01154 -8.57008,-28.61162 -7.10365,-6.97797 -19.92174,-15.1163 -32.28745,-20.49962 -3.69771,-1.60977 -6.73521,-3.387125 -6.75,-3.94967 -0.0148,-0.562546 1.38969,-4.612546 3.12105,-9 2.65081,-6.717421 3.15005,-9.319522 3.1613,-16.47719 0.0177,-11.248296 -2.81069,-17.709949 -11.53399,-26.350217 C 379.25455,26.324392 334.36729,16.762471 259.5,16.768237 144.40594,16.777101 73.734565,36.347731 55.532441,73.251838 49.577233,85.325795 49.019281,93.550619 52.63251,116 c 3.773208,23.44335 10.178803,42.89177 21.97786,66.72833 l 8.527996,17.22833 -3.680146,3.77167 C 71.217023,212.17448 67.500066,219.79065 67.612785,228 c 0.234444,17.07458 19.096051,30.54089 55.938425,39.93742 6.57183,1.67613 12.63679,3.0509 13.47768,3.05504 1.37697,0.007 6.33605,4.76966 17.25109,16.56853 l 3.75679,4.06099 -10.35055,5.1451 C 136.43809,302.35835 129,308.95635 129,313.3428 c 0,9.94754 19.46068,16.37173 56.38743,18.61411 l 13.88742,0.84332 14.4277,14.34989 c 7.93523,7.89243 14.83998,15.09209 15.3439,15.99924 0.80143,1.44276 -0.17753,1.79911 -7.81513,2.84479 -20.09367,2.75105 -48.17067,8.91562 -66.45705,14.59126 -12.47429,3.87171 -28.14649,9.5864 -29.27427,10.67453 -0.64942,0.62659 -0.29884,0.76477 1,0.39414 4.09513,-1.16857 25.59479,-3.69532 43.82864,-5.15096 C 181.40836,385.61861 201.47197,385 219.08001,385 l 29.92273,0 8.59084,10.75 c 23.46674,29.36474 40.62518,60.92827 49.46905,91 l 2.13217,7.25 9.96999,0 c 9.02464,0 9.92118,-0.16593 9.45528,-1.75 z"
     id="path2989"
     style="fill:#ffffff" />
</svg>
