<?xml version="1.0" encoding="UTF-8" standalone="no"?>
<!-- Created with Inkscape (http://www.inkscape.org/) -->

<svg
   xmlns:dc="http://purl.org/dc/elements/1.1/"
   xmlns:cc="http://creativecommons.org/ns#"
   xmlns:rdf="http://www.w3.org/1999/02/22-rdf-syntax-ns#"
   xmlns:svg="http://www.w3.org/2000/svg"
   xmlns="http://www.w3.org/2000/svg"
   version="1.1"
   width="512"
   height="512"
   id="svg2">
  <metadata
     id="metadata8">
    <rdf:RDF>
      <cc:Work
         rdf:about="">
        <dc:format>image/svg+xml</dc:format>
        <dc:type
           rdf:resource="http://purl.org/dc/dcmitype/StillImage" />
        <dc:title></dc:title>
      </cc:Work>
    </rdf:RDF>
  </metadata>
  <defs
     id="defs6" />
  <path
     d="M 340.65398,284.32356 C 371.0929,260.59188 416.67811,217.79203 433.66042,197 c 35.71799,-43.73076 53.72865,-80.11438 58.4125,-118 2.12927,-17.222742 -0.0212,-39.992973 -5.38306,-57 l -1.41875,-4.5 -3.50364,7.5 C 454.30566,83.785623 394.27133,148.42093 290.5,230.92605 c -9.9,7.87116 -18.45,14.74141 -19,15.26721 -1.14875,1.09823 -1.09053,1.14982 20,17.7204 C 307.46373,276.45618 328.80021,292 330.05317,292 c 0.41513,0 5.1855,-3.4544 10.60081,-7.67644 z M 433.04406,441.25 c 2.31772,-2.6125 5.77401,-7.08137 7.68063,-9.93081 l 3.4666,-5.18082 -3.26602,-4.81918 C 435.74647,413.67758 414.39584,393.13295 404,385.78787 c -10.6867,-7.55059 -25.16318,-15.84595 -32.17232,-18.43549 -4.07934,-1.50712 -4.89188,-1.54399 -6.40227,-0.29048 -2.5081,2.08154 -9.12621,11.24281 -11.07691,15.33347 -1.64036,3.43988 -1.62057,3.59511 0.95435,7.48608 8.27938,12.51098 27.70684,30.72636 45.19715,42.37728 9.66287,6.43678 23.80915,13.74127 26.61212,13.74127 0.94485,0 3.61422,-2.1375 5.93194,-4.75 z m -335.816654,-0.5 c 17.778264,-9.08185 37.686004,-24.83485 51.694694,-40.90603 10.66079,-12.23037 10.95539,-12.86763 8.37839,-18.12363 -1.13807,-2.32119 -4.02338,-6.84366 -6.4118,-10.04995 -3.97223,-5.33244 -4.5973,-5.77867 -7.3292,-5.23229 -8.72942,1.74589 -31.41688,15.44002 -46.727177,28.20448 C 84.194953,405.17857 69,422.40616 69,426.19804 69,429.66816 82.239385,446 85.052432,446 c 1.043782,0 6.52252,-2.3625 12.174974,-5.25 z M 417.5,494.58332 C 443.93828,487.3282 466.06261,466.3076 481.40182,433.86941 486.80257,422.44831 492,409.04329 492,406.53498 492,405.51636 476.89184,399 474.53019,399 c -0.20089,0 -1.82692,4.3875 -3.6134,9.75 -5.96302,17.89932 -11.87652,29.109 -21.98439,41.67381 -14.17769,17.62389 -31.97892,26.96094 -51.4324,26.97715 -38.40588,0.032 -70.88965,-34.95453 -68.1599,-73.41143 1.41707,-19.96379 9.75252,-35.80947 29.71573,-56.48953 10.4463,-10.82142 15.29088,-17.33273 19.54647,-26.27126 C 382.03805,314.0122 385,302.94206 385,297.31763 L 385,293 l -5.75,-0.011 c -3.1625,-0.006 -7.35065,-0.27583 -9.30699,-0.59952 l -3.55699,-0.58851 -1.12533,7.27029 c -0.70275,4.54014 -2.46138,9.9287 -4.68317,14.34952 -3.66324,7.28899 -10.02729,16.58869 -11.33724,16.56694 -0.63753,-0.0106 -27.05176,-20.04317 -32.74028,-24.83029 -1.1,-0.92569 -6.05,-4.58691 -11,-8.13604 C 284.28864,281.81292 204.08637,217.48096 171.5,189.53711 100.80072,128.91022 55.036938,75.877178 32.08365,27.975415 29.410078,22.395873 26.964264,18.248806 26.648508,18.759709 26.332752,19.270613 24.926506,24.106652 23.523517,29.506463 8.195868,88.499374 34.162157,152.80372 100.99262,221.35522 c 24.35999,24.98731 53.42347,50.28362 84.50738,73.55363 29.64816,22.19518 81.13802,57.21955 111.74403,76.01039 18.3349,11.25688 17.54229,10.2675 14.48482,18.08076 -1.89581,4.84469 -2.10913,26.86862 -0.34296,35.40892 7.18837,34.75926 35.25793,63.26103 70.1005,71.17987 7.83017,1.7796 27.9072,1.21907 36.01361,-1.00547 z m -281.11992,-0.46001 c 41.66629,-12.4546 70.21875,-53.48976 65.60301,-94.28362 -0.58123,-5.13683 -1.67701,-11.43028 -2.43507,-13.98545 l -1.37831,-4.64576 11.16515,-6.77014 c 16.67741,-10.11259 29.66626,-18.56171 29.65632,-19.29116 C 238.98108,354.40569 183.59203,316 182.53276,316 c -0.3829,0 -4.76641,3.15 -9.74114,7 -4.97472,3.85 -9.38454,7 -9.7996,7 -1.00406,0 -5.18505,-5.54337 -8.78146,-11.64288 C 149.98341,311.18785 147,302.567 147,297.5215 c 0,-2.4219 -0.3375,-4.60793 -0.75,-4.85784 -0.4125,-0.2499 -4.9125,-0.21404 -10,0.0797 l -9.25,0.53406 0,3.70133 c 0,5.63717 3.48854,18.06331 7.0648,25.16479 5.02365,9.97556 8.48548,14.55928 19.9056,26.35647 19.86145,20.51725 27.60842,35.63616 28.74162,56.09194 0.71969,12.9913 -1.28769,22.3435 -7.45245,34.72035 C 167.24812,455.3967 151.33497,468.93893 134,474.42453 95.41357,486.63511 60.045441,462.13149 41.862395,410.59011 39.745527,404.58966 37.852689,399.51936 37.656088,399.32276 37.050164,398.71683 20,405.21689 20,406.05381 c 0,2.15391 6.745541,19.61482 10.989399,28.44619 16.017312,33.33164 39.530331,54.61095 67.43387,61.02773 8.784921,2.0202 29.002511,1.27215 37.956811,-1.40442 z"
     id="path2989"
     style="fill:#ffffff" />
</svg>
