<?xml version="1.0" encoding="UTF-8" standalone="no"?>
<!-- Created with Inkscape (http://www.inkscape.org/) -->

<svg
   xmlns:dc="http://purl.org/dc/elements/1.1/"
   xmlns:cc="http://creativecommons.org/ns#"
   xmlns:rdf="http://www.w3.org/1999/02/22-rdf-syntax-ns#"
   xmlns:svg="http://www.w3.org/2000/svg"
   xmlns="http://www.w3.org/2000/svg"
   version="1.1"
   width="512"
   height="512"
   id="svg2">
  <metadata
     id="metadata8">
    <rdf:RDF>
      <cc:Work
         rdf:about="">
        <dc:format>image/svg+xml</dc:format>
        <dc:type
           rdf:resource="http://purl.org/dc/dcmitype/StillImage" />
        <dc:title></dc:title>
      </cc:Work>
    </rdf:RDF>
  </metadata>
  <defs
     id="defs6" />
  <path
     d="m 444.02248,222.25141 c 12.85033,-4.62388 19.82626,-9.40185 29.00429,-19.86566 21.06946,-24.02113 25.20608,-55.49216 10.96295,-83.40493 -2.61506,-5.12482 -1.97255,-5.98758 -6.89759,9.26205 -5.69766,17.64194 -15.0466,30.1479 -26.89941,35.98302 -5.86394,2.88681 -7.59949,3.27078 -14.67169,3.24594 -6.54155,-0.023 -9.07891,-0.51876 -13.75634,-2.68795 -7.8008,-3.61766 -14.02341,-9.02707 -19.30705,-16.78388 -8.30596,-12.19384 -11.56,-23.26611 -13.37205,-45.5 -1.16547,-14.300274 -2.13417,-18.672529 -5.6969,-25.713085 -6.54966,-12.943213 -17.92984,-19.430489 -29.16004,-16.622691 -3.66511,0.916356 -6.0933,2.54902 -10.79604,7.259021 -9.7603,9.77536 -14.43553,23.616684 -16.57683,49.076755 -2.13558,25.39198 2.50206,45.83623 14.66152,64.63282 12.74297,19.69862 32.96629,34.3419 56.4827,40.89795 9.55359,2.66341 11.1713,2.81591 26.5,2.49806 10.90575,-0.22613 15.22057,-0.72948 19.52248,-2.27742 z M 109.5,222.05995 c 35.37184,-8.62839 62.24435,-34.53805 71.69565,-69.12678 2.04085,-7.46886 2.29857,-10.60578 2.25384,-27.43317 -0.061,-22.94955 -2.08746,-34.362287 -8.34811,-47.015643 C 168.60375,65.352062 160.69942,59 150.85556,59 c -6.65688,0 -12.47549,2.779141 -17.7115,8.45954 -7.772,8.431622 -10.65249,16.715818 -11.66231,33.54046 -1.93779,32.28535 -12.20157,52.59592 -31.458652,62.25221 -5.792064,2.90438 -7.37966,3.24779 -15.014806,3.24779 -7.632465,0 -9.247607,-0.34906 -15.230091,-3.29149 C 52.098573,159.43136 44.850548,152.00665 39.562493,142.5 35.95585,136.01613 30,119.5928 30,116.13131 c 0,-3.91788 -1.70396,-2.19453 -4.902044,4.95785 -4.57918,10.24113 -6.219639,17.09117 -6.815504,28.45938 -0.429587,8.19588 -0.133289,11.60675 1.607074,18.5 3.993354,15.81694 11.807414,28.82641 24.375509,40.58231 15.600986,14.5928 39.931619,19.60144 65.234965,13.4291 z m 213.02091,93.53089 c -6.93386,-7.35202 -10.48366,-19.47614 -10.50613,-35.883 -0.0243,-17.72745 4.17968,-33.15382 11.76848,-43.18428 7.14146,-9.4392 13.4545,-11.71872 19.15963,-6.91816 15.6952,13.20664 16.25562,57.07317 1.01297,79.28919 -7.25942,10.58053 -15.37926,13.11716 -21.43495,6.69625 z m -145.06353,1.54624 c -6.65041,-4.05555 -12.83577,-14.3974 -16.64957,-27.8379 -2.98419,-10.51679 -3.22628,-32.69325 -0.45631,-41.79918 3.72373,-12.2413 9.96227,-20.50397 15.47523,-20.49626 8.49025,0.0119 18.6775,13.41596 23.32911,30.69578 2.81335,10.45102 3.03842,30.77925 0.44621,40.30048 -4.69005,17.22664 -13.2074,24.5872 -22.14467,19.13708 z m 41.52731,141.73438 c 0.008,-10.7957 -0.89599,-38.1969 -2.00979,-60.89156 -1.11381,-22.69467 -1.88724,-41.40089 -1.71874,-41.56939 0.1685,-0.1685 8.62582,11.89804 18.79404,26.81454 10.16823,14.9165 18.92916,27.2502 19.46874,27.40822 0.53958,0.15801 9.50869,-11.8297 19.93135,-26.63936 10.42266,-14.80966 19.07564,-26.80132 19.22883,-26.64812 0.15319,0.15319 -0.38133,19.15056 -1.18782,42.21637 -0.80649,23.06581 -1.47196,50.6431 -1.47882,61.28286 L 290,480.19004 l 4.75,-2.75863 c 2.6125,-1.51725 7.2567,-4.67414 10.32045,-7.01531 l 5.57045,-4.25667 1.20806,-25.74603 c 1.75048,-37.30571 5.31667,-61.41937 12.31386,-83.26317 5.15992,-16.1082 6.10329,-17.78997 10.4349,-18.60258 17.56159,-3.29458 32.45424,-23.03179 38.51783,-51.04765 1.88274,-8.69887 1.62227,-33.21856 -0.4495,-42.31538 C 371.74972,241.16117 371,236.33404 371,234.45768 c 0,-2.65269 -0.61172,-3.78077 -2.75,-5.07129 -11.33028,-6.83821 -20.54424,-14.03461 -28.52821,-22.28147 -14.93157,-15.4232 -23.52026,-31.30098 -28.45532,-52.60492 -2.1796,-9.409 -2.54435,-13.32886 -2.52186,-27.10149 0.017,-10.4349 0.6279,-19.68415 1.73574,-26.28151 0.9402,-5.599005 1.46738,-10.810832 1.17152,-11.581836 C 310.7883,87.284735 297.11597,77.46618 289.5,73.627168 274.33811,65.984454 254.94397,63.575911 240,67.479802 227.49163,70.747426 209.21461,80.947684 201.56931,88.927651 l -2.83004,2.953935 1.19832,7.809207 c 1.89803,12.368997 2.465,33.785957 1.15395,43.589997 -4.37021,32.68041 -22.20951,61.3059 -49.59435,79.58064 -8.2532,5.50761 -9.22815,6.9122 -9.39751,13.53879 -0.0548,2.14512 -0.83238,7.51623 -1.7279,11.9358 -2.03204,10.02854 -1.40816,34.88585 1.10845,44.16398 5.97389,22.02428 15.87438,36.6066 29.51977,43.47934 2.475,1.24657 4.64556,2.39424 4.82346,2.55038 0.17791,0.15613 2.08443,5.28318 4.23672,11.39345 9.81081,27.85253 14.70496,57.39054 16.53239,99.77917 0.80475,18.66679 -0.0105,17.06523 13.34455,26.21491 5.45103,3.73455 7.65012,4.75975 8.23469,3.83899 0.43866,-0.69093 0.80446,-10.08908 0.81288,-20.88478 z m 47.82216,29.78211 5.30686,-1.15357 0.2519,-35.19082 c 0.13854,-19.35495 -0.0865,-34.98165 -0.50019,-34.726 -0.41365,0.25564 -4.44053,5.74151 -8.94864,12.19082 -4.5081,6.4493 -8.53486,12.10477 -8.94837,12.5677 -0.4135,0.46294 -4.43973,-4.59956 -8.94718,-11.25 -4.50745,-6.65043 -8.26868,-12.09173 -8.35829,-12.09177 -0.0896,-3e-5 -0.16294,15.54456 -0.16294,34.54354 l 0,34.54361 2.5,0.54393 c 1.375,0.29916 2.95,0.69404 3.5,0.87751 2.39146,0.79775 19.46681,0.19716 24.30685,-0.85495 z"
     id="path2989"
     style="fill:#ffffff" />
</svg>
