<?xml version="1.0" encoding="UTF-8" standalone="no"?>
<!-- Created with Inkscape (http://www.inkscape.org/) -->

<svg
   xmlns:dc="http://purl.org/dc/elements/1.1/"
   xmlns:cc="http://creativecommons.org/ns#"
   xmlns:rdf="http://www.w3.org/1999/02/22-rdf-syntax-ns#"
   xmlns:svg="http://www.w3.org/2000/svg"
   xmlns="http://www.w3.org/2000/svg"
   version="1.1"
   width="512"
   height="512"
   id="svg2">
  <metadata
     id="metadata8">
    <rdf:RDF>
      <cc:Work
         rdf:about="">
        <dc:format>image/svg+xml</dc:format>
        <dc:type
           rdf:resource="http://purl.org/dc/dcmitype/StillImage" />
        <dc:title></dc:title>
      </cc:Work>
    </rdf:RDF>
  </metadata>
  <defs
     id="defs6" />
  <path
     d="m 359,489.15986 c 0,-3.14889 -26.12318,-116.1721 -31.58634,-136.65986 -0.76259,-2.85982 3.5227,2.20003 16.93842,20 17.30687,22.96274 32.9601,48.10537 45.13687,72.5 2.60809,5.225 4.92518,9.69765 5.14908,9.93922 0.2239,0.24158 3.98559,-1.30549 8.35932,-3.43793 l 7.95223,-3.87715 -7.82504,-15.18877 c -17.33125,-33.64071 -33.94792,-58.44154 -64.40076,-96.11983 -1.77095,-2.19114 -1.73019,-2.23371 13.74725,-14.35654 8.53791,-6.68738 15.3285,-12.47435 15.0902,-12.85992 C 366.30739,307.07032 321,206.74788 321,206.0003 c 0,-0.4858 10.4625,-8.18587 23.25,-17.11126 12.7875,-8.9254 23.475,-16.41645 23.75,-16.64678 0.69885,-0.58534 -7.55353,-15.93913 -18.2683,-33.98867 -14.35451,-24.18088 -29.56888,-41.900498 -46.113,-53.706141 l -6.66719,-4.757607 -5.66502,3.855079 c -7.12889,4.851257 -21.22882,18.661419 -28.55199,27.965219 -7.63747,9.70312 -16.65965,23.68927 -28.22544,43.75499 -8.09053,14.03644 -12.16855,19.76873 -24.31375,34.17679 l -14.59276,17.31165 -5.62617,-4.87404 c -10.15951,-8.80133 -36.31391,-36.38841 -44.5956,-47.03843 -7.42878,-9.55323 -18.81486,-26.03993 -24.23482,-35.09132 l -2.18574,-3.65021 3.76989,-2.96454 c 2.07344,-1.6305 6.91989,-4.96351 10.76989,-7.40669 35.49755,-22.526531 79.86,-36.882361 134.5,-43.524639 20.61303,-2.505811 74.46077,-2.500639 95,0.0091 16.34564,1.997332 35.40703,5.097826 44.44296,7.229016 8.53829,2.013818 9.58265,1.823003 6.05704,-1.106684 C 403.13229,59.819876 374.618,44.988978 356.0331,38.545374 323.34182,27.210925 288.83266,21.917428 247.5,21.897051 c -56.94291,-0.02807 -108.47167,11.050915 -155,33.325916 -8.25,3.94961 -15.336505,7.449197 -15.747788,7.776859 -0.869155,0.692441 6.070862,19.38486 12.765807,34.383751 12.633631,28.303513 32.291551,58.642153 53.097871,81.947483 4.33626,4.85709 9.29785,10.48209 11.02575,12.5 l 3.14165,3.66894 -0.93129,32.42551 c -0.5122,17.83402 -0.74185,32.91915 -0.51033,33.5225 0.23153,0.60334 14.64937,7.79094 32.03965,15.97244 C 207.7181,286.98817 219,292.81869 219,293.76109 c 0,0.80587 -1.99512,7.82679 -4.43361,15.60206 -8.70494,27.7563 -19.86573,71.02621 -34.07241,132.09737 -4.61103,19.82171 -9.0436,38.85198 -9.85015,42.28948 l -1.46645,6.25 94.91131,0 C 316.28991,490 359,489.62194 359,489.15986 z"
     id="path3057"
     style="fill:#ffffff" />
</svg>
