<?xml version="1.0" encoding="UTF-8" standalone="no"?>
<!-- Created with Inkscape (http://www.inkscape.org/) -->

<svg
   xmlns:dc="http://purl.org/dc/elements/1.1/"
   xmlns:cc="http://creativecommons.org/ns#"
   xmlns:rdf="http://www.w3.org/1999/02/22-rdf-syntax-ns#"
   xmlns:svg="http://www.w3.org/2000/svg"
   xmlns="http://www.w3.org/2000/svg"
   version="1.1"
   width="512"
   height="512"
   id="svg2">
  <metadata
     id="metadata8">
    <rdf:RDF>
      <cc:Work
         rdf:about="">
        <dc:format>image/svg+xml</dc:format>
        <dc:type
           rdf:resource="http://purl.org/dc/dcmitype/StillImage" />
        <dc:title></dc:title>
      </cc:Work>
    </rdf:RDF>
  </metadata>
  <defs
     id="defs6" />
  <path
     d="m 42.5,103.43381 c 1.817513,-0.4897 2,-1.38516 2,-9.813991 0,-8.898287 0.172443,-9.623034 4.244405,-17.838426 C 54.592224,63.983116 63.983116,54.592224 75.781393,48.744405 83.997906,44.671888 84.720545,44.5 93.625417,44.5 104.30589,44.5 104.55321,44.261987 103.14292,35.340557 101.56522,25.360086 95.738904,20.907416 84.248406,20.90072 55.832628,20.884161 21,55.742818 21,84.196389 c 0,11.44171 4.217615,17.155371 13.866843,18.785601 2.548237,0.43053 4.858157,0.82956 5.133157,0.88674 0.275,0.0572 1.4,-0.13853 2.5,-0.43492 z m 70,36.73266 c 8.22714,-12.4001 22.10295,-25.03967 37.0287,-33.72967 1.58358,-0.92198 -1.28548,-3.58073 -21.60129,-20.017837 C 96.209367,60.756539 97.965672,61.998363 93.405609,62.009769 80.547395,62.041931 62,80.53024 62,93.315331 c 0,4.665114 -1.290655,2.835706 24.418963,34.612079 16.437107,20.31581 19.095857,23.18487 20.017837,21.60129 0.58476,-1.00437 3.3132,-5.21737 6.0632,-9.36223 z M 128.43883,191.25 C 136.83892,164.47699 163.8705,136.92604 190,128.50603 c 3.025,-0.97478 5.88628,-1.99411 6.35839,-2.26519 1.24526,-0.71498 -4.13793,-5.01688 -9.29096,-7.42474 -10.47277,-4.89361 -29.39628,1.17437 -44.59076,14.2984 -10.47559,9.04815 -20.09246,22.55308 -23.04775,32.36582 -2.45546,8.15311 -2.89977,16.46637 -1.10887,20.74759 1.53695,3.67416 6.64177,10.772 7.74733,10.77206 0.31206,2e-5 1.37921,-2.58747 2.37145,-5.74997 z M 196,279.83834 c 0,-2.55046 8.67119,-19.17259 14.77001,-28.31321 8.97119,-13.44558 27.30954,-31.78393 40.75512,-40.75512 C 260.66575,204.67119 277.28788,196 279.83834,196 c 3.64869,0 -0.78483,-4.19966 -25.50365,-24.15836 C 216.56679,141.34672 219.05054,143 211.00548,143 c -17.44814,0 -37.69326,11.57024 -52.21056,29.83873 -10.17798,12.80791 -15.15309,24.96188 -15.2408,37.2326 -0.0677,9.4672 -1.04727,7.93415 28.20345,44.13778 C 191.83072,279.05364 196,283.46143 196,279.83834 z m 23,53.35 c 0,-4.42609 3.59505,-17.02105 7.56626,-26.50775 13.57069,-32.41858 44.43205,-64.01629 76.90551,-78.74046 9.13555,-4.14226 20.21842,-7.63257 26.87791,-8.46462 3.10767,-0.38827 5.65032,-1.08249 5.65032,-1.54269 0,-1.60626 -8.59865,-6.73615 -13.95958,-8.32818 -34.8162,-10.3393 -91.7377,29.14854 -109.01184,75.62416 -6.95754,18.71911 -6.55591,35.3306 1.1241,46.49312 3.42222,4.97402 4.84732,5.40514 4.84732,1.46642 z m 78.47623,94.07396 c 1.21403,-8.17754 6.49505,-23.32489 11.94532,-34.2623 18.08759,-36.29752 48.49874,-66.91576 84.36835,-84.94288 9.67325,-4.86152 29.3028,-12.03883 33.01744,-12.07243 5.82172,-0.0527 3.4864,-2.35719 -28.7911,-28.41134 -18.21223,-14.70077 -35.19197,-27.64824 -37.73278,-28.77216 -11.17759,-4.94438 -30.43936,-2.90543 -48.54673,5.13891 -41.18777,18.29797 -75.96622,64.68636 -75.67564,100.93812 0.11256,14.04197 0.43241,14.58214 31.43891,53.09422 15.4,19.1278 28.28558,34.61454 28.63461,34.41499 0.34904,-0.19956 0.95277,-2.50587 1.34162,-5.12513 z m 109.4901,57.18406 c 8.45407,-1.99258 23.04432,-8.9574 32.73233,-15.62515 9.87285,-6.79495 24.30201,-21.21243 31.06619,-31.04101 19.36886,-28.14364 22.82384,-58.80812 8.03431,-71.3081 -6.30254,-5.32686 -11.36561,-6.9267 -21.79916,-6.88815 -11.81273,0.0436 -19.38678,2.00415 -32.5,8.41246 -19.81689,9.68435 -38.70636,27.03914 -50.43831,46.34044 -1.91025,3.14272 -0.9961,2.50271 5.05308,-3.53778 C 383.17664,406.74303 388.525,402.03878 391,400.34517 402.16192,392.70724 415.49565,388 425.96893,388 l 5.34114,0 -5.90503,3.83202 c -8.54688,5.54643 -17.55986,15.67893 -22.07756,24.81988 -3.59164,7.26719 -3.82748,8.30692 -3.82748,16.87408 0,8.37258 0.22337,9.42256 2.69355,12.66114 5.73237,7.51551 16.95013,9.25785 28.7969,4.47273 3.52692,-1.42459 6.61126,-2.39148 6.85408,-2.14865 1.03757,1.03757 -19.93336,20.29998 -25.87223,23.76439 -12.58654,7.3423 -30.03508,10.82137 -38.6572,7.70786 l -2.8151,-1.01656 2.5,2.01841 c 6.01597,4.85706 21.39475,6.42411 33.96633,3.46106 z m -52.34646,4.13462 c -7.18917,-8.77344 -11.5621,-21.28634 -11.60251,-33.19999 -0.0451,-13.29453 5.47959,-32.22214 13.59691,-46.58315 8.89051,-15.72892 24.35524,-33.14984 39.38573,-44.36776 23.55549,-17.58051 51.41812,-26.23712 71.2848,-22.1474 10.06591,2.07216 17.4373,5.4982 23.14035,10.75509 l 4.57485,4.21695 -0.0148,-3.37736 c -0.008,-1.85755 -0.68121,-6.20403 -1.49574,-9.65884 -5.54392,-23.51457 -26.02567,-35.75514 -53.8571,-32.18679 -46.42293,5.95203 -97.82268,48.26368 -118.04212,97.17086 -12.14573,29.3783 -10.68968,56.22232 3.86166,71.19455 6.91246,7.11239 18.891,12.29748 28.91854,12.51781 l 3.87046,0.0851 -3.62105,-4.41902 z"
     id="path2989"
     style="fill:#ffffff" />
</svg>
