<?xml version="1.0" encoding="UTF-8" standalone="no"?>
<!-- Created with Inkscape (http://www.inkscape.org/) -->

<svg
   xmlns:dc="http://purl.org/dc/elements/1.1/"
   xmlns:cc="http://creativecommons.org/ns#"
   xmlns:rdf="http://www.w3.org/1999/02/22-rdf-syntax-ns#"
   xmlns:svg="http://www.w3.org/2000/svg"
   xmlns="http://www.w3.org/2000/svg"
   xmlns:sodipodi="http://sodipodi.sourceforge.net/DTD/sodipodi-0.dtd"
   xmlns:inkscape="http://www.inkscape.org/namespaces/inkscape"
   id="svg2"
   version="1.1"
   inkscape:version="0.48.3.1 r9886"
   width="400"
   height="400"
   sodipodi:docname="Icon.5_12.png">
  <metadata
     id="metadata8">
    <rdf:RDF>
      <cc:Work
         rdf:about="">
        <dc:format>image/svg+xml</dc:format>
        <dc:type
           rdf:resource="http://purl.org/dc/dcmitype/StillImage" />
        <dc:title></dc:title>
      </cc:Work>
    </rdf:RDF>
  </metadata>
  <defs
     id="defs6" />
  <sodipodi:namedview
     pagecolor="#ffffff"
     bordercolor="#666666"
     borderopacity="1"
     objecttolerance="10"
     gridtolerance="10"
     guidetolerance="10"
     inkscape:pageopacity="0"
     inkscape:pageshadow="2"
     inkscape:window-width="1855"
     inkscape:window-height="1056"
     id="namedview4"
     showgrid="false"
     showguides="true"
     inkscape:guide-bbox="true"
     inkscape:zoom="0.59"
     inkscape:cx="200"
     inkscape:cy="200"
     inkscape:window-x="65"
     inkscape:window-y="24"
     inkscape:window-maximized="1"
     inkscape:current-layer="svg2" />
  <path
     style="fill:#000000"
     d="m 0,-1.5258789e-5 400,0 L 400,399.99998 l -400,0 z"
     id="rect3026" />
  <path
     id="path2989"
     style="fill:#ffffff"
     d="M 207.49223,114.21538 C 181.45945,88.943195 135.15233,54.090996 97.203488,31.208593 L 86.906977,25 56.426032,25 25.945087,25 26.222543,39.050467 26.5,53.100934 49,62.59357 c 30.931464,13.049829 77.09902,31.087945 103.61524,40.48349 21.04034,7.45526 61.75474,20.71788 63.88476,20.8103 0.55,0.0239 -3.5035,-4.32853 -9.00777,-9.67198 z M 363.22209,197.25 C 349.02763,181.99215 319.21645,152.90395 300.75523,136.29811 260.96358,100.50556 218.45005,67.752238 171.62306,36.811944 L 153.74612,25 l -20.90007,0 -20.90007,0 18.27701,12.203458 c 31.64313,21.127944 64.47001,46.863955 85.17551,66.776922 10.07951,9.6937 41.80322,43.15123 41.34733,43.60712 -0.44212,0.44212 -47.68371,-12.50701 -64.6478,-17.72024 C 157.37405,119.19623 94.834781,95.869119 49,76.491765 37.725,71.725086 27.925806,67.586802 27.224013,67.295577 c -1.009572,-0.418944 -1.218363,2.741681 -1,15.137726 L 26.5,98.100528 49,107.60948 c 90.6363,38.30471 190.13971,71.08165 274.5,90.42171 16.39772,3.75927 45.02765,9.59697 48.36144,9.86099 0.74879,0.0593 -3.13892,-4.72968 -8.63935,-10.64218 z M 76.514229,283.34045 C 86.578546,279.91119 93.915042,268.37391 92.677248,257.92268 92.363552,255.274 90.240326,248.69535 87.958969,243.30345 79.166197,222.52207 77.87824,218.70032 76.962918,210.67487 75.411291,197.07036 78.373806,179.2565 84.486581,165.43443 87.593046,158.41016 95.017047,147.87408 98.440757,145.63077 99.848341,144.70849 101,143.58908 101,143.1432 101,142.69733 94.1375,139.68986 85.75,136.45996 77.3625,133.23005 64.887539,128.20523 58.027865,125.2937 51.168191,122.38216 45.229334,120 44.830405,120 c -0.39893,0 0.580442,2.8125 2.176381,6.25 7.465802,16.08063 12.943999,42.60749 13.719726,66.4345 0.686754,21.09414 -0.01198,25.07032 -7.785743,44.30539 -7.482642,18.51473 -8.71653,23.66055 -7.111965,29.65984 3.815128,14.26434 16.907119,21.38546 30.685425,16.69072 z M 324.26639,370.4249 c 13.4042,-4.56727 22.58823,-20.67867 19.63558,-34.44639 -1.05459,-4.91739 -3.12313,-10.17912 -12.96479,-32.97851 -4.51705,-10.46427 -5.87726,-16.03993 -6.5918,-27.02047 -1.53975,-23.66173 8.4277,-45.18556 26.15462,-56.47858 l 3,-1.91116 -4.5,-0.86157 c -5.53954,-1.06059 -51.86425,-11.57074 -54.16286,-12.28846 -1.2481,-0.38972 -0.68235,1.42373 2.26821,7.27051 7.76603,15.38903 11.05753,36.99883 9.06444,59.51123 -1.39639,15.77262 -3.33104,23.30608 -9.96422,38.80033 -7.96617,18.60792 -10.51116,26.75139 -10.484,33.54665 0.0496,12.40036 8.55099,23.93182 20.27196,27.49718 4.33212,1.31777 13.46475,0.99753 18.27286,-0.64076 z m -104.56186,3.00811 c 8.98267,-5.2642 13.62028,-16.0284 11.38869,-26.43395 -0.63093,-2.94194 -4.04072,-12.58275 -7.57731,-21.42402 -9.49032,-23.72527 -9.92128,-25.99731 -9.97253,-52.57504 -0.0346,-17.93314 0.33772,-24.52971 1.83423,-32.5 4.56849,-24.33146 11.26411,-34.79542 19.92022,-31.13145 7.24841,3.06812 10.83415,11.81063 11.49131,28.01735 0.57796,14.25353 -1.0185,23.64336 -6.31016,37.1141 -5.80158,14.76881 -6.20922,17.36008 -3.58401,22.78303 5.26,10.86572 18.9247,11.54892 26.54324,1.32708 3.28117,-4.40236 2.55946,-11.15453 -2.57704,-24.11011 L 256.5,263.5 256.565,250 c 0.0514,-10.68122 0.53405,-15.25552 2.31156,-21.90773 2.73111,-10.221 7.19166,-20.32049 11.16668,-25.28338 1.62601,-2.03011 2.6148,-3.90222 2.1973,-4.16024 -0.41749,-0.25803 -3.6799,-1.21376 -7.24979,-2.12386 -11.80539,-3.00962 -50.131,-14.54559 -73.40066,-22.09353 C 178.98959,170.34407 168.2179,167 167.65297,167 c -0.56494,0 0.15795,1.2375 1.6064,2.75 4.4519,4.64874 12.46159,18.92098 16.60933,29.59569 10.03946,25.83773 15.51877,63.62225 13.16207,90.76357 -1.40081,16.13255 -1.94283,18.18001 -10.22816,38.63664 -6.37666,15.74406 -7.18956,18.49 -7.18011,24.2541 0.0151,9.21204 4.95365,17.59341 12.78046,21.6901 7.11079,3.72191 17.7036,3.19561 25.30157,-1.25709 z" />
</svg>
