<?xml version="1.0" encoding="UTF-8" standalone="no"?>
<!-- Created with Inkscape (http://www.inkscape.org/) -->

<svg
   xmlns:dc="http://purl.org/dc/elements/1.1/"
   xmlns:cc="http://creativecommons.org/ns#"
   xmlns:rdf="http://www.w3.org/1999/02/22-rdf-syntax-ns#"
   xmlns:svg="http://www.w3.org/2000/svg"
   xmlns="http://www.w3.org/2000/svg"
   xmlns:sodipodi="http://sodipodi.sourceforge.net/DTD/sodipodi-0.dtd"
   xmlns:inkscape="http://www.inkscape.org/namespaces/inkscape"
   id="svg2"
   version="1.1"
   inkscape:version="0.48.3.1 r9886"
   width="400"
   height="400"
   sodipodi:docname="Icon.5_86.png">
  <metadata
     id="metadata8">
    <rdf:RDF>
      <cc:Work
         rdf:about="">
        <dc:format>image/svg+xml</dc:format>
        <dc:type
           rdf:resource="http://purl.org/dc/dcmitype/StillImage" />
        <dc:title></dc:title>
      </cc:Work>
    </rdf:RDF>
  </metadata>
  <defs
     id="defs6" />
  <sodipodi:namedview
     pagecolor="#ffffff"
     bordercolor="#666666"
     borderopacity="1"
     objecttolerance="10"
     gridtolerance="10"
     guidetolerance="10"
     inkscape:pageopacity="0"
     inkscape:pageshadow="2"
     inkscape:window-width="1855"
     inkscape:window-height="1056"
     id="namedview4"
     showgrid="false"
     inkscape:zoom="0.59"
     inkscape:cx="200"
     inkscape:cy="-53.746142"
     inkscape:window-x="65"
     inkscape:window-y="24"
     inkscape:window-maximized="1"
     inkscape:current-layer="svg2" />
  <path
     style="fill:#000000"
     d="m 0,0 400,0 0,400 -400,0 z"
     id="rect3038"
     inkscape:connector-curvature="0" />
  <path
     id="path2989"
     style="fill:#ffffff"
     d="m 137.75483,116.38697 c 11.83361,-4.28926 25.82167,-7.78728 39.74517,-9.93914 13.16757,-2.03503 40.96303,-1.55467 54.35388,0.93935 18.22462,3.39429 36.38313,9.38029 53.07271,17.49557 4.63462,2.25357 8.62664,3.89736 8.87115,3.65285 0.2445,-0.24451 -1.01491,-3.05255 -2.79871,-6.24008 -12.72439,-22.737694 -33.10431,-40.067836 -56.54644,-48.084477 -12.35838,-4.226266 -21.77141,-5.489336 -36.85463,-4.945274 -16.73602,0.60368 -25.45978,2.646723 -39.30366,9.204629 -16.10752,7.630203 -29.77262,18.933273 -39.68702,32.827062 C 114.65219,116.84002 109,126.85888 109,128.32697 c 0,0.29508 4.3875,-1.51593 9.75,-4.02447 5.3625,-2.50854 13.91468,-6.07053 19.00483,-7.91553 z m 209.21783,34.04451 c 1.10126,-7.66232 2.68771,-21.80648 3.52545,-31.43148 1.701,-19.543227 4.15876,-88.676463 3.18708,-89.648142 -0.34303,-0.343031 -9.75003,0.567616 -20.90444,2.023659 C 298.60918,35.83611 267.83519,38.23896 227.25,39.615418 l -20.25,0.686784 0,7.668826 0,7.668826 8.90921,1.186181 c 28.24669,3.76079 52.93494,17.040452 71.96597,38.710055 9.67896,11.02091 17.54152,24.72312 21.73759,37.88245 1.78197,5.58845 2.35502,6.25773 10.27454,12 4.61302,3.3448 12.03014,9.08934 16.48249,12.76564 4.45234,3.6763 8.20889,6.57047 8.34788,6.43148 0.13898,-0.13899 1.15373,-6.52187 2.25498,-14.18418 z M 65.658606,158.66274 C 70.521373,154.62725 78.1,148.81424 82.5,145.74495 90.218774,140.36058 90.584327,139.92424 92.898848,133.3322 107.32907,92.233212 142.31995,63.427899 185.75,56.894963 l 8.25,-1.241001 0,-7.679016 0,-7.679016 -20.75,-0.689214 C 133.7305,38.294071 96.425414,35.355883 64.5,31.041453 56.25,29.92654 48.738079,29.011113 47.806842,29.007169 c -1.55621,-0.0066 -1.65441,1.873377 -1.214094,23.242831 0.532473,25.84205 1.952301,55.02477 3.417875,70.25 1.639535,17.03243 5.348509,43.5 6.095776,43.5 0.390947,0 4.68944,-3.30177 9.552207,-7.33726 z M 262,212.81067 c 11.8306,-4.28549 25.41199,-10.72094 35.74167,-16.93595 9.04213,-5.44034 25.2736,-16.81977 31.04131,-21.7622 l 3.28297,-2.81323 -5.28297,-4.45361 c -12.91448,-10.88706 -33.52598,-24.08416 -48.2121,-30.86917 -10.7451,-4.96425 -23.08791,-9.7313 -27.45625,-10.60419 l -3.38538,-0.67647 4.55686,5.59459 c 9.1698,11.25804 13.85639,25.22724 13.79386,41.11497 -0.0579,14.70619 -3.73784,25.72616 -12.8163,38.37965 -6.18612,8.62217 -6.45582,8.52877 8.73633,3.02561 z M 151.16766,212.25 c -5.42081,-6.5164 -9.57608,-14.34599 -12.33909,-23.25 -2.98732,-9.62685 -3.19714,-26.2986 -0.44614,-35.44772 2.46726,-8.20544 6.99597,-16.99291 12.23296,-23.73673 l 4.41432,-5.68446 -2.9606,0.84909 c -21.9631,6.29893 -55.823189,24.69651 -75.009872,40.75596 -3.057581,2.55922 -5.784238,4.83247 -6.059238,5.05167 -1.25401,0.99953 20.319154,17.05744 32.99699,24.56119 11.13286,6.5893 24.04052,12.77826 36.00301,17.2627 15.19018,5.69442 16.17894,5.6624 11.16766,-0.3617 z m 56.05129,-22.29401 C 215.26516,187.72134 221,179.83622 221,171.00772 c 0,-6.09302 -1.72027,-10.50799 -5.61,-14.39772 -8.28155,-8.28155 -22.93189,-7.47697 -29.69396,1.63077 -6.23245,8.39439 -6.0079,17.91763 0.59993,25.44354 5.57272,6.34698 12.82475,8.52078 20.92298,6.27168 z M 193.5,202.59427 c -6.77598,-1.67454 -10.36234,-3.6919 -15.24703,-8.57659 -16.8593,-16.8593 -10.67047,-45.70786 11.59994,-54.07183 7.66244,-2.87775 18.53778,-2.44589 25.62101,1.0174 15.31759,7.48941 22.46822,25.50423 16.46712,41.48617 -4.01261,10.68626 -13.30414,18.34369 -24.93462,20.54936 -6.33528,1.20146 -7.10063,1.17854 -13.50642,-0.40451 z m 20.85566,18.82154 c 20.21174,-5.21119 35.87418,-22.97347 38.78663,-43.98673 2.19227,-15.8172 -3.32349,-31.75535 -15.06301,-43.52555 -11.86342,-11.89442 -28.10689,-17.50155 -43.68486,-15.07969 -36.4986,5.67431 -56.17607,44.1743 -39.14187,76.58309 6.22872,11.8506 19.62089,22.45214 32.85978,26.01252 7.21161,1.93945 18.71319,1.93785 26.24333,-0.004 z m 1.91415,50.09977 c 31.75347,-4.78628 58.90248,-23.71641 74.21703,-51.74912 l 3.6786,-6.73353 -3.83272,1.59753 c -2.108,0.87864 -5.97368,2.68056 -8.59041,4.00428 -6.84228,3.46126 -22.1617,8.86493 -33.47871,11.80904 -16.67433,4.33782 -28.39556,5.78362 -46.7636,5.76823 -30.33966,-0.0254 -54.55386,-5.49522 -83.25,-18.80553 -5.0875,-2.35977 -9.25,-3.97194 -9.25,-3.58261 0,1.40649 7.93054,14.23738 12.29477,19.89181 18.42044,23.8661 48.07829,38.52627 79.20523,39.15193 3.3,0.0663 10.39641,-0.54208 15.76981,-1.35203 z M 218,363.17761 c 63.2061,-40.5469 101.54917,-93.59824 119.99052,-166.01847 2.2886,-8.98747 4.00822,-16.49374 3.82137,-16.68059 -0.18686,-0.18685 -2.80847,1.71204 -5.82581,4.21975 -3.01735,2.50771 -9.76108,7.6022 -14.98608,11.3211 l -9.5,6.76162 -2.74248,7.85949 c -7.82756,22.43247 -25.9726,44.62267 -47.42153,57.99344 -13.52946,8.43394 -32.07191,14.77752 -46.84547,16.02634 L 207,285.29347 l 0,42.41228 c 0,33.65987 0.25796,42.25878 1.25,41.66846 0.6875,-0.40911 5.075,-3.19758 9.75,-6.1966 z m -24,-35.53952 0,-42.3619 -6.75,-0.68624 c -42.02169,-4.27214 -80.8079,-35.89823 -94.6167,-77.14998 -1.479613,-4.42013 -2.520716,-5.54197 -9.893463,-10.66069 -4.53191,-3.1464 -11.822219,-8.63902 -16.200686,-12.20582 -4.378467,-3.5668 -8.124859,-6.32109 -8.325315,-6.12063 C 57.378729,179.28794 64.668154,206.62604 69.558604,221 87.240887,272.97158 113.51605,310.52078 156,344.53129 165.71454,352.30826 191.48844,370 193.10364,370 193.61801,370 194,351.94739 194,327.63809 z" />
</svg>
