<?xml version="1.0" encoding="UTF-8" standalone="no"?>
<!-- Created with Inkscape (http://www.inkscape.org/) -->

<svg
   xmlns:dc="http://purl.org/dc/elements/1.1/"
   xmlns:cc="http://creativecommons.org/ns#"
   xmlns:rdf="http://www.w3.org/1999/02/22-rdf-syntax-ns#"
   xmlns:svg="http://www.w3.org/2000/svg"
   xmlns="http://www.w3.org/2000/svg"
   xmlns:sodipodi="http://sodipodi.sourceforge.net/DTD/sodipodi-0.dtd"
   xmlns:inkscape="http://www.inkscape.org/namespaces/inkscape"
   id="svg2"
   version="1.1"
   inkscape:version="0.48.3.1 r9886"
   width="400"
   height="400"
   sodipodi:docname="Icon.6_96.png">
  <metadata
     id="metadata8">
    <rdf:RDF>
      <cc:Work
         rdf:about="">
        <dc:format>image/svg+xml</dc:format>
        <dc:type
           rdf:resource="http://purl.org/dc/dcmitype/StillImage" />
        <dc:title></dc:title>
      </cc:Work>
    </rdf:RDF>
  </metadata>
  <defs
     id="defs6" />
  <sodipodi:namedview
     pagecolor="#ffffff"
     bordercolor="#666666"
     borderopacity="1"
     objecttolerance="10"
     gridtolerance="10"
     guidetolerance="10"
     inkscape:pageopacity="0"
     inkscape:pageshadow="2"
     inkscape:window-width="1855"
     inkscape:window-height="1056"
     id="namedview4"
     showgrid="false"
     inkscape:zoom="0.59"
     inkscape:cx="200"
     inkscape:cy="200"
     inkscape:window-x="65"
     inkscape:window-y="24"
     inkscape:window-maximized="1"
     inkscape:current-layer="svg2" />
  <path
     style="fill:#000000"
     d="m 0,0 400,0 0,400 -400,0 z"
     id="rect3020" />
  <path
     id="path2989"
     style="fill:#ffffff"
     d="m 188.32423,227.42294 c -5.93705,-2.18972 -13.20269,-8.96648 -15.95864,-14.88484 -3.09824,-6.65342 -3.22632,-17.03394 -0.29041,-23.5381 1.83925,-4.07465 9.38888,-13 10.99623,-13 0.36025,0 3.95605,7.2 7.99065,16 4.03461,8.8 7.59394,16 7.90962,16 0.31568,0 3.7137,-6.96662 7.55114,-15.48137 3.83745,-8.51476 7.4514,-15.48976 8.03101,-15.5 1.70333,-0.0301 7.08265,6.11756 9.60889,10.98137 1.87993,3.61947 2.33728,6.0654 2.33728,12.5 0,6.99099 -0.37257,8.6726 -2.95395,13.33272 -3.25878,5.88301 -6.70777,9.18358 -12.92958,12.37316 -5.37256,2.75422 -16.48028,3.36065 -22.29224,1.21706 z m 22.57224,86.70789 C 215.90341,308.42779 220,303.33585 220,302.81541 c 0,-0.52044 -2.94477,-13.81578 -6.54392,-29.54518 -3.59916,-15.72941 -6.346,-29.11471 -6.1041,-29.7451 0.24191,-0.6304 2.39918,-1.72792 4.79393,-2.43893 2.39475,-0.71101 4.82345,-1.67408 5.39712,-2.14015 0.69486,-0.56453 2.65111,6.22948 5.86046,20.35328 2.64959,11.66037 5.93663,26.02687 7.30455,31.92556 l 2.48712,10.72489 11.15242,3.46209 c 6.13383,1.90415 12.29506,3.74042 13.69161,4.08061 2.5294,0.61613 2.55351,0.55785 6.25035,-15.10786 3.13107,-13.2682 3.50301,-15.97321 2.37953,-17.3055 -0.73239,-0.86851 -9.79389,-11.40755 -20.13666,-23.42007 l -18.80505,-21.84096 2.43234,-2.43233 2.43233,-2.43233 19.45398,9.40186 c 33.88333,16.37537 53.52435,23.14293 70.53683,24.30433 15.60131,1.06507 25.43127,-2.58706 35.11451,-13.04613 6.44205,-6.95818 6.47131,-6.92031 -6.19735,-8.02131 -23.22258,-2.01821 -50.59985,-8.18728 -74.5,-16.78747 -11.34953,-4.084 -23.12917,-9.00887 -22.66301,-9.47503 0.20705,-0.20705 6.85343,0.57165 14.76973,1.73044 8.76934,1.28366 22.01259,2.30943 33.89328,2.62526 16.95322,0.45066 20.75964,0.25708 29.14473,-1.48219 18.07109,-3.74837 29.03047,-11.39603 36.38367,-25.38919 2.01185,-3.82856 3.47846,-7.14048 3.25912,-7.35981 -0.21933,-0.21934 -4.02973,0.46844 -8.46755,1.52838 -26.15162,6.24614 -49.32234,8.47248 -79.28218,7.61776 -37.33615,-1.06516 -37.43945,-1.11982 -11.53779,-6.10514 25.32563,-4.87445 38.29904,-8.23828 51,-13.22358 23.75158,-9.32282 38.03398,-22.62667 42.94381,-40.00152 3.34538,-11.8386 3.32653,-11.86745 -4.6498,-7.11745 -29.58308,17.61707 -61.07292,30.67094 -92.7064,38.43073 -7.43648,1.82419 -13.63303,3.20455 -13.77012,3.06746 -0.13708,-0.13709 7.9479,-4.66994 17.96663,-10.07301 34.75545,-18.7435 53.71232,-32.41296 65.98113,-47.57782 7.29337,-9.01497 11.51992,-17.896242 13.32504,-28 1.40213,-7.848125 1.83745,-17 0.80863,-17 -0.33059,0 -6.74309,6.212723 -14.25,13.806052 -30.89722,31.252928 -62.59056,54.393718 -99.59938,72.722208 -8.22275,4.07228 -15.11843,7.23618 -15.32373,7.03088 -0.20531,-0.2053 0.43668,-1.8776 1.42663,-3.71621 2.80719,-5.21371 2.5456,-17.99793 -0.48788,-23.84293 -7.43065,-14.31762 -23.61574,-20.30547 -37.94399,-14.0378 -6.68076,2.9224 -13.49701,10.34328 -15.76077,17.15884 -2.03807,6.13603 -1.64799,15.84679 0.83518,20.79129 0.94253,1.87678 1.59112,3.5349 1.44131,3.68472 -0.47183,0.47182 -15.05767,-6.12337 -22.29636,-10.08161 C 112.48186,127.2125 87.885437,108.83172 58,78.688251 L 44.5,65.071692 43.809837,68.285846 c -0.985332,4.588785 0.942043,17.219999 3.661042,23.992944 4.057159,10.10626 8.760162,16.6566 19.075335,26.56812 C 80.913837,132.6523 97.59805,143.67187 131,161.41726 c 6.875,3.65247 11.375,6.41176 10,6.13176 -34.72143,-7.07058 -71.419671,-21.24808 -102.463944,-39.58453 -4.783333,-2.8253 -8.975556,-4.85832 -9.316052,-4.51783 -1.144927,1.14493 1.739196,11.99698 4.930878,18.55334 7.252606,14.89833 22.907235,25.85276 49.407189,34.57299 11.89846,3.91538 53.707179,13.17656 61.244919,13.56655 9.21957,0.47701 -21.88957,2.68722 -38.80299,2.75683 -28.04789,0.11545 -59.54175,-3.71555 -78.386168,-9.53509 -1.640798,-0.50672 -1.795747,-0.21036 -1.191097,2.27811 1.188902,4.893 6.848855,13.36476 12.228693,18.30379 5.917215,5.43238 13.69666,9.40033 23.211726,11.83927 10.289103,2.63735 45.772386,2.31899 65.593476,-0.5885 8.22614,-1.20667 15.42614,-2.17293 16,-2.14723 1.65359,0.074 -15.92917,7.28572 -27.4571,11.26171 -21.370495,7.37068 -49.493642,13.4951 -69.99953,15.24389 -13.579565,1.1581 -13.497937,1.01871 -5.36145,9.1552 8.191768,8.19176 14.782362,11.25827 25.86302,12.03366 17.806992,1.24608 39.46863,-5.43057 77.43043,-23.86597 l 20.43201,-9.9224 2.60336,2.85032 2.60335,2.85031 -19.73838,23.09376 -19.73839,23.09377 4.04729,14.82951 c 2.22602,8.15624 4.18565,14.97279 4.35475,15.14791 0.36566,0.37866 27.57022,-7.55127 28.25511,-8.23616 0.25992,-0.25992 3.23577,-13.73576 6.61299,-29.94632 3.37723,-16.21057 6.40038,-29.73371 6.7181,-30.05144 0.48125,-0.48124 10.81921,2.06344 11.69518,2.87877 0.15256,0.14199 -2.43465,13.25835 -5.74935,29.14746 -3.31469,15.88912 -6.02701,29.65612 -6.02737,30.59334 -3.6e-4,0.93723 4.3309,6.71461 9.62502,12.83862 7.92259,9.16453 9.85051,10.89774 10.89646,9.79596 0.69894,-0.73624 5.36739,-6.00475 10.37434,-11.70779 z" />
</svg>
