<?xml version="1.0" encoding="UTF-8" standalone="no"?>
<!-- Created with Inkscape (http://www.inkscape.org/) -->

<svg
   xmlns:dc="http://purl.org/dc/elements/1.1/"
   xmlns:cc="http://creativecommons.org/ns#"
   xmlns:rdf="http://www.w3.org/1999/02/22-rdf-syntax-ns#"
   xmlns:svg="http://www.w3.org/2000/svg"
   xmlns="http://www.w3.org/2000/svg"
   version="1.1"
   width="512"
   height="512"
   id="svg2">
  <metadata
     id="metadata8">
    <rdf:RDF>
      <cc:Work
         rdf:about="">
        <dc:format>image/svg+xml</dc:format>
        <dc:type
           rdf:resource="http://purl.org/dc/dcmitype/StillImage" />
        <dc:title></dc:title>
      </cc:Work>
    </rdf:RDF>
  </metadata>
  <defs
     id="defs6" />
  <path
     d="m 0,0 512,0 0,512 -512,0 z"
     id="rect3028"
     style="fill:#000000;fill-opacity:1;fill-rule:nonzero;stroke:none" />
  <path
     d="m 242.03533,237.90601 c -2.87795,-1.95614 -4.4249,-2.29944 -8.78455,-1.94946 -3.19027,0.25611 -6.36701,1.22644 -8,2.4436 -8.49323,6.33048 -8.50993,19.27668 -0.033,25.59486 3.67695,2.74058 11.60141,3.39874 15.65889,1.30054 2.91881,-1.50938 3.17243,-2.04428 3.25321,-6.86132 0.0482,-2.87338 0.44255,-7.47432 0.87637,-10.22432 1.1124,-7.05146 0.94133,-7.64476 -2.9709,-10.3039 z m 58.2977,-20.76182 c -2.38157,-8.56205 -6.89114,-17.12632 -10.13829,-19.25393 -2.20336,-1.4437 -2.67345,-1.41398 -5.94744,0.37602 -7.34403,4.01523 -15.34742,19.76462 -19.44512,38.26484 -2.88652,13.03202 -3.12466,41.02726 -0.4396,51.67879 3.2446,12.87123 9.07709,22.5 13.62904,22.5 6.14758,0 16.91009,-17.14513 21.0416,-33.52015 3.30207,-13.08758 3.89163,-19.1113 3.57036,-36.47985 -0.23328,-12.61178 -0.76833,-18.16503 -2.27055,-23.56572 z m 47.45922,36.13076 c -5.97463,-0.78375 -23.38856,-2.56504 -25.07584,-2.56504 -1.03009,0 -1.68172,2.4666 -2.44367,9.25 -0.57146,5.0875 -0.8766,9.418 -0.67809,9.62333 0.35002,0.36205 24.30595,3.05968 27.56843,3.10444 1.24481,0.0171 1.7801,-1.38549 2.30734,-6.04566 0.37758,-3.33733 1.08218,-7.04983 1.56578,-8.25 1.54896,-3.84406 1.10347,-4.54678 -3.24395,-5.11707 z m 43.56138,54.71577 c -8.03441,1.53587 -21.54298,-3.09267 -29.38089,-10.06699 l -4.5695,-4.06604 -18.9305,1.90582 c -10.41177,1.0482 -19.96955,1.91494 -21.23951,1.92611 -1.3253,0.0116 -2.03792,0.45892 -1.6727,1.04986 0.34997,0.56627 8.72152,7.79882 18.60344,16.07234 15.5187,12.99284 17.87751,15.33952 17.30946,17.22043 -1.16075,3.8434 -9.54855,24.15447 -10.25202,24.82527 -0.37354,0.35619 -16.20416,1.16264 -35.17916,1.79211 -18.975,0.62948 -36.47759,1.38788 -38.89464,1.68535 l -4.39465,0.54086 29.89465,16.52089 c 16.44205,9.08649 30.05128,16.6683 30.24273,16.84846 0.34762,0.32712 -6.03342,11.90571 -11.30875,20.52009 l -2.78965,4.55536 -35.62485,1.73356 c -46.06813,2.24173 -54.39436,2.80997 -53.4238,3.64601 0.43943,0.37852 14.86146,6.90938 32.04896,14.51304 17.1875,7.60365 31.25,14.11955 31.25,14.47977 0,1.66027 -17.92413,17.96838 -20.55062,18.6978 -1.62216,0.4505 -8.79938,0.79126 -15.94938,0.75724 -13.79805,-0.0656 -25.67603,-2.43444 -32.24811,-6.43116 -3.79406,-2.3073 -6.41646,-8.95495 -8.62731,-21.86973 -6.65194,-38.85781 1.10644,-87.77316 22.95994,-144.75876 2.97852,-7.76682 5.41548,-14.3458 5.41548,-14.61994 0,-0.27415 -1.96041,-0.71942 -4.35648,-0.98949 -8.8192,-0.99405 -22.26879,-9.86232 -24.20391,-15.95935 -0.3789,-1.19379 -1.55347,-1.80972 -3.45113,-1.80972 -3.57173,0 -50.34862,5.0268 -50.77866,5.45685 -0.17203,0.17203 8.82288,6.7272 19.9887,14.56705 11.16581,7.83984 20.69867,14.61136 21.18411,15.04782 0.49666,0.44653 -1.03389,6.6864 -3.5,14.26906 -4.20484,12.92884 -4.50433,13.4968 -7.38263,14.00041 -1.65,0.2887 -17.0625,1.32536 -34.25,2.3037 -17.1875,0.97834 -31.24633,2.02097 -31.24185,2.31696 0.004,0.29598 13.16699,7.69144 29.25,16.43435 16.08302,8.74291 29.38929,16.01535 29.56949,16.16098 0.18021,0.14562 -0.38229,5.04346 -1.25,10.88407 -0.8677,5.84061 -1.57764,13.01303 -1.57764,15.9387 l 0,5.31941 -9.75,0.60924 c -5.3625,0.33508 -21,1.14429 -34.75,1.79823 -13.75,0.65395 -25.56514,1.4793 -26.25586,1.83411 -0.69073,0.35482 15.28427,7.95079 35.5,16.87992 l 36.75586,16.2348 2.63182,8.22217 c 1.44751,4.52219 2.55515,8.31453 2.46143,8.42741 -0.0937,0.11289 -10.50304,1.79006 -23.13183,3.72706 -27.78445,4.26156 -29.76181,4.60183 -29.3136,5.04448 0.54262,0.53588 93.42604,27.23495 101.35218,29.13338 8.54571,2.04683 26.9015,2.26035 37.5,0.43622 10.8072,-1.86006 24.36157,-6.51482 31.40297,-10.78423 21.41115,-12.9822 46.33118,-47.66618 67.41726,-93.83211 9.91848,-21.71555 29.99913,-73.88547 30.13704,-78.29662 0.0297,-0.9494 -0.77803,-1.20968 -2.64589,-0.85261 z m 10.18526,-96.78081 C 394.76197,168.22118 384.36713,126.96343 372.89806,97.532661 358.57639,60.781868 342.59864,38.903688 322.54012,28.578018 c -9.52838,-4.905 -21.39926,-9.08572 -30.49787,-10.74083 -14.47135,-2.63247 -17.99101,-2.46307 -72.65409,3.49671 -29.34025,3.19889 -53.34591,6.06137 -53.34591,6.36108 0,0.2997 11.27351,4.29265 25.05224,8.87321 13.77873,4.58056 24.89731,8.62382 24.70796,8.98501 -0.18935,0.3612 -1.90036,3.83768 -3.80224,7.72551 l -3.45796,7.0688 -39.19525,9.9312 c -21.55739,5.46217 -38.88239,10.21564 -38.5,10.56327 0.38239,0.34763 15.99525,4.1031 34.69525,8.345488 18.7,4.24239 34.05594,7.782965 34.12432,7.867945 0.0684,0.085 -0.23628,2.629502 -0.677,5.654499 -0.44072,3.025 -0.84044,10.225 -0.88825,16 l -0.0869,10.5 -32.23607,9.40209 c -17.72983,5.17116 -32.59905,9.71915 -33.04271,10.10666 -0.80648,0.7044 3.14444,1.82198 45.30665,12.81563 l 22.5,5.86679 1.10646,8.90442 c 0.60855,4.89742 1.63038,11.33258 2.27074,14.30034 0.64035,2.96776 1.04245,5.48762 0.89354,5.59969 -0.14891,0.11207 -10.27705,4.41759 -22.50698,9.56783 -12.22994,5.15024 -21.90494,9.63974 -21.5,9.97668 0.94805,0.78886 43.52097,15.96016 44.78328,15.95898 0.52413,-4.9e-4 2.75296,-1.8693 4.95296,-4.15291 5.92291,-6.14803 13.26577,-9.22629 23.06843,-9.67072 l 8.06842,-0.3658 -1.7923,-8.15484 c -2.65655,-12.08709 -6.60008,-38.3963 -7.92891,-52.89756 -1.53591,-16.76124 -0.67169,-55.98118 1.51509,-68.757274 3.34273,-19.529688 10.8189,-41.554278 16.00336,-47.145488 5.85095,-6.30999 36.12419,-6.56711 50.74499,-0.43099 2.29141,0.96167 5.33574,3.71894 8.07134,7.31027 5.86059,7.69383 11.02383,15.33987 10.59597,15.69118 -0.19051,0.15642 -15.53389,4.0555 -34.09639,8.6646 -18.5625,4.60911 -33.74864,8.612 -33.74699,8.89531 0.002,0.28332 19.44698,4.907938 43.21182,10.276938 23.76485,5.368995 43.55782,10.110824 43.98438,10.537384 1.10033,1.10033 8.75155,21.62714 9.0515,24.28347 0.23165,2.05158 -1.8556,2.88316 -29.50071,11.75323 -16.36254,5.24999 -29.75004,9.81491 -29.75004,10.14426 0,0.32935 16.0194,4.83104 35.59867,10.00376 31.50617,8.32372 35.69628,9.66165 36.44768,11.63799 1.04092,2.73782 6.11436,26.56181 5.72993,26.90676 -0.15195,0.13635 -10.33746,5.27449 -22.63446,11.4181 -12.297,6.1436 -22.197,11.31739 -22,11.4973 0.197,0.1799 11.34785,3.58644 24.77966,7.57008 l 24.42148,7.24298 5.44632,-1.71681 c 6.76709,-2.13313 17.2248,-2.20757 24.08133,-0.17139 l 5.20395,1.5454 -0.52781,-3.20717 c -0.29029,-1.76394 -1.66284,-10.40717 -3.05011,-19.20717 z m 5.95563,49.73153 c -5.5507,-13.28471 -23.68272,-16.8485 -33.79512,-6.64231 -4.53965,4.58174 -6.07332,8.34711 -6.07332,14.91078 0,6.56367 1.53367,10.32904 6.07332,14.91078 10.06608,10.15943 28.0435,6.74082 33.74987,-6.41792 1.97251,-4.54857 1.9929,-12.09995 0.0453,-16.76133 z"
     id="path2989"
     style="fill:#ffffff" />
</svg>
