<?xml version="1.0" encoding="UTF-8" standalone="no"?>
<!-- Created with Inkscape (http://www.inkscape.org/) -->

<svg
   xmlns:dc="http://purl.org/dc/elements/1.1/"
   xmlns:cc="http://creativecommons.org/ns#"
   xmlns:rdf="http://www.w3.org/1999/02/22-rdf-syntax-ns#"
   xmlns:svg="http://www.w3.org/2000/svg"
   xmlns="http://www.w3.org/2000/svg"
   version="1.1"
   width="512"
   height="512"
   id="svg2">
  <metadata
     id="metadata8">
    <rdf:RDF>
      <cc:Work
         rdf:about="">
        <dc:format>image/svg+xml</dc:format>
        <dc:type
           rdf:resource="http://purl.org/dc/dcmitype/StillImage" />
        <dc:title></dc:title>
      </cc:Work>
    </rdf:RDF>
  </metadata>
  <defs
     id="defs6" />
  <path
     d="m 0,0 512,0 0,512 -512,0 z"
     id="rect3038"
     style="fill:#000000;fill-opacity:1;fill-rule:nonzero;stroke:none" />
  <path
     d="m 141.60889,83.523508 c 8.76507,-2.602948 13.87291,-10.18596 13.19297,-19.586074 -0.98104,-13.56262 -15.12663,-21.83136 -27.28152,-15.947279 -16.03731,7.763527 -13.37592,31.892711 3.97966,36.081132 4.43669,1.070706 4.70844,1.055979 10.10889,-0.547779 z M 53.955623,133.02264 C 61.161585,129.34643 65.03906,120.59792 62.940772,112.75 61.307332,106.64068 54.532295,100.35233 48.62998,99.467221 33.492863,97.19727 22.703759,113.28693 30.473116,126.54434 c 4.527644,7.72584 15.242766,10.6819 23.482507,6.4783 z M 224.7041,146.39255 c 16.21089,-7.77115 19.70513,-29.91665 6.76257,-42.85922 -10.14726,-10.147256 -27.52577,-10.482655 -37.80992,-0.72972 -7.97857,7.56647 -10.62536,21.83677 -5.78937,31.21376 7.34641,14.24468 22.39256,19.29939 36.83672,12.37518 z m 119.38435,93.42437 c 12.98472,-6.23446 21.4614,-17.21605 24.02386,-31.12307 3.29074,-17.85946 -6.79222,-36.91163 -23.79726,-44.96595 C 337.92092,160.69936 336.82061,160.5 326.5,160.5 c -10.25327,0 -11.44906,0.21277 -17.61501,3.13429 -16.83171,7.97512 -27.10118,26.96085 -24.03378,44.43257 2.34155,13.33737 10.90545,25.20433 22.40294,31.04369 7.86149,3.99271 11.88599,4.84797 21.3343,4.53385 6.89439,-0.22921 9.18258,-0.79424 15.5,-3.82748 z m -244.08203,4.18186 c 11.36855,-2.156 21.90793,-10.31094 26.78978,-20.72886 2.34402,-5.00214 2.7037,-7.03405 2.70305,-15.26992 -6.1e-4,-7.76085 -0.41601,-10.40076 -2.26912,-14.42034 -11.35332,-24.62659 -42.579405,-30.01127 -60.67737,-10.4633 -6.971509,7.53006 -9.767247,14.65265 -9.767247,24.88364 0,17.02409 10.723033,30.95874 27.238731,35.39691 6.682655,1.79579 9.188974,1.89018 15.982176,0.60187 z m 321.60551,83.49026 c 6.13395,-3.00106 11.78988,-8.91549 14.69501,-15.36664 3.16764,-7.03405 2.98501,-17.95319 -0.42018,-25.1224 -3.13051,-6.59091 -8.52442,-12.14772 -14.7869,-15.23348 -6.58447,-3.24441 -20.69777,-3.24085 -26.82206,0.007 -6.27447,3.32728 -10.53518,7.45751 -13.8314,13.40785 -2.64963,4.78311 -2.9464,6.22537 -2.9464,14.31885 0,7.33312 0.41978,9.85193 2.26652,13.59986 7.6571,15.5399 26.35317,21.96883 41.84541,14.38918 z m -226.07203,45.9793 c 9.36943,-2.40782 16.37597,-6.42689 23.70364,-13.59683 17.60124,-17.22235 20.41133,-43.62348 6.87276,-64.57027 -6.98067,-10.80046 -18.40634,-18.74247 -31.35603,-21.79567 -32.09736,-7.56772 -62.79704,16.85857 -62.7484,49.92593 0.0212,14.39106 4.75596,26.20758 14.48813,36.15775 12.6496,12.93295 31.71978,18.33012 49.0399,13.87909 z m 275.24222,36.97861 c 17.50621,-7.31276 17.50621,-32.58114 0,-39.8939 -14.31168,-5.97833 -29.92498,4.42895 -29.92498,19.94695 0,8.60398 4.60153,16.01414 12.29982,19.80727 4.23653,2.08743 12.79992,2.1553 17.62516,0.13968 z m -164.18994,45.52134 c 14.92205,-5.13394 24.9043,-17.14336 27.66994,-33.28907 C 337.049,406.40957 326.97674,388.21136 311,380.64998 c -8.84497,-4.18609 -21.63411,-4.9198 -30.10528,-1.72713 -20.7259,7.81131 -31.89157,28.40822 -26.39939,48.69797 6.17481,22.81158 30.19626,35.88237 52.09685,28.34747 z m 93.17629,28.48398 c 10.32717,-4.31497 14.93895,-15.8952 10.35187,-25.99364 -6.76995,-14.90399 -27.37231,-14.86259 -34.678,0.0697 -2.24324,4.585 -2.5974,6.33831 -2.07078,10.25133 1.69521,12.59589 14.93991,20.45965 26.39691,15.67261 z m 82.08014,-8.11633 C 462.51109,451.88098 438.63845,422.81295 435.99235,420.5 c -1.25845,-1.1 -4.7889,-5.36342 -7.84544,-9.47428 -3.05655,-4.11085 -7.05671,-9.13388 -8.88925,-11.16228 l -3.3319,-3.68801 11.93944,-26.08772 C 434.4319,355.73947 439.68441,344 439.53746,344 c -0.14696,0 -4.2655,3.97709 -9.15232,8.83797 -14.44544,14.36875 -26.34451,18.35213 -37.91337,12.69202 -5.37915,-2.63177 -6.21632,-3.66227 -29.12514,-35.85097 -12.97274,-18.22773 -23.76013,-33.5998 -23.97197,-34.16017 -0.21184,-0.56037 6.35165,-11.1219 14.58553,-23.47008 8.23388,-12.34817 14.81173,-22.61019 14.61744,-22.80448 -0.19429,-0.19428 -9.29124,4.73377 -20.21544,10.95123 -19.74819,11.2396 -19.89982,11.30447 -26.41876,11.30215 -9.0284,-0.003 -19.0076,-4.94514 -29.19276,-14.45696 -18.31144,-17.10087 -29.64433,-41.85317 -28.56159,-62.38171 0.54633,-10.35817 2.06245,-13.63346 17.64715,-38.12335 6.63762,-10.4304 11.94934,-19.08342 11.80382,-19.22893 -0.14552,-0.14552 -20.26156,8.4382 -44.70231,19.07494 -35.81394,15.58639 -44.75836,19.12399 -46.08986,18.22893 -0.90867,-0.61083 -7.61925,-6.51059 -14.91239,-13.11059 -7.29314,-6.6 -19.37469,-17.32605 -26.84788,-23.83568 -7.47318,-6.50962 -13.70386,-12.14586 -13.84593,-12.52497 -0.14208,-0.37911 5.63283,-6.86556 12.83314,-14.41432 7.2003,-7.54877 12.71655,-13.714993 12.25832,-13.702725 -0.45823,0.01227 -10.71515,2.68664 -22.79317,5.943045 l -21.96003,5.92075 -6.03997,-5.00792 C 91.213009,78.733214 23.04358,25.623086 22.190598,26.476068 c -0.508559,0.50856 23.381108,31.95756 43.676032,57.496301 18.256118,22.973151 21.142515,27.878621 21.111408,35.879181 -0.04598,11.82542 -6.33992,19.71399 -23.478038,29.4264 -4.149445,2.35155 -4.489667,2.73639 -2,2.26226 10.346877,-1.97045 49.28521,-8.53416 50.64401,-8.5369 2.03985,-0.004 19.64863,20.12818 25.53868,29.19863 5.20386,8.01372 10.91969,21.02352 12.87206,29.29806 2.11088,8.94636 1.85222,20.93204 -0.60547,28.05583 -1.65296,4.79122 -4.7367,9.14455 -15.89861,22.44417 -7.61633,9.075 -13.71158,16.64442 -13.545,16.82094 0.2547,0.26989 31.74121,-8.75245 72.93409,-20.899 l 9.93976,-2.93094 3.57095,2.47467 c 6.09236,4.22201 44.07043,43.99449 47.13743,49.3646 4.72974,8.28147 7.91523,19.12247 7.88836,26.84605 -0.0323,9.28742 -2.40052,14.57528 -14.8528,33.16396 -5.65192,8.43716 -10.04932,15.5672 -9.77198,15.84453 0.27733,0.27733 13.64223,-6.91172 29.69977,-15.97567 l 29.19552,-16.4799 29.09187,22.63538 c 16.00052,12.44946 30.55054,24.09342 32.33337,25.87547 4.39153,4.38961 7.32799,14.08911 7.32799,24.20528 0,8.72393 -2.37525,19.16384 -6.97186,30.64333 -1.69413,4.23089 -2.92843,7.84434 -2.74288,8.02989 0.18555,0.18555 1.97489,-1.8099 3.97631,-4.43434 5.67904,-7.44685 15.74419,-16.56483 21.23843,-19.23981 6.95693,-3.38712 15.9302,-3.29623 23.5,0.23802 3.025,1.41233 15.4,10.13077 27.5,19.37429 24.61356,18.80299 62.76975,46.50684 63.30968,45.96691 0.19348,-0.19348 -5.63901,-7.92796 -12.96107,-17.18772 z"
     id="path2989"
     style="fill:#ffffff" />
</svg>
