<?xml version="1.0" encoding="UTF-8" standalone="no"?>
<!-- Created with Inkscape (http://www.inkscape.org/) -->

<svg
   xmlns:dc="http://purl.org/dc/elements/1.1/"
   xmlns:cc="http://creativecommons.org/ns#"
   xmlns:rdf="http://www.w3.org/1999/02/22-rdf-syntax-ns#"
   xmlns:svg="http://www.w3.org/2000/svg"
   xmlns="http://www.w3.org/2000/svg"
   version="1.1"
   width="512"
   height="512"
   id="svg2">
  <metadata
     id="metadata8">
    <rdf:RDF>
      <cc:Work
         rdf:about="">
        <dc:format>image/svg+xml</dc:format>
        <dc:type
           rdf:resource="http://purl.org/dc/dcmitype/StillImage" />
        <dc:title></dc:title>
      </cc:Work>
    </rdf:RDF>
  </metadata>
  <defs
     id="defs6" />
  <path
     d="m 0,0 512,0 0,512 -512,0 z"
     id="rect3020"
     style="fill:#000000" />
  <path
     d="m 248.32,454.54548 c -18.58277,-7.3026 -33.11059,-14.94558 -44.44035,-23.37972 l -10.2844,-7.65595 4.4224,-13.02808 c 10.54117,-31.05349 15.57677,-59.33278 16.63665,-93.42913 0.66763,-21.47802 0.96962,-23.96875 2.80691,-23.15028 18.2761,8.14152 37.49487,9.97791 49.09879,4.6915 3.344,-1.52343 6.08,-3.01859 6.08,-3.32258 0,-0.68757 -6.48699,-15.43712 -7.03942,-16.00563 -0.22148,-0.2279 -2.28505,0.55903 -4.58572,1.74876 -3.26168,1.68669 -6.45962,2.03399 -14.51895,1.57679 -16.55795,-0.93933 -27.7845,-6.59236 -72.78554,-36.65056 -26.35897,-17.60634 -57.66222,-36.86068 -64.59037,-39.72894 -2.288,-0.94723 -4.16,-2.18417 -4.16,-2.74875 0,-0.56457 1.50861,-2.81938 3.35247,-5.01067 10.98167,-13.05099 27.66016,-10.22308 62.37064,10.57518 9.04371,5.41892 16.97244,9.85258 17.61939,9.85258 1.3286,0 15.2175,-7.66549 15.2175,-8.39876 0,-0.26091 -0.85062,-2.36593 -1.89029,-4.67781 -2.38712,-5.30825 -29.06492,-127.422497 -28.56204,-130.739107 0.63751,-4.204359 12.84681,-10.117218 21.23136,-10.282157 l 7.22686,-0.142166 9.74297,44.16 c 5.35863,24.288 10.7426,48.624 11.96437,54.08 l 2.22139,9.92 8.78643,0 c 7.28192,0 8.89107,-0.38357 9.3975,-2.24 0.33609,-1.232 4.52421,-27.15041 9.30693,-57.59648 9.74655,-62.045064 7.92562,-56.972411 20.39792,-56.823436 7.6999,0.09197 15.58341,2.890129 16.75666,5.947584 0.43124,1.123793 -3.37474,27.5018 -8.45773,58.617792 -5.083,31.11599 -9.33193,57.67803 -9.44207,59.02673 -0.15802,1.93487 1.4889,2.99994 7.80697,5.04876 4.93328,1.59976 8.41628,2.13255 9.07274,1.38782 0.58603,-0.66482 13.11078,-25.81381 27.83277,-55.88663 29.92177,-61.121636 27.15824,-57.422818 38.92726,-52.101609 5.5122,2.492272 14.08,9.563739 14.08,11.620995 0,0.538635 -11.52,24.885094 -25.6,54.103244 -14.08,29.21815 -25.6,53.71457 -25.6,54.43649 0,2.06849 14.03148,10.87611 15.21384,9.5498 5.92884,-6.65064 69.91986,-74.21842 70.53758,-74.48027 1.68317,-0.71347 11.58615,7.53295 14.62599,12.17937 6.87292,10.50528 9.82789,6.14913 -42.35242,62.43481 -25.92975,27.96979 -48.73571,53.18304 -50.67991,56.02944 -6.47608,9.48122 -8.89625,20.03511 -8.86662,38.66559 0.0394,24.76527 4.9561,51.8103 17.04131,93.73784 2.88811,10.01983 4.93165,19.05038 4.54118,20.06792 -1.39344,3.63126 -25.91229,21.22418 -39.18988,28.11977 -11.92,6.19053 -26.15039,11.71745 -35.91107,13.94747 -2.07512,0.4741 -7.47456,-0.94871 -15.36,-4.04752 z m 22.59281,21.03005 C 326.60666,460.65443 371.07949,422.68887 400.5172,364.93487 434.48785,298.28769 450.49412,210.43523 453.88845,72 l 0.88662,-36.16 -195.59148,0 -195.591461,0 0.828904,36.8 c 2.373043,105.35361 17.584691,192.1574 45.590897,260.16 29.67471,72.05396 74.63041,119.29044 133.94557,140.74118 7.67938,2.77718 14.2505,5.07707 14.6025,5.11088 0.352,0.0338 5.91076,-1.35062 12.35281,-3.07653 z"
     id="path2989"
     style="fill:#ffffff" />
</svg>
