<?xml version="1.0" encoding="UTF-8" standalone="no"?>
<!-- Created with Inkscape (http://www.inkscape.org/) -->

<svg
   xmlns:dc="http://purl.org/dc/elements/1.1/"
   xmlns:cc="http://creativecommons.org/ns#"
   xmlns:rdf="http://www.w3.org/1999/02/22-rdf-syntax-ns#"
   xmlns:svg="http://www.w3.org/2000/svg"
   xmlns="http://www.w3.org/2000/svg"
   version="1.1"
   width="512"
   height="512"
   id="svg2">
  <metadata
     id="metadata8">
    <rdf:RDF>
      <cc:Work
         rdf:about="">
        <dc:format>image/svg+xml</dc:format>
        <dc:type
           rdf:resource="http://purl.org/dc/dcmitype/StillImage" />
        <dc:title></dc:title>
      </cc:Work>
    </rdf:RDF>
  </metadata>
  <defs
     id="defs6" />
  <path
     d="m 0,0 512,0 0,512 -512,0 z"
     id="rect3036"
     style="fill:#000000" />
  <path
     d="m 472.36507,137.92 c 0.0248,-0.88 -1.52168,-22.42693 -3.43658,-47.882074 l -3.48165,-46.282072 -6.48342,-0.738091 c -16.6607,-1.896703 -89.32232,-7.325535 -89.92891,-6.718939 -0.67683,0.67683 1.80539,38.587552 2.87352,43.887133 0.60744,3.013755 2.48348,3.282236 35.36595,5.061208 l 14.95398,0.809026 0.69707,7.851904 c 0.3834,4.318548 1.05388,15.711485 1.48996,25.317645 l 0.79288,17.46574 15.55607,1.21852 c 23.8342,1.86696 31.54875,1.8694 31.60113,0.0102 z M 321.70271,121.8174 356.02765,87.474798 354.41924,66.777399 C 353.53462,55.393829 352.48177,46.08 352.07956,46.08 c -1.68262,0 -105.48712,104.93911 -104.64124,105.785 0.50921,0.50919 8.83589,1.60197 18.50375,2.42838 9.66786,0.8264 18.44594,1.58447 19.50683,1.68459 1.06087,0.1001 17.3751,-15.27214 36.25381,-34.16057 z m 53.23081,53.00913 33.7954,-33.81345 -0.8449,-19.52032 c -0.4647,-10.73617 -0.98871,-19.6512 -1.16447,-19.81116 -0.17575,-0.15997 -9.24755,-0.68313 -20.15955,-1.16258 l -19.84,-0.871725 -33.72892,33.834245 -33.72894,33.83424 1.08894,19.7021 1.08892,19.70212 8.32,0.73907 c 4.576,0.40649 13.50807,0.83849 19.84906,0.96 l 11.52905,0.22093 33.79541,-33.81347 z m 86.48286,-18.47681 c -0.30949,-0.3095 -9.64679,-1.32253 -20.74955,-2.25119 L 420.48,152.41009 386.76461,185.96504 353.04922,219.52 l 0.80439,14.72 c 0.4424,8.096 1.15617,17.79958 1.58613,21.56351 l 0.78175,6.8435 52.87881,-52.86729 c 29.08334,-29.077 52.62558,-53.12051 52.31608,-53.43 z m -121.9569,107.85712 c -0.66443,-10.97798 -2.95592,-38.20994 -3.23905,-38.49307 -0.14976,-0.14978 -11.43401,-0.87401 -25.0761,-1.60944 -13.64208,-0.73542 -24.9379,-1.49175 -25.10181,-1.68073 -0.16392,-0.18898 -0.91314,-11.49821 -1.66495,-25.13162 -0.75182,-13.63341 -1.54033,-24.95169 -1.75225,-25.15173 -0.91566,-0.86435 -43.38721,-3.48503 -44.1481,-2.72414 -1.10804,1.10804 3.32584,57.10801 4.72339,59.65656 1.96574,3.58467 36.65007,37.16526 38.50194,37.27671 0.99959,0.0602 13.91345,1.13208 28.69745,2.38206 14.784,1.24999 27.456,2.15785 28.16,2.01748 0.70865,-0.14132 1.11014,-3.06152 0.89948,-6.54208 z m -47.68421,39.60942 C 292.96349,303.45002 277.7788,287.38767 249.54223,259.14221 225.29366,234.88599 205.01878,215.04 204.48696,215.04 c -0.53182,0 -0.96696,1.31447 -0.96696,2.92105 0,1.60658 -0.82948,6.07058 -1.8433,9.92 l -1.84329,6.99895 36.72329,36.69812 36.7233,36.69813 8.32,-1.94408 c 4.576,-1.06925 9.15488,-2.20141 10.17527,-2.51591 z m -66.79717,-20.52942 -32.14572,-32.23318 -8.68766,8.55318 -8.68768,8.55316 32.20281,32.26071 32.20281,32.2607 8.63058,-8.5807 8.63056,-8.58071 -32.1457,-32.23316 z m 4.1419,81.71656 c 0,-1.21303 0.76809,-5.16656 1.70687,-8.78563 l 1.70685,-6.58014 -37.22685,-37.1479 -37.22687,-37.14791 -6.99895,1.84909 c -3.84942,1.017 -8.02542,1.84909 -9.28,1.84909 -1.25458,0 -2.28105,0.42892 -2.28105,0.95314 0,1.71778 87.4933,88.51778 88.56018,87.85843 0.5719,-0.35346 1.03982,-1.63513 1.03982,-2.84817 z M 153.6,319.42605 c 0,-1.68314 -7.86691,-9.66605 -9.52558,-9.66605 -0.73886,0 -25.96987,24.62149 -56.068902,54.71442 L 33.28,419.18884 l 0,10.88047 0,10.88048 L 93.44,380.8 c 33.088,-33.08238 60.16,-60.70066 60.16,-61.37395 z M 140.47466,420.80539 C 171.62959,389.65636 197.12,363.58336 197.12,362.86538 c 0,-0.71796 -6.91886,-8.20623 -15.37524,-16.64059 L 166.3695,330.8896 99.82475,397.4704 33.28,464.0512 l 0,6.6944 0,6.6944 25.274666,0 25.274666,0 56.645328,-56.63461 z"
     id="path2989"
     style="fill:#ffffff" />
</svg>
