<?xml version="1.0" encoding="UTF-8" standalone="no"?>
<!-- Created with Inkscape (http://www.inkscape.org/) -->

<svg
   xmlns:dc="http://purl.org/dc/elements/1.1/"
   xmlns:cc="http://creativecommons.org/ns#"
   xmlns:rdf="http://www.w3.org/1999/02/22-rdf-syntax-ns#"
   xmlns:svg="http://www.w3.org/2000/svg"
   xmlns="http://www.w3.org/2000/svg"
   xmlns:sodipodi="http://sodipodi.sourceforge.net/DTD/sodipodi-0.dtd"
   xmlns:inkscape="http://www.inkscape.org/namespaces/inkscape"
   id="svg2"
   version="1.1"
   inkscape:version="0.48.3.1 r9886"
   width="400"
   height="400"
   sodipodi:docname="Icon.2_28.png">
  <metadata
     id="metadata8">
    <rdf:RDF>
      <cc:Work
         rdf:about="">
        <dc:format>image/svg+xml</dc:format>
        <dc:type
           rdf:resource="http://purl.org/dc/dcmitype/StillImage" />
        <dc:title></dc:title>
      </cc:Work>
    </rdf:RDF>
  </metadata>
  <defs
     id="defs6" />
  <sodipodi:namedview
     pagecolor="#ffffff"
     bordercolor="#666666"
     borderopacity="1"
     objecttolerance="10"
     gridtolerance="10"
     guidetolerance="10"
     inkscape:pageopacity="0"
     inkscape:pageshadow="2"
     inkscape:window-width="1280"
     inkscape:window-height="970"
     id="namedview4"
     showgrid="false"
     inkscape:zoom="1.18"
     inkscape:cx="268.79893"
     inkscape:cy="56.551193"
     inkscape:window-x="0"
     inkscape:window-y="26"
     inkscape:window-maximized="1"
     inkscape:current-layer="svg2" />
  <rect
     style="fill:#000000;fill-opacity:1;stroke:none"
     id="rect3016"
     width="400"
     height="400"
     x="0"
     y="7.6293945e-06" />
  <path
     id="path2987"
     style="fill:#ffffff"
     d="M 320.39149,51.925055 316.74001,28 235.40039,27.84322 248.30858,67 z M 115.78147,52.201749 132.06294,28.5 l -101.19311,0 17.250473,16 c 9.487761,8.8 18.161694,16.654309 19.275409,17.45402 2.322784,1.667894 29.593966,13.870865 31.104288,13.918162 0.55,0.01722 8.32666,-10.634471 17.28147,-23.670433 z m 24.64222,92.989191 11.71684,-14.30907 -5.47577,-6.19093 C 131.17524,107.17842 134.10465,109.16099 105.66275,96.941566 91.452255,90.836352 79.706123,85.989411 79.56023,86.170588 c -0.287909,0.357536 12.270745,61.054252 12.686728,61.315702 2.319458,1.45783 35.425282,13.17564 35.856462,12.69139 0.33188,-0.37272 5.876,-7.11676 12.32027,-14.98674 z M 355.25,103.23405 371,92.684571 C 371,71.123047 371,49.561524 371,28 c 0,0 -25.12193,0 -37.68289,0 0.85106,12.011285 6.45139,36.564837 6.45139,36.564837 -32.62303,7.779949 -58.7448,11.70018 -93.30771,19.735671 -0.0577,0.10972 -2.63635,8.704727 -5.73038,19.100012 l -5.62552,18.90053 13.19755,15.46412 c 7.25866,8.50527 14.76497,17.35294 16.68069,19.66148 l 3.48312,4.19735 35.51688,-23.92024 C 323.51741,124.54763 346.5875,109.03626 355.25,103.23405 z M 210.34066,147.75 c 2.54546,-8.3875 8.59226,-28.34024 13.43732,-44.33942 L 232.58719,74.321163 225.64328,51.160582 218.69937,28 152.35418,28 133.63181,55.022223 c -10.29731,14.862223 -18.48227,27.410715 -18.18882,27.885538 0.29346,0.474824 6.50134,3.44672 13.79529,6.604214 L 142.5,95.252874 162.83178,118.02214 C 186.07239,144.04897 203.81483,163 204.94119,163 c 0.42425,0 2.85401,-6.8625 5.39947,-15.25 z M 52.5,156.00868 c 12.1,-4.56506 22.184111,-8.45615 22.409136,-8.64687 C 75.38576,146.95786 62.266644,82.30318 61.210376,79.850475 60.529032,78.268364 25.730305,49 25.730305,49 l 0.765458,115.76139 c 0,0 13.904237,-4.18764 26.004237,-8.75271 z m 318.12091,-42.7211 c 0,0 -100.61699,66.71878 -111.91243,74.99008 -3.73534,2.73527 -6.65255,5.39012 -6.4827,5.89968 0.16985,0.50955 26.85104,17.45477 59.29152,37.65603 l 59.43213,36.72956 z m -180.85624,90.16538 c 0,0 -104.466646,-41.92669 -107.007752,-41.28076 -0.70927,0.18029 -13.230343,5.05567 -28.009673,10.3278 l -28.626872,10.21186 c 0.04229,11.54926 0.246847,116.08006 0.246847,116.08006 z M 321.71403,341.787 371,320.574 l 0,-16.18945 0,-16.18946 -55.12826,-34.34754 c -30.32055,-18.89115 -55.2963,-34.23576 -55.50167,-34.09912 -0.47461,0.31578 -30.13564,31.99678 -33.04045,35.29056 -1.9154,2.1719 -2.3648,4.73212 -3.82539,21.79335 -0.91025,10.63279 -1.40318,19.9886 -1.09539,20.79069 1.04903,2.73374 48.02149,65.37697 49.02232,65.37697 0.54829,0 23.17558,-9.54585 50.28287,-21.213 z M 371.04896,339 c 0,0 -18.27413,7.19041 -38.59746,15.97869 L 295.5,370.95738 C 320.66667,370.97159 371,371 371,371 z m -132.73475,8.25 c -9.71813,-13.0625 -21.17615,-28.51752 -25.46226,-34.34449 l -7.79292,-10.59449 1.58808,-17.73792 c 0.8943,-9.98889 1.20906,-18.09342 0.72048,-18.55168 C 206.49289,265.20098 152.86068,250 150.84071,250 c -1.28304,0 -45.81795,25.26881 -45.82359,26 -0.002,0.275 7.71748,10.625 17.15466,23 9.43719,12.375 25.65414,33.6375 36.03768,47.25 L 177.08862,371 c 26.29831,0 52.59662,0 78.89493,0 z m -83.60385,23.98305 c 0,0 -14.52042,-21.63305 -32.10077,-44.73305 -17.58035,-23.1 -32.041967,-42.12 -32.136927,-42.26666 -0.09496,-0.14667 -13.921919,8.20439 -31.311004,17.5 L 25.925959,319.5 25.902649,371 z"
     inkscape:connector-curvature="0"
     sodipodi:nodetypes="cccccsccssssscssssssscccccscsscssssccccscscsssscsccscssscccsscccscccssssssscscccsscssscssccscscsccc" />
</svg>
