<?xml version="1.0" encoding="UTF-8" standalone="no"?>
<!-- Created with Inkscape (http://www.inkscape.org/) -->

<svg
   xmlns:dc="http://purl.org/dc/elements/1.1/"
   xmlns:cc="http://creativecommons.org/ns#"
   xmlns:rdf="http://www.w3.org/1999/02/22-rdf-syntax-ns#"
   xmlns:svg="http://www.w3.org/2000/svg"
   xmlns="http://www.w3.org/2000/svg"
   xmlns:sodipodi="http://sodipodi.sourceforge.net/DTD/sodipodi-0.dtd"
   xmlns:inkscape="http://www.inkscape.org/namespaces/inkscape"
   id="svg2"
   version="1.1"
   inkscape:version="0.48.3.1 r9886"
   width="400"
   height="400"
   sodipodi:docname="Icon.6_58.svg">
  <metadata
     id="metadata8">
    <rdf:RDF>
      <cc:Work
         rdf:about="">
        <dc:format>image/svg+xml</dc:format>
        <dc:type
           rdf:resource="http://purl.org/dc/dcmitype/StillImage" />
        <dc:title></dc:title>
      </cc:Work>
    </rdf:RDF>
  </metadata>
  <defs
     id="defs6" />
  <sodipodi:namedview
     pagecolor="#ffffff"
     bordercolor="#666666"
     borderopacity="1"
     objecttolerance="10"
     gridtolerance="10"
     guidetolerance="10"
     inkscape:pageopacity="0"
     inkscape:pageshadow="2"
     inkscape:window-width="1855"
     inkscape:window-height="1056"
     id="namedview4"
     showgrid="false"
     inkscape:zoom="1.668772"
     inkscape:cx="265.16249"
     inkscape:cy="144.46318"
     inkscape:window-x="65"
     inkscape:window-y="24"
     inkscape:window-maximized="1"
     inkscape:current-layer="svg2" />
  <path
     style="fill:#000000;fill-opacity:1;stroke:none"
     d="m 0,0 400,0 0,400 -400,0 z"
     id="rect3030" />
  <path
     id="path2989"
     style="fill:#ffffff"
     d="m 95.265089,65.778982 c 5.697151,-3.990266 7.347521,-11.621969 3.778914,-17.474648 -5.520519,-9.053911 -16.861972,-9.256323 -22.77407,-0.406451 -8.038679,12.03317 7.056419,26.242947 18.995156,17.881099 z M 299.56628,76.959036 c 1.81629,-1.12253 3.88188,-3.350218 4.5902,-4.950418 1.19586,-2.701632 1.58449,-2.868796 5.44072,-2.340241 15.70531,2.152652 26.93438,-16.200107 18.08956,-29.565531 C 321.40259,30.606832 305.36014,29.306927 297.78814,37.680189 295.48846,40.22322 293,46.349432 293,49.467881 293,51.121578 292.44533,52 291.40113,52 285.41341,52 279,58.939142 279,65.417694 c 0,10.605171 11.57284,17.099594 20.56628,11.541342 z M 39.932475,75 C 44.139538,64.505883 54.529687,44.537416 60.203961,36.040934 L 65.907923,27.5 58.292352,27.205027 c -4.188564,-0.162236 -8.188095,-0.07528 -8.887846,0.193244 -1.858014,0.712987 -11.73943,17.902809 -17.44091,30.340402 L 27.030528,68.5 l 0.03647,21 0.03647,21 5.31204,-15 C 35.33713,87.25 38.719768,78.025 39.932475,75 z M 349.3587,122.10211 c 8.86918,-5.84733 8.6422,-18.41454 -0.42036,-23.274845 -9.1185,-4.890302 -19.95132,1.717045 -19.93175,12.157135 0.0128,6.81883 6.42987,13.00242 13.49341,13.00242 2.24058,0 5.25742,-0.829 6.8587,-1.88471 z M 133.5,143.51327 c 6.60656,-2.71589 11.37788,-9.72852 12.16248,-17.87579 0.41177,-4.27575 0.0203,-6.05898 -2.33386,-10.63129 -10.53664,-20.464511 -40.45638,-12.95996 -40.30666,10.10983 0.022,3.39156 2.7129,10.07218 5.18953,12.88398 6.37131,7.23354 15.99831,9.33237 25.28851,5.51327 z M 82.75914,189.0054 c 6.558232,-3.9986 8.784877,-10.94937 5.634398,-17.58851 -5.898097,-12.42932 -25.36349,-7.85561 -25.386949,5.96508 -0.01742,10.26405 11.17748,16.85172 19.752551,11.62343 z m 281.45437,157.77162 c 4.79243,-12.75083 8.5697,-23.32715 8.39392,-23.50292 -0.17578,-0.17578 -3.21515,0.97955 -6.75418,2.56741 -9.45868,4.24382 -28.72727,10.694 -41.85325,14.01041 -6.325,1.59808 -11.61253,2.81012 -11.75007,2.69343 -0.13754,-0.11669 2.01028,-8.04963 4.77294,-17.62876 7.11712,-24.67764 18.28418,-57.21181 24.67513,-71.88867 3.00036,-6.89036 5.73078,-13.18659 6.0676,-13.99164 0.33682,-0.80504 -3.18515,1.90419 -7.8266,6.02051 -14.41198,12.78143 -32.63616,25.7039 -45.27468,32.10355 -4.9829,2.52314 -5.75728,2.6908 -5.29911,1.14731 0.29512,-0.99421 1.70606,-6.08265 3.13543,-11.30765 14.52003,-53.07745 37.29204,-87.00218 58.3983,-86.99921 5.5365,7.8e-4 13.81752,3.16829 19.85106,7.59308 l 2.25,1.65007 0,-8.63667 0,-8.63667 -3.20304,-1.94788 c -1.76167,-1.07134 -6.4799,-2.72041 -10.48497,-3.6646 -6.14565,-1.44884 -8.25953,-1.53552 -13.54696,-0.55546 -24.34439,4.51236 -45.05623,31.01736 -61.17064,78.28023 l -4.29018,12.58289 -1.12878,-11.58289 c -0.62084,-6.37059 -1.64134,-23.43411 -2.2678,-37.91893 -1.23448,-28.54342 -0.22347,-63.76263 2.65408,-92.4566 0.82608,-8.23737 1.31302,-15.165964 1.0821,-15.396887 -0.23093,-0.230923 -2.76675,6.692257 -5.63516,15.384837 -9.8236,29.7699 -15.202,41.38197 -25.53174,55.12356 -2.55554,3.39962 -4.86285,6.18113 -5.12736,6.18113 -0.72101,0 -13.81433,-27.63958 -16.22478,-34.25 l -2.0967,-5.75 5.33808,0 c 5.89287,0 10.33053,-2.31439 14.0419,-7.32333 2.94931,-3.98044 2.96642,-14.35875 0.0302,-18.29155 -4.93518,-6.61015 -13.34352,-9.12283 -20.5092,-6.12882 l -3.5139,1.4682 -2.78167,-33.880303 c -1.52996,-18.634168 -3.03632,-36.347181 -3.3475,-39.362251 L 214.72019,27 201.8601,27 C 191.79126,27 189,27.290244 189,28.337234 c 0,0.735478 1.10156,7.372978 2.44792,14.75 3.24554,17.783131 7.07198,47.306098 8.93172,68.912766 1.82435,21.19561 2.73344,35.85475 2.13953,34.5 -0.24112,-0.55 -2.46361,-8.425 -4.93887,-17.5 C 187.23298,91.063781 173.87884,57.008571 160.81794,35.25 L 155.86576,27 147.43288,27 C 142.7948,27 139,27.16265 139,27.361444 c 0,0.198794 2.16878,3.686294 4.81951,7.75 16.89749,25.904699 31.70847,63.998263 44.08606,113.388556 4.34151,17.32389 9.22321,39.70455 8.7612,40.16656 -0.15771,0.15771 -4.52139,-2.8286 -9.69707,-6.63626 -5.17568,-3.80765 -9.51132,-6.82201 -9.63476,-6.69858 -0.12343,0.12344 0.18468,2.0118 0.68469,4.19635 3.58991,15.68429 4.46962,26.43271 4.33551,52.97193 -0.075,14.85 -0.52314,29.15701 -0.99578,31.79335 l -0.85936,4.79334 -8.78212,-5.23856 -8.78212,-5.23856 2.56356,-1.55479 c 1.40995,-0.85513 3.47532,-3.43787 4.58969,-5.73943 2.66831,-5.51096 1.79783,-10.36184 -2.6592,-14.81887 -5.83423,-5.83423 -13.07469,-5.78493 -18.98891,0.12929 C 146.5484,238.51826 145,240.95167 145,242.03333 145,243.115 144.60321,244 144.11824,244 142.56276,244 125.59699,225.61225 116.55475,214.1263 111.73724,208.00684 107.63002,203 107.4276,203 c -0.20243,0 1.4769,5.0625 3.73185,11.25 12.18226,33.42767 19.87393,61.4893 24.31683,88.71536 1.38805,8.50595 2.52372,16.50103 2.52372,17.76685 l 0,2.30148 -4.79822,-2.43144 c -6.88373,-3.48825 -19.67271,-13.19793 -30.13,-22.87537 C 94.989888,290.24769 93.007431,287.64047 84.220261,272.93437 67.751186,245.37192 53.489832,224.89338 36.594967,204.54698 L 27.5,193.59396 l -0.282698,10.59122 -0.282697,10.59122 10.782697,14.37683 c 12.514611,16.68604 21.24809,29.70763 32.973515,49.16339 11.565258,19.19 11.427792,18.88327 20.704013,46.19751 l 8.267701,24.34461 -4.743409,0.65238 c -6.824845,0.93866 -18.594636,-1.12771 -31.870728,-5.59539 -6.351617,-2.13745 -11.857379,-3.8929 -12.235027,-3.901 -0.377648,-0.008 3.897352,6.71672 9.5,14.94406 L 70.5,369.91757 l 285,0.0428 8.71351,-23.18333 z"
     inkscape:connector-curvature="0"
     sodipodi:nodetypes="ssssssssssssssscssscccsssssssssssssssssccsssssssssssscccsssscssscsssscsssscsscssssssscsssssscssscccssssssssssscsssscccssscsscscccc" />
</svg>
