<?xml version="1.0" encoding="UTF-8" standalone="no"?>
<!-- Created with Inkscape (http://www.inkscape.org/) -->

<svg
   xmlns:dc="http://purl.org/dc/elements/1.1/"
   xmlns:cc="http://creativecommons.org/ns#"
   xmlns:rdf="http://www.w3.org/1999/02/22-rdf-syntax-ns#"
   xmlns:svg="http://www.w3.org/2000/svg"
   xmlns="http://www.w3.org/2000/svg"
   version="1.1"
   width="512"
   height="512"
   id="svg2">
  <metadata
     id="metadata8">
    <rdf:RDF>
      <cc:Work
         rdf:about="">
        <dc:format>image/svg+xml</dc:format>
        <dc:type
           rdf:resource="http://purl.org/dc/dcmitype/StillImage" />
        <dc:title></dc:title>
      </cc:Work>
    </rdf:RDF>
  </metadata>
  <defs
     id="defs6" />
  <path
     d="m 0,0 512,0 0,512 -512,0 z"
     id="rect3032"
     style="fill:#000000;fill-opacity:1;fill-rule:nonzero;stroke:none" />
  <path
     d="m 248.54198,81.673932 c 12.49997,-6.377011 12.434,-24.913031 -0.11145,-31.313244 -5.2855,-2.696455 -13.32435,-2.218292 -18.2031,1.08275 -3.90778,2.644067 -8.10954,10.209892 -8.10954,14.602303 0,4.941507 4.38768,12.453532 8.82881,15.11559 5.0019,2.998177 12.30605,3.210969 17.59528,0.512601 z M 51.725149,208.74389 c 7.125963,-0.82522 13.02574,-1.56986 13.110617,-1.65474 0.612079,-0.61214 -7.935965,-42.70389 -8.671744,-42.70086 -0.516022,0.002 -5.984433,0.60843 -12.152026,1.34734 l -11.213804,1.34346 0.542746,5.27162 c 0.29851,2.89938 1.016288,12.07968 1.595062,20.40064 0.578774,8.32097 1.218733,15.66091 1.42213,16.31099 0.459647,1.46906 -0.183644,1.48239 15.367019,-0.31845 z m 274.753731,1.61456 5.3225,-8.39592 -30.88755,-57.55719 c -16.98815,-31.65645 -30.98828,-57.693421 -31.1114,-57.859931 -0.12312,-0.166511 -2.13385,1.60726 -4.46831,3.941714 -2.33445,2.334452 -5.58606,4.93823 -7.2258,5.786171 l -2.98134,1.541712 2.77124,4.917784 c 1.52417,2.70478 15.64023,28.95875 31.36902,58.34216 28.39802,53.05115 30.93053,57.67942 31.56103,57.67942 0.18045,0 2.72322,-3.77816 5.65061,-8.39592 z m -141.34899,-37.3803 c 21.90359,-40.77873 39.8247,-74.38261 39.8247,-74.675293 0,-0.292682 -1.21267,-1.159244 -2.69482,-1.925692 -1.48215,-0.766449 -4.5939,-3.319843 -6.91501,-5.674207 l -4.22019,-4.280663 -40.93416,76.153885 c -22.51378,41.88464 -40.7836,76.29966 -40.59959,76.47781 0.67785,0.65629 14.53816,8.04115 15.1162,8.054 0.32899,0.008 18.51929,-33.35111 40.42287,-74.12984 z m -105.7922,92.11164 13.710682,-13.25107 -3.782257,-3.01208 C 87.185873,247.17 80.690639,241.10891 74.832261,235.35755 68.7621,229.39828 63.474954,224.9615 62.539925,225.04228 c -9.273248,0.80108 -14.405828,1.5354 -14.405694,2.06103 3.39e-4,1.32689 2.923295,15.83367 4.301193,21.34704 0.79211,3.16948 3.3953,11.59853 5.784868,18.73124 3.727248,11.12561 4.562242,12.84001 5.875692,12.06392 0.842063,-0.49756 7.700831,-6.86763 15.241706,-14.15572 z m 50.58769,12.75619 c 6.24072,-5.76605 11.50146,-10.88929 11.69053,-11.38496 0.18907,-0.49567 -5.05955,-3.82437 -11.66362,-7.3971 l -12.00739,-6.49589 -3.46541,3.27582 c -6.45897,6.10563 -53.578119,50.21746 -53.909804,50.46907 -0.282277,0.21413 7.732857,14.42908 11.821199,20.96506 1.319834,2.11001 1.736307,1.78755 23.765549,-18.40031 12.332196,-11.30138 27.528216,-25.26563 33.768946,-31.03169 z m 329.37485,64.38121 25.7142,-15.05234 -7.86311,-8.11398 c -4.32471,-4.46269 -32.87782,-34.1761 -63.45135,-66.0298 -30.57352,-31.85369 -55.86968,-57.91498 -56.2137,-57.91396 -0.344,9.4e-4 -2.73847,3.29866 -5.32104,7.32812 -20.48752,31.96574 -26.96027,42.37386 -26.74801,43.01062 0.41658,1.24976 107.05459,112.24768 107.62876,112.02918 0.29702,-0.11302 12.11143,-6.97905 26.25425,-15.25784 z m -161.5372,70.86341 c 26.5528,-4.1843 46.73059,-10.40297 67.60785,-20.83632 15.65035,-7.82122 27.35838,-15.7313 38.61163,-26.08648 l 7.40802,-6.8168 -5.13118,-5.13118 -5.13118,-5.13118 -7.62564,5.19247 c -11.33092,7.71549 -22.77347,12.94041 -36.64173,16.73142 l -6.61895,1.80936 2.36391,-1.93311 c 13.15051,-10.75394 34.3487,-30.97301 28.36693,-27.05668 -26.00741,17.0273 -57.95542,28.51493 -82.26409,29.57992 l -10.87399,0.47641 7.56451,-2.70911 c 26.87206,-9.6238 57.56488,-29.48373 72.75125,-47.07405 l 4.54398,-5.26327 -11.22625,-11.51129 c -6.17444,-6.33121 -11.52041,-11.64516 -11.87995,-11.80877 -0.35955,-0.16362 -4.63302,1.19295 -9.49662,3.01457 -4.86359,1.82163 -13.07951,4.17201 -18.25758,5.22308 -9.1573,1.85879 -29.7443,3.72685 -29.7443,2.699 0,-0.28147 6.48893,-3.75727 14.41985,-7.724 7.93092,-3.96672 17.88909,-9.43701 22.12926,-12.15621 l 7.70941,-4.94399 -6.86629,-7.50229 -6.86628,-7.50231 -14.30616,7.21229 c -28.74441,14.49117 -55.00848,20.73162 -87.60989,20.81646 -23.01402,0.0598 -44.47256,-3.20876 -64.62246,-9.84355 l -5.99746,-1.97479 -3.45818,3.24528 c -1.90199,1.7849 -13.67027,12.53797 -26.15171,23.8957 -12.48145,11.35774 -23.506494,21.40755 -24.500095,22.33291 -1.763172,1.64209 -1.639884,1.8788 5.134715,9.85844 33.35123,39.28358 81.18426,65.29992 132.83309,72.24777 10.2959,1.38502 52.12901,0.51349 63.82558,-1.3297 z"
     id="path2991"
     style="fill:#ffffff" />
</svg>
