<?xml version="1.0" encoding="UTF-8" standalone="no"?>
<!-- Created with Inkscape (http://www.inkscape.org/) -->

<svg
   xmlns:dc="http://purl.org/dc/elements/1.1/"
   xmlns:cc="http://creativecommons.org/ns#"
   xmlns:rdf="http://www.w3.org/1999/02/22-rdf-syntax-ns#"
   xmlns:svg="http://www.w3.org/2000/svg"
   xmlns="http://www.w3.org/2000/svg"
   version="1.1"
   width="512"
   height="512"
   id="svg2">
  <metadata
     id="metadata8">
    <rdf:RDF>
      <cc:Work
         rdf:about="">
        <dc:format>image/svg+xml</dc:format>
        <dc:type
           rdf:resource="http://purl.org/dc/dcmitype/StillImage" />
        <dc:title></dc:title>
      </cc:Work>
    </rdf:RDF>
  </metadata>
  <defs
     id="defs6" />
  <path
     d="m 0,0 512,0 0,512 -512,0 z"
     id="rect3026"
     style="fill:#000000;fill-opacity:1;fill-rule:nonzero;stroke:none" />
  <path
     d="m 335.39766,193.33407 c 6.09831,-16.98701 16.77671,-33.90355 28.37525,-44.95163 3.41479,-3.25273 3.56396,-3.5734 1.43585,-3.08676 -10.59136,2.42197 -15.36075,1.33672 -21.28199,-4.84263 -4.78502,-4.9936 -7.79889,-10.74586 -13.0579,-24.92222 -2.04299,-5.50714 -5.04572,-12.37575 -6.67272,-15.26358 C 314.15152,82.438774 290.47003,62.847079 263.36178,49.938993 224.68535,31.522509 178.1966,25.620251 136.78304,33.868433 c -9.60398,1.91279 -24.12588,6.353698 -28.82084,8.813634 -2.53552,1.328495 -2.53449,1.329412 2.20207,1.956003 43.09062,5.700367 76.37327,19.974675 98.33815,42.175392 14.42362,14.578488 20.57933,28.590968 19.66988,44.775368 -0.55935,9.95389 -3.56842,18.97925 -9.68876,29.06028 -5.84284,9.62395 -6.18073,11.97752 -2.53579,17.66326 6.16822,9.62181 22.06472,18.65006 34.42296,19.55016 8.43691,0.61449 12.1698,-0.74413 15.10834,-5.49879 1.66625,-2.69605 3.3404,-4.09292 5.68659,-4.74476 12.065,-3.35199 32.79561,3.1745 46.67391,14.69405 5.86622,4.86921 11.16513,11.41465 11.36326,14.03639 0.0503,0.66428 0.8891,-2.63943 1.86423,-7.34156 0.97512,-4.70214 2.92389,-11.75535 4.33062,-15.67379 z m 36.21793,43.56753 c 11.28885,-6.6413 24.63375,-22.11801 32.41169,-37.58933 9.96153,-19.81478 12.10444,-41.89686 4.85334,-50.01225 -6.22938,-6.97189 -19.43607,-2.21774 -33.72734,12.14118 -16.9903,17.07074 -28.00286,40.90683 -27.98783,60.57819 0.007,8.72866 1.21528,13.12249 4.51912,16.42891 2.41545,2.41732 3.02241,2.56821 8.54955,2.1255 4.47932,-0.35879 7.29183,-1.26624 11.38147,-3.6722 z m 91.09654,196.19474 c 4.10494,-0.83552 7.7732,-1.80776 8.15169,-2.16054 0.37848,-0.35278 -5.67977,-30.7674 -13.46277,-67.58805 -7.78301,-36.82065 -14.43644,-68.50192 -14.7854,-70.40283 l -0.63448,-3.45619 19.07571,-16.0173 c 10.49164,-8.80952 18.7011,-16.14348 18.24326,-16.29768 -0.74713,-0.25163 -97.73197,19.12132 -102.13455,20.40163 -2.75771,0.80195 -1.45784,1.28765 23.68584,8.85032 l 22.81868,6.86334 14.63097,69.4758 c 8.04704,38.21169 14.81619,70.01014 15.04256,70.66321 0.51616,1.48916 0.40267,1.49318 9.36849,-0.33171 z m -379.156654,47.7265 c 16.858384,-4.49499 30.428304,-17.15311 45.462434,-42.40767 3.88777,-6.53075 13.253,-23.84316 20.81164,-38.47204 7.55862,-14.62887 20.70514,-40.06316 29.21448,-56.52064 21.67364,-41.91788 38.53233,-72.1248 63.35419,-113.51624 6.53075,-10.89031 8.18538,-14.31038 7.01972,-14.5097 -18.19228,-3.11082 -32.2812,-10.26699 -42.90985,-21.79513 l -5.1617,-5.59852 -18.53011,27.60116 C 153.44762,259.34957 131.47383,289.33297 84.96559,349.12205 49.586,394.6046 40.445484,408.1548 34.022853,424.64123 c -2.109099,5.41391 -2.600985,8.23809 -2.647166,15.19883 -0.0508,7.65667 0.25131,9.20043 2.893401,14.78505 1.719625,3.63479 5.370251,8.82282 8.752394,12.43835 11.418551,12.20646 26.789395,17.42414 40.533994,13.75938 z M 332.37561,448.62688 c 5.11699,-18.93916 9.58919,-34.74824 9.93822,-35.13126 0.34902,-0.38303 5.52933,4.21224 11.51178,10.21171 5.98246,5.99947 11.32399,10.90813 11.87006,10.90813 0.54608,0 3.75903,-2.79098 7.13991,-6.20218 l 6.14704,-6.20217 -15.63288,-14.98987 -15.63289,-14.98985 6.55531,-24.16697 c 3.6054,-13.29183 6.86514,-24.38446 7.24386,-24.65029 0.37872,-0.26581 11.40999,-3.03233 24.51393,-6.14781 13.10395,-3.11547 23.82536,-5.90386 23.82536,-6.19641 0,-0.69405 -101.92364,-27.5795 -102.47283,-27.03031 -0.23055,0.23054 4.24359,4.79178 9.9425,10.1361 5.69892,5.34431 13.84326,13.14934 18.09853,17.34452 l 7.73685,7.6276 -5.09075,18.41061 c -2.79992,10.12584 -5.23198,18.55183 -5.40458,18.72443 -0.1726,0.17261 -13.00411,-12.38683 -28.51447,-27.90987 l -28.20063,-28.2237 7.10764,-23.66867 c 3.90921,-13.01777 6.96401,-23.81231 6.78844,-23.98788 -0.17555,-0.17556 -17.32568,16.44278 -38.1114,36.92965 -20.78571,20.48687 -37.36962,37.38971 -36.85315,37.56186 0.51648,0.17217 11.13045,-2.69614 23.58658,-6.374 12.45614,-3.67787 23.09215,-6.66844 23.63556,-6.64574 0.54342,0.0227 15.42634,14.23599 33.07315,31.58506 l 32.08512,31.54378 -10.97465,40.26732 c -6.03607,22.14703 -10.79546,40.44653 -10.57642,40.66556 0.30748,0.30749 14.09365,4.34045 16.81875,4.92011 0.29834,0.0634 4.72907,-15.3803 9.84606,-34.31946 z"
     id="path2989"
     style="fill:#ffffff" />
</svg>
