<?xml version="1.0" encoding="UTF-8" standalone="no"?>
<!-- Created with Inkscape (http://www.inkscape.org/) -->

<svg
   xmlns:dc="http://purl.org/dc/elements/1.1/"
   xmlns:cc="http://creativecommons.org/ns#"
   xmlns:rdf="http://www.w3.org/1999/02/22-rdf-syntax-ns#"
   xmlns:svg="http://www.w3.org/2000/svg"
   xmlns="http://www.w3.org/2000/svg"
   version="1.1"
   width="512"
   height="512"
   id="svg2">
  <metadata
     id="metadata8">
    <rdf:RDF>
      <cc:Work
         rdf:about="">
        <dc:format>image/svg+xml</dc:format>
        <dc:type
           rdf:resource="http://purl.org/dc/dcmitype/StillImage" />
        <dc:title></dc:title>
      </cc:Work>
    </rdf:RDF>
  </metadata>
  <defs
     id="defs6" />
  <path
     d="m 0,0 512,0 0,512 -512,0 z"
     id="rect3052"
     style="fill:#000000;fill-opacity:1;fill-rule:nonzero;stroke:none" />
  <path
     d="M 88.66202,91.838369 100.85292,79.676739 71.236053,49.338369 41.619185,19 30.309593,19 19,19 l 0,14.082441 0,14.08244 27.711487,28.41756 C 61.952804,91.212098 74.883806,104 75.447046,104 c 0.56324,0 6.509978,-5.472734 13.214974,-12.161631 z m 101.69636,47.869851 c 2.57444,-10.25737 1.15606,-22.25258 -4.30607,-36.41636 C 169.71334,60.923499 118.9221,21.336148 83.300541,23.205802 78.711172,23.446682 74.537077,24.062923 74.024774,24.575226 73.127387,25.472613 187.20239,142 188.97828,142 c 0.4427,0 1.06374,-1.0313 1.3801,-2.29178 z m -57.4076,55.20892 c 2.77707,-0.59558 5.04783,-1.38308 5.04612,-1.75 -0.002,-0.36693 -26.14071,-26.70563 -58.086682,-58.53045 C 37.943954,92.829571 21.523774,77.076226 20.735198,77.864802 c -0.600288,0.600288 -1.288516,4.84637 -1.529396,9.435739 -1.71565,32.687399 29.910402,77.084699 69.835427,98.036409 16.807011,8.81992 31.999081,12.13453 43.909551,9.58019 z M 457.5,221.60265 l 37,-21.35608 0.27256,-18.12328 C 494.93095,171.59119 494.66066,164 494.12727,164 c -1.96611,0 -15.50375,6.26925 -23.60948,10.9335 -26.30448,15.13628 -46.12991,37.90408 -50.38752,57.86572 -1.3048,6.11748 -1.45766,10.20979 -0.38027,10.18014 0.4125,-0.0114 17.4,-9.63087 37.75,-21.37671 z m -152.37443,28.02253 c 2.95594,-1.30615 9.86974,-3.81396 15.36401,-5.57291 5.49427,-1.75896 10.15748,-3.36599 10.36268,-3.5712 0.68937,-0.68937 -8.70505,-13.91273 -15.0939,-21.24581 C 293.4469,193.62629 261.94558,176 238.48926,176 c -3.95495,0 -8.65706,0.51114 -10.44915,1.13586 l -3.25833,1.13586 36.85404,36.86414 C 281.90555,235.41114 298.77365,252 299.1205,252 c 0.34685,0 3.04913,-1.06867 6.00507,-2.37482 z M 222.25494,201.51105 C 208.09079,187.20497 181.20597,160.08952 162.5109,141.2545 L 128.51986,107.009 116.25993,119.23949 C 109.51697,125.96626 104,131.90129 104,132.42844 c 0,0.52715 26.8875,27.61498 59.75,60.19517 l 59.75,59.2367 12.25397,-12.16911 12.25397,-12.1691 -25.753,-26.01105 z m 268.99506,107.8471 3.75,-0.61983 0,-14.47615 c 0,-13.37527 -0.13308,-14.42522 -1.75,-13.80642 -3.62279,1.38643 -38.25,21.77185 -38.25,22.51818 0,1.09394 9.35747,4.99815 14.34383,5.98467 5.13642,1.0162 16.8796,1.23039 21.90617,0.39955 z M 229,327.46774 c 0,-3.04534 6.15227,-17.39325 10.03198,-23.39592 2.18241,-3.37662 3.96802,-6.4641 3.96802,-6.86108 0,-0.39697 -15.31072,-16.01929 -34.02383,-34.71626 -26.81872,-26.79559 -34.22169,-33.67865 -34.9582,-32.50309 -1.79459,2.86441 -2.29976,12.42831 -1.07801,20.40926 3.67338,23.99609 22.18947,52.76052 46.46602,72.18416 8.46412,6.77214 9.59402,7.3472 9.59402,4.88293 z M 424.82079,299.02309 C 489.49439,261.576 493,259.40184 493,256.73884 c 0,-2.06696 -10.15912,-21.93774 -13.58417,-26.57003 -0.13468,-0.18216 -13.89584,7.52564 -30.58036,17.12843 -16.68451,9.60279 -33.03547,18.91063 -36.33547,20.68409 -5.06092,2.71979 -73.29238,41.84213 -74.35833,42.63535 -0.36193,0.26932 13.32621,24.78144 15.17583,27.17621 0.54922,0.71109 1.52182,1.16109 2.16133,1 0.63952,-0.16109 31.8434,-18.0575 69.34196,-39.7698 z M 315.5,302.06612 c 36.3,-20.96633 66,-38.66837 66,-39.33787 0,-0.66951 -2.7,-2.29025 -6,-3.60166 -18.13327,-7.20612 -50.16116,-1.40333 -76.91081,13.93465 -12.00101,6.88126 -18.53719,11.79059 -28.44438,21.36457 -9.73012,9.40287 -16.00153,17.77611 -20.1245,26.86912 -2.8588,6.30496 -5.4953,18.12751 -4.42774,19.85485 0.65677,1.06268 -7.35148,5.53991 69.90743,-39.08366 z m 11.29216,105.3577 c 35.67866,-7.29593 71.21274,-31.87726 86.1663,-59.60706 4.21357,-7.81364 8.10454,-22.24916 6.40345,-23.75687 -0.47405,-0.42016 -31.01191,16.69868 -67.86191,38.04187 -36.85,21.34318 -67.45,39.03433 -68,39.31365 -1.56512,0.79488 3.22859,3.91396 8.87328,5.7735 6.7521,2.22436 24.11071,2.34283 34.41888,0.23491 z M 489.5,427.19802 c 0,-9.59167 -0.4204,-12.95844 -2.33476,-18.69802 -7.31918,-21.94412 -23.87398,-44.88851 -44.60882,-61.82632 l -6.94358,-5.67204 -2.14663,5.24918 c -3.26212,7.97691 -6.31779,13.66064 -10.78341,20.05777 l -4.05478,5.80859 34.40827,34.41913 c 23.57953,23.58695 34.73172,34.09506 35.436,33.38943 0.58636,-0.5875 1.02771,-6.05335 1.02771,-12.72772 z M 221.73373,415.8215 c 26.82145,-15.49818 57.95403,-33.48344 69.18352,-39.96725 11.22949,-6.48381 20.83645,-12.20795 21.34881,-12.72031 0.99659,-0.99659 -14.90254,-29.43501 -16.09666,-28.79174 -7.04659,3.79603 -64.81275,37.26885 -65.1694,37.76266 -0.275,0.38076 -16.25,9.77932 -35.5,20.8857 -19.25,11.10638 -35.98261,20.81781 -37.18358,21.58096 -2.16938,1.37852 -2.13068,1.47868 5.95265,15.40801 4.47491,7.71126 8.2627,14.02047 8.4173,14.02047 0.1546,0 22.22592,-12.68033 49.04736,-28.1785 z m -86.04965,-8.93183 c 37.29876,-21.51068 68.02789,-39.31014 68.28696,-39.55437 0.7096,-0.66894 -1.86187,-2.09435 -7.97104,-4.41847 -11.92296,-4.53589 -32.03503,-3.32408 -51.15691,3.08234 -39.73816,13.31351 -75.035018,47.09496 -77.581643,74.25083 -0.296574,3.1625 -0.281389,5.75 0.03374,5.75 0.315133,0 31.090133,-17.59965 68.388893,-39.11033 z M 493,482.7556 l 0,-11.2444 -32.66285,-32.67411 -32.66285,-32.6741 -12.33673,11.6685 c -6.78519,6.41768 -12.33691,12.11587 -12.33714,12.66265 -2.4e-4,0.54678 14.05939,15.05928 31.24362,32.25 L 465.48809,494 l 13.75596,0 13.75595,0 0,-11.2444 z m -56.70548,9.34988 c 0.88868,-0.88868 -7.8793,-10.20075 -36.814,-39.09843 L 361.5,415.07512 l -9,3.41462 c -4.95,1.87804 -12.23319,4.18651 -16.18488,5.12993 l -7.18487,1.71531 1.85841,3.64279 c 1.02212,2.00353 4.55486,7.27948 7.85052,11.72434 19.04299,25.68328 44.71394,44.38335 70.53812,51.38368 7.93725,2.1516 24.77299,2.16392 26.91722,0.0197 z m -239.48965,-1.9967 c 24.00724,-16.40306 40.02155,-37.93295 42.77775,-57.51108 0.63072,-4.48016 0.52771,-4.85963 -1.19624,-4.40689 C 236.38871,428.71543 127.17196,491.53076 125.55,493.08794 124.97694,493.63811 137.79486,494 157.85487,494 l 33.25487,0 5.69513,-3.89122 z m -82.9471,-11.44296 c 14.49677,-8.41154 26.37056,-15.63771 26.3862,-16.05816 0.0446,-1.19854 -15.34423,-27.6083 -16.0837,-27.60231 -0.36315,0.003 -5.61027,2.84635 -11.66027,6.31868 -6.05,3.47233 -28.55,16.35897 -50,28.63697 -21.45,12.27801 -39.4275,22.7096 -39.95,23.18132 -0.530259,0.47873 13.608388,0.84874 32,0.83744 l 32.95,-0.0202 26.35777,-15.29369 z"
     id="path2989"
     style="fill:#ffffff" />
</svg>
