<?xml version="1.0" encoding="UTF-8" standalone="no"?>
<!-- Created with Inkscape (http://www.inkscape.org/) -->

<svg
   xmlns:dc="http://purl.org/dc/elements/1.1/"
   xmlns:cc="http://creativecommons.org/ns#"
   xmlns:rdf="http://www.w3.org/1999/02/22-rdf-syntax-ns#"
   xmlns:svg="http://www.w3.org/2000/svg"
   xmlns="http://www.w3.org/2000/svg"
   version="1.1"
   width="512"
   height="512"
   id="svg2">
  <metadata
     id="metadata8">
    <rdf:RDF>
      <cc:Work
         rdf:about="">
        <dc:format>image/svg+xml</dc:format>
        <dc:type
           rdf:resource="http://purl.org/dc/dcmitype/StillImage" />
        <dc:title></dc:title>
      </cc:Work>
    </rdf:RDF>
  </metadata>
  <defs
     id="defs6" />
  <rect
     width="512"
     height="512"
     x="0"
     y="0"
     id="rect3044"
     style="fill:#000000;fill-opacity:1;fill-rule:nonzero;stroke:none" />
  <path
     d="m 497,93.5 0,-9.5 -59,0 -59,0 0,9.5 0,9.5 59,0 59,0 0,-9.5 z m -197,0 0,-9.5 -140,0 -140,0 0,9.5 0,9.5 140,0 140,0 0,-9.5 z m 19.22052,49.45556 C 323.60073,141.73906 326,138.74662 326,134.5 c 0,-4.24662 -2.39927,-7.23906 -6.77948,-8.45556 -4.82654,-1.34046 -77.49082,-1.4009 -82.13725,-0.0683 -7.0588,2.02443 -10.2845,8.53477 -6.62305,13.36711 3.16763,4.1806 7.11314,4.56704 47.03978,4.6073 23.20673,0.0234 39.44838,-0.36394 41.72052,-0.99497 z m 171.2137,-1.03195 c 6.36091,-5.58495 5.5728,-14.50995 -1.67131,-18.92672 -10.33011,-6.29832 -21.89635,5.10925 -16.25034,16.02742 3.36907,6.51506 12.18007,7.94047 17.92165,2.8993 z m -65.23765,-0.81758 c 3.62113,-4.05275 4.35644,-7.36611 2.63717,-11.88333 C 426.26075,125.08981 420.99822,121 417.25325,121 c -3.86803,0 -9.20633,3.00858 -10.7973,6.08519 -2.97974,5.76218 -0.96515,13.4367 4.30662,16.40591 4.3958,2.47584 11.07724,1.3718 14.434,-2.38507 z M 496.78753,174.25 497.07505,165 438.03753,165 379,165 l 0,9.50799 0,9.508 58.75,-0.258 58.75,-0.25799 0.28753,-9.25 z M 300,174.5 l 0,-9.5 -140,0 -140,0 0,9.5 0,9.5 140,0 140,0 0,-9.5 z m 61,-40 0,-92.5 -93.5,0 -93.5,0 0,12 0,12 71.47971,0 71.47971,0 0.27029,20.675067 0.27029,20.675063 5,1.14563 c 6.7813,1.55376 10.49488,3.6493 14.68378,8.28591 5.12521,5.67299 7.20209,11.82245 6.58581,19.50002 -1.0008,12.46782 -8.81771,21.43994 -21.08513,24.20117 L 317.5,161.64981 317.22929,181.8249 316.95859,202 245.47929,202 174,202 l 0,12.5 0,12.5 93.5,0 93.5,0 0,-92.5 z m -97.35842,247.28038 c 5.68714,-3.11298 6.32918,-9.80945 1.36916,-14.28038 -2.13226,-1.922 -3.82341,-2.01036 -43.36476,-2.26576 -37.6653,-0.24327 -41.44034,-0.11638 -44.62572,1.5 -9.3599,4.74959 -7.174,14.11805 3.81582,16.35404 2.01515,0.41001 20.76392,0.67037 41.66392,0.57859 33.85048,-0.14865 38.34305,-0.35465 41.14158,-1.88649 z M 437.5,389.58836 c -14.56727,-6.47448 -11.54031,-28.21312 4.34646,-31.21484 7.65781,-1.4469 17.25052,5.29606 18.72642,13.16328 2.41774,12.88764 -11.02616,23.40576 -23.07288,18.05156 z m -78.57832,-0.86216 c -7.93314,-5.34614 -10.47451,-15.5777 -5.67023,-22.82832 3.30412,-4.98658 10.56014,-8.30318 16.28682,-7.44441 11.53055,1.72911 17.60936,15.76061 11.11915,25.66593 -4.29024,6.54774 -15.37071,8.8962 -21.73574,4.6068 z M 495.75942,374.75 495.5,325.5 409.25,325.24445 323,324.98889 l 0,49.50556 0,49.50555 86.50942,0 86.50943,0 -0.25943,-49.25 z M 243,412.54824 l 0,-11.45177 -34.75,-0.29823 C 173.9629,400.50397 173.44006,400.46859 169,398.1422 147.94584,387.11076 147.76456,361.13698 168.66985,350.84005 L 175.45097,347.5 209.22549,347.18953 243,346.87907 243,336.60453 243,326.33 133.41815,325.65656 C 73.148137,325.28618 23.423137,325.23849 22.918153,325.55058 22.380852,325.88265 22,346.41889 22,375.05902 L 22,424 l 110.5,0 110.5,0 0,-11.45176 z M 305,375 l 0,-92 -94,0 -94,0 0,12 0,12 71.97929,0 71.9793,0 0.2707,20.18535 0.27071,20.18536 4.82397,1.2299 c 8.36001,2.13145 15.58189,8.61422 18.62014,16.71449 2.95936,7.88995 0.23163,20.70498 -5.75306,27.02815 -3.06041,3.23349 -10.13165,7.07318 -14.94105,8.11299 l -3.25,0.70267 0,20.92055 0,20.92054 -72,0 -72,0 0,12 0,12 94,0 94,0 0,-92 z"
     id="path2989"
     style="fill:#ffffff" />
</svg>
