<?xml version="1.0" encoding="UTF-8" standalone="no"?>
<!-- Created with Inkscape (http://www.inkscape.org/) -->

<svg
   xmlns:dc="http://purl.org/dc/elements/1.1/"
   xmlns:cc="http://creativecommons.org/ns#"
   xmlns:rdf="http://www.w3.org/1999/02/22-rdf-syntax-ns#"
   xmlns:svg="http://www.w3.org/2000/svg"
   xmlns="http://www.w3.org/2000/svg"
   version="1.1"
   width="512"
   height="512"
   id="svg2">
  <metadata
     id="metadata8">
    <rdf:RDF>
      <cc:Work
         rdf:about="">
        <dc:format>image/svg+xml</dc:format>
        <dc:type
           rdf:resource="http://purl.org/dc/dcmitype/StillImage" />
        <dc:title></dc:title>
      </cc:Work>
    </rdf:RDF>
  </metadata>
  <defs
     id="defs6" />
  <path
     d="m 0,0 512,0 0,512 -512,0 z"
     id="rect3025"
     style="fill:#000000;fill-opacity:1;fill-rule:nonzero;stroke:none" />
  <path
     d="M 317.58242,131.75 376.61037,72.5 395.96643,46.744577 C 406.61226,32.579095 415.13743,20.821443 414.91124,20.616461 414.68506,20.411479 379.175,44.23647 336,73.560886 292.825,102.8853 256.90631,126.90545 256.18068,126.939 255.45506,126.97255 219.29353,102.89902 175.82174,73.442277 132.34994,43.98553 96.644659,20.02303 96.47666,20.192277 96.30866,20.361525 102.94935,29.5 111.23375,40.5 c 14.87451,19.75034 15.87498,20.814514 80.14671,85.25 35.79629,35.8875 65.55438,65.25 66.12909,65.25 0.5747,0 27.6075,-26.6625 60.07287,-59.25 z M 48.9439,393.78914 74.5,374.57828 133.75,315.56637 c 32.5875,-32.45655 59.25,-59.47545 59.25,-60.042 0,-0.56655 -29.3625,-30.3527 -65.25,-66.19144 C 64.502796,126.17166 61.91681,123.7303 43.5,109.79444 20.684526,92.530144 20.924589,92.6886 23.41727,96.538676 c 2.459482,3.798804 82.58011,122.124014 96.20306,142.076374 l 10.32016,15.11504 -40.581471,59.88496 C 67.03921,346.55177 42.744887,382.3875 35.371633,393.25 27.99838,404.1125 22.285686,413 22.676759,413 23.067832,413 34.888045,404.35511 48.9439,393.78914 z M 439.53865,337.20603 C 410.09239,293.72853 386,257.62584 386,256.97783 c 0,-0.64802 24.08966,-36.74347 53.53257,-80.21211 29.44292,-43.46865 53.39925,-79.167231 53.2363,-79.330183 -0.16295,-0.162952 -11.99011,8.514953 -26.28257,19.284233 L 440.5,136.30028 381.25,195.38072 C 348.6625,227.87496 322,254.92786 322,255.49827 c 0,0.57041 29.3625,30.32498 65.25,66.12127 64.43549,64.27173 65.49966,65.2722 85.25,80.14671 11,8.2844 20.12989,14.93367 20.28865,14.77616 0.15876,-0.15751 -23.80374,-35.85888 -53.25,-79.33638 z M 124,408.35907 l 59.5,-40.26723 36.98312,-37.03411 36.98313,-37.0341 38.51687,38.2864 38.51688,38.28641 58.86977,39.74867 c 32.37837,21.86178 59.05219,39.56626 59.27515,39.3433 0.22296,-0.22296 -16.74399,-25.78156 -37.70433,-56.7969 L 376.83087,336.5 336.41516,295.99521 295.99945,255.49041 333.04672,218.49521 370.09399,181.5 411.02184,121.05818 C 433.53216,87.815175 451.76436,60.431027 451.53785,60.204515 451.31134,59.978003 426.23516,76.587078 395.813,97.113571 L 340.5,134.43447 298.98428,175.7062 257.46856,216.97793 217.48428,176.9645 177.5,136.95108 120.61895,98.43992 C 89.334378,77.258782 63.546345,60.120322 63.312213,60.354453 c -0.234131,0.234132 17.46055,26.912661 39.321517,59.285617 l 39.74721,58.85993 38.2847,38.4981 38.2847,38.4981 L 177.6911,296.9981 136.43186,338.5 99.215932,393.67648 C 78.747169,424.02355 62,449.13761 62,449.4855 c 0,0.88135 -3.621619,3.28367 62,-41.12643 z m 294.29969,81.3398 c -0.43983,-0.71563 -7.62947,-10.27813 -15.97697,-21.25 -14.86887,-19.54349 -16.49477,-21.26482 -80.01107,-84.70707 L 257.47787,318.98359 197.88236,378.7418 138.28685,438.5 119.17289,463.94612 c -10.51269,13.99537 -18.92665,25.63345 -18.6977,25.8624 0.22895,0.22895 36.0237,-23.69477 79.5439,-53.16382 l 79.12764,-53.5801 79.64112,53.9677 C 382.59047,466.71454 418.57981,491 418.76418,491 c 0.18436,0 -0.0247,-0.58551 -0.46449,-1.30113 z"
     id="path2989"
     style="fill:#ffffff" />
</svg>
