<?xml version="1.0" encoding="UTF-8" standalone="no"?>
<!-- Created with Inkscape (http://www.inkscape.org/) -->

<svg
   xmlns:dc="http://purl.org/dc/elements/1.1/"
   xmlns:cc="http://creativecommons.org/ns#"
   xmlns:rdf="http://www.w3.org/1999/02/22-rdf-syntax-ns#"
   xmlns:svg="http://www.w3.org/2000/svg"
   xmlns="http://www.w3.org/2000/svg"
   version="1.1"
   width="400"
   height="400"
   id="svg2">
  <metadata
     id="metadata8">
    <rdf:RDF>
      <cc:Work
         rdf:about="">
        <dc:format>image/svg+xml</dc:format>
        <dc:type
           rdf:resource="http://purl.org/dc/dcmitype/StillImage" />
        <dc:title></dc:title>
      </cc:Work>
    </rdf:RDF>
  </metadata>
  <defs
     id="defs6" />
  <path
     d="m 0,0 400,0 0,400 -400,0 z"
     id="rect3024"
     style="fill:#000000;fill-opacity:1;fill-rule:nonzero;stroke:none" />
  <path
     d="m 314.94712,163.47656 c 1.95814,-2.04101 6.01722,-6.69922 9.02018,-10.35156 22.4374,-27.28944 33.86661,-51.30198 35.32576,-74.21875 l 0.47256,-7.421875 2.49586,6.296452 c 3.69057,9.310415 5.23155,16.838939 5.18758,25.344173 -0.10329,19.97977 -10.55351,36.67944 -32.17595,51.41776 -7.40128,5.04487 -21.11316,12.64474 -22.81398,12.64474 -0.58975,0 0.52985,-1.66992 2.48799,-3.71094 z m -93.07212,62.0915 c 0,-0.24336 1.8457,-1.04862 4.10156,-1.78946 2.25586,-0.74083 9.66297,-3.58354 16.46024,-6.31713 38.71478,-15.56956 80.68425,-38.05531 114.98507,-61.60489 9.81112,-6.73593 9.76809,-6.7266 5.44461,-1.17998 -5.53571,7.10182 -21.44952,23.44417 -29.41023,30.20224 -20.78409,17.64416 -46.4887,30.72195 -71.7375,36.49803 -11.07108,2.5327 -39.84375,5.55932 -39.84375,4.19119 z m 14.57392,13.86138 c 26.47595,-2.92636 51.28857,-10.06799 78.03367,-22.45985 19.10672,-8.85275 30.2695,-16.26756 41.37678,-27.48428 C 383.5293,161.54277 392.72066,119.16027 379.92011,78.538375 372.27998,54.29283 355.27431,32.451167 336.71207,23.043046 311.16109,10.092735 284.38709,15.096062 256.00759,38.124509 l -5.32052,4.317323 4.52301,2.411897 c 6.7253,3.586274 14.60827,11.372644 17.53736,17.322465 4.62903,9.402898 2.09347,17.743306 -6.73817,22.164337 -2.94237,1.47293 -5.06568,1.918656 -9.13978,1.918656 -2.91884,0 -5.30699,0.118493 -5.30699,0.263305 0,0.144813 1.39059,2.105125 3.09021,4.35625 11.33056,15.007208 10.15429,29.819788 -2.87416,36.194008 -6.11955,2.99402 -15.17413,2.9838 -23.35745,-0.0263 C 225.3613,125.92088 222.65498,125 222.40705,125 c -0.24792,0 -0.075,1.07794 0.38428,2.39541 1.23494,3.54257 0.39337,9.62175 -1.77593,12.82857 -2.6353,3.89571 -8.44062,6.65102 -14.01338,6.65102 -5.72082,0 -10.79361,-1.56868 -16.53728,-5.11387 -2.54599,-1.57147 -4.73872,-2.73365 -4.87275,-2.58261 -3.08908,3.48113 -12.39827,29.52386 -15.67547,43.85257 -3.29083,14.3883 -4.60567,37.36315 -2.48961,43.50236 1.01668,2.94966 2.0625,3.47789 11.70353,5.91119 4.16733,1.0518 6.09047,2.0639 8.98437,4.72829 l 3.68207,3.39003 16.91767,0.031 c 10.17283,0.0187 21.23015,-0.44564 27.73437,-1.16454 z M 67.720002,385.08757 c 6.381069,-3.08902 10.77456,-9.73342 15.596865,-23.58754 9.931469,-28.53237 32.127363,-54.67873 85.042503,-100.17853 6.44532,-5.54209 11.82826,-10.51081 11.9621,-11.0416 0.48263,-1.91405 -2.91513,-4.04667 -8.45463,-5.30661 -6.91769,-1.57339 -10.88518,-3.53242 -13.53733,-6.68432 l -2.0233,-2.40455 -7.25467,6.53999 c -21.25387,19.1601 -52.367157,43.13478 -71.70779,55.2552 -16.875034,10.57528 -24.912445,13.86696 -39.040955,15.98903 -9.599343,1.4418 -13.528865,3.03606 -18.281774,7.41713 -6.485852,5.97845 -7.508792,13.09088 -3.058726,21.26712 5.855225,10.75798 18.247001,15.14513 28.296774,10.01812 3.341936,-1.70493 3.892919,-1.395 2.091707,1.17659 -1.766744,2.52238 -3.60335,9.72002 -3.566485,13.97701 0.122905,14.19232 12.356148,23.16853 23.935711,17.56296 z"
     id="path2989"
     style="fill:#ffffff" />
</svg>
