<?xml version="1.0" encoding="UTF-8" standalone="no"?>
<!-- Created with Inkscape (http://www.inkscape.org/) -->

<svg
   xmlns:dc="http://purl.org/dc/elements/1.1/"
   xmlns:cc="http://creativecommons.org/ns#"
   xmlns:rdf="http://www.w3.org/1999/02/22-rdf-syntax-ns#"
   xmlns:svg="http://www.w3.org/2000/svg"
   xmlns="http://www.w3.org/2000/svg"
   xmlns:sodipodi="http://sodipodi.sourceforge.net/DTD/sodipodi-0.dtd"
   xmlns:inkscape="http://www.inkscape.org/namespaces/inkscape"
   id="svg2"
   version="1.1"
   inkscape:version="0.48.3.1 r9886"
   width="400"
   height="400"
   sodipodi:docname="Icon.3_05.png">
  <metadata
     id="metadata8">
    <rdf:RDF>
      <cc:Work
         rdf:about="">
        <dc:format>image/svg+xml</dc:format>
        <dc:type
           rdf:resource="http://purl.org/dc/dcmitype/StillImage" />
        <dc:title></dc:title>
      </cc:Work>
    </rdf:RDF>
  </metadata>
  <defs
     id="defs6" />
  <sodipodi:namedview
     pagecolor="#ffffff"
     bordercolor="#666666"
     borderopacity="1"
     objecttolerance="10"
     gridtolerance="10"
     guidetolerance="10"
     inkscape:pageopacity="0"
     inkscape:pageshadow="2"
     inkscape:window-width="1280"
     inkscape:window-height="969"
     id="namedview4"
     showgrid="false"
     inkscape:zoom="0.59"
     inkscape:cx="203.38983"
     inkscape:cy="200"
     inkscape:window-x="0"
     inkscape:window-y="27"
     inkscape:window-maximized="1"
     inkscape:current-layer="svg2" />
  <rect
     style="fill:#000000;fill-opacity:1;stroke:none"
     id="rect3001"
     width="400"
     height="400"
     x="0"
     y="-2.8421709e-14" />
  <path
     style="fill:#ffffff"
     d="m 155.22036,370.36921 c 1.49619,-0.76445 3.16862,-2.17275 3.71651,-3.12956 2.5692,-4.48676 2.59833,-4.4948 6.555,-1.80973 8.24034,5.59205 19.50813,0.93619 19.50813,-8.06076 0,-2.2784 -1.24913,-4.71926 -4.38549,-8.56947 C 174.74406,341.5931 168.24683,328.3645 162.62617,312.17483 160.08178,304.84598 158,298.68585 158,298.48565 c 0,-0.20021 1.78007,-2.42072 3.95571,-4.93447 2.17563,-2.51375 4.38552,-5.3385 4.91085,-6.27722 0.88923,-1.58897 1.39264,-1.55324 7.2943,0.51776 13.13163,4.60812 27.77993,4.64851 40.88647,0.11272 l 6.30853,-2.1832 1.88951,2.38938 c 1.03924,1.31416 3.20917,3.81312 4.82208,5.55325 1.6129,1.74012 2.93255,4.06879 2.93255,5.17482 0,3.23053 -8.90884,27.97795 -13.03427,36.20725 -2.08057,4.15027 -5.41835,9.5035 -7.41728,11.89607 -4.7571,5.69387 -5.85823,7.8672 -5.75875,11.36608 0.14385,5.05954 6.12847,9.69191 12.52109,9.69191 1.95207,0 4.92473,-1.02785 6.95253,-2.40395 l 3.54242,-2.40395 2.84713,3.46024 c 5.99954,7.29149 17.71553,7.83701 20.98675,0.97719 1.47356,-3.09008 1.40936,-3.74074 -1.15454,-11.70078 -2.29704,-7.13155 -2.78207,-10.66033 -3.15156,-22.92875 -0.24018,-7.975 -0.076,-18.05512 0.36489,-22.40027 l 0.80159,-7.90026 6,-1.64509 c 25.08619,-6.87815 48.12918,-37.74282 55.48921,-74.3244 1.79745,-8.93388 1.56022,-26.32818 -0.45355,-33.25532 -3.82255,-13.14911 -9.262,-19.96305 -19.13546,-23.97079 l -5.9002,-2.39495 -0.61875,-14.30446 c -0.34031,-7.86745 -0.94964,-18.01696 -1.35408,-22.55446 -0.48208,-5.40863 -0.38497,-8.25 0.28194,-8.25 0.5595,0 10.24631,8.775 21.52624,19.5 11.27994,10.725 20.994,19.5 21.58681,19.5 2.7696,0 -0.006,-29.61076 -4.46508,-47.64038 C 313.08651,79.517064 294.50437,54.874428 272.14466,47.964126 268.64923,46.883857 264.03282,46 261.88598,46 258.55131,46 257.11983,45.206803 252.0605,40.555622 243.05677,32.278234 239.07926,30.514767 229.5,30.553225 c -6.89176,0.02767 -8.90044,0.468292 -14.5,3.180719 -3.575,1.73173 -9.56298,5.680938 -13.30661,8.776018 l -6.80662,5.627419 -6.19338,-5.109672 c -3.40637,-2.81032 -9.54505,-6.77873 -13.64153,-8.818691 -6.63864,-3.305905 -8.26891,-3.706499 -15,-3.68584 -9.16609,0.02813 -13.83459,2.149492 -22.22762,10.100187 C 132.95844,45.232721 131.59296,46 128.25574,46 114.25596,46 96.075691,57.679365 85.262675,73.619599 72.669107,92.18467 64.661575,119.3944 63.299748,148.25 62.857979,157.61058 63.006786,161 63.859517,161 c 0.638824,0 10.337265,-8.775 21.55209,-19.5 11.214825,-10.725 20.929283,-19.5 21.587683,-19.5 0.87933,0 1.00404,1.65898 0.46981,6.25 -0.40001,3.4375 -1.00669,13.65381 -1.34819,22.7029 l -0.62091,16.4529 -5,1.52084 c -6.972543,2.12083 -15.416347,10.56111 -18.314342,18.30669 -7.179152,19.188 -4.117703,45.78345 8.116784,70.51219 5.233992,10.57912 10.279658,17.7967 18.353978,26.25448 8.01286,8.39341 15.62923,13.43426 25.12817,16.63095 3.52013,1.18463 6.88902,2.64266 7.48644,3.24008 0.70935,0.70935 1.09926,8.29288 1.12382,21.85759 0.0362,19.98413 -0.0649,21.07458 -2.66586,28.77138 -3.13204,9.26826 -3.29621,11.24517 -1.18418,14.26051 2.88955,4.12541 10.34257,4.84441 16.67555,1.6087 z"
     id="path2991" />
</svg>
