<?xml version="1.0" encoding="UTF-8" standalone="no"?>
<!-- Created with Inkscape (http://www.inkscape.org/) -->

<svg
   xmlns:dc="http://purl.org/dc/elements/1.1/"
   xmlns:cc="http://creativecommons.org/ns#"
   xmlns:rdf="http://www.w3.org/1999/02/22-rdf-syntax-ns#"
   xmlns:svg="http://www.w3.org/2000/svg"
   xmlns="http://www.w3.org/2000/svg"
   version="1.1"
   width="512"
   height="512"
   id="svg2">
  <metadata
     id="metadata8">
    <rdf:RDF>
      <cc:Work
         rdf:about="">
        <dc:format>image/svg+xml</dc:format>
        <dc:type
           rdf:resource="http://purl.org/dc/dcmitype/StillImage" />
        <dc:title></dc:title>
      </cc:Work>
    </rdf:RDF>
  </metadata>
  <defs
     id="defs6" />
  <path
     d="m 0,0 512,0 0,512 -512,0 z"
     id="rect3024"
     style="fill:#000000;fill-opacity:1;fill-rule:nonzero;stroke:none" />
  <path
     d="m 403.13231,209.25 c 2.50642,-2.6125 7.70205,-8.57501 11.54583,-13.25 28.71988,-34.93048 43.34926,-65.66653 45.21698,-95 l 0.60487,-9.5 3.1947,8.059459 C 468.41862,111.47679 470.39108,121.1133 470.3348,132 470.20259,157.57411 456.8263,178.94968 429.14958,197.81473 419.67594,204.27217 402.12474,214 399.94769,214 c -0.75488,0 0.6782,-2.1375 3.18462,-4.75 z M 284,288.72712 c 0,-0.3115 2.3625,-1.34224 5.25,-2.29051 2.8875,-0.94826 12.3686,-4.58693 21.0691,-8.08593 49.55492,-19.92904 103.27584,-48.7108 147.18089,-78.85426 12.55824,-8.62199 12.50316,-8.61005 6.9691,-1.51037 -7.0857,9.09033 -27.45538,30.00854 -37.64509,38.65887 -26.60364,22.58452 -59.50554,39.32409 -91.824,46.71747 -14.17098,3.24186 -51,7.11593 -51,5.36473 z m 18.65462,17.74256 c 33.88921,-3.74574 65.64937,-12.88702 99.8831,-28.7486 24.4566,-11.33152 38.74496,-20.82248 52.96227,-35.17988 35.41751,-35.76645 47.18245,-90.01605 30.79775,-142.01208 C 476.51837,69.494822 454.75112,41.537494 430.99145,29.495099 398.2862,12.918701 364.01548,19.322959 327.68972,48.799372 l -6.81027,5.526173 5.78945,3.087228 c 8.60839,4.590431 18.69859,14.556984 22.44782,22.172755 5.92516,12.03571 2.67964,22.711432 -8.62485,28.370352 -3.76624,1.88535 -6.48407,2.45588 -11.69892,2.45588 -3.73612,0 -6.79295,0.15167 -6.79295,0.33703 0,0.18536 1.77996,2.69456 3.95547,5.576 14.50312,19.20923 12.99749,38.16933 -3.67893,46.32833 -7.83302,3.83235 -19.42288,3.81926 -29.89753,-0.0337 C 288.46246,161.17873 284.99837,160 284.68102,160 c -0.31733,0 -0.096,1.37976 0.49188,3.06612 1.58073,4.53449 0.50352,12.31584 -2.27319,16.42057 C 279.52653,184.4732 272.09572,188 264.96259,188 c -7.32265,0 -13.81583,-2.00791 -21.16772,-6.54575 -3.25887,-2.01149 -6.06556,-3.49908 -6.23712,-3.30574 -3.95403,4.45584 -15.86979,37.79054 -20.0646,56.13129 -4.21227,18.41702 -5.89526,47.82483 -3.18671,55.68302 1.30136,3.77556 2.64,4.4517 14.98052,7.56632 5.33419,1.3463 7.7958,2.64179 11.5,6.05221 l 4.71305,4.33924 21.65461,0.0397 c 13.02123,0.0239 27.1746,-0.57042 35.5,-1.49061 z M 86.681603,492.91209 c 8.167768,-3.95395 13.791437,-12.45878 19.963987,-30.19205 12.71228,-36.52144 41.12302,-69.98878 108.8544,-128.22852 8.25001,-7.09388 15.14018,-13.45384 15.31149,-14.13325 0.61777,-2.44998 -3.73136,-5.17974 -10.82192,-6.79246 -8.85465,-2.01394 -13.93304,-4.5215 -17.32779,-8.55593 l -2.58982,-3.07782 -9.28598,8.37118 C 163.58102,334.82817 123.75601,365.51576 99,381.0299 c -21.600044,13.53636 -31.88793,17.74971 -49.972422,20.46596 -12.287159,1.8455 -17.316948,3.88616 -23.400671,9.49393 -8.301891,7.65241 -9.611254,16.75632 -3.915169,27.22191 7.494688,13.77021 23.356161,19.38577 36.21987,12.82319 4.277678,-2.18231 4.982937,-1.7856 2.677385,1.50604 -2.261432,3.22864 -4.612288,12.44162 -4.565101,17.89057 0.157319,18.16617 15.81587,29.65572 30.637711,22.48059 z"
     id="path2989"
     style="fill:#ffffff" />
</svg>
