<?xml version="1.0" encoding="UTF-8" standalone="no"?>
<!-- Created with Inkscape (http://www.inkscape.org/) -->

<svg
   xmlns:dc="http://purl.org/dc/elements/1.1/"
   xmlns:cc="http://creativecommons.org/ns#"
   xmlns:rdf="http://www.w3.org/1999/02/22-rdf-syntax-ns#"
   xmlns:svg="http://www.w3.org/2000/svg"
   xmlns="http://www.w3.org/2000/svg"
   version="1.1"
   width="512"
   height="512"
   id="svg2">
  <metadata
     id="metadata8">
    <rdf:RDF>
      <cc:Work
         rdf:about="">
        <dc:format>image/svg+xml</dc:format>
        <dc:type
           rdf:resource="http://purl.org/dc/dcmitype/StillImage" />
        <dc:title></dc:title>
      </cc:Work>
    </rdf:RDF>
  </metadata>
  <defs
     id="defs6" />
  <path
     d="m 0,0 512,0 0,512 -512,0 z"
     id="rect3038"
     style="fill:#000000" />
  <path
     d="m 176.32618,148.97532 c 15.14702,-5.49025 33.05174,-9.96772 50.87382,-12.7221 16.85449,-2.60484 52.43268,-1.98998 69.57297,1.20237 23.32751,4.34469 46.5704,12.00677 67.93307,22.39433 5.93231,2.88457 11.04209,4.98862 11.35507,4.67565 0.31296,-0.31298 -1.29909,-3.90727 -3.58235,-7.9873 -16.28722,-29.10425 -42.37352,-51.28683 -72.37944,-61.548135 -15.81873,-5.40962 -27.86741,-7.02635 -47.17393,-6.329951 -21.42211,0.772711 -32.58852,3.387806 -50.30869,11.781926 -20.61762,9.76666 -38.10895,24.23459 -50.79938,42.01864 -5.06252,7.09448 -12.29732,19.91862 -12.29732,21.79777 0,0.3777 5.616,-1.94039 12.48,-5.15132 6.864,-3.21093 17.81079,-7.77028 24.32618,-10.13188 z M 444.125,192.55229 c 1.40962,-9.80777 3.44027,-27.91229 4.51258,-40.23229 2.17728,-25.01533 5.32321,-113.505873 4.07946,-114.749622 -0.43908,-0.439079 -12.48004,0.726549 -26.75768,2.590284 -43.73961,5.709559 -83.13032,8.785207 -135.07936,10.547073 l -25.92,0.879084 0,9.816097 0,9.816097 11.40379,1.518312 c 36.15576,4.813811 67.75672,21.811778 92.11644,49.548865 12.38907,14.10677 22.45315,31.6456 27.82412,48.48954 2.28092,7.15322 3.01442,8.0099 13.15141,15.36 5.90466,4.28134 15.39858,11.63436 21.09758,16.34002 5.699,4.70566 10.50738,8.4102 10.68529,8.23229 0.17789,-0.1779 1.47677,-8.34799 2.88637,-18.15575 z M 84.043016,203.08831 C 90.267357,197.92288 99.968,190.48223 105.6,186.55354 c 9.88003,-6.892 10.34794,-7.45051 13.31053,-15.88832 C 137.38121,118.05851 182.16954,81.187711 237.76,72.825553 l 10.56,-1.588482 0,-9.82914 0,-9.829141 -26.56,-0.882194 C 171.17504,49.016411 123.42453,45.25553 82.56,39.73306 72,38.305971 62.384741,37.134225 61.192758,37.129176 59.200809,37.120776 59.075113,39.527099 59.638717,66.88 c 0.681566,33.077824 2.498946,70.43171 4.37488,89.92 2.098605,21.80151 6.846092,55.68 7.802594,55.68 0.500412,0 6.002483,-4.22627 12.226825,-9.39169 z M 335.36,272.39766 c 15.14317,-5.48543 32.52735,-13.72281 45.74934,-21.67802 11.57392,-6.96363 32.35021,-21.5293 39.73287,-27.85561 l 4.20221,-3.60094 -6.76221,-5.70062 c -16.53053,-13.93544 -42.91325,-30.82772 -61.71148,-39.51254 -13.75373,-6.35424 -29.55253,-12.45606 -35.144,-13.57336 l -4.33329,-0.86588 5.83278,7.16107 c 11.73734,14.41029 17.73618,32.29087 17.65614,52.62716 -0.0741,18.82393 -4.78443,32.92949 -16.40486,49.12596 -7.91824,11.03637 -8.26345,10.91682 11.1825,3.87278 z M 193.4946,271.68 c -6.93863,-8.34099 -12.25738,-18.36287 -15.79403,-29.76 -3.82377,-12.32237 -4.09234,-33.66221 -0.57106,-45.37308 3.15809,-10.50296 8.95484,-21.75093 15.65819,-30.38302 l 5.65033,-7.27611 -3.78957,1.08684 c -28.11277,8.06263 -71.45368,31.61153 -96.012635,52.16763 -3.913704,3.2758 -7.403825,6.18556 -7.755825,6.46614 -1.605133,1.2794 26.00852,21.83352 42.23615,31.43832 14.25006,8.4343 30.77186,16.35617 46.08385,22.09626 19.44343,7.28885 20.70904,7.24787 14.2946,-0.46298 z m 71.74566,-28.53633 C 275.5394,240.28332 282.88,230.19036 282.88,218.88988 c 0,-7.79906 -2.20195,-13.45023 -7.1808,-18.42908 -10.60038,-10.60038 -29.35282,-9.57052 -38.00827,2.08739 -7.97753,10.74481 -7.69011,22.93456 0.76791,32.56773 7.13308,8.12413 16.41568,10.9066 26.78142,8.02775 z m -17.56026,16.177 c -8.67325,-2.14342 -13.2638,-4.72564 -19.5162,-10.97804 -21.5799,-21.5799 -13.6582,-58.50606 14.84792,-69.21194 9.80793,-3.68352 23.72836,-3.13074 32.7949,1.30227 19.60651,9.58644 28.75932,32.64541 21.07791,53.1023 -5.13614,13.67841 -17.0293,23.47992 -31.91631,26.30318 -8.10916,1.53787 -9.08881,1.50853 -17.28822,-0.51777 z m 26.69524,24.09157 c 25.87103,-6.67033 45.91896,-29.40604 49.64689,-56.30302 2.80611,-20.24601 -4.25407,-40.64685 -19.28065,-55.7127 -15.18518,-15.22486 -35.97682,-22.40199 -55.91662,-19.30201 -46.71821,7.26312 -71.90537,56.54311 -50.1016,98.02636 7.97277,15.16877 25.11474,28.73874 42.06052,33.29603 9.23086,2.48249 23.95289,2.48044 33.59146,-0.005 z m 2.45012,64.1277 c 40.64444,-6.12644 75.39517,-30.357 94.9978,-66.23887 l 4.7086,-8.61892 -4.90588,2.04484 c -2.69824,1.12466 -7.64631,3.43112 -10.99572,5.12548 -8.75812,4.43041 -28.36698,11.34711 -42.85275,15.11557 -21.34314,5.55241 -36.34632,7.40303 -59.85741,7.38333 -38.83476,-0.0325 -69.82894,-7.03388 -106.56,-24.07108 -6.512,-3.0205 -11.84,-5.08408 -11.84,-4.58574 0,1.80031 10.15109,18.22385 15.73731,25.46152 23.57816,30.54861 61.54021,49.31363 101.38269,50.11447 4.224,0.0849 13.3074,-0.69386 20.18536,-1.7306 z m 2.21464,117.3274 c 80.90381,-51.90003 129.98294,-119.80575 153.58787,-212.50364 2.9294,-11.50396 5.13052,-21.11199 4.89135,-21.35116 -0.23918,-0.23916 -3.59484,2.19142 -7.45704,5.40128 -3.86221,3.20987 -12.49418,9.73082 -19.18218,14.49101 l -12.16,8.65488 -3.51037,10.06014 c -10.01928,28.71356 -33.24493,57.11702 -60.69956,74.23161 -17.31771,10.79544 -41.05205,18.91522 -59.9622,20.51371 l -9.58787,0.81047 0,54.28772 c 0,43.08463 0.33019,54.09124 1.6,53.33563 0.88,-0.52366 6.496,-4.0929 12.48,-7.93165 z m -30.72,-45.49058 0,-54.22324 -8.64,-0.87838 C 185.89224,358.8068 136.24589,318.3254 118.57062,265.52316 c -1.8939,-5.65776 -3.22651,-7.09372 -12.66363,-13.64568 -5.80084,-4.02739 -15.132439,-11.05795 -20.736877,-15.62345 -5.604437,-4.56551 -10.399819,-8.091 -10.656403,-7.83441 -1.068937,1.06894 8.261527,36.06171 14.521303,54.46038 22.633327,66.52362 56.265527,114.5866 110.644987,158.12005 12.43461,9.95452 45.4252,32.59995 47.49266,32.59995 0.65839,0 1.14734,-23.10734 1.14734,-54.22324 z"
     id="path2989"
     style="fill:#ffffff" />
</svg>
