<?xml version="1.0" encoding="UTF-8" standalone="no"?>
<!-- Created with Inkscape (http://www.inkscape.org/) -->

<svg
   xmlns:dc="http://purl.org/dc/elements/1.1/"
   xmlns:cc="http://creativecommons.org/ns#"
   xmlns:rdf="http://www.w3.org/1999/02/22-rdf-syntax-ns#"
   xmlns:svg="http://www.w3.org/2000/svg"
   xmlns="http://www.w3.org/2000/svg"
   xmlns:sodipodi="http://sodipodi.sourceforge.net/DTD/sodipodi-0.dtd"
   xmlns:inkscape="http://www.inkscape.org/namespaces/inkscape"
   id="svg2"
   version="1.1"
   inkscape:version="0.48.3.1 r9886"
   width="400"
   height="400"
   sodipodi:docname="Icon.4_100.png">
  <metadata
     id="metadata8">
    <rdf:RDF>
      <cc:Work
         rdf:about="">
        <dc:format>image/svg+xml</dc:format>
        <dc:type
           rdf:resource="http://purl.org/dc/dcmitype/StillImage" />
        <dc:title></dc:title>
      </cc:Work>
    </rdf:RDF>
  </metadata>
  <defs
     id="defs6" />
  <sodipodi:namedview
     pagecolor="#ffffff"
     bordercolor="#666666"
     borderopacity="1"
     objecttolerance="10"
     gridtolerance="10"
     guidetolerance="10"
     inkscape:pageopacity="0"
     inkscape:pageshadow="2"
     inkscape:window-width="1855"
     inkscape:window-height="1056"
     id="namedview4"
     showgrid="false"
     inkscape:zoom="0.59"
     inkscape:cx="200"
     inkscape:cy="200"
     inkscape:window-x="65"
     inkscape:window-y="24"
     inkscape:window-maximized="1"
     inkscape:current-layer="svg2" />
  <path
     style="fill:#000000"
     d="m 0,0 400,0 0,400 -400,0 z"
     id="rect3034" />
  <path
     id="path2989"
     style="fill:#ffffff"
     d="m 270.5332,84.643334 c -0.35113,-3.378834 -0.85383,-7.28218 -1.11711,-8.674103 -0.46495,-2.458079 0.3582,-2.874554 28.65881,-14.5 C 314.10053,54.886154 327.69822,49.5 328.29199,49.5 c 1.62543,0 4.62282,14.866177 4.93377,24.470048 L 333.5,82.440095 306,86.123596 c -15.125,2.025925 -29.14889,3.903904 -31.16419,4.173287 l -3.6642,0.489786 -0.63841,-6.143335 z M 95,87.938146 C 83.725,86.365597 70.7275,84.556203 66.116667,83.917269 l -8.383332,-1.161698 0.539406,-8.127786 c 0.475599,-7.166342 3.229252,-23.012975 4.299995,-24.745475 0.284148,-0.459761 54.732384,21.38765 56.126424,22.520785 0.10953,0.08904 -0.0696,4.309763 -0.39803,9.379394 -0.37484,5.785792 -1.00744,9.179783 -1.69915,9.116174 C 115.99589,90.842927 106.275,89.510695 95,87.938146 z M 69.729479,143.21245 c -3.864096,-8.4796 -8.053632,-21.22163 -7.24385,-22.03141 0.544877,-0.54488 54.427861,-8.07419 58.264371,-8.14154 1.2375,-0.0217 2.25036,0.523 2.25079,1.2105 4.3e-4,0.6875 1.31456,4.02705 2.92028,7.42123 l 2.9195,6.17123 -24.17029,10.01578 c -13.293652,5.50868 -25.802882,10.70223 -27.798284,11.54122 l -3.628005,1.52543 -3.514512,-7.71244 z M 289,140.0486 c -15.675,-6.49477 -28.5,-12.20254 -28.5,-12.68393 0,-0.48138 1.33457,-3.68537 2.96572,-7.11996 2.48991,-5.24282 3.37232,-6.24355 5.5,-6.23745 3.38448,0.01 60.03688,7.66201 60.55422,8.17935 1.00921,1.00921 -10.53007,30.12669 -11.78679,29.74202 C 317.60492,151.88938 304.675,146.54337 289,140.0486 z M 266.56543,192.75 c -3.54737,-4.5375 -12.02239,-15.4432 -18.83338,-24.23489 l -12.38362,-15.98488 3.97269,-3.01512 c 2.18498,-1.65831 4.70568,-3.5655 5.60156,-4.2382 1.38871,-1.04276 5.28205,1.5865 26.40662,17.83304 21.71729,16.7024 24.61674,19.25331 23.47422,20.65244 C 292.86196,186.14003 274.78638,201 273.8358,201 c -0.45134,0 -3.72301,-3.7125 -7.27037,-8.25 z m -157.16844,1.79141 c -4.34335,-3.49502 -9.53694,-8.08412 -11.541323,-10.198 L 94.211333,180.5 116.98691,162.78959 c 12.52656,-9.74073 23.17715,-17.84073 23.66797,-18 0.49082,-0.15928 3.64814,1.77972 7.01626,4.30887 l 6.12385,4.59847 -16.14749,20.92826 c -8.88113,11.51055 -17.09386,22.13034 -18.25051,23.59953 l -2.10301,2.67127 -7.89699,-6.35458 z m 99.30186,1.27152 c -2.06283,-15.57211 -3.73895,-29.10043 -3.72472,-30.06293 0.0145,-0.97733 0.79854,-1.76441 1.77587,-1.78265 0.9625,-0.018 4.0856,-0.83969 6.94022,-1.82609 l 5.19022,-1.79345 11.43242,28.07609 c 6.28784,15.44186 11.09822,28.44512 10.68975,28.89614 -0.95718,1.05687 -16.99889,5.22985 -23.52788,6.12039 l -5.02528,0.68543 -3.7506,-28.31293 z m -37.86799,27.16392 c -8.72586,-1.47249 -21.82259,-5.5793 -21.83898,-6.84817 -0.004,-0.34577 4.9744,-12.80998 11.06415,-27.69824 l 11.07227,-27.06955 6.93585,1.56196 c 4.79471,1.07977 6.94384,2.02736 6.96172,3.06955 0.0913,5.31784 -7.63514,57.9875 -8.4922,57.88998 -0.56852,-0.0647 -3.13478,-0.47218 -5.70281,-0.90553 z M 113.71948,302 c 16.76812,-41.03155 29.70147,-71.37918 30.35056,-71.21648 0.62209,0.15594 4.9566,1.39211 9.63224,2.74706 4.67564,1.35495 11.47993,2.9394 15.12063,3.52101 3.64071,0.5816 6.67193,1.14542 6.73604,1.25294 0.0641,0.10751 -3.84091,29.44547 -8.67784,65.19547 -4.83693,35.75 -8.81393,66.2375 -8.83777,67.75 L 158,374 l 37,0 37,0 -0.0433,-2.75 c -0.0238,-1.5125 -3.98714,-32 -8.80732,-67.75 l -8.76398,-65 7.29984,-1.17641 c 4.0149,-0.64702 11.45342,-2.37136 16.53003,-3.83186 5.07661,-1.4605 9.37366,-2.28111 9.549,-1.82359 0.17534,0.45752 13.23854,32.55686 29.02934,71.33186 l 28.71055,70.5 33.74794,0.2633 33.74794,0.2633 0,-21.89061 0,-21.89061 -45,-58.09044 c -24.75,-31.94974 -45,-58.50089 -45,-59.00254 0,-0.50166 2.5875,-2.85083 5.75,-5.22038 3.1625,-2.36955 8.70698,-7.1447 12.32106,-10.61145 l 6.57105,-6.30318 28.92895,22.26058 c 15.91092,12.24332 30.61644,23.54282 32.67894,25.10999 l 3.75,2.84942 -0.002,-33.36869 -0.002,-33.36869 -20.49763,-8.38625 C 341.22393,161.50132 332,157.37922 332,156.95354 c 0,-0.42568 1.30621,-3.53595 2.9027,-6.91172 1.59648,-3.37576 4.36946,-10.61617 6.16218,-16.08979 2.32843,-7.1093 3.71303,-9.94297 4.8473,-9.92032 0.8733,0.0174 6.08782,0.68369 11.58782,1.48056 5.5,0.79686 11.2375,1.45759 12.75,1.46829 L 373,127 l 0,-25.04531 0,-25.045316 -3.25,0.561487 c -6.12121,1.057534 -17.24913,2.489514 -19.5,2.50933 -2.02511,0.01783 -2.25,-0.46233 -2.25,-4.803975 0,-5.460861 -2.58948,-21.494308 -4.49288,-27.818812 l -1.26477,-4.202522 15.37882,-6.268253 C 369.48289,32.051915 373,30.204619 373,28.809188 373,27.09243 370.89257,27.001307 331.75,27.025575 L 290.5,27.05115 277,37.566992 c -17.71226,13.796986 -16.37026,13.189106 -19.15515,8.676647 -1.27073,-2.059002 -3.83359,-5.431767 -5.69526,-7.495035 l -3.38484,-3.751397 2.71861,-3.564283 c 1.49524,-1.960355 2.51954,-3.763354 2.27623,-4.006662 -0.2433,-0.243309 -26.85731,-0.326254 -59.14224,-0.184321 L 135.91748,27.5 l 2.51827,3.413114 2.51826,3.413114 -3.75215,4.086886 c -2.06368,2.247787 -4.80071,5.79166 -6.08229,7.875272 l -2.33014,3.788385 -3.64471,-2.749967 c -2.0046,-1.512481 -8.6984,-6.704755 -14.87511,-11.538385 L 99.039213,27 l -36.579972,0 -36.579972,0 0.310366,3.581192 c 0.308204,3.556258 0.386952,3.612544 11.310365,8.084212 6.05,2.476662 11.157124,4.65975 11.349165,4.851307 0.192041,0.191557 -0.569936,4.316161 -1.693281,9.165787 -1.123345,4.849626 -2.501802,13.038835 -3.063238,18.198242 -0.561435,5.159406 -1.177168,9.537115 -1.368293,9.728241 -0.191126,0.191125 -3.019793,-0.0901 -6.285927,-0.624948 C 33.172292,79.449186 29.4875,79.008978 28.25,79.005792 L 26,79 l 0,23.1446 0,23.14461 6.25,-0.60644 c 3.4375,-0.33354 8.3875,-0.90978 11,-1.28053 4.092054,-0.58072 4.75,-0.43506 4.75,1.05159 0,2.65166 5.934641,19.34127 9.208813,25.89736 1.607177,3.21816 2.780175,5.95595 2.606663,6.084 C 59.641964,156.56323 51.9625,159.7516 42.75,163.52046 L 26,170.37292 26,201.68646 C 26,218.90891 26.258361,233 26.574136,233 c 0.315774,0 12.578274,-9.3697 27.25,-20.82155 14.671725,-11.45186 27.26213,-21.1681 27.978676,-21.59166 0.868204,-0.5132 4.205045,2.01261 10.002741,7.57155 4.784961,4.58791 10.383117,9.46666 12.440357,10.84166 2.05723,1.375 3.7435,2.84276 3.74726,3.26169 C 107.99693,212.68063 89.55,236.86286 67,266 l -41,52.97661 0,26.84503 c 0,14.76476 0.306767,27.15179 0.681703,27.52673 0.374937,0.37494 13.537437,0.56244 29.25,0.41667 L 84.5,373.5 113.71948,302 z" />
</svg>
