<?xml version="1.0" encoding="UTF-8" standalone="no"?>
<!-- Created with Inkscape (http://www.inkscape.org/) -->

<svg
   xmlns:dc="http://purl.org/dc/elements/1.1/"
   xmlns:cc="http://creativecommons.org/ns#"
   xmlns:rdf="http://www.w3.org/1999/02/22-rdf-syntax-ns#"
   xmlns:svg="http://www.w3.org/2000/svg"
   xmlns="http://www.w3.org/2000/svg"
   version="1.1"
   width="512"
   height="512"
   id="svg2">
  <metadata
     id="metadata8">
    <rdf:RDF>
      <cc:Work
         rdf:about="">
        <dc:format>image/svg+xml</dc:format>
        <dc:type
           rdf:resource="http://purl.org/dc/dcmitype/StillImage" />
        <dc:title></dc:title>
      </cc:Work>
    </rdf:RDF>
  </metadata>
  <defs
     id="defs6" />
  <path
     d="m 0,0 512,0 0,512 -512,0 z"
     id="rect3022"
     style="fill:#000000;fill-opacity:1;fill-rule:nonzero;stroke:none" />
  <path
     d="m 275.26966,278.7323 c 2.4678,-1.61697 5.2471,-6.97232 5.2471,-10.11046 0,-6.48351 -5.89161,-12.03485 -12.77252,-12.03485 -4.58039,0 -7.47305,1.61201 -9.83048,5.47827 -6.88268,11.28784 6.27762,23.9258 17.3559,16.66704 z m -12.27224,45.19571 c -6.05729,-27.49029 -5.89442,-26.86828 -7.03515,-26.86828 -0.48814,0 -8.73237,4.9835 -18.3205,11.07443 -25.82547,16.40584 -25.21373,16.0527 -23.97071,13.83752 0.57635,-1.0271 6.78858,-10.90597 13.80495,-21.95305 8.45025,-13.30465 12.35647,-20.28651 11.57049,-20.68071 -0.65262,-0.32731 -11.91524,-2.94961 -25.02804,-5.82734 -13.11281,-2.87774 -23.26219,-5.53516 -22.55419,-5.90539 0.708,-0.37022 11.76761,-3.01252 24.57692,-5.87177 12.80931,-2.85926 23.28966,-5.575 23.28966,-6.03498 0,-0.45997 -5.65139,-9.76521 -12.55863,-20.67828 -6.90724,-10.91307 -12.94261,-20.47782 -13.41195,-21.255 -0.98473,-1.63066 0.2199,-0.91678 24.96756,14.79601 9.96546,6.32728 18.19231,11.4205 18.28189,11.3183 0.0896,-0.10221 2.66046,-11.4251 5.71306,-25.16197 3.05262,-13.73688 5.67373,-25.09966 5.8247,-25.25064 0.15098,-0.15097 2.58114,10.20574 5.40039,23.01491 2.81923,12.80917 5.43023,24.27716 5.80223,25.48442 0.74084,2.4043 -1.86888,3.866 34.69783,-19.43423 l 10.48667,-6.68208 -9.42516,14.9025 c -5.18384,8.19637 -11.33699,17.88563 -13.67368,21.53169 -4.08762,6.37814 -5.00413,8.57037 -3.58307,8.57037 1.41265,0 45.03111,9.88664 46.75024,10.5965 1.20946,0.49941 -6.16771,2.51438 -22.06389,6.02645 -13.13448,2.90191 -24.41164,5.53979 -25.06037,5.86197 -1.02395,0.5085 5.13186,10.76495 25.75021,42.90345 0.78531,1.22409 -8.14121,-3.89494 -20.875,-11.97105 -12.23586,-7.7603 -22.37921,-13.97743 -22.54079,-13.81584 -0.16159,0.16157 -2.7311,11.28516 -5.71004,24.71907 -2.97893,13.4339 -5.53446,24.82215 -5.67894,25.30721 -0.14449,0.48507 -2.5865,-9.66432 -5.42669,-22.55419 z M 144.21099,474.47227 c 6.61835,-1.51754 17.63906,-7.13506 22.64831,-11.54439 16.96975,-14.93736 21.55085,-39.13659 11.47848,-60.63396 -2.63086,-5.61502 -10.83891,-14.8046 -16.86093,-18.8772 -6.51725,-4.4075 -13.12425,-6.88298 -22.16524,-8.30476 l -7.35094,-1.156 -1.78821,-8.78445 c -1.1355,-5.57805 -1.98133,-15.22725 -2.31727,-26.43555 -0.45298,-15.11313 -0.23174,-19.39545 1.5387,-29.78263 3.44036,-20.18467 10.03198,-37.24909 21.93135,-56.77601 2.71792,-4.4601 5.07693,-7.97401 5.24225,-7.80868 0.16533,0.16532 -0.32546,3.81449 -1.09065,8.10927 -3.05532,17.14859 -0.78373,43.79416 5.86228,68.76406 14.67939,55.15241 53.3483,101.38291 102.3357,122.34716 24.66639,10.55603 49.51299,14.98039 78.62081,13.99976 22.6713,-0.76379 41.60302,-4.23544 65.94503,-12.09283 l 10.54015,-3.40228 3.67879,3.60214 c 9.2084,9.01652 20.07842,12.71261 32.71924,11.12537 14.52249,-1.82352 27.25754,-12.29234 31.51556,-25.90733 2.38238,-7.61765 2.65733,-10.49012 1.67082,-17.45611 -2.44324,-17.25234 -15.28329,-30.35601 -32.54873,-33.21698 -5.26168,-0.8719 -7.71437,-0.76573 -13.85101,0.59955 -17.70245,3.93842 -30.15706,18.88831 -30.39496,36.48461 l -0.0947,7.00403 -8.84889,2.96451 c -11.52576,3.8613 -26.87899,7.56098 -39.73834,9.57577 -12.53975,1.96472 -40.35011,2.25122 -51.48239,0.53035 -42.44744,-6.56164 -77.89708,-27.81005 -103.06142,-61.77471 -3.44378,-4.64812 -6.26502,-8.75469 -6.2694,-9.12571 -0.004,-0.37101 2.97064,1.14016 6.61118,3.35815 16.95038,10.327 34.08363,15.38889 54.6694,16.15163 16.65748,0.61719 25.54861,-0.73851 46.59671,-7.10499 25.87578,-7.82672 42.44576,-15.6351 60.29054,-28.41113 29.27624,-20.96042 49.95961,-48.78101 61.23202,-82.3614 2.17258,-6.47207 3.95663,-12.65671 3.96458,-13.74362 0.0108,-1.47081 1.22387,-2.40577 4.74346,-3.65582 14.30091,-5.07923 21.36711,-23.34835 14.47745,-37.43032 -2.7517,-5.62428 -9.16461,-11.99987 -13.05131,-12.97537 -1.68066,-0.42182 -2.23266,-1.26301 -2.23266,-3.40236 0,-11.03124 -7.20556,-42.91108 -13.49225,-59.69425 l -3.79012,-10.11823 7.50939,-7.44907 c 11.67451,-11.58074 16.61402,-23.416453 16.61402,-39.809428 0,-16.049819 -4.96612,-28.193734 -16.07561,-39.310559 -10.49435,-10.501277 -25.76654,-17.040867 -39.79628,-17.040867 -13.7731,0 -28.93259,6.410703 -39.01859,16.500332 -11.52801,11.532169 -16.36533,23.311469 -16.36533,39.851094 0,14.444157 3.00401,23.454518 11.55265,34.651528 12.52537,16.40573 36.63909,25.05702 56.1748,20.15386 1.97246,-0.49505 2.49156,0.57095 7.05927,14.49666 4.92905,15.02732 8.3327,29.56643 9.94666,42.48829 0.71236,5.70338 0.60653,7.03017 -0.62571,7.84494 -6.65207,4.39839 -9.59503,7.06848 -12.03987,10.92358 -7.87393,12.41591 -4.59304,29.39718 7.16868,37.10377 1.44325,0.94565 2.6241,2.29075 2.6241,2.98908 0,2.73175 -6.19188,20.01165 -10.21084,28.49575 -7.60231,16.04862 -19.72497,32.2611 -33.65011,45.00263 l -6.1072,5.58809 4.35364,-9.19061 c 17.15608,-36.21685 13.81064,-78.00335 -9.00382,-112.46277 -6.22724,-9.40576 -25.41081,-28.95953 -40.01122,-40.78335 -23.42491,-18.97016 -49.11083,-31.14055 -78.03169,-36.97266 -9.59384,-1.93466 -14.09418,-2.25288 -31.3071,-2.21372 -17.02608,0.0387 -21.67846,0.38345 -30.39913,2.25232 -34.95346,7.49069 -66.53023,24.77953 -93.662979,51.28215 l -7.858986,7.67646 -5.379344,-2.04714 c -8.983655,-3.4188 -22.366233,-2.53124 -31.411403,2.08326 -9.920616,5.06112 -18.697493,17.24878 -20.460248,28.41131 -2.661106,16.85128 6.836609,34.95006 22.107731,42.12834 23.31292,10.95836 50.902393,-3.68595 55.436279,-29.4252 1.28886,-7.31698 -0.21826,-16.82413 -3.781863,-23.85655 l -2.534217,-5.00104 7.24453,-6.70231 c 16.3284,-15.1063 30.99966,-25.30806 48.24832,-33.54977 35.56793,-16.995 71.86512,-19.40486 109.03061,-7.2388 l 9.80617,3.21004 -10.87722,1.18543 c -24.49586,2.66965 -44.91322,11.15954 -71.49461,29.72869 -51.63867,36.07359 -81.49831,94.29847 -78.57676,153.22095 0.54316,10.95476 3.46532,32.17428 4.9805,36.16628 0.38284,1.00867 -1.12047,2.34226 -4.94934,4.39056 -6.41758,3.43316 -15.43691,12.68054 -19.238673,19.72513 -5.214206,9.6618 -7.097581,23.8159 -4.617139,34.69911 2.800211,12.28624 12.567934,25.43445 24.021642,32.33523 9.91253,5.97223 24.62802,8.37368 35.72293,5.82969 z"
     id="path2989"
     style="fill:#ffffff" />
</svg>
