<?xml version="1.0" encoding="UTF-8" standalone="no"?>
<!-- Created with Inkscape (http://www.inkscape.org/) -->

<svg
   xmlns:dc="http://purl.org/dc/elements/1.1/"
   xmlns:cc="http://creativecommons.org/ns#"
   xmlns:rdf="http://www.w3.org/1999/02/22-rdf-syntax-ns#"
   xmlns:svg="http://www.w3.org/2000/svg"
   xmlns="http://www.w3.org/2000/svg"
   version="1.1"
   width="512"
   height="512"
   id="svg2">
  <metadata
     id="metadata8">
    <rdf:RDF>
      <cc:Work
         rdf:about="">
        <dc:format>image/svg+xml</dc:format>
        <dc:type
           rdf:resource="http://purl.org/dc/dcmitype/StillImage" />
        <dc:title></dc:title>
      </cc:Work>
    </rdf:RDF>
  </metadata>
  <defs
     id="defs6" />
  <path
     d="m 0,0 512,0 0,512 -512,0 z"
     id="rect3034"
     style="fill:#000000" />
  <path
     d="m 346.2825,108.34347 c -0.44945,-4.32491 -1.09291,-9.321193 -1.4299,-11.102854 -0.59514,-3.146341 0.45849,-3.679429 36.68327,-18.56 C 402.04868,70.254277 419.45372,63.36 420.21375,63.36 c 2.08055,0 5.91721,19.028707 6.31522,31.321661 l 0.35103,10.841659 -35.2,4.71488 c -19.36,2.59319 -37.31058,4.997 -39.89016,5.34181 l -4.69018,0.62693 -0.81716,-7.86347 z M 121.6,112.56083 c -14.432,-2.01287 -31.0688,-4.32889 -36.970666,-5.14673 l -10.730665,-1.48697 0.690439,-10.403565 c 0.608767,-9.172918 4.133443,-29.456608 5.503994,-31.674208 0.36371,-0.588494 70.057448,27.376192 71.841818,28.826605 0.1402,0.113971 -0.0891,5.516496 -0.50947,12.005628 -0.4798,7.40581 -1.28953,11.75012 -2.17492,11.6687 -0.77579,-0.0713 -13.21853,-1.7766 -27.65053,-3.78946 z M 89.253733,183.31194 C 84.30769,172.45805 78.945084,156.14825 79.981605,155.11173 80.679048,154.41428 149.64927,144.77677 154.56,144.69056 c 1.584,-0.0278 2.88046,0.66944 2.88101,1.54944 5.5e-4,0.88 1.68264,5.15462 3.73796,9.49917 l 3.73696,7.89918 -30.93797,12.8202 c -17.01588,7.05111 -33.02769,13.69885 -35.581805,14.77276 l -4.643847,1.95255 -4.498575,-9.87192 z M 369.92,179.26221 c -20.064,-8.31331 -36.48,-15.61925 -36.48,-16.23543 0,-0.61617 1.70825,-4.71728 3.79612,-9.11355 3.18709,-6.71081 4.31657,-7.99174 7.04,-7.98394 4.33214,0.0128 76.84721,9.80738 77.5094,10.46957 1.29179,1.29179 -13.47849,38.56216 -15.08709,38.06979 C 406.5343,194.41841 389.984,187.57551 369.92,179.26221 z M 341.20375,246.72 c -4.54063,-5.808 -15.38866,-19.7673 -24.10673,-31.02066 l -15.85103,-20.46065 5.08504,-3.85935 c 2.79678,-2.12264 6.02327,-4.56384 7.17,-5.42489 1.77755,-1.33474 6.76102,2.03071 33.80047,22.82629 27.79814,21.37907 31.50943,24.64423 30.04701,26.43512 -2.4852,3.04338 -25.62194,22.06414 -26.83869,22.06414 -0.57771,0 -4.76545,-4.752 -9.30607,-10.56 z m -201.1756,2.293 c -5.55949,-4.47362 -12.20729,-10.34767 -14.7729,-13.05344 l -4.66474,-4.91956 29.15273,-22.66933 c 16.034,-12.46813 29.66676,-22.83613 30.29501,-23.03999 0.62825,-0.20388 4.66962,2.27804 8.98081,5.51535 l 7.83853,5.88604 -20.66879,26.78817 c -11.36785,14.73351 -21.88014,28.32684 -23.36065,30.2074 l -2.69186,3.41923 -10.10814,-8.13387 z m 127.10638,1.62755 c -2.64042,-19.9323 -4.78586,-37.24855 -4.76764,-38.48055 0.0186,-1.25098 1.02213,-2.25844 2.27311,-2.28179 1.232,-0.023 5.22957,-1.0748 8.88348,-2.3374 l 6.64348,-2.29561 14.6335,35.93739 c 8.04844,19.76558 14.20572,36.40976 13.68288,36.98706 -1.22519,1.35279 -21.75858,6.69421 -30.11569,7.8341 l -6.43235,0.87735 -4.80077,-36.24055 z m -48.47103,34.76982 c -11.1691,-1.88479 -27.93291,-7.14151 -27.95389,-8.76566 -0.005,-0.44259 6.36723,-16.39677 14.16211,-35.45375 l 14.1725,-34.64902 8.87789,1.99931 c 6.13723,1.3821 8.88812,2.59502 8.911,3.92902 0.11687,6.80684 -9.77298,74.224 -10.87001,74.09918 -0.72771,-0.0828 -4.01252,-0.60439 -7.2996,-1.15908 z M 145.56093,386.56 c 21.4632,-52.52038 38.01789,-91.36535 38.84872,-91.15709 0.79628,0.1996 6.34445,1.7819 12.32927,3.51623 5.98482,1.73434 14.69431,3.76243 19.3544,4.5069 4.66011,0.74444 8.54008,1.46613 8.62214,1.60376 0.082,0.13761 -4.91637,37.6902 -11.10764,83.4502 -6.19127,45.76 -11.28183,84.784 -11.31234,86.72 l -0.0555,3.52 47.36,0 47.36,0 -0.0554,-3.52 c -0.0305,-1.936 -5.10354,-40.96 -11.27337,-86.72 l -11.2179,-83.2 9.3438,-1.5058 c 5.13907,-0.82819 14.66037,-3.03535 21.15844,-4.90479 6.49806,-1.86944 11.99828,-2.91982 12.22272,-2.33419 0.22443,0.58562 16.94533,41.67278 37.15755,91.30478 l 36.7495,90.24 43.19737,0.33702 43.19736,0.33703 0,-28.01998 0,-28.01998 -57.6,-74.35577 c -31.68,-40.89566 -57.6,-74.88114 -57.6,-75.52325 0,-0.64212 3.312,-3.64906 7.36,-6.68208 4.048,-3.03303 11.14494,-9.14522 15.77096,-13.58266 l 8.41094,-8.06807 37.02906,28.49354 c 20.36598,15.67145 39.18904,30.13481 41.82904,32.14079 l 4.8,3.64726 -0.003,-42.71193 -0.003,-42.71192 -26.23697,-10.7344 C 436.76663,206.72169 424.96,201.4454 424.96,200.90053 c 0,-0.54487 1.67195,-4.52602 3.71546,-8.847 2.04349,-4.32097 5.5929,-13.5887 7.88759,-20.59493 2.98039,-9.09991 4.75267,-12.727 6.20454,-12.69801 1.11782,0.0223 7.79241,0.87512 14.83241,1.89512 7.04,1.01998 14.384,1.86571 16.32,1.87941 l 3.52,0.0248 0,-32.058 0,-32.058004 -4.16,0.718703 c -7.83515,1.353641 -22.07889,3.186581 -24.96,3.211941 -2.59214,0.0228 -2.88,-0.59178 -2.88,-6.149087 0,-6.989902 -3.31453,-27.512714 -5.75089,-35.608079 l -1.6189,-5.379228 19.68489,-8.023364 c 15.183,-6.188434 19.6849,-8.552973 19.6849,-10.339125 0,-2.19745 -2.69751,-2.314087 -52.8,-2.283024 l -52.8,0.03273 -17.28,13.460278 c -22.67169,17.660142 -20.95393,16.882056 -24.51859,11.106108 -1.62654,-2.635522 -4.907,-6.952661 -7.28993,-9.593644 l -4.3326,-4.801789 3.47982,-4.562282 c 1.91391,-2.509254 3.22501,-4.817093 2.91358,-5.128527 -0.31143,-0.311436 -34.37736,-0.417605 -75.70207,-0.235931 L 173.97437,35.2 l 3.22339,4.368786 3.22337,4.368786 -4.80275,5.231214 c -2.64151,2.877167 -6.14491,7.413325 -7.78533,10.080348 l -2.98258,4.849133 -4.66523,-3.519958 C 157.61935,58.642333 149.05129,51.996223 141.1451,45.809176 L 126.77019,34.56 l -46.822362,0 -46.822364,0 0.397269,4.583926 c 0.394501,4.55201 0.495298,4.624056 14.477267,10.347791 7.744,3.170127 14.281119,5.96448 14.526931,6.209673 0.245813,0.245193 -0.729518,5.524686 -2.167399,11.732207 -1.437882,6.207522 -3.202307,16.689709 -3.920945,23.29375 -0.718637,6.60404 -1.506775,12.207503 -1.751415,12.452153 -0.244641,0.24464 -3.865335,-0.11533 -8.045987,-0.79994 C 42.460534,101.69496 37.744,101.13149 36.16,101.12741 l -2.88,-0.007 0,29.62509 0,29.6251 8,-0.77624 c 4.4,-0.42693 10.736,-1.16452 14.08,-1.63908 5.237829,-0.74332 6.08,-0.55688 6.08,1.34604 0,3.39412 7.59634,24.75682 11.787281,33.14862 2.057186,4.11924 3.558624,7.62361 3.336528,7.78752 C 76.341714,200.40093 66.512,204.48205 54.72,209.30619 l -21.44,8.77115 0,40.08133 c 0,22.04473 0.330702,40.08133 0.734894,40.08133 0.404191,0 16.100191,-11.99322 34.88,-26.65158 18.779808,-14.65838 34.895526,-27.09517 35.812706,-27.63733 1.1113,-0.65689 5.38246,2.57614 12.80351,9.69159 6.12475,5.87252 13.29039,12.11732 15.92365,13.87732 2.63326,1.76 4.79168,3.63873 4.7965,4.17496 0.005,0.53625 -23.60726,31.4895 -52.47126,68.78504 l -52.48,67.81006 0,34.36164 c 0,18.89889 0.392662,34.75429 0.87258,35.23421 0.479919,0.47993 17.327919,0.71993 37.44,0.53334 L 108.16,478.08 145.56093,386.56 z"
     id="path2989"
     style="fill:#ffffff" />
</svg>
