<?xml version="1.0" encoding="UTF-8" standalone="no"?>
<!-- Created with Inkscape (http://www.inkscape.org/) -->

<svg
   xmlns:dc="http://purl.org/dc/elements/1.1/"
   xmlns:cc="http://creativecommons.org/ns#"
   xmlns:rdf="http://www.w3.org/1999/02/22-rdf-syntax-ns#"
   xmlns:svg="http://www.w3.org/2000/svg"
   xmlns="http://www.w3.org/2000/svg"
   xmlns:sodipodi="http://sodipodi.sourceforge.net/DTD/sodipodi-0.dtd"
   xmlns:inkscape="http://www.inkscape.org/namespaces/inkscape"
   id="svg2"
   version="1.1"
   inkscape:version="0.48.3.1 r9886"
   width="400"
   height="400"
   sodipodi:docname="Icon.3_15.png">
  <metadata
     id="metadata8">
    <rdf:RDF>
      <cc:Work
         rdf:about="">
        <dc:format>image/svg+xml</dc:format>
        <dc:type
           rdf:resource="http://purl.org/dc/dcmitype/StillImage" />
        <dc:title></dc:title>
      </cc:Work>
    </rdf:RDF>
  </metadata>
  <defs
     id="defs6" />
  <sodipodi:namedview
     pagecolor="#ffffff"
     bordercolor="#666666"
     borderopacity="1"
     objecttolerance="10"
     gridtolerance="10"
     guidetolerance="10"
     inkscape:pageopacity="0"
     inkscape:pageshadow="2"
     inkscape:window-width="1855"
     inkscape:window-height="1056"
     id="namedview4"
     showgrid="false"
     inkscape:zoom="0.59"
     inkscape:cx="200"
     inkscape:cy="200"
     inkscape:window-x="65"
     inkscape:window-y="24"
     inkscape:window-maximized="1"
     inkscape:current-layer="svg2" />
  <path
     style="fill:#000000"
     d="m 0,0 400,0 0,400 -400,0 z"
     id="rect3020" />
  <path
     id="path2989"
     style="fill:#ffffff"
     d="M 276.5,270.19539 C 334.42503,256.73247 374.40526,204.29698 371.74615,145.2767 370.31191,113.44319 359.21767,87.696988 337,64.641954 317.84023,44.760069 294.25599,32.644337 266.76936,28.562967 c -13.2933,-1.973866 -22.24542,-1.973866 -35.53872,0 -43.80787,6.504842 -80.88329,35.913718 -97.05486,76.985623 l -1.98782,5.04859 18.15602,-0.37737 c 17.17527,-0.35698 18.25349,-0.49464 19.96034,-2.54858 0.99237,-1.19418 4.59237,-5.02364 8,-8.509914 32.50976,-33.260116 87.25574,-33.5598 120.8087,-0.661316 13.4689,13.20618 21.81021,28.91046 24.9586,46.98989 1.67802,9.63588 0.65858,29.08186 -2.00991,38.3394 -8.76334,30.40186 -33.08511,53.39575 -64.18497,60.68071 -9.82207,2.30076 -27.89936,2.30843 -37.68319,0.016 -28.40383,-6.6553 -50.87089,-25.8904 -61.53262,-52.68095 C 155.73652,184.49666 153,172.72507 153,167.49364 c 0,-1.85658 -0.3712,-3.60502 -0.82489,-3.88542 -1.22957,-0.75991 -11.87162,2.18913 -18.42511,5.10582 -3.83747,1.7079 -5.75,3.14168 -5.75,4.31066 0,2.90326 4.87139,18.7827 8.0626,26.28193 15.15248,35.6078 49.67474,63.81291 86.9374,71.02893 4.675,0.90532 9.4,1.84848 10.5,2.09589 1.1,0.24742 9.2,0.31617 18,0.15278 11.84644,-0.21994 18.33638,-0.84008 25,-2.38884 z m -99,96.32801 c 11.40561,-2.3876 21.54787,-6.01735 32.66717,-11.69105 23.63344,-12.05912 43.48965,-32.72111 54.7227,-56.94339 6.5165,-14.05181 8.04825,-12.64104 -13.12389,-12.08744 -17.17106,0.44897 -18.35422,0.60411 -19.73799,2.58804 -2.9686,4.25612 -9.67025,10.98702 -15.09817,15.16408 -36.48767,28.07903 -86.06906,23.84646 -117.781829,-10.05459 -15.45297,-16.51928 -22.961665,-37.80666 -21.845733,-61.93333 0.640017,-13.83731 2.27384,-20.6574 7.767728,-32.42495 11.058318,-23.6862 30.996814,-40.30777 56.836624,-47.38138 6.05364,-1.65718 10.53363,-2.08057 22.09339,-2.08799 12.93924,-0.008 15.46875,0.28433 23.5,2.71855 19.45702,5.89731 33.59301,16.06885 46.70991,33.61005 6.85737,9.17034 13.77291,27.64077 15.27842,40.80645 l 0.72115,6.30645 3.14526,-0.67878 c 6.34373,-1.36904 15.22848,-4.45211 18.32059,-6.35737 l 3.17534,-1.95654 -1.43594,-6.3101 C 266.56052,187.68987 246.31445,159.26689 219.54686,142.18629 189.39975,122.94917 150.88781,117.85466 116.86354,128.60292 75.199038,141.76473 44.694374,174.6534 33.946585,218 c -2.967181,11.96685 -3.738022,35.23778 -1.577917,47.63569 4.223462,24.24053 14.015331,44.30239 30.812488,63.1295 19.818849,22.21398 44.276164,34.74805 77.318844,39.62494 6.18395,0.91271 29.29183,-0.25313 37,-1.86673 z" />
</svg>
