<?xml version="1.0" encoding="UTF-8" standalone="no"?>
<!-- Created with Inkscape (http://www.inkscape.org/) -->

<svg
   xmlns:dc="http://purl.org/dc/elements/1.1/"
   xmlns:cc="http://creativecommons.org/ns#"
   xmlns:rdf="http://www.w3.org/1999/02/22-rdf-syntax-ns#"
   xmlns:svg="http://www.w3.org/2000/svg"
   xmlns="http://www.w3.org/2000/svg"
   version="1.1"
   width="512"
   height="512"
   id="svg2">
  <metadata
     id="metadata8">
    <rdf:RDF>
      <cc:Work
         rdf:about="">
        <dc:format>image/svg+xml</dc:format>
        <dc:type
           rdf:resource="http://purl.org/dc/dcmitype/StillImage" />
        <dc:title></dc:title>
      </cc:Work>
    </rdf:RDF>
  </metadata>
  <defs
     id="defs6" />
  <path
     d="m 0,0 512,0 0,512 -512,0 z"
     id="rect3020"
     style="fill:#000000" />
  <path
     d="M 353.92,345.8501 C 428.06404,328.61756 479.23873,261.50013 475.83507,185.95418 473.99924,145.20728 459.79862,112.25214 431.36,82.741701 406.83549,57.292888 376.64767,41.784751 341.46478,36.560598 c -17.01542,-2.526549 -28.47414,-2.526549 -45.48956,0 C 239.90115,44.886796 192.44461,82.530157 171.745,135.10219 l -2.54441,6.4622 23.2397,-0.48303 c 21.98435,-0.45694 23.36447,-0.63314 25.54924,-3.26219 1.27023,-1.52855 5.87823,-6.43026 10.24,-10.89269 41.61249,-42.572944 111.68735,-42.95654 154.63514,-0.84648 17.24019,16.90391 27.91706,37.00539 31.947,60.14706 2.14787,12.33393 0.84299,37.22478 -2.57268,49.07443 -11.21708,38.91438 -42.34894,68.34656 -82.15676,77.67131 -12.57225,2.94497 -35.71118,2.95479 -48.23449,0.0205 -36.3569,-8.51878 -65.11474,-33.13971 -78.76175,-67.43162 -3.74324,-9.40594 -7.24599,-24.47357 -7.24599,-31.1698 0,-2.37642 -0.47514,-4.61443 -1.05586,-4.97334 -1.57385,-0.97268 -15.19567,2.80209 -23.58414,6.53545 -4.91196,2.18611 -7.36,4.02135 -7.36,5.51765 0,3.71617 6.23538,24.04185 10.32013,33.64087 19.39517,45.57798 63.58367,81.68052 111.27987,90.91703 5.984,1.15881 12.032,2.36605 13.44,2.68274 1.408,0.31669 11.776,0.40469 23.04,0.19555 15.16344,-0.28152 23.47057,-1.0753 32,-3.05771 z M 227.2,469.14995 c 14.59918,-3.05613 27.58127,-7.70221 41.81398,-14.96454 30.2508,-15.43568 55.66675,-41.88302 70.04505,-72.88754 8.34112,-17.98632 10.30176,-16.18053 -16.79858,-15.47192 -21.97895,0.57468 -23.4934,0.77326 -25.26462,3.31269 -3.79981,5.44783 -12.37792,14.06338 -19.32566,19.41002 -46.70422,35.94116 -110.1684,30.52347 -150.76074,-12.86988 -19.7798,-21.14467 -29.390933,-48.39252 -27.96254,-79.27466 0.819222,-17.71176 2.91052,-26.44147 9.94269,-41.50393 14.15465,-30.31834 39.67592,-51.59395 72.75088,-60.64817 7.74866,-2.12119 13.48305,-2.66313 28.27954,-2.67263 16.56223,-0.0102 19.8,0.36394 30.08,3.47975 24.90499,7.54855 42.99905,20.56812 59.78868,43.02086 8.77744,11.73804 17.62933,35.38019 19.55638,52.23226 l 0.92307,8.07225 4.02594,-0.86884 c 8.11997,-1.75237 19.49245,-5.6987 23.45035,-8.13743 l 4.06444,-2.50437 -1.83801,-8.07693 C 341.19747,240.24303 315.2825,203.86162 281.01998,181.99845 242.43168,157.37494 193.1364,150.85397 149.58533,164.61174 96.254769,181.45885 57.208799,223.55635 43.451629,279.04 c -3.797992,15.31757 -4.784668,45.10436 -2.019734,60.97368 5.406031,31.02788 17.939624,56.70706 39.439985,80.80576 25.36813,28.4339 56.67349,44.47751 98.96812,50.71993 7.91546,1.16827 37.49354,-0.32401 47.36,-2.38942 z"
     id="path2989"
     style="fill:#ffffff" />
</svg>
