<?xml version="1.0" encoding="UTF-8" standalone="no"?>
<!-- Created with Inkscape (http://www.inkscape.org/) -->

<svg
   xmlns:dc="http://purl.org/dc/elements/1.1/"
   xmlns:cc="http://creativecommons.org/ns#"
   xmlns:rdf="http://www.w3.org/1999/02/22-rdf-syntax-ns#"
   xmlns:svg="http://www.w3.org/2000/svg"
   xmlns="http://www.w3.org/2000/svg"
   xmlns:sodipodi="http://sodipodi.sourceforge.net/DTD/sodipodi-0.dtd"
   xmlns:inkscape="http://www.inkscape.org/namespaces/inkscape"
   id="svg2"
   version="1.1"
   inkscape:version="0.48.3.1 r9886"
   width="400"
   height="400"
   sodipodi:docname="Icon.5_21.png">
  <metadata
     id="metadata8">
    <rdf:RDF>
      <cc:Work
         rdf:about="">
        <dc:format>image/svg+xml</dc:format>
        <dc:type
           rdf:resource="http://purl.org/dc/dcmitype/StillImage" />
        <dc:title></dc:title>
      </cc:Work>
    </rdf:RDF>
  </metadata>
  <defs
     id="defs6" />
  <sodipodi:namedview
     pagecolor="#ffffff"
     bordercolor="#666666"
     borderopacity="1"
     objecttolerance="10"
     gridtolerance="10"
     guidetolerance="10"
     inkscape:pageopacity="0"
     inkscape:pageshadow="2"
     inkscape:window-width="1855"
     inkscape:window-height="1056"
     id="namedview4"
     showgrid="false"
     inkscape:zoom="0.59"
     inkscape:cx="200"
     inkscape:cy="200"
     inkscape:window-x="65"
     inkscape:window-y="24"
     inkscape:window-maximized="1"
     inkscape:current-layer="svg2" />
  <path
     style="fill:#000000"
     d="m 0,0 400,0 0,400 -400,0 z"
     id="rect3020" />
  <path
     id="path2989"
     style="fill:#ffffff"
     d="m 194,355.11366 c -14.51779,-5.70516 -25.86765,-11.67624 -34.71902,-18.26541 l -8.03469,-5.98121 3.455,-10.17819 c 8.23529,-24.26054 12.16935,-46.35373 12.99738,-72.99151 0.52159,-16.7797 0.75752,-18.72558 2.1929,-18.08615 14.2782,6.36056 29.29287,7.79524 38.35843,3.66523 2.6125,-1.19018 4.75,-2.35827 4.75,-2.59576 0,-0.53717 -5.06796,-12.06025 -5.49955,-12.5044 -0.17303,-0.17805 -1.78519,0.43674 -3.58259,1.36622 -2.54819,1.31772 -5.04658,1.58905 -11.34293,1.23186 -12.9359,-0.73385 -21.70664,-5.15028 -56.8637,-28.63325 C 115.11828,178.38614 90.662621,163.34369 85.25,161.10286 83.4625,160.36284 82,159.39648 82,158.9554 c 0,-0.44107 1.178602,-2.20264 2.619116,-3.91459 8.579433,-10.19608 21.609504,-7.98678 48.727064,8.26186 C 140.41158,167.5362 146.6059,171 147.11133,171 148.1493,171 159,165.01134 159,164.43847 c 0,-0.20384 -0.66455,-1.84838 -1.47679,-3.65454 -1.86494,-4.14707 -22.70697,-99.548826 -22.31409,-102.139928 0.49805,-3.284655 10.03657,-7.904076 16.587,-8.032935 L 157.4421,50.5 165.0538,85 c 4.18643,18.975 8.39265,37.9875 9.34716,42.25 l 1.73546,7.75 6.8644,0 c 5.689,0 6.94615,-0.29966 7.3418,-1.75 0.26257,-0.9625 3.53454,-21.21126 7.27104,-44.997247 7.61449,-48.472709 6.19189,-44.509699 15.93587,-44.393312 6.01555,0.07185 12.17454,2.257913 13.09114,4.64655 0.33691,0.877963 -2.63651,21.485781 -6.6076,45.795152 -3.97109,24.309367 -7.29057,45.060957 -7.37662,46.114627 -0.12345,1.51162 1.16321,2.34371 6.0992,3.94435 3.85412,1.24981 6.57522,1.66605 7.08808,1.08423 0.45783,-0.51939 10.24279,-20.16704 21.74435,-43.66143 C 270.96446,54.031644 268.80545,56.921345 278,61.07854 c 4.30641,1.947087 11,7.471671 11,9.078902 0,0.420809 -9,19.441481 -20,42.268158 -11,22.82668 -20,41.96451 -20,42.52851 0,1.61601 10.96209,8.49696 11.88581,7.46078 4.63191,-5.19581 54.62489,-57.98314 55.10749,-58.18771 1.31497,-0.5574 9.05168,5.88512 11.42655,9.51513 5.36947,8.20725 7.67804,4.80401 -33.08783,48.7772 -20.25761,21.8514 -38.07477,41.54925 -39.59368,43.773 -5.05943,7.4072 -6.95019,15.65243 -6.92704,30.20749 0.0308,19.34787 3.87195,40.4768 13.31352,73.23269 2.25634,7.82799 3.85285,14.88311 3.5478,15.67806 -1.08863,2.83692 -20.24398,16.58139 -30.6171,21.96857 -9.3125,4.83635 -20.42999,9.15426 -28.05552,10.89646 -1.62119,0.37039 -5.8395,-0.74118 -12,-3.16212 z m 17.65063,16.42972 c 43.51082,-11.65711 78.25522,-41.3177 101.25343,-86.43801 C 339.44363,233.03726 351.94853,164.40252 354.60035,56.25 L 355.29302,28 202.48718,28 49.681351,28 50.328932,56.75 c 1.85394,82.30751 13.73804,150.12297 35.617886,203.25 23.183372,56.29216 58.305012,93.19566 104.644982,109.95405 5.99951,2.16967 11.1332,3.96646 11.4082,3.99287 0.275,0.0264 4.61778,-1.05517 9.65063,-2.40354 z" />
</svg>
