<?xml version="1.0" encoding="UTF-8" standalone="no"?>
<!-- Created with Inkscape (http://www.inkscape.org/) -->

<svg
   xmlns:dc="http://purl.org/dc/elements/1.1/"
   xmlns:cc="http://creativecommons.org/ns#"
   xmlns:rdf="http://www.w3.org/1999/02/22-rdf-syntax-ns#"
   xmlns:svg="http://www.w3.org/2000/svg"
   xmlns="http://www.w3.org/2000/svg"
   xmlns:sodipodi="http://sodipodi.sourceforge.net/DTD/sodipodi-0.dtd"
   xmlns:inkscape="http://www.inkscape.org/namespaces/inkscape"
   id="svg2"
   version="1.1"
   inkscape:version="0.48.3.1 r9886"
   width="400"
   height="400"
   sodipodi:docname="Icon.7_33.png">
  <metadata
     id="metadata8">
    <rdf:RDF>
      <cc:Work
         rdf:about="">
        <dc:format>image/svg+xml</dc:format>
        <dc:type
           rdf:resource="http://purl.org/dc/dcmitype/StillImage" />
        <dc:title></dc:title>
      </cc:Work>
    </rdf:RDF>
  </metadata>
  <defs
     id="defs6" />
  <sodipodi:namedview
     pagecolor="#ffffff"
     bordercolor="#666666"
     borderopacity="1"
     objecttolerance="10"
     gridtolerance="10"
     guidetolerance="10"
     inkscape:pageopacity="0"
     inkscape:pageshadow="2"
     inkscape:window-width="1855"
     inkscape:window-height="1056"
     id="namedview4"
     showgrid="false"
     inkscape:zoom="0.59"
     inkscape:cx="200"
     inkscape:cy="200"
     inkscape:window-x="65"
     inkscape:window-y="24"
     inkscape:window-maximized="1"
     inkscape:current-layer="svg2" />
  <path
     style="fill:#000000"
     d="m 0,0 400,0 0,400 -400,0 z"
     id="rect3036" />
  <path
     id="path2989"
     style="fill:#ffffff"
     d="m 369.03521,107.75 c 0.0194,-0.6875 -1.18881,-17.521041 -2.68483,-37.40787 l -2.72004,-36.157869 -5.06517,-0.576634 c -13.01617,-1.481799 -69.78306,-5.723074 -70.25696,-5.249171 -0.52877,0.528774 1.41046,30.146525 2.24494,34.286823 0.47456,2.354496 1.94022,2.564247 27.62965,3.954069 l 11.68279,0.632051 0.54459,6.1343 c 0.29953,3.373866 0.82334,12.274601 1.16403,19.779412 l 0.61944,13.645109 12.15318,0.95197 c 18.62047,1.45856 24.64746,1.46047 24.68838,0.008 z M 251.33024,95.169843 278.1466,68.339686 276.89003,52.169843 C 276.19892,43.276429 275.37638,36 275.06216,36 c -1.31455,0 -82.41182,81.98368 -81.75097,82.64453 0.39782,0.39781 6.90304,1.25154 14.45605,1.89717 7.55302,0.64563 14.41089,1.23787 15.23971,1.31609 0.82881,0.0782 13.5743,-11.93136 28.32329,-26.687947 z m 41.58657,41.413387 26.40266,-26.41676 -0.66008,-15.250249 C 318.29634,86.528584 317.88696,79.563722 317.74965,79.438749 317.61234,79.313775 310.525,78.905058 302,78.530487 l -15.5,-0.681038 -26.35072,26.433001 -26.35073,26.433 0.85073,15.39227 L 235.5,161.5 l 6.5,0.5774 c 3.575,0.31757 10.55318,0.65507 15.50708,0.75 l 9.00707,0.1726 26.40266,-26.41677 z m 67.56474,-14.43501 c -0.24179,-0.2418 -7.53656,-1.03323 -16.21059,-1.75874 L 328.5,119.07038 302.15985,145.28519 275.8197,171.5 276.44813,183 c 0.34563,6.325 0.90326,13.90592 1.23917,16.84649 l 0.61074,5.34649 41.31157,-41.30257 c 22.72136,-22.71641 41.11373,-41.5004 40.87194,-41.74219 z m -95.27883,84.26337 c -0.51909,-8.57654 -2.30931,-29.85151 -2.53051,-30.07271 -0.117,-0.11701 -8.93282,-0.68282 -19.5907,-1.25737 -10.65788,-0.57455 -19.48274,-1.16543 -19.61079,-1.31307 -0.12806,-0.14764 -0.71339,-8.98298 -1.30074,-19.63408 -0.58736,-10.6511 -1.20339,-19.49351 -1.36895,-19.64979 -0.71536,-0.67527 -33.89626,-2.72268 -34.4907,-2.12823 -0.86566,0.86565 2.59831,44.61563 3.69015,46.60668 1.53573,2.80053 28.63286,29.03536 30.07964,29.12243 0.78093,0.047 10.86988,0.88444 22.41988,1.86099 11.55,0.97655 21.45,1.68582 22,1.57615 0.55363,-0.1104 0.8673,-2.39181 0.70272,-5.111 z m -37.25329,30.94486 c 0.9283,-0.28612 -10.93474,-12.83483 -32.99456,-34.9016 C 176.01067,183.50468 160.17092,168 159.75544,168 159.33995,168 159,169.02693 159,170.28207 c 0,1.25514 -0.64803,4.74264 -1.44008,7.75 l -1.44007,5.46793 28.69007,28.67041 28.69008,28.67041 6.5,-1.51881 c 3.575,-0.83535 7.15225,-1.71985 7.94943,-1.96556 z m -52.18529,-16.03861 -25.11384,-25.18217 -6.78724,6.68217 -6.78725,6.68216 25.15845,25.20368 25.15844,25.20367 6.74264,-6.70367 6.74263,-6.70368 -25.11383,-25.18216 z M 179,285.15891 c 0,-0.94768 0.60007,-4.03638 1.33349,-6.86378 l 1.33348,-5.14073 -29.08348,-29.0218 -29.08349,-29.0218 -5.46793,1.4446 c -3.00736,0.79453 -6.26986,1.4446 -7.25,1.4446 -0.98014,0 -1.78207,0.33509 -1.78207,0.74464 0,1.34202 68.35414,69.15452 69.18764,68.6394 C 178.63444,287.1079 179,286.10659 179,285.15891 z M 120,249.5516 C 120,248.23665 113.85398,242 112.55814,242 c -0.57723,0 -20.288958,19.23554 -43.803829,42.74564 L 26,327.49128 l 0,8.50037 0,8.50037 L 73,297.5 c 25.85,-25.84561 47,-47.42239 47,-47.9484 z m -10.25417,79.20261 C 134.08562,304.41903 154,284.0495 154,283.48858 c 0,-0.56091 -5.40536,-6.41112 -12.01191,-13.00046 L 129.97617,258.5075 77.988086,310.52375 26,362.54 l 0,5.23 0,5.23 19.745833,0 19.745833,0 44.254164,-44.24579 z" />
</svg>
