<?xml version="1.0" encoding="UTF-8" standalone="no"?>
<!-- Created with Inkscape (http://www.inkscape.org/) -->

<svg
   xmlns:dc="http://purl.org/dc/elements/1.1/"
   xmlns:cc="http://creativecommons.org/ns#"
   xmlns:rdf="http://www.w3.org/1999/02/22-rdf-syntax-ns#"
   xmlns:svg="http://www.w3.org/2000/svg"
   xmlns="http://www.w3.org/2000/svg"
   version="1.1"
   width="512"
   height="512"
   id="svg2">
  <metadata
     id="metadata8">
    <rdf:RDF>
      <cc:Work
         rdf:about="">
        <dc:format>image/svg+xml</dc:format>
        <dc:type
           rdf:resource="http://purl.org/dc/dcmitype/StillImage" />
        <dc:title></dc:title>
      </cc:Work>
    </rdf:RDF>
  </metadata>
  <defs
     id="defs6" />
  <path
     d="m 0,0 512,0 0,512 -512,0 z"
     id="rect3026"
     style="fill:#000000" />
  <path
     d="m 287.48242,377.75963 -17.79757,-5.91963 -4.90111,-16 c -2.6956,-8.8 -4.91069,-16.76576 -4.92243,-17.70171 -0.0493,-3.93307 18.54542,3.25669 27.5896,10.6677 6.55381,5.37037 12.40903,13.97309 15.94771,23.43103 4.57374,12.22446 4.40708,12.2823 -15.9162,5.52261 z m -86.03013,0.94593 c 1.22751,-7.91703 6.34899,-17.81583 13.10599,-25.33124 6.22134,-6.91964 20.37818,-14.90753 28.84354,-16.27476 l 4.6818,-0.75616 -5.83044,18.529 -5.83045,18.529 -15.49136,4.73059 c -8.52026,2.60183 -16.58347,5.05202 -17.91824,5.44488 -2.20618,0.64931 -2.34812,0.20631 -1.56084,-4.87131 z m 59.08055,60.20577 c 0.54273,-1.68924 3.0658,-9.69533 5.60681,-17.79133 l 4.62002,-14.72 14.09159,-4.58881 c 7.75038,-2.52384 15.73088,-5.00025 17.73446,-5.50311 3.62368,-0.90949 3.63822,-0.88869 2.76069,3.9488 -3.39826,18.73323 -22.60666,37.96196 -40.8848,40.92809 -4.73604,0.76855 -4.87953,0.68551 -3.92877,-2.27364 z m -20.63199,1.96569 c -19.05257,-5.1899 -35.61189,-22.77891 -38.56229,-40.96017 -0.6741,-4.15397 -0.48529,-4.71169 1.35592,-4.00516 1.1765,0.45146 9.49362,3.13954 18.48249,5.97348 l 16.34343,5.15265 4.85666,16.14884 c 2.67118,8.88186 5.16272,16.94636 5.53676,17.92109 0.80133,2.08826 0.4646,2.07855 -8.01297,-0.23073 z m 30.52356,17.91374 c 24.58079,-6.36952 43.1755,-24.08412 51.63467,-49.19076 3.17918,-9.43571 3.19202,-29.72083 0.0254,-40.00269 -2.85514,-9.27028 -7.48311,-17.82982 -13.77928,-25.48509 l -4.90827,-5.96778 2.04041,-4.88338 c 3.04513,-7.28803 8.92652,-15.29677 14.17534,-19.30269 l 4.66244,-3.55837 29.54248,-0.83967 c 37.62939,-1.0695 55.32973,-4.57205 75.99794,-15.03851 12.44148,-6.30042 25.69175,-17.0555 18.50454,-15.01991 -1.232,0.34893 -11.456,1.3275 -22.72,2.17462 -23.29815,1.75215 -50.72052,0.92531 -74.88,-2.25777 l -16,-2.10804 19.04803,-2.95229 c 57.42512,-8.90046 102.82225,-26.69943 121.1507,-47.4999 4.8783,-5.53633 9.75616,-13.09853 8.4489,-13.09853 -0.29593,0 -4.19872,1.11873 -8.67287,2.48607 -23.9952,7.33312 -55.45681,13.88256 -83.23134,17.32647 -15.8415,1.96428 -53.34253,4.04366 -52.2635,2.89795 0.352,-0.37376 7.552,-3.38203 16,-6.68504 21.69292,-8.48157 59.25297,-27.19934 73.56617,-36.66118 14.63922,-9.67735 31.13663,-25.22791 36.9009,-34.78304 5.07009,-8.40441 9.69631,-20.10123 7.95026,-20.10123 -0.68873,0 -5.01508,2.3031 -9.61409,5.11802 -18.46378,11.30108 -51.03049,26.19096 -83.20324,38.04148 -19.31308,7.11378 -50.74162,17.24556 -51.41294,16.57423 -0.19836,-0.19837 3.4944,-2.61578 8.20614,-5.37203 12.55947,-7.34698 34.72959,-23.57921 51.56762,-37.75612 43.80843,-36.88481 70.21629,-77.159956 70.33696,-107.272246 0.0128,-3.050668 -0.40978,-5.354668 -0.93778,-5.12 C 458.032,42.688 448.91814,51.808 438.30698,62.72 c -40.27053,41.41225 -60.75809,59.10769 -93.13826,80.44504 -12.16808,8.01831 -26.65636,15.61739 -58.76237,30.82078 -10.62821,5.03284 -15.19205,10.49959 -16.02794,19.19892 -0.77844,8.10131 1.15082,13.58005 8.81939,25.04552 8.37506,12.52175 11.04726,18.88511 12.87941,30.67002 1.76943,11.38142 0.24739,25.58415 -4.20536,39.24151 -2.92788,8.98032 -12.29861,28.67499 -14.52125,30.51961 -0.8456,0.70179 -5.30538,0.61621 -11.2329,-0.21556 -6.67613,-0.93682 -12.3418,-0.97502 -17.65686,-0.11904 l -7.82636,1.26039 -6.92542,-14.19359 c -15.97503,-32.74065 -16.30914,-61.21839 -0.98091,-83.60759 11.32976,-16.5488 13.88351,-25.14938 10.13291,-34.12584 -2.7618,-6.6099 -6.67035,-9.55177 -22.54106,-16.96606 C 160.91864,144.81231 132.61706,124.05644 78.840069,69.868751 L 50.800137,41.614679 51.50976,52.48734 c 1.55435,23.815317 15.72337,48.85131 44.459688,78.55816 21.598592,22.32808 52.473742,47.13993 76.510552,61.48537 7.62344,4.54974 9.88955,6.41245 6.4,5.26068 -0.88,-0.29044 -7.648,-2.35655 -15.04,-4.59133 -38.87141,-11.75178 -89.67447,-33.32657 -118.122317,-50.16357 -4.775274,-2.82628 -8.957424,-4.86358 -9.293666,-4.52734 -0.993472,0.99347 2.948709,11.041 7.368445,18.78012 4.904678,8.58828 18.934716,22.9241 30.447538,31.11115 18.956458,13.48041 40.25514,24.4574 76.8,39.5815 l 21.12,8.74052 -8.45412,0.0387 c -32.67676,0.1496 -87.734374,-8.39347 -123.7168,-19.19663 -6.793563,-2.03967 -12.568957,-3.49144 -12.834212,-3.22619 -2.072253,2.07225 12.670793,18.13951 23.253026,25.3416 22.412764,15.25374 70.196116,30.24896 115.992106,36.40026 l 8.32,1.11755 -9.6,1.59285 c -5.28,0.87607 -20.544,2.25471 -33.92,3.06366 -20.06117,1.21323 -28.35468,1.13723 -47.36,-0.43404 -12.672,-1.04765 -23.314506,-1.68931 -23.650015,-1.4259 -1.385806,1.08798 10.265292,9.46703 19.810015,14.24661 22.18595,11.1098 37.42997,14.18674 74.88,15.11423 19.96835,0.49454 29.7813,1.22573 32,2.38441 5.1612,2.69536 12.00451,10.10625 15.8406,17.15442 l 3.56664,6.5531 -4.65827,4.75639 c -11.08711,11.32062 -18.38097,28.04174 -19.51253,44.73229 -2.27723,33.58968 20.42136,64.93999 53.44405,73.81457 9.31264,2.50269 25.28994,2.52115 34.86392,0.0403 z"
     id="path2989"
     style="fill:#ffffff" />
</svg>
