<?xml version="1.0" encoding="UTF-8" standalone="no"?>
<!-- Created with Inkscape (http://www.inkscape.org/) -->

<svg
   xmlns:dc="http://purl.org/dc/elements/1.1/"
   xmlns:cc="http://creativecommons.org/ns#"
   xmlns:rdf="http://www.w3.org/1999/02/22-rdf-syntax-ns#"
   xmlns:svg="http://www.w3.org/2000/svg"
   xmlns="http://www.w3.org/2000/svg"
   xmlns:sodipodi="http://sodipodi.sourceforge.net/DTD/sodipodi-0.dtd"
   xmlns:inkscape="http://www.inkscape.org/namespaces/inkscape"
   id="svg2"
   version="1.1"
   inkscape:version="0.48.3.1 r9886"
   width="400"
   height="400"
   sodipodi:docname="Icon.3_51.png">
  <metadata
     id="metadata8">
    <rdf:RDF>
      <cc:Work
         rdf:about="">
        <dc:format>image/svg+xml</dc:format>
        <dc:type
           rdf:resource="http://purl.org/dc/dcmitype/StillImage" />
        <dc:title></dc:title>
      </cc:Work>
    </rdf:RDF>
  </metadata>
  <defs
     id="defs6" />
  <sodipodi:namedview
     pagecolor="#ffffff"
     bordercolor="#666666"
     borderopacity="1"
     objecttolerance="10"
     gridtolerance="10"
     guidetolerance="10"
     inkscape:pageopacity="0"
     inkscape:pageshadow="2"
     inkscape:window-width="1855"
     inkscape:window-height="1056"
     id="namedview4"
     showgrid="false"
     inkscape:zoom="0.59"
     inkscape:cx="200"
     inkscape:cy="200"
     inkscape:window-x="65"
     inkscape:window-y="24"
     inkscape:window-maximized="1"
     inkscape:current-layer="svg2" />
  <path
     style="fill:#000000"
     d="m 0,0 400,0 0,400 -400,0 z"
     id="rect3026" />
  <path
     id="path2989"
     style="fill:#ffffff"
     d="M 224.59564,295.12471 210.69129,290.5 206.8623,278 c -2.10594,-6.875 -3.83648,-13.09825 -3.84565,-13.82946 -0.0385,-3.07271 14.48861,2.54429 21.55437,8.33414 5.12017,4.1956 9.69456,10.91648 12.45915,18.30549 3.57324,9.55036 3.44303,9.59555 -12.43453,4.31454 z m -67.21104,0.73901 c 0.95899,-6.18518 4.96015,-13.91862 10.23906,-19.79003 4.86042,-5.40597 15.92045,-11.64651 22.53401,-12.71466 l 3.65766,-0.59075 -4.55503,14.47578 -4.55504,14.47578 -12.10263,3.69578 c -6.65645,2.03268 -12.95583,3.94689 -13.99862,4.25381 -1.72358,0.50727 -1.83447,0.16118 -1.21941,-3.80571 z m 46.15668,47.03576 C 203.96529,341.57976 205.93644,335.325 207.9216,329 l 3.60939,-11.5 11.00906,-3.58501 c 6.05498,-1.97175 12.28975,-3.90644 13.85504,-4.2993 2.831,-0.71054 2.84236,-0.69429 2.15679,3.085 -2.65489,14.63533 -17.66145,29.65778 -31.94125,31.97507 -3.70003,0.60043 -3.81213,0.53555 -3.06935,-1.77628 z m -16.11874,1.53569 c -14.88482,-4.05461 -27.82179,-17.79602 -30.12679,-32.00013 -0.52664,-3.24529 -0.37913,-3.68101 1.05931,-3.12903 0.91914,0.3527 7.41689,2.45276 14.43945,4.66678 l 12.7683,4.02551 3.79427,12.61628 c 2.08686,6.93895 4.03337,13.23934 4.32559,14.00085 0.62604,1.63145 0.36297,1.62387 -6.26013,-0.18026 z m 23.84653,13.99511 c 19.20374,-4.97619 33.73086,-18.81572 40.33959,-38.43028 2.48373,-7.37165 2.49376,-23.2194 0.0198,-31.2521 -2.23058,-7.24241 -5.84618,-13.92955 -10.76506,-19.91023 l -3.83459,-4.66233 1.59407,-3.81514 c 2.37901,-5.69377 6.97385,-11.9506 11.07449,-15.08022 l 3.64253,-2.77998 23.08006,-0.65599 c 29.39796,-0.83555 43.22635,-3.57192 59.37339,-11.74884 9.71991,-4.9222 20.07168,-13.32461 14.45667,-11.7343 -0.9625,0.2726 -8.95,1.03711 -17.75,1.69892 -18.20168,1.36887 -39.6254,0.7229 -58.5,-1.76388 l -12.5,-1.64691 14.88128,-2.30648 c 44.86337,-6.95348 80.32988,-20.85893 94.64898,-37.10929 C 374.84149,172.90797 378.65232,167 377.63102,167 c -0.23119,0 -3.28025,0.87401 -6.77568,1.94224 -18.74625,5.729 -43.32563,10.84575 -65.02448,13.53631 -12.37617,1.53459 -41.67385,3.15911 -40.83086,2.26402 0.275,-0.292 5.9,-2.64221 12.5,-5.22269 16.94759,-6.62622 46.29138,-21.24948 57.47357,-28.64154 11.43689,-7.56043 24.32549,-19.70931 28.82883,-27.17425 C 367.76341,117.13814 371.37764,108 370.01354,108 c -0.53807,0 -3.91803,1.7993 -7.51101,3.99845 -14.42483,8.82897 -39.86757,20.46169 -65.00253,29.71991 -15.08834,5.55764 -39.64189,13.47309 -40.16636,12.94862 -0.15497,-0.15498 2.73,-2.04358 6.41105,-4.1969 9.81208,-5.73983 27.13249,-18.42126 40.2872,-29.49697 34.22534,-28.816259 54.85648,-60.281216 54.95075,-83.806443 0.01,-2.383334 -0.32014,-4.183334 -0.73264,-4 C 357.8375,33.35 350.7173,40.475 342.42733,49 c -31.46135,32.353319 -47.46726,46.177884 -72.76427,62.84769 -9.50631,6.2643 -20.82528,12.20108 -45.9081,24.07873 -8.30329,3.93191 -11.86879,8.20281 -12.52183,14.99916 -0.60815,6.32915 0.89908,10.60941 6.89015,19.56681 6.54302,9.78262 8.63067,14.75399 10.06204,23.96095 1.38237,8.89174 0.19327,19.98762 -3.28544,30.65743 -2.2874,7.01588 -9.60829,22.40234 -11.34472,23.84345 -0.66063,0.54827 -4.14483,0.48141 -8.77571,-0.16841 -5.21572,-0.73189 -9.64203,-0.76173 -13.79442,-0.093 l -6.11434,0.98468 -5.41049,-11.08874 c -12.48049,-25.57863 -12.74151,-47.82687 -0.76633,-65.31843 8.85137,-12.92875 10.84649,-19.64795 7.91633,-26.66081 C 184.45255,141.44552 181.39899,139.14719 169,133.35477 125.71769,113.13462 103.60708,96.919098 61.593804,54.584962 L 39.687607,32.511468 40.242,41.005734 c 1.214336,18.605717 12.283883,38.165085 34.734131,61.373566 16.873904,17.44381 40.995109,36.82807 59.773869,48.03544 5.95581,3.55449 7.72621,5.00973 5,4.10991 -0.6875,-0.22691 -5.975,-1.84106 -11.75,-3.58698 -30.368286,-9.18108 -70.05818,-26.03638 -92.28306,-39.19029 -3.730683,-2.20803 -6.997988,-3.79967 -7.260677,-3.53698 -0.77615,0.77615 2.303679,8.62578 5.756598,14.67197 3.83178,6.70959 14.792747,17.90945 23.787139,24.30558 14.809733,10.53157 31.449327,19.10735 60,30.92305 l 16.5,6.82853 -6.60478,0.0302 c -25.52872,0.11687 -68.542481,-6.5574 -96.653751,-14.99737 -5.307471,-1.59349 -9.819498,-2.72769 -10.026728,-2.52046 -1.618948,1.61894 9.899057,14.17149 18.166426,19.79812 17.509972,11.91699 54.840716,23.632 90.618833,28.43771 l 6.5,0.87308 -7.5,1.24442 c -4.125,0.68443 -16.05,1.76149 -26.5,2.39348 -15.672788,0.94784 -22.152096,0.88846 -37,-0.33909 -9.9,-0.81848 -18.214458,-1.31978 -18.476574,-1.11399 -1.082661,0.84999 8.019759,7.39612 15.476574,11.13017 17.332773,8.67953 29.242162,11.08339 58.5,11.80799 15.60027,0.38636 23.26664,0.9576 25,1.86282 4.03219,2.10575 9.37852,7.89551 12.37547,13.40189 l 2.78644,5.11961 -3.63928,3.71593 c -8.6618,8.84423 -14.36013,21.90761 -15.24416,34.9471 -1.77909,26.24194 15.95419,50.73437 41.75316,57.66763 7.2755,1.95523 19.75777,1.96965 27.23744,0.0315 z" />
</svg>
