<?xml version="1.0" encoding="UTF-8" standalone="no"?>
<!-- Created with Inkscape (http://www.inkscape.org/) -->

<svg
   xmlns:dc="http://purl.org/dc/elements/1.1/"
   xmlns:cc="http://creativecommons.org/ns#"
   xmlns:rdf="http://www.w3.org/1999/02/22-rdf-syntax-ns#"
   xmlns:svg="http://www.w3.org/2000/svg"
   xmlns="http://www.w3.org/2000/svg"
   version="1.1"
   width="512"
   height="512"
   id="svg2">
  <metadata
     id="metadata8">
    <rdf:RDF>
      <cc:Work
         rdf:about="">
        <dc:format>image/svg+xml</dc:format>
        <dc:type
           rdf:resource="http://purl.org/dc/dcmitype/StillImage" />
        <dc:title></dc:title>
      </cc:Work>
    </rdf:RDF>
  </metadata>
  <defs
     id="defs6" />
  <path
     d="m 0,0 512,0 0,512 -512,0 z"
     id="rect3022"
     style="fill:#000000" />
  <path
     d="M 377.98214,311.09181 C 363.4848,302.25228 369.89715,279.04 386.8364,279.04 c 9.03394,0 17.6436,8.2864 17.6436,16.98115 0,13.67607 -14.89308,22.14652 -26.49786,15.07066 z m -66.28582,4.9241 c -10.1681,-2.43479 -19.08356,-11.85251 -20.68172,-21.84682 l -0.75678,-4.73269 -5.92891,0.63765 c -4.54857,0.4892 -6.90015,0.0267 -10.10061,-1.9865 -16.04506,-10.09293 -9.74949,-32.06838 9.19112,-32.08276 5.79702,-0.004 6.73929,0.45429 11.815,5.7516 l 5.51558,5.75639 4.14331,-2.51969 c 13.46378,-8.18783 33.20373,-1.39001 38.84304,13.37632 3.12105,8.17234 2.11825,19.3457 -2.341,26.08408 -6.18982,9.35347 -18.65587,14.20675 -29.69903,11.56242 z M 348.54999,473.28 c 0.39872,-2.288 1.11329,-5.98804 1.58794,-8.22232 0.79737,-3.75339 0.48727,-4.25554 -4.07746,-6.60278 -18.71537,-9.62367 -21.73018,-34.8096 -5.87614,-49.08972 8.16022,-7.3501 20.87365,-9.59901 30.73678,-5.43708 4.70801,1.98663 4.78626,1.97041 7.31889,-1.51731 1.408,-1.93897 5.63937,-7.21053 9.40306,-11.71461 l 6.84306,-8.18921 -2.53334,-2.77349 c -1.39333,-1.52542 -3.53796,-4.78948 -4.76584,-7.25348 -1.22789,-2.464 -2.39372,-4.66647 -2.59078,-4.89439 -0.19704,-0.2279 -2.11118,0.4921 -4.25364,1.6 -2.14247,1.10792 -6.67029,2.01439 -10.06183,2.01439 -19.70116,0 -27.1441,-26.84908 -10.29239,-37.12797 9.10316,-5.55258 18.31971,-4.37005 25.77572,3.30716 l 4.22162,4.34686 2.97967,-3.17169 c 11.74582,-12.50287 35.87091,-10.44221 45.11258,3.85331 1.58516,2.45202 3.45811,4.20413 4.16211,3.89359 7.85851,-3.4665 21.9863,-8.7098 28.00529,-10.3937 l 7.5253,-2.10532 -0.70313,-34.74112 c -0.5227,-25.8262 -1.54125,-41.60216 -3.96923,-61.47839 -1.79635,-14.70549 -3.47947,-26.95063 -3.74025,-27.21142 -0.26079,-0.2608 -8.1832,20.828 -17.60535,46.86398 -9.42216,26.03598 -17.50539,46.92111 -17.96273,46.41143 -0.45734,-0.5097 -8.14404,-32.03072 -17.08154,-70.04672 -20.06769,-85.35868 -18.68505,-80.02511 -19.90649,-76.78953 -0.53371,1.41376 -6.61287,24.61997 -13.50925,51.56936 -12.50751,48.87623 -12.54441,48.98995 -14.74598,45.42953 -1.21392,-1.96315 -20.18165,-34.67336 -42.15052,-72.68936 -21.96888,-38.016 -40.45928,-69.6672 -41.08976,-70.336 -1.64408,-1.74395 -1.6174,-1.29518 3.31111,55.72095 2.4516,28.36172 4.298,51.72624 4.10311,51.92114 -0.1949,0.19489 -41.51276,-42.22919 -91.81746,-94.27574 L 109.44,29.52026 71.04,29.800131 32.64,30.08 32.320088,64 32.000175,97.92 127.99423,185.49919 c 52.79673,48.16856 95.84416,87.72909 95.66096,87.91228 -0.18319,0.18321 -22.65982,-4.42524 -49.94807,-10.24099 -27.28824,-5.81574 -49.45572,-10.11127 -49.26105,-9.54562 0.61056,1.77415 133.30379,105.91584 134.22688,105.34534 0.48226,-0.29806 1.23205,-2.43538 1.6662,-4.74959 1.07487,-5.7295 7.8138,-13.56891 14.1303,-16.43781 5.60921,-2.54765 16.52451,-3.16776 21.62503,-1.22855 5.11248,1.94377 12.61614,9.28683 15.11835,14.79477 6.07169,13.36523 -0.57009,30.3631 -14.11053,36.11213 -5.85993,2.48801 -16.85966,2.33341 -22.10906,-0.31076 -2.35028,-1.18385 -6.28924,-4.05075 -8.75324,-6.37088 l -4.48,-4.21842 -47.87872,-1.41517 c -26.33329,-0.77833 -48.14625,-1.14761 -48.47325,-0.82062 -0.66166,0.66166 -2.89879,-0.38829 82.06894,38.5172 33.68034,15.42173 60.75234,28.17153 60.16,28.33289 -0.59234,0.16134 -25.26897,4.6774 -54.83697,10.03567 -55.37769,10.03548 -58.80982,10.7258 -57.89167,11.64393 0.29767,0.29769 9.41309,3.67161 20.25646,7.49761 l 19.71521,6.95637 56.47252,0.0655 56.47253,0.0655 0.72494,-4.16 z"
     id="path2989"
     style="fill:#ffffff" />
</svg>
