<?xml version="1.0" encoding="UTF-8" standalone="no"?>
<!-- Created with Inkscape (http://www.inkscape.org/) -->

<svg
   xmlns:dc="http://purl.org/dc/elements/1.1/"
   xmlns:cc="http://creativecommons.org/ns#"
   xmlns:rdf="http://www.w3.org/1999/02/22-rdf-syntax-ns#"
   xmlns:svg="http://www.w3.org/2000/svg"
   xmlns="http://www.w3.org/2000/svg"
   xmlns:sodipodi="http://sodipodi.sourceforge.net/DTD/sodipodi-0.dtd"
   xmlns:inkscape="http://www.inkscape.org/namespaces/inkscape"
   id="svg2"
   version="1.1"
   inkscape:version="0.48.3.1 r9886"
   width="400"
   height="400"
   sodipodi:docname="Icon.4_28.png">
  <metadata
     id="metadata8">
    <rdf:RDF>
      <cc:Work
         rdf:about="">
        <dc:format>image/svg+xml</dc:format>
        <dc:type
           rdf:resource="http://purl.org/dc/dcmitype/StillImage" />
        <dc:title></dc:title>
      </cc:Work>
    </rdf:RDF>
  </metadata>
  <defs
     id="defs6" />
  <sodipodi:namedview
     pagecolor="#ffffff"
     bordercolor="#666666"
     borderopacity="1"
     objecttolerance="10"
     gridtolerance="10"
     guidetolerance="10"
     inkscape:pageopacity="0"
     inkscape:pageshadow="2"
     inkscape:window-width="1855"
     inkscape:window-height="1056"
     id="namedview4"
     showgrid="false"
     inkscape:zoom="0.59"
     inkscape:cx="200"
     inkscape:cy="200"
     inkscape:window-x="65"
     inkscape:window-y="24"
     inkscape:window-maximized="1"
     inkscape:current-layer="svg2" />
  <path
     style="fill:#000000"
     d="m 0,0 400,0 0,400 -400,0 z"
     id="rect3022" />
  <path
     id="path2989"
     style="fill:#ffffff"
     d="M 295.29855,243.04048 C 283.9725,236.13459 288.98215,218 302.21594,218 309.2737,218 316,224.47375 316,231.26652 c 0,10.68443 -11.63522,17.30197 -20.70145,11.77396 z m -51.7858,3.84695 c -7.94383,-1.90218 -14.90903,-9.25977 -16.15759,-17.06783 l -0.59124,-3.69741 -4.63196,0.49816 c -3.55357,0.38219 -5.39074,0.0209 -7.8911,-1.55195 -12.5352,-7.8851 -7.61679,-25.05342 7.18056,-25.06466 4.52892,-0.003 5.26507,0.35492 9.23047,4.49344 l 4.30905,4.49718 3.23696,-1.96851 c 10.51858,-6.39674 25.94041,-1.08594 30.34612,10.45025 2.43832,6.38464 1.65489,15.11383 -1.8289,20.37819 -4.8358,7.3074 -14.5749,11.09902 -23.20237,9.03314 z M 272.30468,369.75 c 0.3115,-1.7875 0.86976,-4.67816 1.24058,-6.42369 0.62294,-2.93233 0.38068,-3.32464 -3.18552,-5.15842 -14.62138,-7.51849 -16.9767,-27.195 -4.59073,-38.35134 6.37517,-5.74227 16.30754,-7.49923 24.01311,-4.24772 3.67813,1.55205 3.73926,1.53938 5.71788,-1.1854 1.1,-1.51482 4.40576,-5.63323 7.34614,-9.15204 l 5.34614,-6.39782 -1.97917,-2.16679 C 305.12457,295.47505 303.44908,292.925 302.4898,291 c -0.95929,-1.925 -1.8701,-3.64568 -2.02405,-3.82374 -0.15394,-0.17805 -1.64936,0.38445 -3.32316,1.25 -1.6738,0.86556 -5.21116,1.57374 -7.8608,1.57374 -15.39153,0 -21.20633,-20.97584 -8.04093,-29.00623 7.11184,-4.33795 14.31227,-3.4141 20.13728,2.58372 l 3.29814,3.39599 2.32787,-2.47789 c 9.17642,-9.76786 28.02415,-8.15797 35.2442,3.0104 1.23841,1.91564 2.70165,3.28448 3.25165,3.04187 6.13946,-2.7082 17.1768,-6.80453 21.87913,-8.12008 l 5.87914,-1.64478 -0.54932,-27.1415 c -0.40836,-20.17672 -1.2041,-32.50169 -3.10096,-48.02999 -1.4034,-11.48867 -2.71833,-21.05518 -2.92207,-21.25892 -0.20374,-0.20375 -6.39312,16.27187 -13.75418,36.61248 -7.36106,20.34061 -13.67608,36.65712 -14.03338,36.25893 -0.3573,-0.3982 -6.36253,-25.024 -13.34495,-54.724 -15.67789,-66.68647 -14.5977,-62.51962 -15.55195,-59.99182 -0.41696,1.1045 -5.1663,19.23435 -10.5541,40.28856 -9.77149,38.18456 -9.80032,38.2734 -11.5203,35.49182 C 286.97869,196.75485 272.16015,171.2 254.99697,141.5 237.83378,111.8 223.38816,87.0725 222.89559,86.55 c -1.28443,-1.36246 -1.26359,-1.011858 2.58681,43.53199 1.91531,22.1576 3.35781,40.41113 3.20555,40.56339 -0.15226,0.15226 -32.43184,-32.99155 -71.73239,-73.652919 L 85.5,23.062703 55.5,23.281352 25.5,23.5 25.250069,50 25.000137,76.5 99.995491,144.92124 c 41.247449,37.63169 74.878249,68.53835 74.735129,68.68147 -0.14312,0.14313 -17.70299,-3.45722 -39.02193,-8.00077 -21.31894,-4.54355 -38.63728,-7.89943 -38.4852,-7.45752 0.477,1.38606 104.14359,82.74675 104.86475,82.30105 0.37677,-0.23286 0.96254,-1.90264 1.30172,-3.71062 0.83974,-4.47617 6.10453,-10.60071 11.0393,-12.84204 4.38219,-1.99035 12.90977,-2.47481 16.89455,-0.9598 3.99413,1.51857 9.85636,7.25533 11.81121,11.55841 4.74351,10.44159 -0.44538,23.72117 -11.02385,28.2126 -4.57807,1.94376 -13.17161,1.82298 -17.2727,-0.24278 -1.83616,-0.92488 -4.91347,-3.16465 -6.83847,-4.97725 l -3.5,-3.29564 -37.40525,-1.1056 c -20.57288,-0.60807 -37.61426,-0.89657 -37.86973,-0.64111 -0.51692,0.51692 -2.26468,-0.30335 64.11636,30.09156 26.31277,12.04823 47.46277,22.00901 47,22.13507 -0.46276,0.12605 -19.74138,3.65422 -42.84138,7.84037 -43.26382,7.84022 -45.94517,8.37953 -45.22787,9.09682 0.23256,0.23257 7.35398,2.86845 15.82536,5.85751 l 15.40251,5.43466 44.11916,0.0512 44.11916,0.0512 0.56636,-3.25 z" />
</svg>
