<?xml version="1.0" encoding="UTF-8" standalone="no"?>
<!-- Created with Inkscape (http://www.inkscape.org/) -->

<svg
   xmlns:dc="http://purl.org/dc/elements/1.1/"
   xmlns:cc="http://creativecommons.org/ns#"
   xmlns:rdf="http://www.w3.org/1999/02/22-rdf-syntax-ns#"
   xmlns:svg="http://www.w3.org/2000/svg"
   xmlns="http://www.w3.org/2000/svg"
   xmlns:sodipodi="http://sodipodi.sourceforge.net/DTD/sodipodi-0.dtd"
   xmlns:inkscape="http://www.inkscape.org/namespaces/inkscape"
   id="svg2"
   version="1.1"
   inkscape:version="0.48.3.1 r9886"
   width="400"
   height="400"
   sodipodi:docname="Icon.4_25.svg">
  <metadata
     id="metadata8">
    <rdf:RDF>
      <cc:Work
         rdf:about="">
        <dc:format>image/svg+xml</dc:format>
        <dc:type
           rdf:resource="http://purl.org/dc/dcmitype/StillImage" />
        <dc:title></dc:title>
      </cc:Work>
    </rdf:RDF>
  </metadata>
  <defs
     id="defs6" />
  <sodipodi:namedview
     pagecolor="#ffffff"
     bordercolor="#666666"
     borderopacity="1"
     objecttolerance="10"
     gridtolerance="10"
     guidetolerance="10"
     inkscape:pageopacity="0"
     inkscape:pageshadow="2"
     inkscape:window-width="1855"
     inkscape:window-height="1056"
     id="namedview4"
     showgrid="false"
     inkscape:zoom="3.337544"
     inkscape:cx="175.09807"
     inkscape:cy="289.99901"
     inkscape:window-x="65"
     inkscape:window-y="24"
     inkscape:window-maximized="1"
     inkscape:current-layer="svg2" />
  <path
     style="fill:#000000;fill-opacity:1;stroke:none"
     d="m 0,0 400,0 0,400 -400,0 z"
     id="rect3054" />
  <path
     id="path2989"
     style="fill:#ffffff"
     d="m 120,79.369153 c -5.225,-4.113545 -9.62787,-7.838034 -9.78416,-8.276641 -0.46394,-1.302 9.88067,-5.199258 15.37012,-5.790591 8.682,-0.935237 11.02452,1.961019 9.27978,11.473388 -1.13325,6.178495 -2.8303,10.243375 -4.23706,10.148854 C 130.00791,86.882453 125.225,83.482698 120,79.369153 z m -77.427626,10.29413 c -2.904605,-2.904605 -3.367656,-8.543869 -1.194825,-14.55117 l 1.225394,-3.387887 7.321746,9.181336 c 4.026961,5.049734 7.040778,9.462304 6.697372,9.80571 -0.343406,0.343406 -3.066286,0.826877 -6.050844,1.07438 -4.813105,0.39914 -5.71723,0.159244 -7.998843,-2.122369 z m 74.382196,6.033494 -10.60314,-10.033555 10.91605,9.221613 C 118.94992,96.306123 123,100.18806 123,100.18806 l -0.61414,0.56877 c 0,0 -3.94848,-3.324402 -5.43129,-5.060053 z M 87.314566,107.79326 c -1.243866,-1.58606 -2.556788,-2.96973 0.37756,-0.37756 0.45836,0.40491 13.184504,13.77782 15.467964,16.32345 0,0 -0.60952,0.37871 -0.60952,0.48253 0,0.82304 -13.929634,-14.76267 -15.236004,-16.42842 z m 65.152924,19.01563 c -9.53992,-8.32645 -16.46577,-14.75218 -18.73453,-16.91925 0,0 0.22547,-0.44624 0.62741,-0.84817 C 135.02304,108.37881 172,136.69358 172,137.85561 c 0,0.36481 -0.80213,1.16424 -1.78251,1.77649 -1.52417,0.95186 -4.09672,-0.90663 -17.75,-12.82321 z m 60.59503,23.93829 -14.43749,-11.15166 3.43749,-1.4063 c 1.89061,-0.77347 6.81248,-1.61342 10.93748,-1.86656 6.38433,-0.39179 7.99241,-0.14926 10.81018,1.63044 5.37264,3.39334 7.22303,10.16286 5.54797,20.2969 -0.34091,2.0625 -0.89846,3.72724 -1.23899,3.69942 -0.34054,-0.0278 -7.11603,-5.06883 -15.05664,-11.20224 z m -88.91657,0.77583 C 117.46568,143.05788 112,135.8772 112,135.56594 112,135.25467 112.37019,135 112.82264,135 113.69082,135 140,163.4443 140,164.38294 c 0,0.30068 -0.83432,0.99321 -1.85405,1.53895 -1.60722,0.86016 -3.471,-1.05672 -14,-14.39888 z M 109.357,172.00842 c -3.83522,-1.5477 -5.35815,-4.96349 -5.34169,-11.98093 0.008,-3.59012 0.3568,-7.06462 0.77417,-7.7211 0.82834,-1.3029 17.35515,18.61507 16.54809,19.94361 -0.61492,1.01225 -9.30793,0.83697 -11.98057,-0.24158 z m 89.80389,-4.49804 c -10.5332,-9.19431 -18.90337,-17.11804 -18.60039,-17.60828 0.30299,-0.49024 1.36993,-1.32969 2.37099,-1.86543 1.49821,-0.80182 5.06968,1.51205 20.19431,13.08337 10.10581,7.73161 18.69983,14.36566 19.09783,14.74234 0.39799,0.37668 -0.31927,2.41289 -1.59393,4.5249 l -2.31755,3.84002 z m -33.58997,36.33938 -19.92909,-25.14131 2.22779,-1.80396 2.22779,-1.80396 16.61477,18.19974 c 9.13812,10.00985 18.38811,20.06456 20.55553,22.34379 l 3.94077,4.14406 -2.69926,4.60594 c -1.4846,2.53327 -2.769,4.60393 -2.85424,4.60148 -0.0852,-0.002 -9.12307,-11.31806 -20.08406,-25.14578 z m 87.78864,10.99716 -24.14044,-21.07527 2.64044,-4.24611 2.64044,-4.24611 13,9.98647 c 7.15,5.49256 19.82861,15.20202 28.17469,21.57656 l 15.17469,11.59009 -4.17469,2.43205 c -2.29608,1.33763 -4.88512,3.04031 -5.75343,3.78373 -0.86831,0.74342 -1.99331,1.33416 -2.5,1.31276 -0.50669,-0.0214 -11.78446,-9.52278 -25.0617,-21.11417 z m 82.37315,30.07074 c -8.672,-6.62899 -15.54457,-12.41305 -15.27237,-12.85348 0.90121,-1.4582 12.08827,-2.13987 17.18377,-1.04708 7.06914,1.51605 11.92994,5.80947 13.83322,12.21852 1.59142,5.35891 2.06438,13.77508 0.77267,13.74956 -0.4125,-0.008 -7.84528,-5.43853 -16.51729,-12.06752 z m -126.13644,14.47087 -13.90374,-17.61112 2.71226,-5.53018 c 1.49174,-3.0416 3.06838,-5.12902 3.50365,-4.63871 0.43527,0.49031 7.94643,8.77091 16.69148,18.40133 8.74504,9.63042 16.46471,18.22909 17.1548,19.10816 1.08583,1.38316 0.46126,2.02122 -4.63997,4.74015 -3.24209,1.72801 -6.28172,3.14176 -6.75473,3.14166 -0.47301,-9e-5 -7.1167,-7.92517 -14.76375,-17.61129 z m -12.69839,19.34827 c -4.74492,-3.1604 -7.07874,-8.35862 -6.70218,-14.92806 L 190.5,258.5 l 7.91551,10 c 4.35354,5.5 8.34614,10.5625 8.87245,11.25 1.76786,2.30929 -6.63155,1.49021 -10.39008,-1.0132 z m 118.11539,-10.18457 c -13.43006,-11.697 -24.56025,-21.69317 -24.73376,-22.21371 -0.17351,-0.52053 2.66353,-2.60221 6.30454,-4.62594 l 6.62003,-3.6795 21.09737,16.23346 c 11.60356,8.9284 21.74801,16.72522 22.54323,17.32627 1.23782,0.93556 1.08747,1.87085 -1.04484,6.5 -1.36989,2.97395 -3.36317,6.82908 -4.4295,8.56694 l -1.93879,3.15975 z m -31.15518,84.70302 c -2.45904,-3.16539 -14.88486,-18.89201 -27.61292,-34.94805 l -23.14194,-29.1928 6.36087,-3.5572 c 3.49848,-1.95646 6.79697,-3.5572 7.32998,-3.5572 0.7898,0 46.55809,49.50282 50.98917,55.14971 1.08841,1.38705 0.46811,3.17078 -4.08546,11.74807 l -5.36871,10.11272 z M 299,371.59053 c 0,-0.77521 2.31185,-6.02748 5.13746,-11.67171 l 5.13745,-10.26224 5.05074,5.42171 c 2.77791,2.98194 7.71115,8.23421 10.96276,11.67171 l 5.91202,6.25 20.89979,0 20.89978,0 0,-26.9139 0,-26.91391 L 362,309.5 c -6.05,-5.31971 -11,-9.86272 -11,-10.0956 0,-0.23287 2.0653,-4.24315 4.58955,-8.91172 l 4.58956,-8.48833 4.43806,3.24783 c 9.32822,6.8265 8.38283,7.16418 8.38283,-2.99421 l 0,-8.98597 -4.04329,-2.802 c -2.81063,-1.94777 -3.85302,-3.28491 -3.41917,-4.386 0.34326,-0.8712 0.8752,-5.68518 1.18208,-10.69772 0.45967,-7.50822 0.18826,-10.33092 -1.5407,-16.02312 -5.81732,-19.15229 -25.18214,-27.5836 -48.76896,-21.23368 -4.35048,1.17121 -8.90598,2.18371 -10.12334,2.25 -1.46253,0.0796 -13.04326,-8.17089 -34.13802,-24.32114 l -31.92464,-24.44166 1.50134,-4.05834 c 0.82573,-2.23209 1.73202,-8.61908 2.01398,-14.19332 0.46875,-9.26706 0.30119,-10.59442 -1.9567,-15.5 -2.77892,-6.0376 -7.32584,-10.9051 -12.675,-13.56866 -11.93083,-4.13633 -25.7498,-2.08046 -35.10758,1.73927 l -8.5,3.46999 -21.31077,-16.37327 C 152.46831,104.12706 143.10538,96.250793 143.38272,95.629544 149.10195,82.818092 149.4765,81.420135 149.44572,73 c -0.0455,-12.441438 -4.00259,-18.306083 -14.44408,-21.406872 -8.2285,-2.443603 -21.33763,0.375326 -32.8185,7.057146 -2.374266,1.381816 -4.942034,2.272489 -5.706145,1.979272 C 95.712883,60.336328 85.408156,52.649728 73.577602,43.548212 L 52.067503,27 39.533752,27 27,27 27,39.321861 c 0,12.007837 0.07318,12.420014 2.871695,16.173287 l 2.871696,3.851427 -2.621696,5.076712 c -2.310786,4.474662 -2.661469,6.478666 -2.957083,16.898487 -0.318914,11.241073 -0.211698,12.008684 2.182682,15.626836 4.030378,6.09031 8.667857,8.35947 18.07547,8.84448 6.200739,0.31968 9.407442,-0.0346 13.803003,-1.52495 l 5.725768,-1.94137 13.883228,17.56587 13.883228,17.56587 -2.407952,6.89209 c -5.131898,14.68862 -3.832069,26.87313 3.74354,35.0917 2.268384,2.46091 5.921881,5.04042 8.573041,6.0529 4.48704,1.71362 8.35134,1.74936 25.48755,0.23571 2.31778,-0.20473 5.24463,3.08666 25.81557,29.03092 l 23.20142,29.26183 -1.68621,7.57916 c -2.50136,11.24315 -1.70377,22.31269 2.11331,29.33014 6.20619,11.40966 20.15257,16.80664 35.53152,13.75001 l 3.58979,-0.71348 31.28312,39.51525 31.28312,39.51526 8.87709,0 c 6.97068,0 8.8771,-0.30269 8.8771,-1.40947 z"
     inkscape:connector-curvature="0"
     sodipodi:nodetypes="sssssssscssssscsccssssssssssssscsssscsssssssscsssscsssscsscccsscscsscccsscsssssssscsscssssscssscsssssscsssscssscsssscssscsscccccssscsscssssscscssscccssssssscccsscssssscccssssscssscccss" />
</svg>
