<?xml version="1.0" encoding="UTF-8" standalone="no"?>
<svg
   xmlns:dc="http://purl.org/dc/elements/1.1/"
   xmlns:cc="http://creativecommons.org/ns#"
   xmlns:rdf="http://www.w3.org/1999/02/22-rdf-syntax-ns#"
   xmlns:svg="http://www.w3.org/2000/svg"
   xmlns="http://www.w3.org/2000/svg"
   xmlns:sodipodi="http://sodipodi.sourceforge.net/DTD/sodipodi-0.dtd"
   xmlns:inkscape="http://www.inkscape.org/namespaces/inkscape"
   viewBox="0 0 512 512"
   id="svg2"
   version="1.1"
   inkscape:version="0.48.4 r9939"
   width="100%"
   height="100%"
   sodipodi:docname="close.svg">
  <metadata
     id="metadata24">
    <rdf:RDF>
      <cc:Work
         rdf:about="">
        <dc:format>image/svg+xml</dc:format>
        <dc:type
           rdf:resource="http://purl.org/dc/dcmitype/StillImage" />
      </cc:Work>
    </rdf:RDF>
  </metadata>
  <defs
     id="defs22" />
  <sodipodi:namedview
     pagecolor="#ffffff"
     bordercolor="#666666"
     borderopacity="1"
     objecttolerance="10"
     gridtolerance="10"
     guidetolerance="10"
     inkscape:pageopacity="0"
     inkscape:pageshadow="2"
     inkscape:window-width="1920"
     inkscape:window-height="1025"
     id="namedview20"
     showgrid="false"
     inkscape:zoom="0.4609375"
     inkscape:cx="256"
     inkscape:cy="256"
     inkscape:window-x="0"
     inkscape:window-y="27"
     inkscape:window-maximized="1"
     inkscape:current-layer="svg2" />
  <path
     d="m0,0h512v512h-512z"
     id="path4" />
  <g
     transform="matrix(15 0 0 15 -3764 -2204)"
     id="g6">
    <use
       width="744.094"
       height="1052.362"
       transform="translate(288 144)"
       id="use8" />
  </g>
  <g
     fill="#fff"
     transform="matrix(30 0 0 30 -14144 -21954.866)"
     id="g10">
    <use
       width="800"
       height="600"
       transform="translate(176 -715.63781)"
       id="use12" />
    <path
       d="m477.2108,736.3717c-.6099,.1145-1.5089,1.1579-1.1126,1.554l2.4386,2.4378-2.4386,2.4377c-.4877,.4875 .9755,1.9502 1.4632,1.4626l2.4387-2.4377 2.4386,2.4377c.4877,.4876 1.9509-.9751 1.4632-1.4626l-2.4386-2.4377 2.4386-2.4378c.4877-.4875-.9755-1.9501-1.4632-1.4626l-2.4386,2.4377-2.4386-2.4377c-.0915-.091-.2098-.1178-.3506-.091z"
       id="path14" />
  </g>
  <g
     transform="matrix(15 0 0 15 -3764 -2204)"
     id="g16">
    <path
       fill="#fff"
       d="m268,148c-8.8366,0-16,7.1634-16,16 0,8.8366 7.1634,16 16,16 8.8366,0 16-7.1634 16-16 0-8.8366-7.1634-16-16-16zm0,4c6.6274,0 12,5.3726 12,12 0,6.6274-5.3726,12-12,12-6.6274,0-12-5.3726-12-12 0-6.6274 5.3726-12 12-12z"
       id="path18" />
  </g>
</svg>
