<?xml version="1.0" encoding="UTF-8" standalone="no"?>
<!-- Created with Inkscape (http://www.inkscape.org/) -->

<svg
   xmlns:dc="http://purl.org/dc/elements/1.1/"
   xmlns:cc="http://creativecommons.org/ns#"
   xmlns:rdf="http://www.w3.org/1999/02/22-rdf-syntax-ns#"
   xmlns:svg="http://www.w3.org/2000/svg"
   xmlns="http://www.w3.org/2000/svg"
   version="1.1"
   width="512"
   height="512"
   id="svg2">
  <metadata
     id="metadata8">
    <rdf:RDF>
      <cc:Work
         rdf:about="">
        <dc:format>image/svg+xml</dc:format>
        <dc:type
           rdf:resource="http://purl.org/dc/dcmitype/StillImage" />
        <dc:title></dc:title>
      </cc:Work>
    </rdf:RDF>
  </metadata>
  <defs
     id="defs6" />
  <path
     d="M 0,256 0,0 l 256,0 256,0 0,256 0,256 -256,0 -256,0 0,-256 z"
     id="path3021"
     style="fill:#000000" />
  <path
     d="m 274.71249,492.85914 c 17.01398,-6.29364 25.23005,-27.3023 16.99897,-43.46674 -3.27437,-6.43031 -11.30601,-13.72551 -17.3954,-15.80037 -6.3182,-2.15283 -16.12948,-2.03474 -22.18729,0.26704 -23.97452,9.1096 -27.66683,41.84622 -6.29763,55.83572 8.79651,5.75869 18.88098,6.86359 28.88135,3.16435 z"
     id="path3019"
     style="fill:#ffffff" />
  <path
     d="m 322.54158,470.68072 c 8.8099,-10.29156 12.89223,-25.4687 10.5692,-39.29383 -1.67935,-9.99434 -3.7272,-15.67561 -10.5548,-29.28174 C 314.63013,386.31043 310.37416,375.43867 306.85599,362 c -3.8714,-14.78794 -4.89807,-31.45261 -2.50957,-40.73465 4.40642,-17.12393 12.8469,-24.90748 29.83831,-27.51593 l 8.31527,-1.27652 -8,-2.19544 C 323.12846,287.15676 309.8443,285 301.99456,285 l -6.74346,0 0.49765,-8.75 c 1.25379,-22.04508 -10.66624,-41.51904 -31.0834,-50.78146 -15.46104,-7.01403 -36.76617,-6.64951 -51.16535,0.87542 l -4,2.09038 7,0.66762 c 14.41331,1.37466 24.25556,5.81576 32.84449,14.82036 16.35893,17.15062 16.76035,41.12727 0.99164,59.22963 -7.55196,8.66959 -10.93561,13.71717 -14.85604,22.16158 -2.65026,5.70851 -3.47016,6.77515 -3.98671,5.18647 -5.82655,-17.92 -18.75276,-28.13899 -38.10105,-30.12128 -7.09192,-0.72659 -7.79703,-0.0404 -3.79873,3.69697 4.66178,4.3575 11.62647,14.28207 15.05946,21.45949 4.68323,9.79133 6.64985,19.84648 6.05618,30.96482 -0.7573,14.18306 -3.6878,23.67225 -15.28684,49.5 -3.31692,7.38583 -3.86681,9.67971 -4.19516,17.5 -0.30758,7.32558 0.0662,10.51037 2.00922,17.11824 2.90617,9.88354 9.1404,21.0408 15.86698,28.39682 4.72632,5.16858 4.98115,5.3119 4.41811,2.48494 -0.32863,-1.65 -0.86165,-9.525 -1.18448,-17.5 -0.67084,-16.57183 0.48714,-23.17501 5.67674,-32.37047 14.45858,-25.6192 45.63248,-34.56918 70.84572,-20.33971 11.43351,6.45267 21.23541,19.29856 24.60928,32.25173 2.48978,9.55893 1.4002,32.84498 -2.12577,45.43093 -0.67622,2.41378 -0.59397,2.39432 3.46353,-0.81928 2.2859,-1.81047 5.76666,-5.17309 7.73501,-7.47248 z"
     id="path3017"
     style="fill:#ffffff" />
  <path
     d="m 138.02879,318.54184 c -7.0685,-10.2737 -10.3451,-21.3221 -10.2142,-34.44136 0.12701,-12.72867 2.82729,-20.47115 10.07749,-28.89502 14.54773,-16.90272 35.9287,-34.14886 61.17229,-49.34228 C 223.951,190.88461 235.09134,180.54792 242.56565,165.5 255.41506,139.63046 242.84262,108.85878 213.59266,94.587179 195.02427,85.527316 171.27832,78.921554 152,77.453039 c -9.61785,-0.732635 -24.75491,0.789112 -34.12082,3.430209 l -6.262,1.765824 -6.05859,-3.063881 C 100.07187,76.810511 98.603292,76.520305 90,76.510655 c -8.35358,-0.0094 -10.175644,0.321337 -15.098839,2.740456 -7.480367,3.675639 -16.206207,12.93957 -19.935935,21.165309 -2.859668,6.30686 -5.865124,20.01702 -4.653593,21.22855 0.335741,0.33574 2.952412,-1.4952 5.814825,-4.06876 5.826753,-5.23875 18.301377,-11.62936 27.373542,-14.02316 10.719267,-2.8284 23.62325,-3.04497 35.45848,-0.59509 26.39179,5.46305 51.06394,16.18532 65.54152,28.48368 3.50891,2.98074 3.23428,3.08564 -2.62427,1.0024 -10.55272,-3.75243 -31.25058,-7.62818 -50.16607,-9.39377 l -10.79033,-1.00718 -8.20967,3.41684 c -21.778814,9.06427 -42.459768,22.9885 -56.545528,38.0714 -6.30399,6.75025 -7.502136,7.58454 -12.161283,8.46813 -16.104166,3.05409 -24.338617,12.89212 -24.23804,28.95816 0.04992,7.97425 1.428328,13.42963 5.506718,21.79417 3.036777,6.22826 12.952694,18.28965 14.116334,17.17064 0.330332,-0.31766 0.179857,-3.91766 -0.334388,-8 -2.31311,-18.36265 3.54927,-36.24113 15.26505,-46.55377 7.22552,-6.36016 30.830297,-15.14962 55.707977,-20.74338 6.25599,-1.40667 11.50965,-2.42246 11.6748,-2.25732 0.16514,0.16515 -3.9111,4.01632 -9.05831,8.55816 -13.272013,11.71106 -25.350915,26.54454 -33.242056,40.82286 -1.622947,2.93658 -3.60627,5.24943 -4.501995,5.25 -2.653985,0.002 -11.155319,4.92479 -15.121712,8.75696 -10.10626,9.76424 -11.420761,25.67554 -3.477442,42.09248 C 59.289413,274.02727 67.218991,284 69.142326,284 c 0.576198,0 0.692383,-2.33879 0.291993,-5.87777 -0.450583,-3.98263 -0.118225,-8.57718 1.030809,-14.25 C 74.613116,243.39347 84.029229,230.49418 105,216.56232 c 13.81559,-9.17835 39,-22.75761 39,-21.02854 0,0.23305 -2.1994,3.47079 -4.88757,7.19498 -10.70956,14.83705 -19.50019,33.35659 -24.23866,51.06449 -1.66705,6.22987 -3.0557,9.18021 -5.58134,11.85816 -5.86702,6.22086 -7.74632,10.91631 -7.74406,19.34859 0.002,6.28386 0.46025,8.37827 2.82798,12.91637 3.39963,6.51591 11.28633,14.63014 18.12365,18.64653 4.87105,2.86135 17.58876,7.68168 18.32486,6.94557 0.20236,-0.20235 -1.05588,-2.43734 -2.79607,-4.96663 z"
     id="path3015"
     style="fill:#ffffff" />
  <path
     d="m 392.5,319.26576 c 16.75465,-8.47195 27.73872,-24.15887 26.17299,-37.37901 -0.69289,-5.85041 -2.68515,-9.84415 -7.60794,-15.25111 -2.92809,-3.21608 -4.25665,-5.97893 -5.97507,-12.42569 -4.92344,-18.47059 -14.0362,-37.54521 -25.28084,-52.91725 C 377.71411,198.42868 376,195.82483 376,195.50636 c 0,-1.31371 26.36202,12.96146 37.5,20.30645 16.94745,11.17606 25.28294,19.90012 31.02268,32.46883 3.77502,8.26642 5.50431,16.49325 5.56368,26.46836 0.0303,5.0875 0.43499,9.25 0.89936,9.25 1.82574,0 9.26729,-9.733 12.60502,-16.48642 1.93738,-3.92004 4.03911,-10.14317 4.6705,-13.82918 2.72744,-15.92273 -5.36835,-30.08851 -20.2078,-35.35902 -4.2724,-1.51742 -5.28932,-2.47616 -8.44369,-7.9606 -8.62981,-15.00446 -21.14181,-29.8163 -36.01817,-42.6387 -6.61811,-5.70435 -6.76519,-5.92589 -3.5,-5.27193 19.89455,3.98453 45.20564,11.82678 58.10935,18.00427 7.17144,3.43324 13.60417,10.25195 17.63051,18.6884 4.46641,9.35851 5.50142,15.43715 4.94186,29.02368 -0.46221,11.22263 -0.40087,11.70055 1.37939,10.74778 2.5647,-1.37258 9.51614,-10.33123 12.33896,-15.9018 4.19645,-8.28129 5.78304,-15.59574 5.29808,-24.42512 -0.83824,-15.26168 -8.35993,-23.66516 -23.80339,-26.59395 -4.39288,-0.83309 -5.9328,-1.95052 -14.76444,-10.71376 -15.50701,-15.3869 -34.99553,-28.12795 -56.06108,-36.65116 -6.11265,-2.4732 -6.72017,-2.52977 -17,-1.58305 -19.52242,1.79791 -42.42427,6.30776 -53.66082,10.56693 -3.59441,1.36245 -0.0105,-2.01367 8.06052,-7.59316 13.23958,-9.15251 31.16175,-16.53381 53.93948,-22.21512 11.52805,-2.87538 29.68825,-3.07219 39.5,-0.42809 9.42032,2.53861 21.70613,8.7975 27.75,14.13697 l 5.25,4.63812 0,-4.98845 c 0,-14.95772 -10.74293,-31.404877 -24.82485,-38.006233 -4.85802,-2.277353 -6.971,-2.654933 -14.67515,-2.622391 -7.92336,0.03347 -9.74143,0.398092 -15.19788,3.048009 l -6.19789,3.009993 -6.30211,-1.743432 C 374.92356,73.41684 340.39648,78.271031 307.16907,94.157124 289.83994,102.44222 277.83554,116.27982 273.47209,133 c -2.11265,8.09542 -1.48799,20.30491 1.43201,27.98973 5.10915,13.44619 19.1753,28.46317 36.54024,39.01027 32.04858,19.46562 51.28253,34.16294 66.8096,51.0515 4.26467,4.63861 8.5979,10.23714 9.6294,12.44117 7.10813,15.18809 4.83262,38.55037 -5.23168,53.71288 -2.00841,3.0258 -3.65166,5.76813 -3.65166,6.09406 0,0.78605 9.69976,-2.11227 13.5,-4.03385 z"
     id="path2989"
     style="fill:#ffffff" />
</svg>
