<?xml version="1.0" encoding="UTF-8" standalone="no"?>
<!-- Created with Inkscape (http://www.inkscape.org/) -->

<svg
   xmlns:dc="http://purl.org/dc/elements/1.1/"
   xmlns:cc="http://creativecommons.org/ns#"
   xmlns:rdf="http://www.w3.org/1999/02/22-rdf-syntax-ns#"
   xmlns:svg="http://www.w3.org/2000/svg"
   xmlns="http://www.w3.org/2000/svg"
   version="1.1"
   width="512"
   height="512"
   id="svg2">
  <metadata
     id="metadata8">
    <rdf:RDF>
      <cc:Work
         rdf:about="">
        <dc:format>image/svg+xml</dc:format>
        <dc:type
           rdf:resource="http://purl.org/dc/dcmitype/StillImage" />
        <dc:title></dc:title>
      </cc:Work>
    </rdf:RDF>
  </metadata>
  <defs
     id="defs6" />
  <path
     d="m 0,0 512,0 0,512 -512,0 z"
     id="rect3032"
     style="fill:#000000;fill-opacity:1;fill-rule:nonzero;stroke:none" />
  <path
     d="M 394.26641,34.922544 C 393.30577,34.03227 367.47915,29.754203 347,27.093071 271.52888,17.286087 196.53172,18.871786 130.25,31.675915 l -13.25,2.5596 0,27.489231 c 0,24.974817 0.14878,27.432139 1.62658,26.865053 2.67074,-1.024857 24.13936,-6.245708 34.87342,-8.480698 12.24187,-2.548938 33.61775,-5.602501 51,-7.285394 16.88528,-1.634777 71.95962,-1.605966 89.5,0.04682 31.26783,2.94629 67.83496,8.776204 91,14.50817 l 9.5,2.350684 0.26641,-27.048285 c 0.14652,-14.876557 -0.0785,-27.367905 -0.5,-27.758553 z M 230.00114,283.38277 c 6.45909,-1.40632 12.69895,-1.85043 25.99886,-1.85043 18.19993,0 27.30391,1.27159 39.7421,5.55096 3.06405,1.05418 5.95055,1.9167 6.41445,1.9167 0.4639,0 0.84345,-44.29468 0.84345,-98.43261 0,-92.884913 -0.0986,-98.461282 -1.75,-98.941254 -0.9625,-0.279752 -11.2,-1.05289 -22.75,-1.718084 -20.14771,-1.16036 -67.3286,-0.750054 -69.52044,0.604581 C 208.35078,90.901238 208,126.69258 208,190.45969 l 0,99.34166 6.75114,-2.28407 c 3.71312,-1.25624 10.57562,-3.11677 15.25,-4.13451 z M 347.5964,293.75 l 15.38462,-12.25 0.009,-90.18261 c 0.009,-86.13346 -0.0717,-90.20839 -1.79942,-90.75674 C 358.94367,99.847346 324.40042,94 322.43399,94 321.19801,94 321,108.12872 321,196.31899 l 0,102.31899 5.25,3.67222 c 2.8875,2.01972 5.41015,3.67617 5.60589,3.68101 0.19573,0.005 7.27896,-5.50371 15.74051,-12.24121 z M 189.75467,196.14637 190.00934,93 l -3.25467,0.01746 c -4.67482,0.02508 -32.44084,4.734609 -39.00467,6.615774 -1.65021,0.472946 -1.74941,5.672346 -1.73957,91.184156 l 0.0104,90.68261 16.59548,12.70652 16.59547,12.70652 5.14409,-3.81014 5.1441,-3.81015 0.25467,-103.14638 z m 79.30576,190.18928 c 5.33741,-6.77054 40.30711,-44.30296 40.81275,-43.80366 0.7876,0.77773 8.03681,37.8178 7.51236,38.38464 -0.21201,0.22915 -9.94799,1.67855 -21.63551,3.22089 -11.68752,1.54234 -22.79783,3.07874 -24.6896,3.41424 -3.22113,0.57125 -3.34814,0.49402 -2,-1.21611 z m -51.80054,-1.78152 c -12.78206,-1.76056 -23.44686,-3.40777 -23.69956,-3.66047 -0.60623,-0.60623 6.49287,-37.16045 7.41666,-38.18936 0.39292,-0.43763 9.22134,8.57906 19.61871,20.03709 24.11808,26.57843 23.02192,25.28542 21.30929,25.13618 -0.77275,-0.0673 -11.86304,-1.56288 -24.6451,-3.32344 z m 29.858,32.69587 c 3.96361,-7.5625 7.33152,-13.91047 7.48426,-14.10659 0.15274,-0.19613 3.45774,5.99137 7.34445,13.75 L 269.01335,431 l -14.55101,0 -14.55101,0 7.20656,-13.75 z M 263,473.46922 l 0,-22.53078 12.24615,0.28078 12.24615,0.28078 6.00385,20.67092 c 3.30212,11.369 6.32302,20.98817 6.71311,21.37592 1.19941,1.19223 17.79074,-3.84427 17.79074,-5.40059 0,-1.06456 -7.89734,-29.08365 -15.57723,-55.26668 -0.34116,-1.16311 1.50941,-2.79953 6.55707,-5.79828 40.26335,-23.92002 48.93399,-67.41356 19.68328,-98.73494 -17.15455,-18.36892 -39.69945,-27.97592 -68.16312,-29.04617 -22.08076,-0.83025 -40.39825,3.272 -56.7076,12.69982 -25.43247,14.70155 -38.81859,36.45199 -37.5415,60.99931 1.0631,20.43414 12.83751,38.87509 33.25037,52.07636 3.6215,2.34207 6.4036,4.74567 6.18245,5.34132 -2.1968,5.91691 -16.63674,57.85 -16.25629,58.46559 0.56833,0.91957 17.42697,5.63025 17.94685,5.01475 0.18459,-0.21853 3.04095,-9.84733 6.34748,-21.39733 l 6.01188,-21 12.13318,-0.28078 12.13318,-0.28078 0,22.53078 0,22.53078 9.5,0 9.5,0 0,-22.53078 z"
     id="path2989"
     style="fill:#ffffff" />
</svg>
