<?xml version="1.0" encoding="UTF-8" standalone="no"?>
<!-- Created with Inkscape (http://www.inkscape.org/) -->

<svg
   xmlns:dc="http://purl.org/dc/elements/1.1/"
   xmlns:cc="http://creativecommons.org/ns#"
   xmlns:rdf="http://www.w3.org/1999/02/22-rdf-syntax-ns#"
   xmlns:svg="http://www.w3.org/2000/svg"
   xmlns="http://www.w3.org/2000/svg"
   version="1.1"
   width="512"
   height="512"
   id="svg2">
  <metadata
     id="metadata8">
    <rdf:RDF>
      <cc:Work
         rdf:about="">
        <dc:format>image/svg+xml</dc:format>
        <dc:type
           rdf:resource="http://purl.org/dc/dcmitype/StillImage" />
        <dc:title></dc:title>
      </cc:Work>
    </rdf:RDF>
  </metadata>
  <defs
     id="defs6" />
  <path
     d="m 0,0 512,0 0,512 -512,0 z"
     id="rect3020"
     style="fill:#000000" />
  <path
     d="m 167.0373,397.12 c 5.1089,-12.55933 18.95821,-56.64476 19.99421,-63.64603 1.13829,-7.69258 0.99211,-10.01262 -1.01033,-16.03397 -2.0433,-6.14427 -3.07406,-7.41912 -8.10118,-10.01976 -4.96479,-2.56839 -7.09156,-2.89694 -15.40499,-2.37988 -5.59134,0.34775 -13.6145,1.98032 -19.08979,3.88444 l -9.44482,3.28458 18.56757,-18.82469 C 185.60238,259.87252 187.62541,253.44948 170.37005,236.8 158.02714,224.89048 139.55352,215.13439 109.44,204.62223 c -7.744,-2.70331 -13.216,-4.91456 -12.16,-4.91389 1.056,6.6e-4 12,1.74002 24.32,3.86524 36.24892,6.25299 55.04,6.47832 55.04,0.66001 0,-3.01737 -12.3471,-13.03413 -29.53146,-23.95779 -9.08252,-5.77354 -16.32206,-10.68896 -16.08786,-10.92315 0.23419,-0.23419 3.82635,1.0794 7.98256,2.91909 21.40939,9.47659 41.45871,15.84859 49.94414,15.87307 8.12246,0.0234 12.01262,-3.70233 12.01262,-11.50494 0,-5.21775 -3.67784,-17.90419 -8.22607,-28.37527 -0.51015,-1.17446 3.91822,2.64536 9.84083,8.48853 14.66059,14.46396 23.45389,20.16604 32.2194,20.89295 9.2324,0.76562 15.37879,-1.52214 22.84011,-8.50133 11.5286,-10.78365 19.08864,-26.17267 33.10357,-67.38475 4.78816,-14.08 8.41658,-23.584 8.06315,-21.12 -0.35343,2.464 -2.35223,16.28722 -4.4418,30.71827 -4.30617,29.73965 -4.99192,48.26439 -1.83151,49.47715 3.63589,1.39521 10.66139,-7.36857 26.06602,-32.51542 4.42042,-7.216 8.28092,-13.12 8.5789,-13.12 0.29797,0 -0.38648,2.16 -1.52099,4.8 -5.64059,13.12561 -17.40229,44.60075 -19.09504,51.09966 -2.43012,9.32983 -2.45476,19.98674 -0.057,24.62362 3.0313,5.86186 8.34488,7.30217 17.52413,4.75011 4.23838,-1.17838 11.14463,-3.87824 15.34726,-5.99971 l 7.64112,-3.85723 -8.98214,10.39439 c -11.98984,13.87501 -15.97072,22.05397 -15.20839,31.24661 1.59063,19.18098 19.80944,30.59614 83.89229,52.56355 5.80466,1.98982 10.31672,3.85503 10.02683,4.14493 -0.28989,0.28989 -9.93515,-0.74011 -21.43391,-2.28889 -32.1917,-4.33596 -52.2668,-3.81052 -52.2668,1.36799 0,2.50491 10.0134,11.1238 24.32849,20.9404 18.71347,12.8328 18.9102,13.03703 8.95004,9.29114 -34.88048,-13.11812 -54.07455,-17.63804 -55.80054,-13.14019 -1.0732,2.79673 3.53757,9.63502 15.75625,23.36827 l 9.81916,11.03632 -16.41166,-12.21684 c -19.42706,-14.4615 -25.81284,-18.11088 -36.46693,-20.84033 -16.07665,-4.11865 -30.7707,2.5254 -42.63137,19.2762 -7.75692,10.95507 -16.56903,30.12531 -22.20443,48.30447 -1.2522,4.03947 -2.46477,7.15645 -2.69458,6.92662 -0.22981,-0.22981 1.03686,-8.13782 2.81483,-17.57335 7.1168,-37.76806 3.15095,-43.65606 -16.19308,-24.0415 -7.47529,7.57986 -30.99011,38.54531 -41.4199,54.54376 -3.67223,5.6329 -5.4347,7.09819 -3.84898,3.2 z M 145.28,457.98478 c 23.85765,-30.7311 45.75981,-50.89244 55.3305,-50.93277 1.65301,-0.006 3.7501,1.36098 4.99197,3.2563 1.82857,2.79076 2.01952,5.45597 1.3068,18.24 -0.45907,8.23444 -1.97902,21.30769 -3.37765,29.05169 -3.41089,18.88564 -3.44083,18.56 1.70615,18.56 4.12726,0 4.40398,-0.32655 7.86395,-9.28 20.12476,-52.07717 42.5964,-84.27914 67.85828,-97.24119 10.67574,-5.4778 18.69617,-7.36594 31.36407,-7.38362 25.90744,-0.0362 43.1781,9.25362 105.57641,56.78889 10.97691,8.36226 20.21578,14.94632 20.53085,14.63126 0.31506,-0.31506 -8.97908,-11.43176 -20.65364,-24.70376 -24.20902,-27.52158 -30.29371,-35.24754 -33.15727,-42.10104 -2.85307,-6.82833 -1.1395,-8.47296 8.8163,-8.46157 10.58928,0.0115 24.10498,3.42307 55.75001,14.06966 14.64981,4.92876 26.99989,8.96137 27.44464,8.96137 0.44475,0 0.80863,-3.08645 0.80863,-6.85878 l 0,-6.85878 -7.36,-4.87243 c -11.55034,-7.6465 -31.27848,-22.93676 -35.6988,-27.66828 -5.64955,-6.04729 -6.44438,-9.44467 -2.76485,-11.81793 4.67358,-3.01442 18.49189,-4.90815 32.38053,-4.43759 L 476.8,319.36 l 0,-13.83853 0,-13.83851 -14.08,-6.1069 c -40.11668,-17.39973 -60.67652,-32.95442 -70.469,-53.31384 -6.06147,-12.6023 -6.37731,-22.52353 -1.134,-35.62108 6.52858,-16.3081 15.90861,-28.89185 39.4777,-52.96114 8.44479,-8.624 15.03768,-15.68 14.65091,-15.68 -0.38679,0 -9.12377,4.35384 -19.4155,9.6752 -26.04369,13.46595 -37.45891,17.55018 -49.51011,17.71416 -8.13476,0.11072 -10.23936,-0.32539 -13.78898,-2.85715 -16.12753,-11.50299 -13.4329,-41.65045 8.82842,-98.77221 3.42951,-8.8 6.23662,-16.432 6.23801,-16.96 0.001,-0.528 -3.34867,-0.96 -7.44462,-0.96 l -7.44717,0 -10.10397,14.980511 C 341.50356,67.274967 333.13914,76.8 329.78774,76.8 c -3.76631,0 -5.02538,-6.245046 -4.83865,-24 l 0.17837,-16.96 -15.31764,0 -15.31765,0 -7.04485,14.131167 C 270.64424,83.676232 250.55668,103.56102 228.01018,108.80838 206.37691,113.84319 185.95694,102.1596 146.71086,62.291758 126.14374,41.398794 124.14811,39.689253 127.03896,45.44 c 11.67787,23.23071 19.03643,46.981193 19.1618,61.84659 0.11123,13.19131 -1.82184,16.42447 -11.90544,19.91225 -6.20467,2.14612 -8.18509,2.24729 -18.79821,0.96025 -13.54873,-1.64303 -32.278626,-7.3804 -59.514796,-18.23068 C 45.588588,105.78779 36.804588,102.4 36.462314,102.4 36.120041,102.4 35.84,104.69884 35.84,107.50854 l 0,5.10854 17.354836,11.54637 c 29.062504,19.33561 40.144977,28.17469 43.528029,34.71679 2.601977,5.03167 2.384903,5.68813 -2.674857,8.08915 -5.187534,2.46165 -29.71535,2.86119 -44.128008,0.71881 -15.220492,-2.26245 -14.083643,-3.21946 -14.055255,11.8318 l 0.02474,13.12 10.535255,5.60971 c 26.750027,14.24361 49.690132,33.58398 56.44516,47.58785 5.23582,10.8544 5.69882,18.52165 1.65221,27.3606 -5.530432,12.08006 -20.729258,30.82731 -45.32087,55.90181 L 35.84,352.91995 l 0,7.99697 c 0,7.09835 0.251708,7.898 2.24,7.11622 10.498676,-4.12799 23.860685,-6.28608 39.36,-6.35699 15.750273,-0.0721 17.034102,0.11737 24.01063,3.54319 13.23998,6.50149 18.24942,16.95898 18.19383,37.98066 -0.047,17.78665 -1.93603,25.88434 -16.64655,71.36 -0.39349,1.21642 2.92496,1.59535 13.84226,1.58062 l 14.35983,-0.0193 14.08,-18.13647 z"
     id="path2989"
     style="fill:#ffffff" />
</svg>
