<?xml version="1.0" encoding="UTF-8" standalone="no"?>
<!-- Created with Inkscape (http://www.inkscape.org/) -->

<svg
   xmlns:dc="http://purl.org/dc/elements/1.1/"
   xmlns:cc="http://creativecommons.org/ns#"
   xmlns:rdf="http://www.w3.org/1999/02/22-rdf-syntax-ns#"
   xmlns:svg="http://www.w3.org/2000/svg"
   xmlns="http://www.w3.org/2000/svg"
   xmlns:sodipodi="http://sodipodi.sourceforge.net/DTD/sodipodi-0.dtd"
   xmlns:inkscape="http://www.inkscape.org/namespaces/inkscape"
   id="svg2"
   version="1.1"
   inkscape:version="0.48.3.1 r9886"
   width="400"
   height="400"
   sodipodi:docname="Icon.4_12.png">
  <metadata
     id="metadata8">
    <rdf:RDF>
      <cc:Work
         rdf:about="">
        <dc:format>image/svg+xml</dc:format>
        <dc:type
           rdf:resource="http://purl.org/dc/dcmitype/StillImage" />
        <dc:title></dc:title>
      </cc:Work>
    </rdf:RDF>
  </metadata>
  <defs
     id="defs6" />
  <sodipodi:namedview
     pagecolor="#ffffff"
     bordercolor="#666666"
     borderopacity="1"
     objecttolerance="10"
     gridtolerance="10"
     guidetolerance="10"
     inkscape:pageopacity="0"
     inkscape:pageshadow="2"
     inkscape:window-width="1855"
     inkscape:window-height="1056"
     id="namedview4"
     showgrid="false"
     inkscape:zoom="0.59"
     inkscape:cx="200"
     inkscape:cy="200"
     inkscape:window-x="65"
     inkscape:window-y="24"
     inkscape:window-maximized="1"
     inkscape:current-layer="svg2" />
  <path
     style="fill:#000000"
     d="m 0,0 400,0 0,400 -400,0 z"
     id="rect3030" />
  <path
     id="path2989"
     style="fill:#ffffff"
     d="m 267.74027,217.77193 c -2.21506,-41.4293 -42.2205,-81.42973 -83.54951,-83.53905 -11.48492,-0.58616 -11.53156,-1.34727 -0.22828,-3.72499 24.25735,-5.10269 49.30696,2.11408 66.66704,19.20672 14.72549,14.49864 22.39335,32.84695 22.35513,53.49323 -0.0127,6.85855 -2.88629,23.02713 -4.35326,24.4941 -0.18806,0.18806 -0.58906,-4.28044 -0.89112,-9.93001 z m -61.8231,7.13765 c 6.37055,-1.69973 11.94521,-3.43461 12.38812,-3.85529 0.44291,-0.42068 2.30694,-6.39922 4.1423,-13.28564 l 3.33701,-12.52077 -9.65844,-9.62219 -9.65844,-9.6222 -12.95253,3.55026 c -7.1239,1.95265 -13.03776,3.63936 -13.14193,3.74826 -0.10417,0.10889 -1.68369,5.93618 -3.51005,12.94952 l -3.32067,12.75153 9.45898,9.49847 c 5.20244,5.22416 9.88059,9.49847 10.3959,9.49847 0.5153,0 6.14919,-1.39069 12.51975,-3.09042 z m -32.17948,3.32851 -14.72518,-14.74978 5.42383,-20.3409 c 2.9831,-11.1875 5.56779,-20.4427 5.74374,-20.5671 0.17596,-0.12441 9.27379,-2.60016 20.2174,-5.50168 l 19.89748,-5.27547 14.88757,14.88756 14.88756,14.88757 -5.16636,19.46085 c -2.84149,10.70347 -5.49575,19.82684 -5.89834,20.27416 -0.40259,0.44731 -9.006,3.04853 -19.11869,5.78048 -10.11268,2.73196 -19.07005,5.17575 -19.90526,5.43064 -0.96709,0.29514 -6.86613,-4.89306 -16.24375,-14.28633 z m 131.87072,10.08407 c 0.68127,-8.43 -0.90996,-22.57089 -3.80589,-33.82216 -9.08003,-35.2776 -36.07671,-69.77062 -70.61649,-90.22499 C 210.43445,101.98597 185.41091,95.197622 165,96.320154 l -9.5,0.522469 5.5,-1.973151 c 13.42425,-4.816015 21.91432,-6.21992 38,-6.283624 9.22857,-0.03655 17.92765,0.465274 21.5,1.240266 52.9293,11.482566 89.42295,53.130096 93.08333,106.229196 0.98122,14.23403 -2.25482,35.58264 -6.96436,45.94487 l -1.59064,3.49982 0.58008,-7.17784 z M 192,275.35216 c -9.01064,-1.3533 -14.58929,-2.73172 -20.07213,-4.9596 -21.58384,-8.7703 -38.34219,-28.33177 -44.02811,-51.39256 -2.07915,-8.43254 -1.788,-26.02858 0.57912,-35 l 1.97888,-7.5 0.66681,9 c 1.63816,22.11044 10.79172,41.24252 27.8406,58.19033 16.22354,16.12737 35.44701,25.28839 57.03483,27.1802 l 8.5,0.74488 -4,1.16221 c -8.57041,2.49015 -21.36583,3.64602 -28.5,2.57454 z m -13.66586,39.22183 C 155.24484,310.20824 131.43912,297.10201 115.9878,280.24923 89.17111,251.00021 79.482538,211.83398 89.402059,172.77585 c 3.823801,-15.05622 4.259676,-14.84569 4.854551,2.34469 0.419423,12.12027 1.075795,17.41527 3.097288,24.98604 14.397942,53.92229 64.224872,99.35837 117.258842,106.92576 4.46201,0.63668 12.93455,1.00237 18.82787,0.81263 12.27493,-0.39519 11.70064,0.18127 -4.80771,4.82585 -7.81447,2.19857 -11.58704,2.61921 -26.1329,2.9138 -11.47752,0.23245 -19.32784,-0.0958 -24.16586,-1.01063 z m 53.86664,61.28728 5.29922,-1.13873 -2.89812,-2.11127 c -8.82651,-6.43008 -13.8323,-11.20413 -17.48772,-16.67818 -4.98217,-7.46086 -6.29441,-12.00536 -5.90929,-20.46488 l 0.29513,-6.48287 5,3.59374 c 9.93483,7.14061 24.94273,13.66557 38,16.52118 8.66392,1.89479 27.53209,1.62196 35.5,-0.51333 8.93084,-2.39334 17.76609,-6.89293 23.5796,-12.00855 l 4.88201,-4.29595 -6.86612,-0.7353 c -13.0061,-1.39284 -23.82943,-5.80417 -30.13486,-12.28227 -3.34744,-3.4391 -7.46144,-10.04296 -7.46007,-11.97502 3.1e-4,-0.43441 7.08781,-0.79905 15.75,-0.81031 12.13454,-0.0158 17.33673,-0.44613 22.66498,-1.87498 22.03942,-5.91021 39.52381,-18.00319 48.90505,-33.82493 3.48766,-5.88203 6.32994,-13.46243 5.39741,-14.39495 -0.2274,-0.2274 -2.84447,0.69682 -5.81572,2.05381 -16.34436,7.4646 -33.3396,7.11056 -42.63875,-0.88823 l -2.6382,-2.26927 6.43734,-3.07544 c 25.01591,-11.95136 43.4743,-32.91534 50.03404,-56.82582 1.69708,-6.1859 2.04183,-9.76493 1.73613,-18.02349 -0.46771,-12.63495 -1.50337,-14.1489 -5.60287,-8.19047 -6.58733,9.57435 -15.96989,17.30928 -24.51492,20.20995 -4.60946,1.56472 -14.77243,2.23358 -15.9559,1.05011 -0.31579,-0.3158 1.81031,-4.13663 4.72468,-8.49074 6.3379,-9.46891 11.77744,-22.58974 14.08371,-33.97163 2.00436,-9.89192 1.50759,-30.62206 -0.91357,-38.12332 -2.22682,-6.89914 -6.35754,-14.916215 -10.4933,-20.365862 C 330.22939,82.976391 329,82.733421 329,88.256704 c 0,6.100561 -3.49216,19.201026 -6.4753,24.291356 -2.958,5.04745 -11.04742,12.51827 -15.22145,14.05746 l -2.99799,1.10553 -0.0205,-14.10553 C 304.24247,84.421145 295.06839,62.195251 276.35153,45.932026 271.1651,41.425501 261.13085,35.921533 255.72611,34.618609 l -2.77388,-0.668703 1.64703,3.775047 c 5.61872,12.878305 5.77767,13.552619 5.83982,24.775047 0.054,9.750191 -0.21542,11.540815 -2.37128,15.759901 -1.33771,2.617946 -3.18625,5.442304 -4.10786,6.276352 -1.5348,1.388978 -1.88917,1.024126 -4.21569,-4.340374 -10.45957,-24.117752 -33.90722,-44.745112 -57.73175,-50.787773 -6.69163,-1.697209 -26.13444,-1.686844 -28.88873,0.0154 -0.89329,0.552085 0.19644,1.784315 3.61237,4.084739 7.11262,4.789916 14.98116,13.214603 17.88424,19.148285 2.76094,5.643144 4.42354,14.93527 3.47863,19.441708 L 187.5,74.955 181.26633,70.612552 C 167.39949,60.952746 150.14174,54.835094 132.86383,53.454484 115.91002,52.099771 95.931385,58.077194 85.00518,67.773353 l -4.418976,3.921499 6.456898,0.693707 c 13.883658,1.491612 24.159538,5.853004 30.823298,13.082333 3.40325,3.692088 7.1336,9.843207 7.1336,11.762871 0,0.1639 -4.96102,0.128195 -11.02448,-0.07934 -6.06346,-0.207539 -14.678831,0.156994 -19.145265,0.810073 C 68.71622,101.78287 45.79011,116.57425 36.027316,135.90276 32.966681,141.96224 30.918466,148 31.923516,148 c 0.459139,0 3.251677,-1.10379 6.205641,-2.45287 11.963313,-5.46366 22.40799,-6.76465 31.834432,-3.9653 C 75.130244,143.11616 83,147.56346 83,148.94887 c 0,0.37571 -2.404119,1.67955 -5.342487,2.89744 -18.708074,7.75406 -38.218316,26.88117 -46.85982,45.9396 -5.297825,11.6841 -7.337168,28.14028 -4.673743,37.71409 l 1.112795,4 2.628212,-3.5 c 5.371396,-7.15311 14.307425,-15.77596 18.990162,-18.32463 6.156184,-3.35061 14.103362,-5.05864 19.659986,-4.22538 l 4.34673,0.65184 -4.311201,6.19908 c -6.096015,8.76548 -11.113209,19.19526 -14.147908,29.41077 -3.516797,11.83837 -4.398323,29.71569 -1.997407,40.50735 2.092998,9.40762 7.084193,19.9141 12.351574,26.00008 C 69.18488,321.33525 70,321.01021 70,314.12831 c 0,-9.25379 4.91351,-21.90942 11.120744,-28.64348 3.598611,-3.90403 13.543638,-10.37163 14.303498,-9.30206 0.123956,0.17448 -0.05793,3.69223 -0.404183,7.81723 -2.571799,30.63817 10.219351,62.35626 31.035251,76.95777 5.78545,4.05827 15.8915,8.96242 18.58454,9.01849 0.65956,0.0137 -0.26091,-3.24176 -2.18456,-7.72626 -5.84791,-13.63294 -6.34121,-27.05344 -1.3494,-36.71161 4.43209,-8.57521 4.70568,-8.54528 9.51743,1.04106 17.30427,34.47492 52.2474,55.58444 81.57746,49.28182 z" />
</svg>
