<?xml version="1.0" encoding="UTF-8" standalone="no"?>
<!-- Created with Inkscape (http://www.inkscape.org/) -->

<svg
   xmlns:dc="http://purl.org/dc/elements/1.1/"
   xmlns:cc="http://creativecommons.org/ns#"
   xmlns:rdf="http://www.w3.org/1999/02/22-rdf-syntax-ns#"
   xmlns:svg="http://www.w3.org/2000/svg"
   xmlns="http://www.w3.org/2000/svg"
   xmlns:sodipodi="http://sodipodi.sourceforge.net/DTD/sodipodi-0.dtd"
   xmlns:inkscape="http://www.inkscape.org/namespaces/inkscape"
   id="svg2"
   version="1.1"
   inkscape:version="0.48.3.1 r9886"
   width="400"
   height="400"
   sodipodi:docname="1_60.png">
  <metadata
     id="metadata8">
    <rdf:RDF>
      <cc:Work
         rdf:about="">
        <dc:format>image/svg+xml</dc:format>
        <dc:type
           rdf:resource="http://purl.org/dc/dcmitype/StillImage" />
        <dc:title></dc:title>
      </cc:Work>
    </rdf:RDF>
  </metadata>
  <defs
     id="defs6" />
  <sodipodi:namedview
     pagecolor="#ffffff"
     bordercolor="#666666"
     borderopacity="1"
     objecttolerance="10"
     gridtolerance="10"
     guidetolerance="10"
     inkscape:pageopacity="0"
     inkscape:pageshadow="2"
     inkscape:window-width="1855"
     inkscape:window-height="1056"
     id="namedview4"
     showgrid="false"
     inkscape:zoom="0.59"
     inkscape:cx="200"
     inkscape:cy="200"
     inkscape:window-x="65"
     inkscape:window-y="24"
     inkscape:window-maximized="1"
     inkscape:current-layer="svg2" />
  <path
     style="fill:#000000;fill-opacity:1;stroke:none"
     d="m 0,0 400,0 0,400 -400,0 z"
     id="rect3018" />
  <path
     id="path2989"
     style="fill:#ffffff"
     d="m 353,372.22246 c 0,-1.19675 -11.49352,-11.05715 -20.45599,-17.54937 -26.65183,-19.30604 -62.4433,-35.02059 -105.07915,-46.13592 -39.19482,-10.21824 -79.46779,-14.83499 -95.13196,-10.90559 -1.98926,0.49901 -2.2194,0.0646 -2.80442,-5.29398 -3.10211,-28.41372 -11.81561,-41.9811 -36.171558,-56.32097 l -11.011856,-6.48337 4.745041,-7.26867 c 9.37666,-14.3636 9.3612,-27.03296 -0.07045,-57.7324 -2.191223,-7.13229 -3.654555,-13.25085 -3.251849,-13.5968 0.402706,-0.34595 4.400801,-2.08082 8.884655,-3.85528 17.640747,-6.9812 30.886147,-16.37102 38.864237,-27.5513 4.15953,-5.82907 5.83831,-9.02872 9.7958,-18.67016 l 1.49465,-3.641353 9.20698,2.391352 c 15.45662,4.014581 28.24559,2.699031 51.86589,-5.335255 l 11.38001,-3.870835 9.61999,9.663861 c 11.97651,12.03115 22.73213,18.34548 36.40585,21.37289 l 2.78587,0.6168 -3.97134,4.72194 c -12.53948,14.9095 -13.28402,39.913 -1.8677,62.72195 10.98387,21.94495 29.97059,37.24367 54.7673,44.12925 10.03627,2.78688 33.5346,2.49745 45.5,-0.56043 4.95,-1.26502 9.675,-2.66775 10.5,-3.11718 1.86647,-1.01678 1.74721,-1.05519 -10.5,-3.38209 -14.65816,-2.78498 -23.74224,-7.71402 -28.18349,-15.29243 -2.35108,-4.01183 -2.51782,-5.06452 -2.07021,-13.07019 0.38309,-6.8518 1.5104,-11.79634 5.29098,-23.20693 4.62657,-13.96395 4.80711,-14.94363 4.88345,-26.5 0.0727,-11.00522 -0.14208,-12.47223 -2.59091,-17.6965 -5.31291,-11.33441 -16.39148,-19.2092 -28.99515,-20.61011 L 300.59641,109.5 297.80294,102.17659 C 292.09075,87.201465 281.19092,75.267038 266.68545,68.105457 255.46771,62.567084 247.07147,60.733073 232,60.529026 221.41421,60.38571 218.77743,60.020942 214.78153,58.147049 c -8.59515,-4.030725 -19.43978,-6.20444 -31.03824,-6.22135 -19.74982,-0.0288 -34.61385,5.650791 -50.58061,19.32698 -4.86768,4.16937 -6.14052,4.719242 -14.46539,6.249144 C 87.248706,83.281276 66.943844,102.38082 61.291433,131.5 c -1.644569,8.47222 -2.059683,9.35104 -7.078794,14.98624 -22.683173,25.46747 -26.270458,54.56569 -10.574844,85.7777 3.291388,6.54519 3.36866,6.96562 2.389351,13 -5.375786,33.12496 10.433541,60.36459 42.785982,73.72067 l 8.313128,3.43191 5.292114,11.13344 c 2.91066,6.12339 7.10379,13.79217 9.31807,17.04174 5.10682,7.4945 13.88521,16.11388 20.01265,19.65014 l 4.75091,2.74184 108.25,0.008 c 59.5375,0.004 108.25,-0.34173 108.25,-0.76938 z" />
</svg>
