<?xml version="1.0" encoding="UTF-8" standalone="no"?>
<!-- Created with Inkscape (http://www.inkscape.org/) -->

<svg
   xmlns:dc="http://purl.org/dc/elements/1.1/"
   xmlns:cc="http://creativecommons.org/ns#"
   xmlns:rdf="http://www.w3.org/1999/02/22-rdf-syntax-ns#"
   xmlns:svg="http://www.w3.org/2000/svg"
   xmlns="http://www.w3.org/2000/svg"
   xmlns:sodipodi="http://sodipodi.sourceforge.net/DTD/sodipodi-0.dtd"
   xmlns:inkscape="http://www.inkscape.org/namespaces/inkscape"
   id="svg2"
   version="1.1"
   inkscape:version="0.48.3.1 r9886"
   width="400"
   height="400"
   sodipodi:docname="Icon.2_09.svg">
  <metadata
     id="metadata8">
    <rdf:RDF>
      <cc:Work
         rdf:about="">
        <dc:format>image/svg+xml</dc:format>
        <dc:type
           rdf:resource="http://purl.org/dc/dcmitype/StillImage" />
        <dc:title></dc:title>
      </cc:Work>
    </rdf:RDF>
  </metadata>
  <defs
     id="defs6" />
  <sodipodi:namedview
     pagecolor="#ffffff"
     bordercolor="#666666"
     borderopacity="1"
     objecttolerance="10"
     gridtolerance="10"
     guidetolerance="10"
     inkscape:pageopacity="0"
     inkscape:pageshadow="2"
     inkscape:window-width="1216"
     inkscape:window-height="1000"
     id="namedview4"
     showgrid="false"
     inkscape:zoom="2.36"
     inkscape:cx="243.92028"
     inkscape:cy="233.67805"
     inkscape:window-x="64"
     inkscape:window-y="24"
     inkscape:window-maximized="1"
     inkscape:current-layer="svg2" />
  <rect
     style="fill:#000000;fill-opacity:1;stroke:none"
     id="rect3089"
     width="400"
     height="400"
     x="0"
     y="-1.5258789e-05" />
  <path
     id="path3075"
     style="fill:#ffffff"
     d="m 195.5,61.53125 c -17.04652,0.02862 -28.95273,4.933079 -41.0625,16.96875 -27.27461,27.10773 -21.59909,71.59471 11.71875,91.75 14.28202,8.63977 33.77341,10.4356 49.84375,4.5625 23.16571,-8.46619 38.05861,-29.91913 38.15625,-54.96875 0.0809,-20.752353 -9.54237,-38.376647 -27.1875,-49.78125 C 217.30635,63.817393 208.77322,61.508967 195.5,61.53125 z M 194.4375,96.625 c 10.94092,-0.506878 21.71875,7.85696 21.71875,20.875 0,13.38284 -11.44064,22.71445 -24.9375,20.34375 -11.32068,-1.98847 -18.587,-13.35365 -16.0625,-25.125 0.80022,-3.73128 2.20277,-6.27483 5.25,-9.5 4.05779,-4.294724 9.0581,-6.363351 14.03125,-6.59375 z m -4.375,-63.15625 C 175.12885,33.604534 160.1813,35.458454 145.5,39.15625 99.679534,50.697105 59.691229,80.529197 35.46875,121.25 l -4.84375,8.125 c 4.917148,8.8751 10.529379,17.7606 15.21875,25.125 11.113988,17.42985 19.150901,32.41094 22.09375,41.21875 C 69.7434,201.12374 70,204.35173 70,220.5 l 0,18.59375 -4.0625,7.4375 c -5.298242,9.65367 -5.721619,14.96995 -1.53125,19.34375 3.32232,3.46775 8.37454,6.125 11.6875,6.125 3.782342,0 10.976598,-4.05805 13.0625,-7.375 2.957089,-4.70229 2.062097,-11.58645 -2.5,-19.28125 L 83,239.15625 83,227 c 0,-10.73847 0.25581,-12.54385 2.09375,-15.125 4.622383,-6.49154 15.03973,-9.06012 26.15625,-6.46875 23.94873,9.05025 37.80048,22.83394 49.25,42.03125 l 0.28125,29.5625 0.3125,29.53125 -4.8125,7.46875 c -4.46553,7.77618 -8.00297,17.36435 -2.6875,24.6875 3.30151,4.42913 7.64959,6.46875 13.78125,6.46875 7.24008,0 11.30558,-2.2224 13.6875,-7.46875 3.09813,-6.82384 2.5351,-11.13652 -2.8125,-21.75 l -4.75,-9.4375 0,-29.5 0,-29.5 c 4.76345,-7.32602 11.03923,-12.89954 18.4375,-12.9375 11.9143,0.13341 23.28441,10.66603 31.375,29.0625 l 2.6875,6.125 0,28.375 0,28.375 -3.59375,7.125 c -4.80971,9.49069 -5.6178,18.02287 -2.21875,23.78125 4.37509,7.4119 14.15245,9.71452 20.6875,4.875 1.44967,-1.07355 3.68433,-3.50057 4.96875,-5.375 4.63538,-8.57962 0.75009,-19.08354 -2.65625,-25.78125 l -4.28125,-8.375 0.3125,-32.625 0.3125,-32.625 3.1875,-9.15625 C 257.44223,216.43996 274.36172,192.19551 290,223.3125 l 0,21.4375 0,21.40625 -3.25,7.1875 c -2.80679,7.95762 -6.19498,18.38639 -1.1875,25.28125 5.64074,7.55516 12.33197,8.8081 17.9375,3.375 6.12272,-5.93438 6.73056,-16.71475 1.53125,-26.90625 -1.90626,-3.73657 -2.03125,-5.80954 -2.03125,-31 0,-26.52301 0.0354,-27.09553 2.59375,-34.28125 3.55447,-9.98354 10.56008,-23.13052 16.6875,-31.3125 2.80301,-3.74288 13.73462,-15.40066 24.28125,-25.90625 10.54663,-10.50558 19.67297,-20.04532 20.28125,-21.21875 0.96524,-1.86203 0.28207,-3.21814 -5.28125,-10.59375 C 319.30381,64.7564 254.775,32.880351 190.0625,33.46875 z m 3.125,15.5625 C 243.84367,48.968114 289.06599,67.252415 324.09375,102 335.09235,112.91063 349,130.06556 349,132.71875 349,134.01016 334.11404,144.34289 319.21875,153.375 272.18661,181.89403 224.05764,195.04474 180.5,191.3125 124.9148,182.22765 86.588492,161.83107 49,129.65625 59.073448,113.27548 71.954235,97.263063 85.5,86 115.09095,61.817416 152.20914,49.082324 193.1875,49.03125 z"
     inkscape:connector-curvature="0"
     sodipodi:nodetypes="ssssssssssssssscccssccsssccssccccccssccccccccccsscccccccccccssssssssssssscccs" />
</svg>
