<?xml version="1.0" encoding="UTF-8" standalone="no"?>
<!-- Created with Inkscape (http://www.inkscape.org/) -->

<svg
   xmlns:dc="http://purl.org/dc/elements/1.1/"
   xmlns:cc="http://creativecommons.org/ns#"
   xmlns:rdf="http://www.w3.org/1999/02/22-rdf-syntax-ns#"
   xmlns:svg="http://www.w3.org/2000/svg"
   xmlns="http://www.w3.org/2000/svg"
   version="1.1"
   width="512"
   height="512"
   id="svg2">
  <metadata
     id="metadata8">
    <rdf:RDF>
      <cc:Work
         rdf:about="">
        <dc:format>image/svg+xml</dc:format>
        <dc:type
           rdf:resource="http://purl.org/dc/dcmitype/StillImage" />
        <dc:title></dc:title>
      </cc:Work>
    </rdf:RDF>
  </metadata>
  <defs
     id="defs6" />
  <path
     d="m 0,0 512,0 0,512 -512,0 z"
     id="rect3032"
     style="fill:#000000;fill-opacity:1;fill-rule:nonzero;stroke:none" />
  <path
     d="m 360.82689,189.12343 c -4.49841,-2.68089 -12.38526,-7.32147 -17.52632,-10.31239 l -9.3474,-5.43806 21.04261,-12.44643 c 11.57344,-6.84555 21.22081,-12.26824 21.43862,-12.05045 0.21779,0.21781 -1.05783,10.03344 -2.83471,21.81253 -1.77689,11.7791 -3.23072,21.84394 -3.23072,22.36632 0,1.56931 -1.01067,1.1529 -9.54208,-3.93152 z m -103.5998,36.0732 c -8.497,-4.77392 -15.5517,-8.76992 -15.67711,-8.88 -0.1254,-0.11007 2.56083,-8.95803 5.96942,-19.66214 5.419,-17.01747 6.41788,-19.42806 7.95256,-19.19174 4.85257,0.74723 61.82929,14.13248 62.42166,14.66441 0.64259,0.57703 -43.57383,41.93076 -44.70043,41.80639 -0.28435,-0.0314 -7.4691,-3.96301 -15.9661,-8.73692 z m 15.90348,79.26097 c -6.24779,-2.07387 -11.90565,-3.96465 -12.57302,-4.20172 -0.85958,-0.30536 1.35473,-5.1933 7.5939,-16.76309 4.84402,-8.98263 9.08226,-16.63002 9.41833,-16.99419 0.33606,-0.36417 2.10039,8.83552 3.92074,20.44377 1.82034,11.60825 3.23996,21.14641 3.15469,21.19591 -0.0852,0.0495 -5.26685,-1.60681 -11.51464,-3.68068 z m -67.24899,5.47657 c 0,-12.27936 0.20794,-22.32611 0.4621,-22.32611 0.95567,0 39.63116,34.04167 38.91234,34.25014 -0.41344,0.11991 -8.72617,2.29439 -18.47273,4.83218 -9.74656,2.5378 -18.43667,4.82921 -19.31136,5.09203 -1.48443,0.44604 -1.59035,-1.00908 -1.59035,-21.84824 z m 106.99482,16.00797 -8.52236,-11.52536 1.61199,-38.0497 c 0.88658,-20.92734 1.81005,-38.24777 2.05213,-38.48985 0.4505,-0.45051 93.6031,-22.99255 93.74681,-22.68584 0.0436,0.0932 7.98771,18.57204 17.65343,41.0641 9.66571,22.49206 17.68139,41.10831 17.81262,41.36944 0.19696,0.39192 -32.92124,-1.3233 -58.08027,-3.00802 l -6.21294,-0.41605 -25.76952,21.63332 -25.76952,21.63332 -8.52237,-11.52536 z m 91.77912,19.15157 c -7.38314,-17.26735 -13.27871,-31.54037 -13.10126,-31.71782 0.34656,-0.34656 46.35237,2.42301 46.76544,2.81531 0.1951,0.18528 -19.69279,59.62936 -20.12735,60.15981 -0.0622,0.0758 -6.15369,-13.98996 -13.53683,-31.2573 z m -131.07057,89.27813 c -23.98183,-12.26149 -31.05353,-16.26695 -31.59218,-17.89402 -0.97051,-2.93155 -12.56413,-71.8392 -12.15558,-72.24774 0.38745,-0.38746 59.29473,-14.82193 61.5905,-15.09196 1.9023,-0.22376 19.85413,23.31394 19.90719,26.10149 0.0198,1.03915 -1.09475,14.44047 -2.47672,29.78072 -1.38197,15.34024 -2.27222,28.13182 -1.97832,28.42571 0.57755,0.57755 16.30996,2.52466 16.76029,2.07433 0.15001,-0.15001 1.54401,-14.10828 3.09778,-31.01837 l 2.82502,-30.74562 2.84372,-2.40317 c 21.50213,-18.17105 40.31494,-33.75573 40.7477,-33.75573 0.90087,0 32.09975,73.56145 31.46716,74.19403 -0.32222,0.32222 -8.87652,2.07124 -19.00954,3.88669 -16.94387,3.03571 -18.40026,3.44495 -18.13207,5.09506 0.1604,0.98683 1.92182,7.87095 3.91427,15.29806 1.99245,7.4271 3.49701,13.62725 3.34345,13.7781 -0.32393,0.31823 -69.43741,20.45543 -69.92728,20.37431 -0.17996,-0.0298 -14.23138,-7.16315 -31.22539,-15.85189 z m 65.88584,33.27551 c 32.20023,-6.90359 56.52165,-20.12322 79.55589,-43.24168 39.52079,-39.66527 55.13743,-98.39632 42.17405,-158.60809 -4.6075,-21.40073 -11.78272,-40.9825 -24.47514,-66.79461 -16.8306,-34.22777 -34.9399,-60.43577 -58.63207,-84.853 C 311.75816,45.784497 219.08899,23.471875 96.829162,46.427924 78.328087,49.901769 44.983456,57.534099 43.867632,58.550413 c -0.388987,0.354296 3.782271,-0.08085 9.269461,-0.966997 32.388888,-5.230585 71.878767,-4.512057 108.214747,1.968995 48.25247,8.606532 99.28309,29.652374 140.40499,57.905259 10.27993,7.06286 30.46688,22.76621 37.71396,29.33757 3.91212,3.54735 3.71508,3.47473 -4.54385,-1.67459 C 276.57155,108.73687 214.68693,87.834868 158.12096,85.40308 l -11.76382,-0.505731 5.907,1.882295 c 19.16086,6.105695 24.47606,7.952502 36.8183,12.792784 15.44272,6.056202 38.61489,17.201932 51.92015,24.973392 10.24458,5.98374 34.55402,21.89059 35.30092,23.09909 0.27451,0.44415 -4.92776,-1.77965 -11.56059,-4.94178 -40.94102,-19.51824 -82.10583,-31.47286 -125.65595,-36.49158 -16.41445,-1.89161 -52.114584,-2.1253 -67.703372,-0.44319 -11.292281,1.2185 -27.47421,3.62894 -28.01894,4.17367 -0.18502,0.18502 1.442903,0.79039 3.617606,1.34527 37.754581,9.63313 69.748746,22.5008 101.192416,40.69835 11.97666,6.93132 26.34469,16.1649 23.89358,15.35517 -24.99239,-8.25633 -46.96006,-13.47004 -75.347884,-17.88273 -11.738206,-1.82462 -15.213564,-1.83523 -10.470584,-0.032 47.761468,18.15888 92.235928,46.7654 129.966778,83.59625 11.14045,10.87471 34.40863,36.49931 33.74524,37.1627 -0.17234,0.17235 -4.33341,-3.24409 -9.24682,-7.59206 -37.13397,-32.86058 -86.67167,-61.36867 -132.5262,-76.26651 -9.451578,-3.07075 -34.437007,-9.60701 -41.349042,-10.81702 -3.004355,-0.52593 -3.07993,-0.47927 -1.363156,0.84154 0.999648,0.7691 5.49806,3.49457 9.996472,6.05661 36.003896,20.50583 68.749576,51.06008 94.240666,87.93382 7.42916,10.74652 16.78815,26.1443 15.13577,24.90195 -0.67803,-0.5098 -4.50436,-3.57206 -8.50295,-6.80505 -9.77302,-7.90179 -22.28244,-16.98109 -34.96122,-25.37475 -10.98952,-7.27532 -29.23346,-18.16772 -30.42956,-18.16772 -0.38478,0 4.84142,5.7253 11.61377,12.72289 11.96289,12.36074 25.57199,28.45201 36.39933,43.03821 2.91579,3.92805 4.74702,6.79062 4.0694,6.36128 -0.67762,-0.42934 -4.09467,-2.67162 -7.59343,-4.98284 -11.67466,-7.71207 -25.53679,-13.87137 -40.63582,-18.05552 -3.39122,-0.93976 -6.16585,-1.34611 -6.16585,-0.903 0,0.4431 1.87432,2.35954 4.16516,4.25876 6.1315,5.08332 17.5575,18.8893 25.25266,30.51268 3.71406,5.61001 13.19379,22.05946 21.06607,36.55435 7.87228,14.49488 16.76991,30.23932 19.7725,34.98765 26.51575,41.93221 64.31267,69.93651 105.36808,78.06875 12.85005,2.54533 14.56386,2.67211 31.57513,2.33573 10.69898,-0.21156 17.46799,-0.82677 23.62802,-2.14745 z"
     id="path2989"
     style="fill:#ffffff" />
</svg>
