<?xml version="1.0" encoding="UTF-8" standalone="no"?>
<!-- Created with Inkscape (http://www.inkscape.org/) -->

<svg
   xmlns:dc="http://purl.org/dc/elements/1.1/"
   xmlns:cc="http://creativecommons.org/ns#"
   xmlns:rdf="http://www.w3.org/1999/02/22-rdf-syntax-ns#"
   xmlns:svg="http://www.w3.org/2000/svg"
   xmlns="http://www.w3.org/2000/svg"
   version="1.1"
   width="512"
   height="512"
   id="svg2">
  <metadata
     id="metadata8">
    <rdf:RDF>
      <cc:Work
         rdf:about="">
        <dc:format>image/svg+xml</dc:format>
        <dc:type
           rdf:resource="http://purl.org/dc/dcmitype/StillImage" />
        <dc:title></dc:title>
      </cc:Work>
    </rdf:RDF>
  </metadata>
  <defs
     id="defs6" />
  <rect
     width="510.73306"
     height="510.73306"
     x="0.63346165"
     y="0.63345468"
     id="rect3056"
     style="fill:#000000;stroke:#000000;stroke-width:1.26692331;stroke-linecap:square;stroke-linejoin:miter;stroke-miterlimit:4;stroke-opacity:1;stroke-dasharray:none;stroke-dashoffset:0" />
  <path
     d="m 317.21742,499.982 c 18.88058,-1.79043 35.28899,-5.13446 52.28258,-10.65519 4.4,-1.42944 8.17632,-2.75155 8.39182,-2.93804 0.31908,-0.27613 -9.94744,-14.28682 -28.6779,-39.13666 l -2.44808,-3.2479 3.81576,1.59433 c 2.09867,0.87688 18.57371,8.97594 36.6112,17.9979 C 405.23029,472.6184 420.57119,480 421.28368,480 c 2.76556,0 9.7395,-15.73811 12.43635,-28.06514 l 0.77997,-3.56513 20,2.76505 c 11,1.52079 20.81226,2.7876 21.80503,2.81514 4.30362,0.1194 11.05236,-23.70208 12.71915,-44.89568 4.32899,-55.04387 -16.23715,-129.51268 -55.5885,-201.28275 -14.03279,-25.5934 -43.36807,-71.47432 -44.1669,-69.07784 -0.21278,0.63835 2.83803,8.7021 6.77958,17.91943 36.84595,86.16443 59.92734,167.77591 56.5005,199.77524 -0.61054,5.70113 -0.9826,6.61168 -2.70162,6.61168 -1.1123,0 -3.58985,-1.87877 -5.60455,-4.25 -14.7679,-17.38138 -42.11339,-41.18417 -68.68712,-59.78847 -21.53835,-15.07903 -56.82528,-35.96074 -57.874,-34.24804 -0.26488,0.43258 10.38591,10.09045 23.66842,21.46194 C 354.63249,297.54691 372.925,313.80578 382,322.30624 400.72007,339.84115 419.04921,360 416.2725,360 c -0.4625,0 -14.10052,-0.75561 -30.3067,-1.67914 -22.75767,-1.29687 -46.54016,-1.67763 -104.4658,-1.67249 -71.9763,0.006 -88.80226,0.438 -156.25,4.00804 -10.67725,0.56515 -12.25,0.44937 -12.25,-0.90177 0,-2.86778 12.10817,-36.98021 18.08996,-50.96495 13.83727,-32.34997 32.58483,-65.05341 53.58974,-93.48249 2.92293,-3.95604 4.9453,-7.42093 4.49416,-7.69975 -1.39232,-0.8605 -18.08197,13.18142 -30.17386,25.38692 -23.74845,23.97157 -41.98316,51.60958 -57.07377,86.50563 -2.854139,6.6 -5.395274,12.225 -5.64697,12.5 -0.701351,0.76629 0.563864,-5.96033 4.42014,-23.5 9.0471,-41.14937 21.18286,-82.2719 36.84133,-124.8383 l 5.82627,-15.8383 2.95191,0.59038 c 9.5914,1.91828 20.48958,-7.74718 30.35167,-26.91853 9.6932,-18.843 15.44035,-34.45974 20.79096,-56.49525 3.6002,-14.826745 4.34927,-25.818821 2.02734,-29.749542 l -1.78523,-3.022141 5.25174,-9.364159 c 6.6265,-11.815453 7.03953,-15.692502 2.13832,-20.071735 -2.9175,-2.606788 -3.92912,-2.94371 -7.42906,-2.474269 -4.77145,0.639986 -5.77497,1.762359 -12.76426,14.276063 -4.48962,8.038257 -5.35477,9.04158 -7.45084,8.640889 -5.01714,-0.959086 -12.17174,1.739288 -16.18372,6.103725 C 148.88586,62.80639 131.70594,93.161884 122.12355,118.5 117.20243,131.51259 115,140.873 115,148.77536 c 0,7.72553 0.78711,9.26449 6.76382,13.22464 l 2.26381,1.5 -4.91803,13.15523 C 108.75513,204.3524 95.328385,247.31409 87.123969,279 c -1.772092,6.84392 -1.949931,7.14227 -2.03297,3.41061 -0.189537,-8.51755 -3.183521,-36.3835 -5.147631,-47.91061 -6.774052,-39.75606 -20.67105,-70.57818 -41.868502,-92.86007 -6.859286,-7.2102 -14.962365,-14.08576 -15.714325,-13.3338 -0.307668,0.30766 2.477861,5.39785 6.190065,11.31153 23.037772,36.70001 34.534295,84.38976 36.975741,153.38234 0.589117,16.64778 -0.691356,57.13541 -2.137246,67.57819 l -0.56466,4.07819 -16.559045,1.15197 c -9.107474,0.63358 -16.772986,1.36591 -17.03447,1.62739 -0.261483,0.26148 -0.150296,4.81203 0.247083,10.11232 l 0.722507,9.6369 3.149742,-0.53957 C 35.082616,386.34862 42.0125,385.79918 48.75,385.42442 58.827325,384.86388 61,384.98775 61,386.12286 c 0,0.75892 -1.333193,10.48879 -2.962651,21.62195 -4.388982,29.98743 -8.596356,50.86342 -14.217032,70.54156 -1.694503,5.9325 -2.820682,11.0466 -2.502619,11.36466 0.318062,0.31806 6.87279,-1.11754 14.56606,-3.19024 l 13.987765,-3.76853 10.081184,2.01045 10.081183,2.01044 0.43956,-2.10657 c 0.241758,-1.15862 1.159025,-8.85658 2.03837,-17.10658 3.675278,-34.48139 12.23108,-82.95431 15.01983,-85.09492 0.78454,-0.60221 7.39837,-1.39759 14.6974,-1.76752 7.29902,-0.36993 27.89595,-1.41951 45.77095,-2.3324 47.29141,-2.41521 178.1681,-2.42785 222,-0.0214 17.325,0.95115 33.58571,1.98653 36.13492,2.30084 l 4.63491,0.57146 2.10407,6.40943 c 3.21803,9.80281 4.4464,19.80766 3.67527,29.93455 -0.70528,9.26213 -3.21759,23.74302 -3.42997,19.77024 -0.192,-3.59158 -3.1822,-10.34313 -7.28904,-16.45788 -4.83529,-7.19934 -13.16169,-13.62063 -25.02647,-19.30031 -21.1821,-10.1399 -45.99748,-14.41369 -84.76745,-14.59894 -22.1848,-0.10601 -32.87427,1.47055 -50.7208,7.48066 -36.09011,12.15393 -56.08872,32.79787 -52.25474,53.94094 4.54745,25.07771 24.83819,42.6179 56.85527,49.14815 15.95833,3.25489 30.96882,4.04796 47.30145,2.49914 z"
     id="path3007"
     style="fill:#ffffff" />
</svg>
