<?xml version="1.0" encoding="UTF-8" standalone="no"?>
<!-- Created with Inkscape (http://www.inkscape.org/) -->

<svg
   xmlns:dc="http://purl.org/dc/elements/1.1/"
   xmlns:cc="http://creativecommons.org/ns#"
   xmlns:rdf="http://www.w3.org/1999/02/22-rdf-syntax-ns#"
   xmlns:svg="http://www.w3.org/2000/svg"
   xmlns="http://www.w3.org/2000/svg"
   version="1.1"
   width="512"
   height="512"
   id="svg2">
  <metadata
     id="metadata8">
    <rdf:RDF>
      <cc:Work
         rdf:about="">
        <dc:format>image/svg+xml</dc:format>
        <dc:type
           rdf:resource="http://purl.org/dc/dcmitype/StillImage" />
        <dc:title></dc:title>
      </cc:Work>
    </rdf:RDF>
  </metadata>
  <defs
     id="defs6" />
  <path
     d="m 0,0 512,0 0,512 -512,0 z"
     id="rect3022"
     style="fill:#000000;fill-opacity:1;fill-rule:nonzero;stroke:none" />
  <path
     d="m 413.17492,372.11331 c 12.61331,-6.30296 17.87873,-20.96713 12.15412,-33.84927 -2.6097,-5.87261 -6.06464,-9.40173 -12.21093,-12.47306 -13.56171,-6.77687 -28.81438,-1.27816 -35.21097,12.69383 -6.41097,14.00339 1.38349,31.06677 16.25795,35.59138 1.25574,0.38197 4.77963,0.72973 7.83086,0.7728 4.47655,0.0632 6.63498,-0.46503 11.17897,-2.73568 z M 231.11165,266.94706 c -51.47593,-5.36348 -97.11146,-27.03246 -120.64125,-57.28369 -21.956875,-28.229 -23.331251,-59.95121 -3.85983,-89.08972 11.87656,-17.77299 33.86475,-35.022442 57.79472,-45.339216 8.86863,-3.823469 26.13868,-10.024861 27.85946,-10.003874 0.57778,0.007 -1.99321,1.671823 -5.71328,3.699505 -35.29472,19.237905 -55.57255,48.167735 -55.62013,79.351725 -0.0706,46.29693 44.29119,85.94073 110.29272,98.56271 27.09712,5.18199 62.65469,4.0008 89.74463,-2.98124 19.92931,-5.13651 40.90568,-14.5571 55.45074,-24.90323 9.50766,-6.76295 20.53412,-17.44966 25.90595,-25.10773 2.18428,-3.11392 4.12249,-5.66165 4.30711,-5.66165 0.78227,0 -2.81148,7.30187 -6.50064,13.2082 -28.83225,46.16034 -103.32368,73.43536 -179.0202,65.54821 z m 77.4039,203.45027 c 7.85841,-3.82335 13.52521,-9.68443 17.87956,-18.4926 3.30255,-6.68051 3.55582,-7.75135 3.54452,-14.98643 -0.0161,-10.31778 -1.92602,-14.92704 -12.97514,-31.31363 -4.78943,-7.10305 -9.47757,-14.9048 -10.41805,-17.33721 -4.84575,-12.53251 -6.53023,-35.00836 -4.03829,-53.88223 3.9742,-30.10025 13.77049,-50.22131 27.94928,-57.40624 2.4917,-1.26263 8.0464,-3.56797 12.34376,-5.12292 9.98431,-3.61276 17.43768,-3.40885 24.95521,0.68271 5.85607,3.18726 9.12473,7.00038 16.71196,19.49566 6.08155,10.01558 9.90417,13.66366 14.31739,13.66366 7.81119,0 10.0279,-5.6356 14.13674,-35.94015 4.70955,-34.73499 8.10596,-48.98309 15.10094,-63.34909 8.877,-18.23121 11.16786,-27.28597 11.17734,-44.17915 0.008,-12.70686 -1.29118,-20.12868 -5.4573,-31.1971 C 419.30125,92.663173 376.57189,60.566587 321.29815,46.568193 263.96957,32.049396 198.19143,38.303397 149.14491,62.93604 90.677783,92.299993 64.21589,140.67951 79.638585,190.01247 c 2.119449,6.77953 9.109346,20.34371 13.653043,26.4943 4.864827,6.58527 8.237512,13.4124 13.313002,26.9487 14.3655,38.31272 18.74487,76.51238 11.92191,103.99065 -0.8296,3.34111 -4.29402,12.43361 -7.69866,20.20555 -10.68921,24.4006 -12.273963,29.93044 -10.80628,37.70752 1.92933,10.22336 11.27689,22.56656 20.4208,26.96515 6.3131,3.03685 15.52519,3.06022 21.68591,0.055 9.53982,-4.65351 18.98942,-17.26506 20.6079,-27.50355 1.24206,-7.85723 -0.0289,-12.23352 -11.70082,-40.28881 -6.97373,-16.76246 -10.77041,-39.62737 -9.81624,-59.11661 0.85167,-17.39544 4.76046,-28.43997 11.89585,-33.61239 5.58435,-4.04808 8.25689,-4.11804 17.99807,-0.47106 4.69618,1.75819 13.45586,4.50845 19.46596,6.1117 7.07693,1.88782 12.31717,3.87114 14.87139,5.62849 10.31033,7.09373 19.29124,26.98797 19.29124,42.73346 0,8.29804 -1.66108,13.03756 -7.31164,20.86219 -7.05634,9.77129 -9.18034,14.32407 -9.22252,19.76849 -0.14975,19.33331 23.89806,28.94587 37.85512,15.13168 3.83559,-3.7963 5.96633,-9.11532 5.96633,-14.89385 0,-6.27911 -1.97346,-10.67903 -8.03344,-17.91088 -5.42544,-6.4746 -7.03282,-10.41722 -8.2242,-20.17246 -1.04612,-8.56581 -0.0866,-15.1711 3.17075,-21.82902 4.27455,-8.73688 14.25069,-13.04427 22.72002,-9.80979 13.11833,5.00992 23.32581,32.71633 23.5054,63.80122 0.11958,20.69834 -1.49784,25.59564 -14.29411,43.28012 -9.23122,12.75756 -13.31923,22.67906 -13.31923,32.32544 0,15.56338 10.07685,30.0361 24.57487,35.29525 5.88569,2.13504 7.93282,2.41002 14.57456,1.95772 4.17913,-0.28459 7.65392,-1.24635 11.81198,-3.26937 z"
     id="path2989"
     style="fill:#ffffff" />
</svg>
