<?xml version="1.0" encoding="UTF-8" standalone="no"?>
<!-- Created with Inkscape (http://www.inkscape.org/) -->

<svg
   xmlns:dc="http://purl.org/dc/elements/1.1/"
   xmlns:cc="http://creativecommons.org/ns#"
   xmlns:rdf="http://www.w3.org/1999/02/22-rdf-syntax-ns#"
   xmlns:svg="http://www.w3.org/2000/svg"
   xmlns="http://www.w3.org/2000/svg"
   version="1.1"
   width="512"
   height="512"
   id="svg2">
  <metadata
     id="metadata8">
    <rdf:RDF>
      <cc:Work
         rdf:about="">
        <dc:format>image/svg+xml</dc:format>
        <dc:type
           rdf:resource="http://purl.org/dc/dcmitype/StillImage" />
        <dc:title></dc:title>
      </cc:Work>
    </rdf:RDF>
  </metadata>
  <defs
     id="defs6" />
  <rect
     width="512"
     height="512"
     x="0"
     y="0"
     id="rect3130"
     style="fill:#000000;fill-opacity:1;stroke:none" />
  <path
     d="m 250.05087,129.5564 c 30.52998,-14.2867 37.07951,-51.907354 11.078,-63.632403 l -5.32826,-2.402705 -12.38031,6.13424 c -30.05992,14.894205 -44.83493,24.874342 -45.73773,30.894668 -3.8973,25.98907 24.82229,41.89653 52.3683,29.0062 z m 186.67837,46.38619 c 10.76581,-7.02341 12.83798,-21.06838 7.43557,-50.39773 -3.12307,-16.95496 -21.71301,-22.18265 -33.87783,-9.52682 -24.78039,25.78059 -1.63226,78.23983 26.44226,59.92455 z m -135.05692,95.22056 c 28.03827,-10.49046 36.1054,-47.64385 15.19813,-69.99541 -23.56481,-25.1927 -65.7073,-13.69199 -73.66084,20.10208 -7.88521,33.50374 25.68808,62.1559 58.46271,49.89333 z M 277.12,292.28989 c -52.35592,-10.9037 -71.75551,-69.18455 -35.05435,-105.31136 39.21952,-38.60577 104.97607,-11.00586 104.97607,44.06147 0,37.10831 -35.6965,68.37766 -69.92172,61.24989 z M 344.9271,351.68 c 5.03305,-39.91589 44.56491,-67.89948 82.14809,-58.15053 l 6.51307,1.68947 3.35198,-19.28947 c 5.73038,-32.97648 9.77976,-65.35159 9.77976,-78.19003 l 0,-5.50712 -5.41171,2.61466 c -17.17936,8.30016 -38.4821,1.44309 -49.76901,-16.01997 C 367.8732,142.21101 387.88239,90.88 425.82162,90.88 l 9.41274,0 -1.99139,-4.8 C 414.7547,41.516233 372.41655,26.24791 311.68,42.240983 c -12.28599,3.23513 -29.78669,9.115575 -32.95348,11.072765 -0.58261,0.360066 1.24756,2.961506 4.06703,5.780976 24.24833,24.248334 12.28079,69.503486 -22.81996,86.293496 -35.44846,16.95633 -71.96898,3.01979 -80.0109,-30.53285 l -1.46317,-6.10462 -12.76975,8.61934 c -48.55527,32.77385 -52.42503,70.63893 -12.63721,123.65314 38.54858,51.36305 139.78988,113.82768 190.14732,117.31854 0.46194,0.032 1.22119,-2.96577 1.68722,-6.66177 z m 43.5529,6.4843 c 20.94463,-4.40097 34.14843,-17.1951 39.78083,-38.54653 1.8755,-7.10969 1.38836,-7.53503 -10.34083,-9.02917 -26.94876,-3.43293 -50.83965,15.8328 -54.83018,44.21533 -0.88048,6.26227 6.76452,7.27407 25.39018,3.36037 z M 140.12328,470.38536 c 29.2339,-6.19253 61.91685,-34.43903 89.90039,-77.69718 3.15658,-4.87957 5.54058,-9.0478 5.29778,-9.26272 -0.24279,-0.21494 -2.74545,-1.5685 -5.56145,-3.00792 -10.60266,-5.41965 -10.55233,-5.29178 -5.30964,-13.48742 2.5508,-3.98757 4.85187,-7.25012 5.11348,-7.25012 0.26159,0 4.88045,2.03515 10.26412,4.52256 9.48386,4.38181 26.81148,9.4977 32.30471,9.53779 1.97031,0.0143 3.73489,-1.92265 6.57756,-7.22034 l 3.88491,-7.24 -21.29758,-10.57939 C 229.99023,333.14895 202.75928,315.10459 176.64,292.60298 l -9.6,-8.27033 -4.70487,4.56056 c -4.15483,4.02738 -4.5566,4.95055 -3.43657,7.89645 2.1334,5.61125 14.66829,23.55225 20.19871,28.91012 6.47643,6.27435 6.46941,6.62368 -0.26572,13.23371 -6.75585,6.63038 -7.45935,6.64527 -12.58546,0.26651 -5.34256,-6.64812 -4.33656,-6.97718 -20.80071,6.80374 -7.83496,6.55805 -24.32538,19.40135 -36.64538,28.54067 -12.32,9.13931 -24.527398,19.10322 -27.127553,22.14203 -31.186985,36.4482 7.000373,84.59752 58.450833,73.69892 z"
     id="path3001"
     style="fill:#ffffff" />
</svg>
