<?xml version="1.0" encoding="UTF-8" standalone="no"?>
<!-- Created with Inkscape (http://www.inkscape.org/) -->

<svg
   xmlns:dc="http://purl.org/dc/elements/1.1/"
   xmlns:cc="http://creativecommons.org/ns#"
   xmlns:rdf="http://www.w3.org/1999/02/22-rdf-syntax-ns#"
   xmlns:svg="http://www.w3.org/2000/svg"
   xmlns="http://www.w3.org/2000/svg"
   xmlns:sodipodi="http://sodipodi.sourceforge.net/DTD/sodipodi-0.dtd"
   xmlns:inkscape="http://www.inkscape.org/namespaces/inkscape"
   id="svg2"
   version="1.1"
   inkscape:version="0.48.3.1 r9886"
   width="400"
   height="400"
   sodipodi:docname="Icon.2_95.png">
  <metadata
     id="metadata8">
    <rdf:RDF>
      <cc:Work
         rdf:about="">
        <dc:format>image/svg+xml</dc:format>
        <dc:type
           rdf:resource="http://purl.org/dc/dcmitype/StillImage" />
        <dc:title></dc:title>
      </cc:Work>
    </rdf:RDF>
  </metadata>
  <defs
     id="defs6" />
  <sodipodi:namedview
     pagecolor="#ffffff"
     bordercolor="#666666"
     borderopacity="1"
     objecttolerance="10"
     gridtolerance="10"
     guidetolerance="10"
     inkscape:pageopacity="0"
     inkscape:pageshadow="2"
     inkscape:window-width="1855"
     inkscape:window-height="1056"
     id="namedview4"
     showgrid="false"
     inkscape:zoom="0.59"
     inkscape:cx="200"
     inkscape:cy="200"
     inkscape:window-x="65"
     inkscape:window-y="24"
     inkscape:window-maximized="1"
     inkscape:current-layer="svg2" />
  <path
     style="fill:#000000;fill-opacity:1;stroke:none"
     d="m 0,0 400,0 0,400 -400,0 z"
     id="rect3024" />
  <path
     id="path2989"
     style="fill:#ffffff"
     d="M 119,99.64488 C 104.51383,96.320177 92,85.152343 92,75.549015 92,68.328558 96.741693,65 107.02759,65 121.50516,65 138.59724,76.737636 140.49742,87.984723 142.09914,97.465256 132.40746,102.72201 119,99.64488 z m 162.5,198.54053 c -13.46977,-3.97313 -28.78982,-14.52837 -38.93056,-26.82246 -10.611,-12.86421 -16.33915,-29.24222 -13.70637,-39.18944 3.0636,-11.57493 10.11563,-16.4723 23.63693,-16.41492 15.33822,0.0651 31.15447,7.76212 45.56582,22.1748 14.1907,14.192 20.49429,27.39016 19.70759,41.26281 -0.54698,9.64554 -3.34406,14.43785 -10.45743,17.91701 -6.34377,3.10274 -17.37829,3.56104 -25.81598,1.0722 z m -94,25.73625 c -10.20174,-1.41883 -17.64202,-3.18145 -16.80227,-3.98051 1.06826,-1.01649 19.89612,-3.94115 25.3716,-3.94115 6.05451,0 3.77793,-1.44278 -4.56933,-2.8958 -10.3482,-1.80133 -27.09597,-7.65862 -34.5,-12.06588 -11.92491,-7.09831 -17.73179,-13.33141 -24.20138,-25.97771 -2.6107,-5.1032 -2.80129,-5.2727 -2.31704,-2.06061 0.97924,6.49548 1.79564,25.83519 1.16046,27.49044 -0.54067,1.40898 -1.27156,1.18175 -5.14415,-1.59934 -7.02156,-5.0425 -19.47574,-17.91697 -25.68605,-26.55287 C 89.444186,256.53066 81.851066,238.49733 78.563755,219.5 c -2.392699,-13.82738 -2.331638,-13.91834 4.456786,-6.63927 9.464444,10.14851 17.892109,24.0852 25.034009,41.39834 l 3.6201,8.7757 -0.46167,-12.78524 c -0.39633,-10.97566 -0.15299,-13.91499 1.71926,-20.76738 5.31635,-19.45764 18.36692,-34.37098 45.33854,-51.80991 5.92393,-3.83021 10.6176,-7.11719 10.43039,-7.30441 -0.18722,-0.18721 -3.45907,0.51216 -7.27078,1.55416 -18.92809,5.17435 -40.08072,8.06788 -64.293484,8.79489 l -19.363094,0.58139 0.680067,-4.39913 C 80.9131,160.99124 90.293231,138.64941 100.45345,124.5 c 9.51156,-13.24607 9.62899,-13.33469 16.33311,-12.32685 21.59206,3.24595 48.75846,18.56703 72.80114,41.05777 3.55633,3.32677 6.64218,5.87253 6.85746,5.65725 0.21528,-0.21528 -2.43383,-3.83743 -5.88692,-8.04923 -13.60622,-16.5958 -25.0778,-35.01731 -30.10199,-48.33894 -2.94959,-7.82084 -5.70097,-20.649398 -4.64404,-21.653235 1.31588,-1.249766 16.99628,-5.746393 25.77452,-7.391287 11.6199,-2.177374 32.20664,-2.177374 43.82654,0 24.93199,4.671836 46.79664,15.704782 65.2799,32.940382 l 5.80683,5.41485 -0.14032,23.27263 -0.14032,23.27262 4.24446,-10.42798 c 6.39664,-15.71557 7.94774,-18.93413 8.96693,-18.6066 1.63834,0.52652 10.45924,18.04067 13.47447,26.75398 4.39591,12.7031 6.13277,22.06424 6.78124,36.54877 l 0.58756,13.12412 -4.88701,1.54876 c -17.96797,5.69431 -32.60053,3.59592 -41.54523,-5.9578 -4.26942,-4.56011 -9.52328,-15.13986 -12.33505,-24.83921 -2.88053,-9.93656 -7.47057,-35.6338 -10.09202,-56.5 -0.93281,-7.425 -1.99776,-14.07973 -2.36655,-14.7883 -0.36879,-0.70856 -1.93334,5.14144 -3.47678,13 -1.54343,7.85857 -4.53409,20.3633 -6.6459,27.7883 -18.00223,63.29481 -47.2181,89.1576 -103.59548,91.70591 -7.3446,0.33199 -13.18803,0.76939 -12.98541,0.97201 0.20262,0.20262 11.79548,3.9035 25.7619,8.22419 40.45093,12.51397 49.79373,16.81068 60.92676,28.01992 9.4455,9.51015 15.56685,23.55154 17.50258,40.14808 l 0.64967,5.57012 -5.34275,1.15586 c -14.03435,3.03621 -31.70462,3.88323 -44.34275,2.12557 z m 55.30074,36.9697 c 11.37487,-22.34172 25.68055,-35.20316 43.94924,-39.5123 8.48993,-2.00257 21.70442,-1.33776 32.25002,1.62246 9.92137,2.78499 27.93879,11.49239 38.77507,18.73909 4.79871,3.20911 9.39993,6.24288 10.22493,6.74171 1.49596,0.90451 0.78844,-0.0419 -8.31427,-11.12218 -12.78319,-15.56028 -21.626,-35.53368 -23.76626,-53.68123 -2.94373,-24.96029 6.78955,-57.17318 26.6616,-88.23819 1.91421,-2.9924 3.23338,-5.44072 2.93149,-5.44072 -0.30189,0 -5.01451,2.24095 -10.47247,4.97988 l -9.92358,4.97989 -0.51236,-4.22989 c -0.2818,-2.32643 -0.72656,-7.37988 -0.98835,-11.22988 -1.40172,-20.61418 -9.88611,-44.83158 -22.31697,-63.70044 l -4.46993,-6.78493 5.25795,-7.25732 C 332.80048,91.969772 344.61882,80.376638 359,70.547556 c 6.12575,-4.186758 6.29001,-4.168028 -8,-0.912233 -10.36506,2.361544 -32.14321,2.364627 -41,0.0058 C 297.52414,66.318439 286.05581,61.089021 275.31982,53.827395 273.02073,52.272328 270.84843,51 270.4925,51 c -0.35593,0 1.34011,2.3625 3.76898,5.25 7.99853,9.508858 14.02246,19.906561 16.73817,28.891219 0.74134,2.452637 0.18081,2.224795 -7.85065,-3.191096 -34.67636,-23.383452 -75.88428,-30.466687 -116.00293,-19.939757 -5.85534,1.536412 -10.8308,2.615383 -11.05658,2.397713 -0.89456,-0.86243 2.29291,-12.340768 5.50602,-19.827591 1.86934,-4.355731 3.20837,-8.109943 2.97562,-8.342693 -0.23275,-0.23275 -4.16897,1.599068 -8.74716,4.070705 C 129.49085,54.525035 99.462342,57.001811 70.247822,47.36689 61.541565,44.495575 44.130549,36.482489 36.807832,31.976776 34.147,30.339549 31.718717,29 31.411648,29 c -0.307068,0 5.472007,5.9625 12.842389,13.25 29.427125,29.096207 39.464015,50.376262 32.758622,69.45431 -1.093038,3.10989 -1.857083,5.7846 -1.697877,5.9438 0.159205,0.15921 2.966009,-0.81081 6.237341,-2.15558 9.445439,-3.88284 9.918132,-3.4586 4.743725,4.25747 -10.915444,16.27709 -19.717969,38.41238 -21.871815,55 l -0.681694,5.25 -4.62117,-0.0349 C 56.579526,179.94592 50.9,179.27978 46.5,178.48479 c -12.126922,-2.19109 -12.711743,-1.82223 -4.431339,2.79492 4.162764,2.32116 10.278298,5.98487 13.590075,8.14158 l 6.021414,3.92128 1.159053,14.07872 c 2.737199,33.24804 13.458578,59.24654 34.466554,83.57871 7.858043,9.10145 24.613973,23.7007 29.068813,25.32731 1.45628,0.53174 -4.13651,11.65211 -9.42532,18.7407 -2.17209,2.91126 -3.94925,5.40628 -3.94925,5.54449 0,0.13821 4.6125,-2.1349 10.25,-5.05136 5.6375,-2.91646 12.76691,-6.09574 15.84314,-7.06507 l 5.59314,-1.76242 7.90686,3.04861 c 9.18678,3.5421 20.89296,6.60538 31.09841,8.13785 14.08233,2.11462 42.2457,0.77368 52.56956,-2.50298 1.97983,-0.62838 2.00602,-0.33095 1.53876,17.47621 -0.26144,9.96351 -0.32633,17.96645 -0.14419,17.78431 0.18215,-0.18214 2.49742,-4.58597 5.14506,-9.78629 z" />
</svg>
