<?xml version="1.0" encoding="UTF-8" standalone="no"?>
<!-- Created with Inkscape (http://www.inkscape.org/) -->

<svg
   xmlns:dc="http://purl.org/dc/elements/1.1/"
   xmlns:cc="http://creativecommons.org/ns#"
   xmlns:rdf="http://www.w3.org/1999/02/22-rdf-syntax-ns#"
   xmlns:svg="http://www.w3.org/2000/svg"
   xmlns="http://www.w3.org/2000/svg"
   version="1.1"
   width="512"
   height="512"
   id="svg2">
  <metadata
     id="metadata8">
    <rdf:RDF>
      <cc:Work
         rdf:about="">
        <dc:format>image/svg+xml</dc:format>
        <dc:type
           rdf:resource="http://purl.org/dc/dcmitype/StillImage" />
        <dc:title></dc:title>
      </cc:Work>
    </rdf:RDF>
  </metadata>
  <defs
     id="defs6" />
  <rect
     width="512"
     height="512"
     x="0"
     y="0"
     id="rect3016"
     style="fill:#000000;fill-opacity:1;stroke:none" />
  <path
     d="m 347.28602,361.51267 c 1.4801,-0.56797 1.75081,-2.32169 1.23554,-8.00416 -0.74226,-8.18577 1.06076,-13.82153 6.47648,-20.24379 7.04362,-8.35271 21.02194,-11.7237 31.11939,-7.50472 5.89596,2.46349 5.39646,2.63018 7.54789,-2.51889 2.39974,-5.74339 2.36818,-13.45836 -0.0693,-16.93835 -7.26776,-10.37618 -33.85463,-4.4891 -51.16179,11.32866 -8.95391,8.18336 -13.89319,15.25504 -16.74514,23.97438 -2.95954,9.04827 -1.09,16.13222 4.95087,18.75951 4.1828,1.81918 13.26412,2.44512 16.64604,1.14736 z M 45.783296,361.92 c 13.039489,-9.01341 31.017724,-27.17188 41.556863,-41.97349 9.859033,-13.84644 23.269731,-40.02252 29.154711,-56.90651 5.87214,-16.84717 12.8254,-46.80474 13.6825,-58.94999 0.71529,-10.13567 0.61088,-10.69813 -2.57776,-13.88677 -4.28001,-4.28 -8.80931,-4.21499 -13.70673,0.19676 -3.41648,3.07767 -4.22807,5.20891 -6.45841,16.96 -6.45108,33.98911 -13.858841,56.95103 -25.517533,79.09696 C 72.59308,304.16782 62.478749,317.47907 47.68,331.51546 l -13.12,12.44412 0,12.34021 c 0,6.78711 0.337866,12.34021 0.750813,12.34021 0.412948,0 5.125566,-3.024 10.472483,-6.72 z m 432.663054,46.99059 -0.36635,-12.20941 -13.31686,-4.4649 c -27.43243,-9.19762 -54.14486,-25.03126 -75.95202,-45.02015 -6.2231,-5.70422 -8.10848,-6.73613 -12.30738,-6.73613 -7.01488,0 -11.70374,3.95094 -11.70374,9.86182 0,6.53273 3.43923,11.24676 16.23049,22.24651 24.93076,21.43902 51.82194,36.15169 82.85789,45.33308 15.87993,4.69778 14.98591,5.25113 14.55797,-9.01082 z M 407.46382,131.95022 c -8.50217,-3.90693 -23.7334,-14.68153 -29.00904,-20.52103 -5.98451,-6.62414 -6.20453,-11.982013 -0.51888,-12.635745 7.74854,-0.890921 36.68315,17.110915 41.26363,25.672405 4.55491,8.51373 -1.3293,12.26635 -11.73571,7.48437 z m -43.07241,35.5462 -6.16857,-5.28705 4.3607,-4.62468 c 2.3984,-2.54358 7.13122,-8.22469 10.51741,-12.62469 3.38618,-4.4 6.38244,-8 6.65837,-8 0.27592,0 3.35137,1.9191 6.83433,4.26467 l 6.33266,4.26466 -10.93981,13.65534 c -6.0169,7.51043 -11.04932,13.6516 -11.18316,13.64706 -0.13384,-0.005 -3.0192,-2.38743 -6.41193,-5.29531 z m -9.83141,37.1254 c -2.464,-1.50074 -9.15004,-6.96696 -14.85786,-12.14716 -16.06314,-14.5783 -20.3621,-25.74255 -9.72634,-25.25903 4.79824,0.21814 12.08384,5.21595 24.87745,17.06555 9.92861,9.19602 13.94638,16.20096 12.08074,21.06273 -1.0977,2.86057 -7.06335,2.51244 -12.37399,-0.72209 z m -56.63612,26.55758 -4.69823,-5.62058 9.20845,-8.13942 c 5.06464,-4.47667 11.34665,-10.05112 13.96001,-12.38767 l 4.75157,-4.24827 5.96094,5.49461 5.96094,5.4946 -4.44696,3.87367 C 309.51343,232.2902 304.14422,236.8 303.43572,236.8 c -0.44748,0 -2.92782,-2.52927 -5.51184,-5.6206 z M 157.44,236.01412 c 0,-0.43224 1.49147,-9.50424 3.31438,-20.16 5.06538,-29.60961 3.06044,-41.7993 -8.83099,-53.69073 -7.90487,-7.90487 -17.43647,-11.66486 -29.70649,-11.71851 -9.06837,-0.0397 -11.25994,0.44564 -18.82627,4.16888 -15.396112,7.5761 -20.307054,16.06684 -26.005556,44.96212 -4.697174,23.81789 -4.709133,23.84145 -8.155194,16.06956 -4.275223,-9.64191 -5.648919,-18.01188 -4.788138,-29.17427 2.030455,-26.33041 23.358446,-48.32112 50.500188,-52.06938 39.61755,-5.47115 73.60655,32.48339 63.57595,70.99346 -1.07917,4.14321 -3.40162,10.17792 -5.161,13.4105 -5.1908,9.53719 -15.91688,21.13359 -15.91688,17.20837 z m 128.72276,32.28371 c -6.84128,-4.14102 -22.01751,-21.65518 -25.89836,-29.88805 -3.77922,-8.01724 -3.15671,-11.84978 1.92472,-11.84978 5.16549,0 11.51725,4.96191 21.56545,16.84666 12.59184,14.89327 15.84008,22.24669 11.66943,26.41734 -2.1647,2.1647 -3.53737,1.9385 -9.26124,-1.52617 z m -67.68308,19.16992 c -3.88127,-5.84562 -4.27539,-7.04435 -2.53559,-7.71197 1.13299,-0.43477 9.25539,-5.50366 18.04974,-11.2642 l 15.98976,-10.47369 4.92451,5.71106 c 2.70848,3.14108 4.78217,6.09172 4.6082,6.557 -0.29658,0.79319 -21.59521,15.03799 -31.81866,21.28072 l -4.62235,2.82254 -4.59561,-6.92146 z m -19.63885,31.63747 c -4.26725,-4.01598 -15.26743,-19.94429 -19.45729,-28.17422 -3.06683,-6.02404 -3.67382,-15.10013 -1.07651,-16.09681 3.0447,-1.16836 9.37832,2.55508 13.97646,8.21656 7.98902,9.83649 17.53318,25.49678 18.42001,30.22398 1.66953,8.89941 -5.07789,12.21577 -11.86267,5.83049 z m 66.4641,118.53626 c 8.97522,-15.27996 22.98457,-33.3634 40.17342,-51.85632 l 13.21243,-14.21483 -2.68159,-2.42517 c -14.58048,-13.18618 -7.55304,-43.10172 14.74266,-62.75889 24.74918,-21.82033 54.98662,-27.71855 71.38077,-13.92378 2.10309,1.76964 4.23107,3.21751 4.72883,3.21751 0.49778,0 7.96725,-7.07784 16.59881,-15.72852 41.10313,-41.19414 55.57954,-73.37842 53.60566,-119.17735 -1.08714,-25.22429 -7.26746,-44.49962 -20.79004,-64.840498 C 451.03218,88.045976 432.55329,69.12 430.09567,69.12 c -0.55275,0 -1.37786,2.448 -1.83358,5.44 -0.80555,5.288861 -6.31831,22.322881 -7.65793,23.662511 -0.36676,0.36675 -3.59968,-1.215193 -7.18429,-3.51543 -4.75652,-3.052252 -6.29524,-4.739489 -5.69495,-6.244664 2.36441,-5.928677 5.83,-22.375636 5.47846,-25.999656 -0.3587,-3.69766 -1.11242,-4.422921 -6.80338,-6.546386 -14.15555,-5.281857 -25.37751,-7.372035 -39.68,-7.390706 -43.80753,-0.05719 -76.75035,20.900181 -102.47049,65.189081 l -7.50548,12.92409 -7.55593,-11.79942 C 232.92771,89.447053 217.10482,74.327069 195.28792,63.333679 178.50211,54.875416 164.08598,51.177774 144.64,50.34282 122.95691,49.411812 108.64773,52.330017 89.831571,61.520415 77.915965,67.340369 74.84569,69.57249 64.641178,79.834089 54.981612,89.547694 51.998516,93.57232 46.966339,103.68 c -9.512103,19.1061 -11.540192,28.57718 -11.648944,54.4 -0.08334,19.7903 0.215451,22.86072 3.300897,33.92 4.105187,14.71437 10.375368,28.78108 18.266402,40.97937 6.433687,9.94546 18.608033,25.58063 19.918392,25.58063 1.652311,0 9.216803,-26.746 13.032671,-46.08 4.504413,-22.82268 7.018838,-29.06075 14.186833,-35.19629 15.39924,-13.18118 39.57916,-3.53689 42.6612,17.01564 2.3228,15.4895 -8.92378,60.93759 -23.44324,94.73558 l -4.70385,10.94948 8.25165,7.4768 c 9.31162,8.43725 8.67744,8.36941 24.89165,2.66301 14.48846,-5.09902 13.79283,-5.16384 18.2585,1.70123 2.18932,3.36565 3.73154,6.52234 3.42713,7.01487 -0.30439,0.49253 -5.0202,2.48814 -10.47954,4.4347 -5.45935,1.94655 -10.38807,3.93676 -10.95271,4.4227 -0.56465,0.48593 5.54636,6.7155 13.58002,13.84348 39.69875,35.22327 71.93856,73.61089 87.3281,103.98068 1.84763,3.64612 3.785,6.12728 4.30526,5.51372 0.52029,-0.61358 4.19145,-6.64092 8.15817,-13.39412 z"
     id="path2987"
     style="fill:#ffffff" />
</svg>
