<?xml version="1.0" encoding="UTF-8" standalone="no"?>
<!-- Created with Inkscape (http://www.inkscape.org/) -->

<svg
   xmlns:dc="http://purl.org/dc/elements/1.1/"
   xmlns:cc="http://creativecommons.org/ns#"
   xmlns:rdf="http://www.w3.org/1999/02/22-rdf-syntax-ns#"
   xmlns:svg="http://www.w3.org/2000/svg"
   xmlns="http://www.w3.org/2000/svg"
   version="1.1"
   width="512"
   height="512"
   id="svg2">
  <metadata
     id="metadata8">
    <rdf:RDF>
      <cc:Work
         rdf:about="">
        <dc:format>image/svg+xml</dc:format>
        <dc:type
           rdf:resource="http://purl.org/dc/dcmitype/StillImage" />
        <dc:title></dc:title>
      </cc:Work>
    </rdf:RDF>
  </metadata>
  <defs
     id="defs6" />
  <rect
     width="512"
     height="512"
     x="0"
     y="0"
     id="rect2994"
     style="fill:#000000;fill-opacity:1;stroke:none" />
  <path
     d="M 477.80512,475.84 C 469.46885,464.98141 426.62267,412.06826 417.6,401.48933 c -6.512,-7.63522 -11.84,-14.48544 -11.84,-15.22272 0,-0.73727 4.66405,-11.48486 10.36454,-23.88356 5.70051,-12.39868 10.68692,-23.40705 11.08093,-24.46305 0.39399,-1.056 -2.97405,1.88759 -7.48456,6.5413 -14.04805,14.49409 -28.30007,19.0639 -38.41162,12.31639 -2.61209,-1.74307 -13.10485,-15.14221 -26.26993,-33.54639 l -21.92064,-30.64409 14.01732,-20.97026 c 7.70953,-11.53363 13.73311,-21.25448 13.38571,-21.60186 -0.34738,-0.34738 -8.92181,4.02511 -19.05429,9.71666 -16.20553,9.10284 -19.19188,10.34825 -24.81376,10.34825 -9.05329,0 -18.54231,-5.11017 -28.6537,-15.43101 -14.92581,-15.235 -23.14647,-32.3156 -24.05075,-49.97177 -0.69147,-13.50076 0.18845,-15.74261 15.73959,-40.10158 6.14502,-9.62539 10.83568,-17.83778 10.42371,-18.24975 -0.41197,-0.41198 -18.88845,7.10416 -41.05885,16.70254 -22.1704,9.59836 -40.76519,17.42994 -41.32176,17.40351 -0.55657,-0.0264 -3.10644,-1.89844 -5.66638,-4.16 -21.2805,-18.80016 -46.63787,-41.13394 -47.05012,-41.43991 -0.27751,-0.20597 5.09034,-6.20358 11.92856,-13.32803 6.83822,-7.12445 12.21763,-13.16905 11.95423,-13.43244 -0.26339,-0.26339 -9.94583,2.07007 -21.51653,5.18546 l -21.03765,5.66434 -5.77202,-4.85829 C 104.14612,91.820472 38.838248,41.375086 37.805436,42.407896 c -0.30822,0.30822 10.363306,14.652534 23.714503,31.876252 31.282206,40.355632 31.42566,40.551132 34.610736,47.168032 5.088745,10.57173 0.390331,21.84363 -12.664522,30.38326 -13.476339,8.81536 -12.81433,8.30252 -9.866153,7.64302 7.851848,-1.75643 49.45585,-8.67247 49.76552,-8.27278 0.20211,0.26088 5.28961,6.37567 11.30556,13.58842 16.2719,19.50905 24.08402,37.29057 24.02081,54.67483 -0.0389,10.6901 -2.7879,15.97546 -17.33981,33.33805 -6.8242,8.14227 -12.16613,15.04563 -11.87098,15.3408 0.29517,0.29515 17.21866,-4.33109 37.60778,-10.28054 20.38911,-5.94947 38.17966,-10.81946 39.53456,-10.82222 1.48874,-0.003 10.75678,8.3522 23.42405,21.11702 18.31809,18.45916 21.53204,22.32526 25.49305,30.66604 5.59264,11.7765 6.93269,22.39102 3.84342,30.44372 -1.14955,2.9965 -6.6807,12.33272 -12.29143,20.74713 -5.61073,8.41443 -9.99338,15.50688 -9.73922,15.76104 0.25414,0.25415 12.89146,-6.5343 28.08291,-15.08545 l 27.62083,-15.54756 25.31147,19.49926 c 30.15217,23.22839 31.78861,24.67619 35.3487,31.27378 2.28124,4.22761 2.74256,7.12788 2.64674,16.64 -0.11405,11.31555 -1.93,19.06156 -7.4272,31.68 -1.15011,2.64 -1.65138,4.75213 -1.11394,4.69363 0.53745,-0.0585 3.89374,-3.65851 7.45841,-8 8.95131,-10.90199 15.84151,-15.3121 24.95274,-15.97115 10.07409,-0.72869 14.91692,1.7375 37.46703,19.07994 23.57759,18.13263 58.60484,43.39758 60.16629,43.39758 0.6684,0 0.64187,-0.68294 -0.0622,-1.6 z"
     id="path2987"
     style="fill:#ffffff" />
</svg>
