<?xml version="1.0" encoding="UTF-8" standalone="no"?>
<!-- Created with Inkscape (http://www.inkscape.org/) -->

<svg
   xmlns:dc="http://purl.org/dc/elements/1.1/"
   xmlns:cc="http://creativecommons.org/ns#"
   xmlns:rdf="http://www.w3.org/1999/02/22-rdf-syntax-ns#"
   xmlns:svg="http://www.w3.org/2000/svg"
   xmlns="http://www.w3.org/2000/svg"
   xmlns:sodipodi="http://sodipodi.sourceforge.net/DTD/sodipodi-0.dtd"
   xmlns:inkscape="http://www.inkscape.org/namespaces/inkscape"
   id="svg2"
   version="1.1"
   inkscape:version="0.48.3.1 r9886"
   width="400"
   height="400"
   sodipodi:docname="Icon.5_18.png">
  <metadata
     id="metadata8">
    <rdf:RDF>
      <cc:Work
         rdf:about="">
        <dc:format>image/svg+xml</dc:format>
        <dc:type
           rdf:resource="http://purl.org/dc/dcmitype/StillImage" />
        <dc:title></dc:title>
      </cc:Work>
    </rdf:RDF>
  </metadata>
  <defs
     id="defs6" />
  <sodipodi:namedview
     pagecolor="#ffffff"
     bordercolor="#666666"
     borderopacity="1"
     objecttolerance="10"
     gridtolerance="10"
     guidetolerance="10"
     inkscape:pageopacity="0"
     inkscape:pageshadow="2"
     inkscape:window-width="1280"
     inkscape:window-height="970"
     id="namedview4"
     showgrid="false"
     inkscape:zoom="0.59"
     inkscape:cx="203.38983"
     inkscape:cy="200"
     inkscape:window-x="0"
     inkscape:window-y="26"
     inkscape:window-maximized="1"
     inkscape:current-layer="svg2" />
  <rect
     style="fill:#000000;fill-opacity:1;stroke:none"
     id="rect2994"
     width="400"
     height="400"
     x="0"
     y="0" />
  <path
     id="path2987"
     style="fill:#ffffff"
     d="M 159.87287,369.25 C 154.20279,338.25437 136.73218,314.88321 90.456262,276.38854 78.89416,266.77059 74,262.08402 74,260.63029 c 0,-1.13801 4.301083,-15.35787 9.557962,-31.5997 5.256879,-16.24182 10.016777,-30.99309 10.577552,-32.78059 1.723147,-5.49263 3.860587,-4.11905 3.890286,2.5 0.139266,31.03839 10.64679,62.52299 24.78702,74.27147 5.22347,4.33995 14.8228,8.76869 20.68718,9.54423 l 5,0.66123 -6,-3.98809 C 135.00727,274.25855 128,267.47414 128,265.2 c 0,-0.94916 0.99795,-2.16995 2.21766,-2.71287 6.1298,-2.72851 12.98255,-17.4058 16.62585,-35.60942 3.13435,-15.66072 4.30468,-31.82035 3.99901,-55.21771 -0.23948,-18.33091 -0.0777,-20.94888 1.34372,-21.74435 0.8888,-0.49739 14.95234,-5.67357 31.25232,-11.50262 29.95976,-10.71394 37.13567,-12.31406 29.56144,-6.59175 -7.31492,5.52639 -20.18428,18.80664 -25.06119,25.86133 -18.40639,26.62579 -20.05504,58.1818 -4.04185,77.36303 l 2.64745,3.17122 15.85885,-36.85843 c 8.72236,-20.27214 15.94843,-36.96949 16.05793,-37.10524 0.33969,-0.4211 60.9644,-16.22834 62.28881,-16.24112 2.95401,-0.0285 0.73568,2.80242 -5.47573,6.98793 -9.48428,6.3909 -22.59619,17.48961 -30.84643,26.1103 -17.09853,17.86624 -24.50046,35.33323 -22.21181,52.41512 0.9391,7.00925 5.27143,17.90938 6.75401,16.9931 0.44795,-0.27685 9.63555,-12.85374 20.41689,-27.94864 10.78135,-15.09491 20.01787,-27.70203 20.52561,-28.01583 0.50773,-0.31379 18.06012,1.99453 39.00531,5.12962 43.27064,6.47678 45.43874,7.3425 27.08215,10.81386 -9.15487,1.73125 -27.11763,8.1362 -37.7639,13.4654 -37.7834,18.91323 -59.95654,48.88297 -72.78735,98.38111 l -3.32941,12.84404 2.49462,8.65596 c 1.37204,4.76078 4.07693,12.25596 6.01088,16.65596 1.93394,4.4 3.97854,9.2375 4.54354,10.75 0.871,2.33167 1.60044,2.75 4.79516,2.75 l 3.7679,0 -1.99866,-6.75 c -1.44223,-4.87078 -2.03125,-9.95163 -2.11572,-18.25 -0.18918,-18.58569 4.47358,-29.68961 18.49343,-44.04029 9.09868,-9.31339 17.28793,-15.08931 43.38951,-30.60284 29.48439,-17.5241 38.87535,-23.9569 47.79199,-32.73749 8.28951,-8.16303 12.30258,-15.09761 16.2287,-28.04326 5.41899,-17.86809 6.65929,-31.34468 4.02759,-43.76202 -3.03272,-14.30944 -8.81949,-24.60059 -21.48303,-38.20527 -9.55043,-10.26021 -18.9623,-19.00196 -16.72664,-15.53572 0.91278,1.4152 2.88989,5.9152 4.39359,10 2.40849,6.54266 2.736,8.85558 2.7509,19.42689 0.0157,11.13695 -0.1845,12.41014 -2.78346,17.70261 C 330.7133,173.35671 321.18273,180 311.60186,180 c -15.96307,0 -24.1773,-19.95787 -20.16734,-49 4.74183,-34.342728 4.95876,-37.045141 3.68952,-45.962153 C 292.28368,65.08308 281.18475,51.639056 257.90334,39.952782 250.35398,36.163321 229.51821,28 227.3955,28 c -0.22602,0 1.39013,2.638562 3.59143,5.863471 15.50029,22.707919 15.90765,50.361987 0.98043,66.556109 -7.81635,8.47974 -21.27289,13.20561 -34.96736,12.28037 -15.02115,-1.01487 -25.28065,-7.42189 -31.21325,-19.49255 -3.11688,-6.3417 -3.28585,-7.256351 -3.26925,-17.69736 0.01,-6.194095 0.55859,-12.502565 1.25451,-14.422198 0.68036,-1.876686 1.01713,-3.632039 0.74838,-3.900784 -0.88582,-0.885822 -15.24631,10.779202 -21.72606,17.648087 -11.61483,12.312332 -19.13173,25.476545 -24.48536,42.880775 -2.55384,8.30231 -2.70185,9.88099 -2.69876,28.78408 0.003,19.30842 0.1136,20.41495 3.19384,32 3.50007,13.16408 3.69747,14.5 2.14257,14.5 -1.98956,0 -15.45693,-11.33918 -26.027433,-21.91443 -8.925308,-8.92932 -11.256327,-11.9498 -14.898209,-19.30476 -3.575708,-7.22131 -4.396439,-9.96996 -4.77751,-16 -0.531135,-8.40463 1.423278,-16.53706 5.372978,-22.35726 l 2.510112,-3.69886 -3.157351,0.63147 C 69.19517,112.51097 54.737169,123.65288 49.93723,133.5 47.905163,137.6688 47.5,139.99615 47.5,147.5 c 0,11.05644 1.673176,14.93611 11.416173,26.4712 7.896801,9.34932 12.667741,18.54609 14.750912,28.43482 2.995827,14.22106 -1.337278,25.9672 -10.42016,28.24685 -6.125768,1.53747 -15.410204,-4.14352 -22.323588,-13.65944 L 36.5,210.90493 l -0.604218,5.79754 c -0.809534,7.76756 0.679301,21.08651 3.201843,28.64332 6.764803,20.26541 21.928071,37.06311 58.644743,64.966 37.142582,28.22656 47.809792,40.21654 51.447122,57.82674 l 1.21066,5.86147 5.17082,0 5.17082,0 -0.86892,-4.75 z" />
</svg>
