<?xml version="1.0" encoding="UTF-8" standalone="no"?>
<!-- Created with Inkscape (http://www.inkscape.org/) -->

<svg
   xmlns:dc="http://purl.org/dc/elements/1.1/"
   xmlns:cc="http://creativecommons.org/ns#"
   xmlns:rdf="http://www.w3.org/1999/02/22-rdf-syntax-ns#"
   xmlns:svg="http://www.w3.org/2000/svg"
   xmlns="http://www.w3.org/2000/svg"
   xmlns:sodipodi="http://sodipodi.sourceforge.net/DTD/sodipodi-0.dtd"
   xmlns:inkscape="http://www.inkscape.org/namespaces/inkscape"
   id="svg2"
   version="1.1"
   inkscape:version="0.48.3.1 r9886"
   width="400"
   height="400"
   sodipodi:docname="Icon.3_80.png">
  <metadata
     id="metadata8">
    <rdf:RDF>
      <cc:Work
         rdf:about="">
        <dc:format>image/svg+xml</dc:format>
        <dc:type
           rdf:resource="http://purl.org/dc/dcmitype/StillImage" />
        <dc:title></dc:title>
      </cc:Work>
    </rdf:RDF>
  </metadata>
  <defs
     id="defs6" />
  <sodipodi:namedview
     pagecolor="#ffffff"
     bordercolor="#666666"
     borderopacity="1"
     objecttolerance="10"
     gridtolerance="10"
     guidetolerance="10"
     inkscape:pageopacity="0"
     inkscape:pageshadow="2"
     inkscape:window-width="1280"
     inkscape:window-height="970"
     id="namedview4"
     showgrid="false"
     inkscape:zoom="1.18"
     inkscape:cx="181.31475"
     inkscape:cy="307.1125"
     inkscape:window-x="0"
     inkscape:window-y="26"
     inkscape:window-maximized="1"
     inkscape:current-layer="svg2" />
  <rect
     style="fill:#000000;fill-opacity:1;stroke:none"
     id="rect3008"
     width="400"
     height="400"
     x="0"
     y="0" />
  <path
     id="path2993"
     style="fill:#ffffff"
     d="m 137.57622,97 c 2.14982,-9.463161 2.13783,-25.182773 -0.0263,-34.472368 C 134.06131,47.552516 125.40895,34.79684 115.4791,29.989881 109.88449,27.281576 101.38553,27.071463 95.982521,29.507882 l -4.121421,1.858502 6.11755,2.77697 C 117.0015,42.778492 129.10531,70.349057 129.30508,105.5 l 0.0739,13 3.24672,-7 c 1.78569,-3.85 4.01344,-10.375 4.95054,-14.5 z m 134.82854,28.86144 c 8.64129,-3.93724 7.2156,-25.46362 -3.4619,-52.270867 -2.32007,-5.824815 -4.26883,-10.590034 -4.33058,-10.589375 -0.0618,6.6e-4 -0.11228,4.16316 -0.11228,9.25 0,11.25469 -1.77499,17.837662 -6.02456,22.343516 C 255.90964,97.315257 254.49464,98 251.43852,98 c -3.31531,0 -4.52196,-0.719234 -9.05036,-5.394549 l -5.22503,-5.39455 1.38728,3.931964 c 5.44514,15.433195 18.7028,32.458255 26.94959,34.607815 2.2,0.57344 4.09133,1.08912 4.20295,1.14597 0.11162,0.0568 1.32743,-0.409 2.70181,-1.03521 z m 73.44896,106.92031 c 3.33696,-2.59504 8.13499,-7.32004 10.66229,-10.5 5.52128,-6.94712 12.78248,-21.48946 14.90429,-29.84952 6.73169,-26.52326 -1.47593,-51.62093 -19.72294,-60.3098 -3.40855,-1.62308 -7.39373,-3.21287 -8.85596,-3.53285 -2.63324,-0.57625 -2.61746,-0.52047 1.65371,5.84896 7.27318,10.84622 10.48145,22.20957 10.49734,37.18047 0.0204,19.20933 -8.00587,44.30283 -20.43257,63.88099 -1.74548,2.75 -3.5625,5.64409 -4.03782,6.43131 -1.22713,2.0324 8.14459,-3.56042 15.33166,-9.14956 z M 62.878979,290.75 c -2.392861,-6.92651 -2.414921,-17.33368 -0.04979,-23.48927 1.006054,-2.6184 5.001743,-9.8072 8.879308,-15.9751 8.960722,-14.2535 11.175746,-21.49498 9.524156,-31.13689 -1.287673,-7.51739 -7.137414,-20.02323 -13.078427,-27.95965 l -3.975618,-5.31091 0.530245,5.84763 c 0.721119,7.95263 -1.907106,13.77635 -12.023482,26.6421 C 48.30358,224.94056 43.432175,232.2 41.860028,235.5 36.450762,246.85426 38.51191,259.574 48.288415,275.17082 52.134593,281.30677 63.515527,296 64.422069,296 c 0.148829,0 -0.545561,-2.3625 -1.54309,-5.25 z m 262.784641,76.85366 c -10.57812,-11.05486 -16.60837,-24.96562 -17.4301,-40.20828 -0.83354,-15.46179 3.5868,-24.00405 12.00585,-23.20116 2.06835,0.19725 3.76063,0.21631 3.76063,0.0424 0,-0.17395 -0.88745,-2.0558 -1.9721,-4.1819 -5.9512,-11.66531 -17.76561,-11.77936 -28.02328,-0.27051 C 289.25987,305.10767 285,313.71496 285,317.9785 c 0,1.0469 -0.45,2.18158 -1,2.5215 -1.10207,0.68112 -1.53743,-5.7047 -1.15899,-17 0.61307,-18.29812 6.94981,-32.6999 25.7398,-58.5 17.73535,-24.35198 22.32832,-32.78757 26.55734,-48.77595 2.6337,-9.95703 3.8975,-39.36028 1.41676,-32.96189 -10.04931,25.91949 -29.19333,40.23796 -51.30691,38.37421 -6.34245,-0.53454 -14.248,-2.72818 -14.248,-3.95354 0,-0.23057 2.99002,-2.16603 6.64448,-4.30103 17.88743,-10.4501 32.4181,-29.76567 36.97582,-49.15182 2.1734,-9.24454 1.42708,-23.62525 -1.6467,-31.72998 -3.10306,-8.18191 -8.85113,-16.402292 -15.18728,-21.719513 C 292.78356,86.582231 285,81.377569 285,82.230611 c 0,0.216552 0.90029,2.257125 2.00065,4.534607 4.79208,9.918445 6.56696,30.943062 3.65606,43.308212 C 287.97011,141.48574 281.48409,149 274.32,149 260.20651,147.25535 243.39518,128.4457 236.18555,117.70856 224.05795,99.079048 218.69825,74.560291 221.05684,48.5 c 0.59733,-6.6 1.67346,-14.810131 2.3914,-18.244736 l 1.30534,-6.244736 -3.9389,2.213785 c -5.66697,3.185014 -13.52354,11.898059 -16.40628,18.194794 -4.8205,10.529374 -5.50696,17.128679 -5.19496,49.942268 0.24868,26.155085 0.0565,30.970445 -1.45387,36.432025 -2.73079,9.87457 -6.6053,16.75501 -12.71877,22.58627 -4.99472,4.76416 -14.0408,10.6179 -14.0408,9.08584 0,-0.31632 1.38091,-3.81297 3.06869,-7.77032 9.39033,-22.01756 10.369,-50.01046 2.48109,-70.966694 C 172.06555,71.814989 164.77524,60.827502 155.20301,51.556019 143.9111,40.61889 143.4638,40.600278 148.52189,51.278029 c 9.75939,20.602271 9.8698,31.386212 0.61239,59.812311 -3.32984,10.22469 -6.51493,20.646 -7.07798,23.15846 -4.51272,20.13666 -2.37395,45.17934 5.90707,69.16528 1.123,3.25274 1.81564,6.14024 1.53922,6.41666 -0.27642,0.27643 -0.50259,0.0342 -0.50259,-0.53835 0,-0.57252 -5.21926,-9.71971 -11.59836,-20.32709 -19.77865,-32.88863 -22.34505,-40.13567 -23.13473,-65.32798 l -0.52858,-16.86268 -3.03968,4.86268 c -4.79457,7.67 -10.32402,20.08081 -13.307339,29.86818 -2.40664,7.89547 -2.750022,10.70515 -2.810251,22.9945 -0.0584,11.91676 0.282558,15.19042 2.291362,22 3.412908,11.5693 9.313068,23.57823 21.617848,44 20.84383,34.59371 27.47875,52.11104 27.50218,72.61043 0.009,7.8922 -0.98577,15.88957 -1.9765,15.88957 -0.39171,0 -1.56804,-1.90207 -2.61408,-4.22683 -3.83486,-8.5228 -14.12337,-16.89624 -34.50628,-28.08339 -7.759489,-4.25879 -13.431249,-9.75278 -15.011507,-14.54101 -1.35643,-4.11003 -0.589334,-11.88428 1.588115,-16.09501 2.440206,-4.71884 0.20039,-3.6289 -5.357731,2.60717 -14.059851,15.7748 -13.435523,25.47874 3.463874,53.83907 9.530589,15.99409 11.476119,25.93394 7.274227,37.1645 -1.690728,4.51888 -3.995525,7.61063 -10.83721,14.53751 L 79.32558,373 l 125.75083,0 125.75084,0 z" />
</svg>
