<?xml version="1.0" encoding="UTF-8" standalone="no"?>
<!-- Created with Inkscape (http://www.inkscape.org/) -->

<svg
   xmlns:dc="http://purl.org/dc/elements/1.1/"
   xmlns:cc="http://creativecommons.org/ns#"
   xmlns:rdf="http://www.w3.org/1999/02/22-rdf-syntax-ns#"
   xmlns:svg="http://www.w3.org/2000/svg"
   xmlns="http://www.w3.org/2000/svg"
   version="1.1"
   width="512"
   height="512"
   id="svg2">
  <metadata
     id="metadata8">
    <rdf:RDF>
      <cc:Work
         rdf:about="">
        <dc:format>image/svg+xml</dc:format>
        <dc:type
           rdf:resource="http://purl.org/dc/dcmitype/StillImage" />
        <dc:title></dc:title>
      </cc:Work>
    </rdf:RDF>
  </metadata>
  <defs
     id="defs6" />
  <path
     d="m 0,0 512,0 0,512 -512,0 z"
     id="rect3084"
     style="fill:#000000;fill-opacity:1;fill-rule:nonzero;stroke:none" />
  <path
     d="M 145.05222,58.289164 C 139.84623,55.973193 123.71124,50.590761 119.5,49.765258 c -3.21624,-0.630458 8.08612,-2.791496 18.0092,-3.443402 l 9.0092,-0.591868 2.17086,7.37161 c 1.19398,4.054386 2.08984,7.425495 1.9908,7.491355 -0.099,0.06586 -2.63156,-0.970846 -5.62784,-2.303789 z M 253,71.82962 c -11.43569,-8.436693 -23.36314,-16.330724 -35.5,-23.495218 -4.95,-2.922027 -8.48752,-5.317643 -7.86116,-5.32359 5.71064,-0.05422 49.07511,18.529742 52.29717,22.412091 0.68584,0.826378 1.04073,3.869754 0.86397,7.408916 L 262.5,78.838257 253,71.82962 z m -56.5,17.03622 c -2.75,-2.150621 -8.71891,-6.460742 -13.26424,-9.578046 l -8.26425,-5.667826 -2.04605,-7.059984 c -1.12533,-3.882991 -2.73977,-9.226636 -3.58764,-11.874767 -0.84787,-2.64813 -1.35794,-4.998433 -1.13348,-5.222895 0.61113,-0.611124 7.28698,1.301016 16.54255,4.738216 7.76039,2.881948 8.30231,3.276065 9.18644,6.681037 0.51675,1.990134 2.57667,9.84741 4.57759,17.460614 2.00092,7.613204 3.49202,13.975317 3.31356,14.13803 C 201.64601,92.642932 199.25,91.016462 196.5,88.86584 z m -58.5394,7.538543 c -3.55333,-3.615925 -11.98206,-11.552198 -18.7305,-17.63616 -6.74845,-6.083962 -12.08806,-11.243593 -11.86581,-11.465845 0.72999,-0.729996 16.96098,3.797405 25.6803,7.163153 7.29869,2.817368 20.58502,8.978334 21.85203,10.132938 0.37433,0.341124 -8.35823,16.058801 -9.8011,17.640931 -0.37087,0.40667 -3.58159,-2.21909 -7.13492,-5.835017 z m 169.98076,18.340147 c -7.45725,-5.63449 -16.11975,-12.2636 -19.25,-14.73136 L 283,95.526344 l 0,-8.250751 0,-8.250751 5.25,3.353476 c 7.00693,4.475726 17.62839,9.710065 26.5,13.059405 l 7.25,2.737126 0,13.412571 c 0,7.37692 -0.1125,13.41012 -0.25,13.40711 -0.1375,-0.003 -6.35139,-4.61551 -13.80864,-10.25 z M 116.05421,134.82138 C 113.2292,130.24462 108.4691,121.49574 105.4762,115.37943 100.03818,104.26624 90.564956,81.101711 91.198927,80.46774 91.680432,79.986235 111.62846,97.881042 124.2287,110.09781 l 10.7287,10.40219 -6.24973,10.6877 c -3.43735,5.87823 -6.53489,10.97285 -6.88341,11.32137 -0.34852,0.34853 -2.94505,-3.11094 -5.77005,-7.68769 z m 247.23718,10.12827 c -2.31473,-0.45718 -7.93973,-2.32037 -12.5,-4.14044 L 342.5,137.5 l -0.64612,-17 c -0.35536,-9.35 -0.58036,-17.07345 -0.5,-17.16322 0.0804,-0.0898 2.17112,0.23035 4.64612,0.71138 12.36565,2.40335 38.72864,2.06345 48.07542,-0.61984 1.03467,-0.29704 -0.91078,4.44296 -5.66797,13.8097 -3.98386,7.84409 -8.28014,17.52448 -9.54729,21.51198 l -2.30391,7.25 -4.52812,-0.10957 c -2.49047,-0.0603 -6.422,-0.48361 -8.73674,-0.94078 z m -118.12476,-14.38395 -16.82616,-15.4343 -5.726,-21.676607 c -3.14929,-11.922135 -5.55592,-21.846675 -5.34806,-22.054535 0.61202,-0.612021 20.65259,13.339921 33.68276,23.449431 L 263,104.19938 l 0,20.90031 C 263,136.59486 262.77338,146 262.4964,146 c -0.27698,0 -8.07537,-6.94543 -17.32977,-15.4343 z m -68.41635,4.6843 -17.72888,-17.75 6.20502,-10.75 c 3.41277,-5.9125 6.67909,-10.75 7.2585,-10.75 1.46024,0 20.27401,14.26699 30.34899,23.01446 6.02204,5.22855 8.20303,7.73629 7.8621,9.04 C 210.08277,130.39951 195.97903,153 195.12885,153 c -0.35733,0 -8.62768,-7.9875 -18.37857,-17.75 z M 92.058758,154.4795 C 89.299293,145.18422 87.074905,132.97063 87.05408,127 l -0.0157,-4.5 4.795892,9 c 2.63774,4.95 7.082934,12.6737 9.878218,17.16378 l 5.08231,8.16379 -5.96331,2.58621 C 97.551664,160.8362 94.738387,162 94.57976,162 c -0.158627,0 -1.293078,-3.38422 -2.521002,-7.5205 z m -37.021792,12.84416 c -3.554669,-0.74235 -6.776912,-1.68136 -7.160541,-2.08669 -1.120722,-1.18413 0.744631,-27.83968 2.703153,-38.62756 1.893095,-10.42749 3.215762,-10.80603 3.350137,-0.95878 0.08926,6.54095 3.51135,26.72994 6.066396,35.78933 1.076514,3.81698 1.85528,7.00599 1.730593,7.08669 -0.124687,0.0807 -3.135069,-0.46064 -6.689738,-1.20299 z M 311.31787,185.75 c -6.03373,-3.9875 -14.87326,-10.4 -19.64341,-14.25 l -8.673,-7 -7.3e-4,-21.75 c -4e-4,-11.9625 0.24829,-21.75 0.55265,-21.75 0.30436,0 3.56686,2.37654 7.25,5.2812 8.98825,7.08846 22.72254,16.77115 27.94662,19.7024 l 4.25,2.38468 0.004,9.56586 c 0.002,5.26122 0.29667,15.30336 0.65432,22.31586 0.42576,8.34811 0.3015,12.75 -0.35991,12.75 -0.5556,0 -5.94687,-3.2625 -11.9806,-7.25 z m -158.43893,-4.5 c -7.91544,-8.1125 -15.36145,-16.11345 -16.54669,-17.7799 l -2.15499,-3.0299 6.87061,-11.87934 c 3.77884,-6.53364 7.2373,-12.24603 7.68547,-12.6942 0.44817,-0.44817 8.75908,7.16474 18.46869,16.91756 l 17.65384,17.73242 -8.01414,12.74168 C 172.43395,190.26624 168.47728,196 168.04911,196 c -0.42816,0 -7.25474,-6.6375 -15.17017,-14.75 z m 89.03664,16.40065 C 223.00234,180.79518 210,168.63068 210,167.79164 c 0,-0.55996 3.75505,-7.02229 8.34456,-14.36074 l 8.34455,-13.34264 14.90545,13.53077 c 8.19799,7.44193 16.21804,14.81832 17.82232,16.39199 l 2.91688,2.8612 -7.32601,12.31389 c -10.4505,17.56569 -8.96027,16.14689 -13.09217,12.46454 z m 125.02829,10.31932 c -3.60587,-0.42195 -10.18687,-1.74686 -14.62445,-2.94425 l -8.06832,-2.17707 -0.62555,-4.56389 C 343.2815,195.77461 343,185.87116 343,176.2771 c 0,-13.56412 0.27801,-17.32877 1.25,-16.9267 4.67275,1.9329 15.33753,4.74094 21.11124,5.5586 3.76825,0.53365 7.04172,1.16063 7.27438,1.39328 0.23266,0.23266 0.86471,4.31028 1.40457,9.06137 0.98646,8.68156 5.16862,21.93534 8.93686,28.32202 1.11262,1.88576 2.02295,3.85293 2.02295,4.37149 0,1.07858 -8.44215,1.03781 -18.05613,-0.0872 z m -244.59211,-0.66963 c -9.30026,-10.64107 -20.50387,-26.71453 -19.25326,-27.62202 0.22083,-0.16023 3.7765,-1.75723 7.9015,-3.54887 l 7.5,-3.25753 5.97394,6.81404 c 3.28567,3.74772 10.38302,11.34972 15.7719,16.89332 l 9.79796,10.07928 -9.7719,3.33363 c -5.37454,1.8335 -10.26797,3.50798 -10.87428,3.72107 -0.60631,0.21308 -3.77695,-2.67273 -7.04586,-6.41292 z M 76,221.85601 c -6.325,-0.47418 -12.002745,-1.04871 -12.617212,-1.27674 -2.32446,-0.86259 -10.382652,-20.91219 -12.843431,-31.95575 -0.502943,-2.25713 -0.330122,-2.75721 0.802638,-2.32253 0.793973,0.30468 5.308771,1.32158 10.032883,2.25978 l 8.589294,1.70581 5.134939,9.61671 c 2.824217,5.28919 7.0982,12.65421 9.497742,16.36671 2.399542,3.7125 4.034381,6.68658 3.632975,6.60908 C 87.828423,222.78157 82.325,222.33019 76,221.85601 z m 134.4383,7.06764 c -14.00372,-9.77842 -26.33628,-19.10242 -26.39906,-19.95893 -0.0329,-0.4487 13.55225,-22.72225 14.53479,-23.83057 0.17838,-0.20121 5.87409,4.74879 12.65714,11 6.78304,6.25122 15.00202,13.65284 18.26438,16.44804 l 5.93158,5.0822 -6.02527,10.14686 -6.02527,10.14687 -12.93829,-9.03447 z m 83.0617,6.19617 c -10.56454,-6.37118 -20.85592,-13.31211 -28.69393,-19.35238 l -3.69393,-2.84668 7.59276,-12.71038 c 4.17602,-6.99071 7.94334,-13.10543 8.37181,-13.58826 0.42848,-0.48284 5.42401,2.54542 11.10117,6.72945 5.67717,4.18404 15.32403,10.58747 21.43748,14.22985 l 11.11536,6.62252 -7.44703,13.14803 c -4.09586,7.23142 -7.74777,13.43009 -8.11536,13.77484 -0.36758,0.34474 -5.61833,-2.3584 -11.66833,-6.00699 z M 169.91944,248.59194 C 156.41166,238.70055 146.36992,230.58999 146.28156,229.5 c -0.0446,-0.55 4.71132,-2.65705 10.56869,-4.68233 l 10.64975,-3.68233 5.5,4.4002 c 3.025,2.42012 10.83011,8.23744 17.3447,12.92738 6.93242,4.99075 11.28702,8.73505 10.5,9.02842 -2.23088,0.83159 -22.23358,7.51342 -22.29118,7.44629 -0.0294,-0.0343 -3.91477,-2.88986 -8.63408,-6.34569 z m -29.78105,5.50461 C 135.11227,248.64965 131,243.9189 131,243.58377 c 0,-0.33513 3.2625,2.01787 7.25,5.22888 3.9875,3.21102 9.60713,7.66569 12.48807,9.89927 4.79683,3.71898 5.04954,4.11159 3,4.66091 -3.92951,1.05321 -4.30365,0.79801 -13.59968,-9.27628 z M 353.5,262.62292 c -11.3491,-3.71186 -28.55265,-10.43446 -29.89583,-11.68232 -0.65622,-0.60965 12.26832,-25.42416 15.00773,-28.81415 0.16603,-0.20545 4.03377,0.55809 8.59498,1.69677 12.84995,3.2079 19.45567,4.17678 28.47678,4.17678 4.57399,0 8.31634,0.25883 8.31634,0.57517 0,0.31634 -1.8714,3.7252 -4.15867,7.57524 -2.28726,3.85004 -6.32609,12.02871 -8.97517,18.17483 -2.64908,6.14612 -5.39018,11.26331 -6.09133,11.37153 C 364.07367,265.805 359,264.42177 353.5,262.62292 z M 90.189676,257.07329 c -6.14518,-6.69554 -11.650384,-13.06561 -12.233787,-14.15571 -0.935977,-1.74889 -0.78994,-1.92499 1.24169,-1.49731 C 80.46391,241.68685 86.675,242.2077 93,242.57771 l 11.5,0.67275 5.73383,6.62477 c 3.1536,3.64362 8.03986,9.21227 10.85834,12.37477 l 5.12452,5.75 -6.46165,0 c -3.55391,0 -9.14605,0.28057 -12.42698,0.6235 l -5.96533,0.6235 -11.173054,-12.17371 z M 263,263.38745 c -11.825,-7.47661 -21.86547,-13.93537 -22.31215,-14.3528 -0.73816,-0.68981 7.09014,-14.94596 9.71124,-17.68517 0.8201,-0.85706 3.77164,0.75475 11.57129,6.31896 5.75871,4.10822 15.43371,10.43604 21.5,14.06183 6.06629,3.62579 11.18911,6.71674 11.38403,6.86878 0.39552,0.3085 -7.00454,13.91925 -9.0479,16.64159 -1.19496,1.59203 -3.1422,0.58 -22.80651,-11.85319 z m -25.5999,31.23499 c -3.79506,-2.78076 -13.95198,-9.82846 -22.57094,-15.66157 l -15.67084,-10.60565 11.77925,-3.8349 11.77925,-3.83489 20.89159,13.29085 c 11.49037,7.30997 21.45754,13.81277 22.14926,14.45067 0.97646,0.90049 -1.28177,2.288 -10.09991,6.20561 l -11.35757,5.0458 -6.90009,-5.05592 z M 199,315.62676 c -1.375,-1.69851 -9.39981,-10.40633 -17.83291,-19.35071 -15.10182,-16.0174 -15.29398,-16.27768 -12.75,-17.26928 1.4206,-0.55372 3.66682,-1.43001 4.9916,-1.9473 2.12139,-0.82835 5.07356,0.85126 24.75,14.08129 12.28772,8.262 22.98965,15.64965 23.78207,16.41701 1.24199,1.2027 0.20726,1.96597 -7.5,5.53235 -13.36615,6.18494 -12.59049,6.05751 -15.44076,2.53664 z M 152.15111,319.25 c -1.09179,-1.5125 -8.3188,-9.05 -16.06002,-16.75 -7.74122,-7.7 -14.07858,-14.3375 -14.08302,-14.75 -0.004,-0.4125 5.11999,-0.75 11.38762,-0.75 l 11.39569,0 13.47127,13.75 c 7.4092,7.5625 14.92775,15.4375 16.7079,17.5 l 3.23663,3.75 -12.03549,0 c -11.98174,0 -12.04437,-0.0123 -14.02058,-2.75 z M 101.75,306.06317 C 95.8375,297.31917 91,289.90287 91,289.5825 91,289.26212 91.733515,289 92.630034,289 94.318758,289 127,319.53133 127,321.10896 c 0,0.49007 -3.2625,0.88234 -7.25,0.87171 l -7.25,-0.0193 -10.75,-15.89818 z m 247.72377,16.63536 c -5.3172,-4.51787 -21.1186,-16.17158 -35.91022,-26.48417 -6.63495,-4.62583 -11.97903,-8.73251 -11.87573,-9.12596 0.20388,-0.77648 10.26975,-18.35476 10.85354,-18.95379 0.19585,-0.20097 5.21667,1.67084 11.15737,4.15958 8.97577,3.76022 16.16017,6.27262 35.15734,12.29458 0.84944,0.26927 1.1496,1.26698 0.80341,2.67055 -1.51377,6.13743 -4.66796,26.5575 -4.72977,30.62021 -0.0387,2.54126 -0.38796,5.42483 -0.77622,6.40794 -0.63027,1.59586 -1.13192,1.42553 -4.67972,-1.58894 z m -65.3137,19.61891 c -2.80584,-5.49463 -9.95015,-14.95086 -16.94469,-22.42805 l -6.05688,-6.47482 12.92858,-5.76315 12.92858,-5.76316 13.88646,9.44021 c 14.16834,9.63184 36.62903,26.1039 37.48681,27.49181 0.26131,0.42282 -5.97757,1.32635 -13.8642,2.00783 -12.67393,1.09516 -27.71197,3.09479 -35.72,4.74975 -2.34496,0.48461 -2.94865,0.0608 -4.64466,-3.26042 z m -78.58817,22.13245 c -3.26045,-0.70947 -10.06298,-1.59995 -15.11673,-1.97885 l -9.18863,-0.6889 -1.59811,-3.35126 c -0.87896,-1.8432 -3.41393,-6.34018 -5.63327,-9.99328 C 171.81582,344.7845 170,341.61658 170,341.3978 c 0,-0.21879 5.7375,-0.39646 12.75,-0.39482 l 12.75,0.003 8.45779,11.37039 c 4.65178,6.25371 8.62678,11.87737 8.83333,12.49702 0.42732,1.28195 0.68874,1.29728 -7.21922,-0.42348 z m 26.24411,-6.2861 c -3.10967,-4.76508 -8.15638,-12.02532 -11.21491,-16.13385 -3.05854,-4.10853 -5.23251,-7.74586 -4.83104,-8.08295 C 217.18921,332.75542 240.02788,323 241.39835,323 c 1.94671,0 20.60803,19.79867 23.41563,24.84275 1.72454,3.09827 1.96079,4.15725 0.92742,4.15725 -1.91598,0 -19.569,8.66045 -23.2414,11.40207 -1.65,1.2318 -3.45676,2.50646 -4.01502,2.83258 -0.55826,0.32611 -3.5593,-3.30577 -6.66897,-8.07086 z M 135.60119,368.75 c -1.4937,-4.5375 -4.71502,-12.47275 -7.1585,-17.63389 C 125.99921,345.95497 124,341.55224 124,341.33228 c 0,-0.21997 4.81988,-0.27222 10.71083,-0.11611 l 10.71084,0.28383 3.83898,5 c 4.47683,5.83075 12.18127,18.39159 11.62296,18.94934 -0.21099,0.21077 -2.77568,1.32598 -5.69933,2.47825 -2.92365,1.15227 -7.76989,3.66495 -10.76942,5.58372 -2.99953,1.91878 -5.59863,3.48869 -5.77578,3.48869 -0.17714,0 -1.54419,-3.7125 -3.03789,-8.25 z m -0.51124,121.23294 c 10.99485,-2.08513 19.00194,-8.33971 23.49575,-18.35325 5.92961,-13.21293 2.2694,-28.95499 -8.75934,-37.67271 C 147.07309,431.78064 144.41081,430 143.9102,430 143.40261,430 143,423.17827 143,414.57781 l 0,-15.4222 4.75,-4.11878 c 6.08345,-5.27502 16.99928,-10.54447 25.0752,-12.10466 12.08507,-2.33472 31.13796,-0.15492 49.60771,5.67552 l 5.93292,1.87287 4.70366,10.00972 c 2.58702,5.50535 5.51326,12.31009 6.50277,15.12166 l 1.79911,5.11193 -5.09935,5.09935 c -15.12315,15.12315 -11.20873,40.18096 7.86481,50.34596 3.68592,1.96436 5.83777,2.32529 13.86317,2.32529 7.94026,0 10.19322,-0.36996 13.7222,-2.25337 10.60171,-5.65811 16.32672,-14.27857 17.05054,-25.67393 0.53779,-8.46662 -0.71064,-13.6208 -4.79147,-19.78173 -4.02087,-6.0704 -9.08824,-9.81489 -16.81418,-12.42465 l -6.3329,-2.13921 -4.76925,-11.86083 c -2.62309,-6.52345 -5.71802,-13.72057 -6.87763,-15.99358 l -2.10837,-4.13276 6.06336,-4.25321 c 18.17318,-12.74775 45.83687,-18.6938 99.45125,-21.37611 l 9.09355,-0.45495 9.8291,9.86612 9.8291,9.86612 0.13251,7.40042 c 0.29833,16.66227 11.51515,28.4124 28.16069,29.49964 6.20526,0.40531 7.90481,0.11609 13,-2.21223 10.85911,-4.96222 17.20707,-13.77726 18.12106,-25.16362 1.21055,-15.08084 -8.93368,-28.32725 -24.03791,-31.38888 -6.61942,-1.34176 -13.22229,-0.33344 -19.80391,3.02426 l -4.01619,2.04891 -9.49633,-8.79544 -9.49632,-8.79544 0.47409,-16 c 0.64028,-21.60859 3.95759,-38.87631 11.14242,-58 3.81624,-10.15759 13.71534,-28.80461 20.0201,-37.71201 4.73523,-6.68998 6.0216,-7.86269 9.70657,-8.84897 2.33635,-0.62532 8.3941,-2.72063 13.46166,-4.65624 l 9.21374,-3.51929 4.72709,3.1311 c 5.96343,3.95001 11.16879,5.40022 19.09213,5.31904 11.75198,-0.12039 21.93398,-6.757 27.39942,-17.85888 7.878,-16.00249 1.4362,-34.51206 -14.79137,-42.50087 -20.98191,-10.32936 -44.67432,4.42197 -45.61451,28.40043 l -0.24024,6.12713 -6,2.43882 c -3.3,1.34136 -8.14292,3.01623 -10.76205,3.72195 l -4.76204,1.28312 -3.05006,-4.43311 c -9.87823,-14.35751 -13.13958,-30.37674 -9.40741,-46.20767 2.34574,-9.95001 7.76901,-22.13478 19.23317,-43.21221 9.94137,-18.277682 10.99988,-19.813927 16.53667,-23.999996 3.25349,-2.459789 6.9787,-5.72548 8.27825,-7.25709 l 2.36282,-2.784745 5.28533,2.698469 c 11.35971,5.799806 26.35928,3.899356 35.96612,-4.556918 C 504.66444,55.281164 490.55953,18 460.58821,18 c -11.21605,0 -20.90755,5.192005 -26.9549,14.440493 -4.55016,6.958758 -6.04769,13.076775 -5.32139,21.740057 l 0.59504,7.097674 -6.20348,6.143757 c -7.07785,7.009712 -16.62111,12.388073 -27.71981,15.622249 -10.41957,3.036276 -33.73465,3.818065 -46.70723,1.566162 C 327.73711,81.044981 309.08071,73.123182 288.06549,59.043875 271.67268,48.061388 263.36589,43.252452 250.48072,37.285424 203.12258,15.354224 152.18844,11.194988 107.00472,25.569305 70.497295,37.183429 42.143861,60.939477 27.04536,92.563603 18.328273,110.82172 15.530226,124.78359 15.634947,149.5 c 0.06985,16.48641 0.432117,20.69492 2.738332,31.81176 3.95735,19.07594 11.349631,40.29061 20.877637,59.91549 10.434638,21.49228 15.847888,30.45041 41.200934,68.18142 11.12079,16.55023 22.29302,33.91633 24.82717,38.59133 5.75512,10.61704 11.95366,26.03502 14.67314,36.49738 2.62393,10.09472 4.34858,29.19858 3.32816,36.86588 l -0.78032,5.86327 -5.13361,1.91321 c -7.02995,2.61993 -14.6696,10.382 -17.399491,17.67828 -6.975867,18.64467 4.247041,39.35587 23.376851,43.14056 5.83395,1.15421 5.78902,1.15412 11.7462,0.0244 z"
     id="path2989"
     style="fill:#ffffff" />
</svg>
