<?xml version="1.0" encoding="UTF-8" standalone="no"?>
<!-- Created with Inkscape (http://www.inkscape.org/) -->

<svg
   xmlns:dc="http://purl.org/dc/elements/1.1/"
   xmlns:cc="http://creativecommons.org/ns#"
   xmlns:rdf="http://www.w3.org/1999/02/22-rdf-syntax-ns#"
   xmlns:svg="http://www.w3.org/2000/svg"
   xmlns="http://www.w3.org/2000/svg"
   xmlns:sodipodi="http://sodipodi.sourceforge.net/DTD/sodipodi-0.dtd"
   xmlns:inkscape="http://www.inkscape.org/namespaces/inkscape"
   id="svg2"
   version="1.1"
   inkscape:version="0.48.3.1 r9886"
   width="400"
   height="400"
   sodipodi:docname="Icon.6_100.png">
  <metadata
     id="metadata8">
    <rdf:RDF>
      <cc:Work
         rdf:about="">
        <dc:format>image/svg+xml</dc:format>
        <dc:type
           rdf:resource="http://purl.org/dc/dcmitype/StillImage" />
        <dc:title></dc:title>
      </cc:Work>
    </rdf:RDF>
  </metadata>
  <defs
     id="defs6" />
  <sodipodi:namedview
     pagecolor="#ffffff"
     bordercolor="#666666"
     borderopacity="1"
     objecttolerance="10"
     gridtolerance="10"
     guidetolerance="10"
     inkscape:pageopacity="0"
     inkscape:pageshadow="2"
     inkscape:window-width="1855"
     inkscape:window-height="1056"
     id="namedview4"
     showgrid="false"
     inkscape:zoom="0.59"
     inkscape:cx="200"
     inkscape:cy="200"
     inkscape:window-x="65"
     inkscape:window-y="24"
     inkscape:window-maximized="1"
     inkscape:current-layer="svg2" />
  <path
     style="fill:#000000"
     d="m 0,0 400,0 0,400 -400,0 z"
     id="rect3020" />
  <path
     id="path2989"
     style="fill:#ffffff"
     d="m 99.97795,272.76837 -3.331811,-12.23164 3.609951,-42.51836 3.60996,-42.51837 5.31697,-11.24088 c 2.92434,-6.18248 5.54198,-11.228 5.81698,-11.21226 0.275,0.0157 6.55099,5.18663 13.94664,11.49088 C 136.3423,170.84198 142.66935,176 143.00676,176 c 0.33742,0 -0.18185,-7.06922 -1.15393,-15.70938 -0.97207,-8.64015 -1.63471,-15.84208 -1.47252,-16.00426 0.16219,-0.16219 9.47501,2.37498 20.69516,5.63817 11.22015,3.26318 20.57456,5.75877 20.78758,5.54575 0.21302,-0.21302 -6.48077,-7.04911 -14.87508,-15.1913 l -15.2624,-14.80399 19.99159,-9.29384 c 16.78482,-7.80306 30.84523,-12.95209 32.05759,-11.73974 0.16018,0.16019 3.92721,16.4389 8.37117,36.17492 L 220.22586,176.5 219.559,201.9706 c -0.36677,14.00882 -0.87638,25.68011 -1.13246,25.9362 -0.25609,0.25608 -14.96932,-2.11004 -32.69607,-5.25805 -17.72676,-3.14802 -32.85262,-5.70681 -33.61301,-5.68621 -0.7604,0.0206 9.44136,8.68805 22.67059,19.261 l 24.05314,19.22354 -16.96571,9.11986 c -16.68613,8.96956 -17.3234,9.21317 -38.6706,14.78274 -18.72464,4.88533 -22.95371,5.66203 -30.8,5.65661 L 103.30976,285 99.97795,272.76837 z M 264.51321,343 c 4.2417,-15.675 7.94359,-28.88696 8.22643,-29.3599 0.28283,-0.47295 6.64462,5.15634 14.1373,12.50953 20.22713,19.85056 26.02753,25.28457 26.46488,24.79319 0.21676,-0.24355 -1.70689,-13.49282 -4.27478,-29.44282 l -4.6689,-29 3.55093,-0.69237 c 1.95301,-0.3808 7.37593,-0.77712 12.05093,-0.8807 4.675,-0.10359 11.83622,-0.46702 15.91383,-0.80763 L 343.32766,289.5 327.16383,276.18802 C 318.27372,268.86644 311,262.49907 311,262.03832 c 0,-0.46075 12.9045,-9.32036 28.67666,-19.68802 L 368.35332,223.5 363.92666,223.20881 C 361.492,223.04866 347.575,223.58108 333,224.39199 c -14.575,0.8109 -26.77232,1.16693 -27.10516,0.79119 C 305.562,224.80743 303.13189,210.55 300.49461,193.5 c -2.63729,-17.05 -5.10126,-31.3513 -5.4755,-31.78066 -0.37424,-0.42937 -6.92867,12.05813 -14.5654,27.75 C 272.81698,205.1612 266.30428,218 265.98105,218 c -0.32322,0 -7.6675,-10.32978 -16.32062,-22.95508 l -15.73293,-22.95507 -7.92201,-35.25334 c -4.3571,-19.38933 -7.78588,-35.38945 -7.61951,-35.55583 0.51626,-0.51625 58.85932,-13.368713 59.18918,-13.038853 0.17121,0.17121 -2.13807,4.23684 -5.13174,9.034732 C 269.44976,102.07445 267.44382,106 267.9858,106 c 0.54197,0 6.80857,-1.99459 13.92577,-4.43242 l 12.94038,-4.432418 1.97459,8.682418 c 1.08603,4.77533 2.73925,12.16872 3.67382,16.42976 0.93457,4.26104 2.02654,7.54505 2.42659,7.29781 0.40006,-0.24725 4.48043,-5.98356 9.06751,-12.74735 4.58707,-6.76379 8.427,-12.42245 8.53317,-12.5748 0.10617,-0.15235 6.52492,2.66015 14.26389,6.25 7.73897,3.58985 14.28104,6.527 14.53792,6.527 0.25688,0 -1.73716,-5.65332 -4.43119,-12.56293 C 342.20421,97.527462 340,91.522925 340,91.093656 c 0,-0.429269 5.5125,-2.24411 12.25,-4.032982 6.7375,-1.788871 12.8417,-3.581063 13.56489,-3.982649 0.81304,-0.451484 -4.6193,-3.324037 -14.2334,-7.526439 -8.55156,-3.737955 -15.40068,-7.078725 -15.22027,-7.423934 0.18041,-0.345209 3.36906,-5.719033 7.08589,-11.941833 3.71682,-6.222799 6.56765,-11.504387 6.33518,-11.736863 -0.23248,-0.232475 -6.46609,1.365057 -13.85249,3.550072 -7.38639,2.185015 -13.89962,3.979104 -14.47385,3.986863 -0.57423,0.0078 -5.73335,-5.208522 -11.46472,-11.591737 -5.73137,-6.383216 -10.54674,-11.220716 -10.70083,-10.75 -0.15408,0.470715 -0.90252,6.838402 -1.66318,14.150415 -0.76066,7.312012 -1.55047,13.460084 -1.75512,13.662381 -0.20466,0.202297 -7.6846,-1.104689 -16.6221,-2.904413 -8.9375,-1.799724 -16.23781,-2.997796 -16.2229,-2.662381 0.0149,0.335414 3.89303,5.092135 8.61806,10.57049 4.72503,5.478356 8.20033,10.077822 7.7229,10.221035 -4.65732,1.397036 -63.92908,14.090637 -64.25821,13.761499 -0.24027,-0.240269 -3.4029,-13.600777 -7.02807,-29.690017 L 201.49056,27.5 194.24528,27.20619 C 190.26038,27.044595 187,27.317244 187,27.812076 c 0,0.684301 11.07643,50.653849 13.39412,60.425466 0.66451,2.801635 -5.43474,3.783518 -29.18628,4.69853 -11.93931,0.459953 -21.84026,0.717579 -22.00211,0.572501 -0.16185,-0.145078 4.90817,-14.1338 11.26671,-31.08605 6.35854,-16.95225 11.44096,-31.167702 11.29427,-31.589893 -0.14669,-0.422191 -9.23694,8.675026 -20.20055,20.216037 -10.96361,11.541012 -20.24392,20.638885 -20.6229,20.217495 C 130.56427,70.844773 126.98433,61.95 122.98784,51.5 115.48019,31.86908 115.27187,31.387159 114.59471,32.083333 114.37181,32.3125 112.55407,41.725 110.55531,53 c -1.99877,11.275 -3.97184,21.566327 -4.38459,22.869615 -0.71722,2.264638 -1.11174,2.029754 -8.905365,-5.301932 C 89.710001,63.460149 88.391672,61.576594 79.33379,44.948068 L 69.557128,27 61.778564,27 c -4.27821,0 -7.775801,0.3375 -7.772425,0.75 0.0034,0.4125 4.56423,9.075 10.135229,19.25 9.81822,17.932222 10.21771,18.911068 13.016637,31.893891 1.588151,7.366639 2.645592,13.635845 2.34987,13.931568 C 77.961769,94.371565 54.580469,89.407922 42.034787,84.870254 34.62892,82.191614 28.21642,80 27.784787,80 27.353154,80 27,83.313675 27,87.363721 l 0,7.363722 14.25,5.179335 c 13.567827,4.931392 14.549611,5.475502 20.508612,11.365922 l 6.258611,6.18659 -15.210922,15.23471 c -8.366008,8.37909 -14.984641,15.46099 -14.708074,15.73756 0.276568,0.27657 8.538058,-0.85194 18.358868,-2.5078 9.82081,-1.65585 18.178423,-2.6536 18.572474,-2.2172 0.39405,0.43639 3.62971,9.57871 7.190355,20.31626 l 6.473901,19.52283 -3.181807,37.47717 -3.181807,37.47718 -4.76271,11.25913 -4.76271,11.25913 -3.808959,-2.14076 c -2.573607,-1.44645 -9.920411,-9.73729 -22.652395,-25.56315 L 27.5,229.89196 l -0.283726,11.15827 -0.283726,11.15828 13.448037,16.64574 C 51.054052,282.06569 61,296.35618 61,298.48054 c 0,0.15863 -7.420788,4.42656 -16.490641,9.48429 -9.069852,5.05772 -16.711672,9.5535 -16.981823,9.99062 -0.543952,0.88013 0.905955,1.13534 20.671671,3.63858 l 13.699206,1.73494 -7.548569,14.90282 c -4.151714,8.19655 -7.358044,15.09334 -7.125179,15.32621 0.232865,0.23286 6.775001,-2.46034 14.53808,-5.9849 l 14.114688,-6.40829 5.690133,14.66759 c 3.129572,8.06718 6.012115,15.02506 6.405649,15.46197 0.393534,0.4369 1.982882,-5.4131 3.531884,-13 1.549002,-7.58691 3.081537,-14.30093 3.405634,-14.92006 0.396484,-0.75741 5.458037,0.64432 15.471357,4.28458 8.18515,2.97565 15.08162,5.21073 15.32549,4.96686 0.24387,-0.24387 -2.54674,-6.09515 -6.20136,-13.00284 l -6.64477,-12.55944 23.06927,0.62724 C 148.61883,328.0357 159,328.08 159,327.78916 c 0,-0.29084 -8.775,-5.42267 -19.5,-11.40407 -10.725,-5.9814 -19.5,-11.1387 -19.5,-11.46066 0,-0.32197 1.99214,-2.01604 4.42698,-3.76461 3.62665,-2.60446 9.23249,-4.4482 31.00826,-10.19849 l 26.58127,-7.01927 12.98877,0.27897 12.98877,0.27897 -16.04613,25.36756 c -8.82537,13.95216 -15.84063,25.57306 -15.58947,25.82423 0.25117,0.25116 12.71147,-6.13853 27.68956,-14.19932 15.82523,-8.51669 27.48824,-14.22796 27.84245,-13.63421 0.33525,0.56197 5.78163,15.42917 12.10307,33.03822 6.32145,17.60905 11.78917,31.69854 12.15051,31.30999 0.36134,-0.38856 4.12746,-13.53147 8.36917,-29.20647 z" />
</svg>
