<?xml version="1.0" encoding="UTF-8" standalone="no"?>
<!-- Created with Inkscape (http://www.inkscape.org/) -->

<svg
   xmlns:dc="http://purl.org/dc/elements/1.1/"
   xmlns:cc="http://creativecommons.org/ns#"
   xmlns:rdf="http://www.w3.org/1999/02/22-rdf-syntax-ns#"
   xmlns:svg="http://www.w3.org/2000/svg"
   xmlns="http://www.w3.org/2000/svg"
   xmlns:sodipodi="http://sodipodi.sourceforge.net/DTD/sodipodi-0.dtd"
   xmlns:inkscape="http://www.inkscape.org/namespaces/inkscape"
   id="svg2"
   version="1.1"
   inkscape:version="0.48.3.1 r9886"
   width="400"
   height="400"
   sodipodi:docname="Icon.7_16.png">
  <metadata
     id="metadata8">
    <rdf:RDF>
      <cc:Work
         rdf:about="">
        <dc:format>image/svg+xml</dc:format>
        <dc:type
           rdf:resource="http://purl.org/dc/dcmitype/StillImage" />
        <dc:title></dc:title>
      </cc:Work>
    </rdf:RDF>
  </metadata>
  <defs
     id="defs6" />
  <sodipodi:namedview
     pagecolor="#ffffff"
     bordercolor="#666666"
     borderopacity="1"
     objecttolerance="10"
     gridtolerance="10"
     guidetolerance="10"
     inkscape:pageopacity="0"
     inkscape:pageshadow="2"
     inkscape:window-width="1280"
     inkscape:window-height="970"
     id="namedview4"
     showgrid="false"
     inkscape:zoom="0.59"
     inkscape:cx="200"
     inkscape:cy="200"
     inkscape:window-x="0"
     inkscape:window-y="26"
     inkscape:window-maximized="1"
     inkscape:current-layer="svg2" />
  <rect
     style="fill:#000000;fill-opacity:1;stroke:none"
     id="rect3016"
     width="400"
     height="400"
     x="0"
     y="-1.4210855e-14" />
  <path
     id="path2987"
     style="fill:#ffffff"
     d="m 352.15154,99.974605 c 5.20695,-1.446267 10.37492,-7.539314 11.72192,-13.820179 C 366.8006,72.505647 356.96304,55.085521 342.23064,47.829836 338.53798,46.011206 335.83729,45.5 329.92216,45.5 c -6.75992,0 -7.97432,0.302404 -11.25105,2.801693 -5.52785,4.216298 -7.12921,7.958926 -7.1447,16.698307 -0.0107,6.041978 0.50262,8.603265 2.64056,13.175146 7.46784,15.969677 24.26565,25.609984 37.98457,21.799459 z M 66.273932,99.456471 c 8.109867,-6.221542 17.98935,-11.260985 27.855723,-14.208977 5.038301,-1.505403 10.079055,-4.403942 21.000005,-12.075447 11.92696,-8.378186 14.8802,-10.963133 17.36898,-15.202929 1.64925,-2.809603 5.12533,-7.664538 7.72461,-10.788744 2.59928,-3.124206 4.73739,-6.165952 4.75136,-6.759437 0.0328,-1.393995 -7.93994,-5.092864 -14.97461,-6.947314 -7.05277,-1.859219 -19.96496,-1.858394 -26.95466,0.0017 C 81.395508,39.236849 63.638579,57.466406 58.517569,79.188294 56.455286,87.935919 56.530223,105 58.630921,105 c 0.229319,0 3.668674,-2.49459 7.643011,-5.543529 z M 242.64824,93.465995 c 6.13472,-3.595186 9.13367,-9.912848 7.42026,-15.631701 -2.66732,-8.902706 -16.44394,-12.32055 -26.32367,-6.530642 -8.92469,5.230217 -11.30022,13.716325 -5.64323,20.159288 1.70589,1.942893 4.51839,3.969116 6.25,4.502716 5.12263,1.578545 13.22702,0.471333 18.29664,-2.499661 z m -23.37366,14.927285 c -5.74964,-2.10036 -13.66497,-9.434664 -15.79497,-14.635544 -7.22923,-17.651753 7.11796,-36.994287 28.57924,-38.529834 12.97849,-0.928606 23.87384,4.58352 29.23489,14.790377 2.50458,4.768443 2.82916,6.327497 2.49451,11.981721 -0.6639,11.217479 -6.72295,19.74822 -17.64029,24.83638 -7.01932,3.27144 -20.10467,4.02953 -26.87338,1.5569 z m 45.34443,65.07281 c 24.28451,-4.19437 45.61636,-13.32535 71.40896,-30.56617 6.4163,-4.28892 13.82333,-9.75119 16.46006,-12.13838 4.74647,-4.29726 4.79515,-4.40448 4.90302,-10.80094 L 357.5,113.5 l -8.65851,0.34755 c -6.05368,0.243 -10.41588,-0.16051 -14.5,-1.34126 C 318.81141,108.01643 304.89807,94.109454 299.96413,78.144665 297.59547,70.480376 297.38353,58.998703 299.5,53 c 0.825,-2.338299 1.5,-5.034627 1.5,-5.991839 0,-2.11426 -9.06658,-6.345393 -23.5,-10.96683 -43.41705,-13.901705 -86.61143,-10.885163 -114.00434,7.961657 -6.28419,4.323637 -15.02512,13.337949 -18.22038,18.790259 l -2.61432,4.461004 1.66162,8.622875 c 3.527,18.303093 12.40373,40.458264 21.69347,54.144064 23.35337,34.40459 59.28435,50.23594 98.60296,43.4449 z M 77.200779,201.89492 c 14.2532,-2.97232 26.673281,-12.71969 33.176181,-26.03692 10.48346,-21.46895 9.90675,-46.30487 -1.67698,-72.21878 l -3.06682,-6.860786 -4.29386,0.588539 c -2.361628,0.323696 -7.093371,1.766835 -10.51499,3.206977 -20.627829,8.68213 -34.838559,25.08353 -41.524749,47.92605 -2.727868,9.31941 -2.449892,30.51441 0.537722,41 2.68087,9.40902 4.290953,12.19657 7.388083,12.79104 4.594047,0.88179 14.819835,0.67901 19.975413,-0.39612 z m 1.20167,111.80007 c 2.332023,-1.70522 6.354999,-15.73573 7.806032,-27.22428 C 89.446838,260.83104 78.811028,245.47347 53.296906,238.94806 49.107649,237.87663 44.904421,237 43.9564,237 c -2.572117,0 -8.795815,7.43098 -12.040905,14.37662 -4.268499,9.1361 -5.531086,19.52603 -3.552085,29.23039 3.601527,17.66067 13.151632,28.65328 28.63659,32.96202 6.142486,1.70916 19.132735,1.78561 21.402449,0.12596 z m 86.188621,-90.19574 c 10.23957,-5.00976 16.16392,-15.36321 13.05231,-22.81034 -2.22883,-5.33435 -6.72142,-7.68542 -14.64338,-7.66321 -7.7872,0.0218 -13.79415,2.43892 -19.33242,7.77901 -5.05693,4.87598 -6.66758,8.15374 -6.66758,13.5689 0,5.33538 3.40494,10.07007 8.33291,11.5872 4.91608,1.51348 13.33221,0.43773 19.25816,-2.46156 z m -24.20572,14.88359 c -5.41287,-1.91969 -11.91739,-7.58011 -14.64014,-12.74029 -3.32367,-6.29903 -3.10723,-16.38725 0.50959,-23.75203 8.91101,-18.14511 32.98661,-27.62585 50.49421,-19.88414 20.41076,9.02546 20.08915,35.70365 -0.60469,50.161 -10.38571,7.25577 -25.44504,9.87331 -35.75897,6.21546 z M 267.1488,315.46095 C 267.50565,303.38243 268.31374,289.45 268.94458,284.5 276.03076,228.89639 297.91763,194.10856 344,165.20402 l 9.5,-5.95875 0.30521,-4.63283 c 0.22047,-3.34657 -0.0994,-4.78811 -1.15219,-5.1921 -0.82382,-0.31612 -5.30385,2.03039 -10.30521,5.39757 -20.73055,13.95694 -41.85623,23.80345 -63.19448,29.45446 -11.047,2.92557 -12.66793,3.08983 -31.15333,3.15689 -17.41701,0.0632 -20.40797,-0.17693 -28,-2.24787 C 186.78282,176.1205 161.16533,153.57675 144.48766,118.72947 139.70706,108.7406 132,86.325504 132,82.410533 132,79.370821 128.90634,79.937957 123.03973,84.05315 119.71788,86.383298 117,88.61229 117,89.006466 c 0,0.394176 1.77634,4.507303 3.94743,9.140282 11.54023,24.626212 13.27281,55.294332 4.37893,77.510852 -5.35955,13.3879 -15.91512,26.09962 -26.883816,32.37527 -9.957574,5.69715 -15.750324,7.15286 -30.680831,7.71005 l -13.738287,0.51271 -0.991821,3.59208 c -0.545501,1.97564 -0.663272,3.90103 -0.261713,4.27864 0.401559,0.3776 3.655108,1.58018 7.230108,2.67239 12.80521,3.91217 22.713868,9.95403 29.446282,17.95505 3.545494,4.21358 8.27833,14.60522 9.646909,21.18122 1.736369,8.34324 0.58207,25.64577 -2.504541,37.54206 -1.423757,5.48738 -2.570362,10.43738 -2.548009,11 0.05604,1.41065 5.185455,7.28407 6.716839,7.6911 0.79827,0.21217 2.66817,-3.87455 5.18556,-11.33315 2.16541,-6.41574 5.10424,-13.96822 6.53074,-16.78328 9.02391,-17.80782 22.0823,-31.89233 36.68165,-39.56407 11.92908,-6.26856 17.11282,-7.6489 30.86242,-8.21813 10.8077,-0.44743 13.60219,-0.22075 20.45493,1.65928 30.66255,8.41214 51.9046,35.73574 56.41866,72.57118 0.60661,4.95 1.10419,10.875 1.10574,13.16667 0.003,4.59165 0.89861,5.30556 5.48281,4.37095 l 3.02001,-0.61571 0.6488,-21.96096 z m 28.3911,24.01318 c 8.74799,-2.2396 21.96624,-8.84396 30.02009,-14.99921 C 363.07706,295.80206 381.21695,242.4803 368.44634,198.4116 364.76041,185.69222 359.17737,174 356.7898,174 353.94967,174 336.78295,185.64535 327,194.20844 318.72533,201.45132 310.4406,210.8608 304.29138,220 c -8.70093,12.93166 -16.87167,34.89788 -20.27226,54.5 -2.6247,15.12964 -4.55574,46.2651 -3.58168,57.75 l 0.7421,8.75 4.20013,0 c 2.31007,0 6.88218,-0.68664 10.16023,-1.52587 z m -97.08777,32.00626 c 15.47901,-2.69932 29.18351,-9.24588 40.84672,-19.51225 L 244,347.83003 243.9869,335.16501 c -0.023,-22.18324 -5.11715,-38.9622 -16.32813,-53.78118 -16.39622,-21.67298 -45.6707,-28.47966 -69.919,-16.25705 -20.02546,10.09405 -33.74114,29.07104 -41.23919,57.05846 -3.41266,12.7382 -3.28506,14.64267 1.37615,20.53955 17.62165,22.29305 50.4505,34.00895 80.57544,28.7556 z" />
</svg>
