<?xml version="1.0" encoding="UTF-8" standalone="no"?>
<!-- Created with Inkscape (http://www.inkscape.org/) -->

<svg
   xmlns:dc="http://purl.org/dc/elements/1.1/"
   xmlns:cc="http://creativecommons.org/ns#"
   xmlns:rdf="http://www.w3.org/1999/02/22-rdf-syntax-ns#"
   xmlns:svg="http://www.w3.org/2000/svg"
   xmlns="http://www.w3.org/2000/svg"
   xmlns:sodipodi="http://sodipodi.sourceforge.net/DTD/sodipodi-0.dtd"
   xmlns:inkscape="http://www.inkscape.org/namespaces/inkscape"
   id="svg2"
   version="1.1"
   inkscape:version="0.48.3.1 r9886"
   width="400"
   height="400"
   sodipodi:docname="Icon.6_67.png">
  <metadata
     id="metadata8">
    <rdf:RDF>
      <cc:Work
         rdf:about="">
        <dc:format>image/svg+xml</dc:format>
        <dc:type
           rdf:resource="http://purl.org/dc/dcmitype/StillImage" />
        <dc:title></dc:title>
      </cc:Work>
    </rdf:RDF>
  </metadata>
  <defs
     id="defs6" />
  <sodipodi:namedview
     pagecolor="#ffffff"
     bordercolor="#666666"
     borderopacity="1"
     objecttolerance="10"
     gridtolerance="10"
     guidetolerance="10"
     inkscape:pageopacity="0"
     inkscape:pageshadow="2"
     inkscape:window-width="1280"
     inkscape:window-height="970"
     id="namedview4"
     showgrid="false"
     inkscape:zoom="0.834386"
     inkscape:cx="289.70611"
     inkscape:cy="139.97957"
     inkscape:window-x="0"
     inkscape:window-y="26"
     inkscape:window-maximized="1"
     inkscape:current-layer="svg2" />
  <rect
     style="fill:#000000;fill-opacity:1;stroke:none"
     id="rect2998"
     width="400"
     height="400"
     x="0"
     y="-5.6843419e-14" />
  <path
     id="path2987"
     style="fill:#ffffff"
     d="m 135.74191,271.75 c 12.40015,-6.51848 19.77955,-10.9781 20.27027,-12.25 0.42441,-1.1 1.98015,-8.29982 3.45721,-15.99959 4.36958,-22.77827 14.23759,-50.11587 25.80278,-71.48214 2.23823,-4.13505 7.86744,-13.5106 12.50936,-20.83457 l 8.43985,-13.31629 6.93815,-30.06087 c 3.81598,-16.533471 6.79944,-30.781087 6.62991,-31.661366 -0.17275,-0.897048 -10.77825,13.219561 -24.12958,32.118046 -13.10174,18.54521 -24.23502,33.97421 -24.74061,34.28668 -1.69397,1.04694 -0.91318,-3.87411 6.03719,-38.0499 3.80303,-18.7 6.57954,-34.341577 6.17002,-34.759061 -0.40952,-0.417483 -15.68493,0.274898 -33.94535,1.538626 l -33.20076,2.297686 -6.58145,6.461375 C 75.660826,113.16115 52.460505,158.1537 44.874074,205.17209 l -1.237894,7.67209 12.797294,22.32791 c 7.038512,12.28035 13.364239,22.93071 14.057171,23.66746 1.041432,1.10729 8.244175,-1.97776 41.541905,-17.79304 22.15512,-10.52292 40.93141,-19.00071 41.7251,-18.83954 0.9527,0.19346 -5.55704,10.22162 -19.15729,29.5115 C 123.27016,267.78863 114,281.17613 114,281.46847 c 0,1.41873 3.71149,-0.24028 21.74191,-9.71847 z M 27.666667,374.33333 C 27.666667,374.33333 27,159.33694 27,28 c 115.33333,0 230.66667,0 346,0 -1.18922,10.470293 -4.88427,21.544609 -9.51119,31.022083 -1.28684,2.539447 -4.76696,8.635842 -7.73362,13.547546 -2.96665,4.911704 -19.93697,34.917871 -37.7118,66.680371 -17.77484,31.7625 -32.70613,57.75 -33.18064,57.75 -1.17724,0 -1.12414,-2.41723 1.13145,-51.5 2.32075,-50.500781 2.346,-51.828287 0.96963,-50.977644 -0.5699,0.352215 -5.79393,10.166274 -11.60897,21.809014 -21.82484,43.69724 -36.62094,71.80106 -37.37914,70.99825 -0.43094,-0.45629 0.9655,-17.22485 3.10319,-37.26347 2.1377,-20.03862 3.62556,-36.68862 3.30636,-37 -0.81595,-0.79596 -4.89471,4.11989 -18.13846,21.86102 -27.94105,37.42942 -42.02692,65.58183 -51.2501,102.42988 -1.73261,6.92206 -2.86827,13.04175 -2.52369,13.5993 0.37665,0.60943 4.18806,-0.77498 9.55677,-3.47131 9.63405,-4.83851 9.97021,-4.95802 9.97021,-3.5446 0,0.51724 -10.3999,16.81047 -23.11089,36.20719 C 145.82696,315.34 144.18113,318 145.46858,318 c 0.3754,0 21.36769,-9.45 46.64953,-21 25.28183,-11.55 47.13986,-20.13804 47.13986,-20.13804 l -81.68754,98.18806 z"
     inkscape:connector-curvature="0"
     sodipodi:nodetypes="ssssscscssssscsscsssssssccccsssssssssssssssssccc" />
</svg>
