<?xml version="1.0" encoding="UTF-8" standalone="no"?>
<!-- Created with Inkscape (http://www.inkscape.org/) -->

<svg
   xmlns:dc="http://purl.org/dc/elements/1.1/"
   xmlns:cc="http://creativecommons.org/ns#"
   xmlns:rdf="http://www.w3.org/1999/02/22-rdf-syntax-ns#"
   xmlns:svg="http://www.w3.org/2000/svg"
   xmlns="http://www.w3.org/2000/svg"
   xmlns:sodipodi="http://sodipodi.sourceforge.net/DTD/sodipodi-0.dtd"
   xmlns:inkscape="http://www.inkscape.org/namespaces/inkscape"
   id="svg2"
   version="1.1"
   inkscape:version="0.48.3.1 r9886"
   width="400"
   height="400"
   sodipodi:docname="Icon.6_35.png">
  <metadata
     id="metadata8">
    <rdf:RDF>
      <cc:Work
         rdf:about="">
        <dc:format>image/svg+xml</dc:format>
        <dc:type
           rdf:resource="http://purl.org/dc/dcmitype/StillImage" />
        <dc:title></dc:title>
      </cc:Work>
    </rdf:RDF>
  </metadata>
  <defs
     id="defs6" />
  <sodipodi:namedview
     pagecolor="#ffffff"
     bordercolor="#666666"
     borderopacity="1"
     objecttolerance="10"
     gridtolerance="10"
     guidetolerance="10"
     inkscape:pageopacity="0"
     inkscape:pageshadow="2"
     inkscape:window-width="1280"
     inkscape:window-height="970"
     id="namedview4"
     showgrid="false"
     inkscape:zoom="1.18"
     inkscape:cx="177.57729"
     inkscape:cy="169.85466"
     inkscape:window-x="0"
     inkscape:window-y="26"
     inkscape:window-maximized="1"
     inkscape:current-layer="svg2" />
  <rect
     style="fill:#000000;fill-opacity:1;stroke:none"
     id="rect3004"
     width="400"
     height="400"
     x="0"
     y="0" />
  <path
     id="path2987"
     style="fill:#ffffff"
     d="m 210,60.278468 c -6.40357,-2.406193 -11,-9.442341 -11,-16.83863 0,-3.943345 0.51038,-5.150217 3.4,-8.039838 2.5179,-2.517898 4.26913,-3.398553 6.75,-3.394423 5.91854,0.0099 11.19628,2.105406 15.07745,5.986583 3.15637,3.156365 3.77255,4.453204 3.77255,7.939853 0,7.942728 -6.15256,15.132483 -12.82673,14.98904 C 213.15297,60.877632 210.825,60.588468 210,60.278468 z m 29.49142,46.856552 c -2.20472,-1.00158 -5.41958,-3.4281 -7.14414,-5.39227 -9.10857,-10.374084 -6.48784,-24.952172 5.91665,-32.912116 6.2778,-4.028452 13.8852,-4.559833 18.41008,-1.285954 4.65912,3.370996 8.4681,12.150521 8.51118,19.617839 0.059,10.23095 -3.3432,16.585301 -10.68519,19.956751 -5.06827,2.32736 -9.909,2.33244 -15.00858,0.0157 z m 100.27966,125.34032 c 10.34023,-3.07072 16.21948,-11.59178 16.19719,-23.47534 -0.0152,-8.09754 -2.41683,-13.71487 -7.53158,-17.61609 -3.3499,-2.55509 -4.58801,-2.88243 -10.85885,-2.87095 -8.18602,0.015 -16.71717,3.35613 -22.44708,8.79118 -11.90355,11.29099 -6.03148,30.62252 10.86277,35.76152 4.02492,1.22433 8.28105,1.04197 13.77755,-0.59032 z m -121.30212,86.79224 c 2.94595,-1.48977 8.3466,-5.97222 13.03104,-10.81556 4.4,-4.54925 9.575,-9.05958 11.5,-10.02294 4.94539,-2.47492 16.19962,-2.94841 31.43797,-1.32265 19.09537,2.03726 28.16515,1.855 33.06203,-0.66437 5.5324,-2.84635 8.5,-8.8222 8.5,-17.11644 0,-22.543 -20.14147,-37.04395 -54,-38.87758 -10.77948,-0.58377 -18.55264,0.52418 -14.5,2.06675 7.53621,2.86856 19.64813,9.13004 24.84352,12.84333 7.13406,5.09891 17.61782,15.82143 15.99729,16.36161 -0.60764,0.20255 -4.89431,-1.2004 -9.52593,-3.11767 -35.7097,-14.78206 -73.91133,-13.78454 -88.03262,2.29871 -5.70032,6.49231 -8.22086,13.54671 -8.25335,23.09923 -0.0249,7.32958 0.35851,9.28894 2.78465,14.22959 6.58426,13.4083 19.78067,17.8016 33.1554,11.03799 z M 25.25,374.3456 C 24.3316,373.96923 24,370.01394 24,359.43572 c 0,-16.54394 -1.562188,-14.51161 12.618708,-16.4163 l 8.118708,-1.09045 5.881292,3.469 c 20.563062,12.12883 54.663792,14.08544 86.281682,4.95061 15.03245,-4.34308 30.65388,-12.72121 20.50509,-10.99735 -24.40562,4.1455 -49.77528,4.99511 -65.595071,2.19672 -16.489649,-2.91688 -28.752697,-8.69682 -33.696253,-15.88203 -9.417776,-13.68827 -7.576966,-29.41165 4.798606,-40.98755 11.386626,-10.65086 20.07322,-12.05057 34.455161,-5.55195 14.340647,6.47997 19.472057,8.01428 27.132077,8.11262 8.8316,0.11338 14.26908,-1.41878 19.67909,-5.54512 14.66834,-11.18792 20.29627,-34.27575 14.18545,-58.19392 -3.48227,-13.62987 -12.14996,-24.33328 -23.16291,-28.60304 -8.01239,-3.10643 -22.15775,-3.65646 -36.148006,-1.40559 -10.594332,1.70451 -10.83334,1.69966 -15.380919,-0.31195 -6.329425,-2.79981 -8.904323,-7.04917 -8.401447,-13.86496 0.941023,-12.75423 14.288689,-21.53434 32.728742,-21.529 19.94435,0.006 30.32645,5.16139 81,40.22363 31.96604,22.11806 67.75369,34.22026 84.12427,28.44804 5.65294,-1.99321 11.39502,-7.64444 13.61744,-13.40198 1.4071,-3.64534 1.74863,-7.55114 1.70994,-19.55515 -0.055,-17.06963 -2.06473,-26.80524 -9.57081,-46.36407 -6.21369,-16.19121 -8.3495,-23.00163 -7.48202,-23.85784 0.43358,-0.42795 10.08372,8.75647 21.44475,20.40983 21.51566,22.06926 28.88226,27.96531 38.51386,30.82559 6.56764,1.95037 10.25113,1.84739 15.25866,-0.42663 5.05169,-2.29406 8.83336,-7.08979 11.44095,-14.50885 5.02718,-14.30322 3.31301,-23.43554 -9.46992,-50.45157 C 338.1725,87.115745 336,80.880322 336,72.999427 c 0,-7.378063 1.61668,-11.409209 6.40392,-15.968047 3.30694,-3.149154 4.28096,-3.504702 10.57552,-3.860376 8.50474,-0.480561 14.78283,2.113626 18.55717,7.668059 L 374,64.464269 374,218.69695 c 0,151.46188 -0.0347,154.25128 -1.93426,155.26787 -2.38042,1.27396 -43.9648,1.38509 -45.95818,0.12282 -1.09769,-0.69509 -0.12888,-2.64991 4.57671,-9.23469 15.04274,-21.0501 22.5237,-40.95332 22.49674,-59.85295 -0.0131,-9.15102 -1.69816,-17.24212 -3.5718,-17.15003 -0.48993,0.0241 -2.56144,4.45519 -4.60335,9.84691 C 331.43883,333.52097 312.30716,356.93113 285,371.12209 L 278.5,374.5 z"
     inkscape:connector-curvature="0"
     sodipodi:nodetypes="sssssssscsssssccsssssssssssssssssssssscsscsssssssssssssscssssssssssssssscssssscsscc" />
</svg>
