<?xml version="1.0" encoding="UTF-8" standalone="no"?>
<!-- Created with Inkscape (http://www.inkscape.org/) -->

<svg
   xmlns:dc="http://purl.org/dc/elements/1.1/"
   xmlns:cc="http://creativecommons.org/ns#"
   xmlns:rdf="http://www.w3.org/1999/02/22-rdf-syntax-ns#"
   xmlns:svg="http://www.w3.org/2000/svg"
   xmlns="http://www.w3.org/2000/svg"
   xmlns:sodipodi="http://sodipodi.sourceforge.net/DTD/sodipodi-0.dtd"
   xmlns:inkscape="http://www.inkscape.org/namespaces/inkscape"
   id="svg2"
   version="1.1"
   inkscape:version="0.48.3.1 r9886"
   width="400"
   height="400"
   sodipodi:docname="Icon.5_36.png">
  <metadata
     id="metadata8">
    <rdf:RDF>
      <cc:Work
         rdf:about="">
        <dc:format>image/svg+xml</dc:format>
        <dc:type
           rdf:resource="http://purl.org/dc/dcmitype/StillImage" />
        <dc:title></dc:title>
      </cc:Work>
    </rdf:RDF>
  </metadata>
  <defs
     id="defs6" />
  <sodipodi:namedview
     pagecolor="#ffffff"
     bordercolor="#666666"
     borderopacity="1"
     objecttolerance="10"
     gridtolerance="10"
     guidetolerance="10"
     inkscape:pageopacity="0"
     inkscape:pageshadow="2"
     inkscape:window-width="1855"
     inkscape:window-height="1056"
     id="namedview4"
     showgrid="false"
     inkscape:zoom="0.59"
     inkscape:cx="200"
     inkscape:cy="200"
     inkscape:window-x="65"
     inkscape:window-y="24"
     inkscape:window-maximized="1"
     inkscape:current-layer="svg2" />
  <path
     style="fill:#000000"
     d="m 0,0 400,0 0,400 -400,0 z"
     id="rect3028" />
  <path
     id="path2989"
     style="fill:#ffffff"
     d="m 285.21895,115.95599 c 8.10251,-2.25029 13.10406,-9.10371 13.10406,-17.95599 0,-16.382779 -17.22901,-24.329293 -28.44066,-13.117647 -9.7681,9.768103 -6.17278,26.043247 6.77284,30.658997 4.72467,1.68458 4.10005,1.65434 8.56376,0.41464 z M 122.5,114.96863 c 5.25596,-2.0408 10.45608,-10.4798 10.45608,-16.96863 0,-7.761613 -6.08336,-16.027548 -13.10774,-17.810527 -13.04509,-3.311196 -24.017236,9.013358 -20.408777,22.924327 2.769327,10.67605 12.806877,15.83611 23.060437,11.85483 z m -7.62117,46.01902 c 15.03258,-6.79378 31.66688,-12.26447 47.62117,-15.66166 12.2476,-2.60791 14.44692,-2.76706 38,-2.74973 23.41468,0.0172 25.82437,0.19277 38,2.76813 15.95168,3.37406 32.31482,8.7541 47.5,15.61753 6.325,2.85878 12.1262,5.45945 12.89155,5.77924 3.82318,1.5975 -2.84947,-16.71314 -10.17086,-27.91019 l -5.01453,-7.66903 -5.91551,-1.042 c -11.79326,-2.07734 -19.60973,-8.11449 -24.5897,-18.99217 -2.03341,-4.44156 -2.56937,-7.17997 -2.56937,-13.12777 0,-7.307549 0.63287,-9.390096 6.1538,-20.25 0.8594,-1.690473 -3.75038,-0.51633 -11.28538,2.874465 -13.59366,6.117226 -20.27273,8.330171 -29.81106,9.877165 -21.40361,3.471389 -37.18778,0.923496 -61.18894,-9.877165 -4.4,-1.980025 -9.50526,-3.605541 -11.34502,-3.612256 L 139.80996,77 l 2.49796,4.262455 c 10.2459,17.483306 1.39018,41.893935 -17.18682,47.375125 -6.58422,1.9427 -10.52739,5.72361 -15.82354,15.17244 C 105.82221,150.01037 101,162.73356 101,165.70278 c 0,0.83131 0.56237,1.26739 1.25,0.96929 0.6875,-0.29805 6.37047,-2.85604 12.62883,-5.68442 z m 180.01611,153.64448 c 12.31265,-7.59126 22.57788,-8.05868 35.72777,-1.62685 3.3675,1.6471 6.32706,2.99472 6.57681,2.99472 0.24975,0 0.24498,-1.42479 -0.0106,-3.16621 -1.33409,-9.08976 9.22231,-16.03823 26.6102,-17.51545 4.01451,-0.34106 6.93951,-0.95789 6.5,-1.37072 -2.38241,-2.23779 -40.64104,-16.43947 -52.47232,-19.47783 -3.47973,-0.89363 -6.71951,-2.00512 -7.1995,-2.46999 -0.4879,-0.47253 2.82101,-4.95789 7.5044,-10.17251 31.27691,-34.82454 47.029,-62.26508 47.27147,-82.34805 0.0863,-7.15216 -0.2589,-8.74339 -3.18806,-14.69361 -5.02058,-10.19864 -12.06805,-15.03225 -24.64449,-16.90277 -6.2075,-0.92324 -9.24647,-0.8318 -17.24051,0.51878 -5.33757,0.90178 -9.8462,1.78113 -10.01918,1.9541 -0.17297,0.17298 0.39469,2.5262 1.26148,5.22938 2.45046,7.64203 3.01307,27.29417 1.05272,36.77184 -3.17851,15.36716 -1.72402,25.03607 6.08951,40.48057 3.90355,7.7159 4.46878,9.48212 3.25466,10.17008 -0.80811,0.45791 -8.66929,6.17524 -17.46929,12.70518 -23.49782,17.43628 -27.51109,23.01555 -27.48899,38.21535 0.0174,11.98466 0.76185,14.60292 5.7199,20.11747 2.44994,2.72491 4.59508,4.95439 4.76699,4.95439 0.17191,0 3.50058,-1.96554 7.39704,-4.36787 z M 115.87892,313.34649 C 122.75711,305.62933 124,302.63433 124,293.77701 c 0,-10.94886 -2.04258,-15.83823 -9.89734,-23.69148 -5.06231,-5.06134 -26.455002,-21.52452 -35.424339,-27.26152 -0.672447,-0.43011 0.63073,-4.06741 3.58282,-10 7.718516,-15.51132 9.124259,-24.4081 6.23903,-39.48604 -2.055104,-10.73979 -1.906071,-25.0767 0.359063,-34.54161 l 1.843628,-7.70364 -6.601431,-1.4718 c -10.747658,-2.39622 -17.186774,-2.83115 -24.476988,-1.65329 -11.9482,1.93044 -18.938266,6.8617 -23.839539,16.818 -2.929168,5.95022 -3.274417,7.54145 -3.188067,14.69361 0.241776,20.02556 16.083978,47.62306 47.271469,82.34805 4.683396,5.21462 7.992304,9.69998 7.504399,10.17251 -0.479988,0.46487 -3.719761,1.57636 -7.199496,2.46999 -11.83128,3.03836 -50.08991,17.24004 -52.472321,19.47783 -0.439512,0.41283 2.485488,1.02966 6.5,1.37072 17.635859,1.49829 27.954644,8.35516 26.58785,17.66772 -0.243294,1.65767 -0.238011,3.01394 0.01174,3.01394 0.249751,0 3.209314,-1.34762 6.576807,-2.99472 13.115894,-6.4152 23.538644,-5.96411 35.371255,1.53082 3.7133,2.35206 7.05297,4.31864 7.42147,4.37018 0.36851,0.0516 2.93752,-2.45036 5.70891,-5.55979 z m 50.65858,15.63925 c 4.36009,-1.6577 8.98139,-1.12283 12.82295,1.48412 4.34608,2.94933 4.33097,3.01937 2.10053,-9.73162 -4.62518,-26.44128 -14.85356,-48.65852 -30.84042,-66.98897 -6.5903,-7.55641 -19.6128,-19.1639 -28.80857,-25.67825 l -4.68802,-3.32103 4.0425,-5.35426 c 3.19524,-4.23205 4.38739,-5.16542 5.68802,-4.45328 0.90503,0.49554 6.37051,4.69877 12.14551,9.34052 24.73749,19.88315 40.67079,42.14549 48.08474,67.18501 l 2.67429,9.03202 9.87048,0.25338 c 5.42877,0.13936 10.34456,-0.0856 10.92399,-0.5 0.57942,-0.41436 2.07983,-4.35338 3.33423,-8.75338 7.05886,-24.76003 24.47677,-48.84931 49.24835,-68.11135 5.70015,-4.43236 10.88664,-8.36002 11.52553,-8.72813 1.11395,-0.64184 8.38029,8.08657 8.30285,9.97346 -0.0195,0.47631 -3.47056,3.34102 -7.6689,6.36602 -9.59716,6.91496 -25.40732,22.35854 -32.16593,31.42011 -11.90977,15.96796 -21.61703,41.65592 -24.71139,65.39285 l -0.6926,5.31296 3.77672,-2.56296 c 6.58495,-4.46867 12.64531,-3.31113 20.33815,3.88462 l 4.78531,4.4761 1.21741,-3.3667 c 2.71726,-7.51444 11.36016,-8.45805 23.86642,-2.60567 3.62395,1.69585 6.77929,2.89308 7.01186,2.66051 0.23258,-0.23257 -0.80957,-2.37517 -2.31588,-4.76132 -4.39816,-6.96713 -10.03707,-21.90044 -11.88797,-31.48245 -3.96496,-20.52637 3.24064,-33.52243 29.1083,-52.49986 l 12.3326,-9.04764 -1.58916,-3.0731 c -2.8474,-5.50626 -5.23548,-13.57994 -6.42692,-21.72826 -1.15542,-7.90195 -1.03124,-9.42378 2.40135,-29.42935 0.21428,-1.24886 -15.88677,-9.74825 -26.84383,-14.17027 -53.88072,-21.74502 -108.76256,-19.43265 -160.89516,6.77912 -13.53846,6.807 -12.48827,5.08731 -10.40133,17.03221 2.49371,14.27302 1.05877,26.33549 -4.675202,39.30101 l -2.375141,5.37061 12.276733,9.00665 c 25.86523,18.97565 33.09151,32.18115 28.97159,52.94345 -1.85462,9.34636 -7.50718,24.18634 -11.80712,30.99788 -1.50631,2.38615 -2.54846,4.52875 -2.31588,4.76132 0.23257,0.23257 3.38791,-0.96466 7.01186,-2.66051 12.50626,-5.85238 21.14916,-4.90877 23.86642,2.60567 l 1.21741,3.3667 4.78531,-4.4761 c 2.63192,-2.46185 5.95203,-4.91968 7.37801,-5.46184 z" />
</svg>
