<?xml version="1.0" encoding="UTF-8" standalone="no"?>
<!-- Created with Inkscape (http://www.inkscape.org/) -->

<svg
   xmlns:dc="http://purl.org/dc/elements/1.1/"
   xmlns:cc="http://creativecommons.org/ns#"
   xmlns:rdf="http://www.w3.org/1999/02/22-rdf-syntax-ns#"
   xmlns:svg="http://www.w3.org/2000/svg"
   xmlns="http://www.w3.org/2000/svg"
   xmlns:sodipodi="http://sodipodi.sourceforge.net/DTD/sodipodi-0.dtd"
   xmlns:inkscape="http://www.inkscape.org/namespaces/inkscape"
   id="svg2"
   version="1.1"
   inkscape:version="0.48.3.1 r9886"
   width="400"
   height="400"
   sodipodi:docname="Icon.2_42.png">
  <metadata
     id="metadata8">
    <rdf:RDF>
      <cc:Work
         rdf:about="">
        <dc:format>image/svg+xml</dc:format>
        <dc:type
           rdf:resource="http://purl.org/dc/dcmitype/StillImage" />
        <dc:title></dc:title>
      </cc:Work>
    </rdf:RDF>
  </metadata>
  <defs
     id="defs6" />
  <sodipodi:namedview
     pagecolor="#ffffff"
     bordercolor="#666666"
     borderopacity="1"
     objecttolerance="10"
     gridtolerance="10"
     guidetolerance="10"
     inkscape:pageopacity="0"
     inkscape:pageshadow="2"
     inkscape:window-width="1855"
     inkscape:window-height="1056"
     id="namedview4"
     showgrid="false"
     inkscape:zoom="0.59"
     inkscape:cx="200"
     inkscape:cy="200"
     inkscape:window-x="65"
     inkscape:window-y="24"
     inkscape:window-maximized="1"
     inkscape:current-layer="svg2" />
  <path
     style="fill:#000000"
     d="m 0,0 400,0 0,400 -400,0 z"
     id="rect3022" />
  <path
     id="path2989"
     style="fill:#ffffff"
     d="m 173.95765,115 c 6.61389,-22.668659 5.95816,-21.05557 8.33703,-20.508748 3.53864,0.813414 40.10706,6.271478 53.20532,7.941218 33.13987,4.22462 64.68945,6.54155 89.5,6.57267 18.11618,0.0227 50.96245,-1.80305 52.21161,-2.9022 0.39138,-0.34438 -4.55862,-2.96714 -11,-5.82834 C 327.92036,83.265969 287.82714,72.965271 215,61.42551 c -12.925,-2.04802 -23.68987,-3.883954 -23.92193,-4.079855 -0.36176,-0.305389 5.16258,-21.203243 6.58485,-24.909612 0.33673,-0.877513 -1.68569,-1.948397 -6.28621,-3.328585 -3.73046,-1.119165 -6.92737,-1.89013 -7.10425,-1.713255 -0.17687,0.176875 -2.73307,8.733069 -5.68043,19.013765 -2.94736,10.280696 -5.64888,18.982213 -6.00337,19.336705 -0.54865,0.548649 -51.07399,-7.005462 -55.68761,-8.325929 -1.28239,-0.367035 -1.82045,0.87905 -2.71774,6.294066 -0.61534,3.713436 -0.79581,7.039814 -0.40105,7.39195 0.39476,0.352136 12.86774,2.56565 27.71774,4.918921 14.85,2.353271 27.08593,4.334074 27.19096,4.401785 0.10502,0.06771 -1.99764,7.762181 -4.67258,17.098823 -2.67494,9.336641 -5.01087,17.845301 -5.19096,18.908131 -0.26444,1.56072 0.73048,2.26316 5.17258,3.65196 3.025,0.94575 6.04344,1.76366 6.70765,1.81758 0.66573,0.0541 2.12416,-3.04319 3.25,-6.90196 z m -37.37547,203.60725 c -3.46329,-32.82576 -11.2281,-64.85399 -29.47494,-121.57782 -2.31404,-7.19364 -3.60943,-12.71906 -3.06131,-13.05782 0.52261,-0.32299 6.4031,-1.89751 13.06775,-3.49893 6.66465,-1.60141 12.31836,-3.435 12.56381,-4.07462 0.40122,-1.04556 -2.0575,-12.1114 -2.87201,-12.92591 -0.18352,-0.18352 -9.04361,1.92138 -19.6891,4.67756 -10.645489,2.75618 -19.699793,4.63752 -20.120677,4.18076 C 86.574819,171.87371 82.9778,161.15 79.002326,148.5 75.026853,135.85 71.619696,125.3322 71.430867,125.1271 70.815638,124.45889 58,128.27288 58,129.1242 c 0,0.61038 10.502906,34.34728 14.483828,46.52423 0.240918,0.73692 -6.496923,2.85006 -18.804191,5.89742 -10.5488,2.61195 -19.332223,4.87275 -19.518716,5.02399 -0.478641,0.38817 1.965024,11.01591 2.869368,12.47917 0.564199,0.91289 4.086257,0.39089 14.322147,-2.12268 7.465676,-1.8333 13.741498,-3.12921 13.946273,-2.8798 0.204774,0.24941 4.524631,12.77952 9.599681,27.8447 18.439806,54.73816 34.49132,89.93689 55.68469,122.10877 l 6.91692,10.5 0.28528,-10.89275 c 0.1569,-5.99101 -0.38449,-17.24101 -1.2031,-25 z m 224.40667,35.68044 C 336.8429,309.09708 302.61045,266.45401 229.23848,190.16735 l -17.26153,-17.94723 14.26153,-8.22907 c 7.84383,-4.52598 14.38998,-8.34147 14.54698,-8.47885 0.15701,-0.13739 -1.35096,-2.99688 -3.35104,-6.35442 -3.60779,-6.05641 -3.65744,-6.09328 -6.28547,-4.66718 -1.45692,0.7906 -11.86532,6.78916 -23.12977,13.33013 L 187.53835,169.71341 173.05563,154.6067 C 165.09013,146.29802 153.05363,133.875 146.30785,127 l -12.26505,-12.5 -4.96335,5 -4.96335,5 24.9332,26 c 13.71326,14.3 24.93714,26.23758 24.94195,26.52795 0.005,0.29038 -9.42703,5.91538 -20.95965,12.5 -11.53262,6.58463 -20.98262,12.31637 -21,12.7372 -0.0498,1.20689 6.08297,11.73485 6.83586,11.73485 0.37211,0 7.64165,-4.05441 16.15455,-9.00981 l 15.47799,-9.00981 24,24.4163 c 50.02018,50.88782 86.24973,83.39941 125,112.17223 13.60272,10.10028 44.56825,31.29669 45.83913,31.37764 0.46153,0.0294 -1.4961,-4.31709 -4.35028,-9.65886 z" />
</svg>
