<?xml version="1.0" encoding="UTF-8" standalone="no"?>
<!-- Created with Inkscape (http://www.inkscape.org/) -->

<svg
   xmlns:dc="http://purl.org/dc/elements/1.1/"
   xmlns:cc="http://creativecommons.org/ns#"
   xmlns:rdf="http://www.w3.org/1999/02/22-rdf-syntax-ns#"
   xmlns:svg="http://www.w3.org/2000/svg"
   xmlns="http://www.w3.org/2000/svg"
   version="1.1"
   width="512"
   height="512"
   id="svg2">
  <metadata
     id="metadata8">
    <rdf:RDF>
      <cc:Work
         rdf:about="">
        <dc:format>image/svg+xml</dc:format>
        <dc:type
           rdf:resource="http://purl.org/dc/dcmitype/StillImage" />
        <dc:title></dc:title>
      </cc:Work>
    </rdf:RDF>
  </metadata>
  <defs
     id="defs6" />
  <path
     d="m 0,0 512,0 0,512 -512,0 z"
     id="rect3020"
     style="fill:#000000;fill-opacity:1;fill-rule:nonzero;stroke:none" />
  <path
     d="m 493.50949,481.25 c -0.81088,-2.0625 -7.75603,-20.34363 -15.43366,-40.62474 l -13.95934,-36.87474 11.50012,-22.98357 c 6.32506,-12.64096 11.31014,-23.17354 11.07794,-23.40573 -0.23219,-0.2322 -16.12096,8.13851 -35.30836,18.60156 -19.1874,10.46305 -34.99554,18.68926 -35.12919,18.28047 -0.13365,-0.40879 10.994,-31.7656 24.72811,-69.68181 13.73411,-37.9162 24.83288,-69.07678 24.66394,-69.24572 -0.16894,-0.16895 -20.1771,10.0409 -44.46258,22.68855 C 396.901,290.65192 376.76986,301 376.45062,301 c -0.31924,0 15.45139,-31.725 35.04585,-70.5 19.59445,-38.775 35.37195,-70.5 35.0611,-70.5 -0.31085,0 -28.35097,17.92494 -62.31137,39.83321 -33.96041,21.90826 -62.28694,40.14637 -62.94784,40.52912 -1.09273,0.63285 11.29402,-20.29529 78.59321,-132.78779 12.14996,-20.309009 21.93062,-37.085682 21.7348,-37.281499 -0.19581,-0.195817 -40.93883,21.536164 -90.54004,48.293289 -49.60121,26.75713 -90.35943,48.4739 -90.57383,48.2595 -0.2144,-0.2144 6.2854,-22.20492 14.444,-48.86783 8.1586,-26.662898 14.51349,-48.600505 14.12196,-48.750234 -0.39152,-0.149729 -23.80979,5.359876 -52.0406,12.243566 l -51.32873,12.5158 -62.10456,-35.126583 C 69.447055,39.540929 39.5875,22.626064 37.25,21.271961 34.9125,19.917859 33,19.054498 33,19.353382 c 0,1.083681 101.30322,108.155328 102.62462,108.468288 0.74699,0.17691 22.97074,-5.85188 49.38612,-13.39732 26.41539,-7.54543 48.24054,-13.5064 48.50035,-13.2466 0.2598,0.25981 -10.59123,26.7636 -24.11342,58.89731 -13.52219,32.13372 -25.43976,60.56969 -26.48349,63.19106 l -1.8977,4.76612 4.24176,-2.15222 C 187.59121,224.69629 220.775,207.42365 259,187.49637 c 38.225,-19.92729 72.3422,-37.66251 75.816,-39.41161 l 6.316,-3.18018 -5.9594,11.29771 C 331.89493,162.41603 314.48904,196.075 296.49285,231 c -17.9962,34.925 -34.47841,66.81419 -36.62715,70.86487 -2.95329,5.56738 -3.4812,7.20156 -2.16302,6.69573 0.95907,-0.36803 26.05581,-15.87238 55.77054,-34.45412 29.71473,-18.58173 54.59856,-34.1146 55.29739,-34.51748 0.95065,-0.54805 0.89607,0.2299 -0.21673,3.08924 -5.45403,14.01422 -41.53847,114.86191 -41.32207,115.48567 0.14751,0.42517 20.47087,-9.5726 45.16303,-22.21726 24.69216,-12.64467 45.04013,-22.84502 45.2177,-22.66744 0.17758,0.17757 -8.91982,25.65518 -20.21644,56.61689 -11.29661,30.96172 -20.29473,56.53861 -19.99581,56.83753 0.29892,0.29892 11.44423,-1.06591 24.76734,-3.03295 l 24.22385,-3.57644 15.05426,14.34076 c 8.27984,7.88742 23.59869,22.48447 34.04187,32.43788 C 485.9308,476.8563 494.58966,485 494.72952,485 c 0.13986,0 -0.40916,-1.6875 -1.22003,-3.75 z M 483.45,499.16392 c -1.67134,-1.47091 -48.68386,-46.26036 -55.95,-53.3043 l -7,-6.78594 -33.5,4.94453 c -18.425,2.71949 -34.48302,5.10987 -35.6845,5.31196 l -2.1845,0.36744 2.29486,-6.0988 c 10.42187,-27.6972 33.70673,-92.79955 33.32701,-93.17928 -0.26198,-0.26197 -14.60104,6.78605 -31.86459,15.66227 -17.26356,8.87623 -37.5538,19.231 -45.08944,23.0106 l -13.70116,6.87202 4.35879,-12.23221 c 2.39733,-6.72772 11.60327,-32.21678 20.45766,-56.64237 8.85438,-24.42559 15.96389,-44.54516 15.7989,-44.71014 -0.16499,-0.16499 -28.18041,17.17276 -62.2565,38.52832 -34.07609,21.35557 -62.06529,38.74137 -62.19822,38.63512 -0.13293,-0.10625 19.58732,-38.56418 43.82277,-85.46206 24.23546,-46.89788 43.83709,-85.49624 43.55919,-85.77414 -0.2779,-0.2779 -33.94815,16.92125 -74.82277,38.22033 -40.87463,21.29908 -75.08063,39.12149 -76.01334,39.60536 -1.3827,0.71732 -1.17798,-0.36777 1.10868,-5.87643 1.54248,-3.71591 14.59845,-34.81336 29.01327,-69.10544 14.41481,-34.29208 26.05954,-62.49844 25.87717,-62.68081 -0.18237,-0.18237 -16.72687,4.35708 -36.76556,10.08767 -20.03869,5.73058 -36.68233,10.05082 -36.98585,9.60051 C 127.86058,146.39079 18.818795,31 18.339976,31 c -0.280672,0 1.041098,2.1375 2.937266,4.75 C 53.032606,79.501844 95,138.50642 95,139.40141 c 0,0.64005 -6.75,17.52949 -15,37.53209 -8.25,20.00261 -15,36.75141 -15,37.21957 0,0.46815 20.749359,-9.52541 46.10969,-22.20792 25.36032,-12.68251 46.21139,-22.92097 46.33571,-22.75213 0.12431,0.16884 -21.77517,37.36935 -48.66552,82.66781 -26.890358,45.29845 -48.749323,82.50306 -48.575483,82.6769 0.17384,0.17384 42.611463,-21.85998 94.305843,-48.96405 51.69437,-27.10407 94.09847,-49.19996 94.23134,-49.10199 0.13287,0.098 -22.18056,41.31943 -49.58539,91.60323 -27.40484,50.28379 -49.52518,91.55037 -49.1563,91.70351 0.5487,0.22779 124.55933,-69.17752 135.84984,-76.03138 l 3.34973,-2.03344 -1.47028,2.89319 C 283.65806,352.61793 243,441.97942 243,442.91613 c 0,0.5982 23.3983,-10.61321 51.99623,-24.91424 C 323.59415,403.70085 347.18581,392 347.42213,392 c 0.23632,0 -9.60333,20.3625 -21.86589,45.25 -12.26256,24.8875 -22.1588,45.40792 -21.99164,45.60093 0.16716,0.19301 19.79601,-2.90845 43.61966,-6.89212 L 390.5,468.71576 436,484.27652 c 43.45225,14.86043 49.61714,16.79466 47.45,14.8874 z"
     id="path2989"
     style="fill:#ffffff" />
</svg>
