<?xml version="1.0" encoding="UTF-8" standalone="no"?>
<!-- Created with Inkscape (http://www.inkscape.org/) -->

<svg
   xmlns:dc="http://purl.org/dc/elements/1.1/"
   xmlns:cc="http://creativecommons.org/ns#"
   xmlns:rdf="http://www.w3.org/1999/02/22-rdf-syntax-ns#"
   xmlns:svg="http://www.w3.org/2000/svg"
   xmlns="http://www.w3.org/2000/svg"
   version="1.1"
   width="512"
   height="512"
   id="svg2">
  <metadata
     id="metadata8">
    <rdf:RDF>
      <cc:Work
         rdf:about="">
        <dc:format>image/svg+xml</dc:format>
        <dc:type
           rdf:resource="http://purl.org/dc/dcmitype/StillImage" />
        <dc:title></dc:title>
      </cc:Work>
    </rdf:RDF>
  </metadata>
  <defs
     id="defs6" />
  <path
     d="m 0,0 512,0 0,512 -512,0 z"
     id="rect3020"
     style="fill:#000000;fill-opacity:1;fill-rule:nonzero;stroke:none" />
  <path
     d="m 123.23643,453.73976 c 11.32343,-4.17152 17.19451,-9.89242 20.92028,-20.3852 4.74762,-13.3706 0.25875,-36.16936 -11.78482,-59.85456 -5.62224,-11.05683 -19.64541,-32.97993 -25.26628,-39.5 l -3.01731,-3.5 3.50022,10.21459 c 8.28457,24.17666 11.38836,49.39534 8.03498,65.28541 -5.56406,26.36549 -23.251777,39.35 -53.6235,39.36491 -6.325,0.003 -12.85,-0.33458 -14.5,-0.7504 -1.994856,-0.50273 -2.664952,-0.42195 -2,0.24109 1.418725,1.41465 23.812544,7.77293 33.694643,9.56692 12.440327,2.25842 14.358864,2.41102 26.305357,2.09235 8.72642,-0.23278 12.39235,-0.80636 17.73643,-2.77511 z m 336.5855,34.5822 c 15.19314,-8.69756 25.75083,-17.96669 29.25559,-25.68495 2.36228,-5.20228 2.37628,-9.04736 0.0515,-14.13701 -1.74065,-3.81075 -8.57424,-10.97091 -12.64446,-13.24872 -1.79089,-1.00223 -1.70614,-1.26334 1.43072,-4.40831 8.42502,-8.44678 14.03237,-21.38132 16.12819,-37.20305 2.202,-16.62351 -1.92445,-41.08666 -10.73484,-63.63992 -10.06475,-25.76425 -27.85825,-54.23644 -45.12426,-72.2054 l -4.52132,-4.70539 4.19313,-4.54901 c 5.68355,-6.16592 11.68185,-15.63327 13.63988,-21.52834 2.10655,-6.34223 2.17919,-15.17725 0.18129,-22.04981 -6.13045,-21.08799 -37.70561,-42.6612 -79.73656,-54.4787 C 367.08293,149.11751 362.53556,148 361.83552,148 c -0.70005,0 1.07333,2.23774 3.94083,4.97276 10.10172,9.635 15.42538,20.72702 19.6912,41.02724 2.29955,10.94316 4.81574,20.87728 6.25662,24.70173 0.24902,0.66096 -1.95679,-0.10333 -4.9018,-1.69842 -8.81197,-4.77277 -22.81743,-9.76065 -33.54584,-11.94696 -12.62013,-2.57182 -34.03553,-2.8242 -44.07912,-0.51949 -12.98645,2.98002 -22.18407,10.50577 -23.68305,19.37811 -2.18426,12.92855 11.6068,30.55143 32.48564,41.51173 6.77776,3.55797 18.89666,8.45123 15.61641,6.30545 -8.20504,-5.36732 -11.66613,-9.05381 -15.18516,-16.17407 -3.21889,-6.51298 -3.70461,-8.41805 -3.66727,-14.38341 0.13789,-22.02601 21.43865,-28.94818 46.86909,-15.23118 40.65857,21.93096 77.5081,70.3918 90.53034,119.05651 2.5745,9.62103 3.08226,13.37897 3.10765,23 0.0563,21.34476 -6.13155,29.68643 -22.83077,30.77738 -20.53548,1.34158 -50.2666,-14.06533 -78.77012,-40.81929 l -8.82983,-8.28786 4.52656,-1.71825 c 6.45216,-2.44919 14.04036,-8.10581 26.9106,-20.06047 6.17237,-5.73328 13.65961,-12.43367 16.63829,-14.88976 l 5.4158,-4.46561 -14.9158,-1.782 c -18.54485,-2.21557 -31.59459,-2.52251 -37.2837,-0.87696 -7.07487,2.04639 -13.29573,9.06337 -16.13015,18.19442 l -2.32672,7.4955 -4.17052,-4.53355 C 309.62021,311.94044 288.31712,283.7863 264.45988,249 226.68232,193.91642 201.88325,162.91688 170.00941,130.93423 144.7023,105.54073 121.86298,87.689174 101.28951,77.221708 c -5.104199,-2.59694 -9.282422,-4.961586 -9.284937,-5.254771 -0.01078,-1.256363 19.725837,-8.077749 25.908947,-8.954672 6.86374,-0.973453 14.91952,-0.212561 21.80369,2.059421 1.87924,0.620204 3.62571,0.918727 3.88105,0.663384 0.98591,-0.985905 -21.1303,-20.960647 -28.9074,-26.108364 C 105.21521,33.354705 98.985089,31 91.866182,31 80.020219,31 71.454244,40.193726 65.397267,59.40867 l -1.685433,5.346809 -7.160613,0.45954 C 38.544318,66.370632 26.379617,77.835064 20.854884,98.856474 18.4675,107.94038 18.01374,129.67872 19.943882,142.5 26.507943,186.10284 47.844934,237.88874 83.5,296.75373 c 4.4,7.26421 8.289965,13.21635 8.644366,13.22697 0.354401,0.0106 -1.823559,-6.1682 -4.839911,-13.7307 C 74.693711,264.63276 61.62034,221.30633 57.517626,197.53354 51.39965,162.08352 54.857668,136.6461 66.966971,128.02352 c 12.58861,-8.96388 35.155689,-1.84936 61.822049,19.49009 l 7.28902,5.83296 -5.28902,3.05231 c -22.03844,12.71849 -23.08948,30.802 -3.70114,63.67934 l 4.37676,7.42178 0.68969,-6.79795 c 0.96965,-9.55733 3.38732,-16.50839 8.1978,-23.56958 10.69192,-15.69439 14.22779,-20.96053 15.20658,-22.6479 0.93277,-1.60805 2.28255,-0.46666 11.34703,9.59514 11.92123,13.23286 25.93108,30.3628 38.78304,47.42029 C 214.25403,242.86803 256,302.6866 256,303.59186 c 0,0.234 -1.27702,2.18834 -2.83783,4.34296 -1.5608,2.15463 -4.57063,7.88824 -6.6885,12.74134 -5.91183,13.54695 -9.95547,19.08457 -17.74049,24.29494 l -6.76682,4.5289 5.70334,0.30547 c 7.65383,0.40994 24.62938,-1.38229 30.91868,-3.26431 C 267.99475,343.72639 275,337.00045 275,330.7839 c 0,-2.66559 0.71438,-2.06387 8.18949,6.89788 19.63105,23.53527 46.08417,50.15777 64.78669,65.20152 27.13006,21.82262 55.15023,36.56763 78.06659,41.08084 7.03959,1.3864 24.40592,1.45667 28.8496,0.11673 1.86581,-0.56261 3.71082,-0.82611 4.10004,-0.58556 0.95246,0.58865 2.37138,18.40952 2.11034,26.50469 -0.19653,6.09477 -1.11728,8.8004 -6.8912,20.25 -0.66813,1.3249 0.8235,0.81229 5.61038,-1.92804 z"
     id="path2989"
     style="fill:#ffffff" />
</svg>
