<?xml version="1.0" encoding="UTF-8" standalone="no"?>
<!-- Created with Inkscape (http://www.inkscape.org/) -->

<svg
   xmlns:dc="http://purl.org/dc/elements/1.1/"
   xmlns:cc="http://creativecommons.org/ns#"
   xmlns:rdf="http://www.w3.org/1999/02/22-rdf-syntax-ns#"
   xmlns:svg="http://www.w3.org/2000/svg"
   xmlns="http://www.w3.org/2000/svg"
   xmlns:sodipodi="http://sodipodi.sourceforge.net/DTD/sodipodi-0.dtd"
   xmlns:inkscape="http://www.inkscape.org/namespaces/inkscape"
   id="svg2"
   version="1.1"
   inkscape:version="0.48.3.1 r9886"
   width="400"
   height="400"
   sodipodi:docname="Icon.1_98.svg">
  <metadata
     id="metadata8">
    <rdf:RDF>
      <cc:Work
         rdf:about="">
        <dc:format>image/svg+xml</dc:format>
        <dc:type
           rdf:resource="http://purl.org/dc/dcmitype/StillImage" />
        <dc:title />
      </cc:Work>
    </rdf:RDF>
  </metadata>
  <defs
     id="defs6" />
  <sodipodi:namedview
     pagecolor="#ffffff"
     bordercolor="#666666"
     borderopacity="1"
     objecttolerance="10"
     gridtolerance="10"
     guidetolerance="10"
     inkscape:pageopacity="0"
     inkscape:pageshadow="2"
     inkscape:window-width="1216"
     inkscape:window-height="1000"
     id="namedview4"
     showgrid="false"
     inkscape:zoom="7.31"
     inkscape:cx="175.84075"
     inkscape:cy="95.878449"
     inkscape:window-x="64"
     inkscape:window-y="24"
     inkscape:window-maximized="1"
     inkscape:current-layer="svg2" />
  <rect
     style="fill:#000000;fill-opacity:1;stroke:#ffffff;stroke-width:1.22761154;stroke-linecap:butt;stroke-linejoin:miter;stroke-miterlimit:4;stroke-opacity:1;stroke-dasharray:none"
     id="rect3163"
     width="398.7724"
     height="398.7724"
     x="0.61380577"
     y="0.61380756" />
  <path
     style="fill:#ffffff"
     d="m 149.5618,119.83103 c 2.02187,-1.19293 6.43509,-3.17944 9.80716,-4.41447 5.30922,-1.94452 6.09598,-2.55857 5.86945,-4.58104 -0.34264,-3.05909 -11.39394,-57.239812 -11.75961,-57.653299 -0.94186,-1.065033 -37.10307,23.782788 -38.94241,26.758898 -0.55561,0.898989 29.43875,42.044361 30.65645,42.053621 0.38106,0.003 2.3471,-0.97077 4.36896,-2.16371 z"
     id="path3760" />
  <path
     style="fill:#ffffff"
     d="m 111.60888,168.93836 c 0.68147,-2.9911 2.17469,-7.61651 3.31827,-10.2787 1.14357,-2.66218 1.83889,-5.2292 1.54515,-5.70449 -0.83774,-1.35548 -39.526018,-32.9602 -40.289997,-32.91316 -2.237175,0.13773 -27.426776,39.17351 -26.053019,40.3738 0.693542,0.60596 58.365986,14.39101 59.305636,14.17542 0.51421,-0.11798 1.49249,-2.66177 2.17396,-5.65287 z"
     id="path3758" />
  <path
     style="fill:#ffffff"
     d="m 170.5,373.89555 c 15.16807,-2.10782 24.49386,-7.22887 24.49386,-7.22887 0,0 -0.897,-16.11668 -1.98582,-33.16668 -1.08883,-17.05 -1.98607,-32.83032 -1.99386,-35.06738 L 191,294.36524 l 5.39671,-1.70116 c 2.96819,-0.93564 10.15107,-4.11688 15.96195,-7.06942 l 10.56524,-5.36825 1.45489,5.1368 c 0.80019,2.82523 4.93837,18.30041 9.19596,34.38927 l 7.74107,29.25248 4.59209,-2.64697 c 10.22099,-5.89157 34.0466,-23.1666 34.86147,-25.27671 0.14816,-0.38366 -9.45,-12.03757 -21.32925,-25.89758 l -21.59863,-25.20001 10.43389,-10.24185 c 5.73864,-5.63301 11.6147,-11.72746 13.05792,-13.54322 l 2.62404,-3.30138 27.61753,19.61093 27.61754,19.61094 1.42619,-1.80956 c 4.06594,-5.15886 16.74735,-24.77177 20.32712,-31.43766 l 4.09651,-7.62812 -9.27112,-1.66959 c -5.09912,-0.91827 -20.98669,-3.78805 -35.30573,-6.37729 l -26.0346,-4.7077 4.75059,-8.99459 c 2.61282,-4.94703 5.99567,-12.4821 7.51745,-16.7446 l 2.76686,-7.75 18.01715,-0.13037 c 9.90944,-0.0717 26.55769,-0.4092 36.99612,-0.75 L 363.45793,193.5 364.71285,188 c 3.25071,-14.2471 5.91243,-37 4.32839,-37 -0.77979,0 -63.84035,22.53206 -74.38325,26.57775 -1.16076,0.44542 -1.52212,-1.7779 -1.99379,-12.26686 C 292.34736,158.2649 291.81919,151.15 291.49049,149.5 l -0.59764,-3 36.30357,-19.39729 c 19.96697,-10.66851 36.41725,-19.48218 36.55617,-19.58592 1.31306,-0.98059 -9.97719,-25.819763 -14.02555,-30.857 l -2.28263,-2.84021 -30.90014,29.09021 C 299.54919,118.90941 285.3354,132 284.95806,132 c -0.37733,0 -1.92492,-1.78768 -3.43909,-3.97263 -3.31137,-4.7783 -10.79533,-11.9065 -15.26897,-14.54313 -1.7875,-1.0535 -3.25,-2.23091 -3.25,-2.61646 0,-0.38556 12.60263,-15.018131 28.00585,-32.516833 15.40322,-17.498703 27.86845,-32.228043 27.70051,-32.731867 -1.0017,-3.005098 -30.97947,-15.804394 -33.4459,-14.280051 -0.44192,0.273118 -8.86739,16.980192 -18.72326,37.126831 l -17.91978,36.63025 -5.55871,-0.79805 C 240.00142,103.85913 232.94255,103.5 227.37233,103.5 l -10.12766,0 1.23426,-4 c 0.67885,-2.2 6.28789,-19.448403 12.46455,-38.329784 6.17666,-18.881381 11.00497,-34.555104 10.72957,-34.830496 -0.965,-0.964998 -23.76278,1.910303 -32.42517,4.089526 l -8.74788,2.20073 -0.0837,37.376705 -0.0837,37.376709 -4.91627,1.6455 -4.91626,1.64551 5.5,0.71934 c 6.60134,0.86338 14.77938,3.14792 20.39055,5.69611 3.0106,1.3672 6.51602,1.87527 13.10945,1.90006 60.48615,0.22736 65.03552,75.82691 7.82149,129.97415 -59.08716,55.91995 -132.66318,41.70076 -124.45718,-24.05241 l 1.2648,-10.13458 -2.03102,-8.13854 C 110.98102,202.16234 109.76472,195.8 109.39519,192.5 l -0.67188,-6 -2.36605,5.30452 c -1.30133,2.91749 -3.32317,8.26712 -4.49298,11.88806 l -2.126924,6.58355 -15.118678,-0.62614 c -8.315273,-0.34438 -23.69367,-0.91876 -34.174215,-1.27641 l -19.055538,-0.65026 -2.2937,11.72645 c -1.261536,6.44955 -2.543604,16.26164 -2.84904,21.80465 l -0.55534,10.07819 1.759871,-0.67532 C 30.369159,249.53737 95.752924,229 96.399886,229 c 0.330063,0 0.626055,3.9375 0.65776,8.75 0.03354,5.09122 0.824877,11.67702 1.892488,15.75 1.009163,3.85 1.499926,7.12777 1.090576,7.28393 -6.632812,2.53031 -67.623765,33.63555 -67.836717,34.59656 C 31.52732,298.43417 45.514175,328 47.63547,328 c 0.244966,0 13.988983,-11.95099 30.542259,-26.55776 l 30.096861,-26.55775 5.19866,5.45381 c 2.85926,2.9996 7.2811,6.74996 9.82632,8.33415 l 4.62766,2.88032 -25.95013,31.84094 c -14.272564,17.51251 -25.711406,32.22718 -25.419645,32.69925 1.190498,1.92627 14.030999,8.27891 23.158209,11.45717 l 9.740176,3.39171 2.57851,-5.72092 c 1.41818,-3.14651 8.85312,-19.77545 16.52208,-36.95321 10.85119,-24.30564 14.27624,-31.09745 15.44357,-30.62431 10.49026,1.23932 18.03785,1.63824 29.82997,-0.0586 L 163.37991,336.5 c -5.47888,20.40292 -10.34659,38.20289 -10.34659,38.20289 0,0 3.77874,1.09481 17.46668,-0.80734 z"
     id="path3048"
     inkscape:connector-curvature="0"
     sodipodi:nodetypes="scsscsscsscssscsscccsscsscsscsscssssscscscssssssssscsscsssscccccsssssccscsscsscsscsssssssscsscssscssccscs" />
  <path
     sodipodi:type="arc"
     style="fill:#ffffff;fill-opacity:1;stroke:none"
     id="path2983"
     sodipodi:cx="162.86494"
     sodipodi:cy="130.98042"
     sodipodi:rx="42.355518"
     sodipodi:ry="42.355518"
     d="m 205.22046,130.98042 a 42.355518,42.355518 0 1 1 -84.71103,0 42.355518,42.355518 0 1 1 84.71103,0 z"
     transform="matrix(1.4480758,0,0,1.4480758,-49.90778,-2.7755819)" />
</svg>
