<?xml version="1.0" encoding="UTF-8" standalone="no"?>
<!-- Created with Inkscape (http://www.inkscape.org/) -->

<svg
   xmlns:dc="http://purl.org/dc/elements/1.1/"
   xmlns:cc="http://creativecommons.org/ns#"
   xmlns:rdf="http://www.w3.org/1999/02/22-rdf-syntax-ns#"
   xmlns:svg="http://www.w3.org/2000/svg"
   xmlns="http://www.w3.org/2000/svg"
   xmlns:sodipodi="http://sodipodi.sourceforge.net/DTD/sodipodi-0.dtd"
   xmlns:inkscape="http://www.inkscape.org/namespaces/inkscape"
   id="svg2"
   version="1.1"
   inkscape:version="0.48.3.1 r9886"
   width="400"
   height="400"
   sodipodi:docname="Icon.4_29.svg">
  <metadata
     id="metadata8">
    <rdf:RDF>
      <cc:Work
         rdf:about="">
        <dc:format>image/svg+xml</dc:format>
        <dc:type
           rdf:resource="http://purl.org/dc/dcmitype/StillImage" />
        <dc:title />
      </cc:Work>
    </rdf:RDF>
  </metadata>
  <defs
     id="defs6" />
  <sodipodi:namedview
     pagecolor="#ffffff"
     bordercolor="#666666"
     borderopacity="1"
     objecttolerance="10"
     gridtolerance="10"
     guidetolerance="10"
     inkscape:pageopacity="0"
     inkscape:pageshadow="2"
     inkscape:window-width="1216"
     inkscape:window-height="1000"
     id="namedview4"
     showgrid="false"
     inkscape:snap-object-midpoints="true"
     inkscape:zoom="1.995"
     inkscape:cx="200"
     inkscape:cy="200"
     inkscape:window-x="64"
     inkscape:window-y="24"
     inkscape:window-maximized="1"
     inkscape:current-layer="svg2" />
  <path
     style="fill:#000000;fill-opacity:1;stroke:#ffffff;stroke-width:3.61661673;stroke-linecap:butt;stroke-linejoin:miter;stroke-miterlimit:4;stroke-opacity:1"
     d="m 1.8083084,1.8082856 396.3833916,0 0,396.3833944 -396.3833916,0 z"
     id="rect3332" />
  <path
     id="path3293"
     style="fill:#ffffff"
     d="m 228,22 c -2.31555,0 -9.4235,17.338364 -12.90625,31.5 l -2.21875,9 -15.6875,0.125 c -14.6846,0.114684 -23.55774,1.345184 -35.6875,4.90625 -1.69984,0.499042 -2.63094,-0.704294 -6.15625,-7.8125 C 150.18027,49.307446 143.02991,38.199381 138.75,33.90625 L 135.5,30.625 135.1875,35 c -0.40057,5.527261 2.05273,19.98547 5.25,30.96875 1.356,4.658128 2.35854,8.531465 2.25,8.59375 -0.10854,0.06229 -3.70874,1.965179 -8,4.25 -10.21001,5.436175 -18.91971,11.734625 -27.9375,20.15625 l -7.34375,6.84375 -7.4375,-4.96875 C 79.853313,92.787725 63.830405,85.223198 60.9375,86.1875 c -1.935698,0.645232 6.807186,12.541266 17.03125,23.15625 L 88.125,119.875 l -3.53125,5.5625 c -5.701658,8.91312 -10.462244,18.99188 -14.15625,30.03125 -1.893195,5.65774 -3.438024,10.90091 -3.4375,11.65625 7.79e-4,1.12237 -3.007225,1.30495 -16.4375,1.03125 C 34.934737,167.83778 23,169.05079 23,170.9375 c 0,2.32312 18.513307,9.8533 33.5,13.625 l 7,1.75 0.09375,14.59375 c 0.09231,13.38189 1.591955,24.43186 4.96875,36.65625 0.492163,1.78169 -0.704454,2.74396 -8.65625,6.875 C 44.627324,252.37507 33,260.47312 33,263.1875 c 0,2.31244 20.167684,-0.32809 34.625,-4.53125 l 8.03125,-2.3125 2.90625,5.5625 c 4.921987,9.46518 13.930951,22.22901 21.40625,30.3125 l 7.125,7.71875 -4.9375,7.34375 C 96.198457,316.11032 88.437626,331.21802 87.5,335.8125 l -0.6875,3.3125 3.90625,-2 c 5.654709,-2.88482 13.63935,-9.25051 22.8125,-18.25 l 8,-7.875 5.40625,3.65625 c 2.97918,2.0063 9.51399,5.55568 14.5,7.90625 7.83207,3.69229 12.65484,5.45429 25.5625,9.34375 l 2.5,0.78125 -0.375,14.46875 C 168.75665,361.57019 170.23838,376 172.09375,376 c 0.50839,0 1.84071,-1.4625 2.9375,-3.25 2.94947,-4.80691 7.6246,-17.40055 10.28125,-27.65625 l 2.34375,-9.03125 15.4375,-0.46875 c 13.88294,-0.40237 25.09228,-2.02757 35.59375,-5.15625 1.95033,-0.58105 2.69837,0.37049 6.78125,8.5 5.83792,11.62398 12.3724,21.72933 16.53125,25.5625 l 3.25,3 -0.5625,-10 c -0.355,-6.39386 -1.67357,-14.26689 -3.65625,-21.8125 -2.93847,-11.18311 -3.10741,-13.6875 -1,-13.6875 1.41594,0 16.84784,-9.36163 22.96875,-13.9375 3.025,-2.26143 8.2648,-6.85576 11.65625,-10.1875 l 6.1875,-6.0625 7.375,5 c 9.1541,6.17712 24.11775,13.90124 28.6875,14.8125 2.97526,0.59331 3.33036,0.48116 2.75,-1.03125 -1.66483,-4.33846 -8.65788,-13.45229 -17.46875,-22.71875 l -9.59375,-10.09375 1.875,-3.125 c 8.20819,-13.79077 11.79816,-21.37136 15.4375,-32.40625 l 4.21875,-12.75 17.6875,0 c 17.75335,0 25.1875,-0.7582 25.1875,-2.5625 0,-2.5886 -15.93054,-9.40884 -30.75,-13.15625 l -9,-2.25 L 336.6875,195 c -0.51403,-14.78807 -2.49761,-28.41207 -5.125,-35.0625 -0.45693,-1.15658 0.94694,-2.30183 5.59375,-4.5 C 350.12625,149.30205 368,137.29883 368,134.71875 c 0,-1.92656 -18.0502,0.0143 -30.8125,3.3125 -6.76778,1.74899 -12.41094,3.04265 -12.5625,2.84375 -0.15157,-0.19889 -1.99124,-3.525 -4.09375,-7.375 -5.36711,-9.82793 -14.25346,-21.94546 -21.3125,-29.0625 l -6,-6.03125 5.75,-8.78125 c 7.02829,-10.690453 14.32157,-25.717799 13.875,-28.625 -0.31107,-2.025091 -0.68796,-1.906233 -6.71875,2 -3.50331,2.269145 -10.94879,8.569525 -16.5625,14.03125 l -10.21875,9.9375 -4.78125,-3.03125 C 265.0368,77.896483 252.40134,72.010888 241.25,68.40625 232.19089,65.477919 230.02466,64.394983 230.5,63.15625 231.21375,61.296265 231.35075,31.148653 230.65625,29 230.38958,28.175 229.89392,26.2625 229.5625,24.75 229.23108,23.2375 228.53026,22 228,22 z m -27.34375,54.53125 c 4.72314,-0.09373 8.26275,0.08393 8.8125,0.625 0.36037,0.354685 0.34865,3.392185 -0.0312,6.75 L 208.75,90 l -9.625,0.03125 c -8.52161,0.0309 -19.42403,1.405389 -27.25,3.4375 -2.49793,0.648618 -2.74582,0.372175 -4.75,-5.5625 -1.16129,-3.438769 -1.9299,-6.41385 -1.71875,-6.625 0.21115,-0.21115 4.82747,-1.309513 10.25,-2.4375 5.99398,-1.246857 17.12809,-2.156292 25,-2.3125 z M 229.46875,80 c 4.86007,0 26.68489,9.271178 36.75,15.625 l 3.84375,2.4375 -3.21875,4.53125 c -4.45563,6.20436 -4.91317,6.40922 -8.34375,4.1875 -5.75447,-3.72673 -19.05822,-9.875895 -25.8125,-11.9375 -6.44938,-1.968539 -6.77434,-2.220233 -6.28125,-4.71875 0.28613,-1.449836 0.80123,-4.3125 1.15625,-6.375 0.35502,-2.0625 1.21266,-3.75 1.90625,-3.75 z m -81.75,7.96875 2.71875,6.25 c 1.4891,3.43356 2.28228,6.36424 1.78125,6.53125 -3.0223,1.00744 -17.81444,11.00584 -23.90625,16.15625 -3.95585,3.34452 -7.39578,6.09375 -7.625,6.09375 -0.22923,0 -2.55218,-1.89905 -5.1875,-4.21875 l -4.8125,-4.21875 5.90625,-5.375 C 123.9929,102.43049 132.59023,96.268383 141.125,91.59375 z M 207.5,104.5 l 0.59375,9.5 c 0.66631,10.78841 1.63848,16 3,16 1.48547,0 4.67826,-5.8193 8.09375,-14.75 1.73533,-4.5375 3.55843,-8.25 4.03125,-8.25 3.66233,0 22.07001,7.97513 27.90625,12.09375 l 2.625,1.875 -3.78125,7.25 c -3.97051,7.6251 -6.68101,15.41274 -5.71875,16.375 0.94286,0.94286 6.14551,-2.21508 14.09375,-8.53125 l 7.53125,-5.96875 4.84375,5.6875 c 6.89731,8.12714 9.6412,12.0118 12.53125,17.71875 l 2.53125,5 -6.125,3.65625 C 272.94853,166.14703 265,172.59909 265,174.0625 c 0,1.3641 7.37471,1.12041 16.9375,-0.5625 4.63732,-0.81609 8.68769,-1.21856 9,-0.90625 1.37715,1.37714 3.09161,11.82127 3.6875,22.40625 l 0.65625,11.5 -8.40625,0.28125 c -8.78309,0.28928 -17.875,1.89159 -17.875,3.15625 0,1.08256 8.5717,5.55307 15.5,8.09375 3.3,1.21014 6.37624,2.57291 6.84375,3 0.46752,0.42709 0.12789,3.23015 -0.75,6.25 -1.99844,6.87436 -10.31435,23.67292 -12.0625,24.34375 -0.71745,0.27531 -4.60052,-1.1608 -8.625,-3.1875 -7.91598,-3.98642 -14.96336,-6.6929 -15.625,-6.03125 -0.89514,0.89514 3.95016,8.75285 9.25,15 3.07031,3.61911 5.35844,6.98991 5.0625,7.46875 -2.12101,3.43187 -24.37812,19.14177 -27.09375,19.125 -0.55,-0.003 -2.77884,-2.81731 -4.9375,-6.25 -4.51691,-7.18275 -10.49527,-13.91239 -11.71875,-13.15625 -1.24691,0.77064 -1.01579,5.865 0.71875,15.78125 0.85268,4.87472 1.34225,9.064 1.09375,9.3125 -2.35978,2.35978 -31.81071,5.50611 -33.03125,3.53125 -0.35828,-0.57972 -0.87886,-4.56481 -1.1875,-8.875 -0.71869,-10.0367 -2.34053,-17.51259 -3.625,-16.71875 -1.37587,0.85033 -7.28147,13.34096 -8.90625,18.84375 -0.73439,2.48722 -1.74371,4.53125 -2.21875,4.53125 -3.68885,0 -27.63046,-10.59921 -30.5625,-13.53125 -0.25833,-0.25834 1.59776,-4.8585 4.125,-10.21875 5.58521,-11.84615 6.36744,-14.25 4.5625,-14.25 -1.81065,0 -8.1149,4.25512 -14.96875,10.125 l -5.6875,4.875 -5.8125,-6.40625 C 124.18949,255.95394 115,242.27018 115,240.21875 c 0,-0.41623 3.0375,-2.63716 6.75,-4.9375 7.34819,-4.55308 13.25,-9.54871 13.25,-11.21875 0,-1.73557 -13.09734,-0.94549 -23.65625,1.4375 -1.91259,0.43164 -2.29978,-0.11888 -3.3125,-4.75 -1.76932,-8.09097 -3.12965,-22.74803 -2.4375,-26.4375 l 0.625,-3.3125 7.21875,0 c 7.59799,0 18.5625,-1.7721 18.5625,-3 0,-1.04002 -10.43602,-6.311 -17.75,-8.96875 -3.4375,-1.24912 -6.25,-2.38289 -6.25,-2.5 0,-0.1171 0.94656,-3.09667 2.09375,-6.625 2.06502,-6.35129 6.30113,-15.48271 10,-21.53125 L 122,145.25 l 6.5625,3.46875 c 7.96472,4.22928 16.8278,7.45424 17.25,6.28125 0.55259,-1.5353 -2.93465,-7.34993 -8.59375,-14.3125 l -5.53125,-6.78125 3.90625,-4.0625 c 4.37726,-4.53213 10.20971,-8.83395 18.3125,-13.5 l 5.46875,-3.125 4.375,7.125 C 168.06599,127.37697 173.61177,134 175.1875,134 c 1.2121,0 0.90084,-9.54559 -0.59375,-18 -0.91316,-5.1655 -1.00211,-7.69415 -0.28125,-8.15625 2.30936,-1.48038 14.7261,-3.21224 23.6875,-3.28125 z m 77.15625,5.46875 5,5.25 c 2.74071,2.89858 7.04412,8.07829 9.5625,11.5 4.72405,6.41852 12.22823,19.16296 11.625,19.75 -0.30869,0.30041 -11.92121,5.55843 -12.21875,5.53125 -0.0691,-0.006 -1.025,-1.91874 -2.125,-4.21875 -2.63792,-5.51568 -10.06058,-16.01138 -15.9375,-22.53125 l -4.71875,-5.21875 1.96875,-2.78125 c 1.08965,-1.52089 3.09898,-3.78267 4.4375,-5.03125 z M 99.5,129.0625 l 5.3125,4.0625 c 4.99478,3.82127 5.20344,4.18465 3.875,6.21875 -4.40652,6.74722 -8.20399,14.66639 -11.21875,23.34375 -3.750745,10.79575 -3.74443,10.78511 -11.71875,9.09375 -2.6125,-0.55411 -4.75,-1.32971 -4.75,-1.75 0,-4.66966 12.261531,-33.04075 16.75,-38.75 z m 217.375,35.3125 c 0.55587,0.0405 0.88294,0.25265 1.09375,0.59375 1.86615,3.01949 4.4581,21.38171 4.5,32 0.0507,12.84694 0.5355,12.14963 -7.96875,11.125 L 309.5,207.5 308.78125,194 c -0.38794,-7.425 -1.34254,-16.2 -2.15625,-19.5 -0.81372,-3.3 -1.18915,-6.28011 -0.8125,-6.625 0.37666,-0.34489 3.11051,-1.41677 6.0625,-2.375 2.54631,-0.82654 4.07355,-1.19245 5,-1.125 z M 78,188.71875 82.625,189.375 C 85.176764,189.72475 88.059809,190 89,190 c 1.490594,0 1.768739,1.63226 2.3125,12.75 0.342977,7.0125 1.304523,15.45 2.125,18.75 0.820477,3.3 1.511659,6.53952 1.53125,7.1875 C 94.99696,229.6205 85.486494,234 83.4375,234 83.169519,234 82.51147,232.83372 81.96875,231.40625 79.867374,225.87921 78,211.21731 78,200.21875 z M 306.09375,224.25 312.75,225.65625 c 3.6526,0.76565 6.72151,1.50111 6.84375,1.625 0.12224,0.12389 -1.2146,4.49375 -2.96875,9.71875 -3.68035,10.96247 -13.63407,30.39273 -15.71875,30.6875 -0.77872,0.11011 -3.47247,-1.39092 -6,-3.34375 l -4.59375,-3.53125 4.375,-7.65625 c 4.40943,-7.72811 9.53522,-20.04911 10.75,-25.78125 z M 101.5,246.21875 l 3.65625,6.3125 c 4.40754,7.59461 10.15813,15.41519 15.6875,21.34375 l 4.0625,4.375 -4.09375,4.875 c -2.26288,2.68364 -4.46774,4.875 -4.875,4.875 -0.40727,0 -3.37794,-3.0375 -6.625,-6.75 -7.36461,-8.42028 -11.986422,-14.86651 -16.65625,-23.3125 l -3.625,-6.59375 6.21875,-2.5625 z m 178.03125,28.03125 5,4.40625 4.96875,4.375 -5.8125,5.5 c -6.93334,6.55266 -14.02675,11.85532 -22.1875,16.59375 -9.20353,5.34391 -8.72034,5.40676 -11.65625,-1.625 l -2.625,-6.25 3.65625,-1.71875 c 5.64057,-2.67549 14.98694,-9.22103 22.15625,-15.53125 z m -141.125,14.78125 4.03125,2.53125 c 6.6049,4.13435 17.56475,9.10078 25.1875,11.40625 l 7.125,2.15625 -0.875,4.1875 c -0.48846,2.30398 -1.12522,5.2 -1.40625,6.4375 -0.64843,2.85532 -1.16561,2.83439 -11.75,-0.75 -4.82562,-1.6342 -10.67562,-3.9362 -13,-5.09375 -7.19492,-3.58309 -16.66915,-9.3725 -16.6875,-10.1875 -0.01,-0.42679 1.62084,-2.99239 3.65625,-5.71875 z m 91.65625,15.375 c 0.41987,-0.0116 0.69943,0.0119 0.78125,0.0937 0.83209,0.8321 4.15526,9.7597 4.15625,11.15625 0.002,2.91762 -32.00832,7.18394 -42.15625,5.625 -2.4684,-0.3792 -2.61578,-0.68361 -2.1875,-4.59375 0.99382,-9.0735 -0.12808,-8.33787 13.5625,-8.96875 6.74721,-0.31092 15.37909,-1.29097 19.15625,-2.1875 2.83287,-0.67239 5.42788,-1.09006 6.6875,-1.125 z"
     inkscape:connector-curvature="0"
     sodipodi:nodetypes="scccsscccscscccscccsssscccsssccccccccccccscccsscccsscccssscccsscccccsscccsssscscccsscccssssssscccsssssscccsssssccssscccccccssscccsccccccssscccssssssssscsssscsssscsscccsssssccssssscccsccccccsssccccsscscccccccsssscccsscccssscccssssssscccsssccccccccccssccccccccsccccccccccsssccccccsssscc" />
  <path
     transform="matrix(1.0617285,0,0,1.0617285,-24.06887,-9.5940833)"
     style="fill:#ffffff;fill-opacity:1;stroke:#ffffff;stroke-width:0.55500001;stroke-linecap:butt;stroke-linejoin:miter;stroke-miterlimit:4;stroke-opacity:1"
     d="m 257.20338,196.61017 c 0,25.27405 -20.48866,45.76271 -45.76271,45.76271 -25.27404,0 -45.76271,-20.48866 -45.76271,-45.76271 0,-25.27405 20.48867,-45.76271 45.76271,-45.76271 25.27405,0 45.76271,20.48866 45.76271,45.76271 z"
     id="path3299" />
</svg>
