<?xml version="1.0" encoding="UTF-8" standalone="no"?>
<!-- Created with Inkscape (http://www.inkscape.org/) -->

<svg
   xmlns:dc="http://purl.org/dc/elements/1.1/"
   xmlns:cc="http://creativecommons.org/ns#"
   xmlns:rdf="http://www.w3.org/1999/02/22-rdf-syntax-ns#"
   xmlns:svg="http://www.w3.org/2000/svg"
   xmlns="http://www.w3.org/2000/svg"
   xmlns:sodipodi="http://sodipodi.sourceforge.net/DTD/sodipodi-0.dtd"
   xmlns:inkscape="http://www.inkscape.org/namespaces/inkscape"
   id="svg2"
   version="1.1"
   inkscape:version="0.48.3.1 r9886"
   width="400"
   height="400"
   sodipodi:docname="Icon.2_66.svg">
  <metadata
     id="metadata8">
    <rdf:RDF>
      <cc:Work
         rdf:about="">
        <dc:format>image/svg+xml</dc:format>
        <dc:type
           rdf:resource="http://purl.org/dc/dcmitype/StillImage" />
        <dc:title></dc:title>
      </cc:Work>
    </rdf:RDF>
  </metadata>
  <defs
     id="defs6" />
  <sodipodi:namedview
     pagecolor="#ffffff"
     bordercolor="#666666"
     borderopacity="1"
     objecttolerance="10"
     gridtolerance="10"
     guidetolerance="10"
     inkscape:pageopacity="0"
     inkscape:pageshadow="2"
     inkscape:window-width="1216"
     inkscape:window-height="1000"
     id="namedview4"
     showgrid="false"
     inkscape:zoom="1.18"
     inkscape:cx="270.59676"
     inkscape:cy="195.55429"
     inkscape:window-x="64"
     inkscape:window-y="24"
     inkscape:window-maximized="1"
     inkscape:current-layer="svg2" />
  <rect
     style="fill:#000000;fill-opacity:1;stroke:none"
     id="rect3912"
     width="400"
     height="400"
     x="0"
     y="7.6293945e-06" />
  <path
     id="path3891"
     style="fill:#ffffff;fill-opacity:1"
     d="m 197.2369,328.5 c -0.57616,-2.75 -2.52708,-12.7625 -4.33537,-22.25 -1.98388,-10.40875 -3.74318,-17.25 -4.43601,-17.25 -0.63151,0 -8.27491,2.93573 -16.98532,6.52385 -8.71042,3.58811 -16.21078,6.39929 -16.66746,6.24706 -0.45669,-0.15223 6.30154,-7.39821 15.01828,-16.10218 l 15.84863,-15.82541 -2.19089,-11.51019 c -1.51609,-7.96503 -1.85176,-11.62368 -1.08983,-11.87862 0.60559,-0.20263 2.59102,-0.73185 4.41207,-1.17605 1.82105,-0.44421 3.33101,-1.15031 3.35547,-1.56911 0.15752,-2.69718 -4.67541,-18.96742 -5.75743,-19.38263 -0.72961,-0.27997 -2.80762,-0.0518 -4.6178,0.50705 -1.81018,0.55885 -5.92399,1.7506 -9.14181,2.64833 l -5.85056,1.63224 0.72317,3.69283 c 0.39774,2.03106 0.7805,4.30827 0.85056,5.06047 0.0817,0.87684 -3.62529,2.67116 -10.32974,5 L 145.58571,246.5 139.6087,268.29663 c -3.28735,11.98814 -6.2782,21.21314 -6.64632,20.5 -0.36813,-0.71315 -1.69264,-9.05913 -2.94336,-18.54663 -1.25072,-9.4875 -2.61393,-17.25 -3.02935,-17.25 -0.41541,0 -10.08631,3.17172 -21.49089,7.04827 -11.404566,3.87654 -20.893532,6.89031 -21.086586,6.69726 -0.193054,-0.19306 6.812555,-6.55385 15.568019,-14.1351 8.755467,-7.58125 16.378867,-14.33817 16.940887,-15.01537 0.76059,-0.91645 -2.93556,-4.25916 -14.4559,-13.07355 -8.512774,-6.51325 -15.331264,-11.98878 -15.152201,-12.16784 0.179064,-0.17907 10.364459,2.37543 22.634211,5.67665 18.41548,4.95476 22.59171,5.78386 23.93072,4.75091 0.89214,-0.68822 4.90234,-4.1416 8.91155,-7.67417 l 7.28948,-6.42286 3.24662,3.14675 3.24663,3.14675 7.43887,-7.48885 7.43886,-7.48885 -7.43886,-7.48885 -7.43887,-7.48885 -3.08371,2.98885 c -1.69604,1.64387 -3.51229,2.98814 -4.03611,2.98728 -0.52381,-8.6e-4 -4.55239,-3.13998 -8.95239,-6.97581 -4.4,-3.83584 -8.42126,-6.98513 -8.93614,-6.99843 -0.51488,-0.0133 -10.36085,2.46734 -21.87994,5.51254 -11.519085,3.0452 -21.117195,5.36333 -21.329133,5.15139 -0.211938,-0.21194 6.155615,-5.48872 14.150123,-11.72618 7.9945,-6.23746 14.41387,-11.66939 14.26527,-12.07095 C 116.62158,163.48943 108.9625,156.5685 99.75,148.51116 90.5375,140.45381 83,133.69366 83,133.4886 c 0,-0.20505 9.738687,2.98744 21.64153,7.09443 11.90284,4.10699 21.74051,7.34344 21.86149,7.19211 0.12098,-0.15133 1.21431,-8.15014 2.42963,-17.77514 1.21532,-9.625 2.52562,-18.32143 2.91177,-19.3254 0.45682,-1.18772 2.82295,6.13001 6.77321,20.94748 l 6.07112,22.77288 10.90562,3.67811 c 5.9981,2.02296 10.8327,4.0716 10.74356,4.55252 -0.0891,0.48093 -0.4655,2.50213 -0.83637,4.49156 l -0.67429,3.61714 7.83636,2.10728 c 13.42509,3.61013 12.27231,4.17262 15.41145,-7.51992 l 2.73262,-10.17834 -3.67431,-0.62077 c -6.17953,-1.04403 -6.15918,-0.97196 -3.67757,-13.02266 L 185.72102,130.5 169.65784,114.28601 c -8.83476,-8.9177 -15.85949,-16.412612 -15.61052,-16.655369 0.24898,-0.242756 8.05256,2.666039 17.34131,6.463989 9.28875,3.79795 17.16375,6.90456 17.5,6.90357 0.33625,-9.9e-4 2.59021,-10.22393 5.00878,-22.717647 2.8119,-14.525502 4.65441,-22.006402 5.11019,-20.748202 0.39203,1.082207 2.41517,10.967649 4.49587,21.967649 2.08069,11 4.05611,20.31125 4.38981,20.69166 0.33369,0.38042 8.59422,-2.60098 18.35672,-6.62532 9.7625,-4.024347 17.75,-7.040562 17.75,-6.702703 0,0.337859 -7.29049,7.914843 -16.2011,16.837743 l -16.2011,16.22344 1.76283,9.28759 c 0.96955,5.10818 2.0012,10.2697 2.29255,11.47005 0.45399,1.87039 -0.091,2.36089 -3.81172,3.43033 -2.3878,0.68634 -4.46129,1.32406 -4.60776,1.41718 -0.2941,0.18697 4.80054,19.77756 5.27669,20.29067 0.16365,0.17634 4.86123,-0.90575 10.43907,-2.40465 l 10.14152,-2.72529 -0.68915,-3.09535 c -0.37904,-1.70244 -0.73701,-3.72163 -0.79549,-4.48708 -0.0696,-0.91085 3.66163,-2.65657 10.79843,-5.05224 7.91052,-2.65539 11.10635,-4.20544 11.63893,-5.64512 0.40379,-1.09155 3.09967,-10.96804 5.99086,-21.94777 2.89118,-10.97973 5.55906,-20.30854 5.92862,-20.73069 0.36955,-0.42215 1.69319,7.22785 2.94143,17 1.24823,9.77215 2.47962,18.53601 2.73641,19.47524 0.40814,1.49277 3.16597,0.7764 21.91294,-5.69211 11.79532,-4.06989 21.41517,-7.08835 21.37743,-6.70769 C 314.89366,134.18855 307.27453,141.025 298,149 c -9.27453,7.975 -16.87127,14.725 -16.88165,15 -0.0104,0.275 6.67739,5.66887 14.86168,11.98638 8.1843,6.31751 14.73474,11.63218 14.55654,11.81038 -0.1782,0.17821 -9.76711,-2.17816 -21.30868,-5.23637 C 277.68632,179.50217 267.6999,177 267.03584,177 c -0.66405,0 -5.07314,3.38883 -9.79796,7.53074 l -8.59058,7.53075 -3.83483,-3.74461 -3.83483,-3.74461 -7.49027,7.44028 -7.49027,7.44028 7.71614,7.76167 7.71614,7.76166 3.24435,-3.14455 3.24435,-3.14454 5.68108,4.90646 c 3.12459,2.69856 7.20345,6.18533 9.06414,7.74838 l 3.38307,2.84192 21.22681,-5.64777 c 11.67475,-3.10628 21.81269,-5.84248 22.52876,-6.08046 2.8426,-0.94472 -0.5247,1.98498 -14.82865,12.90153 l -14.93319,11.39677 17.00961,14.76006 c 9.35529,8.11803 16.83775,14.93191 16.6277,15.14196 -0.21005,0.21006 -9.75713,-2.78018 -21.21572,-6.64496 -13.07046,-4.40844 -21.07108,-6.64298 -21.47054,-5.99664 -0.3502,0.56664 -1.67608,8.92562 -2.94639,18.57551 -1.27032,9.64989 -2.65553,17.17737 -3.07824,16.72772 -0.42272,-0.44965 -3.33441,-10.29953 -6.47042,-21.88862 l -5.70184,-21.07107 -9.64713,-3.18581 c -13.04425,-4.30767 -12.78587,-4.09676 -11.25966,-9.19081 0.68813,-2.29677 1.03972,-4.38738 0.7813,-4.6458 C 232.08958,228.75624 214.93256,224 213.42245,224 c -1.12509,0 -6.63587,18.84566 -5.87214,20.08141 0.23518,0.38052 1.99178,0.98531 3.90357,1.34396 1.91178,0.35865 3.67885,0.98038 3.92683,1.38162 0.24798,0.40123 -0.3935,4.7713 -1.4255,9.71126 -1.03201,4.93996 -1.89411,10.11202 -1.91579,11.49347 -0.0304,1.93551 3.6229,6.16868 15.92475,18.4525 8.78029,8.76743 15.80012,16.10483 15.59961,16.30533 -0.2005,0.2005 -8.11481,-2.85019 -17.58734,-6.77932 -9.47254,-3.92913 -17.55967,-6.77181 -17.9714,-6.31705 -0.41174,0.45475 -2.40714,9.60182 -4.43423,20.32682 -4.53575,23.99793 -4.93667,25.16894 -6.33391,18.5 z m 22.07155,15.42011 c 32.21826,-4.83795 60.51719,-19.04466 83.00784,-41.67186 C 351.039,253.22975 358.5762,177.28218 320.45263,119.5 270.63999,44.001221 163.57736,32.142568 98.637244,94.930909 74.216287,118.54268 59.809938,146.86408 54.939884,180.83542 53.401764,191.56467 54.27998,218.88375 56.488213,229 69.569089,288.92545 115.77229,333.19513 176,343.51042 c 9.39491,1.60908 33.78461,1.8398 43.30845,0.40969 z M 188.5,359.33471 C 156.63769,357.39245 124.4338,344.7786 98.988258,324.27411 67.499426,298.89982 47.169164,263.26483 40.924702,222.5 39.298296,211.88257 39.287299,187.59749 40.904097,177 46.191765,142.34137 61.681797,111.5421 86.111948,87.111948 116.62126,56.60264 156.58517,39.949782 199.12834,40.01832 260.80099,40.11768 315.19937,74.264069 343.27409,130.5 c 16.03042,32.11024 20.00303,74.91968 10.30053,111 -10.42766,38.77695 -37.21064,74.35689 -71.50958,94.99713 -21.52778,12.95487 -43.9773,20.2473 -69.20471,22.48023 -10.98477,0.97229 -13.63472,1.01117 -24.36033,0.35735 z m 37.5,11.17103 c 36.69128,-5.74771 69.03309,-22.30622 95.54913,-48.91969 C 353.28506,289.73352 370.02471,250.96598 371.67455,205.5 374.14124,137.52385 336.9321,75.419422 275.28128,44.613447 224.15093,19.064392 158.2653,21.903608 110.00882,51.735551 74.6913,73.568686 48.746715,105.77915 35.692513,144 7.2846819,227.1741 45.936729,318.43901 125.5,356.05275 c 31.14419,14.7235 66.40372,19.7942 100.5,14.45299 z" />
</svg>
