<?xml version="1.0" encoding="UTF-8" standalone="no"?>
<!-- Created with Inkscape (http://www.inkscape.org/) -->

<svg
   xmlns:dc="http://purl.org/dc/elements/1.1/"
   xmlns:cc="http://creativecommons.org/ns#"
   xmlns:rdf="http://www.w3.org/1999/02/22-rdf-syntax-ns#"
   xmlns:svg="http://www.w3.org/2000/svg"
   xmlns="http://www.w3.org/2000/svg"
   version="1.1"
   width="512"
   height="512"
   id="svg2">
  <metadata
     id="metadata8">
    <rdf:RDF>
      <cc:Work
         rdf:about="">
        <dc:format>image/svg+xml</dc:format>
        <dc:type
           rdf:resource="http://purl.org/dc/dcmitype/StillImage" />
        <dc:title></dc:title>
      </cc:Work>
    </rdf:RDF>
  </metadata>
  <defs
     id="defs6" />
  <path
     d="m 0,0 512,0 0,512 -512,0 z"
     id="rect3030"
     style="fill:#000000;fill-opacity:1;fill-rule:nonzero;stroke:none" />
  <path
     d="m 286.75914,89.005402 c 8.50373,-5.184787 10.39132,-16.459228 4.09563,-24.462899 -6.69694,-8.513779 -21.19569,-7.398135 -26.58832,2.045907 -4.45303,7.798549 -1.50859,19.071785 5.9402,22.742923 4.63457,2.284149 12.52649,2.128751 16.55249,-0.325931 z M 52.946528,123.04995 c 8.156932,-7.61971 1.868692,-21.2274 -9.127798,-19.75246 -9.867143,1.32346 -13.706375,12.66102 -6.670089,19.69731 4.549627,4.54962 10.962572,4.57201 15.797887,0.0551 z M 195.38398,373.77016 c 2.36402,-0.70635 5.89314,-3.00434 8.29105,-5.39871 6.34123,-6.33189 8.03565,-15.08169 4.42911,-22.87145 -5.91921,-12.78488 -21.80921,-16.58008 -32.19565,-7.68967 -10.21369,8.74254 -10.46365,23.87392 -0.52537,31.80386 6.44164,5.13991 12.49685,6.39812 20.00086,4.15597 z M 292.23115,236.50399 C 289.35402,233.00752 287,229.74232 287,229.24799 c 0,-2.88259 23.45684,-18.75285 35.5,-24.01833 6.12647,-2.6786 18.63752,-7.22966 19.87462,-7.22966 0.24074,0 0.72369,2.3625 1.07323,5.25 0.34954,2.8875 0.87344,6.89082 1.16421,8.89626 0.52818,3.6428 0.52363,3.64792 -4.79169,5.40075 -11.65538,3.84356 -28.35768,13.20713 -36.32037,20.36176 -6.06258,5.44734 -5.5811,5.50736 -11.26885,-1.40478 z m 84.03855,125.46159 c -17.23617,-3.48187 -29.23934,-18.041 -29.23934,-35.46558 0,-26.60735 27.84692,-43.97734 51.7723,-32.29386 6.50047,3.17438 13.81112,10.72793 16.99344,17.55807 2.27376,4.88011 2.67245,7.07844 2.67245,14.73579 0,7.57847 -0.40663,9.86871 -2.57444,14.5 -5.90299,12.61108 -16.14009,19.89497 -29.89411,21.2702 -3.025,0.30247 -7.40363,0.16539 -9.7303,-0.30462 z m 45.32479,51.92934 c -9.29803,-1.02994 -17.08784,-2.05494 -17.31068,-2.27778 -0.22284,-0.22284 5.9923,-12.83269 13.81143,-28.0219 7.81912,-15.18921 14.42547,-27.40787 14.68076,-27.15257 0.41087,0.41086 11.18585,56.92024 11.21315,58.80733 0.0145,0.99967 -2.52215,0.84618 -22.39466,-1.35508 z m -4.57217,47.07527 c 12.5475,-16.75906 14.39055,-18.81744 15.44548,-17.25 0.65882,0.97889 4.68982,8.00058 8.95777,15.60374 4.26795,7.60316 7.89541,13.67816 8.06102,13.5 0.65126,-0.70059 10.7725,-29.66493 15.91434,-45.54268 5.33692,-16.48011 12.89872,-43.03114 14.14037,-49.6497 l 0.63045,-3.36059 -4.89586,-0.47043 c -6.7397,-0.6476 -13.70637,-4.37323 -18.82646,-10.068 -14.77547,-16.43388 -7.48808,-43.24461 13.66386,-50.27016 3.63552,-1.20752 7.11547,-1.57164 11.81027,-1.23573 l 6.65603,0.47624 -0.83089,-8.10144 c -3.36934,-32.85204 -25.92309,-64.51839 -57.42691,-80.6296 -12.44665,-6.36528 -31.33135,-11.91251 -40.69719,-11.95448 L 385.7492,212 l 0.44543,-8.4867 c 0.245,-4.66769 0.75675,-8.79801 1.13724,-9.1785 1.11553,-1.11553 17.73823,1.46088 27.32734,4.23557 18.84371,5.45259 38.07204,16.21798 52.59943,29.44892 l 6.75864,6.15549 4.7404,-3.40503 c 2.60722,-1.87276 6.09083,-5.5893 7.74136,-8.25897 2.64368,-4.27606 3.00094,-5.75618 3.00081,-12.43236 -1.4e-4,-6.52085 -0.41167,-8.32132 -2.94896,-12.90197 -3.1093,-5.61329 -7.87305,-9.94826 -13.33242,-12.13238 -4.70437,-1.88206 -15.15842,-0.86234 -19.656,1.91732 L 450,189.16312 l 0,-6.37146 c 0,-21.13352 -14.65746,-43.57882 -35.06051,-53.68892 -12.0818,-5.98677 -24.06796,-7.99678 -34.80641,-5.83683 -4.19819,0.84444 -8.35122,1.82659 -9.22895,2.18256 -1.2153,0.49287 -2.03026,-0.49022 -3.41743,-4.12246 -6.71493,-17.5828 -31.61511,-27.031556 -57.27886,-21.735349 -13.25221,2.734849 -25.57314,10.096079 -29.68524,17.735659 -1.08758,2.02052 -2.33231,3.67368 -2.76607,3.67368 -1.50719,0 -22.26246,-7.30779 -23.23682,-8.18153 -0.53916,-0.48347 -1.52454,-4.10916 -2.18975,-8.05708 -2.50007,-14.837699 -12.81287,-30.275245 -26.14641,-39.139368 -18.75839,-12.470554 -41.6241,-13.792311 -62.01778,-3.58495 -7.41208,3.709862 -17.80546,12.34967 -21.44122,17.82366 l -1.56797,2.360733 -5.87178,-3.228029 c -5.77688,-3.175854 -5.88963,-3.321912 -6.97567,-9.036657 -1.33468,-7.02306 -6.72339,-15.585861 -12.19448,-19.377325 -13.91316,-9.641828 -30.123916,-8.526709 -41.505757,2.855132 L 69.377918,58.66556 64.83543,54.552979 c -4.009552,-3.630081 -4.432612,-4.402391 -3.60595,-6.58278 2.769988,-7.306079 -2.138478,-19.074443 -9.837683,-23.586478 -8.881371,-5.20483 -18.865486,-3.01785 -27.123795,5.941358 -9.164108,9.941882 -7.508577,22.85426 3.816977,29.770657 3.013979,1.840605 3.811169,2.873147 3.400383,4.404264 -2.454725,9.149473 -1.266292,16.816389 3.385263,21.839276 4.030123,4.351845 7.997184,5.990685 14.717328,6.079901 5.159214,0.06849 6.854584,-0.395709 11.113275,-3.042879 l 5.025321,-3.123702 1.622141,3.676664 c 0.892177,2.022166 3.142668,5.453059 5.001091,7.624209 2.911023,3.400871 3.23846,4.293681 2.364452,6.447041 -0.557974,1.37472 -1.059439,6.80777 -1.114366,12.07344 -0.09741,9.33819 0.0047,9.78508 4.147787,18.14751 7.433129,15.0032 18.314291,22.8254 32.809886,23.58623 7.3074,0.38354 9.08006,0.0745 18.77489,-3.27302 l 10.70561,-3.69655 6.86297,7.3488 c 3.77464,4.04185 8.04108,7.97931 9.48098,8.74992 3.22715,1.72712 3.31193,2.67218 0.30735,3.42628 -3.57918,0.89832 -10.37702,6.22305 -13.56752,10.6274 -2.87062,3.96278 -2.89762,3.97398 -5.25363,2.17892 -4.07328,-3.10346 -8.677,-4.44238 -13.62977,-3.96399 -10.89172,1.05202 -17.3413,7.06876 -18.04785,16.83664 -0.56673,7.83503 2.26176,13.78787 8.65832,18.22229 4.18002,2.8978 5.37699,3.22495 11.8178,3.23 6.25666,0.005 7.51215,-0.31183 9.88718,-2.49438 1.7399,-1.59889 2.87351,-2.07281 3.14503,-1.31483 2.14717,5.99407 11.82789,14.19344 19.45671,16.47943 l 3.65562,1.09542 -4.29965,5.27881 c -14.03985,17.23715 -11.19268,44.42279 6.53848,62.43139 14.03258,14.25214 32.13519,16.55259 51.56802,6.55316 l 8.21727,-4.2283 2.12746,5.60246 c 1.1701,3.08135 3.74089,8.04652 5.71288,11.03371 2.88646,4.37245 3.36017,5.73707 2.42996,7 -4.14468,5.62718 -5.59562,10.69681 -5.6006,19.56875 -0.004,7.90618 0.33719,9.66845 2.81089,14.5 5.11379,9.98809 13.28866,16.77766 22.76432,18.9067 3.90251,0.87684 4.64032,0.69845 8.83884,-2.13706 2.51949,-1.70156 4.73372,-3.21114 4.9205,-3.35462 0.18678,-0.14349 -1.43914,-2.88306 -3.61314,-6.08795 -11.16009,-16.45205 -17.17739,-34.22829 -17.20508,-50.82707 -0.0152,-9.09411 2.0959,-23.14935 4.80632,-32 1.72954,-5.64763 2.01327,-5.99245 4.83123,-5.87144 1.64659,0.0707 5.59265,0.88407 8.76903,1.80747 5.17594,1.50469 5.70883,1.90643 5.13525,3.87144 -3.64169,12.47581 -4.80776,18.70655 -5.27664,28.19502 -0.45876,9.28374 -0.20955,12.22044 1.5953,18.79918 4.82011,17.56946 18.04053,37.36364 38.47359,57.60431 l 9.49539,9.40599 0.82457,-3.90599 c 1.36474,-6.46471 0.69976,-30.17939 -1.07239,-38.24382 -0.88687,-4.03582 -1.39965,-7.68222 -1.13952,-8.10311 0.37935,-0.61381 6.35347,-1.88656 15.99554,-3.40774 0.52748,-0.0832 1.51764,2.54869 2.20035,5.84869 5.31942,25.71236 3.05006,52.17968 -7.29206,85.04664 -2.52149,8.01323 -4.35945,14.79458 -4.08435,15.06968 0.27509,0.27509 9.34462,-4.98037 20.15451,-11.67882 10.80989,-6.69845 19.97118,-11.86284 20.35842,-11.47644 0.38724,0.38641 0.85525,10.34074 1.04002,22.12075 0.18476,11.78 0.63476,21.41705 1,21.41565 0.36523,-10e-4 8.04973,-6.75322 17.07665,-15.00407 9.02693,-8.25085 16.53457,-14.87956 16.68366,-14.73047 0.21175,0.21175 4.40375,37.65162 4.40375,39.33111 0,1.24535 2.03704,-1.28006 15.02232,-18.62384 z"
     id="path2989"
     style="fill:#ffffff" />
</svg>
