<?xml version="1.0" encoding="UTF-8" standalone="no"?>
<!-- Created with Inkscape (http://www.inkscape.org/) -->

<svg
   xmlns:dc="http://purl.org/dc/elements/1.1/"
   xmlns:cc="http://creativecommons.org/ns#"
   xmlns:rdf="http://www.w3.org/1999/02/22-rdf-syntax-ns#"
   xmlns:svg="http://www.w3.org/2000/svg"
   xmlns="http://www.w3.org/2000/svg"
   version="1.1"
   width="512"
   height="512"
   id="svg2">
  <metadata
     id="metadata8">
    <rdf:RDF>
      <cc:Work
         rdf:about="">
        <dc:format>image/svg+xml</dc:format>
        <dc:type
           rdf:resource="http://purl.org/dc/dcmitype/StillImage" />
        <dc:title></dc:title>
      </cc:Work>
    </rdf:RDF>
  </metadata>
  <defs
     id="defs6" />
  <path
     d="m 0,0 512,0 0,512 -512,0 z"
     id="rect3042"
     style="fill:#000000;fill-opacity:1;stroke:none" />
  <path
     d="m 88,114.45068 c 5.775002,-1.3253 14.27974,-3.57938 18.89943,-5.00905 l 8.39944,-2.59942 -0.64109,-11.92285 C 114.30519,88.361792 113.29824,79.509798 112.42012,75.248256 110.63461,66.583117 105.89335,53.679629 103.2343,50.248742 101.41034,47.89536 100.24755,50.624154 76.814336,112.25 74.691392,117.83304 73.921395,117.68155 88,114.45068 z m -41.664448,5.64801 6.835546,-0.5987 L 69.905306,76 86.639514,32.499994 83.664166,30.278541 c -3.336307,-2.490957 -16.368524,-8.141952 -19.66624,-8.527616 -1.962572,-0.22953 -3.672832,3.920845 -20.05902,48.678425 -9.852442,26.911143 -17.806746,49.01823 -17.676212,49.12686 0.813684,0.67722 14.355879,1.0432 20.072858,0.54248 z m 108.375938,26.56956 c 15.5905,-21.43875 20.78246,-29.26197 19.59252,-29.52189 -2.66455,-0.58206 -33.80949,3.69416 -39.43644,5.41466 -1.64841,0.504 -3.03503,7.52626 -4.33209,21.93897 -0.58276,6.47537 0.83188,25.63124 2.15402,29.16826 0.70027,1.87334 3.6954,-1.79882 22.02199,-27 z m 41.15423,22.8905 c 17.80113,-24.96642 32.35778,-45.76817 32.3481,-46.22612 -0.0402,-1.903 -26.7701,-7.23216 -28.25683,-5.63358 C 197.13988,120.7281 143,196.07283 143,196.96426 c 0,2.63328 16.84733,18.08871 19.63398,18.01186 0.4763,-0.0131 15.4306,-20.45096 33.23174,-45.41737 z m 42.60803,20.8932 c 14.64424,-20.10141 26.84763,-37.12588 27.11865,-37.83214 1.1301,-2.94501 -15.66796,-21.48509 -18.52707,-20.44841 -0.49844,0.18073 -15.3266,20.56936 -32.95147,45.30806 -23.11273,32.44159 -31.67632,45.1859 -30.72181,45.72007 2.11271,1.18233 18.41404,3.80047 23.66287,3.80047 l 4.79294,0 26.62589,-36.54805 z m 13.73705,34.57874 c 6.44094,-0.96185 13.7113,-2.30892 16.15634,-2.99349 l 4.44554,-1.24468 1.04838,-6.14626 c 1.78168,-10.4454 2.28937,-20.24095 1.56236,-30.14501 -0.38359,-5.22569 -0.97328,-9.47984 -1.31043,-9.45363 -0.33714,0.0262 -5.2002,6.43866 -10.8068,14.24999 -5.60661,7.81131 -14.04676,19.48988 -18.75592,25.95239 -9.79661,13.44414 -10.53744,12.49828 7.66053,9.78069 z m 45.47879,34.31876 C 309.68531,247.99165 319.725,238.48008 320,238.21263 c 0.70227,-0.683 -31.01585,0.60637 -33.70321,1.37006 -1.62105,0.46066 -2.73833,2.24998 -4.22837,6.77172 C 278.34904,257.64134 273.88159,280 275.34575,280 c 0.29338,0 10.34811,-9.29275 22.34384,-20.65055 z m 34.76921,34.27186 c 23.07735,-22.20577 42.1049,-40.81241 42.28346,-41.34809 0.42669,-1.28007 -12.27221,-6.68799 -21.70078,-9.24144 l -7.4585,-2.01991 -3.04149,2.81949 c -3.48097,3.22691 -59.61883,56.10217 -63.80276,60.09469 l -2.76128,2.63497 1.62279,5.4695 c 2.59906,8.75979 9.93858,21.97457 12.20066,21.96721 0.3845,-9.9e-4 19.58057,-18.17065 42.6579,-40.37642 z m 34.35472,31.85189 c 18.74647,-17.7586 35.00272,-32.93152 36.12501,-33.7176 l 2.04054,-1.42924 -2.02757,-6.00395 c -2.07057,-6.13128 -9.54733,-18.44393 -11.57547,-19.06234 C 390.24416,264.91494 306,345.53244 306,346.9607 c 0,1.08387 11.18758,5.98763 19.61452,8.59747 l 7.1145,2.20339 34.0845,-32.28836 z m 25.09956,34.6138 5.41308,-0.58701 2.36245,-7 c 2.56166,-7.59017 5.72369,-22.43252 6.81734,-32 l 0.68585,-6 L 404.37114,317 c -1.55135,1.375 -11.60701,10.78682 -22.34589,20.91514 -10.73889,10.12832 -20.64002,19.46583 -22.00252,20.75 L 357.54545,361 l 14.47728,-0.163 c 7.9625,-0.0896 16.91315,-0.42714 19.89035,-0.75 z m 31.73602,39.58526 c 22.13754,-15.11591 24.85303,-17.25407 22.67661,-17.85542 C 442.77091,380.83468 423.6538,379 416.97436,379 l -5.67828,0 -3.08712,6.75 c -4.1692,9.11604 -7.09151,16.55634 -9.32815,23.74999 -2.08226,6.69704 -2.20978,7.53411 -1.13081,7.42226 0.4125,-0.0428 12.0671,-7.80526 25.8991,-17.24999 z M 381.77169,485 c -6.34496,-12.76378 -8.09676,-21.14877 -8.14787,-39 -0.0515,-17.98376 1.26481,-25.58052 7.88393,-45.50001 2.3759,-7.14999 4.18573,-13.13538 4.02184,-13.30085 -0.16389,-0.16548 -3.8376,0.5917 -8.16378,1.68259 -13.67689,3.44877 -23.63865,4.41277 -39.72239,3.84398 -16.80834,-0.59441 -26.40327,-2.58248 -39.86542,-8.2601 -15.51339,-6.54272 -32.27386,-20.15182 -41.71115,-33.86845 -18.22264,-26.48568 -19.57734,-63.93155 -3.5259,-97.46066 l 4.48261,-9.3635 -3.26178,0.60376 c -22.73772,4.20878 -55.41781,3.18336 -76.30559,-2.39428 -30.88799,-8.24798 -51.97634,-27.32715 -61.32528,-55.48249 -3.92413,-11.81789 -5.34598,-22.36953 -4.95247,-36.75218 0.17686,-6.46369 0.0965,-11.63869 -0.17844,-11.49999 -23.371302,11.78769 -31.894272,14.76367 -49.499994,17.28399 -10.445376,1.49531 -29.90254,1.92302 -37.860441,0.83227 L 19,155.72815 l 0.03942,-37.11407 0.03942,-37.114086 11.720934,-32 11.720935,-32 28.055936,-0.265255 28.055936,-0.265267 4.589809,3.575885 c 11.01953,8.585241 22.30825,27.129408 26.75727,43.954637 1.16349,4.4 2.62435,13.175001 3.24638,19.500006 0.62203,6.325005 1.21019,11.622054 1.30702,11.771238 0.0968,0.149184 3.00532,-1.132505 6.46333,-2.848204 C 158.20151,84.386688 173.25696,81 193.99999,81 c 25.66693,0 47.37996,6.299648 67.96829,19.7198 31.10298,20.27395 48.01103,52.99169 44.08253,85.30147 -1.12903,9.2857 -4.8766,22.7126 -8.12358,29.10535 l -1.842,3.62661 20.70737,0.52051 c 26.81385,0.674 40.30436,3.18689 58.44007,10.88568 25.90177,10.99559 43.69864,32.36217 49.1832,59.04841 2.96484,14.42603 1.62063,41.35959 -2.88433,57.79217 -2.20638,8.04814 -2.37534,7.84934 5.21845,6.13994 4.54842,-1.02388 12.29472,-1.53152 23.74999,-1.55641 18.02439,-0.0392 26.3197,1.36455 39.25001,6.64181 l 5.25,2.14269 0,20.81432 0,20.81432 -4.75,-3.38255 c -2.6125,-1.8604 -7.45,-4.73002 -10.75001,-6.37691 l -6,-2.99436 -40,27.12858 -40,27.12858 -0.29683,6.80035 c -0.32215,7.38023 2.26083,18.7685 5.85466,25.81297 l 2.02377,3.96693 7.70921,-5.38317 c 4.24006,-2.96074 23.2342,-16.09776 42.2092,-29.19338 18.975,-13.09563 36.6375,-25.35459 39.25,-27.24214 l 4.75,-3.43191 0,11.96147 0,11.96148 -39.25,27.14485 -39.25001,27.14486 L 401,492.77116 385.49999,492.49999 381.77169,485 z m 76.31164,7.62853 c 0.75222,-0.67063 32.36219,-20.2772 34.66667,-21.50253 l 2.25,-1.19637 0,11.53519 0,11.53518 -18.66666,0 c -10.26668,0 -18.47917,-0.16716 -18.25001,-0.37147 z"
     id="path2989"
     style="fill:#ffffff" />
</svg>
