<?xml version="1.0" encoding="UTF-8" standalone="no"?>
<!-- Created with Inkscape (http://www.inkscape.org/) -->

<svg
   xmlns:dc="http://purl.org/dc/elements/1.1/"
   xmlns:cc="http://creativecommons.org/ns#"
   xmlns:rdf="http://www.w3.org/1999/02/22-rdf-syntax-ns#"
   xmlns:svg="http://www.w3.org/2000/svg"
   xmlns="http://www.w3.org/2000/svg"
   xmlns:sodipodi="http://sodipodi.sourceforge.net/DTD/sodipodi-0.dtd"
   xmlns:inkscape="http://www.inkscape.org/namespaces/inkscape"
   id="svg2"
   version="1.1"
   inkscape:version="0.48.3.1 r9886"
   width="400"
   height="400"
   sodipodi:docname="Icon.4_49.png">
  <metadata
     id="metadata8">
    <rdf:RDF>
      <cc:Work
         rdf:about="">
        <dc:format>image/svg+xml</dc:format>
        <dc:type
           rdf:resource="http://purl.org/dc/dcmitype/StillImage" />
        <dc:title></dc:title>
      </cc:Work>
    </rdf:RDF>
  </metadata>
  <defs
     id="defs6" />
  <sodipodi:namedview
     pagecolor="#ffffff"
     bordercolor="#666666"
     borderopacity="1"
     objecttolerance="10"
     gridtolerance="10"
     guidetolerance="10"
     inkscape:pageopacity="0"
     inkscape:pageshadow="2"
     inkscape:window-width="1855"
     inkscape:window-height="1056"
     id="namedview4"
     showgrid="false"
     inkscape:zoom="0.59"
     inkscape:cx="200"
     inkscape:cy="200"
     inkscape:window-x="65"
     inkscape:window-y="24"
     inkscape:window-maximized="1"
     inkscape:current-layer="svg2" />
  <path
     style="fill:#000000"
     d="m 0,0 400,0 0,400 -400,0 z"
     id="rect3024" />
  <path
     id="path2989"
     style="fill:#ffffff"
     d="M 172.08707,150.41412 C 246.01418,107.74189 306.80743,72.529388 307.18318,72.164121 307.90174,71.465609 293.97455,46.074314 292.84704,46.027253 292.05575,45.994226 23.865083,200.79056 22.629544,201.99346 21.732469,202.86683 35.535308,228 36.912029,228 37.331191,228 98.15996,193.08635 172.08707,150.41412 z M 140,246.33186 c -3.70294,-1.52321 -7.2092,-4.8216 -9.132,-8.5906 -4.13491,-8.1051 -0.7382,-19.17142 7.13403,-23.24231 3.76988,-1.94948 12.28432,-1.91935 16.10615,0.057 2.93609,1.51831 3.19487,1.44848 10.70034,-2.88769 l 7.69148,-4.44363 0.10512,-7.55604 c 0.0841,-6.04323 0.64686,-8.66331 2.81095,-13.08656 C 180.22181,176.75944 189.50404,171 200.52892,171 c 6.36792,0 10.71164,1.41969 16.15951,5.28155 l 4.18844,2.96906 7.80682,-4.50964 c 7.28806,-4.20997 7.85264,-4.77805 8.49638,-8.5489 3.18297,-18.6452 25.19553,-22.45016 32.92989,-5.69207 2.34905,5.08971 2.33461,8.92405 -0.0534,14.18386 -2.7013,5.94981 -8.73891,9.75269 -15.42954,9.71855 -2.81985,-0.0144 -6.49253,-0.74723 -8.16152,-1.62854 -2.98392,-1.57565 -3.16733,-1.52657 -11,2.94377 l -7.96548,4.54613 0,8.11812 c 0,6.68153 -0.44124,8.98212 -2.49345,13.00065 -2.91834,5.71453 -8.92288,10.97102 -14.96918,13.10427 -9.05143,3.19354 -21.58584,1.09853 -27.68533,-4.62733 -2.07028,-1.94347 -2.26916,-1.95414 -5.5,-0.29517 -1.84362,0.94667 -5.71454,3.22638 -8.60204,5.06603 -4.72476,3.01018 -5.25,3.70119 -5.25,6.9069 0,8.22097 -6.76373,14.67856 -15.84777,15.13047 -3.10873,0.15465 -6.32723,0.004 -7.15223,-0.33585 z m 85,-12.32345 c 71.775,-41.39631 130.88741,-75.61797 131.3609,-76.04812 0.4735,-0.43016 -0.32421,-2.95969 -1.77269,-5.62119 l -2.63361,-4.8391 -9.7273,0 c -10.42863,0 -14.2185,-1.25594 -20.99426,-6.95736 l -3.03402,-2.55296 -10.30736,5.92944 -10.30737,5.92945 -2.79214,-4.88887 C 293.25647,142.27083 292,139.63035 292,139.09197 c 0,-0.53838 4.51293,-3.53411 10.02874,-6.65719 8.84044,-5.0055 9.94638,-5.93049 9.33365,-7.80655 -0.38231,-1.17053 -0.67656,-4.95182 -0.65389,-8.40287 0.0324,-4.94163 0.69989,-7.61262 3.14176,-12.57275 1.7053,-3.46396 3.96996,-7.08492 5.03257,-8.046569 1.90041,-1.719853 1.88157,-1.836283 -1.15204,-7.117901 -2.7789,-4.838172 -3.2892,-5.260332 -5.15742,-4.266643 -4.97021,2.643607 -267.191653,154.132323 -268.255371,154.974593 -0.877343,0.6947 -0.468891,2.14322 1.584696,5.61992 l 2.766698,4.68399 7.415303,-0.3343 c 8.664957,-0.39065 16.963365,2.18158 22.379281,6.93681 1.815029,1.59362 3.542515,2.89749 3.838858,2.89749 0.296343,0 4.825579,-2.475 10.06497,-5.5 5.239391,-3.025 9.887525,-5.49954 10.329185,-5.49898 0.72671,9.2e-4 6.30301,9.105 6.30301,10.29054 0,0.27325 -4.46328,3.04607 -9.918407,6.16184 l -9.918407,5.66503 0.553602,7.31989 c 0.661422,8.74552 -0.94242,14.35303 -6.197221,21.66733 -3.889043,5.41326 -3.989909,4.20788 1.042076,12.45325 l 1.561644,2.55889 4.188356,-2.42167 C 92.61524,310.36419 153.225,275.40473 225,234.00841 z m 18.11015,39.41334 c 73.91442,-42.66803 134.69728,-77.88053 135.07303,-78.25 0.69613,-0.68448 -13.18745,-26.09478 -14.28473,-26.1445 C 363.14272,168.99301 94.815921,323.8385 93.629544,324.99349 92.722893,325.87615 106.54292,351 107.9351,351 c 0.43186,0 61.26063,-34.91021 135.17505,-77.57825 z" />
</svg>
