<?xml version="1.0" encoding="UTF-8" standalone="no"?>
<!-- Created with Inkscape (http://www.inkscape.org/) -->

<svg
   xmlns:dc="http://purl.org/dc/elements/1.1/"
   xmlns:cc="http://creativecommons.org/ns#"
   xmlns:rdf="http://www.w3.org/1999/02/22-rdf-syntax-ns#"
   xmlns:svg="http://www.w3.org/2000/svg"
   xmlns="http://www.w3.org/2000/svg"
   xmlns:sodipodi="http://sodipodi.sourceforge.net/DTD/sodipodi-0.dtd"
   xmlns:inkscape="http://www.inkscape.org/namespaces/inkscape"
   id="svg2"
   version="1.1"
   inkscape:version="0.48.3.1 r9886"
   width="400"
   height="400"
   sodipodi:docname="Icon.7_65.png">
  <metadata
     id="metadata8">
    <rdf:RDF>
      <cc:Work
         rdf:about="">
        <dc:format>image/svg+xml</dc:format>
        <dc:type
           rdf:resource="http://purl.org/dc/dcmitype/StillImage" />
        <dc:title></dc:title>
      </cc:Work>
    </rdf:RDF>
  </metadata>
  <defs
     id="defs6" />
  <sodipodi:namedview
     pagecolor="#ffffff"
     bordercolor="#666666"
     borderopacity="1"
     objecttolerance="10"
     gridtolerance="10"
     guidetolerance="10"
     inkscape:pageopacity="0"
     inkscape:pageshadow="2"
     inkscape:window-width="1855"
     inkscape:window-height="1056"
     id="namedview4"
     showgrid="false"
     inkscape:zoom="0.59"
     inkscape:cx="200"
     inkscape:cy="200"
     inkscape:window-x="65"
     inkscape:window-y="24"
     inkscape:window-maximized="1"
     inkscape:current-layer="svg2" />
  <path
     style="fill:#000000"
     d="m 0,0 400,0 0,400 -400,0 z"
     id="rect3034" />
  <path
     id="path2989"
     style="fill:#ffffff"
     d="m 155.5,117.55595 c -19.83686,-10.33129 -31.73782,-45.242086 -22.1225,-64.8951 3.89597,-7.96308 8.32391,-11.132382 15.52281,-11.11048 7.48296,0.02277 13.82903,3.30985 20.68343,10.713423 16.97218,18.331981 20.43605,50.632317 6.84268,63.807527 -3.01362,2.92091 -4.21546,3.38158 -9.68353,3.71175 -5.23366,0.31601 -7.05119,-0.044 -11.24289,-2.22712 z m 21.78212,15.08904 C 184.99979,129.39517 192.31953,121.1107 196.40654,111 199.1586,104.19177 199.72502,86.368295 197.50778,76.347617 187.62327,31.675372 143.63249,10.958449 123.17081,41.339525 115.12029,53.292761 113.22283,70.48653 118.02146,88 c 1.66389,6.072654 10.72816,32.08295 11.42247,32.77727 0.17286,0.17285 8.58119,3.19558 18.68518,6.71716 19.0141,6.62706 23.68631,7.45252 29.15301,5.15056 z m -8.18,39.06845 c 4.44676,-2.99238 6.48328,-8.70728 4.94967,-13.88974 -2.62322,-8.86447 -13.46995,-11.9075 -20.48601,-5.74731 -5.99291,5.26185 -6.03541,12.65398 -0.10684,18.58255 2.78749,2.78749 4.07872,3.34106 7.79318,3.34106 2.98075,0 5.57507,-0.75568 7.85,-2.28656 z M 78.224838,185.47817 C 68.133964,183.28666 57.730607,177.70785 50.637151,170.68427 43.23481,163.35484 40.613668,158.33523 40.619495,151.5 c 0.0056,-6.56284 2.433629,-10.94356 8.034054,-14.49524 19.120237,-12.1257 57.037981,-0.77978 67.678631,20.2511 3.4547,6.82808 3.85625,14.67541 0.95013,18.56784 -7.28422,9.75641 -21.924686,13.37534 -39.057472,9.65447 z m 26.663382,14.46129 c 12.43752,-2.86731 21.11139,-9.80198 28.0316,-22.41096 3.82559,-6.97041 4.06008,-7.84815 3.46022,-12.95203 -0.81414,-6.92704 1.49472,-14.46626 6.19087,-20.21533 l 3.38084,-4.13886 -21.72587,-7.48208 C 112.27664,128.62506 98.609294,123.87791 93.853986,122.19098 75.784999,115.78106 59.249353,115.90529 45.353746,122.55535 9.1949324,139.86 26.610184,187.20931 73.5,199.08056 c 7.898054,1.99957 24.472954,2.45313 31.38822,0.8589 z M 371.375,284.875 C 376.2818,260.34101 354.12301,228.75446 315.04892,204.58422 295.69016,192.60938 280.37069,186.29887 225.30897,167.61791 204.85391,160.67806 187.91563,155 187.66835,155 c -0.24727,0 -0.49354,2.92956 -0.54725,6.51012 -0.11442,7.62651 -3.1691,14.66959 -8.19751,18.90072 -1.7461,1.46925 -3.00572,2.82453 -2.79916,3.01174 0.20656,0.18721 3.15847,1.73525 6.5598,3.44009 3.40132,1.70484 16.22632,8.5937 28.5,15.30857 85.40897,46.72685 157.48884,85.75496 158.44077,85.78879 0.61875,0.022 1.40625,-1.36628 1.75,-3.08503 z m -89.125,87.48315 c 2.0625,-0.34091 3.73131,-1.12346 3.70847,-1.73899 -0.0229,-0.61554 -19.48535,-36.86905 -43.25,-80.56336 L 199.5,210.61159 177,198.35993 c -12.375,-6.73841 -23.09282,-12.27602 -23.81739,-12.30579 -1.6275,-0.0669 -2.95144,-4.29613 14.4437,46.13951 7.90903,22.93152 16.64989,47.06822 19.42413,53.63712 18.64094,44.1384 49.21528,77.83969 77.7435,85.69463 5.264,1.44939 11.83029,1.76263 17.45606,0.83275 z" />
</svg>
