<?xml version="1.0" encoding="UTF-8" standalone="no"?>
<!-- Created with Inkscape (http://www.inkscape.org/) -->

<svg
   xmlns:dc="http://purl.org/dc/elements/1.1/"
   xmlns:cc="http://creativecommons.org/ns#"
   xmlns:rdf="http://www.w3.org/1999/02/22-rdf-syntax-ns#"
   xmlns:svg="http://www.w3.org/2000/svg"
   xmlns="http://www.w3.org/2000/svg"
   xmlns:sodipodi="http://sodipodi.sourceforge.net/DTD/sodipodi-0.dtd"
   xmlns:inkscape="http://www.inkscape.org/namespaces/inkscape"
   id="svg2"
   version="1.1"
   inkscape:version="0.48.3.1 r9886"
   width="400"
   height="400"
   sodipodi:docname="Icons8_70.png">
  <metadata
     id="metadata8">
    <rdf:RDF>
      <cc:Work
         rdf:about="">
        <dc:format>image/svg+xml</dc:format>
        <dc:type
           rdf:resource="http://purl.org/dc/dcmitype/StillImage" />
        <dc:title></dc:title>
      </cc:Work>
    </rdf:RDF>
  </metadata>
  <defs
     id="defs6" />
  <sodipodi:namedview
     pagecolor="#ffffff"
     bordercolor="#666666"
     borderopacity="1"
     objecttolerance="10"
     gridtolerance="10"
     guidetolerance="10"
     inkscape:pageopacity="0"
     inkscape:pageshadow="2"
     inkscape:window-width="1216"
     inkscape:window-height="1000"
     id="namedview4"
     showgrid="false"
     inkscape:zoom="0.834386"
     inkscape:cx="293.24351"
     inkscape:cy="263.54294"
     inkscape:window-x="64"
     inkscape:window-y="24"
     inkscape:window-maximized="1"
     inkscape:current-layer="svg2" />
  <rect
     style="fill:#000000;fill-opacity:1;stroke:none"
     id="rect3038"
     width="400"
     height="400"
     x="0"
     y="0" />
  <path
     id="path3007"
     style="fill:#ffffff"
     d="m 210.42019,123.94398 c 6.71784,-2.51347 13.99921,-10.0741 15.66703,-16.26788 2.815,-10.454131 -0.42952,-22.672288 -7.52379,-28.33294 l -3.2637,-2.60417 8.80381,-15.082485 c 4.8421,-8.295367 8.6449,-15.241395 8.45068,-15.435617 -0.19422,-0.194223 -4.56081,2.354186 -9.70354,5.66313 -5.14272,3.308945 -9.60607,5.7012 -9.91856,5.316123 C 212.61964,56.815063 211.0708,50.9875 209.49027,44.25 207.90974,37.5125 206.34157,32 206.00545,32 c -0.33612,0 -1.65877,5.5125 -2.93921,12.25 -1.28045,6.7375 -2.61499,12.795387 -2.96564,13.461971 -0.41303,0.785179 -3.97643,-1.761442 -10.11907,-7.231694 -5.21484,-4.644016 -9.60901,-8.069465 -9.76482,-7.612109 -0.15581,0.457356 1.07412,4.35669 2.73318,8.665187 1.65905,4.308497 2.91153,7.93491 2.78328,8.058696 -0.12824,0.123786 -6.2993,-2.211743 -13.71346,-5.190065 -7.41415,-2.978321 -13.85519,-5.290161 -14.3134,-5.137422 -0.45822,0.152739 5.73038,6.502622 13.75243,14.110852 l 14.58556,13.833146 -3.61932,4.006155 c -13.2125,14.624659 -7.39377,36.668273 11.4573,43.404703 5.2345,1.87055 10.28438,1.6643 16.53791,-0.67544 z m 11.14146,240.37473 6.93835,10.08269 0.63312,-6.4507 c 0.34821,-3.54789 0.68571,-9.5257 0.75,-13.28403 0.0643,-3.75834 0.45438,-6.67844 0.86688,-6.48913 0.4125,0.18932 6.31015,3.17917 13.10588,6.64412 6.79574,3.46495 12.5484,6.1074 12.78369,5.8721 0.23529,-0.23529 -4.52465,-6.36409 -10.57766,-13.61955 -9.19757,-11.02471 -10.828,-13.4759 -9.92517,-14.92156 1.13226,-1.81304 0.94734,-2.61162 -8.14038,-35.15265 -9.63085,-34.48586 -11.62343,-58.46872 -6.51549,-78.42102 2.04624,-7.99287 1.95316,-8.15625 -6.39419,-11.22393 -2.52267,-0.92709 -4.94598,-1.99304 -5.38513,-2.36878 -2.17158,-1.85804 9.62052,-26.30929 18.14225,-37.61848 10.60604,-14.07528 23.65917,-24.24875 36.53632,-28.47602 l 6.64096,-2.18008 -2.5987,-4.43435 c -1.42929,-2.43889 -2.44653,-4.55677 -2.26054,-4.7064 0.18599,-0.14963 3.26316,-1.8018 6.83816,-3.6715 7.77196,-4.06467 20.31969,-15.72253 24.5,-22.76249 2.95593,-4.978016 3.05876,-5.043633 7,-4.466732 2.2,0.322026 4.2785,0.865464 4.61888,1.207642 0.34039,0.342177 2.53936,9.17214 4.88662,19.62214 2.34725,10.45 4.59328,19.61903 4.99118,20.37563 0.86356,1.64207 0.98264,1.18257 4.04164,-15.59488 l 2.22791,-12.21925 10.86689,7.53075 c 5.97678,4.14192 10.86688,7.1415 10.86688,6.66574 0,-0.47576 -1.56509,-5.51244 -3.47799,-11.19262 -1.91289,-5.68018 -3.2828,-10.6434 -3.04425,-11.02939 0.23856,-0.38599 6.30365,-1.28316 13.47799,-1.9937 7.17434,-0.710544 13.03728,-1.573234 13.02876,-1.917089 -0.009,-0.343855 -8.64851,-3.987804 -19.19997,-8.097664 l -19.18447,-7.472474 18.44996,-2.376303 c 10.14749,-1.306967 18.55134,-2.470721 18.67523,-2.58612 0.35198,-0.327845 -1.78802,-12.988727 -2.27828,-13.478983 -0.24034,-0.240336 -10.1538,0.80204 -22.02991,2.316391 -21.49444,2.740806 -21.60281,2.744394 -23.75501,0.786627 -3.56965,-3.247164 -6.71063,-4.447434 -11.63845,-4.447434 -5.71727,0 -9.90813,2.054151 -13.78397,6.756208 l -2.94035,3.567159 -26.26566,3.403044 c -14.44611,1.871675 -26.40742,3.54481 -26.58068,3.718078 -0.243,0.242996 3.39576,12.660339 3.94491,13.462081 0.0662,0.09669 6.6413,-0.674511 14.61127,-1.713781 19.55638,-2.550114 18.67026,-2.736019 13.28902,2.78798 -4.91081,5.041099 -11.27686,14.28509 -11.32995,16.45196 -0.0304,1.24191 -2.06734,-0.89723 -3.91667,-4.11323 -0.61757,-1.07396 -3.17057,0.70725 -10.68153,7.45246 -5.4285,4.87505 -11.86304,10.80393 -14.29898,13.17528 -8.55359,8.32683 -21.42943,12.4278 -32.55962,10.37027 -13.25771,-2.45082 -21.78999,-8.99814 -34.47055,-26.4513 C 157.59012,106.88595 154.60928,103 154.41677,103 c -0.1925,0 -2.64301,2.0365 -5.44555,4.52556 l -5.09555,4.52557 -4.60431,-6.27557 c -2.53238,-3.45156 -7.3419,-8.923013 -10.68784,-12.158788 -5.68606,-5.498855 -5.88752,-5.843904 -3.08352,-5.281331 1.65,0.331043 9.3,1.512875 17,2.626293 7.7,1.113419 15.42082,2.26509 17.15738,2.559269 3.01286,0.51039 3.1873,0.357799 3.81096,-3.333619 0.35947,-2.12767 1.3092,-5.132194 2.11051,-6.676719 0.8013,-1.544525 1.25849,-3.006657 1.01597,-3.249183 -0.24253,-0.242526 -14.72628,-2.486209 -32.18612,-4.985963 L 102.66353,70.730512 99.072706,66.95577 C 93.649918,61.255236 84.586028,60.391389 78.708186,65.014901 76.227774,66.965994 76.135068,66.965317 62.531853,64.896838 55.006961,63.752617 48.643521,63.023146 48.390876,63.27579 c -0.683561,0.683562 -2.544782,12.903638 -2.041922,13.406497 0.238043,0.238044 4.845738,1.095739 10.239322,1.905989 5.393583,0.81025 9.960387,1.627053 10.148451,1.815118 0.188065,0.188065 -8.840865,6.811737 -20.064289,14.719271 -11.223424,7.907535 -19.903623,14.499905 -19.289332,14.649715 0.614292,0.14981 7.246746,-1.02834 14.738787,-2.61812 11.867436,-2.51821 13.572484,-2.68209 13.238275,-1.27238 -2.376357,10.0236 -5.197136,23.61449 -4.952041,23.85958 0.170833,0.17083 4.311391,-3.07257 9.201239,-7.20755 4.889849,-4.13499 9.115634,-7.51806 9.390634,-7.51792 0.275,1.3e-4 3.411421,5.50909 6.969824,12.24212 4.508179,8.53016 6.593416,11.63549 6.877452,10.24189 0.224196,-1.1 0.195431,-11.675 -0.06392,-23.5 l -0.47155,-21.5 6.122712,0.03217 c 6.026362,0.03166 6.193075,0.108511 10.594097,4.883554 6.848065,7.430046 15.040515,13.270166 25.695575,18.317516 l 9.69053,4.59045 -7.26911,6.60974 c -3.998,3.63536 -6.94132,6.93753 -6.54069,7.33816 0.40063,0.40062 1.92909,0.72841 3.39659,0.72841 3.92072,0 14.69422,3.72758 20.99849,7.26537 7.92357,4.4465 21.52795,18.59369 27.37971,28.47215 4.42897,7.47665 10.46933,22.9145 12.09486,30.91186 0.63364,3.11741 0.5761,3.17087 -5.66721,5.26533 -9.597,3.21954 -9.29292,2.64141 -6.14004,11.6735 2.47961,7.10339 2.75817,9.24008 2.72626,20.91179 -0.0497,18.17931 -4.28528,33.88753 -15.90887,59 C 151.8921,314.90364 146,328.24687 146,329.03746 c 0,0.44874 0.62273,0.96139 1.38385,1.13922 0.86553,0.20222 -3.07511,5.71517 -10.52105,14.71894 -6.54769,7.91759 -11.69588,14.60463 -11.44042,14.86009 0.25545,0.25546 6.16323,-2.51007 13.12839,-6.14562 C 145.51593,349.97454 151.39139,347 151.60735,347 c 0.21596,0 0.44149,3.2625 0.50118,7.25 0.0597,3.9875 0.3972,9.95 0.75,13.25 l 0.64147,6 6.89496,-10.19574 6.89496,-10.19575 9.48841,9.97904 c 5.21863,5.48847 9.62702,9.84044 9.79642,9.67103 0.16941,-0.1694 -1.90418,-9.07189 -4.60796,-19.78329 -2.70379,-10.71141 -4.92741,-20.03779 -4.94138,-20.72529 -0.014,-0.6875 1.03089,-1.25 2.32192,-1.25 2.29462,0 2.36132,-0.26388 2.96972,-11.75 0.61205,-11.55518 3.25352,-28.15163 10.14637,-63.75 1.91691,-9.9 3.53237,-19.125 3.58989,-20.5 l 0.10458,-2.5 0.86421,2.5 c 0.47531,1.375 2.32174,13.075 4.10317,26 4.46605,32.40299 4.54976,58.11567 0.23847,73.25 -0.35981,1.2631 0.0767,1.75 1.56887,1.75 1.13707,0 2.06739,0.44468 2.06739,0.98819 0,0.5435 -2.0499,8.306 -4.55533,17.25 -2.50544,8.94399 -4.7772,17.16181 -5.04837,18.26181 -0.27117,1.1 3.94397,-2.55939 9.36698,-8.13198 l 9.86001,-10.13199 6.93836,10.08268 z" />
</svg>
