<?xml version="1.0" encoding="UTF-8" standalone="no"?>
<!-- Created with Inkscape (http://www.inkscape.org/) -->

<svg
   xmlns:dc="http://purl.org/dc/elements/1.1/"
   xmlns:cc="http://creativecommons.org/ns#"
   xmlns:rdf="http://www.w3.org/1999/02/22-rdf-syntax-ns#"
   xmlns:svg="http://www.w3.org/2000/svg"
   xmlns="http://www.w3.org/2000/svg"
   version="1.1"
   width="512"
   height="512"
   id="svg2">
  <metadata
     id="metadata8">
    <rdf:RDF>
      <cc:Work
         rdf:about="">
        <dc:format>image/svg+xml</dc:format>
        <dc:type
           rdf:resource="http://purl.org/dc/dcmitype/StillImage" />
        <dc:title></dc:title>
      </cc:Work>
    </rdf:RDF>
  </metadata>
  <defs
     id="defs6" />
  <path
     d="m 0,0 512,0 0,512 -512,0 z"
     id="rect3028"
     style="fill:#000000" />
  <path
     d="m 341.70185,159.79651 c 2.90573,-5.03994 4.82752,-9.57498 4.27066,-10.07789 -1.84529,-1.66646 -77.07915,-44.75862 -78.1433,-44.75862 -1.10948,0 -10.54921,15.76798 -10.54921,17.62123 0,0.95822 76.08477,45.90219 78.28936,46.24623 0.46713,0.073 3.22676,-3.99103 6.13249,-9.03095 z m -201.56211,-3.4089 C 181.80655,84.09125 189.51685,69.953715 188.02189,68.591295 183.71359,64.664954 137.95036,39.461888 136.975,40.478368 135.38583,42.134515 37.12,212.52443 37.12,213.62385 c 0,1.53089 51.668477,30.91211 52.548411,29.88158 0.444005,-0.51998 23.156099,-39.723 50.471329,-87.11782 z m 103.24444,173.6917 c 5.06888,-8.53219 5.27121,-9.22842 3.13553,-10.79007 -4.27263,-3.12421 -75.87107,-44.08929 -77.03812,-44.07739 -1.10649,0.0115 -10.78916,15.99455 -10.73636,17.72255 0.0189,0.62135 77.626,46.06267 78.95761,46.23215 0.14456,0.0184 2.70117,-4.07086 5.68134,-9.08724 z m 113.10707,-48.6832 c 19.25925,-33.32786 34.6235,-60.99134 34.14279,-61.47438 -2.68182,-2.69482 -200.70326,-115.94702 -201.44267,-115.20886 -0.48874,0.48792 -16.52146,27.95214 -35.62825,61.03159 -33.05227,57.22314 -34.61699,60.22591 -32.21455,61.82107 6.46442,4.29221 199.34161,115.20416 199.70865,114.84031 0.22947,-0.2275 16.17479,-27.68186 35.43403,-61.00973 z m 66.49224,39.47497 c 27.16768,-47.0409 49.52645,-86.10232 49.68615,-86.80316 0.28785,-1.26322 -48.3888,-30.37655 -50.97712,-30.48925 -1.23999,-0.054 -99.98697,169.49558 -100.72589,172.94737 -0.37387,1.74646 50.41589,31.82746 51.74721,30.64808 0.48062,-0.42577 23.10196,-39.26213 50.26965,-86.30304 z M 175.49623,410.88 c 33.81098,-58.66342 37.7646,-66.10004 35.91529,-67.55555 -3.57911,-2.81698 -45.04428,-26.28201 -45.503,-25.75002 C 164.78796,318.87391 74.24,476.10198 74.24,476.74824 c 0,0.40507 14.234149,0.58242 31.63144,0.39412 L 137.50289,476.8 175.49623,410.88 z"
     id="path2989"
     style="fill:#ffffff" />
</svg>
