<?xml version="1.0" encoding="UTF-8" standalone="no"?>
<!-- Created with Inkscape (http://www.inkscape.org/) -->

<svg
   xmlns:dc="http://purl.org/dc/elements/1.1/"
   xmlns:cc="http://creativecommons.org/ns#"
   xmlns:rdf="http://www.w3.org/1999/02/22-rdf-syntax-ns#"
   xmlns:svg="http://www.w3.org/2000/svg"
   xmlns="http://www.w3.org/2000/svg"
   version="1.1"
   width="512"
   height="512"
   id="svg2">
  <metadata
     id="metadata8">
    <rdf:RDF>
      <cc:Work
         rdf:about="">
        <dc:format>image/svg+xml</dc:format>
        <dc:type
           rdf:resource="http://purl.org/dc/dcmitype/StillImage" />
        <dc:title></dc:title>
      </cc:Work>
    </rdf:RDF>
  </metadata>
  <defs
     id="defs6" />
  <path
     d="m 0,0 512,0 0,512 -512,0 z"
     id="rect3028"
     style="fill:#000000" />
  <path
     d="m 223.66621,134.85363 c 10.61284,-7.88895 0.069,-27.67507 -24.36704,-45.725999 -6.22142,-4.595785 -24.08997,-12.851136 -31.86598,-14.722241 -13.15825,-3.166205 -27.60191,-1.038472 -29.67808,4.371957 -8.18633,21.333253 41.26641,60.602373 74.3911,59.072033 5.62025,-0.25965 9.03312,-1.14716 11.52,-2.99575 z m 211.31463,19.51748 c 6.07837,-3.16861 8.51204,-9.52072 6.639,-17.32842 -7.2266,-30.12385 -56.49601,-64.166737 -92.70459,-64.054579 -10.08552,0.03124 -18.8037,3.108483 -21.13198,7.458921 -7.02376,13.124011 9.68325,39.373638 36.39913,57.189398 14.64187,9.7641 26.03832,14.61215 44.7776,19.04841 5.55621,1.31535 21.83603,-0.13223 26.02084,-2.31373 z M 312.96,249.61382 c 38.38455,-2.66398 65.8249,-6.40693 88.96,-12.13441 19.77178,-4.89483 34.58047,-11.35114 34.54415,-15.06059 -0.0553,-5.64973 -29.00413,-15.5797 -60.14415,-20.63053 -79.07542,-12.82581 -189.22565,-10.64667 -256.64,5.07721 -15.69811,3.66145 -31.231561,9.61661 -34.497628,13.22558 -2.033521,2.24702 -1.922455,2.54386 2.095137,5.59986 13.676311,10.40294 61.471581,20.13612 116.882491,23.80233 22.47302,1.4869 88.06551,1.55959 108.8,0.12058 z M 266.87954,410.24 C 284.21623,386.31144 304.2165,365.71995 352,322.60334 c 20.064,-18.1044 41.27022,-37.98315 47.12495,-44.17501 9.56793,-10.11888 24.55505,-27.92923 24.55505,-29.18065 0,-0.26893 -6.192,1.1414 -13.76,3.13408 -66.25272,17.44458 -187.31505,20.18316 -270.58396,6.12093 -8.19719,-1.38432 -20.54022,-3.9467 -27.42898,-5.69418 -6.88876,-1.74747 -12.702709,-2.99952 -12.919892,-2.78235 -0.217184,0.21719 2.859522,4.38615 6.837112,9.26436 7.37456,9.04433 24.04408,25.84269 83.10714,83.74948 31.73284,31.11162 51.51515,53.46113 64.10836,72.42788 2.56429,3.8621 5.05797,6.56978 5.54152,6.01706 0.48354,-0.55272 4.21775,-5.61294 8.29824,-11.24494 z m -9.5324,38.20868 c -0.11725,-2.56945 -20.70141,-30.30179 -34.18701,-46.05901 -7.14994,-8.35432 -27.30994,-29.29288 -44.8,-46.53014 C 107.47883,286.00279 95.763671,273.43743 81.080445,251.52 58.409306,217.67914 48.310051,180.21924 52.437952,145.28 c 4.62126,-39.11512 25.098783,-68.222729 57.627228,-81.913764 11.83695,-4.982102 23.07114,-6.999992 39.05482,-7.015042 41.95062,-0.0395 76.71384,21.550478 101.38898,62.968436 4.07606,6.84179 7.69902,12.45394 8.05102,12.47144 0.352,0.0175 2.87944,-4.14034 5.61652,-9.23963 19.91195,-37.096661 42.83398,-57.551815 73.74348,-65.807201 11.29897,-3.017757 34.76289,-2.991398 46.08,0.05176 12.81806,3.446768 30.39341,12.554411 40.2286,20.84668 41.4868,34.978481 52.26717,101.139001 25.6281,157.283021 -13.35269,28.14192 -34.13445,52.33586 -84.4167,98.27721 -58.24365,53.21542 -82.06107,78.76268 -105.85286,113.54086 -1.19508,1.74693 -2.20308,2.51414 -2.24,1.70491 z M 268.16,468.15365 C 293.22057,427.95338 310.8607,408.52486 380.8,344.094 432.81039,296.17994 454.97571,269.32324 468.82337,237.44 486.2656,197.28059 487.15581,149.58298 471.17828,111.26557 454.99484,72.454396 418.87967,43.5933 378.30675,37.048187 c -11.9366,-1.925582 -33.9596,-0.932119 -45.50675,2.05282 -10.71555,2.769972 -26.90225,10.285049 -37.2721,17.304496 -9.93845,6.727417 -25.54966,22.308971 -32.47029,32.408591 l -5.10237,7.446161 -3.20804,-4.290128 C 252.98278,89.610557 247.79085,83.718879 243.20957,78.877508 215.12204,49.195287 174.77966,33.805774 136.32301,38.103197 86.713737,43.646895 50.077801,75.547529 37.508891,124.1453 c -4.239326,16.39138 -5.35731,44.02893 -2.48656,61.46992 3.006738,18.26716 7.820129,33.60169 15.463846,49.26478 16.25285,33.30447 28.263147,47.72154 95.435483,114.56 66.74238,66.41065 78.2861,79.79076 102.97809,119.36 4.72257,7.568 8.9721,13.75249 9.44338,13.74331 0.47128,-0.009 4.88887,-6.48453 9.81687,-14.38966 z"
     id="path2989"
     style="fill:#ffffff" />
</svg>
