<?xml version="1.0" encoding="UTF-8" standalone="no"?>
<!-- Created with Inkscape (http://www.inkscape.org/) -->

<svg
   xmlns:dc="http://purl.org/dc/elements/1.1/"
   xmlns:cc="http://creativecommons.org/ns#"
   xmlns:rdf="http://www.w3.org/1999/02/22-rdf-syntax-ns#"
   xmlns:svg="http://www.w3.org/2000/svg"
   xmlns="http://www.w3.org/2000/svg"
   version="1.1"
   width="512"
   height="512"
   id="svg2">
  <metadata
     id="metadata8">
    <rdf:RDF>
      <cc:Work
         rdf:about="">
        <dc:format>image/svg+xml</dc:format>
        <dc:type
           rdf:resource="http://purl.org/dc/dcmitype/StillImage" />
        <dc:title></dc:title>
      </cc:Work>
    </rdf:RDF>
  </metadata>
  <defs
     id="defs6" />
  <path
     d="m 0,0 512,0 0,512 -512,0 z"
     id="rect3022"
     style="fill:#000000" />
  <path
     d="m 222.23176,247.52219 c 5.84677,-2.77447 9.00926,-7.52193 11.50804,-17.2756 6.40708,-25.00927 -9.61512,-56.16659 -28.88284,-56.16659 -4.63295,0 -6.22586,0.74772 -10.32454,4.8464 -13.36736,13.36736 -9.81719,47.08022 6.63966,63.05106 7.4781,7.25724 13.89211,8.94597 21.05968,5.54473 z M 373.76,448.05687 c -36.01532,-6.65984 -61.70488,-44.70601 -61.8346,-91.57687 -0.0627,-22.66465 3.80718,-38.59246 14.24168,-58.61603 6.79608,-13.04154 10.15615,-16.88627 6.61664,-7.57103 -4.78439,12.59146 -6.7219,27.76364 -6.00032,46.98706 0.78163,20.82383 2.58547,28.48891 10.63081,45.17367 8.04859,16.69149 19.82987,29.02039 34.84207,36.46153 10.83699,5.37162 10.99099,5.4048 25.08383,5.4048 20.66402,0 33.4183,-5.1605 48.56079,-19.64813 l 6.2209,-5.95187 -2.2409,4.48 c -15.32785,30.64334 -48.20713,50.0186 -76.1209,44.85687 z m 38.40768,16.05943 c 18.8466,-5.59684 40.95597,-24.59306 50.78751,-43.6363 8.92924,-17.29555 11.27978,-26.8793 11.14473,-45.44 -0.14103,-19.38322 -2.72846,-28.2544 -15.11999,-51.84 C 435.05165,277.65578 413.52198,249.04828 340.49245,165.76 303.47752,123.54542 303.36,123.39918 303.36,119.55242 c 0,-3.96604 3.50756,-5.6383 11.75585,-5.60472 12.80656,0.0521 44.07619,8.77176 64.79853,18.06925 4.56173,2.0467 8.60842,3.40691 8.99267,3.02267 C 390.61265,133.33403 361.98982,107.40207 344.96,95.22409 286.39272,53.342792 210.55781,30.326798 153.56643,37.135884 115.19678,41.72012 85.704227,55.733335 62.437615,80.435196 54.839978,88.50151 41.733211,106.15988 42.657588,107.08425 c 0.188598,0.1886 5.889864,-1.94104 12.66948,-4.73254 C 73.66215,94.802257 87.616116,91.760392 104.32,91.671597 c 17.06181,-0.0907 24.5915,1.58823 39.84288,8.883943 14.15512,6.7713 28.8443,19.90937 37.59712,33.62704 3.168,4.96498 6.13457,9.06103 6.59236,9.10233 0.4578,0.0413 -0.25829,-4.10091 -1.59131,-9.20491 -7.85138,-30.06207 -5.09057,-39.642829 9.55651,-33.16373 16.94635,7.49618 40.08966,27.23181 51.72855,44.1119 24.70915,35.83618 32.43817,70.16343 37.37863,166.01183 2.08672,40.48364 3.90833,62.73683 5.97237,72.96 11.43001,56.61261 69.71573,95.27795 120.77057,80.1163 z"
     id="path2989"
     style="fill:#ffffff" />
</svg>
