<?xml version="1.0" encoding="UTF-8" standalone="no"?>
<!-- Created with Inkscape (http://www.inkscape.org/) -->

<svg
   xmlns:dc="http://purl.org/dc/elements/1.1/"
   xmlns:cc="http://creativecommons.org/ns#"
   xmlns:rdf="http://www.w3.org/1999/02/22-rdf-syntax-ns#"
   xmlns:svg="http://www.w3.org/2000/svg"
   xmlns="http://www.w3.org/2000/svg"
   version="1.1"
   width="512"
   height="512"
   id="svg2">
  <metadata
     id="metadata8">
    <rdf:RDF>
      <cc:Work
         rdf:about="">
        <dc:format>image/svg+xml</dc:format>
        <dc:type
           rdf:resource="http://purl.org/dc/dcmitype/StillImage" />
        <dc:title></dc:title>
      </cc:Work>
    </rdf:RDF>
  </metadata>
  <defs
     id="defs6" />
  <path
     d="m 0,0 512,0 0,512 -512,0 z"
     id="rect3028"
     style="fill:#000000;fill-opacity:1;fill-rule:nonzero;stroke:none" />
  <path
     d="m 455.3067,334.50831 c 18.39317,-4.79081 30.23734,-18.1723 35.82398,-40.47375 3.01098,-12.01965 2.27962,-35.10127 -1.54898,-48.88585 -7.92507,-28.53352 -24.38237,-45.21624 -44.51319,-45.12291 -12.86525,0.0597 -26.39665,7.24304 -40.56852,21.53649 -12.13152,12.23562 -19.39434,23.49156 -24.35239,37.74138 -3.04722,8.75795 -3.60508,11.77888 -3.95458,21.41493 -0.3388,9.34164 -0.0549,12.37763 1.69717,18.14576 4.32083,14.22541 16.36895,25.50506 33.71566,31.56521 15.55098,5.4328 32.44767,7.00982 43.70085,4.07874 z m -85.83217,73.74167 c -4.57762,-13.32242 -6.47672,-23.44809 -6.46266,-34.45784 0.02,-15.65722 4.31127,-26.50251 13.69045,-34.59994 l 5.22106,-4.50752 -4.51254,-3.97209 c -4.8566,-4.27496 -11.64477,-13.63489 -14.03183,-19.34794 -1.80997,-4.33186 -3.00353,-3.62687 -7.30486,4.31468 -13.32763,24.60683 -11.40715,57.0611 5.09935,86.17501 3.17131,5.59347 10.53718,16.14563 11.27038,16.14563 0.20944,0 -1.12676,-4.38749 -2.96935,-9.74999 z M 129.06851,423.4046 c 12.71875,-3.73585 24.39402,-12.61118 29.06228,-22.09265 1.81155,-3.67932 2.35173,-6.37996 2.29494,-11.47341 -0.064,-5.73844 -0.54893,-7.45018 -3.5,-12.35382 -3.87642,-6.44126 -12.76953,-15.13682 -19.53656,-19.10256 -3.71286,-2.17588 -4.43544,-3.05279 -3.93371,-4.77384 4.41221,-15.1349 1.9909,-32.26528 -6.63664,-46.95292 l -4.02052,-6.84458 4.90911,-4.80707 c 9.5211,-9.32321 14.33913,-23.17128 12.29181,-35.32931 -0.87683,-5.20707 -3.93577,-14.81886 -5.8608,-18.41582 -0.88931,-1.66169 -0.5383,-2.17438 2.47119,-3.60952 14.44831,-6.88992 25.07177,-20.73505 27.51002,-35.8527 2.45691,-15.23337 2.10678,-14.29642 5.34245,-14.29642 2.80349,0 3.32558,0.74476 10.30377,14.69838 12.69372,25.3824 21.62603,31.61342 27.90698,19.46741 2.05733,-3.97845 3.17415,-17.42459 2.38093,-28.66578 -0.36869,-5.22501 -0.27062,-10.71449 0.21795,-12.19886 2.57591,-7.82626 22.76578,-5.4307 27.24583,3.23276 1.239,2.39598 1.30218,4.84718 0.40347,15.65346 -2.60898,31.37081 3.75619,49.81677 13.65194,39.56263 4.11464,-4.26365 10.88832,-19.38581 15.34161,-34.24999 5.55459,-18.54007 9.29702,-21.81285 19.59402,-17.13503 5.25852,2.3889 10.49142,8.37645 10.49142,12.00444 0,1.53991 -1.81873,7.26175 -4.04163,12.7152 C 287.45133,226.09518 284,238.39357 284,244.50675 c 0,13.99011 10.33402,8.7283 33.7274,-17.17312 8.52783,-9.44211 12.35362,-12.33364 16.31865,-12.33364 7.85881,0 14.71055,12.87982 10.80744,20.31573 -0.63058,1.20134 -3.90456,5.55926 -7.27549,9.68427 -17.93966,21.95266 -23.30565,33.34445 -17.04932,36.19501 3.52728,1.60714 10.78244,-0.82221 26.56604,-8.89549 l 12.59471,-6.44218 1.15917,-5.02178 c 4.63665,-20.08708 21.85349,-46.42548 39.5667,-60.52931 14.0208,-11.16381 31.55897,-18.27153 45.08469,-18.27153 7.17886,0 17.42704,2.38786 23.53771,5.48437 l 5.27555,2.67333 -0.66156,-9.84622 c -0.36386,-5.41541 -1.29823,-11.93525 -2.07638,-14.48851 -7.26753,-23.84615 -26.84862,-37.53861 -48.95743,-34.23451 -3.63984,0.54395 -6.60185,0.73878 -6.58226,0.43291 0.0196,-0.30585 0.68755,-3.25609 1.48438,-6.5561 5.99265,-24.81842 -8.48329,-52.153572 -34.5535,-65.247951 -13.37373,-6.717272 -30.8008,-9.009022 -43.4511,-5.714041 -6.06635,1.580083 -15.3201,6.316823 -17.52067,8.968345 -2.13931,2.577712 -3.55618,1.662717 -5.81669,-3.756349 -9.59773,-23.008308 -37.63453,-40.172864 -62.67805,-38.372456 -14.57044,1.047488 -24.28323,5.407336 -34.33925,15.414105 -4.85788,4.834081 -7.83772,8.943499 -10.66538,14.708352 -2.1582,4.4 -4.01254,8.147486 -4.12076,8.327747 -0.10828,0.180262 -2.53104,-1.277949 -5.38405,-3.240468 -16.419,-11.294301 -40.98389,-7.904914 -61.59934,8.499287 -14.51143,11.547096 -23.80961,30.163375 -21.9746,43.996299 l 0.62909,4.74235 -5.17401,-1.96597 c -10.71385,-4.07094 -25.011271,-2.21513 -35.902422,4.66015 -21.192407,13.37818 -35.304508,45.77839 -31.015198,71.2083 1.248988,7.40484 6.475286,19.73178 9.388795,22.14474 2.446819,2.02647 2.074197,2.68603 -2.249309,3.98138 -5.657338,1.69499 -15.220509,9.11266 -18.889264,14.65147 -16.11804,24.3338 -8.781737,62.55753 14.532031,75.71499 l 5.23827,2.9563 -2.852773,4.16171 c -9.008275,13.14154 -13.389403,29.02245 -11.172132,40.49724 3.521095,18.22232 18.025037,30.15541 39.659103,32.62948 l 6.108791,0.69859 1.697814,6.1682 c 4.020024,14.60485 13.065718,27.71378 21.887184,31.71866 5.23312,2.37583 14.37665,2.52459 21.76593,0.35416 z m 309.43148,-0.58592 c 15.45932,-7.8996 28.75424,-20.58092 35.31133,-33.68157 5.58301,-11.15451 7.55875,-20.71092 6.97862,-33.75483 -0.25409,-5.71322 -0.69534,-10.62103 -0.98053,-10.90624 -0.28521,-0.28519 -3.34851,0.88555 -6.80735,2.60166 -3.45883,1.7161 -9.37533,3.86316 -13.14778,4.77123 -5.383,1.29576 -6.71802,1.97383 -6.20395,3.15104 6.14324,14.06795 5.71028,24.39689 -1.64922,39.34619 -3.85607,7.83278 -13.30942,19.56814 -23.28636,28.90756 l -7.21474,6.75376 L 427,427.94605 c 3.025,-1.13377 8.2,-3.4411 11.50001,-5.12737 z M 219.14164,461.4702 c 12.17959,-2.56207 21.18406,-7.55371 30.40356,-16.85428 6.97998,-7.04137 17.12936,-21.27471 15.9858,-22.41828 -0.21475,-0.21474 -2.45627,1.03088 -4.98118,2.76804 -26.26785,18.07278 -56.84037,15.66057 -84.30569,-6.65182 l -4.25588,-3.45741 -6.74412,6.87339 c -3.70927,3.78036 -8.83192,8.20014 -11.38368,9.82176 -9.3577,5.94672 -8.68014,5.08974 -5.86045,7.41228 9.55894,7.87357 23.43286,15.44882 35.76044,19.52544 13.84829,4.57951 23.79697,5.41768 35.3812,2.98088 z"
     id="path2989"
     style="fill:#ffffff" />
</svg>
