<?xml version="1.0" encoding="UTF-8" standalone="no"?>
<!-- Created with Inkscape (http://www.inkscape.org/) -->

<svg
   xmlns:dc="http://purl.org/dc/elements/1.1/"
   xmlns:cc="http://creativecommons.org/ns#"
   xmlns:rdf="http://www.w3.org/1999/02/22-rdf-syntax-ns#"
   xmlns:svg="http://www.w3.org/2000/svg"
   xmlns="http://www.w3.org/2000/svg"
   version="1.1"
   width="512"
   height="512"
   id="svg2">
  <metadata
     id="metadata8">
    <rdf:RDF>
      <cc:Work
         rdf:about="">
        <dc:format>image/svg+xml</dc:format>
        <dc:type
           rdf:resource="http://purl.org/dc/dcmitype/StillImage" />
        <dc:title></dc:title>
      </cc:Work>
    </rdf:RDF>
  </metadata>
  <defs
     id="defs6" />
  <path
     d="m 0,0 512,0 0,512 -512,0 z"
     id="rect3022"
     style="fill:#000000;fill-opacity:1;fill-rule:nonzero;stroke:none" />
  <path
     d="m 488.38757,285.41279 c 11.14367,-11.47426 7.52434,-30.9055 -7.08822,-38.05476 -16.83211,-8.23518 -35.26813,3.38351 -35.29377,22.24275 -0.003,2.25542 0.45416,5.41958 1.01606,7.03146 1.01728,2.91817 1.05129,2.92902 7.95713,2.5388 8.45946,-0.478 18.73484,2.33594 24.58369,6.7323 2.16565,1.62783 4.25338,2.99051 4.6394,3.02818 0.38603,0.0377 2.2696,-1.54576 4.18571,-3.51873 z M 269,467.1817 c 35.18916,-7.57359 62.08543,-22.35629 88.57358,-48.6817 22.41133,-22.27364 37.18799,-44.25192 43.70146,-65 13.83998,-44.08601 -7.14937,-83.01421 -49.11301,-91.08815 -25.91943,-4.98699 -56.20113,3.58165 -90.07074,25.48679 -13.44884,8.69802 -27.01915,15.26551 -36.15518,17.49765 -8.33017,2.03525 -23.71733,2.07218 -31.38381,0.0753 -15.4186,-4.01602 -33.43626,-18.7177 -42.24672,-34.47159 -14.97401,-26.77489 -14.67367,-56.72714 0.7232,-72.12402 7.23621,-7.23621 9.82271,-8.21888 20.09193,-7.63335 10.13226,0.57771 18.88162,4.05436 25.69565,10.21043 11.0076,9.9447 14.74435,27.69585 8.81666,41.88281 -0.84203,2.01527 -1.29751,3.66413 -1.01217,3.66413 1.42087,0 9.42694,-6.32819 13.24115,-10.46612 6.2568,-6.78782 8.60015,-12.53967 8.56937,-21.03388 -0.0218,-6.01185 -0.50252,-7.89229 -3.4055,-13.32093 C 221.18254,194.99195 215.01099,189.09102 207,184.94362 l -5.5,-2.84742 5,-0.0333 c 7.10212,-0.0473 16.84325,2.46979 23.69894,6.12384 10.9221,5.82142 21.42684,20.13409 23.69736,32.28758 0.47451,2.53995 1.08313,4.83847 1.35249,5.10783 0.26937,0.26936 1.56108,-2.11393 2.87048,-5.29619 1.96572,-4.77733 2.37951,-7.52914 2.37372,-15.78594 -0.006,-9.07752 -0.27893,-10.53843 -2.95476,-15.8368 -5.25468,-10.40468 -17.54144,-19.35053 -31.65004,-23.04404 -5.34205,-1.3985 -5.36408,-1.42004 -2.57309,-2.51487 6.60533,-2.5911 24.81888,-0.59717 37.80447,4.13865 8.84609,3.22615 14.52597,6.66671 21.44946,12.99292 l 5.76115,5.26414 -0.6049,-5.86682 C 285.39688,157.05014 263.40489,143.74891 231,145.3245 c -24.21804,1.17753 -48.3209,9.45408 -69.65894,23.9198 -4.31258,2.92364 -9.86606,6.49434 -12.34106,7.9349 -11.85743,6.90155 -22.31087,22.35703 -25.60419,37.85598 -2.35139,11.06605 -1.44512,29.6273 2.02457,41.46482 14.20116,48.45012 55.79061,77.24715 99.56874,68.94258 15.26904,-2.89649 27.55243,-8.20317 44.4919,-19.22145 14.78654,-9.61791 28.62576,-16.6479 41.01898,-20.83667 9.59301,-3.24233 12.52061,-3.7769 22.88828,-4.17935 18.82164,-0.73062 29.61119,2.73789 39.67876,12.75548 15.52373,15.44668 17.14756,39.88005 4.42384,66.56455 -4.06107,8.51697 -15.77303,25.10233 -25.4041,35.97486 C 307.52916,446.80118 243.70074,463.34015 180.5,440.96091 112.21728,416.78214 59.096733,354.94358 44.808461,283 41.70849,267.39118 41.465068,231.07612 44.356006,215.5 52.885947,169.54141 74.912565,128.42698 106.71916,99.094233 132.87407,74.973599 163.92302,59.927353 202.20302,52.82299 218.73167,49.755448 256.54079,49.506713 273,52.357237 c 38.91709,6.739942 79.48325,24.922653 110,49.304613 29.53837,23.60026 52.79018,55.37309 64.31036,87.87797 3.00189,8.47 7.68363,28.8745 7.70495,33.58059 0.0231,5.0926 1.06136,6.18748 4.56766,4.81663 1.60437,-0.62726 6.54217,-1.12606 10.9729,-1.10844 7.51428,0.0299 10.18552,0.66109 19.71645,4.65907 1.6155,0.67765 1.71937,0.22445 1.17394,-5.12212 -2.26642,-22.21641 -9.37815,-46.08845 -20.19797,-67.79883 C 438.2413,92.336989 373.64312,45.230517 298.5,32.594727 274.46452,28.55301 248.93727,28.218423 216.5,31.519951 180.5903,35.174909 151.21045,44.722256 123.91476,61.606681 64.821578,98.160227 25.510886,167.37224 22.361858,240.40488 20.87867,274.80315 29.064774,312.30641 44.954593,343.90969 78.40413,410.43752 142.58975,458.48909 211.5,468.59134 c 13.57312,1.98982 45.32144,1.2115 57.5,-1.40964 z M 401.30676,482.75 c 27.78258,-43.9664 66.44677,-121.76151 75.66828,-152.25 2.91063,-9.6232 3.08906,-11.10266 1.96899,-16.32539 -1.3011,-6.06679 -6.66815,-12.69035 -12.38822,-15.28848 -5.01015,-2.27568 -13.31155,-2.44594 -16.32557,-0.33485 -3.31872,2.32453 -4.01094,4.21552 -5.69628,15.56102 -6.47188,43.56779 -31.42934,87.52785 -75.74625,133.41941 -12.78652,13.24084 -13.28423,13.91464 -13.1955,17.86406 0.0507,2.25733 0.84401,5.55559 1.76288,7.32948 3.89023,7.51014 15.7682,15.53869 27.64491,18.68575 9.46188,2.50719 9.14226,2.67694 16.30676,-8.661 z"
     id="path2989"
     style="fill:#ffffff" />
</svg>
