<?xml version="1.0" encoding="UTF-8" standalone="no"?>
<!-- Created with Inkscape (http://www.inkscape.org/) -->

<svg
   xmlns:dc="http://purl.org/dc/elements/1.1/"
   xmlns:cc="http://creativecommons.org/ns#"
   xmlns:rdf="http://www.w3.org/1999/02/22-rdf-syntax-ns#"
   xmlns:svg="http://www.w3.org/2000/svg"
   xmlns="http://www.w3.org/2000/svg"
   version="1.1"
   width="512"
   height="512"
   id="svg2">
  <metadata
     id="metadata8">
    <rdf:RDF>
      <cc:Work
         rdf:about="">
        <dc:format>image/svg+xml</dc:format>
        <dc:type
           rdf:resource="http://purl.org/dc/dcmitype/StillImage" />
        <dc:title></dc:title>
      </cc:Work>
    </rdf:RDF>
  </metadata>
  <defs
     id="defs6" />
  <path
     d="m 0,0 512,0 0,512 -512,0 z"
     id="rect3026"
     style="fill:#000000;fill-opacity:1;fill-rule:nonzero;stroke:none" />
  <path
     d="m 170.62715,132.66188 c 0.68482,-0.8719 -6.36227,-68.980853 -7.12715,-68.882607 -7.71596,0.991099 -14.80132,2.842384 -15.23846,3.981555 -0.52503,1.368204 4.4784,62.372822 5.3407,65.116762 0.34617,1.10156 2.08251,1.23418 8.66534,0.66188 4.52783,-0.39364 8.28964,-0.78856 8.35957,-0.87759 z m -45.43885,4.49426 c 4.22856,-0.38467 7.94571,-0.95681 8.26032,-1.27143 0.53276,-0.53276 -3.84374,-53.359481 -5.02889,-60.701462 -0.50605,-3.134933 -0.71039,-3.27998 -3.72757,-2.64595 -8.53302,1.793133 -37.265719,12.045201 -47.112145,16.810008 -25.659373,12.416884 -34.534076,24.523514 -27.178072,37.075584 3.645588,6.22073 11.506694,9.96412 24.36983,11.60472 6.928435,0.88367 36.798607,0.36736 50.416527,-0.87147 z M 451.19202,316 c 4.59973,-23.76834 10.134,-61.41565 12.49527,-85 1.32793,-13.26331 1.75536,-26.69966 1.76552,-55.5 0.0121,-34.2211 -0.20241,-39.3425 -2.15694,-51.5 C 455.78969,77.310467 443.37962,63.887947 399.10311,54.570176 362.40806,46.847886 303.01828,45.885314 242.5,52.032 c -22.16323,2.251062 -56.65562,6.998577 -57.77122,7.951601 -0.42416,0.362356 0.68376,16.532231 2.46206,35.933056 l 3.23328,35.274223 11.03794,-0.74486 c 19.00143,-1.28227 54.90572,-0.77498 69.53794,0.9825 34.37202,4.12841 60.83499,14.91203 77.90085,31.74449 17.88504,17.64044 28.67378,46.70326 30.86029,83.1318 0.93586,15.59202 -0.15917,49.93005 -2.12689,66.69519 -0.80692,6.875 -1.3001,12.66713 -1.09596,12.8714 0.57243,0.57278 66.70038,9.96044 68.92087,9.78414 1.73069,-0.1374 2.39924,-2.42956 5.73286,-19.65554 z M 440.458,363.79134 c 1.07691,-4.23977 1.75191,-7.90798 1.5,-8.15159 C 441.50601,355.20263 377.2927,346 374.69461,346 c -0.9242,0 -1.67923,2.56207 -2.43123,8.25 -0.59991,4.5375 -1.01708,8.31545 -0.92706,8.39545 0.48143,0.42781 63.47794,9.13501 65.16368,9.00674 1.62439,-0.12361 2.36772,-1.5999 3.958,-7.86085 z m -51.03077,104.23633 c 7.22169,-2.74569 17.45385,-15.62372 25.84465,-32.52767 7.44733,-15.00328 18.45066,-44.49537 16.60312,-44.50118 -0.20625,-6.5e-4 -14.5493,-1.98885 -31.87344,-4.41822 -17.32415,-2.42938 -31.56399,-4.34135 -31.6441,-4.24882 -0.45513,0.52567 -3.55562,27.53232 -4.28912,37.3602 -0.98448,13.19055 0.13565,29.80045 2.45251,36.36711 3.60536,10.21868 13.67309,15.47907 22.90638,11.96858 z"
     id="path2989"
     style="fill:#ffffff" />
</svg>
