<?xml version="1.0" encoding="UTF-8" standalone="no"?>
<!-- Created with Inkscape (http://www.inkscape.org/) -->

<svg
   xmlns:dc="http://purl.org/dc/elements/1.1/"
   xmlns:cc="http://creativecommons.org/ns#"
   xmlns:rdf="http://www.w3.org/1999/02/22-rdf-syntax-ns#"
   xmlns:svg="http://www.w3.org/2000/svg"
   xmlns="http://www.w3.org/2000/svg"
   version="1.1"
   width="512"
   height="512"
   id="svg2">
  <metadata
     id="metadata8">
    <rdf:RDF>
      <cc:Work
         rdf:about="">
        <dc:format>image/svg+xml</dc:format>
        <dc:type
           rdf:resource="http://purl.org/dc/dcmitype/StillImage" />
        <dc:title></dc:title>
      </cc:Work>
    </rdf:RDF>
  </metadata>
  <defs
     id="defs6" />
  <path
     d="m 0,0 512,0 0,512 -512,0 z"
     id="rect3054"
     style="fill:#000000;fill-opacity:1;fill-rule:nonzero;stroke:none" />
  <path
     d="m 447.99108,69.626352 c 5.4555,-2.716011 9.54549,-8.850095 10.98485,-16.47487 1.31527,-6.967385 -0.69876,-16.975313 -5.06457,-25.166406 L 450.72135,22 410.77734,22 c -25.97232,0 -39.82741,0.346989 -39.61067,0.992015 0.74972,2.231221 32.75367,34.686723 38.05071,38.587581 14.69742,10.823515 27.7536,13.533082 38.7737,8.046756 z m 11.09166,174.732098 c 11.39288,-6.20078 16.62478,-19.03379 13.92994,-34.1679 -1.60155,-8.9942 -8.62468,-23.01944 -15.92901,-31.81031 C 440.4691,158.38434 382.81495,111.12565 294.06843,44.757819 L 263.63686,22 251.19598,22 c -9.8062,0 -12.23432,0.264719 -11.46555,1.25 0.53643,0.6875 10.33739,13.85 21.77991,29.25 73.64954,99.12176 123.80002,160.77768 144.82792,178.0541 19.83102,16.29306 38.96903,21.30189 52.74448,13.80435 z M 178,331.92146 c 12.3395,-5.57914 17.98331,-17.2933 15.85141,-32.90081 C 191.04097,278.44568 179.45742,263.4352 140.82542,230.3072 120.856,213.18288 81.57788,181.66613 43.434923,152.1611 L 17.5,132.09945 l -0.265817,27.44943 -0.265817,27.44943 16.720755,21.25084 c 60.708496,77.15602 88.144079,107.53409 106.791009,118.24443 13.02144,7.47918 28.14423,9.66695 37.51987,5.42788 z M 461.53001,459.45017 C 478.59749,455.00465 488.82802,441.06548 489.75017,421 490.72662,399.75276 480.93681,377.84248 460.92748,356.49284 420.91903,313.80444 291.87496,206.68699 84,43.611266 63.041135,27.169256 55.826065,22.033309 53.666667,22.018903 c -1.558334,-0.0104 -2.683334,0.397969 -2.5,0.907479 0.604048,1.678738 67.462393,86.466058 116.360343,147.563958 118.73123,148.35445 190.84199,233.38587 221.2059,260.84114 26.34238,23.81897 51.70023,33.61372 72.7971,28.11869 z m -295.49549,32.55675 c 13.36571,-3.71315 19.99713,-15.37969 17.791,-31.29941 -1.82569,-13.17437 -8.16317,-23.91344 -22.7694,-38.58345 C 145.08832,406.08652 100.56558,367.25636 43.5,319.5984 l -26,-21.71374 -0.265508,28.66285 -0.265508,28.66285 10.238746,12.14482 c 43.783568,51.93445 75.89969,88.62351 89.21606,101.91933 18.17894,18.1509 36.26744,26.43932 49.61073,22.73241 z"
     id="path3017"
     style="fill:#ffffff" />
</svg>
