<?xml version="1.0" encoding="UTF-8" standalone="no"?>
<!-- Created with Inkscape (http://www.inkscape.org/) -->

<svg
   xmlns:dc="http://purl.org/dc/elements/1.1/"
   xmlns:cc="http://creativecommons.org/ns#"
   xmlns:rdf="http://www.w3.org/1999/02/22-rdf-syntax-ns#"
   xmlns:svg="http://www.w3.org/2000/svg"
   xmlns="http://www.w3.org/2000/svg"
   version="1.1"
   width="512"
   height="512"
   id="svg2">
  <metadata
     id="metadata8">
    <rdf:RDF>
      <cc:Work
         rdf:about="">
        <dc:format>image/svg+xml</dc:format>
        <dc:type
           rdf:resource="http://purl.org/dc/dcmitype/StillImage" />
        <dc:title></dc:title>
      </cc:Work>
    </rdf:RDF>
  </metadata>
  <defs
     id="defs6" />
  <path
     d="M 0,256 0,0 l 256,0 256,0 0,256 0,256 -256,0 -256,0 0,-256 z"
     id="path3021"
     style="fill:#000000" />
  <path
     d="m 298.48687,440.5 c 22.37146,-27.5 40.89915,-50.52896 41.17264,-51.17547 0.2735,-0.64651 -18.7519,-24.84154 -42.27866,-53.76675 C 263.88051,294.37046 254.35238,283.24119 253.44029,284.23325 250.19239,287.76591 169,388.10539 169,388.58656 c 0,0.30905 19.19305,24.18546 42.65122,53.05868 40.94395,50.39541 42.72144,52.42388 44.40574,50.67577 C 257.02196,491.31945 276.11542,468 298.48687,440.5 z"
     id="path3019"
     style="fill:#ffffff" />
  <path
     d="m 142,341.09603 c 0,-0.49719 -4.88257,-12.61027 -10.85015,-26.91795 l -10.85014,-26.01397 3.60014,2.23805 c 13.16987,8.18713 31.01587,8.53435 44.72842,0.87025 9.40488,-5.25648 17.65971,-15.76831 20.86888,-26.57476 1.88106,-6.33422 1.92367,-18.73987 0.0852,-24.79708 C 183.6296,220.28844 166.04551,207 146.04623,207 l -3.68079,0 3.29824,-6.75 C 161.46554,167.91077 135.02689,131.6099 99.575487,136.96987 71.167068,141.265 54.173346,170.40856 64.571685,197 c 0.967826,2.475 2.570709,5.67422 3.561962,7.10938 l 1.802278,2.60938 -6.717962,0.64305 c -12.965147,1.24104 -21.850632,5.38449 -29.980138,13.98024 -8.640042,9.13557 -12.348936,18.535 -12.348936,31.29583 0,29.39351 29.32163,51.09638 57.255776,42.37876 3.495434,-1.09084 7.877325,-2.92041 9.737534,-4.06569 2.076953,-1.27873 3.180325,-1.57459 2.859096,-0.76665 -0.287707,0.72364 -5.072197,12.17699 -10.632199,25.4519 C 74.549093,328.91111 70,340.27361 70,340.8862 70,341.68397 80.214557,342 106,342 c 20.78391,0 36,-0.38208 36,-0.90397 z"
     id="path3017"
     style="fill:#ffffff" />
  <path
     d="m 446,340.41349 c 0,-0.32258 -5.00185,-12.58508 -11.11522,-27.25 -6.11338,-14.66492 -11.34525,-27.24874 -11.62639,-27.96404 -0.28114,-0.7153 2.36173,0.27859 5.87303,2.20865 24.89527,13.68415 53.78344,4.60742 63.05412,-19.81177 3.32595,-8.76062 3.30827,-26.02642 -0.037,-36.09633 -8.79469,-26.47399 -34.60532,-58.5685 -71.01008,-88.29829 l -11.2966,-9.22531 -2.67095,1.91995 c -15.01259,10.79151 -46.80298,41.30912 -57.67094,55.36198 -14.35699,18.56437 -22.52487,34.86055 -24.5372,48.95545 -2.60099,18.21811 4.73429,36.52304 18.58071,46.36748 11.67462,8.30035 28.81832,9.71363 42.15046,3.47477 3.72618,-1.74369 7.57214,-3.89187 8.54658,-4.77372 0.97444,-0.88186 1.9291,-1.41864 2.12146,-1.19285 0.19235,0.2258 -2.7672,7.83554 -6.57679,16.91054 -3.80959,9.075 -9.11899,21.7875 -11.79865,28.25 l -4.87212,11.75 36.44277,0 C 429.60075,341 446,340.73607 446,340.41349 z"
     id="path3015"
     style="fill:#ffffff" />
  <path
     d="m 256.99622,194.75 c 3.56422,-7.54956 11.06622,-15.5459 31.97434,-34.08128 33.09323,-29.33767 45.52983,-43.1382 53.52362,-59.39359 10.90677,-22.178922 8.04472,-47.857975 -7.16499,-64.286277 -14.46821,-15.627399 -37.18041,-19.276805 -57.17733,-9.18728 -6.59622,3.328146 -16.232,11.91141 -20.51978,18.278407 l -3.21463,4.773447 -2.79935,-4.424825 c -3.89278,-6.153151 -13.45993,-14.541587 -20.87968,-18.307216 -3.43113,-1.741346 -9.91984,-3.927182 -14.41936,-4.857413 -19.95099,-4.124671 -40.55218,4.598913 -49.76503,21.073026 -8.84043,15.808174 -8.85678,36.027844 -0.0446,55.163001 7.34525,15.94979 22.44724,32.68462 56.85419,63.00135 17.29975,15.24319 24.50613,23.14985 28.47481,31.24184 1.418,2.89125 2.70714,5.25681 2.86475,5.25681 0.1576,0 1.18946,-1.9125 2.29302,-4.25 z"
     id="path2989"
     style="fill:#ffffff" />
</svg>
