<?xml version="1.0" encoding="UTF-8" standalone="no"?>
<svg
   xmlns:dc="http://purl.org/dc/elements/1.1/"
   xmlns:cc="http://creativecommons.org/ns#"
   xmlns:rdf="http://www.w3.org/1999/02/22-rdf-syntax-ns#"
   xmlns:svg="http://www.w3.org/2000/svg"
   xmlns="http://www.w3.org/2000/svg"
   xmlns:xlink="http://www.w3.org/1999/xlink"
   version="1.0"
   id="svg2"
   height="32"
   width="32">
  <defs
     id="defs4">
    <linearGradient
       id="linearGradient3659">
      <stop
         id="stop3661"
         offset="0"
         style="stop-color:#2b6fd6;stop-opacity:1;" />
      <stop
         id="stop3663"
         offset="1"
         style="stop-color:#2b6fd6;stop-opacity:0.73214287;" />
    </linearGradient>
    <linearGradient
       id="linearGradient3408">
      <stop
         id="stop3410"
         offset="0"
         style="stop-color:#210000;stop-opacity:1;" />
      <stop
         id="stop3412"
         offset="1"
         style="stop-color:#ffffff;stop-opacity:1;" />
    </linearGradient>
    <linearGradient
       id="linearGradient3212">
      <stop
         id="stop3214"
         offset="0"
         style="stop-color:#c2babb;stop-opacity:1;" />
      <stop
         style="stop-color:#cca0a3;stop-opacity:0.49803922;"
         offset="1"
         id="stop3220" />
      <stop
         id="stop3216"
         offset="1"
         style="stop-color:#d4afaf;stop-opacity:0;" />
    </linearGradient>
    <radialGradient
       gradientUnits="userSpaceOnUse"
       gradientTransform="matrix(1,0,0,0.895698,0.4940484,3.2060036)"
       r="24.484351"
       fy="30.737693"
       fx="31.942568"
       cy="30.737693"
       cx="31.942568"
       id="radialGradient3218"
       xlink:href="#linearGradient3212" />
    <filter
       id="filter3398">
      <feGaussianBlur
         id="feGaussianBlur3400"
         stdDeviation="1.6144325" />
    </filter>
    <filter
       id="filter3599">
      <feGaussianBlur
         id="feGaussianBlur3601"
         stdDeviation="0.16425179" />
    </filter>
    <filter
       id="filter3603">
      <feGaussianBlur
         id="feGaussianBlur3605"
         stdDeviation="0.20606188" />
    </filter>
    <linearGradient
       gradientTransform="matrix(0.9305263,0,0,0.9310699,-7.0357082e-2,0.9870593)"
       gradientUnits="userSpaceOnUse"
       y2="47.013004"
       x2="37.780102"
       y1="7.9441528"
       x1="10.290329"
       id="linearGradient3665"
       xlink:href="#linearGradient3659" />
    <filter
       id="filter3685">
      <feGaussianBlur
         id="feGaussianBlur3687"
         stdDeviation="0.45025986" />
    </filter>
    <linearGradient
       y2="47.013004"
       x2="37.780102"
       y1="7.9441528"
       x1="10.290329"
       gradientTransform="matrix(0.9305263,0,0,0.9310699,-7.0357082e-2,0.9870593)"
       gradientUnits="userSpaceOnUse"
       id="linearGradient3693"
       xlink:href="#linearGradient3659" />
  </defs>
  <metadata
     id="metadata7">
    <rdf:RDF>
      <cc:Work
         rdf:about="">
        <dc:format>image/svg+xml</dc:format>
        <dc:type
           rdf:resource="http://purl.org/dc/dcmitype/StillImage" />
        <dc:title></dc:title>
      </cc:Work>
    </rdf:RDF>
  </metadata>
  <g
     id="layer1">
    <path
       id="path2383"
       d="m 31.294107,14.14253 c -0.435812,7.746386 -15.259204,16.423315 -15.259204,16.423315 0,0 -15.07390479,-8.535393 -15.25920597,-16.423315 -0.078126,-3.325672 0.99481177,-9.2526252 6.32396847,-10.6805684 4.4087645,-1.1813249 8.9352375,5.178673 8.9352375,5.178673 0,0 4.002278,-6.616587 9.12054,-5.2451529 5.399529,1.4467993 6.320786,7.5098933 6.138664,10.7470483 z"
       style="fill:#000000;fill-opacity:1;fill-rule:evenodd;stroke:#000000;stroke-width:1.39999998000000003;stroke-linecap:butt;stroke-linejoin:miter;stroke-miterlimit:4;stroke-opacity:1;stroke-dasharray:none" />
    <path
       style="opacity:0.71238942;fill:url(#radialGradient3218);fill-opacity:1;fill-rule:evenodd;stroke:none;filter:url(#filter3398)"
       d="M 56.887399,26.337436 C 56.18868,38.756905 32.42293,52.668277 32.42293,52.668277 c 0,0 -24.1673848,-13.684453 -24.4644707,-26.330841 C 7.8332031,21.005519 9.553401,11.503074 18.097423,9.21371 c 7.068395,-1.8939707 14.325507,8.302758 14.325507,8.302758 0,0 6.416693,-10.6081077 14.622596,-8.4093425 8.656848,2.3195955 10.133862,12.0403105 9.841873,17.2303105 z"
       id="path3210"
       transform="matrix(0.49462371,0,0,0.49462371,0.24952003,1.6835077)" />
    <path
       transform="matrix(0.5060233,0,0,0.5060233,-0.1202446,1.3331101)"
       id="rect3200"
       d="m 11.378971,9.1271837 c 7.66618,-6.3503329 15.667861,3.2482153 15.667861,3.2482153 0,0 -7.58424,-5.8712853 -14.521433,-1.337501 -6.6717173,4.360284 -7.4517875,15.094648 -7.4517875,15.094648 0,0 -1.1365556,-10.8408 6.3053595,-17.0053623 z"
       style="fill:#ffffff;fill-opacity:0.80423279;stroke:none;filter:url(#filter3603)" />
    <path
       transform="matrix(0.5060233,0,0,0.5060233,-0.1202446,1.3331101)"
       style="fill:#ffffff;fill-opacity:0.80952382;stroke:none;filter:url(#filter3599)"
       d="m 40.614401,8.7411842 c 6.840857,-5.6428617 11.082577,-0.1697846 11.082577,-0.1697846 0,0 -4.210222,-1.8214874 -9.718568,1.6978484 -5.388122,3.442523 -8.354556,10.696443 -8.354556,10.696443 0,0 0.349812,-6.746719 6.990547,-12.2245068 z"
       id="path3203" />
    <g
       transform="matrix(1.1074528,0,0,1,-0.8712515,0)"
       id="g3689">
      <path
         style="opacity:1;fill:#ffffff;fill-opacity:1;stroke:url(#linearGradient3693);stroke-width:0.66517425;stroke-miterlimit:4;stroke-dasharray:none;stroke-opacity:0.56084655"
         d="M 10.554647,7.2576614 C 10.483346,6.7792363 9.2328298,8.1495768 9.2066829,8.1558546 C 9.0236475,8.1998045 9.8972942,8.635632 11.386748,9.7449355 C 12.53322,10.598795 13.052638,11.554171 13.895449,12.062626 C 13.565929,12.238115 13.78647,12.34833 13.335037,12.712721 C 13.029895,12.959027 12.78821,13.230992 12.549906,13.498311 C 12.474672,13.512374 12.371177,13.504932 12.317274,13.527407 C 12.244932,13.557572 12.159424,13.854144 12.1428,13.876558 C 12.126116,13.899056 12.117101,13.903771 12.1428,13.93475 C 12.103528,13.988664 12.067573,14.07843 12.026485,14.138422 C 11.972919,14.213729 11.929552,14.268551 11.88109,14.342093 C 11.654469,14.685712 11.412039,15.047939 11.095958,15.476835 C 11.086711,15.463616 11.077745,15.463656 11.066879,15.447739 C 11.013505,15.369545 10.932856,15.56309 10.950564,15.680506 C 10.710842,15.991893 10.448014,16.306441 10.136353,16.611576 C 9.5926162,17.143924 9.2048474,17.592179 8.9150375,17.949989 C 8.4844941,17.860064 8.3357582,17.922171 8.5660901,18.211852 C 8.5813099,18.230992 8.6351942,18.249599 8.653327,18.270044 C 8.4072658,18.627334 8.3914219,18.788056 8.6824059,18.677387 C 8.752258,18.650821 8.8190395,18.615372 8.9150375,18.561004 C 8.9187829,18.564225 8.9403305,18.557765 8.9441164,18.561004 C 9.7785032,19.274674 11.588135,20.402602 13.393195,21.296021 C 14.159546,21.675329 14.385989,21.955961 14.876221,22.139803 C 14.843826,22.168278 14.822402,22.197263 14.788985,22.227091 C 13.973683,22.564783 12.847473,23.122181 11.793853,23.74008 C 11.454661,23.939 11.182641,24.063675 10.921485,24.234711 C 10.868343,24.218393 10.786527,24.212186 10.747011,24.205615 C 10.572449,24.176583 10.587982,24.23095 10.717932,24.38019 C 9.9106732,24.928433 9.6174212,25.317051 10.049116,25.253068 C 10.27909,25.218984 10.418816,25.093 10.921485,24.874821 C 11.151102,25.053726 11.710009,25.171154 12.055564,25.398548 C 13.193559,26.147414 14.1287,26.52036 14.556353,26.591481 C 14.984006,26.662602 14.734743,26.409278 13.596748,25.660412 C 12.943126,25.23029 12.291981,24.833056 11.735695,24.554766 C 12.19166,24.339139 12.68532,24.074585 13.189642,23.798272 C 12.933825,24.103978 12.809136,24.303545 12.957011,24.234711 C 13.052766,24.190139 13.135302,24.105637 13.364116,23.914655 C 13.430798,24.008805 13.636108,24.032981 13.742142,24.147423 C 14.091338,24.524302 14.42564,24.69555 14.585432,24.700246 C 14.745225,24.70494 14.672916,24.553402 14.323721,24.176519 C 14.123157,23.960052 13.895684,23.779866 13.713064,23.652792 C 13.832082,23.548051 13.988325,23.397062 14.120169,23.274545 C 14.733818,22.909488 15.175359,22.619436 15.486879,22.372571 C 15.917422,22.462496 15.763908,22.1516 16.126616,22.227091 C 16.49643,22.304061 16.04535,21.771588 16.0103,21.907036 C 15.900894,22.329818 15.956727,21.817996 15.74859,21.848844 C 15.742659,21.849722 15.725674,21.876914 15.719511,21.87794 C 15.695239,21.854332 15.658359,21.815461 15.632274,21.790652 C 15.677368,21.737127 15.694255,21.665606 15.777669,21.674269 C 15.913749,21.688402 15.809955,21.378991 15.777669,21.470597 C 15.676886,21.756535 15.777093,21.430258 15.690432,21.470597 C 15.687962,21.471747 15.663934,21.498426 15.661353,21.499693 C 15.472925,21.117266 15.056819,20.457443 14.410958,20.0158 C 14.29712,19.937958 14.221461,19.873131 14.149248,19.812129 C 14.175367,19.813413 14.197907,19.820836 14.236485,19.812129 C 14.545102,19.742473 15.109114,19.412713 15.690432,18.706483 C 15.855919,18.505439 16.184204,18.884987 16.126616,19.288402 C 16.088693,19.55406 16.064567,19.771045 16.039379,19.986704 C 16.022784,19.998793 15.992313,20.00335 15.981221,20.0158 C 15.932224,20.070795 15.974268,20.122844 16.039379,20.16128 C 15.96591,20.840068 15.948669,21.167318 16.039379,20.94687 C 16.087704,20.829432 16.111385,20.710999 16.184774,20.364951 C 16.2808,20.38013 16.456758,20.222655 16.591879,20.219472 C 17.036868,20.208988 17.344206,20.063243 17.464248,19.928512 C 17.584288,19.79378 17.443971,19.714357 16.998985,19.724841 C 16.7434,19.730862 16.498919,19.781509 16.30109,19.841225 C 16.390575,19.376737 17.043639,18.478718 17.202537,18.502812 C 17.509315,18.549326 17.204958,18.285673 16.620958,17.920893 C 16.655455,17.645624 17.694109,17.066691 18.074906,16.931631 C 18.079808,17.003317 18.097247,17.066573 18.103984,17.135303 C 18.059288,17.408843 18.029044,17.698019 17.95859,18.15366 C 17.733522,19.609225 17.736183,20.913784 17.784116,21.586981 C 17.781858,21.589826 17.757169,21.584197 17.755037,21.586981 C 17.680219,21.68467 17.890962,21.882229 17.696879,21.761556 C 17.6347,21.722896 17.701342,22.194557 17.784116,21.965228 C 17.865301,21.740305 17.949581,21.941392 18.045827,21.674269 C 18.251043,21.607491 18.517623,21.496439 18.889116,21.296021 C 19.28481,21.082547 19.690335,20.826469 20.023195,20.597719 C 19.960541,21.011441 19.912159,21.551858 19.8778,22.081612 C 19.81798,23.003942 19.833428,23.212118 19.935958,22.95449 C 20.038487,22.696862 20.166927,22.072874 20.226748,21.150542 C 20.244912,20.870474 20.370654,20.504626 20.372142,20.30676 C 20.607524,20.131624 20.696581,20.094642 20.779248,19.986704 C 20.934427,19.784089 20.709151,19.78916 20.255827,19.986704 C 20.238402,19.854418 20.210441,19.823353 20.16859,19.928512 C 20.159117,19.952318 20.149404,20.009718 20.139511,20.044896 C 19.995264,20.11148 19.852757,20.181359 19.674248,20.277664 C 19.096282,20.589473 18.507847,20.97064 18.133063,21.266925 C 18.219907,20.913954 18.188342,20.685889 18.278458,20.103088 C 18.353063,19.620598 18.404864,19.149199 18.452932,18.677387 C 18.596114,18.5815 18.76308,18.702065 18.918195,18.473716 C 19.376499,18.389336 19.960235,18.238664 20.779248,18.008181 C 21.651617,17.76268 22.552764,17.477168 23.280037,17.222591 C 23.192663,17.6328 23.142095,18.127308 23.134642,18.648291 C 23.121668,19.555353 23.197338,19.811619 23.396353,19.550265 C 23.595364,19.288911 23.819561,18.624282 23.832537,17.717221 C 23.836477,17.441791 24.05914,17.096069 24.03609,16.902535 C 24.548593,16.709438 24.763745,16.666583 24.937537,16.553384 C 25.26377,16.340896 24.721925,16.347186 23.716221,16.58248 C 23.658874,16.454806 23.593903,16.446703 23.512669,16.553384 C 23.49428,16.577534 23.472337,16.634464 23.454511,16.669768 C 23.134998,16.748281 22.830299,16.849975 22.436748,16.960727 C 21.162531,17.319313 19.877291,17.741881 19.06359,18.066373 C 19.214153,17.71329 19.110756,17.48056 19.238063,16.902535 C 19.530427,15.575097 19.584047,14.167417 19.441616,13.440119 C 19.44097,13.436818 19.442272,13.414295 19.441616,13.411023 C 19.551216,13.378948 19.664651,13.351988 19.732406,13.323735 C 20.014653,13.206046 19.836489,13.149346 19.354379,13.14916 C 19.346728,13.131488 19.362628,13.106549 19.354379,13.090968 C 19.229513,12.855159 19.072556,12.908206 18.889116,13.178256 C 18.379447,13.201856 17.739687,13.256007 16.911748,13.352831 C 16.020067,13.457111 15.188889,13.447575 14.469116,13.440119 C 14.466647,13.405136 14.472026,13.35703 14.469116,13.323735 C 14.791908,12.943965 15.074906,12.588875 15.225169,12.305378 C 15.226785,12.302333 15.252661,12.308407 15.254248,12.305378 C 15.353678,12.355206 15.420101,12.397599 15.486879,12.421761 C 15.765063,12.522416 15.689781,12.344984 15.341485,12.014418 C 15.347098,11.995242 15.3667,12.003261 15.370563,11.985322 C 15.429013,11.713833 14.521987,10.634251 13.862592,10.143151 C 12.16036,8.8753757 11.125055,7.4640487 10.554647,7.2576614 z M 18.452932,13.78927 C 18.304079,14.141259 18.346204,14.439658 18.2203,15.0113 C 18.115971,15.484993 18.080594,15.92589 18.074906,16.349713 C 17.892449,16.35938 17.721315,16.363086 17.464248,16.407904 C 17.253652,16.444622 15.84758,15.970166 15.656406,15.965962 C 15.61708,15.906862 14.451557,15.171159 14.469116,14.254805 C 14.584096,14.244374 14.696135,14.239969 14.818063,14.225709 C 16.257582,14.057359 17.46974,13.999043 18.452932,13.78927 z M 13.567669,14.283901 C 13.724041,14.289269 13.907718,14.293575 14.09109,14.283901 C 14.112978,14.677545 14.159728,15.1102 14.149248,15.564122 C 14.139153,16.001306 12.81135,16.004779 12.288195,15.79689 C 12.700026,15.393685 12.968854,14.997565 13.131485,14.662148 C 13.281547,14.533947 13.425431,14.417654 13.567669,14.283901 z M 12.026485,16.087849 C 12.369209,16.293266 14.433934,18.264299 14.178327,18.619195 C 13.890565,19.01874 13.672949,19.318174 13.509511,19.579361 C 13.351127,19.562703 13.28312,19.64592 13.335037,19.812129 C 13.338468,19.823111 13.359708,19.829676 13.364116,19.841225 C 13.324221,19.911324 13.328311,19.939126 13.305958,19.986704 C 12.771544,19.640007 12.177998,19.317111 11.532143,18.997443 C 10.754819,18.612704 10.418798,18.308631 9.9037212,18.124565 C 10.579194,17.635677 11.239929,16.887925 12.026485,16.087849 z M 13.422274,19.986704 C 13.423321,19.988438 13.450292,20.014058 13.451353,20.0158 C 13.490537,20.080107 13.54086,20.146764 13.596748,20.219472 C 13.516671,20.165159 13.447308,20.099403 13.364116,20.044896 C 13.385134,20.025631 13.399563,20.009075 13.422274,19.986704 z"
         id="path3609" />
      <path
         id="path3679"
         d="M 10.554647,7.2576614 C 10.483346,6.7792363 9.2328298,8.1495768 9.2066829,8.1558546 C 9.0236475,8.1998045 9.8972942,8.635632 11.386748,9.7449355 C 12.53322,10.598795 13.052638,11.554171 13.895449,12.062626 C 13.565929,12.238115 13.78647,12.34833 13.335037,12.712721 C 13.029895,12.959027 12.78821,13.230992 12.549906,13.498311 C 12.474672,13.512374 12.371177,13.504932 12.317274,13.527407 C 12.244932,13.557572 12.159424,13.854144 12.1428,13.876558 C 12.126116,13.899056 12.117101,13.903771 12.1428,13.93475 C 12.103528,13.988664 12.067573,14.07843 12.026485,14.138422 C 11.972919,14.213729 11.929552,14.268551 11.88109,14.342093 C 11.654469,14.685712 11.412039,15.047939 11.095958,15.476835 C 11.086711,15.463616 11.077745,15.463656 11.066879,15.447739 C 11.013505,15.369545 10.932856,15.56309 10.950564,15.680506 C 10.710842,15.991893 10.448014,16.306441 10.136353,16.611576 C 9.5926162,17.143924 9.2048474,17.592179 8.9150375,17.949989 C 8.4844941,17.860064 8.3357582,17.922171 8.5660901,18.211852 C 8.5813099,18.230992 8.6351942,18.249599 8.653327,18.270044 C 8.4072658,18.627334 8.3914219,18.788056 8.6824059,18.677387 C 8.752258,18.650821 8.8190395,18.615372 8.9150375,18.561004 C 8.9187829,18.564225 8.9403305,18.557765 8.9441164,18.561004 C 9.7785032,19.274674 11.588135,20.402602 13.393195,21.296021 C 14.159546,21.675329 14.385989,21.955961 14.876221,22.139803 C 14.843826,22.168278 14.822402,22.197263 14.788985,22.227091 C 13.973683,22.564783 12.847473,23.122181 11.793853,23.74008 C 11.454661,23.939 11.182641,24.063675 10.921485,24.234711 C 10.868343,24.218393 10.786527,24.212186 10.747011,24.205615 C 10.572449,24.176583 10.587982,24.23095 10.717932,24.38019 C 9.9106732,24.928433 9.6174212,25.317051 10.049116,25.253068 C 10.27909,25.218984 10.418816,25.093 10.921485,24.874821 C 11.151102,25.053726 11.710009,25.171154 12.055564,25.398548 C 13.193559,26.147414 14.1287,26.52036 14.556353,26.591481 C 14.984006,26.662602 14.734743,26.409278 13.596748,25.660412 C 12.943126,25.23029 12.291981,24.833056 11.735695,24.554766 C 12.19166,24.339139 12.68532,24.074585 13.189642,23.798272 C 12.933825,24.103978 12.809136,24.303545 12.957011,24.234711 C 13.052766,24.190139 13.135302,24.105637 13.364116,23.914655 C 13.430798,24.008805 13.636108,24.032981 13.742142,24.147423 C 14.091338,24.524302 14.42564,24.69555 14.585432,24.700246 C 14.745225,24.70494 14.672916,24.553402 14.323721,24.176519 C 14.123157,23.960052 13.895684,23.779866 13.713064,23.652792 C 13.832082,23.548051 13.988325,23.397062 14.120169,23.274545 C 14.733818,22.909488 15.175359,22.619436 15.486879,22.372571 C 15.917422,22.462496 15.763908,22.1516 16.126616,22.227091 C 16.49643,22.304061 16.04535,21.771588 16.0103,21.907036 C 15.900894,22.329818 15.956727,21.817996 15.74859,21.848844 C 15.742659,21.849722 15.725674,21.876914 15.719511,21.87794 C 15.695239,21.854332 15.658359,21.815461 15.632274,21.790652 C 15.677368,21.737127 15.694255,21.665606 15.777669,21.674269 C 15.913749,21.688402 15.809955,21.378991 15.777669,21.470597 C 15.676886,21.756535 15.777093,21.430258 15.690432,21.470597 C 15.687962,21.471747 15.663934,21.498426 15.661353,21.499693 C 15.472925,21.117266 15.056819,20.457443 14.410958,20.0158 C 14.29712,19.937958 14.221461,19.873131 14.149248,19.812129 C 14.175367,19.813413 14.197907,19.820836 14.236485,19.812129 C 14.545102,19.742473 15.109114,19.412713 15.690432,18.706483 C 15.855919,18.505439 16.200629,18.366602 16.330169,18.211852 C 16.265769,18.576494 16.184204,18.884987 16.126616,19.288402 C 16.088693,19.55406 16.064567,19.771045 16.039379,19.986704 C 16.022784,19.998793 15.992313,20.00335 15.981221,20.0158 C 15.932224,20.070795 15.974268,20.122844 16.039379,20.16128 C 15.96591,20.840068 15.948669,21.167318 16.039379,20.94687 C 16.087704,20.829432 16.111385,20.710999 16.184774,20.364951 C 16.2808,20.38013 16.456758,20.222655 16.591879,20.219472 C 17.036868,20.208988 17.344206,20.063243 17.464248,19.928512 C 17.584288,19.79378 17.443971,19.714357 16.998985,19.724841 C 16.7434,19.730862 16.498919,19.781509 16.30109,19.841225 C 16.390575,19.376737 16.481988,18.827328 16.5628,18.270044 C 16.868768,18.401313 17.043639,18.478718 17.202537,18.502812 C 17.509315,18.549326 17.204958,18.285673 16.620958,17.920893 C 16.655455,17.645624 16.689121,17.364447 16.708195,17.164399 C 17.226117,17.088105 17.694109,17.066691 18.074906,16.931631 C 18.079808,17.003317 18.097247,17.066573 18.103984,17.135303 C 18.059288,17.408843 18.029044,17.698019 17.95859,18.15366 C 17.733522,19.609225 17.736183,20.913784 17.784116,21.586981 C 17.781858,21.589826 17.757169,21.584197 17.755037,21.586981 C 17.680219,21.68467 17.890962,21.882229 17.696879,21.761556 C 17.6347,21.722896 17.701342,22.194557 17.784116,21.965228 C 17.865301,21.740305 17.949581,21.941392 18.045827,21.674269 C 18.251043,21.607491 18.517623,21.496439 18.889116,21.296021 C 19.28481,21.082547 19.690335,20.826469 20.023195,20.597719 C 19.960541,21.011441 19.912159,21.551858 19.8778,22.081612 C 19.81798,23.003942 19.833428,23.212118 19.935958,22.95449 C 20.038487,22.696862 20.166927,22.072874 20.226748,21.150542 C 20.244912,20.870474 20.370654,20.504626 20.372142,20.30676 C 20.607524,20.131624 20.696581,20.094642 20.779248,19.986704 C 20.934427,19.784089 20.709151,19.78916 20.255827,19.986704 C 20.238402,19.854418 20.210441,19.823353 20.16859,19.928512 C 20.159117,19.952318 20.149404,20.009718 20.139511,20.044896 C 19.995264,20.11148 19.852757,20.181359 19.674248,20.277664 C 19.096282,20.589473 18.507847,20.97064 18.133063,21.266925 C 18.219907,20.913954 18.188342,20.685889 18.278458,20.103088 C 18.353063,19.620598 18.404864,19.149199 18.452932,18.677387 C 18.596114,18.5815 18.76308,18.702065 18.918195,18.473716 C 19.376499,18.389336 19.960235,18.238664 20.779248,18.008181 C 21.651617,17.76268 22.552764,17.477168 23.280037,17.222591 C 23.192663,17.6328 23.142095,18.127308 23.134642,18.648291 C 23.121668,19.555353 23.197338,19.811619 23.396353,19.550265 C 23.595364,19.288911 23.819561,18.624282 23.832537,17.717221 C 23.836477,17.441791 24.05914,17.096069 24.03609,16.902535 C 24.548593,16.709438 24.763745,16.666583 24.937537,16.553384 C 25.26377,16.340896 24.721925,16.347186 23.716221,16.58248 C 23.658874,16.454806 23.593903,16.446703 23.512669,16.553384 C 23.49428,16.577534 23.472337,16.634464 23.454511,16.669768 C 23.134998,16.748281 22.830299,16.849975 22.436748,16.960727 C 21.162531,17.319313 19.877291,17.741881 19.06359,18.066373 C 19.214153,17.71329 19.110756,17.48056 19.238063,16.902535 C 19.530427,15.575097 19.584047,14.167417 19.441616,13.440119 C 19.44097,13.436818 19.442272,13.414295 19.441616,13.411023 C 19.551216,13.378948 19.664651,13.351988 19.732406,13.323735 C 20.014653,13.206046 19.836489,13.149346 19.354379,13.14916 C 19.346728,13.131488 19.362628,13.106549 19.354379,13.090968 C 19.229513,12.855159 19.072556,12.908206 18.889116,13.178256 C 18.379447,13.201856 17.739687,13.256007 16.911748,13.352831 C 16.020067,13.457111 15.188889,13.447575 14.469116,13.440119 C 14.466647,13.405136 14.472026,13.35703 14.469116,13.323735 C 14.791908,12.943965 15.074906,12.588875 15.225169,12.305378 C 15.226785,12.302333 15.252661,12.308407 15.254248,12.305378 C 15.353678,12.355206 15.420101,12.397599 15.486879,12.421761 C 15.765063,12.522416 15.689781,12.344984 15.341485,12.014418 C 15.347098,11.995242 15.3667,12.003261 15.370563,11.985322 C 15.429013,11.713833 14.521987,10.634251 13.862592,10.143151 C 12.16036,8.8753757 11.125055,7.4640487 10.554647,7.2576614 z M 18.452932,13.78927 C 18.304079,14.141259 18.346204,14.439658 18.2203,15.0113 C 18.115971,15.484993 18.080594,15.92589 18.074906,16.349713 C 17.892449,16.35938 17.721315,16.363086 17.464248,16.407904 C 17.253652,16.444622 17.044764,16.412108 16.85359,16.407904 C 16.814264,16.348804 16.723686,16.346421 16.737274,16.407904 C 16.478231,16.394609 16.26793,16.403621 16.068458,16.378808 C 16.025779,16.373476 15.99704,16.353076 15.952142,16.349713 C 15.916855,16.34619 15.868251,16.322532 15.835827,16.320617 C 15.831823,16.293834 15.820369,16.292163 15.806748,16.291521 C 15.793179,16.290882 15.665678,16.236698 15.632274,16.262425 C 15.607383,16.281595 15.573191,16.315635 15.545037,16.349713 C 15.371068,16.363399 15.207844,16.378861 15.021616,16.437 C 14.746108,16.523012 14.577617,16.481407 14.410958,16.58248 C 14.470143,15.947774 14.451557,15.171159 14.469116,14.254805 C 14.584096,14.244374 14.696135,14.239969 14.818063,14.225709 C 16.257582,14.057359 17.46974,13.999043 18.452932,13.78927 z M 13.567669,14.283901 C 13.724041,14.289269 13.907718,14.293575 14.09109,14.283901 C 14.112978,14.677545 14.159728,15.1102 14.149248,15.564122 C 14.139153,16.001306 14.143842,16.308917 14.149248,16.611576 C 13.470512,16.286661 12.81135,16.004779 12.288195,15.79689 C 12.700026,15.393685 12.968854,14.997565 13.131485,14.662148 C 13.281547,14.533947 13.425431,14.417654 13.567669,14.283901 z M 12.026485,16.087849 C 12.369209,16.293266 12.745539,16.555777 13.305958,16.844343 C 13.591992,16.991626 13.864175,17.083198 14.149248,17.222591 C 14.153053,17.224451 14.145444,17.249828 14.149248,17.251687 C 14.170602,17.543651 14.221646,17.637363 14.265564,17.455358 C 14.274814,17.417024 14.286776,17.367314 14.294642,17.309878 C 14.474061,17.396729 14.644626,17.490925 14.818063,17.571742 C 14.630021,17.903867 14.433934,18.264299 14.178327,18.619195 C 13.890565,19.01874 13.672949,19.318174 13.509511,19.579361 C 13.351127,19.562703 13.28312,19.64592 13.335037,19.812129 C 13.338468,19.823111 13.359708,19.829676 13.364116,19.841225 C 13.324221,19.911324 13.328311,19.939126 13.305958,19.986704 C 12.771544,19.640007 12.177998,19.317111 11.532143,18.997443 C 10.754819,18.612704 10.418798,18.308631 9.9037212,18.124565 C 10.579194,17.635677 11.239929,16.887925 12.026485,16.087849 z M 15.835827,17.164399 C 16.012785,17.219787 16.226362,17.242014 16.504642,17.193495 C 16.471509,17.346331 16.423081,17.593994 16.388327,17.775413 C 16.349259,17.752462 16.342309,17.740948 16.30109,17.717221 C 16.34015,17.57726 16.310746,17.514214 16.184774,17.542646 C 16.156256,17.549082 16.132679,17.585219 16.097537,17.600838 C 15.920918,17.501899 15.714228,17.386378 15.515958,17.280782 C 15.521717,17.270219 15.539501,17.262122 15.545037,17.251687 C 15.639054,17.2326 15.741551,17.189997 15.835827,17.164399 z M 15.225169,17.746317 C 15.343703,17.799725 15.490586,17.872027 15.603195,17.920893 C 15.281397,18.184416 14.919321,18.533618 14.585432,18.939251 C 14.236642,19.362989 14.075188,19.60288 14.062011,19.724841 C 14.007549,19.683098 13.952011,19.63356 13.887537,19.608457 C 14.265342,19.174098 14.637604,18.557378 15.137932,17.862701 C 15.170075,17.818072 15.195045,17.789769 15.225169,17.746317 z M 13.422274,19.986704 C 13.423321,19.988438 13.450292,20.014058 13.451353,20.0158 C 13.490537,20.080107 13.54086,20.146764 13.596748,20.219472 C 13.516671,20.165159 13.447308,20.099403 13.364116,20.044896 C 13.385134,20.025631 13.399563,20.009075 13.422274,19.986704 z"
         style="opacity:1;fill:#ffffff;fill-opacity:1;stroke:none;stroke-width:0.69999999;stroke-miterlimit:4;stroke-dasharray:none;stroke-opacity:0.56084655;filter:url(#filter3685)" />
    </g>
  </g>
</svg>
