<?xml version="1.0" encoding="UTF-8" standalone="no"?>
<!-- Created with Inkscape (http://www.inkscape.org/) -->

<svg
   xmlns:dc="http://purl.org/dc/elements/1.1/"
   xmlns:cc="http://creativecommons.org/ns#"
   xmlns:rdf="http://www.w3.org/1999/02/22-rdf-syntax-ns#"
   xmlns:svg="http://www.w3.org/2000/svg"
   xmlns="http://www.w3.org/2000/svg"
   xmlns:sodipodi="http://sodipodi.sourceforge.net/DTD/sodipodi-0.dtd"
   xmlns:inkscape="http://www.inkscape.org/namespaces/inkscape"
   id="svg2"
   version="1.1"
   inkscape:version="0.48.3.1 r9886"
   width="400"
   height="400"
   sodipodi:docname="Icon.6_50.png">
  <metadata
     id="metadata8">
    <rdf:RDF>
      <cc:Work
         rdf:about="">
        <dc:format>image/svg+xml</dc:format>
        <dc:type
           rdf:resource="http://purl.org/dc/dcmitype/StillImage" />
        <dc:title></dc:title>
      </cc:Work>
    </rdf:RDF>
  </metadata>
  <defs
     id="defs6" />
  <sodipodi:namedview
     pagecolor="#ffffff"
     bordercolor="#666666"
     borderopacity="1"
     objecttolerance="10"
     gridtolerance="10"
     guidetolerance="10"
     inkscape:pageopacity="0"
     inkscape:pageshadow="2"
     inkscape:window-width="1855"
     inkscape:window-height="1056"
     id="namedview4"
     showgrid="false"
     inkscape:zoom="0.59"
     inkscape:cx="200"
     inkscape:cy="200"
     inkscape:window-x="65"
     inkscape:window-y="24"
     inkscape:window-maximized="1"
     inkscape:current-layer="svg2" />
  <path
     style="fill:#000000"
     d="m 0,0 400,0 0,400 -400,0 z"
     id="rect3026" />
  <path
     id="path2989"
     style="fill:#ffffff"
     d="m 67.428574,146.07252 4.853391,-4.92749 -4.679933,-5.32251 C 62.053218,129.51182 56.595,119.08765 55.003964,111.76258 53.955405,106.93505 53.349977,106.12799 47.680455,102 44.281205,99.525 41.1625,97.35 40.75,97.166667 40.3375,96.983333 40,99.879583 40,103.60278 c 0,13.66183 5.283297,27.31363 15.564489,40.21795 3.145945,3.9486 6.010328,7.17927 6.365297,7.17927 0.354969,0 2.829424,-2.21737 5.498788,-4.92748 z M 229.37593,185.75 c 3.03301,-10.49065 3.5753,-14.4645 3.58226,-26.25 0.0104,-17.60416 -3.24057,-30.99487 -11.61542,-47.84399 C 205.60141,79.986438 176.06822,54.390865 144,44.625245 128.476,39.897778 112.10632,39.675497 96.277681,43.977234 87.833783,46.272026 72.195784,53.507402 67.685891,57.20606 l -2.81411,2.30791 2.31411,3.399186 c 3.756191,5.517456 4.644769,5.655096 11.157184,1.728242 10.491394,-6.326099 19.452621,-8.780099 34.156925,-9.353752 14.78919,-0.576964 24.69589,1.195833 37.76818,6.758593 15.40772,6.556573 35.00987,22.198789 46.40059,37.026957 17.76395,23.124704 25.77688,51.776524 20.93941,74.873084 l -1.35015,6.44627 5.01604,5.30373 c 2.75883,2.91704 5.36884,5.30372 5.80003,5.30372 0.43119,0 1.46702,-2.3625 2.30183,-5.25 z m 71.1566,66.25 c -1.43423,-18.80079 -4.52195,-29.02833 -16.0008,-53 -10.49321,-21.91332 -12.49539,-28.74172 -13.19458,-45 -0.6649,-15.46082 0.9538,-24.11039 6.68908,-35.74346 6.82061,-13.83444 17.67847,-24.415109 32.4844,-31.655093 C 324.05799,79.976892 346.63744,75.011656 363.25,75.004021 L 372,75 l 0,-7.575073 0,-7.575073 -9.25,0.616193 c -39.1971,2.611129 -63.74044,11.60146 -82.25039,30.128669 -16.46803,16.483394 -23.82604,34.723644 -23.76202,58.905284 0.0547,20.65189 3.32715,32.77364 15.25316,56.5 7.50088,14.92272 11.52157,26.47433 13.2036,37.93448 1.0949,7.45992 1.20217,7.65979 7.68466,14.319 6.23176,6.40165 6.61927,6.63609 7.43811,4.5 0.47511,-1.23941 0.57204,-6.07848 0.21541,-10.75348 z M 207,356.48921 c 18.3258,-3.26688 36.28289,-10.06872 50.1601,-18.99981 C 263.93988,333.12608 283,315.24831 283,313.25243 c 0,-0.47904 -2.3926,-2.9366 -5.3169,-5.46126 l -5.3169,-4.59027 -4.12158,5.32681 c -7.95363,10.27943 -22.88335,20.86002 -37.28279,26.42205 -18.16276,7.01567 -32.88745,9.42299 -57.46183,9.39436 C 123.19268,344.28552 82.697473,331.20613 59.485524,307.51904 39.662232,287.28997 37.673919,262.36956 54.537699,245.50578 69.141346,230.90213 96.408408,226.03881 131,231.86805 c 15.1433,2.55189 33.0942,3.05009 42.54712,1.18083 8.03212,-1.5883 18.27904,-4.95859 19.09628,-6.2809 0.36581,-0.5919 -1.67122,-3.3049 -4.52675,-6.02888 -4.09068,-3.90224 -5.66111,-4.81559 -7.40426,-4.30626 -14.63656,4.27659 -29.22264,4.44527 -53.21239,0.61538 -17.45667,-2.78691 -38.152636,-2.43222 -51,0.87403 -29.145188,7.50049 -47.440982,28.15161 -47.467039,53.57775 -0.0051,4.95 0.609178,11.32259 1.365002,14.16132 9.83554,36.94035 52.536282,64.22008 111.602037,71.2979 4.675,0.5602 10.075,1.20574 12,1.43452 8.39534,0.99779 43.87011,-0.27698 53,-1.90453 z M 371.4459,370.25 c -0.98127,-1.5125 -2.94084,-4.55 -4.35462,-6.75 C 349.73372,336.48954 316.99939,300.58732 223.03713,205.50486 198.03255,180.20219 164.47385,146.225 148.46223,130 l -29.11204,-29.5 -7.80828,-15.836306 -7.80827,-15.836306 -3.61682,0.672708 c -1.989251,0.369989 -5.738637,1.582495 -8.331969,2.694457 l -4.715149,2.02175 2.031602,3.98227 c 1.117382,2.190248 3.537852,7.287516 5.378823,11.327261 l 3.34722,7.344991 -7.663673,-3.479667 C 63.764767,81.404817 54.217166,71.952823 48.247059,51.894286 l -1.966087,-6.605715 5.57251,1.654256 5.572511,1.654256 8.537003,-5.285623 c 4.695352,-2.907093 9.168274,-5.650396 9.939826,-6.09623 1.035264,-0.598217 0.04076,-1.684643 -3.795625,-4.146442 C 61.740914,26.416763 53.220069,25.287355 44.396593,29.395847 39.176726,31.826383 31.890309,38.499654 29.50475,43.034555 25.659588,50.344132 26.904054,59.447092 33.048076,68.953088 42.212792,83.132685 59.738761,96.72889 87.30185,111.0418 l 13.54769,7.03502 60.82523,61.59357 C 276.56255,296.00944 324.85328,340.72772 367,369.80613 c 5.59623,3.86102 6.73672,3.97489 4.4459,0.44387 z" />
</svg>
