<?xml version="1.0" encoding="UTF-8" standalone="no"?>
<!-- Created with Inkscape (http://www.inkscape.org/) -->

<svg
   xmlns:dc="http://purl.org/dc/elements/1.1/"
   xmlns:cc="http://creativecommons.org/ns#"
   xmlns:rdf="http://www.w3.org/1999/02/22-rdf-syntax-ns#"
   xmlns:svg="http://www.w3.org/2000/svg"
   xmlns="http://www.w3.org/2000/svg"
   version="1.1"
   width="512"
   height="512"
   id="svg2">
  <metadata
     id="metadata8">
    <rdf:RDF>
      <cc:Work
         rdf:about="">
        <dc:format>image/svg+xml</dc:format>
        <dc:type
           rdf:resource="http://purl.org/dc/dcmitype/StillImage" />
        <dc:title></dc:title>
      </cc:Work>
    </rdf:RDF>
  </metadata>
  <defs
     id="defs6" />
  <path
     d="m 0,0 512,0 0,512 -512,0 z"
     id="rect3024"
     style="fill:#000000" />
  <path
     d="M 220.27145,192.53007 C 314.89815,137.90962 392.71351,92.837617 393.19447,92.370075 394.11423,91.47598 376.28742,58.975122 374.84421,58.914884 373.83136,58.872609 30.547306,257.01192 28.965816,258.55163 27.81756,259.66954 45.485194,291.84 47.247397,291.84 c 0.536527,0 78.397353,-44.68947 173.024053,-99.30993 z M 179.2,315.30478 c -4.73976,-1.94971 -9.22778,-6.17165 -11.68896,-10.99597 -5.29268,-10.37453 -0.9449,-24.53941 9.13156,-29.75015 4.82544,-2.49534 15.72393,-2.45677 20.61587,0.073 3.7582,1.94343 4.08943,1.85405 13.69644,-3.69625 l 9.84509,-5.68784 0.13455,-9.67173 c 0.10765,-7.73534 0.82798,-11.08904 3.59802,-16.7508 6.15135,-12.57292 18.0326,-19.945 32.14445,-19.945 8.15094,0 13.7109,1.8172 20.68417,6.76038 l 5.3612,3.8004 9.99273,-5.77234 c 9.32872,-5.38876 10.05138,-6.1159 10.87537,-10.94259 4.0742,-23.86586 32.25028,-28.7362 42.15026,-7.28585 3.00678,6.51483 2.9883,11.42278 -0.0684,18.15534 -3.45767,7.61576 -11.18581,12.48344 -19.74981,12.43974 -3.60941,-0.0184 -8.31044,-0.95645 -10.44675,-2.08453 -3.81942,-2.01683 -4.05418,-1.95401 -14.08,3.76803 l -10.19581,5.81905 0,10.39119 c 0,8.55236 -0.56479,11.49711 -3.19162,16.64083 -3.73548,7.3146 -11.42129,14.04291 -19.16055,16.77347 -11.58583,4.08773 -27.62988,1.40612 -35.43722,-5.92299 -2.64996,-2.48764 -2.90453,-2.50129 -7.04,-0.37781 -2.35984,1.21173 -7.31461,4.12976 -11.01061,6.48452 -6.0477,3.85303 -6.72,4.73752 -6.72,8.84083 0,10.52284 -8.65758,18.78855 -20.28515,19.367 -3.97917,0.19795 -8.09885,0.005 -9.15485,-0.42989 z M 288,299.53076 c 91.872,-52.98727 167.53588,-96.791 168.14195,-97.34159 0.60608,-0.5506 -0.41499,-3.7884 -2.26904,-7.19512 l -3.37102,-6.19405 -12.45095,0 c -13.34864,0 -18.19968,-1.6076 -26.87265,-8.90542 l -3.88354,-3.26779 -13.19343,7.58968 -13.19343,7.5897 -3.57394,-6.25775 c -1.96567,-3.44176 -3.57395,-6.82157 -3.57395,-7.5107 0,-0.68913 5.77655,-4.52366 12.83679,-8.5212 11.31576,-6.40704 12.73136,-7.59103 11.94707,-9.99239 -0.48936,-1.49827 -0.866,-6.33832 -0.83698,-10.75567 0.0415,-6.32529 0.89586,-9.74415 4.02145,-16.09312 2.18279,-4.43387 5.08155,-9.0687 6.44169,-10.29961 2.43253,-2.20141 2.40841,-2.35044 -1.47461,-9.11091 -3.55699,-6.19286 -4.21017,-6.73323 -6.6015,-5.4613 -6.36187,3.38381 -342.005312,197.28937 -343.366871,198.36748 -1.122999,0.88921 -0.600181,2.74332 2.028411,7.19349 l 3.541373,5.99551 9.491588,-0.4279 c 11.091145,-0.50004 21.713107,2.79242 28.645479,8.87911 2.32324,2.03984 4.53442,3.70879 4.91374,3.70879 0.37932,0 6.17674,-3.168 12.88316,-7.04 6.70642,-3.872 12.65603,-7.03941 13.22136,-7.03869 0.93019,0.001 8.06785,11.6544 8.06785,13.17189 0,0.34976 -5.713,3.89897 -12.69556,7.88715 l -12.69556,7.25124 0.70861,9.36946 c 0.84662,11.19427 -1.2063,18.37188 -7.93244,27.73418 -4.97798,6.92897 -5.10709,5.38609 1.33385,15.94016 l 1.99891,3.27538 5.36109,-3.09974 C 118.54751,397.26616 196.128,352.51805 288,299.53076 z m 23.18099,50.44908 c 94.61046,-54.61508 172.41252,-99.68708 172.89348,-100.16 0.89105,-0.87613 -16.87994,-33.40132 -18.28445,-33.46496 -0.96734,-0.0438 -344.42564,198.1584 -345.9442,199.63679 -1.16052,1.1298 16.52912,33.28833 18.31111,33.28833 0.55278,0 78.4136,-44.68507 173.02406,-99.30016 z"
     id="path2989"
     style="fill:#ffffff" />
</svg>
