<?xml version="1.0" encoding="UTF-8" standalone="no"?>
<!-- Created with Inkscape (http://www.inkscape.org/) -->

<svg
   xmlns:dc="http://purl.org/dc/elements/1.1/"
   xmlns:cc="http://creativecommons.org/ns#"
   xmlns:rdf="http://www.w3.org/1999/02/22-rdf-syntax-ns#"
   xmlns:svg="http://www.w3.org/2000/svg"
   xmlns="http://www.w3.org/2000/svg"
   version="1.1"
   width="512"
   height="512"
   id="svg2">
  <metadata
     id="metadata8">
    <rdf:RDF>
      <cc:Work
         rdf:about="">
        <dc:format>image/svg+xml</dc:format>
        <dc:type
           rdf:resource="http://purl.org/dc/dcmitype/StillImage" />
        <dc:title></dc:title>
      </cc:Work>
    </rdf:RDF>
  </metadata>
  <defs
     id="defs6" />
  <path
     d="m 0,0 512,0 0,512 -512,0 z"
     id="rect3017"
     style="fill:#000000;fill-opacity:1;fill-rule:nonzero;stroke:none" />
  <path
     d="m 312.78941,494.93314 c 12.84696,-1.41144 26.63799,-4.43463 37.15392,-8.14466 10.88579,-3.84052 24.05556,-10.45753 22.05667,-11.08214 -0.825,-0.25779 -6.225,-1.71668 -12,-3.24197 C 301.01336,456.88484 231.41402,413.38141 164.23331,350.0994 l -12.26668,-11.55482 32.761,-32.77229 C 202.74618,287.74753 217.80691,273 218.19592,273 c 0.61991,0 46.7613,34.76592 49.26739,37.12126 0.59973,0.56365 -1.9364,3.8254 -6.7195,8.64205 l -7.6828,7.73669 37.71949,19.76797 c 20.74573,10.87239 38.3945,20.19436 39.2195,20.71549 1.2225,0.77223 0.42647,2.03291 -4.30281,6.81439 l -5.8028,5.86687 55.3028,29.03202 c 30.41655,15.96761 55.41859,28.74572 55.56009,28.3958 0.22572,-0.55818 -56.26692,-108.89603 -57.37782,-110.03536 -0.23747,-0.24355 -3.13552,2.23145 -6.44012,5.5 -4.90299,4.84951 -6.18451,5.66686 -6.96584,4.44282 -0.52661,-0.825 -9.84858,-18.47196 -20.71549,-39.21548 L 319.5,260.06905 l -7.5358,7.47907 -7.5358,7.47907 -19.2237,-25.25221 -19.2237,-25.25222 33.08168,-33.01138 33.08168,-33.01138 8.99753,9.5 c 50.94379,53.78876 87.62552,106.16605 110.25771,157.43532 7.88731,17.86733 17.6004,47.56444 17.6004,53.81203 0,3.28093 1.93803,0.83668 6.40177,-8.07394 8.88231,-17.7311 13.78214,-35.7525 15.7622,-57.97284 1.33525,-14.98432 0.19454,-32.86005 -3.23537,-50.70057 -1.0574,-5.5 -1.92391,-10.09307 -1.92557,-10.20682 -0.002,-0.11375 -4.21588,1.31817 -9.36492,3.18205 l -9.36189,3.38886 -0.64737,-7.68204 C 465.31336,235.57158 459.29239,211.95303 451.79676,193 c -5.47605,-13.84641 -13.00114,-28.13555 -14.51175,-27.55587 -0.76812,0.29475 -5.61905,3.47984 -10.77984,7.07798 l -9.38325,6.54206 -2.7709,-4.78208 C 397.13056,144.56251 366.17008,103.95205 339.85251,76.563348 L 328.38269,64.626697 322.05593,76.063348 C 297.18624,121.01936 266.83303,163.90302 235.04094,199 l -4.07626,4.5 L 139.73234,111.7131 48.5,19.926195 31.75,19.963097 15,20 l 0,16.247973 0,16.247973 91.75,91.820684 91.75,91.82068 -6,5.50139 C 158.49031,272.82216 110.89013,306.46701 69.546611,328.54484 63.745975,331.64243 59,334.54905 59,335.00399 c 0,1.18795 23.554722,23.16909 36.5,34.06162 21.20302,17.84082 53.93416,41.2346 72,51.46022 2.75,1.55656 5.15663,2.94415 5.34807,3.08354 0.19144,0.13939 -2.39606,4.18642 -5.75,8.9934 -3.35394,4.80698 -6.09807,9.03408 -6.09807,9.39357 0,1.0831 21.82655,11.51711 32.10869,15.34931 18.58523,6.92681 39.50812,12.05575 54.27051,13.30363 l 7.48287,0.63253 -3.38785,9.3591 C 249.6109,485.78841 248.26251,490 248.47781,490 c 0.21529,0 3.68336,0.71437 7.70681,1.5875 17.65335,3.83091 40.10782,5.15809 56.60479,3.34564 z"
     id="path2989"
     style="fill:#ffffff" />
</svg>
