<?xml version="1.0" encoding="UTF-8" standalone="no"?>
<!-- Created with Inkscape (http://www.inkscape.org/) -->

<svg
   xmlns:dc="http://purl.org/dc/elements/1.1/"
   xmlns:cc="http://creativecommons.org/ns#"
   xmlns:rdf="http://www.w3.org/1999/02/22-rdf-syntax-ns#"
   xmlns:svg="http://www.w3.org/2000/svg"
   xmlns="http://www.w3.org/2000/svg"
   version="1.1"
   width="512"
   height="512"
   id="svg2">
  <metadata
     id="metadata8">
    <rdf:RDF>
      <cc:Work
         rdf:about="">
        <dc:format>image/svg+xml</dc:format>
        <dc:type
           rdf:resource="http://purl.org/dc/dcmitype/StillImage" />
        <dc:title></dc:title>
      </cc:Work>
    </rdf:RDF>
  </metadata>
  <defs
     id="defs6" />
  <path
     d="m 0,1.5258789e-5 512,0 L 512,512.00002 l -512,0 z"
     id="rect3024"
     style="fill:#000000;fill-opacity:1;fill-rule:nonzero;stroke:none" />
  <path
     d="M 494.78498,437.8813 494.5,427.76259 485.04065,421.81268 C 440.0905,393.53913 404.91141,336.56756 392.84232,272.5 c -3.04878,-16.18416 -3.35131,-52.92882 -0.55163,-67 2.76113,-13.87742 10.87272,-38.69987 12.19988,-37.33311 0.1779,0.18321 1.9249,4.20793 3.88222,8.94383 5.81959,14.08098 12.30003,38.49696 15.63028,58.88928 0.67364,4.125 1.54535,8.09185 1.93712,8.81523 0.40764,0.75267 1.68256,-2.66913 2.9807,-8 3.02315,-12.41469 8.45714,-26.83929 13.1155,-34.81523 11.41092,-19.53756 25.18099,-20.27679 33.47422,-1.797 3.15481,7.02984 6.45761,22.09844 6.47625,29.547 0.007,2.8875 0.39581,5.25 0.86353,5.25 1.39511,0 6.99438,-12.01506 8.8544,-19 2.4899,-9.35038 2.23535,-24.26133 -0.58897,-34.5 C 479.41424,139.07968 433.14287,99.054895 377.26971,83.022998 355.83643,76.873065 345.84976,75.552511 321,75.582362 c -23.8215,0.02862 -30.21653,0.801222 -49.5,5.980262 -26.26451,7.053967 -54.27845,21.996076 -76.31558,40.705306 -4.6487,3.94668 -26.65512,25.699 -48.90315,48.33849 C 92.908127,224.91866 83.242166,233.2421 60.5,244.47341 c -12.990497,6.41541 -23.466801,9.66528 -35.75,11.09007 l -5.75,0.66697 0,44.88477 C 19,325.80185 19.369762,346 19.821694,346 21.287114,346 35.9099,335.40711 44.168569,328.36288 57.370065,317.10267 71.983826,299.05071 91.010812,270.5 c 9.950748,-14.93148 28.936128,-41.33061 37.030968,-51.49149 7.81966,-9.81546 31.52871,-34.7281 50.32652,-52.88132 13.76255,-13.29064 27.75148,-21.7415 44.33511,-26.78332 7.41257,-2.2536 10.76329,-2.68771 21.29659,-2.75912 10.56796,-0.0717 13.52144,0.26834 19.10856,2.19971 10.95607,3.78732 19.8964,10.64979 25.68511,19.71554 l 2.55411,4 1.83892,-7.47016 c 2.09923,-8.52759 5.11312,-13.63239 10.4495,-17.69893 3.37782,-2.57404 4.44756,-2.82875 11.78935,-2.80709 8.91926,0.0263 11.36744,0.94399 20.30724,7.61197 8.65986,6.45918 16.40382,18.38323 19.74748,30.40692 0.91116,3.27651 1.89062,6.63229 2.17658,7.45729 0.28595,0.825 1.6254,-2.325 2.97656,-7 2.65638,-9.19108 7.16022,-19.28165 10.05641,-22.53076 5.19311,-5.82591 11.52297,-7.04628 17.68628,-3.40984 l 3.49042,2.0594 -4.34486,8.73019 c -23.60423,47.42844 -22.77731,112.3111 2.20679,173.15101 9.07967,22.11033 24.85077,48.86989 38.9598,66.10496 8.7654,10.70748 28.59374,29.53978 37.64041,35.7496 8.36368,5.74101 25.34193,15.09467 27.45632,15.12625 0.98172,0.0147 1.21773,-2.36891 1,-10.09951 z M 441,494.62015 c 0,-0.20892 -2.3625,-2.17132 -5.25,-4.36087 -17.63845,-13.37504 -37.66069,-37.04291 -52.24631,-61.75928 -29.95608,-50.76269 -48.48655,-117.30238 -48.45684,-174 0.007,-12.6291 0.32451,-17.59272 2.43366,-38 l 0.62012,-6 -1.61811,3.5 c -2.57306,5.56558 -9.21296,26.18079 -11.40428,35.40742 -11.18415,47.09126 -10.6522,98.96656 1.54938,151.09258 6.76873,28.91651 22.46606,70.62516 33.96619,90.25 l 2.4905,4.25 38.95784,0 C 423.46897,495 441,494.82907 441,494.62015 z m -156,-0.15999 c 0,-0.29691 -0.95118,-2.4043 -2.11373,-4.68308 -7.56023,-14.81929 -14.43563,-42.0954 -18.0926,-71.77708 -0.84004,-6.81811 -1.26896,-22.24697 -1.22319,-44 0.0598,-28.42759 0.40394,-36.07406 2.27274,-50.5 7.17627,-55.39617 22.8607,-102.49239 43.04405,-129.25 3.83752,-5.0875 6.75135,-9.25 6.47519,-9.25 -1.46248,0 -10.27361,6.98828 -17.83185,14.14279 -31.17859,29.51312 -57.10922,80.42815 -74.02931,145.35721 -11.26177,43.21587 -16.3319,79.37506 -17.21161,122.75 l -0.56281,27.75 39.63656,0 C 267.16355,495 285,494.75707 285,494.46016 z m -150,-1.38061 c 0,-1.05624 0.45675,-8.81874 1.01499,-17.25 C 140.37385,409.99726 156.82849,348.13042 185.57283,289.5 211.82034,235.96243 244.79916,195.1377 278.5,174.46478 l 6,-3.68055 -5.27869,0.64614 c -6.87712,0.84178 -20.49573,5.68407 -31.43289,11.1764 C 204.67716,204.25602 150.6051,261.54008 109.76914,328.82469 77.757479,381.56967 53.278471,441.15563 44.685108,487.25 l -1.444831,7.75 45.879862,0 C 133.69983,495 135,494.94558 135,493.07955 z"
     id="path2989"
     style="fill:#ffffff" />
</svg>
