<?xml version="1.0" encoding="UTF-8" standalone="no"?>
<!-- Created with Inkscape (http://www.inkscape.org/) -->

<svg
   xmlns:dc="http://purl.org/dc/elements/1.1/"
   xmlns:cc="http://creativecommons.org/ns#"
   xmlns:rdf="http://www.w3.org/1999/02/22-rdf-syntax-ns#"
   xmlns:svg="http://www.w3.org/2000/svg"
   xmlns="http://www.w3.org/2000/svg"
   xmlns:sodipodi="http://sodipodi.sourceforge.net/DTD/sodipodi-0.dtd"
   xmlns:inkscape="http://www.inkscape.org/namespaces/inkscape"
   id="svg2"
   version="1.1"
   inkscape:version="0.48.3.1 r9886"
   width="400"
   height="400"
   sodipodi:docname="Icon.4_67.svg">
  <metadata
     id="metadata8">
    <rdf:RDF>
      <cc:Work
         rdf:about="">
        <dc:format>image/svg+xml</dc:format>
        <dc:type
           rdf:resource="http://purl.org/dc/dcmitype/StillImage" />
        <dc:title></dc:title>
      </cc:Work>
    </rdf:RDF>
  </metadata>
  <defs
     id="defs6" />
  <sodipodi:namedview
     pagecolor="#ffffff"
     bordercolor="#666666"
     borderopacity="1"
     objecttolerance="10"
     gridtolerance="10"
     guidetolerance="10"
     inkscape:pageopacity="0"
     inkscape:pageshadow="2"
     inkscape:window-width="1855"
     inkscape:window-height="1056"
     id="namedview4"
     showgrid="false"
     inkscape:zoom="2.135"
     inkscape:cx="200"
     inkscape:cy="200"
     inkscape:window-x="65"
     inkscape:window-y="24"
     inkscape:window-maximized="1"
     inkscape:current-layer="svg2" />
  <path
     style="fill:#000000;fill-opacity:1;stroke:none"
     d="m 0,0 400,0 0,400 -400,0 z"
     id="rect3028" />
  <path
     id="path2989"
     style="fill:#ffffff"
     d="M 152.4635,238.96186 121.724,119.88136 166.0364,160 194.25902,131.23144 221.51492,159 266.33484,121.00165 234.71683,238.71476 223.23482,234.6733 242.40804,159.12246 220.08652,176.5 194.10801,150.21772 167.05381,178 l -11.01545,-9.06271 -10.65236,-8.65662 19.38458,75.19956 z m 102.80326,5.54756 c 4.03642,-14.36093 7.93436,-22.84398 18.46811,-40.19198 C 295.73225,168.09002 299.21272,158.26881 299.18573,132.5 299.12415,73.686569 252.13412,27 193,27 165.05834,27 139.54106,37.147242 119.45362,56.246571 96.028293,78.519587 84.817056,106.32412 86.237301,138.625 c 0.942327,21.43148 5.281022,33.27719 22.602009,61.70907 5.51629,9.05481 11.3862,19.15069 13.04426,22.43529 2.36752,4.69003 7.77383,19.84731 10.6935,29.98064 L 252.59924,254 z M 242.65722,266.67611 136.5,266.5 l 0.22395,30.49333 z M 249,300.94413 248.99905,279.0325 136.5,310.55533 l 0.0201,22.0385 z M 248.79868,314.6775 160.5,339.42997 249,340 z M 235,353 l -83,0 0,15 83,0 z"
     inkscape:connector-curvature="0"
     sodipodi:nodetypes="ccccccccccccccccssssssssccscccccccccccccccccc" />
</svg>
