<?xml version="1.0" encoding="UTF-8" standalone="no"?>
<!-- Created with Inkscape (http://www.inkscape.org/) -->

<svg
   xmlns:dc="http://purl.org/dc/elements/1.1/"
   xmlns:cc="http://creativecommons.org/ns#"
   xmlns:rdf="http://www.w3.org/1999/02/22-rdf-syntax-ns#"
   xmlns:svg="http://www.w3.org/2000/svg"
   xmlns="http://www.w3.org/2000/svg"
   xmlns:sodipodi="http://sodipodi.sourceforge.net/DTD/sodipodi-0.dtd"
   xmlns:inkscape="http://www.inkscape.org/namespaces/inkscape"
   id="svg2"
   version="1.1"
   inkscape:version="0.48.3.1 r9886"
   width="400"
   height="400"
   sodipodi:docname="Icon.4_75.png">
  <metadata
     id="metadata8">
    <rdf:RDF>
      <cc:Work
         rdf:about="">
        <dc:format>image/svg+xml</dc:format>
        <dc:type
           rdf:resource="http://purl.org/dc/dcmitype/StillImage" />
        <dc:title></dc:title>
      </cc:Work>
    </rdf:RDF>
  </metadata>
  <defs
     id="defs6" />
  <sodipodi:namedview
     pagecolor="#ffffff"
     bordercolor="#666666"
     borderopacity="1"
     objecttolerance="10"
     gridtolerance="10"
     guidetolerance="10"
     inkscape:pageopacity="0"
     inkscape:pageshadow="2"
     inkscape:window-width="1216"
     inkscape:window-height="1000"
     id="namedview4"
     showgrid="false"
     inkscape:zoom="1.18"
     inkscape:cx="242.45732"
     inkscape:cy="169.50363"
     inkscape:window-x="64"
     inkscape:window-y="24"
     inkscape:window-maximized="1"
     inkscape:current-layer="svg2" />
  <rect
     style="fill:#000000;fill-opacity:1;stroke:none"
     id="rect3130"
     width="400"
     height="400"
     x="0"
     y="0" />
  <path
     id="path3001"
     style="fill:#ffffff"
     d="m 195.35224,101.21594 c 23.85155,-11.161488 28.96837,-40.552623 8.65469,-49.712817 l -4.1627,-1.877114 -9.67212,4.792375 c -23.48431,11.636098 -35.02729,19.43308 -35.7326,24.136456 -3.04477,20.303968 19.39241,32.73167 40.91273,22.6611 z m 145.84248,36.23921 c 8.41079,-5.48704 10.02967,-16.45967 5.80904,-39.373226 -2.4399,-13.246063 -16.96329,-17.330199 -26.46706,-7.442827 -19.35968,20.141083 -1.2752,61.124863 20.65802,46.816053 z M 235.6815,211.84621 c 21.9049,-8.19567 28.20734,-37.22176 11.87354,-54.68391 -18.41001,-19.6818 -51.33383,-10.69687 -57.54753,15.70475 -6.16032,26.17479 20.06881,48.55929 45.67399,38.97916 z M 216.5,228.35148 c -40.90306,-8.51852 -56.05899,-54.05043 -27.38621,-82.2745 30.64025,-30.16076 82.01255,-8.59833 82.01255,34.42302 0,28.99087 -27.88789,53.42005 -54.62634,47.85148 z M 269.4743,274.75 c 3.93207,-31.18429 34.81633,-53.04647 64.17819,-45.4301 l 5.08834,1.3199 2.61873,-15.0699 C 345.83642,189.80702 349,164.51397 349,154.48394 l 0,-4.30244 -4.2279,2.0427 c -13.42137,6.4845 -30.06414,1.12742 -38.88204,-12.5156 C 287.40094,111.10235 303.03312,71 332.67314,71 l 7.3537,0 -1.55577,-3.75 C 324.02711,32.434557 290.95043,20.50618 243.5,33.000768 c -9.59843,2.527445 -23.27085,7.121543 -25.74491,8.650598 -0.45516,0.281301 0.97466,2.313676 3.17737,4.516387 18.94401,18.944011 9.59437,54.299597 -17.82809,67.416797 -27.69411,13.24713 -56.22577,2.35921 -62.50852,-23.853789 l -1.1431,-4.769239 -9.97637,6.733859 c -37.933799,25.604569 -40.957055,55.186669 -9.87282,96.604019 30.11608,40.12738 109.21085,88.92787 148.5526,91.65511 0.36089,0.025 0.95405,-2.31701 1.31814,-5.20451 z m 34.0257,5.06586 c 16.36299,-3.43826 26.67846,-13.43367 31.07877,-30.11448 1.46524,-5.55444 1.08466,-5.88674 -8.07877,-7.05404 -21.05372,-2.68197 -39.71848,12.36938 -42.83608,34.54323 -0.68787,4.8924 5.28478,5.68287 19.83608,2.62529 z m -194.02869,87.6727 c 22.83899,-4.83791 48.37254,-26.90549 70.23468,-60.70092 2.46608,-3.81216 4.32858,-7.06859 4.13889,-7.2365 -0.18968,-0.16792 -2.14488,-1.22539 -4.34488,-2.34994 -8.28333,-4.2341 -8.24401,-4.1342 -4.14816,-10.53704 1.99282,-3.11529 3.79053,-5.66416 3.99491,-5.66416 0.20437,0 3.81285,1.58996 8.01884,3.53325 7.40927,3.42329 20.94647,7.42008 25.23806,7.4514 1.5393,0.0112 2.91788,-1.50207 5.13872,-5.64089 l 3.03508,-5.65625 -16.63873,-8.26515 C 179.67987,260.27262 158.40569,246.17546 138,228.59608 l -7.5,-6.4612 -3.67568,3.56294 c -3.24596,3.14639 -3.55984,3.86762 -2.68482,6.1691 1.66672,4.38379 11.4596,18.4002 15.78024,22.58603 5.05971,4.90184 5.05423,5.17475 -0.20759,10.33884 -5.27801,5.17998 -5.82762,5.19162 -9.83239,0.20821 -4.17388,-5.19384 -3.38794,-5.45092 -16.25056,5.31542 -6.12106,5.12348 -19.0042,15.15731 -28.6292,22.2974 -9.625,7.14009 -19.16203,14.92439 -21.193401,17.29846 -24.364832,28.47516 5.469042,66.09181 45.664711,57.57728 z" />
</svg>
