<?xml version="1.0" encoding="UTF-8" standalone="no"?>
<!-- Created with Inkscape (http://www.inkscape.org/) -->

<svg
   xmlns:dc="http://purl.org/dc/elements/1.1/"
   xmlns:cc="http://creativecommons.org/ns#"
   xmlns:rdf="http://www.w3.org/1999/02/22-rdf-syntax-ns#"
   xmlns:svg="http://www.w3.org/2000/svg"
   xmlns="http://www.w3.org/2000/svg"
   xmlns:sodipodi="http://sodipodi.sourceforge.net/DTD/sodipodi-0.dtd"
   xmlns:inkscape="http://www.inkscape.org/namespaces/inkscape"
   id="svg2"
   version="1.1"
   inkscape:version="0.48.3.1 r9886"
   width="400"
   height="400"
   sodipodi:docname="Icons8_42.png">
  <metadata
     id="metadata8">
    <rdf:RDF>
      <cc:Work
         rdf:about="">
        <dc:format>image/svg+xml</dc:format>
        <dc:type
           rdf:resource="http://purl.org/dc/dcmitype/StillImage" />
        <dc:title></dc:title>
      </cc:Work>
    </rdf:RDF>
  </metadata>
  <defs
     id="defs6" />
  <sodipodi:namedview
     pagecolor="#ffffff"
     bordercolor="#666666"
     borderopacity="1"
     objecttolerance="10"
     gridtolerance="10"
     guidetolerance="10"
     inkscape:pageopacity="0"
     inkscape:pageshadow="2"
     inkscape:window-width="1855"
     inkscape:window-height="1056"
     id="namedview4"
     showgrid="false"
     showguides="true"
     inkscape:guide-bbox="true"
     inkscape:zoom="0.59"
     inkscape:cx="200"
     inkscape:cy="200"
     inkscape:window-x="65"
     inkscape:window-y="24"
     inkscape:window-maximized="1"
     inkscape:current-layer="svg2" />
  <path
     style="fill:#000000"
     d="m 0,0 400,0 0,400 -400,0 z"
     id="rect3022" />
  <path
     id="path2989"
     style="fill:#ffffff"
     d="M 189.10234,145.50796 220.5,88.951445 l 0.62318,6.274277 c 0.34276,3.450853 1.64611,25.174278 2.89635,48.274278 1.25024,23.1 2.58173,42.35193 2.95887,42.78206 0.37714,0.43013 12.47341,-21.39487 26.88059,-48.5 14.40718,-27.10513 26.57332,-49.887452 27.03586,-50.627376 0.6829,-1.092412 2.94963,-0.748035 12.05783,1.831912 6.16926,1.747476 11.45222,2.941839 11.73992,2.654141 0.44947,-0.449477 -20.77016,-38.739169 -22.6835,-40.931159 -0.37947,-0.434731 -10.08424,13.830284 -21.56615,31.700035 -11.48192,17.869747 -21.00464,32.362037 -21.16159,32.205077 -0.15696,-0.15696 -1.85978,-17.796973 -3.78405,-39.200034 C 233.57304,54.011595 231.87809,35.6 231.73076,34.5 231.55509,33.188388 220.94981,48.235597 200.91882,78.217243 l -30.54407,45.717247 -8.78036,-47.717247 c -4.82919,-26.244484 -8.95704,-47.898267 -9.17298,-48.119519 -0.21595,-0.221252 -1.49681,2.028748 -2.84637,5 -1.34955,2.971252 -8.54273,18.851471 -15.98482,35.289376 -7.4421,16.437905 -13.70899,30.065 -13.92642,30.282433 -0.21743,0.217433 -5.87692,-1.644262 -12.57663,-4.1371 C 100.38745,92.039595 94.46242,90 93.920429,90 c -0.541991,0 5.594975,7.65 13.637701,17 8.04273,9.35 14.91985,16.98572 15.28251,16.96826 0.36265,-0.0175 5.15936,-7.85491 10.65936,-17.41655 5.5,-9.561645 10.10925,-17.275611 10.24278,-17.142149 0.22235,0.222244 12.25319,111.047609 12.25599,112.899459 6.8e-4,0.44496 0.38478,0.57196 0.85357,0.28224 0.46879,-0.28973 14.98129,-25.97721 32.25,-57.0833 z M 284.06019,356.5 c 2.39647,-9.075 4.8258,-16.49441 5.39851,-16.48758 0.57272,0.007 5.06814,1.12633 9.98984,2.48778 6.06222,1.67693 9.16155,2.13069 9.60895,1.40678 0.36323,-0.58771 1.21913,-3.56519 1.90201,-6.61662 0.90399,-4.03945 0.93971,-5.73462 0.13137,-6.2342 -0.61063,-0.37739 -5.0987,-1.71443 -9.9735,-2.97121 l -8.86326,-2.28505 2.48519,-9.14995 c 1.36685,-5.03247 2.57727,-9.25504 2.68981,-9.38349 0.11255,-0.12844 4.22454,0.87847 9.13776,2.23758 4.91322,1.35911 9.44092,2.4767 10.06156,2.48354 0.97927,0.0108 4.94621,-12.83 4.16396,-13.47854 -0.16081,-0.13333 -4.34239,-1.27402 -9.29239,-2.53486 -4.95,-1.26084 -9.34341,-2.58674 -9.76313,-2.94644 -0.41971,-0.35969 -0.33771,-1.97558 0.18223,-3.59087 0.51994,-1.61528 1.65376,-5.49113 2.51959,-8.61301 l 1.57424,-5.67614 9.16434,2.45254 c 5.04039,1.34889 9.61642,2.30184 10.16897,2.11766 1.24896,-0.41632 4.75171,-12.53935 3.79405,-13.13122 -0.38361,-0.23708 -4.50961,-1.39889 -9.16888,-2.58179 -4.65928,-1.18291 -8.83781,-2.50683 -9.28563,-2.94205 C 309.69217,260.09721 314.04468,243 315.28412,243 c 1.06154,0 15.95232,3.76976 18.01044,4.55954 1.0864,0.41689 1.90132,-1.10365 3.23801,-6.04181 1.05741,-3.90638 1.41518,-6.93079 0.87684,-7.41228 -0.50018,-0.44734 -5.02611,-1.85164 -10.05762,-3.12066 l -9.14822,-2.3073 1.32728,-4.58874 c 0.73,-2.52381 1.81468,-6.45719 2.41039,-8.74083 l 1.08311,-4.15208 8.7308,2.40208 c 4.80193,1.32114 9.43522,2.40208 10.29619,2.40208 1.101,0 2.02833,-1.93482 3.12589,-6.52203 0.85827,-3.58712 1.28201,-6.67156 0.94163,-6.85433 -0.34037,-0.18276 -4.78136,-1.40084 -9.86886,-2.70684 -5.0875,-1.306 -9.22728,-2.83405 -9.19951,-3.39567 0.0278,-0.56162 3.09465,-12.26977 6.81529,-26.01811 l 6.7648,-24.99699 4.7032,-0.67276 c 6.95603,-0.99502 13.05798,-4.3629 18.13426,-10.00895 7.39295,-8.22274 9.39432,-18.7717 5.52396,-29.11615 -7.62578,-20.381727 -32.86258,-25.837591 -48.26575,-10.434425 -5.69029,5.690295 -8.1138,11.740915 -8.1014,20.226255 0.0135,9.23182 2.96699,16.0486 9.49716,21.91979 4.458,4.00812 4.7751,4.59227 3.91969,7.22057 -0.51188,1.5728 -3.70264,13.26666 -7.09057,25.98636 l -6.15987,23.12671 -8.6386,-2.37671 C 299.40143,190.06952 294.77878,189 293.8801,189 c -1.1697,0 -2.08123,1.77554 -3.20808,6.24895 -0.86576,3.43693 -1.25864,6.51776 -0.87307,6.84629 0.38558,0.32853 4.75105,1.64091 9.70105,2.91639 4.95,1.27549 9.14119,2.42334 9.31375,2.5508 0.24355,0.17989 -3.7665,16.23032 -4.28461,17.14937 -0.0657,0.11649 -4.14593,-0.89601 -9.06724,-2.25 C 290.54059,221.10781 285.96574,220 285.29557,220 c -1.14241,0 -2.4778,3.66113 -3.86468,10.59553 l -0.59731,2.98657 9.33321,2.36188 c 5.13327,1.29904 9.60421,2.50352 9.93542,2.67663 0.62393,0.3261 -3.61274,17.22326 -4.55459,18.1651 -0.42941,0.42941 -8.58173,-1.47549 -18.56681,-4.33839 -1.14224,-0.3275 -1.95347,1.2202 -3.26941,6.23753 -1.15953,4.42097 -1.40291,6.88777 -0.72113,7.30914 0.566,0.3498 5.08523,1.68173 10.04274,2.95983 7.2004,1.85635 8.92194,2.64794 8.55779,3.935 -0.25071,0.88615 -1.22812,4.53618 -2.17201,8.11118 -0.9439,3.575 -2.04959,6.87783 -2.4571,7.33962 -0.40751,0.46179 -4.93474,-0.30657 -10.06051,-1.70747 -5.12577,-1.40089 -9.50528,-2.36139 -9.73224,-2.13443 -0.22696,0.22697 -1.21612,3.31022 -2.19814,6.85169 l -1.78549,6.43903 5.65734,1.54352 c 3.11154,0.84893 7.56985,2.03888 9.90735,2.64432 2.3375,0.60545 4.25,1.59183 4.25,2.19197 0,0.9172 -4.07665,16.87008 -4.48735,17.56003 -0.0747,0.12556 -4.30313,-0.88694 -9.39643,-2.25 C 264.02292,318.11523 259.45549,317 258.96638,317 c -0.85481,0 -2.26179,4.22706 -3.54868,10.66149 -0.59179,2.95897 -0.46196,3.08879 4.2359,4.23543 2.66552,0.65059 7.1418,1.833 9.94728,2.62757 l 5.10088,1.44468 -4.80927,17.76541 c -2.6451,9.77098 -4.828,18.10292 -4.85088,18.51542 -0.0229,0.4125 3.26656,0.75 7.30988,0.75 l 7.3515,0 4.3572,-16.5 z m -150.08081,16.25 c -0.0113,-0.1375 -2.23286,-8.35 -4.93673,-18.25 -2.70386,-9.9 -4.60708,-18.26589 -4.22938,-18.59087 0.3777,-0.32498 4.73673,-1.62247 9.68673,-2.88331 4.95,-1.26084 9.13158,-2.40153 9.29239,-2.53486 0.78225,-0.64854 -3.18469,-13.48932 -4.16396,-13.47854 -0.62064,0.007 -5.14834,1.12443 -10.06156,2.48354 -4.91322,1.35911 -9.02521,2.36602 -9.13776,2.23758 -0.11254,-0.12845 -1.32296,-4.35102 -2.68981,-9.38349 l -2.48519,-9.14995 8.86326,-2.28505 c 4.8748,-1.25678 9.39477,-2.61354 10.04439,-3.01502 0.88823,-0.54896 0.73911,-2.36287 -0.60137,-7.315 C 132.58002,286.96326 131.71221,284 131.63192,284 c -0.0803,0 -4.19282,1.11941 -9.13895,2.48758 -4.94613,1.36816 -9.46514,2.49316 -10.04223,2.5 -0.94194,0.0112 -6.00094,-16.8117 -5.25803,-17.48471 0.16901,-0.15311 4.51125,-1.42035 9.64943,-2.8161 5.13818,-1.39574 9.52415,-2.71972 9.7466,-2.94218 0.33203,-0.33203 -1.41937,-7.38622 -3.08778,-12.43679 -0.28614,-0.86619 -2.91634,-0.51714 -9.6182,1.27639 -5.0734,1.35774 -9.67356,2.31888 -10.22257,2.13587 -1.24781,-0.41593 -5.74415,-17.00216 -4.82982,-17.81635 0.368297,-0.32796 4.71963,-1.63986 9.66963,-2.91534 4.95,-1.27549 9.13158,-2.41373 9.29239,-2.52944 0.7102,-0.511 -3.13538,-13.45893 -3.99735,-13.45893 -1.10888,0 -15.937244,3.7336 -18.053249,4.54559 -1.060638,0.407 -1.985005,-1.61296 -3.687792,-8.0587 -1.249804,-4.73102 -2.110737,-8.74226 -1.913185,-8.91387 0.197552,-0.17161 4.634186,-1.43246 9.859186,-2.80189 10.56331,-2.76855 10.08439,-2.03779 7.46,-11.38298 l -1.43555,-5.11184 -9.991523,2.71474 c -8.868853,2.40971 -10.046178,2.53464 -10.477903,1.11185 -0.267507,-0.88159 -3.421777,-12.54953 -7.009487,-25.92875 l -6.523111,-24.32584 4.772115,-4.67416 c 7.550107,-7.39511 10.678581,-16.2917 9.143584,-26.00204 C 82.052121,86.589403 51.648077,77.824126 35.175755,96.537672 29.786132,102.66061 27.6119,109.33813 28.225368,117.88377 c 0.570898,7.95263 3.192246,13.52148 8.984793,19.08748 C 41.603975,141.19322 50.023054,145 54.966554,145 c 2.630359,0 3.027504,0.47419 4.396975,5.25 3.514041,12.25465 12.657943,47.05468 12.408373,47.22402 -0.149546,0.10146 -4.321902,1.21608 -9.271902,2.47693 -4.95,1.26084 -9.315471,2.57565 -9.701047,2.92179 -0.385577,0.34615 0.0073,3.44138 0.873067,6.87831 1.126855,4.47341 2.03838,6.24895 3.208077,6.24895 0.898679,0 5.513495,-1.06737 10.255146,-2.37193 l 8.621185,-2.37192 2.121786,7.74222 C 79.045196,223.25659 80,227.17518 80,227.70634 c 0,0.87525 -2.990416,1.87192 -15.708149,5.2353 -2.516293,0.66547 -4.051479,1.6045 -3.818465,2.33563 0.214327,0.6725 1.097417,3.7736 1.962423,6.89134 l 1.572738,5.66861 9.577293,-2.53705 c 5.314738,-1.40788 9.925376,-2.15052 10.359382,-1.6686 1.052956,1.1692 5.093921,16.49608 4.571915,17.3407 -0.227324,0.36782 -4.73679,1.7542 -10.021035,3.08084 -8.662411,2.17474 -9.550679,2.61056 -9.028004,4.42948 0.318842,1.10958 1.096242,4.15491 1.727556,6.76741 0.631313,2.6125 1.633056,4.74847 2.226094,4.74661 0.593039,-0.002 5.128252,-1.08751 10.078252,-2.41255 4.95,-1.32504 9.130475,-2.28054 9.289944,-2.12333 0.159469,0.1572 1.328537,4.17517 2.597929,8.92882 l 2.307986,8.643 -5.097929,1.44382 c -2.803862,0.7941 -7.278811,1.97612 -9.944332,2.62671 -4.697861,1.14664 -4.82769,1.27646 -4.235896,4.23543 C 79.704589,307.77294 81.111565,312 81.966381,312 c 0.489111,0 5.056538,-1.11523 10.149838,-2.47828 5.0933,-1.36306 9.323941,-2.37556 9.401411,-2.25 0.28196,0.45692 4.509,17.24614 4.49588,17.85699 -0.007,0.34579 -4.47296,1.85175 -9.923408,3.34658 l -9.909899,2.71786 1.788042,6.44824 c 0.983422,3.54652 1.973736,6.63392 2.200697,6.86089 0.226961,0.22696 4.606468,-0.73354 9.732237,-2.13443 5.125771,-1.4009 9.659041,-2.16926 10.073951,-1.70747 0.4149,0.46179 2.41347,7.13962 4.44126,14.83962 2.02779,7.7 3.91897,14.7875 4.20264,15.75 0.43129,1.46344 1.73282,1.75 7.94836,1.75 4.08793,0 7.42333,-0.1125 7.41199,-0.25 z" />
</svg>
