<?xml version="1.0" encoding="UTF-8" standalone="no"?>
<!-- Created with Inkscape (http://www.inkscape.org/) -->

<svg
   xmlns:dc="http://purl.org/dc/elements/1.1/"
   xmlns:cc="http://creativecommons.org/ns#"
   xmlns:rdf="http://www.w3.org/1999/02/22-rdf-syntax-ns#"
   xmlns:svg="http://www.w3.org/2000/svg"
   xmlns="http://www.w3.org/2000/svg"
   version="1.1"
   width="512"
   height="512"
   id="svg2">
  <metadata
     id="metadata8">
    <rdf:RDF>
      <cc:Work
         rdf:about="">
        <dc:format>image/svg+xml</dc:format>
        <dc:type
           rdf:resource="http://purl.org/dc/dcmitype/StillImage" />
        <dc:title></dc:title>
      </cc:Work>
    </rdf:RDF>
  </metadata>
  <defs
     id="defs6" />
  <path
     d="m 0,7.6293945e-6 512,0 L 512,512.00001 l -512,0 z"
     id="rect3032"
     style="fill:#000000;fill-opacity:1;fill-rule:nonzero;stroke:none" />
  <path
     d="m 265.97244,34.945724 c -16.25342,0.186967 -32.73329,2.950499 -48.08877,8.29539 -12.47806,4.34333 -19.28437,7.462098 -29.90626,13.713412 -47.47479,27.940408 -86.73178,86.398894 -100.860915,150.112884 -0.795051,3.58521 -1.698685,11.34888 -1.98967,17.26421 -0.513645,10.44168 -0.454467,10.92059 2.11211,16.16223 9.903524,20.22563 49.208915,38.67915 100.034435,46.9868 6.40215,1.04646 12.67787,2.08645 13.9583,2.29577 1.28043,0.20931 4.31121,0.42002 6.73426,0.48976 3.8691,0.11138 4.45607,-0.11894 4.83643,-1.95905 0.57902,-2.80117 8.03762,-88.84215 8.0199,-92.53492 -0.0134,-2.79674 -0.20815,-2.92262 -4.92826,-3.48957 -2.6889,-0.32298 -6.5871,-0.57714 -8.69332,-0.5816 l -3.82628,0 -0.58161,4.86704 c -0.31162,2.6889 -0.84641,8.98494 -1.19379,13.9889 -0.73903,10.64552 -0.18006,10.46513 -11.41765,3.64262 -8.48784,-5.15308 -19.47673,-15.39836 -24.54945,-22.86588 -14.28969,-21.03567 -18.38073,-50.4605 -10.07079,-72.42396 11.31209,-29.897977 51.85816,-53.059184 98.74881,-56.414771 38.36149,-2.745222 73.42592,5.876227 95.84083,23.600537 9.35618,7.398276 14.94832,14.338514 20.17218,25.039224 4.914,10.06593 6.91793,18.9938 6.91793,30.85517 0,18.5434 -6.0446,33.899 -19.3457,49.09891 -4.4524,5.08802 -11.9311,11.78497 -13.16243,11.78497 -0.37084,0 -1.8814,-4.73739 -3.33653,-10.49933 -1.45512,-5.76194 -2.72852,-10.58683 -2.84675,-10.74422 -0.48052,-0.63962 -16.50483,4.0512 -16.83567,4.92826 -0.32442,0.86011 24.36261,96.26619 25.10045,97.00403 0.5051,0.50508 22.68628,-5.77342 31.77348,-8.99944 19.14763,-6.79752 35.90612,-16.45995 44.81347,-25.80447 8.44624,-8.86081 9.92308,-13.57877 8.69333,-28.00842 -2.29811,-26.96509 -12.76342,-61.03228 -27.6717,-90.05548 -21.76015,-42.362277 -52.04989,-72.7721 -86.07615,-86.474086 -15.83664,-6.377229 -33.95368,-9.486815 -52.37422,-9.27492 z M 331.2642,94.91129 c -2.73859,-0.07991 -5.77102,0.476 -9.06064,1.714178 -7.07809,2.664098 -20.71615,11.790522 -27.30439,18.274342 -13.23403,13.02428 -11.17625,23.03664 5.50985,26.78401 4.03499,0.90617 14.63173,0.56869 21.1211,-0.67342 10.53019,-2.01557 29.63078,-8.96021 29.63078,-10.77483 0,-2.52808 -4.94069,-22.2757 -6.36695,-25.43716 -2.87923,-6.382224 -7.50484,-9.711329 -13.52975,-9.88712 z m -134.19553,11.11154 c -7.41361,0.002 -11.46503,2.08035 -14.44806,7.4383 -2.22498,3.99642 -2.32638,4.88907 -2.32638,19.46814 l 0,15.30515 5.57108,1.25502 c 14.92812,3.40223 32.26613,3.58417 43.436,0.45916 11.3966,-3.18844 18.47976,-8.99077 18.48862,-15.1521 0.005,-3.47592 -4.49663,-9.72285 -9.82591,-13.59096 -10.92369,-7.92869 -30.5009,-15.1854 -40.89535,-15.18271 z m 70.28124,35.84465 -3.5508,3.88751 c -7.99172,8.73115 -12.08415,20.47397 -9.12186,26.20241 2.99287,5.78757 12.89547,8.27206 22.46795,5.66291 2.04869,-0.55841 4.66357,-1.87406 5.81596,-2.93859 4.8745,-4.50288 0.87606,-15.39851 -9.73408,-26.60034 l -5.87717,-6.2139 z m 31.55921,49.25196 c -3.39565,0.15137 -15.70001,2.10905 -16.28468,2.69371 -0.28708,0.28708 13.94889,90.59541 15.06026,95.53473 0.44746,1.98866 0.86023,2.12072 4.40789,1.65295 2.15326,-0.2839 6.12686,-0.771 8.81576,-1.10196 2.75195,-0.33872 4.87835,-1.07753 4.86705,-1.68357 -0.0494,-2.64926 -15.54494,-96.57039 -16.0092,-97.03464 -0.0612,-0.0612 -0.37199,-0.0829 -0.85708,-0.0612 z m -55.64952,5.23437 0.42855,34.22231 c 0.2359,18.82231 0.68302,40.61485 0.97953,48.42548 l 0.55098,14.20317 8.87699,0 8.9076,0 -0.61222,-33.70193 c -0.33913,-18.52194 -0.6122,-40.31449 -0.6122,-48.42549 l 0,-14.72354 -9.24431,0 -9.27492,0 z m 51.7314,111.72757 -4.74459,0.70403 c -2.60247,0.39031 -18.18679,0.70405 -34.65085,0.70405 l -29.93688,0 -3.33652,8.96881 c -6.64492,17.96852 -11.91469,37.76951 -15.4582,58.06773 -2.5386,14.54185 -3.49984,37.92365 -1.95905,47.66023 2.6377,16.66837 15.68975,34.17385 31.74287,42.60952 13.81496,7.25956 21.84699,8.94943 40.49742,8.50966 11.55855,-0.27253 15.41038,-0.73741 22.34551,-2.72431 23.81232,-6.82223 40.5582,-21.49186 40.49743,-35.47733 -0.0275,-6.32923 -2.13326,-10.5304 -11.17277,-22.49856 -9.52484,-12.61074 -15.47949,-22.67414 -20.78438,-35.01819 -7.7255,-17.97661 -10.44617,-30.40148 -11.99924,-54.97609 L 294.991,308.08138 z"
     id="path2998"
     style="fill:#ffffff" />
</svg>
