<?xml version="1.0" encoding="UTF-8" standalone="no"?>
<!-- Created with Inkscape (http://www.inkscape.org/) -->

<svg
   xmlns:dc="http://purl.org/dc/elements/1.1/"
   xmlns:cc="http://creativecommons.org/ns#"
   xmlns:rdf="http://www.w3.org/1999/02/22-rdf-syntax-ns#"
   xmlns:svg="http://www.w3.org/2000/svg"
   xmlns="http://www.w3.org/2000/svg"
   xmlns:sodipodi="http://sodipodi.sourceforge.net/DTD/sodipodi-0.dtd"
   xmlns:inkscape="http://www.inkscape.org/namespaces/inkscape"
   id="svg2"
   version="1.1"
   inkscape:version="0.48.3.1 r9886"
   width="400"
   height="400"
   sodipodi:docname="Icon.6_69.png">
  <metadata
     id="metadata8">
    <rdf:RDF>
      <cc:Work
         rdf:about="">
        <dc:format>image/svg+xml</dc:format>
        <dc:type
           rdf:resource="http://purl.org/dc/dcmitype/StillImage" />
        <dc:title></dc:title>
      </cc:Work>
    </rdf:RDF>
  </metadata>
  <defs
     id="defs6" />
  <sodipodi:namedview
     pagecolor="#ffffff"
     bordercolor="#666666"
     borderopacity="1"
     objecttolerance="10"
     gridtolerance="10"
     guidetolerance="10"
     inkscape:pageopacity="0"
     inkscape:pageshadow="2"
     inkscape:window-width="1855"
     inkscape:window-height="1056"
     id="namedview4"
     showgrid="false"
     inkscape:zoom="0.59"
     inkscape:cx="200"
     inkscape:cy="200"
     inkscape:window-x="65"
     inkscape:window-y="24"
     inkscape:window-maximized="1"
     inkscape:current-layer="svg2" />
  <path
     style="fill:#000000"
     d="m 0,0 400,0 0,400 -400,0 z"
     id="rect3030" />
  <path
     id="path2989"
     style="fill:#ffffff"
     d="m 250.28774,347.74938 c 2.63326,-0.61067 4.60313,-1.59159 4.3775,-2.17984 -0.22563,-0.58825 -0.98923,-3.65704 -1.69687,-6.81954 -0.70765,-3.1625 -1.69075,-5.75 -2.18468,-5.75 -1.6657,0 -10.27758,2.26656 -10.99025,2.89252 -0.3886,0.34133 -0.007,3.68645 0.8475,7.43361 1.27896,5.60697 1.84659,6.69977 3.20656,6.17328 0.90888,-0.35185 3.80698,-1.13937 6.44024,-1.75003 z M 251.36232,100.5 c 0.33862,-2.2 0.62062,-5.468539 0.62667,-7.26342 l 0.011,-3.26342 3.75,1.565581 c 2.0625,0.861069 4.08469,1.899295 4.49375,2.307169 0.40906,0.407873 -1.56044,2.971901 -4.37668,5.697839 l -5.12043,4.956251 0.61568,-4 z m -27.80181,5.37402 c -0.39793,-12.674397 -0.48206,-23.285802 -0.18696,-23.580901 1.04608,-1.046085 13.78721,1.962228 14.33284,3.384135 0.29977,0.78119 -0.15521,8.659834 -1.01107,17.508096 l -1.5561,16.08775 -3.81961,3.94261 c -7.34917,7.58584 -6.94835,8.48168 -7.7591,-17.34169 z m 105.0332,82.08471 c -4.3451,-1.29975 -9.22954,-6.58638 -10.59663,-11.46917 -2.99997,-10.71482 7.33152,-22.16135 18.15646,-20.11604 15.52859,2.93405 18.80819,23.34665 4.88045,30.37648 -4.68143,2.36289 -7.6256,2.64895 -12.44028,1.20873 z m -197.9538,159.04272 c 2.71217,-4.21468 4.30616,-5.81661 5.36009,-5.38675 8.64054,3.52415 22.17863,8.3853 23.35271,8.3853 0.97016,0 1.85534,-1.74288 2.56443,-5.04922 1.64562,-7.6733 1.44483,-8.82603 -1.66714,-9.57091 -3.67652,-0.88002 -15.52571,-5.479 -16.62296,-6.45182 -0.48012,-0.42568 0.0824,-2.1156 1.25,-3.75538 1.16763,-1.63977 2.12296,-3.41073 2.12296,-3.93546 0,-0.52473 -2.46845,-2.59301 -5.48545,-4.59618 l -5.48544,-3.64213 -2.64744,4.00055 c -1.45609,2.2003 -3.15014,3.99915 -3.76456,3.99743 C 128.13622,320.99275 113,309.15277 113,307.9985 c 0,-0.49451 0.60863,-1.25898 1.35252,-1.69881 0.74388,-0.43983 2.81566,-2.0475 4.60394,-3.57259 l 3.25142,-2.7729 -4.22555,-5.4771 C 115.65828,291.46469 113.55474,289 113.3078,289 c -0.24694,0 -2.65805,1.86271 -5.35802,4.13936 -5.83908,4.92358 -5.71976,4.97849 -13.073119,-6.0157 l -5.080377,-7.59579 8.101858,-3.71453 C 102.35416,273.77036 106,271.83875 106,271.52089 c 0,-0.31786 -1.34682,-3.24595 -2.99293,-6.50688 l -2.99292,-5.92895 -8.337281,3.83361 -8.337279,3.83362 -1.745502,-4.62615 C 78.475779,253.86162 76.193212,246 76.911972,246 c 1.209922,0 22.39563,-3.97427 22.675011,-4.25365 0.383649,-0.38365 -2.266964,-12.75966 -2.859737,-13.35244 -0.27398,-0.27398 -5.534574,0.46543 -11.690209,1.64313 -6.155635,1.1777 -11.397364,1.93597 -11.648286,1.68504 -0.250922,-0.25092 -0.737551,-5.07401 -1.081397,-10.71799 l -0.625174,-10.26177 14.536185,0.72667 14.536185,0.72666 0.47058,-6.84783 c 0.25882,-3.7663 0.3881,-6.96127 0.28728,-7.09993 -0.10081,-0.13866 -6.321951,-0.61576 -13.824753,-1.06023 -7.502803,-0.44447 -13.941131,-1.1078 -14.307396,-1.47407 -0.606054,-0.60605 1.13965,-11.56683 1.975326,-12.40251 0.195604,-0.1956 6.383117,0.33695 13.750029,1.18346 7.366911,0.84651 27.245664,2.82031 44.175004,4.38623 16.92934,1.56593 30.99286,3.05938 31.25227,3.31879 0.25941,0.25941 -5.39487,13.25813 -12.56508,28.88605 -7.1702,15.62791 -13.25362,29.31439 -13.51871,30.41439 -0.4105,1.7034 2.80646,3.89923 21.69212,14.80663 24.49778,14.14867 22.51895,13.75041 27.22143,5.47864 l 2.68032,-4.71473 -10.27149,-6.02725 -10.27148,-6.02725 18.25,0.64979 18.25,0.64978 0,-7.00584 0,-7.00584 -10.65556,-0.65196 c -5.86056,-0.35859 -13.62306,-0.67625 -17.25,-0.70593 l -6.59444,-0.054 11.45759,-4.48697 c 6.30168,-2.46783 11.58876,-4.61813 11.74907,-4.77844 0.56334,-0.56334 -4.50609,-12.05981 -5.45771,-12.37702 -0.52956,-0.17652 -6.08971,1.66651 -12.35589,4.09561 -6.26618,2.42911 -11.51793,4.30778 -11.67055,4.17483 -0.15262,-0.13296 4.45988,-10.62651 10.25,-23.31899 C 181.26263,191.50861 186,180.64598 186,180.06192 186,179.47786 185.41953,179 184.71007,179 c -6.98526,0 -104.661651,-9.61825 -105.424624,-10.38122 -0.20689,-0.20689 1.385302,-4.46192 3.538205,-9.45562 C 88.185862,146.7254 98.769407,131.18157 108.80833,121 l 8.38092,-8.5 7.36731,18.3786 c 4.05203,10.10824 7.59077,18.60207 7.86389,18.87518 0.27312,0.27312 2.42774,-0.28243 4.78806,-1.23456 2.36032,-0.95213 5.27377,-2.11083 6.47433,-2.5749 2.13682,-0.82596 2.0041,-1.28206 -6.29409,-21.62934 -4.66231,-11.43207 -8.11959,-20.92499 -7.68284,-21.09538 0.43675,-0.17039 3.94409,-2.26079 7.79409,-4.645338 3.85,-2.384547 7.10513,-4.051752 7.23362,-3.704901 0.12849,0.346852 3.18905,13.216199 6.80124,28.598549 3.61219,15.38235 6.73465,28.13493 6.93879,28.33908 0.52216,0.52215 11.85241,-1.97274 12.83801,-2.82689 0.61816,-0.53573 -6.84055,-34.33328 -12.94114,-58.639983 -0.50865,-2.026618 0.18632,-2.44912 8.07367,-4.908267 4.74662,-1.479922 8.77677,-2.52001 8.95589,-2.311308 0.17911,0.208702 2.19488,14.974476 4.4795,32.812828 2.28461,17.83836 4.35092,32.63047 4.59181,32.87135 0.24089,0.24089 3.38337,0.12256 6.98329,-0.26296 5.21874,-0.55888 6.54532,-1.0455 6.54532,-2.40094 0,-0.93499 -1.79725,-15.63668 -3.99389,-32.6704 -2.19664,-17.033733 -3.99664,-31.53292 -4,-32.22042 -0.004,-0.907165 2.44382,-1.25 8.9265,-1.25 7.65313,0 9.0031,0.250665 9.42467,1.75 0.27064,0.9625 0.77237,15.475 1.11496,32.25 0.3426,16.775 0.86225,31.7375 1.15479,33.25 0.46874,2.42355 0.98244,2.75 4.32743,2.75 7.62572,0 9.90762,-0.94798 10.24069,-4.25433 0.29179,-2.89663 0.77605,-2.48279 11.30485,9.661 6.05,6.97799 11.12409,13.03841 11.27576,13.46759 0.15167,0.42918 -5.58583,3.40557 -12.75,6.6142 C 227.86159,178.69709 222,181.68984 222,182.13902 222,183.64129 227.40615,194 228.19018,194 c 0.42545,0 4.59806,-1.76693 9.27247,-3.92652 13.62423,-6.29441 13.13735,-6.64047 7.49291,5.32573 C 242.23,201.17739 240,206.29363 240,206.76863 c 0,0.96921 11.76002,6.82906 12.36172,6.15968 C 253.14773,212.05388 271,174.66546 271,173.89373 c 0,-0.63357 -18.94878,-22.91045 -30.40307,-35.74297 l -2.09693,-2.34924 11,-10.4234 c 6.05,-5.73287 14.25788,-13.38924 18.23974,-17.01415 l 7.23974,-6.59074 7.1304,4.86338 c 8.59944,5.86538 26.56087,22.75578 33.21005,31.22977 4.1986,5.35088 4.58532,6.21931 3,6.73685 -15.86852,5.1804 -29.49605,19.27514 -33.31472,34.45688 l -1.14701,4.5601 15.94581,34.9399 c 8.77019,19.21694 16.48878,36.09936 17.1524,37.51648 1.18197,2.524 1.33251,2.5577 7.37509,1.65099 3.39268,-0.50909 6.27143,-1.02148 6.39724,-1.13867 0.1258,-0.11718 -3.81176,-10.45703 -8.75014,-22.97746 -4.93839,-12.52042 -9.22086,-23.74248 -9.51661,-24.93792 -0.46492,-1.8792 0.2373,-2.47567 5.18561,-4.40473 3.14783,-1.22716 5.79108,-2.12716 5.87387,-2 0.0828,0.12716 4.56234,11.55659 9.95455,25.39874 5.39221,13.84214 10.08951,25.62948 10.43845,26.19407 0.62715,1.01475 24.40363,-1.84637 25.64298,-3.08573 0.30791,-0.3079 -0.82019,-22.99594 -2.50689,-50.41785 -2.66212,-43.28027 -3.28863,-50.02285 -4.74882,-51.10734 -2.89061,-2.14687 -12.05608,-5.19117 -19.16227,-6.36473 l -6.81689,-1.12579 -4.76067,-6.43208 -4.76067,-6.43208 6.23989,-7.021 6.23989,-7.021 -4.85909,-4.93327 -4.8591,-4.93328 -6.53141,6.43282 -6.53142,6.43283 -5.26979,-5.43548 -5.2698,-5.43548 5.841,-8.741073 c 3.21255,-4.807592 6.13737,-9.2459 6.4996,-9.862907 0.59967,-1.021461 -9.13927,-8.401352 -11.03563,-8.362481 -0.42096,0.0086 -3.40544,4.050503 -6.63217,8.981944 l -5.86679,8.966255 -5.93711,-4.164641 c -3.26541,-2.290552 -6.12794,-4.473427 -6.36119,-4.850832 -0.23325,-0.377405 1.141,-5.333609 3.05389,-11.013786 C 287.43491,72.254451 289,67.1122 289,66.507405 c 0,-0.604794 -2.94871,-2.058322 -6.55268,-3.23006 l -6.55268,-2.130434 -1.00457,2.642231 c -0.55252,1.453226 -1.96896,5.920171 -3.14766,9.926544 C 270.56372,77.722059 269.07672,81 268.43798,81 c -0.63874,0 -4.20754,-1.381207 -7.93065,-3.06935 l -6.76931,-3.069349 0.64708,-6.680651 c 0.35589,-3.674357 0.91507,-9.198387 1.24261,-12.275621 l 0.59554,-5.594972 -6.79847,-0.634851 c -3.73916,-0.349168 -6.99782,-0.435499 -7.24147,-0.191847 -0.24365,0.243652 -0.87429,4.847072 -1.40142,10.229822 -0.52713,5.382751 -1.10036,9.930981 -1.27385,10.107179 -0.17348,0.176197 -4.18376,-0.447884 -8.91173,-1.386848 L 222,66.726305 l 0,-10.906962 0,-10.906962 -7.25,0.293809 -7.25,0.29381 0.34939,10 0.34939,10 -9.97625,0.308696 C 186.57626,66.169067 187.87136,67.785111 185.95408,50.5 c -0.67107,-6.05 -1.51122,-11.328447 -1.86699,-11.729883 -0.5289,-0.596782 -13.01405,0.823512 -13.75533,1.564787 -0.12037,0.120372 0.61676,6.506762 1.63808,14.191977 1.02131,7.685216 1.78341,13.992557 1.69355,14.016314 -0.0899,0.02376 -3.76339,1.090126 -8.16339,2.369709 -4.4,1.279583 -8.68355,2.522946 -9.519,2.763029 -1.20863,0.347323 -2.19127,-2.481705 -4.80915,-13.845522 -1.80958,-7.85512 -3.38848,-14.380374 -3.50867,-14.500564 -0.22981,-0.229809 -12.94221,2.79862 -13.46766,3.208353 -0.16746,0.130583 1.29504,7.046288 3.25,15.368233 C 139.40048,72.228378 141,79.234894 141,79.476467 c 0,0.241574 -2.1375,1.646462 -4.75,3.121973 -2.6125,1.475511 -6.47879,3.77819 -8.59176,5.117064 -2.11296,1.338874 -3.95375,2.288107 -4.09064,2.109406 C 123.43071,89.64621 120.7357,82.975 117.5787,75 c -3.15701,-7.975 -6.04122,-14.803191 -6.40936,-15.173758 -0.56897,-0.57273 -11.706592,3.377676 -12.906854,4.577939 -0.224719,0.224719 2.726004,8.070983 6.557164,17.436141 l 6.96575,17.027562 -4.98097,4.200016 C 100.96396,107.99265 103.26049,109.44384 88.102455,91.25 82.489168,84.5125 77.512347,79 77.042853,79 c -1.049571,0 -9.413509,6.876471 -9.880226,8.123097 -0.185556,0.495629 5.101944,7.404818 11.75,15.353753 C 85.560682,110.42579 91,117.40404 91,117.98409 c 0,1.4064 -7.257266,10.88647 -8.389401,10.95896 -0.489171,0.0313 -2.964171,-1.22009 -5.5,-2.78091 -2.53583,-1.56082 -9.44158,-5.8244 -15.346112,-9.47461 l -10.735513,-6.63675 -3.514487,5.49403 C 45.581519,118.56652 44,121.40314 44,121.84841 c 0,0.44526 6.8625,5.00319 15.25,10.12872 8.3875,5.12553 15.370303,9.41029 15.517339,9.52168 0.226555,0.17164 -5.614812,13.37037 -6.341831,14.32954 -0.136883,0.1806 -7.812254,-1.72327 -17.05638,-4.23081 -9.244126,-2.50754 -17.097685,-4.2303 -17.452354,-3.82835 -0.354669,0.40194 -1.147925,2.81037 -1.762791,5.35206 -0.614866,2.54168 -1.372861,5.28556 -1.684433,6.0975 -0.448641,1.16914 2.824218,2.37415 15.731978,5.79222 8.96416,2.37377 16.475132,4.45655 16.691049,4.6284 0.215918,0.17185 -0.571582,4.84042 -1.75,10.3746 C 59.96416,185.54815 59,191.2393 59,192.66097 l 0,2.58485 L 44.25,194.87291 29.5,194.5 l -0.29255,6.61225 -0.29255,6.61226 3.79255,0.62674 c 2.085903,0.3447 6.542243,0.63169 9.902979,0.63774 3.360736,0.006 8.140618,0.28928 10.621961,0.62938 l 4.511533,0.61838 0.107084,6.13162 c 0.0589,3.3724 0.388284,8.89134 0.731973,12.26432 l 0.624888,6.13269 -12.103934,2.25616 c -13.508747,2.51801 -12.944876,1.95884 -11.02107,10.92924 0.595575,2.77707 1.633776,5.04922 2.307112,5.04922 0.673336,0 6.112879,-0.89817 12.087872,-1.99593 5.974994,-1.09776 11.090213,-1.76934 11.367153,-1.4924 0.400844,0.40084 4.947303,13.00854 7.775978,21.56342 0.393023,1.18864 -1.704778,2.59462 -8.550087,5.73042 C 56.081901,279.09095 52,281.36366 52,281.85599 52,283.15555 56.883975,294 57.469254,294 c 0.271961,0 4.390567,-1.8 9.152457,-4 4.761891,-2.2 9.157552,-3.99653 9.768136,-3.9923 0.610584,0.004 2.192677,1.91674 3.515762,4.25 1.323085,2.33327 4.40685,6.85574 6.852811,10.04995 5.130183,6.69957 5.236258,6.36726 -4.407298,13.80721 -2.943117,2.2706 -5.341443,4.41113 -5.329614,4.75675 0.01183,0.34561 1.973563,2.95936 4.359408,5.80833 l 4.337899,5.17994 7.814039,-6.35534 7.814036,-6.35533 5.57656,4.99576 c 3.0671,2.74767 7.71405,6.38989 10.32655,8.09381 2.6125,1.70393 4.75,3.26502 4.75,3.46908 0,0.20407 -1.575,2.70978 -3.5,5.56824 -1.925,2.85846 -3.5,5.50603 -3.5,5.88347 0,0.52843 10.82623,7.84043 11.60863,7.84043 0.0942,0 1.90824,-2.69935 4.03128,-5.99855 z m 92.61009,6.46863 c 6.39925,-0.68332 6.28665,-0.46432 4.58783,-8.92338 l -1.16217,-5.78687 -5.08783,0.61139 c -2.79831,0.33627 -6.32533,0.61531 -7.83783,0.62009 L 211,340 l 0,7.54531 0,7.54532 3.25,-0.50328 c 1.7875,-0.2768 5.8375,-0.77957 9,-1.11727 z m -25.25,-5.36392 0,-6.89384 -9.25,-0.67767 c -5.0875,-0.37272 -9.98403,-0.88384 -10.88117,-1.13583 -1.30984,-0.36791 -1.87659,0.8425 -2.877,6.1445 -0.71341,3.78091 -0.87104,6.97186 -0.36883,7.46654 0.97172,0.95718 6.4104,1.551 16.627,1.81543 L 198,355 l 0,-6.89384 z" />
</svg>
