<?xml version="1.0" encoding="UTF-8" standalone="no"?>
<!-- Created with Inkscape (http://www.inkscape.org/) -->

<svg
   xmlns:dc="http://purl.org/dc/elements/1.1/"
   xmlns:cc="http://creativecommons.org/ns#"
   xmlns:rdf="http://www.w3.org/1999/02/22-rdf-syntax-ns#"
   xmlns:svg="http://www.w3.org/2000/svg"
   xmlns="http://www.w3.org/2000/svg"
   version="1.1"
   width="512"
   height="512"
   id="svg2">
  <metadata
     id="metadata8">
    <rdf:RDF>
      <cc:Work
         rdf:about="">
        <dc:format>image/svg+xml</dc:format>
        <dc:type
           rdf:resource="http://purl.org/dc/dcmitype/StillImage" />
        <dc:title></dc:title>
      </cc:Work>
    </rdf:RDF>
  </metadata>
  <defs
     id="defs6" />
  <path
     d="m 0,0 512,0 0,512 -512,0 z"
     id="rect3034"
     style="fill:#000000" />
  <path
     d="m 312.44632,223.81092 c 2.69685,-0.80799 6.7563,-3.01599 9.02102,-4.90666 l 4.11768,-3.4376 -5.81624,0 c -12.54752,0 -20.30908,-9.51522 -21.2676,-26.07286 -0.94421,-16.31089 5.13649,-30.84112 16.81549,-40.1816 4.33717,-3.46874 5.88314,-3.9322 13.11664,-3.9322 4.50997,0 8.20147,-0.32424 8.20332,-0.72053 0.009,-1.80693 -7.49294,-7.43632 -11.6977,-8.77848 -10.20518,-3.25751 -25.58356,5.70744 -33.77887,19.69168 -14.20156,24.23315 -11.46258,58.2206 5.40941,67.124 5.65703,2.98523 9.08965,3.24775 15.87685,1.21425 z m -15.06139,16.9458 c -6.65075,-1.6901 -15.33884,-7.45267 -19.96752,-13.24391 -16.69873,-20.89283 -15.89115,-56.24637 1.91319,-83.75362 20.76656,-32.08384 58.63145,-33.59783 74.00891,-2.95919 9.40897,18.74679 8.31621,46.17069 -2.71052,68.02372 -5.14739,10.20121 -19.8849,25.24438 -28.41455,29.00388 -6.93445,3.05641 -18.8139,4.45781 -24.82951,2.92912 z m -91.88736,-18.64279 c 8.0158,-4.69757 8.18639,-6.77854 0.55564,-6.77854 -10.45717,0 -20.18944,-8.01782 -26.70066,-21.99698 -2.81678,-6.04745 -3.30972,-8.89876 -3.32942,-19.25841 -0.0191,-10.03753 0.45782,-13.05367 2.7323,-17.28 4.36063,-8.10269 8.42892,-11.16204 15.78278,-11.86866 5.4536,-0.52402 6.22237,-0.90934 4.9274,-2.46967 -1.88156,-2.26712 -9.41235,-6.117 -14.23357,-7.27647 -8.17572,-1.96617 -18.09255,4.11382 -23.17893,14.21095 -1.14042,2.26387 -2.72691,8.31909 -3.52553,13.45602 -4.37425,28.13622 15.97069,62.26308 37.19996,62.39972 2.40215,0.0155 6.79867,-1.39662 9.77003,-3.13796 z m -18.12774,18.66078 c -22.99114,-5.88823 -41.63597,-31.05585 -45.20882,-61.02487 -2.48299,-20.82725 2.78674,-39.42478 14.36283,-50.68818 7.38657,-7.18704 14.91437,-10.2244 25.55078,-10.30939 7.18406,-0.0574 10.01088,0.60854 16.82704,3.96412 15.61121,7.68538 29.32829,26.22355 34.69093,46.88361 2.4271,9.35063 2.71873,28.41445 0.56787,37.12 -3.54455,14.34634 -12.78459,26.70749 -23.51071,31.45217 -6.32944,2.79982 -17.59302,4.05901 -23.27992,2.60254 z M 217.6,323.74769 c 19.53597,-3.61225 55.28439,-3.01189 74.24,1.24677 l 12.16,2.73193 9.27709,-9.71701 c 34.00048,-35.61272 61.62928,-86.3883 70.67074,-129.87703 7.03986,-33.86118 5.45039,-74.60656 -4.01849,-103.01235 -5.38287,-16.148136 -19.91138,-41.6 -23.74625,-41.6 -0.98527,0 -2.86865,0.576527 -4.18528,1.281171 -1.31663,0.704644 -9.13441,3.01914 -17.37281,5.143326 C 282.62295,63.35266 198.99158,61.801574 154.32786,46.60058 l -9.04786,-3.079377 -3.45775,4.159399 c -7.90641,9.510744 -17.96354,30.967759 -22.28706,47.549703 -5.72482,21.956275 -7.24382,54.002915 -3.74206,78.946885 6.88939,49.07506 29.99269,95.74477 70.17621,141.75916 9.0861,10.40454 10.84004,11.84631 13.66723,11.23472 1.78388,-0.38589 9.86743,-1.92642 17.96343,-3.42338 z m -40.53574,55.16001 c 21.36599,-9.87112 44.20544,-14.29377 73.81574,-14.29377 35.97612,0 64.62618,7.0392 87.23809,21.43404 8.2296,5.23901 8.5433,5.32867 9.26252,2.64735 3.61319,-13.47028 -6.122,-26.7884 -26.95123,-36.87032 -20.10985,-9.73374 -41.63625,-14.0969 -69.54938,-14.0969 -56.83574,0 -101.69887,22.95598 -96.72087,49.49102 l 0.84404,4.49911 5.79225,-3.98516 c 3.18574,-2.19185 10.50671,-6.16327 16.26884,-8.82537 z m 95.96306,61.89632 c 9.89076,-2.22879 16.25268,-4.92476 16.25268,-6.88739 0,-0.66968 -1.30386,-2.07193 -2.89745,-3.11609 -12.31433,-8.06866 -52.77012,-8.61043 -68.68956,-0.91987 -8.40303,4.05944 -6.38017,6.34649 9.23245,10.4382 11.91372,3.12232 33.3956,3.34838 46.10188,0.48515 z M 230.4,458.08484 c -19.11583,-3.0843 -33.56494,-11.927 -35.18816,-21.53477 -3.1531,-18.663 26.63318,-31.06041 67.43923,-28.06899 36.56798,2.68071 55.67894,21.97763 37.56058,37.92605 -12.21683,10.75369 -43.3067,15.95423 -69.81165,11.67771 z m 48,11.51434 c 14.79154,-1.9188 27.8186,-5.71371 40.96,-11.93208 24.13827,-11.42198 33.45606,-26.12069 26.13949,-41.23472 -7.37006,-15.22451 -33.11855,-28.33651 -66.45949,-33.84341 -13.67574,-2.25883 -45.47698,-1.92119 -59.74874,0.63435 -22.97381,4.11376 -43.42278,12.47596 -54.19673,22.16266 -19.85244,17.84907 -13.3054,37.60041 17.30547,52.20772 26.77052,12.77472 58.99978,16.80522 96,12.00548 z"
     id="path2989"
     style="fill:#ffffff" />
</svg>
