<?xml version="1.0" encoding="UTF-8" standalone="no"?>
<!-- Created with Inkscape (http://www.inkscape.org/) -->

<svg
   xmlns:dc="http://purl.org/dc/elements/1.1/"
   xmlns:cc="http://creativecommons.org/ns#"
   xmlns:rdf="http://www.w3.org/1999/02/22-rdf-syntax-ns#"
   xmlns:svg="http://www.w3.org/2000/svg"
   xmlns="http://www.w3.org/2000/svg"
   xmlns:sodipodi="http://sodipodi.sourceforge.net/DTD/sodipodi-0.dtd"
   xmlns:inkscape="http://www.inkscape.org/namespaces/inkscape"
   id="svg2"
   version="1.1"
   inkscape:version="0.48.3.1 r9886"
   width="400"
   height="400"
   sodipodi:docname="Icon.1_91.png">
  <metadata
     id="metadata8">
    <rdf:RDF>
      <cc:Work
         rdf:about="">
        <dc:format>image/svg+xml</dc:format>
        <dc:type
           rdf:resource="http://purl.org/dc/dcmitype/StillImage" />
        <dc:title></dc:title>
      </cc:Work>
    </rdf:RDF>
  </metadata>
  <defs
     id="defs6" />
  <sodipodi:namedview
     pagecolor="#ffffff"
     bordercolor="#666666"
     borderopacity="1"
     objecttolerance="10"
     gridtolerance="10"
     guidetolerance="10"
     inkscape:pageopacity="0"
     inkscape:pageshadow="2"
     inkscape:window-width="1855"
     inkscape:window-height="1056"
     id="namedview4"
     showgrid="false"
     inkscape:zoom="0.59"
     inkscape:cx="200"
     inkscape:cy="200"
     inkscape:window-x="65"
     inkscape:window-y="24"
     inkscape:window-maximized="1"
     inkscape:current-layer="svg2" />
  <path
     style="fill:#000000"
     d="m 0,0 400,0 0,400 -400,0 z"
     id="rect3034" />
  <path
     id="path2989"
     style="fill:#ffffff"
     d="m 244.09869,174.85228 c 2.10691,-0.63124 5.27836,-2.35624 7.04767,-3.83333 l 3.21694,-2.68562 -4.54394,0 c -9.80275,0 -15.86647,-7.43377 -16.61531,-20.36942 -0.73767,-12.74289 4.01288,-24.09463 13.1371,-31.39188 3.38841,-2.70995 4.5962,-3.07203 10.24737,-3.07203 3.52342,0 6.4074,-0.25331 6.40885,-0.56291 0.007,-1.41167 -5.85386,-5.80963 -9.13883,-6.85819 -7.9728,-2.54493 -19.98716,4.45894 -26.38974,15.38412 -11.09497,18.93215 -8.95514,45.48485 4.2261,52.44063 4.41955,2.33221 7.10129,2.5373 12.40379,0.94863 z m -11.76671,13.23891 c -5.1959,-1.32039 -11.98347,-5.8224 -15.59963,-10.34681 -13.04588,-16.32252 -12.41496,-43.94247 1.49468,-65.43251 16.22388,-25.0655 45.80582,-26.24831 57.81946,-2.31187 7.35076,14.64593 6.49704,36.07085 -2.11759,53.14353 -4.0214,7.9697 -15.53508,19.72217 -22.19887,22.65928 -5.41754,2.38782 -14.69836,3.48267 -19.39805,2.28838 z m -71.787,-14.56468 c 6.26234,-3.66998 6.39561,-5.29574 0.43409,-5.29574 -8.16966,0 -15.773,-6.26392 -20.85989,-17.18514 -2.20061,-4.72457 -2.58572,-6.95215 -2.60111,-15.04563 -0.0149,-7.84182 0.35767,-10.19818 2.13461,-13.5 3.40674,-6.33023 6.58509,-8.72034 12.3303,-9.27239 4.26062,-0.40939 4.86122,-0.71042 3.84953,-1.92943 -1.46997,-1.77119 -7.3534,-4.77891 -11.11998,-5.68474 -6.38728,-1.53607 -14.1348,3.21392 -18.10854,11.1023 -0.89095,1.76865 -2.1304,6.49929 -2.75432,10.51252 -3.41738,21.98142 12.4771,48.64303 29.06247,48.74978 1.87668,0.0121 5.31146,-1.09111 7.63284,-2.45153 z m -14.1623,14.57873 c -17.96183,-4.60018 -32.5281,-24.26238 -35.31939,-47.67568 -1.93984,-16.27129 2.17714,-30.80061 11.22096,-39.60014 5.77076,-5.61487 11.65185,-7.98781 19.96155,-8.054211 5.61254,-0.04485 7.821,0.475422 13.14612,3.096968 12.19626,6.004203 22.91273,20.487153 27.10229,36.627823 1.89617,7.30518 2.12401,22.19879 0.44365,29 -2.76918,11.20808 -9.98796,20.86523 -18.36774,24.57201 -4.94488,2.18736 -13.74455,3.1711 -18.18744,2.03323 z M 170,252.92788 c 15.26248,-2.82207 43.19093,-2.35304 58,0.97404 l 9.5,2.13432 7.24773,-7.59141 C 271.3106,220.62239 292.8956,180.95397 299.95924,146.9784 305.45913,120.52435 304.21736,88.692024 296.8198,66.5 292.61443,53.884269 281.26403,34 278.26804,34 c -0.76974,0 -2.24113,0.450412 -3.26975,1.000915 -1.02862,0.550503 -7.13626,2.358703 -13.57251,4.018223 -40.6266,10.475128 -105.96361,9.263342 -140.85714,-2.612435 L 113.5,34.00094 l -2.70137,3.24953 c -6.17688,7.430269 -14.034012,24.193562 -17.411766,37.148206 -4.472511,17.153341 -5.65923,42.189774 -2.923483,61.677254 5.38234,38.33989 23.431789,74.8006 54.825169,110.74934 7.09851,8.12855 8.46878,9.25493 10.67752,8.77713 1.39366,-0.30148 7.70893,-1.50502 14.03393,-2.67452 z m -31.66855,43.09376 c 16.69218,-7.71181 34.5355,-11.16701 57.66855,-11.16701 28.10634,0 50.4892,5.49938 68.15476,16.74535 6.42937,4.09297 6.67445,4.16302 7.23634,2.06824 2.82281,-10.52366 -4.78281,-20.92844 -21.05565,-28.80494 -15.71082,-7.60448 -32.52832,-11.0132 -54.33545,-11.0132 -44.40292,0 -79.45224,17.93436 -75.56318,38.66486 l 0.65941,3.51493 4.52519,-3.11341 c 2.48886,-1.71238 8.20837,-4.81505 12.71003,-6.89482 z m 74.97114,48.3565 C 221.02975,342.6369 226,340.53067 226,338.99737 c 0,-0.52319 -1.01864,-1.6187 -2.26363,-2.43445 -9.62057,-6.30364 -41.22666,-6.7269 -53.66372,-0.71865 -6.56487,3.17144 -4.98451,4.9582 7.21285,8.15485 9.30759,2.43931 26.09031,2.61592 36.01709,0.37902 z M 180,357.87878 c -14.93424,-2.40961 -26.22261,-9.31797 -27.49075,-16.82404 -2.46336,-14.58047 20.80717,-24.26594 52.6869,-21.9289 28.56873,2.09431 43.49917,17.17003 29.3442,29.62973 -9.5444,8.40132 -33.83336,12.46424 -54.54035,9.12321 z m 37.5,8.99558 c 11.55589,-1.49906 21.73328,-4.46384 32,-9.32194 18.85802,-8.92342 26.13755,-20.40679 20.42148,-32.21462 C 264.16362,313.44365 244.04761,303.1999 218,298.89763 c -10.68417,-1.76471 -35.52889,-1.50093 -46.6787,0.49559 -17.94829,3.21387 -33.92405,9.74684 -42.3412,17.31458 -15.50972,13.94458 -10.39484,29.37532 13.5199,40.78728 20.91447,9.98025 46.09358,13.12908 75,9.37928 z" />
</svg>
