<?xml version="1.0" encoding="UTF-8" standalone="no"?>
<!-- Created with Inkscape (http://www.inkscape.org/) -->

<svg
   xmlns:dc="http://purl.org/dc/elements/1.1/"
   xmlns:cc="http://creativecommons.org/ns#"
   xmlns:rdf="http://www.w3.org/1999/02/22-rdf-syntax-ns#"
   xmlns:svg="http://www.w3.org/2000/svg"
   xmlns="http://www.w3.org/2000/svg"
   version="1.1"
   width="512"
   height="512"
   id="svg2">
  <metadata
     id="metadata8">
    <rdf:RDF>
      <cc:Work
         rdf:about="">
        <dc:format>image/svg+xml</dc:format>
        <dc:type
           rdf:resource="http://purl.org/dc/dcmitype/StillImage" />
        <dc:title></dc:title>
      </cc:Work>
    </rdf:RDF>
  </metadata>
  <defs
     id="defs6" />
  <path
     d="m 0,0 512,0 0,512 -512,0 z"
     id="rect3020"
     style="fill:#000000;fill-opacity:1;fill-rule:nonzero;stroke:none" />
  <path
     d="m 291.29678,174.57499 c -8.35916,-4.00602 -17.37288,-12.48159 -21.57365,-20.28562 l -2.77687,-5.15877 4.68742,-0.70292 c 6.82785,-1.0239 20.67409,0.16222 29.86632,2.55846 6.6724,1.73937 22.20717,6.79495 23.31723,7.58828 0.17448,0.12469 -0.82253,2.47593 -2.21557,5.22497 -3.00792,5.93584 -8.29944,10.56889 -14.47379,12.67271 -6.46445,2.20266 -8.8335,1.93563 -16.83109,-1.89711 z M 208.9638,463.65978 c 2.47627,-36.32461 10.18041,-67.96333 24.93319,-102.39355 3.24423,-7.57143 5.79931,-13.87401 5.67795,-14.00575 -0.57378,-0.62286 -36.05057,19.24955 -47.23059,26.45634 -2.11267,1.36185 -2.13865,1.31372 -1.30279,-2.41363 0.46907,-2.09175 4.47662,-19.94983 8.90565,-39.68461 C 204.37624,311.8838 208,295.1213 208,294.36858 c 0,-3.11477 -14.87663,-0.48754 -31.5,5.56294 -4.4,1.60148 -12.34527,4.49867 -17.65615,6.4382 l -9.65616,3.52642 10.26405,-21.19807 c 5.64523,-11.65894 16.40629,-33.46394 23.91347,-48.45555 l 13.64942,-27.25748 7.99098,4.01778 7.99098,4.01779 -14.05617,28.09849 c -7.73089,15.45417 -13.88722,28.26744 -13.68072,28.47393 0.20649,0.2065 3.72004,-0.33966 7.80787,-1.21367 5.69693,-1.21805 10.78452,-1.46213 21.78804,-1.04529 7.89559,0.2991 14.62393,0.81214 14.95188,1.14009 0.32795,0.32795 -2.41312,14.16188 -6.09127,30.74206 -3.67816,16.58018 -6.49075,30.34258 -6.25022,30.58311 0.24054,0.24054 3.43804,-1.21205 7.10558,-3.22798 15.42133,-8.47663 41.98869,-18.28397 64.92842,-23.96833 50.63192,-12.54634 86.12762,-17.91166 146.51432,-22.14623 l 8.51433,-0.59706 2.33981,-4.17987 c 1.2869,-2.29892 5.50119,-10.17951 9.36508,-17.51241 l 7.02525,-13.33255 -2.76503,-10.66745 c -1.52077,-5.8671 -3.05991,-11.47786 -3.42031,-12.46837 -0.51303,-1.40999 -3.23596,1.47824 -12.54372,13.30519 -7.67278,9.74945 -12.12369,14.64329 -12.55184,13.80092 -0.36487,-0.71785 -2.15191,-6.60761 -3.9712,-13.08834 -1.81929,-6.48073 -3.65307,-11.65573 -4.07507,-11.5 -0.42199,0.15573 -5.32855,6.24565 -10.90346,13.53315 -5.57491,7.2875 -10.45057,13.25 -10.8348,13.25 -0.38422,0 -2.21546,-5.4 -4.0694,-12 -1.85395,-6.6 -3.65277,-11.98053 -3.99739,-11.95673 -0.34461,0.0238 -5.55194,6.57655 -11.57183,14.56166 -6.01989,7.98512 -11.24081,14.70105 -11.60204,14.9243 -0.36123,0.22325 -2.11652,-5.09199 -3.90065,-11.81166 -1.78413,-6.71966 -3.57548,-12.81471 -3.98079,-13.54455 -0.49714,-0.8952 -4.4062,3.57883 -12.01368,13.75 C 344.85536,261.21536 339.70038,268 339.60207,268 c -0.0983,0 -0.006,-8.6625 0.20565,-19.25 l 0.38441,-19.25 8.34251,-16 c 4.58839,-8.8 9.64636,-18.37432 11.23995,-21.27627 l 2.89742,-5.27627 3.30079,12.77627 c 1.81543,7.02695 3.64888,13.16342 4.07432,13.63659 0.42544,0.47318 5.86367,-5.92953 12.08496,-14.22824 6.22128,-8.29872 11.59315,-14.76087 11.93749,-14.36033 0.34434,0.40054 2.14314,6.46575 3.99733,13.47825 1.85419,7.0125 3.61017,12.72625 3.90218,12.69722 0.292,-0.029 5.48092,-6.49962 11.53092,-14.37909 6.05,-7.87947 11.27478,-14.04322 11.61062,-13.69722 0.33585,0.346 1.87454,6.14159 3.41932,12.87909 1.54478,6.7375 3.07,12.22067 3.38938,12.18481 0.31937,-0.0359 5.75568,-6.72723 12.08068,-14.86974 6.325,-8.14251 11.77301,-14.52567 12.10669,-14.18481 0.33367,0.34085 2.1325,6.13224 3.99738,12.86974 1.86488,6.7375 3.6999,12.25 4.07781,12.25 0.80496,0 23.01169,-28.55614 24.49603,-31.5 1.51395,-3.00257 7.78703,-35.36839 7.00635,-36.14907 -0.37232,-0.37233 -12.9411,-0.63232 -27.93061,-0.57775 -29.43546,0.10714 -44.91489,1.22511 -94.23437,6.80588 l -30.98071,3.50564 -9.60646,-4.51861 c -27.55975,-12.96334 -61.20638,-19.0969 -91.22111,-16.62902 -7.81605,0.64266 -15.78285,1.50002 -17.70399,1.90526 l -3.493,0.7368 -5.0842,-11.03957 C 212.6335,110.4678 203.46081,90.529739 195.04605,72.232754 182.96728,45.968768 179.47258,39.19283 178.44536,40.045347 c -2.28849,1.899281 -14.22146,27.160565 -16.85515,35.681214 -5.62047,18.18363 -6.9443,27.339889 -6.9795,48.273439 -0.0434,25.80548 2.89826,41.10653 10.99194,57.17464 l 2.35467,4.67465 -7.55544,4.07535 c -4.1555,2.24145 -7.77509,4.07536 -8.04353,4.07536 -1.18916,0 -8.52058,-17.49114 -11.11788,-26.52478 l -2.85785,-9.93991 -4.44131,-0.76276 C 115.47733,153.60152 103.83384,152.68264 81,152.59453 c -23.589492,-0.091 -49.201732,1.7375 -47.322782,3.37848 0.45253,0.39522 5.066026,2.17401 10.252213,3.95287 19.44336,6.66905 37.371505,17.49102 54.916474,33.14924 l 10.345905,9.23333 -5.34591,2.19132 C 88.545041,210.77169 67.719071,223.41644 54.399135,234.522 41.473744,245.29861 16.0592,271.39253 17.289904,272.62324 c 0.242054,0.24205 6.463348,-0.88538 13.825097,-2.5054 C 38.476751,268.49781 48.775,266.59133 54,265.88122 c 10.721182,-1.45709 40.16768,-1.59432 47,-0.21904 l 4.5,0.90581 -6.5,4.39176 c -22.691878,15.33187 -42.519745,36.98166 -58.907505,64.32035 -5.095796,8.501 -20.17228,38.91301 -21.544607,43.45939 -0.65229,2.16097 -0.384504,2.11466 7.638061,-1.32079 C 37.322262,372.64987 54.376621,367.57853 66,365.57948 c 10.988627,-1.88989 38.62989,-3.85591 47.73237,-3.39504 l 6.23238,0.31556 -4.03173,6.36825 C 103.32826,388.7779 92.981073,416.11176 88.059843,442.5 c -2.03323,10.90243 -4.208652,30.62331 -3.464595,31.40765 0.212692,0.2242 9.953272,-9.18165 21.645732,-20.9019 27.15083,-27.21535 44.35792,-42.35224 62.23176,-54.74462 l 2.97273,-2.06107 1.7115,10.14997 c 3.54623,21.03082 13.18243,44.01263 26.91099,64.18122 3.95033,5.80343 7.30964,10.42053 7.46513,10.26022 0.15548,-0.16031 0.7993,-7.86957 1.43071,-17.13169 z"
     id="path2989"
     style="fill:#ffffff" />
</svg>
