<?xml version="1.0" encoding="UTF-8" standalone="no"?>
<!-- Created with Inkscape (http://www.inkscape.org/) -->

<svg
   xmlns:dc="http://purl.org/dc/elements/1.1/"
   xmlns:cc="http://creativecommons.org/ns#"
   xmlns:rdf="http://www.w3.org/1999/02/22-rdf-syntax-ns#"
   xmlns:svg="http://www.w3.org/2000/svg"
   xmlns="http://www.w3.org/2000/svg"
   version="1.1"
   width="512"
   height="512"
   id="svg2">
  <metadata
     id="metadata8">
    <rdf:RDF>
      <cc:Work
         rdf:about="">
        <dc:format>image/svg+xml</dc:format>
        <dc:type
           rdf:resource="http://purl.org/dc/dcmitype/StillImage" />
        <dc:title></dc:title>
      </cc:Work>
    </rdf:RDF>
  </metadata>
  <defs
     id="defs6" />
  <path
     d="m 0,0 512,0 0,512 -512,0 z"
     id="rect3026"
     style="fill:#000000;fill-opacity:1;fill-rule:nonzero;stroke:none" />
  <path
     d="m 485.47448,226.25 c -10.04825,-33.66628 -26.70994,-67.05265 -49.0752,-98.33593 -15.07192,-21.08177 -34.64172,-43.887799 -37.67424,-43.904371 -0.97623,-0.0053 -5.01279,1.62084 -8.97012,3.613721 -19.66848,9.90489 -37.80142,28.63261 -47.5028,49.06097 l -3.59335,7.56657 4.92061,4.41506 c 42.95118,38.53825 83.35915,63.16571 127.92062,77.96385 7.15,2.37439 13.53824,4.32902 14.1961,4.34361 0.89613,0.0199 0.84055,-1.16474 -0.22162,-4.72348 z M 359,357.45742 c 0,-0.29843 -1.85805,-6.26093 -4.129,-13.25 -9.66715,-29.75163 -25.16769,-59.59697 -46.79368,-90.09837 -11.40814,-16.0901 -34.28341,-43.10988 -36.49597,-43.10826 -2.03057,0.001 -13.52002,5.88304 -19.72887,10.09939 -8.30794,5.64181 -20.7275,17.63767 -26.94797,26.02863 C 219.56049,254.3375 212,268.08178 212,270.58804 c 0,2.80767 22.05575,21.96317 41.85249,36.34904 28.08904,20.41171 57.91463,36.1796 88.14751,46.60094 11.60301,3.99959 17,5.24388 17,3.9194 z m -214.7533,-100.7085 -6.22319,-6.27901 56.98489,-56.97831 56.98489,-56.97831 6.24781,6.24781 6.24781,6.24781 -57.00951,57.0095 -57.0095,57.00951 -6.2232,-6.279 z M 128,479.15961 c 4.91087,-1.94038 16.98023,-9.87987 16.96447,-11.15961 -0.003,-0.275 -4.85214,-3.49613 -10.77501,-7.15807 l -10.76885,-6.65806 -5.42823,1.40806 c -7.26762,1.8852 -20.346865,1.78802 -27.060879,-0.20105 C 79.420721,451.98073 70.024614,443.67855 65.818499,433.20163 63.864362,428.33412 63.53606,425.74447 63.574374,415.5 63.61324,405.10809 63.99553,402.36093 66.427121,395 72.125698,377.74922 80.916898,364.05025 95.982589,348.94492 109.75291,335.13837 124.59719,325.66308 141.5,319.89058 147.52334,317.83354 150.38355,317.5 162,317.5 c 13.36195,0 13.56941,0.0348 20.28711,3.40555 7.83702,3.93235 13.32312,9.83395 17.42512,18.74484 3.22741,7.011 4.25648,20.72135 2.35424,31.36563 l -1.18816,6.64853 6.69888,10.77329 6.69888,10.77328 28.86196,-28.84909 C 259.01212,354.49502 272,341.27605 272,340.98653 c 0,-0.28953 -3.2625,-2.51781 -7.25,-4.95175 -3.9875,-2.43393 -8.71251,-5.51588 -10.50003,-6.84877 -2.93374,-2.18759 -3.66361,-2.32075 -7.5,-1.36832 -20.83337,5.17211 -41.04837,-1.19065 -50.23635,-15.81212 -6.72482,-10.70168 -7.91591,-27.73003 -3.00813,-43.00557 5.69317,-17.72007 15.0589,-32.67667 29.43943,-47.01333 40.4392,-40.31579 91.0471,-44.15655 105.23685,-7.98667 2.57377,6.56058 3.10394,23.3227 0.99859,31.57205 l -1.29446,5.07204 6.56206,10.34964 c 3.60914,5.6923 6.69249,10.48005 6.85189,10.63945 0.1594,0.15941 13.44717,-12.87319 29.52837,-28.96133 l 29.23855,-29.25115 -10.78338,-6.8218 -10.78339,-6.8218 -6.1153,1.11145 c -19.25534,3.49964 -34.54817,-0.60306 -44.81565,-12.02298 -7.10889,-7.9068 -9.04832,-14.02295 -8.99468,-28.36557 0.0389,-10.39191 0.42116,-13.13907 2.85275,-20.5 5.72442,-17.329 14.57911,-31.12451 29.5866,-46.095579 14.97137,-14.935041 30.56393,-24.514102 48.08395,-29.539674 8.03168,-2.303868 10.40003,-2.556582 20.24892,-2.160656 9.6458,0.387761 11.95763,0.832367 17.10311,3.289233 7.61892,3.637885 14.0635,10.283537 17.94672,18.506676 2.74263,5.807797 3.10387,7.67142 3.39217,17.5 0.21621,7.37091 -0.15261,12.77202 -1.11789,16.3711 l -1.44055,5.3711 5.63492,8.79072 c 3.09921,4.8349 6.17072,9.61791 6.82558,10.6289 1.10221,1.70165 1.45479,1.54108 4.747,-2.16182 5.00681,-5.6314 10.3956,-16.85945 11.71251,-24.4041 2.28253,-13.07676 -2.385,-30.003685 -12.07412,-43.787086 -6.58251,-9.364049 -27.44897,-29.252875 -36.05465,-34.365413 -13.6144,-8.088166 -30.70052,-11.235472 -43.09411,-7.938044 -11.94211,3.177308 -13.8962,4.85549 -65.68852,56.413644 l -49.26124,49.038519 -6.23804,-6.23804 -6.23805,-6.23805 49.49929,-49.331247 C 342.22532,46.517995 365.85,23.361429 367.5,22.191146 l 3,-2.127786 L 193.75,20.03168 17,20 l 0.04656,179.25 0.04656,179.25 2.5844,-4.96998 c 4.813817,-9.25729 10.074647,-14.95858 57.231345,-62.02303 l 47.085125,-46.993 6.23161,6.23161 6.23161,6.23161 -48.525008,48.76139 c -51.055484,51.30421 -52.248482,52.69957 -55.399296,64.79636 -6.058673,23.26082 5.155215,47.24135 33.967091,72.63751 9.281921,8.18153 20.377926,14.59139 30.000983,17.33076 7.55583,2.15089 24.48211,1.42888 31.49902,-1.34362 z m 101.53137,-2.8724 C 215.75462,431.90327 185.44283,380.89732 151.30702,344.65834 l -6.44459,-6.84166 -8.40534,4.03316 C 116.65838,351.34992 98.326763,369.51136 88.13686,389.72148 86.411587,393.1433 85,396.75297 85,397.74298 c 0,2.88354 22.75468,22.62815 42.20907,36.62552 29.42481,21.17105 57.03871,35.68816 87.79093,46.15325 12.73729,4.33454 16.2047,5.32702 16.87946,4.83139 0.2087,-0.1533 -0.84794,-4.23297 -2.34809,-9.06593 z"
     id="path2989"
     style="fill:#ffffff" />
</svg>
