<?xml version="1.0" encoding="UTF-8" standalone="no"?>
<!-- Created with Inkscape (http://www.inkscape.org/) -->

<svg
   xmlns:dc="http://purl.org/dc/elements/1.1/"
   xmlns:cc="http://creativecommons.org/ns#"
   xmlns:rdf="http://www.w3.org/1999/02/22-rdf-syntax-ns#"
   xmlns:svg="http://www.w3.org/2000/svg"
   xmlns="http://www.w3.org/2000/svg"
   xmlns:sodipodi="http://sodipodi.sourceforge.net/DTD/sodipodi-0.dtd"
   xmlns:inkscape="http://www.inkscape.org/namespaces/inkscape"
   id="svg2"
   version="1.1"
   inkscape:version="0.48.3.1 r9886"
   width="400"
   height="400"
   sodipodi:docname="Icons8_82.png">
  <metadata
     id="metadata8">
    <rdf:RDF>
      <cc:Work
         rdf:about="">
        <dc:format>image/svg+xml</dc:format>
        <dc:type
           rdf:resource="http://purl.org/dc/dcmitype/StillImage" />
        <dc:title></dc:title>
      </cc:Work>
    </rdf:RDF>
  </metadata>
  <defs
     id="defs6" />
  <sodipodi:namedview
     pagecolor="#ffffff"
     bordercolor="#666666"
     borderopacity="1"
     objecttolerance="10"
     gridtolerance="10"
     guidetolerance="10"
     inkscape:pageopacity="0"
     inkscape:pageshadow="2"
     inkscape:window-width="1855"
     inkscape:window-height="1056"
     id="namedview4"
     showgrid="false"
     inkscape:zoom="0.59"
     inkscape:cx="200"
     inkscape:cy="200"
     inkscape:window-x="65"
     inkscape:window-y="24"
     inkscape:window-maximized="1"
     inkscape:current-layer="svg2" />
  <path
     style="fill:#000000"
     d="m 0,0 400,0 0,400 -400,0 z"
     id="rect3020" />
  <path
     id="path2989"
     style="fill:#ffffff"
     d="m 209.0066,327.43926 c 18.66978,-3.54159 34.10466,-12.33734 48.4972,-27.63671 7.01784,-7.46 14.72236,-17.62238 16.1184,-21.2604 0.37951,-0.98898 -2.60043,-0.0238 -8.77375,2.84186 -16.54349,7.67941 -31.51037,11.62699 -51.84845,13.67526 -26.41256,2.66004 -59.77506,-2.67348 -87.42871,-13.97685 -5.46079,-2.23209 -10.06803,-3.91902 -10.23831,-3.74873 -0.80662,0.80662 11.87584,17.79339 17.65667,23.64918 22.05765,22.34368 48.74136,31.63048 76.01695,26.45639 z m 26.63113,36.36306 C 290.79477,338.10025 326.25481,264.03056 320.99975,185.49627 317.5826,134.42859 300.1388,92.102887 270.05821,61.891544 254.91493,46.682429 232.46909,31.16721 245.70985,45.061243 c 17.73808,18.61324 30.68761,42.407227 39.20353,72.034147 5.16243,17.96011 10.2484,45.07616 8.73794,46.58663 -0.3697,0.3697 -1.90499,-0.48115 -3.41175,-1.89076 -9.04726,-8.46394 -28.11276,-12.20966 -41.83776,-8.21969 -15.29317,4.44584 -28.36677,17.44344 -32.32275,32.13483 l -1.12365,4.17292 -3.3871,-1.41522 c -1.8629,-0.77837 -6.50937,-1.93086 -10.32548,-2.56107 -5.75897,-0.95108 -8.29861,-0.87024 -14.94039,0.47556 -4.4011,0.89177 -8.24118,1.62141 -8.53351,1.62141 -0.29232,0 -1.02459,-1.95826 -1.62727,-4.35168 -1.39652,-5.54611 -8.06647,-15.56372 -13.46333,-20.2206 -8.77757,-7.57405 -19.25943,-11.40083 -31.27178,-11.4169 -12.9671,-0.0173 -23.84366,4.46977 -32.979578,13.60569 l -5.578807,5.5788 0.628727,-4.84765 c 2.018281,-15.5615 3.998311,-26.84387 6.531918,-37.21938 8.24485,-33.763922 22.70391,-63.294491 39.84529,-81.37828 2.99769,-3.1625 5.13215,-5.75 4.74325,-5.75 -0.3889,0 -3.4949,1.861959 -6.90222,4.137686 -9.24055,6.171702 -28.20461,25.799378 -35.54883,36.792813 C 62.158801,142.78704 57.400092,230.91804 90.567184,297.375 c 14.554236,29.16235 35.598556,51.99334 58.794906,63.78661 l 5.86209,2.98035 -9.36952,-8.95732 C 117.64087,328.21208 101.20825,289.15377 93.450144,230.6256 l -0.513565,-3.87441 4.490267,4.62015 c 18.505834,19.0411 48.246714,19.66026 66.803904,1.39075 6.6617,-6.55843 10.64699,-13.33481 12.79106,-21.74926 1.51235,-5.93525 2.00621,-6.68737 5.56886,-8.48094 4.85239,-2.44289 15.80152,-3.21519 21.06802,-1.48606 7.98742,2.62249 10.81445,5.23856 12.5996,11.65939 3.03539,10.91768 12.89122,22.81254 23.24171,28.05008 16.70638,8.45375 38.73219,6.27841 51.24606,-5.06122 1.23533,-1.11942 2.5293,-1.75205 2.87549,-1.40586 1.00727,1.00726 -2.52946,21.87849 -6.1297,36.17312 -10.35399,41.11018 -29.79956,74.51847 -53.55148,92.00364 -3.38821,2.49426 -5.93641,4.53502 -5.66265,4.53502 0.27375,0 3.58576,-1.43896 7.36001,-3.19768 z" />
</svg>
