<?xml version="1.0" encoding="UTF-8" standalone="no"?>
<!-- Created with Inkscape (http://www.inkscape.org/) -->

<svg
   xmlns:dc="http://purl.org/dc/elements/1.1/"
   xmlns:cc="http://creativecommons.org/ns#"
   xmlns:rdf="http://www.w3.org/1999/02/22-rdf-syntax-ns#"
   xmlns:svg="http://www.w3.org/2000/svg"
   xmlns="http://www.w3.org/2000/svg"
   xmlns:sodipodi="http://sodipodi.sourceforge.net/DTD/sodipodi-0.dtd"
   xmlns:inkscape="http://www.inkscape.org/namespaces/inkscape"
   id="svg2"
   version="1.1"
   inkscape:version="0.48.3.1 r9886"
   width="400"
   height="400"
   sodipodi:docname="Icons8_32.png">
  <metadata
     id="metadata8">
    <rdf:RDF>
      <cc:Work
         rdf:about="">
        <dc:format>image/svg+xml</dc:format>
        <dc:type
           rdf:resource="http://purl.org/dc/dcmitype/StillImage" />
        <dc:title></dc:title>
      </cc:Work>
    </rdf:RDF>
  </metadata>
  <defs
     id="defs6" />
  <sodipodi:namedview
     pagecolor="#ffffff"
     bordercolor="#666666"
     borderopacity="1"
     objecttolerance="10"
     gridtolerance="10"
     guidetolerance="10"
     inkscape:pageopacity="0"
     inkscape:pageshadow="2"
     inkscape:window-width="1855"
     inkscape:window-height="1056"
     id="namedview4"
     showgrid="false"
     inkscape:zoom="0.59"
     inkscape:cx="200"
     inkscape:cy="200"
     inkscape:window-x="65"
     inkscape:window-y="24"
     inkscape:window-maximized="1"
     inkscape:current-layer="svg2" />
  <path
     style="fill:#000000"
     d="m 0,0 400,0 0,400 -400,0 z"
     id="rect3024" />
  <path
     id="path2989"
     style="fill:#ffffff"
     d="m 238.36471,212.96654 c -5.98096,-1.83947 -12.77478,-7.33236 -17.15843,-13.87282 -2.36155,-3.52345 -3.93655,-6.74982 -3.5,-7.16971 1.94362,-1.86945 13.74875,-4.09777 24.29372,-4.58565 11.30671,-0.52311 20.83426,0.67896 28.31418,3.57236 l 2.81418,1.08858 -2.2079,3.92843 c -3.09919,5.51426 -10.38593,12.63509 -15.42635,15.07512 -5.02962,2.4348 -12.72807,3.31733 -17.1294,1.96369 z m -89.01874,-0.3996 c -7.38648,-2.31029 -13.40318,-7.71511 -19.81707,-17.80175 -1.72819,-2.71778 -1.72124,-2.74168 1.11604,-3.8382 13.1119,-5.06737 37.50058,-5.00435 51.00971,0.13181 l 2.47371,0.9405 -2.31418,4.25035 c -3.76004,6.90589 -11.71541,14.09167 -17.76333,16.04493 -6.17449,1.99414 -9.03084,2.04704 -14.70488,0.27236 z m 63.89109,82.3787 c 32.34644,-6.27514 61.08938,-43.10618 70.70636,-90.60272 1.13112,-5.5864 2.05658,-11.13308 2.05658,-12.32596 0,-4.93638 -18.19864,-24.74287 -32.94167,-35.85208 -15.37859,-11.58811 -36.79925,-23.50356 -51.64576,-28.72844 l -5.08743,-1.7904 -6.91257,3.81899 c -11.04497,6.10202 -34.26961,21.71266 -45.53537,30.607 -5.70746,4.50605 -14.7647,12.68768 -20.1272,18.18141 -11.16806,11.44137 -10.86643,10.41852 -7.69342,26.08948 8.73921,43.16141 32.97371,77.4569 62.26978,88.12121 11.61037,4.22638 22.08023,4.9706 34.9107,2.48151 z M 172,372.40885 c 0,-0.32514 -2.0432,-4.54717 -4.54044,-9.38229 C 159.28434,347.19783 149.67156,333.68484 118.35594,294 90.289204,258.43233 83,245.03667 83,229.02495 83,219.91304 84.793868,213.30031 90.195551,202.5 105.27068,172.35827 136.01717,145.30086 191.00916,113.78239 l 4.50916,-2.58441 10.49084,4.24069 c 47.84187,19.33902 82.11215,48.05751 100.16774,83.94054 2.73406,5.43356 5.83773,13.26805 6.89706,17.40996 6.11728,23.91835 -1.0517,37.62133 -45.1029,86.21083 -25.49449,28.12101 -43.62902,52.51186 -49.62847,66.75 l -1.36943,3.25 7.77404,0 7.77405,0 4.75476,-7.93416 c 8.83804,-14.74781 16.73667,-24.54196 53.1528,-65.90841 26.05398,-29.59571 34.85723,-43.53591 40.24476,-63.72881 2.35166,-8.81422 2.65098,-11.78061 2.66672,-26.42862 0.0201,-18.73136 -1.73654,-29.25465 -8.09615,-48.5 C 318.17242,139.0997 300.79042,107.91072 285.13267,88.526946 255.23728,51.517453 219.77677,27 196.14395,27 168.22085,27 127.73661,53.829619 99.463337,91.071947 75.51643,122.61547 62.835056,155.35851 61.342172,189.5 c -0.932767,21.33189 1.597092,36.29024 9.583632,56.66535 7.034915,17.94735 16.998308,33.20608 41.028726,62.83465 19.42258,23.94727 37.56528,49.63411 42.77906,60.56752 l 1.63683,3.43248 7.81479,0 C 168.48335,373 172,372.73398 172,372.40885 z" />
</svg>
