<?xml version="1.0" encoding="UTF-8" standalone="no"?>
<!-- Created with Inkscape (http://www.inkscape.org/) -->

<svg
   xmlns:dc="http://purl.org/dc/elements/1.1/"
   xmlns:cc="http://creativecommons.org/ns#"
   xmlns:rdf="http://www.w3.org/1999/02/22-rdf-syntax-ns#"
   xmlns:svg="http://www.w3.org/2000/svg"
   xmlns="http://www.w3.org/2000/svg"
   xmlns:sodipodi="http://sodipodi.sourceforge.net/DTD/sodipodi-0.dtd"
   xmlns:inkscape="http://www.inkscape.org/namespaces/inkscape"
   id="svg2"
   version="1.1"
   inkscape:version="0.48.3.1 r9886"
   width="400"
   height="400"
   sodipodi:docname="Icon.4_95.png">
  <metadata
     id="metadata8">
    <rdf:RDF>
      <cc:Work
         rdf:about="">
        <dc:format>image/svg+xml</dc:format>
        <dc:type
           rdf:resource="http://purl.org/dc/dcmitype/StillImage" />
        <dc:title></dc:title>
      </cc:Work>
    </rdf:RDF>
  </metadata>
  <defs
     id="defs6" />
  <sodipodi:namedview
     pagecolor="#ffffff"
     bordercolor="#666666"
     borderopacity="1"
     objecttolerance="10"
     gridtolerance="10"
     guidetolerance="10"
     inkscape:pageopacity="0"
     inkscape:pageshadow="2"
     inkscape:window-width="1855"
     inkscape:window-height="1056"
     id="namedview4"
     showgrid="false"
     inkscape:zoom="0.59"
     inkscape:cx="200"
     inkscape:cy="200"
     inkscape:window-x="65"
     inkscape:window-y="24"
     inkscape:window-maximized="1"
     inkscape:current-layer="svg2" />
  <path
     style="fill:#000000"
     d="m 0,0 400,0 0,400 -400,0 z"
     id="rect3028" />
  <path
     id="path2989"
     style="fill:#ffffff"
     d="M 308.22246,113.34317 C 301.91559,109.54097 265.41373,92.581086 251,86.755859 c -6.875,-2.778494 -18.34524,-6.95805 -25.48942,-9.287904 l -12.98942,-4.236098 14.87423,-0.743563 c 16.82278,-0.84097 32.98429,-0.142026 49.10461,2.123647 12.34738,1.735396 13.7845,2.612566 21.73978,13.269209 6.46781,8.664074 16.86569,28.1871 14.95519,28.07983 -0.38223,-0.0215 -2.61986,-1.19948 -4.97251,-2.61781 z M 85.344457,111.25 c 6.529981,-13.770536 14.028381,-25.329719 20.358153,-31.383177 3.56522,-3.409591 4.46991,-3.729693 14.79739,-5.235718 15.39876,-2.245555 33.6229,-3.027041 50.01617,-2.14479 L 184.5,73.238895 173,76.987906 c -22.91418,7.470045 -56.47861,21.873169 -79,33.900374 -5.225,2.79034 -9.816798,5.08197 -10.203995,5.09253 -0.387198,0.0105 0.309606,-2.11831 1.548452,-4.73081 z m 46.476313,157.24954 c -1.60455,-18.99785 7.8e-4,-56.87767 3.25195,-76.73365 l 1.10262,-6.73411 9.66233,-2.96001 c 23.38093,-7.16262 51.70966,-9.84428 75.1971,-7.1183 10.59725,1.22992 29.24427,5.57389 36.65493,8.53905 l 4.04845,1.61987 1.65075,13.1938 c 3.55337,28.40089 4.42803,52.24391 2.64796,72.18301 -0.49048,5.49406 -0.70582,10.17518 -0.47852,10.40247 0.2273,0.2273 2.87755,-4.71784 5.88945,-10.9892 11.43031,-23.80012 18.17511,-51.16705 20.03227,-81.28066 l 0.67088,-10.87818 -4.94867,-4.62182 C 272.30297,159.20659 244.86812,151.40292 207,150.3088 c -44.96792,-1.29926 -79.11749,6.59981 -96.95083,22.42552 l -4.34809,3.85859 0.14751,11.95355 c 0.30431,24.6585 5.02781,46.87137 14.87543,69.95354 3.52504,8.26245 11.24557,22.86374 11.79751,22.3118 0.172,-0.17199 -0.14335,-5.71251 -0.70076,-12.31226 z M 217.5,344.47013 c 12.50391,-3.41244 28.53431,-12.30068 38.14772,-21.15145 L 259.79544,319.5 258.29596,311 c -2.50741,-14.21355 -13.49615,-44.15159 -17.00086,-46.31762 -0.61033,-0.3772 -0.7951,4.11961 -0.50237,12.22624 0.4321,11.96621 -0.96906,32.3648 -2.65649,38.67435 -0.63338,2.36828 -1.66231,3.02501 -7.18772,4.58764 -11.19449,3.16588 -27.60864,5.13278 -36.94852,4.42752 -8.05534,-0.60826 -21.63381,-3.03815 -30.57066,-5.47065 l -4.07066,-1.10799 -1.39753,-9.75974 c -0.788,-5.50313 -1.37681,-17.28318 -1.35004,-27.00975 0.0261,-9.4875 -0.0966,-17.25 -0.2727,-17.25 -0.98428,0 -10.57003,20.89176 -13.23116,28.8368 -4.11669,12.29076 -6.54056,25.93617 -4.94796,27.85513 2.56233,3.08743 17.50495,13.61541 23.72596,16.7164 15.02423,7.48912 24.61993,9.72939 39.11475,9.13201 5.775,-0.23802 13.2,-1.16961 16.5,-2.07021 z M 187,359.06868 c -21.28636,-3.10746 -40.41354,-13.04389 -58.81197,-30.55239 -26.0593,-24.79879 -44.141093,-58.61855 -49.715396,-92.98647 -3.661218,-22.57295 -0.04221,-42.96543 10.33755,-58.2503 15.669536,-23.07441 45.556816,-36.22216 89.565166,-39.4007 35.54309,-2.56713 71.39645,1.76553 94.20212,11.38374 32.64025,13.76592 48.69934,38.88087 47.14944,73.73744 -1.59232,35.81047 -18.963,73.19702 -47.20178,101.59139 -18.4058,18.50722 -33.3388,27.56909 -54.10778,32.83454 -7.39418,1.8746 -23.9126,2.73832 -31.41735,1.64275 z m 26,13.46994 c 53.96203,-8.23399 102.98387,-63.28672 121.98924,-136.9969 4.37241,-16.95788 6.15863,-30.30432 6.73197,-50.30049 C 342.29408,165.26176 341.31209,154.0283 337.50416,137 328.05313,94.736921 303.00579,61.06388 266.87201,42.043862 256.82575,36.755733 241.15021,31.150821 229,28.502427 217.57614,26.012357 189.043,25.388789 176,27.344156 102.43636,38.372598 54.993657,97.84129 55.012595,179 c 0.01202,51.53292 18.392171,104.72888 49.409025,143 22.62209,27.91298 51.08247,46.10056 79.07838,50.53496 10.85735,1.71975 18.24748,1.72066 29.5,0.004 z" />
</svg>
