<?xml version="1.0" encoding="UTF-8" standalone="no"?>
<!-- Created with Inkscape (http://www.inkscape.org/) -->

<svg
   xmlns:dc="http://purl.org/dc/elements/1.1/"
   xmlns:cc="http://creativecommons.org/ns#"
   xmlns:rdf="http://www.w3.org/1999/02/22-rdf-syntax-ns#"
   xmlns:svg="http://www.w3.org/2000/svg"
   xmlns="http://www.w3.org/2000/svg"
   version="1.1"
   width="400"
   height="400"
   id="svg2">
  <metadata
     id="metadata8">
    <rdf:RDF>
      <cc:Work
         rdf:about="">
        <dc:format>image/svg+xml</dc:format>
        <dc:type
           rdf:resource="http://purl.org/dc/dcmitype/StillImage" />
        <dc:title></dc:title>
      </cc:Work>
    </rdf:RDF>
  </metadata>
  <defs
     id="defs6" />
  <path
     d="m 0,0 400,0 0,400 -400,0 z"
     id="rect3026"
     style="fill:#000000;fill-opacity:1;stroke:none" />
  <path
     d="M 70.181034,94.25 C 67.921072,85.518396 69.881895,80.029304 79.558104,68 89.668504,55.430918 91.379596,52.016999 90.502035,46.165003 89.916453,42.260065 88.840306,40.633409 82.937128,34.730231 76.298563,28.091666 74,27.111247 74,30.918227 c 0,2.539487 -6.866446,10.035432 -16.76944,18.306821 -4.652151,3.885668 -9.75718,9.112725 -11.344508,11.615682 -5.686504,8.966687 -3.064003,17.712865 8.234504,27.462496 4.977679,4.295305 15.612521,11.612006 16.964085,11.671178 C 71.406193,99.988482 70.99957,97.4125 70.181034,94.25 z M 237.77108,231.47534 c 5.97899,-1.77557 10.09444,-4.96608 14.31099,-11.09462 l 3.01975,-4.38907 -2.80091,-2.4785 c -8.18076,-7.23909 -19.96268,-9.11663 -29.66258,-4.72696 -5.0837,2.30062 -18.03616,14.52031 -17.40335,16.41876 0.73512,2.20535 17.76639,7.49681 24.83352,7.71555 1.41267,0.0437 4.87883,-0.6066 7.70258,-1.44516 z m -58.54228,-1.62536 c 3.44916,-1.13053 7.30681,-2.59645 8.57257,-3.2576 l 2.30136,-1.2021 -3.93806,-4.94514 c -7.77219,-9.75975 -18.75076,-15.24648 -28.25488,-14.12086 -5.12292,0.60673 -13.63135,4.60557 -16.4675,7.73949 -1.93258,2.13548 -1.08914,4.10761 4.31509,10.08944 8.07399,8.93694 18.28414,10.67469 33.47142,5.69677 z m 35.6196,69.08674 c 11.62724,-4.03166 21.69493,-13.05443 27.07579,-24.26564 1.61961,-3.37451 2.78713,-6.29309 2.59449,-6.48573 -0.19264,-0.19264 -5.00065,0.39188 -10.68447,1.29894 -22.82171,3.64202 -49.09827,3.64847 -68.47921,0.0168 -4.71978,-0.88441 -8.85902,-1.33041 -9.19831,-0.99113 -0.33928,0.33929 1.0822,3.9175 3.15886,7.95158 10.54447,20.48347 33.95363,29.95759 55.53285,22.47517 z M 67.776625,364.74242 C 69.028768,360.20909 72.154541,352.225 74.722787,347 c 3.945482,-8.02694 6.073418,-10.89553 13.723375,-18.5 13.560478,-13.47984 27.879108,-20.36182 54.208918,-26.0545 6.47876,-1.40075 11.89627,-2.66352 12.0389,-2.80615 0.14263,-0.14263 -2.89982,-4.50733 -6.76101,-9.69934 -20.43154,-27.47358 -27.93165,-60.63832 -21.41529,-94.69627 6.86178,-35.86327 30.15519,-64.70147 57.94242,-71.73509 7.54769,-1.91051 20.20426,-1.91188 28.30017,-0.003 29.69574,7.00148 54.00704,39.45845 59.33352,79.21364 1.70635,12.73574 0.58354,33.30145 -2.49948,45.78079 -4.14147,16.76371 -9.15567,27.25359 -20.53685,42.96377 -3.49145,4.81948 -4.66191,7.15833 -3.80117,7.5956 0.68404,0.34751 4.61871,1.18668 8.74371,1.86483 21.63508,3.55679 39.53231,9.99858 51.49425,18.53444 14.63695,10.44471 24.8579,27.21633 28.97263,47.54136 l 1.11346,5.5 18.70983,0.27207 18.70983,0.27206 0,-93.34691 0,-93.34692 -2.37503,-6.98288 c -4.99098,-14.67408 -12.00247,-25.44279 -18.88211,-29.00039 -2.99429,-1.54841 -3.02021,-1.53966 -2.3195,0.78353 0.38975,1.29219 1.45526,4.82444 2.36781,7.84944 2.6074,8.64329 2.26448,29.02254 -0.6815,40.5 -2.92101,11.38017 -8.42943,23.18373 -14.65095,31.39434 -7.01289,9.255 -18.86174,17.51904 -28.30151,19.73904 -2.61828,0.61576 -2.60436,0.56808 0.94965,-3.25423 8.12351,-8.73677 14.85797,-21.52562 19.47255,-36.97876 2.03124,-6.80213 2.6888,-11.25789 2.78921,-18.90039 0.0723,-5.5 -0.3293,-10.77462 -0.89235,-11.72137 -0.90113,-1.51522 -1.61968,-1.11392 -6,3.35086 -5.38128,5.48505 -9.00596,7.73608 -14.47627,8.9902 -11.49976,2.63642 -20.99299,-8.58644 -18.2649,-21.59269 1.66722,-7.94852 4.74825,-13.55806 12.45,-22.66737 16.64562,-19.68773 21.58621,-31.3917 20.57498,-48.740863 C 324.2028,89.557709 320.78416,79.321721 315.20192,70.5 l -3.16392,-5 -0.019,7.59345 c -0.0306,12.231957 -4.25792,22.048506 -13.16551,30.57261 -12.65235,12.10762 -29.52781,12.542 -39.39531,1.01405 -11.21605,-13.10343 -4.43222,-37.178347 13.05008,-46.313087 3.01784,-1.576863 5.48806,-3.164969 5.48936,-3.529125 0.003,-0.856925 -6.80677,-2.000607 -12.41728,-2.085424 -10.05466,-0.152001 -19.46575,5.182269 -23.665,13.413477 L 239.89966,70.11701 233.067,64.059401 C 218.54774,51.187105 215.63699,46.648597 215.55553,36.755176 c -0.0346,-4.201538 -0.4703,-6.746776 -1.15549,-6.75 -2.60006,-0.01224 -9.52723,6.312312 -11.77743,10.752863 -3.38749,6.684898 -4.10847,14.139586 -2.2324,23.082416 1.51216,7.208141 2.65703,9.689916 9.96469,21.600717 5.31276,8.659294 4.85507,14.847528 -1.33488,18.048478 -3.69128,1.90883 -11.05092,1.94211 -15.53097,0.0702 -5.95042,-2.48624 -12.8958,-9.915148 -16.42193,-17.565191 C 174.19829,79.770687 172,77.763983 172,81.369179 c 0,2.346351 -6.14398,7.567206 -9.68752,8.231977 C 153.79287,91.199446 148.18546,86.69901 141.62795,73 c -2.87458,-6.005148 -3.11209,-7.306616 -3.1197,-17.095104 l -0.008,-10.595105 -2.60769,1.927952 c -3.69056,2.728549 -9.47862,10.58036 -12.05406,16.351974 -1.46741,3.288507 -2.32275,7.552535 -2.58973,12.910283 -0.39709,7.968889 -0.3789,8.03829 4.67642,17.846057 C 130.34926,102.92962 131,104.95325 131,110.12818 c 0,7.38348 -1.66886,11.49588 -6.32371,15.58289 -8.42164,7.3943 -21.31471,6.9432 -36.42629,-1.27448 -3.4375,-1.86931 -6.25,-3.13923 -6.25,-2.82204 0,0.31719 0.843004,1.77118 1.873341,3.23108 15.021855,21.28473 16.516699,55.29265 3.524181,80.1759 -3.510016,6.72238 -11.144648,16.23758 -14.44608,18.00446 -1.781327,0.95333 -1.805651,0.81225 -0.498634,-2.89223 6.76355,-19.16995 2.529034,-48.11843 -8.772137,-59.96908 -3.260319,-3.41884 -8.492096,-6.68659 -9.34305,-5.83563 -0.262086,0.26208 0.06771,3.24275 0.732868,6.62371 2.635278,13.39486 -1.316368,27.26202 -10.113623,35.49082 -5.266487,4.92618 -7.940458,5.95879 -13.947129,5.38596 L 27,201.44715 27,287.22357 27,373 l 19.25,-0.008 19.25,-0.008 2.276625,-8.24243 z"
     id="path2989"
     style="fill:#ffffff" />
</svg>
