<?xml version="1.0" encoding="UTF-8" standalone="no"?>
<!-- Created with Inkscape (http://www.inkscape.org/) -->

<svg
   xmlns:dc="http://purl.org/dc/elements/1.1/"
   xmlns:cc="http://creativecommons.org/ns#"
   xmlns:rdf="http://www.w3.org/1999/02/22-rdf-syntax-ns#"
   xmlns:svg="http://www.w3.org/2000/svg"
   xmlns="http://www.w3.org/2000/svg"
   version="1.1"
   width="400"
   height="400"
   id="svg2">
  <metadata
     id="metadata8">
    <rdf:RDF>
      <cc:Work
         rdf:about="">
        <dc:format>image/svg+xml</dc:format>
        <dc:type
           rdf:resource="http://purl.org/dc/dcmitype/StillImage" />
        <dc:title></dc:title>
      </cc:Work>
    </rdf:RDF>
  </metadata>
  <defs
     id="defs6" />
  <path
     d="m 0,0 400,0 0,400 -400,0 z"
     id="rect3024"
     style="fill:#000000;fill-opacity:1;stroke:none" />
  <path
     d="M 257.77514,169.4412 C 254.26807,167.53798 253,165.08448 253,160.20211 c 0,-7.0414 6.96287,-11.49795 13.61905,-8.71681 7.14398,2.98494 8.54374,10.55191 2.98095,16.1147 -3.77153,3.77153 -7.26537,4.31554 -11.82486,1.8412 z m 60.62469,112.53527 6.36797,-13.02354 -3.6339,0.77354 c -24.98151,5.3177 -44.82471,-17.96645 -34.28951,-40.23556 5.10466,-10.79013 14.31115,-16.66738 26.1088,-16.66738 12.89267,0 23.96078,7.88302 27.6933,19.72396 l 1.69887,5.38943 6.14873,-10.21846 c 3.3818,-5.62015 8.7149,-14.18839 11.85134,-19.04053 3.13644,-4.85214 5.80431,-9.24479 5.92859,-9.76145 0.12429,-0.51666 -16.87402,-9.6319 -37.77402,-20.2561 -27.96318,-14.21465 -38.32797,-19.95639 -39.24171,-21.73855 -0.68294,-1.33201 -2.17091,-4.50809 -3.3066,-7.05795 -5.8948,-13.23512 -22.56452,-24.09107 -56.90609,-37.0594 -9.18748,-3.46944 -11.28995,-4.73608 -17.34914,-10.45201 -19.1621,-18.076559 -37.56781,-22.772759 -48.96987,-12.494623 -11.6504,10.501993 -11.75792,30.105313 -0.23543,42.921103 7.69718,8.56111 19.64269,13.44486 36.25884,14.8239 4.5375,0.37659 8.25,0.75659 8.25,0.84444 0,0.0879 -1.56984,4.82126 -3.48854,10.51867 -6.30809,18.73138 -8.01143,28.60845 -7.93872,46.03404 0.0584,14.00074 0.32155,16.27381 2.72038,23.5 1.46064,4.4 4.35472,10.87071 6.43129,14.37936 4.67752,7.90328 15.14107,17.74954 22.91198,21.56029 4.85183,2.37927 81.16904,30.18653 83.62954,30.47161 0.42127,0.0488 3.63152,-5.77185 7.1339,-12.93479 z M 146.27496,358.3701 c 20.17696,-10.13701 45.92694,-32.26531 56.47356,-48.53066 8.1125,-12.51136 13.33292,-28.67139 11.5555,-35.77054 -0.35374,-1.41289 -3.88084,-5.59386 -7.83798,-9.29103 -12.64224,-11.81168 -20.02577,-25.94863 -22.94105,-43.92433 -2.95559,-18.22425 -1.62178,-32.38273 5.62243,-59.68223 0.23967,-0.90319 -1.99265,-1.93546 -6.97082,-3.22347 -20.88053,-5.40243 -36.0482,-19.41447 -40.11606,-37.05962 -2.57762,-11.18094 -0.0257,-25.494874 6.03755,-33.864931 4.09039,-5.646626 7.31619,-8.487025 13.40191,-11.800749 4.54287,-2.47363 5.95997,-2.722346 15.5,-2.720419 9.09861,0.0018 11.338,0.354905 16.77879,2.645387 9.44334,3.975491 16.58335,8.624502 24.65099,16.050786 6.10594,5.620538 8.78871,7.284317 16.6735,10.340446 5.1682,2.00319 10.47719,3.89191 11.79776,4.19716 l 2.40103,0.555 -0.5427,-10.39545 C 247.93548,80.113765 243.43833,69.15063 232.84117,57.090096 228.60252,52.266116 212.52152,39 210.91261,39 c -0.57241,0 -0.77878,1.395681 -0.48056,3.25 1.05035,6.531069 2.73388,25.9174 2.2893,26.361979 -0.25158,0.251583 -6.2543,-3.198936 -13.33938,-7.667821 -33.99986,-21.445266 -66.26545,-32.927952 -92.55961,-32.940137 -8.751495,-0.0041 -22.285857,1.492038 -26.031076,2.877485 -1.765931,0.65326 0.835269,3.740364 20.208406,23.983341 12.22937,12.778464 22.06546,23.403336 21.85797,23.610826 -0.20749,0.207489 -9.59784,0.862917 -20.86746,1.456504 -31.023856,1.634075 -49.682082,5.317351 -64.198173,12.673211 l -4.751138,2.407584 6.632255,10.743518 c 3.64774,5.90893 8.81354,14.26665 11.479555,18.57272 C 53.818715,128.63527 56,132.46505 56,132.83983 c 0,0.37478 -3.7125,2.88986 -8.25,5.58907 -4.5375,2.69921 -11.072055,6.90325 -14.521232,9.34231 l -6.271233,4.43465 0.271233,19.13904 L 27.5,190.48394 43,199.27838 c 8.525,4.83693 16.049606,9.12622 16.721347,9.53174 0.796311,0.48073 -3.727771,4.97256 -13,12.90734 C 24.64126,240.61267 27,237.14689 27,250.69468 l 0,11.61375 20.25,-0.61749 c 22.971363,-0.70047 31.873369,-1.96233 49.995117,-7.08685 C 104.25493,252.62184 110.2258,251 110.51372,251 c 0.28792,0 -3.79727,5.7375 -9.0782,12.75 -7.984366,10.60236 -11.595746,16.74799 -21.439884,36.48507 -6.511004,13.05429 -12.773615,25.04876 -13.916913,26.65437 C 64.935426,328.49506 64,330.1292 64,330.52087 c 0,1.08512 12.07829,-0.37069 25.878673,-3.11919 14.485287,-2.88491 27.125407,-7.40545 43.195577,-15.44823 l 11.57424,-5.79266 -3.2774,25.1696 C 138.05741,356.77856 137.57286,362 138.52496,362 c 0.28873,0 3.77623,-1.63345 7.75,-3.6299 z"
     id="path2989"
     style="fill:#ffffff" />
</svg>
