<?xml version="1.0" encoding="UTF-8" standalone="no"?>
<!-- Created with Inkscape (http://www.inkscape.org/) -->

<svg
   xmlns:dc="http://purl.org/dc/elements/1.1/"
   xmlns:cc="http://creativecommons.org/ns#"
   xmlns:rdf="http://www.w3.org/1999/02/22-rdf-syntax-ns#"
   xmlns:svg="http://www.w3.org/2000/svg"
   xmlns="http://www.w3.org/2000/svg"
   xmlns:sodipodi="http://sodipodi.sourceforge.net/DTD/sodipodi-0.dtd"
   xmlns:inkscape="http://www.inkscape.org/namespaces/inkscape"
   version="1.1"
   width="400"
   height="400"
   id="svg2"
   inkscape:version="0.48.3.1 r9886"
   sodipodi:docname="S.svg">
  <sodipodi:namedview
     pagecolor="#ffffff"
     bordercolor="#666666"
     borderopacity="1"
     objecttolerance="10"
     gridtolerance="10"
     guidetolerance="10"
     inkscape:pageopacity="0"
     inkscape:pageshadow="2"
     inkscape:window-width="1855"
     inkscape:window-height="1056"
     id="namedview7"
     showgrid="false"
     inkscape:zoom="0.834386"
     inkscape:cx="465.16093"
     inkscape:cy="3.8984916"
     inkscape:window-x="65"
     inkscape:window-y="24"
     inkscape:window-maximized="1"
     inkscape:current-layer="svg2" />
  <metadata
     id="metadata8">
    <rdf:RDF>
      <cc:Work
         rdf:about="">
        <dc:format>image/svg+xml</dc:format>
        <dc:type
           rdf:resource="http://purl.org/dc/dcmitype/StillImage" />
        <dc:title />
      </cc:Work>
    </rdf:RDF>
  </metadata>
  <defs
     id="defs6" />
  <path
     d="m 0,0 400,0 0,400 -400,0 z"
     id="rect3024"
     style="fill:#000000;fill-opacity:1;stroke:none" />
  <path
     d="m 236.78838,233.44859 c -3.14139,-0.76164 -8.78727,-2.93366 -12.54639,-4.82672 -6.75359,-3.40106 -17.28046,-10.98678 -17.20098,-12.39512 0.0226,-0.39971 1.8083,-2.68106 3.96832,-5.06966 l 3.92731,-4.34291 4.28168,3.45071 c 15.35054,12.37137 33.79424,15.24505 51.28168,7.9901 5.46399,-2.26682 14.21992,-7.81648 18.75288,-11.88589 2.06409,-1.853 4.10629,-3.3691 4.53824,-3.3691 0.43194,0 2.50809,2.06095 4.61366,4.57988 l 3.82831,4.57988 -3.36655,2.94061 c -19.09869,16.68234 -41.56318,23.32209 -62.07816,18.34822 z M 128,233.1762 c -8.73902,-2.45144 -18.66465,-7.52493 -26.67492,-13.6349 -9.489282,-7.23811 -9.652554,-7.68441 -4.643641,-12.69333 l 4.163791,-4.16379 4.99161,4.17922 c 13.41553,11.23211 25.02175,15.57901 39.96813,14.96933 8.3909,-0.34228 10.63469,-0.83619 16.68055,-3.67177 3.84204,-1.80197 9.32385,-5.04177 12.18181,-7.19955 l 5.1963,-3.92324 4.15456,4.71984 4.15457,4.71984 -3.75273,3.1506 c -5.6589,4.75094 -13.66114,9.33693 -21.17848,12.13715 -9.18796,3.42253 -25.71159,4.08392 -35.24155,1.4106 z m 53,98.86151 c -11.08426,-0.92492 -21.44694,-2.44355 -32.12639,-4.70806 l -7.62638,-1.61713 1.20623,-5.18905 c 1.93663,-8.33111 5.52263,-14.63279 11.70138,-20.56283 26.57132,-25.50177 78.87568,-19.01953 93.97242,11.64629 1.66733,3.38683 3.27243,7.95413 3.5669,10.14955 l 0.5354,3.99169 -7.36478,1.62653 c -19.35936,4.27558 -45.57186,6.18945 -63.86478,4.66301 z m 35,37.96408 c 20.34322,-5.7002 40.36005,-20.6599 56.20049,-42.00179 45.5568,-61.37884 50.77396,-167.49601 11.71122,-238.206351 -14.44025,-26.13936 -34.59312,-46.42672 -55.56501,-55.935831 -19.09631,-8.658679 -40.9809,-9.670089 -60.09945,-2.777532 -26.32323,9.489959 -49.38899,32.262006 -65.71855,64.881704 -17.381606,34.72126 -25.444027,77.8156 -22.514253,120.34064 1.850395,26.8581 6.56294,48.53863 15.542322,71.50397 17.470671,44.68237 49.372881,76.55243 83.736201,83.65181 9.73426,2.01108 26.73958,1.33627 36.70703,-1.45662 z"
     id="path2989"
     style="fill:#ffffff" />
</svg>
