<?xml version="1.0" encoding="UTF-8" standalone="no"?>
<!-- Created with Inkscape (http://www.inkscape.org/) -->

<svg
   xmlns:dc="http://purl.org/dc/elements/1.1/"
   xmlns:cc="http://creativecommons.org/ns#"
   xmlns:rdf="http://www.w3.org/1999/02/22-rdf-syntax-ns#"
   xmlns:svg="http://www.w3.org/2000/svg"
   xmlns="http://www.w3.org/2000/svg"
   version="1.1"
   width="400"
   height="400"
   id="svg2">
  <metadata
     id="metadata8">
    <rdf:RDF>
      <cc:Work
         rdf:about="">
        <dc:format>image/svg+xml</dc:format>
        <dc:type
           rdf:resource="http://purl.org/dc/dcmitype/StillImage" />
        <dc:title></dc:title>
      </cc:Work>
    </rdf:RDF>
  </metadata>
  <defs
     id="defs6" />
  <path
     d="m 0,7.6293945e-6 400,0 L 400,400.00001 l -400,0 z"
     id="rect3022"
     style="fill:#000000;fill-opacity:1;stroke:none" />
  <path
     d="m 134.07719,227.00957 c -20.35314,-5.50316 -38.485554,-20.62405 -41.50147,-34.60869 -0.653673,-3.03105 -0.54104,-3.14506 5.127963,-5.19061 C 106.49591,184.03778 116.44853,182 123.15095,182 l 6.02684,0 -2.51459,2.98841 c -3.43645,4.084 -5.20795,12.29369 -3.77985,17.51703 1.62019,5.92588 4.53015,10.07802 9.25417,13.20454 3.63791,2.40769 5.20682,2.79002 11.44901,2.79002 6.4113,0 7.72668,-0.34167 11.57344,-3.00619 2.83041,-1.96053 5.32435,-4.91713 7.16987,-8.5 2.45758,-4.77111 2.75558,-6.25021 2.26533,-11.24381 -0.31048,-3.1625 -0.27715,-5.75 0.0741,-5.75 2.40732,0 25.33077,14.5293 25.33077,16.05509 0,1.98012 -8.62158,11.33719 -13.32108,14.45748 -11.92482,7.91764 -28.17945,10.39656 -42.60173,6.497 z m 124.61296,74.98294 c -0.35649,-2.47088 -1.96969,-13.34671 -3.58488,-24.16851 -1.61519,-10.82181 -3.68982,-27.92181 -4.61029,-38 -0.92047,-10.0782 -1.86615,-19.71914 -2.10151,-21.42431 l -0.42793,-3.1003 -10.23277,-0.60846 c -5.62802,-0.33465 -12.86028,-1.30671 -16.07168,-2.16014 -6.81002,-1.80976 -15.9416,-5.58361 -15.23074,-6.29448 0.27017,-0.27017 6.02137,-1.088 12.78043,-1.81741 6.75907,-0.7294 15.91104,-1.83066 20.33771,-2.44723 l 8.04848,-1.12104 0.17326,-18.67531 c 0.0953,-10.27143 0.83878,-24.93181 1.65219,-32.57863 C 251.13127,133.53183 254.04723,116 255.01035,116 c 2.82983,0 10.96045,53.56809 11.00413,72.5 0.009,3.85 0.34675,7.51551 0.75083,8.14557 0.85051,1.32618 8.81653,0.0162 25.28076,-4.15725 5.60562,-1.42095 10.40903,-2.36656 10.67424,-2.10134 0.26521,0.26521 -1.67429,2.78766 -4.31,5.60545 -5.59802,5.98473 -13.98758,10.88256 -24.16031,14.10479 -5.89158,1.86616 -7.25179,2.68115 -7.25956,4.34961 -0.0708,15.21282 -5.75222,85.42806 -7.36685,91.04568 -0.15689,0.54588 -0.57694,-1.02912 -0.93344,-3.5 z M 218.5,368.95536 c 11.10851,-2.80911 17.66945,-5.62143 27.39825,-11.74417 C 270.13,341.96114 288.48419,318.42692 302.44121,284.71035 317.1947,249.06968 322.02551,199.92758 314.8972,158 310.4254,131.69765 299.54835,102.60868 286.85293,83 266.76724,51.976696 241.74736,33.501707 212.26817,27.925694 204.36453,26.430715 185.48381,27.239423 177.64584,29.408653 133.55202,41.612014 98.005104,86.215867 84.607776,146.15172 c -6.743332,30.16777 -7.513535,66.47824 -2.043835,96.35467 7.879098,43.03696 27.112949,80.20243 53.531269,103.43814 24.88983,21.89137 54.32634,30.11127 82.40479,23.01083 z"
     id="path2989"
     style="fill:#ffffff" />
</svg>
