<?xml version="1.0" encoding="UTF-8" standalone="no"?>
<!-- Created with Inkscape (http://www.inkscape.org/) -->

<svg
   xmlns:dc="http://purl.org/dc/elements/1.1/"
   xmlns:cc="http://creativecommons.org/ns#"
   xmlns:rdf="http://www.w3.org/1999/02/22-rdf-syntax-ns#"
   xmlns:svg="http://www.w3.org/2000/svg"
   xmlns="http://www.w3.org/2000/svg"
   xmlns:sodipodi="http://sodipodi.sourceforge.net/DTD/sodipodi-0.dtd"
   xmlns:inkscape="http://www.inkscape.org/namespaces/inkscape"
   id="svg2"
   version="1.1"
   inkscape:version="0.48.3.1 r9886"
   width="400"
   height="400"
   sodipodi:docname="Icon.5_88.png">
  <metadata
     id="metadata8">
    <rdf:RDF>
      <cc:Work
         rdf:about="">
        <dc:format>image/svg+xml</dc:format>
        <dc:type
           rdf:resource="http://purl.org/dc/dcmitype/StillImage" />
        <dc:title></dc:title>
      </cc:Work>
    </rdf:RDF>
  </metadata>
  <defs
     id="defs6" />
  <sodipodi:namedview
     pagecolor="#ffffff"
     bordercolor="#666666"
     borderopacity="1"
     objecttolerance="10"
     gridtolerance="10"
     guidetolerance="10"
     inkscape:pageopacity="0"
     inkscape:pageshadow="2"
     inkscape:window-width="1855"
     inkscape:window-height="1056"
     id="namedview4"
     showgrid="false"
     inkscape:zoom="0.59"
     inkscape:cx="200"
     inkscape:cy="200"
     inkscape:window-x="65"
     inkscape:window-y="24"
     inkscape:window-maximized="1"
     inkscape:current-layer="svg2" />
  <path
     style="fill:#000000"
     d="m 0,0 400,0 0,400 -400,0 z"
     id="rect3050" />
  <path
     id="path2989"
     style="fill:#ffffff"
     d="m 291.34375,155.94308 c -8.80505,-1.70917 -16.52588,-7.45944 -20.51523,-15.27921 -2.58516,-5.06732 -3.50564,-15.17512 -1.90281,-20.89458 2.3801,-8.49302 10.58818,-16.79753 19.07429,-19.29835 2.41043,-0.710345 2.43824,-0.667502 0.77633,1.19581 -2.46607,2.76491 -4.77795,9.89908 -4.76656,14.70898 0.02,8.44016 6.59781,17.87747 14.87906,21.34724 6.77644,2.83926 18.27304,1.15548 23.32457,-3.4161 2.66275,-2.40975 2.35085,0.16814 -0.78065,6.45224 -5.57343,11.18442 -18.10774,17.50967 -30.089,15.18397 z m 19.20918,8.95123 c 10.6625,-3.98935 19.01692,-12.797 23.5134,-24.78903 3.2478,-8.66181 2.51351,-21.3243 -1.75975,-30.34603 -14.63698,-30.901669 -57.99358,-31.587549 -72.4615,-1.14631 -7.84692,16.51032 -4.81166,34.3208 8.04705,47.21911 11.28479,11.31953 27.44984,14.75341 42.6608,9.06226 z m -210.20918,-8.95123 c -25.430735,-4.93641 -31.234073,-38.40311 -9.113622,-52.55643 5.201172,-3.32787 5.826754,-3.00877 3.463953,1.76687 -3.117848,6.30173 -3.362623,13.42165 -0.676115,19.6666 6.261584,14.55544 23.434434,18.82662 36.963114,9.19336 l 2.86506,-2.04011 -1.01637,3.68098 c -3.80361,13.77554 -18.56058,22.99182 -32.48602,20.28873 z m 14.49284,10.53355 c 11.97724,-2.82356 22.13678,-11.11344 27.49028,-22.43124 5.07898,-10.73743 4.91702,-25.45115 -0.39676,-36.04539 -2.70052,-5.3841 -8.7832,-11.930862 -14.45774,-15.560823 C 103.01447,76.793645 70.626147,91.793623 65.932225,120.94022 62.606015,141.59409 76.605617,162.18376 97,166.63261 c 7.43747,1.62241 10.40282,1.59648 17.83659,-0.15598 z m 214.57238,7.49203 c 13.93609,-5.81116 26.82807,-17.90332 33.3514,-31.28228 5.23633,-10.73941 6.64975,-17.0049 6.69688,-29.68638 0.063,-16.939174 -4.11728,-29.213805 -14.24796,-41.836867 -20.21168,-25.184233 -53.9896,-32.334381 -82.50977,-17.465758 -10.70115,5.578904 -22.13574,17.330034 -27.55231,28.315021 -5.58163,11.319755 -7.49034,20.683784 -6.8259,33.487604 0.30195,5.81857 1.33423,12.50886 2.46874,16 l 1.9498,6 0.0523,-9.72637 c 0.0878,-16.35313 4.99427,-28.498343 15.83122,-39.188056 17.85761,-17.614985 45.60134,-20.299981 66.38048,-6.424201 23.06535,15.402446 30.54414,44.936547 17.7913,70.258667 -3.98967,7.92191 -14.46216,18.23728 -22.87005,22.52693 l -6.42505,3.27801 4.40897,-0.64973 c 2.42493,-0.35735 7.59993,-1.98031 11.5,-3.60659 z M 82.5,175.14698 C 72.591037,170.43783 63.128806,161.20713 58.259903,151.5 50.034776,135.10158 51.160542,113.34095 61.011047,98.321446 84.509303,62.492601 135.79736,65.674462 153.96417,104.08817 c 4.00997,8.47906 5.35068,15.67346 4.82127,25.87139 -0.42435,8.17415 -0.3819,8.3904 0.98977,5.04217 2.17723,-5.31459 4.18891,-15.85311 4.19987,-22.00173 C 164.027,83.889658 145.15008,57.557039 118,48.866431 110.04407,46.319778 94.73283,45.364351 86.5,46.90082 49.496553,53.806666 25.663596,90.049936 33.499352,127.5 c 4.573575,21.85886 22.670819,41.64514 44.472371,48.62304 8.990103,2.87741 11.498873,2.33665 4.528277,-0.97606 z m -35.816175,52.75398 c 0.651103,-1.32053 2.545985,-6.09637 4.210847,-10.61299 l 3.027023,-8.21203 -3.210847,-0.50351 C 43.850476,207.49661 30.544997,206 27.840996,206 L 25,206 l 0,15.37855 0,15.37856 10.25,-3.22759 c 8.05827,-2.53744 10.503134,-3.74098 11.433825,-5.62856 z M 375,228.95034 l 0,-23.04965 -6.25,0.70508 c -3.4375,0.38779 -12.1,1.42872 -19.25,2.31318 l -13,1.6081 0,11.48648 0,11.48647 18.5,9.16955 c 10.175,5.04325 18.8375,9.20575 19.25,9.25 0.4125,0.0443 0.75,-10.2919 0.75,-22.96921 z M 95,249.9951 c 6.875,-5.12293 12.70199,-9.48207 12.94888,-9.68697 0.82709,-0.68646 3.86586,-24.79999 3.20419,-25.42623 -1.14483,-1.08352 -43.238185,-4.2006 -44.102704,-3.26587 -0.449667,0.48618 -2.496947,5.50194 -4.549511,11.14613 l -3.731933,10.26216 6.34177,8.23784 c 3.487974,4.53081 8.334895,10.8224 10.770937,13.98132 2.82675,3.66556 4.825179,5.44004 5.523768,4.90475 C 82.007429,259.68694 88.125,255.11803 95,249.9951 z M 306.08448,257 c 5.73452,-6.325 12.15732,-13.46456 14.27288,-15.86569 l 3.84646,-4.36568 -0.35191,-11.80119 c -0.19355,-6.49065 -0.6406,-12.08978 -0.99343,-12.4425 -0.53806,-0.53789 -16.58676,0.50687 -47.42491,3.08731 l -6.06642,0.50762 -1.15397,14.66967 c -0.63468,8.06832 -0.82979,14.97724 -0.43357,15.35316 2.02536,1.92159 27.64057,22.75788 27.75032,22.57307 0.0705,-0.11868 4.82002,-5.39077 10.55455,-11.71577 z m -66.09652,5.01274 C 254.9658,246.16191 254.49437,247.17437 255.555,228.5803 l 0.68907,-12.0803 -27.37204,0.80095 c -15.05461,0.44052 -32.00198,0.6006 -37.6608,0.35574 l -10.28877,-0.4452 0.65415,14.14425 c 1.03777,22.43901 -1.27117,19.07622 22.44659,32.69165 11.26224,6.46521 20.98779,11.79941 21.61233,11.85377 0.62454,0.0544 7.08313,-6.19543 14.35243,-13.88842 z M 159.50921,267.25 170.19157,255.5 169.57944,244 c -0.33668,-6.325 -0.86981,-14.91059 -1.18474,-19.07909 l -0.5726,-7.57909 -21.16105,-1.0041 c -11.63858,-0.55226 -21.36075,-0.84196 -21.60484,-0.64379 -0.24408,0.19817 -1.19767,5.86061 -2.11908,12.58319 -1.26613,9.23767 -1.40197,12.72547 -0.55621,14.2807 2.67184,4.91312 24.80925,36.44218 25.58705,36.44218 0.47238,0 5.66593,-5.2875 11.54124,-11.75 z M 71,279.91527 71,269.83053 60.75,256.46755 c -5.6375,-7.34963 -10.904698,-13.3865 -11.704884,-13.41526 -0.800186,-0.0288 -6.537686,1.62058 -12.75,3.6652 L 25,250.43499 l 0.03592,5.5325 0.03592,5.53251 10.776462,7.29135 c 11.492146,7.77558 33.155137,21.1067 34.401694,21.17035 0.4125,0.0211 0.75,-4.49983 0.75,-10.04643 z m 256.5,15.30636 c 14.89425,-8.09281 39.50153,-23.61665 44.87995,-28.31315 1.04264,-0.91044 -36.96078,-20.15626 -38.92558,-19.71282 -0.74166,0.16739 -7.67231,7.26167 -15.40143,15.76507 -15.80915,17.39288 -14.78223,14.83327 -12.90478,32.16545 l 1.15105,10.62619 5.6004,-2.54862 C 314.97982,301.80201 322,298.21006 327.5,295.22163 z M 141.32724,309.75 c -0.26642,-7.8375 -0.88245,-15.50705 -1.36895,-17.04345 -1.51119,-4.77243 -26.10638,-39.8637 -27.55148,-39.30916 -0.71942,0.27607 -7.40527,5.0798 -14.857427,10.67496 L 84,274.24537 l 0,11.69909 0,11.6991 15.75,7.65114 c 11.76728,5.71638 40.35373,18.46118 41.90582,18.68303 0.0857,0.0122 -0.0622,-6.39023 -0.32858,-14.22773 z m 104.84759,20.62499 c 12.27721,-4.26127 46.52034,-17.73683 47.46041,-18.6769 0.48991,-0.4899 -2.56089,-28.76877 -3.21843,-29.83269 -0.25381,-0.41067 -6.85897,-6.00874 -14.67814,-12.44016 l -14.21667,-11.69347 -8.30588,8.88411 c -4.56823,4.88627 -10.85295,11.73912 -13.96603,15.22856 l -5.66016,6.34444 -0.73459,15.15556 c -0.40403,8.33556 -0.93697,18.86806 -1.18431,23.40556 -0.24734,4.5375 -0.0833,8.25 0.36446,8.25 0.44779,0 6.81049,-2.08125 14.13934,-4.62501 z m -36.01474,12.0717 7.6669,-2.55332 0.55282,-4.69668 C 218.68386,332.61351 219.18794,323.075 219.5,314 c 0.31206,-9.075 0.80973,-18.56691 1.10595,-21.09313 l 0.53858,-4.59313 -20.6863,-11.65687 c -11.37746,-6.41128 -20.97247,-11.62463 -21.32226,-11.58523 -0.34978,0.0394 -6.26097,6.34435 -13.13597,14.011 l -12.5,13.93936 0.36538,13.03949 c 0.20095,7.17171 0.65095,15.34756 1,18.16853 l 0.63462,5.12905 22.5,7.76749 c 12.375,4.27212 22.94847,7.79133 23.49659,7.82047 0.54813,0.0291 4.4467,-1.09602 8.6635,-2.50034 z" />
</svg>
