<?xml version="1.0" encoding="UTF-8" standalone="no"?>
<!-- Created with Inkscape (http://www.inkscape.org/) -->

<svg
   xmlns:dc="http://purl.org/dc/elements/1.1/"
   xmlns:cc="http://creativecommons.org/ns#"
   xmlns:rdf="http://www.w3.org/1999/02/22-rdf-syntax-ns#"
   xmlns:svg="http://www.w3.org/2000/svg"
   xmlns="http://www.w3.org/2000/svg"
   xmlns:sodipodi="http://sodipodi.sourceforge.net/DTD/sodipodi-0.dtd"
   xmlns:inkscape="http://www.inkscape.org/namespaces/inkscape"
   id="svg2"
   version="1.1"
   inkscape:version="0.48.3.1 r9886"
   width="400"
   height="400"
   sodipodi:docname="Icon.1_28.png">
  <metadata
     id="metadata8">
    <rdf:RDF>
      <cc:Work
         rdf:about="">
        <dc:format>image/svg+xml</dc:format>
        <dc:type
           rdf:resource="http://purl.org/dc/dcmitype/StillImage" />
        <dc:title></dc:title>
      </cc:Work>
    </rdf:RDF>
  </metadata>
  <defs
     id="defs6" />
  <sodipodi:namedview
     pagecolor="#ffffff"
     bordercolor="#666666"
     borderopacity="1"
     objecttolerance="10"
     gridtolerance="10"
     guidetolerance="10"
     inkscape:pageopacity="0"
     inkscape:pageshadow="2"
     inkscape:window-width="1855"
     inkscape:window-height="1056"
     id="namedview4"
     showgrid="false"
     inkscape:zoom="0.59"
     inkscape:cx="200"
     inkscape:cy="200"
     inkscape:window-x="65"
     inkscape:window-y="24"
     inkscape:window-maximized="1"
     inkscape:current-layer="svg2" />
  <path
     style="fill:#000000"
     d="m 0,0 400,0 0,400 -400,0 z"
     id="rect3042" />
  <path
     id="path2989"
     style="fill:#ffffff"
     d="m 289.5,84.036479 c 27.61962,-1.816438 43.50496,-9.187621 51.29422,-23.801767 3.72654,-6.991718 5.39536,-16.345118 4.54627,-25.480976 -0.71695,-7.714122 -0.11473,-7.43454 -11.13265,-5.168415 -19.60853,4.033013 -35.88533,14.047373 -47.61427,29.294868 C 281.70491,65.235384 272,81.746226 272,83.708036 c 0,1.517372 -0.44977,1.508931 17.5,0.328443 z M 123,85.466756 C 123,84.056864 117.2204,73.662804 112.45357,66.5 102.1343,50.993911 90.152771,40.903772 75.222208,35.145938 c -8.447558,-3.257723 -23.93668,-6.7648 -25.033375,-5.668104 -0.376538,0.376538 -0.664304,5.485564 -0.639479,11.35339 0.03716,8.783121 0.462024,11.724783 2.403826,16.643514 7.13868,18.08282 28.598664,27.944768 61.79682,28.398765 5.0875,0.06957 9.25,-0.113463 9.25,-0.406747 z M 364.60309,229.5 c 2.53737,-19.71872 2.6219,-61.06896 0.14467,-70.77132 C 361.4505,145.81456 357.67215,141 350.83471,141 c -2.88842,0 -5.46596,1.22279 -11.52749,5.46867 -4.29397,3.00777 -10.33807,7.2107 -13.43133,9.33984 l -5.62412,3.87117 5.39266,6.91016 c 13.16099,16.86451 23.65628,38.20788 31.12625,63.29877 2.60112,8.73694 5.02218,15.3737 5.38012,14.74837 0.35794,-0.62534 1.46147,-7.43698 2.45229,-15.13698 z M 48.467676,229 c 7.531185,-17.68981 19.317278,-39.1915 29.82991,-54.41953 5.54823,-8.03687 6.564577,-10.0781 5.355002,-10.75502 -0.821107,-0.45951 -5.184279,-3.64572 -9.695937,-7.08046 C 60.826911,146.74926 57.884274,145 54.199072,145 c -6.76202,0 -12.39878,9.07101 -15.845802,25.5 -2.976521,14.18651 -2.784841,62.07246 0.317844,79.40458 0.581104,3.24614 0.758841,2.99019 3.819372,-5.5 C 44.255935,239.50706 46.94567,232.575 48.467676,229 z m 45.667683,63.5 C 102.40749,259.37171 115.55865,224.98129 129.89047,199 l 6.89526,-12.5 -2.64286,-0.80616 c -9.83701,-3.0006 -19.48027,-6.29932 -24.50124,-8.38126 -3.22211,-1.33604 -6.06904,-2.2185 -6.32653,-1.96101 -1.82417,1.82416 -10.844461,44.01211 -14.033642,65.63538 -2.248863,15.24773 -2.595809,21.00551 -2.682215,44.51305 -0.09923,26.99529 0.698859,35.24369 2.61242,27 0.510674,-2.2 2.726337,-11.2 4.923696,-20 z m -16.534792,42.75 c -7.516983,-42.63789 -5.142083,-87.39929 7.464804,-140.69437 1.033576,-4.3694 1.710071,-8.11352 1.503321,-8.32027 -0.915174,-0.91517 -12.01429,17.64068 -19.298974,32.26464 -5.981679,12.00818 -14.62325,34.3064 -19.226059,49.60983 l -4.093425,13.60982 3.544487,11.89018 c 1.949468,6.53959 5.553869,15.99953 8.009781,21.02208 3.768566,7.70704 5.728849,10.32057 12.563372,16.75 4.453944,4.18995 8.569619,7.61809 9.145945,7.61809 0.661733,0 0.804247,-1.38186 0.386748,-3.75 z M 240.8919,324 c 2.55045,-20.40302 4.6722,-43.23101 6.08791,-65.5 1.26395,-19.88191 3.00813,-69.82394 2.45818,-70.3866 -0.20782,-0.21263 -4.94283,0.37391 -10.52223,1.30342 -5.57941,0.92951 -15.26794,2.192 -21.53007,2.80553 C 211.12356,192.83588 206,193.64139 206,194.01238 c 0,0.37098 0.92269,3.33247 2.05043,6.58107 9.55379,27.52103 20.52029,77.26566 27.42615,124.40655 1.76088,12.02011 2.57758,16.28002 3.03326,15.82151 0.17573,-0.17683 1.24766,-7.74651 2.38206,-16.82151 z m 65.45343,4.49879 c 8.87731,-42.19482 9.40564,-85.68435 1.62864,-134.06216 -1.1438,-7.11515 -2.46073,-14.51163 -2.92652,-16.43663 -0.46579,-1.925 -1.11324,-4.6883 -1.43878,-6.14067 l -0.59189,-2.64067 -8.75839,3.76545 c -4.81712,2.071 -12.72853,5.12944 -17.58093,6.79654 -4.8524,1.6671 -9.03915,3.24771 -9.3039,3.51245 -0.26474,0.26475 0.61635,3.18283 1.95799,6.48463 8.87786,21.84854 19.0673,61.1634 25.11477,96.90265 2.18474,12.91131 7.48937,51.80015 7.58409,55.59978 0.0821,3.29418 2.034,-2.93991 4.31492,-13.78137 z m 17.39529,12.03695 c 15.07516,-11.33221 22.2433,-23.31747 28.93518,-48.38016 2.42732,-9.09089 2.50702,-10.12345 1.36279,-17.65558 -2.75934,-18.16379 -9.67143,-44.31541 -15.62993,-59.13517 -5.86389,-14.58444 -17.76888,-36.33794 -19.13756,-34.96927 -0.23414,0.23415 0.69874,8.00343 2.07307,17.26508 3.98968,26.88649 4.97413,42.60751 4.38446,70.01676 -0.62365,28.98845 -3.45415,51.81876 -9.24551,74.5726 -0.96883,3.80646 0.31751,3.50262 7.2575,-1.71426 z M 164.54788,321 c 5.23937,-41.01955 14.57566,-87.49955 24.35509,-121.25 l 1.95586,-6.75 -5.89019,0 c -3.23961,0 -10.29535,-0.48023 -15.67942,-1.06718 -5.38407,-0.58695 -10.67274,-1.14945 -11.75259,-1.25 -2.26871,-0.21125 -2.44575,0.64362 -5.24295,25.31718 -2.54909,22.48496 -2.53359,81.4393 0.0259,98.5 2.00074,13.33627 5.18567,29.14514 6.95055,34.5 l 1.15354,3.5 0.75289,-5.5 c 0.4141,-3.025 1.93119,-14.725 3.37133,-26 z M 150,364.44977 c 0,-0.30263 -1.34149,-5.59013 -2.9811,-11.75 C 136.93335,314.80903 134.61535,271.56389 139.58443,214 l 0.56109,-6.5 -3.13039,5.5 c -6.76959,11.89398 -17.73894,38.85597 -23.80042,58.5 -6.71709,21.76873 -15.108587,58.01081 -16.797991,72.5489 l -0.644811,5.5489 8.061212,3.15539 C 117.82669,358.23067 150,366.38191 150,364.44977 z m 110.71032,0.47047 c 11.65611,-2.08687 28.23865,-6.44457 29.42273,-7.73196 0.64502,-0.70129 0.43749,-2.85045 -3.15652,-32.68828 -4.76715,-39.57731 -13.32731,-81.65798 -21.76623,-107 l -2.66401,-8 -0.68064,11 c -0.37434,6.05 -1.19052,20.45 -1.81372,32 -1.20673,22.36493 -3.10534,44.83474 -5.57672,66 -1.81258,15.52311 -6.45904,46.66482 -7.12282,47.73884 -0.68069,1.10138 0.48253,0.98656 13.35793,-1.3186 z m -32.26334,3.96612 C 229.51725,367.81609 218.0912,295.22046 212.88296,270 c -4.75893,-23.04472 -13.44523,-56.77106 -14.38061,-55.83568 -1.77681,1.77681 -13.7743,57.76766 -17.42828,81.33568 -4.51692,29.13401 -9.45603,71.45138 -8.4562,72.45121 1.45774,1.45773 54.41941,2.34485 55.82911,0.93515 z" />
</svg>
