<?xml version="1.0" encoding="UTF-8" standalone="no"?>
<!-- Created with Inkscape (http://www.inkscape.org/) -->

<svg
   xmlns:dc="http://purl.org/dc/elements/1.1/"
   xmlns:cc="http://creativecommons.org/ns#"
   xmlns:rdf="http://www.w3.org/1999/02/22-rdf-syntax-ns#"
   xmlns:svg="http://www.w3.org/2000/svg"
   xmlns="http://www.w3.org/2000/svg"
   version="1.1"
   width="512"
   height="512"
   id="svg2">
  <metadata
     id="metadata8">
    <rdf:RDF>
      <cc:Work
         rdf:about="">
        <dc:format>image/svg+xml</dc:format>
        <dc:type
           rdf:resource="http://purl.org/dc/dcmitype/StillImage" />
        <dc:title></dc:title>
      </cc:Work>
    </rdf:RDF>
  </metadata>
  <defs
     id="defs6" />
  <path
     d="m 0,0 512,0 0,512 -512,0 z"
     id="rect3042"
     style="fill:#000000" />
  <path
     d="m 370.56,107.56669 c 35.35311,-2.32504 55.68635,-11.760152 65.6566,-30.466259 4.76997,-8.949399 6.90606,-20.921751 5.81923,-32.615649 -0.9177,-9.874076 -0.14686,-9.516211 -14.24979,-6.615571 -25.09892,5.162257 -45.93323,17.980637 -60.94627,37.497431 -6.25749,8.13465 -18.67977,29.268528 -18.67977,31.779648 0,1.94223 -0.57571,1.93143 22.4,0.4204 z m -213.12,1.83076 C 157.44,107.59279 150.04211,94.288389 143.94057,85.12 130.7319,65.272206 115.39555,52.356828 96.284426,44.986801 85.471552,40.816915 65.645476,36.327857 64.241706,37.731628 c -0.481968,0.481968 -0.850309,7.021521 -0.818533,14.532339 0.04756,11.242395 0.591391,15.007722 3.076897,21.303698 9.137511,23.146009 36.60629,35.769305 79.09993,36.350415 6.512,0.0891 11.84,-0.14523 11.84,-0.52063 z M 466.69196,293.76 c 3.24783,-25.23996 3.35603,-78.16827 0.18517,-90.58729 -4.22049,-16.53007 -9.05678,-22.69271 -17.8087,-22.69271 -3.69718,0 -6.99643,1.56517 -14.75519,6.9999 -5.49628,3.84994 -13.23273,9.22969 -17.1921,11.95499 l -7.19887,4.9551 6.9026,8.84501 c 16.84607,21.58657 30.28004,48.90608 39.8416,81.02242 3.32943,11.18328 6.42839,19.67834 6.88655,18.87791 0.45817,-0.80043 1.87069,-9.51933 3.13894,-19.37533 z M 62.038625,293.12 c 9.639917,-22.64296 24.726116,-50.16512 38.182285,-69.657 7.10173,-10.28719 8.40266,-12.89997 6.8544,-13.76642 -1.05101,-0.58818 -6.63587,-4.66653 -12.410797,-9.06299 C 77.858446,187.83905 74.091871,185.6 69.374812,185.6 c -8.655385,0 -15.870438,11.61089 -20.282626,32.64 -3.809947,18.15873 -3.564597,79.45275 0.40684,101.63786 0.743813,4.15506 0.971316,3.82745 4.888796,-7.04 2.259775,-6.26882 5.702636,-15.14186 7.650803,-19.71786 z m 58.454635,81.28 c 10.58833,-42.40421 27.42181,-86.42395 45.76654,-119.68 l 8.82593,-16 -3.38286,-1.03188 c -12.59137,-3.84077 -24.93474,-8.06313 -31.36158,-10.72802 -4.1243,-1.71013 -7.76837,-2.83968 -8.09796,-2.51009 -2.33494,2.33492 -13.88091,56.3355 -17.96306,84.01329 -2.87855,19.51709 -3.32264,26.88705 -3.43324,56.9767 -0.12701,34.55397 0.89454,45.11192 3.3439,34.56 0.65366,-2.816 3.48971,-14.336 6.30233,-25.6 z m -21.164534,54.72 c -9.621738,-54.5765 -6.581866,-111.87109 9.554944,-180.08879 1.32298,-5.59284 2.1889,-10.38531 1.92426,-10.64995 -1.17143,-1.17142 -15.378295,22.58007 -24.702691,41.29874 -7.656549,15.37047 -18.71776,43.91219 -24.609355,63.50058 l -5.239584,17.42057 4.536943,15.21943 c 2.495319,8.37068 7.108952,20.4794 10.25252,26.90826 4.823764,9.86502 7.332926,13.21033 16.081116,21.44 5.701048,5.36314 10.969112,9.75116 11.706809,9.75116 0.847019,0 1.029436,-1.76878 0.495038,-4.8 z m 209.012904,-14.4 c 3.26458,-26.11587 5.98042,-55.33569 7.79253,-83.84 1.61785,-25.44884 3.8504,-89.37464 3.14647,-90.09485 -0.26601,-0.27216 -6.32683,0.47861 -13.46846,1.66838 -7.14164,1.18977 -19.54296,2.80576 -27.55849,3.59108 -8.01552,0.78532 -14.57368,1.81637 -14.57368,2.29124 0,0.47485 1.18104,4.26556 2.62455,8.42377 12.22885,35.22691 26.26597,98.90004 35.10547,159.24038 2.25393,15.38574 3.2993,20.83843 3.88258,20.25153 0.22493,-0.22634 1.597,-9.91553 3.04903,-21.53153 z m 83.78039,5.75845 c 11.36296,-54.00937 12.03922,-109.67597 2.08466,-171.59956 -1.46406,-9.1074 -3.14973,-18.57489 -3.74594,-21.03889 -0.59622,-2.464 -1.42495,-6.00102 -1.84164,-7.86006 l -0.75762,-3.38006 -11.21074,4.81978 c -6.16591,2.65088 -16.29252,6.56568 -22.50359,8.69957 -6.21107,2.13389 -11.57011,4.15707 -11.90899,4.49594 -0.33887,0.33888 0.78892,4.07402 2.50622,8.30032 11.36366,27.96614 24.40615,78.28916 32.14691,124.0354 2.79647,16.52647 9.58639,66.30419 9.70763,71.16771 0.10509,4.21656 2.60352,-3.76308 5.5231,-17.64015 z m 22.26597,15.4073 c 19.29621,-14.50523 28.47143,-29.84636 37.03703,-61.92661 3.10697,-11.63634 3.20899,-12.95801 1.74438,-22.59914 -3.53196,-23.24965 -12.37944,-56.72372 -20.00632,-75.69302 -7.50577,-18.66808 -22.74416,-46.51256 -24.49607,-44.76066 -0.2997,0.29971 0.89439,10.24439 2.65353,22.0993 5.10679,34.41471 6.36688,54.53761 5.61211,89.62145 -0.79828,37.10522 -4.42132,66.32801 -11.83426,95.45293 -1.2401,4.87227 0.40642,4.48335 9.2896,-2.19425 z M 210.62129,410.88 c 6.70639,-52.50502 18.65684,-111.99942 31.17451,-155.2 l 2.5035,-8.64 -7.53944,0 c -4.1467,0 -13.17805,-0.61469 -20.06966,-1.36599 -6.89161,-0.7513 -13.66111,-1.4713 -15.04331,-1.6 -2.90395,-0.2704 -3.13056,0.82383 -6.71098,32.40599 -3.26283,28.78075 -3.24299,104.2423 0.0332,126.08 2.56095,17.07043 6.63766,37.30578 8.89671,44.16 l 1.47653,4.48 0.9637,-7.04 c 0.53004,-3.872 2.47192,-18.848 4.3153,-33.28 z M 192,466.49571 c 0,-0.38737 -1.71711,-7.15537 -3.81581,-15.04 C 175.27469,402.95556 172.30765,347.60178 178.66807,273.92 l 0.7182,-8.32 -4.0069,7.04 c -8.66508,15.22429 -22.70585,49.73564 -30.46454,74.88 -8.59788,27.86397 -19.33899,74.25384 -21.50143,92.86259 l -0.82536,7.10259 10.31835,4.0389 C 150.81816,458.53526 192,468.96884 192,466.49571 z m 141.70921,0.6022 c 14.91982,-2.6712 36.14547,-8.24905 37.66109,-9.89691 0.82563,-0.89765 0.55999,-3.64858 -4.04034,-41.841 C 361.22801,364.70104 350.271,310.83779 339.46918,278.4 l -3.40993,-10.24 -0.87122,14.08 c -0.47915,7.744 -1.52386,26.176 -2.32156,40.96 -1.54461,28.62711 -3.97483,57.38847 -7.1382,84.48 -2.3201,19.86958 -8.26757,59.73097 -9.11721,61.10572 -0.87128,1.40976 0.61764,1.26279 17.09815,-1.68781 z m -41.29708,5.07663 C 293.78208,470.8046 279.15674,377.88219 272.49019,345.6 c -6.09143,-29.49724 -17.2099,-72.66696 -18.40718,-71.46967 -2.27432,2.27432 -17.63111,73.9426 -22.3082,104.10967 -5.78166,37.29153 -12.10372,91.45777 -10.82394,92.73755 1.86591,1.86589 69.65685,3.00141 71.46126,1.19699 z"
     id="path2989"
     style="fill:#ffffff" />
</svg>
