<?xml version="1.0" encoding="UTF-8" standalone="no"?>
<!-- Created with Inkscape (http://www.inkscape.org/) -->

<svg
   xmlns:dc="http://purl.org/dc/elements/1.1/"
   xmlns:cc="http://creativecommons.org/ns#"
   xmlns:rdf="http://www.w3.org/1999/02/22-rdf-syntax-ns#"
   xmlns:svg="http://www.w3.org/2000/svg"
   xmlns="http://www.w3.org/2000/svg"
   version="1.1"
   width="512"
   height="512"
   id="svg2">
  <metadata
     id="metadata8">
    <rdf:RDF>
      <cc:Work
         rdf:about="">
        <dc:format>image/svg+xml</dc:format>
        <dc:type
           rdf:resource="http://purl.org/dc/dcmitype/StillImage" />
        <dc:title></dc:title>
      </cc:Work>
    </rdf:RDF>
  </metadata>
  <defs
     id="defs6" />
  <path
     d="m 0,0 512,0 0,512 -512,0 z"
     id="rect3030"
     style="fill:#000000" />
  <path
     d="m 245.59404,194.30155 c 8.39402,-4.16666 11.66368,-10.82822 10.28853,-20.96171 -1.82214,-13.42747 -7.89852,-18.38159 -38.40431,-31.31144 C 189.35485,130.10834 180.22915,125.02446 173.46273,117.50765 157.21526,99.45835 165.675,81.691411 206.4,48.333573 221.71734,35.787148 222.41772,34.210971 211.15639,37.62945 194.09466,42.808699 157.35855,60.451214 137.15235,73.169901 90.792284,102.35099 79.43316,126.7243 101.19209,150.32995 c 15.42028,16.72902 57.32832,34.12615 110.00791,45.66716 13.78833,3.02073 26.11721,2.41295 34.39404,-1.69556 z m 75.40707,25.15055 c 5.64969,-2.36002 11.24282,-7.41987 14.07396,-12.7321 2.8886,-5.42006 2.55497,-21.26445 -0.95681,-45.44 -4.55185,-31.33532 -2.78991,-46.97143 6.31937,-56.08072 5.67013,-5.670119 11.26633,-7.061756 25.5124,-6.344301 10.8207,0.544947 15.15586,1.587801 36.26221,8.723081 13.18473,4.45727 24.41673,7.65601 24.96,7.1083 0.54327,-0.5477 -0.50778,-2.2402 -2.33567,-3.76109 C 402.46719,92.312781 381.20893,77.657015 358.52983,65.212369 324.73592,46.66873 300.63542,41.207905 285.94792,48.766362 262.80883,60.674144 260.23322,97.891395 277.93996,164.48 c 9.74807,36.65893 17.22255,50.18205 30.72584,55.59046 4.36817,1.74957 6.98011,1.61864 12.33531,-0.61836 z m -52.64478,72.20451 c 4.74922,-1.7769 9.43634,-4.84737 13.30462,-8.71566 18.80885,-18.80884 13.26448,-49.72953 -11.03963,-61.56754 -4.93975,-2.40604 -8.37566,-3.06923 -15.90132,-3.06923 -11.38424,0 -19.3172,3.25302 -27.2304,11.16622 -7.48988,7.48988 -10.47137,15.02077 -10.50312,26.5296 -0.022,7.96556 0.5861,10.84746 3.57154,16.92704 8.72418,17.76603 29.06775,25.73757 47.79831,18.72957 z M 465.75711,329.162 c 7.15851,-33.37904 8.53765,-88.43257 2.88229,-115.05803 -5.89971,-27.77583 -16.26527,-39.30076 -35.3594,-39.31429 -21.94294,-0.0155 -47.94945,16.88813 -88.34762,57.42404 -24.06257,24.14463 -30.24223,32.71148 -32.17056,44.59808 -2.88258,17.76871 17.93656,29.26331 36.03818,19.89731 3.52,-1.82129 14.752,-9.60633 24.96,-17.30007 10.208,-7.69375 22.36351,-16.11056 27.01225,-18.704 30.87657,-17.22553 48.12602,-2.15373 56.87515,49.69496 3.22358,19.10342 4.56038,24.96 5.69728,24.96 0.59575,0 1.68134,-2.78911 2.41243,-6.198 z m -370.554583,3.86069 c 18.406933,-7.14743 42.149393,-25.09103 70.581563,-53.34269 18.54906,-18.4313 26.19406,-28.36326 29.65838,-38.53047 2.31114,-6.78282 1.71183,-15.59299 -1.38187,-20.3146 -2.67951,-4.08942 -10.69223,-8.18345 -17.96835,-9.18076 -8.16932,-1.11972 -17.84928,3.88936 -40.70035,21.06116 -22.23143,16.70616 -32.43642,22.65174 -41.729965,24.31247 -10.91883,1.95117 -17.528681,-0.27571 -24.548001,-8.27027 -7.894195,-8.99099 -13.009453,-24.1719 -17.999283,-53.41777 -4.09859,-24.02222 -5.588324,-24.03439 -9.320225,-0.0762 -5.386075,34.57773 -6.045142,79.21904 -1.490215,100.93823 7.785502,37.12348 24.774326,48.51805 54.898316,36.82088 z M 219.37149,465.63543 c 8.46699,-2.51442 16.67024,-11.67343 19.94166,-22.26509 6.90531,-22.35677 3.94556,-52.28454 -10.28834,-104.03164 -8.06577,-29.32292 -15.71668,-42.45536 -27.3149,-46.88476 -4.49113,-1.71518 -6.45323,-1.83555 -10.80775,-0.66299 -6.08389,1.63822 -13.67623,8.57408 -16.32497,14.91342 -2.51296,6.01434 -2.21344,20.58428 0.91539,44.52926 4.85886,37.18492 1.72004,52.7513 -12.08037,59.91049 -4.32447,2.24337 -7.38844,2.74149 -16.21221,2.6356 -11.80914,-0.1417 -24.21245,-3.21735 -46.08,-11.42648 -16.884895,-6.33861 -19.200206,-6.95895 -19.198976,-5.14388 0.0024,3.55598 33.121696,28.41202 56.958976,42.74772 37.0204,22.26403 63.52068,30.71812 80.49149,25.67835 z m 92.0835,4.03127 c 17.93724,-7.21526 45.86255,-21.38968 60.75958,-30.84055 31.86168,-20.21349 46.38256,-36.97915 46.31732,-53.47747 -0.10445,-26.41541 -32.72834,-46.83852 -105.57189,-66.08986 -14.58691,-3.85508 -20.30077,-4.7584 -30.72,-4.85666 -10.99491,-0.10368 -13.57425,0.28981 -18.29021,2.7902 -3.01961,1.601 -6.61746,4.75967 -7.99522,7.01928 -3.22082,5.28235 -3.25013,15.1648 -0.0658,22.17696 3.90131,8.59096 10.95395,12.94956 41.17539,25.44687 21.11133,8.73005 32.69349,15.52959 39.36718,23.11129 9.1304,10.3727 9.24295,21.05448 0.36757,34.88556 -4.46903,6.96439 -21.70446,24.04832 -36.31893,35.99971 -5.456,4.46178 -9.92,8.68286 -9.92,9.38016 0,1.96034 6.57045,0.21655 20.89499,-5.54549 z"
     id="path2989"
     style="fill:#ffffff" />
</svg>
