<?xml version="1.0" encoding="UTF-8" standalone="no"?>
<!-- Created with Inkscape (http://www.inkscape.org/) -->

<svg
   xmlns:dc="http://purl.org/dc/elements/1.1/"
   xmlns:cc="http://creativecommons.org/ns#"
   xmlns:rdf="http://www.w3.org/1999/02/22-rdf-syntax-ns#"
   xmlns:svg="http://www.w3.org/2000/svg"
   xmlns="http://www.w3.org/2000/svg"
   xmlns:sodipodi="http://sodipodi.sourceforge.net/DTD/sodipodi-0.dtd"
   xmlns:inkscape="http://www.inkscape.org/namespaces/inkscape"
   id="svg2"
   version="1.1"
   inkscape:version="0.48.3.1 r9886"
   width="400"
   height="400"
   sodipodi:docname="Icon.3_16.png">
  <metadata
     id="metadata8">
    <rdf:RDF>
      <cc:Work
         rdf:about="">
        <dc:format>image/svg+xml</dc:format>
        <dc:type
           rdf:resource="http://purl.org/dc/dcmitype/StillImage" />
        <dc:title></dc:title>
      </cc:Work>
    </rdf:RDF>
  </metadata>
  <defs
     id="defs6" />
  <sodipodi:namedview
     pagecolor="#ffffff"
     bordercolor="#666666"
     borderopacity="1"
     objecttolerance="10"
     gridtolerance="10"
     guidetolerance="10"
     inkscape:pageopacity="0"
     inkscape:pageshadow="2"
     inkscape:window-width="1855"
     inkscape:window-height="1056"
     id="namedview4"
     showgrid="false"
     inkscape:zoom="0.59"
     inkscape:cx="200"
     inkscape:cy="200"
     inkscape:window-x="65"
     inkscape:window-y="24"
     inkscape:window-maximized="1"
     inkscape:current-layer="svg2" />
  <path
     style="fill:#000000"
     d="m 0,0 400,0 0,400 -400,0 z"
     id="rect3030" />
  <path
     id="path2989"
     style="fill:#ffffff"
     d="m 191.87034,151.79809 c 6.55783,-3.25521 9.11225,-8.45955 8.03792,-16.37634 -1.42355,-10.49021 -6.17072,-14.36062 -30.00337,-24.46206 C 147.93348,101.64714 140.80402,97.67536 135.51776,91.802853 122.82442,77.701836 129.43359,63.821415 161.25,37.760604 173.21667,27.958709 173.76384,26.727321 164.96593,29.398008 151.63645,33.444296 122.93637,47.227511 107.15027,57.163985 70.931472,79.961711 62.057156,99.003359 79.056318,117.44527 91.103412,130.51482 123.84407,144.10633 165,153.12274 c 10.77213,2.35995 20.40407,1.88512 26.87034,-1.32465 z m 58.91178,19.64886 c 4.41382,-1.84376 8.78345,-5.79677 10.99528,-9.94695 2.25672,-4.23442 1.99607,-16.61285 -0.74751,-35.5 -3.55613,-24.48072 -2.17962,-36.696428 4.93701,-43.813059 4.42979,-4.429784 8.80182,-5.517 19.93156,-4.956489 8.45367,0.42574 11.84052,1.240467 28.32985,6.814905 10.30057,3.482247 19.07557,5.98126 19.5,5.553364 0.42443,-0.427896 -0.3967,-1.750157 -1.82474,-2.938357 C 314.42749,72.11936 297.81948,60.669543 280.10143,50.947163 253.69994,36.459945 234.87142,32.193676 223.39681,38.09872 205.3194,47.401675 203.3072,76.477652 217.14059,128.5 c 7.61568,28.63979 13.45512,39.20473 24.00457,43.43005 3.41263,1.36685 5.45321,1.26456 9.63696,-0.4831 z m -41.12874,56.40978 c 3.71033,-1.38821 7.37214,-3.78701 10.39424,-6.80911 14.69441,-14.69441 10.36287,-38.8512 -8.62471,-48.09964 -3.85918,-1.87972 -6.54349,-2.39784 -12.42291,-2.39784 -8.89394,0 -15.09156,2.54142 -21.27375,8.72361 -5.85147,5.85147 -8.18076,11.73498 -8.20556,20.72625 -0.0172,6.22309 0.45789,8.47458 2.79026,13.22425 6.81577,13.87971 22.70918,20.10748 37.34243,14.63248 z m 154.21936,29.30108 c 5.59259,-26.07737 6.67004,-69.08794 2.25179,-89.88908 -4.60915,-21.69987 -12.70724,-30.70372 -27.62453,-30.71429 -17.14292,-0.0121 -37.46051,13.19385 -69.02158,44.86253 -18.79888,18.86299 -23.62674,25.55584 -25.13325,34.84225 -2.25201,13.8818 14.01294,22.86196 28.15483,15.54477 2.75,-1.42288 11.525,-7.50494 19.5,-13.51568 7.975,-6.01074 17.47149,-12.58637 21.10332,-14.6125 24.12232,-13.45744 37.59845,-1.6826 44.43371,38.82419 2.51842,14.92455 3.5628,19.5 4.451,19.5 0.46543,0 1.31355,-2.17899 1.88471,-4.84219 z M 74.376974,260.17398 C 88.757388,254.59005 107.30619,240.57161 129.51882,218.5 c 14.49145,-14.39945 20.46411,-22.1588 23.17061,-30.10193 1.80558,-5.29908 1.33737,-12.18202 -1.07959,-15.87078 -2.09336,-3.19486 -8.3533,-6.39332 -14.03777,-7.17247 -6.38228,-0.87478 -13.94475,3.03856 -31.79715,16.45403 -17.368301,13.05169 -25.340954,17.69667 -32.601533,18.99412 -8.530336,1.52435 -13.694282,-0.2154 -19.178126,-6.46115 -6.16734,-7.02421 -10.163635,-18.8843 -14.06194,-41.73263 -3.202023,-18.76736 -4.365878,-18.77687 -7.281426,-0.0595 -4.207871,27.01385 -4.722767,61.88987 -1.16423,78.85799 6.082423,29.00272 19.354942,37.90473 42.889309,28.76631 z m 97.007006,103.6037 c 6.61483,-1.96439 13.02362,-9.11987 15.57942,-17.3946 5.39477,-17.46623 3.08247,-40.8473 -8.03777,-81.27472 -6.30138,-22.90853 -12.27865,-33.16825 -21.33976,-36.62872 -3.5087,-1.33998 -5.04159,-1.43402 -8.44356,-0.51796 -4.75304,1.27986 -10.68455,6.6985 -12.75388,11.65111 -1.96325,4.6987 -1.72925,16.08147 0.71515,34.78848 3.79598,29.05072 1.34378,41.21196 -9.43779,46.80507 -3.37849,1.75264 -5.77222,2.14179 -12.66579,2.05907 -9.22589,-0.11071 -18.915975,-2.51356 -36,-8.92694 -13.191324,-4.95204 -15.000161,-5.43668 -14.9992,-4.01866 0.0019,2.77811 25.876324,22.19689 44.4992,33.39666 28.92219,17.39377 49.62553,23.99853 62.88398,20.06121 z m 71.94023,3.14943 c 14.01347,-5.63692 35.83012,-16.71069 47.46842,-24.09418 24.89194,-15.79179 36.23638,-28.88996 36.18541,-41.77927 -0.0816,-20.63704 -25.56902,-36.5926 -82.47804,-51.63271 -11.39602,-3.01178 -15.85998,-3.7175 -24,-3.79426 -8.58977,-0.081 -10.60488,0.22641 -14.28923,2.17984 -2.35907,1.25078 -5.16989,3.71849 -6.24626,5.48381 -2.51627,4.12684 -2.53917,11.8475 -0.0514,17.32575 3.0479,6.71169 8.55777,10.11685 32.16827,19.88037 16.49323,6.82035 25.54179,12.13249 30.75561,18.0557 7.13313,8.10367 7.22106,16.44881 0.28717,27.25434 -3.49143,5.44093 -16.95661,18.78775 -28.37417,28.12477 -4.2625,3.48577 -7.75,6.78349 -7.75,7.32825 0,1.53152 5.13317,0.16918 16.32421,-4.33241 z" />
</svg>
