<?xml version="1.0" encoding="UTF-8" standalone="no"?>
<!-- Created with Inkscape (http://www.inkscape.org/) -->

<svg
   xmlns:dc="http://purl.org/dc/elements/1.1/"
   xmlns:cc="http://creativecommons.org/ns#"
   xmlns:rdf="http://www.w3.org/1999/02/22-rdf-syntax-ns#"
   xmlns:svg="http://www.w3.org/2000/svg"
   xmlns="http://www.w3.org/2000/svg"
   xmlns:sodipodi="http://sodipodi.sourceforge.net/DTD/sodipodi-0.dtd"
   xmlns:inkscape="http://www.inkscape.org/namespaces/inkscape"
   id="svg2"
   version="1.1"
   inkscape:version="0.48.3.1 r9886"
   width="400"
   height="400"
   sodipodi:docname="Icon.4_34.png">
  <metadata
     id="metadata8">
    <rdf:RDF>
      <cc:Work
         rdf:about="">
        <dc:format>image/svg+xml</dc:format>
        <dc:type
           rdf:resource="http://purl.org/dc/dcmitype/StillImage" />
        <dc:title></dc:title>
      </cc:Work>
    </rdf:RDF>
  </metadata>
  <defs
     id="defs6" />
  <sodipodi:namedview
     pagecolor="#ffffff"
     bordercolor="#666666"
     borderopacity="1"
     objecttolerance="10"
     gridtolerance="10"
     guidetolerance="10"
     inkscape:pageopacity="0"
     inkscape:pageshadow="2"
     inkscape:window-width="1855"
     inkscape:window-height="1056"
     id="namedview4"
     showgrid="false"
     inkscape:zoom="0.59"
     inkscape:cx="200"
     inkscape:cy="200"
     inkscape:window-x="65"
     inkscape:window-y="24"
     inkscape:window-maximized="1"
     inkscape:current-layer="svg2" />
  <path
     style="fill:#000000"
     d="m 0,0 400,0 0,400 -400,0 z"
     id="rect3080" />
  <path
     id="path2989"
     style="fill:#ffffff"
     d="m 215.75,58.271532 c -3.58187,-0.374675 -3.75061,-0.557689 -3.76365,-4.081897 -0.008,-2.029299 -0.285,-4.702135 -0.61664,-5.939635 -0.58473,-2.181936 -0.38358,-2.25 6.64958,-2.25 l 7.25256,0 -0.63593,4.639571 c -0.34975,2.551764 -0.63592,5.476764 -0.63592,6.5 0,1.928298 -0.27558,1.96611 -8.25,1.131961 z m -30.07209,2.009152 c -0.26293,-0.429376 -0.79369,-3.3187 -1.17946,-6.420719 l -0.70142,-5.640034 6.16284,-0.715274 c 3.38957,-0.3934 6.29811,-0.555385 6.46343,-0.359965 0.16533,0.195419 0.55516,2.942405 0.8663,6.104413 0.5238,5.323175 0.40437,5.781947 -1.61195,6.192385 -6.16962,1.255878 -9.56985,1.54123 -9.99974,0.839194 z m 99.46155,1.571892 C 277.54678,59.667665 268,51.137235 268,46.537784 268,42.987452 272.38552,40 277.59735,40 c 6.42387,0 14.94406,3.594244 19.99687,8.435683 3.61657,3.465286 4.40578,4.868989 4.40578,7.836196 0,2.601724 -0.62284,4.050965 -2.22251,5.171417 -2.46984,1.729947 -9.37748,1.923085 -14.63803,0.40928 z M 158.68262,62.662108 C 157.75718,59.726267 157,56.883447 157,56.34473 c 0,-1.335534 11.03797,-4.728338 11.97725,-3.681517 1.07365,1.196563 3.21827,10.474597 2.57087,11.122005 C 171.14565,64.187688 161.12629,68 160.47101,68 c -0.0582,0 -0.86295,-2.402051 -1.78839,-5.337892 z m -24.6686,10.862391 C 132.35631,70.627125 131,68.047408 131,67.791793 c 0,-0.668363 10.99443,-6.13798 11.4112,-5.676958 0.19151,0.211841 1.51984,2.717923 2.95185,5.569072 l 2.60366,5.183907 -5.46934,2.962319 -5.46934,2.962318 -3.01401,-5.267952 z m -22.4361,15.295502 C 109.61007,86.521002 108,84.363471 108,84.025487 c 0,-0.797764 9.97487,-8.412292 10.36012,-7.908622 3.11664,4.074552 6.87744,9.978114 6.55821,10.2948 C 123.13336,88.182379 116.5684,93 115.94042,93 c -0.43152,0 -2.39464,-1.880999 -4.3625,-4.179999 z M 92.905631,108.4425 c -2.423097,-2.0127 -4.566974,-3.80948 -4.76417,-3.99285 -0.197197,-0.18337 1.572077,-2.62299 3.931719,-5.421387 l 4.290258,-5.087992 4.318282,4.238073 C 103.05677,100.50928 105,102.9064 105,103.50526 c 0,0.59886 -1.72997,2.77811 -3.84437,4.84277 l -3.844368,3.75393 -4.405631,-3.65946 z m 207.295649,12.68115 -4.07429,-4.83186 4.22436,-4.1459 C 302.67474,109.86565 304.85427,108 305.19473,108 c 0.34047,0 2.46495,2.20474 4.72106,4.89942 l 4.10203,4.89942 -4.87113,4.07834 -4.87112,4.07834 -4.07429,-4.83187 z M 76.75,130.30751 C 74.1375,128.85341 72,127.381 72,127.0355 c 0,-0.34549 1.474083,-2.96607 3.275741,-5.82349 l 3.275741,-5.19532 5.291979,3.56383 c 5.884076,3.96257 5.823592,2.74296 0.541529,10.91948 -0.888255,1.375 -1.900755,2.48905 -2.25,2.47567 -0.349244,-0.0134 -2.77249,-1.21405 -5.38499,-2.66816 z M 316.33292,144.664 c -0.89622,-1.7402 -2.24653,-4.1109 -3.00069,-5.26822 -1.39917,-2.14713 -0.59483,-2.98421 8.30495,-8.64294 0.76101,-0.48387 2.26536,1.18466 4.26896,4.73485 1.70162,3.01511 3.09386,5.68003 3.09386,5.92205 0,0.24202 -2.48346,1.78514 -5.51879,3.42915 l -5.5188,2.9891 -1.62949,-3.16399 z M 65.820716,155.16819 c -2.573607,-0.9175 -4.967412,-1.962 -5.319569,-2.32109 -0.505028,-0.51498 2.86245,-10.04822 4.144815,-11.73387 0.376685,-0.49514 11.314481,4.2199 11.336157,4.88677 0.0463,1.42451 -3.875292,10.45277 -4.617302,10.62992 -0.47565,0.11355 -2.970495,-0.54423 -5.544101,-1.46173 z M 326.54457,169.75 c -2.31209,-7.36038 -2.64151,-9.04176 -1.90251,-9.71057 1.18347,-1.07105 10.32454,-4.42006 10.73724,-3.9338 0.18409,0.2169 1.25177,3.15424 2.37264,6.52742 l 2.03792,6.13305 -5.56171,1.11695 c -6.95201,1.39616 -7.20459,1.39179 -7.68358,-0.13305 z M 56.75,181.27153 c -4.178994,-0.43713 -4.223623,-0.57963 -2.644415,-8.44308 l 1.105584,-5.50511 6.425054,1.53729 c 4.96175,1.18718 6.293452,1.88025 5.847216,3.04312 -0.317811,0.82821 -0.842764,3.43867 -1.166563,5.80104 -0.642634,4.68853 -0.248269,4.5415 -9.566876,3.56674 z m 273.86234,10.08715 c -0.36467,-3.10273 -0.52298,-5.78138 -0.3518,-5.95255 0.33857,-0.33857 12.14323,-2.29514 12.39083,-2.05372 0.0833,0.0812 0.47318,3.18509 0.8665,6.89759 l 0.71512,6.75 -6.47881,0 -6.47882,0 -0.66302,-5.64132 z M 51,202.01929 c 0,-7.03316 0.06806,-7.23431 2.25,-6.64958 1.2375,0.33164 4.139029,0.60913 6.447841,0.61664 l 4.197841,0.0137 -0.0287,6 c -0.02427,5.07485 -0.303092,6 -1.80827,6 -0.978766,0 -3.867381,0.28617 -6.419145,0.63592 L 51,209.27185 l 0,-7.25256 z m 285.31136,22.06794 c -2.85376,-0.34715 -5.3847,-0.84629 -5.62432,-1.10921 -0.23963,-0.26291 -0.21152,-3.06552 0.0625,-6.22802 l 0.49815,-5.75 6.37617,0 c 6.03404,0 6.37617,0.12665 6.37617,2.36043 0,4.06523 -1.24335,11.6461 -1.88592,11.49877 -0.33775,-0.0774 -2.94897,-0.42483 -5.80272,-0.77197 z m -283.186393,6.73194 c -0.604945,-3.43433 -0.768041,-6.54114 -0.362434,-6.90402 0.405607,-0.36288 3.229526,-0.93495 6.275375,-1.27127 l 5.537909,-0.6115 1.077083,5.73381 c 0.592396,3.1536 0.947876,5.88627 0.789956,6.07261 -0.15792,0.18634 -2.234666,0.76557 -4.614992,1.28716 -2.380325,0.5216 -5.064769,1.1709 -5.96543,1.4429 -1.323057,0.39956 -1.848812,-0.70472 -2.737467,-5.74969 z m 277.318693,19.73143 -6.05633,-2.0506 1.55633,-5.19013 c 0.85599,-2.85458 1.81883,-5.44207 2.13965,-5.74998 0.72699,-0.69774 11.91814,1.4894 11.91279,2.32816 -0.002,0.33657 -0.78965,3.33472 -1.75,6.66255 l -1.7461,6.05061 -6.05634,-2.05061 z m -269.419426,7.30349 c -1.283937,-3.23247 -2.111742,-6.09991 -1.839568,-6.37209 0.272174,-0.27217 2.929468,-1.32334 5.905098,-2.33592 L 70.5,247.30502 l 2.249073,5.51509 c 1.236989,3.03329 2.136989,5.62304 2,5.755 -0.13699,0.13196 -2.755873,1.34609 -5.819741,2.69807 l -5.570667,2.45814 -2.334431,-5.87723 z M 319.75,275.43427 c -2.6125,-1.35993 -4.75,-2.79278 -4.75,-3.18411 0,-0.39133 0.96799,-3.04696 2.15109,-5.9014 l 2.15109,-5.1899 5.54907,2.45406 c 3.05198,1.34973 5.70539,2.61039 5.89646,2.80146 0.47374,0.47374 -5.02689,11.59744 -5.70603,11.53906 -0.29792,-0.0256 -2.67918,-1.15924 -5.29168,-2.51917 z m -245.5,7.55938 C 72.4625,280.25992 71,277.67973 71,277.2599 71,276.49414 79.789227,271.5 81.136898,271.5 81.820761,271.5 88,279.51873 88,280.40617 c 0,0.46706 -9.547702,7.60464 -10.133977,7.57586 -0.201313,-0.01 -1.828523,-2.25465 -3.616023,-4.98838 z M 305,298.30239 c -2.475,-1.91284 -4.5,-3.77591 -4.5,-4.14014 0,-1.34224 5.79984,-9.16225 6.79534,-9.16225 0.56626,0 3.20254,1.39439 5.8584,3.09865 l 4.82883,3.09866 -3.19323,4.4465 c -4.65766,6.48567 -4.79076,6.52182 -9.78934,2.65858 z M 91.958208,304.4192 87.5,299.83839 91.878609,295.9192 C 94.286844,293.76364 96.558017,292 96.925661,292 c 0.367644,0 2.388959,1.76197 4.491809,3.91548 l 3.82337,3.91549 -3.83218,4.58451 C 99.300957,306.93697 97.315462,309 96.996446,309 c -0.319017,0 -2.586224,-2.06136 -5.038238,-4.5808 z M 286.66932,318.38152 C 284.6512,315.79116 283,313.38696 283,313.03884 c 0,-0.34812 1.80772,-2.39813 4.01715,-4.55559 l 4.01715,-3.92264 4.49516,4.49516 4.49516,4.49516 -4.84299,4.77017 -4.84298,4.77016 -3.66933,-4.70974 z m -171.75964,5.49752 c -2.42532,-1.72421 -4.8292,-3.51937 -5.34194,-3.98925 -0.75549,-0.69232 1.57574,-4.8323 6.05867,-10.75946 0.15378,-0.20332 2.53163,1.28348 5.28412,3.304 l 5.00454,3.67366 -3.13337,5.19601 c -1.72336,2.8578 -3.20739,5.31164 -3.29786,5.45299 -0.0905,0.14134 -2.14883,-1.15374 -4.57416,-2.87795 z M 265.3774,335.75 c -0.92068,-1.7875 -2.29704,-4.20609 -3.05856,-5.37465 -1.29868,-1.99281 -1.06865,-2.3274 3.70661,-5.39168 2.80016,-1.79686 5.42728,-2.86576 5.83805,-2.37534 2.47579,2.9559 6.13379,8.38141 6.11853,9.07495 -0.0168,0.76159 -9.37431,7.31672 -10.44473,7.31672 -0.26727,0 -1.23922,-1.4625 -2.1599,-3.25 z M 137.5,337.3315 c -2.75,-1.41645 -5.1608,-2.7188 -5.35734,-2.8941 -0.19653,-0.17531 1.06993,-2.81334 2.81437,-5.8623 l 3.1717,-5.54356 5.18564,2.60453 c 2.8521,1.43249 5.31953,2.72179 5.48318,2.86512 0.45081,0.3948 -5.13352,11.50574 -5.75587,11.45225 -0.29792,-0.0256 -2.79168,-1.20548 -5.54168,-2.62194 z m 25.5,10.82017 c -5.05631,-1.98183 -5.45284,-3.58413 -2.56992,-10.3846 l 1.5825,-3.73293 5.24371,2.06665 c 2.88404,1.13666 5.37772,2.20049 5.5415,2.36406 0.87641,0.87526 -2.62088,11.06064 -3.85978,11.24112 -0.79091,0.11522 -3.46301,-0.58422 -5.93801,-1.5543 z m 76.32258,-3.56521 -2.01426,-6.19537 5.794,-2.02978 5.79401,-2.02978 1.97024,4.58423 c 3.07997,7.16631 3.12856,7.03181 -3.44815,9.54349 l -6.08157,2.32259 -2.01427,-6.19538 z m -26.48512,5.02861 -0.33746,-6.48125 5.81136,-0.67222 c 3.19625,-0.36972 5.95241,-0.51233 6.1248,-0.31691 0.17239,0.19542 0.62228,2.90376 0.99975,6.01853 0.76979,6.352 0.99494,6.13566 -7.59845,7.30088 l -4.66254,0.63222 -0.33746,-6.48125 z m -22.18521,5.33623 c -2.66626,-0.44741 -5.06867,-1.03439 -5.33869,-1.3044 -0.27001,-0.27002 -0.0993,-2.88853 0.37937,-5.81892 l 0.8703,-5.32798 5.91122,0.27616 c 3.25116,0.15189 6.01655,0.3815 6.14529,0.51025 0.80794,0.80794 -1.0874,12.69349 -2.00863,12.59597 -0.61111,-0.0647 -3.2926,-0.48368 -5.95886,-0.93108 z M 233.5,364.56363 c 41.24555,-8.78233 75.91046,-32.23476 97.79831,-66.16513 24.89249,-38.58813 31.47504,-86.21183 18.21576,-131.78807 -6.44946,-22.16877 -20.06654,-46.69572 -35.37364,-63.71464 -4.23818,-4.712136 -5.97419,-5.86618 -10.90608,-7.249998 C 300.00829,94.740607 296.157,94 294.67592,94 c -2.38814,0 -2.55961,0.213387 -1.51521,1.885722 1.00538,1.609869 0.60547,2.543473 -2.73371,6.382078 l -3.91136,4.49637 -2.37536,-1.86846 c -3.21086,-2.52567 -4.14299,-1.64149 -4.12554,3.91331 0.0163,5.17378 0.31277,5.82825 7.40661,16.34835 8.9705,13.30315 16.28578,31.03661 20.27402,49.14763 2.27042,10.31019 2.5694,43.03806 0.47225,51.695 -5.68955,23.48626 -16.24576,41.34559 -32.73775,55.38677 -19.4559,16.56463 -41.84733,24.8165 -67.42987,24.84978 -27.9007,0.0363 -52.12851,-9.8008 -72.00677,-29.23655 -12.78562,-12.50099 -19.52632,-23.2706 -24.94649,-39.85697 -10.36552,-31.71973 -3.7582,-70.12849 16.84388,-97.91452 13.9621,-18.83068 36.91594,-32.69703 60.10938,-36.3119 8.18831,-1.27621 27.27006,-0.68737 32.93377,1.0163 1.88857,0.56809 3.56838,0.89828 3.7329,0.73376 0.16452,-0.16452 -0.16058,-1.84433 -0.72244,-3.7329 C 223.11063,98.131808 219,79.483622 219,78.503887 c 0,-0.151775 3.0375,-2.092322 6.75,-4.312326 3.7125,-2.220003 8.98308,-6.321288 11.71241,-9.113965 C 241.78539,60.654265 242.13861,60 240.20367,60 c -2.11112,0 -2.18962,-0.284819 -1.58472,-5.75 0.35003,-3.1625 0.91646,-6.039235 1.25873,-6.392744 0.34228,-0.353509 2.08482,-0.414935 3.87232,-0.136501 2.48929,0.38775 3.25277,1.006322 3.26185,2.642744 0.008,1.453646 1.77135,3.358009 5.51695,5.958325 l 5.5051,3.821824 -2.22387,3.178176 c -3.56314,5.092131 -13.95069,15.654084 -18.45862,18.768527 -4.12744,2.851574 -4.14383,2.887951 -3.21571,7.137915 5.46085,25.005904 21.24661,51.682474 36.99433,62.517194 4.05285,2.78842 15.86106,7.59678 16.66982,6.78802 0.17523,-0.17522 -1.97288,-3.72962 -4.77357,-7.89865 -17.82186,-26.52916 -20.74688,-50.740777 -7.57779,-62.724382 5.47271,-4.98006 9.05672,-6.227048 18.05151,-6.280679 13.68061,-0.08157 29.93387,7.166437 47.20646,21.051331 l 4.20646,3.38144 1.4922,-2.28127 c 3.83121,-5.857136 5.1049,-11.758027 4.72918,-21.90995 -0.11298,-3.052513 -0.62272,-3.830989 -3.21035,-4.902822 C 343.07976,74.961971 337.02242,69.379806 326.79821,57.5 314.16898,42.825737 307.34845,36.767323 298.70467,32.545598 c -12.84337,-6.272855 -27.8825,-6.773201 -43.46199,-1.445965 -4.6049,1.574594 -6.40433,1.665781 -14.5,0.734796 C 235.52825,31.234781 225.39837,31.038238 217.5,31.383467 162.02596,33.80818 115.4291,54.410246 78.954136,92.639337 53.28411,119.54386 39.270009,152.34201 36.498975,192 c -1.128472,16.15027 2.333549,41.59325 8.096153,59.5 3.713526,11.53944 15.406591,34.59113 22.672095,44.69575 26.143338,36.35927 64.746937,61.02837 107.732777,68.84517 13.55106,2.4642 45.92602,2.20007 58.5,-0.47729 z" />
</svg>
