<?xml version="1.0" encoding="UTF-8" standalone="no"?>
<!-- Created with Inkscape (http://www.inkscape.org/) -->

<svg
   xmlns:dc="http://purl.org/dc/elements/1.1/"
   xmlns:cc="http://creativecommons.org/ns#"
   xmlns:rdf="http://www.w3.org/1999/02/22-rdf-syntax-ns#"
   xmlns:svg="http://www.w3.org/2000/svg"
   xmlns="http://www.w3.org/2000/svg"
   version="1.1"
   width="512"
   height="512"
   id="svg2">
  <metadata
     id="metadata8">
    <rdf:RDF>
      <cc:Work
         rdf:about="">
        <dc:format>image/svg+xml</dc:format>
        <dc:type
           rdf:resource="http://purl.org/dc/dcmitype/StillImage" />
        <dc:title></dc:title>
      </cc:Work>
    </rdf:RDF>
  </metadata>
  <defs
     id="defs6" />
  <path
     d="m 0,0 512,0 0,512 -512,0 z"
     id="rect3080"
     style="fill:#000000" />
  <path
     d="m 276.16,74.587561 c -4.58479,-0.479584 -4.80078,-0.713842 -4.81747,-5.224828 -0.0102,-2.597503 -0.3648,-6.018733 -0.7893,-7.602733 -0.74846,-2.792878 -0.49098,-2.88 8.51146,-2.88 l 9.28328,0 -0.81399,5.938651 c -0.44768,3.266258 -0.81398,7.010258 -0.81398,8.32 0,2.468221 -0.35274,2.516621 -10.56,1.44891 z m -38.49228,2.571715 c -0.33655,-0.549602 -1.01592,-4.247936 -1.5097,-8.218521 l -0.89782,-7.219243 7.88843,-0.915551 c 4.33865,-0.503552 8.06158,-0.710893 8.27319,-0.460755 0.21163,0.250136 0.71061,3.766278 1.10887,7.813648 0.67046,6.813664 0.51759,7.400893 -2.0633,7.926253 -7.89711,1.607524 -12.24941,1.972775 -12.79967,1.074169 z m 127.31079,2.012021 C 355.25988,76.374611 343.04,65.455661 343.04,59.568364 343.04,55.023939 348.65347,51.2 355.32461,51.2 c 8.22255,0 19.12839,4.600632 25.59599,10.797674 4.62921,4.435566 5.6394,6.232306 5.6394,10.030331 0,3.330207 -0.79724,5.185235 -2.84481,6.619414 -3.1614,2.214332 -12.00318,2.461549 -18.73668,0.523878 z M 203.11375,80.207498 C 201.92919,76.449622 200.96,72.810812 200.96,72.121254 c 0,-1.709483 14.1286,-6.052272 15.33088,-4.712341 1.37427,1.5316 4.11939,13.407484 3.29071,14.236166 -0.51516,0.515162 -13.33994,5.394921 -14.1787,5.394921 -0.0745,0 -1.10457,-3.074625 -2.28914,-6.832502 z m -31.5758,13.903861 C 169.41608,90.40272 167.68,87.100682 167.68,86.773495 c 0,-0.855505 14.07287,-7.856614 14.60634,-7.266506 0.24513,0.271156 1.94539,3.478941 3.77836,7.128412 l 3.33269,6.635401 -7.00076,3.791768 -7.00075,3.79177 -3.85793,-6.742981 z M 142.81974,113.6896 c -2.51885,-2.94272 -4.57974,-5.70436 -4.57974,-6.13698 0,-1.02113 12.76783,-10.76773 13.26095,-10.123033 3.9893,5.215423 8.80313,12.771983 8.39451,13.177343 -2.28476,2.26652 -10.68791,8.43307 -11.49172,8.43307 -0.55235,0 -3.06514,-2.40768 -5.584,-5.3504 z m -23.90053,25.1168 c -3.10157,-2.57626 -5.84573,-4.87613 -6.09814,-5.11085 -0.25241,-0.23471 2.01226,-3.35743 5.0326,-6.93937 l 5.49153,-6.51263 5.5274,5.42473 c 3.04007,2.9836 5.5274,6.05191 5.5274,6.81845 0,0.76654 -2.21436,3.55598 -4.92079,6.19875 l -4.92079,4.80503 -5.63921,-4.68411 z m 265.33843,16.23187 -5.21509,-6.18478 5.40718,-5.30675 c 2.97394,-2.91871 5.76374,-5.30674 6.19952,-5.30674 0.43581,0 3.15514,2.82207 6.04296,6.27126 l 5.2506,6.27125 -6.23505,5.22028 -6.23503,5.22028 -5.21509,-6.1848 z M 98.24,166.79361 c -3.344,-1.86125 -6.08,-3.74593 -6.08,-4.18817 0,-0.44223 1.886826,-3.79657 4.192948,-7.45407 l 4.192952,-6.65001 6.77373,4.56171 c 7.53162,5.07208 7.4542,3.51098 0.69316,13.97693 -1.13697,1.76 -2.43297,3.18598 -2.88,3.16886 -0.44704,-0.0171 -3.54879,-1.55399 -6.89279,-3.41525 z m 306.66614,18.37631 c -1.14716,-2.22746 -2.87556,-5.26195 -3.84089,-6.74332 -1.79093,-2.74833 -0.76138,-3.81979 10.63034,-11.06297 0.97409,-0.61935 2.89966,1.51637 5.46427,6.06061 2.17807,3.85934 3.96014,7.27044 3.96014,7.58023 0,0.30978 -3.17883,2.28498 -7.06405,4.38931 l -7.06407,3.82605 -2.08574,-4.04991 z M 84.250516,198.61528 c -3.294216,-1.1744 -6.358287,-2.51136 -6.809048,-2.97099 -0.646436,-0.65918 3.663936,-12.86172 5.305363,-15.01936 0.482157,-0.63378 14.482536,5.40148 14.510281,6.25507 0.05926,1.82337 -4.960373,13.37955 -5.910146,13.6063 -0.608832,0.14534 -3.802234,-0.69662 -7.09645,-1.87102 z M 417.97705,217.28 c -2.95948,-9.42129 -3.38113,-11.57345 -2.43521,-12.42953 1.51484,-1.37094 13.21541,-5.65768 13.74366,-5.03526 0.23564,0.27763 1.60227,4.03742 3.03698,8.35509 l 2.60854,7.85031 -7.11899,1.42969 c -8.89857,1.78709 -9.22187,1.7815 -9.83498,-0.1703 z M 72.64,232.02756 c -5.349112,-0.55953 -5.406237,-0.74193 -3.384851,-10.80714 l 1.415147,-7.04654 8.224069,1.96773 c 6.35104,1.51959 8.055619,2.40672 7.484437,3.89519 -0.406798,1.06011 -1.078738,4.4015 -1.493201,7.42533 -0.822571,6.00132 -0.317784,5.81312 -12.245601,4.56543 z m 350.5438,12.91155 c -0.46678,-3.97149 -0.66942,-7.40017 -0.45031,-7.61926 0.43337,-0.43337 15.54334,-2.93778 15.86026,-2.62877 0.10663,0.10394 0.60567,4.07692 1.10912,8.82892 l 0.91536,8.64 -8.29288,0 -8.29289,0 -0.84866,-7.22089 z M 65.28,258.58469 c 0,-9.00244 0.08712,-9.25992 2.88,-8.51146 1.584,0.4245 5.297957,0.77969 8.253236,0.7893 l 5.373237,0.0175 -0.03674,7.68 c -0.03107,6.49581 -0.387958,7.68 -2.314586,7.68 -1.25282,0 -4.950247,0.3663 -8.216505,0.81398 l -5.938646,0.81393 0,-9.28328 z m 365.19854,28.24696 c -3.65281,-0.44435 -6.89242,-1.08325 -7.19913,-1.41978 -0.30673,-0.33653 -0.27074,-3.92387 0.08,-7.97187 l 0.63763,-7.36 8.1615,0 c 7.72357,0 8.1615,0.16211 8.1615,3.02135 0,5.20349 -1.59149,14.90701 -2.41398,14.71843 -0.43232,-0.0991 -3.77468,-0.54379 -7.42748,-0.98813 z m -362.478582,8.61689 c -0.77433,-4.39594 -0.983093,-8.37266 -0.463916,-8.83715 0.519177,-0.46448 4.133794,-1.19673 8.03248,-1.62722 l 7.088524,-0.78272 1.378666,7.33927 c 0.758267,4.03661 1.213281,7.53443 1.011144,7.77294 -0.202138,0.23852 -2.860373,0.97993 -5.90719,1.64757 -3.046816,0.66765 -6.482904,1.49875 -7.63575,1.84691 -1.693513,0.51144 -2.36648,-0.90204 -3.503958,-7.3596 z m 354.967922,25.25623 -7.7521,-2.62477 1.9921,-6.64337 c 1.09567,-3.65386 2.32811,-6.96585 2.73876,-7.35997 0.93054,-0.89311 15.25522,1.90643 15.24837,2.98004 -0.003,0.43081 -1.01075,4.26845 -2.24,8.52807 l -2.23501,7.74478 -7.75212,-2.62478 z m -344.85686,9.34847 c -1.64344,-4.13757 -2.70303,-7.80789 -2.354648,-8.15628 0.348383,-0.34838 3.74972,-1.69388 7.558526,-2.98998 l 6.925102,-2.35655 2.878813,7.05931 c 1.583346,3.88261 2.735346,7.19749 2.56,7.3664 -0.175347,0.16891 -3.527517,1.723 -7.449268,3.45353 l -7.130454,3.14642 -2.988071,-7.52285 z M 409.28,352.55587 c -3.344,-1.74071 -6.08,-3.57476 -6.08,-4.07567 0,-0.5009 1.23903,-3.9001 2.7534,-7.55379 l 2.75339,-6.64307 7.10281,3.1412 c 3.90653,1.72765 7.3029,3.3413 7.54747,3.58587 0.60639,0.60638 -6.43442,14.84472 -7.30372,14.76999 -0.38134,-0.0328 -3.42935,-1.48382 -6.77335,-3.22453 z m -314.24,9.676 c -2.288,-3.49917 -4.16,-6.80182 -4.16,-7.3392 0,-0.98017 11.25021,-7.37267 12.97523,-7.37267 0.87534,0 8.78477,10.26397 8.78477,11.3999 0,0.59783 -12.22106,9.73394 -12.971491,9.6971 C 99.410829,368.6042 97.328,365.73105 95.04,362.23187 z m 295.36,19.59519 c -3.168,-2.44844 -5.76,-4.83317 -5.76,-5.29938 0,-1.71807 7.4238,-11.72768 8.69804,-11.72768 0.72481,0 4.09925,1.78482 7.49875,3.96627 l 6.1809,3.96629 -4.08733,5.69152 c -5.96181,8.30165 -6.13218,8.34793 -12.53036,3.40298 z M 117.70651,389.65658 112,383.79314 l 5.60462,-5.01656 c 3.08254,-2.75912 5.98964,-5.01658 6.46023,-5.01658 0.47058,0 3.05786,2.25532 5.74951,5.01181 l 4.89392,5.01183 -4.9052,5.86817 c -2.69786,3.22751 -5.23929,5.86819 -5.64763,5.86819 -0.40834,0 -3.31037,-2.63854 -6.44894,-5.86342 z m 249.23022,17.87177 c -2.58319,-3.31567 -4.69673,-6.39304 -4.69673,-6.83863 0,-0.4456 2.31388,-3.06961 5.14195,-5.83116 l 5.14195,-5.02098 5.75381,5.75381 5.7538,5.7538 -6.19902,6.10582 -6.19902,6.1058 -4.69674,-6.02846 z m -219.85234,7.03682 c -3.10441,-2.20699 -6.18138,-4.50479 -6.83768,-5.10624 -0.96703,-0.88617 2.01694,-6.18534 7.75509,-13.77211 0.19684,-0.26025 3.24049,1.64286 6.76368,4.22912 l 6.40581,4.70229 -4.01071,6.65089 c -2.2059,3.65798 -4.10546,6.7989 -4.22126,6.97983 -0.11584,0.18091 -2.75051,-1.47679 -5.85493,-3.68378 z M 339.68307,429.76 c -1.17847,-2.288 -2.94021,-5.3838 -3.91495,-6.87955 -1.66232,-2.5508 -1.36788,-2.97907 4.74446,-6.90135 3.5842,-2.29998 6.94691,-3.66818 7.4727,-3.04044 3.16901,3.78355 7.85125,10.72821 7.83172,11.61594 -0.0215,0.97483 -11.99912,9.3654 -13.36926,9.3654 -0.3421,0 -1.5862,-1.872 -2.76467,-4.16 z M 176,431.78432 c -3.52,-1.81306 -6.60582,-3.48006 -6.8574,-3.70445 -0.25155,-0.22439 1.36952,-3.60107 3.6024,-7.50374 l 4.05977,-7.09576 6.63762,3.3338 c 3.65069,1.83359 6.809,3.48389 7.01847,3.66735 0.57704,0.50535 -6.5709,14.72735 -7.36751,14.65888 C 182.71201,435.1076 179.52,433.59739 176,431.78432 z m 32.64,13.84982 c -6.47208,-2.53674 -6.97964,-4.58769 -3.2895,-13.29229 l 2.0256,-4.77815 6.71195,2.64531 c 3.69157,1.45493 6.88348,2.81663 7.09312,3.026 1.12181,1.12033 -3.35473,14.15762 -4.94052,14.38863 -1.01236,0.14748 -4.43265,-0.7478 -7.60065,-1.9895 z m 97.6929,-4.56347 -2.57825,-7.93007 7.41632,-2.59812 7.41633,-2.59812 2.52191,5.86781 c 3.94236,9.17288 4.00456,9.00072 -4.41363,12.21567 l -7.78441,2.97292 -2.57827,-7.93009 z m -33.90095,6.43662 -0.43195,-8.296 7.43854,-0.86044 c 4.0912,-0.47324 7.61909,-0.65578 7.83974,-0.40565 0.22066,0.25014 0.79652,3.71682 1.27968,7.70372 0.98534,8.13056 1.27353,7.85365 -9.72601,9.34513 l -5.96805,0.80924 -0.43195,-8.296 z m -28.39707,6.83037 c -3.41281,-0.57268 -6.4879,-1.32402 -6.83352,-1.66963 -0.34562,-0.34562 -0.12711,-3.69732 0.48559,-7.44822 l 1.11398,-6.81981 7.56637,0.35348 c 4.16148,0.19442 7.70118,0.48832 7.86597,0.65312 1.03416,1.03417 -1.39187,16.24767 -2.57105,16.12285 -0.78222,-0.0828 -4.21453,-0.61911 -7.62734,-1.19179 z M 298.88,466.64145 c 52.7943,-11.24139 97.16539,-41.2605 125.18184,-84.69137 31.86238,-49.39281 40.28805,-110.35114 23.31617,-168.68873 -8.25531,-28.37603 -25.68517,-59.77052 -45.27826,-81.55474 -5.42487,-6.03153 -7.64696,-7.50871 -13.95978,-9.28 -4.12936,-1.15863 -9.05901,-2.10661 -10.95479,-2.10661 -3.05682,0 -3.2763,0.27314 -1.93947,2.41372 1.28689,2.06064 0.775,3.25565 -3.49915,8.16906 l -5.00654,5.75536 -3.04046,-2.39163 c -4.1099,-3.23286 -5.30303,-2.10111 -5.28069,5.00904 0.0209,6.62243 0.40034,7.46016 9.48046,20.92588 11.48224,17.02804 20.8458,39.72686 25.95074,62.90897 2.90614,13.19704 3.28884,55.08872 0.60448,66.1696 -7.28262,30.06241 -20.79457,52.92236 -41.90432,70.89507 -24.90355,21.20272 -53.56458,31.76512 -86.31023,31.80771 -35.7129,0.0465 -66.72449,-12.54502 -92.16867,-37.42278 -16.36559,-16.00127 -24.99369,-29.78637 -31.9315,-51.01692 -13.26787,-40.60126 -4.8105,-89.76447 21.56016,-125.33059 17.87149,-24.10327 47.25241,-41.8522 76.94001,-46.47923 10.48104,-1.63355 34.90568,-0.87983 42.15523,1.30087 2.41737,0.72715 4.56752,1.14979 4.77811,0.93921 0.21058,-0.21059 -0.20554,-2.36075 -0.92473,-4.77811 -1.067,-3.58652 -6.32861,-27.45619 -6.32861,-28.71025 0,-0.19428 3.888,-2.678177 8.64,-5.519782 4.752,-2.841604 11.49834,-8.091249 14.99188,-11.665875 C 309.4853,77.637459 309.93742,76.8 307.4607,76.8 c -2.70224,0 -2.80272,-0.364568 -2.02844,-7.36 0.44803,-4.048 1.17306,-7.730221 1.61117,-8.182712 0.43812,-0.452492 2.66857,-0.531117 4.95657,-0.174722 3.18629,0.49632 4.16355,1.288093 4.17517,3.382713 0.0102,1.860667 2.26733,4.298251 7.06169,7.626656 l 7.04653,4.891934 -2.84655,4.068066 c -4.56082,6.517927 -17.85688,20.037225 -23.62704,24.023715 -5.28312,3.65001 -5.3041,3.69658 -4.1161,9.13653 6.98988,32.00756 27.19566,66.15357 47.35274,80.02201 5.18765,3.56918 20.30216,9.72388 21.33737,8.68866 0.22429,-0.22428 -2.52529,-4.77391 -6.11017,-10.11027 -22.81198,-33.95732 -26.55601,-64.94819 -9.69957,-80.28721 7.00507,-6.37447 11.5926,-7.97062 23.10593,-8.03927 17.51118,-0.10441 38.31535,9.17304 60.42427,26.94571 l 5.38427,4.32824 1.91001,-2.92002 c 4.90395,-7.49714 6.53428,-15.05028 6.05335,-28.04474 -0.14461,-3.90722 -0.79708,-4.903666 -4.10924,-6.275613 C 439.14209,95.951323 431.3887,88.806152 418.30171,73.6 402.13629,54.816943 393.40602,47.062173 382.34198,41.658365 c -16.43952,-8.029254 -35.6896,-8.669697 -55.63135,-1.850835 -5.89427,2.015481 -8.19754,2.1322 -18.56,0.940539 C 301.47616,39.98052 288.50991,39.728945 278.4,40.170838 207.39323,43.27447 147.74925,69.645115 101.06129,118.57835 68.203661,153.01614 50.265612,194.99777 46.718688,245.76 c -1.444444,20.67235 2.986943,53.23936 10.363076,76.16 4.753313,14.77048 19.720436,44.27665 29.020281,57.21056 33.463475,46.53987 82.876075,78.11631 137.897955,88.12182 17.34536,3.15417 58.78531,2.81609 74.88,-0.61093 z"
     id="path2989"
     style="fill:#ffffff" />
</svg>
