<?xml version="1.0" encoding="UTF-8" standalone="no"?>
<!-- Created with Inkscape (http://www.inkscape.org/) -->

<svg
   xmlns:dc="http://purl.org/dc/elements/1.1/"
   xmlns:cc="http://creativecommons.org/ns#"
   xmlns:rdf="http://www.w3.org/1999/02/22-rdf-syntax-ns#"
   xmlns:svg="http://www.w3.org/2000/svg"
   xmlns="http://www.w3.org/2000/svg"
   xmlns:sodipodi="http://sodipodi.sourceforge.net/DTD/sodipodi-0.dtd"
   xmlns:inkscape="http://www.inkscape.org/namespaces/inkscape"
   id="svg2"
   version="1.1"
   inkscape:version="0.48.3.1 r9886"
   width="400"
   height="400"
   sodipodi:docname="Icon.6_25.png">
  <metadata
     id="metadata8">
    <rdf:RDF>
      <cc:Work
         rdf:about="">
        <dc:format>image/svg+xml</dc:format>
        <dc:type
           rdf:resource="http://purl.org/dc/dcmitype/StillImage" />
        <dc:title></dc:title>
      </cc:Work>
    </rdf:RDF>
  </metadata>
  <defs
     id="defs6" />
  <sodipodi:namedview
     pagecolor="#ffffff"
     bordercolor="#666666"
     borderopacity="1"
     objecttolerance="10"
     gridtolerance="10"
     guidetolerance="10"
     inkscape:pageopacity="0"
     inkscape:pageshadow="2"
     inkscape:window-width="1855"
     inkscape:window-height="1056"
     id="namedview4"
     showgrid="false"
     inkscape:zoom="0.59"
     inkscape:cx="200"
     inkscape:cy="200"
     inkscape:window-x="65"
     inkscape:window-y="24"
     inkscape:window-maximized="1"
     inkscape:current-layer="svg2" />
  <path
     style="fill:#000000"
     d="m 0,0 400,0 0,400 -400,0 z"
     id="rect3024" />
  <path
     id="path2989"
     style="fill:#ffffff"
     d="m 250,247.30962 c -5.93337,-0.99211 -14.87812,-4.56222 -18.03639,-7.19885 l -3.41739,-2.85297 1.97689,-3.70552 c 2.86932,-5.37832 11.22289,-12.89047 18.31584,-16.47098 17.09724,-8.63066 40.54245,-7.80473 52.12815,1.83639 l 3.46711,2.88517 -2.41294,5.15172 c -2.71228,5.79084 -8.7584,11.85034 -15.00278,15.03599 -9.3079,4.74853 -26.04652,7.15364 -37.01849,5.31905 z m -114.5,-0.79506 c -15.08497,-3.33488 -26.58274,-12.02742 -29.0824,-21.98684 -0.89493,-3.56569 2.04135,-6.56301 9.87199,-10.07719 12.12756,-5.44253 30.14353,-4.30102 44.62337,2.82738 7.20598,3.5475 15.96712,11.60414 18.0272,16.57762 1.17762,2.84303 1.11604,3.42504 -0.55827,5.2764 -6.59827,7.29599 -27.21691,10.84574 -42.88189,7.38263 z m 4.98593,72.21915 c -1.71032,-13.68896 4.94566,-25.37047 18.30099,-32.11897 11.56311,-5.84289 32.28686,-9.25381 49.71308,-8.18228 48.76401,2.99849 70.49994,16.82536 64.41815,40.97832 l -1.08185,4.29641 -5.114,-5.4073 c -6.12397,-6.47519 -19.12164,-13.28805 -31.10064,-16.3017 -24.59647,-6.18792 -54.76082,-3.76911 -75.12079,6.02379 -6.5593,3.15494 -15.04535,9.75177 -17.66163,13.72966 l -1.66075,2.52509 -0.69256,-5.54302 z M 223.5,370.05769 c 31.83189,-7.67265 59.21582,-31.81142 77.77443,-68.55769 13.63529,-26.99804 20.60983,-53.85352 22.65892,-87.24831 4.55548,-74.2422 -25.55386,-145.018826 -73.8546,-173.606559 -7.53794,-4.461476 -24.56402,-11.493194 -25.51825,-10.53896 -0.22351,0.223506 4.04994,25.828551 9.49655,56.900101 5.44662,31.071548 9.91194,56.998388 9.92294,57.615198 0.0117,0.65381 -7.08972,-1.16738 -17.02938,-4.36727 -9.37717,-3.01881 -17.33249,-5.20565 -17.6785,-4.85964 -0.34601,0.34601 3.29472,17.10527 8.09053,37.2428 4.7958,20.13753 8.56583,36.7675 8.37785,36.95549 C 225.5525,209.78083 205.54303,184.8653 181.275,154.225 157.00697,123.5847 137.28531,98.381355 137.4491,98.217568 c 0.24904,-0.249038 41.34852,9.755022 46.8009,11.391852 0.9625,0.28894 1.75,0.0938 1.75,-0.43358 0,-0.74 -36.22952,-59.696753 -37.4636,-60.964988 -0.64857,-0.666518 -11.53442,9.451547 -17.84764,16.588833 C 90.061814,110.72965 74.542487,188.64756 92.108423,258.5 c 13.316147,52.95281 44.712287,94.22416 82.338737,108.23722 14.78449,5.50613 34.45963,6.83797 49.05284,3.32047 z" />
</svg>
