<?xml version="1.0" encoding="UTF-8" standalone="no"?>
<!-- Created with Inkscape (http://www.inkscape.org/) -->

<svg
   xmlns:dc="http://purl.org/dc/elements/1.1/"
   xmlns:cc="http://creativecommons.org/ns#"
   xmlns:rdf="http://www.w3.org/1999/02/22-rdf-syntax-ns#"
   xmlns:svg="http://www.w3.org/2000/svg"
   xmlns="http://www.w3.org/2000/svg"
   xmlns:sodipodi="http://sodipodi.sourceforge.net/DTD/sodipodi-0.dtd"
   xmlns:inkscape="http://www.inkscape.org/namespaces/inkscape"
   id="svg2"
   version="1.1"
   inkscape:version="0.48.3.1 r9886"
   width="400"
   height="400"
   sodipodi:docname="Icon.5_82.png">
  <metadata
     id="metadata8">
    <rdf:RDF>
      <cc:Work
         rdf:about="">
        <dc:format>image/svg+xml</dc:format>
        <dc:type
           rdf:resource="http://purl.org/dc/dcmitype/StillImage" />
        <dc:title></dc:title>
      </cc:Work>
    </rdf:RDF>
  </metadata>
  <defs
     id="defs6" />
  <sodipodi:namedview
     pagecolor="#ffffff"
     bordercolor="#666666"
     borderopacity="1"
     objecttolerance="10"
     gridtolerance="10"
     guidetolerance="10"
     inkscape:pageopacity="0"
     inkscape:pageshadow="2"
     inkscape:window-width="1855"
     inkscape:window-height="1056"
     id="namedview4"
     showgrid="false"
     inkscape:zoom="0.59"
     inkscape:cx="200"
     inkscape:cy="200"
     inkscape:window-x="65"
     inkscape:window-y="24"
     inkscape:window-maximized="1"
     inkscape:current-layer="svg2" />
  <path
     style="fill:#000000"
     d="m 0,0 400,0 0,400 -400,0 z"
     id="rect3020" />
  <path
     id="path2989"
     style="fill:#ffffff"
     d="M 123.51593,315.82622 112.5706,294.5 112.16418,278.09654 c -0.33712,-13.60696 -0.17266,-16.31215 0.96471,-15.86781 0.75411,0.29462 4.6438,2.00348 8.64376,3.79748 3.99996,1.794 7.41713,3.08451 7.59372,2.86781 0.17659,-0.21671 2.22313,-11.63826 4.54788,-25.38121 2.32474,-13.74296 4.32536,-25.08576 4.44583,-25.20622 0.12046,-0.12046 6.0313,9.4914 13.1352,21.35969 10.07729,16.83587 13.07944,21.16716 13.65897,19.70622 0.40853,-1.02987 3.29956,-13.3475 6.42451,-27.3725 3.12494,-14.025 5.99384,-25.84823 6.37533,-26.27385 0.38149,-0.42562 5.54415,10.59938 11.47259,24.5 5.92843,13.90062 11.0756,25.59425 11.43814,25.98585 0.36255,0.3916 5.33569,-9.85149 11.05142,-22.76242 5.71574,-12.91094 10.48891,-23.35634 10.60706,-23.212 0.11815,0.14433 3.23986,10.83742 6.93714,23.76242 3.69727,12.925 7.06735,23.86365 7.48905,24.30811 0.4217,0.44446 7.15896,-7.1856 14.97169,-16.95569 l 14.20496,-17.76381 -0.71454,23.7057 c -0.42015,13.93884 -0.34313,23.70409 0.18693,23.7018 0.49581,-0.002 5.13171,-3.38439 10.30201,-7.51612 5.17029,-4.13174 9.5722,-7.34058 9.78202,-7.13076 0.20981,0.20981 -0.0439,8.31196 -0.56382,18.00477 l -0.9453,17.62328 -8.82485,16.4399 c -4.85367,9.04194 -8.97572,16.28902 -9.16012,16.10462 -0.1844,-0.1844 -0.63975,-7.6555 -1.01187,-16.60244 L 264.5,291.6522 l -7.91247,12.9239 c -4.35186,7.10815 -8.44355,13.71044 -9.09265,14.67176 -0.98472,1.45837 -1.90989,-0.9846 -5.58595,-14.75 C 239.48575,295.42404 237.24021,288 236.91883,288 c -0.32138,0 -3.4128,7.7625 -6.86983,17.25 -3.45703,9.4875 -6.56979,17.77837 -6.91725,18.42416 -0.34746,0.64579 -3.98808,-8.68788 -8.09027,-20.74148 -4.10218,-12.0536 -7.76097,-21.58198 -8.13064,-21.17416 -0.36967,0.40781 -2.62858,11.05566 -5.0198,23.66187 l -4.34769,22.92039 -10.89536,-22.42039 C 180.65554,293.58918 175.58659,283.95 175.38366,284.5 c -0.20293,0.55 -2.17083,9.96106 -4.37312,20.91347 -2.20228,10.95241 -4.14162,20.05094 -4.30963,20.21895 -0.16801,0.16801 -5.22965,-6.62035 -11.24808,-15.08525 -6.01843,-8.4649 -11.1699,-15.17013 -11.44772,-14.90051 -0.27781,0.26962 -2.53882,9.71872 -5.02448,20.998 l -4.51936,20.50778 -10.94534,-21.32622 z m 91.17202,54.62188 c 27.76652,-6.32566 51.09641,-23.8349 70.20423,-52.68875 18.18341,-27.45792 30.27529,-66.55147 31.81582,-102.86183 l 0.57711,-13.60248 -3.39256,-1.25877 C 312.02665,199.34395 306.675,197.51259 302,195.9666 l -8.5,-2.81091 0.34316,-7.38699 c 0.5418,-11.66278 -4.06519,-19.46699 -14.01974,-23.74932 -14.0502,-6.04423 -30.88119,3.4416 -32.56177,18.3516 l -0.50207,4.45438 -9.62979,-0.4469 c -5.29638,-0.2458 -13.00116,-0.7051 -17.12173,-1.02067 l -7.49195,-0.57377 6.42057,-6.03489 c 8.05851,-7.57445 23.82367,-19.30109 37.24912,-27.70713 13.2515,-8.29713 41.20645,-22.45373 55.3142,-28.01154 6.05,-2.38342 11.40193,-4.68974 11.89318,-5.12516 C 324.61563,114.8218 320.09412,103 318.45725,103 c -0.71439,0 -5.03336,1.575 -9.59771,3.5 -4.56435,1.925 -8.40208,3.5 -8.52828,3.5 -0.12619,0 -2.48636,-4.46626 -5.24481,-9.92503 C 271.71363,53.821968 236.83142,27.889611 198,27.898344 182.39303,27.901854 171.84037,30.516771 156.75178,38.119525 135.1945,48.981684 114.57307,71.426133 100.81623,99 c -3.429997,6.875 -6.282119,12.60279 -6.338049,12.72842 -0.05593,0.12563 -4.798902,-1.77803 -10.539936,-4.23035 -5.741035,-2.45233 -11.016737,-4.46762 -11.723782,-4.47843 -0.707046,-0.0108 -2.10439,1.89286 -3.10521,4.23036 -3.823737,8.93067 -4.82473,7.71551 12.126839,14.72135 39.150538,16.18036 71.841308,35.67484 91.708858,54.68873 l 6.55505,6.27341 -8.59444,0.0332 c -4.72694,0.0183 -13.29325,0.32076 -19.03626,0.67215 l -10.44182,0.63889 -0.24648,-3.65991 C 140.43281,169.50834 132.22385,161.28403 120.8542,160.25306 106.42679,158.94483 94.63225,170.8422 96.321163,185 c 0.295247,2.475 0.815851,5.21958 1.156898,6.09907 0.496588,1.2806 -1.331499,2.28478 -9.178989,5.04207 l -9.799072,3.443 -0.323949,6.45793 c -0.178172,3.55186 0.174553,11.40793 0.783835,17.45793 4.484684,44.53172 20.340846,84.12893 44.728874,111.70032 16.9466,19.15864 34.33393,29.87 57.81124,35.61428 6.45467,1.57929 25.57369,1.36816 33.18795,-0.3665 z" />
</svg>
