<?xml version="1.0" encoding="UTF-8" standalone="no"?>
<!-- Created with Inkscape (http://www.inkscape.org/) -->

<svg
   xmlns:dc="http://purl.org/dc/elements/1.1/"
   xmlns:cc="http://creativecommons.org/ns#"
   xmlns:rdf="http://www.w3.org/1999/02/22-rdf-syntax-ns#"
   xmlns:svg="http://www.w3.org/2000/svg"
   xmlns="http://www.w3.org/2000/svg"
   version="1.1"
   width="512"
   height="512"
   id="svg2">
  <metadata
     id="metadata8">
    <rdf:RDF>
      <cc:Work
         rdf:about="">
        <dc:format>image/svg+xml</dc:format>
        <dc:type
           rdf:resource="http://purl.org/dc/dcmitype/StillImage" />
        <dc:title></dc:title>
      </cc:Work>
    </rdf:RDF>
  </metadata>
  <defs
     id="defs6" />
  <path
     d="m 0,0 512,0 0,512 -512,0 z"
     id="rect3038"
     style="fill:#000000;fill-opacity:1;fill-rule:nonzero;stroke:none" />
  <path
     d="m 165.32881,50.635974 c 5.35735,-2.238442 8.67182,-7.004233 8.66745,-12.462699 -0.007,-8.40239 -5.58909,-14.177513 -13.6966,-14.169537 C 152.53063,24.011381 147,29.987056 147,38.373615 c 0,5.153472 3.35042,9.998365 8.45042,12.219789 3.92585,1.709992 5.86766,1.71836 9.87839,0.04257 z M 50,58.646622 C 52.475,57.383251 55.927906,54.4813 57.673125,52.197842 69.469193,36.763775 58.734991,15 39.326623,15 19.50189,15 8.811299,37.905072 21.640563,52.893181 28.606064,61.030804 40.573081,63.458621 50,58.646622 z m 40.793149,9.36099 c 3.371098,-1.529988 4.723253,-2.920787 6.295754,-6.475687 2.563338,-5.794851 1.760139,-10.63483 -2.54433,-15.331819 -5.891362,-6.428589 -17.047099,-5.344058 -21.585057,2.098443 -4.605186,7.552756 -0.658019,18.173657 7.683034,20.673245 4.268488,1.27915 5.456363,1.166317 10.150599,-0.964182 z M 205.13193,95.33168 c 11.79882,-6.421725 15.1651,-20.757117 7.52597,-32.049555 -4.67922,-6.916992 -10.22929,-9.525389 -19.34488,-9.091619 -9.26277,0.440772 -14.51634,3.764755 -18.56302,11.744998 -4.20107,8.284705 -3.31167,16.706131 2.58019,24.430748 5.8768,7.704886 18.59498,9.976368 27.80174,4.965428 z m 199.93492,78.62072 c 4.07956,-2.90491 6.37694,-9.59057 5.02317,-14.61809 -2.39614,-8.89858 -12.81875,-13.13722 -20.55179,-8.35794 -12.42321,7.67797 -5.5377,27.49985 8.8565,25.49592 2.1421,-0.29821 5.14455,-1.43217 6.67212,-2.51989 z m -55.34465,5.1913 c 6.19949,-3.16564 10.51138,-7.32636 13.80896,-13.32485 2.57123,-4.6772 2.91577,-6.28395 2.85601,-13.31885 -0.0805,-9.47405 -1.67937,-13.68407 -7.67879,-20.21902 -5.775,-6.29048 -12.4281,-9.2588 -20.78024,-9.27121 -8.23273,-0.0122 -14.51525,2.08899 -19.8186,6.62846 -8.83271,7.56047 -12.46903,18.50654 -9.7168,29.24955 3.83483,14.9688 15.51974,23.66954 30.60726,22.79057 4.03949,-0.23533 8.09827,-1.1948 10.7222,-2.53465 z m -209.58064,7.69574 c 2.13048,-0.6383 5.68571,-2.71166 7.90051,-4.60744 9.89951,-8.47362 11.73959,-22.4115 4.39887,-33.31976 l -3.44016,-5.11205 3.4379,-5.6501 c 7.81689,-12.84683 8.51029,-25.79865 2.07798,-38.81356 -4.06177,-8.218439 -9.78794,-13.854395 -18.31467,-18.026135 -10.51261,-5.143341 -28.15954,-4.199685 -37.130433,1.985521 L 95.643115,85.65974 91.071557,83.07987 C 84.911813,79.603737 73.610156,79.429144 67.40532,82.714264 59.861578,86.708259 54.299149,94.678535 53.327007,102.88675 51.552478,117.86987 64.254523,132 79.497882,132 c 2.758619,0 3.620164,0.7612 7.178105,6.34202 4.372456,6.85845 8.424855,10.43874 15.896893,14.04489 l 4.77789,2.30591 0.10564,7.90359 c 0.0811,6.07111 0.61667,8.87299 2.30977,12.08467 2.55746,4.85129 8.54672,10.20398 13.3709,11.94978 4.36467,1.5795 12.11158,1.67453 17.00448,0.20858 z M 95.5,259.13266 c 9.99516,-4.55634 15.51469,-13.143 15.47804,-24.079 -0.0576,-17.19433 -15.111011,-29.72159 -31.343605,-26.08379 -4.639473,1.03973 -4.880113,0.97864 -7.595506,-1.9282 -4.838302,-5.17942 -10.53198,-6.32513 -16.75586,-3.37171 -9.646069,4.57736 -9.806567,19.92081 -0.256758,24.54592 3.061399,1.48268 3.294977,1.95156 3.455779,6.93714 0.476678,14.77921 11.846098,25.87401 26.464254,25.82502 4.171375,-0.014 8.007672,-0.68478 10.553656,-1.84538 z m 21.64037,55.32126 c 8.75134,-6.18215 11.04209,-17.79176 5.32658,-26.99526 -5.35118,-8.61681 -16.63531,-11.84721 -25.408984,-7.27402 -8.7542,4.56303 -12.572981,12.9261 -10.630473,23.28056 0.798201,4.25477 5.473736,9.87987 10.472841,12.59978 5.517176,3.00178 14.750566,2.26682 20.240036,-1.61106 z m 50.4337,86.11047 c 2.79073,-0.84556 7.88212,-3.35231 11.31419,-5.57056 l 6.24012,-4.03319 5.11731,1.51968 c 11.42141,3.3918 22.14386,0.8052 29.92247,-7.21825 7.15496,-7.38016 8.32478,-10.29908 8.32086,-20.76207 -0.003,-7.34536 -0.40692,-9.75681 -2.19839,-13.11647 -3.36852,-6.31718 -6.62832,-9.70039 -12.45791,-12.92958 -4.76217,-2.6379 -6.26496,-2.95395 -14.04595,-2.95395 -8.14332,0 -8.79632,-0.15505 -9.98349,-2.37054 -3.65817,-6.82681 -17.63548,-15.28979 -28.62894,-17.33423 -18.04536,-3.35588 -37.69913,7.13962 -46.26191,24.70477 -3.27959,6.72755 -3.41241,7.4476 -3.41241,18.5 0,11.05232 0.13264,11.77143 3.40725,18.47248 9.73766,19.92681 31.54936,29.49021 52.6668,23.09191 z m 229.71588,93.94428 C 454.69263,484.49848 496,435.74289 496,378 c 0,-38.85976 -19.80984,-76.44281 -51.35662,-97.43331 l -8.3739,-5.5718 0.82171,-4.24745 C 439.65338,257.50339 437.0079,240.51192 430.27997,227 425.08415,216.56508 412.43492,203.91585 402,198.72003 c -20.49068,-10.20284 -42.56548,-10.19812 -63,0.0135 -9.1977,4.5963 -22.05304,16.86662 -26.99498,25.76649 -1.83242,3.3 -3.45728,6.16159 -3.61078,6.35909 -0.1535,0.1975 -1.64955,-0.61676 -3.32456,-1.80948 -5.49795,-3.91488 -17.53036,-8.89715 -24.35882,-10.08627 -4.57516,-0.79673 -6.47933,-1.53168 -5.99868,-2.3153 0.3873,-0.63142 1.9659,-3.02129 3.50799,-5.31082 1.54209,-2.28954 4.02263,-7.23954 5.5123,-11 2.47216,-6.24062 2.70887,-8.01521 2.71273,-20.33722 0.004,-11.4863 -0.32587,-14.38486 -2.20882,-19.43216 -6.348,-17.01599 -20.14746,-30.84296 -36.5136,-36.5864 -8.6512,-3.03601 -24.00285,-3.78249 -32.72912,-1.59149 -21.3256,5.35448 -37.20759,20.6913 -43.60691,42.11005 -2.21749,7.42204 -2.27189,23.80107 -0.10188,30.67817 l 1.47616,4.67817 -3.08002,1.27579 c -5.3871,2.23141 -15.05809,12.7301 -18.7621,20.36787 -3.22597,6.65202 -3.39532,7.54683 -3.40682,18 -0.01,9.1139 0.38405,12.02878 2.29827,17 4.8549,12.60818 15.18867,22.31963 28.20256,26.50416 5.90969,1.90021 8.53685,2.18729 16.30041,1.78121 5.09038,-0.26626 10.25232,-1.01773 11.47096,-1.66992 2.05767,-1.10124 2.21571,-0.97284 2.21571,1.80015 0,15.65934 12.39075,36.51167 27.75613,46.71062 5.86382,3.89219 19.91475,9.32603 24.24387,9.37571 4.97086,0.0571 5.22983,0.94373 2.94217,10.0735 -1.49638,5.97189 -2.27046,13.01405 -2.65883,24.18871 l -0.54787,15.76415 -2.61774,0.56834 c -19.30042,4.19032 -32.55682,22.75746 -29.20266,40.90174 2.25134,12.17862 9.64929,22.24323 19.95854,27.15279 10.92991,5.20513 26.61566,4.12919 35.68582,-2.44781 l 3.92715,-2.84767 7.92105,7.86801 c 16.59511,16.484 38.80038,27.93029 62.5141,32.22452 10.23077,1.85265 28.92639,1.88136 39.36822,0.0605 z"
     id="path2989"
     style="fill:#ffffff" />
</svg>
