<?xml version="1.0" encoding="UTF-8" standalone="no"?>
<!-- Created with Inkscape (http://www.inkscape.org/) -->

<svg
   xmlns:dc="http://purl.org/dc/elements/1.1/"
   xmlns:cc="http://creativecommons.org/ns#"
   xmlns:rdf="http://www.w3.org/1999/02/22-rdf-syntax-ns#"
   xmlns:svg="http://www.w3.org/2000/svg"
   xmlns="http://www.w3.org/2000/svg"
   version="1.1"
   width="512"
   height="512"
   id="svg2">
  <metadata
     id="metadata8">
    <rdf:RDF>
      <cc:Work
         rdf:about="">
        <dc:format>image/svg+xml</dc:format>
        <dc:type
           rdf:resource="http://purl.org/dc/dcmitype/StillImage" />
        <dc:title></dc:title>
      </cc:Work>
    </rdf:RDF>
  </metadata>
  <defs
     id="defs6" />
  <path
     d="m 0,0 512,0 0,512 -512,0 z"
     id="rect3026"
     style="fill:#000000;fill-opacity:1;stroke:none" />
  <path
     d="m 307.32681,262.17815 c -5.59526,-2.57298 -10.45053,-4.95843 -10.7895,-5.30099 -0.33897,-0.34256 3.232,-7.91408 7.93548,-16.8256 4.70348,-8.91152 8.3572,-16.50625 8.11938,-16.87717 C 312.35434,222.80348 299.97542,216.875 285.08349,210 c -17.89257,-8.26026 -27.07362,-13.00877 -27.06848,-14 0.004,-0.825 2.86842,-12.075 6.36477,-25 5.61003,-20.73865 6.5781,-23.45929 8.23861,-23.15351 4.10048,0.75507 71.64986,19.08842 72.14097,19.57955 0.2887,0.28869 -5.00319,21.12344 -11.75974,46.29943 -6.75657,25.176 -12.72526,47.46202 -13.26379,49.52453 -0.53851,2.0625 -1.26187,3.71767 -1.60747,3.67815 -0.3456,-0.0395 -5.2063,-2.17702 -10.80155,-4.75 z m -49.24893,82.62692 c -20.03217,-5.39879 -36.63488,-10.02875 -36.89494,-10.28879 -0.49767,-0.49767 20.70608,-80.7187 21.80549,-82.49755 0.57174,-0.9251 20.04109,6.91468 22.34859,8.99919 0.46037,0.41587 -2.14572,6.39392 -5.79132,13.28454 -3.6456,6.89064 -6.27227,12.73905 -5.83703,12.99648 0.43523,0.25744 12.26633,6.64742 26.29133,14.19998 14.025,7.55255 25.55663,13.79247 25.62586,13.86649 0.2732,0.29216 -10.19738,38.53265 -10.64629,38.88221 -0.26376,0.20538 -16.86953,-4.04375 -36.90169,-9.44255 z m 81.27688,-78.30508 C 355.67668,205.45 369.024,154.98998 369.01548,154.36663 c -0.0172,-1.25981 0.23997,-1.17503 -16.51549,-5.44497 -6.6,-1.68193 -12.31445,-3.36487 -12.69879,-3.73986 -0.38434,-0.37499 0.2377,-4.40976 1.38231,-8.96615 1.14462,-4.55639 1.90743,-8.45803 1.69516,-8.67031 C 342.4997,127.16637 293.8282,114 292.80625,114 c -0.28709,0 -1.55965,3.86125 -2.82789,8.58057 l -2.30592,8.58056 -3.18682,-0.59785 c -1.75276,-0.32882 -8.54156,-2.11812 -15.08622,-3.97623 -6.54467,-1.85811 -12.16654,-3.08783 -12.49304,-2.73272 -0.67906,0.73859 -59.95921,222.06783 -59.92729,223.74544 0.0115,0.60486 9.58343,3.66866 21.27093,6.80843 11.6875,3.13976 36.775,9.89394 55.75,15.00932 18.975,5.11537 34.76518,9.02658 35.08928,8.69157 0.3241,-0.335 13.94356,-50.55909 30.26548,-111.6091 z m -91.09088,114.5931 c -44.81598,-11.98976 -73.24151,-20.05498 -73.25,-20.78337 -0.0115,-0.93181 60.99459,-229.58365 67.61898,-253.43972 l 1.56335,-5.62999 12.65189,3.4428 c 19.01206,5.17352 17.99257,5.3803 20.62344,-4.18281 1.59252,-5.788733 2.63124,-7.966525 3.75794,-7.878897 2.80842,0.218426 82.24947,21.628877 83.10515,22.397967 0.45903,0.4126 -0.10342,4.0933 -1.25,8.17934 -1.14654,4.08604 -2.08463,7.87298 -2.08463,8.4154 0,0.54243 6.75,2.75616 15,4.91941 8.58781,2.25182 15,4.4353 15,5.1078 0,1.27648 -68.82079,258.56027 -69.24284,258.86158 -0.14144,0.101 -33.21342,-8.63329 -73.49328,-19.40951 z m -24.76389,74.85969 c 27.24182,-32.2806 32.17709,-37.68197 33.1909,-36.32554 0.655,0.87635 11.23001,17.73894 23.5,37.47243 12.27001,19.73349 22.59177,35.88386 22.93723,35.88971 0.34545,0.006 4.56994,-15.85188 9.38773,-35.23938 4.81779,-19.3875 9.03514,-35.52751 9.37188,-35.8667 0.33674,-0.33918 10.88987,4.75822 23.45137,11.32757 12.56151,6.56934 23.10855,11.6748 23.43789,11.34547 0.32934,-0.32933 -1.72671,-26.32329 -4.56899,-57.76434 -2.84228,-31.44105 -5.06433,-57.26348 -4.93789,-57.38314 0.12646,-0.11968 18.54237,10.87687 40.92428,24.43677 22.38194,13.5599 40.38194,24.92321 40,25.2518 -0.38191,0.32861 -11.03899,2.04821 -23.6824,3.82135 -12.64339,1.77315 -23.20537,3.44126 -23.47104,3.70694 -0.26565,0.26566 -0.005,0.79607 0.57829,1.17864 0.58373,0.38261 22.98512,15.93122 49.78088,34.55247 26.79575,18.62126 48.85908,33.69626 49.02963,33.5 0.17054,-0.19625 0.62601,-18.80822 1.01214,-41.3599 l 0.70207,-41.00307 -30.23544,-25.49693 c -16.62949,-14.02331 -30.88954,-25.97939 -31.689,-26.56908 -1.07091,-0.78991 4.56623,-1.54997 21.41347,-2.88718 12.57685,-0.99826 24.89201,-2.11593 27.36701,-2.48371 l 4.49999,-0.66868 -28,-18.49357 c -15.4,-10.17147 -37.81205,-24.94926 -49.80458,-32.83955 -11.99254,-7.8903 -21.43164,-14.71893 -20.97581,-15.17476 0.45584,-0.45584 18.95397,-9.05291 41.10699,-19.1046 22.15299,-10.05169 40.28902,-18.71666 40.30225,-19.25552 0.0133,-0.53884 -15.53532,-6.15903 -34.55237,-12.48928 C 414.55941,191.70074 399,186.23452 399,185.88387 c 0,-0.35067 2.22851,-1.59625 4.95222,-2.76797 14.05236,-6.04515 63.94488,-31.5869 62.82716,-32.16341 -0.70366,-0.36296 -13.54125,-4.88825 -28.52798,-10.05621 -14.98673,-5.16795 -27.24058,-9.62129 -27.2308,-9.89628 0.0102,-0.275 9.75569,-11.75 21.6576,-25.5 12.75,-14.729805 21.06097,-25.104895 20.2308,-25.25534 -0.77495,-0.140435 -18.734,2.845442 -39.909,6.635282 -21.175,3.789844 -38.65344,6.751307 -38.84097,6.581032 -0.33131,-0.300801 4.40443,-59.70036 5.27877,-66.210975 C 379.67785,25.4625 379.54685,24 379.14684,24 378.74676,24 364.99739,36.819008 348.59267,52.486684 332.18796,68.15436 318.43916,80.771407 318.03974,80.524568 317.64036,80.277728 309.25551,66.347692 299.40678,49.568929 289.55805,32.790168 281.275,19.05497 281,19.046268 c -0.275,-0.0087 -5.225,14.379455 -11,31.973683 l -10.50001,31.989504 -27,-17.502762 C 217.65,55.880173 205.22856,48.003046 204.89679,48.001965 c -0.33176,-0.0011 -0.41459,2.135535 -0.18406,4.748034 1.29071,14.627185 5.99313,80.799731 5.7609,81.067541 -0.15145,0.17464 -18.97968,-11.97536 -41.84052,-27.00001 L 127.06796,79.5 138.78397,75.830817 c 6.44382,-2.01805 17.05306,-5.321019 23.57609,-7.339931 6.55063,-2.02745 11.47505,-4.051691 11,-4.521687 C 172.88703,63.501181 156.525,53.417623 137,41.561292 L 101.5,20.004323 61.749999,20.002161 22,20 22.03203,52.249999 22.06406,84.5 69.532031,106.9714 c 26.107384,12.35928 47.466459,22.70928 47.464619,23 -0.002,0.29073 -12.18689,4.12861 -27.077874,8.52861 -14.890988,4.4 -27.601981,8.33749 -28.246651,8.74999 -0.878237,0.56195 -0.847016,0.96007 0.124519,1.58784 0.713152,0.46082 29.123849,17.67331 63.134876,38.25001 34.01103,20.57667 61.68591,37.67291 61.49975,37.9916 -0.18618,0.31869 -20.27186,1.16598 -44.63488,1.88285 -24.36301,0.71689 -44.898757,1.62134 -45.634987,2.0099 -0.85744,0.45253 11.629087,8.94171 34.737847,23.61714 19.84205,12.60086 36.07146,23.13566 36.06537,23.41066 -0.006,0.275 -22.72563,9.70129 -50.48785,20.94729 -27.76222,11.24602 -50.473304,20.69601 -50.469072,21 0.0042,0.30399 18.341732,5.91729 40.749992,12.474 22.40827,6.55669 41.01998,12.18171 41.35938,12.49999 0.33939,0.3183 -14.19679,17.89583 -32.30263,39.06118 -18.105831,21.16535 -32.558514,38.60006 -32.117067,38.7438 C 84.138817,420.87 105.65,415.43923 131.5,408.65788 l 46.99999,-12.32974 0.73203,2.58593 c 0.65115,2.30028 10.80969,90.72704 10.77993,93.83593 -0.006,0.6875 0.32554,1.22112 0.73805,1.18583 0.41249,-0.0353 15.15,-17.12766 32.75,-37.98305 z"
     id="path2989"
     style="fill:#ffffff" />
</svg>
