<?xml version="1.0" encoding="UTF-8" standalone="no"?>
<!-- Created with Inkscape (http://www.inkscape.org/) -->

<svg
   xmlns:dc="http://purl.org/dc/elements/1.1/"
   xmlns:cc="http://creativecommons.org/ns#"
   xmlns:rdf="http://www.w3.org/1999/02/22-rdf-syntax-ns#"
   xmlns:svg="http://www.w3.org/2000/svg"
   xmlns="http://www.w3.org/2000/svg"
   version="1.1"
   width="512"
   height="512"
   id="svg2">
  <metadata
     id="metadata8">
    <rdf:RDF>
      <cc:Work
         rdf:about="">
        <dc:format>image/svg+xml</dc:format>
        <dc:type
           rdf:resource="http://purl.org/dc/dcmitype/StillImage" />
        <dc:title></dc:title>
      </cc:Work>
    </rdf:RDF>
  </metadata>
  <defs
     id="defs6" />
  <path
     d="m 0,0 512,0 0,512 -512,0 z"
     id="rect3038"
     style="fill:#000000;fill-opacity:1;stroke:none" />
  <path
     d="m 316.09196,184.4119 c 6.24307,-5.98124 5.86279,-15.05642 -0.8453,-20.17294 -2.96142,-2.25877 -4.60931,-2.73897 -9.39959,-2.73897 -5.15805,0 -6.15462,0.34603 -8.89807,3.08948 -4.00474,4.00474 -5.49436,10.16953 -3.57011,14.77492 3.53673,8.46458 16.20738,11.28037 22.71307,5.04751 z m -69.79559,45.5784 c 3.01637,-1.12857 7.05425,-3.70265 9.20969,-5.87102 3.75946,-3.78203 3.96312,-3.85241 9.91612,-3.4267 7.86742,0.5626 11.61244,-1.59792 14.11121,-8.14084 1.49105,-3.90426 1.57913,-5.23276 0.57026,-8.60009 -1.41812,-4.7333 -7.21207,-9.09058 -12.30012,-9.25022 -2.94418,-0.0924 -3.56868,-0.65285 -5.74101,-5.15254 -3.52184,-7.29495 -12.59368,-15.95884 -20.76091,-19.82728 -6.09992,-2.88925 -7.7301,-3.22087 -15.80162,-3.21444 -10.59449,0.008 -14.99316,1.83673 -22.1597,9.21055 -6.71072,6.90483 -7.81319,9.55713 -7.80699,18.78227 0.005,6.8242 0.41908,8.79116 2.82017,13.3828 9.68711,18.52479 31.11257,28.40454 47.9429,22.10751 z m 117.49512,65.13389 c 6.0647,-3.11915 11.98893,-9.40286 14.93797,-15.84443 2.1165,-4.62306 2.44407,-6.52923 2.02313,-11.77314 C 379.75405,255.06683 369.68771,242.08556 356,235.58634 c -5.68797,-2.70077 -7.56188,-3.08512 -15,-3.07657 -10.20895,0.0115 -15.34996,2.02165 -21.83104,8.53499 -6.57748,6.61025 -8.60416,11.17916 -8.63926,19.47626 -0.0251,5.94631 0.47148,8.03907 3.24441,13.6717 4.99793,10.15223 15.02609,18.58135 26.72588,22.4643 5.96653,1.98019 18.00085,1.1882 23.2915,-1.53283 z M 278.40251,296.25 c 1.39769,-11.24917 4.72696,-51.29063 4.42658,-53.23908 -0.28777,-1.86657 -3.33447,-0.0175 -24.26138,14.72409 -13.16276,9.27229 -24.06676,17.28763 -24.2311,17.81184 -0.25943,0.82758 41.07098,25.37493 42.81955,25.43181 0.3609,0.0115 0.92175,-2.11616 1.24635,-4.72866 z m -6.52804,68.97929 -6.62554,-3.7293 L 270.11939,353 c 2.67874,-4.675 4.87273,-8.79812 4.87552,-9.16248 0.006,-0.75159 -16.02316,-10.17111 -16.44758,-9.66553 -0.15144,0.18039 -2.40094,4.04052 -4.99886,8.57801 -2.59793,4.5375 -5.09363,8.25 -5.54603,8.25 C 246.73777,351 236,344.66612 236,343.92012 c 0,-0.36216 2.08818,-4.34415 4.6404,-8.84889 3.05724,-5.39612 4.30319,-8.52764 3.65202,-9.17881 -1.24409,-1.24409 -14.291,-8.89472 -15.15331,-8.88582 -0.35151,0.004 -2.80619,3.82863 -5.45485,8.5 -2.64866,4.67137 -5.08391,8.4934 -5.41166,8.4934 -0.32776,0 -3.38871,-1.63372 -6.80214,-3.63049 l -6.2062,-3.63048 4.86786,-8.27073 C 212.80946,313.9194 215,309.79267 215,309.29775 c 0,-1.16481 -14.725,-9.55651 -16.01261,-9.1255 -0.53851,0.18026 -3.12467,4.0119 -5.74704,8.51476 l -4.76793,8.18701 -7.20731,-3.99735 -7.20731,-3.99735 3.96891,-7.68966 c 4.73653,-9.17689 6.25053,-17.57746 5.79099,-32.1318 -0.17473,-5.53422 0.0427,-10.06124 0.48316,-10.06004 0.44049,0.001 7.1333,1.59687 14.87293,3.54594 7.73961,1.94907 14.16263,3.41157 14.27338,3.25001 0.401,-0.585 4.55283,-16.55973 4.55283,-17.51764 0,-0.5408 -12.0375,-4.05177 -26.75,-7.80217 -14.7125,-3.7504 -26.94925,-6.97804 -27.19277,-7.17255 -0.42931,-0.34287 2.70751,-10.8094 13.0516,-43.54886 4.23448,-13.4023 5.85324,-17.0598 10.86992,-24.55981 6.9912,-10.45194 16.31393,-20.75088 25.83552,-28.54079 3.79961,-3.10856 7.13465,-5.65195 7.41119,-5.65195 0.27656,0 1.24269,1.93732 2.14698,4.30515 1.94497,5.09284 7.37331,10.61354 13.62756,13.85941 5.97935,3.1032 19.47011,3.34388 25.2927,0.45123 3.75504,-1.86549 3.8146,-1.86362 6,0.18793 3.37433,3.16771 10.75174,6.15236 15.20729,6.15236 5.30984,0 11.68692,-3.00544 14.36884,-6.77188 1.19404,-1.67686 2.66132,-5.49045 3.26063,-8.47463 2.28168,-11.36127 -5.20639,-19.80951 -18.20928,-20.54425 -6.48568,-0.36646 -6.84827,-0.52028 -7.82392,-3.31902 -0.56268,-1.61412 -1.94691,-4.23218 -3.07606,-5.81794 -1.91742,-2.69274 -1.93633,-2.91731 -0.28661,-3.40001 4.68739,-1.37151 14.77954,-2.70594 24.78749,-3.27755 l 11.05856,-0.63159 -0.37231,3.90389 c -0.29854,3.13053 0.28788,4.89173 2.9602,8.8904 2.71169,4.05761 4.79458,5.72895 11.18141,8.97206 6.56192,3.33204 9.04172,4.04581 15.12318,4.3529 8.64298,0.43645 15.00017,-1.85312 18.57655,-6.69042 l 2.26119,-3.05841 5.849,4.10283 c 7.72872,5.42139 20.20928,18.54698 26.14546,27.49674 17.44646,26.30341 24.76157,63.47431 19.13398,97.22701 -3.02417,18.13801 -12.39634,41.60406 -19.96019,49.97635 -1.91296,2.11741 -3.4781,4.2453 -3.47808,4.72864 2e-5,0.48334 1.52474,2.09537 3.38828,3.58229 3.9898,3.18345 7.61169,10.12678 7.61169,14.59191 0,2.67564 0.60714,3.47369 3.93393,5.17088 2.16364,1.10383 4.63864,3.0131 5.49999,4.24285 3.27645,4.67779 1.11494,13.3085 -3.90598,15.59618 -3.3083,1.50737 -8.68918,1.53398 -11.92646,0.059 -2.04968,-0.9339 -3.29998,-0.75621 -7.03616,1 -5.61276,2.63831 -15.12497,2.84584 -22.06434,0.48134 -4.19727,-1.43015 -7.94101,-4.78444 -27.6235,-24.75 L 310.10927,300.5 l -6.71852,6.67315 -6.71855,6.67316 10.16391,10.72542 C 312.42625,330.47071 317,335.59062 317,335.94931 c 0,0.3587 -2.07686,1.6612 -4.61524,2.89443 -12.97164,6.3021 -24.39572,15.77442 -29.10668,24.1339 -1.86664,3.31231 -3.70534,6.01305 -4.08599,6.00166 -0.38065,-0.0115 -3.67357,-1.69889 -7.31762,-3.75 z m 118.62552,33.83564 c -11.44321,-2.78584 -17.36035,-11.66016 -14.61609,-21.92067 2.52039,-9.42343 7.86836,-13.5346 17.69452,-13.60233 11.04689,-0.0762 19.44808,7.47746 19.39962,17.44247 -0.0438,9.00727 -4.96199,15.53778 -13.47805,17.89653 -4.42062,1.22441 -4.70263,1.23019 -9,0.184 z m 42.87831,18.49815 c -6.03922,-2.62841 -8.12097,-9.29246 -4.86795,-15.5831 1.93069,-3.73354 4.62767,-5.14766 9.97157,-5.22845 8.33403,-0.12596 13.6353,6.38571 11.53841,14.17298 -1.87926,6.97904 -9.17387,9.88889 -16.64203,6.63857 z m -118.23884,2.2895 C 303.69295,416.55866 294,404.14971 294,392.78973 c 0,-8.37656 6.71843,-18.03712 15.54829,-22.35715 4.68738,-2.29334 6.40393,-2.624 11.31124,-2.17902 3.18189,0.28851 7.58105,1.44071 9.77587,2.56044 l 3.99064,2.03587 1.83461,-3.40664 c 2.27955,-4.23289 5.58725,-6.46834 9.80553,-6.62692 7.01643,-0.26379 13.72238,6.11067 13.73008,13.05134 0.005,4.63291 -6.35728,11.13235 -10.89766,11.13235 -2.94163,0 -3.08888,0.17103 -2.36766,2.75 1.18889,4.25124 0.59374,11.72142 -1.21202,15.2134 -6.20855,12.00601 -18.85679,18.205 -30.37946,14.88918 z M 197.94043,393.88561 c -27.74223,-15.98677 -51.43553,-29.70006 -52.65179,-30.47397 -2.20344,-1.40207 -2.17699,-1.46709 7.3894,-18.15936 5.28041,-9.21376 10.15909,-17.35727 10.84149,-18.0967 1.02753,-1.11339 2.37829,-0.69016 7.8606,2.46301 3.64093,2.09406 6.61987,4.1651 6.61987,4.60227 0,0.4372 -2.3095,4.85684 -5.13222,9.82144 -2.82274,4.96462 -4.96023,9.17503 -4.75001,9.35648 0.21022,0.18144 3.95353,2.40466 8.31842,4.94045 l 7.93619,4.61054 5.38991,-9.21764 c 2.96444,-5.0697 5.56019,-9.38794 5.76831,-9.59607 0.20813,-0.20812 3.3084,1.33556 6.8895,3.4304 l 6.51107,3.80884 -1.81662,3.06234 c -0.99915,1.68431 -3.45865,5.82121 -5.46558,9.19317 -2.00693,3.37195 -3.64897,6.37006 -3.64897,6.66248 0,1.16827 16.27251,9.82988 16.99635,9.04691 0.42721,-0.46211 2.98816,-4.74343 5.69098,-9.51402 l 4.91423,-8.67382 6.58864,3.67485 6.58864,3.67484 -5.44923,9.2477 c -2.99707,5.08623 -5.18657,9.67268 -4.86555,10.1921 0.92236,1.49242 15.59501,9.33242 16.24648,8.68093 0.3223,-0.3223 2.88896,-4.58549 5.70366,-9.47375 l 5.11761,-8.88774 7.08445,4.06593 7.08446,4.06593 -10.42862,18.04835 c -5.73574,9.92659 -10.53271,18.15245 -10.65993,18.27966 -0.12723,0.12724 -22.92951,-12.84878 -50.67174,-28.83555 z m 176.55956,39.76412 c -4.77121,-2.18915 -6.97505,-5.3096 -6.85959,-9.71263 0.28144,-10.7334 12.69824,-15.44461 20.4019,-7.74095 2.38215,2.38214 2.9577,3.81534 2.9577,7.365 0,8.46526 -8.59041,13.71769 -16.50001,10.08858 z M 496,452.74085 496,409.4817 475.4178,388.99085 C 448.92908,362.61969 439.06264,350.09536 429.16905,330.28332 418.80298,309.52511 416.49914,291.83327 421.97859,275.06554 439.91843,220.16748 426.73498,158.46189 389.06048,120.99126 366.21258,98.267021 339.44509,86.632435 306.90062,85.280192 287.08279,84.456755 273.14659,86.494835 250.49999,93.528435 242.51165,96.009459 239.98252,96.322624 228,96.314419 212.67529,96.304179 204.87994,94.65961 190.76207,88.459648 169.87133,79.285312 155.13943,68.260787 128.44148,41.822477 L 106.38297,19.97847 62.941486,20.239232 19.5,20.499994 l -0.257271,64.68046 -0.25727,64.680456 36.25727,32.63072 c 38.345824,34.51038 45.310341,41.60443 54.933401,55.95508 27.0479,40.33592 30.93241,83.15479 11.05884,121.90063 -3.6889,7.19192 -4.27576,9.01688 -3.13648,9.75342 3.94362,2.54956 134.72155,77.89296 136.16433,78.44661 1.23303,0.47315 2.27111,-0.33797 3.84378,-3.00347 4.92865,-8.35345 17.06984,-14.43644 30.39339,-15.22777 14.83671,-0.88119 33.20032,5.65958 60.87683,21.68322 10.32678,5.97881 15.15723,9.75881 32.59883,25.50974 L 402.4513,496 l 46.77435,0 46.77435,0 0,-43.25915 z"
     id="path2989"
     style="fill:#ffffff" />
</svg>
