<?xml version="1.0" encoding="UTF-8" standalone="no"?>
<!-- Created with Inkscape (http://www.inkscape.org/) -->

<svg
   xmlns:dc="http://purl.org/dc/elements/1.1/"
   xmlns:cc="http://creativecommons.org/ns#"
   xmlns:rdf="http://www.w3.org/1999/02/22-rdf-syntax-ns#"
   xmlns:svg="http://www.w3.org/2000/svg"
   xmlns="http://www.w3.org/2000/svg"
   xmlns:sodipodi="http://sodipodi.sourceforge.net/DTD/sodipodi-0.dtd"
   xmlns:inkscape="http://www.inkscape.org/namespaces/inkscape"
   id="svg2"
   version="1.1"
   inkscape:version="0.48.3.1 r9886"
   width="400"
   height="400"
   sodipodi:docname="Icon.3_72.png">
  <metadata
     id="metadata8">
    <rdf:RDF>
      <cc:Work
         rdf:about="">
        <dc:format>image/svg+xml</dc:format>
        <dc:type
           rdf:resource="http://purl.org/dc/dcmitype/StillImage" />
        <dc:title></dc:title>
      </cc:Work>
    </rdf:RDF>
  </metadata>
  <defs
     id="defs6" />
  <sodipodi:namedview
     pagecolor="#ffffff"
     bordercolor="#666666"
     borderopacity="1"
     objecttolerance="10"
     gridtolerance="10"
     guidetolerance="10"
     inkscape:pageopacity="0"
     inkscape:pageshadow="2"
     inkscape:window-width="1855"
     inkscape:window-height="1056"
     id="namedview4"
     showgrid="false"
     inkscape:zoom="0.59"
     inkscape:cx="200"
     inkscape:cy="200"
     inkscape:window-x="65"
     inkscape:window-y="24"
     inkscape:window-maximized="1"
     inkscape:current-layer="svg2" />
  <path
     style="fill:#000000"
     d="m 0,1.5258789e-5 400,0 L 400,400.00002 l -400,0 z"
     id="rect3024" />
  <path
     id="path2989"
     style="fill:#ffffff"
     d="m 208.01203,303.99386 c 12.63697,-6.4469 20.01471,-20.24372 19.96352,-37.33295 -0.0291,-9.70701 -1.13181,-15.00124 -4.69222,-22.52732 -8.87948,-18.76968 -28.7053,-23.63614 -41.85035,-10.27262 -13.09148,13.30906 -16.11681,35.94159 -7.30908,54.67924 6.70135,14.25649 22.29554,21.36775 33.88813,15.45365 z m 87.0729,55.0705 c 8.6215,-7.71903 20.25389,-21.14414 19.18689,-22.14389 -0.4245,-0.39775 -9.77182,-5.77476 -20.77182,-11.94892 -11,-6.17416 -20.11077,-11.31683 -20.24617,-11.42815 -0.13539,-0.11132 1.1215,-2.72751 2.79308,-5.81376 l 3.03924,-5.61136 3.20693,1.85117 c 21.64579,12.49482 41.1548,22.95649 41.62735,22.32258 6.5861,-8.83511 21.89657,-34.92949 20.94084,-35.69049 -0.1987,-0.15821 -12.14968,-2.45433 -26.55774,-5.10249 -14.40805,-2.64817 -26.71464,-5.1351 -27.34797,-5.52652 C 289.51179,279.08023 291.58094,268 293.19134,268 c 0.57725,0 13.35181,2.30526 28.38791,5.12279 15.0361,2.81754 27.94169,4.89128 28.67908,4.60832 C 352.368,276.92156 364,243.99679 364,238.83485 c 0,-2.34438 1.26291,-2.37045 -36.22818,0.74785 -25.65142,2.13354 -31.19849,2.35092 -31.89638,1.25 -0.46465,-0.73299 -0.85171,-3.6019 -0.86013,-6.37536 L 295,229.41468 l 35.75,-2.85214 c 19.6625,-1.56868 36.06655,-3.12604 36.45345,-3.46079 C 369.23817,221.34125 373.4887,168 371.59427,168 c -0.39397,0 -18.44399,9.02651 -40.11116,20.05891 l -39.39485,20.0589 -2.94859,-5.84112 -2.94858,-5.84111 42.45086,-21.28389 C 362.71156,158.06997 370.99922,153.53534 370.61874,152.1839 370.358,151.25776 369.84146,148.025 369.47087,145 367.78725,131.25709 358.94722,96.996289 357.08627,97.001707 356.76382,97.002645 338.275,114.10188 316,135 c -22.275,20.89812 -40.74381,37.99735 -41.04179,37.99829 -0.29799,9.4e-4 -2.44591,-1.93844 -4.77315,-4.30973 l -4.23136,-4.31144 42.99681,-40.3307 42.99682,-40.330705 -4.57079,-8.84989 C 341.98463,64.426082 334.29943,52.739268 326.3835,42.941872 c -4.61538,-5.712359 -5.9343,-6.80583 -6.93326,-5.748094 -1.12235,1.188384 -79.36991,114.628482 -85.89577,124.528152 l -2.78309,4.22193 6.21508,6.77807 c 10.45544,11.40254 17.26953,24.60108 20.92654,40.53359 5.73789,24.99833 2.58084,50.24563 -9.24733,73.95209 l -5.34248,10.7076 5.7005,3.51855 c 13.14771,8.11523 19.78068,20.5844 21.60219,40.60948 0.67525,7.42341 0.71002,7.49532 7.7762,16.07917 4.40192,5.34737 7.56544,8.37497 8.32879,7.97096 0.67697,-0.3583 4.4363,-3.52136 8.35406,-7.02901 z M 121.34507,358.1619 c 4.93887,-6.06178 5.49357,-7.24744 6.15768,-13.1619 1.01541,-9.04306 3.90814,-19.90393 6.84483,-25.69921 3.52787,-6.96192 10.57844,-14.40583 16.80407,-17.74153 2.94159,-1.57611 5.49333,-2.9792 5.67054,-3.11798 0.1772,-0.13878 -0.76978,-1.98234 -2.1044,-4.0968 -5.0069,-7.93252 -11.17623,-24.3023 -13.88569,-36.84448 -1.96499,-9.09596 -1.64514,-33.3216 0.56111,-42.5 4.45634,-18.53913 11.01984,-31.19476 22.39968,-43.19071 3.58009,-3.77391 5.13314,-6.13171 4.61081,-7 -1.85716,-3.08723 -86.823897,-126.434665 -87.924914,-127.641865 -0.98715,-1.082352 -2.3404,0.0443 -7.206769,6 -7.621865,9.328013 -15.891866,22.053721 -21.12698,32.509766 l -4.094143,8.17719 42.46878,39.822809 c 23.357826,21.90255 42.471376,40.17774 42.474556,40.61153 0.003,0.4338 -1.73611,2.65611 -3.86508,4.93848 l -3.87084,4.14975 -3.97206,-3.43848 C 119.10163,168.04731 100.79372,150.975 80.602019,132 60.410318,113.025 43.509126,97.364834 43.043814,97.199632 42.079331,96.857206 38.048273,108.6613 35.086818,120.5 c -1.726895,6.90343 -2.69718,12.09988 -5.642161,30.21712 l -0.522948,3.21713 42.039146,21.05796 C 94.082385,186.57409 113,196.50384 113,197.05833 c 0,0.55449 -1.14484,3.26739 -2.54409,6.02868 l -2.54409,5.02052 -39.578294,-20.05377 C 46.565463,177.02419 28.585304,168 28.377615,168 c -1.577387,0 0.720897,38.27294 2.987669,49.75316 L 32.5,223.5 l 36.354447,2.96765 36.354443,2.96765 -0.41673,5.76131 c -0.2292,3.16871 -0.6954,6.03996 -1.03598,6.38054 -0.34059,0.34059 -15.002106,-0.58752 -32.581156,-2.06246 -17.579051,-1.47495 -32.868413,-2.53164 -33.976361,-2.3482 -1.958723,0.32428 -1.922835,0.64809 1.297278,11.70486 4.30575,14.78448 9.517148,28.19644 11.208259,28.84538 0.736835,0.28275 13.633734,-1.78784 28.659775,-4.60132 C 93.390017,270.30194 106.14302,268 106.70397,268 c 1.46524,0 3.58933,11.2007 2.27781,12.01126 -0.56478,0.34906 -12.941728,2.84203 -27.504327,5.53995 C 66.509687,288.32419 55,290.91891 55,291.52022 55,293.65094 75.2014,327 76.492092,327 c 0.136919,0 10.094711,-5.57518 22.128426,-12.3893 L 120.5,302.22141 l 3.19339,5.59067 3.19339,5.59066 -16.69339,9.3919 C 85.628101,336.61536 85,336.99637 85,338.07724 c 0,0.54612 6.321482,7.31442 14.047738,15.04067 11.413632,11.41364 14.312292,13.82818 15.458622,12.87681 0.77598,-0.64401 3.8534,-4.16878 6.83871,-7.83282 z M 258.62831,356.25 c -1.25017,-29.02437 -5.69183,-39.15212 -20.12831,-45.89607 -8.83291,-4.12626 -10.92407,-4.10697 -15.62961,0.1442 -7.03086,6.35196 -13.9024,8.84063 -24.37039,8.82624 -10.21634,-0.014 -14.73315,-1.55022 -22.88662,-7.78377 -5.60953,-4.28864 -7.19613,-4.27551 -16.20168,0.13408 -13.20848,6.46756 -18.6416,19.26483 -20.05769,47.24427 L 138.69196,372 l 60.30738,0 60.30737,0 -0.6784,-15.75 z" />
</svg>
