<?xml version="1.0" encoding="UTF-8" standalone="no"?>
<!-- Created with Inkscape (http://www.inkscape.org/) -->

<svg
   xmlns:dc="http://purl.org/dc/elements/1.1/"
   xmlns:cc="http://creativecommons.org/ns#"
   xmlns:rdf="http://www.w3.org/1999/02/22-rdf-syntax-ns#"
   xmlns:svg="http://www.w3.org/2000/svg"
   xmlns="http://www.w3.org/2000/svg"
   xmlns:sodipodi="http://sodipodi.sourceforge.net/DTD/sodipodi-0.dtd"
   xmlns:inkscape="http://www.inkscape.org/namespaces/inkscape"
   id="svg2"
   version="1.1"
   inkscape:version="0.48.3.1 r9886"
   width="400"
   height="400"
   sodipodi:docname="6_06.png">
  <metadata
     id="metadata8">
    <rdf:RDF>
      <cc:Work
         rdf:about="">
        <dc:format>image/svg+xml</dc:format>
        <dc:type
           rdf:resource="http://purl.org/dc/dcmitype/StillImage" />
        <dc:title></dc:title>
      </cc:Work>
    </rdf:RDF>
  </metadata>
  <defs
     id="defs6" />
  <sodipodi:namedview
     pagecolor="#ffffff"
     bordercolor="#666666"
     borderopacity="1"
     objecttolerance="10"
     gridtolerance="10"
     guidetolerance="10"
     inkscape:pageopacity="0"
     inkscape:pageshadow="2"
     inkscape:window-width="1855"
     inkscape:window-height="1056"
     id="namedview4"
     showgrid="false"
     inkscape:zoom="0.59"
     inkscape:cx="200"
     inkscape:cy="200"
     inkscape:window-x="65"
     inkscape:window-y="24"
     inkscape:window-maximized="1"
     inkscape:current-layer="svg2" />
  <path
     style="fill:#000000;fill-opacity:1;stroke:none"
     d="m 0,0 400,0 0,400 -400,0 z"
     id="rect3020" />
  <path
     id="path2989"
     style="fill:#ffffff"
     d="M 361.58587,360.29088 C 365.11364,359.35086 368,358.14206 368,357.60466 c 0,-3.84077 -9.47365,-33.60668 -16.16083,-50.77681 l -4.93537,-12.67215 6.53346,-13.32785 c 3.59341,-7.33032 8.1521,-18.27785 10.13041,-24.32785 4.59663,-14.05717 9.47436,-32.4941 8.60355,-32.51983 -0.36917,-0.0109 -2.7944,2.35159 -5.38939,5.25 l -4.71817,5.26983 -0.0318,-11.125 c -0.0175,-6.11875 -0.32781,-12.60492 -0.68957,-14.41371 -0.64639,-3.23194 -0.7412,-3.12619 -5.49172,6.125 -2.65868,5.17754 -4.61411,8.28871 -4.34539,6.91371 0.57931,-2.96426 2.47076,-29.84002 2.48496,-35.30902 0.005,-2.09496 -0.4037,-3.5534 -0.90921,-3.24098 -0.5055,0.31242 -3.543,5.28143 -6.75,11.04224 -5.47518,9.83521 -7.35205,12.21044 -7.31537,9.25776 0.0335,-2.69431 -6.35008,-31.75 -6.97549,-31.75 -0.36578,0 -1.71824,4.1625 -3.00548,9.25 -1.28723,5.0875 -2.55178,9.6338 -2.81009,10.10288 -0.25832,0.46908 -2.27634,-2.68092 -4.4845,-7 -7.41648,-14.50644 -15.47717,-25.33733 -29.569,-39.73097 C 275.11964,127.2054 258.79953,115.38808 216,89.466811 178.58827,66.808631 166.78395,58.140662 155.75339,45.227428 c -3.16063,-3.700085 -7.21063,-9.538264 -9,-12.973729 -1.78936,-3.435466 -3.52427,-6.247966 -3.85535,-6.25 -1.11254,-0.0068 -6.77297,13.421973 -9.06099,21.496301 -2.93526,10.358397 -3.1162,28.450789 -0.38921,38.915537 6.65236,25.528173 21.01776,44.258943 48.04599,62.646263 16.26538,11.06534 24.55446,21.08703 47.50792,57.4382 23.36952,37.01006 33.93345,49.67636 50.21576,60.20933 C 291.11975,274.40884 305.79499,279 318.50362,279 l 5.58795,0 4.04735,8.75 c 10.19695,22.04487 19.39731,47.30426 24.40374,67 1.01358,3.9875 2.01977,7.25 2.23597,7.25 0.21621,0 3.27946,-0.76911 6.80724,-1.70912 z m -47.5958,2.24876 4.26878,-4.96036 -4.87942,-4.32923 c -8.42619,-7.47606 -20.53725,-17.08558 -29.97737,-23.78554 l -9.09794,-6.4571 -1.20669,-8.7537 C 272.43375,309.43917 271.23401,302.575 270.43134,299 c -2.1585,-9.6137 -9.64162,-32.98808 -10.40903,-32.51379 -0.36513,0.22567 -1.4968,6.73131 -2.51482,14.45698 -1.01803,7.72568 -2.03813,13.8595 -2.26691,13.63073 -0.22877,-0.22878 -2.38606,-4.7904 -4.79397,-10.13694 -4.78595,-10.62677 -18.88553,-35.97218 -20.60102,-37.03241 -0.74031,-0.45753 -0.88916,1.15619 -0.48119,5.21648 0.32489,3.23342 0.88337,10.82895 1.24108,16.87895 l 0.65037,11 -5.88825,-11.5 c -5.99365,-11.70587 -17.99493,-31 -19.28252,-31 -0.39011,0 0.0461,6.4125 0.96934,14.25 0.92324,7.8375 1.59619,14.35499 1.49545,14.48331 -0.10074,0.12832 -2.58587,-2.92715 -5.52251,-6.78994 -6.37501,-8.38552 -30.55168,-33.68706 -31.40791,-32.86921 -0.3306,0.31578 1.19478,5.9197 3.38973,12.45316 2.19495,6.53345 3.99082,12.0347 3.99082,12.22499 0,0.51684 -19.3407,-15.22189 -28.5,-23.19223 C 102.85574,187.10048 69.151622,146.26876 43.99036,99.526245 l -5.368823,-9.973754 -1.808545,3.973754 c -3.095241,6.800895 -7.693957,22.573185 -9.287869,31.854745 -1.976441,11.50908 -1.953582,32.63295 0.04769,44.0744 6.92792,39.60746 33.201913,78.74034 72.927187,108.61883 25.6523,19.29382 57.57423,34.79805 87.2842,42.39324 18.61108,4.75783 26.79047,5.80388 46.29804,5.92099 l 18.58224,0.11155 8.88958,5.5 c 11.84642,7.3294 26.94209,18.5783 37.85048,28.20519 4.8975,4.32215 9.22228,7.73163 9.61064,7.57663 0.38836,-0.155 2.62705,-2.51398 4.97489,-5.24218 z" />
</svg>
