<?xml version="1.0" encoding="UTF-8" standalone="no"?>
<!-- Created with Inkscape (http://www.inkscape.org/) -->

<svg
   xmlns:dc="http://purl.org/dc/elements/1.1/"
   xmlns:cc="http://creativecommons.org/ns#"
   xmlns:rdf="http://www.w3.org/1999/02/22-rdf-syntax-ns#"
   xmlns:svg="http://www.w3.org/2000/svg"
   xmlns="http://www.w3.org/2000/svg"
   xmlns:sodipodi="http://sodipodi.sourceforge.net/DTD/sodipodi-0.dtd"
   xmlns:inkscape="http://www.inkscape.org/namespaces/inkscape"
   id="svg2"
   version="1.1"
   inkscape:version="0.48.3.1 r9886"
   width="400"
   height="400"
   sodipodi:docname="Icons8_12.png">
  <metadata
     id="metadata8">
    <rdf:RDF>
      <cc:Work
         rdf:about="">
        <dc:format>image/svg+xml</dc:format>
        <dc:type
           rdf:resource="http://purl.org/dc/dcmitype/StillImage" />
        <dc:title></dc:title>
      </cc:Work>
    </rdf:RDF>
  </metadata>
  <defs
     id="defs6" />
  <sodipodi:namedview
     pagecolor="#ffffff"
     bordercolor="#666666"
     borderopacity="1"
     objecttolerance="10"
     gridtolerance="10"
     guidetolerance="10"
     inkscape:pageopacity="0"
     inkscape:pageshadow="2"
     inkscape:window-width="1855"
     inkscape:window-height="1056"
     id="namedview4"
     showgrid="false"
     inkscape:zoom="0.59"
     inkscape:cx="200"
     inkscape:cy="200"
     inkscape:window-x="65"
     inkscape:window-y="24"
     inkscape:window-maximized="1"
     inkscape:current-layer="svg2" />
  <path
     style="fill:#000000"
     d="m 0,0 400,0 0,400 -400,0 z"
     id="rect3022" />
  <path
     id="path2989"
     style="fill:#ffffff"
     d="m 367.50165,208 c 6.7238,-26.97894 5.68526,-55.85266 -2.9066,-80.80961 C 354.00954,96.442395 330.57903,68.372484 300.53104,50.441261 282.77669,39.846303 265.5563,33.623799 243.5,29.833382 c -15.62718,-2.68556 -42.83221,-2.159477 -57,1.10225 -26.23334,6.039476 -41.55093,20.945252 -43.17571,42.014935 L 142.70357,81 l 3.89821,0.0014 c 2.14402,7.52e-4 7.63443,0.658892 12.20091,1.462533 21.46045,3.776761 42.87716,12.190679 64.44232,25.317257 5.70169,3.47058 5.7884,3.48794 11.5,2.30155 9.17676,-1.90617 27.0061,-2.50342 34.7993,-1.16572 38.0017,6.52299 65.44249,33.09383 84.25413,81.58301 1.81806,4.68625 5.6,17.26414 8.26874,27.5 1.11638,4.28181 1.21917,4.37878 2.12005,2 0.52073,-1.375 2.01222,-6.775 3.31442,-12 z M 267.19828,333.13015 c 10.69638,-16.31834 19.58998,-38.21341 23.42365,-57.66643 C 292.97995,263.49849 292.96915,239.14179 290.6,226 283.20939,185.004 257.72438,146.56058 221.98985,122.50354 196.47571,105.32701 168.84821,95.212612 142.88409,93.542992 c -19.29573,-1.24081 -35.29895,3.578286 -45.689856,13.758718 -4.77858,4.68178 -11.978132,15.24773 -11.03341,16.19245 0.206523,0.20652 4.417324,2.41111 9.357336,4.8991 17.2067,8.66596 33.29601,24.04828 47.50056,45.41331 3.76878,5.66861 6.99384,10.67876 7.1668,11.13366 0.17297,0.4549 5.57112,1.33509 11.9959,1.95597 23.78936,2.29899 44.6015,11.31103 60.48986,26.19323 26.61844,24.93277 39.37108,62.45882 38.16759,112.31237 -0.22425,9.28964 -0.0152,16.20718 0.48052,15.9008 0.48261,-0.29826 3.12811,-3.97586 5.87889,-8.17245 z M 86.282176,370.46514 C 99.520268,363.78875 109.3265,356.6735 120,346 c 17.61549,-17.61549 28.69111,-38.59722 33.6729,-63.79019 2.57018,-12.99744 2.319,-37.52978 -0.52113,-50.89822 -7.22298,-33.99837 -26.60519,-65.3455 -52.54258,-84.9779 -16.108744,-12.19294 -32.799458,-15.17682 -47.199729,-8.43812 -26.481884,12.39237 -34.431871,48.14818 -14.963554,67.29998 2.625233,2.58255 8.436363,6.58423 12.913622,8.89263 27.417645,14.13603 44.495592,31.37174 51.932091,52.41182 5.80651,16.42835 5.72128,33.77107 -0.26826,54.58646 C 99.536527,333.2042 89.586315,353.93191 81.584848,365.74592 78.513181,370.28117 76,374.21867 76,374.49592 c 0,0.99525 1.421002,0.43819 10.282176,-4.03078 z" />
</svg>
