<?xml version="1.0" encoding="UTF-8" standalone="no"?>
<!-- Created with Inkscape (http://www.inkscape.org/) -->

<svg
   xmlns:dc="http://purl.org/dc/elements/1.1/"
   xmlns:cc="http://creativecommons.org/ns#"
   xmlns:rdf="http://www.w3.org/1999/02/22-rdf-syntax-ns#"
   xmlns:svg="http://www.w3.org/2000/svg"
   xmlns="http://www.w3.org/2000/svg"
   xmlns:sodipodi="http://sodipodi.sourceforge.net/DTD/sodipodi-0.dtd"
   xmlns:inkscape="http://www.inkscape.org/namespaces/inkscape"
   id="svg2"
   version="1.1"
   inkscape:version="0.48.3.1 r9886"
   width="400"
   height="400"
   sodipodi:docname="Icons8_77.png">
  <metadata
     id="metadata8">
    <rdf:RDF>
      <cc:Work
         rdf:about="">
        <dc:format>image/svg+xml</dc:format>
        <dc:type
           rdf:resource="http://purl.org/dc/dcmitype/StillImage" />
        <dc:title></dc:title>
      </cc:Work>
    </rdf:RDF>
  </metadata>
  <defs
     id="defs6" />
  <sodipodi:namedview
     pagecolor="#ffffff"
     bordercolor="#666666"
     borderopacity="1"
     objecttolerance="10"
     gridtolerance="10"
     guidetolerance="10"
     inkscape:pageopacity="0"
     inkscape:pageshadow="2"
     inkscape:window-width="1855"
     inkscape:window-height="1056"
     id="namedview4"
     showgrid="false"
     inkscape:zoom="0.59"
     inkscape:cx="200"
     inkscape:cy="200"
     inkscape:window-x="65"
     inkscape:window-y="24"
     inkscape:window-maximized="1"
     inkscape:current-layer="svg2" />
  <path
     style="fill:#000000"
     d="m 0,0 400,0 0,400 -400,0 z"
     id="rect3026" />
  <path
     id="path2989"
     style="fill:#ffffff"
     d="m 257.1816,92.718812 c -4.03251,-4.858874 -5.47755,-16.312033 -2.72876,-21.627618 2.50971,-4.853236 14.90007,-8.502172 29.04716,-8.554328 8.94462,-0.03298 10.59539,0.255524 15.64151,2.733602 3.10283,1.523757 7.46217,4.745662 9.68744,7.159787 3.75517,4.073883 9.17105,13.220571 9.17105,15.48867 0,0.583418 -1.93774,0.397979 -4.75,-0.454567 -14.78573,-4.482347 -33.04652,-2.4392 -53.33979,5.968033 -0.87525,0.362606 -2.10163,0.04189 -2.72861,-0.713579 z m 90.87915,107.696958 c -11.84353,-12.13264 -22.65103,-17.32154 -37.84958,-18.17236 -10.68381,-0.59808 -11.30137,-1.1042 -11.36497,-9.31395 -0.0681,-8.79542 3.62375,-11.94369 13.9689,-11.9121 17.34693,0.053 33.01039,7.78453 38.76084,19.1325 3.068,6.0544 5.05129,18.06959 3.82164,23.15227 l -0.89758,3.71008 -6.43925,-6.59644 z M 58.398939,309.42319 c -19.567293,-10.29227 -24.35627,-30.83985 -12.666512,-54.34693 3.145313,-6.32495 4.313599,-7.75275 7.073576,-8.64485 5.030484,-1.62598 8.959805,-0.57408 13.308548,3.56278 l 3.931969,3.74039 -5.011686,9.88271 c -4.300395,8.48009 -5.15043,11.13822 -5.989269,18.72892 -1.026613,9.28988 0.15577,18.41322 3.389319,26.15219 0.804685,1.92588 1.328047,3.5016 1.163029,3.5016 -0.165019,0 -2.504557,-1.15956 -5.198974,-2.57681 z M 288.47598,323.25765 C 284.36747,308.04464 276.56501,295.34414 263.32853,282.32377 256.62086,275.7256 254,272.46306 254,270.71127 c 0,-3.11512 5.0832,-9.5596 9.82501,-12.45615 7.42075,-4.53298 12.35199,-2.21346 22.54592,10.605 10.83471,13.62419 14.13095,22.35631 13.43615,35.59391 -0.33851,6.44939 -1.07944,9.53083 -3.57292,14.85928 -5.46123,11.67037 -5.64625,11.76444 -7.75818,3.94434 z M 286.13605,355.25 c 14.74608,-14.97056 18.35074,-19.68613 23.3723,-30.57535 5.43865,-11.79365 6.61136,-21.72627 4.01301,-33.98922 -2.53527,-11.96517 -9.55432,-24.30807 -20.5776,-36.18543 -2.04181,-2.2 -4.28352,-5.8 -4.98159,-8 -2.73618,-8.62325 -8.84948,-15.38225 -18.19697,-20.11898 -4.49081,-2.27567 -7.00853,-2.72424 -19.38945,-3.45454 -12.83072,-0.75682 -25.18524,-2.95138 -32.51466,-5.77565 -6.0615,-2.33569 -12.40908,-9.80948 -12.86778,-15.15083 -0.43526,-5.06846 0.0919,-6.39078 4.0488,-10.15484 l 4.0421,-3.84516 8.86993,0 c 16.11493,0 29.84416,3.81338 49.1339,13.64724 8.42224,4.29364 11.89962,5.51623 17,5.97692 7.67111,0.69288 15.10092,-1.69738 22.25451,-7.15954 2.49561,-1.90554 5.179,-3.46462 5.9631,-3.46462 0.7841,0 4.60723,1.59169 8.49584,3.53708 9.54177,4.77355 18.57929,14.54173 27.60289,29.83449 3.79741,6.43568 7.22646,11.90027 7.6201,12.14356 0.77222,0.47726 7.36932,-22.57095 8.9881,-31.40162 3.43725,-18.75063 -1.08473,-36.3328 -12.30448,-47.84179 C 348.01358,154.35306 330.43974,147 317.8186,147 c -3.45686,0 -5.93877,-0.70157 -8.59004,-2.42816 -10.96211,-7.13888 -21.17007,-7.21583 -37.4,-0.28195 -14.67482,6.2695 -29.63809,10.95266 -47.0823,14.73568 -13.91012,3.0166 -14.89647,3.10603 -17.25,1.56394 C 205.49038,159.27521 205,158.12875 205,154.75359 c 0,-3.8362 0.52409,-4.69901 6.04581,-9.95331 11.47976,-10.92377 33.73901,-23.91933 45.00491,-26.2751 5.43116,-1.13568 11.35749,-5.04069 16.63344,-10.96018 4.02671,-4.51786 5.71661,-5.64823 9.8388,-6.58113 8.18734,-1.852899 21.08143,-1.421177 28.66761,0.95985 5.97104,1.8741 7.9068,3.22433 18,12.55541 6.22018,5.75052 11.57676,10.4657 11.9035,10.47818 0.7162,0.0274 -5.07745,-28.030659 -7.53213,-36.47731 C 327.684,68.273833 313.50728,53.184144 296.5,49.051321 c -7.42949,-1.80539 -20.11856,-1.454408 -29.70157,0.821551 -6.61339,1.570677 -9.34224,1.792348 -12.72046,1.033311 -5.64757,-1.268925 -13.74911,0.245735 -20.25551,3.78696 -7.38283,4.018244 -13.14933,11.001535 -17.01377,20.603851 -1.81571,4.511653 -5.88895,13.512073 -9.05165,20.000932 -6.4069,13.144924 -9.68949,16.846474 -19.23463,21.689614 -20.64316,10.47418 -40.9639,1.88874 -58.54847,-24.736514 C 118.44645,74.79697 106.56285,49.679003 101.00789,31.02649 L 98.91531,24 61.957655,24 25,24 l 0,25.814788 0,25.814787 3.527887,1.682332 C 40.243408,82.89865 57.6206,96.771709 74.019284,113.62991 98.710749,139.01326 113.71526,162.76177 114.68886,178 c 0.22841,3.575 0.0544,7.00155 -0.38678,7.61457 C 112.75276,187.7675 86.628358,198.42852 68,204.50984 57.554555,207.9198 50.125133,212.68273 45.663751,218.82939 42.192524,223.61186 38,233.55395 38,237.00309 c 0,1.06044 -1.546336,4.75605 -3.436301,8.21249 -19.475255,35.61699 -8.93935,67.83842 26.54031,81.1669 6.119477,2.29887 38.86376,9.98308 39.562561,9.28428 0.18495,-0.18495 -4.402267,-5.69813 -10.19381,-12.25151 -12.690255,-14.35959 -16.383936,-21.20152 -17.188426,-31.83872 -0.328085,-4.33804 -0.05119,-9.37993 0.683285,-12.44155 1.029003,-4.28937 1.676573,-5.25127 3.883649,-5.76877 9.073286,-2.12747 19.05796,-10.26826 23.046692,-18.79064 10.26961,-21.9422 11.29223,-23.71898 17.02098,-29.57361 3.68504,-3.76601 8.05242,-7.01513 11.63297,-8.65435 5.18234,-2.37256 6.51135,-2.56809 13.84046,-2.03624 12.79057,0.92815 26.78809,6.57204 42.548,17.15561 16.75244,11.2501 30.54268,25.62302 37.15814,38.72816 5.65556,11.20361 16.121,19.48351 26.93574,21.31065 3.46729,0.58579 4.89963,1.67973 9.4968,7.25308 6.1889,7.5031 12.4974,19.13709 14.85487,27.39504 2.21887,7.77242 1.99384,15.18999 -0.90547,29.84609 -1.36003,6.875 -2.47451,12.6125 -2.47662,12.75 -0.022,1.43459 3.6365,-1.82928 15.13222,-13.5 z" />
</svg>
