<?xml version="1.0" encoding="UTF-8" standalone="no"?>
<!-- Created with Inkscape (http://www.inkscape.org/) -->

<svg
   xmlns:dc="http://purl.org/dc/elements/1.1/"
   xmlns:cc="http://creativecommons.org/ns#"
   xmlns:rdf="http://www.w3.org/1999/02/22-rdf-syntax-ns#"
   xmlns:svg="http://www.w3.org/2000/svg"
   xmlns="http://www.w3.org/2000/svg"
   xmlns:sodipodi="http://sodipodi.sourceforge.net/DTD/sodipodi-0.dtd"
   xmlns:inkscape="http://www.inkscape.org/namespaces/inkscape"
   id="svg2"
   version="1.1"
   inkscape:version="0.48.3.1 r9886"
   width="400"
   height="400"
   sodipodi:docname="6_12.png">
  <metadata
     id="metadata8">
    <rdf:RDF>
      <cc:Work
         rdf:about="">
        <dc:format>image/svg+xml</dc:format>
        <dc:type
           rdf:resource="http://purl.org/dc/dcmitype/StillImage" />
        <dc:title></dc:title>
      </cc:Work>
    </rdf:RDF>
  </metadata>
  <defs
     id="defs6" />
  <sodipodi:namedview
     pagecolor="#ffffff"
     bordercolor="#666666"
     borderopacity="1"
     objecttolerance="10"
     gridtolerance="10"
     guidetolerance="10"
     inkscape:pageopacity="0"
     inkscape:pageshadow="2"
     inkscape:window-width="1855"
     inkscape:window-height="1056"
     id="namedview4"
     showgrid="false"
     inkscape:zoom="0.59"
     inkscape:cx="200"
     inkscape:cy="200"
     inkscape:window-x="65"
     inkscape:window-y="24"
     inkscape:window-maximized="1"
     inkscape:current-layer="svg2" />
  <path
     style="fill:#000000;fill-opacity:1;stroke:none"
     d="m 0,0 400,0 0,400 -400,0 z"
     id="rect3026" />
  <path
     id="path2989"
     style="fill:#ffffff"
     d="M 294.25,192.31568 C 317.50408,180.80151 320,179.32673 320,177.10069 320,172.49234 307.76944,73.502884 307.13303,72.960367 c -0.34817,-0.296798 -14.44358,-0.296798 -31.32314,0 L 245.11978,73.5 230.49551,95 c -8.04335,11.825 -15.15976,22.04839 -15.81426,22.71865 -0.93198,0.95443 -2.21892,0.54935 -5.93562,-1.86834 -2.6101,-1.69784 -4.71976,-3.59624 -4.68814,-4.21865 C 204.0891,111.00925 211.85963,99.25 221.32532,85.5 l 17.21034,-25 19.83092,-0.27147 c 15.20081,-0.208087 19.71385,-0.558305 19.32952,-1.5 -2.09007,-5.12105 -12.99293,-30.299257 -13.23788,-30.570493 -0.39813,-0.440867 -112.71475,4.882472 -113.5204,5.380394 -0.33419,0.206538 -6.37771,15.357384 -13.43006,33.668546 -7.05235,18.311163 -12.87069,33.374573 -12.92966,33.474243 -0.059,0.0997 -7.75066,1.39478 -17.09266,2.87802 -9.34199,1.48324 -17.523212,3.20169 -18.180489,3.81878 -1.038902,0.97538 -32.190103,70.65673 -32.636949,73.00478 -0.0924,0.48554 6.356998,5.98665 14.331998,12.22468 l 14.5,11.34188 91,0.28065 c 50.05,0.15435 91.225,0.40553 91.5,0.55816 0.275,0.15264 12.0875,-5.45999 26.25,-12.47249 z M 81.098306,257.60674 c 1.042068,-1.70871 3.307382,-7.38174 5.03403,-12.60674 4.721308,-14.28712 8.104618,-21.13419 12.229598,-24.75 l 3.707656,-3.25 -10.195772,0 -10.195774,0 -7.561943,-5.75 c -15.901827,-12.09154 -15.574102,-11.87452 -14.694156,-9.73014 2.104961,5.1297 4.70141,17.54465 7.096679,33.93285 1.443164,9.874 3.224695,19.39054 3.958958,21.14788 2.500499,5.98453 7.306931,6.43987 10.620724,1.00615 z m 224.701354,55.97858 c 3.93177,-2.05981 8.86737,-7.53003 10.64966,-11.8032 2.8051,-6.72545 2.02843,-11.84389 -4.12091,-27.15789 L 306.65683,260.5 306.21019,247.75075 c -0.50639,-14.45503 1.16305,-26.16072 5.87396,-41.18676 1.5508,-4.94645 2.66748,-9.14569 2.48152,-9.33165 -0.25202,-0.25203 -31.90722,14.92341 -34.50751,16.54283 -0.24301,0.15134 0.96492,3.07634 2.68428,6.5 4.15064,8.26491 5.83716,13.65328 7.33418,23.43244 1.64576,10.75081 0.41563,17.94368 -5.36503,31.3707 -7.41195,17.2161 -7.80697,19.84941 -4.07367,27.15584 1.96427,3.84426 8.06739,9.72995 11.7529,11.33419 4.07969,1.77582 10.03716,1.78337 13.40884,0.017 z m -222.501918,9.06364 c 4.415127,-1.84476 9.46039,-7.84277 10.282321,-12.22404 2.088752,-11.13401 -8.816972,-22.00567 -19.603589,-19.54236 -4.811827,1.09887 -7.445559,2.62703 -9.89553,5.74167 -10.432395,13.26264 3.760011,32.48298 19.216798,26.02473 z m 135.253068,48.39681 c 6.35041,-2.75456 11.08723,-7.5988 14.91825,-15.25656 6.07269,-12.13858 4.61863,-19.61854 -7.43208,-38.23209 -8.39328,-12.96428 -10.03887,-18.91067 -10.03296,-36.25453 0.005,-13.75717 2.01967,-27.52755 5.59249,-38.21907 3.12881,-9.36283 6.43979,-15.13893 12.22042,-21.31889 L 238.27368,217 l -59.38684,0.0902 c -39.22934,0.0596 -58.2706,0.4121 -56.09825,1.03859 4.94009,1.42468 14.05989,11.26869 19.37279,20.91119 7.69793,13.97114 12.21397,31.81523 10.44217,41.25976 -0.36494,1.94527 -2.6609,6.10909 -5.10214,9.25293 -7.99934,10.30157 -9.17149,17.13208 -4.21899,24.58559 2.64114,3.97491 9.79093,7.86175 14.46159,7.86175 10.35007,0 19.64956,-10.75811 17.80388,-20.59641 -0.33822,-1.80288 -2.16465,-5.44373 -4.05872,-8.09077 -7.08578,-9.90266 -7.90571,-12.58311 -7.89596,-25.81282 0.01,-13.09392 1.6207,-20.64716 6.02435,-28.24443 4.10621,-7.08413 11.56952,-9.26809 18.08859,-5.2932 9.43466,5.75263 16.39384,32.1801 14.36145,54.53763 -1.1686,12.85544 -2.67338,16.824 -10.16582,26.81048 -8.89513,11.85607 -12.90319,20.60844 -12.8962,28.16131 0.007,7.60019 1.19215,11.87161 4.92847,17.76317 7.03553,11.09388 21.92814,15.31462 34.61676,9.81081 z" />
</svg>
