<?xml version="1.0" encoding="UTF-8" standalone="no"?>
<!-- Created with Inkscape (http://www.inkscape.org/) -->

<svg
   xmlns:dc="http://purl.org/dc/elements/1.1/"
   xmlns:cc="http://creativecommons.org/ns#"
   xmlns:rdf="http://www.w3.org/1999/02/22-rdf-syntax-ns#"
   xmlns:svg="http://www.w3.org/2000/svg"
   xmlns="http://www.w3.org/2000/svg"
   xmlns:sodipodi="http://sodipodi.sourceforge.net/DTD/sodipodi-0.dtd"
   xmlns:inkscape="http://www.inkscape.org/namespaces/inkscape"
   id="svg2"
   version="1.1"
   inkscape:version="0.48.3.1 r9886"
   width="400"
   height="400"
   sodipodi:docname="Icon.7_38.png">
  <metadata
     id="metadata8">
    <rdf:RDF>
      <cc:Work
         rdf:about="">
        <dc:format>image/svg+xml</dc:format>
        <dc:type
           rdf:resource="http://purl.org/dc/dcmitype/StillImage" />
        <dc:title></dc:title>
      </cc:Work>
    </rdf:RDF>
  </metadata>
  <defs
     id="defs6" />
  <sodipodi:namedview
     pagecolor="#ffffff"
     bordercolor="#666666"
     borderopacity="1"
     objecttolerance="10"
     gridtolerance="10"
     guidetolerance="10"
     inkscape:pageopacity="0"
     inkscape:pageshadow="2"
     inkscape:window-width="1855"
     inkscape:window-height="1056"
     id="namedview4"
     showgrid="false"
     inkscape:zoom="0.59"
     inkscape:cx="200"
     inkscape:cy="200"
     inkscape:window-x="65"
     inkscape:window-y="24"
     inkscape:window-maximized="1"
     inkscape:current-layer="svg2" />
  <path
     style="fill:#000000"
     d="m 0,0 400,0 0,400 -400,0 z"
     id="rect3020" />
  <path
     id="path2989"
     style="fill:#ffffff"
     d="m 98.525015,190.75877 c 6.586245,-11.40767 12.266305,-20.74517 12.622355,-20.75 0.35605,-0.005 6.85344,3.58134 14.43865,7.96924 7.58521,4.38791 13.88364,7.87541 13.99652,7.75 C 140.53726,184.66734 146,174.71703 146,174.03869 c 0,-0.85049 -40.0236,-24.39177 -40.50425,-23.82399 -0.13284,0.15691 -5.804072,9.8743 -12.602748,21.59419 -9.414039,16.22837 -12.536293,20.8776 -13.095489,19.5 -2.99162,-7.37 -31.863831,-107.623835 -31.173451,-108.2445 0.815073,-0.732767 110.590608,-27.203199 110.992898,-26.763977 0.10055,0.109773 -5.41123,9.823 -12.24838,21.584949 -6.83715,11.761949 -12.3046,21.508825 -12.14988,21.659724 0.15471,0.150898 26.6063,15.424614 58.7813,33.941594 32.175,18.51697 58.818,33.9731 59.20667,34.34694 0.38866,0.37384 -1.95675,5.17671 -5.21204,10.67305 -3.25529,5.49633 -5.93579,10.46101 -5.95667,11.03261 -0.0532,1.45741 11.11319,7.71524 12.04618,6.75086 C 255.41105,194.91858 273,164.19034 273,163.24376 c 0,-0.49692 -26.54661,-16.16754 -58.99246,-34.82362 -32.44586,-18.65608 -58.99586,-34.186363 -59,-34.511746 -0.004,-0.325384 7.60873,-13.712884 16.91751,-29.75 C 183.04453,45.001825 188.33322,35 187.34322,35 186.51444,35 151.01686,43.325 108.45972,53.5 65.902582,63.675 30.783155,72 30.416552,72 c -0.366604,0 -0.418237,1.2375 -0.114741,2.75 0.471744,2.350982 43.851395,149.11328 45.285297,153.2095 0.529376,1.51226 1.433075,0.0466 22.937907,-37.20073 z M 290.5,346.1109 c 60.57086,-14.59281 77.97563,-19.1227 77.89093,-20.27246 -0.22734,-3.08618 -45.8172,-155.69302 -46.40357,-155.33063 -0.33841,0.20915 -8.42229,13.88672 -17.96417,30.3946 -9.54189,16.50788 -17.6131,29.8707 -17.93604,29.69514 C 285.76422,230.422 259.625,215.39275 228,197.19922 196.375,179.0057 169.825,163.86896 169,163.56204 c -1.12002,-0.41668 -6.75632,8.54846 -22.25,35.39105 -11.4125,19.772 -20.75,36.11386 -20.75,36.31526 0,0.20139 26.54067,15.6359 58.97928,34.29891 32.4386,18.66301 58.9886,34.2085 59,34.54553 0.0189,0.55782 -10.05717,18.19798 -28.06711,49.13721 -5.24531,9.0109 -6.44025,11.73867 -5.12596,11.70138 0.94258,-0.0267 36.81379,-8.50496 79.71379,-18.84048 z" />
</svg>
