<?xml version="1.0" encoding="UTF-8" standalone="no"?>
<!-- Created with Inkscape (http://www.inkscape.org/) -->

<svg
   xmlns:dc="http://purl.org/dc/elements/1.1/"
   xmlns:cc="http://creativecommons.org/ns#"
   xmlns:rdf="http://www.w3.org/1999/02/22-rdf-syntax-ns#"
   xmlns:svg="http://www.w3.org/2000/svg"
   xmlns="http://www.w3.org/2000/svg"
   xmlns:sodipodi="http://sodipodi.sourceforge.net/DTD/sodipodi-0.dtd"
   xmlns:inkscape="http://www.inkscape.org/namespaces/inkscape"
   id="svg2"
   version="1.1"
   inkscape:version="0.48.3.1 r9886"
   width="400"
   height="400"
   sodipodi:docname="7_46.png">
  <metadata
     id="metadata8">
    <rdf:RDF>
      <cc:Work
         rdf:about="">
        <dc:format>image/svg+xml</dc:format>
        <dc:type
           rdf:resource="http://purl.org/dc/dcmitype/StillImage" />
        <dc:title></dc:title>
      </cc:Work>
    </rdf:RDF>
  </metadata>
  <defs
     id="defs6" />
  <sodipodi:namedview
     pagecolor="#ffffff"
     bordercolor="#666666"
     borderopacity="1"
     objecttolerance="10"
     gridtolerance="10"
     guidetolerance="10"
     inkscape:pageopacity="0"
     inkscape:pageshadow="2"
     inkscape:window-width="1855"
     inkscape:window-height="1056"
     id="namedview4"
     showgrid="false"
     inkscape:zoom="0.59"
     inkscape:cx="200"
     inkscape:cy="200"
     inkscape:window-x="65"
     inkscape:window-y="24"
     inkscape:window-maximized="1"
     inkscape:current-layer="svg2" />
  <path
     style="fill:#000000;fill-opacity:1;stroke:none"
     d="m 0,0 400,0 0,400 -400,0 z"
     id="rect3084" />
  <path
     id="path2989"
     style="fill:#ffffff"
     d="m 120.89159,56.959207 c -0.87546,-0.489934 -5.51075,-2.207723 -10.30065,-3.817311 -4.7899,-1.609588 -8.94525,-3.162868 -9.23411,-3.451734 -0.80572,-0.805722 9.58307,-1.884798 14.60457,-1.516966 4.33475,0.317527 4.49764,0.452514 5.73819,4.755282 1.44677,5.018062 1.3973,5.264875 -0.808,4.030729 z M 200.5,68.437598 C 196.11784,64.799713 180.83442,54.372 173.15186,49.778261 c -4.15302,-2.483272 -5.61832,-3.744922 -3.90061,-3.358484 5.86537,1.319545 19.61157,6.818541 27.24875,10.900526 l 8,4.275907 0.30479,4.701895 c 0.16764,2.586042 -0.0574,4.685712 -0.5,4.665932 C 203.86216,70.944257 202.15,69.80736 200.5,68.437598 z m -47.52636,7.737833 C 148.83414,73.053944 144.42442,69.825 143.17428,69 c -1.59774,-1.054382 -2.99889,-4.002551 -4.71644,-9.923869 -1.34389,-4.633127 -2.25022,-8.617087 -2.01406,-8.853244 0.64934,-0.649344 16.44693,4.791265 17.13235,5.900295 0.5502,0.890243 7.43207,25.97038 7.08001,25.802249 -0.0859,-0.04101 -3.543,-2.628513 -7.6825,-5.75 z M 105.06249,75.753564 C 97.965865,69.018025 92.311207,63.35546 92.496581,63.170086 93.732583,61.934084 123.11037,72.777033 125.7925,75.459166 126.39122,76.057887 119.68675,88 118.75189,88 c -0.43255,0 -6.59278,-5.510896 -13.6894,-12.246436 z M 242,100.69116 c -3.025,-2.213801 -9.4375,-7.139813 -14.25,-10.946695 l -8.75,-6.921604 0,-5.41143 C 219,74.435144 219.14819,72 219.32931,72 c 0.18112,0 3.79661,1.975927 8.03443,4.390949 4.23781,2.415022 10.39536,5.397033 13.68343,6.626692 6.9277,2.590786 7.17749,3.112399 6.74933,14.093838 L 247.5,104.71625 242,100.69116 z M 97.551523,111.08482 C 93.266618,104.0311 85.055117,86.815666 82.090531,78.670799 l -2.121726,-5.8292 2.975875,2.11901 c 1.636731,1.165455 8.698813,7.638158 15.693515,14.383784 l 12.717645,12.264777 -4.24797,7.69541 C 104.77149,113.53706 102.47401,117 102.00236,117 c -0.47165,0 -2.474531,-2.66183 -4.450837,-5.91518 z M 274,118.1176 c -3.025,-0.97617 -6.9625,-2.53852 -8.75,-3.4719 l -3.25,-1.69706 0,-11.91145 0,-11.911449 3.75,0.68713 c 4.84388,0.887565 26.64198,0.890309 31.47558,0.004 l 3.72558,-0.683167 -4.85202,9.683167 c -2.66861,5.325749 -5.6648,12.270669 -6.6582,15.433169 l -1.80618,5.75 -4.06738,-0.0538 C 281.33032,119.91665 277.025,119.09376 274,118.1176 z m -77.17122,-4.77948 C 177.89311,96.125556 180.22981,99.523605 175.81056,82.773265 c -2.16304,-8.198592 -3.7928,-15.275086 -3.62168,-15.725542 0.39539,-1.040843 9.79219,5.250846 22.73029,15.219217 L 205,90.03388 l 0,14.98306 C 205,113.25762 204.81045,120 204.57878,120 c -0.23167,0 -3.71917,-2.99784 -7.75,-6.66188 z m -45.47959,7.85319 c -2.21745,-2.03022 -7.97768,-7.8212 -12.80051,-12.86884 l -8.76878,-9.177529 4.1801,-7.57247 C 136.25905,87.407612 138.50752,84 138.95659,84 c 1.77165,0 27.01176,20.08616 27.87469,22.18277 0.3276,0.79597 -9.54476,17.52212 -10.8001,18.29796 -0.35764,0.22104 -2.46454,-1.25921 -4.68199,-3.28942 z m -71.257106,2.92586 c -1.144039,-4.23986 -2.342676,-10.61322 -2.663638,-14.16301 L 76.844879,103.5 l 4.458723,8.12817 c 2.452298,4.47049 5.63135,9.85384 7.06456,11.963 2.876164,4.23266 2.754299,4.55652 -2.532085,6.72908 l -3.663923,1.50577 -2.08007,-7.70885 z m -26.978204,11.58815 -5.38612,-1.03194 0.668947,-9.51656 c 0.928656,-13.2112 2.730467,-24.69589 3.613452,-23.03202 0.401386,0.75636 1.033189,4.87506 1.404006,9.15266 0.370817,4.2776 1.692127,11.8151 2.936244,16.75 1.244117,4.9349 2.236732,8.91342 2.205811,8.84117 -0.03092,-0.0723 -2.479974,-0.59575 -5.44234,-1.16331 z m 183.25909,10.70878 c -17.29924,-12.06941 -15.98713,-9.88263 -16.83182,-28.05207 -0.39671,-8.53337 -0.51357,-15.72294 -0.2597,-15.97681 0.25387,-0.25388 4.4569,2.55512 9.34007,6.24221 4.88316,3.6871 11.17383,8.17515 13.97926,9.97346 5.04891,3.23641 5.10738,3.33282 5.75,9.48107 0.94367,9.0286 0.79522,25.91804 -0.22781,25.91804 -0.48237,0 -5.76987,-3.41365 -11.75,-7.5859 z M 127.75521,148.75 c -4.24031,-3.9875 -9.70034,-9.6459 -12.13341,-12.57423 l -4.42377,-5.32423 5.0572,-8.67577 c 2.78147,-4.77167 5.22743,-8.87879 5.43548,-9.12693 0.20805,-0.24813 6.15784,5.31559 13.22176,12.36383 l 12.84349,12.81498 -5.54348,8.88617 c -3.04891,4.8874 -5.81441,8.88618 -6.14555,8.88618 -0.33114,0 -4.07142,-3.2625 -8.31172,-7.25 z m 58.63558,6.07845 c -2.68993,-2.29435 -8.32471,-7.51803 -12.52173,-11.60818 l -7.63094,-7.43663 6.11093,-9.7909 6.11093,-9.79091 6.52001,5.82959 c 3.58601,3.20627 9.40859,8.46801 12.93909,11.69275 l 6.41907,5.86316 -5.79228,9.70633 C 195.36011,154.63215 192.42238,159 192.01758,159 c -0.4048,0 -2.93686,-1.8772 -5.62679,-4.17155 z M 282,165.32626 c -1.925,-0.19452 -6.70881,-1.07708 -10.6307,-1.96124 l -7.1307,-1.60756 -0.6193,-4.5183 C 263.27869,154.75409 263,147.56052 263,141.25344 c 0,-10.51313 0.14563,-11.41096 1.75,-10.789 3.43635,1.33215 12.70871,3.53556 14.87831,3.53556 4.02736,0 5.37109,1.08691 5.38647,4.35699 0.0249,5.29064 2.80696,15.34691 5.9904,21.65328 L 294.02879,166 289.7644,165.83996 c -2.34542,-0.088 -5.8394,-0.31919 -7.7644,-0.5137 z M 101.28961,163.1268 c -5.594893,-6.58944 -12.290877,-16.30453 -12.288217,-17.82876 7.66e-4,-0.43892 2.488646,-1.81153 5.528623,-3.05024 l 5.527234,-2.25219 3.20014,3.75219 c 1.76008,2.06371 6.77464,7.46226 11.14347,11.99678 4.36882,4.53452 7.75338,8.39453 7.52123,8.5778 -0.23215,0.18328 -3.70344,1.48028 -7.71398,2.88223 l -7.29189,2.549 -5.62661,-6.62681 z M 67,175.06984 59.5,174.5 56.318494,168.03335 c -1.749828,-3.55665 -3.83708,-9.06915 -4.638336,-12.25 -1.68287,-6.68069 -1.886048,-6.55791 7.319842,-4.4233 5.003971,1.16028 5.713195,1.67504 7.863915,5.70763 1.300154,2.43777 4.330173,7.69482 6.733377,11.68232 3.425809,5.68425 3.995112,7.21109 2.636084,7.06984 C 75.280019,175.72075 71.125,175.38325 67,175.06984 z m 95.5,2.40846 c -7.15,-5.16663 -13.39611,-10.00609 -13.88025,-10.75436 -0.59846,-0.92494 0.49331,-3.57955 3.41035,-8.29221 6.55982,-10.59778 5.25749,-10.57272 16.49768,-0.31755 5.48472,5.00407 11.40593,10.20695 13.15825,11.56196 l 3.18603,2.46365 -4.51092,7.43011 c -2.48101,4.08655 -4.58972,7.40134 -4.68603,7.36618 -0.0963,-0.0352 -6.02511,-4.29115 -13.17511,-9.45778 z m 65.87899,8.15909 c -8.79579,-5.12927 -24.35265,-15.88805 -24.36778,-16.85223 -0.008,-0.52412 10.33303,-18.24131 11.35898,-19.4608 0.0813,-0.0966 3.96872,2.58393 8.63879,5.95675 4.67006,3.37282 11.7193,7.98696 15.66498,10.25364 l 7.17396,4.12125 -5.68702,10.05939 -5.68702,10.05939 -7.09489,-4.13739 z m -96.79315,4.7776 C 125.21363,185.69323 120,181.45889 120,181.00535 c 0,-0.45354 3.4275,-1.97702 7.61666,-3.3855 l 7.61666,-2.56088 11.63334,8.64243 c 6.39834,4.75334 12.01063,8.96486 12.47177,9.35895 0.68721,0.58728 -13.28564,5.93965 -15.506,5.93965 -0.36341,0 -5.87438,-3.86326 -12.24659,-8.58501 z M 118.44724,201.75 c -10.85885,-11.62714 -11.00305,-12.01239 -1.75064,-4.67718 5.05813,4.01003 8.96907,7.65911 8.69098,8.10907 -1.04885,1.69709 -3.09536,0.68512 -6.94034,-3.43189 z M 272.5,205.37339 c -8.33927,-2.48061 -23.5,-8.65519 -23.5,-9.57096 0,-0.473 2.53274,-5.28044 5.62831,-10.6832 l 5.6283,-9.8232 7.1217,1.93923 c 3.91693,1.06657 11.19425,2.18157 16.17182,2.47778 l 9.05013,0.53857 -5.63863,11.12419 c -3.10124,6.11831 -5.89417,12.1367 -6.20651,13.3742 -0.65428,2.59233 -1.43721,2.65145 -8.25512,0.62339 z M 80.435154,201.75 c -3.858135,-3.9875 -7.896873,-8.32839 -8.974973,-9.64642 L 69.5,189.70715 l 9.934198,0.67956 9.934197,0.67955 5.171681,5.71687 c 2.844424,3.14428 6.401534,7.17937 7.904694,8.96687 l 2.73302,3.25 -8.863924,0 -8.863921,0 -7.014791,-7.25 z M 216,212.53182 c -1.925,-1.29137 -8.97261,-5.87682 -15.66135,-10.18989 L 188.17731,194.5 l 3.66134,-6.22928 c 2.01374,-3.42611 3.95147,-6.23861 4.30605,-6.25 0.35459,-0.0114 4.62959,2.7124 9.5,6.05287 4.87042,3.34048 11.8928,7.86033 15.6053,10.04411 3.7125,2.18379 6.75,4.15156 6.75,4.37283 0,1.03864 -7.18044,12.50222 -7.7979,12.44936 -0.38616,-0.0331 -2.2771,-1.11669 -4.2021,-2.40807 z m -33.6429,12.81382 c -4.8714,-3.56103 -12.1196,-8.51716 -16.1071,-11.01362 -3.9875,-2.49647 -7.25,-4.68954 -7.25,-4.8735 0,-0.18396 3.76782,-1.56152 8.37294,-3.06123 l 8.37294,-2.72677 16.14769,10.38504 c 12.21114,7.85333 15.71603,10.55116 14.37706,11.06646 -0.97385,0.37479 -4.75993,2.03521 -8.41353,3.68983 l -6.64289,3.00839 -8.85711,-6.4746 z m -35.03547,6.12987 -13.17128,-14.18609 3.67483,-1.14632 c 3.66799,-1.14418 3.70695,-1.12471 20.96746,10.47932 9.51095,6.3941 17.16095,11.75582 17,11.91494 -0.16095,0.15912 -3.66924,1.82716 -7.79619,3.70677 l -7.50355,3.41746 -13.17127,-14.18608 z M 114.09996,235.49344 101.69992,223 l 8.93807,0 8.93806,0 11.78518,12.5 11.78518,12.5 -8.32321,-0.007 -8.3232,-0.007 -12.40004,-12.49343 z m -26.515157,0.9094 c -4.248097,-6.37844 -7.488287,-11.83269 -7.200422,-12.12055 0.813539,-0.81354 7.264738,4.7133 17.09477,14.64536 L 106.4583,248 l -5.57484,0 -5.574845,0 -7.723812,-11.59716 z M 265,246.38793 c -4.23046,-3.41634 -24.69258,-18.14657 -31.27978,-22.51763 -1.31117,-0.87006 7.16013,-15.14346 8.61686,-14.51865 7.5239,3.22712 22.51175,8.78304 27.37298,10.14703 5.61942,1.57673 6.08374,1.91346 5.33913,3.87195 -0.44855,1.17977 -1.3611,6.41651 -2.02789,11.6372 -0.66679,5.2207 -1.50686,10.9163 -1.86682,12.65691 L 270.5,250.82949 265,246.38793 z m -46.40446,13.65054 c -1.88519,-3.04616 -5.96942,-8.34133 -9.07609,-11.76704 l -5.64848,-6.22858 8.70436,-4.02142 c 4.7874,-2.21179 9.13436,-4.02143 9.65991,-4.02143 1.18142,0 13.67921,8.57396 27.4041,18.80026 l 10.33394,7.69974 -8.23664,0.82833 c -4.53015,0.45558 -13.06893,1.59789 -18.97507,2.53847 l -10.73843,1.71013 -3.4276,-5.53846 z m -55.03286,18.91196 c -1.61553,-0.48271 -6.26595,-1.04161 -10.33428,-1.24201 l -7.39697,-0.36435 -2.70935,-4.92203 c -1.49015,-2.70712 -3.52898,-6.15954 -4.53073,-7.67204 l -1.82137,-2.75 9.38505,0 9.38506,0 6.74128,9 c 6.72565,8.97913 6.82691,9.60744 1.28131,7.95043 z m 19.12431,-3.91608 c -2.0054,-3.09721 -5.65326,-8.30947 -8.10636,-11.58281 -2.4531,-3.27335 -4.14978,-6.21289 -3.7704,-6.53232 0.37937,-0.31942 4.62032,-2.30001 9.42431,-4.4013 l 8.73455,-3.82052 5.26545,4.9013 c 5.59625,5.20921 8.07017,7.99764 11.55609,13.02522 l 2.166,3.12391 -5.72832,2.09855 c -3.15057,1.15419 -8.01585,3.6107 -10.81173,5.45889 l -5.08342,3.36035 -3.64617,-5.63127 z M 112.00552,281.25 c -1.24541,-3.7125 -3.55614,-9.32467 -5.13495,-12.47148 C 105.29176,265.6317 104,262.80027 104,262.48645 c 0,-0.31382 3.4875,-0.43915 7.75,-0.27851 l 7.75,0.29206 5.75014,8.44528 5.75014,8.44527 -6.86349,3.17911 c -3.77491,1.7485 -7.17653,3.68563 -7.55915,4.30472 -1.37109,2.21847 -2.34163,1.02456 -4.57212,-5.62438 z m 5.50176,87.39869 c 9.68787,-4.51141 14.11747,-12.27683 13.23983,-23.2104 -0.57722,-7.19094 -4.05723,-13.38286 -9.63347,-17.14069 l -3.34441,-2.2538 0,-10.58463 c 0,-9.74922 0.18669,-10.7845 2.36539,-13.11706 10.35536,-11.08668 31.55624,-13.30454 54.99462,-5.75306 4.44962,1.43359 4.77499,1.81001 8.38573,9.70121 6.27896,13.72257 6.21184,12.98293 1.59695,17.59782 -5.57572,5.57572 -7.71463,12.89172 -6.07628,20.78357 0.98825,4.76042 2.0047,6.49913 6.32508,10.81951 7.76952,7.76952 17.10682,9.34201 26.63928,4.48632 10.05322,-5.12095 14.85981,-19.10174 10.13434,-29.47748 -2.49465,-5.47752 -9.11862,-11.21544 -14.51636,-12.57461 -4.23302,-1.06589 -4.51163,-1.3706 -6.64637,-7.26896 -1.22548,-3.38603 -3.29542,-8.27897 -4.59987,-10.87319 C 195.06728,297.18903 194,294.60435 194,294.03952 c 0,-1.8014 7.90056,-6.82813 14.81212,-9.4242 13.9891,-5.25449 30.03789,-8.02089 53.41372,-9.20715 l 13.72584,-0.69655 7.52416,6.73409 7.52416,6.73408 0,5.44223 c 0,9.71917 3.88729,15.939 12.5,20.00056 8.219,3.87589 16.39579,2.72636 23.42891,-3.29373 11.02913,-9.44052 8.92724,-28.12102 -3.97331,-35.31272 -5.88894,-3.28292 -14.83206,-3.47185 -19.99517,-0.42243 l -3.53956,2.09053 -7.32835,-6.8647 -7.32834,-6.86469 0.69128,-10.72742 c 1.6793,-26.05951 8.49962,-47.11793 21.84922,-67.46168 4.75147,-7.24088 5.41046,-7.83172 10.33016,-9.26192 2.89021,-0.8402 7.36902,-2.43385 9.95291,-3.54143 4.06283,-1.74154 4.91525,-1.82383 6.30511,-0.60868 5.94662,5.19909 17.2949,6.69242 24.42759,3.21444 7.90343,-3.8538 12.50011,-10.42939 13.40246,-19.17233 1.86087,-18.0301 -17.10803,-30.98807 -33.44516,-22.84694 C 330.31692,136.51593 325,145.32082 325,154.53701 c 0,3.0133 -0.36766,3.35094 -5.75,5.28038 -10.13961,3.63483 -9.49176,3.73783 -13.00119,-2.06712 -4.76777,-7.88635 -6.38204,-13.37131 -6.40129,-21.75027 -0.0193,-8.38713 2.48526,-17.71174 7.38629,-27.5 6.72986,-13.440765 15.28728,-28.088211 17.21504,-29.466405 1.12813,-0.806523 3.82004,-3.107715 5.98203,-5.113759 l 3.93087,-3.647355 4.56913,2.026197 c 15.7227,6.972298 33.21183,-4.142724 33.3151,-21.173043 0.10924,-18.013971 -17.4897,-29.347704 -33.78685,-21.758764 -9.07205,4.224498 -13.94494,12.759534 -13.29387,23.284675 0.36075,5.831824 0.34816,5.861853 -4.4296,10.56067 C 315.50944,68.352085 306.6167,73.0047 298,75.107352 294.92175,75.858508 287.43634,76.42376 281,76.391089 260.37261,76.286381 245.14401,71.059453 222.4006,56.277958 214.75527,51.309072 204.9,45.445272 200.5,43.247293 146.55749,16.300805 83.594792,22.4413 49.662469,57.957863 34.207028,74.134892 26.721843,91.120917 25.033316,113.84846 c -1.504057,20.24456 2.370964,41.12282 11.961771,64.44892 6.616268,16.09163 15.487971,31.596 32.999422,57.67047 27.204777,40.50779 32.948661,54.10328 32.988131,78.08126 l 0.0174,10.54911 -3.566181,1.28955 c -15.913318,5.75433 -19.738285,28.18773 -6.675924,39.15424 7.556295,6.3439 16.174485,7.59981 24.749385,3.60668 z" />
</svg>
