<?xml version="1.0" encoding="UTF-8" standalone="no"?>
<!-- Created with Inkscape (http://www.inkscape.org/) -->

<svg
   xmlns:dc="http://purl.org/dc/elements/1.1/"
   xmlns:cc="http://creativecommons.org/ns#"
   xmlns:rdf="http://www.w3.org/1999/02/22-rdf-syntax-ns#"
   xmlns:svg="http://www.w3.org/2000/svg"
   xmlns="http://www.w3.org/2000/svg"
   xmlns:sodipodi="http://sodipodi.sourceforge.net/DTD/sodipodi-0.dtd"
   xmlns:inkscape="http://www.inkscape.org/namespaces/inkscape"
   id="svg2"
   version="1.1"
   inkscape:version="0.48.3.1 r9886"
   width="400"
   height="400"
   sodipodi:docname="2.svg">
  <metadata
     id="metadata8">
    <rdf:RDF>
      <cc:Work
         rdf:about="">
        <dc:format>image/svg+xml</dc:format>
        <dc:type
           rdf:resource="http://purl.org/dc/dcmitype/StillImage" />
        <dc:title />
      </cc:Work>
    </rdf:RDF>
  </metadata>
  <defs
     id="defs6" />
  <sodipodi:namedview
     pagecolor="#ffffff"
     bordercolor="#666666"
     borderopacity="1"
     objecttolerance="10"
     gridtolerance="10"
     guidetolerance="10"
     inkscape:pageopacity="0"
     inkscape:pageshadow="2"
     inkscape:window-width="513"
     inkscape:window-height="438"
     id="namedview4"
     showgrid="false"
     inkscape:zoom="0.59"
     inkscape:cx="200"
     inkscape:cy="200"
     inkscape:window-x="1354"
     inkscape:window-y="612"
     inkscape:window-maximized="0"
     inkscape:current-layer="svg2" />
  <path
     style="fill:#000000"
     d="m 0,0 400,0 0,400 -400,0 z"
     id="rect3020" />
  <path
     id="path2989"
     style="fill:#ffffff"
     d="m 299.97023,209.19297 c -6.58622,11.40767 -12.26628,20.74517 -12.62233,20.75 -0.35605,0.005 -6.85344,-3.58134 -14.43865,-7.96924 -7.58521,-4.38791 -13.88364,-7.87541 -13.99652,-7.75 -0.95472,1.06067 -6.41746,11.01098 -6.41746,11.68932 0,0.85049 40.0236,24.39177 40.50425,23.82399 0.13284,-0.15691 5.80405,-9.8743 12.60272,-21.59419 9.41404,-16.22837 12.5363,-20.8776 13.09549,-19.5 2.99162,7.37 31.86383,107.62383 31.17345,108.24449 -0.81507,0.73277 -110.59058,27.2032 -110.99287,26.76398 -0.10055,-0.10977 5.41123,-9.823 12.24838,-21.58495 6.83715,-11.76195 12.3046,-21.50882 12.14988,-21.65972 -0.15471,-0.1509 -26.6063,-15.42461 -58.7813,-33.94159 -32.175,-18.51697 -58.818,-33.9731 -59.20667,-34.34694 -0.38866,-0.37384 1.95675,-5.17671 5.21204,-10.67305 3.25529,-5.49633 5.93579,-10.46101 5.95667,-11.03261 0.0532,-1.45741 -11.11319,-7.71524 -12.04618,-6.75086 -1.32691,1.37156 -18.91586,32.0998 -18.91586,33.04638 0,0.49692 26.54661,16.16754 58.99246,34.82362 32.44586,18.65608 58.99586,34.18636 59,34.51174 0.004,0.32538 -7.60873,13.71288 -16.91751,29.75 -11.11948,19.15657 -16.40817,29.15839 -15.41817,29.15839 0.82878,0 36.32636,-8.325 78.8835,-18.5 42.55711,-10.175 77.67654,-18.5 78.04314,-18.5 0.36661,0 0.41824,-1.2375 0.11474,-2.75 -0.47174,-2.35098 -43.85139,-149.11327 -45.28529,-153.20949 -0.52938,-1.51226 -1.43308,-0.0466 -22.93791,37.20073 z M 107.99527,53.840855 c -60.570861,14.59281 -77.975631,19.1227 -77.890931,20.27246 0.22734,3.08618 45.8172,155.693005 46.40357,155.330615 0.33841,-0.20915 8.42229,-13.88672 17.96417,-30.3946 9.541891,-16.50788 17.613101,-29.8707 17.936041,-29.69514 0.32293,0.17555 26.46215,15.2048 58.08715,33.39833 31.625,18.19352 58.175,33.33026 59,33.63718 1.12002,0.41668 6.75632,-8.54846 22.25,-35.39105 11.4125,-19.772 20.75,-36.11386 20.75,-36.31526 0,-0.20139 -26.54067,-15.6359 -58.97928,-34.29891 -32.4386,-18.66301 -58.9886,-34.208485 -59,-34.545515 -0.0189,-0.55782 10.05717,-18.19798 28.06711,-49.13721 5.24531,-9.0109 6.44025,-11.73867 5.12596,-11.70138 -0.94258,0.0267 -36.81379,8.50496 -79.71379,18.84048 z"
     inkscape:connector-curvature="0" />
</svg>
