<?xml version="1.0" encoding="UTF-8" standalone="no"?>
<!-- Created with Inkscape (http://www.inkscape.org/) -->

<svg
   xmlns:dc="http://purl.org/dc/elements/1.1/"
   xmlns:cc="http://creativecommons.org/ns#"
   xmlns:rdf="http://www.w3.org/1999/02/22-rdf-syntax-ns#"
   xmlns:svg="http://www.w3.org/2000/svg"
   xmlns="http://www.w3.org/2000/svg"
   xmlns:sodipodi="http://sodipodi.sourceforge.net/DTD/sodipodi-0.dtd"
   xmlns:inkscape="http://www.inkscape.org/namespaces/inkscape"
   id="svg2"
   version="1.1"
   inkscape:version="0.48.3.1 r9886"
   width="400"
   height="400"
   sodipodi:docname="6_38.png">
  <metadata
     id="metadata8">
    <rdf:RDF>
      <cc:Work
         rdf:about="">
        <dc:format>image/svg+xml</dc:format>
        <dc:type
           rdf:resource="http://purl.org/dc/dcmitype/StillImage" />
        <dc:title></dc:title>
      </cc:Work>
    </rdf:RDF>
  </metadata>
  <defs
     id="defs6" />
  <sodipodi:namedview
     pagecolor="#ffffff"
     bordercolor="#666666"
     borderopacity="1"
     objecttolerance="10"
     gridtolerance="10"
     guidetolerance="10"
     inkscape:pageopacity="0"
     inkscape:pageshadow="2"
     inkscape:window-width="1855"
     inkscape:window-height="1056"
     id="namedview4"
     showgrid="false"
     inkscape:zoom="0.59"
     inkscape:cx="200"
     inkscape:cy="200"
     inkscape:window-x="65"
     inkscape:window-y="24"
     inkscape:window-maximized="1"
     inkscape:current-layer="svg2" />
  <path
     style="fill:#000000;fill-opacity:1;stroke:none"
     d="m 0,0 400,0 0,400 -400,0 z"
     id="rect3050" />
  <path
     id="path2989"
     style="fill:#ffffff"
     d="m 92.673341,116.17829 c -6.455901,-1.58585 -6.136427,-0.6706 -3.605808,-10.33019 l 0.956724,-3.6519 5.737872,1.48219 c 3.155829,0.8152 6.023981,1.78356 6.373681,2.1519 0.34969,0.36834 -0.32531,3.16936 -1.5,6.22449 L 98.5,117.60956 92.673341,116.17829 z m 22.537469,9.74535 -4.1832,-3.07636 1.63448,-3.17364 c 3.59514,-6.98064 4.36586,-7.7285 6.69013,-6.49181 1.18128,0.62854 3.85945,2.5145 5.9515,4.19102 l 3.80372,3.04822 -4.67181,4.28947 c -2.5695,2.3592 -4.75502,4.28946 -4.85672,4.28946 -0.1017,0 -2.06734,-1.38436 -4.3681,-3.07636 z m 16.62591,23.84737 -5.66329,-0.97228 -0.33671,-5.25286 -0.33672,-5.25287 5.85564,-1.20752 c 3.22061,-0.66414 6.13226,-0.93091 6.47035,-0.59283 0.98365,0.98366 1.48907,14.52064 0.53686,14.37899 -0.47457,-0.0706 -3.41133,-0.56588 -6.52613,-1.10063 z m 38.41328,6.66655 c -2.8875,-1.31921 -5.25,-2.57107 -5.25,-2.78191 0,-0.5473 26.99264,-63.820081 27.97491,-65.5753 0.58424,-1.043972 2.12483,1.14933 5.4304,7.731101 2.53812,5.053699 5.00115,9.188549 5.47341,9.188549 0.47225,0 6.29175,-8.8875 12.93221,-19.75 6.64046,-10.8625 12.66952,-20.555963 13.39791,-21.541029 1.16996,-1.582261 2.5948,1.215259 12.2237,24 5.99466,14.185069 11.19447,26.138309 11.55515,26.562759 0.36067,0.42445 4.19121,-4.19783 8.51231,-10.27173 4.3211,-6.073903 8.19801,-10.696181 8.61536,-10.27173 1.13489,1.154195 32.90344,55.26699 33.16183,56.48604 0.22324,1.05318 -7.89674,6.59229 -9.77719,6.66959 -0.55,0.0226 -6.175,-8.92369 -12.5,-19.88065 -6.325,-10.95697 -11.95,-19.79314 -12.5,-19.63594 -0.55,0.15721 -7.20637,9.02637 -14.79193,19.70926 -7.58556,10.68289 -14.38606,20.02036 -15.11222,20.74994 -1.09608,1.10124 -2.10788,0.77136 -5.95807,-1.9425 C 231.087,154.08605 229,152.2102 229,151.71545 c 0,-0.49475 3.40699,-5.62969 7.5711,-11.41098 4.1641,-5.78129 7.82194,-11.16515 8.12854,-11.96413 0.3066,-0.79898 -2.97353,-9.75071 -7.28917,-19.89272 -6.00851,-14.120368 -8.113,-18.148107 -8.98375,-17.193829 -0.62542,0.685415 -4.82749,7.256632 -9.33795,14.602709 l -8.20083,13.35649 4.05603,7.7962 c 2.23082,4.28791 4.05603,8.03119 4.05603,8.3184 0,0.2872 -2.43905,1.84324 -5.42011,3.45785 l -5.42012,2.93566 -5.52376,-10.61055 c -8.7315,-16.77225 -6.95457,-17.4729 -17.18257,6.77512 -4.8984,11.61288 -9.14182,21.07746 -9.42981,21.0324 -0.288,-0.0451 -2.88613,-1.16129 -5.77363,-2.48051 z M 123.5,175.3315 c -2.75,-1.41645 -5.17235,-2.73035 -5.38301,-2.91978 -0.21065,-0.18942 0.78712,-2.81573 2.21726,-5.83625 l 2.60027,-5.49184 5.13095,2.13232 c 2.82202,1.17278 5.34242,2.68341 5.60088,3.35696 0.38718,1.00898 -4.17433,11.53208 -4.9332,11.38053 -0.12823,-0.0256 -2.48315,-1.20548 -5.23315,-2.62194 z m -12.25,24.9451 c -1.7875,-0.22182 -3.25,-0.85054 -3.25,-1.39714 0,-1.96952 2.28939,-10.39884 3.0551,-11.2486 0.86306,-0.95779 10.64489,1.07469 11.45121,2.37935 0.27508,0.44509 -0.0286,3.09987 -0.67483,5.89952 -1.28208,5.55429 -1.21992,5.52863 -10.58148,4.36687 z M 267,213 c -0.825,-0.53316 -2.56875,-0.97627 -3.875,-0.98469 -2.12474,-0.0137 -2.30914,-0.34459 -1.75,-3.14031 0.34375,-1.71875 0.625,-4.64375 0.625,-6.5 0,-3.87437 0.54508,-4.00968 7.5685,-1.87879 7.99719,2.42633 8.06588,2.5605 4.27665,8.35365 -3.4569,5.28505 -4.29898,5.7956 -6.84515,4.15014 z m -31.81127,-2.68416 c -1.17037,-3.17714 -1.80413,-6.08209 -1.40834,-6.45544 0.54962,-0.51847 10.74959,-3.8604 11.7824,-3.8604 0.10988,0 0.72355,2.1375 1.36371,4.75 0.64017,2.6125 1.36923,5.44399 1.62016,6.29221 0.3299,1.1152 -0.72093,1.85787 -3.79522,2.68227 -2.33829,0.62703 -4.96769,1.41634 -5.8431,1.75402 -1.22466,0.47239 -2.08231,-0.71798 -3.71961,-5.16266 z m -23.63671,13.21198 c -1.6214,-3.00585 -2.7464,-5.6105 -2.5,-5.7881 4.3189,-3.11311 9.22656,-5.68558 9.97007,-5.22607 0.52362,0.32362 2.32554,2.58471 4.00427,5.02466 l 3.05223,4.43626 -5.49126,3.51272 c -3.02019,1.93199 -5.62537,3.51114 -5.78929,3.50921 -0.16392,-0.002 -1.62463,-2.46283 -3.24602,-5.46868 z m -97.51072,3.53019 c -2.2002,-3.08991 -5.38285,-10.0498 -4.84264,-10.59001 0.17371,-0.1737 3.01257,-0.93228 6.30859,-1.68573 l 5.99275,-1.36991 2.08119,4.25129 2.08119,4.25128 -4.11904,4.04254 c -2.26547,2.22339 -4.40887,4.04253 -4.7631,4.04253 -0.35423,0 -1.58675,-1.3239 -2.73894,-2.94199 z m 167.93684,3.3845 c -0.51359,-1.35085 -1.59893,-3.74231 -2.41187,-5.31437 l -1.47808,-2.85828 4.84123,-2.63493 C 285.5921,218.18572 288.29702,217 288.94036,217 289.85262,217 295,226.71494 295,228.43671 c 0,0.20882 -2.71981,1.29818 -6.04403,2.42078 l -6.04403,2.0411 -0.9338,-2.45608 z m -94.97662,5.39105 c -0.61631,-2.38346 -1.35199,-5.13015 -1.63484,-6.10375 -0.37636,-1.29548 0.37708,-2.13491 2.80952,-3.13021 7.83029,-3.20397 7.64383,-3.25541 10.34592,2.8545 1.36283,3.08161 2.47788,5.77893 2.47788,5.99405 0,0.21511 -2.3625,1.16783 -5.25,2.11714 -2.8875,0.94931 -5.78503,1.92308 -6.43895,2.16393 -0.71369,0.26286 -1.63689,-1.29437 -2.30953,-3.89566 z M 138,242.27839 c -3.025,-0.78038 -5.86056,-1.77032 -6.30124,-2.19987 -0.44068,-0.42955 0.23432,-3.32651 1.5,-6.43769 1.7051,-4.19132 2.68982,-5.49348 3.80124,-5.02666 0.825,0.34652 3.43007,1.06528 5.78904,1.59724 3.30777,0.74593 4.17422,1.34715 3.78716,2.6279 -0.27603,0.91338 -0.92864,3.60823 -1.45024,5.98855 -0.52159,2.38033 -1.10082,4.44972 -1.28716,4.59864 -0.18634,0.14893 -2.8138,-0.36772 -5.8388,-1.14811 z m 21.99986,-3.95643 1.4e-4,-6.17805 5.54573,-0.69289 c 3.05015,-0.38109 5.73838,-0.50025 5.97384,-0.26479 0.23546,0.23546 0.55238,3.10238 0.70427,6.37094 L 172.5,243.5 l -6.25014,0.5 -6.25015,0.5 1.5e-4,-6.17804 z m 126.54349,14.17873 c -0.39364,-3.15058 -0.33943,-6.06966 0.12047,-6.48683 0.4599,-0.41717 3.36149,-1.03757 6.44797,-1.37867 l 5.61179,-0.62017 0.56512,6.23224 c 0.31082,3.42774 0.48278,6.3146 0.38213,6.41524 -0.10064,0.10065 -2.93447,0.49429 -6.29738,0.87476 l -6.11439,0.69176 -0.71571,-5.72833 z m 46.72161,79.04434 c -4.52927,-4.57636 -12.32811,-11.04462 -17.33075,-14.37391 l -9.09571,-6.05326 -4.77681,2.9392 c -13.24553,8.15006 -29.20461,12.97316 -42.56169,12.86287 l -8,-0.0661 5.01169,-1.78504 c 6.42858,-2.28969 12.81494,-5.54159 18.48831,-9.41416 5.13261,-3.50345 14,-11.5463 14,-12.69819 0,-0.87739 -9.4437,-4.91468 -25.56717,-10.93025 l -11.06716,-4.1291 -1.05282,-10.69856 c -0.57905,-5.88422 -0.99883,-10.77048 -0.93284,-10.85837 0.066,-0.0879 3.32392,0.85772 7.23984,2.10135 9.81979,3.1186 22.15566,9.24134 33.10544,16.43143 l 9.22528,6.05772 6.70846,-9.71535 c 3.68965,-5.34344 7.18827,-10.4312 7.77471,-11.30612 0.94336,-1.4074 2.29767,-1.06978 11.74935,2.92906 l 10.68308,4.51982 -1.55912,3.07095 c -2.57239,5.06673 -11.08269,16.13552 -15.41556,20.05001 l -4.05768,3.66587 5.40752,5.67753 c 7.04261,7.39426 14.24353,17.23159 17.88094,24.42753 1.59859,3.1625 2.78754,5.71978 2.64213,5.68285 -0.14542,-0.0369 -3.97017,-3.81145 -8.49944,-8.38782 z M 371,355.69648 c 0,-0.16693 -1.58408,-5.00443 -3.52018,-10.75 C 359.71744,321.91083 354.5031,298.00204 351.57072,272 349.89718,257.16037 348.0132,225.39362 348.00514,211.87875 L 348,203.2575 l -11.91321,-6.83195 -11.91322,-6.83195 11.56996,-12.33209 11.56995,-12.33208 -0.7114,-18.71472 c -0.39126,-10.29309 -1.0243,-20.45554 -1.40674,-22.58322 l -0.69534,-3.86851 -20.44481,0.17356 -20.44481,0.17356 17.69481,-14.6317 C 331.03733,97.430965 339,90.116915 339,89.224954 c 0,-2.721692 -5.00619,-18.221206 -8.17239,-25.302255 -2.64681,-5.919476 -4.02762,-7.519838 -12.12379,-14.051506 -5.02523,-4.054156 -9.89268,-7.926509 -10.81655,-8.60523 -4.07755,-2.995547 -52.06333,-6.323769 -100.63944,-6.980199 l -41.25217,-0.557459 0.47497,2.885847 C 166.73187,38.201369 167.64187,47.6 168.49287,57.5 c 0.85099,9.9 1.74845,19.219865 1.99435,20.710812 0.34872,2.114313 -4.41116,-2.225618 -21.63151,-19.723019 l -22.07862,-22.43383 -6.13854,0.553319 c -16.61439,1.497595 -61.371771,7.792605 -62.348291,8.769126 -0.137877,0.137877 5.14041,4.700843 11.729528,10.139925 C 76.608904,60.955415 82,65.601689 82,65.841387 c 0,0.239698 -7.713104,0.109462 -17.140231,-0.289414 -15.520584,-0.6567 -17.081904,-0.57323 -16.522966,0.883339 2.369984,6.176079 6.890815,23.999428 8.609709,33.943728 3.84835,22.26381 4.503493,55.49113 1.589603,80.62096 -0.286985,2.475 -2.309186,19.575 -4.493781,38 -2.184595,18.425 -4.477128,39.25195 -5.094518,46.28211 l -1.122528,12.7821 3.783102,4.2179 c 2.080707,2.31984 17.751596,19.68363 34.824199,38.58619 l 31.041091,34.3683 8.49172,-0.68901 c 14.49071,-1.17577 12.85836,0.0909 21.50978,-16.69118 l 7.70118,-14.93878 5.94987,9.27923 c 3.27243,5.10358 6.34495,9.67432 6.82783,10.1572 0.50395,0.50395 6.98422,-4.06228 15.21195,-10.71888 L 197.5,320.03833 l 0.66239,4.73083 c 0.36432,2.60196 0.70182,9.27647 0.75,14.83224 l 0.0876,10.1014 19.75,0.67155 c 19.83833,0.67455 41.80497,1.70162 87.25,4.07945 22.26908,1.16519 65,1.98213 65,1.24268 z" />
</svg>
