<?xml version="1.0" encoding="UTF-8" standalone="no"?>
<!-- Created with Inkscape (http://www.inkscape.org/) -->

<svg
   xmlns:dc="http://purl.org/dc/elements/1.1/"
   xmlns:cc="http://creativecommons.org/ns#"
   xmlns:rdf="http://www.w3.org/1999/02/22-rdf-syntax-ns#"
   xmlns:svg="http://www.w3.org/2000/svg"
   xmlns="http://www.w3.org/2000/svg"
   xmlns:sodipodi="http://sodipodi.sourceforge.net/DTD/sodipodi-0.dtd"
   xmlns:inkscape="http://www.inkscape.org/namespaces/inkscape"
   id="svg2"
   version="1.1"
   inkscape:version="0.48.3.1 r9886"
   width="400"
   height="400"
   sodipodi:docname="6_27.png">
  <metadata
     id="metadata8">
    <rdf:RDF>
      <cc:Work
         rdf:about="">
        <dc:format>image/svg+xml</dc:format>
        <dc:type
           rdf:resource="http://purl.org/dc/dcmitype/StillImage" />
        <dc:title></dc:title>
      </cc:Work>
    </rdf:RDF>
  </metadata>
  <defs
     id="defs6" />
  <sodipodi:namedview
     pagecolor="#ffffff"
     bordercolor="#666666"
     borderopacity="1"
     objecttolerance="10"
     gridtolerance="10"
     guidetolerance="10"
     inkscape:pageopacity="0"
     inkscape:pageshadow="2"
     inkscape:window-width="1855"
     inkscape:window-height="1056"
     id="namedview4"
     showgrid="false"
     inkscape:zoom="0.59"
     inkscape:cx="200"
     inkscape:cy="200"
     inkscape:window-x="65"
     inkscape:window-y="24"
     inkscape:window-maximized="1"
     inkscape:current-layer="svg2" />
  <path
     style="fill:#000000;fill-opacity:1;stroke:none"
     d="m 0,7.6293945e-6 400,0 L 400,400.00001 l -400,0 z"
     id="rect3020" />
  <path
     id="path2989"
     style="fill:#ffffff"
     d="M 71.734467,112.96248 C 53.351771,108.38487 42.424025,88.194189 48.943623,70.852906 56.873271,49.761072 83.405505,43.161739 100.34094,58.068908 c 2.55482,2.248836 5.77614,6.505722 7.35291,9.716653 C 110.05867,72.601272 110.5,74.758186 110.5,81.5 c 0,9.497371 -2.82958,16.603975 -9.1128,22.8872 -7.182721,7.18272 -20.166529,10.93751 -29.652733,8.57528 z m 64.577283,249.41057 c 0.33485,-4.74482 0.77594,-8.79407 0.9802,-8.99834 0.20427,-0.20426 3.25965,0.81387 6.78972,2.26252 16.33437,6.70321 39.30361,12.42989 58.0902,14.48304 14.76838,1.61401 41.82633,0.60525 54.16856,-2.01949 18.62803,-3.96149 40.33754,-12.78419 51.6863,-21.00519 l 4.13418,-2.99478 22.91955,7.8842 C 347.68621,356.32132 358,359.56134 358,359.18506 c 0,-0.37628 -3.42015,-10.94502 -7.60033,-23.48607 l -7.60034,-22.80193 2.46862,-3.69853 c 10.89933,-16.3296 18.97256,-38.93388 21.76137,-60.92978 1.53838,-12.13351 1.27097,-37.46748 -0.52537,-49.77386 -2.64012,-18.0869 -7.70363,-37.18198 -13.90976,-52.45536 l -2.38186,-5.86179 2.14384,-0.57522 c 1.1791,-0.31636 4.61883,-0.61298 7.64383,-0.65915 3.025,-0.0462 6.21836,-0.38981 7.09636,-0.76366 1.22201,-0.52032 -4.72365,-7.4802 -25.35464,-29.67971 -14.82305,-15.95 -29.17241,-31.419003 -31.88747,-34.375562 -2.71505,-2.956559 -5.13269,-5.179327 -5.37254,-4.939485 -0.23984,0.239843 2.8612,16.608846 6.89119,36.375567 l 7.32727,35.93948 7.62324,-0.28035 c 8.83992,-0.3251 8.05634,-1.40117 9.67061,13.28035 3.52174,32.02975 -1.82316,67.44486 -14.50758,96.12658 -2.82994,6.399 -12.34145,22.52953 -15.71401,26.64934 l -2.27243,2.77593 -61.32095,-61.34991 -61.32095,-61.3499 8.70753,-8.2424 c 4.78914,-4.53332 14.11581,-12.82503 20.72594,-18.42602 6.61013,-5.60099 13.41117,-11.4005 15.11342,-12.8878 L 228.5,115.09164 217.37272,103.9241 206.24544,92.75655 l -8.99079,11.87172 c -8.75391,11.55894 -26.05207,32.13654 -29.91711,35.58888 -1.85522,1.65712 -2.59505,1.04385 -21.16594,-17.54538 l -19.24352,-19.26252 2.02306,-6.454623 C 133.3588,82.891859 130.70416,64.926056 122.3614,52.357153 107.01051,29.230066 74.014866,22.55684 50.419551,37.807228 27.565631,52.57843 20.189589,82.441526 33.262401,107.27072 c 3.746746,7.1162 14.534371,17.51176 21.864572,21.06993 12.435084,6.03615 27.453369,7.20477 40.166786,3.12552 l 5.793761,-1.859 18.95624,18.93654 C 130.46969,158.95881 139,167.75536 139,168.0916 c 0,0.8547 -27.57476,24.26011 -38.75,32.89094 -5.0875,3.92916 -9.25,7.46065 -9.25,7.84775 0,0.3871 4.885343,5.57401 10.85632,11.52647 l 10.85631,10.82266 15.5135,-17.83971 C 136.75855,203.52787 146.24257,192.8 149.30174,189.5 l 5.56212,-6 61.06807,60.99693 C 249.51937,278.04524 277,305.81902 277,306.21645 c 0,1.32208 -14.47477,10.51344 -24.67072,15.66571 -27.13762,13.71333 -59.52647,19.70745 -93.28386,17.26379 -22.85624,-1.65453 -21.0865,-0.78608 -20.38275,-10.00225 l 0.58367,-7.6437 -36.19982,-7.34001 C 83.136612,310.12298 66.651631,307.01504 66.413227,307.25344 65.915903,307.75076 133.99083,371 135.02342,371 c 0.37373,0 0.95348,-3.88213 1.28833,-8.62695 z" />
</svg>
