<?xml version="1.0" encoding="UTF-8" standalone="no"?>
<!-- Created with Inkscape (http://www.inkscape.org/) -->

<svg
   xmlns:dc="http://purl.org/dc/elements/1.1/"
   xmlns:cc="http://creativecommons.org/ns#"
   xmlns:rdf="http://www.w3.org/1999/02/22-rdf-syntax-ns#"
   xmlns:svg="http://www.w3.org/2000/svg"
   xmlns="http://www.w3.org/2000/svg"
   xmlns:sodipodi="http://sodipodi.sourceforge.net/DTD/sodipodi-0.dtd"
   xmlns:inkscape="http://www.inkscape.org/namespaces/inkscape"
   id="svg2"
   version="1.1"
   inkscape:version="0.48.3.1 r9886"
   width="400"
   height="400"
   sodipodi:docname="3.svg">
  <metadata
     id="metadata8">
    <rdf:RDF>
      <cc:Work
         rdf:about="">
        <dc:format>image/svg+xml</dc:format>
        <dc:type
           rdf:resource="http://purl.org/dc/dcmitype/StillImage" />
        <dc:title />
      </cc:Work>
    </rdf:RDF>
  </metadata>
  <defs
     id="defs6" />
  <sodipodi:namedview
     pagecolor="#ffffff"
     bordercolor="#666666"
     borderopacity="1"
     objecttolerance="10"
     gridtolerance="10"
     guidetolerance="10"
     inkscape:pageopacity="0"
     inkscape:pageshadow="2"
     inkscape:window-width="1855"
     inkscape:window-height="1056"
     id="namedview4"
     showgrid="false"
     inkscape:zoom="0.417193"
     inkscape:cx="901.60444"
     inkscape:cy="37.022659"
     inkscape:window-x="65"
     inkscape:window-y="24"
     inkscape:window-maximized="1"
     inkscape:current-layer="svg2" />
  <path
     style="fill:#000000;fill-opacity:1;stroke:none"
     d="m 0,0 400,0 0,400 -400,0 z"
     id="rect3021" />
  <path
     style="fill:#ffffff"
     d="m 156.78754,31.772906 c -31.54862,8.54491 -56.36177,22.72359 -78.48718,44.849 -31.61409,31.614084 -48.38409,70.219154 -50.16751,115.487174 -1.86796,47.41369 16.05473,93.0892 49.78748,126.88215 32.83549,32.89409 75.08623,50.31847 121.86721,50.25853 46.46481,-0.0595 88.53134,-17.56333 121.16715,-50.41742 32.3667,-32.58317 49.83202,-74.8089 49.83265,-120.47984 7.6e-4,-55.22477 -24.97822,-104.950344 -69.4998,-138.353064 -12.88464,-9.66682 -24.96076,-16.21328 -42.27736,-22.91855 l -7.27737,-2.81791 -1.40501,2.17306 c -2.24295,3.46906 -10.11913,23.39634 -12.91389,32.67305 -3.80071,12.61578 -6.47133,24.85458 -7.00104,32.084084 -0.25855,3.52875 -0.78452,9.56955 -1.16883,13.42401 -1.58531,15.90019 5.19894,30.61364 16.89952,36.65105 5.88737,3.03784 16.29583,4.92979 21.10636,3.83651 5.79151,-1.31622 16.84619,-5.25918 25.53762,-9.1087 6.54278,-2.89786 8.58485,-3.32598 16,-3.35439 7.12533,-0.0273 9.28835,0.37004 13.37459,2.45691 5.93785,3.03249 10.1311,7.89677 12.41127,14.39741 1.33781,3.814 2.86763,5.74259 6.96818,8.78453 14.83807,11.00742 19.73132,26.3322 13.78681,43.17777 -2.22371,6.30154 -8.50112,18.02387 -9.2506,17.2744 -0.17647,-0.17647 -0.99385,-2.90467 -1.8164,-6.06266 -2.51233,-9.64548 -8.82461,-18.42412 -18.5777,-25.83644 -3.57412,-2.71632 -3.64009,-2.72567 -8,-1.13355 -2.41788,0.88294 -7.32115,1.6535 -10.89615,1.71234 -5.75245,0.0947 -7.65008,-0.4277 -16.5,-4.5421 -11.71937,-5.44842 -22.27091,-8.38316 -35.65053,-9.91561 -8.76688,-1.00412 -10.00301,-0.9332 -13.5,0.77455 -3.51107,1.71462 -3.84947,2.23151 -3.84947,5.87988 0,3.91214 0.1867,4.12344 8.5,9.62019 11.95633,7.90551 26.87176,15.92724 38,20.43693 5.225,2.11742 11.10837,4.89071 13.07415,6.16288 6.90586,4.46916 10.73153,11.93541 11.65652,22.74908 0.49369,5.77142 1.23503,7.95757 4.31387,12.72113 10.12639,15.6675 8.7231,32.09678 -3.85923,45.18258 -4.49849,4.67849 -17.8886,14.25726 -18.73999,13.40587 -0.22611,-0.22612 0.0347,-1.95632 0.57963,-3.84489 2.96894,-10.28988 2.06241,-27.71742 -1.86918,-35.93377 l -1.67478,-3.5 -7.608,-0.0609 c -13.93838,-0.11156 -23.42767,-7.08587 -27.23388,-20.01597 -4.58526,-15.57663 -11.20347,-28.46163 -19.3765,-37.72418 -6.2776,-7.11444 -8.88895,-8.68455 -14.45685,-8.69236 -6.03574,-0.008 -9.54151,2.83877 -10.88593,8.8411 -2.18215,9.74251 3.0162,20.66762 16.86295,35.44001 8.12171,8.66463 11.60638,16.00152 11.52856,24.27312 -0.067,7.12468 -2.58481,13.5588 -7.05508,18.02907 -2.57604,2.57605 -3.25967,4.33555 -4.26734,10.98321 -4.08624,26.9571 -18.73805,40.21921 -46.48892,42.07956 l -9,0.60334 4.1446,-3.61571 c 8.7717,-7.65233 15.15402,-20.74173 17.51342,-35.918 l 1.16585,-7.49903 -3.62185,-3.18002 c -8.38789,-7.36467 -11.34566,-19.55807 -7.80503,-32.17615 7.38236,-26.30914 1.85048,-62.40608 -12.56467,-81.98767 -9.44914,-12.83575 -24.91319,-14.71196 -46.81582,-5.68004 -13.22876,5.4551 -24.78756,4.54028 -33.15774,-2.62429 l -4.08753,-3.49878 -4.45866,2.8276 c -9.21259,5.84245 -16.20908,17.62375 -17.54539,29.54447 L 61.28754,213.40112 56.4931,204.3 c -10.56235,-20.05017 -9.42826,-35.72805 3.49143,-48.26618 3.95998,-3.84304 13.32883,-9.51074 17.42901,-10.5437 1.1693,-0.29459 4.20294,-2.94133 6.74143,-5.88165 7.68899,-8.90613 20.36004,-13.25454 30.63257,-10.51239 2.475,0.66067 10.8,4.25196 18.5,7.98063 20.68099,10.01462 30.12602,13.42992 33.3954,12.0757 3.68314,-1.52561 8.57012,-9.21696 11.46447,-18.04333 4.23733,-12.92178 5.80774,-24.8884 6.36746,-48.520474 0.53139,-22.43588 -0.19924,-32.65666 -3.38511,-47.35448 l -1.59859,-7.37496 -6.62181,0.67034 c -3.642,0.36869 -10.89682,1.82822 -16.12182,3.2434 z"
     id="path3015"
     inkscape:connector-curvature="0" />
</svg>
