<?xml version="1.0" encoding="UTF-8" standalone="no"?>
<!-- Created with Inkscape (http://www.inkscape.org/) -->

<svg
   xmlns:dc="http://purl.org/dc/elements/1.1/"
   xmlns:cc="http://creativecommons.org/ns#"
   xmlns:rdf="http://www.w3.org/1999/02/22-rdf-syntax-ns#"
   xmlns:svg="http://www.w3.org/2000/svg"
   xmlns="http://www.w3.org/2000/svg"
   version="1.1"
   width="512"
   height="512"
   id="svg2">
  <metadata
     id="metadata8">
    <rdf:RDF>
      <cc:Work
         rdf:about="">
        <dc:format>image/svg+xml</dc:format>
        <dc:type
           rdf:resource="http://purl.org/dc/dcmitype/StillImage" />
        <dc:title></dc:title>
      </cc:Work>
    </rdf:RDF>
  </metadata>
  <defs
     id="defs6" />
  <g
     id="g2987">
    <path
       d="m 0,0 512,0 0,512 -512,0 z"
       id="rect3024"
       style="fill:#000000;fill-opacity:1;fill-rule:nonzero;stroke:none" />
    <path
       d="m 262.5,255.32766 c -18.21959,-1.38237 -41.68351,-9.17203 -60.68806,-20.14751 -13.9253,-8.04211 -27.65487,-17.6791 -36.31194,-25.48786 -0.55,-0.49611 2.825,1.14439 7.5,3.64555 22.34277,11.95355 49.83051,21.54096 74,25.81035 11.9698,2.11439 40.37193,1.60196 52,-0.93818 22.74359,-4.96833 44.71027,-15.46463 63,-30.10317 l 4.5,-3.60167 -3.14671,3.99742 c -18.16461,23.07539 -47.27744,41.20855 -72.85329,45.37726 -7.52729,1.22691 -21.43402,1.94598 -28,1.44781 z M 117,384.9423 c 0,-1.68174 0.93549,-7.64424 2.07888,-13.25 7.46622,-36.6053 20.92947,-58.33382 39.0724,-63.05946 18.65283,-4.85844 35.47191,10.19575 44.36155,39.70651 l 2.66271,8.83935 3.19074,-6.33935 c 17.8062,-35.37728 49.12587,-43.80211 72.4066,-19.47701 5.57397,5.82401 12.36423,16.28507 15.18091,23.38766 0.70887,1.7875 1.59568,3.25 1.9707,3.25 0.37501,0 1.72705,-3.2625 3.00452,-7.25 10.37907,-32.39727 31.87641,-48.57028 52.06774,-39.17192 3.02321,1.4072 6.21949,3.21263 7.10286,4.01206 1.44374,1.30657 1.82918,0.86999 3.81243,-4.31831 4.57597,-11.97095 11.04975,-19.21193 20.32622,-22.73504 5.98989,-2.2749 12.11099,-1.67718 18.90115,1.84568 2.77484,1.43964 5.27871,2.61753 5.56417,2.61753 0.28545,0 0.2458,-1.4625 -0.0881,-3.25 -1.16467,-6.23469 -7.5153,-66.47018 -10.0422,-95.25 -2.17267,-24.74538 -4.43218,-54.88999 -7.14056,-95.264084 l -0.62146,-9.264084 -5.39301,4.928902 C 359.49803,118.59034 319.45013,130.43551 271.5,128.5949 c -16.28224,-0.62501 -31.75678,-2.121 -25.5,-2.46521 5.34573,-0.29408 32.78808,-5.23936 47.76697,-8.60791 36.16707,-8.13347 66.17022,-19.714684 89.90003,-34.701411 l 6.61919,-4.180395 -0.6386,-13.069987 C 389.29636,58.381494 388.71162,44.7375 388.34816,35.25 L 387.68733,18 261.34367,18 135,18 l 0,6.849122 c 0,3.767018 -0.28463,10.216278 -0.63251,14.331691 l -0.63251,7.482568 10.88251,3.155474 C 179.22519,59.853644 222.8079,64.934481 263,63.619795 c 17.84271,-0.583636 43.08488,-2.644583 51.92074,-4.239172 7.01768,-1.266467 2.31879,0.560386 -11.44449,4.449432 C 253.70969,77.892441 205.96122,80.686812 165.30507,71.91621 157.08883,70.143751 141.53422,65.359862 134.75,62.518862 133.18992,61.865554 133,62.476471 133,68.148163 133,76.3142 129.54297,133.61356 126.9455,168.5 c -5.01227,67.31933 -12.02176,131.43181 -20.06225,183.5 -3.47758,22.51993 -3.27521,24.44972 3.3135,31.59762 4.82674,5.2364 6.80325,5.62706 6.80325,1.34468 z m 293.18265,3.45482 c 2.46812,-0.71748 9.30482,-21.54835 8.99175,-27.39712 -0.67066,-12.52908 -5.77269,-30.768 -11.40095,-40.75648 -3.96987,-7.04534 -10.44367,-13.69295 -14.27021,-14.65335 -6.73244,-1.68974 -13.58829,8.68357 -16.63629,25.17172 -0.86539,4.68134 -0.71962,6.19244 1.02246,10.59892 4.6896,11.86206 10.09993,35.95954 10.1074,45.01801 l 0.003,3.87882 10.25,-0.68568 c 5.6375,-0.37713 11.00719,-0.90581 11.93265,-1.17484 z m -48.95894,21.35288 10.03061,-9.25 -0.63108,-9.01869 c -2.43497,-34.79756 -15.74072,-64.45997 -28.9229,-64.47757 -8.34259,-0.0111 -17.832,11.50874 -23.88175,28.99178 C 313.21918,369.28728 309,395.20654 309,410.16993 l 0,7.74594 7.75,0.34082 c 4.2625,0.18745 13.75595,0.43138 21.09655,0.54207 L 351.19309,419 l 10.03062,-9.25 z m -168.54807,-5.5 c -1.58207,-41.63151 -11.21455,-72.39896 -24.38965,-77.90386 -3.01093,-1.25805 -3.81058,-1.20768 -7.62689,0.48046 -9.11046,4.02999 -18.49823,21.90349 -23.20136,44.1734 -2.78986,13.2103 -4.3352,28.30741 -3.07764,30.06671 0.61595,0.86169 4.7199,5.69483 9.1199,10.74031 l 8,9.17359 20.90609,0.01 20.90609,0.01 -0.63654,-16.75 z m 97.12042,10.17918 c 0.52481,-13.95644 -3.17681,-34.17127 -8.95961,-48.92918 -7.58749,-19.36354 -17.97301,-29.96509 -29.28996,-29.89918 -16.89362,0.0984 -31.75934,22.96146 -37.42691,57.56163 -2.76596,16.88602 -3.66228,29.38411 -2.17331,30.30434 0.63904,0.39495 8.90005,3.54854 18.35781,7.00798 l 17.19592,6.28989 21,-7.23107 21,-7.23106 0.29606,-7.87335 z m -180.12024,63.95867 c 41.45077,-14.48169 41.86882,-14.60264 46.82418,-13.54739 2.75,0.58562 10.25835,2.20456 16.68522,3.59765 12.01781,2.60498 33.65592,5.99382 46.70206,7.31422 l 7.38728,0.74767 2.9974,8.26249 2.9974,8.26248 35.50026,-0.26248 35.50027,-0.26249 3.05609,-8.5 c 1.68084,-4.675 3.45295,-8.77185 3.938,-9.1041 0.48506,-0.33226 5.37362,-1.14849 10.86348,-1.81385 l 9.98155,-1.20975 16.16816,10.56385 16.16816,10.56385 31.33635,0 c 17.23499,0 31.14164,-0.3375 30.90365,-0.75 -12.04336,-20.8745 -21.82366,-38.43861 -21.54651,-38.69466 0.19865,-0.18353 4.27827,-1.94794 9.06583,-3.9209 l 8.70465,-3.5872 34.05377,4.97638 c 18.72958,2.73701 34.73671,4.97638 35.5714,4.97638 1.30217,0 1.47843,-2.14995 1.24158,-15.14425 L 493.5,425.71149 l -12.68565,-5.44476 -12.68566,-5.44477 5.18566,-6.35591 5.18565,-6.3559 7.75,-0.6842 7.75,-0.6842 0,-17.37088 0,-17.37087 -3.75,-0.0136 c -6.5014,-0.0237 -7.8859,-0.82288 -9.21265,-5.31798 -2.65743,-9.00354 -7.4117,-16.09652 -17.81353,-26.57638 -5.68179,-5.7244 -9.90332,-10.6744 -9.38117,-11 0.52216,-0.32559 9.75732,-6.89199 20.52259,-14.59199 l 19.57322,-14 0.0308,-10.25 c 0.0193,-6.42608 -0.35585,-10.25 -1.00557,-10.25 -1.75843,0 -64.41978,18.09879 -65.16096,18.82077 -0.75411,0.73457 4.12007,36.92853 6.62288,49.17923 0.84274,4.125 1.9914,11.31047 2.55257,15.9677 l 1.02033,8.46771 -6.6031,19.18433 -6.60309,19.18432 -4.14615,0.56297 c -2.28038,0.30963 -10.43837,1.119 -18.12888,1.79861 l -13.98273,1.23565 -15.01727,14.38275 -15.01726,14.38275 -26.66057,-0.67893 -26.66056,-0.67892 -28.33944,9.7859 c -15.58668,5.38224 -29.01443,9.73498 -29.83943,9.67275 -0.825,-0.0622 -11.39432,-3.74789 -23.48737,-8.19036 L 201.52526,439 172.51263,438.98117 143.5,438.96233 131.89887,425.68358 c -9.26913,-10.60954 -13.01993,-14.12166 -18.65935,-17.47197 -8.27205,-4.91434 -17.132026,-12.74157 -21.331054,-18.84465 -1.638121,-2.38093 -3.683971,-7.18812 -4.546334,-10.68266 -1.423953,-5.77025 -1.423919,-7.3101 3.61e-4,-16.769 5.091898,-33.81618 6.885868,-47.00027 6.454113,-47.43203 -0.726562,-0.72656 -72.029086,-19.46868 -74.096483,-19.47652 -1.62826,-0.006 -1.756036,1.07793 -1.5,12.72657 L 18.5,320.46665 34,331.76806 c 8.525,6.21578 16.360553,11.87699 17.412341,12.58045 1.843958,1.23329 1.782531,1.5385 -1.717828,8.53531 -1.996593,3.99095 -3.919728,8.79976 -4.273632,10.68623 C 45.066976,365.45652 44.584763,367 44.349295,367 43.014283,367 23.980761,369.10556 21.25,369.55533 l -3.25,0.5353 0,13.34339 0,13.3434 3.25,0.57432 c 1.7875,0.31587 9.00325,1.11662 16.035,1.77945 l 12.785,1.20514 4.519957,6.79898 c 5.477463,8.23928 16.98889,19.08015 28.233346,26.58871 6.734566,4.49706 8.070713,5.79117 7,6.77977 C 89.095486,441.17579 75,452.65321 58.5,466.00917 42,479.36513 27.841071,490.90187 27.035714,491.64637 25.800722,492.78803 28.881777,493 46.711532,493 l 21.140104,0 41.824184,-14.61215 z"
       id="path2989"
       style="fill:#ffffff" />
  </g>
</svg>
