<?xml version="1.0" encoding="UTF-8" standalone="no"?>
<!-- Created with Inkscape (http://www.inkscape.org/) -->

<svg
   xmlns:dc="http://purl.org/dc/elements/1.1/"
   xmlns:cc="http://creativecommons.org/ns#"
   xmlns:rdf="http://www.w3.org/1999/02/22-rdf-syntax-ns#"
   xmlns:svg="http://www.w3.org/2000/svg"
   xmlns="http://www.w3.org/2000/svg"
   xmlns:sodipodi="http://sodipodi.sourceforge.net/DTD/sodipodi-0.dtd"
   xmlns:inkscape="http://www.inkscape.org/namespaces/inkscape"
   id="svg2"
   version="1.1"
   inkscape:version="0.48.3.1 r9886"
   width="400"
   height="400"
   sodipodi:docname="Icon.5_27.png">
  <metadata
     id="metadata8">
    <rdf:RDF>
      <cc:Work
         rdf:about="">
        <dc:format>image/svg+xml</dc:format>
        <dc:type
           rdf:resource="http://purl.org/dc/dcmitype/StillImage" />
        <dc:title></dc:title>
      </cc:Work>
    </rdf:RDF>
  </metadata>
  <defs
     id="defs6" />
  <sodipodi:namedview
     pagecolor="#ffffff"
     bordercolor="#666666"
     borderopacity="1"
     objecttolerance="10"
     gridtolerance="10"
     guidetolerance="10"
     inkscape:pageopacity="0"
     inkscape:pageshadow="2"
     inkscape:window-width="1280"
     inkscape:window-height="970"
     id="namedview4"
     showgrid="false"
     inkscape:zoom="0.834386"
     inkscape:cx="289.76851"
     inkscape:cy="210.42501"
     inkscape:window-x="0"
     inkscape:window-y="26"
     inkscape:window-maximized="1"
     inkscape:current-layer="svg2" />
  <rect
     style="fill:#000000;fill-opacity:1;stroke:none"
     id="rect3004"
     width="400"
     height="400"
     x="0"
     y="7.6293945e-06" />
  <path
     id="path2987"
     style="fill:#ffffff"
     d="m 44.5,44.792183 c -3.222878,-1.848319 -4.434289,-4.041028 -4.468197,-8.087638 -0.06998,-8.351851 9.989675,-12.033029 15.379303,-5.62782 3.506654,4.167422 3.392302,8.273714 -0.334183,12.000198 -3.121509,3.121509 -7.02194,3.754042 -10.576923,1.71526 z M 62.747236,101.01582 C 59.414445,98.394242 58.629057,94.823553 60.434693,90.50206 63.965824,82.050874 76.170906,83.862841 77.633011,93.055322 78.456354,98.231805 74.339106,103 69.045965,103 c -2.252018,0 -4.794412,-0.80089 -6.298729,-1.98418 z m 38.049124,54.30646 c 1.81299,-3.10106 3.03284,-6.12968 2.71078,-6.73028 -0.32207,-0.6006 -1.2363,-2.217 -2.03162,-3.592 -2.206543,-3.81481 -1.769055,-6.86031 1.44756,-10.07692 3.07406,-3.07407 7.48621,-3.84477 11.06029,-1.93198 1.54483,0.82677 2.60027,0.12247 6.36524,-4.24752 4.11397,-4.77507 4.37778,-5.38844 2.98128,-6.93155 -2.01888,-2.23083 -9.77099,-4.82328 -14.25803,-4.76814 -1.96452,0.0241 -5.3421,0.67456 -7.50574,1.44538 -2.163628,0.77081 -4.235692,1.21495 -4.604584,0.98696 -0.368891,-0.22799 -2.528713,-2.82284 -4.799605,-5.76634 l -4.128893,-5.35181 1.983481,-3.89048 C 91.35171,101.8487 92,98.585909 92,94.484902 92,82.146198 84.325095,73.014203 72.153202,70.870166 l -5.839259,-1.028565 -2.272189,-6.43625 -2.272188,-6.436251 2.543791,-2.000947 c 6.187641,-4.867199 9.397777,-14.553806 7.600456,-22.934426 L 70.834272,27 49.014961,27 27.19565,27 26.097825,30.149223 c -3.897302,11.179807 3.771066,25.831905 15.135595,28.919874 2.346619,0.637623 4.755721,1.290648 5.353559,1.451167 0.597839,0.160519 2.301082,3.711788 3.784985,7.891709 l 2.698005,7.599857 -2.546497,2.744085 c -9.394891,10.12386 -6.415039,28.088675 5.924544,35.717645 4.326459,2.67485 5.779512,3.02644 12.507622,3.02644 l 7.612478,0 5.136061,6.28658 5.136061,6.28658 -0.563056,7.44488 c -0.433535,5.73233 -0.159086,8.50267 1.193096,12.04331 1.591939,4.16843 7.544976,11.46757 9.313055,11.41893 0.394167,-0.0108 2.200028,-2.55694 4.013027,-5.658 z M 332.58331,283 c 2.13065,-17.00271 2.05897,-53.93558 -0.13043,-67.19511 -0.75081,-4.54714 -5.90661,-9.53817 -17.98813,-17.41331 C 295.65283,186.12935 275.44337,178.80257 251.5,175.56419 l -9,-1.21727 7.5,-1.42346 c 4.64172,-0.88097 13.21656,-1.37954 22.5,-1.30821 18.60765,0.14296 30.00679,2.76019 44.75,10.27453 5.3625,2.73317 9.75,4.77863 9.75,4.54547 0,-0.23316 -2.01896,-6.55935 -4.48658,-14.05821 -2.59155,-7.87547 -7.22418,-18.8791 -10.96797,-26.05165 l -6.48139,-12.41736 3.99013,2.24258 c 4.57559,2.57163 13.70262,11.52461 17.5711,17.23603 6.67733,9.85841 13.8485,29.55663 15.87749,43.61336 0.35725,2.475 2.65408,8.55 5.10405,13.5 4.49678,9.08542 7.37005,19.64803 7.3446,27 l -0.0138,4 -2.40052,-4 c -1.32029,-2.2 -3.66875,-5.8 -5.21879,-8 l -2.81827,-4 -0.71138,10.65343 c -0.39127,5.85938 -1.65357,15.27679 -2.80512,20.92756 -2.4486,12.01548 -9.31147,33.19104 -8.40019,25.91901 z M 226.5,355.05689 c -31.03807,-5.19123 -61.73835,-21.87348 -85.09164,-46.23804 -14.42708,-15.05181 -25.39433,-33.02333 -28.82595,-47.23574 -0.60524,-2.50668 -0.11386,-2.1551 3.49405,2.5 6.81949,8.7988 29.67954,30.85995 39.92354,38.52831 27.65799,20.70395 62.01566,37.75149 96.78724,48.02375 6.0841,1.79737 8.80017,3.01622 7.87502,3.53396 -2.09444,1.17211 -28.37838,1.85513 -34.16226,0.88776 z m 34.5,14.46297 c 26.79235,-5.91445 51.59862,-19.42695 70.46609,-38.38436 29.1317,-29.27054 43.93324,-69.2521 40.55718,-109.55202 -1.09187,-13.03363 -1.99791,-17.95923 -5.53271,-30.07798 -10.95779,-37.56788 -39.83398,-70.53733 -75.99056,-86.76239 -19.96722,-8.960175 -34.9468,-12.080081 -58,-12.080081 -18.73683,0 -30.25488,1.819353 -45.88724,7.248195 -59.93059,20.812836 -98.466273,79.559986 -93.558329,142.628446 1.440219,18.50721 4.781571,31.63391 12.208129,47.96033 12.77975,28.09482 35.19819,51.72615 62.38831,65.7637 14.33674,7.40168 26.22375,11.41714 42.34913,14.30564 10.22489,1.83155 40.79906,1.2024 51,-1.04948 z" />
</svg>
