<?xml version="1.0" encoding="UTF-8" standalone="no"?>
<!-- Created with Inkscape (http://www.inkscape.org/) -->

<svg
   xmlns:dc="http://purl.org/dc/elements/1.1/"
   xmlns:cc="http://creativecommons.org/ns#"
   xmlns:rdf="http://www.w3.org/1999/02/22-rdf-syntax-ns#"
   xmlns:svg="http://www.w3.org/2000/svg"
   xmlns="http://www.w3.org/2000/svg"
   xmlns:sodipodi="http://sodipodi.sourceforge.net/DTD/sodipodi-0.dtd"
   xmlns:inkscape="http://www.inkscape.org/namespaces/inkscape"
   id="svg2"
   version="1.1"
   inkscape:version="0.48.3.1 r9886"
   width="400"
   height="400"
   sodipodi:docname="Icon.3_14.png">
  <metadata
     id="metadata8">
    <rdf:RDF>
      <cc:Work
         rdf:about="">
        <dc:format>image/svg+xml</dc:format>
        <dc:type
           rdf:resource="http://purl.org/dc/dcmitype/StillImage" />
        <dc:title></dc:title>
      </cc:Work>
    </rdf:RDF>
  </metadata>
  <defs
     id="defs6" />
  <sodipodi:namedview
     pagecolor="#ffffff"
     bordercolor="#666666"
     borderopacity="1"
     objecttolerance="10"
     gridtolerance="10"
     guidetolerance="10"
     inkscape:pageopacity="0"
     inkscape:pageshadow="2"
     inkscape:window-width="1855"
     inkscape:window-height="1056"
     id="namedview4"
     showgrid="false"
     inkscape:zoom="0.59"
     inkscape:cx="200"
     inkscape:cy="200"
     inkscape:window-x="65"
     inkscape:window-y="24"
     inkscape:window-maximized="1"
     inkscape:current-layer="svg2" />
  <path
     style="fill:#000000"
     d="m 0,0 400,0 0,400 -400,0 z"
     id="rect3022" />
  <path
     id="path2989"
     style="fill:#ffffff"
     d="m 317,57.5 0,-20.5 -112,0 -112,0 0,20.5 0,20.5 112,0 112,0 0,-20.5 z M 225.85079,263.94633 293.62756,191.5 251.31378,191.23926 C 228.0412,191.09586 209,190.85371 209,190.70115 c 0,-0.15256 7.43256,-21.61256 16.51679,-47.68888 9.08424,-26.07633 16.38307,-47.812688 16.21963,-48.303025 C 241.45721,93.871638 116,226.34104 116,227.47345 116,227.76305 133.325,228 154.5,228 c 23.16127,0 38.5,0.37178 38.5,0.93315 0,0.51323 -9.18595,25.60073 -20.41322,55.75 C 161.35951,314.83242 151.84875,340.4 151.45175,341.5 c -1.11775,3.09709 1.48016,0.38902 74.39904,-77.55367 z M 293,368.17637 c 15.94853,-4.19161 28.28161,-18.04292 31.03512,-34.8556 1.33904,-8.17606 1.26699,-191.42212 -0.0796,-202.347 -1.50075,-12.17601 -4.97367,-19.06464 -13.2944,-26.36983 -4.78231,-4.19864 -6.97837,-6.930666 -7.81463,-9.721828 L 301.68342,91 l -6.97763,0 -6.97764,0 0.63136,4.60629 c 0.94706,6.90953 5.18346,13.79793 11.46705,18.64544 3.57716,2.75962 6.23685,5.82513 7.59013,8.74827 2.06265,4.45536 2.08597,5.52037 2.35167,107.37002 l 0.26836,102.87002 -2.37906,5.19656 c -2.68512,5.86506 -8.10471,11.59859 -13.28885,14.05863 -6.93904,3.29279 -15.41027,3.587 -94.87498,3.29502 L 120.5,355.5 l -5.21376,-2.35756 c -2.86757,-1.29665 -7.18907,-4.46931 -9.60332,-7.05034 -8.231323,-8.79995 -7.774222,-1.71218 -7.460598,-115.68347 L 98.5,129.5 100.82497,125 c 1.37074,-2.65309 4.85935,-6.55575 8.5,-9.50885 6.74635,-5.47227 11.11147,-12.68183 12.28347,-20.287689 l 0.66206,-4.29654 -7.37465,0.29654 c -6.48223,0.260654 -7.41296,0.538561 -7.69134,2.296539 -0.76922,4.857833 -2.87715,7.86303 -8.847841,12.61405 -3.513288,2.79561 -7.482393,6.95111 -8.820232,9.23444 C 83.888163,124.98857 84,122.6159 84,232.80619 c 0,113.08672 -0.365839,106.92552 7.004368,117.96249 5.958084,8.9223 14.405252,14.89076 24.995632,17.661 4.56908,1.19519 19.46385,1.44008 88,1.44686 74.61822,0.007 83.12099,-0.15504 89,-1.70017 z" />
</svg>
