<?xml version="1.0" encoding="UTF-8" standalone="no"?>
<!-- Created with Inkscape (http://www.inkscape.org/) -->

<svg
   xmlns:dc="http://purl.org/dc/elements/1.1/"
   xmlns:cc="http://creativecommons.org/ns#"
   xmlns:rdf="http://www.w3.org/1999/02/22-rdf-syntax-ns#"
   xmlns:svg="http://www.w3.org/2000/svg"
   xmlns="http://www.w3.org/2000/svg"
   xmlns:sodipodi="http://sodipodi.sourceforge.net/DTD/sodipodi-0.dtd"
   xmlns:inkscape="http://www.inkscape.org/namespaces/inkscape"
   id="svg2"
   version="1.1"
   inkscape:version="0.48.3.1 r9886"
   width="400"
   height="400"
   sodipodi:docname="Icon.6_97.png">
  <metadata
     id="metadata8">
    <rdf:RDF>
      <cc:Work
         rdf:about="">
        <dc:format>image/svg+xml</dc:format>
        <dc:type
           rdf:resource="http://purl.org/dc/dcmitype/StillImage" />
        <dc:title></dc:title>
      </cc:Work>
    </rdf:RDF>
  </metadata>
  <defs
     id="defs6" />
  <sodipodi:namedview
     pagecolor="#ffffff"
     bordercolor="#666666"
     borderopacity="1"
     objecttolerance="10"
     gridtolerance="10"
     guidetolerance="10"
     inkscape:pageopacity="0"
     inkscape:pageshadow="2"
     inkscape:window-width="1855"
     inkscape:window-height="1056"
     id="namedview4"
     showgrid="false"
     inkscape:zoom="0.59"
     inkscape:cx="200"
     inkscape:cy="200"
     inkscape:window-x="65"
     inkscape:window-y="24"
     inkscape:window-maximized="1"
     inkscape:current-layer="svg2" />
  <path
     style="fill:#000000"
     d="m 0,0 400,0 0,400 -400,0 z"
     id="rect3032" />
  <path
     id="path2989"
     style="fill:#ffffff"
     d="m 283.73462,190.75 c -0.91492,-16.97023 -5.43847,-34.30142 -12.71359,-48.70989 -2.2923,-4.53992 -2.89152,-6.58328 -2.01614,-6.87507 0.68507,-0.22836 3.53176,-1.60951 6.32597,-3.06923 3.89929,-2.03701 5.6453,-3.75175 7.51029,-7.37578 2.40805,-4.6793 2.41412,-4.7631 0.67414,-9.31917 -1.32668,-3.47385 -2.88724,-5.32067 -6.38553,-7.55684 -2.54637,-1.62769 -5.91776,-3.22481 -7.49198,-3.54917 -5.72003,-1.17857 0.24385,-2.47552 11.18392,-2.43215 12.25503,0.0486 22.06591,2.19681 32.45909,7.10735 23.45076,11.07995 40.25008,36.27194 40.99845,61.48061 0.22073,7.43533 0.22023,7.43684 -3.77924,11.55391 -8.00595,8.24135 -26.63129,14.97654 -48.4851,17.53292 -19.60157,2.29292 -17.63186,3.23977 -18.28028,-8.78749 z M 158,163.32975 c 18.3955,-4.76279 29.96843,-15.61372 29.99062,-28.11959 0.0117,-6.59881 -2.37248,-11.46389 -8.29197,-16.92029 -15.81211,-14.57509 -46.58916,-17.61712 -69.36198,-6.85581 -7.36024,3.47809 -14.214838,9.5061 -17.076683,15.01742 -2.281587,4.39386 -2.035346,13.15398 0.509248,18.11673 3.856479,7.52133 15.091975,15.43243 26.144055,18.40844 11.60271,3.12429 26.83794,3.26553 38.08671,0.3531 z m -18,77.99852 c -40.871823,-2.92743 -73.655366,-13.26921 -89.334734,-28.18121 -7.953167,-7.56393 -9.345645,-15.24907 -6.117315,-33.76169 3.99607,-22.91516 13.604526,-42.10112 29.445682,-58.79652 22.218405,-23.416546 50.543837,-35.583589 82.849287,-35.587483 49.91094,-0.006 94.49623,33.729253 108.51586,82.108063 1.37045,4.72913 3.03723,14.04563 3.70396,20.70333 l 1.21224,12.10491 -2.6334,5.38248 c -1.44837,2.96036 -3.50906,6.17493 -4.57931,7.1435 -1.87852,1.70003 -2.1441,1.59957 -7.66878,-2.9008 -6.53955,-5.32708 -9.5357,-7.0114 -17.1043,-9.61538 -27.7962,-9.56329 -59.32532,7.30525 -66.48891,35.57253 -0.69692,2.75 -1.72458,5.33061 -2.2837,5.73469 -0.97487,0.70454 -20.13826,0.7653 -29.51658,0.0936 z m 63,14.11247 c -3.575,-0.77014 -8.975,-2.66867 -12,-4.21896 l -5.5,-2.81869 0.0684,-4.95155 c 0.0393,-2.84249 1.04733,-7.18133 2.3667,-10.18654 l 2.2983,-5.235 2.85286,2.03141 c 9.72128,6.92216 27.61584,3.68253 31.54032,-5.71007 1.2019,-2.87655 1.20033,-3.82989 -0.0111,-6.72926 -0.77626,-1.85786 -1.9073,-3.68442 -2.51342,-4.05902 -5.06876,-3.13267 8.98168,-1.66575 15.86467,1.65633 6.22519,3.00459 13.73432,10.25709 16.71953,16.14811 3.06643,6.05132 4.19004,14.86791 2.20174,17.27631 -5.66774,6.86522 -35.88108,10.67606 -53.88797,6.79693 z m 39.9764,14.05339 c 13.57771,-2.8787 22.6277,-7.6171 27.0236,-14.14903 2.10507,-3.12796 2.48888,-4.83088 2.42959,-10.77994 -0.0388,-3.8934 -0.85927,-9.4183 -1.8276,-12.30683 l -1.75719,-5.24167 5.3276,-5.98507 5.3276,-5.98507 8.5,-0.0416 c 28.94452,-0.14159 59.65442,-9.72503 72.60156,-22.6563 7.22505,-7.2162 8.84369,-11.92969 8.11247,-23.6237 C 366.6834,136.24967 345.35914,106.5023 315.21475,94.093371 302.72432,88.951686 294.78395,87.489613 280,87.609214 c -15.28589,0.123661 -23.79609,1.925868 -36.23699,7.673916 l -7.34005,3.391314 -4.14685,-3.18344 C 199.86189,70.607353 152.10623,63.64363 112.82905,78.073251 63.480194,96.203 29.703489,142.93676 28.79966,194.33709 c -0.173935,9.89158 -0.0165,10.78015 2.993275,16.89387 13.217156,26.84785 63.153969,44.71783 125.075045,44.75833 l 16.36799,0.0107 3.41893,3.00186 c 12.66074,11.11627 41.70559,15.71126 66.3215,10.49227 z m 66.32507,64.86075 c -6.14117,-2.17537 -11.99242,-8.48396 -13.87487,-14.95938 -1.98205,-6.81802 -1.13269,-12.89054 2.63366,-18.82947 9.35448,-14.75048 31.66241,-13.79726 39.37632,1.68254 6.12747,12.29624 1.53338,25.47296 -10.93658,31.36814 -5.68407,2.68715 -11.04668,2.91731 -17.19853,0.73817 z m -145.12424,6.9622 C 153.08505,335.85114 153.18679,317.9355 164.34006,312.64292 175.30354,307.44041 188,315.14474 188,327 c 0,11.88116 -12.96007,19.66995 -23.82277,14.31708 z m -50.97767,25.76511 c -0.30135,-4.16623 0.051,-6.87813 1.19053,-9.16233 0.89022,-1.78448 1.50413,-3.35067 1.36425,-3.4804 -0.13989,-0.12974 -3.13688,0.47272 -6.65997,1.33878 -18.552221,4.5606 -38.630971,-7.76489 -44.023176,-27.02396 -2.114668,-7.55285 -1.022548,-19.34526 2.422137,-26.15356 C 71.369332,294.93994 78.206917,288.28616 86,284.59154 c 5.76339,-2.73236 7.519922,-3.08158 15.5,-3.08158 7.98008,0 9.73661,0.34922 15.5,3.08158 7.79308,3.69462 14.63067,10.3484 18.50667,18.00918 3.43668,6.79249 4.5365,18.60181 2.43232,26.1172 -1.47044,5.25187 -5.22668,12.44602 -7.47081,14.30849 -2.38543,1.97973 -1.73204,2.46814 3.43827,2.57013 10.68182,0.21071 19.23641,9.0351 19.23641,19.84312 0,3.0361 -0.2837,5.97921 -0.63045,6.54026 C 152.08529,372.67101 187.53857,373 262.44098,373 L 373,373 l 0,-84.4112 0,-84.41121 -6.75,4.55673 c -11.97508,8.08404 -29.76726,14.96809 -48.28828,18.68344 -5.98125,1.19985 -30.88984,4.53189 -34.18657,4.57317 -0.39866,0.005 0.61384,3.63977 2.25,8.07729 6.79852,18.43856 2.07663,29.59348 -16.19236,38.25255 -27.48696,13.02818 -74.77226,10.59685 -99.2027,-5.10085 L 166.5,270.56615 148,270.83534 c -19.54594,0.28441 -31.79426,-0.941 -48.635155,-4.86582 C 79.599926,261.36326 58.724356,253.6955 39.605961,244.01961 33.06424,240.70883 27.55174,238 27.355961,238 27.160183,238 27,268.375 27,305.5 l 0,67.5 43.31381,0 43.31381,0 -0.42806,-5.91781 z" />
</svg>
