<?xml version="1.0" encoding="UTF-8" standalone="no"?>
<!-- Created with Inkscape (http://www.inkscape.org/) -->

<svg
   xmlns:dc="http://purl.org/dc/elements/1.1/"
   xmlns:cc="http://creativecommons.org/ns#"
   xmlns:rdf="http://www.w3.org/1999/02/22-rdf-syntax-ns#"
   xmlns:svg="http://www.w3.org/2000/svg"
   xmlns="http://www.w3.org/2000/svg"
   xmlns:sodipodi="http://sodipodi.sourceforge.net/DTD/sodipodi-0.dtd"
   xmlns:inkscape="http://www.inkscape.org/namespaces/inkscape"
   id="svg2"
   version="1.1"
   inkscape:version="0.48.3.1 r9886"
   width="400"
   height="400"
   sodipodi:docname="Icon.4_17.png">
  <metadata
     id="metadata8">
    <rdf:RDF>
      <cc:Work
         rdf:about="">
        <dc:format>image/svg+xml</dc:format>
        <dc:type
           rdf:resource="http://purl.org/dc/dcmitype/StillImage" />
        <dc:title></dc:title>
      </cc:Work>
    </rdf:RDF>
  </metadata>
  <defs
     id="defs6" />
  <sodipodi:namedview
     pagecolor="#ffffff"
     bordercolor="#666666"
     borderopacity="1"
     objecttolerance="10"
     gridtolerance="10"
     guidetolerance="10"
     inkscape:pageopacity="0"
     inkscape:pageshadow="2"
     inkscape:window-width="1855"
     inkscape:window-height="1056"
     id="namedview4"
     showgrid="false"
     inkscape:zoom="0.59"
     inkscape:cx="200"
     inkscape:cy="200"
     inkscape:window-x="65"
     inkscape:window-y="24"
     inkscape:window-maximized="1"
     inkscape:current-layer="svg2" />
  <path
     style="fill:#000000"
     d="m 0,0 400,0 0,400 -400,0 z"
     id="rect3028" />
  <path
     id="path2989"
     style="fill:#ffffff"
     d="m 174.73923,105.3544 c 8.29128,-6.163243 0.0539,-21.62115 -19.03675,-35.723438 -4.86049,-3.590457 -18.82029,-10.03995 -24.8953,-11.501751 -10.27988,-2.473598 -21.56399,-0.811306 -23.186,3.415591 -6.39557,16.6666 32.23938,47.345608 58.11805,46.150028 4.39082,-0.20285 7.05712,-0.89622 9,-2.34043 z m 165.08955,15.24803 c 4.74873,-2.47548 6.65003,-7.43806 5.18672,-13.53783 -5.64578,-23.534258 -44.13751,-50.130262 -72.42546,-50.042638 -7.87931,0.02441 -14.69039,2.428502 -16.50936,5.827282 -5.48731,10.253133 7.56504,30.760658 28.43682,44.679216 11.43896,7.6282 20.34244,11.41574 34.9825,14.88157 4.34079,1.02762 17.0594,-0.1033 20.32878,-1.8076 z M 244.5,195.0108 c 29.98793,-2.08124 51.4257,-5.00542 69.5,-9.48001 15.4467,-3.82409 27.01599,-8.86808 26.98762,-11.76609 -0.0432,-4.41385 -22.65948,-12.17164 -46.98762,-16.1176 -61.77767,-10.02016 -147.83254,-8.31771 -200.5,3.96657 -12.264148,2.86051 -24.399657,7.51298 -26.951272,10.33249 -1.588688,1.75548 -1.501918,1.98739 1.636826,4.37489 10.684618,8.12729 48.024676,15.73134 91.314446,18.59557 17.55705,1.16164 68.80118,1.21843 85,0.0942 z M 208.49964,320.5 C 222.04393,301.80581 237.66914,285.71871 275,252.03386 290.675,237.8898 307.24236,222.35952 311.81637,217.52213 319.29131,209.61676 331,195.70242 331,194.72475 c 0,-0.2101 -4.8375,0.89172 -10.75,2.4485 -51.75994,13.62858 -146.33988,15.76809 -211.39372,4.78198 -6.40405,-1.0815 -16.047045,-3.08336 -21.428888,-4.44858 -5.381843,-1.36521 -9.923993,-2.34338 -10.093667,-2.17371 -0.169675,0.16968 2.233998,3.42668 5.341495,7.23778 5.761372,7.06588 18.78444,20.1896 64.92745,65.42928 24.79128,24.30595 40.24621,41.76651 50.08466,56.58428 2.00335,3.01727 3.95154,5.13264 4.32931,4.70083 0.37777,-0.43181 3.29512,-4.38511 6.483,-8.78511 z m -7.44719,29.85053 c -0.0916,-2.00738 -16.17297,-23.67327 -26.7086,-35.9836 -5.58589,-6.52681 -21.33589,-22.88506 -35,-36.35167 C 83.967837,223.43968 74.815368,213.62299 63.344098,196.5 45.63227,170.06183 37.742227,140.79628 40.96715,113.5 44.577509,82.941313 60.575574,60.200993 85.988425,49.504872 95.236039,45.612605 104.01275,44.036128 116.5,44.02437 c 32.77392,-0.03086 59.93269,16.836311 79.21014,49.194088 3.18442,5.345151 6.01486,9.729642 6.28986,9.743312 0.275,0.0137 2.24956,-3.234639 4.38791,-7.21846 C 221.94412,66.761546 239.85195,50.780957 264,44.331437 c 8.82732,-2.357623 27.15851,-2.33703 36,0.04044 10.01411,2.692788 23.74485,9.808134 31.42859,16.286469 32.41157,27.32694 40.83373,79.014844 20.02196,122.877354 -10.43179,21.98588 -26.66754,40.88739 -65.95055,76.77907 -45.50285,41.57455 -64.11021,61.53335 -82.69755,88.7038 -0.93365,1.36479 -1.72115,1.96417 -1.75,1.33196 z M 209.5,365.74504 c 19.57857,-31.40646 33.35992,-46.58499 88,-96.9216 C 338.13312,231.39058 355.44977,210.40878 366.26826,185.5 379.895,154.12546 380.59048,116.8617 368.10803,86.926228 355.46472,56.604997 327.24974,34.057266 295.55215,28.943896 286.22668,27.439535 269.02121,28.215678 260,30.547662 c -8.37152,2.16404 -21.01738,8.035194 -29.11883,13.519137 -7.76441,5.255795 -19.96067,17.428884 -25.36741,25.319212 l -3.98623,5.817313 -2.50628,-3.351662 C 197.6428,70.008248 193.5866,65.405374 190.00748,61.623053 168.06409,38.433818 136.54661,26.410761 106.50235,29.768123 67.745107,34.099137 39.123282,59.021507 29.303821,96.988519 c -3.311973,12.805761 -4.185398,34.397601 -1.942625,48.023371 2.349014,14.27122 6.109476,26.25132 12.08113,38.48811 12.697539,26.01912 22.080583,37.28245 74.558974,89.5 52.14248,51.88332 61.16101,62.33653 80.45163,93.25 3.68951,5.9125 7.00945,10.74413 7.37764,10.73696 0.36819,-0.007 3.81943,-5.06604 7.66943,-11.24192 z" />
</svg>
