<?xml version="1.0" encoding="UTF-8" standalone="no"?>
<!-- Created with Inkscape (http://www.inkscape.org/) -->

<svg
   xmlns:dc="http://purl.org/dc/elements/1.1/"
   xmlns:cc="http://creativecommons.org/ns#"
   xmlns:rdf="http://www.w3.org/1999/02/22-rdf-syntax-ns#"
   xmlns:svg="http://www.w3.org/2000/svg"
   xmlns="http://www.w3.org/2000/svg"
   xmlns:sodipodi="http://sodipodi.sourceforge.net/DTD/sodipodi-0.dtd"
   xmlns:inkscape="http://www.inkscape.org/namespaces/inkscape"
   id="svg2"
   version="1.1"
   inkscape:version="0.48.3.1 r9886"
   width="400"
   height="400"
   sodipodi:docname="Icon.7_67.png">
  <metadata
     id="metadata8">
    <rdf:RDF>
      <cc:Work
         rdf:about="">
        <dc:format>image/svg+xml</dc:format>
        <dc:type
           rdf:resource="http://purl.org/dc/dcmitype/StillImage" />
        <dc:title></dc:title>
      </cc:Work>
    </rdf:RDF>
  </metadata>
  <defs
     id="defs6" />
  <sodipodi:namedview
     pagecolor="#ffffff"
     bordercolor="#666666"
     borderopacity="1"
     objecttolerance="10"
     gridtolerance="10"
     guidetolerance="10"
     inkscape:pageopacity="0"
     inkscape:pageshadow="2"
     inkscape:window-width="1855"
     inkscape:window-height="1056"
     id="namedview4"
     showgrid="false"
     inkscape:zoom="0.59"
     inkscape:cx="200"
     inkscape:cy="200"
     inkscape:window-x="65"
     inkscape:window-y="24"
     inkscape:window-maximized="1"
     inkscape:current-layer="svg2" />
  <path
     style="fill:#000000"
     d="m 0,0 400,0 0,400 -400,0 z"
     id="rect3034" />
  <path
     id="path2989"
     style="fill:#ffffff"
     d="M 262.2394,117.09882 C 274.20773,101.47818 284,88.374009 284,87.978453 284,87.025827 271.62822,74.66677 266.26617,70.262867 l -4.23382,-3.477287 -4.9449,4.445888 c -8.45154,7.59866 -23.24145,14.188314 -37.52111,16.717552 -8.71523,1.543656 -25.53612,1.280635 -34.3585,-0.537251 -14.57677,-3.003601 -28.32648,-9.599929 -36.93977,-17.721609 -3.0427,-2.869035 -3.39,-2.963816 -5.93177,-1.618811 C 138.87751,69.901603 122,86.39933 122,87.950033 c 0,0.645353 9.7875,13.974777 21.75,29.620937 l 21.75,28.44757 37.4894,-0.25927 37.4894,-0.25927 21.7606,-28.40118 z M 320.98968,196.25 c -0.0206,-7.47682 -2.07479,-27.93459 -3.58975,-35.75 -3.92055,-20.22536 -10.42619,-37.47234 -20.67571,-54.81293 -3.27215,-5.53597 -4.26098,-6.566848 -5.27566,-5.5 -0.68681,0.72211 -10.31398,13.19805 -21.39371,27.72431 -11.88472,15.58164 -19.92398,26.98728 -19.60601,27.81589 0.29643,0.77248 7.32567,11.04986 15.62054,22.83862 L 281.15097,200 301.07548,200 321,200 320.9897,196.25 z M 140.36197,177.46049 c 10.93043,-15.57574 15.53007,-22.9135 14.88754,-23.75 C 154.73812,153.04472 145.40264,140.8 134.504,126.5 123.60535,112.2 114.34671,100.11079 113.92923,99.635086 112.17043,97.631002 99.633597,121.95217 94.467909,137.3896 88.680781,154.68418 85.089873,175.18049 85.031684,191.25 L 85,200 l 19.77232,0 19.77232,0 15.81733,-22.53951 z m 112.11812,50.66819 c 8.78904,-12.54264 15.92185,-23.13451 15.85069,-23.5375 -0.0712,-0.40299 -7.22646,-10.83168 -15.90065,-23.17487 L 236.65887,158.97415 202.68953,159.23707 168.72019,159.5 156.35575,177 c -6.80044,9.625 -13.96935,19.8292 -15.9309,22.676 l -3.56647,5.17599 16.24051,23.07401 16.2405,23.074 33.5803,-0.0333 33.58031,-0.0332 15.98009,-22.80481 z m 38.34297,65.73476 c 6.99116,-9.674 16.23723,-28.11796 20.4851,-40.86344 3.18814,-9.56583 6.67838,-24.88988 8.1425,-35.75 l 0.57298,-4.25 -20.76182,0.039 -20.76182,0.039 -14.18858,20.27673 c -7.80372,11.1522 -14.32872,20.72855 -14.5,21.28077 -0.35024,1.1292 33.87741,46.36447 35.08207,46.36447 0.42468,0 3.09299,-3.21145 5.92957,-7.13656 z M 138.92482,278.25909 C 148.31617,266.02658 156,255.63071 156,255.15715 c 0,-0.47357 -6.45829,-10.04016 -14.35175,-21.25909 L 127.29651,213.5 106.64825,213.22971 c -23.849289,-0.31219 -21.556415,-1.79729 -19.128081,12.3893 3.484746,20.35826 10.57441,40.39861 20.086281,56.77786 5.74705,9.89633 12.24443,18.8283 13.39308,18.41156 0.46756,-0.16964 8.53395,-10.31684 17.92529,-22.54934 z M 220,341.86729 c 7.96639,-1.44127 19.48772,-5.36266 27.26094,-9.27852 7.73573,-3.89697 20.98842,-13.18735 25.60237,-17.94774 l 3.13056,-3.22992 -18.13999,-23.71758 -18.13999,-23.71759 -37.07675,0.26203 -37.07675,0.26203 -17.88684,23.34236 -17.88685,23.34236 3.35665,3.48325 c 12.23156,12.6929 35.42361,24.64107 52.85665,27.2309 14.11367,2.09671 22.27811,2.08913 34,-0.0316 z m -34,13.65527 C 155.98468,350.4304 127.72707,332.44487 107.40804,305.5 83.789942,274.18027 71.934103,237.0924 71.924793,194.5 71.91763,161.72782 78.201366,135.04054 92.512817,107.06185 104.78189,83.075993 123.29407,62.434028 144.65692,48.918708 l 3.15692,-1.997242 2.74827,3.789267 c 6.89775,9.510509 22.41959,18.914871 35.93789,21.774023 8.81199,1.863757 24.98935,1.906751 33.56317,0.0892 13.88034,-2.942476 27.14429,-10.380973 35.21526,-19.748915 l 4.55766,-5.290061 7.30023,4.98251 c 15.45441,10.547852 33.33791,30.260694 43.74122,48.21562 34.02716,58.72699 31.88007,139.91682 -5.18162,195.93678 C 276.38919,340.96799 231.19393,363.18981 186,355.52256 z m 39.5,13.8485 C 288.12038,357.68247 337.04863,299.15619 347.5376,223.39391 349.49832,209.23158 349.74484,183.60766 348.0561,169.5 341.6152,115.69309 314.32238,67.37342 275.5,41.045434 269.0928,36.700296 254.36918,28 253.42304,28 c -0.21884,0 -1.93062,3.043587 -3.80395,6.763526 -9.91424,19.687035 -36.04763,29.648672 -61.02308,23.261029 C 173.20183,54.087386 163.95817,47.036715 157.78898,34.526265 156.01895,30.936819 154.15861,28 153.6549,28 c -0.50372,0 -5.06562,2.292266 -10.13758,5.093924 -34.97487,19.319506 -62.03743,53.659381 -76.086123,96.546236 -16.21021,49.48539 -12.794027,106.65206 9.096095,152.21474 6.722686,13.99277 11.107302,21.34227 18.819222,31.54478 25.901436,34.26638 61.044886,54.75505 98.653486,57.51509 11.1183,0.81596 21.61398,0.3016 31.5,-1.54371 z" />
</svg>
