<?xml version="1.0" encoding="UTF-8" standalone="no"?>
<!-- Created with Inkscape (http://www.inkscape.org/) -->

<svg
   xmlns:dc="http://purl.org/dc/elements/1.1/"
   xmlns:cc="http://creativecommons.org/ns#"
   xmlns:rdf="http://www.w3.org/1999/02/22-rdf-syntax-ns#"
   xmlns:svg="http://www.w3.org/2000/svg"
   xmlns="http://www.w3.org/2000/svg"
   xmlns:sodipodi="http://sodipodi.sourceforge.net/DTD/sodipodi-0.dtd"
   xmlns:inkscape="http://www.inkscape.org/namespaces/inkscape"
   id="svg2"
   version="1.1"
   inkscape:version="0.48.3.1 r9886"
   width="400"
   height="400"
   sodipodi:docname="Icon.1_19.png">
  <metadata
     id="metadata8">
    <rdf:RDF>
      <cc:Work
         rdf:about="">
        <dc:format>image/svg+xml</dc:format>
        <dc:type
           rdf:resource="http://purl.org/dc/dcmitype/StillImage" />
        <dc:title></dc:title>
      </cc:Work>
    </rdf:RDF>
  </metadata>
  <defs
     id="defs6" />
  <sodipodi:namedview
     pagecolor="#ffffff"
     bordercolor="#666666"
     borderopacity="1"
     objecttolerance="10"
     gridtolerance="10"
     guidetolerance="10"
     inkscape:pageopacity="0"
     inkscape:pageshadow="2"
     inkscape:window-width="1855"
     inkscape:window-height="1056"
     id="namedview4"
     showgrid="false"
     inkscape:zoom="0.59"
     inkscape:cx="200"
     inkscape:cy="200"
     inkscape:window-x="65"
     inkscape:window-y="24"
     inkscape:window-maximized="1"
     inkscape:current-layer="svg2" />
  <path
     style="fill:#000000"
     d="m 0,0 400,0 0,400 -400,0 z"
     id="rect3020" />
  <path
     id="path2989"
     style="fill:#ffffff"
     d="m 132.45624,301.60117 c 7.4722,-5.69932 7.25851,-14.84917 -0.80458,-34.45043 -3.02021,-7.34209 -5.80493,-15.62973 -6.18828,-18.41697 -0.75762,-5.50858 -1.7232,-4.92566 -2.92571,1.76623 -0.39533,2.2 -3.16004,10.4438 -6.14379,18.31956 -6.21916,16.41578 -7.14725,23.50596 -3.81897,29.17517 4.20448,7.16167 13.10372,8.77598 19.88133,3.60644 z M 84.63417,369.0814 c 8.320972,-5.07388 11.368378,-13.79576 11.359935,-32.5129 -0.007,-15.48444 -1.583012,-26.78384 -7.009909,-50.2579 C 84.133732,265.32992 81.365488,249.38686 79.901337,234 c -0.919912,-9.66742 -0.838616,-12.85452 0.51016,-20 4.457198,-23.61314 16.161477,-31.76104 29.375923,-20.44996 5.45027,4.66522 10.95177,15.8001 12.61176,25.52582 l 1.26715,7.42414 0.74996,-8.41503 c 1.54347,-17.31897 6.81352,-31.15689 14.97347,-39.31683 15.51055,-15.51055 42.38726,-13.28966 60.534,5.00207 7.85913,7.92193 10.58064,12.96492 10.37758,19.22979 -0.0802,2.475 -2.29605,12.6 -4.92407,22.5 -4.40553,16.59604 -4.78208,18.93598 -4.82775,30 -0.0435,10.5434 0.22021,12.50441 2.17258,16.15547 5.96361,11.15235 14.67261,11.13608 19.87513,-0.0371 1.98628,-4.26583 2.38486,-6.7159 2.393,-14.70966 0.008,-8.02267 -0.72527,-12.56538 -4.48455,-27.77602 -2.47188,-10.00159 -4.78777,-20.68151 -5.14644,-23.73315 l -0.65211,-5.54844 5.49172,-5.17554 c 9.94587,-9.37326 24.45931,-13.30608 45.69418,-12.38211 17.31069,0.75322 28.01968,4.56213 33.17251,11.79862 3.01238,4.23049 2.25955,10.92351 -2.98759,26.56113 -4.87346,14.52398 -5.3271,21.19744 -1.79701,26.43574 4.14024,6.1437 10.78772,6.40216 15.11691,0.58775 3.21499,-4.31795 2.79275,-12.89577 -1.21952,-24.77448 -4.54827,-13.46558 -6.12114,-21.67219 -4.86856,-25.40219 1.76403,-5.25299 6.45585,-11.14135 11.39783,-14.30457 5.94821,-3.80728 7.60681,-4.44722 24.09791,-9.29782 14.28002,-4.20024 19.15593,-6.3114 24.00987,-10.39572 3.31752,-2.79151 7.63456,-10.98482 8.56166,-16.24917 l 0.57187,-3.24729 -3.72848,2.46739 C 346.04655,161.1468 287.00219,164.44836 226.5,154.39734 139.35168,139.91968 67.4122,101.42049 32.459701,50.554567 29.456865,46.18458 27,43.347068 27,44.248987 27,46.038144 34.024656,66.277005 44.441499,94.5 c 13.43238,36.39318 23.552488,72.45803 29.183296,104 4.59806,25.75685 3.692354,42.84758 -4.266013,80.5 -6.126803,28.98697 -7.340449,36.20508 -8.443396,50.21678 -1.853013,23.54042 1.412761,34.99039 11.584614,40.61624 3.086343,1.707 8.669263,1.36118 12.13417,-0.75162 z" />
</svg>
