<?xml version="1.0" encoding="UTF-8" standalone="no"?>
<!-- Created with Inkscape (http://www.inkscape.org/) -->

<svg
   xmlns:dc="http://purl.org/dc/elements/1.1/"
   xmlns:cc="http://creativecommons.org/ns#"
   xmlns:rdf="http://www.w3.org/1999/02/22-rdf-syntax-ns#"
   xmlns:svg="http://www.w3.org/2000/svg"
   xmlns="http://www.w3.org/2000/svg"
   version="1.1"
   width="512"
   height="512"
   id="svg2">
  <metadata
     id="metadata8">
    <rdf:RDF>
      <cc:Work
         rdf:about="">
        <dc:format>image/svg+xml</dc:format>
        <dc:type
           rdf:resource="http://purl.org/dc/dcmitype/StillImage" />
        <dc:title></dc:title>
      </cc:Work>
    </rdf:RDF>
  </metadata>
  <defs
     id="defs6" />
  <rect
     width="512"
     height="512"
     x="0"
     y="0"
     id="rect3016"
     style="fill:#000000;fill-opacity:1;stroke:none" />
  <path
     d="m 450.75397,127.96749 c 6.6649,-1.85122 13.2799,-9.65032 15.00406,-17.68982 3.74674,-17.470442 -8.84534,-39.768203 -27.70281,-49.05548 -4.72661,-2.327846 -8.18349,-2.98219 -15.75486,-2.98219 -8.65269,0 -10.20712,0.387077 -14.40134,3.586167 -7.07565,5.396861 -9.12539,10.187425 -9.14522,21.373833 -0.0137,7.733732 0.64336,11.012179 3.37992,16.86419 9.55884,20.44118 31.06003,32.78078 48.62025,27.9033 z M 84.830633,127.30428 c 10.38063,-7.96357 23.026367,-14.41406 35.655327,-18.18749 6.44902,-1.92691 12.90119,-5.63704 26.88,-15.45657 15.26651,-10.724078 19.04666,-14.03281 22.2323,-19.459749 2.11104,-3.596292 6.56042,-9.810609 9.8875,-13.809592 3.32708,-3.998984 6.06386,-7.892419 6.08174,-8.65208 0.042,-1.784313 -10.16312,-6.518866 -19.1675,-8.892562 -9.02755,-2.3798 -25.55515,-2.378744 -34.50196,0.0022 C 104.18625,50.223167 81.457381,73.557 74.902488,101.36102 72.262766,112.55798 72.358685,134.4 75.047579,134.4 c 0.293528,0 4.695903,-3.19308 9.783054,-7.09572 z m 225.759117,-7.66781 c 7.85244,-4.60183 11.69109,-12.68844 9.49793,-20.008574 -3.41417,-11.395463 -21.04824,-15.770304 -33.6943,-8.359221 -11.4236,6.694677 -14.46428,17.556895 -7.22333,25.803885 2.18354,2.48691 5.78354,5.08047 8,5.76348 6.55696,2.02054 16.93058,0.60331 23.4197,-3.19957 z m -29.91829,19.10693 c -7.35954,-2.68846 -17.49116,-12.07637 -20.21756,-18.7335 -9.25341,-22.594242 9.11099,-47.352685 36.58143,-49.318185 16.61247,-1.188616 30.55851,5.866905 37.42066,18.931682 3.20586,6.103607 3.62132,8.099196 3.19297,15.336603 -0.84979,14.35837 -8.60538,25.27772 -22.57957,31.79057 -8.98473,4.18744 -25.73398,5.15779 -34.39793,1.99283 z m 58.04087,83.2932 c 31.08418,-5.3688 58.38894,-17.05645 91.40347,-39.1247 8.21287,-5.48982 17.69386,-12.48153 21.06888,-15.53713 6.07548,-5.50049 6.13779,-5.63773 6.27586,-13.8252 L 457.6,145.28 l -11.08289,0.44486 c -7.74871,0.31104 -13.33233,-0.20545 -18.56,-1.71681 C 408.0786,138.26103 390.26953,120.4601 383.95409,100.02517 380.9222,90.214881 380.65092,75.51834 383.36,67.84 c 1.056,-2.993023 1.92,-6.444323 1.92,-7.669554 0,-2.706253 -11.60522,-8.122103 -30.08,-14.037542 C 299.62618,28.338721 244.33737,32.199895 209.27444,56.323825 201.23068,61.85808 190.04229,73.396399 185.95236,80.375356 l -3.34633,5.710085 2.12687,11.03728 c 4.51456,23.427959 15.87678,51.786579 27.76764,69.304399 29.89232,44.03788 75.88397,64.30201 126.21179,55.60948 z M 98.816997,258.4255 c 18.244093,-3.80457 34.141803,-16.28121 42.465513,-33.32726 13.41883,-27.48026 12.68064,-59.27023 -2.14654,-92.44004 l -3.92553,-8.7818 -5.49614,0.75333 c -3.02288,0.41433 -9.07951,2.26154 -13.45918,4.10493 -26.403624,11.11312 -44.593359,32.10691 -53.151682,61.34534 -3.491671,11.92884 -3.135862,39.05844 0.688284,52.48 3.431514,12.04355 5.49242,15.61161 9.456746,16.37253 5.880381,1.12869 18.969389,0.86913 25.568529,-0.50703 z m 1.538133,143.10409 c 2.98499,-2.18268 8.1344,-20.14174 9.99173,-34.84708 4.14509,-32.81878 -9.46874,-52.47647 -42.12682,-60.82899 C 62.857791,304.48209 57.477659,303.36 56.264192,303.36 c -3.29231,0 -11.258643,9.51165 -15.412358,18.40207 -5.463679,11.69421 -7.07979,24.99332 -4.546669,37.4149 4.609954,22.60566 16.834089,36.6762 36.654835,42.19139 7.862382,2.18772 24.489901,2.28558 27.39513,0.16123 z M 210.67657,286.07904 c 13.10665,-6.41249 20.68982,-19.66491 16.70696,-29.19724 -2.85291,-6.82796 -8.60342,-9.83733 -18.74353,-9.8089 -9.96762,0.0279 -17.65651,3.12181 -24.7455,9.95713 -6.47287,6.24125 -8.5345,10.43679 -8.5345,17.36819 0,6.82929 4.35832,12.88969 10.66612,14.83162 6.29259,1.93725 17.06523,0.56029 24.65045,-3.1508 z m -30.98332,19.051 c -6.92848,-2.45721 -15.25426,-9.70255 -18.73938,-16.30758 -4.2543,-8.06275 -3.97726,-20.97568 0.65227,-30.40259 11.4061,-23.22575 42.22286,-35.36109 64.63259,-25.4517 26.12578,11.55259 25.71411,45.70067 -0.774,64.20608 -13.29371,9.28738 -32.56965,12.63783 -45.77148,7.95579 z m 162.25721,98.65998 c 0.45677,-15.46051 1.49113,-33.29402 2.2986,-39.63002 9.07031,-71.17262 37.08551,-115.70104 96.07094,-152.69885 l 12.16,-7.6272 0.39067,-5.93003 c 0.2822,-4.28361 -0.12723,-6.12878 -1.4748,-6.64589 -1.05449,-0.40463 -6.78893,2.5989 -13.19067,6.90889 -26.53511,17.86489 -53.57598,30.46842 -80.88894,37.70171 -14.14016,3.74473 -16.21495,3.95499 -39.87626,4.04082 -22.29377,0.0809 -26.1222,-0.22647 -35.84,-2.87727 -42.51799,-11.59794 -75.30838,-40.45394 -96.6558,-85.05846 -6.11916,-12.78575 -15.9842,-41.47707 -15.9842,-46.48824 0,-3.89083 -3.95988,-3.1649 -11.46915,2.10255 -4.25196,2.98259 -7.73085,5.8357 -7.73085,6.34025 0,0.50454 2.27372,5.76934 5.05271,11.69956 14.77149,31.52155 16.9892,70.77674 5.60503,99.21389 -6.86022,17.13651 -20.37135,33.40751 -34.41128,41.44034 -12.7457,7.29236 -20.16042,9.15566 -39.271467,9.86887 l -17.585008,0.65627 -1.269531,4.59786 c -0.698241,2.52882 -0.848988,4.99332 -0.334992,5.47666 0.513995,0.48333 4.678538,2.02263 9.254538,3.42066 16.390669,5.00757 29.07375,12.74116 37.69124,22.98246 4.53823,5.39338 10.59626,18.69468 12.34804,27.11196 2.22256,10.67935 0.74505,32.82659 -3.20581,48.05384 -1.82241,7.02385 -3.29006,13.35985 -3.26145,14.08 0.0717,1.80563 6.63738,9.32361 8.59755,9.84461 1.02179,0.27158 3.41526,-4.95943 6.63752,-14.50643 2.77173,-8.21215 6.53343,-17.87933 8.35935,-21.4826 11.5506,-22.79401 28.26534,-40.82219 46.95251,-50.64201 15.26922,-8.02376 21.90441,-9.79059 39.5039,-10.51921 13.83385,-0.57271 17.4108,-0.28256 26.18231,2.12388 39.24806,10.76754 66.43789,45.74175 72.21588,92.89111 0.77646,6.336 1.41337,13.92 1.41535,16.85334 0.004,5.87731 1.15022,6.79111 7.018,5.59481 l 3.86561,-0.78811 0.83046,-28.11002 z m 36.34061,30.73687 c 11.19743,-2.86669 28.11679,-11.32027 38.42572,-19.19899 48.02185,-36.70126 71.24091,-104.95312 54.89453,-161.36105 -4.718,-16.28081 -11.86429,-31.24685 -14.92038,-31.24685 -3.63536,0 -25.60876,14.90605 -38.13094,25.8668 -10.59158,9.27089 -21.19603,21.31502 -29.06703,33.0132 -11.13719,16.55252 -21.59574,44.66929 -25.9485,69.76 -3.35961,19.36594 -5.83134,59.21933 -4.58455,73.92 l 0.94989,11.2 5.37617,0 c 2.95689,0 8.80919,-0.8789 13.00509,-1.95311 z M 254.01873,475.4949 c 19.81313,-3.45513 37.35489,-11.83473 52.2838,-24.97568 l 6.01747,-5.29678 -0.0168,-16.21123 c -0.0294,-28.39454 -6.54995,-49.87161 -20.9,-68.83991 -20.98717,-27.74141 -58.4585,-36.45396 -89.49632,-20.80902 -25.63259,12.92038 -43.18866,37.21093 -52.78617,73.03483 -4.3682,16.30489 -4.20487,18.74261 1.76147,26.29062 22.55572,28.53511 64.57664,43.53146 103.13657,36.80717 z"
     id="path2987"
     style="fill:#ffffff" />
</svg>
