<svg xmlns="http://www.w3.org/2000/svg" viewBox="0 0 512 512" style="height: 512px; width: 512px;"><g class="" transform="translate(0,0)" style="touch-action: none;"><path d="M179.344 38.938c-23.277 36.69-31.747 78.147-19.875 127.624l.405-.218c2.173 6.744 4.972 13.307 8.5 19.594l-16.313 9.156c-6.688-11.917-11.17-24.43-13.843-37.188-34.475-6.297-69.44-7.537-105-2.156 34.076 10.17 52.767 23.785 76.686 46.72-26.828 9.758-60.256 30.27-92.937 70.25 35.47-8.856 64.83-11.472 89.436-6.314C69.46 288.87 42.34 322.548 18.062 380.53c35.902-17.238 64.89-18.817 102.938-18.874-23.065 32.75-35.27 77.284-36.313 112.844 24.532-26.01 57.623-60.165 87.188-78.97 3 29.9 15.02 58.303 35.938 85.22-.223-43.817 10.263-88.266 31.593-133.344-10.426 4.945-20.715 10.638-30.844 17.094L189.5 376.656l4.906-22.062 13.75-61.625c-12.038.324-24.336 4.325-37.937 9.655l-22.564 8.844 10.78-21.69 38.408-77.467 16.75 8.312-28.438 57.344c11.467-3.135 23.34-4.905 36-2.845l9.78 1.594-2.155 9.655-11.468 51.375c16.637-8.996 33.66-16.18 50.907-21.656l.06-.03.658-.19c8.017-2.522 16.094-4.67 24.187-6.468.094-.02.187-.04.28-.062 43.116-10.896 89.554-19.018 150.595-21.656 7.63-12.867 13.767-24.22 18.844-34.75L456.53 228.5l-24.405 30.813-7.875-27.47-22.47 29.188-7.53-26.092-23.844 31.437-7.687-28.22-23.845 31.47 1.22-41.156 22.56-42.626 7.658 28.22 23.875-31.44 7.656 28.19 23.437-30 6.564 26.905 24.406-30.814 7.875 27.5 24.594-31.97c2.28-10.793 4.624-22.47 7.405-35.78-55.52-3.68-106.326 4.826-154.063 9.875-26.584-14.895-58.665-22-88.593-21.874-11.535.05-22.757 1.182-33.22 3.344l-40.906-89.063zm100.53 108.5c15.745.07 30.662 5.308 45.657 10.812-4.553 14.292-13.067 18.39-24.717 20.688-16.15-4.413-28.315-15.564-34.375-30.22 4.558-.897 9.03-1.3 13.437-1.28z" fill="#fff" fill-opacity="1" stroke="#000000" stroke-opacity="1" stroke-width="4" transform="translate(512, 512) scale(-1, -1) rotate(-180, 256, 256)"></path></g></svg>