<svg style="height: 512px; width: 512px;" xmlns="http://www.w3.org/2000/svg" viewBox="0 0 512 512"><g class="" style="" transform="translate(0,0)"><path d="M254.727 19.027c-1.302.008-2.603.028-3.903.057C171.402 20.884 94.76 62.85 52.18 136.602c-64.884 112.384-26.305 256.362 86.078 321.246 112.382 64.883 256.36 26.304 321.244-86.08 64.883-112.383 26.304-256.36-86.078-321.245C336 28.917 295.07 18.783 254.727 19.027zm.03 18.608c20-.11 40.162 2.56 59.903 8.158l-89.572 59.637a152.006 152.006 0 0 1 30.637-3.104c2.503 0 4.99.064 7.464.184l73.718-49.08c9.224 3.74 18.3 8.163 27.168 13.283 35.108 20.27 62.376 48.856 80.778 81.818l-105.756-21.218a153.109 153.109 0 0 1 29.066 24.89l87.03 17.46c18.944 44.744 22.685 95.438 8.956 143.61l-59.644-89.58a152.049 152.049 0 0 1 3.074 30.49c0 2.536-.064 5.056-.187 7.562l49.09 73.735a218.864 218.864 0 0 1-13.17 26.94c-20.32 35.193-48.993 62.51-82.055 80.914L382.432 337.8a152.933 152.933 0 0 1-24.868 28.944l-17.43 86.89c-44.718 18.87-95.357 22.57-143.476 8.835l89.303-59.458a152.149 152.149 0 0 1-30.235 3.025c-2.594 0-5.173-.066-7.735-.195l-73.527 48.955a218.683 218.683 0 0 1-26.858-13.14c-35.15-20.292-62.443-48.922-80.845-81.934l105.28 21.12a152.824 152.824 0 0 1-28.91-24.86l-86.69-17.39c-18.876-44.658-22.617-95.233-8.963-143.31l59.445 89.283c-2-9.82-3.053-19.98-3.053-30.384 0-2.56.065-5.106.19-7.635l-48.93-73.49a218.373 218.373 0 0 1 13.24-27.108c20.246-35.07 48.785-62.328 81.7-80.73l-21.172 105.524a153.028 153.028 0 0 1 24.885-29.035l17.42-86.835a217.232 217.232 0 0 1 83.555-17.24zm.968 83.385c-15.46 0-30.293 2.63-44.086 7.455l57.245 30.795a96.921 96.921 0 0 0-14.748-1.125 96.5 96.5 0 0 0-22.05 2.544l-41.86-22.518c-23.703 13.388-42.87 33.826-54.672 58.492l58.754-17.652a96.664 96.664 0 0 0-23.03 26.425l-43.93 13.2a133.666 133.666 0 0 0-4.787 35.545c0 14.985 2.464 29.385 7.01 42.818l29.02-53.945a96.805 96.805 0 0 0-.663 11.295c0 8.23 1.035 16.216 2.978 23.84l-21.765 40.462a133.431 133.431 0 0 0 55.466 53.91l-18.68-62.175a96.687 96.687 0 0 0 27.177 25.53l13.723 45.67c12.3 3.74 25.357 5.757 38.895 5.757 13.444 0 26.414-1.99 38.64-5.68l-62.78-33.77a96.752 96.752 0 0 0 41.072.875l44.206 23.78a133.427 133.427 0 0 0 56.244-55.357l-74.045 22.246a96.66 96.66 0 0 0 33.698-29.633l49.82-14.97c4.09-12.812 6.307-26.47 6.307-40.655 0-13.935-2.133-27.362-6.086-39.977l-36.527 67.902a96.176 96.176 0 0 0 4.07-27.757c0-5.66-.492-11.2-1.43-16.59l24.624-45.774a133.408 133.408 0 0 0-58.422-57.054l20.512 68.267a96.718 96.718 0 0 0-28.21-28.96l-14.403-47.94a133.566 133.566 0 0 0-37.29-5.28z" fill="#fff" fill-opacity="1" stroke="#000000" stroke-opacity="1" stroke-width="4"></path></g></svg>