<!-- <svg xmlns="http://www.w3.org/2000/svg" viewBox="0 0 512 512" style="height: 512px; width: 512px;"><g class="" transform="translate(0,0)" style="touch-action: none;"><path d="M283.406 26c-31.262-.124-67.23 14.174-87.406 24.813-14.187 7.48-63.924 37.248-106.594 45.5-55.05 10.643-86.878 63.63-54.594 90.156 53.676 44.1 55.533 101.236 15.844 143.186-43.832 46.33 1.16 113.166 63.844 105.625 62.685-7.54 89.117.543 121.03 32.44 41.408 41.38 131.457 24.757 153.595-32.595 10.275-26.614 24.304-56.372 58.594-68.563 40.316-14.328 52.335-59.373 26.217-90.625-19.376-23.183-21.61-47.184 4.875-95.468 21.756-39.664 4.657-83.827-55.937-80.44-45.002 2.515-64.425-27.456-97.156-59.374C314.866 30.074 299.78 26.066 283.405 26zm-20.312 76.188c87.992 0 159.53 71.508 159.53 159.5 0 87.994-71.538 159.53-159.53 159.53s-159.53-71.536-159.53-159.53c0-87.995 71.538-159.5 159.53-159.5zm0 18.687c-77.892 0-140.813 62.918-140.813 140.813 0 77.894 62.922 140.843 140.814 140.843 77.89 0 140.844-62.948 140.844-140.842 0-77.892-62.953-140.813-140.844-140.813zm-9.344 19.188h18.688v12.562l32.218 9.78-32 9.72h-.78v97.47H253.75V172.53l-33.344-10.124 33.344-10.125v-12.218zm-51.875 40.343c9.892-.023 20.71 2.28 32.313 7.156v20.594c-14.94-7.682-27.267-9.843-36.657-8.844-11.21 1.194-18.696 6.513-23.468 14.125-9.34 14.902-7.106 39.607 13.907 56.157h-25.657c-14.936-20.91-15.937-47.15-4.063-66.094 7.603-12.13 20.8-20.992 37.313-22.75 2.064-.22 4.16-.34 6.312-.344zm122.438 0c2.153.005 4.28.124 6.343.344 16.513 1.758 29.71 10.62 37.313 22.75 11.872 18.944 10.872 45.183-4.064 66.094H338.22c21.01-16.55 23.245-41.255 13.905-56.156-4.77-7.613-12.258-12.932-23.47-14.125-9.69-1.032-22.498 1.294-38.092 9.593v-20.75c12.145-5.308 23.443-7.774 33.75-7.75zm-71.438 16.875c.052.034.104.063.156.095l-.155.25v-.344zm-81.563 91h183.563v18.44h-34.28v17.81h34.28v18.69H171.312v-18.69h36.47v-17.81h-36.47v-18.44zm55.157 18.44v17.81h27.28v-17.81h-27.28zm45.968 0v17.81h29.468v-17.81h-29.47zm-9.157 50.03c7.64 0 13.845 6.204 13.845 13.844s-6.204 13.844-13.844 13.844-13.842-6.204-13.842-13.844 6.203-13.844 13.843-13.844zM457 410.5c-7.208.234-14.82 2.62-21.5 7.688-34.04 25.825-9.88 74.987 31.938 40.437 32.292-26.678 13.11-48.89-10.438-48.125z" fill="#fff" fill-opacity="1" stroke="#000000" stroke-opacity="1" stroke-width="4" transform="translate(512, 512) scale(-1, -1) rotate(-180, 256, 256)"></path></g></svg> -->
<svg xmlns="http://www.w3.org/2000/svg" viewBox="0 0 512 512" style="height: 512px; width: 512px;"><path d="M2 2h508v508H2z" fill="#000" fill-opacity="1" stroke="#fff" stroke-opacity="1" stroke-width="2"/><g class="" transform="translate(0,0)" style=""><path d="M447.586 34.278c8.2.042 16.652.51 25.25 1.305-18.81 11.825-47.438 25.416-75.809 35.345-19.621 6.868-39.233 12.234-55.464 14.86-10 1.617-18.485 1.793-24.758 1.267 9.46-16.636 28.867-31.502 56.191-41.146 20.184-7.124 44.389-11.352 71.092-11.623 1.16-.012 2.327-.014 3.498-.008zm-383.172 0c1.171-.006 2.337-.004 3.498.008 26.703.271 50.908 4.5 71.092 11.623 27.324 9.644 46.73 24.51 56.191 41.146-6.273.526-14.758.35-24.757-1.267-16.232-2.626-35.844-7.992-55.465-14.86-28.37-9.93-56.998-23.52-75.809-35.345 8.598-.794 17.05-1.263 25.25-1.305zm417.828 17.5c-10.731 63.387-9.774 151.122 2.854 210.18-35.275 4.762-73.838-2.481-105.834-14.924-17.386-6.761-32.812-14.983-44.6-23.235-4.285-3-8.02-6.019-11.203-8.923a63.245 63.245 0 0 0 3.34-3.557c14.844-17.115 17.859-41.615 14.031-64.781-2.39-14.463-7.447-28.663-14.908-40.76 24.99.44 54.528-7.35 83.19-17.91 27.592-10.166 53.726-23.013 73.13-36.09zm-452.484 0c19.404 13.077 45.538 25.924 73.13 36.09 28.662 10.56 58.2 18.35 83.19 17.91-7.461 12.097-12.519 26.297-14.908 40.76-3.827 23.166-.813 47.666 14.031 64.781a63.245 63.245 0 0 0 3.34 3.557c-3.183 2.904-6.918 5.924-11.203 8.923-11.788 8.252-27.214 16.474-44.6 23.235-31.996 12.443-70.559 19.686-105.834 14.924C39.532 202.9 40.49 115.165 29.758 51.778zM256 86.698c16.205 0 32.227 4.958 42.104 13.523 12.056 10.457 21.739 29.716 24.966 49.25 3.228 19.535-.004 38.68-9.869 50.055-11.469 13.224-34.123 21.07-57.201 21.07-23.078 0-45.732-7.846-57.201-21.07-9.865-11.375-13.097-30.52-9.87-50.055 3.228-19.534 12.91-38.793 24.967-49.25 9.877-8.565 25.9-13.523 42.104-13.523zm52.7 139.254c4.475 4.282 9.729 8.457 15.638 12.594 13.212 9.248 29.786 18.026 48.4 25.265 1.586.617 3.192 1.219 4.807 1.813 20.777 65.205 52.5 128.055 85.127 183.976-8.456-1.898-18.948-4.765-29.596-8.636-21.259-7.731-44.304-19.496-58.713-33.905l-11.398-11.398-3.72 15.683c-7.566 31.88-22.094 48.17-37.737 66.381-35.313-65.017-51.22-150.543-55.283-239.533 15.155-1.202 29.988-5.135 42.474-12.24zm-105.4 0c12.487 7.105 27.32 11.038 42.475 12.24-4.062 88.99-19.97 174.516-55.283 239.533-15.643-18.21-30.17-34.502-37.736-66.38l-3.72-15.684-11.4 11.398c-14.408 14.41-37.453 26.174-58.712 33.905-10.648 3.871-21.14 6.738-29.596 8.636 32.626-55.92 64.35-118.771 85.127-183.976 1.615-.594 3.22-1.196 4.807-1.813 18.614-7.239 35.188-16.017 48.4-25.265 5.91-4.137 11.163-8.312 15.639-12.594z" fill="#fff" fill-opacity="1"/></g></svg>