<svg xmlns="http://www.w3.org/2000/svg" viewBox="0 0 512 512" style="height: 512px; width: 512px;"><g class="" transform="translate(0,0)" style="touch-action: none;"><path d="M59.043 23.107l-35.307 93.635 25.96-14.935v56.238c-1.32 17.914-13.818 32.505-30.382 36.66v19.05c11.638-1.978 22.12-7.437 30.383-15.276v97.362c-11.62 1.89-22.1 7.268-30.383 15.012v39.398c1.68-17.417 14.077-31.45 30.383-35.373v177.567h18.69V314.904c16.467 4.014 28.965 18.346 30.55 36.057v141.554h18.686V354.387h.18c.175-19.373 13.357-35.384 31.015-39.55v177.61h18.688v-177.5c17.424 4.336 30.375 20.237 30.547 39.438h.004v138.13h18.687V354.27c.228-19.387 13.48-35.386 31.195-39.475v177.652h18.687V314.99c17.33 4.4 30.19 20.26 30.36 39.395h.19v138.13h18.688V350.868c1.63-17.776 14.256-32.13 30.84-36.034v177.61h18.688V314.95c17.403 4.33 30.287 20.196 30.287 39.353h.263v138.21h18.688v-142.85c1.926-17.374 14.528-31.27 30.966-34.934v177.717h18.687V315.06c16.42 4.294 28.754 18.897 29.98 36.782v-40.696c-8.176-7.73-18.507-13.15-29.98-15.17v-97.59c8.16 7.776 18.496 13.224 29.98 15.28V194.57c-16.925-4.484-29.482-19.89-29.98-38.53v-54.235l25.963 14.937-35.307-93.635-35.307 93.635 25.963-14.937v53.476h-.026c-.204 22.58-18.1 40.616-40.185 40.616-22.086 0-39.94-18-39.94-40.53h-.052v-53.56l25.962 14.936-35.306-93.635-35.308 93.635 25.963-14.937v55.582c-1.03 21.577-18.465 38.51-39.89 38.51-22.087 0-39.982-18.038-40.184-40.616h-.003v-53.475l25.963 14.937-35.307-93.635-35.306 93.635 25.962-14.937v53.593c-.264 22.523-18.137 40.498-40.184 40.498-22.086 0-39.983-18.037-40.186-40.615h-.064v-53.475l25.963 14.937-35.308-93.635-35.307 93.635 25.963-14.937v55.404c-1.17 21.667-18.67 38.686-40.123 38.686-22.086 0-39.983-18.037-40.185-40.615h-.123v-53.475l25.96 14.937-35.304-93.635zm9.344 175.143c8.284 7.946 18.826 13.498 30.55 15.504v97.365c-8.31-7.865-18.846-13.34-30.55-15.268V198.25zm99.12.053c8.29 7.93 18.83 13.47 30.55 15.463v97.523c-8.295-7.917-18.834-13.44-30.55-15.41v-97.577zm278.09.037v97.4c-11.853 1.795-22.545 7.217-30.966 15.092v-96.994c11.884-1.923 22.575-7.485 30.966-15.498zm-178.97.02c8.295 7.914 18.834 13.436 30.55 15.415v97.69c-8.28-7.968-18.82-13.54-30.55-15.55v-97.556zm-18.688.007v97.414c-11.974 1.873-22.75 7.444-31.196 15.5v-97.403c11.973-1.882 22.748-7.454 31.195-15.51zm-99.122.057v97.385c-11.987 1.913-22.764 7.537-31.195 15.65v-97.573c11.97-1.868 22.743-7.424 31.195-15.463zm216.575.1c8.297 7.87 18.842 13.347 30.55 15.285v97.516c-8.28-7.932-18.827-13.464-30.55-15.44v-97.363zm-18.688.097v97.187c-11.82 1.884-22.46 7.378-30.84 15.304v-97.24c11.817-1.872 22.466-7.344 30.84-15.25zM512.95 351.23v2.99h.107c-.01-1.004-.048-2-.106-2.99z" fill="#fff" fill-opacity="1" stroke="#000000" stroke-opacity="1" stroke-width="4" transform="translate(512, 512) scale(-1, -1) rotate(-180, 256, 256)"></path></g></svg>