<?xml version="1.0" encoding="UTF-8" standalone="no"?>
<!-- Created with Inkscape (http://www.inkscape.org/) -->

<svg
   xmlns:dc="http://purl.org/dc/elements/1.1/"
   xmlns:cc="http://creativecommons.org/ns#"
   xmlns:rdf="http://www.w3.org/1999/02/22-rdf-syntax-ns#"
   xmlns:svg="http://www.w3.org/2000/svg"
   xmlns="http://www.w3.org/2000/svg"
   version="1.1"
   width="512"
   height="512"
   id="svg2">
  <metadata
     id="metadata8">
    <rdf:RDF>
      <cc:Work
         rdf:about="">
        <dc:format>image/svg+xml</dc:format>
        <dc:type
           rdf:resource="http://purl.org/dc/dcmitype/StillImage" />
        <dc:title></dc:title>
      </cc:Work>
    </rdf:RDF>
  </metadata>
  <defs
     id="defs6" />
  <path
     d="m 0,0 512,0 0,512 -512,0 z"
     id="rect3034"
     style="fill:#000000" />
  <path
     d="m 310.46268,150.47162 c 25.39118,-13.22406 40.62441,-57.909874 28.3168,-83.065732 -4.98684,-10.192742 -10.6546,-14.249449 -19.8692,-14.221414 -9.57819,0.02914 -17.70116,4.236608 -26.47479,13.713181 -21.72439,23.464936 -26.15814,64.809365 -8.75863,81.673635 3.85744,3.73876 5.39579,4.32842 12.39492,4.75104 6.69909,0.40449 9.02552,-0.0563 14.3909,-2.85071 z m -27.88111,19.31397 c -9.87862,-4.15977 -19.24789,-14.76389 -24.47926,-27.70559 -3.52264,-8.71453 -4.24766,-31.52858 -1.40959,-44.35505 12.65217,-57.180474 68.96037,-83.698135 95.15132,-44.810358 10.30467,15.300142 12.73342,37.308166 6.59117,59.725408 -2.12978,7.773 -13.73204,41.06618 -14.62076,41.95491 -0.22126,0.22124 -10.98392,4.09034 -23.91703,8.59796 -24.33805,8.48264 -30.31848,9.53923 -37.31585,6.59272 z m 10.4704,50.00761 c -5.69186,-3.83024 -8.2986,-11.14532 -6.33558,-17.77886 3.35772,-11.34653 17.24153,-15.2416 26.22209,-7.35656 7.67093,6.73517 7.72533,16.19709 0.13676,23.78566 -3.56799,3.56799 -5.22076,4.27656 -9.97527,4.27656 -3.81536,0 -7.13609,-0.96727 -10.048,-2.9268 z m 116.32292,17.61886 c 12.91632,-2.80514 26.23261,-9.94601 35.31224,-18.93619 9.47499,-9.38167 12.83006,-15.80678 12.8226,-24.55587 -0.007,-8.40044 -3.11505,-14.00776 -10.28359,-18.55391 -24.47391,-15.52089 -73.00862,-0.99812 -86.62865,25.92141 -4.42202,8.73994 -4.936,18.78453 -1.21617,23.76684 9.3238,12.4882 28.0636,17.12043 49.99357,12.35772 z m -34.12913,18.51045 c -15.92003,-3.67016 -27.02258,-12.54654 -35.88045,-28.68603 -4.89675,-8.92212 -5.1969,-10.04563 -4.42908,-16.5786 1.0421,-8.86661 -1.91324,-18.51681 -7.92431,-25.87562 l -4.32748,-5.29774 27.80911,-9.57706 c 15.29503,-5.26738 32.78923,-11.34374 38.87603,-13.50301 23.1283,-8.20469 44.29393,-8.04568 62.08031,0.4664 46.28328,22.14995 23.99175,82.75707 -36.02721,97.95227 -10.10951,2.55945 -31.32538,3.14 -40.17692,1.09939 z M 34.14268,364.64 c -6.2807,-31.40351 22.08255,-71.83429 72.09738,-102.7722 24.77922,-15.32779 44.38814,-23.40525 114.86714,-47.31688 26.18248,-8.883 47.86347,-16.15092 48.17999,-16.15092 0.31651,0 0.63173,3.74984 0.70048,8.33295 0.14646,9.76194 4.05645,18.77708 10.49281,24.19293 2.23501,1.88064 3.84733,3.61539 3.58293,3.85502 -0.2644,0.23963 -4.04284,2.22112 -8.39654,4.40332 -4.35369,2.18219 -20.76969,10.99993 -36.48,19.59497 -109.32349,59.81037 -201.58572,109.76635 -202.80419,109.80965 -0.792,0.0282 -1.8,-1.74884 -2.24,-3.94884 z m 114.08,111.97843 c -2.64,-0.43636 -4.77608,-1.43803 -4.74684,-2.22591 0.0293,-0.78789 24.94125,-47.19238 55.36,-103.1211 l 55.30684,-101.68858 28.8,-15.68213 c 15.84,-8.62516 29.55881,-15.71331 30.48626,-15.75141 2.0832,-0.0856 3.77784,-5.49905 -18.48794,59.05857 -10.12356,29.35235 -21.31186,60.24732 -24.86288,68.65552 -23.86041,56.49715 -62.99556,99.6348 -99.51168,109.68912 -6.73792,1.85522 -15.14277,2.25617 -22.34376,1.06592 z"
     id="path2989"
     style="fill:#ffffff" />
</svg>
