<?xml version="1.0" encoding="UTF-8" standalone="no"?>
<!-- Created with Inkscape (http://www.inkscape.org/) -->

<svg
   xmlns:dc="http://purl.org/dc/elements/1.1/"
   xmlns:cc="http://creativecommons.org/ns#"
   xmlns:rdf="http://www.w3.org/1999/02/22-rdf-syntax-ns#"
   xmlns:svg="http://www.w3.org/2000/svg"
   xmlns="http://www.w3.org/2000/svg"
   version="1.1"
   width="512"
   height="512"
   id="svg2">
  <metadata
     id="metadata8">
    <rdf:RDF>
      <cc:Work
         rdf:about="">
        <dc:format>image/svg+xml</dc:format>
        <dc:type
           rdf:resource="http://purl.org/dc/dcmitype/StillImage" />
        <dc:title></dc:title>
      </cc:Work>
    </rdf:RDF>
  </metadata>
  <defs
     id="defs6" />
  <path
     d="m 0,0 512,0 0,512 -512,0 z"
     id="rect3024"
     style="fill:#000000;fill-opacity:1;fill-rule:nonzero;stroke:none" />
  <path
     d="M 291.03402,121.28354 C 285.5108,118.44138 283.49157,113.91451 283.54766,104.5 283.6292,90.812452 289.38168,77.677885 300,66.934543 c 13.87969,-14.043107 27.78415,-15.875412 32.62118,-4.298761 1.6131,3.860699 1.77077,14.929956 0.30431,21.364218 -5.02478,22.04679 -29.37908,43.7222 -41.89147,37.28354 z M 160.32596,374.2936 c 22.41998,-17.09048 43.29508,-35.81235 72.74494,-65.24144 49.11826,-49.08362 92.57758,-101.73982 136.36144,-165.21828 16.84711,-24.42518 39.71368,-59.912767 39.32472,-61.029687 -0.14138,-0.405991 -21.82705,-13.862754 -48.19037,-29.903917 -46.08195,-28.03927 -47.99381,-29.091729 -49.5,-27.249223 C 310.20501,26.705145 259.775,84.889154 199,154.94885 138.225,225.00855 88.5,282.61753 88.5,282.9688 c 0,0.696 64.79332,95.89166 65.32596,95.97823 0.17927,0.0291 3.10427,-2.06491 6.5,-4.65343 z m 63.21065,70.06129 C 301.08606,384.00281 384.86508,294.1209 442.44508,209.5 463.47503,178.59391 490.23826,132.78132 488.32352,130.96649 487.08128,129.78906 424.72208,91.929832 424.5279,92.235184 424.4353,92.380833 421.71513,96.775 418.48313,102 c -8.45471,13.66826 -32.15559,49.24486 -43.30255,65 -62.38967,88.18176 -130.37453,162.68131 -197.28295,216.18773 l -13.72378,10.97486 7.99934,11.6687 c 4.39963,6.41779 13.92302,20.33006 21.16307,30.91615 7.24006,10.58609 13.63022,19.24859 14.20035,19.25 0.57014,0.001 7.77014,-5.23774 16,-11.64255 z M 42.629705,433.5 c 15.916657,-20.72917 61.112235,-82.3545 64.727635,-88.25778 0.49007,-0.8002 -5.12078,-9.89517 -15.422942,-25 -8.906286,-13.05822 -16.772325,-24.36347 -17.480086,-25.12277 -1.076425,-1.15481 -2.816013,0.0715 -10.638951,7.5 -10.029077,9.52338 -26.129732,23.56706 -37.069968,32.33402 L 20,340.35889 l 0,60.87247 0,60.87247 4.788225,-5.80191 C 27.421749,453.11086 35.450415,442.85 42.629705,433.5 z"
     id="path2989"
     style="fill:#ffffff" />
</svg>
