<?xml version="1.0" encoding="UTF-8" standalone="no"?>
<!-- Created with Inkscape (http://www.inkscape.org/) -->

<svg
   xmlns:dc="http://purl.org/dc/elements/1.1/"
   xmlns:cc="http://creativecommons.org/ns#"
   xmlns:rdf="http://www.w3.org/1999/02/22-rdf-syntax-ns#"
   xmlns:svg="http://www.w3.org/2000/svg"
   xmlns="http://www.w3.org/2000/svg"
   version="1.1"
   width="512"
   height="512"
   id="svg2">
  <metadata
     id="metadata8">
    <rdf:RDF>
      <cc:Work
         rdf:about="">
        <dc:format>image/svg+xml</dc:format>
        <dc:type
           rdf:resource="http://purl.org/dc/dcmitype/StillImage" />
        <dc:title></dc:title>
      </cc:Work>
    </rdf:RDF>
  </metadata>
  <defs
     id="defs6" />
  <path
     d="m 0,0 512,0 0,512 -512,0 z"
     id="rect3024"
     style="fill:#000000;fill-opacity:1;fill-rule:nonzero;stroke:none" />
  <path
     d="m 201.91098,259.3287 c 11.00298,-8.22256 27.31211,-25.05321 37.45327,-38.65091 5.79537,-7.77069 9.29482,-11.63886 10.21125,-11.28719 0.76684,0.29426 14.44246,8.20176 30.39026,17.57221 15.94781,9.37046 29.35033,17.03719 29.7834,17.03719 0.43306,0 3.84519,-9.21021 7.58251,-20.46712 l 6.79512,-20.46713 8.14608,5.10526 c 15.56191,9.75286 17.39288,10.78642 28.7789,16.24534 12.46543,5.97643 28.2928,11.3778 42.52317,14.51179 8.13229,1.79099 31.59476,5.29114 32.01722,4.77636 0.0923,-0.11248 -14.40318,-16.33206 -32.21217,-36.04353 C 385.57099,187.9495 371,171.50895 371,171.1264 c 0,-0.38255 11.57443,-0.51191 25.72096,-0.28747 l 25.72096,0.40808 -8.47096,-9.21892 C 372.68857,117.10062 346.01948,64.216605 346.00319,27.25 L 346,20 244.65297,20 143.30595,20 142.65066,31.25 c -2.3862,40.966177 -21.56694,81.7064 -54.883521,116.57354 -4.374364,4.57795 -7.798982,8.452 -7.610264,8.609 0.188719,0.157 11.818125,1.54419 25.843125,3.08264 14.025,1.53846 25.86358,3.11299 26.30795,3.49896 0.44438,0.38597 -8.36519,14.82819 -19.57681,32.09381 L 92.346367,226.5 l 3.076817,0.86035 c 4.553855,1.27336 31.828866,0.0868 41.317766,-1.79751 10.3154,-2.04841 26.17938,-6.96824 41.75905,-12.95056 6.6,-2.53429 12.5625,-4.6088 13.25,-4.61004 0.97081,-0.002 1.25,6.36323 1.25,28.49776 0,15.675 0.29744,28.5 0.66098,28.5 0.36354,0 4.07604,-2.55209 8.25,-5.6713 z m 31.91763,223.71913 c 13.42976,-3.4218 28.68467,-4.62809 40.25959,-3.18354 5.56301,0.69427 11.22141,1.68313 12.57422,2.19746 2.42044,0.92025 2.45034,0.86742 1.87516,-3.31329 C 288.2161,476.41181 286.37753,460.325 284.45186,443 278.2739,387.41759 272.91077,348.72212 266.43406,313 262.19496,289.61942 256.95143,266 256,266 c -0.91534,0 -6.04059,22.96721 -10.37671,46.5 -6.51521,35.35902 -12.65332,79.63921 -19.09956,137.78368 -4.09958,36.97776 -4.05308,36.13343 -1.94512,35.32453 0.86823,-0.33317 5.03073,-1.48534 9.25,-2.56038 z M 319.5,484.47188 c 4.95,-1.94377 13.5,-5.88262 19,-8.753 l 10,-5.21888 -0.29452,-9.5 c -0.64983,-20.96042 -6.74541,-56.10461 -14.80313,-85.34779 -1.94706,-7.06628 -3.33742,-13.05047 -3.0897,-13.2982 0.70653,-0.70652 11.87833,19.67678 19.53706,35.64599 7.69803,16.05114 14.59451,33.90184 18.25273,47.24497 1.31866,4.80974 2.82427,8.74724 3.34581,8.75 1.85438,0.01 21.13829,-20.65902 26.33717,-28.22866 l 5.28543,-7.69565 -1.16943,-6.78533 c -2.61735,-15.18652 -11.94787,-42.42629 -20.08575,-58.63881 -2.16812,-4.31941 -3.74528,-8.05025 -3.50478,-8.29074 0.67194,-0.67194 12.22963,12.23786 18.58148,20.75528 3.12176,4.18609 8.13556,11.71606 11.14178,16.73328 3.00622,5.01722 5.75327,9.12975 6.10456,9.13894 0.8261,0.0216 1.8455,-5.4904 2.84123,-15.36285 2.947,-29.21885 -9.67631,-72.81394 -32.42959,-111.99694 l -6.51325,-11.21634 -11.26855,-4.31465 c -6.1977,-2.37306 -15.95662,-6.73909 -21.68649,-9.7023 -5.72987,-2.9632 -10.50584,-5.27572 -10.61326,-5.13892 -0.10741,0.13679 -3.01302,8.79872 -6.4569,19.24872 -3.44387,10.45 -6.60452,19.37661 -7.02365,19.83691 -0.41914,0.4603 -11.64271,-5.54745 -24.94127,-13.35056 -13.29856,-7.80311 -24.32601,-14.02972 -24.50545,-13.83691 -0.17945,0.19281 1.84854,8.91598 4.50664,19.38482 7.37073,29.0295 14.56218,70.1733 21.40554,122.46574 C 299.66608,403.9055 309,484.88601 309,487.17494 c 0,1.2952 0.92339,1.05749 10.5,-2.70306 z M 207.47586,446 c 6.81326,-61.32083 12.29489,-100.60761 19.53399,-140 3.28693,-17.88619 9.13957,-44.23716 11.66044,-52.5 0.33559,-1.1 -4.09014,2.5 -9.83495,8 -12.44243,11.91221 -22.19689,19.03729 -39.92797,29.16514 -10.20821,5.83084 -13.36421,7.22142 -14.0246,6.17942 -0.46868,-0.73951 -0.85904,-14.92853 -0.86746,-31.53115 L 174,235.12682 l -8.59819,2.90637 c -4.729,1.59851 -13.54818,4.01938 -19.59818,5.37973 -12.3725,2.78197 -11.07027,1.70606 -19.81341,16.36985 -21.59356,36.21621 -34.995506,77.4965 -34.971188,107.71723 0.01366,16.977 5.513813,35.81491 15.032948,51.48756 4.99233,8.21956 14.4084,20.3687 19.30798,24.91224 2.45662,2.2781 2.62175,2.30346 3.25645,0.5 5.88359,-16.71785 13.5095,-33.13937 21.16694,-45.58056 8.84646,-14.37302 11.74874,-18.79779 12.33664,-18.80823 0.341,-0.006 -0.68746,4.60149 -2.28546,10.23899 -6.44269,22.72887 -10.83155,49.83517 -10.83369,66.9106 l -8.4e-4,6.66059 8.75,5.48147 c 12.55029,7.86217 23.16424,12.92933 38.25,18.26075 5.88766,2.08074 6.52242,2.13885 6.73798,0.61687 0.1309,-0.92415 2.26294,-19.90528 4.73788,-42.18028 z"
     id="path3001"
     style="fill:#ffffff" />
</svg>
