<?xml version="1.0" encoding="UTF-8" standalone="no"?>
<!-- Created with Inkscape (http://www.inkscape.org/) -->

<svg
   xmlns:dc="http://purl.org/dc/elements/1.1/"
   xmlns:cc="http://creativecommons.org/ns#"
   xmlns:rdf="http://www.w3.org/1999/02/22-rdf-syntax-ns#"
   xmlns:svg="http://www.w3.org/2000/svg"
   xmlns="http://www.w3.org/2000/svg"
   xmlns:sodipodi="http://sodipodi.sourceforge.net/DTD/sodipodi-0.dtd"
   xmlns:inkscape="http://www.inkscape.org/namespaces/inkscape"
   id="svg2"
   version="1.1"
   inkscape:version="0.48.3.1 r9886"
   width="400"
   height="400"
   sodipodi:docname="Icon.6_28.png">
  <metadata
     id="metadata8">
    <rdf:RDF>
      <cc:Work
         rdf:about="">
        <dc:format>image/svg+xml</dc:format>
        <dc:type
           rdf:resource="http://purl.org/dc/dcmitype/StillImage" />
        <dc:title></dc:title>
      </cc:Work>
    </rdf:RDF>
  </metadata>
  <defs
     id="defs6" />
  <sodipodi:namedview
     pagecolor="#ffffff"
     bordercolor="#666666"
     borderopacity="1"
     objecttolerance="10"
     gridtolerance="10"
     guidetolerance="10"
     inkscape:pageopacity="0"
     inkscape:pageshadow="2"
     inkscape:window-width="1855"
     inkscape:window-height="1056"
     id="namedview4"
     showgrid="false"
     inkscape:zoom="0.59"
     inkscape:cx="200"
     inkscape:cy="200"
     inkscape:window-x="65"
     inkscape:window-y="24"
     inkscape:window-maximized="1"
     inkscape:current-layer="svg2" />
  <path
     style="fill:#000000"
     d="m 0,0 400,0 0,400 -400,0 z"
     id="rect3023" />
  <path
     id="path2989"
     style="fill:#ffffff"
     d="m 205.01582,150.90251 c -9.73544,-2.08362 -11.77758,-16.06774 -3.09537,-21.19645 10.21888,-6.03644 22.04011,4.73439 16.64549,15.16643 -2.68535,5.19289 -7.48393,7.32833 -13.55012,6.03002 z m -49.6277,7.17087 c -6.49163,-2.78721 -8.53159,-12.37256 -3.82384,-17.9674 7.38309,-8.77431 20.43572,-3.91959 20.43572,7.60075 0,6.08384 -3.93004,10.34654 -10.03244,10.88165 -2.45716,0.21546 -5.41791,-0.0163 -6.57944,-0.515 z m 50.54799,215.29622 c 23.79853,-5.91132 39.2178,-24.17776 39.16897,-46.40151 -0.0599,-27.2607 -18.54494,-46.30598 -36.87058,-37.98808 C 204.01874,290.89352 193,300.44825 193,302.19037 c 0,0.49514 1.50335,0.61823 3.34077,0.27352 7.18437,-1.34779 16.63329,3.71769 20.35317,10.91115 2.07437,4.01139 2.03439,12.31585 -0.079,16.40263 -0.91891,1.77697 -3.53952,4.46644 -5.82359,5.9766 -3.80191,2.5137 -4.9615,2.74573 -13.72211,2.74573 -8.22421,0 -10.34235,-0.36506 -15.06927,-2.59715 -6.27582,-2.96351 -15.1557,-10.59097 -18.44214,-15.84107 -5.55502,-8.87416 -7.14959,-22.53051 -4.02947,-34.50948 4.14607,-15.91784 18.40846,-33.89457 34.38459,-43.33935 l 3.86861,-2.28705 5.80335,8.28705 c 11.26365,16.08425 24.33403,27.00467 48.00633,40.10977 17.60729,9.74748 28.76268,12.85582 45.89799,12.78901 25.95975,-0.10121 49.31983,-9.01332 64.92964,-24.77133 19.12497,-19.30654 20.37963,-41.06429 3.58179,-62.11397 -8.97335,-11.24466 -23.84871,-18.6908 -32.62051,-16.3288 -5.5489,1.49416 -10.26476,4.84514 -13.53244,9.6158 -2.90785,4.24534 -6.3635,12.30414 -5.60243,13.06521 0.25142,0.25142 1.76158,-0.22315 3.35591,-1.05459 3.26526,-1.70285 10.03177,-1.99429 13.72259,-0.59104 3.72985,1.41809 9.57251,6.94343 11.65162,11.01882 C 352.64672,248.90912 334.75281,265 304,265 c -16.29247,0 -26.14937,-3.54378 -43.69914,-15.71084 -9.05531,-6.27794 -23.8365,-21.1291 -29.5949,-29.735 -2.55619,-3.82021 -4.54062,-7.05283 -4.40986,-7.18359 0.13077,-0.13077 4.73014,0.39861 10.22083,1.17639 18.96117,2.68595 38.00521,1.12846 54.12023,-4.42615 11.00976,-3.79491 18.17275,-8.14577 26.85847,-16.31408 5.67073,-5.33292 8.1533,-8.68639 12.21492,-16.5 C 344.10609,148.61305 345.6308,122.44713 334.21528,99 329.02996,88.349502 317.29709,76.655717 306.7969,71.672944 c -21.76604,-10.328879 -43.06307,-5.500399 -57.78251,13.1005 -4.65956,5.888256 -6.94852,10.310203 -8.6583,16.726556 -2.74179,10.28927 -1.15898,17.05681 5.50066,23.51888 5.07347,4.92294 9.98189,6.881 19.39325,7.73633 6.21433,0.56477 7.08615,-0.23686 3.64359,-3.35022 -7.38965,-6.68303 -7.67347,-19.65615 -0.59586,-27.23636 7.77468,-8.326783 20.89304,-6.402659 28.8569,4.23257 4.96433,6.62954 6.37375,12.10514 6.20302,24.0988 -0.30488,21.41715 -10.42041,37.82351 -28.70679,46.55948 -13.03318,6.22636 -27.83547,6.15737 -39.73535,-0.1852 -5.28818,-2.81856 -6.00923,-3.62428 -8.51068,-9.50997 l -2.733,-6.43051 3.10751,-3.2169 c 13.01118,-13.46921 7.82645,-36.15747 -9.68391,-42.3766 l -4.94502,-1.75632 -2.19248,-9.54199 C 204.45927,80.111117 196.84443,64.844428 184,52 171.62664,39.626641 156.00946,31.951215 136.11901,28.467774 119.66413,25.586009 106.11595,27.341632 92,34.184876 85.283598,37.440909 81.797257,40.004655 75.385323,46.402788 68.618166,53.15538 66.517735,56.077566 62.736667,64 c -6.626907,13.885292 -8.105966,21.274256 -7.472689,37.33148 0.589125,14.93774 2.219205,21.06069 9.072205,34.07726 7.531056,14.30447 24.752941,29.87601 40.978787,37.05185 6.01289,2.65919 18.57444,6.7845 25.18503,8.27098 3.76571,0.84677 3.49193,0.94224 -4.67432,1.62996 -17.46403,1.47076 -47.079832,12.06328 -64.012645,22.89507 -23.444522,14.99728 -37.787021,41.91142 -37.806029,70.94418 -0.0079,12.08719 1.023717,18.29113 4.670796,28.08888 6.231496,16.7407 18.470287,28.40389 34.347428,32.73204 6.12471,1.66961 20.96458,1.41389 27.455652,-0.47312 11.279788,-3.27912 19.591888,-13.15835 19.671058,-23.37976 0.0695,-8.9709 -5.14739,-15.9296 -15.586544,-20.79058 -6.687682,-3.11412 -7.783769,-3.0828 -6.540645,0.18686 4.171995,10.97318 -3.940518,20.41957 -14.982716,17.44622 -7.858834,-2.11617 -15.08425,-12.48223 -17.028939,-24.43086 -3.278878,-20.1462 12.958888,-44.95431 35.663507,-54.48681 16.226887,-6.81284 37.669087,-9.18639 58.111817,-6.4327 l 4.28842,0.57766 -5.36284,5.6307 C 130.80633,249.67136 120.89825,271.62744 120.67637,293 c -0.12088,11.64389 0.99687,17.27607 5.91451,29.80244 10.45993,26.64383 28.61719,44.51459 51.40912,50.59794 7.39819,1.97464 19.91797,1.96084 27.93611,-0.0308 z" />
</svg>
