<?xml version="1.0" encoding="UTF-8" standalone="no"?>
<!-- Created with Inkscape (http://www.inkscape.org/) -->

<svg
   xmlns:dc="http://purl.org/dc/elements/1.1/"
   xmlns:cc="http://creativecommons.org/ns#"
   xmlns:rdf="http://www.w3.org/1999/02/22-rdf-syntax-ns#"
   xmlns:svg="http://www.w3.org/2000/svg"
   xmlns="http://www.w3.org/2000/svg"
   xmlns:sodipodi="http://sodipodi.sourceforge.net/DTD/sodipodi-0.dtd"
   xmlns:inkscape="http://www.inkscape.org/namespaces/inkscape"
   id="svg2"
   version="1.1"
   inkscape:version="0.48.3.1 r9886"
   width="400"
   height="400"
   sodipodi:docname="Icon.3_100.png">
  <metadata
     id="metadata8">
    <rdf:RDF>
      <cc:Work
         rdf:about="">
        <dc:format>image/svg+xml</dc:format>
        <dc:type
           rdf:resource="http://purl.org/dc/dcmitype/StillImage" />
        <dc:title></dc:title>
      </cc:Work>
    </rdf:RDF>
  </metadata>
  <defs
     id="defs6" />
  <sodipodi:namedview
     pagecolor="#ffffff"
     bordercolor="#666666"
     borderopacity="1"
     objecttolerance="10"
     gridtolerance="10"
     guidetolerance="10"
     inkscape:pageopacity="0"
     inkscape:pageshadow="2"
     inkscape:window-width="1855"
     inkscape:window-height="1056"
     id="namedview4"
     showgrid="false"
     inkscape:zoom="0.59"
     inkscape:cx="200"
     inkscape:cy="200"
     inkscape:window-x="65"
     inkscape:window-y="24"
     inkscape:window-maximized="1"
     inkscape:current-layer="svg2" />
  <path
     style="fill:#000000"
     d="m 0,0 400,0 0,400 -400,0 z"
     id="rect3028" />
  <path
     id="path2989"
     style="fill:#ffffff"
     d="m 248.76273,57.243223 6.26273,-12.170672 -8.54994,-2.665734 C 241.77306,40.940664 237.7758,39.91184 237.59274,40.120542 236.70403,41.133722 225,63.173782 225,63.834145 c 0,0.853557 14.94431,6.08698 16.5,5.77822 0.55,-0.109159 3.81823,-5.675273 7.26273,-12.369142 z m 51.10859,16.834929 C 303.7921,67.521136 307,61.911998 307,61.613402 307,60.784644 287.84365,54.978598 286.94392,55.53466 286.04269,56.09165 274,78.774769 274,79.915297 c 0,0.670751 14.8368,5.701263 17.62132,5.974622 0.61673,0.06054 4.32923,-5.25475 8.25,-11.811767 z M 124.99219,234 c 13.82035,-46.28654 31.76689,-94.74365 53.86769,-145.447076 3.34361,-7.670892 5.97018,-14.056198 5.83681,-14.189568 -0.13337,-0.13337 -20.13783,6.142814 -44.45435,13.947076 L 96.030476,102.5 l -0.01009,9 c -0.02733,24.36723 3.127611,63.34622 6.964724,86.04847 3.92012,23.19333 14.22352,58.6879 16.05288,55.30116 0.40096,-0.7423 3.08035,-9.22463 5.9542,-18.84963 z m 21.05099,39.75 c 17.48969,-42.40789 39.76447,-90.79088 67.98948,-147.67979 14.24648,-28.71448 21.48094,-44.313157 20.68748,-44.605597 -8.71126,-3.210667 -16.2482,-5.326761 -16.81459,-4.720919 -0.58665,0.627502 -91.03877,167.860026 -96.25939,177.969316 -1.64815,3.19148 -1.62909,3.27069 2.84497,11.82396 4.59067,8.77619 13.50111,22.44889 14.63579,22.458 0.3448,0.003 3.45712,-6.85747 6.91626,-15.24497 z m 61.84583,51.84618 c 24.91623,-9.62266 42.71257,-23.67929 57.49131,-45.41013 18.44307,-27.11894 29.92276,-68.75945 33.54707,-121.68605 1.46521,-21.39677 1.74517,-28.50749 1.12,-28.44731 -0.30106,0.029 -25.47096,38.06791 -55.93311,84.53095 -30.46215,46.46304 -55.55261,84.31137 -55.75658,84.1074 -0.42366,-0.42367 8.3743,-22.09684 17.93881,-44.19104 19.10628,-44.13586 45.71474,-97.15986 71.81984,-143.11895 C 281.90236,104.71562 285,98.845874 285,98.337164 285,97.575585 269.82973,92 267.75759,92 c -0.34282,0 -3.425,5.2875 -6.84928,11.75 -36.92081,69.67912 -73.27413,131.91604 -103.20706,176.69057 -5.49349,8.21732 -10.17699,15.66265 -10.40777,16.54518 -0.81091,3.10091 16.5314,16.38313 30.70652,23.51767 7.06915,3.558 18.55366,8.3401 20.2877,8.4477 0.43323,0.0269 4.75382,-1.48284 9.60131,-3.35494 z m 3.81138,42.89696 C 295.00951,338.68034 333.87819,265.64781 341.02389,125.5 342.52235,96.110877 342.06026,71.627955 340,71.250576 c -0.97603,-0.178778 -5.77911,6.261593 -13.75,18.437131 -11.12748,16.997233 -12.25014,19.128843 -12.25151,23.262093 -0.006,19.48109 -2.68196,57.06884 -5.59123,78.5502 -9.54055,70.44508 -35.42387,115.37747 -79.86948,138.65018 -5.52078,2.89081 -14.52922,6.90756 -20.01876,8.92612 l -9.98098,3.67011 -9.22074,-3.33777 c -17.57866,-6.36321 -31.20349,-14.19085 -44.25888,-25.42727 l -6.77458,-5.8307 -5.87689,8.35636 c -3.23229,4.596 -5.9818,8.25145 -6.11003,8.12323 -0.12822,-0.12823 1.569,-4.88032 3.77162,-10.5602 3.38738,-8.73503 3.80641,-10.59318 2.71811,-12.05328 -0.70766,-0.94942 -3.79792,-5.0541 -6.86724,-9.1215 C 104.91056,265.05481 92.117079,225.49883 86.495152,171 83.971782,146.53851 81.92424,93 83.512098,93 83.986068,93 163.01246,67.670197 183.57334,60.92804 l 9.07333,-2.975256 6.14607,-12.726392 c 3.38033,-6.999516 6.27233,-13.353849 6.42666,-14.120741 0.16596,-0.824691 -0.96948,-1.735472 -2.77922,-2.229311 -2.54219,-0.693712 -15.06066,2.85812 -74,20.995811 L 57.5,71.702923 57.667922,96.845329 C 58.090119,160.0594 66.693701,216.73798 82.206461,258.5 100.69047,308.26095 128.73823,340.98456 170,360.92961 c 11.42045,5.5204 26.19953,11.01927 29.70039,11.05066 1.21021,0.0109 6.61021,-1.55836 12,-3.48713 z" />
</svg>
