<?xml version="1.0" encoding="UTF-8" standalone="no"?>
<!-- Created with Inkscape (http://www.inkscape.org/) -->

<svg
   xmlns:dc="http://purl.org/dc/elements/1.1/"
   xmlns:cc="http://creativecommons.org/ns#"
   xmlns:rdf="http://www.w3.org/1999/02/22-rdf-syntax-ns#"
   xmlns:svg="http://www.w3.org/2000/svg"
   xmlns="http://www.w3.org/2000/svg"
   xmlns:sodipodi="http://sodipodi.sourceforge.net/DTD/sodipodi-0.dtd"
   xmlns:inkscape="http://www.inkscape.org/namespaces/inkscape"
   id="svg2"
   version="1.1"
   inkscape:version="0.48.3.1 r9886"
   width="400"
   height="400"
   sodipodi:docname="Icons8_01.png">
  <metadata
     id="metadata8">
    <rdf:RDF>
      <cc:Work
         rdf:about="">
        <dc:format>image/svg+xml</dc:format>
        <dc:type
           rdf:resource="http://purl.org/dc/dcmitype/StillImage" />
        <dc:title></dc:title>
      </cc:Work>
    </rdf:RDF>
  </metadata>
  <defs
     id="defs6" />
  <sodipodi:namedview
     pagecolor="#ffffff"
     bordercolor="#666666"
     borderopacity="1"
     objecttolerance="10"
     gridtolerance="10"
     guidetolerance="10"
     inkscape:pageopacity="0"
     inkscape:pageshadow="2"
     inkscape:window-width="1855"
     inkscape:window-height="1056"
     id="namedview4"
     showgrid="false"
     inkscape:zoom="0.59"
     inkscape:cx="200"
     inkscape:cy="200"
     inkscape:window-x="65"
     inkscape:window-y="24"
     inkscape:window-maximized="1"
     inkscape:current-layer="svg2" />
  <path
     style="fill:#000000"
     d="m 0,0 400,0 0,400 -400,0 z"
     id="rect3024" />
  <path
     id="path2989"
     style="fill:#ffffff"
     d="m 89,193.73099 c 0,-3.81698 4.227014,-18.45273 7.72029,-26.73099 12.44107,-29.48247 35.60546,-52.84963 64.98116,-65.54997 7.99992,-3.458698 24.79409,-8.32861 25.61002,-7.426302 0.39684,0.438851 -8.12384,58.330842 -8.6001,58.431562 -0.11625,0.0246 -3.22769,1.54533 -6.9143,3.37943 l -6.70292,3.33471 -15.1789,-8.61956 c -8.34839,-4.74076 -15.32137,-8.47708 -15.49552,-8.30294 -0.17414,0.17415 3.53185,7.17888 8.23554,15.56608 l 8.55217,15.24946 -3.62351,7.33341 -3.62351,7.33341 -5.23021,0.64417 c -2.87662,0.35429 -15.24271,2.13167 -27.48021,3.94973 -21.355894,3.17273 -22.25,3.2293 -22.25,1.4078 z m 220.5,2.75651 c -8.25,-1.26962 -25.00559,-3.77335 -37.23464,-5.56384 l -22.23463,-3.25545 -3.50532,-7.02699 -3.50531,-7.02699 8.60237,-15.36136 c 4.73131,-8.44874 8.43019,-15.53355 8.21973,-15.74401 -0.21046,-0.21045 -4.87355,2.20021 -10.36243,5.35704 -5.48887,3.15683 -12.29707,7.00035 -15.12933,8.54116 l -5.14957,2.80147 -7.49681,-3.70513 -7.49681,-3.70512 -1.61339,-10.64914 C 211.7065,135.29211 209.70156,121.8375 208.13845,111.25 L 205.29642,92 l 8.2208,0 c 28.27946,0 58.48181,12.57998 80.38458,33.48206 13.05125,12.45496 23.27869,27.5 29.68329,43.66549 2.54259,6.41759 7.41123,24.87292 7.41362,28.10245 0.002,2.26961 -2.3343,2.18676 -21.49871,-0.7625 z m -129,136.52598 C 145.00124,323.99363 115.3957,300.06707 99.683397,267.69924 92.763153,253.44332 88.845082,238.92635 87.448125,222.36592 l -0.686152,-8.13408 2.369013,0.4003 c 1.302958,0.22017 14.258654,2.19515 28.790434,4.38884 14.53179,2.19369 26.49989,4.09889 26.59579,4.23378 0.0959,0.13488 1.73066,3.2146 3.6328,6.84382 l 3.45843,6.59857 -8.72559,15.39672 c -4.79907,8.4682 -8.55579,15.56653 -8.34826,15.77406 0.20753,0.20753 7.34356,-3.52377 15.85784,-8.29177 l 15.4805,-8.6691 6.31353,3.16499 c 3.47245,1.74074 6.39286,3.22847 6.48981,3.30607 0.30899,0.24731 11.32373,74.04986 11.32373,75.87293 0,2.07565 -0.43923,2.06467 -9.5,-0.23757 z m 19.57307,20.8793 c 1.86781,-13.58545 2.62641,-16.89578 3.87472,-16.90809 1.232,-0.0122 1.27699,-0.18978 0.21808,-0.86102 -1.08684,-0.68894 -0.26844,-8.05407 4.41524,-39.73468 l 5.74937,-38.88899 7.1916,-3.33818 7.1916,-3.33817 15.3074,8.5906 c 8.41907,4.72483 15.5023,8.39571 15.74051,8.1575 0.23821,-0.23821 -3.47436,-7.31409 -8.25016,-15.72418 l -8.68326,-15.29107 3.24611,-6.71005 c 2.1499,-4.44406 3.95184,-6.87375 5.33592,-7.19479 1.14939,-0.26661 27.1773,-4.23296 57.8398,-8.81412 30.6625,-4.58116 55.75,-8.58162 55.75,-8.8899 0,-0.30829 -5.9625,-1.36525 -13.25,-2.3488 -20.57478,-2.77685 -18.5135,-1.76382 -19.24963,-9.46031 -2.83856,-29.67825 -10.75714,-50.61049 -28.09022,-74.25471 l -3.38402,-4.61618 17.74418,-23.883821 C 344.58732,55.633923 344.61428,55.595665 342.43282,56.808899 341.36977,57.400121 328.125,67.059513 313,78.274214 l -27.5,20.390365 -7,-5.123746 C 257.54318,78.201199 234.09529,69.205241 209.80903,67.18702 L 201.54177,66.5 199.43301,52.245453 c -1.15982,-7.84 -2.3468,-14.492576 -2.63772,-14.783501 -0.29093,-0.290925 -0.78205,1.173621 -1.09137,3.254547 -0.30933,2.080925 -1.31317,8.782989 -2.23076,14.893475 l -1.66834,11.109974 -8.15241,0.640197 c -23.02682,1.80826 -46.39545,10.950081 -67.47587,26.396599 -4.90899,3.597022 -7.71136,5.064232 -8.5,4.450267 -3.9961,-3.110993 -55.433556,-41.007052 -56.581048,-41.685554 -2.084302,-1.23243 -1.779333,-0.795443 21.182124,30.351635 l 20.91649,28.373088 -2.333332,3.12691 c -16.573072,22.20965 -25.026172,43.41712 -28.000337,70.24835 l -1.23278,11.12144 -16.313829,2.34406 C 36.341223,203.37618 29,204.70857 29,205.04781 c 0,0.33924 7.3125,1.66576 16.25,2.94783 8.9375,1.28207 16.38799,2.43302 16.556645,2.55767 0.168654,0.12466 0.93359,4.66366 1.699858,10.08667 3.211732,22.73 11.78412,43.49513 25.970302,62.90859 l 4.419932,6.04858 -22.009673,29.80679 c -12.10532,16.39373 -21.84254,29.97392 -21.638268,30.17819 0.204272,0.20427 13.619359,-9.50402 29.811304,-21.57399 16.191945,-12.06996 29.67727,-21.95951 29.96739,-21.97676 0.29012,-0.0173 3.66512,2.24308 7.5,5.02299 18.76154,13.60022 40.27658,22.09743 63.47251,25.06802 5.225,0.66915 9.59401,1.27186 9.70892,1.33937 0.25826,0.15173 5.2852,33.14044 5.30639,34.82259 0.0107,0.84794 0.27544,0.80512 0.87528,-0.14157 0.47298,-0.74646 1.9051,-8.95896 3.18248,-18.25 z" />
</svg>
