<?xml version="1.0" encoding="UTF-8" standalone="no"?>
<!-- Created with Inkscape (http://www.inkscape.org/) -->

<svg
   xmlns:dc="http://purl.org/dc/elements/1.1/"
   xmlns:cc="http://creativecommons.org/ns#"
   xmlns:rdf="http://www.w3.org/1999/02/22-rdf-syntax-ns#"
   xmlns:svg="http://www.w3.org/2000/svg"
   xmlns="http://www.w3.org/2000/svg"
   version="1.1"
   width="512"
   height="512"
   id="svg2">
  <metadata
     id="metadata8">
    <rdf:RDF>
      <cc:Work
         rdf:about="">
        <dc:format>image/svg+xml</dc:format>
        <dc:type
           rdf:resource="http://purl.org/dc/dcmitype/StillImage" />
        <dc:title></dc:title>
      </cc:Work>
    </rdf:RDF>
  </metadata>
  <defs
     id="defs6" />
  <path
     d="m 0,0 512,0 0,512 -512,0 z"
     id="rect3084"
     style="fill:#000000;fill-opacity:1;fill-rule:nonzero;stroke:none" />
  <path
     d="m 347.54965,155.5 c 2.6042,-6.6 5.23338,-12.52798 5.84262,-13.17329 0.60925,-0.64531 7.63016,-4.05352 15.60201,-7.57379 l 14.49428,-6.40049 4.71909,-30.426215 c 2.5955,-16.734418 4.62307,-30.745203 4.50572,-31.135076 -0.11735,-0.389874 -4.21152,3.660126 -9.09814,9 -4.88662,5.339873 -15.33547,16.734146 -23.21966,25.320611 l -14.3349,15.61174 -1.50532,19.38826 c -0.82793,10.66354 -1.78596,22.31325 -2.12897,25.88825 -0.343,3.575 -0.39594,6.275 -0.11763,6 0.2783,-0.275 2.63671,-5.9 5.2409,-12.5 z m -83.16501,207.25 5.57291,-14.25 5.78009,-116.5 5.7801,-116.5 7.99113,-0.2558 c 4.39512,-0.14069 8.49026,0.0843 9.1003,0.5 0.80439,0.54812 -0.0878,24.1124 -3.24697,85.7558 -2.39588,46.75 -4.245,86.96605 -4.10917,89.36899 0.22312,3.947 1.74224,0.66296 15.72766,-34 L 322.46138,218.5 l 3.0354,-59.4441 3.0354,-59.444099 L 291.7423,58.0559 C 271.50786,35.200155 254.56685,16.36791 254.09561,16.206466 c -0.47125,-0.161443 -18.73732,18.513557 -40.59129,41.5 L 173.76985,99.5 174.40376,119 c 0.34864,10.725 0.90929,24.07447 1.24588,29.66548 l 0.61197,10.16549 25.3692,18.12611 c 13.95305,9.96936 25.35657,18.4449 25.34114,18.83452 -0.0382,0.96461 31.4685,181.2084 31.67531,181.2084 0.0905,0 2.67228,-6.4125 5.73738,-14.25 z m 127.01042,109.26201 34.19843,-17.98799 16.23915,-42.14278 c 8.93153,-23.17854 16.0087,-42.37323 15.72705,-42.65489 -0.28166,-0.28165 -12.11031,4.53726 -26.2859,10.70869 L 405.5,391.15582 380.75,440.00439 C 367.1375,466.8711 356,489.11104 356,489.42648 c 0,0.31544 0.26924,0.57352 0.59831,0.57352 0.32907,0 15.98761,-8.09459 34.79675,-17.98799 z m -56.51891,-71.2839 c 26.05688,-51.82546 59.27148,-117.732 73.81023,-146.45899 l 26.43408,-52.23088 7.93977,3.99204 c 4.36687,2.19562 7.93977,4.27251 7.93977,4.61531 0,0.34279 -5.56722,11.47527 -12.37161,24.73884 -6.80438,13.26356 -39.00862,77.10307 -71.56497,141.86557 L 307.87005,495 l 12.45017,0 12.45016,0 73.11481,-145.58553 c 40.21314,-80.07205 73.10359,-146.10955 73.08988,-146.75 -0.055,-2.56732 -25.5322,-84.82654 -26.29462,-84.89831 -0.45075,-0.0424 -19.85322,8.43033 -43.11661,18.82835 L 367.26677,155.5 316.12649,283 c -28.12716,70.125 -51.13718,128.35739 -51.13339,129.40531 0.004,1.04792 3.1569,19.79717 7.0069,41.66501 3.85,21.86783 7,40.02294 7,40.34468 0,0.32175 1.9125,0.57515 4.25,0.56311 l 4.25,-0.0219 47.37615,-94.22812 z M 221.40718,493.25 C 220.51496,489.40021 171,222.25748 171,221.29358 c 0,-0.84415 17.04387,-4.74071 17.54779,-4.01177 0.083,0.12001 11.72967,62.54172 25.88158,138.71492 14.15191,76.1732 25.86111,138.62709 26.02044,138.78642 0.15934,0.15933 4.76355,0.1608 10.2316,0.003 L 260.62331,494.5 236.87889,359 C 223.81946,284.475 212.40001,219.4063 211.50233,214.40289 l -1.63213,-9.0971 -48.52084,-34.73382 C 134.6629,151.46837 112.71669,135.98707 112.58002,136.16907 110.93851,138.35508 59,234.86694 59,235.73118 c 0,1.3834 68.00801,257.40491 68.67138,258.51882 0.24566,0.4125 21.52797,0.75 47.29402,0.75 44.10437,0 46.82361,-0.10247 46.44178,-1.75 z m -113.10247,2 C 108.83855,494.30289 81.354764,390.95235 80.287769,389.89459 79.321945,388.93713 36.964142,369 35.895772,369 c -0.615575,0 37.084522,114.31261 40.977431,124.25 l 1.077295,2.75 14.965734,0 c 8.231158,0 15.155968,-0.3375 15.388478,-0.75 z"
     id="path3047"
     style="fill:#ffffff" />
</svg>
