<?xml version="1.0" encoding="UTF-8" standalone="no"?>
<!-- Created with Inkscape (http://www.inkscape.org/) -->

<svg
   xmlns:dc="http://purl.org/dc/elements/1.1/"
   xmlns:cc="http://creativecommons.org/ns#"
   xmlns:rdf="http://www.w3.org/1999/02/22-rdf-syntax-ns#"
   xmlns:svg="http://www.w3.org/2000/svg"
   xmlns="http://www.w3.org/2000/svg"
   xmlns:sodipodi="http://sodipodi.sourceforge.net/DTD/sodipodi-0.dtd"
   xmlns:inkscape="http://www.inkscape.org/namespaces/inkscape"
   id="svg2"
   version="1.1"
   inkscape:version="0.48.3.1 r9886"
   width="400"
   height="400"
   sodipodi:docname="Icon.7_64.png">
  <metadata
     id="metadata8">
    <rdf:RDF>
      <cc:Work
         rdf:about="">
        <dc:format>image/svg+xml</dc:format>
        <dc:type
           rdf:resource="http://purl.org/dc/dcmitype/StillImage" />
        <dc:title></dc:title>
      </cc:Work>
    </rdf:RDF>
  </metadata>
  <defs
     id="defs6" />
  <sodipodi:namedview
     pagecolor="#ffffff"
     bordercolor="#666666"
     borderopacity="1"
     objecttolerance="10"
     gridtolerance="10"
     guidetolerance="10"
     inkscape:pageopacity="0"
     inkscape:pageshadow="2"
     inkscape:window-width="1280"
     inkscape:window-height="969"
     id="namedview4"
     showgrid="false"
     inkscape:zoom="0.59"
     inkscape:cx="311.96939"
     inkscape:cy="216.82827"
     inkscape:window-x="0"
     inkscape:window-y="27"
     inkscape:window-maximized="1"
     inkscape:current-layer="svg2" />
  <rect
     style="fill:#000000;fill-opacity:1;stroke:none"
     id="rect3016"
     width="400"
     height="400"
     x="0"
     y="0" />
  <path
     id="path2987"
     style="fill:#ffffff"
     d="m 271.3172,282.43177 c 1.15633,-0.44372 1.36782,-1.81382 0.96527,-6.25325 -0.57989,-6.39513 0.82872,-10.79807 5.05975,-15.81546 5.50283,-6.52555 16.42339,-9.15914 24.31202,-5.86306 4.60622,1.9246 4.21599,2.05483 5.89679,-1.96788 1.8748,-4.48703 1.85014,-10.51435 -0.0541,-13.23309 -5.67794,-8.10639 -26.44893,-3.50711 -39.97015,8.85052 -6.99524,6.39325 -10.85405,11.918 -13.08214,18.72998 -2.31214,7.06896 -0.85156,12.6033 3.86787,14.65587 3.26781,1.42123 10.36259,1.91025 13.00472,0.89637 z M 35.7682,282.75 c 10.187101,-7.04173 24.232597,-21.22803 32.466299,-32.79179 7.70237,-10.81753 18.179476,-31.26759 22.777115,-44.45821 4.58761,-13.16185 10.019846,-36.5662 10.689456,-46.05468 0.55882,-7.91849 0.47725,-8.35791 -2.013878,-10.84904 -3.343753,-3.34375 -6.882268,-3.29296 -10.708382,0.15372 -2.669126,2.40443 -3.303175,4.06946 -5.045627,13.25 C 78.893276,188.55399 73.10596,206.49299 63.997607,223.7945 56.713344,237.63111 48.811523,248.03052 37.25,258.99645 l -10.25,9.72197 0,9.64079 C 27,283.66164 27.263958,288 27.586573,288 c 0.322615,0 4.004348,-2.3625 8.181627,-5.25 z M 373.78621,319.4614 373.5,309.9228 363.0962,306.43459 C 341.66462,299.24895 320.79553,286.87892 303.75869,271.2626 298.89689,266.80618 297.42394,266 294.14355,266 288.66317,266 285,269.08667 285,273.70455 c 0,5.10369 2.6869,8.78653 12.68007,17.38008 19.47716,16.74924 40.48589,28.24351 64.73273,35.41647 12.40619,3.67014 11.70774,4.10245 11.37341,-7.0397 z m -55.4551,-216.37529 c -6.64232,-3.05229 -18.54172,-11.469949 -22.66331,-16.032058 -4.6754,-5.175108 -4.84729,-9.360945 -0.40538,-9.871673 6.05355,-0.696032 28.65871,13.367903 32.23721,20.056568 3.55853,6.651353 -1.03851,9.583083 -9.16852,5.847163 z m -33.65032,27.77047 -4.8192,-4.13051 3.4068,-3.61303 c 1.87375,-1.98717 5.57127,-6.42554 8.21673,-9.86304 2.64545,-3.4375 4.98628,-6.25 5.20185,-6.25 0.21556,0 2.61826,1.4993 5.33932,3.33177 l 4.94739,3.33177 -8.54673,10.66823 c -4.7007,5.86753 -8.63228,10.66532 -8.73684,10.66177 -0.10456,-0.004 -2.35875,-1.86518 -5.00932,-4.13696 z M 277,159.8608 c -1.925,-1.17246 -7.14847,-5.44294 -11.6077,-9.48997 -12.54933,-11.3893 -15.90789,-20.11137 -7.59871,-19.73362 3.74863,0.17042 9.4405,4.07496 19.43551,13.33246 7.75673,7.18439 10.89561,12.657 9.43808,16.45526 -0.85758,2.23482 -5.51824,1.96284 -9.66718,-0.56413 z m -44.24697,20.74811 -3.67049,-4.39108 7.1941,-6.35892 c 3.95675,-3.4974 8.86457,-7.85244 10.90626,-9.67787 l 3.71216,-3.31896 4.65699,4.29266 4.65698,4.29266 -3.47419,3.0263 C 241.80737,181.47672 237.61267,185 237.05916,185 c -0.3496,0 -2.28736,-1.97599 -4.30613,-4.39109 z M 123,184.38603 c 0,-0.33769 1.16521,-7.42519 2.58936,-15.75 3.95733,-23.13251 2.39097,-32.6557 -6.89921,-41.94588 -6.17568,-6.17568 -13.62224,-9.11317 -23.208196,-9.15509 -7.084664,-0.031 -8.796827,0.34816 -14.708026,3.25694 -12.028211,5.91883 -15.864884,12.55222 -20.316839,35.12666 -3.669667,18.60772 -3.67901,18.62613 -6.371245,12.55434 -3.340018,-7.53274 -4.413218,-14.07178 -3.740733,-22.7924 1.586293,-20.57063 18.248786,-37.75087 39.453275,-40.6792 30.951204,-4.27434 57.505114,25.37765 49.668704,55.46364 -0.8431,3.23688 -2.65751,7.9515 -4.03203,10.47695 C 131.37975,178.39292 123,187.45261 123,184.38603 z m 100.56466,25.22165 c -5.34475,-3.23517 -17.20118,-16.91811 -20.2331,-23.35004 C 200.37905,179.99417 200.86538,177 204.83525,177 c 4.03554,0 8.99785,3.87649 16.84801,13.16145 9.83737,11.63537 12.37506,17.38023 9.11674,20.63855 -1.69117,1.69117 -2.76357,1.51445 -7.23534,-1.19232 z m -52.87741,14.9765 c -3.03224,-4.56689 -3.34015,-5.5034 -1.98093,-6.02498 0.88515,-0.33966 7.23077,-4.29973 14.10136,-8.80015 l 12.492,-8.18257 3.84727,4.46176 c 2.116,2.45397 3.73607,4.75916 3.60016,5.12266 -0.2317,0.61968 -16.87126,11.74843 -24.85833,16.62556 l -3.61121,2.20511 -3.59032,-5.40739 z m -15.34285,24.71677 c -3.33379,-3.13748 -11.92768,-15.58147 -15.20101,-22.01111 -2.39596,-4.70628 -2.87017,-11.79697 -0.84102,-12.57563 2.37867,-0.91278 7.32681,1.99616 10.91911,6.41919 6.24142,7.68476 13.69779,19.91936 14.39063,23.61248 1.30432,6.95267 -3.9671,9.54357 -9.26771,4.55507 z m 51.92508,92.60646 c 7.01189,-11.93747 17.95669,-26.06516 31.38548,-40.51275 l 10.32221,-11.10534 -2.09499,-1.89466 c -11.391,-10.30171 -5.90081,-33.67322 11.5177,-49.03039 19.3353,-17.04713 42.9583,-21.65511 55.76623,-10.87795 1.64304,1.38253 3.30552,2.51368 3.6944,2.51368 0.38889,0 6.22441,-5.52956 12.96782,-12.28791 32.11182,-32.18292 43.42151,-57.32689 41.87942,-93.1073 -0.84933,-19.70648 -5.6777,-34.765329 -16.24222,-50.65664 C 352.36889,68.785919 337.93226,54 336.01224,54 c -0.43183,0 -1.07645,1.9125 -1.43248,4.25 -0.62934,4.131923 -4.93618,17.439751 -5.98276,18.486337 -0.28653,0.286523 -2.81225,-0.94937 -5.61273,-2.74643 -3.71603,-2.384572 -4.91815,-3.702726 -4.44918,-4.878644 1.8472,-4.631779 4.55469,-17.480965 4.28005,-20.312231 -0.28023,-2.888797 -0.86908,-3.455407 -5.31514,-5.114364 -11.05902,-4.126451 -19.82618,-5.759402 -31,-5.773989 -34.22463,-0.04468 -59.96121,16.328266 -80.05507,50.928966 L 200.58127,98.93659 194.6782,89.718295 C 181.97477,69.88051 169.61314,58.068023 152.56869,49.479437 139.45477,42.871419 128.19217,39.982636 113,39.330328 96.060089,38.602978 84.881037,40.882826 70.180915,48.062824 60.871848,52.609663 58.473195,54.353508 50.50092,62.370382 42.954384,69.959136 40.623841,73.103375 36.692452,81 c -7.43133,14.926639 -9.015775,22.32592 -9.100737,42.5 -0.06511,15.46117 0.168321,17.85994 2.578826,26.5 3.207177,11.4956 8.105756,22.48522 14.270626,32.01513 C 49.467485,189.78502 58.978693,202 60.002411,202 c 1.290868,0 7.200627,-20.89531 10.181774,-36 3.519073,-17.83022 5.483467,-22.70371 11.083465,-27.4971 12.030655,-10.2978 30.92122,-2.7632 33.32906,13.29347 1.81469,12.10117 -6.9717,47.60749 -18.315031,74.01217 l -3.674881,8.55428 6.446601,5.84125 c 7.274701,6.5916 6.779251,6.5386 19.446601,2.08048 11.31911,-3.98361 10.77565,-4.03425 14.26445,1.32908 1.71041,2.62942 2.91527,5.09558 2.67745,5.48037 -0.23781,0.38479 -3.92203,1.94386 -8.18714,3.46461 -4.26512,1.52074 -8.11568,3.07559 -8.55681,3.45523 -0.44113,0.37964 4.3331,5.24649 10.60939,10.81522 31.01465,27.51818 56.202,57.50851 68.22508,81.23491 1.44346,2.84853 2.95703,4.78694 3.36349,4.30759 0.40647,-0.47936 3.27457,-5.18822 6.37357,-10.46415 z" />
</svg>
