<?xml version="1.0" encoding="UTF-8" standalone="no"?>
<!-- Created with Inkscape (http://www.inkscape.org/) -->

<svg
   xmlns:dc="http://purl.org/dc/elements/1.1/"
   xmlns:cc="http://creativecommons.org/ns#"
   xmlns:rdf="http://www.w3.org/1999/02/22-rdf-syntax-ns#"
   xmlns:svg="http://www.w3.org/2000/svg"
   xmlns="http://www.w3.org/2000/svg"
   xmlns:sodipodi="http://sodipodi.sourceforge.net/DTD/sodipodi-0.dtd"
   xmlns:inkscape="http://www.inkscape.org/namespaces/inkscape"
   id="svg2"
   version="1.1"
   inkscape:version="0.48.3.1 r9886"
   width="400"
   height="400"
   sodipodi:docname="Icon.1_17.png">
  <metadata
     id="metadata8">
    <rdf:RDF>
      <cc:Work
         rdf:about="">
        <dc:format>image/svg+xml</dc:format>
        <dc:type
           rdf:resource="http://purl.org/dc/dcmitype/StillImage" />
        <dc:title></dc:title>
      </cc:Work>
    </rdf:RDF>
  </metadata>
  <defs
     id="defs6" />
  <sodipodi:namedview
     pagecolor="#ffffff"
     bordercolor="#666666"
     borderopacity="1"
     objecttolerance="10"
     gridtolerance="10"
     guidetolerance="10"
     inkscape:pageopacity="0"
     inkscape:pageshadow="2"
     inkscape:window-width="1280"
     inkscape:window-height="970"
     id="namedview4"
     showgrid="false"
     inkscape:zoom="1.18"
     inkscape:cx="305.24736"
     inkscape:cy="192.16401"
     inkscape:window-x="0"
     inkscape:window-y="26"
     inkscape:window-maximized="1"
     inkscape:current-layer="svg2" />
  <rect
     style="fill:#000000;fill-opacity:1;stroke:none"
     id="rect2996"
     width="400"
     height="400"
     x="0"
     y="-7.6293945e-06" />
  <path
     id="path2987"
     style="fill:#ffffff"
     d="m 224.70603,324.29507 c -1.45585,-0.37221 -0.6077,-1.71736 4.5,-7.13694 14.06422,-14.923 22.3112,-31.9692 27.93378,-57.73811 2.95348,-13.53613 3.21036,-45.64793 0.49133,-61.42002 -1.72731,-10.01951 -5.82522,-27.73624 -7.31104,-31.60822 -1.14987,-2.9965 11.09152,7.12765 23.70884,19.60822 C 301.6283,213.30025 316,240.78146 316,266.25606 c 0,35.42543 -27.86183,55.40013 -81,58.0705 -4.675,0.23494 -9.30729,0.22076 -10.29397,-0.0315 z m -34.32595,16.85892 c 8.45556,-2.56518 18.11924,-7.02542 24.02484,-11.08857 l 4.4458,-3.05879 10.32464,2.43488 c 26.28206,6.19817 51.48202,9.04821 73.31042,8.29118 21.70595,-0.75278 34.61791,-4.01632 47.18184,-11.92537 11.5405,-7.2648 18.13976,-17.47289 20.45472,-31.64049 1.4219,-8.70199 0.18758,-18.90905 -3.82541,-31.63385 C 357.06164,233.24872 330.15497,199.32916 294,171.39273 c -13.70885,-10.59264 -39.74919,-26.94236 -50.5,-31.707 -3.35413,-1.48652 -4.64587,-3.00588 -8,-9.40975 C 218.51518,97.847764 198.05606,71.462498 172.5,49.02755 161.32828,39.220213 142.99018,25 141.51455,25 c -0.44531,0 4.99614,5.9625 12.0921,13.25 19.99588,20.535599 32.7665,38.005616 44.18816,60.448747 6.02726,11.843343 11.48191,24.357863 10.87938,24.960403 -0.17738,0.17737 -5.68913,-1.48255 -12.24835,-3.68872 -43.79523,-14.73039 -93.28898,-20.27113 -137.70428,-15.41577 -24.038259,2.6278 -23.229701,3.01508 6.27844,3.00721 21.704396,-0.006 31.599749,0.41355 41.5,1.75868 37.30074,5.06797 69.64369,14.44052 96.75622,28.03865 L 215.5,143.5 l 1.23098,5.5 c 10.76057,48.07794 3.60101,93.4615 -19.69963,124.87342 -33.54179,45.21816 -92.39359,49.98647 -155.61595,12.60839 -4.227456,-2.49934 -7.869416,-4.36113 -8.093243,-4.1373 -0.597202,0.5972 20.66249,17.25018 31.677843,24.81365 25.526222,17.52705 51.60963,29.44969 76,34.73935 13.01316,2.82223 38.91177,2.43228 49.38008,-0.74352 z" />
</svg>
