<?xml version="1.0" encoding="UTF-8" standalone="no"?>
<!-- Created with Inkscape (http://www.inkscape.org/) -->

<svg
   xmlns:dc="http://purl.org/dc/elements/1.1/"
   xmlns:cc="http://creativecommons.org/ns#"
   xmlns:rdf="http://www.w3.org/1999/02/22-rdf-syntax-ns#"
   xmlns:svg="http://www.w3.org/2000/svg"
   xmlns="http://www.w3.org/2000/svg"
   xmlns:sodipodi="http://sodipodi.sourceforge.net/DTD/sodipodi-0.dtd"
   xmlns:inkscape="http://www.inkscape.org/namespaces/inkscape"
   id="svg2"
   version="1.1"
   inkscape:version="0.48.3.1 r9886"
   width="400"
   height="400"
   sodipodi:docname="Icon.6_95.png">
  <metadata
     id="metadata8">
    <rdf:RDF>
      <cc:Work
         rdf:about="">
        <dc:format>image/svg+xml</dc:format>
        <dc:type
           rdf:resource="http://purl.org/dc/dcmitype/StillImage" />
        <dc:title></dc:title>
      </cc:Work>
    </rdf:RDF>
  </metadata>
  <defs
     id="defs6" />
  <sodipodi:namedview
     pagecolor="#ffffff"
     bordercolor="#666666"
     borderopacity="1"
     objecttolerance="10"
     gridtolerance="10"
     guidetolerance="10"
     inkscape:pageopacity="0"
     inkscape:pageshadow="2"
     inkscape:window-width="1280"
     inkscape:window-height="970"
     id="namedview4"
     showgrid="false"
     inkscape:zoom="0.417193"
     inkscape:cx="5.7753673"
     inkscape:cy="207.86876"
     inkscape:window-x="0"
     inkscape:window-y="26"
     inkscape:window-maximized="1"
     inkscape:current-layer="svg2" />
  <rect
     style="fill:#000000;fill-opacity:1;stroke:none"
     id="rect3008"
     width="400"
     height="400"
     x="0"
     y="0" />
  <path
     id="path2987"
     style="fill:#ffffff"
     d="m 77.117647,69.117647 c 6.567141,-6.567141 6.255616,-7.219036 -12.356281,-25.85661 L 48.522732,27 37.761366,27 27,27 l 0,2.782157 c 0,2.287749 3.608448,6.375 20.305654,23 23.0558,22.956097 23.143391,23.004092 29.811993,16.33549 z M 128,80.582905 C 128,69.723205 126.05175,66.665336 107.08683,47.758778 95.154431,35.863103 88.956524,30.42596 85.673238,28.973607 79.86171,26.402891 68.620409,25.18714 67.495271,27.007651 66.960571,27.872814 76.248325,37.648032 96.599265,57.639155 113.03838,73.78762 126.82864,87 127.24428,87 127.65993,87 128,84.112307 128,80.582905 z M 95.421621,119.12682 C 95.984162,118.21661 37.299809,59 35.835239,59 c -1.464562,0 -0.896713,11.460815 0.821087,16.571861 1.391106,4.139019 4.393455,7.710221 18.75,22.302545 19.419545,19.738474 22.973006,22.099554 33.284657,22.115824 3.405041,0.005 6.433828,-0.38316 6.730638,-0.86341 z m 56.315909,24.46898 c 1.7829,-1.7829 3.49698,-4.55882 3.80906,-6.16872 0.53173,-2.74298 -1.30977,-4.79826 -29.27808,-32.67708 C 93.089217,71.676876 93.956531,72.263626 87.285315,78.377339 84.315389,81.099073 83.6,82.470325 83.6,85.441322 c 0,3.500303 1.496883,5.181057 29.61473,33.252468 27.94036,27.89423 29.77491,29.52563 32.44795,28.85474 1.55827,-0.3911 4.29196,-2.16983 6.07485,-3.95273 z M 202,154.61912 c 0,-10.85255 -1.66615,-13.48665 -20.45692,-32.34147 -12.79592,-12.83955 -18.40532,-17.77152 -22.04226,-19.38031 -5.35881,-2.37046 -16.85208,-3.756039 -17.84393,-2.15119 -0.76474,1.23737 58.21294,60.45233 59.44914,59.68832 C 201.59771,160.13059 202,157.51369 202,154.61912 z m -33.22539,38.54134 c 0.89011,-0.5649 -7.68481,-9.76066 -28.42655,-30.48468 C 124.01242,146.3541 110.21853,133 109.69496,133 c -1.61258,0 -0.21202,15.14914 1.75658,19 2.18718,4.27842 33.87688,36.54135 38.04199,38.73012 1.64643,0.86521 4.12143,1.9162 5.5,2.33554 3.39608,1.03304 12.20718,1.09366 13.78108,0.0948 z m 56.9162,24.53035 c 1.75494,-1.75495 3.50051,-4.4653 3.87903,-6.02301 0.64747,-2.66443 -1.08037,-4.60442 -29.16852,-32.75 C 173.97839,152.44085 170.185,149 167.4183,149 c -5.45455,0 -11.16175,7.18968 -9.85143,12.4104 0.31357,1.24938 13.77755,15.45116 29.91995,31.55951 27.60122,27.54301 29.51851,29.24691 32.18149,28.59981 1.55743,-0.37846 4.26755,-2.12397 6.0225,-3.87891 z m 74.71849,147.33821 c 21.40012,-1.0712 39.21176,-2.30344 39.58143,-2.73832 0.36966,-0.43489 1.16748,-2.5907 1.77293,-4.7907 0.60544,-2.2 1.81671,-6.51345 2.69169,-9.58543 l 1.59089,-5.58544 9.89672,-2.764 9.89671,-2.76399 0.54517,-4.65057 c 0.85361,-7.28177 4.06168,-77.0466 3.56191,-77.45953 C 369.70104,254.48803 344.525,246.09927 314,236.04936 l -55.5,-18.27256 -0.002,-8.69398 c -0.002,-8.03737 -0.28661,-9.27018 -3.77234,-16.32308 -4.3343,-8.77018 -10.25316,-14.65169 -18.72566,-18.60763 -4.45653,-2.08083 -7.39722,-2.6423 -15.5,-2.95944 l -10,-0.39139 14.1255,14.34936 c 7.76903,7.89215 14.85653,15.78951 15.75,17.5497 1.92933,3.80088 2.07872,9.05158 0.41546,14.60303 -1.6418,5.47985 -10.0215,13.90268 -15.40698,15.4863 -5.13452,1.50982 -10.84033,1.55265 -13.69972,0.10283 -1.20134,-0.60913 -8.80581,-7.67508 -16.89882,-15.70212 -8.093,-8.02703 -14.99495,-14.3142 -15.33766,-13.97149 -0.34271,0.34271 -0.86633,3.30536 -1.16359,6.58368 -1.62317,17.90054 9.83744,34.44666 27.71581,40.01437 5.99446,1.86681 14.64688,2.0921 20.73807,0.54 8.00745,-2.0404 34.65788,-2.88283 45.77744,-1.44704 29.20918,3.77155 48.82585,13.84487 60.13195,30.87823 14.24659,21.46338 8.167,45.78092 -14.21061,56.84053 -6.45947,3.19244 -8.53578,3.70743 -16.65805,4.13172 -10.71913,0.55995 -18.31902,-1.00701 -28.5378,-5.88399 l -6.48405,-3.09455 8.87152,-3.9824 c 4.87934,-2.19033 9.21362,-4.30583 9.63173,-4.70112 0.41811,-0.3953 -10.51331,-5.81021 -24.29203,-12.03315 -13.77873,-6.22294 -25.28773,-11.07894 -25.57557,-10.79111 -0.28783,0.28784 1.01889,4.28142 2.90384,8.87464 1.88494,4.59321 7.12679,19.4888 11.64856,33.1013 6.37205,19.18268 8.59633,24.74737 9.8882,24.73832 0.91674,-0.006 19.17599,-0.88811 40.5761,-1.9593 z" />
</svg>
