<?xml version="1.0" encoding="UTF-8" standalone="no"?>
<!-- Created with Inkscape (http://www.inkscape.org/) -->

<svg
   xmlns:dc="http://purl.org/dc/elements/1.1/"
   xmlns:cc="http://creativecommons.org/ns#"
   xmlns:rdf="http://www.w3.org/1999/02/22-rdf-syntax-ns#"
   xmlns:svg="http://www.w3.org/2000/svg"
   xmlns="http://www.w3.org/2000/svg"
   xmlns:sodipodi="http://sodipodi.sourceforge.net/DTD/sodipodi-0.dtd"
   xmlns:inkscape="http://www.inkscape.org/namespaces/inkscape"
   id="svg2"
   version="1.1"
   inkscape:version="0.48.3.1 r9886"
   width="400"
   height="400"
   sodipodi:docname="Icon.4_97.png">
  <metadata
     id="metadata8">
    <rdf:RDF>
      <cc:Work
         rdf:about="">
        <dc:format>image/svg+xml</dc:format>
        <dc:type
           rdf:resource="http://purl.org/dc/dcmitype/StillImage" />
        <dc:title></dc:title>
      </cc:Work>
    </rdf:RDF>
  </metadata>
  <defs
     id="defs6" />
  <sodipodi:namedview
     pagecolor="#ffffff"
     bordercolor="#666666"
     borderopacity="1"
     objecttolerance="10"
     gridtolerance="10"
     guidetolerance="10"
     inkscape:pageopacity="0"
     inkscape:pageshadow="2"
     inkscape:window-width="1855"
     inkscape:window-height="1056"
     id="namedview4"
     showgrid="false"
     inkscape:zoom="0.59"
     inkscape:cx="200"
     inkscape:cy="200"
     inkscape:window-x="65"
     inkscape:window-y="24"
     inkscape:window-maximized="1"
     inkscape:current-layer="svg2" />
  <path
     style="fill:#000000"
     d="m 0,0 400,0 0,400 -400,0 z"
     id="rect3020" />
  <path
     id="path2989"
     style="fill:#ffffff"
     d="m 198.5,248.39265 -4,-1.39763 3.53719,0.50788 c 4.66058,0.66918 14.42196,-1.18633 19.2805,-3.66497 10.30394,-5.25668 17.4701,-16.3251 18.44671,-28.49168 1.17258,-14.60777 -9.78355,-30.4964 -23.67365,-34.33164 -4.63599,-1.28006 -4.96945,-0.62487 -1.26741,2.4902 4.79326,4.03326 8.37666,12.30636 8.37666,19.33945 0,15.33672 -11.44035,26.5235 -27.2,26.59711 -5.35771,0.025 -7.44117,-0.48846 -11.85555,-2.92188 -10.10189,-5.56866 -13.09569,-12.0306 -11.14022,-24.0455 2.23504,-13.7326 11.45772,-25.9875 23.96058,-31.83829 11.63888,-5.4465 26.95323,-4.78613 38.03519,1.6401 12.45042,7.21977 20.97835,21.94531 20.97835,36.2242 0,17.96766 -11.733,33.79885 -29.54829,39.86913 -5.82477,1.9847 -18.28219,1.99694 -23.93006,0.0235 z M 261.84109,367.25 c 3.59156,-7.19592 9.41548,-22.54661 12.04569,-31.75 12.83415,-44.90804 11.65371,-92.63618 -3.41308,-138 -1.0411,-3.1346 12.16135,17.02265 17.18197,26.23309 11.5856,21.25406 22.09846,49.64649 26.75825,72.26691 C 318.61551,316.3961 320,330.41213 320,352.55122 L 320,373 l 27.00698,0 27.00698,0 -0.54485,-7.25 c -2.84157,-37.81064 -10.26242,-65.87644 -25.55625,-96.65433 -20.69604,-41.64949 -52.53199,-75.80058 -94.02131,-100.85862 -10.61512,-6.41114 -24.66138,-13.2278 -27.33865,-13.26746 -1.95484,-0.029 -1.96391,-0.0821 -0.18984,-1.11296 3.01415,-1.75141 37.2724,-1.32586 50.13694,0.6228 33.80146,5.12006 62.34856,16.02457 89.5,34.18749 l 6.5,4.34816 0.26335,-34.19419 c 0.14484,-18.80681 -0.0802,-34.51855 -0.5,-34.91499 -0.41984,-0.39644 -5.03835,-1.43428 -10.26335,-2.30632 -43.13252,-7.19867 -85.29045,-3.33181 -126.5,11.603 -11.76841,4.265 -37.69332,16.78108 -44.72923,21.59447 -2.34893,1.60693 -5.84577,3.72226 -7.77077,4.70073 -1.925,0.97847 -5.64057,3.56123 -8.25683,5.73946 l -4.75683,3.96043 2.07544,-4.84883 c 3.83878,-8.96852 14.03198,-25.95343 22.08287,-36.79662 C 233.31548,74.795663 297.15775,42 360.68642,42 L 373,42 l 0,-8 0,-8 -43.25,0.0092 -43.25,0.0092 -11,5.327036 c -19.44324,9.415893 -38.99152,22.264338 -54.49911,35.820479 -12.36126,10.805736 -12.8048,11.030741 -8.39773,4.260065 8.35938,-12.842713 21.3061,-29.195677 31.80749,-40.175946 l 5.02103,-5.25 -15.96584,0.0035 -15.96584,0.0035 -6.84361,8.246519 c -15.96263,19.234888 -32.52076,47.866414 -41.12222,71.106567 -11.44859,30.9328 -16.07054,59.57559 -15.29529,94.78688 0.43215,19.62821 1.24116,24.4512 5.38496,32.10307 2.80643,5.18232 -0.50339,2.73793 -12.86343,-9.5 C 97.293187,173.77151 74.619882,105.06655 85.985026,38.587589 87.093262,32.105105 88,26.620972 88,26.400627 88,26.180282 74.275,26 57.5,26 l -30.5,0 0,56.07193 0,56.07193 2.698346,4.67807 C 48.673094,175.71808 75.753492,204.67205 107,225.47175 c 24.70423,16.44474 47.72629,26.58996 79.91466,35.21632 11.32053,3.03386 15.28382,3.6469 23.77363,3.6773 l 10.18829,0.0365 -4.84189,3.26071 c -7.96847,5.36629 -22.82103,12.94495 -34.7435,17.7282 -47.45508,19.03884 -96.682997,20.2925 -145.54119,3.70644 l -8.75,-2.97039 0,13.29636 0,13.29635 10.75,2.09246 c 22.960667,4.46923 33.180497,5.4844 56.25,5.58748 23.83897,0.10651 39.78277,-1.58014 56.5,-5.977 2,-0.52603 2,-0.52603 0,1.09086 -1.1,0.88929 -6.275,4.01457 -11.5,6.94507 -26.89455,15.08411 -59.629958,23.611 -96.75,25.20136 l -15.25,0.65336 0,10.73645 c 0,8.86775 0.275314,10.8421 1.581787,11.34344 2.873368,1.10262 24.68678,0.61014 38.660041,-0.87282 55.952142,-5.9381 107.167012,-30.65653 146.415242,-70.66609 18.66558,-19.02766 33.28216,-38.73644 42.79455,-57.70353 1.47556,-2.94219 2.87092,-5.16136 3.10079,-4.93149 0.54073,0.54073 -1.90885,14.45934 -4.0124,22.79862 -9.97384,39.54011 -29.5372,72.57593 -60.60429,102.33992 L 182.78362,373 l 38.0938,0 38.09379,0 2.86988,-5.75 z" />
</svg>
