<?xml version="1.0" encoding="UTF-8" standalone="no"?>
<!-- Created with Inkscape (http://www.inkscape.org/) -->

<svg
   xmlns:dc="http://purl.org/dc/elements/1.1/"
   xmlns:cc="http://creativecommons.org/ns#"
   xmlns:rdf="http://www.w3.org/1999/02/22-rdf-syntax-ns#"
   xmlns:svg="http://www.w3.org/2000/svg"
   xmlns="http://www.w3.org/2000/svg"
   xmlns:sodipodi="http://sodipodi.sourceforge.net/DTD/sodipodi-0.dtd"
   xmlns:inkscape="http://www.inkscape.org/namespaces/inkscape"
   id="svg2"
   version="1.1"
   inkscape:version="0.48.3.1 r9886"
   width="400"
   height="400"
   sodipodi:docname="Icon.5_55.png">
  <metadata
     id="metadata8">
    <rdf:RDF>
      <cc:Work
         rdf:about="">
        <dc:format>image/svg+xml</dc:format>
        <dc:type
           rdf:resource="http://purl.org/dc/dcmitype/StillImage" />
        <dc:title></dc:title>
      </cc:Work>
    </rdf:RDF>
  </metadata>
  <defs
     id="defs6" />
  <sodipodi:namedview
     pagecolor="#ffffff"
     bordercolor="#666666"
     borderopacity="1"
     objecttolerance="10"
     gridtolerance="10"
     guidetolerance="10"
     inkscape:pageopacity="0"
     inkscape:pageshadow="2"
     inkscape:window-width="1855"
     inkscape:window-height="1056"
     id="namedview4"
     showgrid="false"
     inkscape:zoom="0.59"
     inkscape:cx="200"
     inkscape:cy="200"
     inkscape:window-x="65"
     inkscape:window-y="24"
     inkscape:window-maximized="1"
     inkscape:current-layer="svg2" />
  <path
     style="fill:#000000"
     d="m 0,0 400,0 0,400 -400,0 z"
     id="rect3032" />
  <path
     id="path2989"
     style="fill:#ffffff"
     d="m 297.34887,54.466924 c 4.51562,-2.196924 6.98446,-6.052221 6.98446,-10.906805 0,-9.910392 -10.47313,-15.821284 -18.91337,-10.674441 C 282.2787,34.801217 279,40.307142 279,43.666731 c 0,3.322778 3.56932,8.633039 7.06166,10.506004 4.15673,2.229277 7.14945,2.307279 11.28721,0.294189 z m 25.93325,48.184616 C 331.5693,99.178771 337.98046,89.734751 337.98046,81 c 0,-5.384783 -3.53687,-13.383679 -7.60398,-17.196952 -8.5627,-8.028283 -23.19026,-8.028283 -31.75296,0 -4.06711,3.813273 -7.60398,11.812169 -7.60398,17.196952 0,8.612665 6.32129,18.046783 14.48046,21.61115 3.93684,1.71983 13.72138,1.74205 17.78212,0.0404 z M 172.51244,259.92638 c 1.17226,-6.93854 -0.87564,-26.53298 -4.57676,-43.79071 L 166.83427,211 l -5.25717,0 c -12.8816,0 -32.45852,-7.86078 -47.74268,-19.17026 -9.54922,-7.06592 -24.849721,-22.07125 -33.012161,-32.3753 -7.076152,-8.93274 -18.521461,-25.96688 -23.262849,-34.62226 -3.297577,-6.01972 -3.47798,-6.72416 -1.856009,-7.24739 2.759813,-0.89029 7.96796,-6.16777 10.717072,-10.85975 8.755271,-14.942835 6.864604,-43.924745 -3.612359,-55.37362 L 60.84193,49.20284 66.263295,47.174447 C 84.311102,40.421897 113.99631,39.193606 141,44.08205 c 25.20869,4.563499 51.87383,13.2874 72.85491,23.835573 5.69519,2.863245 10.5408,5.019999 10.76801,4.792787 C 225.18647,72.146866 205.41195,56.734043 197.17264,51.314878 179.98883,40.012729 158.38936,31.099916 138.5,27.104179 121.53966,23.696878 109.2873,23 66.341179,23 l -41.446913,0 0.34642,39.75 0.346419,39.75 3.636284,14 c 5.197898,20.01234 10.950073,35.88953 18.960134,52.33388 3.840128,7.88363 6.832296,14.44387 6.649263,14.57831 -9.847883,7.23312 -12.266031,11.56919 -11.648643,20.88763 0.542596,8.18956 4.086896,13.65971 11.122153,17.16552 8.206128,4.08929 18.762951,2.67708 23.995347,-3.20991 1.787989,-2.01168 1.844831,-1.98527 7.5,3.48451 14.627587,14.14806 39.377277,29.05478 58.698357,35.35397 5.59218,1.8232 23.62431,6.43718 26.6621,6.82218 0.36416,0.0462 0.97181,-1.74922 1.35034,-3.98971 z M 62.970822,274.51509 c 8.518773,-4.40523 9.430492,-16.74599 1.615473,-21.86659 -3.600491,-2.35913 -10.69715,-2.13574 -13.971416,0.4398 C 47.457262,255.57208 45,260.00428 45,263.21594 c 0,3.73119 3.386635,8.98586 7.061664,10.95679 4.130773,2.21536 7.106576,2.30875 10.909158,0.34236 z M 232.9247,185.51433 c -26.69133,-5.06477 -61.53303,-22.36499 -92.56596,-45.96248 -17.09825,-13.00154 -20.3995,-15.1264 -26.20799,-16.86881 l -4.34925,-1.30468 5.04662,-5.5218 c 8.29132,-9.07202 19.46807,-13.82754 36.03722,-15.33321 6.92081,-0.628913 7.32966,-0.556404 6.5,1.15276 -0.48694,1.00314 -0.86839,5.64889 -0.84768,10.32389 0.0339,7.64085 0.37572,9.15533 3.38226,14.98349 6.07284,11.77216 19.40216,22.12637 34.01158,26.42016 12.98246,3.81562 29.49994,1.09824 36.62327,-6.02508 C 234.42235,143.51099 238,137.10134 238,134.03984 238,132.91793 238.28773,132 238.63941,132 c 1.37864,0 14.28616,11.12179 22.16144,19.09545 4.56547,4.6225 10.81686,11.68824 13.89198,15.70163 l 5.59113,7.29709 -2.89198,3.0202 c -1.59059,1.6611 -5.77687,4.39745 -9.30285,6.08077 -5.65747,2.7009 -7.65532,3.10148 -17,3.4086 -6.50746,0.21388 -13.50909,-0.20605 -18.16443,-1.08941 z M 289.5,245.29742 c -3.58304,-0.9512 -7.69644,-4.52332 -9.11314,-7.91396 -1.88233,-4.50505 -1.74347,-7.76855 0.51797,-12.1733 6.5648,-12.7867 26.10765,-7.58782 26.09143,6.94097 -0.004,3.87404 -2.88254,9.08418 -6.19852,11.22056 -2.66237,1.71528 -8.40396,2.69394 -11.29774,1.92573 z m -27.05981,114.26176 c -20.62482,-5.3327 -39.33532,-18.55328 -50.1261,-35.4184 -1.88594,-2.94757 -3.2473,-5.5409 -3.02525,-5.76295 0.22205,-0.22205 2.8354,0.66074 5.80744,1.96176 14.8347,6.49395 36.45334,8.07933 52.19044,3.82734 13.95985,-3.7718 28.81929,-12.99029 37.68662,-23.38001 l 3.16902,-3.71309 -2.82118,-0.57802 c -5.749,-1.1779 -11.47941,-4.86533 -14.64609,-9.42451 -2.87988,-4.14627 -3.17465,-5.26864 -3.17034,-12.0713 0.004,-6.45718 0.36963,-8.02893 2.629,-11.30406 3.56683,-5.17042 8.18318,-8.38372 13.76379,-9.58055 5.12754,-1.09966 12.01814,-0.0365 15.81728,2.44056 1.21815,0.79423 2.52403,1.44405 2.90196,1.44405 0.37794,0 0.39968,-4.69844 0.0483,-10.44099 -0.69952,-11.43265 -3.53741,-23.34738 -7.3701,-30.94292 l -2.4644,-4.88391 3.8347,2.30482 c 14.13129,8.49349 25.70587,20.90241 33.07858,35.463 9.53445,18.82989 10.8616,45.94038 3.1943,65.25198 -7.54412,19.00137 -23.40366,35.00579 -41.84239,42.22463 -14.26714,5.58565 -33.16199,6.58856 -48.6556,2.58257 z M 295.5,375.58823 c 32.89754,-5.02928 56.17892,-21.79061 68.769,-49.50995 10.41894,-22.93918 11.46559,-53.81923 2.90059,-85.57828 -10.34649,-38.3648 -35.23758,-79.46161 -67.92569,-112.14972 -9.68195,-9.68194 -25.98659,-23.73265 -31.0489,-26.75673 -0.71775,-0.42876 1.21303,4.24123 4.29061,10.37776 10.2474,20.43273 14.13763,36.71848 12.06793,50.52023 -0.81073,5.40631 -1.48924,5.06879 -4.00359,-1.99154 -0.97933,-2.75 -3.81107,-8.825 -6.29275,-13.5 C 252.47757,105.97138 205.04961,70.271414 159.95667,60.963731 151.30671,59.178283 147.34024,58.894912 137,59.323668 c -22.29266,0.924362 -35.43671,7.65051 -42.548853,21.773341 -4.823425,9.578043 -6.562043,16.864487 -6.545439,27.431541 0.02492,15.85838 4.890219,30.48268 15.127722,45.47145 7.01113,10.26502 14.42266,15.14937 23.90642,15.7548 10.0902,0.64414 16.74361,-5.40148 15.6879,-14.2548 l -0.47698,-4 9.73623,10.0623 c 19.16747,19.8094 32.71247,44.89848 39.97408,74.04307 8.87333,35.61321 4.91459,62.94783 -10.69722,73.86297 -3.97288,2.77768 -5.02442,3.03166 -12.55186,3.03166 -7.47785,0 -8.88466,-0.33379 -15.66386,-3.71651 -4.09648,-2.04407 -8.71995,-4.75157 -10.27439,-6.01666 l -2.82625,-2.30016 5.82625,-0.0378 c 7.35653,-0.0477 13.26397,-2.97973 17.33965,-8.60605 1.64263,-2.26758 2.9866,-4.46132 2.9866,-4.87497 0,-0.41365 -2.09652,-0.12113 -4.65893,0.65004 -12.66436,3.81141 -32.14413,-0.50251 -54.715,-12.11701 -4.88066,-2.51148 -9.006786,-4.43348 -9.169163,-4.2711 -0.639545,0.63954 15.425603,19.67855 24.940203,29.55695 32.78251,34.03596 76.71738,60.67025 116.60289,70.68725 20.87193,5.24186 40.06738,6.64644 56.5,4.13427 z" />
</svg>
