<?xml version="1.0" encoding="UTF-8" standalone="no"?>
<svg
   xmlns:dc="http://purl.org/dc/elements/1.1/"
   xmlns:cc="http://creativecommons.org/ns#"
   xmlns:rdf="http://www.w3.org/1999/02/22-rdf-syntax-ns#"
   xmlns:svg="http://www.w3.org/2000/svg"
   xmlns="http://www.w3.org/2000/svg"
   xmlns:xlink="http://www.w3.org/1999/xlink"
   version="1.0"
   id="svg2"
   height="32"
   width="32">
  <defs
     id="defs4">
    <linearGradient
       id="linearGradient3212">
      <stop
         id="stop3214"
         offset="0"
         style="stop-color:#c41329;stop-opacity:1;" />
      <stop
         style="stop-color:#c23840;stop-opacity:0.49803922;"
         offset="1"
         id="stop3220" />
      <stop
         id="stop3216"
         offset="1"
         style="stop-color:#ca1818;stop-opacity:0;" />
    </linearGradient>
    <radialGradient
       gradientUnits="userSpaceOnUse"
       gradientTransform="matrix(1,0,0,0.895698,0.4940484,3.2060036)"
       r="24.484351"
       fy="30.737693"
       fx="31.942568"
       cy="30.737693"
       cx="31.942568"
       id="radialGradient3218"
       xlink:href="#linearGradient3212" />
  </defs>
  <metadata
     id="metadata7">
    <rdf:RDF>
      <cc:Work
         rdf:about="">
        <dc:format>image/svg+xml</dc:format>
        <dc:type
           rdf:resource="http://purl.org/dc/dcmitype/StillImage" />
        <dc:title></dc:title>
      </cc:Work>
    </rdf:RDF>
  </metadata>
  <g
     id="layer1">
    <path
       id="path2828"
       d="m 23.731006,2.6372561 c -2.140501,-1.235819 -7.330138,3.740207 -11.59375,11.1249999 -3.1977092,5.538595 -4.9691016,10.854493 -4.7499999,13.6875 0.073034,0.944336 0.3711247,1.597295 0.90625,1.90625 m 2.1562499,-3.71875 c -0.30757,-0.177576 -0.4528711,-0.6079 -0.4375,-1.25 0.04611,-1.926299 1.473893,-5.691041 3.78125,-9.6875 3.076476,-5.3286119 6.550969,-9.0540529 7.78125,-8.3437499"
       style="fill:#fdf426;fill-opacity:1;stroke:#000000;stroke-width:1;stroke-linecap:round;stroke-linejoin:round;stroke-miterlimit:4;stroke-dasharray:none;stroke-dashoffset:0;stroke-opacity:1" />
    <path
       id="path3634"
       d="m 23.731006,29.356006 c 2.140501,-1.235819 0.419862,-8.208957 -3.84375,-15.59375 C 15.623644,6.3774631 10.434007,1.4014371 8.2935061,2.6372561 m 2.1562499,3.71875 c 1.230281,-0.710303 4.704775,3.015138 7.78125,8.3437499 3.076475,5.328612 4.574031,10.227197 3.34375,10.9375"
       style="fill:#fdf426;fill-opacity:1;stroke:#000000;stroke-width:1;stroke-linecap:round;stroke-linejoin:round;stroke-miterlimit:4;stroke-dasharray:none;stroke-dashoffset:0;stroke-opacity:1" />
    <path
       id="path3625"
       d="m 31.449756,15.981006 c 0,-2.471638 -6.919611,-4.46875 -15.4375,-4.46875 -8.5178888,0 -15.43749995,1.997112 -15.43749995,4.46875 m 4.31250005,0 c 0,-1.420607 4.9787854,-2.5625 11.1249999,-2.5625 6.146215,0 11.125,1.141893 11.125,2.5625"
       style="fill:#fdf426;fill-opacity:1;stroke:#000000;stroke-width:1;stroke-linecap:round;stroke-linejoin:miter;stroke-miterlimit:4;stroke-dasharray:none;stroke-dashoffset:0;stroke-opacity:1" />
    <path
       style="fill:#fdf426;fill-opacity:1;stroke:#000000;stroke-width:1;stroke-linecap:round;stroke-linejoin:round;stroke-miterlimit:4;stroke-opacity:1;stroke-dasharray:none;stroke-dashoffset:0"
       d="m 23.731006,2.6372561 c 1.07025,0.61791 1.175216,2.670149 0.479667,5.49101 -0.695548,2.8208609 -2.191611,6.4103429 -4.323417,10.1027399 -2.131806,3.692396 -4.495118,6.782601 -6.593042,8.795229 -2.097923,2.012629 -3.9304574,2.94768 -5.0007079,2.329771 m 2.1562529,-3.71875 c 0.61514,0.355152 1.791334,-0.398633 3.198302,-1.907282 1.406968,-1.508649 3.04471,-3.772162 4.582948,-6.436468 1.538237,-2.664306 2.681745,-5.221105 3.286908,-7.200616 0.605161,-1.9795099 0.67198,-3.3817319 0.05684,-3.7368839"
       id="path3646" />
    <path
       id="path3676"
       d="M 23.719301,29.362764 C 22.649051,29.980672 20.819277,29.045456 18.724114,27.032663 16.62895,25.01987 14.268399,21.9295 12.136593,18.237104 10.004787,14.544707 8.5102471,10.952917 7.8162221,8.1297471 7.1221957,5.3065781 7.2286851,3.2520311 8.2989352,2.6341221 m 2.1424058,3.726744 c -0.615141,0.355151 -0.550441,1.750658 0.0526,3.7234519 0.603045,1.972795 1.744433,4.522877 3.282671,7.187184 1.538238,2.664305 3.180737,4.933011 4.592462,6.446853 1.411726,1.51384 2.592676,2.272818 3.207817,1.917667"
       style="fill:#fdf426;fill-opacity:1;stroke:#000000;stroke-width:1;stroke-linecap:round;stroke-linejoin:round;stroke-miterlimit:4;stroke-opacity:1;stroke-dasharray:none;stroke-dashoffset:0" />
    <path
       style="fill:#fdf426;fill-opacity:1;stroke:#000000;stroke-width:1;stroke-linecap:round;stroke-linejoin:round;stroke-miterlimit:4;stroke-opacity:1;stroke-dasharray:none;stroke-dashoffset:0"
       d="m 0.59034917,15.99752 c 3.3e-7,1.235819 1.72480863,2.352842 4.51552053,3.160909 2.7907115,0.808069 6.6473253,1.307181 10.9109383,1.307181 4.263612,0 8.121464,-0.501586 10.913413,-1.312127 2.791949,-0.81054 4.517994,-1.930036 4.517994,-3.165855 m -4.298658,0.008 c 10e-7,0.710303 -1.240893,1.352024 -3.250906,1.81617 -2.010012,0.464145 -4.789143,0.750715 -7.865619,0.750715 -3.076475,0 -5.862482,-0.288093 -7.8793698,-0.753762 -2.0168867,-0.46567 -3.2646562,-1.108914 -3.264656,-1.819218"
       id="path3672" />
  </g>
</svg>
