<?xml version="1.0" encoding="UTF-8" standalone="no"?>
<svg
   xmlns:dc="http://purl.org/dc/elements/1.1/"
   xmlns:cc="http://creativecommons.org/ns#"
   xmlns:rdf="http://www.w3.org/1999/02/22-rdf-syntax-ns#"
   xmlns:svg="http://www.w3.org/2000/svg"
   xmlns="http://www.w3.org/2000/svg"
   version="1.0"
   id="svg2"
   height="32"
   width="32">
  <defs
     id="defs4">
    <linearGradient
       id="linearGradient3212">
      <stop
         id="stop3214"
         offset="0"
         style="stop-color:#c41329;stop-opacity:1;" />
      <stop
         style="stop-color:#c23840;stop-opacity:0.49803922;"
         offset="1"
         id="stop3220" />
      <stop
         id="stop3216"
         offset="1"
         style="stop-color:#ca1818;stop-opacity:0;" />
    </linearGradient>
  </defs>
  <metadata
     id="metadata7">
    <rdf:RDF>
      <cc:Work
         rdf:about="">
        <dc:format>image/svg+xml</dc:format>
        <dc:type
           rdf:resource="http://purl.org/dc/dcmitype/StillImage" />
        <dc:title></dc:title>
      </cc:Work>
    </rdf:RDF>
  </metadata>
  <g
     id="layer1">
    <g
       transform="matrix(0.5060233,0,0,0.5060233,-0.1202446,1.3331101)"
       id="g3205">
      <path
         id="path2919"
         transform="matrix(1.9761936,0,0,1.9761936,0.23762661,-2.6344836)"
         d="m 16,0.5625 c -1.06678,0 -1.094974,-0.00872 -1.57375,1.2294745 C 13.947473,3.0301689 13.10651,5.4710787 12.182148,5.8620511 11.257786,6.2530235 8.324658,5.2616002 7.0390076,4.789196 5.7533573,4.3167919 5.7615932,4.3634068 5.0625,5.0625 4.3634069,5.7615931 4.2965916,5.8040301 4.7487955,7.1403538 5.2009993,8.4766774 6.1722223,11.106888 5.78125,12.03125 5.3902777,12.955612 2.9806179,13.944796 1.7736734,14.439198 0.56672901,14.9336 0.5625,14.93322 0.5625,16 c 0,1.06678 0.035479,1.08224 1.2736734,1.72508 1.2381944,0.642839 3.6791042,1.913058 4.0700766,2.83742 0.3909722,0.924362 -0.5231021,3.317737 -1.0065555,4.505623 -0.4834534,1.187886 -0.5362859,1.170284 0.1628055,1.869377 0.6990925,0.699094 0.7264662,0.643585 1.9593281,0.201654 1.2328619,-0.441932 3.7577759,-1.397755 4.9933649,-0.702517 1.305996,0.734853 1.707617,2.525166 2.30548,3.721838 C 14.918537,31.355147 14.93322,31.4375 16,31.4375 c 1.06678,0 1.072183,0.0087 1.92596,-1.229475 0.853777,-1.238194 1.549258,-3.044127 2.728909,-3.672286 1.126972,-0.600108 3.227942,-0.04891 4.437339,0.47617 1.209396,0.525075 1.234597,0.580485 1.93369,-0.118608 0.699095,-0.699094 0.671517,-0.646449 0.332439,-2.041684 -0.288142,-1.185641 -1.581491,-3.355778 -1.190519,-4.28014 0.390973,-0.924362 3.078559,-2.683012 4.12144,-3.107102 C 31.33214,17.040286 31.4375,17.06678 31.4375,16 c 0,-1.06678 -0.04062,-1.100542 -1.239748,-1.805882 -1.199131,-0.705339 -3.733576,-1.596067 -4.124548,-2.52043 C 25.682232,10.749326 26.867645,8.1542688 27.268346,6.9851893 27.669044,5.8161098 27.72398,5.8489797 26.9375,5.0625 26.15102,4.2760203 26.141497,4.2887792 24.883299,4.7331705 23.6251,5.1775619 21.205612,6.1409724 20.28125,5.75 19.356888,5.3590276 18.156982,2.9571803 17.584455,1.7580484 17.011928,0.55891646 17.06678,0.5625 16,0.5625 z m -0.0884,11.013985 c 3.070149,-0.110497 4.589021,2.491611 4.556112,4.401416 -0.03367,1.953743 -1.485963,4.467714 -4.379316,4.489813 -2.893353,0.0221 -4.534499,-2.458334 -4.556112,-4.423515 -0.0221,-2.009375 1.329319,-4.357942 4.379316,-4.467714 z"
         style="fill:#858585;stroke:#000000;stroke-width:1.09477818000000005;stroke-linecap:round;stroke-linejoin:miter;stroke-miterlimit:4;stroke-opacity:1;stroke-dashoffset:0;fill-opacity:1" />
      <path
         style="fill:none;stroke:#ffffff;stroke-width:1.58095491;stroke-linecap:round;stroke-linejoin:round;stroke-miterlimit:4;stroke-opacity:0.78037379;stroke-dasharray:none;stroke-dashoffset:0"
         d="m 32.031415,0.83856503 c -1.287907,0 -0.989876,0.85743377 -1.861903,3.13245647 -0.872029,2.2750223 -3.274084,6.3165665 -4.957686,7.0349295 -1.683604,0.71836 -7.334721,-0.392982 -9.676363,-1.2609636 C 13.193821,8.877006 13.208822,7.6347579 11.935516,8.9192513 10.662211,10.203745 11.405192,10.3126 12.228822,12.767921 c 0.823629,2.455322 2.314651,7.565927 1.602547,9.264321 -0.712104,1.698397 -5.2245058,4.040878 -7.4227953,4.949277 -2.1982895,0.908399 -2.5456867,0.753295 -2.6074494,1.972214 -0.060121,1.186515 0.5587222,1.309087 2.8139287,2.490224 2.2552072,1.181132 7.009814,3.978216 7.721919,5.67661 0.712104,1.698397 -0.613066,6.126796 -1.493612,8.309383 -0.880547,2.182587 -1.580705,2.351749 -0.568149,3.311213 0.964489,0.913919 1.477568,0.101658 3.723063,-0.710333 2.245495,-0.811992 6.78253,-1.703517 9.03299,-0.426107 2.3787,1.350197 3.110199,2.748946 4.199127,4.947676 1.08893,2.19873 1.355106,4.189598 2.688096,4.189598 1.41962,0 1.798432,-1.885328 3.353474,-4.160319 1.555041,-2.275022 2.790888,-3.887756 4.939467,-5.041918 2.05263,-1.102621 6.342488,-0.676616 8.545244,0.288155 2.202756,0.964757 2.248654,1.715075 3.120503,0.955564 0.90748,-0.790551 0.04959,-0.971597 -0.567996,-3.535162 -0.524813,-2.178462 -2.231968,-6.505503 -1.519865,-8.203899 0.712105,-1.698396 5.267492,-5.423789 7.166962,-6.203 1.899471,-0.779209 3.237679,-1.014336 3.177516,-2.231769 -0.06176,-1.2498 -0.696901,-0.813344 -2.880962,-2.109314 -2.184059,-1.295969 -6.837079,-2.629933 -7.604962,-5.186829 -0.78488,-2.613493 0.867341,-7.05012 1.597166,-9.198153 C 51.974851,9.9673215 52.663305,9.7448339 51.777932,8.88837 50.825864,7.9673885 50.721173,8.9953054 48.429532,9.8118171 46.13789,10.628329 41.097857,11.546852 39.414255,10.828491 37.730651,10.110129 34.780907,5.631536 33.738126,3.4282859 32.695344,1.2250358 33.231976,0.83856503 32.031415,0.83856503 z M 32.257272,15.802499 c 6.216487,0 13.202602,4.573124 13.090786,12.981841 C 45.235431,37.254079 39.347851,42.540948 31.97586,42.609665 24.601684,42.678401 18.675098,37.684862 18.674204,28.897268 18.673311,20.110531 25.91726,15.802499 32.257272,15.802499 z"
         id="path3725" />
    </g>
  </g>
</svg>
