<?xml version="1.0" encoding="UTF-8" standalone="no"?>
<svg
   xmlns:dc="http://purl.org/dc/elements/1.1/"
   xmlns:cc="http://creativecommons.org/ns#"
   xmlns:rdf="http://www.w3.org/1999/02/22-rdf-syntax-ns#"
   xmlns:svg="http://www.w3.org/2000/svg"
   xmlns="http://www.w3.org/2000/svg"
   xmlns:xlink="http://www.w3.org/1999/xlink"
   version="1.0"
   id="svg2"
   height="32"
   width="32">
  <defs
     id="defs4">
    <linearGradient
       id="linearGradient3212">
      <stop
         id="stop3214"
         offset="0"
         style="stop-color:#c41329;stop-opacity:1;" />
      <stop
         style="stop-color:#c23840;stop-opacity:0.49803922;"
         offset="1"
         id="stop3220" />
      <stop
         id="stop3216"
         offset="1"
         style="stop-color:#ca1818;stop-opacity:0;" />
    </linearGradient>
    <radialGradient
       gradientUnits="userSpaceOnUse"
       gradientTransform="matrix(1,0,0,0.895698,0.4940484,3.2060036)"
       r="24.484351"
       fy="30.737693"
       fx="31.942568"
       cy="30.737693"
       cx="31.942568"
       id="radialGradient3218"
       xlink:href="#linearGradient3212" />
  </defs>
  <metadata
     id="metadata7">
    <rdf:RDF>
      <cc:Work
         rdf:about="">
        <dc:format>image/svg+xml</dc:format>
        <dc:type
           rdf:resource="http://purl.org/dc/dcmitype/StillImage" />
        <dc:title></dc:title>
      </cc:Work>
    </rdf:RDF>
  </metadata>
  <g
     id="layer1">
    <path
       id="path2383"
       d="m 31.294107,14.14253 c -0.435812,7.746386 -15.259204,16.423315 -15.259204,16.423315 0,0 -15.07390479,-8.535393 -15.25920597,-16.423315 -0.078126,-3.325672 0.99481177,-9.2526252 6.32396847,-10.6805684 4.4087645,-1.1813249 8.9352375,5.178673 8.9352375,5.178673 0,0 4.002278,-6.616587 9.12054,-5.2451529 5.399529,1.4467993 6.320786,7.5098933 6.138664,10.7470483 z"
       style="fill:#800080;fill-opacity:1;fill-rule:evenodd;stroke:#210000;stroke-width:1.39999998000000003;stroke-linecap:butt;stroke-linejoin:miter;stroke-miterlimit:4;stroke-opacity:1;stroke-dasharray:none" />
    <path
       style="fill:#e30000;fill-opacity:1;fill-rule:evenodd;stroke:none;stroke-width:1.16990411000000005;stroke-linecap:butt;stroke-linejoin:miter;stroke-miterlimit:4;stroke-opacity:1;stroke-dasharray:none"
       d="m 28.787596,14.947164 c -0.364184,6.473236 -12.75129,13.724075 -12.75129,13.724075 0,0 -12.5964457,-7.132566 -12.7512918,-13.724075 -0.065286,-2.779084 0.8313103,-7.7319168 5.2845978,-8.9251716 3.684166,-0.9871692 7.466694,4.3275366 7.466694,4.3275366 0,0 3.344487,-5.5291234 7.621541,-4.3830902 4.512094,1.2090117 5.281939,6.2756102 5.129749,8.9807252 z"
       id="path2828" />
    <path
       id="path2830"
       d="M 26.281085,15.398245 C 25.988528,20.59833 16.037709,26.42308 16.037709,26.42308 c 0,0 -10.1189866,-5.729738 -10.2433777,-11.024835 -0.052446,-2.232495 0.6678089,-6.2112088 4.2452277,-7.1697752 2.959567,-0.7930135 5.99815,3.4763992 5.99815,3.4763992 0,0 2.686696,-4.4416588 6.122542,-3.5210266 3.624659,0.9712243 4.243091,5.0413276 4.120834,7.2144026 z"
       style="fill:#800080;fill-opacity:1;fill-rule:evenodd;stroke:none;stroke-width:0.93980825000000001;stroke-linecap:butt;stroke-linejoin:miter;stroke-miterlimit:4;stroke-opacity:1;stroke-dasharray:none" />
    <path
       id="path2832"
       d="m 23.893932,15.739459 c -0.22434,3.98756 -7.854887,8.454129 -7.854887,8.454129 0,0 -7.7595015,-4.393712 -7.8548878,-8.454129 -0.040217,-1.711936 0.5120931,-4.762917 3.2553508,-5.497971 2.269472,-0.6081029 4.599537,2.665794 4.599537,2.665794 0,0 2.060228,-3.4059797 4.694924,-2.700015 2.779483,0.74476 3.253713,3.865821 3.159963,5.532192 z"
       style="fill:#e30000;fill-opacity:1;fill-rule:evenodd;stroke:none;stroke-width:0.72066938999999997;stroke-linecap:butt;stroke-linejoin:miter;stroke-miterlimit:4;stroke-opacity:1;stroke-dasharray:none" />
    <path
       style="fill:#800080;fill-opacity:1;fill-rule:evenodd;stroke:none;stroke-width:0.52344440999999997;stroke-linecap:butt;stroke-linejoin:miter;stroke-miterlimit:4;stroke-opacity:1;stroke-dasharray:none"
       d="m 21.745494,15.860935 c -0.162945,2.896288 -5.705246,6.140495 -5.705246,6.140495 0,0 -5.635966,-3.191289 -5.705248,-6.140495 -0.02921,-1.243432 0.371949,-3.459453 2.364462,-3.993345 1.648388,-0.441684 3.340786,1.936248 3.340786,1.936248 0,0 1.496407,-2.473868 3.410068,-1.961104 2.018824,0.540942 2.363272,2.807865 2.295178,4.018201 z"
       id="path2834" />
  </g>
</svg>
