<?xml version="1.0" encoding="UTF-8" standalone="no"?>
<svg
   xmlns:dc="http://purl.org/dc/elements/1.1/"
   xmlns:cc="http://creativecommons.org/ns#"
   xmlns:rdf="http://www.w3.org/1999/02/22-rdf-syntax-ns#"
   xmlns:svg="http://www.w3.org/2000/svg"
   xmlns="http://www.w3.org/2000/svg"
   xmlns:xlink="http://www.w3.org/1999/xlink"
   version="1.0"
   id="svg2"
   height="32"
   width="32">
  <defs
     id="defs4">
    <linearGradient
       id="linearGradient3681">
      <stop
         id="stop3683"
         offset="0"
         style="stop-color:#ffffff;stop-opacity:1;" />
      <stop
         id="stop3685"
         offset="1"
         style="stop-color:#8e8787;stop-opacity:1;" />
    </linearGradient>
    <linearGradient
       id="linearGradient3651">
      <stop
         id="stop3653"
         offset="0"
         style="stop-color:#5f5f5f;stop-opacity:1;" />
      <stop
         id="stop3655"
         offset="1"
         style="stop-color:#2b2b2b;stop-opacity:1;" />
    </linearGradient>
    <linearGradient
       id="linearGradient3212">
      <stop
         id="stop3214"
         offset="0"
         style="stop-color:#c41329;stop-opacity:1;" />
      <stop
         style="stop-color:#c23840;stop-opacity:0.49803922;"
         offset="1"
         id="stop3220" />
      <stop
         id="stop3216"
         offset="1"
         style="stop-color:#ca1818;stop-opacity:0;" />
    </linearGradient>
    <radialGradient
       gradientUnits="userSpaceOnUse"
       r="12.375"
       fy="13.5"
       fx="13.625"
       cy="13.5"
       cx="13.625"
       id="radialGradient3657"
       xlink:href="#linearGradient3651" />
    <filter
       id="filter3659">
      <feGaussianBlur
         id="feGaussianBlur3661"
         stdDeviation="0.022181698" />
    </filter>
    <filter
       id="filter3673">
      <feGaussianBlur
         id="feGaussianBlur3675"
         stdDeviation="0.12214332" />
    </filter>
    <radialGradient
       gradientUnits="userSpaceOnUse"
       r="2.04375"
       fy="15.09375"
       fx="15.375"
       cy="15.09375"
       cx="15.375"
       id="radialGradient3687"
       xlink:href="#linearGradient3681" />
    <filter
       id="filter3691">
      <feGaussianBlur
         id="feGaussianBlur3693"
         stdDeviation="0.069397417" />
    </filter>
    <filter
       id="filter3699">
      <feGaussianBlur
         id="feGaussianBlur3701"
         stdDeviation="0.073586888" />
    </filter>
    <filter
       id="filter3705">
      <feGaussianBlur
         id="feGaussianBlur3707"
         stdDeviation="0.067829253" />
    </filter>
    <radialGradient
       r="2.04375"
       fy="15.09375"
       fx="15.375"
       cy="15.09375"
       cx="15.375"
       gradientUnits="userSpaceOnUse"
       id="radialGradient3716"
       xlink:href="#linearGradient3681" />
    <radialGradient
       r="12.375"
       fy="13.5"
       fx="13.625"
       cy="13.5"
       cx="13.625"
       gradientUnits="userSpaceOnUse"
       id="radialGradient3743"
       xlink:href="#linearGradient3651" />
    <radialGradient
       r="2.04375"
       fy="15.09375"
       fx="15.375"
       cy="15.09375"
       cx="15.375"
       gradientUnits="userSpaceOnUse"
       id="radialGradient3745"
       xlink:href="#linearGradient3681" />
  </defs>
  <metadata
     id="metadata7">
    <rdf:RDF>
      <cc:Work
         rdf:about="">
        <dc:format>image/svg+xml</dc:format>
        <dc:type
           rdf:resource="http://purl.org/dc/dcmitype/StillImage" />
        <dc:title></dc:title>
      </cc:Work>
    </rdf:RDF>
  </metadata>
  <g
     id="layer1">
    <g
       transform="matrix(0.96736045,0,0,0.96736045,0.3773592,0.90118444)"
       id="g3718">
      <path
         style="fill:#999999;fill-opacity:1;stroke:#000000;stroke-width:0.6202445;stroke-linecap:round;stroke-linejoin:miter;stroke-miterlimit:4;stroke-opacity:1;stroke-dashoffset:0;stroke-dasharray:none"
         d="m 27.164901,4.9169501 -2.015097,6.3488739 c 0,0 -2.264867,1.244493 -3.834878,-0.325518 C 19.744915,9.370295 20.816027,6.9320473 20.816027,6.9320473 l 6.348875,-2.0150967 z"
         id="rect2830" />
      <use
         x="0"
         y="0"
         xlink:href="#use3609"
         id="use3611"
         transform="matrix(-1,0,0,-1,32.386867,31.778977)"
         width="32"
         height="32" />
      <use
         x="0"
         y="0"
         xlink:href="#use3641"
         id="use3643"
         transform="matrix(0.70710678,-0.70710678,0.70710678,0.70710678,-6.4103043,16.125667)"
         width="32"
         height="32" />
      <use
         x="0"
         y="0"
         xlink:href="#use3607"
         id="use3609"
         transform="matrix(0,1,-1,0,32.088466,-0.29733132)"
         width="32"
         height="32" />
      <use
         x="0"
         y="0"
         xlink:href="#rect2830"
         id="use3607"
         transform="matrix(0,1,1,0,0.297334,-0.297334)"
         width="32"
         height="32" />
      <path
         id="path3621"
         d="m 16,0.27275276 0.883199,6.05511614 c 0,0 -0.207947,1.1484921 -0.847865,1.1484921 -0.639918,0 -0.918533,-1.1484921 -0.918533,-1.1484921 L 16,0.27275276 z"
         style="opacity:0.8;fill:#ffffff;fill-opacity:1;stroke:none;filter:url(#filter3659)"
         transform="matrix(0.73327793,0.73327793,-0.70710678,0.70710678,15.320385,-6.7034265)" />
      <use
         x="0"
         y="0"
         xlink:href="#use3643"
         id="use3645"
         transform="matrix(0,-1,-1,0,32.259694,32.259694)"
         width="32"
         height="32" />
      <use
         x="0"
         y="0"
         xlink:href="#path3621"
         id="use3647"
         transform="matrix(0,1,1,0,0.39745396,-0.39745396)"
         width="32"
         height="32" />
      <path
         style="fill:url(#radialGradient3743);fill-opacity:1;stroke:#000000;stroke-width:0.80709524;stroke-linecap:round;stroke-linejoin:round;stroke-miterlimit:4;stroke-opacity:1;stroke-dasharray:none;stroke-dashoffset:0"
         id="path2828"
         d="M 25.5,13.5 A 11.875,11.875 0 0 1 13.625,25.375 11.875,11.875 0 0 1 1.75,13.5 11.875,11.875 0 0 1 13.625,1.625 11.875,11.875 0 0 1 25.5,13.5 Z"
         transform="matrix(0.63397178,0.63397178,-0.63397178,0.63397178,16.113652,-1.3075311)" />
      <use
         x="0"
         y="0"
         xlink:href="#use3611"
         id="use3613"
         transform="matrix(0.70710678,-0.70710678,0.70710678,0.70710678,-6.2056725,15.823183)"
         width="32"
         height="32"
         style="fill:#999999" />
      <use
         style="stroke-width:1.03374088;stroke-miterlimit:4;stroke-dasharray:none"
         x="0"
         y="0"
         xlink:href="#use3613"
         id="use3615"
         transform="matrix(0,-1,-1,0,31.758024,31.794013)"
         width="32"
         height="32" />
      <use
         x="0"
         y="0"
         xlink:href="#use3615"
         id="use3617"
         transform="matrix(0,1,1,0,0.50551035,-0.54149953)"
         width="32"
         height="32" />
      <use
         x="0"
         y="0"
         xlink:href="#use3617"
         id="use3619"
         transform="matrix(0,-1,-1,0,31.758024,31.722035)"
         width="32"
         height="32" />
      <use
         x="0"
         y="0"
         xlink:href="#path3621"
         id="use3627"
         transform="matrix(0.70710678,0.70710678,-0.70710678,0.70710678,15.917788,-7.077033)"
         width="32"
         height="32" />
      <use
         x="0"
         y="0"
         xlink:href="#path3621"
         id="use3637"
         transform="matrix(0.70710678,-0.70710678,0.70710678,0.70710678,-6.5355335,15.732349)"
         width="32"
         height="32" />
      <use
         x="0"
         y="0"
         xlink:href="#use3637"
         id="use3639"
         transform="matrix(0,1,1,0,0.49599764,-0.54149953)"
         width="32"
         height="32" />
      <use
         x="0"
         y="0"
         xlink:href="#use3639"
         id="use3641"
         transform="matrix(0,-1,-1,0,31.758024,31.652094)"
         width="32"
         height="32" />
      <g
         id="g3709"
         transform="translate(0.19289928,-0.11104621)">
        <path
           transform="matrix(1.3975535,0,0,1.3975535,-5.4873853,-5.0943234)"
           d="M 17.21875,15.09375 A 1.84375,1.84375 0 0 1 15.375,16.9375 1.84375,1.84375 0 0 1 13.53125,15.09375 1.84375,1.84375 0 0 1 15.375,13.25 a 1.84375,1.84375 0 0 1 1.84375,1.84375 z"
           id="path3665"
           style="fill:url(#radialGradient3745);fill-opacity:1;stroke:#000000;stroke-width:0.40000001;stroke-miterlimit:4;stroke-opacity:1;stroke-dasharray:none" />
        <path
           id="use3649"
           d="m 16,0.27275276 0.883199,6.05511614 c 0,0 -0.207947,1.1484921 -0.847865,1.1484921 -0.639918,0 -0.918533,-1.1484921 -0.918533,-1.1484921 L 16,0.27275276 z"
           style="opacity:0.8;fill:#ffffff;fill-opacity:1;stroke:none;filter:url(#filter3699)"
           transform="matrix(0.27343422,0.20920485,0.1797685,-0.23923929,11.529749,12.748568)" />
        <path
           transform="matrix(0.27343422,0.20920485,0.1797685,-0.23923929,11.529749,12.748568)"
           style="opacity:0.6;fill:#ffffff;fill-opacity:1;stroke:none;filter:url(#filter3691)"
           d="m 16,0.27275276 4.18216,6.26136644 c 0,0 -1.586208,1.5352949 -3.832862,1.6324282 C 14.171773,8.260692 12.0228,6.6703041 12.0228,6.6703041 L 16,0.27275276 z"
           id="path3689" />
        <path
           id="path3703"
           d="M 16,0.27275276 20.341292,5.963076 c 0,0 -1.986003,1.7820298 -3.769062,1.922034 C 14.720195,8.0305301 12.615654,6.9574595 12.615654,6.9574595 L 16,0.27275276 z"
           style="opacity:0.6;fill:#333333;fill-opacity:1;stroke:none;filter:url(#filter3705)"
           transform="matrix(-0.2801872,-0.20007017,-0.17177796,0.24503975,20.472878,19.131157)" />
        <path
           transform="matrix(-0.2801872,-0.20007017,-0.17177796,0.24503975,20.472878,19.115532)"
           style="opacity:0.8;fill:#333333;fill-opacity:1;stroke:none;filter:url(#filter3673)"
           d="m 16,0.27275276 0.883199,6.05511614 c 0,0 -0.207947,1.1484921 -0.847865,1.1484921 -0.639918,0 -0.918533,-1.1484921 -0.918533,-1.1484921 L 16,0.27275276 z"
           id="path3667" />
      </g>
    </g>
  </g>
</svg>
