<?xml version="1.0" encoding="UTF-8" standalone="no"?>
<!-- Created with Inkscape (http://www.inkscape.org/) -->

<svg
   xmlns:dc="http://purl.org/dc/elements/1.1/"
   xmlns:cc="http://creativecommons.org/ns#"
   xmlns:rdf="http://www.w3.org/1999/02/22-rdf-syntax-ns#"
   xmlns:svg="http://www.w3.org/2000/svg"
   xmlns="http://www.w3.org/2000/svg"
   version="1.1"
   width="512"
   height="512"
   id="svg2">
  <metadata
     id="metadata8">
    <rdf:RDF>
      <cc:Work
         rdf:about="">
        <dc:format>image/svg+xml</dc:format>
        <dc:type
           rdf:resource="http://purl.org/dc/dcmitype/StillImage" />
        <dc:title></dc:title>
      </cc:Work>
    </rdf:RDF>
  </metadata>
  <defs
     id="defs6" />
  <path
     d="m 0,0 512,0 0,512 -512,0 z"
     id="rect3028"
     style="fill:#000000;fill-opacity:1;fill-rule:nonzero;stroke:none" />
  <path
     d="m 95.805239,351.74758 c 11.184591,-7.40161 13.276581,-23.10509 4.390951,-32.96055 -8.546227,-9.47904 -21.478322,-10.37317 -31.086049,-2.14931 -11.955901,10.2338 -8.753199,30.2559 5.889859,36.8212 5.555055,2.49064 15.718956,1.65461 20.805239,-1.71134 z m 215.760851,88.76655 c 9.82012,-5.75497 11.24456,-19.81153 2.80707,-27.70051 -7.19886,-6.73088 -17.83517,-6.37869 -24.55954,0.81322 -13.78443,14.74284 4.31037,37.10905 21.75247,26.88729 z M 343.5,162.34238 c -9.51939,-1.13583 -11.5,-1.56376 -11.5,-2.48467 0,-2.17983 7.43094,-15.68393 12.09604,-21.9819 16.50422,-22.281 45.58287,-39.798111 66.46911,-40.041295 16.2481,-0.18918 23.29131,7.956235 22.18687,25.658975 -1.33476,21.39456 -14.60321,33.078 -43.13301,37.98044 -8.13302,1.39754 -37.11138,1.94323 -46.11901,0.86845 z m -127,-0.37688 c -30.19339,-4.64081 -45.55011,-19.73674 -44.30034,-43.54801 0.36302,-6.91645 0.88356,-8.94485 3.18975,-12.42975 15.38254,-23.244574 74.02366,5.25623 94.00174,45.68679 3.97866,8.05182 4.06381,8.98657 0.8875,9.74376 -4.61857,1.10102 -47.34689,1.53579 -53.77865,0.54721 z m 65.14865,82.85092 c -14.27401,-12.90875 -20.31454,-17.77523 -21.5,-17.32124 -0.90676,0.34726 -10.07062,5.78607 -20.36414,12.08624 -10.29352,6.30018 -19.31144,11.68355 -20.03981,11.96305 -0.79346,0.30448 -12.00478,-10.4637 -27.96821,-26.86273 l -26.6439,-27.37093 6.20138,-6.14625 6.20137,-6.14625 21.97381,21.99084 C 211.59474,219.10412 221.79793,229 222.18289,229 c 0.38497,0 9.80083,-5.57754 20.92413,-12.39453 l 20.22418,-12.39452 18.84543,16.97418 c 10.36499,9.3358 19.26624,16.82584 19.78056,16.64453 0.51432,-0.18131 10.44606,-9.27266 22.07055,-20.203 18.9416,-17.81053 21.3605,-19.76911 23.30384,-18.86916 1.19263,0.55231 9.59342,5.34413 18.66842,10.64849 l 16.5,9.64429 5.51297,-5.77514 c 3.03213,-3.17633 10.80754,-11.37434 17.27869,-18.21782 l 11.76572,-12.44268 6.38628,6.32952 6.38628,6.32952 -22.06904,23.25504 -22.06905,23.25504 -7.59593,-4.5011 c -4.17775,-2.47561 -12.68329,-7.45076 -18.90118,-11.0559 l -11.30526,-6.55479 -5.69474,5.4697 c -10.0233,9.6272 -37.6418,35.35426 -39.19474,36.51052 -1.22225,0.91004 -5.17577,-2.20735 -21.35135,-16.83577 z m -36.60823,248.57894 c 17.29765,-5.13685 31.84798,-26.85662 29.32748,-43.77811 -0.98062,-6.58348 -7.34583,-19.15444 -16.53702,-32.65978 -4.68987,-6.89119 -9.46253,-15.02979 -10.60593,-18.08578 -4.99146,-13.34087 -7.31675,-33.74907 -6.13809,-53.87169 1.82114,-31.09144 12.58091,-51.70931 29.32204,-56.18688 6.0849,-1.62746 9.11118,-0.15228 11.70172,5.70405 3.10292,7.01466 3.82409,13.78771 4.84285,45.48283 0.95203,29.61936 1.85573,36.97567 5.36706,43.6893 2.3342,4.46297 5.40911,6.3107 10.50198,6.3107 3.61815,0 4.94939,-0.5719 7.67441,-3.29692 5.56633,-5.56633 5.78361,-7.34503 6.49905,-53.20308 0.54372,-34.85099 0.93945,-42.98393 2.32488,-47.7805 C 323.74409,270.40552 330.96939,264 343.82,264 c 4.44476,0 6.71547,0.55365 9.28212,2.2632 8.74429,5.82423 9.78705,18.26291 4.21145,50.2368 -0.86318,4.95 -1.61893,13.275 -1.67944,18.5 -0.17069,14.73896 3.00081,19.16667 13.7288,19.16667 6.06193,0 10.13033,-2.5823 12.80108,-8.1251 2.92902,-6.07882 2.88976,-19.53159 -0.12561,-43.04157 -3.40576,-26.55371 -2.01513,-36.88477 5.22418,-38.81054 6.64681,-1.76816 12.99515,2.32076 16.57853,10.67811 8.7992,20.52194 7.27443,56.29676 -3.29247,77.24904 -12.22304,24.23612 -13.59523,39.63934 -4.71088,52.8811 2.88254,4.29631 5.04611,6.17419 10.16224,8.82032 6.00525,3.10601 7.07086,3.3333 14,2.98611 12.23794,-0.6132 20.60583,-6.19547 26.14089,-17.43876 2.81949,-5.72719 3.21508,-7.51326 3.14694,-14.20802 -0.095,-9.33195 -1.5512,-13.86172 -9.85566,-30.65736 -9.12111,-18.44733 -9.93453,-22.10803 -9.888,-44.5 0.0335,-16.09863 0.39793,-20.30611 2.80793,-32.41412 3.32838,-16.72205 9.10024,-36.8256 18.68657,-65.08588 8.09038,-23.85023 11.65912,-39.31297 12.57839,-54.5 0.69871,-11.54306 -0.69079,-25.20285 -3.64878,-35.87029 l -1.82397,-6.57782 4.38849,-6.60123 C 471.25899,95.824596 473.50002,87.865398 473.49993,70 c -5e-5,-12.086966 -0.29321,-14.393897 -2.80081,-22.040215 -2.90247,-8.850379 -10.80004,-24.492529 -12.32755,-24.416276 -0.47936,0.02393 -1.35566,2.72393 -1.94733,6 -2.97024,16.446168 -11.09787,32.147719 -21.11949,40.800125 l -3.29363,2.843635 -7.25556,-6.268993 C 407.78462,52.254948 388.93144,42.024532 362,32.86486 306.73463,14.068512 241.44224,13.180683 189.42309,30.518204 159.49972,40.491396 134.98563,54.7466 112.81078,75.069075 l -8.68923,7.963367 -4.310773,-1.696114 C 79.62669,73.39472 66.22018,55.219385 60.981972,28.695743 59.537304,21.380675 58.705097,21.937672 52.571467,34.324893 46.168245,47.256571 43.797017,56.95415 43.72602,70.5 43.62211,90.325539 49.20709,104.10774 63,118.0629 c 4.675,4.72999 9.599472,9.27628 10.943272,10.10285 l 2.443272,1.50286 -1.672374,6.4157 c -3.945707,15.13683 -6.208781,55.09453 -5.460671,96.41569 0.675917,37.33366 2.837029,50.27965 9.233207,55.31088 6.258939,4.92329 12.609858,-1.67658 20.988181,-21.81088 5.828023,-14.00557 11.450103,-19.865 17.835043,-18.58801 4.64797,0.92959 13.07862,7.86851 18.01274,14.82554 13.41635,18.91684 21.85444,45.61803 22.04628,69.76247 0.10499,13.21364 -0.54778,15.09825 -9.72864,28.08764 -6.8763,9.7288 -8.46313,15.5851 -6.26139,23.10812 4.24517,14.50514 19.71375,21.69961 33.17669,15.43054 6.53692,-3.04394 11.94064,-9.35797 13.47203,-15.74151 2.0469,-8.53242 -0.24965,-15.16642 -8.8181,-25.47271 -6.86369,-8.25576 -8.71418,-14.19903 -8.69072,-27.91208 0.0159,-9.29973 0.37125,-11.77093 2.29885,-15.98754 4.21856,-9.2281 10.46409,-13.45096 19.9522,-13.4905 10.7505,-0.0448 18.43964,8.39885 25.2694,27.749 8.38662,23.76111 9.39517,60.65634 2.05154,75.05104 -1.06011,2.07798 -4.88908,7.75059 -8.50882,12.60579 -12.18765,16.34743 -16.58995,26.51975 -16.57117,38.29066 0.0434,27.19097 25.11618,47.0754 50.0296,39.67691 z"
     id="path2989"
     style="fill:#ffffff" />
</svg>
