<?xml version="1.0" encoding="UTF-8" standalone="no"?>
<!-- Created with Inkscape (http://www.inkscape.org/) -->

<svg
   xmlns:dc="http://purl.org/dc/elements/1.1/"
   xmlns:cc="http://creativecommons.org/ns#"
   xmlns:rdf="http://www.w3.org/1999/02/22-rdf-syntax-ns#"
   xmlns:svg="http://www.w3.org/2000/svg"
   xmlns="http://www.w3.org/2000/svg"
   version="1.1"
   width="512"
   height="512"
   id="svg2">
  <metadata
     id="metadata8">
    <rdf:RDF>
      <cc:Work
         rdf:about="">
        <dc:format>image/svg+xml</dc:format>
        <dc:type
           rdf:resource="http://purl.org/dc/dcmitype/StillImage" />
        <dc:title></dc:title>
      </cc:Work>
    </rdf:RDF>
  </metadata>
  <defs
     id="defs6" />
  <path
     d="m 0,0 512,0 0,512 -512,0 z"
     id="rect3056"
     style="fill:#000000" />
  <path
     d="m 441.71556,451.60634 c 10.18679,-5.05795 21.7807,-16.52592 24.86062,-24.59058 3.9863,-10.43797 0.71569,-19.24561 -9.04874,-24.36793 -7.10765,-3.7286 -22.1842,-3.65482 -29.36744,0.14371 -17.20303,9.09704 -25.57551,28.70031 -18.2081,42.63231 5.79196,10.95275 17.54782,13.24092 31.76366,6.18249 z M 338.55804,262.23361 c 16.897,-18.70295 14.45626,-46.29639 -4.99685,-56.49118 -4.14068,-2.17001 -7.39131,-2.73126 -15.48119,-2.67295 -9.43681,0.068 -14.07821,1.15425 -26.56,6.21602 -2.00485,0.81303 -2.24,-0.0201 -2.24,-7.9357 l 0,-8.84409 6.08,-2.13192 c 22.82889,-8.00489 41.84419,-5.04968 56.65601,8.80505 12.64012,11.82335 17.39861,32.70143 11.68777,51.28055 -1.47767,4.80734 -3.84306,10.61261 -5.25642,12.90061 l -2.56973,4.16 -11.04775,0 -11.04776,0 4.77592,-5.28639 z m -85.42167,-39.75693 -0.33637,-45.0433 -12.16,-3.6015 c -6.688,-1.98082 -13.024,-3.9544 -14.08,-4.38571 -2.15273,-0.87927 -2.16876,-0.87281 15.68,-6.32602 l 11.2,-3.42186 0,-5.60915 0,-5.60914 8.32,0 8.32,0 0,5.70504 0,5.70502 13.12,3.97238 c 7.216,2.18482 13.696,4.14091 14.4,4.34688 0.704,0.20598 -5.056,2.35319 -12.8,4.77158 l -14.08,4.39707 -0.33637,45.07102 -0.33639,45.07101 -8.28724,0 -8.28724,0 -0.33639,-45.04332 z m -88.64548,38.66482 c -8.64288,-17.05591 -9.14699,-36.03846 -1.35694,-51.0958 3.37632,-6.52606 13.97703,-16.50989 20.49786,-19.30504 10.52792,-4.51279 19.96868,-5.79926 29.71903,-4.04972 4.80103,0.86148 11.46516,2.45472 14.80916,3.54056 l 6.08,1.97423 0,8.99409 c 0,8.0585 -0.23301,8.89959 -2.24,8.08568 -12.40589,-5.03098 -17.17431,-6.15311 -26.66038,-6.27387 -9.39524,-0.11955 -10.91309,0.22244 -16.60615,3.74221 -3.882,2.40004 -7.73959,6.25694 -10.13963,10.13777 -3.52407,5.69837 -3.87384,7.25554 -3.87384,17.24617 0,12.26107 2.45458,18.81978 10.60819,28.34545 l 4.3113,5.03677 -10.95818,0 -10.95819,0 -3.23223,-6.3785 z M 298.24,311.04 l 0,-8.96 -14.08,0 -14.08,0 0,8.96 0,8.96 14.08,0 14.08,0 0,-8.96 z m -44.8,0 0,-8.96 -12.8,0 -12.8,0 0,8.96 0,8.96 12.8,0 12.8,0 0,-8.96 z m -76.8,17.28 0,-8.32 17.33848,0 17.33849,0 -0.37849,-8.64 -0.37848,-8.64 -16.96,-0.35716 -16.96,-0.35714 0,-7.52594 0,-7.52593 42.56,-0.43691 c 23.408,-0.24031 61.712,-0.24523 85.12,-0.0115 l 42.56,0.42597 0,7.57403 0,7.57401 -16,0 -16,0 0,8.96 0,8.96 16,0 16,0 0,8.32 0,8.32 -85.12,0 -85.12,0 0,-8.32 z m 81.92,45.81603 c -6.97295,-2.54901 -10.36024,-10.5954 -7.10793,-16.88466 2.45475,-4.74697 5.54995,-6.53137 11.32923,-6.53137 8.50431,0 14.03086,10.12425 9.82076,17.9909 -2.36029,4.41023 -9.38943,7.12593 -14.04206,5.42513 z m 21.76,16.96506 c 36.08525,-5.47157 66.50454,-23.77648 88.37687,-53.18109 7.11622,-9.56687 15.82304,-27.66876 20.00917,-41.6 3.22223,-10.72346 3.46158,-13.15734 3.46158,-35.2 0,-22.12481 -0.22951,-24.43658 -3.49467,-35.2 -7.30258,-24.07259 -18.50739,-42.56916 -35.82569,-59.14002 -12.16273,-11.63778 -21.23793,-17.90568 -35.80213,-24.72717 -37.60727,-17.61426 -82.57796,-16.09966 -118.4821,3.99043 -49.18647,27.5222 -75.63075,82.52086 -66.06158,137.39453 12.22098,70.0803 78.29494,118.20514 147.81855,107.66332 z m -32,17.15678 c -52.20739,-4.72739 -97.88918,-36.88316 -120.28147,-84.66709 -30.973798,-66.09634 -8.6376,-144.96108 52.59542,-185.70412 24.90178,-16.56908 50.37713,-24.07568 81.8168,-24.10825 68.79844,-0.0713 126.42663,45.64361 143.67653,113.9747 4.03176,15.97078 4.01525,50.82489 -0.0317,66.86713 -13.88082,55.02447 -54.19985,96.08801 -107.8556,109.84724 -7.81526,2.00411 -35.94772,5.63274 -38.4,4.95297 -0.352,-0.0975 -5.536,-0.62073 -11.52,-1.16258 z m 61.44,65.26821 c 11.21489,-1.79894 27.86711,-7.64353 36.75013,-12.89855 11.97644,-7.085 24.85356,-20.69374 30.11647,-31.82753 19.53174,-41.31971 22.03027,-45.3153 35.5563,-56.86092 3.68732,-3.14744 8.79062,-6.6912 11.34066,-7.87502 29.79077,-13.82991 35.63074,-18.40423 42.78923,-33.5159 3.78896,-7.99854 4.08721,-9.60891 4.08721,-22.06816 0,-11.9263 -0.38913,-14.27037 -3.45505,-20.81283 -1.90029,-4.05505 -6.10695,-10.81914 -9.34815,-15.03133 -8.47959,-11.01987 -11.22771,-17.98671 -11.88982,-30.14227 -0.75337,-13.83085 2.50962,-25.44681 13.82432,-49.21357 10.56435,-22.19061 12.0072,-27.48907 11.24874,-41.30812 -1.06822,-19.46303 -11.04412,-31.88301 -31.10004,-38.71947 -4.40512,-1.50157 -13.18259,-2.47745 -28.16,-3.13084 -19.31444,-0.84259 -22.68,-1.32825 -29.94595,-4.3213 C 367.96291,100.19343 361.30586,95.066552 337.62371,71.952212 312.50432,47.435091 308.70542,44.981347 291.59373,42.220932 269.54226,38.663648 232.98479,47.299428 201.6,63.479686 c -43.74397,22.551967 -54.12384,27.620593 -66.25669,32.354037 -7.57719,2.95612 -22.4907,7.662317 -33.14114,10.458207 -12.501374,3.2818 -22.531883,6.78192 -28.301552,9.87576 -12.907105,6.92111 -25.080574,18.65128 -31.154329,30.01984 -4.601333,8.61255 -4.98597,10.1224 -4.986124,19.57247 -2.09e-4,12.94975 2.843977,18.22202 16.387469,30.37747 23.158356,20.78492 34.670241,44.13923 34.555188,70.10253 -0.09042,20.40577 -6.745895,36.17951 -24.044591,56.98669 -4.632595,5.57216 -9.858794,13.06607 -11.613774,16.65312 -16.456014,33.63488 6.439738,73.27072 47.468173,82.17423 8.59167,1.86446 12.02451,1.93462 28.54672,0.58336 54.1407,-4.42785 73.02846,0.52275 102.76461,26.93528 5.90482,5.24484 13.18902,11.07897 16.1871,12.96473 16.35985,10.29019 39.94152,14.48672 61.74894,10.98867 z"
     id="path3007"
     style="fill:#ffffff" />
</svg>
