<?xml version="1.0" encoding="UTF-8" standalone="no"?>
<!-- Created with Inkscape (http://www.inkscape.org/) -->

<svg
   xmlns:dc="http://purl.org/dc/elements/1.1/"
   xmlns:cc="http://creativecommons.org/ns#"
   xmlns:rdf="http://www.w3.org/1999/02/22-rdf-syntax-ns#"
   xmlns:svg="http://www.w3.org/2000/svg"
   xmlns="http://www.w3.org/2000/svg"
   xmlns:sodipodi="http://sodipodi.sourceforge.net/DTD/sodipodi-0.dtd"
   xmlns:inkscape="http://www.inkscape.org/namespaces/inkscape"
   id="svg2"
   version="1.1"
   inkscape:version="0.48.3.1 r9886"
   width="400"
   height="400"
   sodipodi:docname="Icon.1_94.png">
  <metadata
     id="metadata8">
    <rdf:RDF>
      <cc:Work
         rdf:about="">
        <dc:format>image/svg+xml</dc:format>
        <dc:type
           rdf:resource="http://purl.org/dc/dcmitype/StillImage" />
        <dc:title></dc:title>
      </cc:Work>
    </rdf:RDF>
  </metadata>
  <defs
     id="defs6" />
  <sodipodi:namedview
     pagecolor="#ffffff"
     bordercolor="#666666"
     borderopacity="1"
     objecttolerance="10"
     gridtolerance="10"
     guidetolerance="10"
     inkscape:pageopacity="0"
     inkscape:pageshadow="2"
     inkscape:window-width="1855"
     inkscape:window-height="1056"
     id="namedview4"
     showgrid="false"
     inkscape:zoom="0.59"
     inkscape:cx="200"
     inkscape:cy="200"
     inkscape:window-x="65"
     inkscape:window-y="24"
     inkscape:window-maximized="1"
     inkscape:current-layer="svg2" />
  <path
     style="fill:#000000"
     d="m 0,7.6293945e-6 400,0 L 400,400.00001 l -400,0 z"
     id="rect3020" />
  <path
     id="path2989"
     style="fill:#ffffff"
     d="M 194.5,273.59427 C 177.26941,269.33609 165,253.85428 165,236.37052 l 0,-5.26648 -3.06026,1.06681 c -1.68315,0.58675 -5.47569,0.86651 -8.42787,0.62169 -17.3154,-1.43593 -22.39885,-23.79399 -7.69993,-33.86585 2.74467,-1.88068 4.8125,-2.39657 9.65927,-2.40982 7.90735,-0.0216 13.24725,3.20437 16.53046,9.98657 l 2.24396,4.63541 2.83171,-2.71294 2.83171,-2.71295 3.58027,3.14352 c 2.32626,2.04248 4.63952,3.14352 6.60449,3.14352 1.83783,0 2.77223,0.40773 2.38187,1.03934 -0.82134,1.32897 -0.83448,9.25482 -0.0196,11.82231 0.50968,1.60586 0.0255,2.08673 -2.66667,2.6484 -9.65115,2.01352 -14.35382,11.28362 -10.18296,20.07306 5.14762,10.8478 21.62177,9.34548 25.47269,-2.32293 0.61896,-1.87546 0.92434,-4.46159 0.67863,-5.74695 -0.40608,-2.12424 -0.16172,-2.29076 2.68386,-1.82899 7.90797,1.28329 17.09955,-4.29752 20.12482,-12.2191 4.95985,-12.98716 -4.33729,-25.69854 -18.93506,-25.88869 -5.7881,-0.0754 -5.88411,-0.12398 -7,-3.54182 C 201.18051,191.59069 195.95061,188 190.92884,188 c -4.10074,0 -9.32572,3.52438 -10.44278,7.04392 -0.84149,2.65131 -1.56644,2.48398 -5.37645,-1.24101 -5.13953,-5.02485 -7.4517,-10.40575 -7.43506,-17.30291 0.0252,-10.45573 4.58345,-17.74755 13.82545,-22.11671 11.29514,-5.33978 23.54965,-1.81441 30.75,8.84613 3.58018,5.30067 3.47101,6.44248 -0.78599,8.22117 -4.98811,2.08417 -7.0832,7.13172 -5.01486,12.08194 2.69451,6.44888 11.41799,7.69395 15.88452,2.26715 1.3074,-1.58849 1.73614,-3.45409 1.49386,-6.50038 -0.38799,-4.87832 0.15251,-5.2993 6.80392,-5.2993 6.95715,0 13.84875,4.22548 17.12507,10.5 2.04173,3.91014 2.01805,13.13033 -0.0439,17.10156 -2.18855,4.21497 -7.8986,9.06075 -11.64691,9.88401 l -3.08287,0.67712 1.9678,2.50165 c 4.95635,6.30098 7.78539,19.44641 6.08239,28.2625 -3.07208,15.90352 -14.423,27.67928 -29.83222,30.94878 -6.50695,1.38063 -10.22935,1.31792 -16.70078,-0.28135 z M 347.90005,374.9368 c 6.35401,-1.46473 10.01585,-4.51141 12.84208,-10.68471 3.29742,-7.20251 2.86433,-14.73 -1.318,-22.90788 -4.15786,-8.13004 -13.67169,-15.75158 -37.36,-29.92913 -22.23341,-13.30678 -28.53109,-17.86476 -36.06445,-26.10184 -5.80253,-6.34457 -8.94351,-12.19363 -8.97772,-16.71808 -0.0312,-4.12832 6.04991,-9.63601 13.00845,-11.7818 13.80961,-4.25843 37.26992,-5.69417 64.40333,-3.9414 9.31356,0.60164 17.09575,0.93188 17.29377,0.73386 0.19801,-0.19801 -8.32217,-3.16345 -18.93374,-6.58986 -69.06322,-22.30006 -89.09107,-37.5316 -82.39884,-62.66577 5.52813,-20.76216 24.18459,-33.35489 56.10507,-37.86979 29.40653,-4.15932 44.19024,-14.0281 47.54949,-31.74138 C 377.5674,96.18919 360.26345,78.536408 341.9641,82.006808 327.58093,84.734521 316.67197,94.75914 305.51626,115.5 c -9.80686,18.23305 -16.49752,25.89746 -27.16199,31.1151 -4.38605,2.1459 -6.34902,2.54378 -10.55572,2.13956 -4.42098,-0.4248 -5.6982,-1.06526 -8.83897,-4.43233 -6.57235,-7.04591 -10.20609,-19.93889 -12.06898,-42.82233 -1.0482,-12.87602 -0.91333,-25.572976 0.6055,-57 l 0.53161,-11 -6.0154,23.5 c -9.3588,36.561476 -16.28361,55.08141 -24.74345,66.17468 -7.78097,10.20309 -21.24633,16.11009 -31.86339,13.97788 -7.96335,-1.59927 -18.18838,-7.04238 -24.15149,-12.85661 C 155.02369,118.22121 148.93079,106.29959 143.98154,90.5 134.34871,59.748922 132.87264,56.092753 125.3311,44.303416 114.23395,26.955785 102.5025,21.452658 87.478792,26.547209 66.729538,33.583297 64.659147,53.715507 82.469441,75.257486 c 6.796042,8.219977 12.661886,12.905701 29.142759,23.279669 8.66898,5.456735 15.56921,10.795375 21.92461,16.962845 8.60241,8.34803 9.42597,9.4966 11.36872,15.85534 4.52127,14.7984 1.98903,22.42388 -8.1907,24.66508 -9.76023,2.14884 -26.61547,-3.39028 -43.445086,-14.2773 -8.674328,-5.6114 -12.46962,-10.3173 -19.816761,-24.57145 C 64.148286,99.119677 57.049803,93.524734 43.5,93.563072 c -9.130019,0.02583 -14.557835,2.859226 -17.628463,9.202298 -3.923768,8.10542 -0.977619,23.29184 5.932077,30.57788 4.678895,4.93373 11.217983,7.49448 24.633603,9.64668 14.823894,2.37812 19.836774,4.1346 29.134363,10.20853 13.776481,8.9999 25.38049,20.91791 30.52189,31.34782 8.75085,17.75206 4.69858,37.40368 -11.90207,57.71948 -14.194163,17.37077 -24.731204,24.04241 -44.48143,28.16392 -13.66398,2.85142 -20.765758,5.81905 -26.652398,11.13727 -10.422803,9.41638 -11.604468,22.98592 -2.866149,32.91318 8.627826,9.80173 18.36097,11.57893 28.080699,5.12734 7.616194,-5.05534 12.085095,-10.17655 22.170297,-25.40642 8.888701,-13.42301 17.29401,-22.4245 23.839701,-25.53063 13.0152,-6.17612 28.86881,0.48044 31.61239,13.27331 2.38272,11.11023 0.98644,27.59604 -3.94634,46.59416 -2.71092,10.44088 -10.50825,32.65388 -13.5715,38.66245 -3.03124,5.94577 -1.08644,4.87725 3.87333,-2.12811 11.47503,-16.20777 29.44438,-40.02529 36.3286,-48.15182 9.175,-10.83073 21.55168,-22.42949 26.84671,-25.15932 5.27481,-2.7194 11.91177,-2.6501 17.46386,0.18237 8.43779,4.30464 19.68482,19.01855 27.19047,35.57191 1.67093,3.68515 3.23998,6.49835 3.48678,6.25155 0.2468,-0.24681 -0.22535,-6.48283 -1.04922,-13.85783 -2.59416,-23.22196 -1.85193,-33.4403 2.73128,-37.60211 3.2215,-2.9253 6.51044,-3.41508 12.92298,-1.92443 6.8864,1.60079 11.77053,4.40585 23.62874,13.57048 13.61146,10.51963 18.67829,18.15376 26.91133,40.54697 7.74547,21.06704 15.62946,32.01987 26.69484,37.08577 8.73167,3.99749 15.38779,4.98909 22.49368,3.35103 z" />
</svg>
