<?xml version="1.0" encoding="UTF-8" standalone="no"?>
<!-- Created with Inkscape (http://www.inkscape.org/) -->

<svg
   xmlns:dc="http://purl.org/dc/elements/1.1/"
   xmlns:cc="http://creativecommons.org/ns#"
   xmlns:rdf="http://www.w3.org/1999/02/22-rdf-syntax-ns#"
   xmlns:svg="http://www.w3.org/2000/svg"
   xmlns="http://www.w3.org/2000/svg"
   version="1.1"
   width="512"
   height="512"
   id="svg2">
  <metadata
     id="metadata8">
    <rdf:RDF>
      <cc:Work
         rdf:about="">
        <dc:format>image/svg+xml</dc:format>
        <dc:type
           rdf:resource="http://purl.org/dc/dcmitype/StillImage" />
        <dc:title></dc:title>
      </cc:Work>
    </rdf:RDF>
  </metadata>
  <defs
     id="defs6" />
  <path
     d="m 0,0 512,0 0,512 -512,0 z"
     id="rect3020"
     style="fill:#000000" />
  <path
     d="m 248.96,350.20065 c -22.05516,-5.45047 -37.76,-25.26718 -37.76,-47.6464 l 0,-6.74109 -3.91713,1.36552 c -2.15443,0.75104 -7.00889,1.10913 -10.78768,0.79576 -22.16371,-1.83799 -28.67052,-30.45631 -9.85591,-43.34829 3.51318,-2.40727 6.16,-3.06761 12.36387,-3.08457 10.12141,-0.0277 16.95648,4.1016 21.15899,12.78281 l 2.87227,5.93333 3.62459,-3.47257 3.62458,-3.47257 4.58275,4.0237 c 2.97761,2.61438 5.93859,4.02371 8.45375,4.02371 2.35242,0 3.54845,0.52189 3.04879,1.33035 -1.05131,1.70109 -1.06813,11.84617 -0.0251,15.13256 0.65239,2.0555 0.0326,2.67101 -3.41334,3.38995 -12.35347,2.57731 -18.37288,14.44304 -13.03418,25.69352 6.58895,13.88518 27.67586,11.96221 32.60504,-2.97335 0.79227,-2.40059 1.18315,-5.71084 0.86865,-7.3561 -0.51979,-2.71902 -0.20701,-2.93217 3.43534,-2.3411 10.1222,1.64261 21.88742,-5.50083 25.75977,-15.64045 6.3486,-16.62357 -5.55174,-32.89413 -24.23688,-33.13753 -7.40877,-0.0965 -7.53166,-0.15869 -8.96,-4.53352 -1.85712,-5.68825 -8.55139,-10.28433 -14.97925,-10.28433 -5.24895,0 -11.93693,4.51121 -13.36676,9.01622 -1.07711,3.39367 -2.00505,3.17949 -6.88186,-1.5885 -6.5786,-6.4318 -9.53818,-13.31936 -9.51688,-22.14772 0.0323,-13.38334 5.86682,-22.71686 17.69658,-28.30939 14.45778,-6.83492 30.14355,-2.32244 39.36,11.32305 4.58263,6.78485 4.44289,8.24637 -1.00607,10.52309 -6.38478,2.66774 -9.06649,9.12861 -6.41902,15.46489 3.44897,8.25456 14.61503,9.84825 20.33219,2.90195 1.67347,-2.03327 2.22226,-4.42124 1.91214,-8.32049 -0.49663,-6.24425 0.19521,-6.7831 8.70902,-6.7831 8.90515,0 17.7264,5.40861 21.92009,13.44 2.61341,5.00498 2.5831,16.80682 -0.0562,21.89 -2.80134,5.39516 -10.1102,11.59776 -14.90804,12.65153 l -3.94607,0.86671 2.51878,3.20211 c 6.34413,8.06526 9.9653,24.89141 7.78546,36.176 -3.93226,20.35651 -18.46144,35.42948 -38.18524,39.61444 -8.3289,1.76721 -13.09357,1.68694 -21.377,-0.36013 z m 196.35206,129.71844 c 8.13314,-1.87485 12.82029,-5.7746 16.43787,-13.67643 4.22069,-9.21921 3.66634,-18.8544 -1.68704,-29.32208 -5.32206,-10.40645 -17.49977,-20.16203 -47.8208,-38.30929 -28.45877,-17.03268 -36.5198,-22.86689 -46.1625,-33.41035 -7.42724,-8.12105 -11.44769,-15.60785 -11.49148,-21.39915 -0.0399,-5.28425 7.74388,-12.33409 16.65081,-15.0807 17.67631,-5.45079 47.7055,-7.28854 82.43627,-5.04499 11.92135,0.7701 21.88256,1.1928 22.13602,0.93934 0.25346,-0.25345 -10.65237,-4.04922 -24.23518,-8.43502 -88.40093,-28.54408 -114.03657,-48.04045 -105.47052,-80.21219 7.07601,-26.57556 30.95628,-42.69426 71.81449,-48.47333 37.64036,-5.32393 56.56351,-17.95597 60.86335,-40.62896 4.50292,-23.74379 -17.64613,-46.33935 -41.0693,-41.89724 -18.41046,3.49148 -32.37393,16.32299 -46.65324,42.87129 -12.55278,23.3383 -21.11682,33.14875 -34.76734,39.82733 -5.61415,2.74675 -8.12675,3.25604 -13.51133,2.73863 -5.65885,-0.54374 -7.29369,-1.36353 -11.31388,-5.67338 -8.41261,-9.01876 -13.06379,-25.52178 -15.44829,-54.81258 -1.3417,-16.48131 -1.16906,-32.73341 0.77504,-72.96 l 0.68046,-14.08 -7.69971,30.08 c -11.97927,46.79869 -20.84302,70.5042 -31.67162,84.70359 -9.95964,13.05996 -27.1953,20.62092 -40.78514,17.89169 -10.19309,-2.04707 -23.28112,-9.01425 -30.91391,-16.45646 -7.97477,-7.77567 -15.77368,-23.03534 -22.10872,-43.25882 C 171.96635,76.47861 170.07698,71.798714 160.42381,56.708362 146.21946,34.503395 131.2032,27.459392 111.97285,33.980418 85.413809,42.98661 82.763708,68.755839 105.56088,96.329572 c 8.69894,10.521568 16.20722,16.519298 37.30274,29.797978 11.09629,6.98462 19.92858,13.81808 28.0635,21.71244 11.01108,10.68548 12.06524,12.15565 14.55196,20.29483 5.78722,18.94196 2.54596,28.70257 -10.4841,31.57131 -12.49309,2.75051 -34.0678,-4.33956 -55.60971,-18.27495 C 108.28213,174.24859 103.42416,168.22504 94.019818,149.97973 82.109806,126.87318 73.023748,119.71165 55.68,119.76072 c -11.686424,0.0331 -18.634029,3.65981 -22.564433,11.77894 -5.022423,10.37494 -1.251352,29.81356 7.593059,39.13969 5.988986,6.31517 14.359018,9.59293 31.531012,12.34775 18.974584,3.04399 25.39107,5.29229 37.291982,13.06692 17.6339,11.51987 32.48703,26.77492 39.06802,40.12521 11.20109,22.72263 6.01418,47.87671 -15.23465,73.88093 -18.16853,22.23459 -31.65594,30.77429 -56.936228,36.04982 -17.489895,3.64982 -26.580171,7.44838 -34.11507,14.2557 -13.341188,12.05297 -14.853719,29.42198 -3.668671,42.12887 11.043618,12.54622 23.502042,14.82103 35.943295,6.563 9.748728,-6.47084 15.468922,-13.02598 28.377984,-32.52022 11.37753,-17.18145 22.13633,-28.70336 30.51481,-32.6792 16.65946,-7.90544 36.95208,0.61496 40.46386,16.98983 3.04988,14.2211 1.26265,35.32293 -5.05131,59.64053 -3.46998,13.36432 -13.45056,41.79696 -17.37152,49.48793 -3.87999,7.61059 -1.39065,6.24288 4.95786,-2.72398 14.68804,-20.74594 37.68881,-51.23237 46.50061,-61.63433 11.744,-13.86333 27.58615,-28.70974 34.36379,-32.20393 6.75175,-3.48083 15.24706,-3.39212 22.35374,0.23344 10.80037,5.50994 25.19657,24.34374 34.8038,45.53204 2.13879,4.71699 4.14717,8.31789 4.46308,8.00199 0.3159,-0.31592 -0.28845,-8.29803 -1.343,-17.73803 -3.32053,-29.72411 -2.37047,-42.80358 3.49603,-48.1307 4.12352,-3.74438 8.33337,-4.3713 16.54142,-2.46327 8.81459,2.04901 15.06628,5.63949 30.24479,17.37022 17.42266,13.46512 23.90821,23.23681 34.4465,51.90012 9.9142,26.96581 20.00571,40.98543 34.16939,47.46978 11.17654,5.11679 19.69637,6.38604 28.79191,4.28932 z"
     id="path2989"
     style="fill:#ffffff" />
</svg>
