<?xml version="1.0" encoding="UTF-8" standalone="no"?>
<!-- Created with Inkscape (http://www.inkscape.org/) -->

<svg
   xmlns:dc="http://purl.org/dc/elements/1.1/"
   xmlns:cc="http://creativecommons.org/ns#"
   xmlns:rdf="http://www.w3.org/1999/02/22-rdf-syntax-ns#"
   xmlns:svg="http://www.w3.org/2000/svg"
   xmlns="http://www.w3.org/2000/svg"
   xmlns:sodipodi="http://sodipodi.sourceforge.net/DTD/sodipodi-0.dtd"
   xmlns:inkscape="http://www.inkscape.org/namespaces/inkscape"
   id="svg2"
   version="1.1"
   inkscape:version="0.48.3.1 r9886"
   width="400"
   height="400"
   sodipodi:docname="Icon.1_18.png">
  <metadata
     id="metadata8">
    <rdf:RDF>
      <cc:Work
         rdf:about="">
        <dc:format>image/svg+xml</dc:format>
        <dc:type
           rdf:resource="http://purl.org/dc/dcmitype/StillImage" />
        <dc:title></dc:title>
      </cc:Work>
    </rdf:RDF>
  </metadata>
  <defs
     id="defs6" />
  <sodipodi:namedview
     pagecolor="#ffffff"
     bordercolor="#666666"
     borderopacity="1"
     objecttolerance="10"
     gridtolerance="10"
     guidetolerance="10"
     inkscape:pageopacity="0"
     inkscape:pageshadow="2"
     inkscape:window-width="1855"
     inkscape:window-height="1056"
     id="namedview4"
     showgrid="false"
     inkscape:zoom="0.59"
     inkscape:cx="200"
     inkscape:cy="200"
     inkscape:window-x="65"
     inkscape:window-y="24"
     inkscape:window-maximized="1"
     inkscape:current-layer="svg2" />
  <path
     style="fill:#000000"
     d="m 0,0 400,0 0,400 -400,0 z"
     id="rect3020" />
  <path
     id="path2989"
     style="fill:#ffffff"
     d="m 265,329.36276 c -2.475,-1.94389 -4.59266,-3.62591 -4.70592,-3.73781 -0.45667,-0.45121 16.81832,-21.93914 25.89876,-32.21482 14.17323,-16.03882 40.81555,-39.01671 42.67074,-36.80172 2.51689,3.00502 6.13642,8.39148 6.13642,9.132 0,0.48062 -3.0375,3.09814 -6.75,5.81672 -13.50765,9.89134 -37.56085,34.8491 -52.23971,54.20427 -3.01935,3.98123 -5.71935,7.21545 -6,7.18716 -0.28066,-0.0283 -2.53529,-1.64191 -5.01029,-3.5858 z m 32.13481,32.64548 c 30.20486,-10.11956 58.63144,-38.80341 67.7504,-68.36358 C 366.04834,289.87423 367,285.68079 367,284.32591 367,281.30734 353.76079,263.74568 337.7303,245.5 315.90257,220.65596 290.06953,197.69639 263.07086,179.1451 l -9.94267,-6.8318 3.51433,-4.90665 c 1.93288,-2.69866 3.9692,-4.78076 4.52515,-4.6269 5.03952,1.39471 35.74898,24.99864 54.89924,42.1967 4.44868,3.99517 6.9798,5.71922 6.60655,4.5 C 322.34067,208.3894 315.07283,178.475 306.5227,143 297.97257,107.525 290.73015,77.83026 290.42844,77.01169 c -0.40498,-1.098757 -21.0002,47.16845 -28.73717,67.34878 -0.55953,1.45943 -7.41841,-7.37863 -31.8185,-41 C 212.7649,79.787214 197.91985,59.6125 196.88378,58.527778 c -1.85045,-1.937325 -1.88404,-1.778076 -1.8987,9 -0.0217,15.995122 -1.93838,77.758852 -2.42819,78.248662 -0.22959,0.22959 -34.72604,-24.82396 -76.65878,-55.674553 C 73.965373,59.251294 39.471017,34.19565 39.243988,34.422679 39.016959,34.649707 62.424646,68.05998 91.26107,108.66773 L 143.69093,182.5 111.59547,183.25642 C 93.94296,183.67245 74.325,184.34745 68,184.75642 L 56.5,185.5 l 45.89804,38.45065 c 41.32407,34.61885 45.65906,38.52698 43.5,39.21651 -1.31892,0.42122 -17.02304,3.52207 -34.89804,6.89077 -30.806514,5.80576 -33.914269,6.49168 -32.916667,7.2651 0.229167,0.17767 30.417297,10.52765 67.084727,22.99994 36.66743,12.4723 67.49243,22.99186 68.5,23.37681 1.00757,0.38494 -3.74004,-5.35253 -10.55024,-12.74994 -17.47573,-18.9826 -39.19414,-45.977 -39.07882,-48.57215 0.036,-0.80981 8.32635,-7.37769 9.31255,-7.37769 0.23959,0 4.0347,4.8375 8.43356,10.75 22.45159,30.17711 55.14336,62.74927 85.21489,84.90312 17.26458,12.7189 19.4922,14.28587 20.3525,14.31651 0.46887,0.0167 4.87091,-1.31592 9.78231,-2.96139 z" />
</svg>
