<?xml version="1.0" encoding="UTF-8" standalone="no"?>
<!-- Created with Inkscape (http://www.inkscape.org/) -->

<svg
   xmlns:dc="http://purl.org/dc/elements/1.1/"
   xmlns:cc="http://creativecommons.org/ns#"
   xmlns:rdf="http://www.w3.org/1999/02/22-rdf-syntax-ns#"
   xmlns:svg="http://www.w3.org/2000/svg"
   xmlns="http://www.w3.org/2000/svg"
   xmlns:sodipodi="http://sodipodi.sourceforge.net/DTD/sodipodi-0.dtd"
   xmlns:inkscape="http://www.inkscape.org/namespaces/inkscape"
   id="svg2"
   version="1.1"
   inkscape:version="0.48.3.1 r9886"
   width="400"
   height="400"
   sodipodi:docname="1.svg">
  <metadata
     id="metadata8">
    <rdf:RDF>
      <cc:Work
         rdf:about="">
        <dc:format>image/svg+xml</dc:format>
        <dc:type
           rdf:resource="http://purl.org/dc/dcmitype/StillImage" />
        <dc:title />
      </cc:Work>
    </rdf:RDF>
  </metadata>
  <defs
     id="defs6" />
  <sodipodi:namedview
     pagecolor="#ffffff"
     bordercolor="#666666"
     borderopacity="1"
     objecttolerance="10"
     gridtolerance="10"
     guidetolerance="10"
     inkscape:pageopacity="0"
     inkscape:pageshadow="2"
     inkscape:window-width="1855"
     inkscape:window-height="1056"
     id="namedview4"
     showgrid="false"
     inkscape:zoom="0.59"
     inkscape:cx="200"
     inkscape:cy="200"
     inkscape:window-x="65"
     inkscape:window-y="24"
     inkscape:window-maximized="1"
     inkscape:current-layer="svg2" />
  <path
     style="fill:#000000"
     d="m 0,0 400,0 0,400 -400,0 z"
     id="rect3020" />
  <path
     id="path2989"
     style="fill:#ffffff"
     d="m 332.78847,137.81664 c -1.94389,2.475 -3.62591,4.59266 -3.73781,4.70592 -0.45121,0.45667 -21.93914,-16.81832 -32.21482,-25.89876 -16.03882,-14.17323 -39.01671,-40.815548 -36.80172,-42.670738 3.00502,-2.51689 8.39148,-6.13642 9.132,-6.13642 0.48062,0 3.09814,3.0375 5.81672,6.75 9.89134,13.50765 34.8491,37.560848 54.20427,52.239708 3.98123,3.01935 7.21545,5.71935 7.18716,6 -0.0283,0.28066 -1.64191,2.53529 -3.5858,5.01029 z m 32.64548,-32.13481 C 355.31439,75.476972 326.63054,47.050392 297.07037,37.931432 c -3.77043,-1.16313 -7.96387,-2.11479 -9.31875,-2.11479 -3.01857,0 -20.58023,13.23921 -38.82591,29.2697 -24.84404,21.82773 -47.80361,47.660768 -66.3549,74.659438 l -6.8318,9.94267 -4.90665,-3.51433 c -2.69866,-1.93288 -4.78076,-3.9692 -4.6269,-4.52515 1.39471,-5.03952 24.99864,-35.74898 42.1967,-54.899238 3.99517,-4.44868 5.71922,-6.9798 4.5,-6.60655 -1.08705,0.33279 -31.00145,7.60063 -66.47645,16.15076 -35.475,8.550128 -65.169742,15.792548 -65.988312,16.094258 -1.098757,0.40498 47.168452,21.0002 67.348782,28.73717 1.45943,0.55953 -7.37863,7.41841 -41,31.8185 -23.573258,17.10787 -43.747972,31.95292 -44.832694,32.98899 -1.937325,1.85045 -1.778076,1.88404 9,1.8987 15.995122,0.0217 77.758854,1.93838 78.248664,2.42819 0.22959,0.22959 -24.82396,34.72604 -55.674555,76.65878 -30.850593,41.93274 -55.906237,76.42709 -55.679208,76.65412 0.227028,0.22703 33.637301,-23.18065 74.245053,-52.01708 l 73.83227,-52.42986 0.75642,32.09546 c 0.41603,17.65251 1.09103,37.27047 1.5,43.59547 l 0.74358,11.5 38.45065,-45.89804 c 34.61885,-41.32407 38.52698,-45.65906 39.21651,-43.5 0.42122,1.31892 3.52207,17.02304 6.89077,34.89804 5.80576,30.80652 6.49168,33.91427 7.2651,32.91667 0.17767,-0.22917 10.52765,-30.4173 22.99994,-67.08473 12.4723,-36.66743 22.99186,-67.49243 23.37681,-68.5 0.38494,-1.00757 -5.35253,3.74004 -12.74994,10.55024 -18.9826,17.47573 -45.977,39.19414 -48.57215,39.07882 -0.80981,-0.036 -7.37769,-8.32635 -7.37769,-9.31255 0,-0.23959 4.8375,-4.0347 10.75,-8.43356 30.17711,-22.45159 62.74927,-55.14336 84.90312,-85.21489 12.7189,-17.26458 14.28587,-19.4922 14.31651,-20.3525 0.0167,-0.46887 -1.31592,-4.87091 -2.96139,-9.78231 z"
     inkscape:connector-curvature="0" />
</svg>
