<?xml version="1.0" encoding="UTF-8" standalone="no"?>
<!-- Created with Inkscape (http://www.inkscape.org/) -->

<svg
   xmlns:dc="http://purl.org/dc/elements/1.1/"
   xmlns:cc="http://creativecommons.org/ns#"
   xmlns:rdf="http://www.w3.org/1999/02/22-rdf-syntax-ns#"
   xmlns:svg="http://www.w3.org/2000/svg"
   xmlns="http://www.w3.org/2000/svg"
   xmlns:sodipodi="http://sodipodi.sourceforge.net/DTD/sodipodi-0.dtd"
   xmlns:inkscape="http://www.inkscape.org/namespaces/inkscape"
   id="svg2"
   version="1.1"
   inkscape:version="0.48.3.1 r9886"
   width="400"
   height="400"
   sodipodi:docname="Icon.4_78.png">
  <metadata
     id="metadata8">
    <rdf:RDF>
      <cc:Work
         rdf:about="">
        <dc:format>image/svg+xml</dc:format>
        <dc:type
           rdf:resource="http://purl.org/dc/dcmitype/StillImage" />
        <dc:title></dc:title>
      </cc:Work>
    </rdf:RDF>
  </metadata>
  <defs
     id="defs6" />
  <sodipodi:namedview
     pagecolor="#ffffff"
     bordercolor="#666666"
     borderopacity="1"
     objecttolerance="10"
     gridtolerance="10"
     guidetolerance="10"
     inkscape:pageopacity="0"
     inkscape:pageshadow="2"
     inkscape:window-width="1855"
     inkscape:window-height="1056"
     id="namedview4"
     showgrid="false"
     inkscape:zoom="0.59"
     inkscape:cx="200"
     inkscape:cy="200"
     inkscape:window-x="65"
     inkscape:window-y="24"
     inkscape:window-maximized="1"
     inkscape:current-layer="svg2" />
  <path
     style="fill:#000000"
     d="m 0,0 400,0 0,400 -400,0 z"
     id="rect3020" />
  <path
     id="path2989"
     style="fill:#ffffff"
     d="M 262.37453,354.90924 C 253.90392,353.493 240.38528,348.084 232.57745,342.98699 209.54838,327.95345 195.92655,302.7761 196.06464,275.5 c 0.0278,-5.5 0.36547,-11.77326 0.75029,-13.94058 l 0.69968,-3.94057 1.72159,5.46152 c 4.78617,15.18349 19.45835,28.00792 36.51488,31.91636 6.42304,1.47182 19.54319,1.52772 28.12499,0.11983 21.79633,-3.57581 38.66349,-23.25792 34.18493,-39.89004 -2.18035,-8.0972 -9.68993,-14.07915 -19.70581,-15.69719 -9.40874,-1.51996 -24.67254,3.97572 -32.87745,11.83741 l -4.32548,4.14454 -0.57613,-2.88064 c -0.87276,-4.36378 -0.69137,-12.74999 0.40027,-18.50618 2.48702,-13.114 12.91344,-26.51157 25.39181,-32.62752 21.4821,-10.5289 46.11022,-4.17706 67.65759,17.44958 8.76748,8.79973 14.83368,18.71384 19.30681,31.55348 2.97019,8.5256 3.1363,9.79067 3.15143,24 0.0183,17.16266 -1.19723,23.12057 -7.34445,36 -10.62007,22.25074 -31.99691,38.91136 -56.34743,43.91588 -8.19565,1.68438 -21.95894,1.90761 -30.41763,0.49336 z m 15.32425,16.55608 c 6.49067,-0.84407 15.53936,-2.41672 20.1082,-3.49478 33.49334,-7.90304 59.16874,-31.77673 69.53922,-64.65947 3.6077,-11.43932 4.63994,-20.42567 5.31962,-46.31107 0.87613,-33.36685 -1.67049,-58.77791 -10.19911,-101.77014 C 357.30648,129.21745 347.00622,87 345.81992,87 c -0.45096,0 -0.82383,4.6125 -0.82861,10.25 -0.0106,12.5046 -2.21154,31.31832 -4.99829,42.72568 -5.52129,22.60097 -16.82978,34.62552 -30.6189,32.55771 C 300.76539,171.24244 293.18802,166.35726 281.5,154.5628 269.35754,142.30976 262.5461,133.25723 250.6856,113.60993 243.21263,101.23072 223,61.422107 223,59.083371 223,58.487517 222.62552,58 222.16782,58 c -0.4577,0 0.6301,5.343655 2.41732,11.874789 9.60317,35.093271 8.33241,57.857141 -3.67333,65.802331 -12.06111,7.98184 -36.68557,1.61719 -70.65449,-18.26198 C 122.64718,101.25724 78.610435,68.643714 41,36.499384 35.775,32.033758 30.825,27.974454 30,27.478708 28.036791,26.299008 28.455803,26.928435 44.992515,50 c 64.044935,89.35372 87.454425,138.41914 75.872625,159.02616 -8.22071,14.62679 -34.293507,16.07149 -79.786805,4.42102 -7.381915,-1.89045 -13.586423,-3.27243 -13.787795,-3.07105 -0.201371,0.20137 6.063378,3.18449 13.921665,6.62916 62.076915,27.21134 102.522905,59.05986 106.304705,83.70786 1.04849,6.83353 -1.67592,14.28797 -7.2643,19.87635 C 129.18668,331.65543 106.4091,338.32814 72,340.58414 c -7.152518,0.46895 -9.862384,0.95808 -8.5,1.53423 3.151183,1.33263 48.28577,12.37452 66.5,16.2688 29.62179,6.33327 60.88281,11.33202 84.5,13.51185 15.91359,1.4688 50.3884,1.23222 63.19878,-0.4337 z" />
</svg>
