<?xml version="1.0" encoding="UTF-8" standalone="no"?>
<!-- Created with Inkscape (http://www.inkscape.org/) -->

<svg
   xmlns:dc="http://purl.org/dc/elements/1.1/"
   xmlns:cc="http://creativecommons.org/ns#"
   xmlns:rdf="http://www.w3.org/1999/02/22-rdf-syntax-ns#"
   xmlns:svg="http://www.w3.org/2000/svg"
   xmlns="http://www.w3.org/2000/svg"
   xmlns:sodipodi="http://sodipodi.sourceforge.net/DTD/sodipodi-0.dtd"
   xmlns:inkscape="http://www.inkscape.org/namespaces/inkscape"
   id="svg2"
   version="1.1"
   inkscape:version="0.48.3.1 r9886"
   width="400"
   height="400"
   sodipodi:docname="2.svg">
  <metadata
     id="metadata8">
    <rdf:RDF>
      <cc:Work
         rdf:about="">
        <dc:format>image/svg+xml</dc:format>
        <dc:type
           rdf:resource="http://purl.org/dc/dcmitype/StillImage" />
        <dc:title />
      </cc:Work>
    </rdf:RDF>
  </metadata>
  <defs
     id="defs6" />
  <sodipodi:namedview
     pagecolor="#ffffff"
     bordercolor="#666666"
     borderopacity="1"
     objecttolerance="10"
     gridtolerance="10"
     guidetolerance="10"
     inkscape:pageopacity="0"
     inkscape:pageshadow="2"
     inkscape:window-width="1855"
     inkscape:window-height="1056"
     id="namedview4"
     showgrid="false"
     inkscape:zoom="0.59"
     inkscape:cx="200"
     inkscape:cy="200"
     inkscape:window-x="65"
     inkscape:window-y="24"
     inkscape:window-maximized="1"
     inkscape:current-layer="svg2" />
  <path
     style="fill:#000000"
     d="m 0,0 400,0 0,400 -400,0 z"
     id="rect3020" />
  <path
     id="path2989"
     style="fill:#ffffff"
     d="m 354.96354,137.68599 c -1.41624,8.47061 -6.82524,21.98925 -11.92225,29.79708 -15.03354,23.02907 -40.21089,36.6509 -67.48699,36.51281 -5.5,-0.0278 -11.77326,-0.36547 -13.94058,-0.75029 l -3.94057,-0.69968 5.46152,-1.72159 c 15.18349,-4.78617 28.00792,-19.45835 31.91636,-36.51488 1.47182,-6.42304 1.52772,-19.54319 0.11983,-28.12499 -3.57581,-21.79633 -23.25792,-38.663486 -39.89004,-34.18493 -8.0972,2.18035 -14.07915,9.68993 -15.69719,19.70581 -1.51996,9.40874 3.97572,24.67254 11.83741,32.87745 l 4.14454,4.32548 -2.88064,0.57613 c -4.36378,0.87276 -12.74999,0.69137 -18.50618,-0.40027 -13.114,-2.48702 -26.51157,-12.91344 -32.62752,-25.39181 -10.5289,-21.4821 -4.17706,-46.110216 17.44958,-67.657586 8.79973,-8.76748 18.71384,-14.83368 31.55348,-19.30681 8.5256,-2.97019 9.79067,-3.1363 24,-3.15143 17.16266,-0.0183 23.12057,1.19723 36,7.34445 22.25074,10.62007 38.91136,31.99691 43.91588,56.347426 1.68438,8.19565 1.90761,21.95894 0.49336,30.41763 z m 16.55608,-15.32425 c -0.84407,-6.49067 -2.41672,-15.53936 -3.49478,-20.1082 -7.90304,-33.493336 -31.77673,-59.168736 -64.65947,-69.539216 -11.43932,-3.6077 -20.42567,-4.63994 -46.31107,-5.31962 -33.36685,-0.87613 -58.77791,1.67049 -101.77014,10.19911 -26.01241,5.16023 -68.229861,15.46049 -68.229861,16.64679 0,0.45096 4.6125,0.82383 10.25,0.82861 12.504601,0.0106 31.318321,2.21154 42.725681,4.99829 22.60097,5.52129 34.62552,16.82978 32.55771,30.6189 -1.29095,8.60873 -6.17613,16.186096 -17.97059,27.874116 -12.25304,12.14246 -21.30557,18.9539 -40.95287,30.8144 -12.37921,7.47297 -52.187824,27.6856 -54.52656,27.6856 -0.595854,0 -1.083371,0.37448 -1.083371,0.83218 0,0.4577 5.343655,-0.6301 11.874789,-2.41732 35.093272,-9.60317 57.857142,-8.33241 65.802332,3.67333 7.98184,12.06111 1.61719,36.68557 -18.26198,70.65449 -16.1579,27.61014 -48.771427,71.64689 -80.915757,109.25732 -4.465626,5.225 -8.52493,10.175 -9.020676,11 -1.1797,1.96321 -0.550273,1.5442 22.521292,-14.99251 89.353721,-64.04494 138.419141,-87.45443 159.026161,-75.87263 14.62679,8.22071 16.07149,34.29351 4.42102,79.78681 -1.89045,7.38191 -3.27243,13.58642 -3.07105,13.78779 0.20137,0.20138 3.18449,-6.06337 6.62916,-13.92166 27.21134,-62.07692 59.05986,-102.52291 83.70786,-106.30471 6.83353,-1.04849 14.28797,1.67592 19.87635,7.2643 11.06593,11.06593 17.73864,33.84351 19.99464,68.25261 0.46895,7.15252 0.95808,9.86239 1.53423,8.5 1.33263,-3.15118 12.37452,-48.28577 16.2688,-66.5 6.33327,-29.62179 11.33202,-60.88281 13.51185,-84.5 1.4688,-15.91359 1.23222,-50.3884 -0.4337,-63.19878 z"
     inkscape:connector-curvature="0" />
</svg>
