<?xml version="1.0" encoding="UTF-8" standalone="no"?>
<!-- Created with Inkscape (http://www.inkscape.org/) -->

<svg
   xmlns:dc="http://purl.org/dc/elements/1.1/"
   xmlns:cc="http://creativecommons.org/ns#"
   xmlns:rdf="http://www.w3.org/1999/02/22-rdf-syntax-ns#"
   xmlns:svg="http://www.w3.org/2000/svg"
   xmlns="http://www.w3.org/2000/svg"
   xmlns:sodipodi="http://sodipodi.sourceforge.net/DTD/sodipodi-0.dtd"
   xmlns:inkscape="http://www.inkscape.org/namespaces/inkscape"
   id="svg2"
   version="1.1"
   inkscape:version="0.48.3.1 r9886"
   width="400"
   height="400"
   sodipodi:docname="Icon.5_30.png">
  <metadata
     id="metadata8">
    <rdf:RDF>
      <cc:Work
         rdf:about="">
        <dc:format>image/svg+xml</dc:format>
        <dc:type
           rdf:resource="http://purl.org/dc/dcmitype/StillImage" />
        <dc:title></dc:title>
      </cc:Work>
    </rdf:RDF>
  </metadata>
  <defs
     id="defs6" />
  <sodipodi:namedview
     pagecolor="#ffffff"
     bordercolor="#666666"
     borderopacity="1"
     objecttolerance="10"
     gridtolerance="10"
     guidetolerance="10"
     inkscape:pageopacity="0"
     inkscape:pageshadow="2"
     inkscape:window-width="1855"
     inkscape:window-height="1056"
     id="namedview4"
     showgrid="false"
     inkscape:zoom="0.59"
     inkscape:cx="200"
     inkscape:cy="200"
     inkscape:window-x="65"
     inkscape:window-y="24"
     inkscape:window-maximized="1"
     inkscape:current-layer="svg2" />
  <path
     style="fill:#000000"
     d="m 0,0 400,0 0,400 -400,0 z"
     id="rect3020" />
  <path
     id="path2989"
     style="fill:#ffffff"
     d="m 324.57537,292.39721 c 7.79177,-3.69743 13.2251,-13.39262 12.12053,-21.62776 -0.78846,-5.8784 -5.13878,-12.35865 -10.34473,-15.40954 -8.51126,-4.98793 -20.298,-2.96554 -26.63944,4.57084 -8.70065,10.34013 -4.78269,26.73651 7.78827,32.59328 4.06999,1.89619 12.95119,1.83023 17.07537,-0.12682 z m -85.012,78.9265 C 250.14523,367.71811 259,354.6708 259,342.68428 259,336.30025 254.89197,327.3281 246.56849,315.53323 239.3004,305.2339 237.01121,297.97879 236.30338,283 c -1.20941,-25.59262 4.91669,-49.68933 15.57104,-61.24794 5.27247,-5.71995 16.38014,-10.98674 24.41007,-11.57423 11.06256,-0.80935 17.24664,3.45029 25.72309,17.71826 4.84864,8.16147 8.04303,11.10391 12.0547,11.10391 5.95218,0 7.4222,-4.2058 11.53427,-33 3.6529,-25.57895 6.15877,-35.46124 12.98699,-51.21631 C 350.17617,128.03553 347.33149,103.19919 329.96079,79.5 286.60338,20.346614 169.93436,7.2757428 100.08583,53.746237 63.059584,78.379939 48.523529,114.56745 61.435153,149.9671 c 0.896128,2.45691 3.615325,7.85691 6.042658,12 6.109622,10.42821 10.937982,21.31956 15.495772,34.95387 5.938915,17.76586 8.166581,30.14061 8.745054,48.57903 0.607038,19.34893 -0.884765,27.04764 -8.526019,44 -8.927858,19.80673 -10.155043,26.81472 -6.145842,35.09663 6.537549,13.50477 19.74551,20.44179 30.424954,15.97963 4.51161,-1.88507 12.24506,-9.10079 14.50821,-13.53694 5.36126,-10.50893 4.90946,-14.83992 -3.70738,-35.53932 -7.58026,-18.20932 -9.61889,-28.18807 -9.70414,-47.5 -0.0787,-17.8225 1.2949,-23.62918 7.11277,-30.06888 5.13226,-5.68079 7.3534,-5.7694 22.61773,-0.90227 18.3461,5.84976 20.22145,6.72716 24.65166,11.53336 6.08496,6.6014 9.55324,14.51015 10.98271,25.04396 1.25341,9.23646 -0.18966,14.64936 -6.34743,23.809 -6.82104,10.14625 -7.76908,14.50917 -4.58293,21.09087 7.14865,14.76716 28.41249,13.19026 33.09982,-2.45464 1.72021,-5.74158 0.37507,-10.3142 -5.20157,-17.68196 -6.08216,-8.03564 -8.45158,-15.82942 -7.52051,-24.73736 1.13624,-10.87099 6.71095,-17.56254 15.29484,-18.35899 4.42064,-0.41017 5.1836,-0.13796 9.11447,3.25178 2.35949,2.03469 5.4413,5.97143 6.84846,8.74832 6.34286,12.51703 9.90556,37.68185 7.41863,52.40079 -1.25243,7.41253 -2.77807,10.41265 -12.39624,24.37692 -11.32553,16.44313 -11.55437,31.16098 -0.67284,43.27573 7.99717,8.90352 19.26543,11.85076 30.57538,7.99708 z" />
</svg>
