<?xml version="1.0" encoding="UTF-8" standalone="no"?>
<!-- Created with Inkscape (http://www.inkscape.org/) -->

<svg
   xmlns:dc="http://purl.org/dc/elements/1.1/"
   xmlns:cc="http://creativecommons.org/ns#"
   xmlns:rdf="http://www.w3.org/1999/02/22-rdf-syntax-ns#"
   xmlns:svg="http://www.w3.org/2000/svg"
   xmlns="http://www.w3.org/2000/svg"
   version="1.1"
   width="512"
   height="512"
   id="svg2">
  <metadata
     id="metadata8">
    <rdf:RDF>
      <cc:Work
         rdf:about="">
        <dc:format>image/svg+xml</dc:format>
        <dc:type
           rdf:resource="http://purl.org/dc/dcmitype/StillImage" />
        <dc:title></dc:title>
      </cc:Work>
    </rdf:RDF>
  </metadata>
  <defs
     id="defs6" />
  <rect
     width="512"
     height="512"
     x="0"
     y="0"
     id="rect3782"
     style="fill:#000000;fill-opacity:1;stroke:none" />
  <path
     d="M 380.3252,116.48597 C 361.74392,84.66955 334.39432,63.305743 321.37609,55.09775 301.01217,42.093532 273.2974,37.222404 257.28,37.121964 c -13.42074,-0.08917 -40.87525,6.438021 -56.96,14.503116 -15.28842,7.188735 -29.25743,19.546755 -39.23653,30.07106 -6.80526,6.062832 -11.6928,13.380171 -16.72332,20.86302 -7.31626,10.88289 -15.53121,26.45781 -20.40297,38.6825 C 121.71241,151.22478 115.2,161.08402 115.2,171.456 l 44.56678,-9.94993 c 45.72236,-10.20792 67.70553,-20.02412 84.87514,-27.23539 l 14.88192,-6.25043 17.11808,8.16957 c 42.1391,17.77595 78.69636,33.27487 124.28298,36.61018 -4.41524,-20.2523 -13.1071,-40.41683 -20.5997,-56.31403 z m -30.86411,162.64812 c -0.45434,-26.73097 0.49384,-52.49376 -0.12556,-76.9711 7.59803,0.27661 15.56467,-0.0138 22.12061,0.10957 -0.52973,26.23643 -0.66574,53.54559 -0.8962,76.12747 -7.64763,0.14277 -14.27263,0.74996 -21.09891,0.73409 z M 138.24,202.13231 c 6.61334,0.24924 13.22666,0.49846 19.84,0.74769 0.22604,25.38666 0.45206,50.77334 0.67809,76.16 -6.83936,0 -13.67873,0 -20.51809,0 0,-25.63589 0,-51.2718 0,-76.90769 z M 298.88,188.8 c 6.4,0 12.8,0 19.2,0 0,32.42666 0,64.85334 0,97.28 -6.62351,0.24941 -13.24701,0.49883 -19.87053,0.74824 0.22352,-32.67609 0.44703,-65.35216 0.67053,-98.02824 z m -107.52,0 c 6.4,0 12.8,0 19.2,0 0,32.42666 0,64.85334 0,97.28 -6.62351,0.24941 -13.24701,0.49883 -19.87053,0.74824 0.22352,-32.67609 0.44703,-65.35216 0.67053,-98.02824 z m 53.72796,110.45645 c -0.72513,-42.61497 -0.22361,-75.07423 0.032,-120.69645 6.62163,-0.24938 13.24327,-0.49875 19.8649,-0.74813 -0.22165,40.7827 -0.44327,81.56542 -0.6649,122.34813 -6.199,0.25097 -12.39801,0.50193 -18.59702,0.7529 z m 53.46652,11.0301 c 23.36064,-2.28743 44.6702,-4.49077 64.32552,-10.83956 16.09763,-5.19963 34.91208,-6.96603 49.33939,-16.11478 -4.53019,-14.95379 -7.28438,-29.0145 -7.6801,-43.8476 -0.62592,-23.46131 5.90266,-32.0085 6.34071,-44.62963 l -7.36,-0.8659 C 353.11759,188.0593 314.75972,177.31204 272.62218,157.31363 l -13.45783,-6.38706 -17.44372,6.99961 C 200.70225,174.38557 157.1044,186.09536 113.28,192.42359 l -11.52,1.66348 c 1.42392,16.13593 2.95626,26.63532 3.56029,43.98566 0.55235,15.86597 -2.80485,33.62214 -5.470163,45.85259 l 9.274933,3.82905 c 23.10092,9.53692 48.81185,16.25043 79.67494,20.80429 12.26513,2.50037 24.66726,2.99356 37.12,3.6385 l 19.2,0.99439 17.28,-0.52841 c 9.504,-0.29063 25.77352,-1.36009 36.15448,-2.37659 z M 174.42967,360 c -2.48297,-8.272 -5.7942,-19.33361 -7.35827,-24.58135 l -2.84378,-9.54135 -14.59382,-3.51918 c -8.02658,-1.93554 -15.35171,-3.41034 -16.18997,-3.45644 l 2.93116,5.89832 c 1.71691,3.45491 6.73076,10.65434 10.68162,16.24518 l 7.18339,10.16519 11.99209,11.91481 c 6.59566,6.55316 12.1541,11.91482 12.35209,11.91482 0.198,0 -1.67153,-6.768 -4.15451,-15.04 z m 163.28844,13.69979 c 1.87104,-1.44111 7.92162,-7.05711 13.44574,-12.48 l 10.04387,-9.85979 8.0087,-11.52 c 4.4048,-6.336 9.58779,-14.256 11.51778,-17.6 l 3.64464,-6.35118 c -9.8829,1.39521 -18.94274,4.67433 -28.85884,6.67076 -4.048,0.80406 -7.36,1.61258 -7.36,1.79672 0,0.29633 -13.0382,44.01293 -14.82979,49.7237 l -0.66883,2.54509 c 1.99173,-0.35472 3.79608,-1.96167 5.05673,-2.9253 z m -54.73526,26.24974 c 4.63256,-0.95863 11.67503,-2.95977 15.64994,-4.44696 l 7.2271,-2.70402 3.78062,-12.39927 C 317.64282,354.1542 325.12,329.18703 325.12,328.71149 c 0,-0.27314 -5.616,0.22571 -12.48,1.10859 -6.864,0.88287 -23.61533,2.23893 -37.22518,3.01348 l -24.74518,1.40826 -23.89482,-1.42929 c -13.14215,-0.78611 -27.51687,-1.87141 -31.94383,-2.41176 l -8.04901,-0.98248 c 3.90584,11.86124 6.79329,21.96065 9.67783,31.63812 l 8.55175,28.70359 2.10333,1.63251 c 1.15683,0.89788 7.40953,3.33224 13.89488,5.40968 l 11.79154,3.77718 9.99934,1.20476 9.99935,1.20476 10.88,-0.64819 c 5.984,-0.35652 14.67028,-1.43254 19.30285,-2.39117 z m -18.51006,76.37601 C 313.69578,450.84192 354.6009,434.22072 404.8,440.17549 c 4.05106,0.48055 7.36,0.70365 7.36,0.43991 0,-0.97087 -7.07196,-12.72728 -13.26721,-22.05537 -7.48712,-11.27325 -23.05842,-30.87135 -29.24004,-36.80166 l -4.33802,-4.16165 -6.97737,6.21806 c -3.83755,3.41991 -11.87336,9.55684 -17.85736,13.63762 -6.42633,5.27714 -13.65047,8.69385 -21.12,12.12937 -10.78502,4.96046 -23.05132,8.95408 -35.84,11.66865 -8.34167,2.4501 -16.54335,3.28209 -25.21649,3.54778 -8.67314,0.26568 -14.27829,-1.20684 -25.98351,-3.53827 -11.70522,-2.33143 -25.36975,-6.64204 -38.78392,-13.17665 -8.63474,-3.22157 -15.74459,-8.32634 -23.04,-13.75061 -5.42084,-4.03047 -13.10484,-10.30817 -17.07555,-13.95041 -3.9707,-3.64224 -7.521,-6.62226 -7.88955,-6.62226 -1.3308,0 -17.37231,20.07516 -24.23023,30.32292 -3.8584,5.76562 -9.43326,15.13058 -12.38856,20.81106 l -5.37328,10.32811 12.55054,-0.79712 c 45.64754,-1.54974 105.61273,14.18185 134.75027,42.33348 1.99216,1.78093 4.08011,3.46688 5.88417,4.52155 1.66024,-0.4794 4.31295,-2.2295 7.7489,-4.95446 z"
     id="path2987"
     style="fill:#ffffff" />
</svg>
