<?xml version="1.0" encoding="UTF-8" standalone="no"?>
<!-- Created with Inkscape (http://www.inkscape.org/) -->

<svg
   xmlns:dc="http://purl.org/dc/elements/1.1/"
   xmlns:cc="http://creativecommons.org/ns#"
   xmlns:rdf="http://www.w3.org/1999/02/22-rdf-syntax-ns#"
   xmlns:svg="http://www.w3.org/2000/svg"
   xmlns="http://www.w3.org/2000/svg"
   xmlns:sodipodi="http://sodipodi.sourceforge.net/DTD/sodipodi-0.dtd"
   xmlns:inkscape="http://www.inkscape.org/namespaces/inkscape"
   id="svg2"
   version="1.1"
   inkscape:version="0.48.3.1 r9886"
   width="400"
   height="400"
   sodipodi:docname="Icon.7_37.png">
  <metadata
     id="metadata8">
    <rdf:RDF>
      <cc:Work
         rdf:about="">
        <dc:format>image/svg+xml</dc:format>
        <dc:type
           rdf:resource="http://purl.org/dc/dcmitype/StillImage" />
        <dc:title></dc:title>
      </cc:Work>
    </rdf:RDF>
  </metadata>
  <defs
     id="defs6" />
  <sodipodi:namedview
     pagecolor="#ffffff"
     bordercolor="#666666"
     borderopacity="1"
     objecttolerance="10"
     gridtolerance="10"
     guidetolerance="10"
     inkscape:pageopacity="0"
     inkscape:pageshadow="2"
     inkscape:window-width="1216"
     inkscape:window-height="1000"
     id="namedview4"
     showgrid="false"
     inkscape:zoom="1.18"
     inkscape:cx="386.07409"
     inkscape:cy="232.13491"
     inkscape:window-x="64"
     inkscape:window-y="24"
     inkscape:window-maximized="1"
     inkscape:current-layer="svg2" />
  <rect
     style="fill:#000000;fill-opacity:1;stroke:none"
     id="rect3086"
     width="400"
     height="400"
     x="0"
     y="0" />
  <path
     id="path3001"
     style="fill:#ffffff"
     d="M 220.35193,86.695841 224.5,78.959636 222.06878,77.08882 C 214.00102,70.880716 189.92433,61.200884 175.96339,58.55254 165.82113,56.628587 148.96004,55.510138 151,56.89664 c 6.15915,4.186191 63.68063,37.939555 64.35193,37.761442 0.46856,-0.12432 2.71856,-3.707329 5,-7.962241 z M 94.064983,221.1834 C 93.015744,219.15753 84.655343,204.225 75.486316,188 l -16.670959,-29.5 0.632728,8.45395 c 1.243334,16.61229 7.018785,37.37388 15.425963,55.45324 2.278088,4.89896 4.619664,9.48277 5.203502,10.18625 0.834882,1.00597 2.64505,0.31768 8.478332,-3.22379 l 7.416809,-4.50286 -1.907708,-3.68339 z M 52,258.92403 c 5.775,-1.1218 13.489522,-2.71379 17.143381,-3.53774 l 6.643382,-1.4981 -3.475351,-5.69409 C 62.114569,231.48735 51.119678,204.05417 47.585153,186.5 41.682959,157.18684 44.974041,125.28033 56.249556,102.5 71.152693,72.390658 96.579085,52.38385 130.23942,44.280925 140.55871,41.796803 167.27966,41.813636 179,44.311641 c 19.59594,4.176566 39.65092,12.952495 57.77574,25.282296 l 10.72426,7.295411 2.96213,-6.194674 c 9.3704,-19.596219 17.05506,-34.670948 19.58575,-38.420728 L 272.93233,28 150.35773,28 27.783123,28 28.412041,137.25 c 0.345905,60.0875 0.878976,112.889 1.184602,117.33667 l 0.555684,8.08667 5.673837,-0.85484 C 38.946774,261.34834 46.225,260.04583 52,258.92403 z m 316.86233,111.66403 c 0.93455,-0.57963 -1.89935,-2.15602 -9.02523,-5.02039 C 333.36241,354.9257 318.17707,341.76434 310.72331,323 c -3.09771,-7.79826 -4.41763,-15.653 -5.19721,-30.92823 -0.76951,-15.07781 -2.76249,-23.62834 -8.10124,-34.757 -5.75469,-11.99567 -13.95697,-20.45487 -25.37491,-26.16973 -8.38388,-4.19626 -16.44984,-6.24375 -31.83943,-8.08221 -21.96344,-2.62378 -36.17958,-12.31581 -44.82915,-30.56283 -4.26888,-9.00556 -6.0504,-16.06302 -7.95161,-31.5 -2.18015,-17.70194 -2.83425,-19.95748 -10.00497,-34.5 C 169.90759,111.25477 161.20314,99.243452 148,85.896574 138.6152,76.409599 121.88314,63 119.43041,63 116.8517,63 108.28285,67.29276 100.42506,72.521151 81.502745,85.111624 66.317475,107.88801 61.737738,130.54826 l -1.401845,6.93624 8.582054,2.57464 c 19.747726,5.92436 32.831863,15.38794 42.444473,30.6995 4.091,6.5164 6.39992,13.18951 8.10272,23.41808 2.22102,13.3414 3.39676,17.4479 7.21176,25.18853 9.85601,19.99783 29.0625,36.04689 53.03561,44.31689 7.48708,2.58282 8.65546,2.69184 30.28749,2.82609 17.99866,0.1117 23.78839,0.49028 28.94002,1.89232 22.60527,6.15214 34.50412,20.81926 42.50915,52.39895 3.21116,12.66793 5.97555,18.9501 11.78312,26.7775 8.68314,11.70306 20.89289,19.23865 37.26771,23.00081 6.57017,1.50952 35.93234,1.51736 38.36233,0.0102 z" />
</svg>
