<?xml version="1.0" encoding="UTF-8" standalone="no"?>
<!-- Created with Inkscape (http://www.inkscape.org/) -->

<svg
   xmlns:dc="http://purl.org/dc/elements/1.1/"
   xmlns:cc="http://creativecommons.org/ns#"
   xmlns:rdf="http://www.w3.org/1999/02/22-rdf-syntax-ns#"
   xmlns:svg="http://www.w3.org/2000/svg"
   xmlns="http://www.w3.org/2000/svg"
   xmlns:sodipodi="http://sodipodi.sourceforge.net/DTD/sodipodi-0.dtd"
   xmlns:inkscape="http://www.inkscape.org/namespaces/inkscape"
   id="svg2"
   version="1.1"
   inkscape:version="0.48.3.1 r9886"
   width="400"
   height="400"
   sodipodi:docname="Icon.1_34.png">
  <metadata
     id="metadata8">
    <rdf:RDF>
      <cc:Work
         rdf:about="">
        <dc:format>image/svg+xml</dc:format>
        <dc:type
           rdf:resource="http://purl.org/dc/dcmitype/StillImage" />
        <dc:title></dc:title>
      </cc:Work>
    </rdf:RDF>
  </metadata>
  <defs
     id="defs6" />
  <sodipodi:namedview
     pagecolor="#ffffff"
     bordercolor="#666666"
     borderopacity="1"
     objecttolerance="10"
     gridtolerance="10"
     guidetolerance="10"
     inkscape:pageopacity="0"
     inkscape:pageshadow="2"
     inkscape:window-width="1216"
     inkscape:window-height="1000"
     id="namedview4"
     showgrid="false"
     inkscape:zoom="0.59"
     inkscape:cx="203.38983"
     inkscape:cy="200"
     inkscape:window-x="64"
     inkscape:window-y="24"
     inkscape:window-maximized="1"
     inkscape:current-layer="svg2" />
  <rect
     style="fill:#000000;fill-opacity:1;stroke:none"
     id="rect3043"
     width="400"
     height="400"
     x="0"
     y="-7.6293945e-06" />
  <path
     style="fill:#ffffff"
     d="m 348.38109,354.84679 c 18.74909,-6.10052 8.64169,-27.98695 -26.52764,-57.44253 -9.4212,-7.8906 -9.76361,-7.91597 -4.73884,-0.35102 23.04711,34.6981 10.99416,50.4064 -29.95098,39.03433 C 246.99698,324.93172 197.81016,295.8364 167,265.00757 c -29.20325,-29.22094 -25.57229,-38.3755 22,-55.46752 34.31651,-12.32941 49.92328,-21.53492 55.64174,-32.81976 C 267.12775,132.34628 147.56064,34.441918 67,31.263064 32.575351,29.904697 27.685556,46.772633 54.798157,73.354785 l 5.971617,5.854784 -0.783819,-4.286375 C 51.376528,27.841876 211.50828,97.61521 237.3064,152.18606 c 10.84458,22.93957 1.13735,30.50745 -59.38071,46.29392 -62.67247,16.34847 -75.44343,27.84256 -59.07465,53.16825 33.50569,51.83983 182.07701,118.63869 229.53005,103.19856 z"
     id="path3001" />
</svg>
