<?xml version="1.0" encoding="UTF-8" standalone="no"?>
<!-- Created with Inkscape (http://www.inkscape.org/) -->

<svg
   xmlns:dc="http://purl.org/dc/elements/1.1/"
   xmlns:cc="http://creativecommons.org/ns#"
   xmlns:rdf="http://www.w3.org/1999/02/22-rdf-syntax-ns#"
   xmlns:svg="http://www.w3.org/2000/svg"
   xmlns="http://www.w3.org/2000/svg"
   version="1.1"
   width="512"
   height="512"
   id="svg2">
  <metadata
     id="metadata8">
    <rdf:RDF>
      <cc:Work
         rdf:about="">
        <dc:format>image/svg+xml</dc:format>
        <dc:type
           rdf:resource="http://purl.org/dc/dcmitype/StillImage" />
        <dc:title></dc:title>
      </cc:Work>
    </rdf:RDF>
  </metadata>
  <defs
     id="defs6" />
  <g
     id="g2987">
    <path
       d="m 0,0 512,0 0,512 -512,0 z"
       id="rect3023"
       style="fill:#000000;fill-opacity:1;fill-rule:nonzero;stroke:none" />
    <path
       d="m 331.65427,161.45663 c -19.71516,-1.82312 -36.08194,-3.55097 -36.37063,-3.83966 -0.98176,-0.98176 8.50401,-13.18902 14.89179,-19.16427 7.61506,-7.12329 15.1273,-12.23002 25.59458,-17.39888 7.70602,-3.80532 25.20704,-10.4101 25.85835,-9.75879 C 362.08585,111.75252 373,162.04997 373,163.7008 c 0,1.6383 1.54736,1.72229 -41.34573,-2.24417 z M 166,164.25216 c 0,-1.21117 11.21858,-52.71769 11.56842,-53.11269 0.58173,-0.65683 18.82736,4.92953 24.93158,7.63343 15.84146,7.01706 28.77542,17.7285 37.55454,31.10133 2.70386,4.11865 4.77715,7.62741 4.60732,7.79724 C 244.39612,157.93721 169.48388,165 166.93102,165 166.41896,165 166,164.66347 166,164.25216 z m 79,58.74486 c -3.575,-2.72377 -6.36969,-5.46579 -6.21043,-6.09337 0.26639,-1.04973 26.916,-36.66085 29.75829,-39.76516 1.02293,-1.11723 4.00107,2.28994 16.59936,18.99067 8.44403,11.1937 15.48396,20.63744 15.6443,20.98607 0.16034,0.34864 -2.89775,2.9982 -6.79574,5.8879 -6.26837,4.64694 -7.22642,5.06813 -8.29152,3.64532 -0.66235,-0.88479 -4.35426,-5.87844 -8.20426,-11.09701 -3.85,-5.21857 -7.31749,-9.50252 -7.70554,-9.51988 -0.38804,-0.0174 -4.43804,4.90809 -9,10.94544 -4.56195,6.03735 -8.51946,10.97595 -8.79446,10.97467 -0.275,-0.001 -3.425,-2.23087 -7,-4.95465 z M 300.97443,282 c 5.09704,-14.025 9.70583,-26.625 10.24176,-28 0.84639,-2.17151 2.06632,0.6535 9.28433,21.5 4.57044,13.2 8.74006,25.12085 9.26583,26.49078 0.92486,2.40982 1.04324,2.31848 3.64214,-2.81019 14.17177,-27.96665 18.03517,-71.0973 8.996,-100.43059 -0.50628,-1.64297 1.54422,-1.75 33.52812,-1.75 31.79153,0 34.0651,-0.11691 34.0331,-1.75 -0.0189,-0.9625 -8.46707,-36.58676 -18.77379,-79.16502 L 372.45244,38.669962 362.87385,35.355177 C 313.33389,18.211286 259.14435,15.513044 205.71397,27.529769 194.59098,30.031377 168.0084,37.796983 166.84148,38.885642 166.05447,39.619869 129,192.73614 129,195.25399 129,196.88122 131.32096,197 163.11663,197 c 32.03925,0 34.08245,0.10656 33.55518,1.75 -8.53032,26.5882 -8.0964,52.27887 1.35971,80.50347 4.08984,12.20735 9.79119,24.33333 10.89767,23.17783 0.49049,-0.51221 4.58829,-11.5063 9.10622,-24.4313 4.51794,-12.925 8.52751,-24.08734 8.91015,-24.8052 0.3946,-0.74027 4.95716,10.64037 10.5413,26.29371 5.41506,15.1794 10.12354,27.77071 10.4633,27.98069 0.33975,0.20997 5.30887,-11.28593 11.04249,-25.54646 5.73362,-14.26053 10.69513,-25.3645 11.02556,-24.67549 0.33044,0.68901 5.07402,12.59048 10.54129,26.4477 5.46728,13.85723 10.2121,24.88223 10.54405,24.5 C 291.4355,307.81273 295.8774,296.025 300.97443,282 z M 151.3162,436.55119 c 4.98311,-1.7772 7.55201,-4.14907 9.80307,-9.05119 5.14912,-11.21321 -1.69938,-23.21659 -14.2802,-25.02894 l -4.66094,-0.67143 -1.05927,-8.14982 c -1.70494,-13.11746 -2.3943,-24.65041 -1.47294,-24.64226 0.46974,0.004 3.55408,0.44028 6.85408,0.96917 55.7871,8.94089 133.29888,13.21104 181.67045,10.00829 61.86612,-4.09625 109.71971,-17.13809 142.32955,-38.78998 9.53917,-6.3337 23.00138,-18.02344 21.96263,-19.07095 -0.34037,-0.34325 -18.0212,-2.21105 -39.29074,-4.15067 L 414.5,314.44682 401,316.73098 c -19.57113,3.31139 -49.34014,6.89666 -74,8.91228 -16.58324,1.35547 -32.47696,1.75561 -69.5,1.74974 -44.79326,-0.007 -59.62731,-0.54914 -97.13833,-3.54948 l -14.13833,-1.13086 1.87495,-6.60633 c 1.03123,-3.63348 2.80348,-9.10729 3.93834,-12.16402 l 2.06338,-5.55769 4.7,-0.012 c 6.25516,-0.016 11.80861,-2.82406 14.93838,-7.55346 8.95604,-13.53349 -3.65862,-31.45529 -18.92175,-26.88234 -6.01472,1.80205 -10.50539,6.56758 -13.2521,14.06321 -1.31002,3.575 -3.9837,10.34081 -5.9415,15.03514 -1.9578,4.69432 -5.2141,14.36932 -7.23621,21.5 -2.02212,7.13067 -3.78186,13.09783 -3.91054,13.26036 -0.12867,0.16252 -2.43716,-1.00356 -5.12997,-2.5913 C 105.17557,316.84882 89.967053,313.4941 70,314.3193 c -7.425,0.30687 -14.4,0.83281 -15.5,1.16877 -1.54502,0.47188 -2.40366,-0.13975 -3.774408,-2.68862 -2.382381,-4.42996 -7.331618,-7.64665 -12.950121,-8.41675 -13.189494,-1.80782 -23.726259,12.82461 -17.900661,24.85869 4.748337,9.80876 17.165042,13.35013 25.71979,7.33554 1.903795,-1.3385 2.4397,-1.23814 5.883006,1.10164 6.258843,4.253 21.501253,11.04314 30.022394,13.3743 6.007611,1.64352 11.860254,2.31159 23.5,2.68249 l 15.5,0.49392 0.0489,18.63536 c 0.0506,19.26615 1.11105,27.5885 5.62401,44.13536 3.00986,11.03571 3.64753,12.44119 7.14402,15.74595 5.33596,5.04336 11.10682,6.26339 17.99926,3.80524 z m 144.84206,42.8746 c 14.46756,-1.84537 27.96677,-4.98986 43.59174,-10.15421 l 11.25,-3.71834 0,-12.09296 c 0,-19.22935 -3.38226,-32.9375 -11.47417,-46.50428 -5.85564,-9.81749 -8.2946,-12.78623 -9.27545,-11.2902 -0.42038,0.64119 -4.32407,12.64951 -8.67485,26.68517 l -7.91053,25.51937 -2.1623,-4.68517 c -1.18926,-2.57684 -6.3552,-14.03136 -11.47985,-25.45449 -5.12465,-11.42312 -9.58874,-20.5024 -9.9202,-20.17617 -0.33146,0.32623 -5.11603,13.56964 -10.63239,29.4298 l -10.02974,28.83665 -10.0125,-28.48351 c -5.50687,-15.66593 -10.42463,-28.49585 -10.92834,-28.51092 -0.50371,-0.0151 -6.10971,10.77829 -12.45776,23.98525 -6.34806,13.20696 -11.83349,23.71466 -12.18985,23.35044 -0.35635,-0.36422 -3.93175,-12.24972 -7.94533,-26.41222 -4.01357,-14.1625 -7.547,-25.7384 -7.85207,-25.72421 -0.93475,0.0435 -6.68048,9.11692 -10.0247,15.83068 -5.46259,10.96653 -7.19725,19.62585 -7.76651,38.7699 l -0.50926,17.12637 10.8729,3.57987 c 32.92683,10.84105 63.96142,14.11996 95.53116,10.09318 z"
       id="path2989"
       style="fill:#ffffff" />
  </g>
</svg>
