<?xml version="1.0" encoding="UTF-8" standalone="no"?>
<!-- Created with Inkscape (http://www.inkscape.org/) -->

<svg
   xmlns:dc="http://purl.org/dc/elements/1.1/"
   xmlns:cc="http://creativecommons.org/ns#"
   xmlns:rdf="http://www.w3.org/1999/02/22-rdf-syntax-ns#"
   xmlns:svg="http://www.w3.org/2000/svg"
   xmlns="http://www.w3.org/2000/svg"
   xmlns:sodipodi="http://sodipodi.sourceforge.net/DTD/sodipodi-0.dtd"
   xmlns:inkscape="http://www.inkscape.org/namespaces/inkscape"
   id="svg2"
   version="1.1"
   inkscape:version="0.48.3.1 r9886"
   width="400"
   height="400"
   sodipodi:docname="2_77.png">
  <metadata
     id="metadata8">
    <rdf:RDF>
      <cc:Work
         rdf:about="">
        <dc:format>image/svg+xml</dc:format>
        <dc:type
           rdf:resource="http://purl.org/dc/dcmitype/StillImage" />
        <dc:title></dc:title>
      </cc:Work>
    </rdf:RDF>
  </metadata>
  <defs
     id="defs6" />
  <sodipodi:namedview
     pagecolor="#ffffff"
     bordercolor="#666666"
     borderopacity="1"
     objecttolerance="10"
     gridtolerance="10"
     guidetolerance="10"
     inkscape:pageopacity="0"
     inkscape:pageshadow="2"
     inkscape:window-width="1855"
     inkscape:window-height="1056"
     id="namedview4"
     showgrid="false"
     inkscape:zoom="0.59"
     inkscape:cx="200"
     inkscape:cy="200"
     inkscape:window-x="65"
     inkscape:window-y="24"
     inkscape:window-maximized="1"
     inkscape:current-layer="svg2" />
  <path
     style="fill:#000000;fill-opacity:1;stroke:none"
     d="m 0,0 400,0 0,400 -400,0 z"
     id="rect3020" />
  <path
     id="path2989"
     style="fill:#ffffff"
     d="M 326.98859,334.74281 C 277.6176,308.27742 237.67986,270.82352 210.04191,225.06938 c -7.02158,-11.62409 -16.31077,-30.13385 -15.51976,-30.92486 0.2891,-0.2891 7.37738,2.90451 15.75174,7.09691 44.4183,22.23683 80.0709,53.90069 108.46911,96.33382 11.41946,17.06315 25.58059,44.43282 22.98175,44.41756 -0.67361,-0.004 -7.30488,-3.26645 -14.73616,-7.25 z M 369.52161,366.75 C 361.34571,347.44383 259.6116,120.39488 258.736,119.5 c -0.63809,-0.65213 -0.7941,15.16273 -0.44849,45.46261 0.29148,25.55444 0.1567,45.80444 -0.29952,45 C 246.21002,189.1946 179.57797,75.209337 178.801,74.5 c -0.76303,-0.696607 -0.93256,-0.531679 -0.55876,0.543611 0.29513,0.848987 5.78614,20.198987 12.20226,42.999999 6.41611,22.80102 12.29162,43.59389 13.05668,46.20639 0.76506,2.6125 1.24213,4.75 1.06016,4.75 -0.18197,0 -17.82022,-26.54258 -39.1961,-58.9835 C 143.98936,77.575568 126.39485,51.588068 126.26633,52.266495 126.13781,52.944923 130.90872,69.8125 136.86834,89.75 142.82796,109.6875 147.51633,126 147.28695,126 147.05756,126 120.53075,104.14341 88.338478,77.429797 56.146205,50.716186 29.657894,29.008773 29.475564,29.191103 29.293234,29.373433 50.936643,55.820866 77.572028,87.963176 104.20741,120.10549 126,146.52378 126,146.67049 c 0,0.14671 -0.5625,0.0628 -1.25,-0.1864 -1.0331,-0.37451 -66.755041,-20.216 -73.25,-22.11422 -1.770883,-0.51756 -1.828162,-0.41634 -0.5,0.88354 0.825,0.80743 27.375,18.47108 59,39.25256 56.89824,37.38907 60.94814,40.11846 58,39.08846 -6.04563,-2.11218 -93.425405,-26.61701 -94.090638,-26.38683 -0.464782,0.16082 30.149358,18.2924 68.031418,40.2924 37.88206,22 68.80509,40.02492 68.71785,40.05538 -0.0872,0.0304 -20.85863,-0.22915 -46.15863,-0.5769 -25.3,-0.34775 -46.1875,-0.48517 -46.41667,-0.30538 -0.22916,0.1798 -0.22916,0.48106 0,0.66949 0.22917,0.18842 46.09167,20.72721 101.91667,45.64175 55.825,24.91454 103.75,46.44608 106.5,47.84787 5.3929,2.74898 42.54563,18.98755 43.69897,19.09978 0.38444,0.0374 0.0796,-1.39449 -0.67736,-3.18199 z" />
</svg>
