<?xml version="1.0" encoding="UTF-8" standalone="no"?>
<!-- Created with Inkscape (http://www.inkscape.org/) -->

<svg
   xmlns:dc="http://purl.org/dc/elements/1.1/"
   xmlns:cc="http://creativecommons.org/ns#"
   xmlns:rdf="http://www.w3.org/1999/02/22-rdf-syntax-ns#"
   xmlns:svg="http://www.w3.org/2000/svg"
   xmlns="http://www.w3.org/2000/svg"
   xmlns:sodipodi="http://sodipodi.sourceforge.net/DTD/sodipodi-0.dtd"
   xmlns:inkscape="http://www.inkscape.org/namespaces/inkscape"
   id="svg2"
   version="1.1"
   inkscape:version="0.48.3.1 r9886"
   width="400"
   height="400"
   sodipodi:docname="5_79.png">
  <metadata
     id="metadata8">
    <rdf:RDF>
      <cc:Work
         rdf:about="">
        <dc:format>image/svg+xml</dc:format>
        <dc:type
           rdf:resource="http://purl.org/dc/dcmitype/StillImage" />
        <dc:title></dc:title>
      </cc:Work>
    </rdf:RDF>
  </metadata>
  <defs
     id="defs6" />
  <sodipodi:namedview
     pagecolor="#ffffff"
     bordercolor="#666666"
     borderopacity="1"
     objecttolerance="10"
     gridtolerance="10"
     guidetolerance="10"
     inkscape:pageopacity="0"
     inkscape:pageshadow="2"
     inkscape:window-width="1855"
     inkscape:window-height="1056"
     id="namedview4"
     showgrid="false"
     inkscape:zoom="0.59"
     inkscape:cx="200"
     inkscape:cy="200"
     inkscape:window-x="65"
     inkscape:window-y="24"
     inkscape:window-maximized="1"
     inkscape:current-layer="svg2" />
  <path
     style="fill:#000000;fill-opacity:1;stroke:none"
     d="m 0,0 400,0 0,400 -400,0 z"
     id="rect3032" />
  <path
     id="path2989"
     style="fill:#ffffff"
     d="m 90.446479,107.23064 c 0.909403,-3.79948 6.99633,-12.494527 11.758681,-16.79702 16.53246,-14.936086 47.31061,-26.845523 84.29484,-32.61743 18.69156,-2.91708 58.48773,-3.183362 74,-0.495145 23.72288,4.111083 42.45247,11.33527 52.26801,20.160281 2.95675,2.65838 6.26967,6.940266 7.8176,10.104127 2.28483,4.670018 2.59988,6.328333 2.10791,11.095062 -0.31813,3.082415 -0.9516,5.977565 -1.4077,6.433665 -0.45611,0.45611 -5.14077,-1.33306 -10.41037,-3.97593 -5.2696,-2.642869 -15.15982,-6.641194 -21.97827,-8.885166 C 219.31223,69.352463 142.54151,74.589482 96.64271,105.36799 c -6.789395,4.55278 -6.844044,4.56921 -6.196231,1.86265 z m 20.639781,34.22229 c -7.00672,-4.00519 -13.874942,-9.34742 -16.180875,-12.5858 -2.511493,-3.52707 -3.083459,-2.85991 9.853045,-11.49296 C 129.83274,100.64108 160.84241,92.705573 201,92.745551 c 28.33784,0.02821 51.25322,3.356626 78.17694,11.355049 10.2156,3.03483 25.91913,9.42188 30.42675,12.37538 l 2.58529,1.69395 -2.34449,2.49719 c -1.28947,1.37345 -5.22396,4.42078 -8.74332,6.77185 l -6.39883,4.27466 -9.40793,-3.36252 C 252.15319,116.50598 201.85589,114.68856 164.5,123.98637 c -17.06251,4.24683 -34.0916,11.19552 -44,17.95413 -3.78195,2.5797 -4.0743,2.56456 -9.41374,-0.48757 z M 162.5,154.97376 C 150.85728,153.66189 136,150.8822 136,150.0158 c 0,-0.41141 3.0375,-2.10461 6.75,-3.76267 31.34352,-13.99843 77.6003,-17.85249 117.33409,-9.77615 16.96572,3.44848 17.15766,3.71102 5.45394,7.46006 -24.13214,7.73021 -45.30898,11.03585 -74.03803,11.55712 -11.55,0.20956 -24.6,-0.0246 -29,-0.5204 z m 76.28152,41.57851 C 320.45736,186.00596 372,152.24282 372,109.28716 372,92.092546 362.81288,78.013034 343.28119,65.274806 328.55312,55.669418 309.68966,48.49191 286.5,43.66969 c -21.24084,-4.416969 -29.52824,-5.151673 -58,-5.141881 -22.90029,0.0079 -29.35354,0.35624 -42.5,2.294273 C 131.39385,48.872045 86.810661,67.169669 58.707722,93.064789 54.468475,96.970993 51,99.852425 51,99.467972 51,99.083519 53.132608,95.561066 55.739129,91.640299 73.463607,64.978878 115.65495,40.75844 164.5,29.204842 c 7.15,-1.69123 13.9,-3.276986 15,-3.523902 5.87818,-1.319468 -6.88101,-0.395132 -19,1.376451 C 114.43452,33.791351 75.573439,48.169196 50.971056,67.580965 23.270519,89.43724 18.835181,118.50619 39.753461,141.10042 c 16.915489,18.27075 47.555454,31.07779 89.941349,37.59413 8.06926,1.24055 18.02155,1.67772 39.30519,1.72653 24.77505,0.0568 30.52585,-0.23458 44,-2.22951 54.97769,-8.13978 101.67108,-27.44124 128.36556,-53.06195 10.40526,-9.9867 0.38265,4.43538 -11.64977,16.7635 -27.43893,28.11326 -69.3356,45.24531 -132.24824,54.07789 -8.17182,1.14728 -15.10754,2.35567 -15.4127,2.6853 -1.07166,1.15759 44.5806,-0.53569 56.72667,-2.10404 z M 191.5,262.97926 c 14.07049,-1.57015 23.79094,-3.77884 40,-9.08886 34.33914,-11.24934 70.23003,-33.42821 94.5,-58.39653 l 6.5,-6.68703 -7,3.48159 C 296.14441,206.889 255.18478,213.87653 206,212.67459 158.79804,211.52111 117.78037,202.83182 82,186.40611 l -9.5,-4.36117 4.360557,3.72753 c 7.652586,6.54165 21.359689,16.00525 30.639443,21.15395 26.38748,14.6406 54.63714,21.57619 93,22.83251 l 19,0.62221 -9.30432,2.24683 c -30.73851,7.42278 -58.87686,9.07536 -82.69568,4.85674 -9.86273,-1.74682 -27.22967,-7.31128 -34.849434,-11.16595 -2.667188,-1.34928 -5.05912,-2.24354 -5.315403,-1.98726 -1.014719,1.01472 16.599357,17.60405 23.479997,22.11399 21.60833,14.16324 49.92655,19.96615 80.68484,16.53377 z M 178,298.37473 c 16.77673,-2.96909 37.26197,-11.54111 51.86191,-21.70154 C 236.6824,271.92665 250,260.19153 250,258.92802 c 0,-0.43905 -3.7125,0.93656 -8.25,3.05692 -12.07643,5.64329 -30.4527,11.71885 -44.72864,14.78816 -11.45424,2.46266 -14.35367,2.68849 -34.02136,2.64983 -20.04539,-0.0394 -22.16392,-0.22146 -31.31318,-2.69102 -5.39724,-1.45682 -13.47171,-4.2305 -17.94326,-6.16374 -4.47155,-1.93323 -8.3143,-3.33076 -8.53945,-3.10561 -1.1643,1.1643 5.4178,12.33792 10.25588,17.41014 13.08504,13.7183 34.81254,18.40914 62.54001,13.50203 z m 8.63028,29.31262 c 7.75388,-3.92919 15.24909,-12.89904 17.76934,-21.26535 l 0.62597,-2.07799 -6.76279,2.25094 c -11.63142,3.87142 -21.28948,5.53919 -35.35241,6.1047 -14.51511,0.5837 -24.91931,-0.81134 -35.20849,-4.72092 l -5.00081,-1.90016 2.89946,3.07666 c 7.56923,8.03184 23.95233,17.56337 34.89945,20.30417 8.71854,2.18283 19.81006,1.43065 26.13028,-1.77205 z M 171.71662,373.75 c 0.52883,-0.6875 2.45824,-5.075 4.28758,-9.75 1.82934,-4.675 4.86382,-11.59987 6.7433,-15.3886 2.59517,-5.23145 3.01639,-6.73477 1.75095,-6.24918 -0.91646,0.35168 -4.73,0.92416 -8.47454,1.27217 -17.22625,1.60102 -40.42839,-7.68255 -56.25555,-22.50879 -2.05241,-1.9226 -3.97512,-3.25217 -4.2727,-2.9546 -0.71054,0.71055 4.8327,16.42672 8.96135,25.40722 3.94994,8.59174 10.62338,20.24387 15.27554,26.67178 l 3.43779,4.75 13.79238,0 c 9.85444,0 14.06692,-0.3569 14.7539,-1.25 z" />
</svg>
