<?xml version="1.0" encoding="UTF-8" standalone="no"?>
<!-- Created with Inkscape (http://www.inkscape.org/) -->

<svg
   xmlns:dc="http://purl.org/dc/elements/1.1/"
   xmlns:cc="http://creativecommons.org/ns#"
   xmlns:rdf="http://www.w3.org/1999/02/22-rdf-syntax-ns#"
   xmlns:svg="http://www.w3.org/2000/svg"
   xmlns="http://www.w3.org/2000/svg"
   version="1.1"
   width="400"
   height="400"
   id="svg2">
  <metadata
     id="metadata8">
    <rdf:RDF>
      <cc:Work
         rdf:about="">
        <dc:format>image/svg+xml</dc:format>
        <dc:type
           rdf:resource="http://purl.org/dc/dcmitype/StillImage" />
        <dc:title></dc:title>
      </cc:Work>
    </rdf:RDF>
  </metadata>
  <defs
     id="defs6" />
  <path
     d="m 0,0 400,0 0,400 -400,0 z"
     id="rect3032"
     style="fill:#000000;fill-opacity:1;fill-rule:nonzero;stroke:none" />
  <path
     d="m 241.40625,80.118531 c 41.7782,-1.315914 78.125,-12.508363 78.125,-24.057422 0,-4.198468 -7.80445,-11.033797 -18.75,-16.421704 C 249.08137,14.190317 138.71068,6.1780962 84.409055,23.932139 c -9.252252,3.025045 -13.960141,5.49047 -18.198118,9.529979 -4.090528,3.898966 -4.020008,6.796184 0.278947,11.459999 2.938991,3.18843 12.332241,9.823573 13.764405,9.722811 0.332797,-0.02341 1.680883,-1.693336 2.99575,-3.710937 6.831422,-10.482516 24.557731,-18.507205 49.562461,-22.436908 10.9302,-1.717772 43.73435,-2.443643 55.60059,-1.230298 15.90015,1.62582 15.81612,1.707085 -4.59558,4.444375 -37.7249,5.059056 -51.58417,8.831937 -58.74399,15.991758 -2.66495,2.664956 -4.76102,6.92336 -4.76102,9.672569 0,2.437786 2.09136,9.16821 3.40864,10.969697 1.09328,1.495157 1.18384,1.486713 5.29714,-0.494006 10.9219,-5.259319 25.90842,-7.798244 46.76297,-7.922294 16.41039,-0.09761 32.50557,0.875056 30.07812,1.817693 -0.85937,0.333718 -8.24218,1.505667 -16.40625,2.604332 -8.16406,1.098664 -18.35735,2.891011 -22.65177,3.982992 -8.04975,2.046883 -16.52001,5.73073 -15.45308,6.720789 0.33267,0.308709 6.58142,1.293276 13.8861,2.187926 20.94883,2.565736 43.98618,3.917079 58.59375,3.437048 3.00782,-0.09884 10.91797,-0.351352 17.57813,-0.561133 z m -8.35392,66.062679 c 5.50299,-0.89664 12.0069,-2.13255 14.45312,-2.74646 2.44622,-0.61392 6.38127,-1.35359 8.74455,-1.64371 12.36215,-1.51761 30.15537,-6.5786 41.08455,-11.68583 25.70789,-12.01336 37.93802,-30.919819 35.89177,-55.484776 -0.30475,-3.658426 -0.82698,-6.651684 -1.16052,-6.651684 -0.33354,0 -1.3661,2.083427 -2.29457,4.629836 -4.56597,12.522633 -17.13078,25.263789 -34.65404,35.140404 -2.47071,1.39256 -4.49219,2.28036 -4.49219,1.97289 0,-1.35775 3.33822,-11.576544 5.47264,-16.752575 1.28692,-3.120813 2.33986,-5.945594 2.33986,-6.277297 0,-0.331696 -1.8457,-0.111727 -4.10156,0.488828 -5.90601,1.572281 -20.35465,4.142117 -30.92162,5.499719 -12.68815,1.630117 -54.89492,2.302172 -71.68087,1.141367 C 166.16423,92.043727 146.36797,89.261695 124.5767,84.37418 96.709273,78.123863 71.296569,68.022609 61.251987,59.203351 59.628705,57.77809 58.227138,57.085362 57.810241,57.502259 c -2.427016,2.427016 -4.929601,32.773905 -3.220168,39.04846 1.217027,4.467161 6.644889,12.257141 11.776781,16.901871 18.763279,16.98207 53.395626,28.91425 98.086266,33.79447 15.63924,1.70781 55.36437,1.09059 68.59921,-1.06585 z m -3.36483,58.42609 c 16.62415,-1.64007 40.55573,-7.25152 52.02756,-12.19938 27.16104,-11.71469 39.76428,-32.6338 34.16443,-56.70682 l -1.30801,-5.62298 -0.74718,2.73438 c -0.41095,1.50391 -1.23197,4.50591 -1.82451,6.67111 -2.47028,9.0268 -11.57932,20.33805 -22.01751,27.3405 -3.71948,2.4952 -5.31545,3.18674 -5.75559,2.49392 -0.33496,-0.52726 -0.6144,-6.30804 -0.62098,-12.84616 l -0.012,-11.88752 -6.05469,3.014 c -12.26086,6.10341 -27.4408,10.32849 -47.07031,13.10126 -13.8677,1.95888 -54.80445,1.93964 -71.48438,-0.0336 -22.19806,-2.62604 -41.02891,-6.71135 -58.20332,-12.62707 -10.047948,-3.46102 -25.536289,-10.81594 -31.953101,-15.17351 -2.620997,-1.77989 -4.765449,-2.85749 -4.765449,-2.39467 0,2.0919 7.283962,14.38281 13.194091,22.2636 12.87455,17.16743 27.640899,31.14247 38.589369,36.5214 26.83724,13.18501 72.87454,19.39314 113.84154,15.35153 z m 7.8125,50.489 c 16.31557,-2.51593 26.58235,-6.21477 43.66311,-15.73063 13.39798,-7.46415 21.72998,-13.42342 27.38108,-19.58365 5.50606,-6.00215 8.21932,-10.92821 9.527,-17.29674 0.89054,-4.33704 0.84778,-5.56898 -0.35204,-10.14358 -0.75113,-2.86385 -1.65395,-5.49525 -2.00628,-5.84757 -0.35232,-0.35233 -1.44227,1.224 -2.4221,3.50295 -2.74004,6.37294 -7.16107,12.36969 -13.33048,18.08161 -3.09059,2.8614 -5.8768,5.20256 -6.19159,5.20256 -0.57929,0 -3.93199,-10.50404 -3.92743,-12.30469 0.003,-1.37504 -0.81121,-1.21602 -2.68154,0.52339 -5.20771,4.84318 -22.88221,11.58788 -37.99216,14.49803 -18.19912,3.50513 -49.13264,4.71015 -70.65194,2.75226 -9.50681,-0.86496 -30.73422,-4.11164 -33.59375,-5.13808 -2.55284,-0.91636 -1.02636,0.26654 18.55421,14.37798 10.20482,7.35447 21.75782,15.80738 25.67334,18.78426 7.30741,5.55565 11.56466,7.35205 20.6162,8.69927 6.70186,0.99749 19.99112,0.81667 27.73437,-0.37737 z m 32.87234,37.079 c 10.15814,-2.07009 16.99376,-4.5785 28.84641,-10.5855 19.7619,-10.01548 28.91398,-20.97603 29.0439,-34.78303 0.0388,-4.12322 -0.40227,-6.21816 -2.06615,-9.81361 l -2.11547,-4.57129 -1.50006,5.85938 c -1.55912,6.09005 -6.1014,13.79822 -10.76258,18.26391 l -2.34119,2.243 -1.09738,-2.63626 c -0.60356,-1.44995 -2.24158,-6.07602 -3.64005,-10.28016 l -2.54266,-7.64389 -3.05542,3.47115 c -12.96489,14.72889 -43.3216,26.86037 -70.92718,28.34472 l -9.39479,0.50515 9.03681,9.45213 c 4.97024,5.19866 9.96432,9.94971 11.09795,10.55787 6.4782,3.47537 19.10743,4.12515 31.41786,1.61643 z m 31.79107,37.11561 c 10.55421,-2.48838 18.71914,-8.65796 22.49602,-16.99848 1.75427,-3.87398 2.27225,-6.31813 2.53148,-11.9452 0.45356,-9.84519 0.085,-11.00282 -2.01848,-6.33981 -1.89345,4.19743 -5.86684,9.54652 -7.8993,10.63425 -1.20971,0.64742 -1.2989,0.0874 -1.02867,-6.45858 0.16274,-3.94211 -0.005,-7.95475 -0.37127,-8.91697 -0.66504,-1.74397 -0.67951,-1.74065 -4.55924,1.04448 -8.80061,6.31769 -24.32399,12.82981 -37.1615,15.58941 -3.18619,0.68491 -9.92393,1.44715 -14.97276,1.69385 -5.04883,0.2467 -9.17969,0.56143 -9.17969,0.6994 0,1.32686 6.58969,13.22979 7.96743,14.39154 3.03675,2.56067 9.92258,5.52039 15.36622,6.60482 7.18094,1.43053 22.7648,1.43122 28.82976,0.002 z m -38.37226,50.26654 c 13.87405,-10.86425 30.88865,-27.97108 36.5292,-36.72718 l 1.34738,-2.09161 -4.15418,1.16346 c -6.78362,1.89988 -20.35603,2.26826 -27.82335,0.75519 -3.52043,-0.71333 -6.86297,-1.47433 -7.42787,-1.6911 -0.8142,-0.31243 -1.03664,1.67609 -1.07317,9.59327 -0.0492,10.67384 -1.36562,19.33265 -4.45796,29.32333 -1.03072,3.33008 -1.69711,6.05469 -1.48084,6.05469 0.21627,0 4.05962,-2.87102 8.54079,-6.38005 z m -23.25946,5.01286 c -4.42904,-5.68105 -20.53087,-23.58155 -20.88947,-23.22295 -0.24677,0.24677 -0.63636,3.25983 -0.86576,6.69568 l -0.41709,6.247 -20.22353,-16.85639 c -11.12293,-9.27101 -20.34118,-16.73873 -20.48499,-16.59492 -0.1438,0.1438 0.61622,5.86645 1.68894,12.717 1.07271,6.85054 1.85346,12.93484 1.73499,13.52067 -0.11848,0.58582 -13.399,-12.83686 -29.51228,-29.82819 -16.11328,-16.99133 -29.37838,-30.65325 -29.47801,-30.35983 -0.0996,0.29342 3.28517,12.57451 7.52178,27.29131 4.23659,14.71679 7.57902,26.75781 7.42761,26.75781 -0.1514,0 -23.02963,-17.21555 -50.840497,-38.2568 -27.810866,-21.04123 -50.702728,-38.11927 -50.870804,-37.95119 -0.258874,0.25886 28.220325,42.51191 45.022421,66.79732 4.194578,6.06275 4.698477,7.09696 2.812297,5.77192 -17.20757,-12.08823 -59.187874,-40.89904 -59.344816,-40.72795 -0.114063,0.12434 3.096564,8.2809 7.134727,18.12568 4.038163,9.84479 7.232922,18.00881 7.099463,18.14226 -0.133459,0.13346 -5.428178,-3.08737 -11.766044,-7.15742 -6.337867,-4.07004 -11.910176,-7.40007 -12.382911,-7.40007 -0.608803,0 -0.710961,3.24733 -0.350224,11.13281 0.280111,6.12305 0.510578,16.84571 0.51215,23.82813 l 0.0029,12.69531 113.767528,0 c 108.23525,0 113.7157,-0.0665 112.70166,-1.36719 z"
     id="path2989"
     style="fill:#ffffff" />
</svg>
