<?xml version="1.0" encoding="UTF-8" standalone="no"?>
<!-- Created with Inkscape (http://www.inkscape.org/) -->

<svg
   xmlns:dc="http://purl.org/dc/elements/1.1/"
   xmlns:cc="http://creativecommons.org/ns#"
   xmlns:rdf="http://www.w3.org/1999/02/22-rdf-syntax-ns#"
   xmlns:svg="http://www.w3.org/2000/svg"
   xmlns="http://www.w3.org/2000/svg"
   xmlns:sodipodi="http://sodipodi.sourceforge.net/DTD/sodipodi-0.dtd"
   xmlns:inkscape="http://www.inkscape.org/namespaces/inkscape"
   id="svg2"
   version="1.1"
   inkscape:version="0.48.3.1 r9886"
   width="400"
   height="400"
   sodipodi:docname="Icon.7_52.png">
  <metadata
     id="metadata8">
    <rdf:RDF>
      <cc:Work
         rdf:about="">
        <dc:format>image/svg+xml</dc:format>
        <dc:type
           rdf:resource="http://purl.org/dc/dcmitype/StillImage" />
        <dc:title></dc:title>
      </cc:Work>
    </rdf:RDF>
  </metadata>
  <defs
     id="defs6" />
  <sodipodi:namedview
     pagecolor="#ffffff"
     bordercolor="#666666"
     borderopacity="1"
     objecttolerance="10"
     gridtolerance="10"
     guidetolerance="10"
     inkscape:pageopacity="0"
     inkscape:pageshadow="2"
     inkscape:window-width="1855"
     inkscape:window-height="1056"
     id="namedview4"
     showgrid="false"
     inkscape:zoom="0.59"
     inkscape:cx="200"
     inkscape:cy="200"
     inkscape:window-x="65"
     inkscape:window-y="24"
     inkscape:window-maximized="1"
     inkscape:current-layer="svg2" />
  <path
     style="fill:#000000"
     d="m 0,0 400,0 0,400 -400,0 z"
     id="rect3078" />
  <path
     id="path3041"
     style="fill:#ffffff"
     d="m 221.9475,85.804703 4.17323,-7.695296 -5.31037,-3.081239 C 206.29243,66.604411 189.97614,60.288001 175.48643,57.482234 165.6427,55.576106 147.20664,54.440451 148.5,55.819878 c 0.55,0.586599 15.83329,9.867732 33.96288,20.624741 26.00386,15.429132 33.21078,19.294004 34.13713,18.306789 0.64584,-0.688274 3.05221,-4.714291 5.34749,-8.946705 z M 94.243677,227.04678 c 1.509023,-0.85073 2.746523,-1.82604 2.75,-2.16736 0.008,-0.78671 -37.646865,-67.88479 -38.577996,-68.743 -1.13992,-1.05066 0.510427,15.37915 2.667691,26.55784 2.542508,13.17498 7.264145,27.1081 13.97674,41.24409 l 5.240691,11.03633 5.599599,-3.19056 c 3.079779,-1.75481 6.834253,-3.88661 8.343275,-4.73734 z m -36.285082,31.35926 c 9.602228,-1.95022 17.776046,-3.74204 18.16404,-3.98183 0.387994,-0.2398 -1.572057,-4.37084 -4.355669,-9.1801 C 61.10388,226.82144 52.067435,203.90403 48.603879,186.5 37.314716,129.77306 58.173401,78.938576 102.39091,55.416182 118.7467,46.71539 134.25524,42.982521 154.5,42.87364 c 28.14007,-0.151344 54.52585,8.677107 82.56305,27.624868 l 11.07423,7.484052 4.01764,-8.74128 C 260.60349,50.859542 265.96805,40.278099 269.91184,34.216259 272.16033,30.760201 274,27.722701 274,27.466259 274,27.209816 218.37624,27 150.39165,27 l -123.608351,0 0.61677,67.75 c 0.339224,37.2625 0.892283,90.41807 1.229019,118.1235 l 0.612249,50.3735 5.629332,-0.64756 c 3.096132,-0.35616 13.485699,-2.24319 23.087926,-4.1934 z M 290.18982,245.97437 c -5.44939,-3.32241 -7.69118,-11.17038 -4.7922,-16.77639 6.02104,-11.64341 22.78603,-9.39688 25.18194,3.37441 2.09037,11.14266 -10.51057,19.42514 -20.38974,13.40198 z M 149.82526,367.73749 c 17.84875,-47.70506 19.49588,-96.14898 5.17618,-152.23749 -3.48369,-13.6452 -10.43311,-34.79155 -15.85661,-48.25 -1.1636,-2.8875 -1.91145,-5.25 -1.66187,-5.25 1.12488,0 16.44261,27.02676 23.5206,41.5 13.50628,27.61796 22.06043,52.46372 27.37109,79.5 4.4081,22.44145 5.12535,31.01285 5.12535,61.24976 l 0,28.74977 15.11071,2.3e-4 15.11071,2.4e-4 0.6306,-5.25 c 0.97131,-8.08655 0.7481,-34.21121 -0.37806,-44.25 -1.56202,-13.924 -3.91028,-26.96165 -7.02446,-39 -1.56506,-6.05 -3.0991,-12.125 -3.40898,-13.5 -0.30988,-1.375 1.45666,1.67658 3.92565,6.7813 13.13501,27.15705 21.88296,56.70618 24.93275,84.2187 l 1.16393,10.5 29.71858,0.26488 C 289.62664,372.91056 303,372.7951 303,372.5083 c 0,-3.19928 -3.49573,-22.19748 -5.51301,-29.9615 -10.48041,-40.33649 -39.55051,-86.95812 -81.96874,-131.45866 l -8.01825,-8.41186 8.85203,6.41186 c 25.82208,18.70392 57.45221,44.70036 78.58212,64.58574 l 8.43414,7.93739 4.56586,-4.71245 c 7.09326,-7.32101 14.94936,-8.54971 24.26822,-3.79558 13.23743,6.75324 12.46574,29.23524 -1.19777,34.89485 -1.65253,0.6845 -3.0046,1.38726 -3.0046,1.56169 0,0.17442 2.80839,4.04414 6.24086,8.59938 10.70199,14.20261 27.12762,43.49216 29.34498,52.32684 0.55415,2.20791 1.16567,2.514 5.02257,2.514 l 4.39159,0 0,-92.07946 0,-92.07945 -2.75,0.53197 c -18.45727,3.57046 -63.11809,4.27952 -82.55519,1.3107 -23.96172,-3.65991 -49.16934,-10.67214 -69.61054,-19.3642 -10.64627,-4.52703 -34.36126,-16.3759 -33.83298,-16.90419 0.15592,-0.15592 6.08309,1.49839 13.17149,3.67625 11.03492,3.39039 26.31685,6.89405 40.85915,9.36768 3.58702,0.61015 3.75165,0.52269 3.19454,-1.69703 C 240.07267,160.1691 245.18495,154 251.22374,154 c 7.15514,0 11.6661,5.4432 10.34536,12.48333 L 260.90937,170 l 9.29532,0.10347 c 36.98022,0.41163 64.46595,-4.6725 93.54531,-17.3034 l 9.25,-4.01782 0,-19.49812 c 0,-15.21511 -0.27458,-19.38143 -1.25,-18.96694 -0.6875,0.29215 -6.60468,3.01969 -13.14929,6.06121 -6.54461,3.04152 -13.18211,5.97723 -14.75,6.5238 -1.79742,0.62658 -2.85071,1.70212 -2.85071,2.91092 0,1.05444 -0.93973,3.11184 -2.0883,4.572 -4.42724,5.62832 -11.82959,7.18187 -17.56284,3.68596 -3.142,-1.91587 -3.17394,-1.91419 -11,0.5769 -10.35233,3.29521 -36.12493,9.59333 -37.44981,9.1517 -0.57345,-0.19115 2.70216,-1.86225 7.27915,-3.71356 4.57699,-1.8513 14.2843,-6.1955 21.5718,-9.65376 12.38071,-5.87524 13.25025,-6.47292 13.25374,-9.11006 0.005,-4.04494 3.19665,-8.71498 7.27933,-10.65234 4.17208,-1.97978 5.71232,-2.05123 10.87486,-0.5045 3.85241,1.15421 3.98385,1.10166 13.61602,-5.44465 5.34933,-3.63556 13.43855,-9.561133 17.97605,-13.167946 l 8.25,-6.557841 0,-27.626943 0,-27.626943 -6.63097,9.379431 C 353.53045,57.280592 335.35942,76.686379 320.48228,88.125408 286.32291,114.39054 247.51084,127.29292 207.5,125.68437 187.1059,124.86446 174.30197,120.33629 160.26725,108.98027 147.15405,98.369883 134.21685,78.608996 130.98292,64.25 130.3326,61.3625 129.35216,59 128.80417,59 c -2.59972,0 -11.98896,3.317993 -12.39681,4.380812 -0.62434,1.627008 3.97811,15.492767 7.49598,22.583081 3.13045,6.309466 8.48887,14.653247 12.78771,19.912177 l 2.75972,3.37608 -7.39221,-3.72266 C 121.73269,100.32946 108.85074,92.232725 99.516203,85.075522 95.158119,81.733985 91.282592,79 90.90392,79 89.545251,79 79.186512,90.95048 74.715165,97.676345 67.901379,107.92574 67.854054,108.82587 73.766784,115.71455 99.079496,145.20534 118.76312,185.72078 125.40346,222 c 5.45974,29.82903 3.55289,62.38767 -5.1836,88.50763 -2.39132,7.14945 -2.59375,8.49296 -1.28017,8.49611 2.67161,0.006 7.98736,3.82835 10.06571,7.23712 3.72978,6.11732 1.5375,13.56512 -5.24626,17.82309 -4.265,2.67701 -10.83335,2.13272 -14.45858,-1.19813 -1.45185,-1.33396 -2.74405,-1.89699 -2.96271,-1.29091 -0.9342,2.58948 -10.966593,16.86567 -16.397691,23.33406 C 86.673072,368.80005 84,372.21233 84,372.49183 84,372.77132 98.367668,373 115.92815,373 l 31.92815,0 1.96896,-5.26251 z" />
</svg>
