<?xml version="1.0" encoding="UTF-8" standalone="no"?>
<!-- Created with Inkscape (http://www.inkscape.org/) -->

<svg
   xmlns:dc="http://purl.org/dc/elements/1.1/"
   xmlns:cc="http://creativecommons.org/ns#"
   xmlns:rdf="http://www.w3.org/1999/02/22-rdf-syntax-ns#"
   xmlns:svg="http://www.w3.org/2000/svg"
   xmlns="http://www.w3.org/2000/svg"
   version="1.1"
   width="409.60001pt"
   height="409.60001pt"
   id="svg2">
  <metadata
     id="metadata11">
    <rdf:RDF>
      <cc:Work
         rdf:about="">
        <dc:format>image/svg+xml</dc:format>
        <dc:type
           rdf:resource="http://purl.org/dc/dcmitype/StillImage" />
        <dc:title></dc:title>
      </cc:Work>
    </rdf:RDF>
  </metadata>
  <defs
     id="defs4" />
  <rect
     width="512"
     height="512"
     x="0"
     y="0"
     id="rect3008"
     style="fill:#000000" />
  <path
     d="m 168.50428,142.60068 c 2.752,-12.1128 2.737,-32.2339 -0.034,-44.124601 -4.465,-19.1682 -15.54,-35.4954 -28.2502,-41.64833 -7.1611,-3.46663 -18.0398,-3.73557 -24.9557,-0.61696 l -5.2754,2.37889 7.8305,3.5545 c 24.3493,11.053 39.8418,46.343301 40.0978,91.337001 l 0.095,16.64 4.155,-8.96 c 2.286,-4.928 5.138,-13.2805 6.337,-18.5605 z m 172.581,36.9425 c 11.061,-5.039 9.236,-32.5933 -4.432,-66.9065 -2.969,-7.4558 -5.464,-13.555301 -5.543,-13.554401 -0.079,8e-4 -0.143,5.328801 -0.143,11.840001 0,14.406 -2.272,22.8322 -7.712,28.5997 -3.284,3.4823 -5.095,4.3587 -9.007,4.3587 -4.244,0 -5.788,-0.9206 -11.585,-6.905 l -6.688,-6.905 1.776,5.0329 c 6.97,19.7546 23.94,41.5466 34.496,44.2976 2.816,0.734 5.236,1.394 5.379,1.467 0.143,0.073 1.699,-0.523 3.459,-1.325 z m 94.014,136.858 c 4.272,-3.321 10.413,-9.369 13.648,-13.44 7.067,-8.892 16.362,-27.506 19.078,-38.207 8.616,-33.95 -1.89,-66.075 -25.246,-77.197 -4.363,-2.077 -9.464,-4.112 -11.335,-4.522 -3.371,-0.737 -3.351,-0.666 2.116,7.487 9.31,13.883 13.417,28.428 13.437,47.591 0.026,24.588 -10.248,56.707 -26.154,81.768 -2.234,3.52 -4.56,7.224 -5.168,8.232 -1.571,2.601 10.425,-4.558 19.624,-11.712 z m -362.2074,74.2 c -3.0628,-8.866 -3.0911,-22.188 -0.0637,-30.067 1.2878,-3.351 6.4022,-12.553 11.3655,-20.448 11.4697,-18.244 14.305,-27.513 12.1909,-39.855 -1.6482,-9.622 -9.1358,-25.63 -16.7403,-35.788 l -5.0888,-6.798 0.6787,7.485 c 0.923,10.179 -2.4411,17.633 -15.3901,34.101 -5.6087,7.133 -11.84407,16.426 -13.85641,20.65 -6.92387,14.533 -4.285595,30.814 8.22831,50.778 4.9231,7.854 19.4907,26.662 20.6511,26.662 0.1905,0 -0.6983,-3.024 -1.9752,-6.72 z m 336.3644,98.372 c -13.54,-14.15 -21.259,-31.956 -22.311,-51.466 -1.066,-19.791 4.592,-30.726 15.368,-29.698 2.647,0.253 4.814,0.277 4.814,0.054 0,-0.222 -1.136,-2.631 -2.525,-5.352 -7.617,-14.932 -22.74,-15.078 -35.87,-0.347 -6.073,6.814 -11.525,17.832 -11.525,23.289 0,1.34 -0.576,2.792 -1.28,3.228 -1.411,0.871 -1.968,-7.302 -1.484,-21.76 0.785,-23.422 8.896,-41.856 32.947,-74.88 22.701,-31.171 28.58,-41.969 33.993,-62.434 3.372,-12.745 4.989,-50.381 1.814,-42.191 -12.863,33.177 -37.368,51.505 -65.673,49.119 -8.118,-0.684 -18.237,-3.492 -18.237,-5.06 0,-0.296 3.827,-2.773 8.504,-5.506 22.896,-13.376 41.496,-38.1 47.33,-62.914 2.781,-11.833 1.826,-30.24 -2.108,-40.614 -3.972,-10.473 -11.33,-20.9954 -19.44,-27.8015 -6.403,-5.3737 -16.366,-12.0357 -16.366,-10.9438 0,0.2772 1.152,2.8891 2.56,5.8043 6.134,12.6956 8.406,39.607 4.68,55.435 -3.439,14.607 -11.741,24.226 -20.911,24.226 -18.065,-2.234 -39.584,-26.31 -48.812,-40.054 -15.523,-23.8453 -22.384,-55.2293 -19.365,-88.586501 0.765,-8.448 2.142,-18.9569 3.061,-23.35324 l 1.671,-7.99326 -5.042,2.83364 c -7.253,4.07682 -17.31,15.22956 -21,23.28936 -6.17,13.4776 -7.049,21.9247 -6.649,63.926101 0.318,33.4789 0.072,39.6419 -1.861,46.6329 -3.496,12.64 -8.455,21.446 -16.28,28.911 -6.393,6.098 -17.972,13.59 -17.972,11.629 0,-0.405 1.767,-4.88 3.927,-9.946 12.02,-28.182 13.273,-64.013 3.176,-90.837 -5.74,-15.2493 -15.071,-29.313301 -27.324,-41.180801 -14.453,-13.9995 -15.026,-14.0233 -8.551,-0.3558 12.492,26.370901 12.633,40.174401 0.783,76.559601 -4.262,13.088 -8.339,26.427 -9.059,29.643 -5.777,25.775 -3.039,57.83 7.561,88.532 1.437,4.163 2.324,7.859 1.97,8.213 -0.354,0.354 -0.643,0.044 -0.643,-0.689 0,-0.733 -6.681,-12.441 -14.846,-26.019 -25.317,-42.097 -28.602,-51.374 -29.6128,-83.62 l -0.6766,-21.584 -3.8908,6.224 c -6.137,9.818 -13.2147,25.704 -17.0334,38.232 -3.0805,10.106 -3.52,13.702 -3.5971,29.433 -0.0748,15.253 0.3617,19.443 2.9329,28.16 4.3686,14.808 11.9208,30.18 27.6708,56.32 26.68,44.279 35.173,66.702 35.203,92.941 0.011,10.102 -1.262,20.339 -2.53,20.339 -0.501,0 -2.007,-2.435 -3.346,-5.411 -4.909,-10.909 -18.078,-21.627 -44.1681,-35.947 -9.9321,-5.451 -17.192,-12.483 -19.2147,-18.612 -1.7363,-5.261 -0.7544,-15.212 2.0328,-20.602 3.1234,-6.04 0.2565,-4.645 -6.8579,3.338 -17.9966,20.191 -17.1975,32.612 4.4337,68.914 12.1992,20.472 14.6895,33.195 9.311,47.57 -2.1641,5.784 -5.1142,9.742 -13.8716,18.608 l -11.1229,11.262 160.9607,0 160.961,0 z"
     id="path2993"
     style="fill:#ffffff" />
</svg>
