<?xml version="1.0" encoding="UTF-8" standalone="no"?>
<!-- Created with Inkscape (http://www.inkscape.org/) -->

<svg
   xmlns:dc="http://purl.org/dc/elements/1.1/"
   xmlns:cc="http://creativecommons.org/ns#"
   xmlns:rdf="http://www.w3.org/1999/02/22-rdf-syntax-ns#"
   xmlns:svg="http://www.w3.org/2000/svg"
   xmlns="http://www.w3.org/2000/svg"
   version="1.1"
   width="409.60001pt"
   height="409.60001pt"
   id="svg2">
  <metadata
     id="metadata11">
    <rdf:RDF>
      <cc:Work
         rdf:about="">
        <dc:format>image/svg+xml</dc:format>
        <dc:type
           rdf:resource="http://purl.org/dc/dcmitype/StillImage" />
        <dc:title></dc:title>
      </cc:Work>
    </rdf:RDF>
  </metadata>
  <defs
     id="defs4" />
  <rect
     width="512"
     height="512"
     x="0"
     y="0"
     id="rect2994"
     style="fill:#000000" />
  <path
     d="m 204.6373,486.74169 c -7.258,-39.674 -29.62,-69.589 -88.8533,-118.863 -14.7995,-12.311 -21.064,-18.309 -21.064,-20.17 0,-1.457 5.5054,-19.658 12.2342,-40.448 6.7288,-20.789 12.8215,-39.671 13.5392,-41.959 2.2057,-7.031 4.9416,-5.272 4.9796,3.2 0.1783,39.729 13.6279,80.029 31.7273,95.067 6.686,5.556 18.973,11.224 26.48,12.217 l 6.4,0.846 -7.68,-5.104 c -9.591,-6.375 -18.56,-15.059 -18.56,-17.97 0,-1.215 1.277,-2.778 2.838,-3.472 7.846,-3.493 16.618,-22.28 21.281,-45.581 4.012,-20.045 5.51,-40.73 5.119,-70.678 -0.306,-23.464 -0.099,-26.815 1.72,-27.833 1.138,-0.637 19.139,-7.262 40.003,-14.723 38.349,-13.714 47.534,-15.762 37.839,-8.438 -9.363,7.074 -25.836,24.073 -32.079,33.103 -23.56,34.081 -25.67,74.472 -5.173,99.024 l 3.389,4.06 20.299,-47.179 c 11.164,-25.949 20.414,-47.321 20.554,-47.495 0.435,-0.539 78.034,-20.772 79.73,-20.789 3.781,-0.036 0.941,3.588 -7.009,8.945 -12.14,8.18 -28.923,22.387 -39.484,33.421 -21.886,22.869 -31.36,45.227 -28.431,67.092 1.202,8.971 6.748,22.924 8.645,21.751 0.574,-0.355 12.334,-16.453 26.134,-35.775 13.8,-19.321 25.623,-35.458 26.273,-35.86 0.65,-0.401 23.117,2.553 49.927,6.566 55.386,8.29 58.161,9.398 34.665,13.842 -11.719,2.216 -34.711,10.414 -48.338,17.236 -48.363,24.208 -76.744,62.57 -93.168,125.927 l -4.262,16.441 3.194,11.079 c 1.756,6.094 5.218,15.688 7.693,21.32 2.476,5.632 5.093,11.824 5.816,13.76 1.115,2.985 2.049,3.52 6.138,3.52 l 4.823,0 -2.558,-8.64 c -1.846,-6.235 -2.6,-12.738 -2.708,-23.36 -0.243,-23.79 5.726,-38.003 23.671,-56.372 11.646,-11.921 22.129,-19.314 55.539,-39.171 37.74,-22.431 49.76,-30.665 61.173,-41.904 10.611,-10.449 15.748,-19.325 20.773,-35.896 6.936,-22.871 8.524,-40.121 5.155,-56.015 -3.881,-18.316 -11.288,-31.489 -27.498,-48.903 -12.224,-13.133 -24.272,-24.322 -21.41,-19.885 1.168,1.811 3.699,7.571 5.624,12.8 3.083,8.374 3.502,11.335 3.521,24.866 0.02,14.255 -0.236,15.885 -3.563,22.659 -6.382,12.998 -18.581,21.501 -30.845,21.501 -20.433,0 -30.947,-25.546 -25.814,-62.72 6.069,-43.9587 6.347,-47.4178 4.722,-58.8316 -3.635,-25.542095 -17.842,-42.750395 -47.642,-57.708795 -9.663,-4.8505 -36.333,-15.2996 -39.05,-15.2996 -0.289,0 1.779,3.37736 4.597,7.50524 19.84,29.06616 20.362,64.463355 1.255,85.191855 -10.005,10.8539 -27.229,16.9029 -44.758,15.7189 -19.227,-1.299 -32.36,-9.5001 -39.953,-24.9505 -3.99,-8.1174 -4.206,-9.2882 -4.185,-22.6526 0.013,-7.9285 0.715,-16.003295 1.606,-18.460495 0.871,-2.4021 1.302,-4.649 0.958,-4.993 -1.134,-1.1338 -19.515,13.797395 -27.81,22.589595 -14.867,15.7598 -24.488,32.61 -31.341,54.887 -3.269,10.627 -3.458,12.648 -3.454,36.844 0.004,24.715 0.145,26.131 4.088,40.96 4.48,16.85 4.733,18.56 2.742,18.56 -2.546,0 -19.7845,-14.514 -33.3148,-28.05 -11.4243,-11.43 -14.4081,-15.296 -19.0697,-24.711 -4.5769,-9.243 -5.6274,-12.761 -6.1152,-20.48 -0.6798,-10.757 1.8218,-21.167 6.8774,-28.617 l 3.213,-4.734 -4.0414,0.808 c -13.7908,2.758 -32.297,17.02 -38.441,29.624 -2.601,5.336 -3.1196,8.315 -3.1196,17.92 0,14.152 2.1416,19.118 14.6127,33.883 10.1079,11.967 16.2147,23.739 18.8812,36.397 3.8346,18.203 -1.7118,33.238 -13.3379,36.156 -7.8409,1.968 -19.725,-5.304 -28.57415,-17.484 l -5.66187,-7.794 -0.773396,7.421 c -1.036204,9.943 0.869506,26.991 4.098356,36.664 8.65896,25.939 28.06796,47.44 75.06526,83.156 47.5421,36.13 61.1961,51.477 65.8521,74.018 l 1.55,7.503 6.619,0 6.618,0 z"
     id="path2987"
     style="fill:#ffffff" />
</svg>
