<?xml version="1.0" encoding="UTF-8" standalone="no"?>
<!-- Created with Inkscape (http://www.inkscape.org/) -->

<svg
   xmlns:dc="http://purl.org/dc/elements/1.1/"
   xmlns:cc="http://creativecommons.org/ns#"
   xmlns:rdf="http://www.w3.org/1999/02/22-rdf-syntax-ns#"
   xmlns:svg="http://www.w3.org/2000/svg"
   xmlns="http://www.w3.org/2000/svg"
   version="1.1"
   width="100%"
   height="100%"
   viewBox="0 0 512 512"
   id="svg2">
  <metadata
     id="metadata28">
    <rdf:RDF>
      <cc:Work
         rdf:about="">
        <dc:format>image/svg+xml</dc:format>
        <dc:type
           rdf:resource="http://purl.org/dc/dcmitype/StillImage" />
        <dc:title></dc:title>
      </cc:Work>
    </rdf:RDF>
  </metadata>
  <defs
     id="defs26" />
  <path
     d="M 0,0 H 512 V 512 H 0 z"
     id="path4" />
  <g
     transform="matrix(16.894032,0,0,16.894032,-3263.2599,-34417.391)"
     id="g6">
    <path
       d="m 203.7601,2042.7799 c 0.2217,0.8449 0.5126,1.4933 1.184,2.0006 -0.0635,-0.8232 0.2929,-2.413 1.0629,-3.1329 -0.2214,1.4593 -0.004,2.9041 1.5544,3.6566 0.832,-1.8106 0.9922,-3.2012 0.5556,-5.6321 1.9645,2.5536 1.9532,9.9061 -1.5829,10.6572 -3.2918,-0.9944 -3.6989,-5.14 -2.774,-7.5494 z"
       id="path8"
       style="fill:#ffffff" />
    <path
       d="m 204.4512,2050.9273 c 0.1691,1.5772 -1.4441,4.1989 -3.2106,4.8004 1.8322,-3.5069 1.9571,-6.3169 -0.4489,-9.1759 0.9124,8.8435 -4.1003,7.352 -3.0159,1.6139 -3.2517,4.2266 -2.7037,12.6741 2.62,13.5994 5.7061,-1.299 5.4672,-8.0407 4.0554,-10.8378 z"
       id="path10"
       style="fill:#ffffff" />
    <path
       d="m 210.8168,2047.8069 c -1.2831,3.3363 0.1743,4.4788 1.3724,3.4355 2.2386,-1.9493 -1.0866,-2.5908 1.103,-4.5797 0.2062,2.0523 2.289,2.4641 2.5531,-0.3604 1.3634,1.8698 0.3121,4.6335 0.1492,6.6531 -0.3838,4.7598 4.1536,2.1484 2.0559,-1.7863 -1.1788,-2.211 -0.4681,-4.7066 2.4164,-7.3735 -2.3454,3.7869 2.1495,8.57 0.1547,14.2007 -1.1291,3.1872 -1.8306,5.519 -5.0295,7.1532 -6.5691,-0.6957 -10.7945,-11.3918 -4.7752,-17.3426 z"
       id="path12"
       style="fill:#ffffff" />
    <path
       d="m 202.3459,2040.2445 c -1.7932,1.0795 -2.0991,3.6021 -1.9438,5.5215 -3.0128,-2.3837 -1.5808,-7.935 1.9438,-5.5215 z"
       id="path14"
       style="fill:#ffffff" />
    <path
       d="m 211.6913,2040.285 c 0.7985,1.5172 0.2289,4.4103 -0.4478,6.5464 1.9286,-1.5935 2.8508,-5.743 0.4478,-6.5464 z"
       id="path16"
       style="fill:#ffffff" />
    <path
       d="m 202.6444,2056.2936 c -0.2212,0.845 -0.5126,1.4933 -1.1841,2.0007 -0.3949,-0.8997 -1.2338,-2.8874 -1.9009,-3.5901 0.2214,1.4592 0.1183,2.9803 -0.7163,4.1137 -0.832,-1.8106 -0.9922,-3.2013 -0.5555,-5.6321 -1.9645,2.5536 -1.4961,9.9442 2.04,10.6952 3.2918,-0.9944 3.2417,-5.1781 2.3168,-7.5874 z"
       id="path18" />
    <path
       d="m 218.1105,2056.5939 c -0.5843,1.5675 -2.5623,3.4249 -4.0192,3.9209 1.5111,-2.8922 1.6141,-5.2097 -0.3703,-7.5675 0.7525,7.2934 -3.3816,6.0633 -2.4873,1.331 -2.6817,3.4858 -1.3726,10.2573 4.1416,11.2157 4.2869,-2.0617 3.8994,-6.5932 2.7351,-8.9001 z"
       id="path20" />
    <path
       d="m 207.9657,2046.881 c -0.1396,0.5331 -0.3234,0.9422 -0.7471,1.2624 0.0401,-0.5195 -0.1848,-1.5226 -0.6706,-1.9769 -0.0732,0.7245 -0.2375,1.4035 -0.7141,1.9263 0,0 -0.8927,-1.1438 -0.6172,-2.6776 -1.2395,1.6113 -1.0801,5.0406 1.1512,5.0864 2.077,-0.1725 2.1815,-2.1004 1.5979,-3.6206 z"
       id="path22" />
  </g>
</svg>
