<?xml version="1.0" encoding="UTF-8" standalone="no"?>
<!-- Created with Inkscape (http://www.inkscape.org/) -->

<svg
   xmlns:dc="http://purl.org/dc/elements/1.1/"
   xmlns:cc="http://creativecommons.org/ns#"
   xmlns:rdf="http://www.w3.org/1999/02/22-rdf-syntax-ns#"
   xmlns:svg="http://www.w3.org/2000/svg"
   xmlns="http://www.w3.org/2000/svg"
   version="1.1"
   width="512"
   height="512"
   id="svg2">
  <metadata
     id="metadata8">
    <rdf:RDF>
      <cc:Work
         rdf:about="">
        <dc:format>image/svg+xml</dc:format>
        <dc:type
           rdf:resource="http://purl.org/dc/dcmitype/StillImage" />
        <dc:title></dc:title>
      </cc:Work>
    </rdf:RDF>
  </metadata>
  <defs
     id="defs6" />
  <path
     d="m 0,0 512,0 0,512 -512,0 z"
     id="rect3046"
     style="fill:#000000" />
  <path
     d="m 268.10771,181.66963 c 8.80391,-3.29396 19.40558,-12.77115 24.2563,-21.68349 5.09749,-9.3658 7.12745,-18.12791 7.1138,-30.70614 -0.0273,-25.12422 -14.41679,-46.273505 -35.33627,-51.936143 -36.74049,-9.945187 -66.76247,39.062813 -48.31768,78.873973 10.53843,22.74612 31.82268,33.1073 52.28385,25.4518 z M 192,464.8911 c 0,-0.5659 -2.05956,-3.0139 -4.57678,-5.44 -11.04059,-10.6409 -22.54302,-28.944 -25.53906,-40.63875 -8.08237,-31.54855 25.78738,-50.18315 91.1854,-50.16874 47.87656,0.0102 80.2125,11.29258 88.66214,30.93431 6.22825,14.47793 -0.0102,33.46684 -17.89126,54.46339 -4.92825,5.78672 -8.96044,10.82672 -8.96044,11.2 0,0.37328 23.938,0.67869 53.19555,0.67869 29.25754,0 52.92747,-0.43374 52.59983,-0.96387 -0.32764,-0.53013 -8.69531,-6.14613 -18.59483,-12.48 L 384.08142,440.96 l 21.7193,-21.77334 c 11.9456,-11.97534 21.71928,-22.27751 21.71928,-22.89372 0,-2.2875 -20.27119,-26.24586 -35.31028,-41.73294 l -15.53718,-16 -1.49699,-17.92 c -2.621,-31.37528 -7.88788,-57.55808 -16.70219,-83.03018 -1.42935,-4.1306 -2.3346,-7.93769 -2.01165,-8.46023 0.32294,-0.52252 4.7932,-1.33118 9.93393,-1.79703 12.14973,-1.10098 37.23528,-6.3262 50.22947,-10.46261 13.96414,-4.44519 31.78222,-13.42128 40.57694,-20.44118 14.09991,-11.25448 22.57655,-28.52974 21.07028,-42.9409 -4.01396,-38.40364 -49.60467,-75.143774 -117.44568,-94.645848 -21.17723,-6.087756 -21.61957,-6.087925 -27.6969,-0.01062 -5.46322,5.463244 -9.28975,14.164939 -9.28975,21.1253 0,2.200363 1.49742,7.005588 3.3276,10.678278 8.32313,16.70235 29.7778,21.27141 46.35099,9.87106 l 6.19212,-4.259425 1.72231,2.746695 c 8.52662,13.59788 13.52989,30.6269 12.1808,41.45837 -1.14255,9.17326 -7.06773,17.66496 -15.28468,21.90528 -12.21261,6.30226 -34.87306,5.04283 -56.63292,-3.14755 -4.48507,-1.68818 -8.38729,-3.06941 -8.67161,-3.06941 -0.28432,0 -1.91878,3.06202 -3.63214,6.80448 -11.85785,25.90098 -38.00363,41.37074 -62.75571,37.13089 -18.13094,-3.1057 -35.77328,-16.73138 -44.45697,-34.33537 -2.43089,-4.928 -4.52405,-9.16026 -4.65147,-9.40502 -0.12736,-0.24475 -3.40425,0.74201 -7.28184,2.1928 -35.83811,13.40875 -63.53887,9.41594 -71.78161,-10.34667 -2.49506,-5.98212 -2.53456,-18.93801 -0.0824,-27.02032 2.58235,-8.51133 9.73023,-22.744387 11.82621,-23.548691 0.94966,-0.364419 2.71319,0.20182 3.91898,1.258307 3.60282,3.156744 9.98515,5.983564 16.81819,7.448984 17.19581,3.68784 34.54424,-9.911462 34.62602,-27.143071 0.0362,-7.621553 -2.36985,-13.247597 -8.7079,-20.361808 L 171.77294,53.12 155.63663,57.262747 c -20.08268,5.155922 -37.02444,11.415821 -54.8878,20.280783 -19.068621,9.463095 -31.538347,18.260049 -45.186072,31.87719 -9.546458,9.52506 -12.651036,13.65708 -17.28,22.99872 C 32.739273,143.60666 32.64,144.03388 32.64,156.7035 c 0,12.26152 0.21617,13.29521 4.390442,20.99427 10.096051,18.62122 34.642884,33.9438 68.115318,42.51886 12.74541,3.26514 37.20547,7.60297 42.93869,7.61488 2.24646,0.005 4.44911,0.59848 4.89476,1.31958 0.44567,0.72111 -0.65389,5.76111 -2.44345,11.2 C 142.52933,264.68434 136.46237,295.6863 134.94879,320 l -0.83667,13.44 -11.78313,12.16 C 102.98298,365.56479 79.36,393.35863 79.36,396.1556 c 0,0.72196 9.765857,11.06583 21.7019,22.98638 l 21.70191,21.67374 -17.86191,11.92543 c -9.824043,6.55897 -17.8619,12.20743 -17.8619,12.55214 0,0.34469 23.616,0.62671 52.48,0.62671 28.864,0 52.48,-0.463 52.48,-1.0289 z"
     id="path3015"
     style="fill:#ffffff" />
</svg>
