<?xml version="1.0" encoding="UTF-8" standalone="no"?>
<!-- Created with Inkscape (http://www.inkscape.org/) -->

<svg
   xmlns:dc="http://purl.org/dc/elements/1.1/"
   xmlns:cc="http://creativecommons.org/ns#"
   xmlns:rdf="http://www.w3.org/1999/02/22-rdf-syntax-ns#"
   xmlns:svg="http://www.w3.org/2000/svg"
   xmlns="http://www.w3.org/2000/svg"
   version="1.1"
   width="512"
   height="512"
   id="svg2">
  <metadata
     id="metadata8">
    <rdf:RDF>
      <cc:Work
         rdf:about="">
        <dc:format>image/svg+xml</dc:format>
        <dc:type
           rdf:resource="http://purl.org/dc/dcmitype/StillImage" />
        <dc:title></dc:title>
      </cc:Work>
    </rdf:RDF>
  </metadata>
  <defs
     id="defs6" />
  <path
     d="m 0,0 512,0 0,512 -512,0 z"
     id="rect3018"
     style="fill:#000000" />
  <path
     d="M 385.06666,476.37315 C 384.832,475.78638 379.312,470.52495 372.8,464.68108 c -6.512,-5.84387 -11.83146,-10.97979 -11.82103,-11.41315 0.0102,-0.43336 26.49889,-13.70747 58.86326,-29.49801 32.36435,-15.79054 58.6134,-28.94097 58.3312,-29.22316 -0.28219,-0.28218 -9.48818,-1.80819 -20.45777,-3.3911 -10.96959,-1.58292 -20.32154,-3.25486 -20.78209,-3.71543 -0.46057,-0.46056 0.1381,-36.34189 1.33037,-79.73629 1.19226,-43.3944 1.99791,-79.06875 1.79032,-79.27634 -0.20759,-0.20761 -6.97884,5.58178 -15.04723,12.8653 -8.06838,7.28351 -14.99139,13.04398 -15.38446,12.80104 -0.39308,-0.24293 -24.31895,-36.1905 -53.16863,-79.88351 -28.84966,-43.69299 -52.75812,-79.452744 -53.12988,-79.466116 -0.37178,-0.01338 -2.29546,8.614936 -4.27487,19.174016 l -3.59891,19.19833 -15.56513,-11.94041 C 271.32431,114.60902 243.008,92.935863 216.96,73.013676 190.912,53.091488 168.86609,36.207345 167.96906,35.493357 167.07205,34.77937 166.12453,34.421279 165.86346,34.697599 165.60238,34.97392 166.6537,42.688 168.19971,51.84 l 2.81091,16.64 -24.21134,-3.474787 C 111.61525,59.955635 36.407072,52.766262 34.867969,54.305364 c -0.281044,0.281045 2.84669,1.150889 6.950521,1.932989 55.894418,10.652236 100.24342,24.811886 144.87732,46.256087 48.9255,23.5061 88.51625,51.15748 123.42638,86.20472 81.71345,82.03438 94.4829,176.03799 31.22994,229.90236 -34.46869,29.35253 -86.19436,47.10932 -156.33584,53.6682 -8.41705,0.78707 -15.56905,1.69636 -15.89333,2.02066 -0.32429,0.32429 9.15438,0.66967 21.0637,0.7675 11.90934,0.0978 50.16534,0.56222 85.01334,1.03195 102.55063,1.38234 110.3142,1.40236 109.86666,0.28332 z"
     id="path2989"
     style="fill:#ffffff" />
</svg>
