<?xml version="1.0" encoding="UTF-8" standalone="no"?>
<!-- Created with Inkscape (http://www.inkscape.org/) -->

<svg
   xmlns:dc="http://purl.org/dc/elements/1.1/"
   xmlns:cc="http://creativecommons.org/ns#"
   xmlns:rdf="http://www.w3.org/1999/02/22-rdf-syntax-ns#"
   xmlns:svg="http://www.w3.org/2000/svg"
   xmlns="http://www.w3.org/2000/svg"
   version="1.1"
   width="512"
   height="512"
   id="svg2">
  <metadata
     id="metadata8">
    <rdf:RDF>
      <cc:Work
         rdf:about="">
        <dc:format>image/svg+xml</dc:format>
        <dc:type
           rdf:resource="http://purl.org/dc/dcmitype/StillImage" />
        <dc:title></dc:title>
      </cc:Work>
    </rdf:RDF>
  </metadata>
  <defs
     id="defs6" />
  <path
     d="m 0,0 512,0 0,512 -512,0 z"
     id="rect3028"
     style="fill:#000000" />
  <path
     d="m 248.32,286.62134 c -16.92548,-3.38695 -28.97215,-21.8001 -25.66647,-39.23082 3.14527,-16.58494 16.13981,-27.1743 33.34647,-27.1743 9.9906,0 16.82108,2.7702 23.63734,9.58644 6.81005,6.81005 9.58082,13.64179 9.61455,23.70602 0.0728,21.75025 -19.31891,37.43762 -40.93189,33.11266 z m 12.46417,66.38845 c 2.38691,-7.8829 6.29685,-18.56825 8.68875,-23.7452 15.80629,-34.21064 44.84914,-57.97274 86.68681,-70.92485 7.56785,-2.34285 13.75985,-4.55888 13.76,-4.92448 1.5e-4,-0.36561 -4.79391,-1.98756 -10.65346,-3.60435 C 307.6901,235.5798 275.798,204.31411 260.47496,152.96 c -4.85916,-16.28513 -4.66937,-15.9467 -6.10146,-10.88 -11.05291,39.10525 -27.44395,65.9503 -51.29658,84.01292 -10.94924,8.2914 -33.4016,18.87072 -49.08491,23.12828 -11.98017,3.25226 -16.52085,5.4988 -11.11412,5.4988 1.14283,0 7.998,1.98099 15.23369,4.4022 50.26194,16.8187 78.74896,45.95978 92.94982,95.08394 2.28414,7.90138 4.42971,14.08941 4.76794,13.75118 0.33824,-0.33822 2.56791,-7.06462 4.95483,-14.94753 z m -21.34974,38.51442 c -31.90148,-3.69623 -65.71782,-22.07126 -86.63365,-47.07474 -14.17087,-16.94032 -25.04515,-39.17721 -29.48276,-60.28947 -3.08317,-14.66843 -3.08317,-40.37157 0,-55.04 8.57958,-40.81797 35.60212,-75.58108 73.13737,-94.08741 16.76065,-8.26366 28.34877,-11.61956 46.79095,-13.55056 25.80316,-2.70175 49.46667,1.65654 73.55366,13.54694 42.63357,21.0458 69.51329,59.89273 74.94698,108.31444 1.7245,15.36762 0.25668,33.64876 -3.91813,48.79898 -3.01282,10.9334 -3.29432,11.35282 -6.75416,10.06317 -14.56499,-5.42912 -33.36767,-0.72169 -45.5003,11.39143 -9.05577,9.04121 -12.37439,17.45303 -12.37439,31.36588 0,9.98672 0.46673,12.46099 3.50104,18.56 4.193,8.42795 4.62124,7.87557 -12.46104,16.0736 -23.26866,11.16697 -47.7209,15.06588 -74.80557,11.92774 z M 282.24,408.87406 c 19.2649,-3.34086 41.17467,-11.70922 57.2873,-21.88066 l 4.9437,-3.12084 7.28449,2.73143 c 13.94671,5.22953 32.39435,2.44258 43.46379,-6.56623 6.29317,-5.12166 12.83339,-14.94516 15.088,-22.66234 3.82555,-13.09433 0.43969,-31.26204 -7.37682,-39.58233 l -2.70449,-2.8788 3.42529,-11.21715 C 416.1154,262.87958 412.44599,221.65713 393.06831,184.80765 353.72396,109.98861 261.6971,80.852399 186.39967,119.37522 c -43.99529,22.50838 -73.58692,63.08138 -82.2488,112.7711 -2.74413,15.74194 -1.76835,44.37486 2.03428,59.69368 15.12195,60.91836 62.88723,105.96626 124.11466,117.05371 13.31771,2.41165 37.97401,2.40232 51.94019,-0.0197 z m -49.28,45.41038 C 191.53908,448.95281 155.19415,432.65568 124.16,405.49832 88.555252,374.34132 65.803779,332.5178 58.153481,284.16 c -2.885859,-18.24161 -1.942354,-51.5423 1.976503,-69.76 7.644664,-35.53797 25.51915,-70.58692 47.767786,-93.6648 l 6.38675,-6.6248 4.51274,2.41868 c 14.6528,7.85343 34.9075,5.2109 47.13724,-6.14977 9.09744,-8.45094 13.61298,-19.225038 13.491,-32.189466 l -0.0803,-8.525381 9.84736,-3.429182 c 23.50482,-8.185165 41.79158,-11.20347 67.69255,-11.172933 38.87434,0.04584 70.71617,8.910531 104.71481,29.152391 24.35231,14.498698 48.99466,39.125031 65.6954,65.652681 30.73452,48.81907 38.11348,113.98347 19.19268,169.49258 -27.99469,82.12986 -105.53781,137.19606 -191.73447,136.1577 -7.41045,-0.0892 -17.21757,-0.64424 -21.79357,-1.23326 z m 59.52,16.85275 c 74.83348,-12.59247 139.11823,-64.05562 166.78683,-133.52115 12.73879,-31.98236 17.88996,-64.37481 15.54501,-97.75287 C 467.5936,137.11826 390.55516,53.974016 288,38.245274 c -15.36521,-2.356542 -50.12477,-2.046869 -66.12607,0.589117 -13.77692,2.269553 -29.21409,6.398849 -42.50846,11.370613 l -8.06054,3.014439 -4.69246,-4.426463 C 158.61066,41.244782 149.4507,37.762039 137.6,37.762039 c -12.15744,0 -21.25489,3.621619 -29.29561,11.662346 C 97.201879,60.526892 93.002287,79.15467 98.402445,93.345603 l 2.643055,6.945607 -6.042752,6.9501 C 64.241992,142.62099 47.504946,177.62771 40.097283,222.08 c -2.403663,14.42403 -2.679715,47.44846 -0.524278,62.72 11.831719,83.82921 70.729905,153.71969 150.880025,179.0391 31.49402,9.94896 69.93347,12.69856 102.02697,7.29809 z"
     id="path2989"
     style="fill:#ffffff" />
</svg>
