<?xml version="1.0" encoding="UTF-8" standalone="no"?>
<!-- Created with Inkscape (http://www.inkscape.org/) -->

<svg
   xmlns:dc="http://purl.org/dc/elements/1.1/"
   xmlns:cc="http://creativecommons.org/ns#"
   xmlns:rdf="http://www.w3.org/1999/02/22-rdf-syntax-ns#"
   xmlns:svg="http://www.w3.org/2000/svg"
   xmlns="http://www.w3.org/2000/svg"
   version="1.1"
   width="512"
   height="512"
   id="svg2">
  <metadata
     id="metadata8">
    <rdf:RDF>
      <cc:Work
         rdf:about="">
        <dc:format>image/svg+xml</dc:format>
        <dc:type
           rdf:resource="http://purl.org/dc/dcmitype/StillImage" />
        <dc:title></dc:title>
      </cc:Work>
    </rdf:RDF>
  </metadata>
  <defs
     id="defs6" />
  <path
     d="m 0,0 512,0 0,512 -512,0 z"
     id="rect3026"
     style="fill:#000000;fill-opacity:1;fill-rule:nonzero;stroke:none" />
  <path
     d="m 250.67893,279.45728 c -17.5797,-6.44928 -23.08302,-29.34836 -10.37864,-43.18513 3.71854,-4.04999 10.34696,-8.18815 13.21499,-8.25019 0.55841,-0.0121 1.77836,2.12655 2.71102,4.7525 2.08927,5.88249 7.57777,12.44396 13.10766,15.67014 2.29132,1.33678 7.20354,2.98639 10.91604,3.6658 l 6.75,1.2353 -0.01,3.57715 c -0.0221,8.10478 -7.24815,18.046 -15.99023,21.99861 -5.31503,2.40312 -14.56618,2.64705 -20.32107,0.53582 z m 1.10195,38.57259 c -24.84895,-3.29867 -45.78343,-20.72712 -53.39364,-44.45146 -3.25678,-10.15279 -3.67798,-25.46878 -0.97609,-35.49316 3.61734,-13.42078 11.7732,-26.20334 21.82929,-34.21271 6.30726,-5.02355 19.24032,-11.24065 26.55878,-12.76719 8.59468,-1.79274 30.20078,-1.2028 30.20078,0.8246 0,0.36755 -1.65719,1.26752 -3.68265,1.99994 -4.00694,1.44892 -12.90988,9.21094 -13.80704,12.03763 -0.41328,1.30211 -2.02988,1.90951 -6.23821,2.34385 -7.80884,0.80594 -18.62835,6.3306 -25.12924,12.83149 -24.39585,24.39584 -15.00287,65.19451 17.75099,77.10192 7.64185,2.77813 22.33176,2.8318 30.11391,0.11003 11.9009,-4.1623 22.46798,-13.68339 27.58536,-24.85481 2.95912,-6.45986 4.81505,-17.36544 4.00039,-23.50664 -0.5958,-4.49137 -0.36037,-5.23737 3.30356,-10.4678 2.25561,-3.22 4.24123,-7.42909 4.63661,-9.82867 1.14717,-6.96219 1.94169,-7.3454 4.21904,-2.03489 5.31007,12.38245 6.84593,29.7249 3.70873,41.8779 -8.16721,31.63844 -38.88329,52.71102 -70.68057,48.48997 z m 26.1356,41.43496 c 23.16571,-3.75693 42.61465,-13.74999 59.11151,-30.3721 C 358.57143,307.38572 368.95473,280.62293 367.71399,250 365.76761,201.96053 334.15008,163.38929 286,150.31449 c -5.08731,-1.38142 -10.41205,-1.76426 -24.5,-1.7615 -15.46663,0.003 -19.14757,0.31576 -26.15366,2.22196 -35.72828,9.72089 -63.27913,35.32675 -75.02128,69.72505 -9.16562,26.85041 -6.33858,59.36221 7.34762,84.5 21.56644,39.61164 66.11663,61.62121 110.2438,54.46483 z M 226.5,424.5432 c -14.3391,-2.61442 -32.87461,-8.77638 -46,-15.29227 -11.54046,-5.72907 -32.0513,-19.6996 -36.93973,-25.16073 l -1.93973,-2.16698 8.23695,-8.27997 8.23695,-8.27996 -6.61266,-6.84446 -6.61266,-6.84447 -8.37676,8.33324 c -9.703,9.6526 -8.53708,9.78556 -17.43904,-1.98883 C 108.74938,344.39002 100.40321,328.90274 93.714665,311 90.947023,303.59206 86.279443,284.43563 85.812723,278.56928 L 85.5,274.63856 110.68378,263.56928 c 13.85108,-6.0881 25.41491,-11.30811 25.6974,-11.60001 0.28249,-0.2919 -10.82521,-5.48742 -24.68378,-11.54559 -21.416494,-9.36207 -25.246588,-11.35509 -25.525206,-13.28226 -0.53435,-3.69605 2.700155,-17.79228 7.030949,-30.64142 6.190089,-18.36554 14.076327,-33.12288 26.586087,-49.75 3.62079,-4.8125 6.84688,-8.75 7.16909,-8.75 0.32221,0 4.39097,3.825 9.04168,8.5 4.65071,4.675 8.79495,8.5 9.2094,8.5 0.41446,0 3.73465,-2.98109 7.37821,-6.62464 l 6.62464,-6.62465 -9.20993,-9.24838 -9.20993,-9.24839 6.8538,-5.51155 c 14.93861,-12.01301 32.18674,-21.973258 49.14462,-28.379442 8.79693,-3.323221 26.65127,-8.086266 33.20919,-8.859293 3.025,-0.356578 6.21016,-0.84655 7.07813,-1.088827 1.22326,-0.341449 3.89355,4.90298 11.87497,23.322332 5.66326,13.06956 10.6185,24.11823 11.01163,24.5526 0.39314,0.43437 5.3994,-10.05964 11.12503,-23.32002 L 281.5,79.859953 l 5,0.627038 c 13.15799,1.650112 33.51146,8.11339 48.22752,15.31473 13.65687,6.683029 22.44489,12.438989 38.11548,24.964829 1.38461,1.10676 0.42154,2.4344 -7.63326,10.52283 l -9.21778,9.25628 6.77698,6.72505 6.77698,6.72505 8.95619,-8.99788 C 383.42802,140.04905 387.75698,136 388.12202,136 c 0.99578,0 14.87284,18.51124 19.81074,26.42645 7.65086,12.26391 15.90693,31.86656 19.61544,46.57355 1.54133,6.11251 4.44623,21.38701 4.10697,21.59523 -0.0854,0.0524 -10.85782,4.73973 -23.93883,10.41634 -13.08101,5.67661 -23.43101,10.66635 -23,11.08831 0.43101,0.42196 10.00866,4.79965 21.28366,9.7282 11.275,4.92855 21.7438,9.53356 23.264,10.23336 3.07966,1.41766 3.07379,0.63642 0.1236,16.43856 -4.82984,25.87016 -21.7869,60.11204 -38.75903,78.26725 l -3.05434,3.26725 -8.56044,-8.52077 -8.56044,-8.52078 -6.95222,7.00591 -6.95223,7.00591 8.34929,8.39289 c 4.74337,4.76814 8.05443,8.86999 7.66655,9.49759 -2.54406,4.11638 -27.47402,20.3475 -40.06474,26.08491 -15.14306,6.90047 -35.86169,13.25259 -46.3574,14.21271 L 282.78519,425.5 271.74974,400.19285 c -6.06949,-13.91893 -11.3773,-24.94393 -11.79512,-24.5 -0.41782,0.44393 -5.59526,11.94465 -11.50543,25.55715 -9.25673,21.32041 -11.03699,24.73749 -12.84747,24.65975 -1.15595,-0.0496 -5.25172,-0.66458 -9.10172,-1.36655 z m 44.95138,44.90124 10.39732,-23.83482 9.82565,-1.67993 c 19.14852,-3.27391 35.81194,-8.69627 52.76525,-17.17008 12.97798,-6.48682 20.82951,-11.42578 33.1572,-20.85736 l 10.0968,-7.72478 7.64379,7.64379 7.64378,7.64378 7.01177,-6.95803 7.01176,-6.95803 -7.67238,-7.71765 -7.67239,-7.71765 4.47412,-5.30684 c 23.45266,-27.81765 37.73845,-58.60066 43.73884,-94.24839 l 1.6734,-9.94156 24.97686,-10.88847 c 13.73727,-5.98866 25.3162,-11.21431 25.73097,-11.61256 0.41476,-0.39825 -10.9281,-5.81518 -25.20637,-12.03762 l -25.96049,-11.31352 -0.62133,-4.63236 c -1.13239,-8.44252 -6.26267,-28.49147 -9.76109,-38.14602 -7.5977,-20.96726 -22.84273,-46.78475 -35.57616,-60.24831 l -3.55796,-3.76197 7.71803,-7.76356 7.71802,-7.76356 -6.28029,-6.22447 C 407.27232,96.801011 404.01888,94 403.49661,94 c -0.52227,0 -4.21606,3.244677 -8.20842,7.21039 l -7.25883,7.2104 -3.26468,-3.05185 C 376.1975,97.360269 359.0785,86.059664 344.38568,78.713921 328.98662,71.015093 304.14537,63.012562 290.79047,61.448387 287.65022,61.08059 284.46129,60.266741 283.70395,59.639833 282.94661,59.012925 278.14164,48.825 273.02623,37 267.91083,25.175 262.92543,13.925 261.94756,12 L 260.16962,8.5 257.2633,15 c -1.59847,3.575 -6.6499,15.103157 -11.22539,25.618127 l -8.31908,19.118127 -8.60942,1.174436 c -33.75571,4.604715 -75.06733,23.744682 -97.63998,45.2373 l -4.03056,3.83771 -7.94598,-7.99285 C 115.12261,97.596783 111.07336,94 110.49457,94 c -0.57879,0 -3.95288,2.926543 -7.49797,6.50343 l -6.445621,6.50343 8.324271,8.36774 8.32426,8.36773 -5.18727,6.37884 C 86.803131,156.20217 72.571157,187.63728 67.094006,220.5 l -1.666676,10 -23.713665,10.40944 c -13.042516,5.7252 -23.701261,10.6752 -23.686101,11 0.01516,0.32481 10.418983,5.07501 23.119605,10.55601 16.601561,7.16446 23.318535,10.5373 23.897866,12 0.443203,1.119 1.319986,5.63455 1.948407,10.03455 3.171996,22.2093 13.569705,50.04094 26.318623,70.44729 4.721828,7.55792 18.120755,25.58414 19.778115,26.60844 0.69074,0.42691 -2.27145,4.10078 -7.71961,9.5743 l -8.840435,8.88159 6.729125,6.72912 6.72912,6.72912 8.83461,-8.79367 c 8.07796,-8.04054 8.95616,-8.64723 10.25378,-7.08369 2.17216,2.61729 19.74231,15.70626 27.26095,20.30817 22.22791,13.60499 47.57982,22.93439 72.6489,26.73453 5.21764,0.79092 9.77674,1.75906 10.13133,2.15142 0.35459,0.39236 4.04454,8.58838 8.19989,18.21338 11.4319,26.47961 12.72629,29.28921 13.25156,28.76394 0.26657,-0.26657 5.16346,-11.21035 10.88198,-24.3195 z"
     id="path2989"
     style="fill:#ffffff" />
</svg>
