<?xml version="1.0" encoding="UTF-8" standalone="no"?>
<!-- Created with Inkscape (http://www.inkscape.org/) -->

<svg
   xmlns:dc="http://purl.org/dc/elements/1.1/"
   xmlns:cc="http://creativecommons.org/ns#"
   xmlns:rdf="http://www.w3.org/1999/02/22-rdf-syntax-ns#"
   xmlns:svg="http://www.w3.org/2000/svg"
   xmlns="http://www.w3.org/2000/svg"
   version="1.1"
   width="512"
   height="512"
   id="svg2">
  <metadata
     id="metadata8">
    <rdf:RDF>
      <cc:Work
         rdf:about="">
        <dc:format>image/svg+xml</dc:format>
        <dc:type
           rdf:resource="http://purl.org/dc/dcmitype/StillImage" />
        <dc:title></dc:title>
      </cc:Work>
    </rdf:RDF>
  </metadata>
  <defs
     id="defs6" />
  <path
     d="m 0,0 512,0 0,512 -512,0 z"
     id="rect3038"
     style="fill:#000000;fill-opacity:1;fill-rule:nonzero;stroke:none" />
  <path
     d="m 138.92269,156.07948 c 6.30825,-3.89871 25.94843,-12.09128 41.18981,-17.18162 16.00981,-5.34698 31.91545,-9.08913 48.48195,-11.40642 11.92599,-1.66818 49.69209,-1.67838 60.23516,-0.0163 32.18454,5.0739 54.7266,11.94647 82.52512,25.16008 6.2284,2.96057 11.43569,5.26977 11.57177,5.13155 0.57316,-0.58217 -6.0133,-12.61896 -11.12429,-20.3297 -6.89754,-10.40603 -22.23373,-26.31563 -32.47558,-33.68982 C 324.31939,92.941994 304.43512,84.076497 286.38102,80.141232 276.29811,77.943453 251.08518,77.105661 240.4441,78.61481 c -41.89859,5.942178 -78.0184,29.96518 -99.48705,66.16805 -5.17618,8.72866 -7.15931,13.22236 -5.83524,13.22236 0.37673,0 2.08713,-0.86659 3.80088,-1.92574 z m 313.43022,47.71425 c 2.71318,-12.32898 6.83889,-51.33189 8.88407,-83.98642 2.03874,-32.551897 3.09247,-95.984472 1.59448,-95.984472 -0.62961,0 -5.43911,0.639623 -10.68778,1.421385 C 406.3207,32.069322 347.35897,36.864849 292.9922,38.188467 l -26.19985,0.637864 0,10.448477 0,10.448476 9.54948,1.213943 c 28.93416,3.67815 53.04363,13.416362 75.80927,30.620609 24.23175,18.312194 43.33402,45.021524 53.10991,74.259744 2.41475,7.22217 2.55128,7.39376 9.95056,12.50489 10.58241,7.30994 20.39218,14.80143 28.36852,21.66439 3.77081,3.24447 7.17819,5.92414 7.57195,5.95481 0.39375,0.0307 0.93414,-0.93589 1.20087,-2.14794 z M 72.478572,201.01306 c 8.689209,-7.3057 22.195777,-17.5951 32.779428,-24.97161 3.85405,-2.68615 4.65189,-3.93648 7.18734,-11.26348 7.85428,-22.69741 18.62832,-40.27226 35.2912,-57.56781 24.90433,-25.849896 55.50768,-41.151441 92.38185,-46.190535 l 9.04416,-1.235944 0,-10.4791 0,-10.479099 -26.68956,-0.640363 C 168.83465,36.898172 97.675333,31.077325 58.662753,24.785408 c -3.23213,-0.521275 -6.498745,-0.951102 -7.259145,-0.955172 -2.843409,-0.01522 0.06796,90.752384 4.256538,132.705834 1.552319,15.54827 6.526147,52.39968 7.072376,52.39968 0.177649,0 4.563372,-3.56521 9.74605,-7.92269 z m 259.205648,73.521 c 29.13755,-9.10788 63.77613,-27.8935 91.81748,-49.79558 5.65623,-4.41787 10.42344,-8.43599 10.59381,-8.92913 0.88542,-2.56304 -36.34346,-29.12052 -56.13746,-40.04604 -17.1437,-9.46265 -42.1859,-20.01055 -54.72576,-23.05076 -2.72357,-0.66031 -2.65941,-0.50702 1.95887,4.68066 9.06682,10.18468 16.65238,25.50397 19.45894,39.29798 2.02981,9.97631 2.04249,26.2367 0.0281,35.98913 -2.89556,14.01829 -10.69048,29.79161 -19.64372,39.74975 -2.50513,2.78631 -4.16586,5.06602 -3.69051,5.06602 0.47535,0 5.12847,-1.33291 10.34027,-2.96203 z m -136.58502,1.24802 c -10.59309,-12.28834 -17.88254,-25.46215 -21.54245,-38.93247 -1.748,-6.43349 -2.12596,-10.46418 -2.11237,-22.52697 0.0148,-13.15911 0.29447,-15.6059 2.68099,-23.45808 3.42126,-11.25668 9.34455,-22.59476 16.52382,-31.62912 6.52856,-8.21551 6.76602,-8.12675 -7.9641,-2.97721 -19.96092,6.97818 -43.10187,18.45149 -62.30584,30.8913 -9.45679,6.12585 -27.756999,19.54755 -34.723741,25.46701 l -3.36968,2.86314 9.974199,7.94611 c 27.694862,22.06359 58.794902,39.26977 90.790772,50.23023 12.64102,4.33029 14.18312,4.60241 12.0484,2.12606 z m 73.55759,-36.20367 c 5.36796,-1.91241 11.3483,-7.2211 14.03226,-12.45633 3.13744,-6.11974 3.50556,-16.46948 0.80877,-22.73835 -4.3061,-10.0098 -13.67944,-16.26178 -24.52956,-16.36113 -23.99858,-0.21975 -36.17984,28.75389 -19.21946,45.71428 7.93248,7.93248 17.5716,9.88029 28.90799,5.84153 z m -15.5765,19.23007 c -19.73641,-2.55387 -35.24343,-17.74378 -38.32572,-37.54197 -2.93508,-18.85262 7.637,-38.58121 25.03848,-46.72433 29.5496,-13.82794 63.23834,7.66479 63.23834,40.34478 0,26.59111 -23.58907,47.33275 -49.9511,43.92152 z m 23.99612,24.0348 c 24.01993,-6.59793 43.28197,-26.07633 49.55025,-50.10682 2.6972,-10.34018 2.71272,-25.44958 0.0366,-35.70485 -7.71692,-29.57301 -33.51427,-50.81539 -63.73393,-52.48059 -42.09077,-2.31933 -76.65306,32.21198 -74.20916,74.14263 1.07417,18.42972 7.34027,32.20732 20.74415,45.6112 11.16699,11.16699 21.5161,16.79372 36.83351,20.02607 6.10071,1.28741 23.78816,0.43251 30.77851,-1.48764 z m 2.44794,67.57303 c 42.57681,-6.90479 79.09144,-32.47837 98.94564,-69.29812 2.26624,-4.20275 3.89463,-7.86719 3.61863,-8.14318 -0.27599,-0.276 -3.6641,1.0907 -7.52912,3.03709 -9.84983,4.9603 -26.03109,11.43948 -38.71709,15.50283 -62.1083,19.89338 -128.41238,15.1255 -189.34512,-13.61567 -6.18033,-2.91519 -11.37005,-5.30033 -11.53273,-5.30033 -0.72709,0 2.93463,7.46259 6.61456,13.48052 21.00029,34.34251 55.64139,57.62657 95.83023,64.41242 10.39537,1.75526 31.05422,1.71818 42.115,-0.0755 z m -1.6965,125.48853 c 60.63911,-38.07424 105.23156,-85.52251 134.45957,-143.07076 14.94141,-29.41876 28.02136,-67.36663 35.20636,-102.14159 l 0.66506,-3.21881 -8.58197,6.8856 c -4.72009,3.78709 -13.88902,10.65191 -20.3754,15.25519 l -11.79343,8.36959 -3.09329,8.55608 c -8.16386,22.58126 -20.8036,42.24241 -37.95708,59.04234 -24.45444,23.95041 -55.23941,38.64289 -90.18406,43.0414 l -9.38126,1.18082 0,56.19649 c 0,30.90806 0.22797,56.19649 0.50659,56.19649 0.27862,0 5.01663,-2.83178 10.52891,-6.29284 z m -28.6653,-49.53487 c 0,-31.24392 -0.33056,-56.81521 -0.73457,-56.82508 -3.59653,-0.0879 -22.33247,-3.26662 -28.4302,-4.8235 -31.67691,-8.08783 -61.89564,-27.78557 -82.03433,-53.47315 -11.39249,-14.53151 -18.70364,-27.71118 -25.12672,-45.29551 -2.83983,-7.77453 -3.21696,-8.28568 -8.98048,-12.17181 -8.674846,-5.84912 -20.454352,-14.77048 -29.877458,-22.62807 l -8.190363,-6.82965 0.693763,4.30434 c 1.522245,9.44452 10.449736,42.36105 15.246221,56.2143 24.518797,70.81544 64.647167,125.54012 125.808217,171.56979 12.98576,9.77305 38.93453,26.75625 40.89135,26.76296 0.40401,10e-4 0.73457,-25.56069 0.73457,-56.80462 z"
     id="path2989"
     style="fill:#ffffff" />
</svg>
