<?xml version="1.0" encoding="UTF-8" standalone="no"?>
<!-- Created with Inkscape (http://www.inkscape.org/) -->

<svg
   xmlns:dc="http://purl.org/dc/elements/1.1/"
   xmlns:cc="http://creativecommons.org/ns#"
   xmlns:rdf="http://www.w3.org/1999/02/22-rdf-syntax-ns#"
   xmlns:svg="http://www.w3.org/2000/svg"
   xmlns="http://www.w3.org/2000/svg"
   version="1.1"
   width="512"
   height="512"
   id="svg2">
  <metadata
     id="metadata8">
    <rdf:RDF>
      <cc:Work
         rdf:about="">
        <dc:format>image/svg+xml</dc:format>
        <dc:type
           rdf:resource="http://purl.org/dc/dcmitype/StillImage" />
        <dc:title></dc:title>
      </cc:Work>
    </rdf:RDF>
  </metadata>
  <defs
     id="defs6" />
  <g
     id="g2987">
    <rect
       width="512"
       height="512"
       x="0"
       y="1.5258789e-05"
       id="rect3018"
       style="fill:#000000;fill-opacity:1;fill-rule:nonzero;stroke:none" />
    <path
       d="m 296.43306,488.75 c 0.31734,-2.8875 2.14643,-30 4.06465,-60.25 1.91822,-30.25 3.74834,-57.3625 4.06694,-60.25 l 0.57926,-5.25 16.92805,0 16.92804,0 0,-18.25995 c 0,-60.72518 -9.46046,-100.3815 -27.90276,-116.96271 -6.68249,-6.00814 -12.26604,-8.49096 -24.69726,-10.98206 l -10.33921,-2.07188 2.17177,-3.1117 c 1.19447,-1.71143 3.84879,-5.3617 5.89849,-8.1117 17.09449,-22.93501 18.1972,-54.89046 2.694,-78.06966 -8.61445,-12.87968 -19.67339,-18.97256 -33.15064,-18.26424 -9.25754,0.48655 -14.90363,3.2316 -22.57689,10.97661 -10.79911,10.90008 -16.26942,25.8197 -16.44699,44.85729 -0.15221,16.31814 3.78082,27.31634 15.34686,42.91546 3.39249,4.57545 5.79342,8.63726 5.3354,9.02624 -0.45802,0.38899 -4.43277,1.51947 -8.83277,2.51218 -4.4,0.99272 -10.475,3.05302 -13.5,4.57846 -19.11515,9.63929 -31.55401,37.69599 -36.50329,82.33569 -1.35413,12.21352 -3.46467,45.41159 -3.48765,54.85941 l -0.009,3.72744 18.25,0.27256 18.25,0.27256 4.68141,62 c 2.57478,34.1 4.71228,63.4625 4.75,65.25 L 219,494 l 38.42804,0 38.42805,0 0.57697,-5.25 z M 190.74139,487.51311 C 175.58146,472.64532 164.77699,457.12286 154.00441,434.73417 136.7111,398.79345 127.81273,359.78797 126.3471,313.5 c -2.33217,-73.65516 18.53405,-143.16081 56.07554,-186.7883 22.77187,-26.46352 54.26684,-40.918758 82.24741,-37.749078 30.93952,3.504875 57.57308,21.952558 80.18123,55.537378 50.71797,75.34247 57.3299,201.98751 15.1549,290.27707 -9.97098,20.87335 -20.17338,35.58657 -35.34548,50.97293 l -9.1212,9.25 13.92857,0 13.92856,0 6.76493,-4.53877 c 13.51222,-9.06572 24.41039,-12.46192 39.98278,-12.45986 11.27449,10e-4 22.79029,1.70322 33.88465,5.00726 3.90549,1.16311 7.54195,1.96772 8.08102,1.78803 0.53906,-0.17968 -1.52789,-3.46994 -4.59324,-7.31168 -11.77028,-14.75147 -20.14213,-29.10489 -24.75309,-42.43887 -1.84157,-5.32545 -2.26368,-8.6935 -2.26368,-18.06211 0,-10.99819 0.14786,-11.81657 3.28852,-18.20095 4.53684,-9.22258 12.63516,-16.38499 25.64859,-22.68445 14.73864,-7.13458 30.32199,-11.38707 46.07948,-12.57449 4.39088,-0.33088 10.39327,-0.84746 13.33866,-1.14796 l 5.35525,-0.54636 -18.21853,-11.94362 c -28.80444,-18.88347 -41.21497,-29.05378 -49.07511,-40.2166 -9.00793,-12.79288 -10.14814,-22.66361 -4.04907,-35.05258 6.52743,-13.25908 22.70036,-27.65991 55.4894,-49.40927 L 494.5,214.5 l -6,-0.24086 c -38.33887,-1.53905 -71.88162,-14.64649 -83.14633,-32.49095 -1.3234,-2.0964 -3.12119,-6.60258 -3.99509,-10.01374 C 397.89919,158.25114 402.49025,142.4443 419.51284,109.25 425.78844,97.0125 430.6779,87 430.37832,87 c -0.29958,0 -5.79476,3.769897 -12.21151,8.377548 -28.64982,20.572482 -40.71126,26.785662 -52.13696,26.857192 -4.46177,0.0279 -7.9406,-0.56786 -10.58755,-1.81324 C 342.82602,114.48557 332.25377,93.980791 326.09362,63.5 324.15091,53.887378 322.64758,40.500775 321.38923,21.60933 l -0.5922,-8.890671 -4.776,9.042001 C 299.13899,53.722002 277.37036,73.035514 258.28155,72.988131 239.11182,72.940548 218.61681,56.391852 202.41579,27.87933 193.28503,11.809898 194.35444,12.080408 193.54986,25.636669 190.56828,75.872804 177.66067,111.81892 159.5,120.46134 c -6.48192,3.08465 -15.53989,2.47437 -25.1617,-1.69529 C 125.00278,114.72046 119.48536,111.2946 99.702284,97.259978 91.563541,91.486144 84.74659,86.928126 84.553504,87.131049 84.360419,87.333972 87.81087,94.025 92.221173,102 c 9.986697,18.05861 18.904967,36.48342 21.781607,45 3.09966,9.17688 3.73974,20.42225 1.54706,27.17976 -6.87777,21.19619 -40.142524,37.04734 -83.19563,39.64396 L 20.5,214.53867 l 6,3.8829 c 38.482549,24.90397 47.521343,31.46921 58,42.1277 16.11232,16.38884 19.07591,30.52796 9.520048,45.41949 -7.400052,11.53198 -31.901266,30.55989 -66.554965,51.68731 l -6.81688,4.15606 5.425899,0.52048 C 29.058346,362.61887 36.225,363.31266 42,363.87436 c 11.597753,1.12805 29.956197,5.56326 40,9.6636 14.676228,5.9915 26.7846,15.49016 31.82026,24.96204 2.36397,4.44653 2.65941,6.10694 2.66898,15 0.008,7.05033 -0.52961,11.62232 -1.82121,15.5 -4.22774,12.69262 -14.34825,29.4723 -28.046069,46.5 -3.539549,4.4 -6.331544,8.10844 -6.204432,8.24099 0.127111,0.13254 4.022668,-0.84877 8.656791,-2.18069 19.59925,-5.63314 36.2855,-6.39648 49.20373,-2.25093 7.73644,2.48267 18.4956,8.30324 24.22195,13.10375 2.93343,2.45914 3.36478,2.51575 19.4377,2.55092 l 16.4377,0.036 -7.63401,-7.48689 z"
       id="path2989"
       style="fill:#ffffff" />
  </g>
</svg>
