<?xml version="1.0" encoding="UTF-8" standalone="no"?>
<!-- Created with Inkscape (http://www.inkscape.org/) -->

<svg
   xmlns:dc="http://purl.org/dc/elements/1.1/"
   xmlns:cc="http://creativecommons.org/ns#"
   xmlns:rdf="http://www.w3.org/1999/02/22-rdf-syntax-ns#"
   xmlns:svg="http://www.w3.org/2000/svg"
   xmlns="http://www.w3.org/2000/svg"
   version="1.1"
   width="512"
   height="512"
   id="svg2">
  <metadata
     id="metadata8">
    <rdf:RDF>
      <cc:Work
         rdf:about="">
        <dc:format>image/svg+xml</dc:format>
        <dc:type
           rdf:resource="http://purl.org/dc/dcmitype/StillImage" />
        <dc:title></dc:title>
      </cc:Work>
    </rdf:RDF>
  </metadata>
  <defs
     id="defs6" />
  <path
     d="m 0,0 512,0 0,512 -512,0 z"
     id="rect3050"
     style="fill:#000000" />
  <path
     d="m 372.92,199.60714 c -11.27046,-2.18774 -21.15313,-9.54808 -26.25949,-19.55739 -3.30901,-6.48617 -4.48722,-19.42415 -2.4356,-26.74506 3.04653,-10.87106 13.55287,-21.50084 24.41509,-24.70189 3.08535,-0.90924 3.12095,-0.8544 0.9937,1.53064 -3.15657,3.53908 -6.11577,12.67082 -6.10119,18.82749 0.0256,10.80341 8.44519,22.88317 19.04519,27.32447 8.67385,3.63425 23.38949,1.47902 29.85545,-4.37261 3.40832,-3.08448 3.00909,0.21522 -0.99923,8.25887 -7.13399,14.31606 -23.17791,22.41238 -38.51392,19.43548 z m 24.58775,11.45758 c 13.648,-5.10637 24.34166,-16.38016 30.09715,-31.72996 4.15719,-11.08712 3.2173,-27.29511 -2.25248,-38.84292 -18.73533,-39.55414 -74.23178,-40.43206 -92.75072,-1.46728 -10.04406,21.13321 -6.15892,43.93063 10.30023,60.44046 14.44453,14.489 35.13579,18.88437 54.60582,11.5997 z M 128.44,199.60714 c -32.551341,-6.3186 -39.979613,-49.15598 -11.66544,-67.27223 6.6575,-4.25967 7.45825,-3.85122 4.43386,2.2616 -3.99084,8.06621 -4.30415,17.17971 -0.86542,25.17324 8.01482,18.63097 29.99607,24.09808 47.31278,11.7675 l 3.66728,-2.61134 -1.30095,4.71166 c -4.86863,17.63269 -23.75755,29.42953 -41.58211,25.96957 z m 18.55084,13.48295 c 15.33086,-3.61416 28.33507,-14.22521 35.18755,-28.71199 6.5011,-13.74391 6.29379,-32.57747 -0.50785,-46.1381 -3.45666,-6.89165 -11.2425,-15.2715 -18.50591,-19.91785 -31.30611,-20.026284 -72.763162,-0.82631 -78.771382,36.48133 -4.257549,26.43695 13.661942,52.79173 39.766752,58.48626 9.51996,2.07669 13.31561,2.0435 22.83084,-0.19965 z m 274.65264,9.58979 c 17.8382,-7.43828 34.33993,-22.91625 42.68979,-40.04131 6.70251,-13.74645 8.51168,-21.76628 8.57201,-37.99857 0.0806,-21.68214 -5.27012,-37.39367 -18.23739,-53.55119 -25.87095,-32.235818 -69.10669,-41.388007 -105.6125,-22.35617 -13.69748,7.140997 -28.33375,22.182444 -35.26696,36.24323 -7.14449,14.48928 -9.58764,26.47524 -8.73715,42.86413 0.38649,7.44777 1.70781,16.01134 3.15998,20.48 l 2.49575,7.68 0.0669,-12.44975 c 0.11239,-20.93201 6.39267,-36.47788 20.26396,-50.16072 22.85774,-22.547176 58.36972,-25.983971 84.96702,-8.22297 29.52365,19.71513 39.0965,57.51878 22.77286,89.93109 -5.10678,10.14005 -18.51156,23.34372 -29.27366,28.83447 l -8.22407,4.19585 5.64349,-0.83165 c 3.10391,-0.45741 9.72791,-2.5348 14.72,-4.61644 z M 105.6,224.18813 C 92.916527,218.16042 80.804872,206.34513 74.572676,193.92 64.044513,172.93002 65.485494,145.07642 78.09414,125.85145 c 30.07777,-45.860921 95.72648,-41.788139 118.98,7.38141 5.13276,10.85319 6.84887,20.06203 6.17122,33.11538 -0.54316,10.46291 -0.48883,10.73971 1.26691,6.45397 2.78685,-6.80267 5.3618,-20.29198 5.37583,-28.16221 C 209.9546,107.37876 185.7921,73.67301 151.04,62.549032 140.85641,59.289316 121.25802,58.066369 110.72,60.03305 63.355588,68.872532 32.849403,115.26392 42.879171,163.2 c 5.854176,27.97934 29.018648,53.30578 56.924634,62.23749 11.507335,3.68309 14.718555,2.99091 5.796195,-1.24936 z m -45.844704,67.5251 c 0.833412,-1.69028 3.258861,-7.80335 5.389884,-13.58463 l 3.87459,-10.5114 -4.109885,-0.64449 C 56.128609,265.59566 39.097596,263.68 35.636475,263.68 l -3.636475,0 0,19.68454 0,19.68456 13.12,-4.13131 c 10.314586,-3.24793 13.444012,-4.78846 14.635296,-7.20456 z M 480,293.05644 l 0,-29.50356 -8,0.90251 c -4.4,0.49637 -15.488,1.82876 -24.64,2.96087 l -16.64,2.05836 0,14.7027 0,14.70268 23.68,11.73702 c 13.024,6.45536 24.112,11.78336 24.64,11.84 0.528,0.0567 0.96,-13.17363 0.96,-29.40058 z m -358.4,26.93729 c 8.8,-6.55735 16.25855,-12.13705 16.57457,-12.39932 1.05867,-0.87867 4.9483,-31.74399 4.10136,-32.54558 -1.46538,-1.3869 -55.344877,-5.37677 -56.451462,-4.18031 -0.575573,0.62231 -3.196092,7.04248 -5.823374,14.26704 l -4.776874,13.13557 8.117466,10.54443 c 4.464606,5.79944 10.668665,13.85268 13.786799,17.89609 3.618245,4.69192 6.176225,6.96326 7.070425,6.27808 0.7706,-0.59045 8.60109,-6.43865 17.40109,-12.996 z M 391.78813,328.96 c 7.34019,-8.096 15.56137,-17.23464 18.26929,-20.30808 l 4.92347,-5.58807 -0.45045,-15.10553 c -0.24774,-8.30803 -0.81996,-15.47492 -1.27159,-15.9264 -0.68871,-0.6885 -21.23105,0.6488 -60.70388,3.95176 l -7.76502,0.64975 -1.47708,18.77718 c -0.81239,10.32745 -1.06213,19.17087 -0.55497,19.65205 2.59246,2.45963 35.37993,29.13008 35.52041,28.89353 0.0902,-0.15191 6.16963,-6.90019 13.50982,-14.99619 z m -84.60354,6.41631 c 19.17163,-20.28907 18.5682,-18.99312 19.92581,-42.79353 l 0.88201,-15.46278 -35.03621,1.02522 c -19.2699,0.56386 -40.96254,0.76876 -48.20583,0.45534 l -13.16962,-0.56985 0.83731,18.10464 c 1.32835,28.72193 -1.6271,24.41756 28.73164,41.84531 14.41566,8.27547 26.86437,15.10324 27.66378,15.17282 0.79941,0.0696 9.0664,-7.93015 18.37111,-17.77717 z m -103.0128,6.70369 13.67342,-15.04 -0.78353,-14.72 c -0.43095,-8.096 -1.11335,-19.08556 -1.51646,-24.42124 l -0.73293,-9.70123 -27.08615,-1.28525 c -14.89738,-0.70689 -27.34176,-1.07771 -27.65419,-0.82405 -0.31242,0.25366 -1.53302,7.50158 -2.71242,16.10648 -1.62065,11.82422 -1.79453,16.28861 -0.71195,18.2793 3.41995,6.28879 31.75584,46.64599 32.75142,46.64599 0.60465,0 7.25239,-6.768 14.77279,-15.04 z M 90.88,358.29155 l 0,-12.90847 -13.12,-17.10462 c -7.216,-9.40752 -13.958013,-17.13472 -14.982252,-17.17153 -1.024238,-0.0369 -8.368238,2.07434 -16.32,4.69146 L 32,320.55679 l 0.04598,7.0816 0.04598,7.08161 13.793872,9.33293 c 14.709946,9.95274 42.438575,27.01657 44.034168,27.09805 0.528,0.027 0.96,-5.75979 0.96,-12.85943 z m 328.32,19.59214 c 19.06464,-10.3588 50.56196,-30.22932 57.44634,-36.24084 1.33458,-1.16536 -47.3098,-25.80001 -49.82475,-25.23241 -0.94932,0.21426 -9.82055,9.29494 -19.71383,20.17929 -20.23571,22.26289 -18.92125,18.98659 -16.51812,41.17178 l 1.47335,13.60152 7.16851,-3.26223 c 3.94267,-1.79423 12.9285,-6.39192 19.9685,-10.21711 z M 180.89887,396.48 c -0.34102,-10.032 -1.12954,-19.84902 -1.75226,-21.81562 -1.93432,-6.10871 -33.41617,-51.02553 -35.26589,-50.31572 -0.92086,0.35337 -9.47875,6.50214 -19.01751,13.66395 l -17.34321,13.02146 0,14.97484 0,14.97485 20.16,9.79346 c 15.06212,7.31696 51.65277,23.63031 53.63945,23.91427 0.1097,0.0156 -0.0796,-8.17949 -0.42058,-18.21149 z m 134.20491,26.39999 c 15.71483,-5.45443 59.54604,-22.70315 60.74933,-23.90643 0.62708,-0.62708 -3.27794,-36.82403 -4.11959,-38.18585 -0.32488,-0.52566 -8.77948,-7.69119 -18.78802,-15.9234 l -18.19734,-14.96764 -10.63153,11.37166 c -5.84733,6.25442 -13.89177,15.02607 -17.87651,19.49255 l -7.24501,8.12089 -0.94027,19.39911 c -0.51716,10.66952 -1.19933,24.15112 -1.51592,29.95912 -0.3166,5.808 -0.10663,10.56 0.46651,10.56 0.57317,0 8.71742,-2.664 18.09835,-5.92001 z m -46.09886,15.45177 9.81363,-3.26825 0.70761,-6.01175 c 0.38918,-3.30647 1.0344,-15.51576 1.43384,-27.13176 0.39944,-11.616 1.03645,-23.76564 1.41562,-26.99921 l 0.68938,-5.8792 -26.47847,-14.9208 c -14.56314,-8.20643 -26.84476,-14.87952 -27.29249,-14.82909 -0.44772,0.0504 -8.01404,8.12077 -16.81404,17.93408 l -16,17.84238 0.46769,16.69055 c 0.25721,9.17979 0.83321,19.64487 1.28,23.25572 l 0.81231,6.56518 28.8,9.94239 c 15.84,5.46831 29.37404,9.9729 30.07564,10.0102 0.7016,0.0373 5.69177,-1.40291 11.08928,-3.20044 z"
     id="path2989"
     style="fill:#ffffff" />
</svg>
