<?xml version="1.0" encoding="UTF-8" standalone="no"?>
<!-- Created with Inkscape (http://www.inkscape.org/) -->

<svg
   xmlns:dc="http://purl.org/dc/elements/1.1/"
   xmlns:cc="http://creativecommons.org/ns#"
   xmlns:rdf="http://www.w3.org/1999/02/22-rdf-syntax-ns#"
   xmlns:svg="http://www.w3.org/2000/svg"
   xmlns="http://www.w3.org/2000/svg"
   version="1.1"
   width="512"
   height="512"
   id="svg2">
  <metadata
     id="metadata8">
    <rdf:RDF>
      <cc:Work
         rdf:about="">
        <dc:format>image/svg+xml</dc:format>
        <dc:type
           rdf:resource="http://purl.org/dc/dcmitype/StillImage" />
        <dc:title></dc:title>
      </cc:Work>
    </rdf:RDF>
  </metadata>
  <defs
     id="defs6" />
  <path
     d="M 0,256 0,0 l 256,0 256,0 0,256 0,256 -256,0 -256,0 0,-256 z"
     id="path3021"
     style="fill:#000000" />
  <path
     d="m 407.76531,220.12094 c 21.61619,-15.6602 43.2649,-23.60822 72.18946,-26.50334 l 11.54523,-1.15559 -5.78931,-6.11263 c -10.35009,-10.92812 -24.04309,-15.94236 -36.97056,-13.53825 -10.43373,1.94035 -18.19237,6.43202 -27.7887,16.08756 -7.53588,7.58237 -9.28321,10.0718 -14.75,21.01439 C 400.52477,221.27575 399.12114,225 400.51531,225 c 0.28343,0 3.54593,-2.19557 7.25,-4.87906 z M 80.691041,237.75 C 101.5886,169.57976 135.44423,126.30603 179.36377,111.62808 183.68884,110.18264 187.4247,109 187.66568,109 c 0.24099,0 -2.39771,2.34502 -5.86376,5.21115 -26.92126,22.26158 -70.32733,76.72951 -97.254044,122.03885 -3.18686,5.3625 -5.927396,9.75 -6.09008,9.75 -0.162684,0 0.842276,-3.7125 2.233245,-8.25 z m 129.435379,225.5 c -5.12905,-41.77856 -3.73566,-78.65141 4.43446,-117.34716 9.47834,-44.89179 28.6575,-84.76773 53.47407,-111.17946 7.82203,-8.32481 16.76858,-16.19074 21.76754,-19.1383 0.71638,-0.4224 -1.92045,5.66562 -5.85961,13.52894 -32.7654,65.40602 -57.89183,148.8904 -69.56537,231.13598 -0.99533,7.0125 -2.08967,12.75 -2.43189,12.75 -0.34222,0 -1.16085,-4.3875 -1.8192,-9.75 z m -161.214497,30 c 0.543957,-2.0625 2.143792,-8.925 3.555189,-15.25 16.645358,-74.59408 45.349196,-141.68788 84.814628,-198.25 8.52017,-12.21116 10.16413,-14.25854 9.23402,-11.5 -2.17113,6.43918 -6.90233,24.9783 -9.37865,36.75 -6.5607,31.18779 -9.81886,60.95194 -10.78237,98.5 -0.58124,22.65105 0.3808,59.9062 1.42026,55 1.47834,-6.97767 7.62899,-27.69971 10.98221,-37 8.24104,-22.85682 21.29565,-48.24261 36.48419,-70.94658 9.02543,-13.49129 22.80514,-31.84021 23.43695,-31.20841 0.22683,0.22684 -0.92147,5.75451 -2.55178,12.28371 -6.62388,26.52789 -9.53969,45.37605 -11.29937,73.04058 -1.06555,16.75192 -1.00288,21.54398 0.49698,38 1.76097,19.32087 3.88624,32.06223 7.71463,46.25043 L 195.2191,497 l 28.84324,0 28.84324,0 -0.0394,-16.75 c -0.0535,-22.72564 2.1073,-35.50849 8.88186,-52.54408 1.92343,-4.83674 3.62424,-8.66174 3.77957,-8.5 0.15533,0.16175 0.80776,6.14408 1.44984,13.29408 1.37519,15.31355 3.36091,25.99719 4.27492,23 0.33544,-1.1 1.13482,-4.7 1.77638,-8 4.97886,-25.60966 17.27869,-56.30983 30.84956,-77 l 3.27955,-5 -0.63737,5 c -4.14552,32.5205 -3.19503,61.22287 3.04837,92.05268 2.47189,12.20614 7.51727,31.15962 8.88279,33.36907 0.46037,0.7449 14.44185,1.07825 45.22401,1.07825 l 44.55761,0 -0.62564,-2.25 c -2.0166,-7.25236 -2.90216,-29.88549 -1.76855,-45.20076 C 407.44306,427.87897 413.06533,395 415.16693,395 c 0.45819,0 0.83572,2.1375 0.83897,4.75 0.007,5.32576 2.06656,19.85382 4.45119,31.39251 3.90353,18.88836 14.45771,45.42681 23.90438,60.10749 l 3.69999,5.75 25.96927,0 25.96927,0 0,-43.5 c 0,-23.925 -0.20394,-43.5 -0.45321,-43.5 -1.64135,0 -8.20917,19.27876 -11.00922,32.31578 l -2.1082,9.81578 -2.23079,-16.31578 c -4.18521,-30.6103 -5.41543,-49.52279 -5.01364,-77.07588 0.24816,-17.01709 0.0338,-25.64614 -0.63161,-25.42434 -2.28836,0.76278 -11.9713,14.80184 -15.99064,23.18444 -6.33442,13.21086 -11.67162,30.7925 -14.49867,47.76114 -1.52836,9.17356 -4.01696,32.9777 -4.15448,39.73886 -0.10712,5.26633 -0.21135,5.03266 -2.45329,-5.5 -7.15841,-33.63041 -9.78319,-58.18543 -9.83423,-92 -0.0656,-43.48324 5.77625,-79.41416 18.86004,-116 6.22744,-17.41363 5.99287,-16.5 4.23622,-16.5 -0.83324,0 -5.49822,2.01319 -10.36663,4.47376 -24.12191,12.1916 -44.26944,33.54606 -63.9425,67.77295 -22.69537,39.48506 -40.73557,98.42639 -48.38135,158.07254 -1.11529,8.70059 -2.09642,17.25059 -2.18029,19 -0.33427,6.97254 -1.6538,-11.07617 -2.36285,-32.31925 -2.79185,-83.6438 17.90836,-160.60044 60.07699,-223.3467 4.12257,-6.13432 8.26243,-12.24087 9.1997,-13.57012 l 1.70412,-2.41682 -2.98273,0.70721 c -5.56974,1.32058 -23.07542,10.5875 -31.04558,16.43448 -18.81597,13.80356 -40.03785,37.75408 -54.88501,61.94195 -2.11003,3.4375 -3.96769,6.25 -4.12812,6.25 -0.62045,0 6.53497,-20.05606 11.0599,-31 5.52741,-13.36852 17.26951,-37.07764 23.92931,-48.31698 15.98946,-26.98443 38.92348,-56.28695 57.14536,-73.01394 4.09277,-3.757 7.4414,-7.30544 7.4414,-7.88542 0,-1.32574 -21.45489,-0.21166 -35,1.81743 -37.40011,5.60262 -75.4887,23.69973 -111,52.73968 -11.45348,9.36627 -35.54258,33.77066 -46.06172,46.66461 -22.39106,27.44606 -39.47766,54.07608 -57.7432,89.99462 -5.17426,10.175 -9.1884,17.81512 -8.92031,16.97804 0.2681,-0.83708 1.66334,-5.83828 3.10055,-11.11379 14.44333,-53.01666 45.00936,-108.30775 82.81794,-149.80993 4.28615,-4.70488 7.7961,-8.84729 7.79987,-9.20537 0.004,-0.35808 -3.93063,0.20829 -8.74313,1.25859 C 177.40293,167.85935 138.34134,201.8037 105.36619,265.5 97.177306,281.31801 86.415183,305.79593 79.979511,323.24075 77.597269,329.69816 75.530174,334.86351 75.385969,334.7193 74.7679,334.10123 80.487453,312.10911 85.585844,295.5 100.49209,246.93967 121.71615,205.83359 150.64269,169.5 161.8591,155.41146 187.35405,129.90906 201.5,118.62782 243.76224,84.924153 299.33844,57.391426 360.31516,39.950001 c 7.80166,-2.231541 15.00625,-4.299283 16.0102,-4.594981 1.00395,-0.295698 1.64083,-0.722163 1.41529,-0.947701 C 376.44644,33.113102 353.73186,30.869832 336.5,30.334431 308.49903,29.464429 285.77443,31.977544 258,39.015754 191.13524,55.959689 124.92865,101.06786 67.585189,168.75 63.274823,173.8375 59.585498,178 59.38669,178 58.704712,178 64.10354,166.49274 70.444111,154.4318 84.984072,126.77411 105.8747,96.446024 121.94219,79.669164 l 6.54201,-6.830835 -5.4921,2.146889 C 87.505581,88.857075 43.85441,134.93772 24.622129,178.83014 l -3.650005,8.33013 0.263938,31.49613 0.263938,31.49612 4.430927,-6.28395 C 35.964545,229.63886 60.740445,202.0226 75.646602,188.45338 l 8.218169,-7.48108 -7.753726,15.30846 C 56.441381,235.11528 36.153028,291.57039 23.932415,341.47491 L 21,353.44982 21,425.22491 21,497 l 13.461456,0 13.461456,0 0.989011,-3.75 z"
     id="path2989"
     style="fill:#ffffff" />
</svg>
