<?xml version="1.0" encoding="UTF-8" standalone="no"?>
<!-- Created with Inkscape (http://www.inkscape.org/) -->

<svg
   xmlns:dc="http://purl.org/dc/elements/1.1/"
   xmlns:cc="http://creativecommons.org/ns#"
   xmlns:rdf="http://www.w3.org/1999/02/22-rdf-syntax-ns#"
   xmlns:svg="http://www.w3.org/2000/svg"
   xmlns="http://www.w3.org/2000/svg"
   version="1.1"
   width="512"
   height="512"
   id="svg2">
  <metadata
     id="metadata8">
    <rdf:RDF>
      <cc:Work
         rdf:about="">
        <dc:format>image/svg+xml</dc:format>
        <dc:type
           rdf:resource="http://purl.org/dc/dcmitype/StillImage" />
        <dc:title></dc:title>
      </cc:Work>
    </rdf:RDF>
  </metadata>
  <defs
     id="defs6" />
  <path
     d="M 0,256 0,0 l 256,0 256,0 0,256 0,256 -256,0 -256,0 0,-256 z"
     id="path3017"
     style="fill:#000000" />
  <path
     d="m 245.44563,295.52126 c -6.78222,-2.14289 -11.91588,-5.18479 -16.86082,-9.99072 -13.01737,-12.65144 -15.39568,-34.24162 -5.475,-49.70167 C 226.28731,230.87718 233.46142,224 235.44942,224 c 0.59918,0 5.58068,9.88961 11.07,21.97691 5.48932,12.0873 10.23462,21.9873 10.54512,22 0.3105,0.0127 2.97365,-5.26441 5.91811,-11.72691 2.94446,-6.4625 7.52566,-16.4044 10.18045,-22.09311 l 4.82689,-10.3431 3.255,2.72511 C 289.9212,233.80268 296,246.52673 296,257.42383 c 0,13.2547 -8.24034,27.39668 -20,34.32378 -8.33244,4.90828 -21.72729,6.56262 -30.55437,3.77365 z M 272,415.37946 c 7.425,-8.51682 13.62327,-16.02385 13.77394,-16.68229 0.15067,-0.65845 -3.78683,-18.95245 -8.75,-40.65334 C 272.06077,336.34294 268,317.88703 268,317.0307 c 0,-1.03259 2.27333,-2.3171 6.75,-3.81398 3.7125,-1.24136 7.425,-2.49451 8.25,-2.78478 1.22863,-0.4323 3.27789,7.3042 11.32749,42.7643 5.40512,23.81064 9.92247,43.38705 10.03855,43.50314 0.67672,0.67671 36.70664,11.56127 37.06935,11.19856 0.24228,-0.24228 2.71323,-10.04512 5.491,-21.78409 l 5.0505,-21.34358 -17.38506,-20.13513 c -9.56178,-11.07433 -21.96125,-25.41211 -27.55438,-31.86174 l -10.16931,-11.72659 3.074,-3.82519 3.07401,-3.82519 20.45291,10.14759 c 37.40708,18.5593 67.30572,30.20652 88.49469,34.47371 12.18902,2.45471 28.06426,2.90971 36.03625,1.03283 6.77184,-1.59431 17.46685,-7.04638 22.83336,-11.63991 4.35947,-3.73155 11.71882,-13.19181 10.89954,-14.01109 -0.27855,-0.27854 -6.7449,-1.13652 -14.36967,-1.90662 C 431.39637,307.86028 394.9739,299.53651 361.5,287.29959 c -12.01263,-4.39141 -31.59851,-12.53441 -31.17263,-12.9603 0.1245,-0.12449 5.85285,0.61041 12.72967,1.63312 47.66193,7.08824 86.22759,7.31482 107.94296,0.63417 12.42256,-3.82175 24.07406,-11.31743 31.5,-20.26469 3.92044,-4.7236 12.90659,-21.26863 12.02857,-22.14665 -0.24502,-0.24502 -6.65168,0.95094 -14.23703,2.6577 -34.32487,7.72332 -58.84091,10.41765 -94.79154,10.41765 -23.2839,0 -38.41078,-0.88351 -57.37929,-3.35135 -0.34139,-0.0444 4.32929,-0.93985 10.37929,-1.98986 59.69232,-10.35991 94.18318,-20.79048 116.9893,-35.37938 7.66402,-4.90262 17.71633,-14.5413 22.53377,-21.60656 C 484.06345,176.0846 490,160.17694 490,152.84989 c 0,-2.72102 -0.0416,-2.70529 -12.75,4.8235 -30.7598,18.22288 -66.86969,34.13623 -100.45884,44.27143 -12.06549,3.64065 -41.85135,11.05045 -44.29116,11.01828 -0.55,-0.007 6.65,-3.96407 16,-8.79292 63.93774,-33.02097 98.85303,-60.39124 113.34002,-88.84783 4.07118,-7.99695 7.21937,-21.246552 7.8582,-33.07235 0.33425,-6.1875 0.37212,-11.25 0.0842,-11.25 -0.28796,0 -9.9193,9.354796 -21.40298,20.788435 -36.04388,35.886835 -67.21436,60.202235 -107.15056,83.585805 -12.42537,7.27534 -43.00057,22.63615 -47.95022,24.08992 -2.21089,0.64936 -2.20858,0.62505 0.48969,-5.15586 2.34654,-5.02736 2.71243,-7.0856 2.72136,-15.3083 0.009,-8.60295 -0.2885,-10.13073 -3.1542,-16.17961 -7.9874,-16.85965 -24.86148,-26.02358 -42.38542,-23.01856 -17.41453,2.98626 -29.80957,15.25187 -33.03278,32.68785 -1.54544,8.36004 -0.43804,14.85979 4.55732,26.74858 0.96122,2.28767 -13.47958,-4.07954 -33.9746,-14.98002 C 141.45624,159.23755 103.84389,130.99961 63.374771,90.318929 L 44.249542,71.093716 43.708766,75.796858 C 42.503255,86.281225 46.191522,104.4866 51.752312,115.5 66.034942,143.78739 100.20493,170.5182 166,204.87472 c 8.525,4.45154 15.19489,8.10081 14.82199,8.10949 -0.37291,0.009 -6.67291,-1.36051 -14,-3.04265 C 131.5662,201.84758 96.153011,189.13514 64.217433,173.10911 55.25091,168.6095 31.154155,155.07336 25.104958,151.13802 l -2.395042,-1.55811 0.742128,4.96004 c 2.264159,15.13262 9.291105,29.16429 20.047956,40.03254 12.005612,12.12994 26.253319,20.25376 49.5,28.22411 20.06492,6.87945 58.01071,15.59653 84.22059,19.34752 4.79632,0.68642 8.58516,1.38347 8.41963,1.549 -0.16553,0.16553 -7.2398,1.03821 -15.72059,1.93929 -20.91879,2.22261 -64.08081,2.22215 -84.323938,-9.1e-4 -18.97215,-2.08348 -35.563777,-4.8544 -52.410967,-8.753 -7.323401,-1.69471 -13.601742,-2.79482 -13.951868,-2.44469 -0.948873,0.94887 5.955904,14.32672 10.393889,20.13792 19.924333,26.08938 55.371876,32.36127 129.287594,22.87539 10.67789,-1.37033 20.57789,-2.76983 22,-3.10999 4.2618,-1.01941 2.02293,0.33598 -6.93927,4.20097 -39.38542,16.98513 -83.072423,28.24298 -127.898799,32.95866 -7.933051,0.83455 -14.624799,1.71844 -14.870552,1.96419 -0.733626,0.73362 5.432721,8.00792 11.450285,13.50763 25.334097,23.15394 64.982756,17.01208 145.285036,-22.50569 l 21.44104,-10.5514 3.83404,3.83404 3.83404,3.83404 -27.02508,31.65186 C 175.16129,350.63995 163,365.36104 163,365.94497 c 0,0.9328 5.37128,21.04731 9.53101,35.69195 l 1.45911,5.13691 19.25494,-5.53944 c 10.59022,-3.0467 19.41994,-5.67331 19.62161,-5.83692 0.20167,-0.16361 4.27359,-19.01388 9.04871,-41.88949 4.77513,-22.87561 9.01264,-41.62508 9.4167,-41.66548 0.40406,-0.0404 4.34549,0.96989 8.75872,2.24512 7.21601,2.0851 7.97021,2.53316 7.48928,4.44935 C 246.02471,324.73405 231,397.72979 231,399.08928 c 0,1.65009 25.49371,31.9639 26.77975,31.84302 0.39614,-0.0372 6.79525,-7.03601 14.22025,-15.55284 z"
     id="path2989"
     style="fill:#ffffff" />
</svg>
