<?xml version="1.0" encoding="UTF-8" standalone="no"?>
<!-- Created with Inkscape (http://www.inkscape.org/) -->

<svg
   xmlns:dc="http://purl.org/dc/elements/1.1/"
   xmlns:cc="http://creativecommons.org/ns#"
   xmlns:rdf="http://www.w3.org/1999/02/22-rdf-syntax-ns#"
   xmlns:svg="http://www.w3.org/2000/svg"
   xmlns="http://www.w3.org/2000/svg"
   version="1.1"
   width="512"
   height="512"
   id="svg2">
  <metadata
     id="metadata8">
    <rdf:RDF>
      <cc:Work
         rdf:about="">
        <dc:format>image/svg+xml</dc:format>
        <dc:type
           rdf:resource="http://purl.org/dc/dcmitype/StillImage" />
        <dc:title></dc:title>
      </cc:Work>
    </rdf:RDF>
  </metadata>
  <defs
     id="defs6" />
  <rect
     width="509.99786"
     height="509.99786"
     x="1.0010626"
     y="1.0010607"
     id="rect3112"
     style="fill:#000000;fill-opacity:1;fill-rule:nonzero;stroke:#000000;stroke-width:2.00212526;stroke-linecap:square;stroke-linejoin:miter;stroke-miterlimit:4;stroke-opacity:1;stroke-dasharray:none;stroke-dashoffset:0" />
  <path
     d="m 210.67887,488.47938 c 5.92599,-2.63593 8.59386,-6.60095 8.59386,-12.77229 0,-8.3886 -8.41997,-13.97025 -21.07425,-13.97025 -13.07842,0 -22.19848,5.83067 -22.19848,14.192 0,12.9276 18.65388,19.67858 34.67887,12.55054 z"
     id="path3035"
     style="fill:#ffffff" />
  <path
     d="m 437.77728,486.80057 c 10.67421,-5.00458 9.3734,-17.90428 -2.25323,-22.34454 -8.8752,-3.38947 -23.24916,-0.5769 -27.10185,5.30306 -2.15441,3.28804 -2.17824,9.43811 -0.0491,12.68751 4.5907,7.00629 19.1492,9.16201 29.40423,4.35397 z"
     id="path3033"
     style="fill:#ffffff" />
  <path
     d="m 275.5685,479.52872 c 5.25639,-1.5682 12.4315,-6.78106 12.4315,-9.03173 0,-1.01286 1.79112,-1.36307 7.05639,-1.37971 16.47271,-0.0521 26.55748,-10.91581 19.99302,-21.53734 -3.10236,-5.01971 -9.21997,-7.86331 -18.00052,-8.36703 -8.99294,-0.5159 -14.79761,0.86332 -19.19062,4.5598 -3.02386,2.54441 -3.85032,2.72034 -12.79546,2.7237 -8.62144,0.003 -10.15345,0.29891 -15.56281,3.00359 -9.44351,4.72175 -13.03243,12.73207 -9.09501,20.29966 4.92229,9.46049 21.07958,13.9309 35.16351,9.72906 z"
     id="path3031"
     style="fill:#ffffff" />
  <path
     d="M 155.5786,462.10367 C 161.19637,459.5522 164,455.71832 164,450.58765 c 0,-2.27845 -0.70474,-5.14879 -1.56608,-6.37853 -2.20113,-3.14255 -7.98944,-5.84319 -14.38564,-6.71187 -3.87163,-0.52582 -5.96227,-1.38949 -7.21329,-2.9799 -0.96887,-1.23171 -4.1406,-3.28153 -7.04828,-4.55514 -6.17689,-2.70558 -16.99631,-3.21259 -23.12248,-1.08355 -5.59789,1.94545 -10.45564,6.63298 -11.71304,11.30261 -0.937991,3.48343 -0.77875,4.59619 1.23605,8.63741 3.33505,6.6893 9.11956,9.44707 20.33473,9.69458 5.05025,0.11146 9.01928,0.69105 9.93467,1.45076 4.99949,4.1492 18.21844,5.27507 25.12196,2.13965 z"
     id="path3029"
     style="fill:#ffffff" />
  <path
     d="m 372.45308,439.89135 c 2.17419,-0.60363 5.43669,-2.58112 7.25,-4.39443 C 382.4281,432.7719 383,431.44066 383,427.82251 c 0,-2.40763 -0.70474,-5.38365 -1.56608,-6.61339 -3.60121,-5.14144 -14.11099,-7.98028 -23.17386,-6.25957 -4.65836,0.88444 -5.65559,0.74963 -8.98473,-1.21461 -5.57046,-3.28665 -18.10244,-3.19322 -23.98911,0.17884 -9.77691,5.60052 -9.09741,16.57516 1.35862,21.94294 3.3865,1.73851 12.43498,2.41029 17.32206,1.28602 3.10654,-0.71466 4.85477,-0.70571 5.74052,0.0294 4.18505,3.47329 15.26047,4.79733 22.74566,2.71921 z"
     id="path3027"
     style="fill:#ffffff" />
  <path
     d="m 262,436.65302 c 9.40395,-4.49931 10.30791,-14.7738 1.79543,-20.40709 -3.3334,-2.20595 -5.52093,-2.7942 -11.51665,-3.09697 C 239.55597,412.50649 231,417.65038 231,425.94187 c 0,11.28557 17.30342,17.26427 31,10.71115 z"
     id="path3025"
     style="fill:#ffffff" />
  <path
     d="m 428.29182,436.41624 c 2.75367,-0.93828 5.92808,-3.0416 7.78864,-5.16066 2.86353,-3.26138 3.10144,-4.04854 2.69714,-8.92393 -0.31455,-3.79304 -1.11703,-6.06405 -2.76118,-7.81417 -7.58858,-8.07768 -29.49319,-8.02559 -37.11575,0.0883 -1.98664,2.11468 -2.40067,3.59602 -2.40067,8.58919 0,5.72912 0.1893,6.19744 3.7489,9.27446 2.06189,1.78237 5.21189,3.70997 7,4.28356 4.99729,1.60303 15.86023,1.42921 21.04292,-0.3367 z"
     id="path3023"
     style="fill:#ffffff" />
  <path
     d="m 180.5,419.59137 c 2.2,-0.92492 5.65134,-3.00349 7.66964,-4.61906 3.61257,-2.89172 3.72812,-2.91297 7.42906,-1.36662 5.10892,2.13464 16.1881,2.0621 20.53033,-0.13443 4.33885,-2.19481 7.87097,-5.43706 7.87097,-7.22503 0,-1.0469 0.77951,-1.23393 3.05751,-0.7336 1.68163,0.36935 12.84129,0.79093 24.79926,0.93684 16.02263,0.19551 22.3864,0.6223 24.19249,1.62248 3.23949,1.79398 17.61293,1.80609 20.95074,0.0177 1.375,-0.73674 3.4,-2.13011 4.5,-3.09638 1.15808,-1.01729 5.96254,-2.47174 11.4131,-3.45509 5.1772,-0.93403 13.0522,-2.75569 17.5,-4.04813 5.031,-1.46191 8.22507,-1.96187 8.45253,-1.32304 0.96973,2.72337 6.61948,7.83804 9.82758,8.89681 4.27885,1.41214 12.34133,1.69416 17.57817,0.61486 5.10308,-1.05174 10.5006,-5.94625 11.30893,-10.25502 L 378.22258,392 l 6.63871,-0.022 C 396.1254,391.94077 404,386.71183 404,379.26943 c 0,-8.45082 -7.25899,-13.49165 -19.42848,-13.49165 l -7.33799,0 -0.52125,-3.88619 c -0.66827,-4.98238 -5.37833,-15.037 -10.74843,-22.94482 C 352.43066,319.01826 323.5152,290.88864 284.27973,259.48257 262.43121,241.9939 259.71701,240.49291 250,240.52535 c -6.17454,0.0206 -8.41314,0.50212 -12.66688,2.72457 -17.32155,9.04996 -71.93663,59.85067 -88.96336,82.75008 -8.5879,11.54994 -15.04236,22.17519 -16.57196,27.28054 -0.83424,2.78446 -1.55187,3.64407 -2.6806,3.21094 -2.67,-1.02458 -17.84496,-0.64187 -22.31903,0.56287 -12.794668,3.44524 -20.758474,12.59423 -19.600053,22.51695 0.344579,2.95157 0.105585,3.4287 -1.717417,3.4287 -1.164733,0 -4.415601,0.6824 -7.22415,1.51645 C 71.543043,386.51015 68,390.59941 68,396.35422 c 0,8.36102 6.784257,13.02587 19,13.06437 8.840097,0.0279 14.41115,-2.21548 17.5,-7.04687 l 2,-3.12828 9.5,0.49289 c 6.6979,0.3475 11.19601,0.0446 15.25,-1.02679 l 5.75,-1.51968 0.005,4.65507 c 0.009,8.42218 5.6299,14.92298 15.81956,18.29686 7.03275,2.3286 21.51226,2.04062 27.67532,-0.55042 z"
     id="path3021"
     style="fill:#ffffff" />
  <path
     d="m 478.66566,406.97497 c 10.41255,-4.46905 10.58753,-16.27135 0.32172,-21.70005 -4.90463,-2.59363 -14.52047,-3.09431 -21.16938,-1.10225 -8.94485,2.67995 -12.64503,12.31415 -7.21014,18.77315 3.29667,3.91787 5.48146,5.07611 11.26382,5.97138 6.00896,0.93036 11.61041,0.28255 16.79398,-1.94223 z"
     id="path3019"
     style="fill:#ffffff" />
  <path
     d="m 48.36806,386.53181 c 9.943851,-4.81179 10.029861,-16.81837 0.153785,-21.46761 -9.390252,-4.42052 -21.026692,-3.37775 -27.390852,2.45456 -3.156792,2.89299 -3.630993,3.92278 -3.630993,7.88517 0,8.42516 8.398201,13.87618 20.5,13.30591 3.715962,-0.1751 8.156742,-1.10798 10.36806,-2.17803 z"
     id="path3017"
     style="fill:#ffffff" />
  <path
     d="m 448.45308,377.89135 c 2.17419,-0.60363 5.43669,-2.58112 7.25,-4.39443 C 458.4281,370.7719 459,369.44066 459,365.82251 c 0,-5.26145 -1.88446,-8.22095 -6.81608,-10.70449 -8.92056,-4.49235 -21.59024,-3.42987 -27.68901,2.32201 -3.01245,2.8411 -3.49491,3.93337 -3.49491,7.91227 0,3.62788 0.58875,5.27076 2.75,7.67381 4.8203,5.35957 15.41018,7.44524 24.70308,4.86524 z"
     id="path3015"
     style="fill:#ffffff" />
  <path
     d="m 123.13365,286.21409 c -6.65084,-21.89643 -8.32203,-48.75496 -4.12279,-66.25935 l 1.14786,-4.78482 3.54171,3.92025 c 2.02469,2.24109 6.7872,5.52426 11.11878,7.66504 7.49827,3.70585 7.70239,3.74457 19.62893,3.72361 14.1782,-0.0249 22.71249,-2.07389 37.21539,-8.93495 34.08208,-16.12361 65.6252,-49.64704 73.38396,-77.99109 l 1.62904,-5.95113 0.60986,6.94917 c 2.00181,22.80998 15.13623,48.3398 31.2486,60.73894 C 309.03793,213.37221 319.16148,217 331.21305,217 c 9.70006,0 17.66152,-2.51236 26.7275,-8.43428 5.87922,-3.84031 16.79219,-13.99059 20.36071,-18.93773 1.19765,-1.66033 1.53943,-0.75569 3.0225,8 2.161,12.75795 3.67862,28.57825 3.66717,38.22796 -0.0167,14.04199 -4.56821,43.90062 -8.48216,55.64405 -1.02162,3.06525 7.08913,-6.03721 12.4747,-14 8.30816,-12.28398 13.4562,-24.45432 17.13143,-40.5 2.81126,-12.27365 3.5692,-36.61611 1.52607,-49.01189 -5.13336,-31.14427 -18.14303,-55.47476 -39.88141,-74.5856 -6.25653,-5.50031 -20.46928,-15.026126 -21.25179,-14.243609 -0.22793,0.227927 0.69733,3.477249 2.05614,7.220719 10.66361,29.37793 -1.44827,53.57462 -35.29171,70.5045 -4.52529,2.26373 -8.46927,4.11588 -8.7644,4.11588 -0.29512,0 0.82677,-2.7008 2.4931,-6.00178 15.69839,-31.09835 18.20264,-64.82935 6.85588,-92.345529 C 301.31631,52.241724 275.75027,31.070771 238,19.836534 231.05398,17.769442 212.73403,14 209.63374,14 c -1.32142,0 0.78362,2.775968 7.17365,9.460057 6.70261,7.011045 10.03393,11.464689 12.86824,17.203553 3.70568,7.503171 3.82396,8.070813 3.81101,18.289943 -0.0113,8.934128 -0.38148,11.387275 -2.42133,16.046447 -4.00245,9.141936 -12.05291,20.617436 -27.00909,38.5 -17.27961,20.6606 -22.97638,28.56424 -28.11034,39 -5.17711,10.52347 -7.18091,18.80141 -6.77234,27.97729 0.37863,8.5034 -0.34352,8.64688 -6.6192,1.31516 -7.46151,-8.7171 -11.52345,-20.44716 -11.54247,-33.33235 -0.0143,-9.69168 1.90533,-17.6176 6.51321,-26.8922 1.89423,-3.81265 3.32695,-7.04921 3.18381,-7.19234 -0.66798,-0.66799 -19.63894,9.10571 -26.98227,13.90106 -22.21098,14.50424 -34.579428,30.13336 -41.357597,52.26061 -2.549644,8.32328 -2.748755,10.24706 -2.790657,26.96277 -0.04711,18.79237 0.777981,24.6133 5.598934,39.5 2.611909,8.06536 8.85179,20.67201 13.95062,28.18492 4.91948,7.24865 14.93725,19.08325 15.596,18.4245 0.27673,-0.27674 -0.43889,-3.60464 -1.59027,-7.39533 z"
     id="path2989"
     style="fill:#ffffff" />
</svg>
