<?xml version="1.0" encoding="UTF-8" standalone="no"?>
<!-- Created with Inkscape (http://www.inkscape.org/) -->

<svg
   xmlns:dc="http://purl.org/dc/elements/1.1/"
   xmlns:cc="http://creativecommons.org/ns#"
   xmlns:rdf="http://www.w3.org/1999/02/22-rdf-syntax-ns#"
   xmlns:svg="http://www.w3.org/2000/svg"
   xmlns="http://www.w3.org/2000/svg"
   version="1.1"
   width="512"
   height="512"
   id="svg2">
  <metadata
     id="metadata8">
    <rdf:RDF>
      <cc:Work
         rdf:about="">
        <dc:format>image/svg+xml</dc:format>
        <dc:type
           rdf:resource="http://purl.org/dc/dcmitype/StillImage" />
        <dc:title></dc:title>
      </cc:Work>
    </rdf:RDF>
  </metadata>
  <defs
     id="defs6" />
  <path
     d="m 0,0 512,0 0,512 -512,0 z"
     id="rect3020"
     style="fill:#000000" />
  <path
     d="m 169.54399,386.0495 c 9.56441,-7.29513 9.29089,-19.00694 -1.02987,-44.09655 -3.86586,-9.39788 -7.43031,-20.00606 -7.92099,-23.57372 -0.96976,-7.05099 -2.2057,-6.30485 -3.74491,2.26077 -0.50602,2.816 -4.04485,13.36806 -7.86405,23.44904 -7.96053,21.0122 -9.14848,30.08763 -4.88829,37.34421 5.38174,9.16694 16.77277,11.23326 25.44811,4.61625 z m -61.21225,86.37469 c 10.65084,-6.49456 14.55152,-17.65857 14.54071,-41.61651 -0.009,-19.82008 -2.02625,-34.28332 -8.97268,-64.33011 -6.20859,-26.85527 -9.75195,-47.26239 -11.62606,-66.95757 -1.17749,-12.3743 -1.07343,-16.45379 0.65301,-25.6 5.70521,-30.22482 20.68669,-40.65413 37.60118,-26.17595 6.97634,5.97148 14.01826,20.22413 16.14305,32.67305 l 1.62195,9.5029 0.95995,-10.77124 c 1.97564,-22.16828 8.72131,-39.88082 19.16604,-50.32554 19.85351,-19.85351 54.2557,-17.01077 77.48352,6.40265 10.05969,10.14007 13.54322,16.5951 13.28331,24.61413 -0.10266,3.168 -2.93895,16.128 -6.30281,28.8 -5.63908,21.24293 -6.12107,24.23805 -6.17952,38.4 -0.0557,13.49555 0.28186,16.00564 2.7809,20.679 7.63342,14.27501 18.78094,14.25418 25.44016,-0.0475 2.54244,-5.46026 3.05263,-8.59635 3.06304,-18.82836 0.0102,-10.26902 -0.92834,-16.08369 -5.74022,-35.55331 -3.16401,-12.80203 -6.12835,-26.47233 -6.58744,-30.37843 l -0.8347,-7.102 7.0294,-6.62469 c 12.73071,-11.99778 31.30791,-17.03179 58.48855,-15.8491 22.15768,0.96412 35.86519,5.83952 42.46081,15.10223 3.85585,5.41503 2.89223,13.98209 -3.82411,33.99825 -6.23803,18.59069 -6.81869,27.13272 -2.30018,33.83774 5.29951,7.86394 13.80828,8.19477 19.34965,0.75232 4.11519,-5.52697 3.57472,-16.50658 -1.56099,-31.71133 -5.82178,-17.23594 -7.83506,-27.7404 -6.23175,-32.5148 2.25795,-6.72383 8.26348,-14.26093 14.58922,-18.30985 7.61371,-4.87332 9.73671,-5.69245 30.84532,-11.90121 18.27843,-5.37631 24.51959,-8.0786 30.73264,-13.30653 4.24642,-3.57313 9.77223,-14.06057 10.95892,-20.79893 l 0.73199,-4.15653 -4.77245,3.15825 C 442.93958,206.2679 367.3628,210.4939 289.92,197.6286 178.37015,179.09719 86.287616,129.81823 41.548417,64.709846 37.704787,59.116262 34.56,55.484247 34.56,56.638703 c 0,2.290121 8.99156,28.195863 22.325119,64.321297 17.193446,46.58327 30.147184,92.74628 37.354619,133.12 5.885512,32.96877 4.726213,54.8449 -5.460497,103.04 -7.842308,37.10332 -9.395775,46.3425 -10.807547,64.27748 -2.371857,30.13174 1.808334,44.7877 14.828306,51.98879 3.950519,2.18496 11.09666,1.74231 15.53174,-0.96208 z"
     id="path2989"
     style="fill:#ffffff" />
</svg>
