<?xml version="1.0" encoding="UTF-8" standalone="no"?>
<!-- Created with Inkscape (http://www.inkscape.org/) -->

<svg
   xmlns:dc="http://purl.org/dc/elements/1.1/"
   xmlns:cc="http://creativecommons.org/ns#"
   xmlns:rdf="http://www.w3.org/1999/02/22-rdf-syntax-ns#"
   xmlns:svg="http://www.w3.org/2000/svg"
   xmlns="http://www.w3.org/2000/svg"
   version="1.1"
   width="512"
   height="512"
   id="svg2">
  <metadata
     id="metadata8">
    <rdf:RDF>
      <cc:Work
         rdf:about="">
        <dc:format>image/svg+xml</dc:format>
        <dc:type
           rdf:resource="http://purl.org/dc/dcmitype/StillImage" />
        <dc:title></dc:title>
      </cc:Work>
    </rdf:RDF>
  </metadata>
  <defs
     id="defs6" />
  <path
     d="m 0,0 512,0 0,512 -512,0 z"
     id="rect3026"
     style="fill:#000000" />
  <path
     d="M 298.12159,105.92 C 288.16535,86.656076 273.11706,65.729709 261.69247,55.26114 245.35732,40.292947 228.75896,34.475173 202.99525,34.68759 c -23.73876,0.195721 -23.63197,0.07274 -9.78443,11.266348 14.17007,11.454322 30.61702,28.655836 42.64938,44.606062 8.9005,11.79862 8.95149,11.84 14.58621,11.84 7.90139,0 27.75093,2.35134 36.91359,4.37271 11.84809,2.6138 12.52545,2.56013 10.76159,-0.85271 z m -89.81978,34.19571 c 7.15569,-3.20043 17.99176,-13.09236 21.25528,-19.40334 l 1.9838,-3.83624 -9.17343,-7.55806 C 188.8082,81.66831 167.20161,67.446241 149.55793,61.392776 135.5541,56.588127 120.53173,54.751418 108.11479,56.325732 91.878185,58.384333 71.624248,64.48193 73.836422,66.645487 74.41039,67.206842 81.216,70.107203 88.96,73.090737 c 38.9126,14.991869 83.08759,43.180763 101.90705,65.028813 6.17175,7.16497 5.93793,7.13819 17.43476,1.99616 z M 284.16,205.63566 c -3.872,-0.88082 -9.344,-2.70468 -12.16,-4.05303 -7.79252,-3.7312 -17.76509,-14.46806 -22.88948,-24.64375 l -4.56369,-9.06227 8.46001,-0.906 c 25.27555,-2.70678 42.53635,4.76222 47.18558,20.41787 2.459,8.28033 2.53006,18.69152 0.12762,18.69152 -0.968,0 -3.416,0.26036 -5.44,0.57857 -2.024,0.31822 -6.848,-0.14209 -10.72,-1.02291 z M 367.3255,390.08 c -2.82895,-4.60269 -4.48761,-10.08755 -5.77035,-19.0814 l -0.85025,-5.96139 -4.03245,1.65819 c -16.40567,6.74617 -32.37724,0.75833 -38.94929,-14.60231 -2.11904,-4.95276 -2.82013,-20.89611 -1.2424,-28.25309 l 0.96074,-4.48 -8.17068,0.42258 c -18.9933,0.9823 -28.71063,-11.94089 -24.41532,-32.47026 1.02547,-4.90125 1.8645,-9.05558 1.8645,-9.23185 0,-0.17625 -0.85491,-0.32047 -1.8998,-0.32047 -1.0449,0 -3.7109,-1.61821 -5.92446,-3.59602 -10.968,-9.79991 -2.10868,-33.31402 16.14426,-42.84957 8.14683,-4.25599 25.51099,-3.56265 19.79099,0.79024 -10.32538,7.85758 -11.34855,23.68087 -2.24408,34.70443 3.86727,4.68243 4.14037,5.6268 3.76093,13.00524 -0.29801,5.79473 0.26618,9.48288 2.07674,13.57595 3.0215,6.83061 9.60316,14.54189 14.63056,17.14167 2.93356,1.51701 3.53358,2.49315 2.85219,4.64005 -1.54042,4.85341 -0.69744,13.71948 1.85252,19.48407 4.55905,10.3065 17.67745,21.98779 27.44633,24.43963 2.69105,0.67541 3.43382,1.62865 3.43382,4.40675 0,6.02324 3.45887,12.23766 10.16947,18.27106 7.20362,6.47669 7.03955,7.18446 -2.44091,10.52936 -3.01973,1.06543 -5.71447,1.93714 -5.9883,1.93714 -0.27384,0 -1.64847,-1.872 -3.05476,-4.16 z M 233.536,473.79249 c -0.6688,-0.59813 -3.77679,-2.0786 -6.90665,-3.28992 -14.44342,-5.58996 -33.29656,-18.80361 -48.12823,-33.73181 C 142.68137,400.71791 120.32,348.3685 120.32,300.56502 c 0,-33.70235 10.6064,-55.43317 32,-65.56288 7.80364,-3.69497 9.27212,-3.9446 23.66136,-4.02242 l 15.34135,-0.0829 3.41134,-10.16837 c 1.87624,-5.59261 4.13687,-14.05638 5.02365,-18.80838 1.76745,-9.47148 1.4454,-9.25949 11.89122,-7.82773 l 5.92624,0.81229 -0.74246,5.26771 c -1.37529,9.75767 -5.73127,24.37705 -11.67635,39.18773 -3.24976,8.096 -5.85154,15.67024 -5.78173,16.83166 0.20421,3.39691 12.31182,28.22251 20.36105,41.74856 25.71383,43.20991 68.42462,85.35684 104.74433,103.36151 18.36845,9.10574 27.13414,11.28061 42.81262,10.62235 10.78467,-0.4528 13.27359,-1.03168 21.09425,-4.90613 5.70724,-2.82744 12.49703,-7.83781 19.05423,-14.0606 l 10.18737,-9.66787 -13.15804,-7.00474 c -7.23692,-3.8526 -14.31588,-8.55672 -15.73103,-10.45358 l -2.57296,-3.44882 4.16526,-11.03603 c 2.29089,-6.06981 3.92214,-11.27914 3.62498,-11.57629 -0.29715,-0.29717 -5.16632,0.13396 -10.82037,0.95805 -8.36396,1.21906 -11.06261,1.17421 -14.47826,-0.2406 -8.6868,-3.59822 -15.37805,-11.61495 -15.37805,-18.42436 0,-2.30228 2.30374,-5.24412 8.31928,-10.62356 4.57562,-4.09177 8.31962,-7.76626 8.32,-8.16554 4e-4,-0.39928 -4.46328,-1.75663 -9.91928,-3.01634 -14.07721,-3.2502 -20.28801,-6.23579 -23.32108,-11.21062 -3.70534,-6.07753 -3.26154,-8.93893 2.52108,-16.25448 2.816,-3.56251 5.12,-6.81394 5.12,-7.22538 0,-0.41146 -3.312,-2.20672 -7.36,-3.98948 -9.33551,-4.11142 -11.84,-6.38468 -11.84,-10.74684 0,-4.97847 6.00152,-6.41151 15.64026,-3.73457 9.93575,2.75943 16.49529,11.30235 16.81345,21.89728 l 0.18629,6.2036 8.051,10e-4 c 15.09571,0.003 25.48067,8.95747 27.89459,24.05323 l 0.81881,5.12058 8.24679,-3.85915 c 5.3712,-2.51347 11.10854,-4.08884 16.45385,-4.51791 7.10258,-0.57013 9.15312,-0.19592 15.23713,2.78071 13.49923,6.60456 19.22371,18.32486 18.46724,37.80977 -0.24718,6.3665 -0.36545,11.57516 -0.26285,11.5748 0.74071,-0.003 8.92529,-14.02187 12.40247,-21.24409 7.23679,-15.03102 9.13315,-23.5889 9.04908,-40.83655 -0.0639,-13.09949 -0.57717,-16.867 -3.48793,-25.6 -1.87718,-5.632 -5.33453,-13.67453 -7.68299,-17.8723 l -4.26994,-7.6323 -12.05863,-2.35973 c -22.29085,-4.36182 -40.91975,-13.89182 -54.82339,-28.04581 -7.96135,-8.10469 -13.71031,-17.26693 -19.43752,-30.97796 -9.787,-23.43015 -29.76335,-36.18863 -74.52457,-47.59721 -14.40019,-3.67027 -34.68398,-6.93715 -43.11314,-6.94374 -5.71616,-0.004 -5.78912,0.0515 -9.58555,7.35245 -8.28429,15.93163 -25.76919,29.07448 -45.74847,34.38769 l -8.61401,2.29078 -4.73834,-5.70075 c -14.76876,-17.76847 -36.79927,-35.42327 -61.44116,-49.23765 l -6.60753,-3.70422 -9.66065,2.2775 C 78.377265,113.77642 51.222505,136.27538 39.503355,163.7377 L 35.909261,172.16 35.87463,323.52 35.84,474.88 l 99.456,0 c 54.7008,0 98.9088,-0.48938 98.24,-1.08751 z"
     id="path2989"
     style="fill:#ffffff" />
</svg>
