<?xml version="1.0" encoding="UTF-8" standalone="no"?>
<!-- Created with Inkscape (http://www.inkscape.org/) -->

<svg
   xmlns:dc="http://purl.org/dc/elements/1.1/"
   xmlns:cc="http://creativecommons.org/ns#"
   xmlns:rdf="http://www.w3.org/1999/02/22-rdf-syntax-ns#"
   xmlns:svg="http://www.w3.org/2000/svg"
   xmlns="http://www.w3.org/2000/svg"
   version="1.1"
   width="512"
   height="512"
   id="svg2">
  <metadata
     id="metadata8">
    <rdf:RDF>
      <cc:Work
         rdf:about="">
        <dc:format>image/svg+xml</dc:format>
        <dc:type
           rdf:resource="http://purl.org/dc/dcmitype/StillImage" />
        <dc:title></dc:title>
      </cc:Work>
    </rdf:RDF>
  </metadata>
  <defs
     id="defs6" />
  <path
     d="m 0,0 512,0 0,512 -512,0 z"
     id="rect3030"
     style="fill:#000000;fill-opacity:1;fill-rule:nonzero;stroke:none" />
  <path
     d="m 336.24086,215.0054 c -12.34098,-7.52439 -7.6833,-25.98928 6.5588,-26.00166 8.53489,-0.007 14.19286,5.57218 14.19286,13.99626 0,5.64626 -2.64819,10.13419 -7.27559,12.33004 -4.67734,2.21954 -9.49357,2.10352 -13.47607,-0.32464 z m 83.0224,154.48724 C 424.06847,359.8636 428,351.78356 428,351.537 c 0,-0.24655 -1.85658,0.20676 -4.12573,1.00736 -5.31915,1.87671 -17.0095,1.84801 -23.28983,-0.0572 -18.96849,-5.75423 -31.26984,-25.78918 -27.70695,-45.1257 5.63612,-30.5883 40.89646,-43.70983 65.12848,-24.23644 5.3019,4.26072 10.86318,12.74309 12.93877,19.7349 l 1.66009,5.59215 8.40203,-13.97604 c 4.62111,-7.68683 12.17619,-19.77405 16.78907,-26.86049 6.3948,-9.8239 8.06839,-13.08154 7.04556,-13.71418 -0.73782,-0.45636 -24.59564,-12.63213 -53.01738,-27.05727 l -51.67589,-26.22753 -2.54287,-6.88753 c -8.38066,-22.69951 -29.95343,-37.60635 -83.05279,-57.38967 -11.22789,-4.1832 -12.40568,-4.88908 -19.55607,-11.72052 -23.62388,-22.57013 -45.8736,-31.074978 -62.29383,-23.81153 -9.88431,4.3723 -16.85877,14.24612 -18.94165,26.8159 -3.16786,19.11741 8.11041,39.20871 27.24807,48.54019 9.51824,4.64108 17.48739,6.69566 32.30465,8.3287 6.49755,0.7161 12.04228,1.53055 12.32161,1.80989 0.27934,0.27933 -1.78209,7.58045 -4.58095,16.22471 -7.02137,21.68541 -9.98327,36.73416 -10.73098,54.52174 -1.09,25.93007 3.75559,45.34637 15.72518,63.01096 5.48054,8.08811 18.44538,19.78923 27.05421,24.41716 6.05754,3.25641 112.96078,42.24993 116.41046,42.46133 0.55729,0.0342 4.94479,-7.81622 9.75,-17.44527 z m -237.42778,105.5424 c 11.37317,-5.84276 28.31305,-16.71219 38.45459,-24.67431 11.59823,-9.10575 31.57184,-29.91151 38.55057,-40.15666 11.4078,-16.74728 16.7879,-30.82893 17.7916,-46.56704 l 0.51895,-8.13703 -5.70305,-4 c -3.13667,-2.2 -8.1682,-6.7 -11.18116,-10 -27.64391,-30.27748 -35.15776,-74.09236 -21.60785,-126 1.43572,-5.5 2.81452,-10.94613 3.06401,-12.10251 0.40347,-1.87005 -0.24054,-2.23907 -5.825,-3.33775 C 206.87745,194.35027 184.16301,174.90988 177.40761,150 c -2.7754,-10.23399 -2.35126,-24.50438 1.02538,-34.5 3.34001,-9.88719 7.02,-15.746787 14.08688,-22.430347 22.79943,-21.562755 59.02876,-15.240235 91.96912,16.049887 6.99508,6.64463 7.94546,7.18482 22.62673,12.86071 11.17133,4.31891 15.53213,5.59882 16.08931,4.72224 1.27069,-1.9991 0.88805,-18.0428 -0.61688,-25.86452 C 319.22056,83.335224 312.62287,71.65363 297.5,56.41794 288.16835,47.016681 272.37365,34.293014 271.33021,35.336459 c -0.17281,0.172811 0.61859,9.431405 1.75868,20.574652 1.14009,11.143247 1.83558,20.497757 1.54553,20.7878 -0.29004,0.290043 -7.63894,-3.965471 -16.33088,-9.456696 C 229.77261,49.217507 212.21213,40.300335 188.5,31.796135 165.17028,23.429083 140.36429,19.181263 122,20.408562 c -12.76847,0.853326 -31,3.6208 -31,4.705678 0,0.481762 13.725,15.243803 30.5,32.804536 16.775,17.560733 30.5,32.120226 30.5,32.354428 0,0.234202 -9.5625,0.737791 -21.25,1.119087 -33.370081,1.088674 -55.753533,4.067208 -77.25,10.279549 -11.746197,3.39457 -25.884297,9.88431 -25.23267,11.58243 0.270162,0.70403 7.538616,12.7096 16.15212,26.67904 10.537701,17.09012 15.278604,25.63527 14.492242,26.12127 -0.642771,0.39725 -9.660853,5.11583 -20.040183,10.48574 L 20,186.30377 l 0,28.73343 0,28.73342 22.75,12.76865 c 12.5125,7.02275 22.866021,12.85288 23.007823,12.95584 0.141803,0.10296 -10.095697,9.0924 -22.75,19.97653 L 20,309.26097 20,325.63049 20,342 31.25,341.9715 c 17.789377,-0.045 46.419318,-1.78607 56.25,-3.42074 4.95,-0.8231 17.65919,-3.91337 28.24265,-6.86727 10.58346,-2.95391 18.86456,-4.87862 18.40246,-4.27714 -10.28396,13.38584 -22.97494,30.91163 -26.23662,36.23183 C 105.59476,367.4122 97.994739,382.2 91.019564,396.5 c -6.975176,14.3 -14.583525,29.08703 -16.907443,32.86007 -2.323918,3.77305 -4.029562,7.05582 -3.79032,7.29506 0.785594,0.7856 25.743876,-2.6626 37.582879,-5.19239 17.45586,-3.73001 34.61856,-9.94101 54.48333,-19.71694 9.83841,-4.84171 17.99262,-8.67772 18.12049,-8.52446 0.21351,0.25593 -7.66419,64.42756 -8.965,73.02866 -0.31192,2.0625 -0.29835,3.75 0.0302,3.75 0.32851,0 4.94633,-2.23423 10.26181,-4.96496 z"
     id="path2989"
     style="fill:#ffffff" />
</svg>
