<?xml version="1.0" encoding="UTF-8" standalone="no"?>
<!-- Created with Inkscape (http://www.inkscape.org/) -->

<svg
   xmlns:dc="http://purl.org/dc/elements/1.1/"
   xmlns:cc="http://creativecommons.org/ns#"
   xmlns:rdf="http://www.w3.org/1999/02/22-rdf-syntax-ns#"
   xmlns:svg="http://www.w3.org/2000/svg"
   xmlns="http://www.w3.org/2000/svg"
   version="1.1"
   width="512"
   height="512"
   id="svg2">
  <metadata
     id="metadata8">
    <rdf:RDF>
      <cc:Work
         rdf:about="">
        <dc:format>image/svg+xml</dc:format>
        <dc:type
           rdf:resource="http://purl.org/dc/dcmitype/StillImage" />
        <dc:title></dc:title>
      </cc:Work>
    </rdf:RDF>
  </metadata>
  <defs
     id="defs6" />
  <rect
     width="512"
     height="512"
     x="0"
     y="0"
     id="rect3008"
     style="fill:#000000;fill-opacity:1;stroke:none" />
  <path
     d="m 98.710588,88.470588 c 8.405942,-8.40594 8.007192,-9.240366 -15.81604,-33.096461 L 62.109097,34.56 l -13.774549,0 -13.774548,0 0,3.561161 c 0,2.928319 4.618813,8.16 25.991237,29.44 29.511424,29.383804 29.623541,29.445238 38.159351,20.909427 z M 163.84,103.14612 c 0,-13.900418 -2.49376,-17.81449 -26.76886,-42.014884 C 121.79767,45.904772 113.86435,38.945229 109.66174,37.086217 102.22299,33.7957 87.834124,32.239539 86.393947,34.569793 85.709531,35.677202 97.597856,48.189481 123.64706,73.778118 144.68913,94.448154 162.34066,111.36 162.87268,111.36 c 0.53203,0 0.96732,-3.69625 0.96732,-8.21388 z m -41.70033,49.33621 C 122.85973,151.31726 47.743756,75.52 45.869106,75.52 c -1.874639,0 -1.147793,14.669843 1.050991,21.211982 1.780616,5.297948 5.623623,9.869088 24,28.547258 24.857018,25.26525 29.405443,28.28743 42.604363,28.30825 4.35845,0.006 8.2353,-0.49044 8.61521,-1.10516 z m 72.08437,31.32029 c 2.28211,-2.28211 4.47613,-5.83529 4.8756,-7.89596 0.68061,-3.51101 -1.67651,-6.14177 -37.47595,-41.82666 -42.46949,-42.333599 -41.35933,-41.582559 -49.89849,-33.75701 -3.8015,3.48382 -4.7172,5.23903 -4.7172,9.0419 0,4.48039 1.91601,6.63176 37.90685,42.56316 35.76367,35.70462 38.11189,37.79281 41.53338,36.93407 1.99459,-0.50061 5.49371,-2.77738 7.77581,-5.0595 z M 258.56,197.91247 c 0,-13.89126 -2.13267,-17.26291 -26.18486,-41.39708 -16.37878,-16.43462 -23.55881,-22.74754 -28.21409,-24.8068 -6.85928,-3.03418 -21.57066,-4.80772 -22.84023,-2.75352 -0.97887,1.58384 74.51256,77.37898 76.0949,76.40105 0.62935,-0.38897 1.14428,-3.7386 1.14428,-7.44365 z m -42.5285,49.33292 c 1.13934,-0.72307 -9.83656,-12.49365 -36.38598,-39.02039 -20.90962,-20.89175 -38.5658,-37.985 -39.23597,-37.985 -2.0641,0 -0.27139,19.3909 2.24842,24.32 2.79959,5.47638 43.36241,46.77293 48.69375,49.57455 2.10743,1.10747 5.27543,2.45274 7.04,2.98949 4.34698,1.3223 15.62519,1.39989 17.63978,0.12135 z m 72.85274,31.39885 c 2.24632,-2.24634 4.48065,-5.71559 4.96516,-7.70946 0.82876,-3.41047 -1.38288,-5.89365 -37.33571,-41.92 C 222.69234,195.12429 217.8368,190.72 214.29542,190.72 c -6.98182,0 -14.28704,9.20279 -12.60983,15.88531 0.40137,1.59921 17.63527,19.77749 38.29754,40.39617 35.32956,35.25506 37.78369,37.43605 41.19231,36.60776 1.99351,-0.48443 5.46246,-2.71868 7.7088,-4.965 z m 95.63966,188.59291 c 27.39216,-1.37114 50.19106,-2.94841 50.66423,-3.50505 0.47317,-0.55666 1.49438,-3.3161 2.26935,-6.1321 0.77497,-2.816 2.32539,-8.33722 3.44537,-12.26935 l 2.03634,-7.14936 12.6678,-3.53792 12.66779,-3.53791 0.69782,-5.95273 c 1.09262,-9.32067 5.19895,-98.61965 4.55924,-99.1482 C 473.21733,325.74468 440.992,315.00707 401.92,302.14318 l -71.04,-23.38888 -0.003,-11.12829 c -0.003,-10.28783 -0.36686,-11.86583 -4.8286,-20.89354 -5.5479,-11.22583 -13.12404,-18.75417 -23.96884,-23.81777 -5.70436,-2.66346 -9.46844,-3.38214 -19.84,-3.78808 l -12.8,-0.50098 18.08064,18.36718 c 9.94436,10.10195 19.01636,20.21057 20.16,22.46362 2.46954,4.86512 2.66076,11.58602 0.53179,18.69187 -2.10151,7.01421 -12.82752,17.79543 -19.72094,19.82247 -6.57218,1.93257 -13.87562,1.98739 -17.53564,0.13162 -1.53771,-0.77969 -11.27143,-9.8241 -21.63049,-20.09871 -10.35904,-10.2746 -19.19353,-18.32218 -19.6322,-17.88351 -0.43867,0.43867 -1.1089,4.23086 -1.4894,8.42711 -2.07765,22.91269 12.59193,44.09172 35.47624,51.21839 7.67291,2.38952 18.74801,2.67789 26.54473,0.6912 10.24954,-2.61171 44.36209,-3.69002 58.59512,-1.85221 37.38775,4.82759 62.49709,17.72144 76.9689,39.52414 18.23563,27.47312 10.45376,58.59957 -18.18958,72.75587 -8.26812,4.08633 -10.9258,4.74552 -21.32231,5.28861 -13.72048,0.71673 -23.44834,-1.28898 -36.52838,-7.53151 l -8.29958,-3.96102 11.35554,-5.09748 c 6.24556,-2.80362 11.79344,-5.51146 12.32862,-6.01743 0.53518,-0.50598 -13.45704,-7.43707 -31.0938,-15.40243 -17.63678,-7.96537 -32.3683,-14.18105 -32.73673,-13.81262 -0.36842,0.36843 1.30418,5.48021 3.71691,11.35954 2.41273,5.8793 9.12229,24.94566 14.91016,42.36966 8.15622,24.55383 11.0033,31.67663 12.6569,31.66505 1.17342,-0.008 24.54526,-1.13678 51.9374,-2.5079 z"
     id="path2987"
     style="fill:#ffffff" />
</svg>
