<?xml version="1.0" encoding="UTF-8" standalone="no"?>
<!-- Created with Inkscape (http://www.inkscape.org/) -->

<svg
   xmlns:dc="http://purl.org/dc/elements/1.1/"
   xmlns:cc="http://creativecommons.org/ns#"
   xmlns:rdf="http://www.w3.org/1999/02/22-rdf-syntax-ns#"
   xmlns:svg="http://www.w3.org/2000/svg"
   xmlns="http://www.w3.org/2000/svg"
   xmlns:sodipodi="http://sodipodi.sourceforge.net/DTD/sodipodi-0.dtd"
   xmlns:inkscape="http://www.inkscape.org/namespaces/inkscape"
   id="svg2"
   version="1.1"
   inkscape:version="0.48.3.1 r9886"
   width="400"
   height="400"
   sodipodi:docname="Icon.1_85.png">
  <metadata
     id="metadata8">
    <rdf:RDF>
      <cc:Work
         rdf:about="">
        <dc:format>image/svg+xml</dc:format>
        <dc:type
           rdf:resource="http://purl.org/dc/dcmitype/StillImage" />
        <dc:title></dc:title>
      </cc:Work>
    </rdf:RDF>
  </metadata>
  <defs
     id="defs6" />
  <sodipodi:namedview
     pagecolor="#ffffff"
     bordercolor="#666666"
     borderopacity="1"
     objecttolerance="10"
     gridtolerance="10"
     guidetolerance="10"
     inkscape:pageopacity="0"
     inkscape:pageshadow="2"
     inkscape:window-width="1855"
     inkscape:window-height="1056"
     id="namedview4"
     showgrid="false"
     inkscape:zoom="0.59"
     inkscape:cx="200"
     inkscape:cy="200"
     inkscape:window-x="65"
     inkscape:window-y="24"
     inkscape:window-maximized="1"
     inkscape:current-layer="svg2" />
  <path
     style="fill:#000000"
     d="m 0,0 400,0 0,400 -400,0 z"
     id="rect3018" />
  <path
     id="path2989"
     style="fill:#ffffff"
     d="m 207.64957,339.58277 c 5.71072,-2.65898 17.89441,-13.71457 24.38397,-22.12624 2.31532,-3.00109 4.67111,-5.45653 5.23508,-5.45653 0.56397,0 3.0019,1.6196 5.41764,3.59911 l 4.39224,3.59911 -3.71815,4.65089 c -2.04499,2.55799 -4.17672,5.25432 -4.73718,5.99184 -1.20365,1.58391 2.96076,1.14457 18.76018,-1.97913 C 275.74386,324.23176 285,318.95726 285,312.12479 c 0,-4.76906 -2.85366,-8.54637 -11.80412,-15.62479 -13.67696,-10.81633 -14.31965,-12.20415 -9.07661,-19.59996 11.54424,-16.28427 35.50924,-34.07258 59.58418,-44.22709 15.77161,-6.65227 26.32525,-9.81601 45.65841,-13.68738 l 5.86187,-1.17381 -0.69734,-9.65588 c -0.87711,-12.14523 -3.82243,-27.77054 -6.92654,-36.74627 -3.91102,-11.30893 -2.99802,-10.44614 -8.74372,-8.26295 -30.7768,11.69427 -68.13,42.08284 -92.27847,75.07286 l -4.91864,6.71953 -4.54526,-3.36676 c -2.49989,-1.85172 -4.68367,-3.78202 -4.85285,-4.28956 -0.82949,-2.48848 22.66712,-30.40685 35.45383,-42.12577 19.23219,-17.62614 33.72541,-27.75657 54.57233,-38.14478 7.58288,-3.77862 14.29141,-7.03834 14.90783,-7.24381 1.46637,-0.48879 -2.94316,-8.10248 -10.2907,-17.76837 -12.08985,-15.90453 -28.45347,-29.95461 -46.69356,-40.091885 -5.10914,-2.839506 -9.44086,-4.992947 -9.62605,-4.785426 -1.47292,1.650599 -12.1304,21.819621 -18.55074,35.106811 -13.18251,27.28186 -24.91086,59.78373 -32.57425,90.2705 -2.07378,8.25 -4.04711,15.32406 -4.38518,15.72013 -0.57631,0.67517 -10.72722,-1.53959 -11.75165,-2.56402 -0.73725,-0.73726 7.0149,-29.60582 12.5921,-46.89226 10.63414,-32.96034 21.09595,-57.50605 36.20439,-84.94348 C 275.35367,87.946573 278,82.696182 278,82.152834 278,81.207027 265.61592,76.816487 254,73.644089 242.51519,70.507497 218.20726,67 207.95461,67 l -5.59785,0 0.45518,78 0.45517,78 -5.97575,0 -5.97575,0 -0.6578,-18.16031 c -0.3618,-9.98817 -0.6647,-44.52567 -0.67312,-76.75 -0.008,-32.224328 -0.40088,-59.198133 -0.87212,-59.941784 C 187.4062,65.455125 151.8124,70.864614 135,76.371849 c -9.19622,3.012406 -19,6.664727 -19,7.078304 0,0.16855 2.02097,3.960095 4.49104,8.425657 18.7202,33.84362 34.17451,72.76299 45.31704,114.12419 5.96108,22.1276 5.79706,19.76413 1.4507,20.90369 -9.68309,2.53878 -8.77099,2.85968 -10.20083,-3.58886 C 154.92573,213.69853 146.37721,184.21189 142.4711,173 133.82828,148.1921 122.03422,121.21579 111.21127,101.5 103.64574,87.718153 104.69276,88.465054 98.125679,92.165216 76.104424,104.5729 55.791705,124.23839 43.67473,144.8812 c -2.060111,3.50967 -3.617198,6.43578 -3.460193,6.50248 6.510495,2.76591 22.283552,11.15415 29.375721,15.62225 18.270933,11.51077 31.054472,22.25593 48.175332,40.49361 9.83868,10.48046 24.19392,27.98421 24.22401,29.53701 0.006,0.29509 -2.19424,2.18245 -4.88879,4.19413 l -4.89919,3.65758 -7.32433,-9.69413 C 115.88683,223.2948 90.335323,197.46464 79.5,189.32198 68.759237,181.25038 57.365408,174.20525 45.088851,168.04459 l -10.166917,-5.102 -1.488258,3.5619 C 29.614687,175.64462 25,200.89772 25,212.65638 c 0,5.8153 -0.668724,5.30435 10.1579,7.76124 19.393205,4.4009 45.725286,15.62334 61.3421,26.14331 15.62752,10.52718 31.92443,26.10796 36.67557,35.06395 2.84401,5.36101 2.12631,6.87324 -6.82244,14.37512 -17.78847,14.91236 -14.79406,24.12344 9.945,30.59173 6.04646,1.58091 21.982,4.43143 22.42255,4.0109 0.12137,-0.11586 -1.55161,-2.66135 -3.71775,-5.65664 -2.16613,-2.9953 -3.95293,-5.73658 -3.97067,-6.09174 -0.0629,-1.25895 10.09612,-7.12338 10.81987,-6.24592 0.40452,0.49042 3.35966,4.39056 6.56698,8.66698 13.88391,18.51184 26.32364,24.31701 39.23046,18.30746 z" />
</svg>
