<?xml version="1.0" encoding="UTF-8" standalone="no"?>
<!-- Created with Inkscape (http://www.inkscape.org/) -->

<svg
   xmlns:dc="http://purl.org/dc/elements/1.1/"
   xmlns:cc="http://creativecommons.org/ns#"
   xmlns:rdf="http://www.w3.org/1999/02/22-rdf-syntax-ns#"
   xmlns:svg="http://www.w3.org/2000/svg"
   xmlns="http://www.w3.org/2000/svg"
   xmlns:sodipodi="http://sodipodi.sourceforge.net/DTD/sodipodi-0.dtd"
   xmlns:inkscape="http://www.inkscape.org/namespaces/inkscape"
   id="svg2"
   version="1.1"
   inkscape:version="0.48.3.1 r9886"
   width="400"
   height="400"
   sodipodi:docname="Icon.2_24.png">
  <metadata
     id="metadata8">
    <rdf:RDF>
      <cc:Work
         rdf:about="">
        <dc:format>image/svg+xml</dc:format>
        <dc:type
           rdf:resource="http://purl.org/dc/dcmitype/StillImage" />
        <dc:title></dc:title>
      </cc:Work>
    </rdf:RDF>
  </metadata>
  <defs
     id="defs6" />
  <sodipodi:namedview
     pagecolor="#ffffff"
     bordercolor="#666666"
     borderopacity="1"
     objecttolerance="10"
     gridtolerance="10"
     guidetolerance="10"
     inkscape:pageopacity="0"
     inkscape:pageshadow="2"
     inkscape:window-width="1855"
     inkscape:window-height="1056"
     id="namedview4"
     showgrid="false"
     inkscape:zoom="0.59"
     inkscape:cx="200"
     inkscape:cy="200"
     inkscape:window-x="65"
     inkscape:window-y="24"
     inkscape:window-maximized="1"
     inkscape:current-layer="svg2" />
  <path
     style="fill:#000000"
     d="m 0,7.6293945e-6 400,0 L 400,400.00001 l -400,0 z"
     id="rect3072" />
  <path
     id="path3015"
     style="fill:#ffffff"
     d="m 197.99817,70.397989 14.18055,-24.602012 -2.69891,-2.817052 c -3.43892,-3.589462 -13.01548,-8.7044 -20.87329,-11.148644 -6.6242,-2.060519 -22.39504,-3.452512 -24.25999,-2.141278 C 163.31474,30.414444 138,73.286541 138,74.308493 c 0,0.230162 2.3274,-0.0045 5.17199,-0.521562 6.3147,-1.147733 15.15703,0.230746 21.70542,3.383777 5.64089,2.716071 14.47953,10.862601 16.14324,14.879135 C 181.69274,93.67243 182.59701,95 183.03013,95 c 0.43312,0 7.16874,-11.070905 14.96804,-24.602011 z M 105.01479,104.75 c 1.3107,-2.3375 7.01856,-12.013872 12.68415,-21.50305 C 123.36452,73.757773 128,65.823695 128,65.615665 c 0,-0.819528 -9.12694,-2.614483 -13.19282,-2.594573 -5.07915,0.02487 -16.260695,3.77145 -20.978559,7.02924 -7.351372,5.076287 -14.097795,11.462078 -20.30323,19.217912 l -6.528557,8.159688 16.251583,5.668598 c 8.938371,3.11774 16.956223,5.72145 17.817443,5.78604 0.87128,0.0653 2.62293,-1.76777 3.94893,-4.13257 z M 256,96.319807 c 6.875,-11.919464 14.01473,-24.338997 15.86606,-27.598964 l 3.36606,-5.927212 -5.48694,-5.18867 C 260.58001,48.938006 244.93141,42 234.54836,42 l -5.12133,0 -16.25257,28.127613 c -8.93891,15.470186 -16.12249,28.254393 -15.96351,28.409346 0.15898,0.154954 2.69907,-0.196498 5.64466,-0.781005 6.63692,-1.316995 16.23582,0.243207 23.1962,3.770306 5.1033,2.58603 14.4756,11.40939 15.47971,14.57304 0.33179,1.04538 0.91043,1.8988 1.28587,1.89648 0.37543,-0.002 6.30761,-9.75651 13.18261,-21.675973 z M 156.23582,135.8112 c 5.66436,-1.69708 13.23286,-8.85476 15.42643,-14.58908 2.17489,-5.68548 2.20918,-14.33709 0.0767,-19.36168 -5.14714,-12.127977 -19.55421,-18.659476 -31.70358,-14.37293 -10.34852,3.651169 -17.05286,13.09243 -17.01344,23.95883 0.0643,17.71441 16.11401,29.4881 33.21386,24.36486 z m 154.82362,-8.233 13.21032,-22.92181 -1.70977,-3.17486 c -2.53254,-4.702638 -12.65165,-14.519011 -18.80582,-18.243194 -6.04645,-3.658997 -15.53404,-7.258148 -18.97919,-7.199819 -1.91811,0.03248 -4.81491,4.460037 -18.46663,28.225023 -8.9054,15.50257 -16.07917,28.29897 -15.9417,28.43644 0.13747,0.13747 3.03621,-0.26822 6.44165,-0.90152 14.04168,-2.61133 31.49552,5.06606 37.69713,16.58177 1.06161,1.97128 2.24823,3.25466 2.63694,2.85196 0.38872,-0.40271 6.6514,-11.047 13.91707,-23.65399 z m -94.95866,32.26319 c 10.2741,-3.50187 17.90941,-13.85236 17.88945,-24.25111 -0.0176,-9.17779 -6.30887,-19.02469 -14.88265,-23.29392 -5.05959,-2.51938 -16.29819,-2.44603 -21.51098,0.14038 -15.86218,7.87027 -19.41252,28.58945 -7.02211,40.97986 6.74451,6.74451 17.00875,9.32795 25.52629,6.42479 z m 58.41096,31.65563 c 8.14808,-5.07522 12.31205,-11.38957 13.20291,-20.02123 1.45089,-14.05773 -8.71415,-26.06389 -23.0407,-27.21389 -8.19512,-0.65783 -15.14969,2.19955 -20.69978,8.50478 -4.50248,5.11509 -5.97006,9.36814 -5.94663,17.23332 0.0282,9.46008 5.61634,18.04171 14.45027,22.19099 5.2702,2.4754 17.56744,2.0881 22.03393,-0.69397 z m 84.49945,-19.59357 12.86539,-22.35074 -2.18829,-3.91034 c -5.79338,-10.35242 -18.87136,-20.84272 -30.74287,-24.65992 -6.00723,-1.93158 -7.27891,-2.07196 -8.04691,-0.88829 C 327.53392,125.27976 301,171.87799 301,172.60121 c 0,0.49433 4.3875,0.89879 9.75,0.89879 8.40248,0 10.51014,0.35746 15.25,2.58638 6.45515,3.03554 13.96507,10.29216 16.52386,15.96653 1.08145,2.39824 2.17445,3.64878 2.71587,3.10736 0.49834,-0.49834 6.6955,-10.96391 13.77146,-23.25682 z M 70.952203,197.5 c 2.984292,-19.69774 9.980141,-42.62981 19.214168,-62.98316 2.749003,-6.05926 5.073661,-11.62359 5.165908,-12.36518 0.11184,-0.89911 -6.258997,-3.56297 -19.121604,-7.99539 -15.792836,-5.44216 -19.446876,-6.39212 -20.158494,-5.2407 -1.002103,1.62144 -2.852743,13.55865 -4.121417,26.58443 -2.493526,25.60165 0.847902,57.73711 7.945834,76.41735 1.084527,2.85424 3.468462,7.14349 5.297634,9.53166 L 68.5,225.79113 69.120084,215.64557 C 69.46113,210.0655 70.285584,201.9 70.952203,197.5 z M 319.73165,229.35495 C 327.33956,226.64675 334,216.824 334,208.31212 c 0,-4.80157 -2.86078,-11.79005 -6.24209,-15.24854 -6.10398,-6.24329 -13.73483,-8.6908 -21.74212,-6.97355 -19.14926,4.10678 -24.45049,29.94661 -8.40817,40.98402 7.04054,4.84401 13.15331,5.47422 22.12403,2.2809 z m -82.01464,80.20565 c 26.24407,-12.68339 47.92867,-30.66732 67.51272,-55.99104 l 7.01392,-9.06956 -5.45519,-0.6004 c -16.60463,-1.82753 -29.88648,-15.43465 -31.45436,-32.22469 -0.59808,-6.40473 -0.65219,-6.50447 -3.03661,-5.59791 -3.73745,1.42097 -14.90895,1.09489 -20.64358,-0.60255 -7.19935,-2.13101 -15.35677,-8.11235 -19.82,-14.5328 C 228.17016,185.67126 225,177.39294 225,173.09609 c 0,-2.50632 0.60614,-2.46618 -7.16749,-0.47467 -17.46144,4.47341 -36.07858,-4.39303 -43.88867,-20.90206 -1.61825,-3.42065 -2.94262,-6.75822 -2.94305,-7.41682 -4.9e-4,-0.7439 -2.40553,-0.0721 -6.3496,1.77351 -19.54781,9.14752 -42.3979,0.82462 -51.33591,-18.69855 l -2.54482,-5.55864 -3.38678,6.11059 c -1.86274,3.36083 -5.57648,11.38909 -8.252781,17.84057 -12.635762,30.4598 -17.802101,55.13206 -16.929874,80.84996 l 0.466524,13.75562 4.887137,4.42462 C 107.54936,262.90256 155.07848,289.38158 196,305.21634 c 12.6864,4.90906 26.946,9.69647 29,9.73625 0.825,0.016 6.54766,-2.41042 12.71701,-5.39199 z M 216.59462,340.5 c 1.19318,-3.85 2.47692,-8.43363 2.85276,-10.18585 l 0.68335,-3.18584 -7.81537,-2.47661 C 157.95636,307.42585 92.048521,270.31176 65.648744,242.06064 62.980553,239.20534 60.668362,237.01111 60.510542,237.18459 58.375229,239.53173 46,257.69133 46,258.47759 c 0,2.76431 8.234152,14.56187 14.809982,21.21915 24.780505,25.08742 74.267338,49.55638 126.690018,62.64237 7.7,1.92211 15.8,3.94513 18,4.4956 7.81106,1.95443 8.67933,1.45868 11.09462,-6.33471 z m -10.03959,26.97149 c 2.91092,-6.58211 2.99314,-7.46754 0.69497,-7.48409 -4.16711,-0.03 -35.47736,-8.36409 -51.88008,-13.80931 -54.17806,-17.98551 -100.60299,-46.75682 -115.131281,-71.35125 -0.924644,-1.5653 -2.128055,-2.69703 -2.674248,-2.51497 -1.544653,0.51488 -8.531512,13.92176 -8.548883,16.4042 -0.04169,5.95711 8.600359,18.27767 19.249487,27.44309 23.059832,19.84699 64.223375,39.08353 106.735005,49.87939 16.8901,4.28925 31.63068,6.80673 40.30503,6.88351 l 8.80503,0.0779 2.44497,-5.52851 z M 119.5,368.63212 C 81.504107,355.14015 53.571248,339.26188 33.25,319.60381 l -6.25,-6.04603 0,13.42015 0,13.42015 4.978964,4.6745 c 11.040419,10.36529 33.781443,20.80778 56.503033,25.94573 6.044743,1.36687 12.324813,1.82068 25.518003,1.84398 l 17.5,0.0309 -12,-4.26108 z m -76.455909,-0.68968 c -5.200749,-2.76054 -10.938249,-6.14981 -12.75,-7.5317 L 27,357.89822 l 0,7.55089 0,7.55089 12.75,-0.0192 12.75,-0.0192 -9.455909,-5.01918 z" />
</svg>
