<?xml version="1.0" encoding="UTF-8" standalone="no"?>
<!-- Created with Inkscape (http://www.inkscape.org/) -->

<svg
   xmlns:dc="http://purl.org/dc/elements/1.1/"
   xmlns:cc="http://creativecommons.org/ns#"
   xmlns:rdf="http://www.w3.org/1999/02/22-rdf-syntax-ns#"
   xmlns:svg="http://www.w3.org/2000/svg"
   xmlns="http://www.w3.org/2000/svg"
   xmlns:sodipodi="http://sodipodi.sourceforge.net/DTD/sodipodi-0.dtd"
   xmlns:inkscape="http://www.inkscape.org/namespaces/inkscape"
   id="svg2"
   version="1.1"
   inkscape:version="0.48.3.1 r9886"
   width="400"
   height="400"
   sodipodi:docname="Icon.5_43.svg">
  <metadata
     id="metadata8">
    <rdf:RDF>
      <cc:Work
         rdf:about="">
        <dc:format>image/svg+xml</dc:format>
        <dc:type
           rdf:resource="http://purl.org/dc/dcmitype/StillImage" />
      </cc:Work>
    </rdf:RDF>
  </metadata>
  <defs
     id="defs6" />
  <sodipodi:namedview
     pagecolor="#ffffff"
     bordercolor="#666666"
     borderopacity="1"
     objecttolerance="10"
     gridtolerance="10"
     guidetolerance="10"
     inkscape:pageopacity="0"
     inkscape:pageshadow="2"
     inkscape:window-width="1280"
     inkscape:window-height="970"
     id="namedview4"
     showgrid="false"
     inkscape:zoom="0.834386"
     inkscape:cx="148.79086"
     inkscape:cy="211.68264"
     inkscape:window-x="0"
     inkscape:window-y="26"
     inkscape:window-maximized="1"
     inkscape:current-layer="svg2" />
  <rect
     style="fill:#000000;fill-opacity:1;stroke:none"
     id="rect3014"
     width="400"
     height="400"
     x="0"
     y="-5.6843419e-14" />
  <path
     id="path2987"
     style="fill:#ffffff"
     d="m 161.5,60.89413 c 10.13679,-1.239205 10.21109,-1.269483 19.35123,-7.885532 9.48627,-6.866588 21.95215,-13.544015 34.5566,-18.510448 l 10.90784,-4.29793 -7.90784,-0.839955 C 198.87156,27.285158 172.95476,29.221299 155,34.097214 c -14.59334,3.963065 -33.5639,12.15515 -45.40671,19.608047 l -4.9067,3.08788 5.9067,1.243543 c 18.76051,3.949663 34.6682,4.842578 50.90671,2.857446 z M 355.91698,132.75 c -6.7759,-17.32048 -21.48765,-39.01767 -36.79204,-54.261652 -5.90174,-5.878435 -11.40017,-11.062871 -12.21875,-11.520969 -3.30039,-1.846994 1.88625,28.882756 8.2309,48.766351 l 2.94639,9.23372 19.70826,6.43229 c 10.83954,3.53776 19.81419,6.47008 19.94367,6.51628 0.12947,0.0462 -0.68882,-2.27852 -1.81843,-5.16602 z m -58.49467,38.48316 c 7.34954,-22.05652 8.18714,-33.11655 3.54389,-46.79557 -6.65625,-19.60932 -10.49429,-38.992777 -11.75734,-59.378741 L 288.5,53.617697 l -12,-6.289912 c -6.6,-3.459452 -13.49228,-6.579101 -15.31617,-6.932554 -4.6046,-0.892325 -18.4243,1.969937 -32.6432,6.760883 -13.23336,4.458876 -22.5829,8.867185 -32.84999,15.488766 l -6.80937,4.39158 6.34482,8.23177 c 18.25681,23.686383 32.74044,47.5365 44.20953,72.79959 l 4.79765,10.56782 24.13336,12.06979 c 13.27336,6.63838 24.43516,11.89088 24.80401,11.67221 0.36886,-0.21867 2.28211,-5.23369 4.25167,-11.14448 z m -90.27036,7.48484 c 3.10858,-1.38667 9.30984,-4.86766 13.7806,-7.73553 9.4346,-6.05204 9.29655,-4.26927 1.59352,-20.57864 -10.56986,-22.37922 -25.64135,-46.61116 -40.9532,-65.844523 l -7.461,-9.371847 -4.30594,1.096177 C 167.40656,76.894453 156.42309,77.398855 145,77.422816 123.67474,77.46755 116.5419,76.598886 99.166812,71.841082 95.133558,70.736661 91.637922,70.028745 91.398731,70.267936 89.997317,71.66935 88.828483,90.256991 89.371904,102.5 c 0.528907,11.91603 2.698579,28.90382 3.836976,30.04221 0.187317,0.18732 22.37945,11.99494 49.31585,26.23917 l 48.97527,25.89859 5,-1.72037 c 2.75,-0.94621 7.54338,-2.85493 10.65195,-4.2416 z M 48.018332,172.08139 c 7.985083,-8.01976 17.83275,-18.96319 21.883705,-24.31872 l 7.365373,-9.73732 -1.765036,-10.26268 C 74.531605,122.1182 73.51282,110.18105 73.238408,101.23566 72.664776,82.536208 73.208603,82.903077 63.998303,95.002229 50.53697,112.68577 41.082595,131.4865 34.832801,153 c -2.184937,7.52115 -5.819666,27.97002 -5.827474,32.78518 -0.005,3.09734 0.123329,3.21635 2.244673,2.08139 1.2375,-0.66208 8.78325,-7.76541 16.768332,-15.78518 z M 119.5,275.02441 c 15.27392,-3.01213 15.48531,-3.16885 20.43474,-15.15008 8.45179,-20.45947 20.94449,-42.39692 35.54853,-62.42401 1.45026,-1.98879 0.58159,-2.53109 -29.24431,-18.25682 -16.90643,-8.91393 -36.60885,-19.31379 -43.78316,-23.1108 l -13.044199,-6.90366 -7.4558,9.51474 c -4.100691,5.2331 -8.318504,10.57586 -9.372919,11.87279 -1.902973,2.34067 -1.894137,2.43028 1.1975,12.14575 7.25341,22.79383 11.983826,47.06998 14.658248,75.22506 C 89.297384,266.97794 90,274.93555 90,275.62096 c 0,2.65124 14.52005,2.35761 29.5,-0.59655 z M 351.40575,274 c 14.93935,-29.39989 20.91128,-66.61211 15.9978,-99.68533 -2.74185,-18.45572 -0.56269,-16.32371 -24.90355,-24.36477 -11.55,-3.81557 -21.24735,-6.94021 -21.54967,-6.94365 -0.30232,-0.003 -1.09425,3.76023 -1.75984,8.36372 -1.2872,8.90271 -5.16547,22.78819 -9.62292,34.4532 l -2.71429,7.10322 2.89981,4.28681 c 13.33555,19.71395 26.62067,51.04209 33.32092,78.5753 1.49511,6.14383 2.55697,8.85227 3.13645,8 0.48184,-0.70868 2.81972,-5.1135 5.19529,-9.7885 z M 64.5,286.41002 c 2.75,-1.33644 6.063001,-3.32594 7.362224,-4.42112 l 2.362225,-1.99123 -1.185617,-13.74884 C 70.795584,240.23534 65.933404,213.01145 59.901476,192.69131 l -2.021125,-6.8087 -6.408199,5.99456 c -3.524509,3.297 -10.022588,8.79622 -14.440175,12.22047 C 32.130124,207.89726 29,211.04412 29,212.17254 c 0,3.49765 3.11298,21.33841 5.067694,29.0434 3.549519,13.99129 10.426421,30.40925 18.666898,44.56545 2.799081,4.8085 3.12825,4.82609 11.765408,0.62863 z m 145.59444,24.54259 c 28.9881,-14.54691 70.24599,-30.97802 101.86946,-40.5699 6.30514,-1.91244 11.62276,-3.63604 11.81693,-3.83021 0.19418,-0.19417 -1.96695,-6.58542 -4.80249,-14.20277 -5.31011,-14.26498 -14.36241,-32.70339 -21.92558,-44.65967 l -4.30775,-6.80994 -25.02111,-12.51825 -25.0211,-12.51826 -3.1014,2.29678 c -11.41529,8.45374 -30.70712,18.67671 -39.49541,20.92908 -4.16863,1.06839 -6.15599,2.3165 -9.20614,5.78165 C 185.41896,211.07773 174.20883,227.78648 167.98889,239 163.57167,246.9635 152,271.96516 152,273.54545 c 0,0.26367 2.41306,2.02301 5.36235,3.90965 12.73697,8.14774 29.15364,22.94717 37.29053,33.61696 2.06695,2.71037 4.1238,4.92794 4.57077,4.92794 0.44698,0 5.33883,-2.27133 10.87079,-5.04739 z M 177.35824,364.25 c 0.28443,-1.5125 0.80304,-5.34134 1.15247,-8.50853 0.73064,-6.62241 3.35436,-16.13808 6.32859,-22.95245 l 2.05618,-4.71099 -4.27975,-5.78901 c -6.32962,-8.5618 -21.02345,-22.05078 -32.24195,-29.59821 l -9.87378,-6.64275 -5.84044,1.9546 c -10.79336,3.61217 -21.70525,5.21384 -36.682906,5.38441 -13.979617,0.1592 -14.653506,0.26318 -18,2.7773 -1.91216,1.43655 -5.839154,3.79483 -8.726654,5.24062 -2.8875,1.44579 -5.25,3.01766 -5.25,3.49306 0,1.73285 21.71726,22.91923 29.520995,28.79935 19.425715,14.63729 37.247305,23.36462 60.479005,29.61689 9.45505,2.5446 13.08197,3.25038 18.17054,3.53588 2.17226,0.12187 2.76704,-0.36328 3.1877,-2.60017 z M 226.5,366.591 c 36.97961,-6.54125 67.25795,-22.25819 93.21841,-48.38801 13.36667,-13.45387 12.8529,-12.34166 10.8471,-23.48165 -0.91814,-5.09922 -2.03656,-9.86549 -2.48539,-10.59171 -0.64998,-1.05169 -3.33593,-0.55599 -13.19809,2.43573 -31.59166,9.58346 -67.73281,24.21555 -101.88203,41.24793 -9.37087,4.67384 -9.54429,4.82625 -12.7588,11.21248 -3.17853,6.31478 -5.5395,15.48049 -6.53572,25.37288 l -0.49332,4.89865 12.64392,-0.6456 C 212.81024,368.29662 222.1,367.36931 226.5,366.591 z" />
</svg>
