<?xml version="1.0" encoding="UTF-8" standalone="no"?>
<!-- Created with Inkscape (http://www.inkscape.org/) -->

<svg
   xmlns:dc="http://purl.org/dc/elements/1.1/"
   xmlns:cc="http://creativecommons.org/ns#"
   xmlns:rdf="http://www.w3.org/1999/02/22-rdf-syntax-ns#"
   xmlns:svg="http://www.w3.org/2000/svg"
   xmlns="http://www.w3.org/2000/svg"
   xmlns:sodipodi="http://sodipodi.sourceforge.net/DTD/sodipodi-0.dtd"
   xmlns:inkscape="http://www.inkscape.org/namespaces/inkscape"
   id="svg2"
   version="1.1"
   inkscape:version="0.48.3.1 r9886"
   width="400"
   height="400"
   sodipodi:docname="Icons8_02.png">
  <metadata
     id="metadata8">
    <rdf:RDF>
      <cc:Work
         rdf:about="">
        <dc:format>image/svg+xml</dc:format>
        <dc:type
           rdf:resource="http://purl.org/dc/dcmitype/StillImage" />
        <dc:title></dc:title>
      </cc:Work>
    </rdf:RDF>
  </metadata>
  <defs
     id="defs6" />
  <sodipodi:namedview
     pagecolor="#ffffff"
     bordercolor="#666666"
     borderopacity="1"
     objecttolerance="10"
     gridtolerance="10"
     guidetolerance="10"
     inkscape:pageopacity="0"
     inkscape:pageshadow="2"
     inkscape:window-width="1855"
     inkscape:window-height="1056"
     id="namedview4"
     showgrid="false"
     inkscape:zoom="0.59"
     inkscape:cx="200"
     inkscape:cy="200"
     inkscape:window-x="65"
     inkscape:window-y="24"
     inkscape:window-maximized="1"
     inkscape:current-layer="svg2" />
  <path
     style="fill:#000000"
     d="m 0,0 400,0 0,400 -400,0 z"
     id="rect3046" />
  <path
     id="path3015"
     style="fill:#ffffff"
     d="m 182.28212,202.65287 c 6.37139,-2.66731 10.25828,-8.48635 14.39998,-21.55814 2.09985,-6.6274 4.0429,-12.0573 4.3179,-12.06645 0.275,-0.009 2.22258,4.67296 4.32796,10.40469 4.46186,12.14707 8.10686,18.3148 12.80314,21.66427 L 221.5,203.5 l 44,0 44,0 5.82281,-2.85917 C 321.95806,197.38272 327,191.39708 327,186.77801 l 0,-2.92192 -5.75,0.79368 c -5.5067,0.76011 -30.03116,0.9024 -30.75512,0.17845 -0.19179,-0.19179 -0.0972,-3.12219 0.21016,-6.51199 l 0.55887,-6.16328 10.61804,0.54059 c 17.67451,0.89985 29.94969,-2.62336 32.12715,-9.22111 1.27184,-3.85371 0.46987,-11.51664 -1.64056,-15.67587 -1.80456,-3.55643 -6.44677,-4.78395 -18.11854,-4.79098 L 305,143 l 0,-6.35711 0,-6.3571 7.76769,-0.53241 C 326.5769,128.80687 332,125.07129 332,116.50561 c 0,-6.52736 -3.24786,-16.18065 -6.92547,-20.583886 -2.56333,-3.069087 -3.35855,-3.412529 -7.71619,-3.332506 -5.27845,0.09693 -12.0166,2.670515 -22.57767,8.623372 C 291.08504,103.29566 287.66906,105 287.1896,105 286.41167,105 281,96.00301 281,94.709693 c 0,-0.285807 2.08107,-1.73924 4.62461,-3.229851 C 295.07316,85.942625 301,79.015614 301,73.509822 301,64.678723 285.57116,51 275.61017,51 269.49045,51 263.90869,58.502952 259.05744,73.25 257.83617,76.9625 256.50379,80 256.09661,80 255.3166,80 245.72159,76.887791 245.19082,76.462631 244.37411,75.808432 248.71918,63.490917 252.76187,55 258.21387,43.549097 258.76343,38.512774 255,34.489179 c -3.43354,-3.670902 -5.16437,-4.465736 -12.18756,-5.596788 -4.24577,-0.68376 -7.77224,-0.633846 -11.69552,0.165542 -4.78282,0.974521 -6.38547,1.931607 -10.7924,6.445091 -4.29515,4.399008 -5.5994,6.642571 -7.66775,13.190039 C 209.14969,59.794942 208,69.640585 208,88.572359 L 208,105 l -6.36788,0 -6.36789,0 -0.52834,-21.25 C 194.3137,66.769565 193.798,60.96213 192.16921,54.845886 186.67667,34.220983 176.77705,26.220732 160.0762,28.910325 148.98869,30.695917 144.10342,35.654512 145.58041,43.623703 145.97554,45.755666 147.8437,50.875 149.73187,55 c 3.30113,7.211823 7.22837,18.344898 7.25523,20.567378 0.0119,0.980414 -10.8081,5.010814 -11.44015,4.26142 C 145.39443,79.647959 144.46525,77.025 143.48212,74 138.56921,58.883557 132.78937,51 126.61962,51 c -7.09992,0 -19.50489,8.537581 -23.58787,16.234085 -4.292081,8.090646 -0.51192,15.441033 11.96376,23.263098 C 118.29798,92.567783 121,94.442941 121,94.664199 121,95.545995 115.93285,105 115.46022,105 c -0.27834,0 -5.26904,-2.45353 -11.09043,-5.452292 -13.192676,-6.795914 -19.700925,-8.462072 -24.122571,-6.17555 -4.458772,2.305721 -9.308048,12.516522 -9.992229,21.039982 -0.511365,6.37052 -0.445587,6.59726 2.878054,9.9209 3.772199,3.7722 10.187974,5.66848 19.166177,5.66486 L 97.5,129.9958 97.164673,136.4979 96.829346,143 87.664673,143.006 C 71.072965,143.01567 68,145.40762 68,158.31224 c 0,5.97691 0.240862,6.71265 2.941516,8.9851 4.459476,3.7524 11.911597,5.20266 26.733686,5.20266 l 13.175198,0 0.5748,2.875 c 0.31614,1.58125 0.5748,4.32905 0.5748,6.10622 l 0,3.23123 -7.83511,0.65342 c -4.309317,0.35938 -12.268899,0.19367 -17.687964,-0.36826 -11.522758,-1.19485 -12.338763,-0.81753 -10.622242,4.91171 1.482088,4.94676 7.871752,10.63024 14.114695,12.55474 6.520129,2.00994 87.566651,2.17571 92.312741,0.18881 z M 290.05045,335.3264 c -14.32012,-21.27047 -25.85459,-38.85559 -25.63215,-39.07804 0.22245,-0.22244 8.80372,0.34628 19.0695,1.26384 10.26579,0.91755 18.85977,1.47356 19.09775,1.23558 0.23798,-0.23798 -11.93803,-18.61608 -27.0578,-40.84023 L 248.03727,217.5 233.76863,216.98952 c -13.42184,-0.48019 -14.58338,-0.68423 -19.57218,-3.43808 -2.91696,-1.61018 -6.90003,-4.6947 -8.85127,-6.85449 l -3.54772,-3.9269 -4.51973,4.58434 C 189.14727,215.60108 186.3318,216.42603 164.3582,217 l -19.14179,0.5 35.34304,29 35.34303,29 -28.93432,0.56641 c -15.91387,0.31153 -29.11175,0.76153 -29.32862,1 -0.43493,0.47826 156.38014,96.87285 157.65398,96.91028 0.43644,0.0128 -10.92294,-17.37981 -25.24307,-38.65029 z" />
</svg>
