<?xml version="1.0" encoding="UTF-8" standalone="no"?>
<!-- Created with Inkscape (http://www.inkscape.org/) -->

<svg
   xmlns:dc="http://purl.org/dc/elements/1.1/"
   xmlns:cc="http://creativecommons.org/ns#"
   xmlns:rdf="http://www.w3.org/1999/02/22-rdf-syntax-ns#"
   xmlns:svg="http://www.w3.org/2000/svg"
   xmlns="http://www.w3.org/2000/svg"
   xmlns:sodipodi="http://sodipodi.sourceforge.net/DTD/sodipodi-0.dtd"
   xmlns:inkscape="http://www.inkscape.org/namespaces/inkscape"
   id="svg2"
   version="1.1"
   inkscape:version="0.48.3.1 r9886"
   width="400"
   height="400"
   sodipodi:docname="Icon.5_95.png">
  <metadata
     id="metadata8">
    <rdf:RDF>
      <cc:Work
         rdf:about="">
        <dc:format>image/svg+xml</dc:format>
        <dc:type
           rdf:resource="http://purl.org/dc/dcmitype/StillImage" />
        <dc:title></dc:title>
      </cc:Work>
    </rdf:RDF>
  </metadata>
  <defs
     id="defs6" />
  <sodipodi:namedview
     pagecolor="#ffffff"
     bordercolor="#666666"
     borderopacity="1"
     objecttolerance="10"
     gridtolerance="10"
     guidetolerance="10"
     inkscape:pageopacity="0"
     inkscape:pageshadow="2"
     inkscape:window-width="1216"
     inkscape:window-height="1000"
     id="namedview4"
     showgrid="false"
     inkscape:zoom="1.18"
     inkscape:cx="360.29623"
     inkscape:cy="205.67"
     inkscape:window-x="64"
     inkscape:window-y="24"
     inkscape:window-maximized="1"
     inkscape:current-layer="svg2" />
  <rect
     style="fill:#000000;fill-opacity:1;stroke:none"
     id="rect3052"
     width="400"
     height="400"
     x="0"
     y="7.6293945e-06" />
  <path
     id="path3007"
     style="fill:#ffffff"
     d="M 137.69699,73.75 C 137.0514,57.458351 135.50955,47.022646 131.92577,34.688685 L 129.69173,27 82,28.274215 C 82,30.400431 90.705498,44.978002 96.443905,52.46089 105.93402,64.836001 132.97127,89 137.32776,89 c 0.61524,0 0.75113,-5.612563 0.36923,-15.25 z M 290.48197,97.575594 C 309.65411,84.654628 324.95441,67.502812 334.36486,48.382378 337.68385,41.63876 343,27.813683 343,25.926008 c 0,-1.24706 -10.94404,4.292266 -18.18714,9.205423 -18.46956,12.528314 -33.57989,33.490866 -41.26452,57.246214 -2.65198,8.198035 -3.06592,10.637885 -1.79834,10.599855 0.4125,-0.0124 4.34189,-2.44323 8.73197,-5.401906 z m -189.782,42.630996 C 102.37924,139.13913 96.267274,131.63819 87.5,124.00685 79.143425,116.733 65.709302,109.79197 54.5,106.95668 46.272915,104.87572 28,103.13011 28,104.42513 c 0,1.55473 9.162755,12.52343 14.686763,17.58147 10.341517,9.46919 20.218649,14.74095 32.813237,17.51355 6.571157,1.44659 23.287803,1.90195 25.19997,0.68644 z M 301,148.45099 c 19.30637,-1.56551 39.50443,-7.40219 58.37612,-16.8691 L 371.5,125.5 371.53057,56 c -0.27244,0 -3.54077,1.854688 -7.26296,4.121529 -30.59396,18.631961 -56.97657,47.074781 -76.2261,82.178551 l -4.27725,7.80008 4.86787,-0.52051 c 2.67733,-0.28627 8.24287,-0.79417 12.36787,-1.12866 z m 69.89633,122.67872 2.39632,-0.67093 -5.63277,-6.6396 c -11.40898,-13.44826 -28.18497,-23.42713 -45.389,-26.99876 -8.15146,-1.69227 -12.27542,-1.94946 -24.88217,-1.55176 -20.07748,0.63337 -20.30241,0.7997 -11.72114,8.6673 15.28656,14.01524 33.46233,23.44835 51.83243,26.90069 5.7514,1.08088 29.82792,1.29215 33.39633,0.29306 z M 36.00741,313.99567 C 55.430358,302.65206 77.983351,282.28343 93.25,262.29729 97.5125,256.7171 101,251.82445 101,251.42475 c 0,-1.1435 -24.573589,0.30469 -34.170937,2.01379 -11.12696,1.98149 -23.284061,5.76451 -33.079063,10.29345 l -7.75,3.5834 c 0,0 1.41994,51.33985 1.563532,51.2986 0.859943,-0.32999 4.659688,-2.40823 8.443878,-4.61832 z m 127.33345,35.74437 c 9.07496,-22.27342 22.71639,-59.01989 28.73774,-77.41198 l 4.31233,-13.17193 6.64959,15.17193 c 7.24875,16.539 20.85072,44.11403 21.45976,43.50499 1.1211,-1.12109 -4.78026,-52.64093 -8.04034,-70.19352 C 215.65697,243.31627 215,239.59046 215,239.35995 c 0,-0.23052 8.6625,7.14692 19.25,16.39431 28.18899,24.62098 86.17541,70.15367 87.56801,68.76106 1.26329,-1.26328 -46.59723,-59.96221 -72.57569,-89.01107 l -16.09365,-17.99575 30.17567,-2.18645 c 42.20002,-3.0577 111.08408,-11.50417 108.9358,-13.35757 -1.18313,-1.02073 -41.0784,-5.68092 -68.76014,-8.03192 -13.75,-1.16778 -26.51626,-2.33581 -28.36946,-2.59562 l -3.36946,-0.47239 19.86946,-9.85303 c 16.81378,-8.33777 19.3312,-9.86469 16.36946,-9.92883 -8.71554,-0.18871 -57.22646,5.63566 -70.90549,8.51314 -3.96883,0.83487 -4.14014,1.31153 3.44871,-9.59583 6.87117,-9.87583 16.67465,-26.11546 16.10761,-26.6825 -0.6611,-0.6611 -10.68498,4.60383 -22.83241,11.99246 -5.87487,3.57337 -10.50531,5.97796 -10.28986,5.34354 C 227.91612,147.73374 246.2843,37.164521 244.38771,35.089637 243.81381,34.461793 233.63328,56.453527 225.44926,76 c -8.48785,20.272124 -18.15098,46.20685 -25.05696,67.25 -2.66238,8.1125 -5.13659,14.75 -5.49825,14.75 -0.36167,0 -2.48811,-5.33893 -4.72544,-11.86429 -6.72118,-19.60289 -26.90649,-66.534392 -30.35902,-70.58571 -1.85529,-2.177062 -0.0752,33.00517 2.75498,54.45 0.83474,6.325 1.79777,13.75 2.14005,16.5 l 0.62234,5 -9.91348,-9.04452 C 136.47469,125.17676 78.328796,78.560931 77.073382,79.64986 75.540385,80.97956 113.65473,131.17102 135.81147,157 c 4.95393,5.775 8.92106,10.58941 8.81582,10.69869 -0.10523,0.10927 -4.22692,-0.68836 -9.15931,-1.77252 C 130.53559,164.84201 121.1,163.67726 114.5,163.33783 102.08975,162.69958 83,163.6464 83,164.90018 c 0,2.41806 31.55132,20.38754 42.5,24.20511 l 4,1.39471 -4,0.28628 c -29.673755,2.12375 -94.001318,9.27572 -98.5,10.95127 -3.918955,1.45963 68.562274,12.25686 82.30902,12.26124 4.98046,0.002 4.05844,1.2265 -3.04198,4.0413 -6.479046,2.56847 -38.266762,17.63333 -38.267545,18.13578 -8.6e-4,0.55222 17.770242,-0.10558 33.500505,-1.24002 13.72869,-0.99009 35.57794,-3.70308 46.98347,-5.83386 l 4.5993,-0.85924 -1.29139,1.7894 c -10.28562,14.25224 -24.11739,35.96246 -29.31227,46.00825 l -1.67857,3.24599 3.84973,-2.33941 c 15.56647,-9.45948 33.68146,-21.89011 42.63976,-29.2597 2.63452,-2.1673 5.03377,-3.69681 5.33168,-3.39891 0.2979,0.29791 -1.10875,9.01739 -3.12588,19.37664 -4.58824,23.56346 -9.91689,58.17776 -12.50153,81.20856 -1.08797,9.69453 -2.25308,19.42643 -2.58914,21.62643 -1.00666,6.59021 0.81132,3.18037 8.9357,-16.75996 z M 327.89583,368.25 C 315.82635,348.28761 301.10689,331.94415 282.5,317.84565 c -9.9938,-7.57233 -30.05877,-19.62021 -31.04076,-18.63822 -0.6435,0.64349 1.60895,21.20621 3.15261,28.78032 2.77198,13.60101 11.76569,36.73379 16.62538,42.76225 L 330.16312,372 z M 89.819825,368.82534 C 117.48689,350.0582 133.45083,324.33773 136.6178,293.42628 l 0.6948,-6.78164 -6.83612,3.7576 C 106.98615,303.31415 92.087034,323.5232 86.538078,350 c -1.690371,8.06559 -3.011442,22 -2.085741,22 0.378022,0 2.793391,-1.4286 5.367488,-3.17466 z" />
</svg>
