<?xml version="1.0" encoding="UTF-8" standalone="no"?>
<!-- Created with Inkscape (http://www.inkscape.org/) -->

<svg
   xmlns:dc="http://purl.org/dc/elements/1.1/"
   xmlns:cc="http://creativecommons.org/ns#"
   xmlns:rdf="http://www.w3.org/1999/02/22-rdf-syntax-ns#"
   xmlns:svg="http://www.w3.org/2000/svg"
   xmlns="http://www.w3.org/2000/svg"
   xmlns:sodipodi="http://sodipodi.sourceforge.net/DTD/sodipodi-0.dtd"
   xmlns:inkscape="http://www.inkscape.org/namespaces/inkscape"
   id="svg2"
   version="1.1"
   inkscape:version="0.48.3.1 r9886"
   width="400"
   height="400"
   sodipodi:docname="Icon.6_20.png">
  <metadata
     id="metadata8">
    <rdf:RDF>
      <cc:Work
         rdf:about="">
        <dc:format>image/svg+xml</dc:format>
        <dc:type
           rdf:resource="http://purl.org/dc/dcmitype/StillImage" />
        <dc:title></dc:title>
      </cc:Work>
    </rdf:RDF>
  </metadata>
  <defs
     id="defs6" />
  <sodipodi:namedview
     pagecolor="#ffffff"
     bordercolor="#666666"
     borderopacity="1"
     objecttolerance="10"
     gridtolerance="10"
     guidetolerance="10"
     inkscape:pageopacity="0"
     inkscape:pageshadow="2"
     inkscape:window-width="1855"
     inkscape:window-height="1056"
     id="namedview4"
     showgrid="false"
     inkscape:zoom="0.59"
     inkscape:cx="200"
     inkscape:cy="200"
     inkscape:window-x="65"
     inkscape:window-y="24"
     inkscape:window-maximized="1"
     inkscape:current-layer="svg2" />
  <path
     style="fill:#000000"
     d="m 0,0 400,0 0,400 -400,0 z"
     id="rect3048" />
  <path
     id="path3015"
     style="fill:#ffffff"
     d="M 373.00061,300.34134 C 365.70433,225.21573 326.344,155.21063 253.77502,88.290299 234.38514,70.409694 223.27771,61.035583 199.10504,42.151587 L 179.71009,27 147.14076,27 c -27.32803,0 -32.33369,0.216259 -31.10505,1.343827 0.80536,0.739105 13.38929,10.953402 27.96429,22.698437 54.90896,44.247525 84.78655,70.181406 116.86238,101.437036 19.49836,18.99978 44.24208,46.41285 58.13208,64.40336 l 3.38373,4.38265 -3.60874,3.30716 c -4.19185,3.84155 -10.32084,5.78992 -15.28427,4.85877 -1.91685,-0.3596 -3.4811,-0.26624 -3.47612,0.20747 0.008,0.80313 6.25297,7.95753 54.71876,62.69165 10.14464,11.45669 18.66486,20.6103 18.93382,20.34134 0.26895,-0.26896 -0.0285,-5.81762 -0.66103,-12.33036 z M 329.24888,319.75 C 313.87914,289.9821 297.60452,263.94169 274.09481,231.5 L 262.5,215.5 261.86738,225 c -0.34795,5.225 -1.16964,10.93432 -1.826,12.68738 l -1.19337,3.18738 -6.13276,-7.18738 C 217.81746,192.78841 138.48084,113.73346 64.5,46.14033 L 43.5,26.953529 35,27.226765 26.5,27.5 26.230734,49.165089 25.961468,70.830178 35.730734,79.697164 C 66.12473,107.284 174.79589,201.56895 215.88908,236.0056 l 24.38907,20.43838 -3.36243,1.37202 c -1.84934,0.75461 -6.63692,1.61966 -10.63908,1.92235 -4.00215,0.30268 -7.25774,0.82287 -7.23463,1.15599 0.0428,0.61718 7.35572,6.14923 30.36885,22.9733 14.74422,10.77897 36.79809,25.85454 47.08914,32.18916 8.99084,5.53428 38.58964,20.88822 40.3277,20.91939 0.80265,0.0144 -2.19441,-6.79776 -7.57882,-17.22619 z m -13.26204,52.84757 C 313.51908,370.17624 294.175,352.11187 273,332.45453 l -38.5,-35.74061 -0.59816,6.14651 C 233.27627,309.28862 231.1097,313 227.98272,313 227.0437,313 217.77354,306.5875 207.38237,298.75 151.4496,256.56293 108.62361,219.42023 56.75,168.10756 L 27,138.67926 l 0,34.11054 0,34.11055 16.75,14.33775 c 103.51364,88.60613 185.3361,136.10311 263.99523,153.24618 5.91513,1.28915 11.19885,2.38257 11.74161,2.42981 0.54277,0.0473 -1.03223,-1.89518 -3.5,-4.31652 z" />
</svg>
