<?xml version="1.0" encoding="UTF-8" standalone="no"?>
<!-- Created with Inkscape (http://www.inkscape.org/) -->

<svg
   xmlns:dc="http://purl.org/dc/elements/1.1/"
   xmlns:cc="http://creativecommons.org/ns#"
   xmlns:rdf="http://www.w3.org/1999/02/22-rdf-syntax-ns#"
   xmlns:svg="http://www.w3.org/2000/svg"
   xmlns="http://www.w3.org/2000/svg"
   xmlns:sodipodi="http://sodipodi.sourceforge.net/DTD/sodipodi-0.dtd"
   xmlns:inkscape="http://www.inkscape.org/namespaces/inkscape"
   id="svg2"
   version="1.1"
   inkscape:version="0.48.3.1 r9886"
   width="400"
   height="400"
   sodipodi:docname="Icons8_47.png">
  <metadata
     id="metadata8">
    <rdf:RDF>
      <cc:Work
         rdf:about="">
        <dc:format>image/svg+xml</dc:format>
        <dc:type
           rdf:resource="http://purl.org/dc/dcmitype/StillImage" />
        <dc:title></dc:title>
      </cc:Work>
    </rdf:RDF>
  </metadata>
  <defs
     id="defs6" />
  <sodipodi:namedview
     pagecolor="#ffffff"
     bordercolor="#666666"
     borderopacity="1"
     objecttolerance="10"
     gridtolerance="10"
     guidetolerance="10"
     inkscape:pageopacity="0"
     inkscape:pageshadow="2"
     inkscape:window-width="1855"
     inkscape:window-height="1056"
     id="namedview4"
     showgrid="false"
     inkscape:zoom="0.59"
     inkscape:cx="200"
     inkscape:cy="200"
     inkscape:window-x="65"
     inkscape:window-y="24"
     inkscape:window-maximized="1"
     inkscape:current-layer="svg2" />
  <path
     style="fill:#000000"
     d="m 0,0 400,0 0,400 -400,0 z"
     id="rect3036" />
  <path
     id="path2989"
     style="fill:#ffffff"
     d="m 356,94 0,-67 -7,0 -7,0 0,64.317378 0,64.317382 5.46593,1.72298 c 3.00626,0.94764 5.73281,2.15482 6.05901,2.68262 0.3262,0.5278 1.01654,0.95964 1.53408,0.95964 C 355.63763,161 356,135.19858 356,94 z M 317.75,156.92405 320,156.04288 320,91.521439 320,27 l -7.5,0 -7.5,0 0,67.444581 0,67.444579 5.25,-2.04197 c 2.8875,-1.12308 6.2625,-2.43849 7.5,-2.92314 z M 244,102.5 244,27 l -7.5,0 -7.5,0 0,75.5 0,75.5 7.5,0 7.5,0 0,-75.5 z m 39,0.31291 L 283,27 l -7.00617,0 -7.00617,0 0.25617,77.15982 0.25617,77.15981 4,1.18181 c 3.71777,1.09843 4.19403,1.0034 6.75,-1.3469 l 2.75,-2.52872 0,-75.81291 z m -80.75,80.06128 5.75,-1.27434 0,-77.29993 L 208,27 l -7,0 -7,0 0,79.08333 c 0,62.8715 0.25625,78.97898 1.25,78.57427 0.6875,-0.27998 3.8375,-1.08251 7,-1.78341 z m -37,13.3746 6.75,-3.16514 0,-83.04183 L 172,27 l -7.5,0 -7.5,0 0,86.58333 c 0,47.62084 0.3375,86.41397 0.75,86.20697 0.4125,-0.207 3.7875,-1.80068 7.5,-3.54151 z M 128.859,222.21063 135,216.42127 135,121.71063 135,27 l -7,0 -7,0 0,100.5 c 0,55.33578 0.38603,100.5 0.859,100.5 0.47245,0 3.62245,-2.60521 7,-5.78937 z M 96,175.5 96,27 l -7,0 -7,0 0,148.5 0,148.5 7,0 7,0 0,-148.5 z M 52.44288,336.39695 59,326.79389 59,176.89695 59,27 l -7,0 -7,0 0,159.5 c 0,87.725 0.199296,159.5 0.44288,159.5 0.243585,0 3.393585,-4.32137 7,-9.60305 z M 233,372.41801 c 0,-0.3201 -14.14049,-17.0826 -31.4233,-37.25 -17.28282,-20.16741 -31.54912,-37.11421 -31.70288,-37.65957 -0.40865,-1.44933 12.17701,-11.72457 19.93691,-16.27699 13.79505,-8.09298 33.09882,-14.83837 44.23789,-15.45821 l 4.91046,-0.27324 6.92754,20.5 c 13.28725,39.3197 27.06993,66.83252 41.22669,82.29621 L 291.5,373.08788 313.94116,372.79394 336.38232,372.5 329.90986,365 C 302.9597,333.77133 285.23396,296.73008 278.52371,257.61901 277.68567,252.73447 277,247.3425 277,245.63688 l 0,-3.10115 2.51231,3.69719 c 11.73366,17.26765 43.81948,11.81656 64.39161,-10.93955 19.18176,-21.21813 22.11081,-49.92866 6.32082,-61.95664 -14.19167,-10.81047 -38.13933,-5.22348 -56.83617,13.25988 -3.94821,3.90314 -7.8998,8.49133 -8.78131,10.19597 l -1.60274,3.09936 -5.25226,-2.31543 c -7.94705,-3.50342 -18.98354,-5.69157 -31.78199,-6.30125 -38.81444,-1.84901 -79.02015,13.58036 -106.80679,40.98823 -12.48068,12.31056 -18.95403,23.72184 -21.86698,38.54728 -2.39263,12.17728 -0.95001,21.42161 5.33538,34.18923 4.12158,8.37223 6.00975,10.83551 15.90542,20.75 l 11.22866,11.25 -40.79895,0 -40.798951,0 -2.948783,3.75 C 60.107794,347.25033 46,370.49199 46,372.41248 46,372.73562 88.075,373 139.5,373 c 51.425,0 93.5,-0.2619 93.5,-0.58199 z" />
</svg>
