<?xml version="1.0" encoding="UTF-8" standalone="no"?>
<!-- Created with Inkscape (http://www.inkscape.org/) -->

<svg
   xmlns:dc="http://purl.org/dc/elements/1.1/"
   xmlns:cc="http://creativecommons.org/ns#"
   xmlns:rdf="http://www.w3.org/1999/02/22-rdf-syntax-ns#"
   xmlns:svg="http://www.w3.org/2000/svg"
   xmlns="http://www.w3.org/2000/svg"
   xmlns:sodipodi="http://sodipodi.sourceforge.net/DTD/sodipodi-0.dtd"
   xmlns:inkscape="http://www.inkscape.org/namespaces/inkscape"
   id="svg2"
   version="1.1"
   inkscape:version="0.48.3.1 r9886"
   width="400"
   height="400"
   sodipodi:docname="Icon.7_69.png">
  <metadata
     id="metadata8">
    <rdf:RDF>
      <cc:Work
         rdf:about="">
        <dc:format>image/svg+xml</dc:format>
        <dc:type
           rdf:resource="http://purl.org/dc/dcmitype/StillImage" />
        <dc:title></dc:title>
      </cc:Work>
    </rdf:RDF>
  </metadata>
  <defs
     id="defs6" />
  <sodipodi:namedview
     pagecolor="#ffffff"
     bordercolor="#666666"
     borderopacity="1"
     objecttolerance="10"
     gridtolerance="10"
     guidetolerance="10"
     inkscape:pageopacity="0"
     inkscape:pageshadow="2"
     inkscape:window-width="1855"
     inkscape:window-height="1056"
     id="namedview4"
     showgrid="false"
     inkscape:zoom="0.59"
     inkscape:cx="200"
     inkscape:cy="200"
     inkscape:window-x="65"
     inkscape:window-y="24"
     inkscape:window-maximized="1"
     inkscape:current-layer="svg2" />
  <path
     style="fill:#000000"
     d="m 0,0 400,0 0,400 -400,0 z"
     id="rect3020" />
  <path
     id="path2989"
     style="fill:#ffffff"
     d="m 153,164.99231 c 7.71874,-7.97392 12.21507,-15.17537 15.70739,-25.15739 3.1627,-9.03987 3.69001,-25.10367 1.09623,-33.39484 -9.07609,-29.012255 -35.98608,-47.454065 -69.21358,-47.433074 -22.173531,0.01401 -39.992886,6.904617 -55.45867,21.445444 -11.957527,11.242388 -18.568964,25.00357 -19.797112,41.20611 -0.905271,11.94293 -0.205213,12.73846 5.008753,5.69178 7.797415,-10.53821 17.180938,-17.91982 30.983686,-24.37352 36.550146,-17.089617 78.442953,-8.513929 91.887303,18.80983 3.08306,6.2659 3.286,7.32788 3.286,17.19585 0,10.11459 -0.14553,10.82231 -3.79881,18.47408 -2.08935,4.37612 -5.42862,9.94553 -7.42059,12.37648 -3.10472,3.7889 -3.27621,4.23818 -1.20119,3.14702 1.33132,-0.70009 5.34559,-4.29459 8.92059,-7.98777 z m 60,200.66267 c 29.83624,-5.72979 53.93634,-14.0355 94.61962,-32.60914 22.56918,-10.30378 38.86406,-18.98257 55.13038,-29.36289 L 374,296.50379 374,284.2519 C 374,277.51335 373.796,272 373.54666,272 c -0.24934,0 -5.98684,3.77348 -12.75,8.3855 -35.26667,24.04953 -68.82314,40.97344 -106.61031,53.76797 -7.8725,2.66559 -14.6225,4.83474 -15,4.82033 -0.37749,-0.0144 7.41365,-4.19788 17.31365,-9.29659 38.16301,-19.65477 65.43494,-37.23395 102.25,-65.90918 L 374,251.8898 l 0,-20.02175 0,-20.02176 -14.25,13.50927 c -15.89658,15.07027 -25.48395,23.25611 -40.25,34.3661 -13.34365,10.03976 -37.99347,26.22845 -54,35.46433 -12.84569,7.41205 -41.46814,22.66241 -40.5,21.57885 0.275,-0.30778 6.90109,-4.86549 14.72465,-10.12823 43.75802,-29.4351 77.67555,-58.1853 117.99995,-100.02266 L 374,189.72789 373.9684,173.11395 373.9368,156.5 l -2.2184,2.61915 c -1.22012,1.44053 -5.80503,7.06553 -10.18868,12.5 -13.81249,17.12351 -54.9698,57.22233 -85.58186,83.38085 -5.73959,4.90457 -5.13087,4.03849 5.62273,-8 34.44252,-38.55787 69.81187,-84.10425 87.96891,-113.28071 L 374,126.55173 373.97619,104.52586 373.95238,82.5 l -8.2847,16 c -27.7748,53.64066 -57.03666,95.21869 -93.16323,132.37519 -22.46431,23.10473 -38.51762,35.34534 -60.00445,45.75326 -23.54729,11.40597 -46.0145,14.61939 -65,9.29675 -6.77777,-1.90016 -17.02079,-7.81441 -21.78474,-12.57836 -9.6336,-9.6336 -14.15453,-22.2346 -14.11667,-39.34684 0.0287,-12.96371 1.6078,-20.2283 6.88047,-31.65307 l 3.30124,-7.15308 -3.64015,1.50902 c -8.92363,3.69929 -23.073492,15.8777 -31.149011,26.80912 -13.37426,18.10407 -21.331988,43.73549 -19.580225,63.06686 2.590063,28.58233 22.440332,56.93678 49.089086,70.11965 20.07178,9.92932 32.68904,12.34741 62,11.88228 17.50922,-0.27785 23.24407,-0.7642 34.5,-2.9258 z" />
</svg>
