<?xml version="1.0" encoding="UTF-8" standalone="no"?>
<!-- Created with Inkscape (http://www.inkscape.org/) -->

<svg
   xmlns:dc="http://purl.org/dc/elements/1.1/"
   xmlns:cc="http://creativecommons.org/ns#"
   xmlns:rdf="http://www.w3.org/1999/02/22-rdf-syntax-ns#"
   xmlns:svg="http://www.w3.org/2000/svg"
   xmlns="http://www.w3.org/2000/svg"
   xmlns:sodipodi="http://sodipodi.sourceforge.net/DTD/sodipodi-0.dtd"
   xmlns:inkscape="http://www.inkscape.org/namespaces/inkscape"
   id="svg2"
   version="1.1"
   inkscape:version="0.48.3.1 r9886"
   width="400"
   height="400"
   sodipodi:docname="Icon.5_94.png">
  <metadata
     id="metadata8">
    <rdf:RDF>
      <cc:Work
         rdf:about="">
        <dc:format>image/svg+xml</dc:format>
        <dc:type
           rdf:resource="http://purl.org/dc/dcmitype/StillImage" />
        <dc:title></dc:title>
      </cc:Work>
    </rdf:RDF>
  </metadata>
  <defs
     id="defs6" />
  <sodipodi:namedview
     pagecolor="#ffffff"
     bordercolor="#666666"
     borderopacity="1"
     objecttolerance="10"
     gridtolerance="10"
     guidetolerance="10"
     inkscape:pageopacity="0"
     inkscape:pageshadow="2"
     inkscape:window-width="1855"
     inkscape:window-height="1056"
     id="namedview4"
     showgrid="false"
     inkscape:zoom="0.59"
     inkscape:cx="200"
     inkscape:cy="200"
     inkscape:window-x="65"
     inkscape:window-y="24"
     inkscape:window-maximized="1"
     inkscape:current-layer="svg2" />
  <path
     style="fill:#000000"
     d="m 0,0 400,0 0,400 -400,0 z"
     id="rect3018"
     inkscape:connector-curvature="0" />
  <path
     id="path2989"
     style="fill:#ffffff"
     d="m 53.0847,365.61397 10.281241,-9.38603 4.339591,1.86016 c 13.39107,5.74008 37.983568,6.49164 52.129388,1.59309 8.66772,-3.00154 16.75715,-7.71545 22.17638,-12.92274 2.15129,-2.06715 4.49131,-3.7604 5.20006,-3.76278 0.70875,-0.002 7.7012,1.42255 15.53878,3.16652 7.83758,1.74398 14.51491,2.90609 14.83853,2.58248 0.32361,-0.32361 -3.85925,-6.36105 -9.29524,-13.41653 L 158.4098,322.5 l 2.20592,-7.03719 c 1.21326,-3.87045 3.15713,-14.85266 4.31971,-24.4049 2.49007,-20.45941 3.38769,-24.55895 7.1288,-32.55791 5.25546,-11.23683 14.49855,-19.33771 26.6917,-23.39328 6.81508,-2.26677 12.96326,-1.67946 18.54748,1.77178 1.99848,1.23513 7.87187,7.05524 13.05198,12.93359 9.61425,10.91018 20.52124,21.75176 26.45955,26.30086 l 3.31495,2.53945 -2.11853,15.76306 c -1.16519,8.66967 -1.97131,16.2047 -1.79137,16.74451 0.17993,0.5398 5.67671,-3.91179 12.21505,-9.89243 l 11.8879,-10.87389 7.9773,2.31055 c 18.10271,5.24329 38.76108,1.82525 53.99974,-8.93454 l 2.79998,-1.97703 14.88709,6.10369 c 8.1879,3.35702 15.1384,6.10368 15.44556,6.10368 0.30717,0 -2.98903,-6.79672 -7.32489,-15.10382 l -7.88337,-15.10382 1.92127,-5.46635 c 7.50574,-21.35519 1.77604,-49.86532 -14.6467,-72.87972 l -4.47689,-6.27381 6.62769,-12.69765 c 7.59724,-14.55516 8.38881,-13.92269 -8.54744,-6.82954 C 335.38354,162.04038 330.34377,164 329.90281,164 c -1.35797,0 -9.66718,-12.30383 -13.37257,-19.80138 -5.96063,-12.06086 -8.67787,-22.99821 -9.26636,-37.2987 l -0.51851,-12.60007 2.37732,-0.63627 c 1.30752,-0.349949 7.21481,-0.642415 13.12731,-0.649925 5.9125,-0.0075 10.73326,-0.351155 10.71281,-0.763655 -0.0204,-0.4125 -5.19545,-4.701591 -11.5,-9.531314 -8.53452,-6.538037 -11.46278,-9.348101 -11.46268,-11 1.6e-4,-2.571382 6.90905,-25.877214 9.98317,-33.676313 1.1495,-2.916319 1.90974,-5.482668 1.68941,-5.702997 -0.67415,-0.674152 -11.44832,11.43954 -15.54128,17.473487 -14.17229,20.893148 -21.5207,51.150717 -18.41666,75.831817 l 0.89856,7.14468 -9.69386,7.35532 c -7.34343,5.57191 -9.2969,7.52013 -8.05666,8.03503 0.90045,0.37385 6.16688,0.71135 11.70318,0.75 l 10.06598,0.0703 2.32249,5.75 c 5.05925,12.5257 12.07796,23.10406 23.38824,35.25 6.32726,6.79475 14.47306,18.10089 15.88615,22.04953 0.40798,1.14004 -3.16395,3.90295 -13.51618,10.45483 -16.2856,10.3071 -16.74319,9.23017 5.12217,12.05492 l 13.33484,1.72271 -0.6495,3.609 c -1.56026,8.66964 -7.01759,16.53297 -15.03264,21.66013 -12.55115,8.02888 -24.9598,8.33617 -39.44611,0.97686 -8.68213,-4.41068 -15.76181,-10.02952 -27.32082,-21.68337 -18.77793,-18.93201 -19.69286,-21.90425 -12.16669,-39.52473 8.71572,-20.40552 11.82389,-34.33738 11.784,-52.81988 -0.032,-14.82013 -1.65926,-23.17836 -6.60338,-33.91706 l -3.18462,-6.91706 7.30142,-13.923224 c 4.01579,-7.657771 7.11161,-14.113037 6.87962,-14.345034 -0.232,-0.231997 -6.39782,2.05863 -13.70182,5.090282 C 239.72514,87.519557 233.1758,90 232.47506,90 c -0.70075,0 -3.56294,-1.540287 -6.36043,-3.422861 -8.94989,-6.022829 -15.28025,-7.895562 -27.01459,-7.991824 L 188.70007,78.5 178.60004,66.673511 168.5,54.847022 l -0.27416,15.949696 -0.27417,15.949696 -13.72583,9.075269 C 129.70603,112.03372 122.49355,114.04531 110.94852,107.89188 99.216168,101.6386 93.796892,93.801984 93.878207,83.207127 c 0.02759,-3.594522 0.403777,-6.853511 0.835976,-7.242199 0.4322,-0.388687 7.310817,0.766977 15.285817,2.568144 7.975,1.801166 14.62008,3.16049 14.76683,3.02072 0.14676,-0.139771 -4.01574,-5.899669 -9.25,-12.799774 C 110.28258,61.853914 106,55.732556 106,55.151001 c 0,-1.59656 12.80148,-12.285369 19.55133,-16.324708 3.27177,-1.957937 8.19867,-4.369205 10.94867,-5.358374 10.19632,-3.667593 8.6045,-3.863051 -11,-1.350674 -9.43978,1.209736 -23.91901,5.827612 -30.979127,9.8802 -11.038831,6.336418 -19.879697,17.945966 -24.187328,31.762041 -2.232066,7.159015 -2.533502,9.598951 -2.107947,17.062534 l 0.496562,8.70896 -10.29462,13.46764 c -5.66204,7.4072 -10.15722,13.60503 -9.989287,13.77297 0.167933,0.16793 7.387875,-1.28134 16.044317,-3.22061 l 15.738985,-3.52593 4.553256,4.00793 C 94.203546,132.33249 107.61409,138 117.82375,138 l 5.88683,0 8.72602,11.44504 c 4.79931,6.29477 9.30655,11.92683 10.01608,12.51569 1.03962,0.8628 1.43018,-2.02116 2.0118,-14.85533 l 0.72173,-15.926 5.95046,-3.17156 c 3.27275,-1.74436 10.76835,-6.79579 16.65689,-11.2254 14.55935,-10.95216 19.65321,-13.26757 29.20644,-13.27573 6.44294,-0.005 8.25114,0.40966 12.82947,2.94563 11.52176,6.38197 19.6845,18.74573 20.89567,31.64979 l 0.52582,5.60212 -3.87548,0.58227 C 225.24397,144.60676 219,145.4172 213.5,146.08751 c -5.5,0.6703 -10.32636,1.49868 -10.72524,1.84085 -0.39888,0.34216 5.51347,4.57673 13.13855,9.41013 l 13.86379,8.78801 -1.38885,5.31848 c -1.79159,6.86076 -5.75814,17.37804 -8.87035,23.51969 -3.96868,7.83183 -5.17224,8.46997 -28.47483,15.0977 -11.52736,3.27862 -20.22083,8.16231 -28.45778,15.98661 l -7.3712,7.00192 -13.74204,-3.05712 c -7.55813,-1.68141 -13.95648,-2.84268 -14.21857,-2.58059 -0.26209,0.26209 3.84888,6.12052 9.13548,13.01875 l 9.61201,12.54222 -1.92541,7.26292 c -2.06872,7.80349 -3.61544,18.86907 -4.64943,33.26292 -1.02248,14.23374 -5.44648,25.51847 -12.61994,32.19092 l -2.30619,2.14511 -8.5,-11.05192 -8.5,-11.05192 -0.6511,5.38391 c -0.35811,2.96114 -0.69561,9.96058 -0.75,15.55431 l -0.0989,10.1704 -6.608952,0.70776 c -14.732321,1.5777 -24.546249,-0.96337 -32.681287,-8.46198 -4.747529,-4.37612 -9.84832,-14.17801 -10.077179,-19.36471 -0.129789,-2.94145 0.162255,-3.12912 13.862273,-8.90817 7.69717,-3.24688 14.334217,-6.24278 14.748991,-6.65756 0.414775,-0.41477 -5.657909,-2.70679 -13.494855,-5.09338 -7.836945,-2.38658 -14.56241,-4.51371 -14.945478,-4.72695 -1.154276,-0.64254 1.93457,-8.14415 5.260221,-12.77504 9.842609,-13.70559 33.349559,-13.65921 51.686266,0.10197 4.09228,3.07114 4.09491,1.71923 0.0118,-6.02277 -4.37941,-8.30372 -11.78498,-15.54231 -20.076425,-19.62373 -5.562748,-2.73823 -8.318404,-3.44044 -15,-3.82235 L 70.5,241.72603 58.149541,230.79681 c -6.792753,-6.01107 -12.548839,-10.73085 -12.791302,-10.48838 -0.242463,0.24246 0.554961,7.201 1.772054,15.46342 l 2.212897,15.02259 -4.921918,5.52226 c -6.225697,6.98508 -9.895948,14.22514 -12.568202,24.79247 -1.76971,6.99826 -2.023127,10.25106 -1.586183,20.35988 0.716109,16.5674 4.187225,27.42232 12.072115,37.75209 l 3.452088,4.52248 -1.869335,13.87819 C 41.982893,372.01618 41.721906,375 42.40173,375 c 0.220951,0 5.028288,-4.22371 10.68297,-9.38603 z" />
</svg>
