<?xml version="1.0" encoding="UTF-8" standalone="no"?>
<!-- Created with Inkscape (http://www.inkscape.org/) -->

<svg
   xmlns:dc="http://purl.org/dc/elements/1.1/"
   xmlns:cc="http://creativecommons.org/ns#"
   xmlns:rdf="http://www.w3.org/1999/02/22-rdf-syntax-ns#"
   xmlns:svg="http://www.w3.org/2000/svg"
   xmlns="http://www.w3.org/2000/svg"
   xmlns:sodipodi="http://sodipodi.sourceforge.net/DTD/sodipodi-0.dtd"
   xmlns:inkscape="http://www.inkscape.org/namespaces/inkscape"
   id="svg2"
   version="1.1"
   inkscape:version="0.48.3.1 r9886"
   width="400"
   height="400"
   sodipodi:docname="Icon.6_19.png">
  <metadata
     id="metadata8">
    <rdf:RDF>
      <cc:Work
         rdf:about="">
        <dc:format>image/svg+xml</dc:format>
        <dc:type
           rdf:resource="http://purl.org/dc/dcmitype/StillImage" />
        <dc:title></dc:title>
      </cc:Work>
    </rdf:RDF>
  </metadata>
  <defs
     id="defs6" />
  <sodipodi:namedview
     pagecolor="#ffffff"
     bordercolor="#666666"
     borderopacity="1"
     objecttolerance="10"
     gridtolerance="10"
     guidetolerance="10"
     inkscape:pageopacity="0"
     inkscape:pageshadow="2"
     inkscape:window-width="1855"
     inkscape:window-height="1056"
     id="namedview4"
     showgrid="false"
     inkscape:zoom="0.59"
     inkscape:cx="200"
     inkscape:cy="200"
     inkscape:window-x="65"
     inkscape:window-y="24"
     inkscape:window-maximized="1"
     inkscape:current-layer="svg2" />
  <path
     style="fill:#000000"
     d="m 0,0 400,0 0,400 -400,0 z"
     id="rect3030" />
  <path
     id="path2989"
     style="fill:#ffffff"
     d="m 159.03755,224.9264 c 1.16377,-2.28119 1.94272,-5.44256 1.77032,-7.18485 L 160.5,214.6303 109.43557,201.10341 58.371132,187.57652 51.073487,175.28826 C 47.059782,168.52972 43.40692,163 42.956015,163 c -1.940733,0 -8.186183,11.18125 -10.546528,18.88148 -2.05864,6.71598 -3.952622,27.02561 -2.831437,30.36219 L 30.5,214.98734 42,208.5155 c 6.325,-3.55952 12.175,-6.47178 13,-6.47169 1.0636,1.1e-4 99.6567,26.03625 101.72968,26.86443 0.12632,0.0505 1.16486,-1.74136 2.30787,-3.98184 z m 195.88987,49.09279 c -0.86491,-0.50599 -9.32402,-4.32699 -18.79801,-8.4911 -9.474,-4.16412 -17.99134,-8.00341 -18.92743,-8.53176 -2.72276,-1.53681 -66.50735,-18.09313 -67.79767,-17.59798 -1.84748,0.70894 -5.5664,12.60793 -4.10564,13.13635 0.66073,0.23902 16.50133,4.43394 35.20133,9.32205 30.46375,7.96312 35.92413,9.09489 52.5,10.88165 22.54478,2.43016 24.04153,2.51759 21.92742,1.28079 z M 214.89788,93.730067 C 203.70808,86.254791 207.43794,69.977604 220.7119,68.357591 228.3742,67.42245 236,74.366961 236,82.279849 236,93.01686 223.76666,99.654793 214.89788,93.730067 z m 32.40067,24.310413 c -4.56802,-2.78528 -6.62513,-7.28987 -6.05217,-13.25283 1.3996,-14.565883 21.02212,-17.125303 26.25452,-3.42446 4.69308,12.28866 -8.94099,23.54375 -20.20235,16.67729 z M 187,145.49668 c -2.475,-1.89928 -4.37175,-3.96028 -4.21499,-4.57999 0.22835,-0.90277 10.51994,-15.09814 13.17678,-18.17498 0.36013,-0.41705 2.94488,0.95036 5.74388,3.03869 l 5.08911,3.79698 -7.14739,9.67385 c -3.93107,5.32062 -7.37239,9.67944 -7.64739,9.68627 -0.275,0.007 -2.525,-1.54154 -5,-3.44082 z m 28.20331,12.72977 c -3.24405,-0.94366 -5.11986,-2.00154 -4.8404,-2.7298 0.25096,-0.65397 1.85074,-5.70787 3.55508,-11.23088 l 3.09879,-10.04182 5.24161,1.50186 c 2.88289,0.82603 5.61441,1.84595 6.07006,2.26648 1.06352,0.98157 -5.49882,22.00125 -6.82845,21.87207 -0.55,-0.0534 -3.38351,-0.7905 -6.29669,-1.63791 z m 34.83841,211.1565 c 7.77126,-4.22607 11.34039,-9.12671 11.40592,-15.66107 0.0835,-8.33084 -3.15614,-13.64727 -15.97885,-26.22188 -11.51779,-11.29493 -14.05008,-14.96968 -16.88314,-24.5 -5.23345,-17.60518 -1.4895,-46.80545 8.78116,-68.48702 6.75045,-14.25035 10.31987,-16.32525 39.63319,-23.03882 27.02773,-6.1901 37.69265,-10.10734 49.62189,-18.22619 C 342.17796,182.66076 354,163.53049 354,148.94505 c 0,-13.99858 -7.64752,-21.57945 -20.91328,-20.73103 -9.94367,0.63595 -14.94552,3.54221 -27.08672,15.73842 -8.12973,8.16656 -12.02816,11.28569 -17.26958,13.81737 -10.53529,5.0887 -21.08081,7.26398 -38.23042,7.886 -14.13235,0.51259 -14.86985,0.44823 -12.75,-1.11258 2.09534,-1.54276 2.25,-2.40885 2.25,-12.59993 L 240,141 l 6.5,0 6.5,0 0.0443,5.75 0.0443,5.75 6.08504,-6.5 c 18.50594,-19.7679 30.86736,-46.677359 32.50051,-70.75 0.34514,-5.0875 0.92406,-9.25 1.28648,-9.25 1.27987,0 11.0256,8.867624 16.09667,14.646333 2.82526,3.219517 6.78067,8.657547 8.78979,12.084512 2.00912,3.426964 3.99045,6.239464 4.40295,6.25 0.84967,0.0217 1.19308,-5.093779 0.83787,-12.480845 -0.25454,-5.293691 -1.8101,-11.539889 -4.43054,-17.790453 l -1.58908,-3.790454 5.74497,3.062036 c 3.15973,1.68412 9.62936,5.977324 14.37696,9.540454 4.7476,3.563129 8.87277,6.478417 9.16705,6.478417 0.94435,0 -3.27954,-11.191708 -5.93225,-15.718228 -1.41114,-2.407923 -4.98668,-6.76064 -7.94564,-9.672705 l -5.37994,-5.294664 4.7003,0.755837 c 5.5465,0.891911 13.22514,3.413645 18.41046,6.046163 C 352.25075,61.152381 354.19995,62 354.54172,62 356.08811,62 350.2774,54.008154 345.33834,49.341988 331.26577,36.046969 307.11668,29.692987 288.7961,34.464891 283.40853,35.868176 282.92401,35.829012 277.27506,33.533636 263.09364,27.771211 243.31779,26.524477 228.5,30.458696 210.64208,35.200091 192.69302,47.853986 182.34143,63 173.61195,75.772609 168,93.076703 168,107.22089 l 0,7.96445 5.17592,-4.6536 5.17591,-4.65359 4.53982,4.53982 4.53982,4.53982 -8.79017,8.2711 -8.79017,8.27111 2.18543,7 c 1.20199,3.85 2.82205,8.2375 3.60012,9.75 0.77807,1.5125 1.18629,2.75 0.90714,2.75 -0.27915,0 -4.30138,-1.75275 -8.93828,-3.89501 C 156.42689,141.94044 147.70664,136.16766 135,125.52025 104.95215,100.3419 96.036335,95.78533 83.846638,99.377485 71.864057,102.90861 65.645984,114.39664 69.475967,125.92764 71.692669,132.60151 76.224523,137.13308 98,154.44987 c 19.85277,15.78778 32.32657,27.8869 36.80652,35.70096 l 3.06679,5.34917 16.93973,4.35429 16.93972,4.35429 1.24772,7.2942 c 1.90531,11.13859 -0.4191,18.54504 -8.7653,27.92959 l -3.26483,3.67099 -11.73517,-3.09819 c -6.45435,-1.704 -12.48781,-3.32151 -13.4077,-3.59447 -1.1417,-0.33878 -2.61975,0.86613 -4.65715,3.7965 -4.76177,6.84883 -12.59672,14.25678 -26.59566,25.1462 C 89.27621,277.25369 81.490527,284.766 76.709126,292.24054 68.375972,305.26735 65.592137,315.67479 65.539084,334 c -0.03618,12.49592 0.154377,13.91246 2.562029,19.04563 5.650615,12.04724 14.273547,18.01736 27.095398,18.7596 11.043279,0.63929 17.456259,-2.28417 21.743389,-9.91208 3.36507,-5.98734 3.66417,-12.90199 1.04785,-24.22418 -1.93604,-8.37824 -2.09626,-10.50347 -1.14791,-15.22567 2.20345,-10.97181 11.24996,-21.90069 22.8595,-27.61605 6.24889,-3.07632 7.48998,-3.32725 16.4563,-3.32725 8.27773,0 10.1111,0.30665 12.52103,2.09424 5.82332,4.31951 8.22672,9.28634 11.82167,24.4304 7.77108,32.73648 12.47817,40.42319 30.05171,49.07462 9.24824,4.55289 15.55956,5.91343 25.5701,5.51217 7.21209,-0.28909 9.4861,-0.81644 13.92157,-3.22848 z" />
</svg>
