<?xml version="1.0" encoding="UTF-8" standalone="no"?>
<!-- Created with Inkscape (http://www.inkscape.org/) -->

<svg
   xmlns:dc="http://purl.org/dc/elements/1.1/"
   xmlns:cc="http://creativecommons.org/ns#"
   xmlns:rdf="http://www.w3.org/1999/02/22-rdf-syntax-ns#"
   xmlns:svg="http://www.w3.org/2000/svg"
   xmlns="http://www.w3.org/2000/svg"
   xmlns:sodipodi="http://sodipodi.sourceforge.net/DTD/sodipodi-0.dtd"
   xmlns:inkscape="http://www.inkscape.org/namespaces/inkscape"
   id="svg2"
   version="1.1"
   inkscape:version="0.48.3.1 r9886"
   width="400"
   height="400"
   sodipodi:docname="Icon.5_45.svg">
  <metadata
     id="metadata8">
    <rdf:RDF>
      <cc:Work
         rdf:about="">
        <dc:format>image/svg+xml</dc:format>
        <dc:type
           rdf:resource="http://purl.org/dc/dcmitype/StillImage" />
        <dc:title></dc:title>
      </cc:Work>
    </rdf:RDF>
  </metadata>
  <defs
     id="defs6" />
  <sodipodi:namedview
     pagecolor="#ffffff"
     bordercolor="#666666"
     borderopacity="1"
     objecttolerance="10"
     gridtolerance="10"
     guidetolerance="10"
     inkscape:pageopacity="0"
     inkscape:pageshadow="2"
     inkscape:window-width="1216"
     inkscape:window-height="1000"
     id="namedview4"
     showgrid="false"
     inkscape:zoom="1.18"
     inkscape:cx="428.79532"
     inkscape:cy="234.4085"
     inkscape:window-x="64"
     inkscape:window-y="24"
     inkscape:window-maximized="1"
     inkscape:current-layer="svg2" />
  <rect
     style="fill:#000000;fill-opacity:1;stroke:none"
     id="rect3037"
     width="400"
     height="400"
     x="0"
     y="-7.6293945e-06" />
  <path
     style="fill:#ffffff"
     d="m 118.93301,356.5 c 22.28834,-28.95383 36.44652,-61.57193 43.18886,-99.5 0.83639,-4.70495 1.33422,-15.51247 1.33584,-29 0.002,-18.08521 -0.34958,-23.32652 -2.21467,-33 -3.12124,-16.18856 -4.0866,-19.27401 -5.82201,-18.60807 -0.79231,0.30404 -7.75313,4.67326 -15.4685,9.70939 -7.71538,5.03612 -14.19116,8.98606 -14.39064,8.77764 -0.19947,-0.20843 -1.56236,-3.97896 -3.02864,-8.37896 -6.1782,-18.53949 -16.82508,-37.67525 -31.908113,-57.34886 -0.754703,-0.9844 0.03438,-0.89428 2.920369,0.33352 2.174972,0.92532 6.204494,2.5704 8.954494,3.65574 10.07658,3.9769 41.29634,20.02828 51.73804,26.60067 50.14105,31.56066 76.64521,66.9167 83.77853,111.75893 1.6297,10.2448 1.37615,33.32007 -0.50394,45.86309 -1.50108,10.01445 -4.21558,21.64421 -7.96788,34.13691 l -1.5018,5 2.52764,-3 c 4.39014,-5.21056 15.27585,-22.1627 20.39406,-31.75935 26.73891,-50.13548 32.8551,-106.69611 16.91767,-156.44949 -2.13818,-6.67495 -3.41826,-9.29948 -4.35954,-8.93828 -0.7329,0.28124 -7.45189,5.0419 -14.93109,10.57924 C 241.11249,172.46945 234.81754,177 234.60291,177 c -0.21462,0 -1.59528,-3.0375 -3.06811,-6.75 -5.46651,-13.77917 -16.22813,-31.73935 -26.31602,-43.91912 -7.05964,-8.52356 -7.05047,-8.46187 -1.00026,-6.72961 24.83573,7.11082 38.84691,12.36849 56.962,21.37486 48.36483,24.04581 76.36078,58.88883 85.00988,105.80108 1.38313,7.50199 1.75023,44.30979 0.56074,56.22279 l -0.74886,7.5 3.12969,-5.97702 c 4.61891,-8.82111 11.45567,-26.30259 14.80868,-37.8655 15.09012,-52.0386 11.24763,-103.40815 -11.10398,-148.44709 -3.35445,-6.75929 -6.43144,-12.15929 -6.83775,-12 -0.40631,0.15928 -6.06791,6.13961 -12.58132,13.28961 -6.51342,7.15 -12.1612,13 -12.55064,13 -0.38944,0 -2.91272,-3.375 -5.60729,-7.5 C 283.74305,76.752503 224.14915,42.608021 143.4149,26.54108 130.71092,24.012859 130.37899,24 77.823152,24 L 25,24 l 0.0348,66.75 0.0348,66.75 11.215196,7.48739 c 46.294026,30.9064 73.640124,66.43914 82.393704,107.06002 2.5824,11.98356 2.56545,43.83827 -0.0298,55.95259 -2.5937,12.10727 -6.39684,25.12386 -10.28819,35.2123 -1.8483,4.79177 -3.35386,9.06677 -3.34567,9.5 0.0205,1.08489 5.65761,-5.48142 13.91813,-16.2123 z"
     id="path3027" />
</svg>
