<?xml version="1.0" encoding="UTF-8" standalone="no"?>
<!-- Created with Inkscape (http://www.inkscape.org/) -->

<svg
   xmlns:dc="http://purl.org/dc/elements/1.1/"
   xmlns:cc="http://creativecommons.org/ns#"
   xmlns:rdf="http://www.w3.org/1999/02/22-rdf-syntax-ns#"
   xmlns:svg="http://www.w3.org/2000/svg"
   xmlns="http://www.w3.org/2000/svg"
   xmlns:sodipodi="http://sodipodi.sourceforge.net/DTD/sodipodi-0.dtd"
   xmlns:inkscape="http://www.inkscape.org/namespaces/inkscape"
   id="svg2"
   version="1.1"
   inkscape:version="0.48.3.1 r9886"
   width="400"
   height="400"
   sodipodi:docname="Icon.1_31.png">
  <metadata
     id="metadata8">
    <rdf:RDF>
      <cc:Work
         rdf:about="">
        <dc:format>image/svg+xml</dc:format>
        <dc:type
           rdf:resource="http://purl.org/dc/dcmitype/StillImage" />
        <dc:title></dc:title>
      </cc:Work>
    </rdf:RDF>
  </metadata>
  <defs
     id="defs6" />
  <sodipodi:namedview
     pagecolor="#ffffff"
     bordercolor="#666666"
     borderopacity="1"
     objecttolerance="10"
     gridtolerance="10"
     guidetolerance="10"
     inkscape:pageopacity="0"
     inkscape:pageshadow="2"
     inkscape:window-width="1855"
     inkscape:window-height="1056"
     id="namedview4"
     showgrid="false"
     inkscape:zoom="0.59"
     inkscape:cx="200"
     inkscape:cy="200"
     inkscape:window-x="65"
     inkscape:window-y="24"
     inkscape:window-maximized="1"
     inkscape:current-layer="svg2" />
  <path
     style="fill:#000000"
     d="m 0,0 400,0 0,400 -400,0 z"
     id="rect3020" />
  <path
     id="path2989"
     style="fill:#ffffff"
     d="m 245.92439,271.22374 c -1.41658,-4.24806 -2.90557,-8.45481 -3.30887,-9.34834 -0.61269,-1.35748 0.57467,-1.19407 7.22152,0.99388 l 7.95478,2.61847 -2.02812,3.97544 c -2.2902,4.48916 -5.85644,9.55005 -6.70176,9.51055 -0.30907,-0.0144 -1.72096,-3.50194 -3.13755,-7.75 z M 210.5,363.51857 c 16.22156,-4.55618 28.78531,-14.24683 35.13955,-27.10376 1.99758,-4.04183 4.16484,-9.72613 4.81612,-12.63179 1.16771,-5.20962 1.23877,-5.2866 5.11425,-5.54082 16.44806,-1.07892 29.70102,-4.42134 39.10925,-9.86343 10.7495,-6.21793 20.18523,-18.94931 23.32788,-31.4757 l 1.15329,-4.59692 7.88781,-1.69501 c 17.62443,-3.7873 31.51554,-13.8793 38.4685,-27.94765 4.64099,-9.39042 6.40352,-17.53662 6.44822,-29.80302 C 372.1371,165.60124 334.1579,107.87395 279,71.556524 252.77066,54.286431 228.51436,43.628351 198.44993,36.163292 183.24101,32.386887 175.63896,31.092549 159.5,29.531618 c -17.67091,-1.709099 -18.3693,-1.098831 -2.16923,1.895536 40.5279,7.491046 82.79297,32.692688 113.00046,67.379448 31.39945,36.055478 48.54368,80.835078 42.34987,110.615108 l -1.23163,5.92171 -3.1715,-7.18038 C 300.11654,189.68531 285.14245,168.33156 267.74999,150.36823 230.0572,111.43827 181.00426,86.067545 126,77.053575 112.67813,74.870417 93.538279,73.021932 94.763113,74.036783 c 0.405288,0.335806 4.824098,1.364597 9.819577,2.286202 19.67262,3.629356 45.88474,13.969176 64.40786,25.406775 54.23692,33.49005 94.69848,95.2825 92.83085,141.77024 l -0.3214,8 -11.71972,0.28147 -11.71971,0.28148 -3.12273,-6.1861 C 228.60779,233.33711 214.98136,214.58762 202.36844,201.0625 181.29196,178.46173 149.34341,156.11518 120,143.44954 94.160702,132.2964 60.594869,124.12557 34.5,122.63654 l -9,-0.51356 8.5,1.77034 c 41.5096,8.64544 76.2154,27.45028 106.4359,57.67078 C 173.15095,214.27916 194,256.14001 194,289.11047 l 0,7.88953 -3.00658,0 c -4.07737,0 -21.29954,-2.62806 -29.0108,-4.42697 -3.45014,-0.80487 -5.87015,-1.07171 -5.3778,-0.59299 1.07992,1.05002 22.75674,9.99086 30.22663,12.4673 4.97788,1.65028 5.28973,1.94275 4.70237,4.41008 -3.05991,12.85377 -16.57127,27.05028 -30.53382,32.08218 -15.56061,5.6078 -38.1311,5.95823 -62.222223,0.96606 -5.474746,-1.13448 -10.14017,-1.8766 -10.367608,-1.64916 -0.554109,0.55411 28.028561,11.88472 38.089831,15.0994 11.3602,3.6297 23.35358,6.57489 35.5,8.71767 13.36434,2.35763 39.18191,2.0622 48.5,-0.555 z" />
</svg>
