<?xml version="1.0" encoding="UTF-8" standalone="no"?>
<!-- Created with Inkscape (http://www.inkscape.org/) -->

<svg
   xmlns:dc="http://purl.org/dc/elements/1.1/"
   xmlns:cc="http://creativecommons.org/ns#"
   xmlns:rdf="http://www.w3.org/1999/02/22-rdf-syntax-ns#"
   xmlns:svg="http://www.w3.org/2000/svg"
   xmlns="http://www.w3.org/2000/svg"
   xmlns:sodipodi="http://sodipodi.sourceforge.net/DTD/sodipodi-0.dtd"
   xmlns:inkscape="http://www.inkscape.org/namespaces/inkscape"
   id="svg2"
   version="1.1"
   inkscape:version="0.48.3.1 r9886"
   width="400"
   height="400"
   sodipodi:docname="Icon.6_09.png">
  <metadata
     id="metadata8">
    <rdf:RDF>
      <cc:Work
         rdf:about="">
        <dc:format>image/svg+xml</dc:format>
        <dc:type
           rdf:resource="http://purl.org/dc/dcmitype/StillImage" />
        <dc:title></dc:title>
      </cc:Work>
    </rdf:RDF>
  </metadata>
  <defs
     id="defs6" />
  <sodipodi:namedview
     pagecolor="#ffffff"
     bordercolor="#666666"
     borderopacity="1"
     objecttolerance="10"
     gridtolerance="10"
     guidetolerance="10"
     inkscape:pageopacity="0"
     inkscape:pageshadow="2"
     inkscape:window-width="1855"
     inkscape:window-height="1056"
     id="namedview4"
     showgrid="false"
     inkscape:zoom="0.59"
     inkscape:cx="200"
     inkscape:cy="200"
     inkscape:window-x="65"
     inkscape:window-y="24"
     inkscape:window-maximized="1"
     inkscape:current-layer="svg2" />
  <path
     style="fill:#000000"
     d="m 0,0 400,0 0,400 -400,0 z"
     id="rect3018" />
  <path
     id="path2989"
     style="fill:#ffffff"
     d="m 210.5,338.49887 c 57.74437,-33.95342 55.0384,-32.3192 54.41667,-32.86393 C 264.6875,305.43416 248.975,304.071 230,302.6057 c -18.975,-1.4653 -36.24624,-2.9255 -38.38054,-3.24489 l -3.88054,-0.58071 19.33408,-19.35318 c 10.63375,-10.64424 19.12999,-19.53089 18.88054,-19.7481 -0.24945,-0.21722 -14.40354,-1.39759 -31.45354,-2.62306 -17.05,-1.22546 -31.65044,-2.43396 -32.44542,-2.68554 -0.94441,-0.29887 4.39813,-6.30858 15.41315,-17.33791 l 16.85856,-16.88047 -3.41314,-0.54056 C 189.03592,219.31397 176.475,218.33555 163,217.43701 c -13.475,-0.89854 -25.14968,-1.83379 -25.94373,-2.07832 -0.94268,-0.2903 3.37868,-5.27626 12.45167,-14.36664 7.64247,-7.65713 13.69215,-14.10291 13.44373,-14.32396 -0.24842,-0.22105 -11.6168,-1.21535 -25.26306,-2.20957 l -24.81139,-1.80766 12.68959,-12.71782 C 140.46649,155.00021 141.81038,156.74904 114,154.8809 l -18.5,-1.24272 5.5,-1.65392 c 21.90351,-6.58664 41.08361,-23.98341 50.69806,-45.98426 1.80263,-4.125 3.2967,-8.4 3.32014,-9.5 0.0343,-1.609131 0.20659,-1.706848 0.88163,-0.5 0.46145,0.825 1.37721,9.375 2.03502,19 0.65781,9.625 1.4107,18.14916 1.6731,18.94258 0.31787,0.96117 4.60923,-2.67964 12.85926,-10.90987 l 12.38218,-12.35245 0.549,3.40987 c 0.30195,1.87543 1.27907,12.85987 2.17138,24.40987 0.8923,11.55 1.81989,21.20325 2.0613,21.45167 0.24141,0.24842 6.66013,-5.75763 14.26382,-13.34676 l 13.82488,-13.79843 0.61225,5.84676 c 0.33674,3.21572 1.32144,15.29676 2.18821,26.84676 0.86678,11.55 1.80776,22.09164 2.09106,23.42586 0.46654,2.19719 2.11161,0.83141 17.4519,-14.48897 9.31525,-9.30315 16.94025,-16.46979 16.94446,-15.92586 0.0387,5.00628 5.07933,63.90928 5.50549,64.33544 0.30834,0.30834 9.31902,-8.18915 20.02374,-18.88331 10.70471,-10.69416 19.44727,-18.99825 19.42791,-18.45354 -0.14078,3.95975 5.48583,74.14964 5.99131,74.73942 0.35309,0.41198 14.73291,-23.14003 31.95514,-52.3378 17.32308,-29.36872 30.92795,-53.46262 30.45096,-53.92792 C 368.74092,152.40176 123.28002,25 121.85415,25 c -0.78236,0 -3.8422,2.450163 -6.79964,5.444807 l -5.37718,5.444807 2.83591,6.305193 c 7.51648,16.711674 2.55991,38.202899 -12.49399,54.172893 -3.585589,3.80378 -8.31925,8.0635 -10.51925,9.46604 -17.524541,11.17219 -35.880455,13.22632 -50.523904,5.6539 l -3.228851,-1.6697 -5.373622,5.30687 C 27.41813,118.04359 25,120.7585 25,121.15794 c 0,0.39945 27.614403,53.97011 61.36534,119.04592 33.75094,65.07581 62.80172,121.16511 64.5573,124.6429 1.83528,3.63566 3.6989,6.12786 4.38466,5.86355 0.65599,-0.25283 25.4927,-14.74798 55.1927,-32.21144 z" />
</svg>
