<?xml version="1.0" encoding="UTF-8" standalone="no"?>
<!-- Created with Inkscape (http://www.inkscape.org/) -->

<svg
   xmlns:dc="http://purl.org/dc/elements/1.1/"
   xmlns:cc="http://creativecommons.org/ns#"
   xmlns:rdf="http://www.w3.org/1999/02/22-rdf-syntax-ns#"
   xmlns:svg="http://www.w3.org/2000/svg"
   xmlns="http://www.w3.org/2000/svg"
   version="1.1"
   width="512"
   height="512"
   id="svg2">
  <metadata
     id="metadata8">
    <rdf:RDF>
      <cc:Work
         rdf:about="">
        <dc:format>image/svg+xml</dc:format>
        <dc:type
           rdf:resource="http://purl.org/dc/dcmitype/StillImage" />
        <dc:title></dc:title>
      </cc:Work>
    </rdf:RDF>
  </metadata>
  <defs
     id="defs6" />
  <path
     d="m 0,-1.5258789e-5 512,0 L 512,511.99998 l -512,0 z"
     id="rect3062"
     style="fill:#000000;fill-opacity:1;fill-rule:nonzero;stroke:none" />
  <path
     d="m 287.30845,294.90858 c 21.78181,-3.30569 42.03972,-12.33247 58.70498,-26.15854 28.84148,-23.92787 44.96618,-63.37203 41.03436,-100.37804 -1.98024,-18.6379 -3.80893,-24.4168 -16.35495,-51.68393 C 365.58398,105.58463 353.33116,78.8375 343.46435,57.25 L 325.52469,18 314.70333,18 c -5.95175,0 -10.60549,0.349299 -10.34163,0.77622 C 305.0458,19.883119 332,78.996181 332,79.389579 c 0,0.179394 -3.7125,-1.58433 -8.25,-3.919387 -4.5375,-2.335057 -11.20249,-5.228116 -14.81109,-6.429019 L 302.37783,66.857713 291.36837,42.678857 280.35891,18.5 269.67945,18.216168 C 263.80575,18.060061 259,18.093205 259,18.289823 c 0,0.196617 4.49863,10.188209 9.99696,22.203537 5.49833,12.015328 9.88583,21.948856 9.75,22.074507 -0.13583,0.125651 -6.07534,0.386783 -13.19892,0.580294 L 252.59609,63.5 242.14712,40.75 231.69816,18 221.34908,18 C 215.65709,18 211,18.355617 211,18.79026 c 0,0.434644 4.9565,11.568164 11.01445,24.741157 6.05794,13.172994 10.79707,24.517376 10.53138,25.20974 C 232.28015,69.433521 231.46234,70 230.72849,70 c -0.73386,0 -5.01796,1.781382 -9.52022,3.958627 l -8.18594,3.958627 -3.32677,-7.208627 C 207.86583,66.743882 201.70278,53.2625 195.99989,40.75 L 185.631,18 l -10.73263,0 -10.73263,0 15.02647,32.75 c 8.26456,18.0125 15.54695,34.1 16.1831,35.75 1.13522,2.944479 0.97848,3.179157 -8.46936,12.680498 L 177.27995,108.861 156.50657,63.430498 135.73318,18 125.36659,18 C 119.66497,18 115,18.299836 115,18.666301 c 0,0.366466 11.30807,25.429458 25.12904,55.695538 l 25.12905,55.029241 -2.25738,6.05446 c -3.21012,8.60981 -5.93266,18.24667 -6.78429,24.01412 l -0.73236,4.95967 L 120.33264,91.459663 85.181224,18.5 74.512234,18.215373 C 64.631931,17.951787 63.885399,18.063564 64.413491,19.727434 66.278278,25.602858 166.70044,232.14831 171.27857,239.5245 c 17.70485,28.52569 45.08337,47.86112 76.26884,53.86308 4.37393,0.84181 8.85259,1.72177 9.95259,1.95549 4.16875,0.88571 22.9093,0.61255 29.80845,-0.43449 z m 205.22001,-47.71346 c -0.64294,-0.64294 -57.96308,1.80897 -62.25377,2.66295 l -3.2253,0.64193 10.2253,10.71079 c 7.3498,7.69876 16.55266,15.53128 32.72531,27.85237 l 22.5,17.14158 0.26535,-29.25369 c 0.14593,-16.08953 0.0393,-29.4797 -0.23689,-29.75593 z M 57.66615,316.72256 C 88.76739,301.28972 97.379235,296.52113 113,286.08285 133.87983,272.13029 132.47088,273.13525 131.91667,272.59028 131.56868,272.2481 27.102483,265.99846 21.75,265.99962 20.117157,265.99997 20,268.30967 20,300.5 c 0,18.975 0.187267,34.5 0.41615,34.5 0.228882,0 16.991382,-8.22485 37.25,-18.27744 z M 493,364.05926 l 0,-34.94075 -28.75,-22.03868 c -27.02958,-20.71988 -29.54761,-22.40237 -42.079,-28.11626 -7.33094,-3.34266 -13.65003,-5.93942 -14.0424,-5.77057 -0.39238,0.16885 6.95567,14.66427 16.329,32.21206 L 441.5,337.31011 467,368.14083 c 14.025,16.95689 25.6125,30.83712 25.75,30.84494 0.1375,0.008 0.25,-15.7091 0.25,-34.92651 z M 64.459595,400.5 c 38.404575,-47.25155 41.485105,-51.3448 56.041345,-74.46474 8.4716,-13.45561 15.26888,-24.59877 15.10506,-24.76259 -1.21624,-1.21625 -26.31573,10.0697 -67.356,30.28653 L 20,355.32762 l 0,49.55841 c 0,48.80681 0.02898,49.5285 1.910584,47.58619 C 22.961406,451.3875 42.108461,428 64.459595,400.5 z M 493,461.22969 l 0,-33.77034 -30.29907,-36.47966 c -18.05721,-21.74065 -33.71353,-39.59081 -38.75,-44.17987 -13.97028,-12.72924 -55.42563,-48.58243 -55.7936,-48.25381 -0.18847,0.16831 6.24559,23.35952 14.29792,51.53601 l 14.64059,51.22999 21.13342,46.844 21.13342,46.84399 26.81866,0 26.81866,0 0,-33.77033 z m -74,32.94788 C 419,493.5493 394.10866,438.03576 382.09466,411.86999 379.84369,406.96752 313.69828,305.04844 312.75,305.0214 312.3375,305.0096 312,330.1211 312,360.82465 l 0,55.82463 4.99835,37.92537 c 2.74909,20.85895 4.99909,38.48787 5,39.17537 10e-4,0.9828 10.3692,1.25 48.50165,1.25 26.675,0 48.5,-0.3701 48.5,-0.82245 z m -115,-0.23515 c 0,-0.58168 -2.44948,-19.62951 -5.44328,-42.32853 l -5.44328,-41.27093 -16.58787,-46.81593 c -9.12333,-25.74876 -16.9936,-47.53842 -17.48947,-48.42147 -0.78305,-1.39443 -0.97228,-1.40831 -1.43914,-0.10554 -0.29565,0.825 -7.94943,24 -17.0084,51.5 l -16.47085,50 -5.05886,38.43043 C 216.27648,476.06717 214,493.72967 214,494.18043 214,494.6312 234.25,495 259,495 c 30.96716,0 45,-0.3298 45,-1.0576 z m -108,0.062 c 0,-0.54756 2.21363,-17.98506 4.91919,-38.75 L 205.83837,417.5 203.10003,369.26418 c -1.50609,-26.5297 -2.93222,-48.4282 -3.16918,-48.66332 -0.23697,-0.23513 -8.39491,14.49599 -18.12877,32.73582 -17.69712,33.16182 -17.6988,33.1656 -37.35064,83.66332 -10.80901,27.775 -20.26248,52.1875 -21.00773,54.25 l -1.35499,3.75 36.95564,0 C 182.90532,495 196,494.64723 196,494.00442 z m -75.48546,-44.75255 c 9.79346,-25.16148 19.12373,-49.34898 20.73395,-53.75 3.10347,-8.48237 23.07887,-79.50784 22.51859,-80.06813 -0.31508,-0.31507 -16.65918,17.74796 -54.80382,60.56759 -9.645201,10.82732 -33.008298,38.67551 -51.917991,61.88488 -21.796801,26.75294 -34.868808,42.01175 -35.713264,41.6877 C 20.29134,479.17457 20,480.80569 20,487.03138 L 20,495 l 41.354128,0 41.354132,0 17.80628,-45.74813 z"
     id="path3015"
     style="fill:#ffffff" />
</svg>
