<?xml version="1.0" encoding="UTF-8" standalone="no"?>
<!-- Created with Inkscape (http://www.inkscape.org/) -->

<svg
   xmlns:dc="http://purl.org/dc/elements/1.1/"
   xmlns:cc="http://creativecommons.org/ns#"
   xmlns:rdf="http://www.w3.org/1999/02/22-rdf-syntax-ns#"
   xmlns:svg="http://www.w3.org/2000/svg"
   xmlns="http://www.w3.org/2000/svg"
   version="1.1"
   width="512"
   height="512"
   id="svg2">
  <metadata
     id="metadata8">
    <rdf:RDF>
      <cc:Work
         rdf:about="">
        <dc:format>image/svg+xml</dc:format>
        <dc:type
           rdf:resource="http://purl.org/dc/dcmitype/StillImage" />
        <dc:title></dc:title>
      </cc:Work>
    </rdf:RDF>
  </metadata>
  <defs
     id="defs6" />
  <path
     d="m 0,0 512,0 0,512 -512,0 z"
     id="rect3020"
     style="fill:#000000;fill-opacity:1;stroke:none" />
  <path
     d="m 462.82991,461.17233 c 4.51555,-1.20323 8.21009,-2.75049 8.21009,-3.43837 0,-4.91618 -12.12627,-43.01655 -20.68586,-64.99431 l -6.31728,-16.22035 8.36283,-17.05965 c 4.59957,-9.38281 10.43469,-23.39565 12.96693,-31.13965 5.88368,-17.99318 12.12718,-41.59245 11.01254,-41.62538 -0.47254,-0.0139 -3.57683,3.01003 -6.89842,6.72 l -6.03926,6.74538 -0.0407,-14.24 c -0.0224,-7.832 -0.4196,-16.1343 -0.88265,-18.44955 -0.82738,-4.13688 -0.94873,-4.00152 -7.0294,7.84 -3.40311,6.62725 -5.90606,10.60955 -5.5621,8.84955 0.74152,-3.79425 3.16257,-38.19523 3.18075,-45.19555 0.006,-2.68154 -0.51674,-4.54835 -1.16379,-4.14845 -0.64704,0.3999 -4.53504,6.76023 -8.64,14.13407 -7.00823,12.58907 -9.41062,15.62936 -9.36367,11.84993 0.0429,-3.44872 -8.12811,-40.64 -8.92863,-40.64 -0.4682,0 -2.19935,5.328 -3.84701,11.84 -1.64766,6.512 -3.26628,12.33126 -3.59692,12.93169 -0.33065,0.60042 -2.91372,-3.43158 -5.74016,-8.96 C 402.33411,217.40344 392.01642,203.5399 373.97888,185.11604 352.15314,162.82291 331.2634,147.69674 276.48,114.51752 228.59299,85.515048 213.48346,74.420047 199.36434,57.891108 c -4.04561,-4.736109 -9.22961,-12.208978 -11.52,-16.606373 -2.29038,-4.397397 -4.51107,-7.997397 -4.93485,-8 -1.42405,-0.0087 -8.6694,17.180125 -11.59807,27.515265 -3.75713,13.258748 -3.98873,36.41701 -0.49818,49.81189 8.51502,32.67606 26.90273,56.65144 61.49886,80.18721 20.81969,14.16364 31.42971,26.9914 60.81014,73.5209 29.91299,47.37288 43.43482,63.58574 64.27617,77.06794 15.23487,9.85538 34.01918,15.73206 50.28622,15.73206 l 7.15258,0 5.18061,11.2 c 13.05209,28.21743 24.82855,60.54945 31.23678,85.76 1.29739,5.104 2.58531,9.28 2.86205,9.28 0.27675,0 4.19771,-0.98446 8.71326,-2.18767 z m -60.92262,2.87841 5.46404,-6.34926 -6.24566,-5.54142 c -10.78552,-9.56935 -26.28768,-21.86954 -38.37103,-30.44549 l -11.64537,-8.26509 -1.54456,-11.20473 c -0.84951,-6.16261 -2.38518,-14.94875 -3.41259,-19.52475 -2.76288,-12.30554 -12.34128,-42.22474 -13.32356,-41.61765 -0.46737,0.28886 -1.91591,8.61608 -3.21897,18.50493 -1.30308,9.88887 -2.60881,17.74016 -2.90165,17.44734 -0.29282,-0.29284 -3.05415,-6.13171 -6.13628,-12.97529 -6.12602,-13.60226 -24.17348,-46.04439 -26.3693,-47.40148 -0.9476,-0.58564 -1.13813,1.47992 -0.61593,6.67709 0.41586,4.13878 1.13072,13.86106 1.58858,21.60506 l 0.83248,14.08 -7.53696,-14.72 c -7.67187,-14.98351 -23.03351,-39.68 -24.68163,-39.68 -0.49934,0 0.059,8.208 1.24076,18.24 1.18174,10.032 2.04312,18.37439 1.91417,18.53864 -0.12894,0.16425 -3.30991,-3.74676 -7.06881,-8.69113 -8.16001,-10.73346 -39.10615,-43.11943 -40.20212,-42.07259 -0.42317,0.4042 1.52931,7.57722 4.33885,15.94005 2.80954,8.36282 5.10825,15.40442 5.10825,15.64799 0,0.66155 -24.7561,-19.48402 -36.48,-29.68606 C 131.65535,239.48861 88.514076,187.22401 56.307661,127.39359 l -6.872094,-12.7664 -2.314937,5.0864 c -3.961909,8.70515 -9.848265,28.89368 -11.888473,40.77408 -2.529844,14.73162 -2.500585,41.77017 0.06104,56.41523 8.867737,50.69755 42.498448,100.78763 93.346803,139.0321 32.83494,24.69609 73.69501,44.54151 111.72378,54.26335 23.82218,6.09002 34.2918,7.42897 59.26149,7.57887 l 23.78526,0.14278 11.37867,7.04 c 15.16341,9.38163 34.48587,23.78022 48.44861,36.10264 6.2688,5.53236 11.80452,9.89649 12.30162,9.69809 0.4971,-0.1984 3.36262,-3.21789 6.36786,-6.70999 z"
     id="path2989"
     style="fill:#ffffff" />
</svg>
