<?xml version="1.0" encoding="UTF-8" standalone="no"?>
<!-- Created with Inkscape (http://www.inkscape.org/) -->

<svg
   xmlns:dc="http://purl.org/dc/elements/1.1/"
   xmlns:cc="http://creativecommons.org/ns#"
   xmlns:rdf="http://www.w3.org/1999/02/22-rdf-syntax-ns#"
   xmlns:svg="http://www.w3.org/2000/svg"
   xmlns="http://www.w3.org/2000/svg"
   version="1.1"
   width="512"
   height="512"
   id="svg2">
  <metadata
     id="metadata8">
    <rdf:RDF>
      <cc:Work
         rdf:about="">
        <dc:format>image/svg+xml</dc:format>
        <dc:type
           rdf:resource="http://purl.org/dc/dcmitype/StillImage" />
        <dc:title></dc:title>
      </cc:Work>
    </rdf:RDF>
  </metadata>
  <defs
     id="defs6" />
  <path
     d="M 0,256 0,0 l 256,0 256,0 0,256 0,256 -256,0 -256,0 0,-256 z"
     id="path3025"
     style="fill:#000000" />
  <path
     d="M 392.5,132.78969 C 352.679,112.64881 322.70835,99.795132 291.54585,89.492927 l -18.95414,-6.266171 13.85471,-0.742051 c 19.40945,-1.03956 59.9641,0.04254 72.05358,1.922577 18.71624,2.91056 17.3689,2.400085 23.93829,9.069682 8.21331,8.338586 15.37655,18.961836 23.08837,34.240576 6.51189,12.90143 7.08478,14.32574 5.72334,14.22937 -0.4125,-0.0292 -8.85,-4.14995 -18.75,-9.15722 z M 96.091583,139.25 c 6.364107,-16.79455 22.436667,-41.346825 32.460077,-49.585664 6.81653,-5.602911 53.52582,-9.24039 92.11602,-7.17352 l 13.7736,0.737706 -17.47064,5.753305 C 186.39695,99.050132 155.70229,112.13324 115.75952,132.12145 104.90226,137.55465 95.800897,142 95.534273,142 c -0.266624,0 -0.01583,-1.2375 0.55731,-2.75 z m 65.957547,218.76158 c -2.57892,-25.13091 -0.78824,-78.71527 3.64944,-109.20601 l 1.70203,-11.69443 9.5497,-3.0179 c 23.22344,-7.33907 39.51696,-10.49379 63.1188,-12.22095 31.50648,-2.3056 66.95002,2.47571 93.98223,12.67814 l 6.55134,2.47259 1.27845,8.73849 c 4.82891,33.0065 6.86632,72.5459 5.1926,100.77126 -0.6367,10.73729 -1.40049,20.29745 -1.69732,21.24479 -1.16616,3.72198 2.85042,-2.39841 7.07291,-10.77756 16.1694,-32.08668 26.93681,-75.45761 28.25055,-113.79264 l 0.59262,-17.29264 -2.89624,-3.04531 c -1.59293,-1.67492 -6.73273,-5.61844 -11.42177,-8.76338 C 350.29043,202.91605 326.54492,195.12729 296.5,190.9897 c -12.66821,-1.74457 -58.18952,-2.41521 -73.54876,-1.08353 -40.70524,3.52921 -71.02149,13.58778 -90.95734,30.17857 l -5.9939,4.98817 0,14.50296 c 0,41.09545 10.98262,83.36607 31.37241,120.7481 2.64714,4.85319 5.01837,8.61858 5.26941,8.36754 0.25104,-0.25104 -0.0157,-5.05701 -0.59269,-10.67993 z m 106.20241,100.50674 c 21.33567,-3.216 44.01886,-14.19716 62.49846,-30.25613 5.31285,-4.61692 6.25,-5.9274 6.25,-8.73979 0,-6.76236 -4.43272,-25.27834 -9.70105,-40.5224 -2.36262,-6.83631 -14.73181,-34.00056 -15.48165,-33.99959 -0.17452,2.3e-4 -0.38709,12.48773 -0.47238,27.75 -0.12402,22.1909 -0.52465,29.75093 -2,37.74051 l -1.84492,9.99092 -6.5,1.78325 c -18.5235,5.08186 -26.90745,6.19345 -46.5,6.16525 -16.77686,-0.0241 -20.48955,-0.34365 -31.73039,-2.73066 -7.00171,-1.48682 -15.0979,-3.48999 -17.99154,-4.45149 L 199.51691,419.5 198.3173,411 c -3.17367,-22.48755 -3.76855,-44.00384 -1.71418,-62 0.48963,-4.28912 0.43674,-4.40628 -1.12851,-2.5 -2.3594,2.87346 -12.04008,22.31436 -15.06407,30.25191 -5.35777,14.06343 -8.92429,27.56599 -10.30038,38.99635 l -0.77599,6.44572 6.78786,5.84214 c 20.67122,17.79117 41.35108,27.33199 67.87797,31.31604 5.76158,0.86533 15.1117,0.54385 24.25154,-0.83384 z M 245,477.40166 C 215.52211,474.12884 189.49898,462.75549 165.5,442.65638 143.47232,424.20823 122.85705,397.76926 109.23746,370.5 94.150465,340.29269 86.822828,312.10486 86.751139,284 c -0.08205,-32.16556 8.633041,-53.86077 29.636281,-73.7761 29.43642,-27.91171 77.56857,-40.59959 147.61177,-38.91122 25.53919,0.61561 39.82778,2.12274 58.45471,6.16568 55.67907,12.08502 88.40727,40.86313 96.69173,85.02164 1.64912,8.7903 1.6407,33.58742 -0.0148,43.5 -8.44265,50.55256 -37.61687,102.77017 -75.12877,134.4696 -22.32846,18.86866 -45.37032,30.67321 -68.34841,35.01549 -7.74465,1.46354 -25.01076,2.54308 -30.65367,1.91657 z M 280.91513,493.533 C 302.85499,488.873 325.38498,477.98169 346,462.07009 399.24855,420.97045 439.2668,344.16336 449.19905,264 c 1.68014,-13.56045 1.68442,-56.54111 0.007,-68.5 C 441.98942,144.05693 423.55345,104.51708 392.05129,72.919897 364.67016,45.45617 327.59692,26.942171 287,20.458343 271.26579,17.945396 245.75933,17.494942 229,19.434041 142.97191,29.387722 79.672627,88.170159 61.593591,174.89485 57.473721,194.65776 56.56756,204.35772 56.539142,229 c -0.0295,25.5766 0.943655,36.04417 5.547701,59.67308 12.647743,64.91081 45.404447,126.03881 87.976977,164.17577 16.59621,14.86707 37.60643,27.9702 55.8921,34.85739 22.53627,8.48816 51.74088,10.7583 74.95921,5.82676 z"
     id="path2989"
     style="fill:#ffffff" />
</svg>
