<?xml version="1.0" encoding="UTF-8" standalone="no"?>
<!-- Created with Inkscape (http://www.inkscape.org/) -->

<svg
   xmlns:dc="http://purl.org/dc/elements/1.1/"
   xmlns:cc="http://creativecommons.org/ns#"
   xmlns:rdf="http://www.w3.org/1999/02/22-rdf-syntax-ns#"
   xmlns:svg="http://www.w3.org/2000/svg"
   xmlns="http://www.w3.org/2000/svg"
   version="1.1"
   width="512"
   height="512"
   id="svg2">
  <metadata
     id="metadata8">
    <rdf:RDF>
      <cc:Work
         rdf:about="">
        <dc:format>image/svg+xml</dc:format>
        <dc:type
           rdf:resource="http://purl.org/dc/dcmitype/StillImage" />
        <dc:title></dc:title>
      </cc:Work>
    </rdf:RDF>
  </metadata>
  <defs
     id="defs6" />
  <path
     d="m 0,0 512,0 0,512 -512,0 z"
     id="rect3020"
     style="fill:#000000" />
  <path
     d="m 454.35333,176.23807 c -1.81279,10.84238 -8.73631,28.14624 -15.26048,38.14026 -19.24293,29.47721 -51.46994,46.91315 -86.38335,46.7364 -7.04,-0.0356 -15.06977,-0.46781 -17.84394,-0.96037 l -5.04393,-0.8956 6.99075,-2.20363 c 19.43486,-6.1263 35.85014,-24.90669 40.85294,-46.73905 1.88393,-8.22149 1.95548,-25.01528 0.15338,-35.99998 -4.57704,-27.89931 -29.77014,-49.48927 -51.05925,-43.75671 -10.36442,2.79084 -18.02131,12.40311 -20.0924,25.22343 -1.94555,12.04319 5.08892,31.58085 15.15188,42.08314 l 5.30501,5.53661 -3.68722,0.73745 c -5.58564,1.11713 -16.31998,0.88495 -23.68791,-0.51235 -16.78592,-3.18338 -33.93481,-16.5292 -41.76322,-32.50151 -13.47699,-27.49709 -5.34664,-59.02108 22.33546,-86.601713 11.26365,-11.222375 23.95371,-18.987111 40.38845,-24.712717 10.91277,-3.801843 12.53206,-4.014464 30.72,-4.03383 21.96821,-0.02342 29.59433,1.532454 46.08,9.400896 28.48095,13.593689 49.80654,40.956044 56.21233,72.124704 2.15601,10.49043 2.44174,28.10744 0.6315,38.93457 z m 21.19178,-19.61504 c -1.08041,-8.30806 -3.0934,-19.89038 -4.47331,-25.7385 C 460.9559,88.013061 430.39758,55.148549 388.30767,41.874335 373.66534,37.256479 362.16282,35.935212 329.0295,35.065221 286.31994,33.943775 253.79378,37.203448 198.76372,48.120082 165.46784,54.725176 111.4295,67.909509 111.4295,69.427973 c 0,0.577229 5.904,1.054503 13.12,1.060621 16.00589,0.01357 40.08745,2.830771 54.68887,6.397811 28.92925,7.067251 44.32067,21.542119 41.67387,39.192195 -1.65241,11.01917 -7.90544,20.7182 -23.00235,35.67887 -15.68389,15.54234 -27.27113,24.26099 -52.41968,39.44243 -15.84538,9.5654 -66.80041,35.43757 -69.793992,35.43757 -0.762694,0 -1.386715,0.47933 -1.386715,1.06519 0,0.58585 6.839878,-0.80653 15.19973,-3.09417 44.919387,-12.29206 74.057137,-10.66549 84.226987,4.70186 10.21675,15.43822 2.07,46.95753 -23.37534,90.43775 -20.68211,35.34098 -62.427423,91.70802 -103.572166,139.84937 -5.716001,6.688 -10.91191,13.024 -11.546465,14.08 -1.510016,2.5129 -0.704349,1.97657 28.827254,-19.19042 C 178.44227,372.50953 241.246,342.54538 267.62299,357.37009 c 18.72229,10.52251 20.57151,43.89569 5.6589,102.12711 -2.41977,9.44885 -4.18871,17.39062 -3.93094,17.64837 0.25775,0.25777 4.07615,-7.76111 8.48533,-17.81972 34.83051,-79.45846 75.59662,-131.22933 107.14606,-136.07003 8.74691,-1.34207 18.2886,2.14518 25.44172,9.2983 14.16439,14.1644 22.70546,43.3197 25.59314,87.36335 0.60026,9.15522 1.22635,12.62385 1.96382,10.88 1.70576,-4.03351 15.83938,-61.80579 20.82406,-85.12 8.10659,-37.9159 14.50499,-77.93 17.29517,-108.16 1.88006,-20.3694 1.57724,-64.49716 -0.55514,-80.89444 z"
     id="path2989"
     style="fill:#ffffff" />
</svg>
