<?xml version="1.0" encoding="UTF-8" standalone="no"?>
<!-- Created with Inkscape (http://www.inkscape.org/) -->

<svg
   xmlns:dc="http://purl.org/dc/elements/1.1/"
   xmlns:cc="http://creativecommons.org/ns#"
   xmlns:rdf="http://www.w3.org/1999/02/22-rdf-syntax-ns#"
   xmlns:svg="http://www.w3.org/2000/svg"
   xmlns="http://www.w3.org/2000/svg"
   xmlns:sodipodi="http://sodipodi.sourceforge.net/DTD/sodipodi-0.dtd"
   xmlns:inkscape="http://www.inkscape.org/namespaces/inkscape"
   id="svg2"
   version="1.1"
   inkscape:version="0.48.4 r9939"
   width="512"
   height="512"
   sodipodi:docname="1.svg">
  <metadata
     id="metadata8">
    <rdf:RDF>
      <cc:Work
         rdf:about="">
        <dc:format>image/svg+xml</dc:format>
        <dc:type
           rdf:resource="http://purl.org/dc/dcmitype/StillImage" />
        <dc:title />
      </cc:Work>
    </rdf:RDF>
  </metadata>
  <defs
     id="defs6" />
  <sodipodi:namedview
     pagecolor="#ffffff"
     bordercolor="#666666"
     borderopacity="1"
     objecttolerance="10"
     gridtolerance="10"
     guidetolerance="10"
     inkscape:pageopacity="0"
     inkscape:pageshadow="2"
     inkscape:window-width="1855"
     inkscape:window-height="1056"
     id="namedview4"
     showgrid="false"
     inkscape:zoom="0.59"
     inkscape:cx="200"
     inkscape:cy="200"
     inkscape:window-x="65"
     inkscape:window-y="24"
     inkscape:window-maximized="1"
     inkscape:current-layer="svg2"
     fit-margin-top="0"
     fit-margin-left="0"
     fit-margin-right="0"
     fit-margin-bottom="0" />
  <path
     style="fill:#000000"
     d="m 0,0 512,0 0,512 -512,0 z"
     id="rect3020"
     inkscape:connector-curvature="0" />
  <path
     id="path2989"
     style="fill:#ffffff"
     d="m 425.96924,176.4053 c -2.48818,3.168 -4.64116,5.8786 -4.7844,6.02358 -0.57754,0.58453 -28.08209,-21.52745 -41.23496,-33.15042 -20.52969,-18.14173 -49.94139,-52.243897 -47.10621,-54.618541 3.84643,-3.221619 10.7411,-7.854617 11.68896,-7.854617 0.6152,0 3.96562,3.888 7.44541,8.64 12.66091,17.289788 44.60684,48.077888 69.38146,66.866828 5.09598,3.86477 9.23578,7.32077 9.19957,7.68 -0.0362,0.35924 -2.10165,3.24517 -4.58983,6.41317 z m 41.78622,-41.13256 C 454.80242,96.610524 418.08709,60.224502 380.25007,48.552233 c -4.82615,-1.488806 -10.19375,-2.706931 -11.928,-2.706931 -3.86377,0 -26.34269,16.946189 -49.69716,37.465216 -31.80037,27.939492 -61.18862,61.005782 -84.93427,95.564082 l -8.74471,12.72662 -6.28051,-4.49835 c -3.45428,-2.47408 -6.11937,-5.08057 -5.92243,-5.79219 1.78523,-6.45058 31.99826,-45.75869 54.01177,-70.27102 5.11382,-5.69431 7.32061,-8.93415 5.76,-8.45639 -1.39142,0.42597 -39.68185,9.72881 -85.08985,20.67298 -45.408,10.94416 -83.41727,20.21446 -84.46504,20.60065 -1.40641,0.51837 60.37562,26.88025 86.20644,36.78357 1.86807,0.7162 -9.44465,9.49557 -52.48,40.72768 -30.17377,21.89808 -55.997404,40.89974 -57.385848,42.22591 -2.479776,2.36858 -2.275937,2.41157 11.52,2.43034 20.473758,0.0278 99.531338,2.48112 100.158288,3.10808 0.29388,0.29388 -31.77467,44.44933 -71.26343,98.12324 -39.488757,53.67391 -71.559982,97.82667 -71.269385,98.11727 0.290596,0.2906 43.055746,-29.67123 95.033665,-66.58186 l 94.50531,-67.11022 0.96822,41.08219 c 0.53251,22.59521 1.39651,47.7062 1.92,55.8022 l 0.95178,14.72 49.21683,-58.74949 c 44.31213,-52.89481 49.31454,-58.4436 50.19713,-55.68 0.53917,1.68822 4.50825,21.78949 8.82019,44.66949 7.43137,39.43234 8.30935,43.41026 9.29933,42.13334 0.22741,-0.29334 13.47539,-38.93415 29.43992,-85.86846 15.96454,-46.93431 29.42958,-86.39031 29.92232,-87.68 0.49272,-1.28969 -6.85124,4.78725 -16.31993,13.50431 -24.29772,22.36893 -58.85056,50.1685 -62.17235,50.02089 -1.03655,-0.0461 -9.44344,-10.65773 -9.44344,-11.92006 0,-0.30668 6.192,-5.16442 13.76,-10.79496 38.6267,-28.73804 80.31906,-70.5835 108.67599,-109.07506 16.28019,-22.09866 18.28592,-24.95002 18.32514,-26.0512 0.0214,-0.60015 -1.68438,-6.23477 -3.79058,-12.52136 z"
     inkscape:connector-curvature="0" />
</svg>
