<?xml version="1.0" encoding="UTF-8" standalone="no"?>
<!-- Created with Inkscape (http://www.inkscape.org/) -->

<svg
   xmlns:dc="http://purl.org/dc/elements/1.1/"
   xmlns:cc="http://creativecommons.org/ns#"
   xmlns:rdf="http://www.w3.org/1999/02/22-rdf-syntax-ns#"
   xmlns:svg="http://www.w3.org/2000/svg"
   xmlns="http://www.w3.org/2000/svg"
   xmlns:sodipodi="http://sodipodi.sourceforge.net/DTD/sodipodi-0.dtd"
   xmlns:inkscape="http://www.inkscape.org/namespaces/inkscape"
   id="svg2"
   version="1.1"
   inkscape:version="0.48.3.1 r9886"
   width="400"
   height="400"
   sodipodi:docname="Icon.6_51.png">
  <metadata
     id="metadata8">
    <rdf:RDF>
      <cc:Work
         rdf:about="">
        <dc:format>image/svg+xml</dc:format>
        <dc:type
           rdf:resource="http://purl.org/dc/dcmitype/StillImage" />
        <dc:title></dc:title>
      </cc:Work>
    </rdf:RDF>
  </metadata>
  <defs
     id="defs6" />
  <sodipodi:namedview
     pagecolor="#ffffff"
     bordercolor="#666666"
     borderopacity="1"
     objecttolerance="10"
     gridtolerance="10"
     guidetolerance="10"
     inkscape:pageopacity="0"
     inkscape:pageshadow="2"
     inkscape:window-width="1855"
     inkscape:window-height="1056"
     id="namedview4"
     showgrid="false"
     inkscape:zoom="0.59"
     inkscape:cx="200"
     inkscape:cy="200"
     inkscape:window-x="65"
     inkscape:window-y="24"
     inkscape:window-maximized="1"
     inkscape:current-layer="svg2" />
  <path
     style="fill:#000000;fill-opacity:1;stroke:none"
     d="m 0,0 400,0 0,400 -400,0 z"
     id="rect3032" />
  <path
     id="path2989"
     style="fill:#ffffff"
     d="m 276.70547,143.82734 -13.79453,-8.12602 16.6481,-9.91376 c 9.15646,-5.45256 16.78773,-9.77286 16.95838,-9.60065 0.50178,0.50632 -4.91731,35.81536 -5.49287,35.78977 -0.2885,-0.0128 -6.73209,-3.68002 -14.31908,-8.14934 z m -74.55663,33.72703 c -6.24314,-3.49618 -11.78951,-6.79504 -12.32528,-7.33081 -0.63215,-0.63215 0.67227,-6.19588 3.71576,-15.84883 2.57943,-8.1811 4.85673,-15.05565 5.06066,-15.27678 0.62877,-0.68179 51.42459,11.33102 51.15417,12.09757 -0.33631,0.95332 -35.10887,32.81139 -35.75415,32.75739 -0.275,-0.023 -5.60802,-2.90236 -11.85116,-6.39854 z m 9.61797,62.28895 -8.73319,-2.99878 4.17113,-7.67227 c 2.29412,-4.21975 5.62755,-10.33235 7.40762,-13.58356 l 3.23649,-5.9113 0.58614,3.4113 c 0.92468,5.38159 4.565,28.82215 4.565,29.39475 0,0.95215 -2.44523,0.37745 -11.23319,-2.64014 z M 160,244.81344 c 0,-17.12745 0.0809,-17.86858 1.81393,-16.62014 4.09623,2.95081 29.18607,25.15353 29.18607,25.82759 0,0.40101 -1.2375,0.99468 -2.75,1.31926 -1.5125,0.32459 -8.4875,2.12241 -15.5,3.99515 l -12.75,3.40499 0,-17.92685 z m 88,15.92116 c -2.475,-3.34134 -5.4967,-7.46104 -6.7149,-9.15488 l -2.2149,-3.07972 1.31056,-30.26232 c 0.7208,-16.64428 1.54901,-30.50079 1.84046,-30.79224 0.6044,-0.60439 74.14809,-18.39356 74.52479,-18.02648 0.86102,0.83903 28.12864,65.03973 27.77442,65.39395 -0.49055,0.49054 -42.22736,-1.61259 -47.16198,-2.37651 -2.86289,-0.4432 -4.86368,0.95732 -22.55592,15.78863 -10.67791,8.95123 -20.06421,16.79467 -20.85845,17.42986 -1.17674,0.94109 -2.27715,0.0302 -5.94408,-4.92029 z m 71.24227,12.10001 c -5.64175,-13.28387 -10.03646,-24.37376 -9.76602,-24.64419 0.57679,-0.5768 35.39681,1.3493 36.04115,1.99364 0.53878,0.53879 -14.7897,46.81846 -15.50396,46.80949 -0.28239,-0.004 -5.12942,-10.87507 -10.77117,-24.15894 z M 214.5,344.46894 c -13.2,-6.83821 -24.2916,-12.55367 -24.64799,-12.70102 -0.3564,-0.14736 -2.74593,-12.64292 -5.31007,-27.76792 -2.56415,-15.125 -4.88355,-28.41177 -5.15424,-29.52615 -0.45622,-1.87821 1.24577,-2.44953 23.31007,-7.82475 13.09123,-3.18923 24.52706,-6.00039 25.41296,-6.24703 1.11365,-0.31005 3.75446,2.41329 8.5573,8.82475 3.82062,5.10025 7.20451,9.72318 7.51977,10.27318 0.31525,0.55 -0.40302,11.68733 -1.59615,24.74963 -2.45216,26.84604 -3.05901,24.46318 6.34137,24.89988 2.98815,0.13882 5.55874,-0.17553 5.71241,-0.69856 C 254.95508,327.39701 259,283.924 259,281.6499 c 0,-1.35645 34.73652,-31.32483 35.38497,-30.52782 0.16912,0.20786 4.4929,10.27792 9.60842,22.37792 5.11552,12.1 10.76411,25.42082 12.55242,29.60182 l 3.25149,7.60182 -15.10456,2.68743 c -8.30751,1.47808 -15.24837,2.83123 -15.42414,3.00699 -0.17576,0.17577 1.09837,5.57664 2.8314,12.00194 1.73303,6.4253 2.87351,11.95983 2.53439,12.29894 -0.7066,0.70661 -53.61508,16.28781 -55.13439,16.23672 -0.55,-0.0185 -11.8,-5.62852 -25,-12.46672 z m 60,25.11545 c 25.65083,-6.89942 49.57689,-22.87734 65.90555,-44.012 7.33575,-9.49487 9.37646,-12.77269 14.57477,-23.41026 C 369.65851,272.1254 372.03894,233.01588 361.3811,197 349.96751,158.43024 324.91785,115.39274 297.85501,87.856648 247.63419,36.757594 180.86779,18.409259 91.01438,31.013964 76.214952,33.090039 64.507523,35.369754 44.205836,40.128701 30.706863,43.293014 26.979059,44.976442 37.646166,43.090962 81.433162,35.351331 139.41917,43.196708 185.98002,63.160199 213.65787,75.027394 246.05102,95.278724 264,111.93621 l 4.5,4.17621 -6,-3.73423 C 217.7916,84.552975 168.06906,67.748462 123.75628,65.487576 L 113.5,64.964289 128,69.843619 c 17.96894,6.046648 32.75085,12.299339 48.45467,20.496134 12.13295,6.332938 35.98679,20.947497 37.08149,22.718757 0.32159,0.52034 -2.92999,-0.66734 -7.22573,-2.63929 C 160.99594,89.617654 122.22437,80.668119 77.5,80.686262 c -19.029791,0.0077 -41.115218,1.885017 -46.5,3.952576 -0.825,0.31677 4.275836,2.111548 11.335191,3.988395 24.150128,6.420715 52.164715,18.391207 75.447389,32.238297 15.83276,9.41634 17.30344,10.639 9.71742,8.07863 -7.53402,-2.54281 -27.12965,-7.52214 -37.283758,-9.47394 -13.312814,-2.55896 -26.481422,-4.53837 -26.9664,-4.0534 C 62.844896,115.82177 69.458648,119 70.706266,119 72.186554,119 99.001063,132.14476 107,136.79157 137.56938,154.55022 170.07578,182.16336 192.00433,209 l 4.49411,5.5 -7.49922,-6.59333 C 150.3314,173.90984 103.26471,149.46576 56.5249,139.10615 c -4.936305,-1.09411 -9.133622,-1.83076 -9.32737,-1.63701 -0.193749,0.19375 2.945046,2.26767 6.9751,4.60873 33.74463,19.6022 58.88683,43.60924 81.00742,77.34996 4.30097,6.5603 7.81995,12.28261 7.81995,12.71624 0,0.43363 -3.9375,-2.37931 -8.75,-6.25098 C 121.05896,215.28088 87.339331,193 84.469969,193 c -0.374597,0 3.92342,4.8227 9.551149,10.71711 11.154822,11.68341 27.510152,31.52924 31.404042,38.10616 0.43089,0.7278 -1.401,-0.24312 -4.07086,-2.15759 -6.9607,-4.9913 -17.81825,-10.22266 -28.380548,-13.67426 C 87.938994,224.34614 83.308282,223 82.683283,223 c -0.624999,0 2.2735,3.4875 6.441111,7.75 12.849246,13.1418 17.110976,19.49091 34.104216,50.80834 6.28459,11.58209 13.56327,24.36141 16.17485,28.3985 21.17455,32.7325 49.90857,53.89976 82.81759,61.00856 13.93996,3.01123 38.34637,2.3665 52.27895,-1.38101 z" />
</svg>
