<?xml version="1.0" encoding="UTF-8" standalone="no"?>
<!-- Created with Inkscape (http://www.inkscape.org/) -->

<svg
   xmlns:dc="http://purl.org/dc/elements/1.1/"
   xmlns:cc="http://creativecommons.org/ns#"
   xmlns:rdf="http://www.w3.org/1999/02/22-rdf-syntax-ns#"
   xmlns:svg="http://www.w3.org/2000/svg"
   xmlns="http://www.w3.org/2000/svg"
   xmlns:sodipodi="http://sodipodi.sourceforge.net/DTD/sodipodi-0.dtd"
   xmlns:inkscape="http://www.inkscape.org/namespaces/inkscape"
   id="svg2"
   version="1.1"
   inkscape:version="0.48.3.1 r9886"
   width="400"
   height="400"
   sodipodi:docname="Icon.6_57.png">
  <metadata
     id="metadata8">
    <rdf:RDF>
      <cc:Work
         rdf:about="">
        <dc:format>image/svg+xml</dc:format>
        <dc:type
           rdf:resource="http://purl.org/dc/dcmitype/StillImage" />
        <dc:title></dc:title>
      </cc:Work>
    </rdf:RDF>
  </metadata>
  <defs
     id="defs6" />
  <sodipodi:namedview
     pagecolor="#ffffff"
     bordercolor="#666666"
     borderopacity="1"
     objecttolerance="10"
     gridtolerance="10"
     guidetolerance="10"
     inkscape:pageopacity="0"
     inkscape:pageshadow="2"
     inkscape:window-width="1855"
     inkscape:window-height="1056"
     id="namedview4"
     showgrid="false"
     inkscape:zoom="0.59"
     inkscape:cx="200"
     inkscape:cy="200"
     inkscape:window-x="65"
     inkscape:window-y="24"
     inkscape:window-maximized="1"
     inkscape:current-layer="svg2" />
  <path
     style="fill:#000000;fill-opacity:1;stroke:none"
     d="m 0,0 400,0 0,400 -400,0 z"
     id="rect3035" />
  <path
     id="path2989"
     style="fill:#ffffff"
     d="M 76.25,71.045967 C 83.070617,63.413027 75.913794,51.764526 65.613299,53.733591 59.077687,54.982952 55.574888,64.69958 59.592387,70.435363 63.446721,75.938197 71.610997,76.237468 76.25,71.045967 z m 263.17976,22.031649 c 6.8386,-7.556567 -1.6801,-24.157001 -12.54259,-24.441827 -3.16075,-0.08288 -4.51769,0.424644 -5.98711,2.239306 -4.36375,5.388998 -0.76843,17.795304 6.42882,22.183835 4.13695,2.52251 9.827,2.531296 12.10088,0.01869 z M 230.24426,118.0225 C 238.43099,111.58282 228.74018,94 217.00421,94 c -6.74422,0 -9.75673,6.86987 -6.46607,14.74552 2.07194,4.95886 4.20404,7.18895 8.96186,9.37375 5.15447,2.36694 7.64063,2.34455 10.74426,-0.0968 z M 67.920787,216.85917 c 2.632475,-2.45252 2.700606,-7.32785 0.160614,-11.49334 -5.813101,-9.53327 -19.792023,-12.69368 -23.597352,-5.33498 -5.588591,10.80714 14.453184,25.19778 23.436738,16.82832 z M 369.25295,150 c -1.54045,-1.375 -4.92909,-4.35809 -7.53031,-6.62909 -4.67332,-4.08004 -4.71171,-4.16319 -3.23223,-7 3.59862,-6.90011 0.58962,-15.99385 -6.51034,-19.67546 -4.40545,-2.2844 -11.08235,-1.73528 -15.11027,1.24269 l -2.92204,2.16035 -12.22388,-9.34691 C 299.37318,93.661262 272.13816,75.103103 250.25,62.04871 L 238,54.742645 l 0,-4.466952 c 0,-10.59905 -11.31868,-15.727195 -19.12325,-8.664155 -1.62092,1.466911 -2.77578,1.04622 -15.31493,-5.578876 C 196.10282,32.091678 190,29.115438 190,29.418796 c 0,0.303359 10.6307,11.02073 23.62379,23.816382 C 265.40792,104.23245 308.36044,153.17718 361,221.17152 l 10.5,13.56282 0.27689,-41.11717 L 372.05378,152.5 369.25295,150 z M 97.863674,259.70891 c 9.703316,-6.42135 11.279786,-20.9348 3.265736,-30.06532 -3.039583,-3.46304 -9.274312,-5.90535 -14.945073,-5.8544 -20.727969,0.18626 -26.612159,29.18056 -7.684337,37.86452 4.900278,2.24821 14.481772,1.28589 19.363674,-1.9448 z m 52.935986,66.8861 c 1.48519,-0.77274 3.82534,-2.60899 5.20034,-4.08056 2.12778,-2.27721 2.5,-3.62888 2.5,-9.07835 0,-6.04328 -0.20653,-6.60929 -3.67846,-10.08123 -3.13605,-3.13605 -4.46315,-3.73654 -9,-4.07233 -6.25546,-0.463 -10.65071,1.74888 -13.82694,6.95832 -7.20513,11.81736 6.56552,26.72238 18.80506,20.35415 z M 372,331.96666 l 0,-42.03333 -7.17468,-10.71667 c -20.5216,-30.65267 -50.94059,-67.59174 -89.09531,-108.19221 -16.80011,-17.87702 -40.51599,-39.49202 -37.16662,-33.87422 0.4426,0.74237 6.94476,10.12477 14.44923,20.84977 7.50448,10.725 16.94425,24.45 20.97728,30.5 l 7.33278,11 L 270.3868,188 C 264.37206,181.675 256.76196,173.63545 253.47546,170.13434 245.68503,161.83519 212.79078,131.13134 197.5,117.88625 173.19372,96.831797 147.32918,77.313584 124.5,62.798096 112.16123,54.952734 91.174214,43 89.737824,43 c -1.33351,0 0.869909,3.280562 4.638145,6.905503 l 3.540123,3.405504 -2.458046,2.921222 C 93.882854,58.104238 93,60.397294 93,62.616563 c 0,7.437408 7.05348,15.868746 14.25282,17.037039 l 3.43875,0.558031 -1.30189,3.644184 c -2.37687,6.653191 -1.30042,12.701 3.38234,19.003033 6.22318,8.37512 20.96674,9.43245 28.80803,2.06595 l 2.10734,-1.97974 10.96559,12.77747 c 41.60568,48.48033 86.90084,107.57403 144.56705,188.60737 l 14.82329,20.8299 -2.6732,3.1701 C 307.41107,333.02487 306,337.20353 306,344.23269 c 0,9.93425 4.57321,17.18022 13.5,21.38989 5.88976,2.77747 13.76795,3.12796 19.20897,0.85455 2.0046,-0.83757 3.90265,-1.12515 4.21788,-0.63905 0.31523,0.4861 1.69815,2.51832 3.07315,4.51604 l 2.5,3.63221 11.75,0.007 11.75,0.007 0,-42.03334 z m -76.91576,40.19075 c -0.54237,-1.01343 -7.82725,-11.02593 -16.18863,-22.25 C 207.64941,254.26859 129.42864,178.96261 56.411772,135.71414 44.101971,128.42295 31,121.66061 31,122.59832 c 0,0.34291 5.077314,6.31107 11.282921,13.26258 49.393906,55.33094 95.488989,114.40046 132.550509,169.85963 4.49161,6.72129 8.16657,12.38756 8.16657,12.59171 0,0.20415 -1.76684,0.90054 -3.9263,1.54753 -4.69918,1.40791 -8.74954,5.89537 -9.64909,10.69038 -2.89258,15.41881 5.5707,31.46446 20.29535,38.47822 10.13579,4.82796 10.2111,4.83417 59.56522,4.90473 45.15409,0.0646 46.75081,0.003 45.79906,-1.77569 z" />
</svg>
