<?xml version="1.0" encoding="UTF-8" standalone="no"?>
<!-- Created with Inkscape (http://www.inkscape.org/) -->

<svg
   xmlns:dc="http://purl.org/dc/elements/1.1/"
   xmlns:cc="http://creativecommons.org/ns#"
   xmlns:rdf="http://www.w3.org/1999/02/22-rdf-syntax-ns#"
   xmlns:svg="http://www.w3.org/2000/svg"
   xmlns="http://www.w3.org/2000/svg"
   version="1.1"
   width="512"
   height="512"
   id="svg2">
  <metadata
     id="metadata8">
    <rdf:RDF>
      <cc:Work
         rdf:about="">
        <dc:format>image/svg+xml</dc:format>
        <dc:type
           rdf:resource="http://purl.org/dc/dcmitype/StillImage" />
        <dc:title></dc:title>
      </cc:Work>
    </rdf:RDF>
  </metadata>
  <defs
     id="defs6" />
  <path
     d="m 0,0 512,0 0,512 -512,0 z"
     id="rect3028"
     style="fill:#000000;fill-opacity:1;fill-rule:nonzero;stroke:none" />
  <path
     d="m 378.68651,140.67824 c 5.22019,-7.2055 14.85757,-17.22441 20.86712,-21.69322 16.02366,-11.91549 38.00376,-17.55655 58.83537,-15.09974 9.64822,1.13788 26.0324,5.01047 32.32892,7.64133 1.97404,0.8248 3.77395,1.31485 3.9998,1.089 0.81327,-0.81327 -6.59566,-14.234862 -10.85994,-19.67324 -10.86974,-13.862554 -23.82766,-21.322733 -39.18092,-22.557374 -25.34348,-2.038011 -54.34932,17.169553 -68.58132,45.414304 -6.99765,13.8875 -11.11246,29.50463 -11.07635,42.03867 l 0.0192,6.66203 4.94832,-9.32176 c 2.72157,-5.12697 6.63649,-11.65197 8.69981,-14.5 z m -141.99034,33.4263 c 16.6973,-36.47002 11.15569,-87.223917 -10.93188,-100.121805 -4.77182,-2.786474 -5.91914,-3.04067 -12.26429,-2.717228 -4.73269,0.241248 -8.58674,1.124122 -11.89885,2.725751 l -4.89884,2.368927 4.89884,4.028655 c 15.05023,12.376824 23.82933,26.04854 28.96752,45.11116 2.52664,9.37379 3.00314,33.62142 0.91379,46.5 -0.93691,5.775 -1.91575,11.85 -2.17521,13.5 l -0.47175,3 2.23738,-3.5 c 1.23056,-1.925 3.76104,-6.82796 5.62329,-10.89546 z m -108.258,69.25295 C 126.10559,235.22569 118.28166,218.86695 112.72335,210.5 94.198804,182.61493 61.879725,159.57781 30,151.53458 26.425,150.63261 22.7125,149.66302 21.75,149.37993 20.123313,148.90149 20,150.31671 20,169.464 c 0,15.61839 0.302225,20.6867 1.25,20.96243 0.6875,0.20002 5.902115,1.08058 11.588034,1.9568 30.848081,4.75382 60.723692,21.29247 87.609946,48.49943 4.92139,4.98009 9.11052,8.89217 9.30918,8.69351 0.19866,-0.19866 -0.39489,-2.99707 -1.31899,-6.21868 z M 81.821161,398.72823 c 9.542846,-3.85453 15.771228,-7.98983 35.481059,-23.55745 9.97805,-7.88107 20.97447,-16.16107 24.4365,-18.40001 3.46202,-2.23894 6.11732,-4.24807 5.90066,-4.46473 -0.76575,-0.76575 -20.70583,3.76067 -27.87305,6.32721 -3.99648,1.43111 -15.66293,6.80493 -25.925434,11.94181 -10.262508,5.13688 -21.512508,10.25103 -25,11.36478 -8.36858,2.67255 -22.416028,4.18307 -32.340896,3.47761 l -8,-0.56864 3.5,3.09818 c 6.265241,5.54593 17.120481,11.26331 25.5,13.43065 4.920964,1.2728 18.189087,-0.17256 24.321161,-2.64941 z m 376.163529,14.38779 c 0.008,-4.06119 -0.52119,-9.17467 -1.17692,-11.36328 -1.75358,-5.85293 -8.41216,-12.02353 -15.47324,-14.33926 -8.63914,-2.83327 -29.95382,-2.50779 -57.33453,0.87551 -11.825,1.46115 -26.22215,3.15353 -31.99367,3.76083 -5.77151,0.6073 -10.65765,1.26817 -10.85808,1.4686 -0.58049,0.58049 6.64216,3.37458 12.75076,4.93264 9.02168,2.30108 20.3298,3.43618 40.60099,4.0755 35.57887,1.1221 46.51999,3.21795 54.78702,10.49488 2.44305,2.15046 5.02008,5.30574 5.72672,7.01173 1.86377,4.49955 2.95253,1.96463 2.97095,-6.91715 z M 345.9941,492.75 c -0.0119,-14.59832 -4.08601,-33.38893 -10.63394,-49.04547 -1.33309,-3.18751 -7.08583,-15.56251 -12.78385,-27.5 -5.69803,-11.93749 -11.42121,-24.79744 -12.71818,-28.57765 -1.60635,-4.68194 -3.15514,-7.36262 -4.85813,-8.40851 -18.74637,-11.51314 -28.92653,-20.34865 -35.88632,-31.14624 -4.68812,-7.27329 -8.13503,-17.2804 -8.06948,-23.42747 l 0.0442,-4.14466 2.01955,3.82768 c 2.97092,5.63083 15.62119,18.43661 24.57515,24.87724 17.54043,12.61692 32.00149,18.94568 48.72308,21.32325 13.55156,1.92683 24.75432,1.81325 52.09383,-0.52817 12.65,-1.08337 27.57994,-1.97657 33.17764,-1.98489 23.92983,-0.0355 46.00852,5.94832 65.66044,17.79556 4.86727,2.93425 9.00372,5.18087 9.1921,4.99248 0.18839,-0.18839 -2.56623,-4.69894 -6.12137,-10.02344 C 476.4032,359.80364 459.64106,346.76799 437.26403,339.44986 432.99381,338.05333 418.475,334.70647 405,332.01237 c -13.475,-2.69409 -27.60247,-5.86215 -31.39437,-7.04013 -8.18202,-2.5418 -21.68116,-8.36788 -26.649,-11.50142 -3.40997,-2.15089 -3.80525,-2.1833 -10.5,-0.86113 -9.72026,1.9197 -29.48402,1.88325 -36.78567,-0.0679 -8.16315,-2.1813 -15.94033,-6.19115 -19.84693,-10.23289 l -3.32403,-3.43902 3,1.28878 c 2.07285,0.89049 8.09934,1.26509 19.5,1.2121 19.4578,-0.0904 26.69278,-1.64552 41.58569,-8.93846 13.05989,-6.39532 25.13621,-15.19455 36.96274,-26.93235 13.10743,-13.0091 23.06201,-26.58681 39.45872,-53.82038 20.47122,-34.00097 25.41974,-41.08378 36.49285,-52.23223 8.38147,-8.4385 11.37575,-10.74016 18.5,-14.22071 4.675,-2.28396 11.5375,-4.72194 15.25,-5.41772 3.7125,-0.69579 6.75,-1.57628 6.75,-1.95665 0,-1.8858 -20.61664,-6.81758 -28.5,-6.81758 -8.04779,0 -18.40825,2.6375 -27,6.87349 -12.15406,5.99232 -24.71587,17.21214 -46.19033,41.2558 -37.00711,41.43465 -52.83342,53.7393 -76.91843,59.80264 -3.38557,0.8523 -4.74112,1.98677 -7.70149,6.44541 -8.36627,12.6005 -21.95882,24.75859 -35.3174,31.59024 -7.06859,3.61491 -20.88378,7.66055 -23.35106,6.83812 -0.57204,-0.19068 2.22666,-2.81649 6.21932,-5.83514 12.85856,-9.7217 30.76977,-28.39236 38.45677,-40.08735 11.94407,-18.1717 15.65071,-30.7075 15.64701,-52.91794 -0.002,-14.8059 -0.63136,-19.68595 -6.44344,-50 -7.0384,-36.710084 -7.31871,-39.018351 -7.34692,-60.5 -0.0282,-21.48787 1.00697,-29.133786 6.07101,-44.840233 1.3903,-4.312128 2.29881,-8.069249 2.0189,-8.349156 -1.17394,-1.17394 -11.56787,5.637453 -17.29115,11.331304 -13.34154,13.272947 -16.64064,25.979602 -18.82939,72.522515 -1.50194,31.93819 -2.40347,41.53944 -5.14888,54.83557 -3.84596,18.62607 -12.66432,40.22083 -22.17135,54.29407 -3.81391,5.64572 -3.88962,5.92735 -2.95691,11 0.52646,2.86326 0.74609,10.60593 0.48805,17.20593 -0.55547,14.20761 -2.85075,22.47311 -8.46177,30.47168 -4.33952,6.18601 -6.92316,7.86977 -5.22594,3.40575 3.47896,-9.15034 1.45206,-37.67644 -3.64083,-51.24032 -5.45028,-14.5157 -17.91456,-33.78908 -29.84083,-46.14255 C 176.47724,164.40224 166.67263,157.60371 138,142.54596 112.64528,129.23065 101.66165,121.72947 88.934218,109.03686 74.453056,94.595336 64.814361,79.796692 54.413235,56.035526 c -3.08874,-7.056164 -3.306853,-7.307566 -3.987421,-4.595968 -1.057136,4.211965 0.240608,28.666627 2.069957,39.006211 2.073603,11.720131 5.654078,22.091471 11.229573,32.528021 8.206534,15.36149 17.641381,26.60047 46.203456,55.03846 27.3031,27.18449 42.58107,48.08791 55.57924,76.04388 3.18219,6.84413 6.12055,12.82224 6.52969,13.28469 0.40915,0.46244 4.66476,2.15837 9.45693,3.76872 10.19132,3.42468 20.82111,9.96613 25.16719,15.48762 5.81978,7.39376 7.64959,12.22408 8.10775,21.40284 l 0.42428,8.5 -3.19609,-6.29223 c -8.3427,-16.42448 -25.20513,-25.15883 -48.63732,-25.19299 -21.18592,-0.0309 -32.31559,3.65525 -70.844997,23.4638 -26.933276,13.84681 -36.965927,17.92711 -47.682827,19.39274 -6.046592,0.82692 -18.191466,0.0396 -22.332646,-1.44775 -3.183573,-1.14342 5.199992,7.23075 11.5,11.48711 16.464494,11.12363 33.781876,12.66304 69.24154,6.15518 29.05595,-5.3326 45.33666,-6.1858 59.11515,-3.09798 4.11101,0.9213 5.06908,0.70409 12.79355,-2.9005 13.81884,-6.4485 27.60493,-7.75122 37.34976,-3.52938 l 4,1.73296 -7,1.6682 c -3.85,0.91751 -9.66602,2.89259 -12.92448,4.38907 -14.97154,6.87583 -35.19054,24.03646 -41.0889,34.87368 -4.2477,7.80442 -5.36165,15.0102 -6.46164,41.79809 -0.96951,23.61046 -1.83816,32.74198 -4.05611,42.63891 -1.65768,7.39692 -7.78107,22.93351 -11.6209,29.48518 -1.94235,3.31412 -3.31814,6.23907 -3.05732,6.49989 0.70994,0.70994 12.61458,-2.22165 18.59644,-4.57947 12.10981,-4.77325 23.65177,-14.61948 31.6362,-26.98828 2.32773,-3.60593 8.6091,-15.33123 13.95861,-26.05623 11.27728,-22.60937 18.00282,-33.17215 26.33418,-41.35912 5.89069,-5.7886 5.94987,-5.90293 4.91761,-9.5 -1.47299,-5.13286 -1.33761,-24.58177 0.21676,-31.14088 2.02095,-8.52791 5.96013,-16.00582 11.1825,-21.22819 2.6245,-2.6245 5.1734,-4.77181 5.66423,-4.77181 0.49082,0 -0.0107,2.5875 -1.11441,5.75 -2.82339,8.08971 -3.44226,27.48031 -1.2846,40.25 1.20475,7.13011 2.76411,11.86989 6.25088,19 6.19568,12.66958 15.89117,22.32536 39.35095,39.18977 9.625,6.91908 20.425,15.1802 24,18.35806 12.63828,11.2343 23.39344,24.80018 31.30265,39.48319 1.75854,3.26463 3.53485,5.94318 3.94735,5.95234 0.4125,0.009 0.74735,-3.24586 0.7441,-7.23336 z"
     id="path2989"
     style="fill:#ffffff" />
</svg>
