<?xml version="1.0" encoding="UTF-8" standalone="no"?>
<!-- Created with Inkscape (http://www.inkscape.org/) -->

<svg
   xmlns:dc="http://purl.org/dc/elements/1.1/"
   xmlns:cc="http://creativecommons.org/ns#"
   xmlns:rdf="http://www.w3.org/1999/02/22-rdf-syntax-ns#"
   xmlns:svg="http://www.w3.org/2000/svg"
   xmlns="http://www.w3.org/2000/svg"
   xmlns:sodipodi="http://sodipodi.sourceforge.net/DTD/sodipodi-0.dtd"
   xmlns:inkscape="http://www.inkscape.org/namespaces/inkscape"
   id="svg2"
   version="1.1"
   inkscape:version="0.48.3.1 r9886"
   width="400"
   height="400"
   sodipodi:docname="Icon.7_80.png">
  <metadata
     id="metadata8">
    <rdf:RDF>
      <cc:Work
         rdf:about="">
        <dc:format>image/svg+xml</dc:format>
        <dc:type
           rdf:resource="http://purl.org/dc/dcmitype/StillImage" />
        <dc:title></dc:title>
      </cc:Work>
    </rdf:RDF>
  </metadata>
  <defs
     id="defs6" />
  <sodipodi:namedview
     pagecolor="#ffffff"
     bordercolor="#666666"
     borderopacity="1"
     objecttolerance="10"
     gridtolerance="10"
     guidetolerance="10"
     inkscape:pageopacity="0"
     inkscape:pageshadow="2"
     inkscape:window-width="1855"
     inkscape:window-height="1056"
     id="namedview4"
     showgrid="false"
     inkscape:zoom="0.59"
     inkscape:cx="200"
     inkscape:cy="200"
     inkscape:window-x="65"
     inkscape:window-y="24"
     inkscape:window-maximized="1"
     inkscape:current-layer="svg2" />
  <path
     style="fill:#000000"
     d="m 0,0 400,0 0,400 -400,0 z"
     id="rect3030" />
  <path
     id="path2989"
     style="fill:#ffffff"
     d="m 306.54093,137.60551 c 6.5728,-8.87385 19.33821,-14.01105 34.95907,-14.06864 11.65283,-0.043 18.15273,1.78835 25.05944,7.06037 2.45183,1.87152 4.63444,3.40276 4.85026,3.40276 0.21582,0 -0.43567,-3.7125 -1.44777,-8.25 C 360.06483,81.378451 339.69242,50.250674 311.50143,36.42601 306.55064,33.998179 299.8,31.277069 296.5,30.379098 290.39723,28.718458 263,27.15277 263,28.46465 c 0,0.380387 1.54032,3.918954 3.42293,7.863482 9.20383,19.28424 6.67359,34.147763 -8.40549,49.377023 C 254.15785,89.603182 251,93.644625 251,94.686139 c 0,8.070871 -7.05065,24.315531 -13.58624,31.302601 -2.59395,2.77314 -4.50131,5.25704 -4.23858,5.51978 0.26274,0.26273 2.33977,-0.42196 4.61564,-1.52155 10.87544,-5.25443 30.41373,-6.42026 41.70918,-2.48873 7.19509,2.50434 15.35445,8.2368 18.91608,13.28971 2.68142,3.80417 3.21091,4.14749 4.08247,2.64708 0.5508,-0.9482 2.36987,-3.57149 4.04238,-5.82952 z m -204.03119,3.12684 c 6.94143,-9.56075 17.55966,-14.6648 32.21556,-15.48561 10.08761,-0.56497 19.1384,0.76438 26.1684,3.8435 l 4.39371,1.92443 -4.7025,-5.02735 c -6.02337,-6.43947 -11.26965,-17.51713 -13.32288,-28.131642 -1.50134,-7.761404 -1.98798,-8.761246 -6.84233,-14.058086 -7.46494,-8.145405 -10.6575,-15.192076 -11.21045,-24.743894 -0.51763,-8.941793 1.29654,-16.607399 5.86655,-24.788549 C 136.68411,31.38598 138,28.741802 138,28.389198 c 0,-0.352605 -6.4125,-0.405722 -14.25,-0.118037 -19.05802,0.699548 -29.777788,3.940131 -43.741098,13.222921 -20.470669,13.608874 -36.401733,37.792124 -45.522243,69.102468 -2.99104,10.26812 -5.706144,22.5173 -5.120832,23.10261 0.22057,0.22057 1.913405,-0.9803 3.761856,-2.6686 9.482362,-8.6608 29.35461,-10.31182 46.573516,-3.8694 6.048748,2.26313 15.415383,10.29187 17.291777,14.82188 0.687316,1.65933 1.532571,2.98946 1.878344,2.95586 0.345774,-0.0336 1.98306,-1.92656 3.63842,-4.20655 z m 105.08083,9.79426 c 10.48588,-4.38129 14.42208,-12.02213 11.47924,-22.28321 C 218.5582,126.45953 218.45343,125 218.83698,125 c 2.24697,0 11.62033,-9.96297 14.22173,-15.1163 6.43085,-12.739456 8.23214,-33.897541 4.0127,-47.1337 C 235.88794,59.0375 234.4585,56 233.8949,56 c -1.94891,0 -11.27769,10.530628 -16.38862,18.5 -2.82182,4.4 -8.02761,13.054817 -11.56843,19.232926 -3.54082,6.178109 -6.68161,11.240604 -6.97953,11.250004 -0.29793,0.009 -1.79637,-2.57043 -3.32987,-5.73293 C 185.18981,77.722684 168.40173,54 163.60592,54 c -0.28906,0 -1.49387,3.0375 -2.67736,6.75 -1.70907,5.361205 -2.15197,9.226537 -2.15262,18.786787 -0.002,22.268413 6.52181,37.686233 18.16699,42.937473 l 4.01328,1.80974 -0.2271,7.27328 c -0.20762,6.64932 0.0313,7.64516 2.78527,11.608 5.38744,7.75238 15.63873,10.88672 24.07619,7.36133 z M 216.5,201.64198 c 14.64244,-4.03782 27.95422,-14.05225 35.28577,-26.54544 C 253.87142,171.54253 258,161.03614 258,159.2826 c 0,-0.22382 -2.92101,2.20853 -6.49114,5.40523 -30.69981,27.48863 -74.38131,27.23126 -104.75886,-0.61723 -3.1625,-2.89921 -5.75,-5.07158 -5.75,-4.82749 0,1.59178 4.34386,12.59229 6.16325,15.60798 8.69499,14.4122 24.30284,25.10855 40.99478,28.09449 6.71678,1.20153 21.76801,0.50924 28.34197,-1.3036 z m 1.61901,50.89025 c 21.86889,-3.82993 42.41418,-14.61975 56.20831,-29.51906 5.59663,-6.04503 13.87801,-18.56809 15.21078,-23.00167 l 0.74807,-2.48851 -3.39308,2.74465 C 264.67414,218.24043 250.08026,225.41786 225,230.70733 c -11.91539,2.51298 -39.19171,2.50599 -50.87475,-0.0131 -23.82069,-5.13608 -44.04257,-14.79872 -59.26565,-28.31897 -2.78715,-2.47539 -5.27522,-4.29302 -5.52905,-4.0392 -0.82518,0.82519 5.33493,12.02072 10.10759,18.36976 13.30367,17.69779 36.61585,31.40786 60.896,35.81341 9.80236,1.7786 27.66801,1.78473 37.78487,0.0129 z M 229.5,309.54424 c 26.85102,-4.78865 52.54471,-15.40441 72,-29.74795 9.76072,-7.19616 25.98935,-23.80065 32.35996,-33.10945 2.94088,-4.29723 5.17997,-7.98024 4.97576,-8.18445 -0.20421,-0.20422 -3.28829,1.90246 -6.85351,4.68151 -29.27048,22.81598 -62.99339,36.80262 -102.37977,42.46221 -14.88674,2.13913 -45.37492,2.13081 -60.32299,-0.0165 C 130.87433,280.11276 94.194628,264.70574 67.25,242.77298 63.2625,239.52718 60,237.27031 60,237.7577 c 0,0.4874 2.300279,4.22529 5.11173,8.30642 24.386533,35.39979 65.83061,59.01572 113.88827,64.89656 10.65575,1.30395 39.83533,0.48551 50.5,-1.41644 z m -7.1436,59.4246 c 42.15016,-3.99703 82.14532,-19.35597 114.1436,-43.83343 11.4635,-8.76913 34.5,-32.54133 34.5,-35.60179 0,-0.37554 -4.1625,2.21807 -9.25,5.76356 -36.76557,25.62204 -77.44231,40.93689 -125.75,47.34505 -18.6408,2.47275 -54.40512,2.46931 -73,-0.007 -48.51406,-6.46076 -92.488205,-23.21563 -127.440043,-48.55672 -3.817023,-2.76745 -7.141354,-4.83042 -7.387401,-4.58437 -0.807958,0.80796 10.622944,14.02409 19.562395,22.61756 33.607801,32.30711 80.687219,52.74566 131.765049,57.20306 9.19132,0.80209 32.75604,0.6119 42.8564,-0.34589 z" />
</svg>
