<?xml version="1.0" encoding="UTF-8" standalone="no"?>
<!-- Created with Inkscape (http://www.inkscape.org/) -->

<svg
   xmlns:dc="http://purl.org/dc/elements/1.1/"
   xmlns:cc="http://creativecommons.org/ns#"
   xmlns:rdf="http://www.w3.org/1999/02/22-rdf-syntax-ns#"
   xmlns:svg="http://www.w3.org/2000/svg"
   xmlns="http://www.w3.org/2000/svg"
   xmlns:sodipodi="http://sodipodi.sourceforge.net/DTD/sodipodi-0.dtd"
   xmlns:inkscape="http://www.inkscape.org/namespaces/inkscape"
   id="svg2"
   version="1.1"
   inkscape:version="0.48.3.1 r9886"
   width="400"
   height="400"
   sodipodi:docname="2_89.png">
  <metadata
     id="metadata8">
    <rdf:RDF>
      <cc:Work
         rdf:about="">
        <dc:format>image/svg+xml</dc:format>
        <dc:type
           rdf:resource="http://purl.org/dc/dcmitype/StillImage" />
        <dc:title></dc:title>
      </cc:Work>
    </rdf:RDF>
  </metadata>
  <defs
     id="defs6" />
  <sodipodi:namedview
     pagecolor="#ffffff"
     bordercolor="#666666"
     borderopacity="1"
     objecttolerance="10"
     gridtolerance="10"
     guidetolerance="10"
     inkscape:pageopacity="0"
     inkscape:pageshadow="2"
     inkscape:window-width="1855"
     inkscape:window-height="1056"
     id="namedview4"
     showgrid="false"
     inkscape:zoom="0.59"
     inkscape:cx="200"
     inkscape:cy="200"
     inkscape:window-x="65"
     inkscape:window-y="24"
     inkscape:window-maximized="1"
     inkscape:current-layer="svg2" />
  <path
     style="fill:#000000"
     d="m 0,0 400,0 0,400 -400,0 z"
     id="rect3026" />
  <path
     id="path2989"
     style="fill:#ffffff"
     d="M 63.170407,114.55152 C 80.718999,110.83219 96.957743,98.156585 104.87221,82 c 4.43977,-9.063331 7.09306,-19.350236 7.09306,-27.5 0,-6.375165 -2.27601,-17.153388 -4.85193,-22.976689 L 105.11246,27 66.05623,27 27,27 l 0,42.472065 0,42.472065 5.25,1.465 c 2.8875,0.80575 6.15,1.66612 7.25,1.91194 4.408259,0.98509 17.381658,0.56331 23.670407,-0.76955 z M 79.5,160.52704 c 42.19095,-6.86738 75.92233,-39.17171 84.60642,-81.02704 3.11333,-15.005574 2.34555,-37.249508 -1.7431,-50.5 l -1.69711,-5.5 -0.72807,4 c -0.40043,2.2 -1.25204,7.15 -1.89245,11 -1.78819,10.750241 -4.80751,19.939213 -10.57386,32.180422 C 133.17116,101.03888 107.56621,127.16789 77.160135,142.43118 67.301233,147.38016 51.285598,152.5858 41.5,154.02195 c -12.498089,1.83424 -13.19417,2.01287 -11.485866,2.9474 1.562861,0.85497 14.368136,3.71794 19.485866,4.3566 7.407213,0.92438 21.761089,0.54213 30,-0.79891 z m 33.5,57.13637 c 20.48305,-4.84651 38.3775,-12.94772 53.73794,-24.32835 37.56998,-27.8358 58.46856,-69.29738 58.3863,-115.83506 -0.0263,-14.886914 -1.18318,-23.901593 -4.85153,-37.80476 -2.66356,-10.094971 -4.2275,-11.195541 -4.2574,-2.996004 -0.0202,5.534482 -3.42016,22.975853 -6.41231,32.894095 -13.53957,44.880489 -45.28412,85.933079 -87.61967,113.311209 -23.994665,15.5172 -53.6297,26.46554 -77.48333,28.62537 -3.85,0.3486 -7.675,0.86211 -8.5,1.14113 -2.732668,0.92422 14.943997,5.54575 29.5,7.71273 1.65,0.24564 10.65,0.29304 20,0.10533 13.77463,-0.27653 18.99214,-0.81264 27.5,-2.82569 z m 15.64201,67.79027 c 41.37602,-6.21119 78.40814,-25.23657 108.61737,-55.80255 46.88192,-47.43559 65.34729,-117.21417 48.34001,-182.671604 -1.35961,-5.23289 -3.03188,-10.85651 -3.71614,-12.496935 -1.15491,-2.768745 -1.30617,-2.265609 -2.10976,7.017409 -3.60235,41.614463 -23.25527,89.58055 -52.14458,127.2672 C 201.18045,203.26971 165.0013,233.08029 126.6408,251.97849 100.78863,264.7145 69.958516,273.83853 46.746905,275.62271 41.936107,275.9925 38,276.60931 38,276.99339 c 0,1.91029 29.535605,8.55068 44.401515,9.98265 11.202011,1.07904 33.886175,0.33222 46.240495,-1.52236 z m 30.89953,76.99834 C 215.52994,355.20454 264.02744,330.92062 302.5,290.86911 361.85363,229.07955 382.81863,140.78723 358.03219,57 355.20926,47.457463 354,46.141971 354,52.61358 354,71.081454 346.45934,105.44819 336.36181,133 326.40182,160.17653 304.28807,198.38741 283.40809,224.5 272.70436,237.88613 242.98718,267.74427 230,278.16142 179.08923,318.99748 117.29904,345.69785 64.775951,349.55694 60.224178,349.89138 55.825,350.40125 55,350.68998 c -4.614411,1.61494 35.401721,11.05976 53.5,12.62735 11.79,1.0212 40.18687,0.53979 51.04154,-0.86531 z" />
</svg>
