<?xml version="1.0" encoding="UTF-8" standalone="no"?>
<!-- Created with Inkscape (http://www.inkscape.org/) -->

<svg
   xmlns:dc="http://purl.org/dc/elements/1.1/"
   xmlns:cc="http://creativecommons.org/ns#"
   xmlns:rdf="http://www.w3.org/1999/02/22-rdf-syntax-ns#"
   xmlns:svg="http://www.w3.org/2000/svg"
   xmlns="http://www.w3.org/2000/svg"
   version="1.1"
   width="512"
   height="512"
   id="svg2">
  <metadata
     id="metadata8">
    <rdf:RDF>
      <cc:Work
         rdf:about="">
        <dc:format>image/svg+xml</dc:format>
        <dc:type
           rdf:resource="http://purl.org/dc/dcmitype/StillImage" />
        <dc:title></dc:title>
      </cc:Work>
    </rdf:RDF>
  </metadata>
  <defs
     id="defs6" />
  <path
     d="m 0,0 512,0 0,512 -512,0 z"
     id="rect3018"
     style="fill:#000000;fill-opacity:1;fill-rule:nonzero;stroke:none" />
  <path
     d="m 31.983691,439.09365 c 16.05853,2.02927 59.4576,1.77202 74.999999,-0.44456 6.6,-0.94125 13.16229,-1.94527 14.58288,-2.23114 2.50695,-0.50448 2.70323,-0.15718 6.67714,11.81483 4.27942,12.89242 13.049,33.75091 14.18996,33.75091 1.56556,0 4.06944,-22.25289 4.05999,-36.0827 l -0.01,-14.58269 14.40602,-4.10494 c 7.92331,-2.25772 20.44793,-6.38301 27.83248,-9.16731 7.38458,-2.7843 13.88525,-5.06236 14.44597,-5.06236 0.56071,0 2.50616,3.2625 4.32321,7.25 4.30641,9.45037 13.7049,25.82995 21.6563,37.74237 l 6.33605,9.49236 0,-10.45204 c 0,-12.60037 -2.27497,-32.10413 -5.33011,-45.696 l -2.24212,-9.97489 10.03612,-5.31494 c 11.8412,-6.27089 24.70328,-13.83362 32.97171,-19.38694 l 5.93559,-3.98651 1.56441,2.41329 c 0.86042,1.32732 5.59376,7.78849 10.51853,14.35817 8.84904,11.80467 33.81162,38.58809 34.93707,37.48547 0.76171,-0.74626 -1.6821,-13.42182 -5.4813,-28.43034 -2.66,-10.5082 -9.45528,-29.93584 -14.16584,-40.5 l -1.56065,-3.5 12.19167,-10.19704 c 6.70542,-5.60837 16.80208,-14.70544 22.43703,-20.21571 l 10.24535,-10.01866 11.72127,9.64629 c 12.45933,10.25368 28.66927,21.29054 41.58761,28.31575 9.48686,5.15911 9.51031,5.75846 -0.56315,-14.39359 -8.11743,-16.23899 -15.74153,-28.82286 -24.4917,-40.4245 l -6.29251,-8.34309 5.28757,-6.68472 c 10.87845,-13.7529 24.01345,-33.95173 30.72786,-47.2529 1.64691,-3.26251 3.20817,-5.93183 3.46946,-5.93183 0.2613,0 5.17762,1.32045 10.92518,2.93433 15.50551,4.35387 47.15465,9.23324 46.41071,7.15517 -1.08184,-3.02195 -25.43186,-21.8082 -37.68706,-29.07588 -4.04101,-2.39644 -7.54188,-4.86424 -7.77971,-5.48401 -0.23783,-0.61977 1.10631,-5.37998 2.98698,-10.57823 4.70992,-13.01847 9.12385,-30.10917 11.57715,-44.82671 1.13459,-6.80643 2.06288,-12.83531 2.06288,-13.39752 0,-0.668 2.96955,-0.79395 8.56972,-0.36348 9.06695,0.69694 38.99878,-0.89857 42.72645,-2.27753 1.9044,-0.70448 0.94755,-1.4459 -7.04924,-5.46213 -11.6736,-5.86283 -22.2621,-10.13839 -33.74605,-13.62642 l -8.99912,-2.73332 -1.19449,-15.382132 C 435.85998,70.999304 429.44402,44.02348 421.17012,25.983691 l -2.52256,-5.5 -0.10182,18.5 c -0.12095,21.978747 -2.63598,47.817985 -6.1455,63.138549 l -1.06256,4.63855 -10.17699,-0.50373 c -5.59735,-0.27706 -15.127,-0.01 -21.177,0.59404 -12.85847,1.28325 -31.5,4.29447 -31.5,5.08828 0,1.86129 41.84493,16.03644 52.25206,17.70061 2.08575,0.33352 3.98409,0.91678 4.21853,1.29612 0.50467,0.81656 -7.00821,22.55161 -11.25031,32.54758 -3.18069,7.4949 -10.12139,22.73444 -10.54886,23.16192 -0.1422,0.1422 -5.18895,-1.56225 -11.21499,-3.78767 -18.97635,-7.00799 -54.45643,-17.51136 -54.45643,-16.12106 0,1.1445 13.63159,14.82403 22.5,22.57912 4.95,4.32859 13.59209,10.94487 19.20464,14.70285 l 10.20464,6.83268 -6.59004,9.81608 c -7.20113,10.72633 -9.27516,13.52748 -19.64896,26.53766 l -6.95424,8.72158 -3.60802,-2.84313 c -7.66843,-6.04274 -24.2349,-16.25302 -35.66318,-21.98 -12.8638,-6.44634 -22.42938,-10.46883 -23.15933,-9.73887 -1.05029,1.05028 22.46943,35.26896 33.87893,49.29023 3.20956,3.94426 5.83556,7.59261 5.83556,8.10743 0,2.66326 -35.60036,34.05179 -36.97404,32.5997 -0.4571,-0.48318 -3.38742,-4.02852 -6.51182,-7.87852 -9.31853,-11.48263 -38.55437,-40.5 -40.80492,-40.5 -1.28489,0 13.24421,40.97298 20.16879,56.87723 2.24552,5.15747 3.86256,9.73352 3.59341,10.16901 -1.20383,1.94784 -39.97678,26.95376 -41.79318,26.95376 -0.2992,0 -2.88398,-3.87397 -5.74397,-8.60881 -7.53327,-12.47172 -17.79439,-25.87772 -29.7569,-38.87696 l -5.50839,-5.98577 0.70262,4.48577 c 1.13386,7.239 9.21013,39.53653 12.91933,51.66526 l 3.41891,11.17949 -13.25961,6.57449 c -15.9017,7.88451 -34.40616,16.56653 -35.30915,16.56653 -0.3582,0 -1.71683,-2.8125 -3.01919,-6.25 -3.58848,-9.4716 -11.35054,-24.45852 -18.07351,-34.89621 l -6.02482,-9.35379 -0.0118,5.56262 c -0.0151,7.11308 2.63919,35.04568 4.35447,45.82531 1.28584,8.08079 1.26706,8.30133 -0.77422,9.09124 -27.232799,10.53818 -48.779279,17.93683 -74.592029,25.61345 -10.175,3.02601 -19.3608,5.75917 -20.41289,6.0737 -3.27335,0.97856 0.0828,1.94871 11.91289,3.44364 z"
     id="path2989"
     style="fill:#ffffff" />
</svg>
