<?xml version="1.0" encoding="UTF-8" standalone="no"?>
<!-- Created with Inkscape (http://www.inkscape.org/) -->

<svg
   xmlns:dc="http://purl.org/dc/elements/1.1/"
   xmlns:cc="http://creativecommons.org/ns#"
   xmlns:rdf="http://www.w3.org/1999/02/22-rdf-syntax-ns#"
   xmlns:svg="http://www.w3.org/2000/svg"
   xmlns="http://www.w3.org/2000/svg"
   xmlns:sodipodi="http://sodipodi.sourceforge.net/DTD/sodipodi-0.dtd"
   xmlns:inkscape="http://www.inkscape.org/namespaces/inkscape"
   id="svg2"
   version="1.1"
   inkscape:version="0.48.3.1 r9886"
   width="400"
   height="400"
   sodipodi:docname="Icon.1_83.svg">
  <metadata
     id="metadata8">
    <rdf:RDF>
      <cc:Work
         rdf:about="">
        <dc:format>image/svg+xml</dc:format>
        <dc:type
           rdf:resource="http://purl.org/dc/dcmitype/StillImage" />
        <dc:title></dc:title>
      </cc:Work>
    </rdf:RDF>
  </metadata>
  <defs
     id="defs6" />
  <sodipodi:namedview
     pagecolor="#ffffff"
     bordercolor="#666666"
     borderopacity="1"
     objecttolerance="10"
     gridtolerance="10"
     guidetolerance="10"
     inkscape:pageopacity="0"
     inkscape:pageshadow="2"
     inkscape:window-width="1855"
     inkscape:window-height="1056"
     id="namedview4"
     showgrid="false"
     inkscape:zoom="1.668772"
     inkscape:cx="133.99925"
     inkscape:cy="240.89588"
     inkscape:window-x="65"
     inkscape:window-y="24"
     inkscape:window-maximized="1"
     inkscape:current-layer="svg2" />
  <path
     style="fill:#000000;fill-opacity:1;stroke:none"
     d="m 0,1.5258789e-5 400,0 L 400,400.00002 l -400,0 z"
     id="rect4019" />
  <path
     id="path3972"
     style="fill:#ffffff"
     d="M 295.34367,364.1431 C 306.77105,359.53416 316.94662,348.64971 320.719,337 c 1.65897,-5.12315 1.781,-12.28333 1.781,-104.5 0,-99 0,-99 -3.24031,-105.62266 -3.66339,-7.48738 -9.26498,-13.58542 -17.11364,-18.63038 -8.71051,-5.59894 -17.768,-8.21225 -33.76336,-9.741576 -8.21427,-0.78537 -15.70706,-2.040003 -17.62858,-2.951824 -1.83809,-0.872232 -5.93288,-4.726334 -6.90231,-6.367447 l -13.27463,-0.310976 c -0.94171,1.523724 2.36191,9.595271 5.47114,13.367303 1.64588,1.99674 5.34582,4.78102 8.2221,6.1873 3.9332,1.92303 7.95644,2.81258 16.22959,3.58839 16.10663,1.51039 22.27668,2.76661 29.12338,5.92952 7.56771,3.49599 13.61208,8.84158 16.31819,14.43165 2.03455,4.20281 2.05843,5.37791 2.05843,101.2767 0,97.02456 0,97.02456 -3.05968,103.14752 -3.20701,6.41778 -7.94963,10.95206 -14.60212,13.96066 C 286.79195,352.36797 280.07254,352.5 202,352.5 c -84.5,0 -84.5,0 -89.19487,-2.31252 -6.6895,-3.295 -12.35451,-9.36716 -14.775253,-15.83717 C 95.99621,328.91485 95.974078,327.65368 96.235407,232.0947 96.5,135.34243 96.5,135.34243 99.534896,130.43397 c 3.793354,-6.13516 11.782974,-11.82301 20.418154,-14.5358 3.60082,-1.13121 11.27195,-2.46336 17.04695,-2.96032 5.775,-0.49695 12.3,-1.39242 14.5,-1.98993 6.69636,-1.81868 11.7249,-5.8968 14.73378,-11.949035 1.50358,-3.024387 3.48917,-7.047614 3.63559,-8.422614 L 155.2867,90.284053 c -2.91834,5.643454 -5.16842,6.729081 -19.76788,8.267449 -21.39764,2.254708 -33.85941,7.542308 -43.8854,18.620828 -2.823381,3.11978 -6.25842,8.29478 -7.63342,11.5 C 81.5,134.5 81.5,134.5 81.200598,227.5 c -0.196251,60.95939 0.06221,95.72538 0.750213,100.91059 1.799584,13.56284 8.225332,24.36612 18.583569,31.2436 2.90258,1.92721 7.90727,4.34924 11.12152,5.3823 5.55341,1.78486 10.12185,1.86797 91.8441,1.6709 86,-0.20739 86,-0.20739 91.84367,-2.56429 z M 135.12602,325.07474 c 6.39209,-2.7089 18.44106,-7.27153 26.77546,-10.13919 8.33441,-2.86766 14.97733,-5.39007 14.76204,-5.60536 -0.21529,-0.21529 -8.44015,-2.03078 -18.27748,-4.03442 -18.05322,-3.67704 -30.97192,-4.635 -39.63604,-2.93914 -3.75,0.734 -3.75,0.734 -3.75,6.56296 0,3.20592 0.67731,7.74865 1.50513,10.09495 1.65934,4.70307 5.27846,10.98546 6.32844,10.98546 0.36875,0 5.90035,-2.21637 12.29245,-4.92526 z m 147.78098,2.05587 c 1.12375,-1.57817 2.53674,-4.16567 3.13997,-5.75 1.82424,-4.79124 2.93795,-12.20601 2.30712,-15.36017 -0.47678,-2.38389 -1.21682,-3.07343 -3.72455,-3.47035 -1.72125,-0.27244 -9.87954,-1.4413 -18.12954,-2.59747 -47.27375,-6.62506 -101.8812,-21.75133 -136.89437,-37.91976 -7.6853,-3.54893 -6.9574,-3.83664 -11.30193,4.46714 -1.86616,3.56681 -2.75078,7.05513 -3.08621,12.16978 -0.47021,7.16978 -0.47021,7.16978 3.90615,7.71289 18.16215,2.25393 30.1151,4.07655 40.87636,6.23295 15.17835,3.04152 46.15753,10.91034 62.5,15.87523 13.23573,4.02105 42.8902,14.92067 51.5,18.92904 3.025,1.40831 5.80686,2.56497 6.18191,2.57034 0.37504,0.005 1.60134,-1.28146 2.72509,-2.85962 z m 1.2399,-40.7521 c 2.97806,-0.4242 3.74061,-1.00973 4.15791,-3.19268 0.85995,-4.49853 -1.08009,-13.13233 -4.16721,-18.54546 -1.61235,-2.8272 -3.54042,-5.05896 -4.28458,-4.95945 -0.74416,0.0995 -7.12564,2.70231 -14.18106,5.78402 -7.05542,3.08171 -18.52086,7.5498 -25.47876,9.92909 -8.68402,2.96955 -12.03027,4.51207 -10.67196,4.91947 2.1993,0.65964 25.89754,5.19132 34.47876,6.59318 5.16841,0.84434 11.71653,0.67267 20.1469,-0.52817 z M 226,267.13692 c 3.575,-1.157 7.8967,-2.96449 9.60378,-4.01666 3.10378,-1.91302 3.10378,-1.91302 -0.29437,-8.95663 -3.39815,-7.0436 -3.39815,-7.0436 -7.30366,-5.66566 -6.82042,2.40639 -19.87903,3.81281 -29.42461,3.16907 -7.89362,-0.53234 -12.08857,-1.3312 -22.24294,-4.2358 -1.88275,-0.53855 -2.61175,0.29494 -5.64745,6.45701 -3.48565,7.07539 -3.48565,7.07539 -0.3382,8.97046 3.51577,2.11684 11.03185,4.71014 17.72264,6.11491 2.43364,0.51095 10.49981,0.78004 17.92481,0.59798 10.30735,-0.25275 15.0372,-0.82853 20,-2.43468 z M 254,37 l -109,0 0,39 109,0 z m -50,85.0625 c -18.127,-0.0818 -30.05351,4.78676 -41.1875,16.8125 -10.47367,11.31253 -16.79378,26.7095 -18.71875,45.625 -0.50375,4.95 -0.83596,9.02289 -0.75,9.0625 0.086,0.0396 2.40625,1.34843 5.15625,2.90625 14.34214,8.12454 24.41896,19.63686 26.65625,30.46875 0.76394,3.69861 1.89388,6.23115 3.125,7 1.05949,0.66167 5.12946,2.06157 9.0625,3.125 5.66895,1.53279 9.53961,1.86036 18.65625,1.5625 8.1416,-0.26601 13.4383,-0.99338 18.125,-2.5 6.61995,-2.12809 6.61943,-2.13958 7.125,-6.625 1.2485,-11.07663 11.9168,-24.38519 25.625,-32 7.20081,-4 7.18174,-4 6.5625,-10 -2.07698,-20.1242 -9.0847,-37.78631 -19.34375,-48.71875 C 233.0358,126.99746 221.41267,122.14106 204,122.0625 z m -22.71875,54.28125 c 6.70179,0 12.125,5.42321 12.125,12.125 0,6.70179 -5.42321,12.125 -12.125,12.125 -6.70179,0 -12.15625,-5.42321 -12.15625,-12.125 0,-6.70179 5.45446,-12.125 12.15625,-12.125 z m 41.34375,0 c 6.70179,0 12.125,5.42321 12.125,12.125 0,6.70179 -5.42321,12.125 -12.125,12.125 -6.70179,0 -12.15625,-5.42321 -12.15625,-12.125 0,-6.70179 5.45446,-12.125 12.15625,-12.125 z m -21.5,26.5625 c 0.61353,0.0467 1.33971,1.75824 3,5.65625 1.62339,3.81139 3.77623,9.8625 4.78125,13.4375 1.82732,6.5 -2.59448,6.79133 -7.5,6.5 -4.90552,-0.29133 -9.32148,0 -8.71875,-2.5 0.97878,-4.05976 5.01883,-16.19553 6.8125,-20.4375 0.72698,-1.71928 1.14781,-2.69256 1.625,-2.65625 z"
     inkscape:connector-curvature="0"
     sodipodi:nodetypes="sssssssccsssssssssssssssssccsssssssssssssssssssssssssssssscsssscsssssssssssssssscccccssscssssssssssssssssssssscsssssc" />
</svg>
