<?xml version="1.0" encoding="UTF-8" standalone="no"?>
<!-- Created with Inkscape (http://www.inkscape.org/) -->

<svg
   xmlns:dc="http://purl.org/dc/elements/1.1/"
   xmlns:cc="http://creativecommons.org/ns#"
   xmlns:rdf="http://www.w3.org/1999/02/22-rdf-syntax-ns#"
   xmlns:svg="http://www.w3.org/2000/svg"
   xmlns="http://www.w3.org/2000/svg"
   version="1.1"
   width="512"
   height="512"
   id="svg2">
  <metadata
     id="metadata8">
    <rdf:RDF>
      <cc:Work
         rdf:about="">
        <dc:format>image/svg+xml</dc:format>
        <dc:type
           rdf:resource="http://purl.org/dc/dcmitype/StillImage" />
        <dc:title></dc:title>
      </cc:Work>
    </rdf:RDF>
  </metadata>
  <defs
     id="defs6" />
  <path
     d="m 0,0 512,0 0,512 -512,0 z"
     id="rect3026"
     style="fill:#000000" />
  <path
     d="m 404.10892,139.84 c -4.2296,-6.97423 -21.09133,-24.03532 -28.37164,-28.70708 L 369.47401,107.11379 405.73416,70.836897 441.9943,34.56 l 17.60843,0 17.60842,0 0,20.79127 0,20.791271 -34.23112,34.248729 c -18.82711,18.8368 -34.62013,34.24873 -35.0956,34.24873 -0.47547,0 -2.17445,-2.16 -3.77551,-4.8 z m -8.11678,61.44 c -3.50497,-14.40397 -17.29271,-36.20773 -32.30283,-51.08326 -15.2709,-15.13399 -32.36272,-26.06336 -48.0394,-30.71884 -3.40704,-1.01178 -5.85303,-2.39232 -5.43552,-3.06786 2.06492,-3.34111 9.3258,-5.48802 18.51676,-5.47506 21.9807,0.031 48.10418,16.94635 63.88966,41.36958 10.67522,16.51661 14.3813,35.02724 9.30883,46.49439 -3.02622,6.84128 -4.70574,7.54308 -5.9375,2.48105 z m -33.88544,20.16 c -6.14388,-15.08856 -14.50586,-27.2103 -28.25555,-40.96 -18.89518,-18.89518 -35.79975,-28.41042 -61.80282,-34.78758 l -11.55563,-2.83397 4.6469,-4.01694 c 15.11434,-13.06532 43.46379,-9.2454 71.20711,9.59474 15.40192,10.45924 32.09251,29.80805 39.30764,45.56795 10.5202,22.97919 10.61163,43.54455 0.24928,56.07485 l -4.10106,4.95904 -3.41464,-13.27904 C 366.50989,234.45558 363.68333,225.312 362.1067,221.44 z M 119.45114,397.51086 c 24.43237,-6.36955 40.75114,-15.37643 61.44001,-33.91085 23.16749,-20.75493 42.78376,-23.31443 64.45161,-8.40957 l 6.25518,4.3028 4.65481,-6.62662 4.65481,-6.62662 -3.52821,-2.92287 c -5.88198,-4.87282 -20.9846,-11.7281 -29.1282,-13.22168 -7.43973,-1.36449 -19.54479,-0.98056 -23.88184,0.75747 -1.96465,0.7873 -1.97228,0.44049 -0.10292,-4.68131 2.59257,-7.10322 2.80398,-25.29501 0.39065,-33.61358 -1.29732,-4.47173 -1.41918,-6.46028 -0.41637,-6.79454 3.80024,-1.26675 23.73895,-17.60522 30.283,-24.81493 13.13332,-14.46925 26.60547,-39.7222 27.85083,-52.20511 0.42638,-4.27378 0.28634,-4.41598 -5.96336,-6.05531 -3.52,-0.92331 -6.9837,-1.68987 -7.69709,-1.70345 -0.7134,-0.0136 -1.99986,2.99931 -2.85881,6.69531 -0.85895,3.696 -4.11886,11.90807 -7.24426,18.24904 -14.06054,28.52683 -42.75351,50.93977 -77.06666,60.19908 l -7.82683,2.11205 1.93151,7.66772 1.93151,7.66773 4.6153,-0.83202 c 2.53844,-0.4576 9.40655,-2.46702 15.26248,-4.46535 12.6469,-4.31578 12.41481,-4.51954 12.34893,10.84175 -0.0378,8.79946 -0.62213,11.47389 -4.15409,19.01107 -8.62132,18.39785 -26.37316,35.20416 -48.04509,45.48602 C 127.119,378.59342 108.59395,384 102.03212,384 c -7.487522,0 -8.783113,2.42936 -6.740988,12.64 0.76009,3.80044 1.095347,3.99686 6.719998,3.93706 3.256,-0.0346 11.104,-1.4144 17.44,-3.0662 z m -84.726421,80.74976 c 0.367104,-0.95665 4.45682,-13.77265 9.088256,-28.48 16.065856,-51.01784 26.085453,-76.5024 31.901543,-81.14062 26.656862,-21.25833 38.592842,-45.98301 39.856332,-82.56 l 0.48636,-14.08 10.04897,-8.46701 c 31.41811,-26.47209 51.53862,-57.21958 57.955,-88.56485 1.71752,-8.39044 1.44998,-8.20381 17.66544,-12.32224 45.37657,-11.52481 92.25679,-0.32093 120.60453,28.82321 4.32124,4.44263 6.42276,7.46665 5.4417,7.83044 -5.81721,2.15704 -21.582,14.25635 -29.14447,22.36809 -14.9798,16.06775 -21.93418,33.31141 -23.26736,57.69236 l -0.75241,13.76 7.70128,0 c 7.60141,0 7.71163,-0.0518 8.50126,-4 0.44,-2.2 0.8,-6.86885 0.8,-10.37524 0,-8.30562 3.07277,-20.03695 7.96911,-30.42476 2.81202,-5.96581 6.69154,-11.03636 13.71074,-17.92 10.37281,-10.17247 23.25671,-18.77777 25.77966,-17.21851 2.36307,1.46047 9.77205,18.40698 12.6773,28.9967 5.77367,21.0452 5.47819,52.4001 -0.68623,72.82082 -0.41857,1.3866 -3.46455,2.54818 -9.51961,3.63028 -30.53287,5.45652 -56.726,25.3899 -67.46986,51.34557 l -3.46662,8.37487 -12.92501,0.10458 c -41.10405,0.33249 -92.04859,26.77934 -103.14197,53.54409 l -2.73408,6.59645 -15.53671,6.59424 c -22.93271,9.73329 -50.623496,19.89359 -75.464264,27.6893 -23.624538,7.41403 -27.136704,8.13888 -26.078887,5.38226 z"
     id="path2989"
     style="fill:#ffffff" />
</svg>
