<?xml version="1.0" encoding="UTF-8" standalone="no"?>
<!-- Created with Inkscape (http://www.inkscape.org/) -->

<svg
   xmlns:dc="http://purl.org/dc/elements/1.1/"
   xmlns:cc="http://creativecommons.org/ns#"
   xmlns:rdf="http://www.w3.org/1999/02/22-rdf-syntax-ns#"
   xmlns:svg="http://www.w3.org/2000/svg"
   xmlns="http://www.w3.org/2000/svg"
   version="1.1"
   width="512"
   height="512"
   id="svg2">
  <metadata
     id="metadata8">
    <rdf:RDF>
      <cc:Work
         rdf:about="">
        <dc:format>image/svg+xml</dc:format>
        <dc:type
           rdf:resource="http://purl.org/dc/dcmitype/StillImage" />
        <dc:title></dc:title>
      </cc:Work>
    </rdf:RDF>
  </metadata>
  <defs
     id="defs6" />
  <path
     d="m 0,0 512,0 0,512 -512,0 z"
     id="rect3020"
     style="fill:#000000;fill-opacity:1;fill-rule:nonzero;stroke:none" />
  <path
     d="M 303.63726,133.59238 C 295.73697,130.65903 290.04392,122.45351 290.04392,114 c 0,-13.0482 12.68097,-23.112494 25.16182,-19.969778 15.2956,3.851475 21.10158,23.021638 10.36122,34.210648 -5.56645,5.79898 -14.71306,8.03103 -21.9297,5.35151 z M 291.64644,484 c 10.53182,-29.13707 12.59111,-55.44482 6.23853,-79.69828 -12.60425,-48.12163 -56.87315,-91.97157 -119.44864,-118.3182 -35.28968,-14.85827 -46.17619,-22.58477 -53.93174,-38.27705 -4.70033,-9.51047 -6.4271,-17.58233 -6.46191,-30.20647 -0.0733,-26.56837 7.68187,-45.8455 24.8307,-61.72229 15.90668,-14.72678 40.44454,-23.05543 63.12662,-21.42645 16.02931,1.15119 7.36458,-6.31287 104.35995,89.89874 48.10117,47.7125 87.85966,86.75 88.3522,86.75 0.49253,0 2.44629,-1.62342 4.34168,-3.6076 1.89539,-1.98418 10.82142,-10.40076 19.83561,-18.70352 9.01419,-8.30276 15.98186,-15.23178 15.48371,-15.39783 -0.49815,-0.16605 -11.0234,1.0217 -23.38944,2.63944 l -22.48371,2.94135 -5.25857,-5.16022 c -2.89221,-2.83812 -5.14221,-5.44958 -5,-5.80323 0.14222,-0.35366 3.63357,-3.69948 7.75857,-7.43514 13.59121,-12.30843 18.11861,-16.68797 17.69218,-17.1144 -0.23151,-0.23152 -10.49447,0.92229 -22.80656,2.56401 l -22.38562,2.98496 -6.3169,-6.28007 -6.3169,-6.28007 13.72827,-12.42384 c 10.08357,-9.12544 13.22083,-12.49204 11.8169,-12.68072 -1.05125,-0.14128 -11.58637,1.05359 -23.41137,2.65526 l -21.5,2.91213 -6.65659,-6.65525 L 317.18683,203.5 329.02062,193 c 6.50859,-5.775 11.86656,-10.88628 11.90659,-11.35841 0.04,-0.47212 -0.93971,-0.61531 -2.17721,-0.31819 -1.2375,0.29712 -10.48977,1.5509 -20.5606,2.78618 l -18.31059,2.24596 -16.00975,-15.92777 c -8.80536,-8.76027 -16.89425,-17.62902 -17.97531,-19.70833 -4.47789,-8.61272 -4.14914,-17.80019 0.77555,-21.67395 3.85691,-3.03385 5.0307,-2.57102 7.91501,3.12088 3.54932,7.00426 11.65057,14.85194 18.91569,18.32364 4.76348,2.27626 7.78663,2.9578 14.66928,3.30703 10.31177,0.52322 17.52203,-1.36332 25.07955,-6.56198 2.71095,-1.8648 5.05805,-3.24307 5.21577,-3.06281 0.15772,0.18026 2.42383,6.17775 5.0358,13.32775 2.61196,7.15 5.07783,13.36242 5.4797,13.80538 0.40187,0.44297 2.23319,-4.98211 4.0696,-12.05572 l 3.33892,-12.86112 9.88605,2.68609 c 5.43733,1.47735 10.24828,3.07742 10.69101,3.55573 0.44273,0.4783 3.86478,9.10251 7.60456,19.1649 3.73978,10.06239 7.09357,17.71239 7.45286,17 0.35929,-0.71239 2.3505,-7.88492 4.42492,-15.93896 l 3.77168,-14.64369 10.14015,2.69417 10.14015,2.69418 6.70967,17.94952 c 3.69031,9.87224 7.17984,19.25999 7.7545,20.86168 0.57467,1.60168 1.31547,2.64153 1.64624,2.31076 0.33076,-0.33076 2.51221,-7.94123 4.84765,-16.91215 2.76391,-10.61673 4.73425,-16.40114 5.6441,-16.56963 0.76881,-0.14238 4.29852,0.56674 7.8438,1.57581 l 6.44595,1.83469 7.07632,18.92418 c 8.93657,23.89905 8.48769,22.8016 9.08297,22.20632 0.27726,-0.27727 2.48273,-8.10418 4.90102,-17.39313 2.4183,-9.28896 5.57141,-21.14209 7.0069,-26.34031 1.4355,-5.19821 2.48195,-10.02918 2.32544,-10.73548 -0.15651,-0.70631 -5.53344,-7.29149 -11.94874,-14.63375 l -11.66418,-13.34956 -17.33582,-4.637 c -9.5347,-2.55035 -36.30766,-9.71208 -59.49547,-15.91495 L 349.1807,101.5 l -2.47224,-5 C 340.31668,83.572884 327.86882,75.277749 313.38511,74.293638 309.0483,73.998969 303.925,74.184951 302,74.706932 c -3.48874,0.946003 -3.62541,0.853173 -42.5,-28.867531 -21.45,-16.399122 -39.10909,-29.484219 -39.24243,-29.077993 -0.13333,0.406225 2.43073,9.049534 5.69791,19.207352 3.26718,10.157818 5.85128,18.53272 5.74243,18.610893 C 231.58906,54.657826 214.85,47.858625 194.5,39.470317 174.15,31.082009 157.33304,24.374063 157.12899,24.563769 c -0.20406,0.189707 4.45062,7.823283 10.34374,16.963504 5.89311,9.14022 10.48156,16.85177 10.19655,17.136777 -0.285,0.285006 -13.1657,-1.128204 -28.62377,-3.140467 -15.45808,-2.012264 -28.83774,-3.515769 -29.73258,-3.341122 -1.10442,0.215549 1.31415,3.002108 7.53004,8.675748 5.03637,4.597015 9.15703,8.649306 9.15703,9.005092 0,0.355785 -2.8125,1.716777 -6.25,3.024427 -40.744211,15.499389 -78.281571,51.638072 -92.749473,89.293542 -5.438736,14.15535 -8.948849,35.072 -8.981004,53.51751 C 27.925779,269.47317 52.958005,316.33972 98,346.71962 c 4.125,2.78223 13.8,8.76746 21.5,13.30051 19.99745,11.77266 29.47638,18.85513 42.06283,31.42852 C 178.11554,407.98419 184,419.34276 184,434.75836 c 0,15.56252 -5.21856,28.05599 -16.91056,40.48466 -4.094,4.35195 -10.17644,9.97543 -13.51654,12.49662 -3.34009,2.52119 -6.50342,4.96419 -7.02962,5.42889 -0.5262,0.4647 31.13413,0.72939 70.35629,0.58819 L 288.21259,493.5 291.64644,484 z"
     id="path2989"
     style="fill:#ffffff" />
</svg>
