<?xml version="1.0" encoding="UTF-8" standalone="no"?>
<!-- Created with Inkscape (http://www.inkscape.org/) -->

<svg
   xmlns:dc="http://purl.org/dc/elements/1.1/"
   xmlns:cc="http://creativecommons.org/ns#"
   xmlns:rdf="http://www.w3.org/1999/02/22-rdf-syntax-ns#"
   xmlns:svg="http://www.w3.org/2000/svg"
   xmlns="http://www.w3.org/2000/svg"
   version="1.1"
   width="400"
   height="400"
   id="svg2">
  <metadata
     id="metadata8">
    <rdf:RDF>
      <cc:Work
         rdf:about="">
        <dc:format>image/svg+xml</dc:format>
        <dc:type
           rdf:resource="http://purl.org/dc/dcmitype/StillImage" />
        <dc:title></dc:title>
      </cc:Work>
    </rdf:RDF>
  </metadata>
  <defs
     id="defs6" />
  <path
     d="m 0,0 400,0 0,400 -400,0 z"
     id="rect3024"
     style="fill:#000000;fill-opacity:1;fill-rule:nonzero;stroke:none" />
  <path
     d="m 171.14173,125.70266 c -2.54096,-7.74211 -3.07661,-18.90724 -1.26226,-26.310863 3.4576,-14.109039 20.86626,-37.445928 36.76115,-49.27954 6.6509,-4.951538 17.8802,-10.623402 24.18758,-12.217034 9.95693,-2.51573 21.04283,-1.144718 31.28117,3.868598 9.34829,4.577486 9.35136,4.75671 0.0763,4.455839 -20.79958,-0.674715 -38.65455,6.469172 -54.83868,21.941305 -16.19817,15.485551 -26.4135,33.744015 -33.28642,59.494815 l -1.02161,3.82766 -1.89726,-5.78078 z m 149.2961,57.22164 c -1.66345,-0.46751 -1.48783,-0.6783 1.95312,-2.34433 13.21178,-6.39685 22.10291,-17.18726 25.5193,-30.9706 1.88194,-7.59266 2.41224,-26.01425 1.00098,-34.77243 -1.37089,-8.50772 -4.18135,-17.637112 -7.47009,-24.265612 l -2.2713,-4.577828 2.48539,1.669461 c 4.82207,3.239031 11.47579,11.638164 14.98336,18.913799 4.70633,9.76219 5.91516,14.79447 6.4113,26.68996 0.48138,11.54159 -0.70801,19.45878 -4.25398,28.31643 -5.57405,13.92374 -25.43435,24.97334 -38.35808,21.34115 z m -177.57755,96.02015 c 18.1067,-21.02177 32.48559,-44.56543 39.4112,-64.53093 2.37518,-6.84728 4.68782,-16.73442 6.38654,-27.30415 0.27623,-1.71875 0.79343,-14.72656 1.14933,-28.90625 0.74045,-29.50076 1.60345,-35.83663 6.06547,-44.53125 6.92829,-13.50031 15.39547,-21.344222 27.34472,-25.33187 7.68757,-2.565461 8.02723,-2.17275 2.82101,3.261562 -6.10246,6.369813 -11.5249,13.797538 -14.68608,20.117188 -5.82611,11.64721 -7.44131,20.70657 -7.45201,41.79687 -0.0177,34.75901 -3.47617,56.0187 -12.26701,75.40562 -4.23831,9.34698 -28.47161,36.36962 -42.80532,47.73237 -11.75825,9.32112 -12.15412,9.47308 -5.96785,2.29084 z M 42.662517,379.63087 c 4.529488,-3.03895 12.321247,-7.99293 17.315021,-11.00885 9.115531,-5.5052 29.013345,-15.82905 29.524032,-15.31836 0.230797,0.23079 -20.432074,19.40425 -31.144531,28.89959 l -3.278914,2.90637 11.901008,0.0233 11.901008,0.0233 11.145867,-9.91645 c 13.765082,-12.24677 43.237862,-41.69883 55.356822,-55.31793 44.00579,-49.453 72.39894,-93.85005 80.37126,-125.67281 l 1.73196,-6.91343 -2.82103,-6.17143 c -7.94397,-17.3786 -8.40282,-38.66104 -1.21438,-56.32511 7.52427,-18.48929 22.81279,-32.176629 41.39311,-37.057981 6.8512,-1.799922 20.55444,-1.825179 27.34375,-0.05039 14.86444,3.885687 26.41388,13.162141 33.36007,26.794651 7.26445,14.25709 8.08763,25.82476 2.66346,37.42775 -6.70013,14.33244 -21.80677,21.4199 -34.03201,15.96654 -4.80686,-2.14422 -11.35141,-8.58756 -13.96886,-13.75286 l -1.97914,-3.90564 6.31832,-3.06027 c 4.08851,-1.98026 6.4279,-2.74095 6.6288,-2.15547 0.88459,2.57793 5.37641,8.27774 7.31233,9.27885 10.3334,5.34361 21.54011,-8.15875 18.7102,-22.5429 -1.92219,-9.77028 -9.82308,-21.41082 -17.64277,-25.99346 -6.59338,-3.86399 -11.9099,-5.23084 -20.65165,-5.30945 -12.86871,-0.11572 -22.3284,3.84313 -31.69617,13.26475 -9.86869,9.92541 -14.68503,22.46602 -14.67487,38.20992 0.007,10.4462 1.36133,16.1871 6.08321,25.78125 8.04206,16.34024 22.37957,27.93919 41.63014,33.67851 5.33453,1.59043 9.16967,2.13555 17.23939,2.45037 12.13648,0.47348 19.45201,-0.50004 29.06089,-3.86731 26.23131,-9.19234 46.15904,-31.35419 53.94484,-59.99267 3.62854,-13.34683 4.44736,-30.83711 2.06877,-44.18954 -6.85076,-38.457359 -34.96615,-69.629218 -75.32624,-83.515099 -31.30358,-10.76999 -67.27676,-9.470609 -97.23786,3.512312 -9.04078,3.917606 -16.61536,9.110124 -24.41391,16.73621 C 161.46259,66.13554 143.48611,106.30273 139.06823,146.48437 132.17765,209.15604 100.73615,261.70226 30.664062,327.6535 l -16.601562,15.62525 0,8.49059 0,8.49058 4.557802,-3.58081 c 9.787675,-7.68963 32.415283,-27.96816 45.348282,-40.64047 26.630111,-26.09332 49.154716,-52.60619 66.691536,-78.5001 3.33225,-4.92021 6.05863,-8.72929 6.05863,-8.46462 0,2.30836 -9.0601,25.91749 -13.27711,34.59795 -8.70162,17.9118 -15.02436,26.51717 -34.532538,46.99946 -19.591674,20.56995 -42.166498,41.29587 -65.279915,59.9334 l -9.566687,7.71412 0,3.4187 0,3.4187 10.182293,0 10.182294,0 8.23543,-5.52538 z"
     id="path2989"
     style="fill:#ffffff" />
</svg>
