<?xml version="1.0" encoding="UTF-8" standalone="no"?>
<!-- Created with Inkscape (http://www.inkscape.org/) -->

<svg
   xmlns:dc="http://purl.org/dc/elements/1.1/"
   xmlns:cc="http://creativecommons.org/ns#"
   xmlns:rdf="http://www.w3.org/1999/02/22-rdf-syntax-ns#"
   xmlns:svg="http://www.w3.org/2000/svg"
   xmlns="http://www.w3.org/2000/svg"
   version="1.1"
   width="512"
   height="512"
   id="svg2">
  <metadata
     id="metadata8">
    <rdf:RDF>
      <cc:Work
         rdf:about="">
        <dc:format>image/svg+xml</dc:format>
        <dc:type
           rdf:resource="http://purl.org/dc/dcmitype/StillImage" />
        <dc:title></dc:title>
      </cc:Work>
    </rdf:RDF>
  </metadata>
  <defs
     id="defs6" />
  <path
     d="m 0,0 512,0 0,512 -512,0 z"
     id="rect3056"
     style="fill:#000000;fill-opacity:1;fill-rule:nonzero;stroke:none" />
  <path
     d="m 126.92419,454.4231 c 38.96469,-5.81913 71.08175,-10.8171 71.37125,-11.1066 0.46966,-0.46966 -20.96469,-146.52964 -21.60424,-147.21763 -0.14362,-0.1545 -8.27503,10.56717 -18.0698,23.82593 -9.79477,13.25877 -19.22992,25.9909 -20.96701,28.29363 l -3.15834,4.18679 -5.3888,-7.59049 c -12.25659,-17.26423 -20.67534,-36.93011 -25.52208,-59.61856 -2.49011,-11.65664 -2.50559,-44.4095 -0.0268,-56.74075 11.24537,-55.94293 51.45952,-100.95468 104.79298,-117.29495 15.99012,-4.89904 24.90585,-6.16344 44.17039,-6.26412 18.87407,-0.0986 24.53228,0.54118 39.6726,4.48612 4.16929,1.08633 7.73053,1.8125 7.91389,1.6137 0.40176,-0.43562 -6.14492,-44.822926 -6.69155,-45.369567 -1.40784,-1.407839 -22.97221,-3.377986 -37.49123,-3.425244 -39.20992,-0.127627 -77.3122,9.986893 -110.86355,29.429511 -17.50838,10.14591 -42.88886,32.08359 -53.728023,46.43996 -4.828973,6.39593 -5.783915,6.71366 -1.571521,0.52289 16.126434,-23.70033 37.239494,-44.31579 59.794504,-58.3852 42.74164,-26.661489 92.72796,-36.464525 142.06466,-27.860925 8.34301,1.454901 8.63943,1.435674 31.82647,-2.064454 12.87275,-1.943166 23.53709,-3.659564 23.6985,-3.814214 0.16141,-0.154652 -2.9448,-1.629285 -6.9027,-3.276964 C 323.1784,36.087632 302.39602,30.68049 281.88965,28.009438 268.83885,26.309509 242.2369,26.05318 229.18203,27.501562 121.76075,39.419487 38.639152,121.31601 24.387122,229.27815 c -1.722216,13.04616 -1.469715,43.47994 0.476041,57.37675 6.310727,45.07191 23.894461,84.63536 53.079335,119.42863 5.345887,6.3732 8.538179,10.96658 8.110282,11.66985 -0.388106,0.63788 -6.859677,9.47455 -14.38127,19.63704 -7.521593,10.16249 -15.34458,20.77067 -17.384415,23.57373 l -3.708791,5.09648 2.750499,-0.52864 c 1.512775,-0.29075 34.6307,-5.28975 73.595387,-11.10889 z m 159.96769,30.15453 c 60.7349,-8.91843 114.61537,-41.13317 151.34772,-90.48969 21.86104,-29.37423 36.45718,-63.78886 42.88418,-101.11188 2.12258,-12.32627 2.95979,-47.12806 1.4534,-60.41517 -5.1804,-45.69338 -23.61426,-89.21818 -52.33096,-123.56032 -4.8992,-5.85894 -7.79576,-10.113154 -7.36588,-10.818388 0.38966,-0.639262 8.74463,-12.037111 18.56658,-25.328553 9.82196,-13.291443 17.63303,-24.391321 17.35797,-24.666396 -0.52049,-0.520484 -145.68618,20.97664 -146.38804,21.678137 -0.41742,0.417208 21.25423,146.51888 21.82102,147.10865 0.17876,0.18602 5.93482,-7.24849 12.79123,-16.52113 6.85643,-9.27264 15.83022,-21.40418 19.94178,-26.959 l 7.47555,-10.09966 5.98957,9.11603 c 10.86299,16.53328 18.02249,33.70544 22.51632,54.00561 1.81383,8.19369 2.11844,12.57606 2.11844,30.47817 0,17.7712 -0.31007,22.2947 -2.06643,30.1471 -2.99227,13.37795 -6.44052,23.33224 -12.37335,35.71894 -7.70224,16.08097 -15.67755,27.17198 -29.63965,41.21898 -17.97612,18.08543 -36.67972,29.80505 -59.359,37.19415 -19.13933,6.23577 -24.28326,6.95302 -49.11061,6.8478 -20.27343,-0.0859 -23.29794,-0.31996 -32.31003,-2.50022 -9.89259,-2.39329 -9.94049,-2.39526 -9.4835,-0.39146 0.25261,1.10769 1.54734,9.45351 2.87717,18.54627 1.32982,9.09275 2.64931,17.87997 2.9322,19.52716 0.48757,2.83901 0.85529,3.05874 7.06565,4.22192 9.85995,1.84673 36.02728,2.44868 48.31869,1.11151 5.85629,-0.63709 14.82748,-2.05334 19.93599,-3.1472 5.1085,-1.09386 12.35153,-2.55815 16.0956,-3.25396 27.87323,-5.18006 59.23633,-19.11389 83.63391,-37.15641 l 5.83492,-4.31505 -4.86244,4.60062 c -34.25723,32.41264 -74.55731,51.16929 -120.21196,55.94961 -12.34,1.29206 -37.71137,0.69466 -49.9733,-1.17669 -7.31664,-1.11663 -9.25656,-0.97015 -32.57832,2.45999 -13.63914,2.00602 -25.89006,3.97393 -27.22429,4.37312 -5.20056,1.55599 29.03969,12.78004 50.56398,16.57501 24.03158,4.23705 49.50394,4.5936 73.75589,1.0324 z"
     id="path3025"
     style="fill:#ffffff" />
</svg>
