<?xml version="1.0" encoding="UTF-8" standalone="no"?>
<!-- Created with Inkscape (http://www.inkscape.org/) -->

<svg
   xmlns:dc="http://purl.org/dc/elements/1.1/"
   xmlns:cc="http://creativecommons.org/ns#"
   xmlns:rdf="http://www.w3.org/1999/02/22-rdf-syntax-ns#"
   xmlns:svg="http://www.w3.org/2000/svg"
   xmlns="http://www.w3.org/2000/svg"
   xmlns:sodipodi="http://sodipodi.sourceforge.net/DTD/sodipodi-0.dtd"
   xmlns:inkscape="http://www.inkscape.org/namespaces/inkscape"
   id="svg2"
   version="1.1"
   inkscape:version="0.48.3.1 r9886"
   width="400"
   height="400"
   sodipodi:docname="Icon.2_01.png">
  <metadata
     id="metadata8">
    <rdf:RDF>
      <cc:Work
         rdf:about="">
        <dc:format>image/svg+xml</dc:format>
        <dc:type
           rdf:resource="http://purl.org/dc/dcmitype/StillImage" />
        <dc:title></dc:title>
      </cc:Work>
    </rdf:RDF>
  </metadata>
  <defs
     id="defs6" />
  <sodipodi:namedview
     pagecolor="#ffffff"
     bordercolor="#666666"
     borderopacity="1"
     objecttolerance="10"
     gridtolerance="10"
     guidetolerance="10"
     inkscape:pageopacity="0"
     inkscape:pageshadow="2"
     inkscape:window-width="1280"
     inkscape:window-height="970"
     id="namedview4"
     showgrid="false"
     inkscape:zoom="1.18"
     inkscape:cx="231.30833"
     inkscape:cy="261.74056"
     inkscape:window-x="0"
     inkscape:window-y="26"
     inkscape:window-maximized="1"
     inkscape:current-layer="svg2" />
  <rect
     style="fill:#000000;fill-opacity:1;stroke:none"
     id="rect3006"
     width="400"
     height="400"
     x="0"
     y="0" />
  <path
     id="path2987"
     style="fill:#ffffff"
     d="M 194.62296,161.51539 C 188.23033,152.99886 183,145.3871 183,144.60038 c 0,-2.60554 8.73662,-9.24376 14.58812,-11.08428 10.88681,-3.42432 24.18413,-0.23385 33.28189,7.98543 C 233.1415,143.55369 235,145.98848 235,146.91218 235,148.56832 208.57784,177 207.03875,177 c -0.43606,0 -6.02317,-6.96807 -12.41579,-15.48461 z m 29.6032,25.73461 c 0.25268,-0.9625 6.0109,-9.5125 12.79604,-19 C 245.76975,156.01851 249.92687,151 251.31138,151 258.35507,151 268,163.9926 268,173.48111 l 0,3.18266 -20.90901,6.16812 C 235.59104,186.22435 225.63855,189 224.97436,189 c -0.66419,0 -1.00088,-0.7875 -0.7482,-1.75 z m -85.2691,24.04318 c -0.72302,-3.48277 -0.99717,-10.40029 -0.70347,-17.75 0.54652,-13.67628 2.74524,-22.05025 8.22481,-31.32485 3.91313,-6.62327 12.09458,-15.23512 14.4228,-15.18153 1.72576,0.0397 20.5988,24.80524 20.5988,27.03009 0,0.74032 -3.45792,3.39063 -7.68426,5.88957 -4.22634,2.49895 -7.96913,4.83632 -8.3173,5.19417 -0.34817,0.35785 1.05207,4.53052 3.11165,9.27261 2.22711,5.12781 3.36886,8.95411 2.8173,9.44154 C 170.17723,204.96959 142.46161,217 141.16652,217 c -0.5636,0 -1.55785,-2.56807 -2.20946,-5.70682 z M 247.25,211.44133 C 238.3125,204.00942 231,197.20507 231,196.32055 c 0,-1.45126 2.17099,-1.53714 22.24317,-0.87994 15.05794,0.49302 22.5043,1.10479 23.05153,1.89384 1.36481,1.96791 0.15209,14.92052 -1.74761,18.66555 -2.51319,4.95444 -6.56598,9.00397 -8.98418,8.97695 -1.15784,-0.0129 -9.19237,-5.9515 -18.31291,-13.53562 z m -86.75,38.88968 c -8.24023,-4.36433 -17.5,-14.83327 -17.5,-19.7852 0,-1.73023 3.58982,-3.63248 22.27622,-11.80422 12.25192,-5.35787 22.82692,-9.74159 23.5,-9.74159 0.67308,0 1.22378,0.45632 1.22378,1.01404 0,0.55772 -5.27111,10.23272 -11.71357,21.5 -7.38084,12.90842 -12.28187,20.47115 -13.25,20.44592 -0.84504,-0.022 -2.88643,-0.75505 -4.53643,-1.62895 z m 24.5,8.00285 c -5.71015,-0.8994 -7,-1.45325 -7,-3.00574 0,-2.49019 25.31755,-46.25924 26.77921,-46.29597 0.70356,-0.0177 9.59106,4.5231 19.75,10.09062 C 237.45364,226.2059 243,229.76418 243,230.97273 c 0,4.85649 -12.88538,17.43864 -22.6137,22.08153 -10.2453,4.88963 -24.42786,7.00566 -35.3863,5.2796 z m -44.96875,61.38736 c 16.36967,-28.47833 30.44011,-52.77833 31.26766,-54 l 1.50462,-2.22122 3.72867,3.5 c 5.15826,4.84191 12.04854,15.66062 15.1175,23.73656 4.97119,13.08169 7.58275,24.55372 11.44226,50.26344 1.19719,7.975 2.48225,15.08144 2.85569,15.79209 0.37343,0.71065 1.70422,-5.36435 2.9573,-13.5 6.62718,-43.02685 12.91685,-62.85334 23.09101,-72.78814 6.63217,-6.47615 14.84668,-6.01892 36.71741,2.04375 10.35737,3.81825 42.68467,19.22834 55.28663,26.35455 l 7.5,4.24114 -14.42674,-13.8217 C 293.70604,266.93448 279.81748,250.3374 278.36227,243.06136 277.87374,240.61871 278.08931,240 279.4289,240 c 0.9234,0 22.15238,10.39845 47.17551,23.10767 l 45.49661,23.10766 c -0.20034,-4.12923 0.23491,-8.41736 0.0346,-12.54659 L 328.5,251.92744 c -26.50803,-13.20754 -42.88221,-22.3883 -42.69504,-23.16382 1.0051,-4.16475 12.94411,-7.60839 29.61636,-8.54243 L 328.2943,219.5 320.39715,216.27697 C 304.57707,209.82038 288,197.4097 288,192.02234 c 0,-1.11229 0.3375,-2.01222 0.75,-1.99986 0.4125,0.0124 19.3125,-2.33717 42,-5.22121 l 41.25,-5.2437 c 0,-3.70745 0,-7.41489 0,-11.12234 l -36.75,4.71206 c -20.2125,2.59164 -38.6625,4.99629 -41,5.34366 -3.87372,0.57568 -4.25,0.44197 -4.25,-1.51021 0,-3.41459 6.41061,-12.15227 14.78772,-20.15572 7.97446,-7.61875 18.69635,-15.98647 39.96228,-31.18791 6.7375,-4.81614 12.25,-8.93874 12.25,-9.16133 0,-0.47613 -4.06573,1.27213 -21,9.03 C 309.40123,137.69111 292.83279,143 281.40251,143 276.2626,143 269,140.91206 269,139.43437 c 0,-0.36722 23.175,-24.04526 51.5,-52.617861 44.48723,-44.87611 51.6589,-54.989278 51.6589,-54.989278 l -0.01,-2.880197 L 362.34112,29 312.03224,80.046686 c -29.10063,29.527404 -50.93346,50.921614 -51.79047,50.750004 -0.81488,-0.16318 -2.37507,-2.54669 -3.4671,-5.29669 -5.14135,-12.9472 -5.9111,-31.657747 -2.83864,-69 1.04082,-12.65 1.79224,-23.101258 1.66983,-23.225019 -0.12241,-0.12376 -4.64827,10.67624 -10.05746,24 -15.64041,38.524997 -24.48935,54.080719 -34.64335,60.900229 -6.76707,4.54482 -11.71393,3.37082 -18.32089,-4.34793 -3.65508,-4.27013 -12.34381,-20.512482 -16.61801,-31.065016 -1.2782,-3.155755 -2.42889,-5.630755 -2.55708,-5.5 -0.12819,0.130755 -0.7248,6.762736 -1.3258,14.737736 -0.601,7.975 -1.71845,16.83813 -2.4832,19.69584 -1.93433,7.22809 -5.70756,13.75466 -8.1151,14.03669 -1.55314,0.18194 -9.87194,-10.31484 -38.2386,-48.249999 L 86.992736,29 73.628293,28.978814 c 0,0 18.546889,24.892822 39.065377,52.235933 C 133.21215,108.55786 150,131.58845 150,132.39385 c 0,4.47351 -27.75279,4.59706 -45.5,0.20256 -10.816794,-2.67842 -31.6223,-9.63959 -43.25,-14.47072 -3.9875,-1.65674 -7.25,-2.8484 -7.25,-2.64813 0,0.20027 8.6625,6.30413 19.25,13.56413 29.67533,20.3488 39.5955,29.13317 44.29206,39.22088 3.15863,6.78441 3.12137,12.01341 -0.13213,18.54233 -5.39248,10.8213 -18.12174,18.78683 -53.28765,33.34555 -12.307746,5.09542 -21.938144,9.41093 -21.400884,9.59002 0.53726,0.17908 10.157234,-1.27867 21.37772,-3.23944 23.507641,-4.10796 40.865834,-5.29718 48.389244,-3.31518 2.87991,0.75869 5.11021,1.95135 5.27663,2.82168 0.21216,1.10949 -11.46827,6.63434 -44.238361,20.92476 L 29,266.34952 l 0.03178,11.99147 c 0,0 23.674676,-10.41345 49.593679,-21.74258 C 104.54446,245.26928 126.48196,236 127.37546,236 c 1.27434,0 1.61999,1.02395 1.60345,4.75 -0.0261,5.87214 -3.51364,15.97272 -8.61475,24.94977 -2.12529,3.74012 -4.0047,7.10934 -4.17647,7.48715 -0.17176,0.3778 4.79554,-1.52876 11.03846,-4.23681 C 138.82215,263.92 151.98374,260 157.27654,260 c 2.5303,0 2.89294,0.32443 2.51501,2.25 -0.24288,1.2375 -14.24533,26.24363 -31.11657,55.56917 C 111.80374,347.14471 98,371.35369 98,371.61689 c 4.28668,0.5175 7.62225,0.1086 12.26822,-0.11689 z"
     inkscape:connector-curvature="0"
     sodipodi:nodetypes="ssssssssssscsssssscsssssssssssscssssssscssscsssssscsssssssscssssccscscsscsccsssssssssscccssssssssssssssccssssssssscssssccsssscssssccs" />
</svg>
