<?xml version="1.0" encoding="UTF-8" standalone="no"?>
<!-- Created with Inkscape (http://www.inkscape.org/) -->

<svg
   xmlns:dc="http://purl.org/dc/elements/1.1/"
   xmlns:cc="http://creativecommons.org/ns#"
   xmlns:rdf="http://www.w3.org/1999/02/22-rdf-syntax-ns#"
   xmlns:svg="http://www.w3.org/2000/svg"
   xmlns="http://www.w3.org/2000/svg"
   version="1.1"
   width="512"
   height="512"
   id="svg2">
  <metadata
     id="metadata8">
    <rdf:RDF>
      <cc:Work
         rdf:about="">
        <dc:format>image/svg+xml</dc:format>
        <dc:type
           rdf:resource="http://purl.org/dc/dcmitype/StillImage" />
        <dc:title></dc:title>
      </cc:Work>
    </rdf:RDF>
  </metadata>
  <defs
     id="defs6" />
  <path
     d="m 0,0 512,0 0,512 -512,0 z"
     id="rect3231"
     style="fill:#000000;fill-opacity:1;fill-rule:nonzero;stroke:none" />
  <path
     d="M 316.48141,135.66062 C 310.65309,133.01643 305.01115,124.32961 305.01115,118 c 0,-3.61429 2.3299,-9.31884 5.09,-12.46242 8.41695,-9.586378 23.99171,-8.060749 30.46445,2.98415 4.90878,8.37619 2.89521,18.55201 -4.92318,24.87996 -3.08391,2.49602 -4.7747,3.06106 -9.92961,3.31833 -3.7706,0.18818 -7.3994,-0.22826 -9.2314,-1.0594 z M 178.7626,153.48625 c -13.34473,-4.90181 -21.96377,-17.28059 -21.91818,-31.47919 0.0494,-15.38918 9.67111,-27.829448 24.65558,-31.878194 3.9701,-1.072704 4.00207,-1.120212 4.27686,-6.354825 0.56668,-10.795039 5.32872,-20.746504 13.72987,-28.691966 20.01952,-18.933623 53.13757,-14.134829 67.12082,9.725783 9.80441,16.729955 6.90629,38.788742 -6.91153,52.606552 -8.59803,8.59804 -18.14468,12.55622 -30.32874,12.57477 l -7.11273,0.0108 -3.17402,6.44736 c -5.88083,11.94565 -16.67551,18.62087 -29.88804,18.48218 -3.69187,-0.0388 -8.39432,-0.68824 -10.44989,-1.44329 z M 202.44854,212.25 c 1.53854,-15.23782 6.98913,-31.62148 13.92836,-41.86658 1.44668,-2.13588 5.2162,-6.51316 8.37671,-9.72729 20.11423,-20.45547 49.37829,-23.23269 71.25162,-6.76194 13.9034,10.46935 22.71636,27.55593 26.49223,51.36314 0.68441,4.31528 -1.03133,4.34266 17.09264,-0.27271 16.46404,-4.19266 17.71506,-4.86507 20.80614,-11.18301 3.81039,-7.78816 4.76177,-15.11038 3.22122,-24.7919 C 362.91647,164.60437 362.43791,161 362.55401,161 c 0.11609,0 2.11682,2.92505 4.44606,6.50011 2.32925,3.57506 5.8696,8.11008 7.86746,10.07783 4.77497,4.70299 12.69404,8.74892 15.66481,8.0033 4.11906,-1.03382 17.17844,-10.48436 22.43345,-16.23419 C 423.25772,158.08605 425.70981,148.73822 422.50023,133 414.04276,91.528613 386.54771,58.416985 343.56077,37.935111 287.70012,11.319336 219.03251,13.388605 166.65116,43.266206 139.12521,58.966636 117.14069,82.209723 103.05796,110.5 92.438135,131.83377 85.66826,154.14942 85.614245,168 c -0.02854,7.31861 0.341363,9.22098 2.661442,13.68743 4.702193,9.05232 15.187003,17.48282 28.243453,22.70968 6.21634,2.48857 6.68745,2.54012 8.77494,0.96009 6.01813,-4.55516 13.27204,-15.78048 16.68397,-25.81821 l 1.69424,-4.98438 0.67175,5.71553 c 1.35354,11.51653 10.14737,30.42498 15.85919,34.10036 2.04713,1.31727 15.58528,2.8874 34.29677,3.97767 2.75,0.16023 5.51008,0.37245 6.1335,0.47158 0.6963,0.11073 1.39638,-2.42331 1.81504,-6.56975 z M 431,492.27639 c -7.11054,-5.34244 -24.69062,-24.00505 -29.44271,-31.25572 -11.79074,-17.99012 -17.66066,-36.12954 -17.64288,-54.52067 0.0204,-21.07605 4.64154,-32.39785 21.16424,-51.85208 14.98751,-17.64667 22.16828,-40.59647 22.26148,-71.14792 0.053,-17.35923 -1.46048,-28.40178 -5.96082,-43.49212 -2.90432,-9.73863 -13.08472,-31.04225 -17.14366,-35.87499 l -2.73565,-3.25718 -8.77271,4.12089 c -5.87336,2.75895 -8.53447,4.5146 -8.05186,5.31214 0.39647,0.6552 2.1679,3.21626 3.9365,5.69126 7.31609,10.23819 13.59575,25.41018 17.05425,41.20393 2.83095,12.928 2.52716,41.08486 -0.58042,53.79607 -3.11807,12.75411 -8.66649,23.9558 -16.09789,32.5 -13.76308,15.82401 -20.29194,28.8545 -23.54911,47 -5.33253,29.70721 4.96352,63.59022 28.01796,92.20359 10.27862,12.75702 9.30226,12.30448 26.42814,12.24945 l 14.61514,-0.0469 -3.5,-2.6297 z m -131.16836,-3.84234 c 6.65983,-9.06954 15.32782,-25.9738 19.49853,-38.02588 4.70081,-13.58393 7.1858,-25.57678 10.18065,-49.13311 5.01451,-39.44212 7.84394,-47.51305 23.59091,-67.29279 4.93237,-6.19554 10.46035,-13.81103 12.28442,-16.92332 13.19731,-22.51778 15.08794,-46.94695 5.7822,-74.71262 -3.19335,-9.52805 -9.89994,-24.36174 -10.99641,-24.32194 -1.33243,0.0483 -17.31042,4.78076 -17.80243,5.27277 -0.27719,0.27718 0.67153,2.82373 2.10826,5.65898 8.41713,16.6104 12.89281,32.59055 12.89584,46.04386 0.004,17.83628 -5.26622,29.85018 -21.93392,50 -10.10865,12.22048 -16.48618,25.47106 -20.39423,42.37304 -1.03351,4.46983 -3.07598,17.57696 -4.53882,29.12696 -2.98603,23.5764 -4.41627,31.22115 -8.13833,43.5 -4.80216,15.84202 -15.79041,35.54654 -27.03651,48.48282 -2.38249,2.74056 -4.3318,5.32806 -4.3318,5.75 0,0.42195 5.4023,0.76718 12.00511,0.76718 l 12.00511,0 4.82142,-6.56595 z M 188.01041,350.01622 c -7.59474,-11.83537 -10.02493,-28.1135 -6.41244,-42.95233 2.21084,-9.08132 9.98724,-25.0076 16.87668,-34.56389 C 205.29228,263.04331 212,255.52053 212,257.33117 c 0,0.70757 1.59218,3.93056 3.53818,7.16221 l 3.53818,5.87573 -1.49127,6.56544 c -2.26665,9.97915 0.41364,17.91175 8.0097,23.70555 1.87287,1.4285 3.40521,3.36335 3.40521,4.29965 0,3.56828 -11.17728,23.86831 -17.46881,31.72661 C 205.56399,344.11958 193.98283,355 192.0168,355 c -0.44457,0 -2.24745,-2.2427 -4.00639,-4.98378 z M 64.36651,470.25 c 0.352917,-13.6125 0.908343,-26.38852 1.234279,-28.39116 0.584662,-3.59232 0.802596,-3.74123 16.245911,-11.10005 8.609315,-4.10238 28.4783,-12.80758 44.1533,-19.34488 15.675,-6.5373 34.4987,-14.88597 41.83045,-18.5526 l 13.33044,-6.66659 -0.70285,5.11035 C 176.2759,421.7129 143.63076,461.45804 101,488.04446 c -4.675,2.91553 -8.9275,5.67325 -9.45,6.12826 -0.5225,0.455 6.958,0.82728 16.62333,0.82728 l 17.57334,0 9.37666,-7.24219 c 11.89059,-9.18386 30.63164,-27.81782 38.70168,-38.48054 C 191.86628,425.43987 200,405.28776 200,384.42614 l 0,-10.25393 6.40898,-5.09979 c 9.08656,-7.23039 20.60442,-19.7805 27.06612,-29.49184 5.43777,-8.17248 11.7434,-20.61867 13.01709,-25.69343 0.63564,-2.53262 0.80824,-2.57916 9.32772,-2.51514 4.77405,0.0359 10.39774,-0.528 12.49709,-1.25306 2.09935,-0.72505 4.01433,-1.12096 4.2555,-0.87979 0.83504,0.83504 -3.63996,24.31582 -7.02367,36.85388 -8.97667,33.26238 -24.72945,64.81008 -46.39142,92.90696 -9.24241,11.98797 -35.86481,38.10517 -47.90914,47 -5.58559,4.125 -10.17646,7.8375 -10.20194,8.25 -0.0255,0.4125 6.66326,0.75 14.86387,0.75 l 14.9102,0 5.01414,-3.96344 c 12.61345,-9.97037 30.11265,-28.60158 42.76979,-45.53656 22.51632,-30.12635 38.36777,-63.99651 47.73665,-102 4.16453,-16.89279 7.63415,-41.88122 7.65033,-55.09813 l 0.009,-7.09812 3.95795,-1.78479 c 10.15209,-4.57795 19.77224,-17.4246 22.61423,-30.19881 1.57782,-7.09199 1.68028,-19.40102 0.17404,-20.90726 -0.36513,-0.36514 -4.84491,0.0684 -9.95505,0.96352 -23.55416,4.12565 -47.52027,6.19396 -83.5537,7.21083 l -24.26253,0.68469 -6.00664,6.42111 c -24.54983,26.24384 -38.23999,56.87825 -36.56589,81.82328 0.93574,13.94301 5.02103,25.91396 12.63423,37.02158 l 2.76759,4.03791 -3.15211,1.83204 C 163.04225,373.99322 143.89417,382.83891 115,395.04097 97.125,402.58961 79.874279,409.9547 76.665064,411.40784 l -5.834936,2.64207 0.674665,-3.27496 c 1.2437,-6.03716 7.418191,-23.73934 10.935736,-31.3526 5.863665,-12.69114 12.331567,-21.1834 30.049551,-39.45463 23.75769,-24.49954 32.49868,-38.17979 38.24038,-59.84884 2.27505,-8.586 2.56059,-11.65393 2.65914,-28.57075 L 153.5,232.59625 145,230.84386 c -4.675,-0.96381 -9.0587,-1.77297 -9.74156,-1.79812 -0.95582,-0.0352 -1.09514,2.67724 -0.60536,11.78613 0.72352,13.45601 -0.75731,28.05729 -3.86638,38.1233 -5.21821,16.89458 -12.24188,27.00936 -35.445392,51.04483 -8.760879,9.075 -17.872137,19.36213 -20.247241,22.86028 -9.733183,14.33545 -19.617493,38.90211 -23.995833,59.63972 -1.161217,5.5 -2.321453,10.9 -2.5783,12 -0.256848,1.1 -2.391407,3.08399 -4.743465,4.40887 -2.352058,1.32488 -8.438969,5.36007 -13.526469,8.9671 l -9.25,6.55824 0,12.90502 0,12.90501 6.25,-5.41563 C 34.236733,458.77461 43.364333,452 44.534319,452 c 0.421501,0 0.462714,4.99956 0.09158,11.11013 -0.37113,6.11057 -0.372507,15.78557 -0.0031,21.5 L 45.294565,495 l 9.215138,0 9.215138,0 0.641669,-24.75 z"
     id="path3190"
     style="fill:#ffffff" />
</svg>
