<?xml version="1.0" encoding="UTF-8" standalone="no"?>
<!-- Created with Inkscape (http://www.inkscape.org/) -->

<svg
   xmlns:dc="http://purl.org/dc/elements/1.1/"
   xmlns:cc="http://creativecommons.org/ns#"
   xmlns:rdf="http://www.w3.org/1999/02/22-rdf-syntax-ns#"
   xmlns:svg="http://www.w3.org/2000/svg"
   xmlns="http://www.w3.org/2000/svg"
   xmlns:sodipodi="http://sodipodi.sourceforge.net/DTD/sodipodi-0.dtd"
   xmlns:inkscape="http://www.inkscape.org/namespaces/inkscape"
   id="svg2"
   version="1.1"
   inkscape:version="0.48.3.1 r9886"
   width="400"
   height="400"
   sodipodi:docname="Icon.1_62.png">
  <metadata
     id="metadata8">
    <rdf:RDF>
      <cc:Work
         rdf:about="">
        <dc:format>image/svg+xml</dc:format>
        <dc:type
           rdf:resource="http://purl.org/dc/dcmitype/StillImage" />
        <dc:title></dc:title>
      </cc:Work>
    </rdf:RDF>
  </metadata>
  <defs
     id="defs6" />
  <sodipodi:namedview
     pagecolor="#ffffff"
     bordercolor="#666666"
     borderopacity="1"
     objecttolerance="10"
     gridtolerance="10"
     guidetolerance="10"
     inkscape:pageopacity="0"
     inkscape:pageshadow="2"
     inkscape:window-width="1855"
     inkscape:window-height="1056"
     id="namedview4"
     showgrid="false"
     inkscape:zoom="0.59"
     inkscape:cx="200"
     inkscape:cy="200"
     inkscape:window-x="65"
     inkscape:window-y="24"
     inkscape:window-maximized="1"
     inkscape:current-layer="svg2" />
  <path
     style="fill:#000000"
     d="m 0,0 400,0 0,400 -400,0 z"
     id="rect3030" />
  <path
     id="path2989"
     style="fill:#ffffff"
     d="m 162.32967,168.41672 c -1.03544,-2.6983 3.00523,-5.6464 8.45695,-6.17024 5.27529,-0.50689 6.76844,0.42932 5.75871,3.61071 -1.22484,3.85912 -12.90964,5.96297 -14.21566,2.55953 z m 14.24176,20.01185 c -1.9528,-1.95279 -1.9538,-2.43765 -0.0107,-5.21178 3.12074,-4.45546 11.79576,-7.03429 17.25778,-5.13022 3.1722,1.10583 3.89181,2.89887 2.55819,6.37424 -1.75559,4.57498 -16.28685,7.48615 -19.80524,3.96776 z M 200.5,214.1202 c -3.51534,-1.55403 -5.78792,-4.83691 -5.13878,-7.42328 2.73459,-10.89546 28.45064,-17.01846 34.25713,-8.15664 2.75756,4.20857 -0.89925,9.49128 -9.30524,13.44256 -4.99705,2.34889 -16.5222,3.59218 -19.81311,2.13736 z m 22.57108,33.18932 c -1.8859,-0.99524 -4.29953,-2.99783 -5.36363,-4.4502 -7.49904,-10.23538 18.71703,-25.99186 36.59073,-21.9919 7.12268,1.59399 10.70182,4.81548 10.70182,9.63245 0,5.01889 -7.34584,12.33805 -15.55911,15.5026 -8.22558,3.16929 -21.58611,3.83152 -26.36981,1.30705 z m 14.66339,43.60243 C 227.71852,288.55222 222.5,283.88487 222.5,277.28654 c 0,-4.15157 0.40915,-4.87971 5.23586,-9.31787 13.64905,-12.55034 41.4701,-14.45253 53.01414,-3.6247 2.73101,2.56157 3.25,3.76499 3.25,7.53603 0,4.06034 -0.46401,4.93492 -4.87274,9.18438 -9.04553,8.71872 -27.52435,13.11494 -41.39279,9.84757 z M 232.5,344.34324 c -12.46639,-1.38974 -21.21784,-5.19269 -24.55893,-10.67212 -5.15527,-8.45471 0.41147,-17.82283 14.39479,-24.2246 22.17458,-10.15186 53.47478,-4.63375 56.20289,9.90836 1.22003,6.50333 -4.52256,14.09218 -14.43131,19.07099 -7.76126,3.89979 -23.41585,6.83055 -31.60744,5.91737 z m -59.41898,19.9885 c 2.43716,-4.58284 10.56262,-10.16333 18.25568,-12.53782 9.3204,-2.87677 26.708,-3.03812 37.1633,-0.34485 9.37106,2.41396 18.86095,6.78635 24.16838,11.13539 l 4.35282,3.56681 3.90414,-3.09214 c 5.3046,-4.20132 13.40865,-13.18677 18.00576,-19.96408 C 289.97757,326.80977 295,309.72288 295,288.42681 295,258.44108 283.47524,231.07463 261.97233,210 c -9.83825,-9.64229 -20.23689,-16.6031 -36.55291,-24.46835 -43.96389,-21.19311 -67.57992,-47.26463 -67.59266,-74.62063 -0.004,-8.75458 1.38759,-14.314117 5.39494,-21.552216 10.67669,-19.284286 39.68924,-32.581919 67.73246,-31.044536 12.42772,0.681312 19.90232,2.529148 29.76417,7.358163 25.53211,12.502212 35.31016,39.168209 22.9768,62.660629 C 278.0761,139.03611 265.45651,147 254.11549,147 c -13.23304,0 -30.45331,-7.59118 -44.53831,-19.63373 -2.15754,-1.84468 -4.11681,-3.15998 -4.35391,-2.92287 -0.67852,0.67852 10.02772,16.46012 15.40887,22.71352 17.40691,20.2285 37.89238,28.67063 56.43636,23.25762 C 302.31781,163.04423 322.10874,131.86006 322.39149,99 322.49426,87.056283 321.15585,80.552789 316.52623,70.5 305.90105,47.428409 282.46249,31.475129 251,25.900073 241.38602,24.196505 216.11345,24.184468 204.5,25.877925 148.03716,34.111258 109.11085,56.647164 92.878153,90.5 c -5.617044,11.71419 -7.287913,19.09123 -7.24787,32 0.100043,32.25107 17.945727,60.603 58.369717,92.73358 19.95495,15.86098 30.18422,27.10037 35.32039,38.80822 7.18444,16.37685 5.91961,29.74309 -4.28109,45.24102 -12.4964,18.98578 -37.16071,37.47727 -78.5393,58.883 l -17,8.79434 46.08102,0.0199 46.08102,0.0199 1.41898,-2.66826 z" />
</svg>
