<?xml version="1.0" encoding="UTF-8" standalone="no"?>
<!-- Created with Inkscape (http://www.inkscape.org/) -->

<svg
   xmlns:dc="http://purl.org/dc/elements/1.1/"
   xmlns:cc="http://creativecommons.org/ns#"
   xmlns:rdf="http://www.w3.org/1999/02/22-rdf-syntax-ns#"
   xmlns:svg="http://www.w3.org/2000/svg"
   xmlns="http://www.w3.org/2000/svg"
   xmlns:sodipodi="http://sodipodi.sourceforge.net/DTD/sodipodi-0.dtd"
   xmlns:inkscape="http://www.inkscape.org/namespaces/inkscape"
   id="svg2"
   version="1.1"
   inkscape:version="0.48.3.1 r9886"
   width="400"
   height="400"
   sodipodi:docname="Icon.3_08.png">
  <metadata
     id="metadata8">
    <rdf:RDF>
      <cc:Work
         rdf:about="">
        <dc:format>image/svg+xml</dc:format>
        <dc:type
           rdf:resource="http://purl.org/dc/dcmitype/StillImage" />
        <dc:title></dc:title>
      </cc:Work>
    </rdf:RDF>
  </metadata>
  <defs
     id="defs6" />
  <sodipodi:namedview
     pagecolor="#ffffff"
     bordercolor="#666666"
     borderopacity="1"
     objecttolerance="10"
     gridtolerance="10"
     guidetolerance="10"
     inkscape:pageopacity="0"
     inkscape:pageshadow="2"
     inkscape:window-width="1855"
     inkscape:window-height="1056"
     id="namedview4"
     showgrid="false"
     inkscape:zoom="0.59"
     inkscape:cx="200"
     inkscape:cy="200"
     inkscape:window-x="65"
     inkscape:window-y="24"
     inkscape:window-maximized="1"
     inkscape:current-layer="svg2" />
  <path
     style="fill:#000000"
     d="m 0,0 400,0 0,400 -400,0 z"
     id="rect3026" />
  <path
     id="path2989"
     style="fill:#ffffff"
     d="M 125.56761,150.13342 C 119.00238,137.17756 105.43548,122.98209 91.873782,114.87853 84.85092,110.68214 69.818989,104 67.401769,104 c -2.152302,0 -0.892359,4.08738 4.385265,14.22624 4.668145,8.96798 12.624333,18.00724 20.596385,23.40014 7.908641,5.35001 27.512561,13.04649 33.883431,13.30259 1.58741,0.0638 1.5164,-0.42319 -0.69924,-4.79555 z M 149.6796,235.75 c -0.29547,-1.2375 -2.16682,-10.575 -4.15855,-20.75 -5.51683,-28.18342 -3.72527,-24.85632 -16.12718,-29.94954 C 109.78947,176.99933 89.957623,163.6078 78.644405,150.7817 55.816656,124.90125 46.149757,95.062332 44.331605,44.868019 L 43.684385,27 33.342193,27 23,27 l 0,81.89966 0,81.89965 5.724912,5.23225 C 49.515744,215.03321 73.253802,224.83587 118,232.8978 c 33.76164,6.08284 32.42216,5.96224 31.6796,2.8522 z m 204.93455,17 c -2.02772,-24.84184 -10.14887,-52.03909 -21.27541,-71.25 -17.3379,-29.93538 -42.90204,-50.1383 -82.0014,-64.80438 -12.16679,-4.56373 -37.01292,-11.35337 -37.98597,-10.38033 -0.28395,0.28396 0.25658,5.16668 1.20119,10.8505 0.94461,5.68381 1.99421,19.10921 2.33245,29.83421 l 0.61499,19.5 2.5,0.31432 c 9.09698,1.14375 29.04782,5.85878 39.31949,9.29248 31.43824,10.50943 56.68704,28.34466 76.04795,53.71867 5.75087,7.53698 14.08134,20.80113 17.2238,27.42453 0.97855,2.0625 1.98554,3.75 2.23775,3.75 0.25221,0 0.15553,-3.7125 -0.21484,-8.25 z m 13.55837,101.07791 C 350.46258,303.73628 322.71297,267.97092 282,242.76365 268.06323,234.13475 237.66743,220.52576 221.10976,215.5015 l -2.39023,-0.72529 0.6969,7.36189 c 0.73705,7.78598 5.19892,29.25353 6.64414,31.96723 0.47023,0.88294 4.36146,2.8498 8.64719,4.3708 25.40042,9.0146 53.60774,24.98794 76.28877,43.20106 17.35888,13.93937 40.25247,37.70657 54.96158,57.05887 3.00196,3.94958 5.6294,7.00976 5.83876,6.80041 0.20935,-0.20936 -1.4216,-5.47821 -3.62435,-11.70856 z m -48.66379,11.0764 C 262.1652,336.10287 228.84212,302.70776 214.50292,259.67149 207.43921,238.47116 205.02534,218.54616 204.97207,181 c -0.0613,-43.23783 -2.03116,-63.96579 -7.6881,-80.90021 C 187.72663,71.48928 166.9129,49.468693 132.92727,32.011467 L 123.17097,27 90.448186,27 57.725401,27 58.329625,49.25 c 0.503724,18.549219 2.417603,37.830561 3.902474,39.315433 0.198171,0.19817 4.606634,1.747944 9.796586,3.443941 37.382525,12.216036 61.138925,35.825986 74.409185,73.950456 4.91753,14.12771 6.67252,21.3737 13.11847,54.16376 6.52305,33.1823 9.08502,43.77957 13.9925,57.87841 16.91256,48.58853 50.77707,75.64442 109.95116,87.84495 12.97796,2.67579 36.02272,5.6938 45.5,5.9588 4.35317,0.12173 4.04347,-0.10347 -9.49127,-6.90144 z" />
</svg>
