<?xml version="1.0" encoding="UTF-8" standalone="no"?>
<!-- Created with Inkscape (http://www.inkscape.org/) -->

<svg
   xmlns:dc="http://purl.org/dc/elements/1.1/"
   xmlns:cc="http://creativecommons.org/ns#"
   xmlns:rdf="http://www.w3.org/1999/02/22-rdf-syntax-ns#"
   xmlns:svg="http://www.w3.org/2000/svg"
   xmlns="http://www.w3.org/2000/svg"
   xmlns:sodipodi="http://sodipodi.sourceforge.net/DTD/sodipodi-0.dtd"
   xmlns:inkscape="http://www.inkscape.org/namespaces/inkscape"
   id="svg2"
   version="1.1"
   inkscape:version="0.48.3.1 r9886"
   width="400"
   height="400"
   sodipodi:docname="Icon.2_48.png">
  <metadata
     id="metadata8">
    <rdf:RDF>
      <cc:Work
         rdf:about="">
        <dc:format>image/svg+xml</dc:format>
        <dc:type
           rdf:resource="http://purl.org/dc/dcmitype/StillImage" />
        <dc:title></dc:title>
      </cc:Work>
    </rdf:RDF>
  </metadata>
  <defs
     id="defs6" />
  <sodipodi:namedview
     pagecolor="#ffffff"
     bordercolor="#666666"
     borderopacity="1"
     objecttolerance="10"
     gridtolerance="10"
     guidetolerance="10"
     inkscape:pageopacity="0"
     inkscape:pageshadow="2"
     inkscape:window-width="1855"
     inkscape:window-height="1056"
     id="namedview4"
     showgrid="false"
     inkscape:zoom="0.59"
     inkscape:cx="200"
     inkscape:cy="200"
     inkscape:window-x="65"
     inkscape:window-y="24"
     inkscape:window-maximized="1"
     inkscape:current-layer="svg2" />
  <path
     style="fill:#000000"
     d="m 0,0 400,0 0,400 -400,0 z"
     id="rect3022" />
  <path
     id="path2989"
     style="fill:#ffffff"
     d="m 173.61856,193.37671 c 4.56779,-2.16755 7.03849,-5.87651 8.99066,-13.49656 C 187.61475,160.34166 175.09741,136 160.0445,136 c -3.61949,0 -4.86395,0.58416 -8.06605,3.78625 -10.44325,10.44325 -7.66968,36.78142 5.18724,49.25864 5.84226,5.66972 10.85321,6.98904 16.45287,4.33182 z M 292,350.04443 c -28.13697,-5.203 -48.20694,-34.92657 -48.30828,-71.54443 -0.049,-17.70676 2.97436,-30.15036 11.12631,-45.79377 5.30944,-10.18871 7.93449,-13.1924 5.16925,-5.91487 -3.7378,9.83708 -5.25148,21.69034 -4.68775,36.70864 0.61065,16.26862 2.0199,22.25696 8.30532,35.29193 6.28796,13.04023 15.49209,22.67218 27.22037,28.48557 8.4664,4.19658 8.58671,4.2225 19.59674,4.2225 16.14377,0 26.10805,-4.03164 37.93812,-15.3501 l 4.86008,-4.6499 -1.75071,3.5 C 339.49457,338.94011 313.80763,354.07703 292,350.04443 z m 30.006,12.54643 c 14.72391,-4.37253 31.99685,-19.21333 39.67774,-34.09086 6.97597,-13.51215 8.81233,-20.99945 8.70682,-35.5 -0.11018,-15.14314 -2.13161,-22.07375 -11.81249,-40.5 C 339.8841,216.91858 323.06405,194.56897 266.00973,129.5 237.09181,96.519856 237,96.40561 237,93.400325 c 0,-3.098462 2.74028,-4.404918 9.18426,-4.378683 10.00512,0.04073 34.43452,6.852936 50.62385,14.116598 3.56385,1.59899 6.72533,2.66165 7.02552,2.36146 C 305.16613,104.16721 282.80455,83.907864 269.5,74.39382 223.74431,41.674056 164.49829,23.692811 119.97377,29.012409 89.997487,32.593844 66.956427,43.541668 48.779387,62.839997 42.843733,69.141805 32.604071,82.937405 33.326241,83.659574 33.473583,83.806917 37.927697,82.143131 43.224272,79.962272 57.548555,74.064263 68.450091,71.687806 81.5,71.618435 c 13.32954,-0.07086 19.21211,1.240805 31.12725,6.940578 11.05869,5.290081 22.53461,15.5542 29.37275,26.271127 2.475,3.87889 4.79263,7.07893 5.15028,7.1112 0.35766,0.0323 -0.20179,-3.20384 -1.24321,-7.19134 -6.13389,-23.48599 -3.97701,-30.97096 7.46602,-25.909163 13.23934,5.856387 31.32005,21.274853 40.41293,34.462423 19.30403,27.99701 25.34232,54.81518 29.20206,129.69674 1.63025,31.62784 3.05338,49.01315 4.66591,57 8.9297,44.2286 54.46542,74.4359 94.35201,62.59086 z" />
</svg>
