<?xml version="1.0" encoding="UTF-8" standalone="no"?>
<!-- Created with Inkscape (http://www.inkscape.org/) -->

<svg
   xmlns:dc="http://purl.org/dc/elements/1.1/"
   xmlns:cc="http://creativecommons.org/ns#"
   xmlns:rdf="http://www.w3.org/1999/02/22-rdf-syntax-ns#"
   xmlns:svg="http://www.w3.org/2000/svg"
   xmlns="http://www.w3.org/2000/svg"
   xmlns:sodipodi="http://sodipodi.sourceforge.net/DTD/sodipodi-0.dtd"
   xmlns:inkscape="http://www.inkscape.org/namespaces/inkscape"
   id="svg2"
   version="1.1"
   inkscape:version="0.48.3.1 r9886"
   width="400"
   height="400"
   sodipodi:docname="Icons8_51.svg">
  <metadata
     id="metadata8">
    <rdf:RDF>
      <cc:Work
         rdf:about="">
        <dc:format>image/svg+xml</dc:format>
        <dc:type
           rdf:resource="http://purl.org/dc/dcmitype/StillImage" />
        <dc:title></dc:title>
      </cc:Work>
    </rdf:RDF>
  </metadata>
  <defs
     id="defs6" />
  <sodipodi:namedview
     pagecolor="#ffffff"
     bordercolor="#666666"
     borderopacity="1"
     objecttolerance="10"
     gridtolerance="10"
     guidetolerance="10"
     inkscape:pageopacity="0"
     inkscape:pageshadow="2"
     inkscape:window-width="1855"
     inkscape:window-height="1056"
     id="namedview4"
     showgrid="false"
     inkscape:zoom="0.59"
     inkscape:cx="200"
     inkscape:cy="200"
     inkscape:window-x="65"
     inkscape:window-y="24"
     inkscape:window-maximized="1"
     inkscape:current-layer="svg2" />
  <path
     style="fill:#000000"
     d="m 0,0 400,0 0,400 -400,0 z"
     id="rect3024" />
  <path
     id="path2989"
     style="fill:#ffffff"
     d="m 196.78267,174.0688 c 2.77729,-6.68293 9.25781,-13.45048 16.07447,-16.78647 5.18224,-2.53612 6.58159,-2.75906 17.14286,-2.73118 7.49819,0.0198 13.52061,0.59727 17.30662,1.65946 3.19364,0.896 5.66864,1.2703 5.5,0.83176 C 251.9098,154.71027 240.52696,146.29002 234,143.13052 227.29335,139.88404 225.65376,139.5 218.5,139.5 c -8.97343,0 -13.06253,1.50121 -18.51242,6.79636 -4.28995,4.16815 -7.07346,10.55918 -7.72413,17.7349 -0.57223,6.31068 0.39053,14.96874 1.6645,14.96874 0.44297,0 1.72759,-2.21904 2.85472,-4.9312 z m -15.01184,34.28997 c 0.52705,-13.33081 -1.46129,-19.79887 -8.22606,-26.75931 C 170.035,177.98817 160.7026,172 158.58427,172 c -0.26522,0 0.16982,1.56055 0.96676,3.46788 0.79693,1.90734 1.44897,6.35595 1.44897,9.88581 0,19.08298 -18.74197,30.14876 -32.06925,18.93458 -12.13356,-10.20971 -9.58529,-36.66873 4.89141,-50.78827 2.81956,-2.75 5.13803,-5.26218 5.15216,-5.58262 0.0336,-0.76161 -9.24327,0.5227 -14.95757,2.07077 -2.46579,0.668 -6.74079,2.34803 -9.5,3.73339 l -5.01675,2.51883 2.5,-2.75084 c 1.375,-1.51296 13.10977,-12.10439 26.07726,-23.5365 31.65965,-27.91108 47.64763,-45.241139 57.38546,-62.202575 1.49973,-2.61225 3.09873,-4.979418 3.55333,-5.260374 0.4546,-0.280956 2.45819,2.175156 4.45243,5.458027 9.90346,16.302856 25.70902,32.647482 56.78308,58.719742 21.29988,17.87136 39.08693,34.22759 40.8943,37.60468 0.62704,1.17164 -0.71932,0.59611 -3.84014,-1.64157 -8.20222,-5.88111 -19.89167,-10.16812 -32.71941,-11.99958 -4.04212,-0.5771 -4.00467,-0.4159 0.73031,3.14378 6.02504,4.52953 10.68277,12.56876 13.09301,22.59855 l 0.69057,2.87371 -3.96421,-3.13971 c -6.49794,-5.14646 -14.76842,-8.44515 -21.08991,-8.4117 -7.50986,0.0397 -12.42548,1.55225 -19.54608,6.01428 l -6,3.75982 5.28303,0.76147 c 11.725,1.69 19.2331,9.20345 19.20052,19.2142 -0.0444,13.6351 -12.79185,21.48025 -25.48355,15.68329 -7.25537,-3.31391 -15.5,-14.23768 -15.5,-20.53681 0,-6.87603 -4.82811,-2.61513 -11.35393,10.02005 -5.62311,10.88738 -9.87666,15.34068 -15.35436,16.07539 l -3.95021,0.52983 0.42933,-10.85876 z M 281.5,290.98125 c 31.8301,-10.05301 51.7309,-35.92599 54.10596,-70.34301 C 336.74714,204.10133 332.6805,186.69336 324.3605,172.5 314.60766,155.86234 301.93412,142.77288 268.5,114.80629 246.48539,96.391765 230.02839,80.276583 221.21151,68.5 218.32909,64.65 212.26483,53.99903 207.73538,44.831178 203.20592,35.663326 199.275,28.138902 199,28.110236 c -0.275,-0.02867 -3.18489,5.897303 -6.46642,13.168822 -13.19585,29.240596 -25.9146,44.866599 -62.03358,76.213252 -40.15965,34.85344 -52.213289,48.348 -60.909698,68.191 -5.799369,13.2327 -6.99999,19.187 -7.020405,34.81669 -0.01516,11.61052 0.370406,15.35772 2.25907,21.95493 6.689089,23.36537 24.038286,40.96937 46.988073,47.67818 8.69291,2.54116 26.05158,3.53168 34.35397,1.96031 18.78549,-3.55548 37.24921,-13.6653 48.22625,-26.40631 l 4.4442,-5.15837 2.24917,2.98563 c 4.12334,5.47346 14.33847,14.97063 20.39429,18.96087 6.65112,4.3825 15.92622,8.14226 25.01508,10.14013 8.84215,1.94364 26.24459,1.13114 35,-1.63412 z M 244,366.3605 c 0,-1.16477 -43.33812,-86.36072 -43.92479,-86.34926 C 199.48106,280.02285 156,365.20074 156,366.35305 156,366.70887 175.8,367 200,367 c 24.2,0 44,-0.28778 44,-0.6395 z" />
</svg>
