<?xml version="1.0" encoding="UTF-8" standalone="no"?>
<!-- Created with Inkscape (http://www.inkscape.org/) -->

<svg
   xmlns:dc="http://purl.org/dc/elements/1.1/"
   xmlns:cc="http://creativecommons.org/ns#"
   xmlns:rdf="http://www.w3.org/1999/02/22-rdf-syntax-ns#"
   xmlns:svg="http://www.w3.org/2000/svg"
   xmlns="http://www.w3.org/2000/svg"
   xmlns:sodipodi="http://sodipodi.sourceforge.net/DTD/sodipodi-0.dtd"
   xmlns:inkscape="http://www.inkscape.org/namespaces/inkscape"
   id="svg2"
   version="1.1"
   inkscape:version="0.48.3.1 r9886"
   width="400"
   height="400"
   sodipodi:docname="Icon.2_19.png">
  <metadata
     id="metadata8">
    <rdf:RDF>
      <cc:Work
         rdf:about="">
        <dc:format>image/svg+xml</dc:format>
        <dc:type
           rdf:resource="http://purl.org/dc/dcmitype/StillImage" />
        <dc:title></dc:title>
      </cc:Work>
    </rdf:RDF>
  </metadata>
  <defs
     id="defs6" />
  <sodipodi:namedview
     pagecolor="#ffffff"
     bordercolor="#666666"
     borderopacity="1"
     objecttolerance="10"
     gridtolerance="10"
     guidetolerance="10"
     inkscape:pageopacity="0"
     inkscape:pageshadow="2"
     inkscape:window-width="1855"
     inkscape:window-height="1056"
     id="namedview4"
     showgrid="false"
     inkscape:zoom="0.59"
     inkscape:cx="200"
     inkscape:cy="200"
     inkscape:window-x="65"
     inkscape:window-y="24"
     inkscape:window-maximized="1"
     inkscape:current-layer="svg2" />
  <path
     style="fill:#000000"
     d="m 0,0 400,0 0,400 -400,0 z"
     id="rect3024" />
  <path
     id="path2989"
     style="fill:#ffffff"
     d="M 158.75,93.805455 C 177.5875,84.882133 192.98716,77.337956 192.97146,77.040617 192.95576,76.743278 177.33504,65.3625 158.25876,51.75 L 123.5746,27 75.787301,27 28,27 l 0,14.524619 0,14.524618 4.25,2.53764 c 11.602237,6.927599 90.38247,51.252513 91.25,51.340913 0.55,0.056 16.4125,-7.19901 35.25,-16.122335 z M 195.17844,205.9995 c 11.72686,-7.70028 21.1412,-14.33778 20.92075,-14.75 -0.22044,-0.41223 -6.40794,-6.08277 -13.75,-12.60121 C 195.00714,172.12984 189,166.64445 189,166.45852 c 0,-0.18592 39.42948,-19.94439 87.62106,-43.9077 L 364.24212,78.981157 329.87106,53.001502 295.5,27.021848 233.75,27.010924 c -33.9625,-0.006 -61.75,0.184104 -61.75,0.422471 0,0.238367 15.06878,9.496269 33.48617,20.573116 C 236.67908,66.766986 241.6299,70 239.16552,70 c -0.52388,0 -9.21294,3.991512 -19.30901,8.870027 C 209.76043,83.748541 193.175,91.672519 183,96.478865 c -10.175,4.806345 -29.075,13.800245 -42,19.986445 -12.925,6.1862 -37.56197,17.91275 -54.748832,26.059 -17.186858,8.14625 -31.05988,15.00031 -30.828938,15.23125 1.079554,1.07956 116.2219,62.15519 117.25621,62.19691 0.64814,0.0261 10.77314,-6.2527 22.5,-13.95297 z M 336.83938,297.75 c -14.43773,-12.7875 -31.6609,-28.05194 -38.27371,-33.92099 l -12.02328,-10.67098 -6.5212,3.62797 c -3.58665,1.99539 -9.31447,5.23981 -12.72847,7.20983 l -6.20728,3.58185 49.70728,26.60213 c 27.339,14.63117 50.28999,26.65119 51.00218,26.71116 0.7122,0.06 -10.51778,-10.35347 -24.95552,-23.14097 z m 35.59395,73.39147 C 371.92,370.68761 341.45349,346.76862 304.72999,317.98816 l -66.77002,-52.32812 10.77002,-5.9832 c 5.9235,-3.29076 19.99501,-11.22129 31.27001,-17.6234 11.275,-6.40211 33.8806,-19.04568 50.23468,-28.09682 16.35407,-9.05114 29.74157,-16.71442 29.75,-17.0295 0.008,-0.31509 -18.68801,-13.97627 -41.54763,-30.35819 l -41.56294,-29.7853 -27.89106,13.7781 c -15.34008,7.57795 -27.68781,14.10696 -27.43939,14.50891 0.24841,0.40194 7.46242,4.65684 16.03112,9.45532 l 15.57946,8.72451 -13.32712,8.7854 c -35.27529,23.25389 -85.28698,56.11664 -93.56143,61.47934 -5.07887,3.29163 -9.24137,6.21909 -9.25,6.50546 -0.021,0.69639 235.36338,112.73456 235.91764,112.292 0.23834,-0.1903 0.0133,-0.71734 -0.5,-1.1712 z" />
</svg>
