<?xml version="1.0" encoding="UTF-8" standalone="no"?>
<!-- Created with Inkscape (http://www.inkscape.org/) -->

<svg
   xmlns:dc="http://purl.org/dc/elements/1.1/"
   xmlns:cc="http://creativecommons.org/ns#"
   xmlns:rdf="http://www.w3.org/1999/02/22-rdf-syntax-ns#"
   xmlns:svg="http://www.w3.org/2000/svg"
   xmlns="http://www.w3.org/2000/svg"
   version="1.1"
   width="400"
   height="400"
   id="svg2">
  <metadata
     id="metadata8">
    <rdf:RDF>
      <cc:Work
         rdf:about="">
        <dc:format>image/svg+xml</dc:format>
        <dc:type
           rdf:resource="http://purl.org/dc/dcmitype/StillImage" />
        <dc:title></dc:title>
      </cc:Work>
    </rdf:RDF>
  </metadata>
  <defs
     id="defs6" />
  <path
     d="m 0,0 400,0 0,400 -400,0 z"
     id="rect3030"
     style="fill:#000000;fill-opacity:1;stroke:none" />
  <path
     d="m 170.21357,151.75 -19.10909,-17.25 -0.0522,-8.58024 -0.0522,-8.58024 23.64115,-6.2504 c 18.91888,-5.00189 23.81134,-5.9846 24.49322,-4.91976 0.46865,0.73185 2.29779,4.09536 4.06477,7.47446 l 3.21269,6.14381 -7.92847,24.60619 C 194.1227,157.92722 190.27764,169 189.93878,169 c -0.33887,0 -9.21521,-7.7625 -19.72521,-17.25 z m 50.77869,17 c 0.9869,-4.5375 3.4777,-15.98444 5.53511,-25.43764 l 3.74074,-17.18764 7.52864,-4.64614 7.52864,-4.64614 17.29765,17.33378 17.29764,17.33378 -4.67061,7.55404 -4.67061,7.55403 -25.03973,5.21148 c -13.77185,2.86631 -25.3327,5.20449 -25.69078,5.19596 -0.35808,-0.009 0.15641,-3.72801 1.14331,-8.26551 z m -109.22687,34.41592 c -3.70404,-2.01626 -6.74154,-4.25997 -6.75,-4.98604 -0.0135,-1.15804 11.89366,-46.42863 12.31961,-46.83874 0.0907,-0.0874 3.99,0.0963 8.665,0.40819 l 8.5,0.56705 16.61452,18.59181 c 9.13799,10.2255 16.69675,18.99544 16.79725,19.48875 0.14889,0.73089 -47.23705,16.71562 -48.91177,16.49944 -0.275,-0.0355 -3.53057,-1.7142 -7.23461,-3.73046 z M 261.1014,243.25 C 256.57403,239.00099 229,208.04717 229,207.21388 c 0,-0.40652 10.96378,-4.38701 24.36395,-8.84553 l 24.36394,-8.1064 7.42071,4.11902 7.42071,4.11903 -3.74653,14 c -2.06059,7.7 -4.94327,18.3875 -6.40594,23.75 l -2.65941,9.75 -7.86294,0 c -7.20074,0 -8.10971,-0.2316 -10.79309,-2.75 z m -127.0238,19.3277 -17.40096,-17.4223 4.17118,-6.90353 4.17117,-6.90352 25.06462,-5.26673 c 13.78554,-2.8967 25.19607,-5.11258 25.35674,-4.92417 0.16067,0.1884 -2.01018,11.58897 -4.82411,25.33459 L 165.5,271.48407 159,275.73756 c -3.575,2.33942 -6.72982,4.2555 -7.01072,4.25796 -0.28089,0.002 -8.34115,-7.83555 -17.91168,-17.41782 z m 61.49837,26.09618 c -6.35885,-10.97138 -6.52067,-8.37411 2.16311,-34.71892 4.26851,-12.94977 8.21092,-23.59913 8.76092,-23.66524 0.55,-0.0661 9.405,7.32292 19.67778,16.42009 l 18.67778,16.54031 0.33309,8.12494 c 0.1832,4.46872 0.26774,8.2604 0.18786,8.42597 -0.16455,0.34107 -14.52748,4.35646 -34.12897,9.54129 l -13.25245,3.50544 -2.41912,-4.17388 z m 6.67191,68.70736 c 14.16133,-3.78468 25.74883,-7.18852 25.75,-7.56408 0.001,-0.37556 -5.78048,-11.40056 -12.8481,-24.5 -7.06763,-13.09944 -12.6867,-24.01058 -12.48684,-24.24699 0.19986,-0.23641 9.91996,-2.99245 21.60022,-6.12455 L 245.5,289.2509 l 0.2691,3.12455 c 0.14801,1.7185 0.59986,14.0014 1.00412,27.29533 0.40426,13.29394 0.983,24.41877 1.28608,24.72186 0.62528,0.62527 75.10052,-19.1635 76.06902,-20.21226 0.61981,-0.67117 20.83851,-75.50184 20.49964,-75.87043 -0.0961,-0.10453 -12.44415,-0.60947 -27.4401,-1.12209 -14.99595,-0.51262 -27.45832,-1.12499 -27.69416,-1.36082 -0.38623,-0.38624 10.38993,-41.81966 11.10331,-42.69126 0.16396,-0.20033 11.22938,5.51384 24.58981,12.69814 16.42352,8.83141 24.49522,12.67429 24.92,11.86423 0.34556,-0.65898 5.04811,-17.75993 10.45012,-38.00209 l 9.82183,-36.80395 -27.93269,-27.94605 C 327.0831,109.57572 314.27553,97 313.9848,97 c -0.29073,0 -7.03569,10.57793 -14.98881,23.50651 l -14.4602,23.50651 -15.75589,-15.7328 c -12.14281,-12.12502 -15.472,-15.99037 -14.51789,-16.85599 0.68089,-0.61776 11.29227,-7.33565 23.58083,-14.928656 L 300.18569,82.69011 272.24755,54.751973 244.30941,26.813836 206.4106,36.984355 c -20.84434,5.593785 -38.06536,10.337073 -38.26893,10.54064 -0.20357,0.203567 5.50953,11.304334 12.69577,24.668371 11.59671,21.566058 12.85696,24.375537 11.20785,24.985585 -5.37447,1.988146 -40.20579,10.839889 -40.91933,10.398899 -0.45934,-0.28389 -1.1639,-12.567545 -1.56568,-27.297008 -0.40178,-14.729463 -0.9184,-26.969531 -1.14804,-27.20015 C 147.97929,52.645895 74.365565,72.113007 73.092021,72.999086 72.490463,73.417625 52.949898,145.45217 52.611145,148.5 c -0.0698,0.62802 10.104593,1.29637 27.352259,1.79674 15.104872,0.4382 27.594226,0.92755 27.754116,1.08745 0.15989,0.15989 -2.31353,10.00705 -5.4965,21.88257 l -5.787217,21.59187 -24.335518,-13.0107 c -13.384534,-7.15588 -24.661924,-12.63658 -25.060866,-12.17931 -0.755514,0.86595 -20.115279,73.07133 -20.065681,74.8382 0.01554,0.55375 12.414225,13.37875 27.552623,28.5 22.107851,22.08281 27.7195,27.198 28.515972,25.99318 0.545385,-0.825 7.171923,-11.49721 14.725638,-23.71603 L 111.5,253.06795 l 15.75,15.7043 c 8.6625,8.63737 15.75,15.97957 15.75,16.31599 0,0.33643 -9.5625,6.50813 -21.25,13.71488 -11.6875,7.20675 -22.15,13.77743 -23.25,14.6015 -1.911357,1.43191 -0.764848,2.73592 25.86804,29.42153 l 27.86805,27.92321 12.13195,-3.24344 c 6.67258,-1.7839 23.71851,-6.34001 37.87984,-10.12468 z"
     id="path2989"
     style="fill:#ffffff" />
</svg>
