<?xml version="1.0" encoding="UTF-8" standalone="no"?>
<!-- Created with Inkscape (http://www.inkscape.org/) -->

<svg
   xmlns:dc="http://purl.org/dc/elements/1.1/"
   xmlns:cc="http://creativecommons.org/ns#"
   xmlns:rdf="http://www.w3.org/1999/02/22-rdf-syntax-ns#"
   xmlns:svg="http://www.w3.org/2000/svg"
   xmlns="http://www.w3.org/2000/svg"
   xmlns:sodipodi="http://sodipodi.sourceforge.net/DTD/sodipodi-0.dtd"
   xmlns:inkscape="http://www.inkscape.org/namespaces/inkscape"
   id="svg2"
   version="1.1"
   inkscape:version="0.48.3.1 r9886"
   width="400"
   height="400"
   sodipodi:docname="Icon.1_86.png">
  <metadata
     id="metadata8">
    <rdf:RDF>
      <cc:Work
         rdf:about="">
        <dc:format>image/svg+xml</dc:format>
        <dc:type
           rdf:resource="http://purl.org/dc/dcmitype/StillImage" />
        <dc:title></dc:title>
      </cc:Work>
    </rdf:RDF>
  </metadata>
  <defs
     id="defs6" />
  <sodipodi:namedview
     pagecolor="#ffffff"
     bordercolor="#666666"
     borderopacity="1"
     objecttolerance="10"
     gridtolerance="10"
     guidetolerance="10"
     inkscape:pageopacity="0"
     inkscape:pageshadow="2"
     inkscape:window-width="1855"
     inkscape:window-height="1056"
     id="namedview4"
     showgrid="false"
     inkscape:zoom="0.59"
     inkscape:cx="200"
     inkscape:cy="200"
     inkscape:window-x="65"
     inkscape:window-y="24"
     inkscape:window-maximized="1"
     inkscape:current-layer="svg2" />
  <path
     style="fill:#000000"
     d="m 0,0 400,0 0,400 -400,0 z"
     id="rect3018"
     inkscape:connector-curvature="0" />
  <path
     id="path2989"
     style="fill:#ffffff"
     d="m 258.772,363.47507 c 16.07869,-4.77486 42.48315,-30.57085 72.64919,-70.97507 6.1595,-8.25 11.58571,-15.675 12.05824,-16.5 0.47253,-0.825 -6.97954,6.15492 -16.56014,15.51094 C 295.32015,322.36933 267.88028,343 258.43615,343 c -3.13051,0 -4.12213,-3.73475 -2.48005,-9.34059 1.77358,-6.05478 9.37597,-20.16478 19.48248,-36.15941 37.80542,-59.8311 37.02067,-58.10679 17.49838,-38.44873 -25.03746,25.21158 -54.73074,49.41882 -71.08966,57.95534 -20.66212,10.78207 -18.34626,0.91386 12.3222,-52.50661 8.52532,-14.85 16.08422,-28.125 16.79756,-29.5 0.71333,-1.375 -5.17494,3.82091 -13.08505,11.54647 -24.75892,24.18127 -49.08189,43.56576 -60.70662,48.38088 -12.48234,5.17036 -6.50362,-12.36834 21.14223,-62.02117 4.77531,-8.5766 8.68238,-15.99393 8.68238,-16.48295 0,-0.48902 -4.8375,3.87877 -10.75,9.7062 -28.88089,28.46532 -52.37021,45.33919 -55.67373,39.99398 -0.85128,-1.3774 2.30955,-10.94255 6.1536,-18.62175 1.92769,-3.85091 8.17707,-15.40365 13.88751,-25.67274 C 166.32782,211.55982 171,202.84813 171,202.46959 c 0,-0.37853 -4.86863,3.97707 -10.81918,9.67912 -18.41991,17.65068 -35.88748,29.64695 -43.86193,30.12321 -3.70977,0.22156 -3.82749,0.12545 -4.11983,-3.36376 -0.42183,-5.03482 2.80846,-12.98236 15.60322,-38.38892 6.08825,-12.08941 10.86161,-22.18868 10.60748,-22.44282 -0.25414,-0.25413 -3.03779,2.06384 -6.18591,5.15105 -12.44514,12.20436 -35.750228,27.39988 -42.852695,27.94107 C 85.03069,211.49927 84,210.37601 84,205.31497 84,199.58633 88.644391,187.75609 99.135454,166.76176 103.46095,158.10573 107,150.75741 107,150.43217 c 0,-0.32525 -3.0375,2.17284 -6.75,5.55131 -8.787009,7.99639 -22.590998,17.25211 -29.692464,19.90911 C 53.23331,182.37441 52.514031,174.6196 67.416725,142.03035 70.945482,134.31366 73.597558,128 73.310228,128 c -0.287331,0 -2.208263,1.33521 -4.268738,2.96714 -8.241209,6.52716 -19.893585,10.79999 -24.586602,9.01571 -2.701963,-1.02729 -2.731816,-1.13511 -2.149191,-7.7623 1.006667,-11.45054 6.562411,-27.28578 13.230108,-37.709069 6.141701,-9.601023 20.125432,-21.250244 22.571974,-18.803702 1.798776,1.798776 3.145205,14.695877 2.620838,25.104341 -0.285733,5.67166 -0.328736,10.12133 -0.09556,9.88816 0.233173,-0.23317 2.19637,-4.08909 4.362661,-8.5687 10.276576,-21.250654 24.022242,-33.97185 27.784792,-25.713969 2.03137,4.458379 2.41339,13.958303 1.26476,31.451449 -0.62727,9.55298 -0.92468,17.58486 -0.66091,17.84863 0.26377,0.26377 1.16821,-1.83931 2.00988,-4.6735 4.90536,-16.51816 18.61386,-42.183695 26.25076,-49.147598 5.44197,-4.962404 7.96247,-4.504829 9.40346,1.70712 2.15192,9.276664 0.14871,43.670248 -3.5468,60.895918 -0.82591,3.84979 -1.48002,7.22479 -1.45356,7.5 0.11103,1.15505 6.62557,-12.42328 13.61707,-28.38222 15.38578,-35.119861 22.54288,-45.702733 26.23843,-38.797527 3.49562,6.531616 3.77284,39.998317 0.55171,66.602677 -0.79394,6.5574 -1.27898,12.0871 -1.07787,12.28822 0.20112,0.20111 2.4252,-5.67342 4.94241,-13.05451 9.19787,-26.97047 21.90561,-53.870133 29.00907,-61.40627 6.6127,-7.015469 8.04267,-3.765013 8.49872,19.31836 0.36557,18.50365 -1.32754,39.16968 -4.40933,53.81997 -0.79943,3.80039 -1.27741,7.08591 -1.06216,7.30115 0.21525,0.21525 2.3126,-4.46433 4.66079,-10.39906 6.94167,-17.54411 26.35643,-56.178208 31.4284,-62.54042 4.95741,-6.218517 6.82622,-6.979626 8.67152,-3.531646 3.00311,5.611358 1.66515,42.416016 -2.71298,74.629126 -0.84824,6.24111 -1.34656,11.54318 -1.10737,11.78237 0.23919,0.23919 1.92587,-3.74218 3.74817,-8.84748 10.68398,-29.93185 26.96232,-64.986713 33.48233,-72.103044 4.59857,-5.019154 6.60921,-4.572801 8.25384,1.832311 2.98562,11.627663 0.24359,70.101373 -4.40743,93.988363 -1.0583,5.43531 1.18953,1.35985 6.0671,-11 22.65846,-57.41697 34.70053,-80.582307 41.23508,-79.323993 6.71723,1.293492 5.31151,35.600413 -4.05955,99.073993 -0.7105,4.8125 -1.11501,8.75 -0.89891,8.75 1.77524,0 12.38738,-31.628 17.12045,-51.0251 5.82501,-23.8721 7.51807,-36.01835 7.5932,-54.4749 0.098,-24.066274 1.77676,-22.119325 -23.09347,-26.782407 C 309.40969,62.418799 262.25227,56.301986 218,52.811475 196.8506,51.143262 130.69522,51.135197 116.5,52.7991 81.274052,56.928137 61.359297,62.57296 47.745621,72.287477 39.979473,77.829284 36.503899,82.225283 32.913823,91.047129 24.530529,111.64728 24.579616,138.8796 33.047127,165 c 8.768671,27.04941 28.10236,59.00236 52.338333,86.5 46.70471,52.9902 110.00177,98.3212 155.11454,111.08726 9.70445,2.74618 11.68942,2.84262 18.272,0.88781 z" />
</svg>
