<?xml version="1.0" encoding="UTF-8" standalone="no"?>
<!-- Created with Inkscape (http://www.inkscape.org/) -->

<svg
   xmlns:dc="http://purl.org/dc/elements/1.1/"
   xmlns:cc="http://creativecommons.org/ns#"
   xmlns:rdf="http://www.w3.org/1999/02/22-rdf-syntax-ns#"
   xmlns:svg="http://www.w3.org/2000/svg"
   xmlns="http://www.w3.org/2000/svg"
   version="1.1"
   width="512"
   height="512"
   id="svg2">
  <metadata
     id="metadata8">
    <rdf:RDF>
      <cc:Work
         rdf:about="">
        <dc:format>image/svg+xml</dc:format>
        <dc:type
           rdf:resource="http://purl.org/dc/dcmitype/StillImage" />
        <dc:title></dc:title>
      </cc:Work>
    </rdf:RDF>
  </metadata>
  <defs
     id="defs6" />
  <path
     d="m 0,1.5258789e-5 512,0 L 512,512.00002 l -512,0 z"
     id="rect3024"
     style="fill:#000000;fill-opacity:1;fill-rule:nonzero;stroke:none" />
  <path
     d="M 494.76313,106.76813 494.5,72.536252 486,71.137311 c -5.4723,-0.900638 -17.04879,-1.429033 -32.5,-1.483423 -21.21931,-0.07469 -25.17068,0.170935 -34.10406,2.120009 -28.20789,6.154364 -48.78931,17.254899 -66.40423,35.814953 C 346.39383,114.54073 335.27279,129 336.52378,129 c 0.25123,0 3.49866,-2.09552 7.2165,-4.65671 9.09827,-6.26772 24.98369,-13.74406 34.75972,-16.35937 11.21605,-3.00055 30.97164,-3.7417 43.13569,-1.61829 22.37873,3.90653 45.3454,14.28353 65.36431,29.53348 3.575,2.72335 6.84341,4.98515 7.26313,5.02622 0.41972,0.0411 0.64472,-15.32967 0.5,-34.1572 z M 421.50711,219.02744 C 413.06246,186.43847 382.73901,163 349.02176,163 c -17.32374,0 -28.52877,4.36258 -39.61403,15.42338 -6.88365,6.86846 -12.10681,15.45509 -13.97958,22.98178 -0.851,3.42018 -1.18957,3.47202 11.57185,-1.77192 12.03237,-4.94437 22.30426,-6.9025 36.5,-6.95801 17.48911,-0.0684 33.29439,4.02986 48.5,12.57587 7.1115,3.99687 22.51102,15.53307 27,20.22643 3.05694,3.19612 3.53866,3.41119 3.80539,1.699 0.16796,-1.07819 -0.41626,-4.74528 -1.29828,-8.14909 z M 317.77088,360.25 c 3.87696,-8.71636 4.68786,-12.67653 4.65839,-22.75 -0.034,-11.63076 -1.77787,-18.3632 -7.02164,-27.10822 -11.13769,-18.57431 -31.66843,-28.21144 -54.05446,-25.37316 -12.62752,1.60101 -12.67496,1.68139 -3.75721,6.36625 11.70027,6.14663 18.07784,10.54826 26.1169,18.02516 13.18823,12.26598 23.49394,29.39556 28.50315,47.37634 1.25619,4.50916 2.54457,8.20189 2.86305,8.20605 0.31849,0.004 1.52981,-2.12992 2.69182,-4.74242 z M 495,357.49899 l 0,-136.50102 -6.48427,-6.13276 C 478.40895,205.30628 465.63689,195.3759 452,186.4739 439.35096,178.21676 419.26345,167 417.12521,167 c -0.64049,0 2.28077,3.4875 6.4917,7.75 14.01083,14.18245 26.70559,32.19292 34.99574,49.64964 2.00488,4.2217 3.47415,7.84689 3.26505,8.05599 -0.2091,0.2091 -4.13355,-0.50874 -8.721,-1.59521 -12.63429,-2.99223 -12.91168,-2.74874 -6.99445,6.13958 14.42182,21.6631 22.18492,46.51877 20.27827,64.92634 -0.72823,7.0307 -2.35516,11.70807 -2.41011,6.929 -0.0481,-4.18203 -3.92024,-15.67521 -8.03708,-23.85534 -4.26363,-8.47181 -10.17831,-16.80465 -17.92494,-25.25338 -14.20406,-15.49144 -40.91686,-30.0733 -57.67537,-31.48356 -14.2446,-1.19872 -47.99675,9.5051 -64.58253,20.48105 -2.11813,1.40171 -3.72686,2.67285 -3.57496,2.82476 0.15191,0.1519 3.19856,-0.44501 6.77033,-1.32647 4.38383,-1.08186 11.206,-1.61798 20.99414,-1.64983 12.78679,-0.0416 15.65594,0.27331 24.28349,2.66532 5.38092,1.49187 13.20348,4.29263 17.38347,6.2239 41.20105,19.03606 70.60741,65.08608 70.2548,110.01821 l -0.0706,9 -2.3855,-6.82601 C 442.34817,349.30766 429.1414,331.84789 411.66344,319.69831 404.52425,314.7356 395,309.52371 395,310.5797 c 0,0.33737 1.83956,2.70325 4.0879,5.2575 4.50405,5.11687 11.09577,18.14176 12.73455,25.1628 3.77894,16.19018 1.69083,32.84828 -6.07954,48.5 -9.04368,18.21654 -25.98229,34.08651 -42.66364,39.97203 -2.2436,0.79159 -4.07927,1.18647 -4.07927,0.87752 0,-0.30896 1.34554,-2.26062 2.99008,-4.33702 4.19167,-5.29242 10.51319,-17.97965 13.42291,-26.93966 4.29854,-13.23667 5.07225,-18.76554 4.97809,-35.57287 -0.0786,-14.02754 -0.41754,-17.20785 -2.74952,-25.79775 -4.90613,-18.07187 -13.62779,-32.79831 -25.52815,-43.10404 -5.91804,-5.12502 -17.75147,-12.29349 -18.7105,-11.33446 -0.25088,0.25089 1.07008,2.72413 2.93548,5.49609 16.4497,24.44416 15.01604,56.64666 -3.78803,85.08561 -5.78781,8.7534 -17.88084,21.76222 -26.59302,28.6069 l -6.28282,4.93606 0.63066,-6.75361 c 1.31273,-14.05766 -2.06087,-27.19337 -8.65575,-33.70272 C 288.61021,363.93228 282.07907,360 280.13591,360 c -0.51907,0 -0.0412,2.3625 1.06186,5.25 7.29558,19.09724 -4.28525,41.70508 -24.92504,48.65812 -8.10352,2.72988 -12.79124,2.63867 -21.92239,-0.42656 -10.56577,-3.54681 -14.93978,-5.98005 -20.92456,-11.6402 -12.10667,-11.44999 -12.8783,-27.68988 -2.14485,-45.14144 1.62373,-2.64004 2.76628,-4.98604 2.539,-5.21333 -0.70273,-0.70273 -9.24658,2.18918 -14.83668,5.0219 -2.92485,1.48213 -7.64344,4.89418 -10.48576,7.58233 -16.0238,15.15464 -16.42394,37.95094 -1.06882,60.89169 l 5.21143,7.78595 -5.11815,-1.76091 C 170.31098,425.08611 157.95286,413.74389 152.86209,399.19691 144.35752,374.89489 156.89461,342.78596 181,327.13249 l 3.5,-2.27281 -9.5,0.46054 c -26.25492,1.2728 -49.41886,17.14298 -63.96074,43.82108 -4.46048,8.18306 -4.75492,7.50987 -2.46742,-5.6413 6.26907,-36.04173 26.97987,-62.70622 54.42816,-70.07451 8.02249,-2.15358 24.97104,-2.21005 33.33953,-0.11109 3.21174,0.80556 5.46174,1.09822 5,0.65035 -1.62143,-1.57271 -18.98672,-8.75783 -28.63869,-11.84963 -28.6145,-9.16604 -56.21851,-7.96649 -78.926406,3.42982 -22.112448,11.09746 -43.683685,32.76739 -55.776284,56.03147 l -3.079066,5.92359 0.614047,-6 c 2.396475,-23.41656 16.271281,-51.80213 35.673794,-72.98271 5.017011,-5.47677 6.132824,-7.50287 9.229938,-16.75981 3.769972,-11.26803 10.113304,-25.29117 16.118888,-35.63386 2.036378,-3.507 3.224641,-6.207 2.640585,-6 -0.584057,0.20701 -5.581696,4.56323 -11.105866,9.68049 -10.735098,9.94436 -24.794922,25.62076 -32.418545,36.14597 -5.184104,7.1572 -5.355718,6.87552 -3.089493,-5.07105 C 57.7114,223.84131 71.463131,197.24684 90.883613,176.80838 107.38193,159.44526 127.02661,146.88201 148.5,139.9613 c 5.5,-1.77261 10.675,-3.50156 11.5,-3.84211 0.825,-0.34056 -3.225,-0.76304 -9,-0.93885 -28.24092,-0.85976 -63.508799,6.97401 -95.315434,21.17163 l -5.815435,2.59585 2.232962,-3.72391 C 64.813936,134.02438 86.501526,111.6125 107,98.492613 c 19.30832,-12.358146 39.66066,-18.634831 60.5,-18.658275 13.51469,-0.0152 22.47726,1.589447 34.26256,6.13434 6.52562,2.516546 10.56454,4.700641 23.68411,12.807485 2.66993,1.649807 -4.29879,-6.311035 -12.09008,-13.811304 C 178.10407,51.02908 131.63031,38.543567 79.675074,49.050348 61.43836,52.738314 31.814843,64.011215 22.006158,70.995615 L 19,73.136188 19,283.56809 19,494 l 238,0 238,0 0,-136.50101 z"
     id="path2989"
     style="fill:#ffffff" />
</svg>
