<?xml version="1.0" encoding="UTF-8" standalone="no"?>
<!-- Created with Inkscape (http://www.inkscape.org/) -->

<svg
   xmlns:dc="http://purl.org/dc/elements/1.1/"
   xmlns:cc="http://creativecommons.org/ns#"
   xmlns:rdf="http://www.w3.org/1999/02/22-rdf-syntax-ns#"
   xmlns:svg="http://www.w3.org/2000/svg"
   xmlns="http://www.w3.org/2000/svg"
   version="1.1"
   width="512"
   height="512"
   id="svg2">
  <metadata
     id="metadata8">
    <rdf:RDF>
      <cc:Work
         rdf:about="">
        <dc:format>image/svg+xml</dc:format>
        <dc:type
           rdf:resource="http://purl.org/dc/dcmitype/StillImage" />
        <dc:title></dc:title>
      </cc:Work>
    </rdf:RDF>
  </metadata>
  <defs
     id="defs6" />
  <path
     d="m 0,1.5258789e-5 512,0 L 512,512.00002 l -512,0 z"
     id="rect3020"
     style="fill:#000000;fill-opacity:1;fill-rule:nonzero;stroke:none" />
  <path
     d="m 133,293.10626 c 16.7001,-3.82453 39.79435,-13.52543 50.49745,-21.21181 l 4.34284,-3.11879 -4.30104,-5.28052 c -2.36557,-2.90428 -4.51462,-5.8913 -4.77565,-6.63782 -0.35042,-1.00215 -3.06373,-0.007 -10.36911,3.80323 -36.012,18.78233 -78.768537,20.90911 -105.01769,5.22373 C 44.582793,254.65378 32.834278,233.079 34.312378,212.51084 35.467722,196.43391 41.532608,183.61505 54,170.89872 66.780865,157.86265 77.780229,151.81871 107.51852,141.49131 152.65604,125.81612 181.3145,106.95456 200.18935,80.5 211.40472,64.780791 218.09544,41.88802 216.42595,24.945316 L 215.74158,18 l -9.62079,-1.11e-4 -9.62079,-1.12e-4 0,12.250112 c 0,10.139803 -0.4,13.45599 -2.32194,19.250111 -8.50896,25.652095 -32.6093,48.277775 -68.26235,64.08548 -5.55514,2.46302 -17.96146,7.17329 -27.569598,10.46728 -26.237332,8.99501 -39.671291,16.22436 -53.85787,28.98307 -13.595575,12.22718 -24.386194,29.89411 -27.889212,45.66158 -2.002947,9.01548 -2.049436,25.76689 -0.09452,34.05832 7.536546,31.96492 34.192206,55.40639 70.290064,61.81435 10.644301,1.88953 34.921086,1.12043 46.205426,-1.46382 z m 283,196.59335 c 18.3238,-5.53208 31.70129,-13.58532 44.61551,-26.85851 30.08728,-30.9236 38.12718,-75.09756 21.04151,-115.60926 -3.09688,-7.34299 -22.88569,-42.66631 -31.50216,-56.23184 -9.35997,-14.73607 -23.78564,-31.32466 -35.54517,-40.87467 -11.32084,-9.19374 -30.0322,-21.03616 -31.27464,-19.79371 -0.30046,0.30045 0.82875,6.31125 2.50934,13.35733 8.21236,34.43119 11.46753,60.49512 12.96451,103.80589 l 0.6911,19.99484 13.82518,-16.49484 c 7.60385,-9.07216 14.99364,-17.25544 16.42176,-18.18506 l 2.59657,-1.69021 3.92923,6.69021 c 5.8132,9.89802 11.25287,20.96656 13.36273,27.19022 2.88465,8.50916 2.64748,28.23402 -0.44718,37.19044 -4.14155,11.98628 -14.09918,24.83452 -24.96827,32.21633 -2.35398,1.59873 -8.87898,4.4837 -14.5,6.41106 -17.76931,6.0928 -34.33503,5.54208 -46.72002,-1.55318 -7.20589,-4.1282 -13.40672,-9.76121 -19.29377,-17.52703 -3.01766,-3.98069 -21.77087,-35.47541 -41.67381,-69.98826 l -36.18717,-62.75064 3.64633,-4.24936 c 4.57521,-5.33188 10.95743,-18.22851 13.23758,-26.74936 1.23472,-4.61413 1.72273,-10.12667 1.68201,-19 -0.0493,-10.74896 -0.42877,-13.62066 -2.70868,-20.5 -3.65362,-11.02432 -8.94922,-19.66126 -17.20249,-28.05664 -38.27974,-38.93889 -106.02635,-20.62482 -119.56814,32.32308 -2.13079,8.33129 -2.7315,27.62132 -0.89549,28.75604 1.27953,0.79079 17.25757,-6.9262 25.71363,-12.41903 4.75686,-3.08993 6.25,-4.62414 6.25,-6.42192 0,-3.95675 5.79467,-14.23754 10.4365,-18.51623 12.60375,-11.61774 30.18518,-14.14875 45.2692,-6.51693 22.12455,11.194 25.67629,43.84005 6.67512,61.35473 -7.42611,6.84514 -14.21999,9.43552 -24.99092,9.52855 -8.55811,0.0739 -9.3458,0.26199 -13,3.10388 -6.48077,5.04011 -12.51833,8.89965 -20.2037,12.9153 l -7.3138,3.8215 3.8138,2.37382 c 11.95849,7.44332 23.14946,10.5872 38.05454,10.69067 l 11.24073,0.078 36.04483,62.49258 c 19.82465,34.37091 38.59929,66.31757 41.72142,70.99257 6.89762,10.32833 21.2238,24.79527 30.98857,31.29304 9.26147,6.16286 20.44429,11.23802 30.10724,13.66373 4.21106,1.05711 8.55647,2.14798 9.65647,2.42415 1.1,0.27618 8.975,0.36326 17.5,0.19352 13.19199,-0.26267 16.76569,-0.69074 24,-2.87483 z"
     id="path2989"
     style="fill:#ffffff" />
</svg>
