<svg viewBox="0 0 512 512" xmlns="http://www.w3.org/2000/svg">
<path d="m0,0h512v512h-512z"/>
<g transform="matrix(18.68858,0,0,18.68858,-11804.1078,-23821.01144)">
<path d="m632.1138,1275.2021h26.375v26.375h-26.375z" fill="#fff" stroke="#000"/>
<path d="m632.4004,1275.4963v.1825l11.7131,11.7132-11.7131-7.8798v5.5371l11.4089,3.0728-11.4089-.791v4.594l11.348-3.012-11.348,5.5371v6.7541h.1825l11.6218-11.5914-7.758,11.5914h5.5067l3.0424-11.348-.791,11.348h4.594l-3.0119-11.4089 5.5675,11.4089h6.7541v-.1521l-11.7131-11.7131 11.7131,7.8797v-5.5371l-11.3785-3.0728 11.3785.791v-4.5939l-11.4393,3.0423 11.4393-5.6284v-6.7236h-.1825l-11.7131,11.7131 7.8797-11.7131h-5.5371l-3.0424,11.2263 .7606-11.2263h-4.594l3.0728,11.5002-5.6284-11.5002h-6.7236z"/>
<path d="m635.0137,1284.9461c-.1695,5.3983 6.896,6.7652 9.0822,12.1545 2.0697-5.3885 8.9469-7.0803 9.109-12.1545 .1728-5.4096-6.5608-6.4479-9.109-2.0578-2.5527-4.7926-8.9232-3.0073-9.0822,2.0578z" stroke="#fff"/>
<path d="m648.4744,1281.8794c-.631,0-1.2319.184-1.7247.504 1.1176-.1316 2.3932.5868 3.1575,1.9105 .6651,1.1519.7506,2.4351.3184,3.3432 .8372-.5657 1.3797-1.541 1.3797-2.6268 0-1.7373-1.3937-3.1309-3.131-3.1309z" fill="#fff"/>
</g>
</svg>
