<svg viewBox="0 0 512 512" xmlns="http://www.w3.org/2000/svg">
<path d="m0,0h512v512h-512z"/>
<g transform="matrix(18.68858,0,0,18.68858,-4995.05263,-23821.86738)">
<path d="m283.2796,1287.9407 5.2637,7.738-2.9504-.2537 3.8838,5.7952-11.6339-7.14 4.3994-.068-5.581-4.5872 6.6184-1.4845z" fill="#fff" fill-rule="evenodd"/>
<g transform="matrix(1.1023,0,0,1.1023,-21.31267,-134.587)">
<path d="m270.0544,1291.4506h2.6243l1.6185-.7494 1.8249.7494h2.4082c3.4509,0 4.1787-.5489 4.3472-2.0063 .8952-.9281.5987-1.8604 0-2.7886 .9689-1.6138.0552-3.2671-1.7486-3.2493 .3787-1.3379-.8971-2.6983-2.4772-2.7644-.6938-1.7513-2.6671-2.2905-4.3472.3395l-.0243.024v-.024c-.84-1.315-1.7342-1.841-2.5258-1.8187s-1.4745.6035-1.8215,1.4792c-1.5801.066-2.8316,1.4265-2.4529,2.7644-1.8038-.018-2.7418,1.6355-1.7729,3.2493-.5987.9282-.8709,1.8605.0243,2.7886 .1685,1.4574.7532,2.0063 4.3229,2.0063z" fill="#fff"/>
<path d="m267.312,1286.7057c-1.7825-.079-2.1949.076-2.3367,1.2329-.1441,1.1764.5713,1.8035 3.3863,1.5639" fill="none" stroke="#000" stroke-width=".9072"/>
<path d="m268.3329,1283.9883c-1.6263-.9242-2.5049-1.0196-3.0217.4224-.4179,1.1662-.3753,2.3252 2.0833,2.302" fill="none" stroke="#000" stroke-width=".9072"/>
<path d="m271.0022,1282.8401c-.6835-2.6584-1.7265-2.6512-2.9362-1.7584-1.0029.7402-1.5532,2.0827.7571,3.1793" fill="none" stroke="#000" stroke-width=".9072"/>
<path d="m281.3043,1286.7057c1.7825-.079 2.1949.076 2.3367,1.2329 .1441,1.1764-.5713,1.8035-3.3863,1.5639" fill="none" stroke="#000" stroke-width=".9072"/>
<path d="m280.2834,1283.9883c1.6263-.9242 2.5049-1.0196 3.0217.4224 .4179,1.1662.3753,2.3252-2.0833,2.302" fill="none" stroke="#000" stroke-width=".9072"/>
<path d="m277.6141,1282.8401c.6834-2.6584 1.7265-2.6512 2.9362-1.7584 1.0028.7402 1.5532,2.0827-.7571,3.1793" fill="none" stroke="#000" stroke-width=".9072"/>
<path d="m283.034,1289.384c.6358,1.3938-1.0287,2.2642-1.9288,2.2642h-5.0389c-.7672,0-1.4414-.6218-1.7367-1.5615-.2364.9397-.919,1.5615-1.7367,1.5615h-5.0389c-.9001,0-2.5835-.6435-1.9288-2.2075m12.6365-8.1573c.7558-1.5335-.2856-2.2352-1.4757-2.2352-2.1402-.1075-2.4475,2.4451-2.4475,3.9184l-.009,1.6569-.009-1.6569c0-1.4733-.3072-4.0259-2.4475-3.9184-1.1901,0-2.2315.7017-1.4757,2.2352" fill="none" stroke="#000" stroke-width=".9072"/>
</g>
</g>
</svg>
