<svg viewBox="0 0 512 512" xmlns="http://www.w3.org/2000/svg">
<path d="m0,0h512v512h-512z"/>
<g transform="matrix(18.68858,0,0,18.68858,5785.34947,-7972.29631)">
<path d="m-297.4693,427.8821-7.4381,24.8095h2.5088l4.9828-15.2969v15.2969h2.7876v-15.0878l4.948,15.0878h2.5088l-7.5264-24.8095h-2.7715z" fill="#fff"/>
<path d="m455.9557,438.5445c0,4.6014-3.7301,8.3315-8.3315,8.3315s-8.3315-3.7301-8.3315-8.3315 3.7301-8.3315 8.3315-8.3315 8.3315,3.7301 8.3315,8.3315z" fill="#fff" stroke="#000" stroke-width=".8867" transform="matrix(1.22216,0,0,1.22216,-842.91181,-95.83564)"/>
<path d="m455.9557,438.5445c0,4.6014-3.7301,8.3315-8.3315,8.3315s-8.3315-3.7301-8.3315-8.3315 3.7301-8.3315 8.3315-8.3315 8.3315,3.7301 8.3315,8.3315z" transform="matrix(.88941,0,0,.88941,-693.9642,50.0907)"/>
<path d="m455.9557,438.5445c0,4.6014-3.7301,8.3315-8.3315,8.3315s-8.3315-3.7301-8.3315-8.3315 3.7301-8.3315 8.3315-8.3315 8.3315,3.7301 8.3315,8.3315z" fill="#fff" transform="matrix(.63912,0,0,.63912,-581.93065,159.85176)"/>
<path d="m455.9557,438.5445c0,4.6014-3.7301,8.3315-8.3315,8.3315s-8.3315-3.7301-8.3315-8.3315 3.7301-8.3315 8.3315-8.3315 8.3315,3.7301 8.3315,8.3315z" transform="matrix(.38437,0,0,.38437,-467.89643,271.57288)"/>
<path d="m455.9557,438.5445c0,4.6014-3.7301,8.3315-8.3315,8.3315s-8.3315-3.7301-8.3315-8.3315 3.7301-8.3315 8.3315-8.3315 8.3315,3.7301 8.3315,8.3315z" fill="#fff" transform="matrix(.18597,0,0,.18597,-379.08777,358.58014)"/>
</g>
</svg>
