<svg viewBox="0 0 512 512" xmlns="http://www.w3.org/2000/svg">
<path d="m0,0h512v512h-512z"/>
<g transform="matrix(18.68858,0,0,18.68858,-5681.88955,-40834.02896)">
<path d="m313.8087,2203.9169h4.595l1.7272,7.9517h-7.6909z" fill="#fff" stroke="#000"/>
<path d="m327.5507,2189.652-2.879-.457-2.4515,1.8827" fill="none" stroke="#fff"/>
<path d="m327.7841,2193.0359-2.3956-.8105-3.0855.2133" fill="none" stroke="#fff"/>
<path d="m322.5792,2193.7857 3.9496,2.1827" fill="none" stroke="#fff"/>
<path d="m291.4333,2194.8875c0,.9378-.7603,1.6981-1.6981,1.6981s-1.6981-.7603-1.6981-1.6981 .7603-1.6982 1.6981-1.6982 1.6981.7603 1.6981,1.6982z" fill="#fff" stroke="#000" stroke-width=".8699" transform="matrix(1.13338,-.20378,.19993,1.13015,-445.78391,-228.83594)"/>
<path d="m309.7244,2194.0715 10.3753-1.7484 .1667,1.2877-9.3963,3.8469z" fill="#fff"/>
<path d="m317.7231,2203.6958-6.3697-8.0337-2.4031.8468 5.5683,8.7712z" fill="#fff"/>
<path d="m291.4333,2194.8875c0,.9378-.7603,1.6981-1.6981,1.6981s-1.6981-.7603-1.6981-1.6981 .7603-1.6982 1.6981-1.6982 1.6981.7603 1.6981,1.6982z" fill="#fff" stroke="#000" stroke-width=".7377" transform="matrix(1.3569,.05209,-.05555,1.35226,39.34351,-787.34855)"/>
<path d="m324.8301,2186.4775c0,.5062-.4103.9165-.9165.9165s-.9164-.4103-.9164-.9165 .4103-.9164.9164-.9164 .9165.4103.9165.9164z" fill="#fff" transform="matrix(.97511,-.22172,.22172,.97511,-479.22107,127.74519)"/>
<path d="m324.8301,2186.4775c0,.5062-.4103.9165-.9165.9165s-.9164-.4103-.9164-.9165 .4103-.9164.9164-.9164 .9165.4103.9165.9164z" fill="#fff" transform="matrix(.96593,-.25882,.25882,.96593,-551.19971,161.38786)"/>
<path d="m324.8301,2186.4775c0,.5062-.4103.9165-.9165.9165s-.9164-.4103-.9164-.9165 .4103-.9164.9164-.9164 .9165.4103.9165.9164z" fill="#fff" transform="matrix(.96593,-.25882,.25882,.96593,-552.62282,167.74095)"/>
<path d="m324.8301,2186.4775c0,.5062-.4103.9165-.9165.9165s-.9164-.4103-.9164-.9165 .4103-.9164.9164-.9164 .9165.4103.9165.9164z" fill="#fff" transform="matrix(.96593,-.25882,.25882,.96593,-551.05481,164.94884)"/>
<path d="m291.4333,2194.8875c0,.9378-.7603,1.6981-1.6981,1.6981s-1.6981-.7603-1.6981-1.6981 .7603-1.6982 1.6981-1.6982 1.6981.7603 1.6981,1.6982z" fill="#fff" stroke="#000" stroke-width=".5919" transform="matrix(1.69091,.06492,-.06923,1.68534,-21.72853,-1513.5441)"/>
<path d="m308.6303,2195.8308 4.151-.2696" fill="none" stroke="#000"/>
<path d="m314.0972,2205.9072 4.4843-3.0689" fill="none" stroke="#000"/>
<path d="m320.4806,2192.3126-.7879-2.299 1.5966-1.9736" fill="none" stroke="#fff"/>
<path d="m311.2654,2209.5774h10.0636v2.3253h-10.0636z" fill="#fff" stroke="#000"/>
</g>
</svg>
