<svg viewBox="0 0 512 512" xmlns="http://www.w3.org/2000/svg">
<path d="m0,0h512v512h-512z"/>
<g transform="matrix(18.68858,0,0,18.68858,-1595.78291,-44231.51749)">
<path d="m103.909,2368.7278c1.593-1.5928 3.9978-1.8378 5.8765-.8023l-3.1443,3.1442c-.5539.5539-.5751,1.4633-.0434,1.995s1.4194.4888 1.9733-.065l3.1442-3.1443c1.0353,1.8786.7906,4.2836-.8023,5.8765-1.2245,1.2245-2.9356,1.6734-4.5104,1.3444l-10.6599,10.6598c.3287,1.5747-.1199,3.2859-1.3443,4.5105-1.593,1.5927-3.9979,1.8375-5.8765.8022l3.1442-3.1443c.5539-.5538.5968-1.4416.0651-1.9733s-1.4411-.5105-1.9949.043l-3.1443,3.1442c-1.0354-1.8786-.7906-4.2835.8024-5.8764 1.2245-1.2244 2.9512-1.6575 4.532-1.3227l10.6597-10.66c-.335-1.5809.0984-3.3073 1.3229-4.5318z" fill="#fff" stroke="#000"/>
<path d="m110.1284,2393.5471-4.7418-3.0331 .293-2.0209-7.6594-7.6594 1.4595-1.4594 7.6594,7.6594 2.0208-.2931 3.0332,4.7419z" fill="#fff" stroke="#000"/>
<path d="m94.6169,2380.6983c-.0435-1.4887-1.1192-2.5644-2.6075-2.6076l-4.7391-4.7391c-3.3415-3.3417 1.1045-8.2646 4.6846-4.6845l4.7611,4.761c.0626,1.4514 1.1119,2.5009 2.5633,2.5634 1.1714,0 2.2544,1.2812 1.1712,2.3645l-3.4475,3.4467c-1.0421,1.0424-2.5168.1512-2.3862-1.1044z" fill="#fff" stroke="#000"/>
</g>
</svg>
