<svg xmlns="http://www.w3.org/2000/svg" viewBox="0 0 512 512"><path d="m0,0h512v512h-512z"/>
<g fill="#fff" stroke="#000" stroke-linejoin="round">
<g stroke-width=".963" transform="matrix(18.68858 0 0 18.68858 -4317.56328 -40153.24858)">
<path d="m237.5651,2163.5222c-2.9401-2.94 6.8353-21.5356 17.1256-11.2453 10.2902,10.2901-8.3054,20.0655-11.2454,17.1255z"/>
<path d="m237.5651,2163.5222c1.2843,4.2245-2.9401,5.8802-5.8801,8.8202 .6754,2.2646 .6556,2.2845 2.9401,2.9401 2.9401-2.9401 4.4101-7.3502 8.8202-5.8801z"/>
</g>
<g transform="matrix(18.68858 0 0 18.68858 -4317.56328 -40153.24858)">
<path stroke-width="18" d="m235.2432,132.7568a69.6216,68.7568 0 1,1 -139.2432,0 69.6216,68.7568 0 1,1 139.2432,0z" transform="matrix(.05351 0 0 .05351 242.71191 2162.2425)"/>
</g>
</g>
</svg>
