<svg viewBox="0 0 512 512" xmlns="http://www.w3.org/2000/svg">
<path d="m0,0h512v512h-512z"/>
<g transform="matrix(18.68858,0,0,18.68858,-6355.4334,-29938.34055)">
<g transform="matrix(1.1055,0,0,1.1055,20.01108,1392.55944)">
<path d="m298.5312,191.0312v7.4062h-7.375v6.8438h7.375v7.375h6.8438v-7.375h7.4062v-6.8438h-7.4062v-7.4062h-6.8438z" stroke="#fff" stroke-width=".9046"/>
</g>
<path d="m359.875,1616.2288c0,4.0546-3.287,7.3416-7.3417,7.3416v-7.3416z" fill="#fff" transform="matrix(-.85697,0,0,.85697,652.44802,234.09762)"/>
<path d="m359.875,1616.2288c0,4.0546-3.287,7.3416-7.3417,7.3416v-7.3416z" fill="#fff" transform="matrix(.85697,0,0,-.85697,55.2247,2997.29623)"/>
<path d="m349.8721,1619.6612 7.9286-7.9286" fill="none" stroke="#fff"/>
<path d="m357.8007,1619.6612-7.9286-7.9286" fill="none" stroke="#fff"/>
<path d="m348.6623,1615.7214c0,1.1796-.9562,2.1358-2.1358,2.1358s-2.1358-.9562-2.1358-2.1358 .9562-2.1357 2.1358-2.1357 2.1358.9562 2.1358,2.1357z" fill="#fff" transform="matrix(1.1125,0,0,1.1125,-39.817,-181.79317)"/>
<path d="m348.6623,1615.7214c0,1.1796-.9562,2.1358-2.1358,2.1358s-2.1358-.9562-2.1358-2.1358 .9562-2.1357 2.1358-2.1357 2.1358.9562 2.1358,2.1357z" fill="#fff" transform="matrix(1.1125,0,0,1.1125,-23.53186,-181.79317)"/>
<path d="m348.6623,1615.7214c0,1.1796-.9562,2.1358-2.1358,2.1358s-2.1358-.9562-2.1358-2.1358 .9562-2.1357 2.1358-2.1357 2.1358.9562 2.1358,2.1357z" fill="#fff" transform="matrix(0,1.1125,-1.1125,0,2151.3264,1222.04354)"/>
<path d="m348.6623,1615.7214c0,1.1796-.9562,2.1358-2.1358,2.1358s-2.1358-.9562-2.1358-2.1358 .9562-2.1357 2.1358-2.1357 2.1358.9562 2.1358,2.1357z" fill="#fff" transform="matrix(0,1.1125,-1.1125,0,2151.3265,1238.32874)"/>
<path d="m359.875,1616.2288c0,4.0546-3.287,7.3416-7.3417,7.3416v-7.3416z" fill="#fff" transform="matrix(.85697,0,0,.85697,55.2247,234.09762)"/>
<path d="m359.875,1616.2288c0,4.0546-3.287,7.3416-7.3417,7.3416v-7.3416z" fill="#fff" transform="matrix(-.85697,0,0,-.85697,652.44802,2997.29623)"/>
</g>
</svg>
