<svg viewBox="0 0 512 512" xmlns="http://www.w3.org/2000/svg">
<path d="m0,0h512v512h-512z"/>
<g transform="matrix(18.68858,0,0,18.68858,-229.31148,-25863.55737)">
<path d="m29.6439,1393.1074 .8922-1.5732-8.6311-3.5364 4.7087,4.1857c1.2148-1.3424 3.1665-.1188 3.0302.9239z" fill="#fff"/>
<path d="m28.1494,1397.3554c.7745-3.0403-3.5377-3.3479-1.2272-5.854l-2.6628-2.1113c-3.0509,1.5112-1.4853,5.3801-.2302,7.1942" fill="#fff"/>
<path d="m27.6301,1394.3477c0,.3935-.319.7125-.7125.7125s-.7125-.319-.7125-.7125 .319-.7126.7125-.7126 .7125.319.7125.7126z" stroke="#fff" stroke-width=".7358" transform="matrix(-1.31271,-.35174,-.35174,1.31271,552.45181,-429.33069)"/>
<path d="m29.5035,1393.3381-1.1057.8767-1.3918-1.2672 .9656-1.4001c-1.0499,1.4684.9777,2.005 1.5318,1.7909z" fill="#fff"/>
<path d="m24.7649,1396.1046c-4.3365.3157-7.9665-5.7582-5.3742-10.4125-9.0088,3.5492-6.2292,19.6377-3.4101,22.3661-.5127-3.5553-.1706-4.2713 1.83-2.0462-1.2444-3.4478 1.0616-6.6524 3.4307-2.507-1.1365-3.7569 3.7578-5.2663 3.4454-1.5114" fill="#fff"/>
<path d="m28.0259,1396.079c3.574-.6308 4.9253-7.281 1.633-11.2174 8.1736,1.4843 10.5507,14.4958 8.2191,20.6587-.1176-4.1742-1.1228-5.2652-2.7958-1.9527 .4418-3.3779-1.6803-5.6108-3.1478-1.3118-.2736-3.7363-2.7511-4.8007-3.1662-1.6241" fill="#fff"/>
<path d="m23.9354,1396.3486 4.1095-.197c2.4016,4.6451.3011,10.1649-4.9824,11.1462-3.3711.6261-8.2341-4.0156-5.1604-8.6624-1.3624,4.7895 2.3563,7.0916 4.4779,6.5322 3.2879-.8668 2.1928-6.3687 1.5553-8.819z" fill="#fff"/>
<path d="m28.0812,1410.3814c1.6596-.9747 1.7555-2.7701-.3915-3.4733-2.0875-.6839-2.4854,1.3108-1.9313,2.854 .2626-2.9868 3.8419-1.7712 2.322.6221z" fill="#fff"/>
<path d="m33.0228,1407.057c.907-1.5985.1292-3.1289-1.982-2.6853-2.0527.4312-1.4293,2.2703-.2344,3.2819-1.2089-2.5951 2.3313-3.2987 2.2164-.5966z" fill="#fff"/>
<path d="m31.8849,1405.2547c.443.8015.2131,1.6842.061,2.5574-.4884-.656-1.0396-1.3752-1.0159-2.5153" fill="#fff"/>
<path d="m28.0382,1408.0452c-.0179.9589-.6886,1.639-1.2838,2.3513-.0994-.8508-.2228-1.7917.3956-2.8133" fill="#fff"/>
<path d="m27.9104,1391.2236 .8395,1.6593 .3149-1.0222" fill="#fff"/>
<path d="m23.5694,1387.3826 1.194,2.1818 2.1249.5639" fill="#fff"/>
<path d="m19.3098,1385.73 1.7882-.6446-1.5628,1.7882 1.663.275-2.949,1.2804 .1334-1.5483z" fill="#fff"/>
<path d="m29.6666,1384.8644-1.8719,1.7381 1.9747-.2008-.8238,1.6117 2.4989-1.0558" fill="#fff"/>
<path d="m37.4105,1405.8397c.1044-5.8808-1.7924-13.6465-4.4614-17.8947" fill="none" stroke="#000"/>
<path d="m16.5584,1408.1706c-1.7433-6.0152-1.3263-15.5173.8597-19.3363" fill="none" stroke="#000"/>
<path d="m28.7913,1407.5954-3.8001-4.0641 1.9265,4.0641" fill="#fff"/>
<path d="m32.1508,1404.3334-4.9232-.6848-.2297.5828 3.1,1.245" fill="#fff"/>
</g>
</svg>
