<svg viewBox="0 0 512 512" xmlns="http://www.w3.org/2000/svg">
<path d="m0,0h512v512h-512z"/>
<g transform="matrix(18.68858,0,0,18.68858,-2741.99965,-7250.96806)">
<path d="m152.0483,409.5781c-4.7472-5.4877 4.1487-14.5833 10.0414-17.4039 15.2963-7.3218 11.1752,1.8099 5.9256,4.4836-4.5705,2.3278-6.6347,5.3502-8.5081,8.2866-1.0651,1.6694-3.8643,2.8895-6.9321,2.7511" fill="#fff" fill-rule="evenodd" stroke="#fff"/>
<path d="m152.8102,404.9062c-1.5269,3.0386-2.5062,6.0487-3.0523,9.2249" fill="none" stroke="#fff"/>
<path d="m150.9407,414.0727c1.6146-10.4983 7.1505-17.7468 15.9781-21.2453" fill="none" stroke="#000"/>
<path d="m170.7392,397.3633-6.5817-.1989 4.5951,1.6342" fill-rule="evenodd"/>
<path d="m173.3998,394.5037-6.4089,1.5111 4.8616.3894" fill-rule="evenodd"/>
<path d="m161.639,409.2969-4.5135-4.7937 2.0936,4.4041" fill-rule="evenodd"/>
<path d="m157.4468,411.0373-1.5116-6.4078-.3893,4.8607" fill-rule="evenodd"/>
<path d="m164.1676,390.1223-4.5562,4.7529 2.133-4.3851" fill-rule="evenodd"/>
<path d="m157.7813,391.9448-1.5689,6.3939-.3458-4.864" fill-rule="evenodd"/>
<path d="m172.7447,388.8162-6.3228,1.8383 4.0402-2.7313" fill-rule="evenodd"/>
<path d="m151.0244,408.7059c-1.2873-.7272-2.0389-1.7847-2.7163-2.888l1.9544.6005c-.7002-1.1438-1.0333-2.2875-1.3913-3.4312l3.3788,2.2589" fill="#fff" fill-rule="evenodd"/>
</g>
</svg>
