<svg viewBox="0 0 512 512" xmlns="http://www.w3.org/2000/svg">
<path d="m0,0h512v512h-512z"/>
<g transform="matrix(18.68858,0,0,18.68858,-5674.16012,-25182.73987)">
<path d="m309.5612,1353.1271 1.945.7307 2.3871-5.2743 1.3208,7.1322 4.4906-6.7623 .5547,6.1547 3.1434-4.8868 1.7434,3.0642-1.7608-.4861-3.9978,7.5125-.4227-7.3963-4.7547,8.5586-.9147-8.5305-1.578,2.7104z" fill="#fff"/>
<path d="m312.4933,1358.2516c0,1.4589-1.1827,2.6415-2.6415,2.6415s-2.6415-1.1826-2.6415-2.6415 1.1827-2.6415 2.6415-2.6415 2.6415,1.1826 2.6415,2.6415z" fill="#fff" stroke="#000" transform="translate(-2.9585,-3.2227)"/>
<path d="m307.0342,1355.4302 5.1769,19.3201" fill="none" stroke="#fff"/>
<path d="m310.6087,1360.888-3.9411,1.0559" fill="none" stroke="#fff"/>
<path d="m311.224,1363.1844-3.9411,1.0559" fill="none" stroke="#fff"/>
<path d="m311.8667,1365.5828-3.941,1.0558" fill="none" stroke="#fff"/>
<path d="m312.4957,1367.9302-3.941,1.0559" fill="none" stroke="#fff"/>
<path d="m313.1384,1370.3286-3.9411,1.056" fill="none" stroke="#fff"/>
<path d="m312.4933,1358.2516c0,1.4589-1.1827,2.6415-2.6415,2.6415s-2.6415-1.1826-2.6415-2.6415 1.1827-2.6415 2.6415-2.6415 2.6415,1.1826 2.6415,2.6415z" fill="#fff" stroke="#000" transform="matrix(-1,0,0,1,637.67703,-3.22267)"/>
<path d="m327.6843,1355.4302-5.1769,19.3201" fill="none" stroke="#fff"/>
<path d="m324.1098,1360.888 3.9411,1.0559" fill="none" stroke="#fff"/>
<path d="m323.4945,1363.1844 3.9411,1.0559" fill="none" stroke="#fff"/>
<path d="m322.8518,1365.5828 3.941,1.0558" fill="none" stroke="#fff"/>
<path d="m322.2229,1367.9302 3.941,1.0559" fill="none" stroke="#fff"/>
<path d="m321.5802,1370.3286 3.9411,1.056" fill="none" stroke="#fff"/>
<path d="m308.531,1374.4179h16.9586" fill="none" stroke="#000"/>
</g>
</svg>
