<?xml version="1.0" encoding="UTF-8" standalone="no"?>
<!-- Created with Inkscape (http://www.inkscape.org/) -->

<svg
   xmlns:dc="http://purl.org/dc/elements/1.1/"
   xmlns:cc="http://creativecommons.org/ns#"
   xmlns:rdf="http://www.w3.org/1999/02/22-rdf-syntax-ns#"
   xmlns:svg="http://www.w3.org/2000/svg"
   xmlns="http://www.w3.org/2000/svg"
   version="1.1"
   width="512"
   height="512"
   id="svg2">
  <metadata
     id="metadata8">
    <rdf:RDF>
      <cc:Work
         rdf:about="">
        <dc:format>image/svg+xml</dc:format>
        <dc:type
           rdf:resource="http://purl.org/dc/dcmitype/StillImage" />
        <dc:title></dc:title>
      </cc:Work>
    </rdf:RDF>
  </metadata>
  <defs
     id="defs6" />
  <rect
     width="512"
     height="512"
     x="0"
     y="0"
     id="rect3299"
     style="fill:#000000;fill-opacity:1;stroke:none" />
  <path
     d="m 202.06161,296.76884 3.63755,-13.55897 -4.26491,-7.59317 -4.26489,-7.59316 5.5582,-20.84613 5.55821,-20.84612 -12.30288,-9.4037 c -32.42327,-24.7827 -74.99389,-56.74325 -75.24546,-56.49168 -0.15461,0.15461 2.71828,24.67602 6.3842,54.49203 l 6.66531,54.21091 20.42719,5.5133 c 12.52007,3.37916 21.03345,6.34241 21.99341,7.65522 0.86141,1.17806 5.73984,9.38266 10.84095,18.23246 10.56235,18.32441 8.97875,18.72219 15.01312,-3.77099 z m 265.58875,124.03117 9.92619,-56.64 -0.38827,-49.28 -0.38828,-49.28 -18.43679,104.32 c -10.14023,57.376 -18.69785,105.04 -19.01694,105.92 -0.43084,1.18819 1.85955,1.6 8.89886,1.6 l 9.47903,0 9.9262,-56.64 z m -53.6804,53.76 c 0.3183,-1.584 3.50436,-53.28 7.08013,-114.88 3.57577,-61.6 6.82726,-115.21197 7.22553,-119.13771 l 0.72414,-7.13772 23.50425,-20.80792 23.50425,-20.80794 -5.93769,-16.85435 C 434.94606,75.232233 421.50586,38.193401 420.45189,38.194063 c -0.68854,4.33e-4 -17.46419,32.842554 -37.27922,72.982497 l -36.02733,72.98171 22.27605,25.00878 22.27604,25.00877 -7.04871,116.74743 C 380.77192,415.13435 377.6,469.86879 377.6,472.55535 l 0,4.88466 17.89562,0 c 17.5336,0 17.90731,-0.0582 18.47434,-2.88 z m -58.15781,1.92 c -0.0154,-0.528 -3.94411,-31.86788 -8.73064,-69.64418 l -8.7028,-68.68419 9.90347,-13.44045 9.90345,-13.44045 -21.97282,-35.96577 c -16.38657,-26.82204 -22.20432,-35.39365 -22.88344,-33.71536 -2.2558,5.57468 -20.21353,78.64812 -19.57973,79.67365 0.39085,0.63241 6.44775,5.30779 13.45977,10.38972 7.012,5.08193 13.01348,10.15498 13.33659,11.27346 0.32311,1.11846 4.09276,30.54557 8.377,65.39357 4.28422,34.848 8.07216,64.656 8.41763,66.24 0.57833,2.65165 1.33664,2.88 9.56375,2.88 4.91459,0 8.92309,-0.432 8.90777,-0.96 z m -40.68119,-3.2 c -1.38482,-2.288 -16.21337,-28.064 -32.95234,-57.28 -16.73897,-29.216 -30.62891,-53.36 -30.86656,-53.65334 -0.8999,-1.11081 -1.61692,0.97529 -5.70223,16.59002 l -4.20004,16.05321 20.96108,36.42505 c 11.5286,20.03379 22.30662,38.58506 23.95117,41.22506 l 2.99008,4.8 14.16833,0 14.16834,0 -2.51783,-4.16 z m -112.41279,1.92 c 0.35786,-1.232 5.33521,-20.096 11.06076,-41.92 5.72556,-21.824 12.6531,-47.744 15.39454,-57.6 2.74144,-9.856 6.48788,-23.968 8.32542,-31.36 1.83756,-7.392 6.71153,-25.824 10.83107,-40.96 4.11952,-15.136 11.01501,-40.768 15.3233,-56.96 4.30829,-16.192 8.11964,-30.4103 8.46966,-31.59622 0.35003,-1.18592 10.25756,-7.71307 22.01674,-14.50476 11.75919,-6.79168 21.87671,-12.82656 22.48339,-13.41082 1.00677,-0.96958 -14.63261,-120.235679 -16.81261,-128.213065 -0.85676,-3.135265 -4.15173,0.733151 -41.6131,48.855415 l -40.68266,52.26027 12.84266,22.28507 c 7.06346,12.25678 12.84266,23.21975 12.84266,24.36215 0,2.10186 -15.09489,59.50834 -24.30739,92.44196 -2.75701,9.856 -7.66425,28.288 -10.90496,40.96 -3.24073,12.672 -7.8543,29.952 -10.25239,38.4 -6.38106,22.47914 -26.21526,96.63908 -26.21526,98.01861 0,0.65585 6.79456,1.18139 15.27374,1.18139 13.44521,0 15.35164,-0.26817 15.92443,-2.24 z m -67.91648,-35.64307 8.99663,-37.24306 14.45854,-8.19694 c 14.02023,-7.94845 14.4394,-8.31333 13.82749,-12.03693 -0.34708,-2.112 -2.93165,-20.50761 -5.7435,-40.87914 -2.81185,-20.37152 -5.39845,-37.32512 -5.74799,-37.67466 -0.83213,-0.83214 0.80833,-2.83876 -27.31299,33.40926 l -24.55839,31.65548 8.35926,14.55843 c 4.59759,8.00712 8.35926,15.43427 8.35926,16.50478 0,1.0705 -4.032,18.46535 -8.96,38.65524 -4.928,20.18989 -8.96,37.279 -8.96,37.97582 0,0.75277 3.71037,1.11432 9.14252,0.89087 l 9.14252,-0.37608 8.99665,-37.24307 z M 68.690414,408.32001 c 2.957412,-37.664 5.559919,-70.48226 5.78335,-72.9295 0.352961,-3.86597 2.00092,-5.78488 12.566236,-14.63232 6.688,-5.60056 12.320009,-10.8061 12.515576,-11.56788 0.381735,-1.48695 -23.343142,-77.24453 -24.576924,-78.47831 -1.000234,-1.00023 0.636585,-3.85388 -20.979914,36.57647 l -19.380609,36.24846 10.850936,12.95336 C 51.437079,323.61463 56.32,330.48878 56.32,331.76617 c 0,3.066 -9.921129,130.27338 -10.841656,139.01028 l -0.713973,6.77643 9.274465,-0.37643 9.274466,-0.37644 5.377112,-68.48 z"
     id="path3256"
     style="fill:#ffffff;fill-opacity:1" />
</svg>
