<?xml version="1.0" encoding="UTF-8" standalone="no"?>
<!-- Created with Inkscape (http://www.inkscape.org/) -->

<svg
   xmlns:dc="http://purl.org/dc/elements/1.1/"
   xmlns:cc="http://creativecommons.org/ns#"
   xmlns:rdf="http://www.w3.org/1999/02/22-rdf-syntax-ns#"
   xmlns:svg="http://www.w3.org/2000/svg"
   xmlns="http://www.w3.org/2000/svg"
   version="1.1"
   width="512"
   height="512"
   id="svg2">
  <metadata
     id="metadata8">
    <rdf:RDF>
      <cc:Work
         rdf:about="">
        <dc:format>image/svg+xml</dc:format>
        <dc:type
           rdf:resource="http://purl.org/dc/dcmitype/StillImage" />
        <dc:title></dc:title>
      </cc:Work>
    </rdf:RDF>
  </metadata>
  <defs
     id="defs6" />
  <rect
     width="512"
     height="512"
     x="0"
     y="0"
     id="rect3006"
     style="fill:#000000;fill-opacity:1;stroke:none" />
  <path
     d="m 232.98744,196.3099 c 2.80091,-1.85354 5.09256,-3.60182 5.09256,-3.88503 0,-1.97318 -5.35233,-7.80387 -11.9967,-13.06885 C 211.02844,167.42655 196.42135,161.25761 178.88,159.4209 l -8.64,-0.90466 0,3.78188 c 0,5.39852 1.43316,11.8383 2.48932,11.18557 2.19981,-1.35956 19.35848,2.28652 26.53144,5.63772 8.4396,3.94296 19.56547,11.70936 24.64236,17.2016 1.70672,1.84635 3.30306,3.35699 3.54744,3.35699 0.24438,0 2.73597,-1.51654 5.53688,-3.3701 z M 103.04,209.35057 c 23.232,-5.19174 41.376,-9.56729 40.32,-9.72343 -1.056,-0.15616 -8.544,-0.64016 -16.64,-1.07554 -11.29416,-0.60737 -14.72,-1.20349 -14.72,-2.56139 0,-0.97338 6.90997,-5.71929 15.35548,-10.54643 8.44552,-4.82717 15.52704,-9.29135 15.73673,-9.92041 0.20969,-0.62907 -8.26377,-7.40317 -18.82991,-15.05356 -10.56615,-7.65039 -19.23168,-14.65249 -19.25674,-15.5602 -0.0361,-1.30645 5.38929,-1.5732 26.03294,-1.28 16.97484,0.2411 25.93299,-0.0764 25.66167,-0.90961 -0.22926,-0.704 -1.93116,-7.904 -3.78199,-16 -1.85083,-8.096 -3.6454,-15.728 -3.98793,-16.96 -0.77113,-2.77368 4.09564,-3.10544 7.90494,-0.53888 4.88627,3.29219 32.91826,17.76035 32.31021,16.67628 -8.94548,-15.94855 -52.88448,-85.994183 -53.50079,-85.288597 -0.47619,0.545158 -2.45884,19.999197 -4.40592,43.231197 -2.10181,25.07823 -4.12896,42.8223 -4.98941,43.67321 -1.06984,1.05798 -11.50275,0.63824 -39.84928,-1.60321 -21.12,-1.67003 -39.618408,-2.89097 -41.107574,-2.71321 -1.874277,0.22374 6.398445,6.28073 26.88,19.68055 16.273166,10.64654 29.757634,20.21057 29.965494,21.2534 0.20786,1.04284 -8.744077,13.06803 -19.893183,26.72266 -19.18413,23.49535 -22.768089,28.08711 -21.840279,27.98163 0.217548,-0.0247 19.403542,-4.29273 42.635542,-9.48446 z m 288.9146,24.3403 c 5.12897,-3.11802 12.77064,-8.88009 16.98148,-12.8046 l 7.65607,-7.13547 -6.93227,-4.66848 C 393.36448,198.10836 367.9936,188.7257 347.84,186.22007 c -7.1458,-0.88841 -7.35959,-0.82693 -7.34615,2.11245 0.0435,9.5041 6.64331,22.87311 16.48136,33.38564 6.36592,6.80239 21.54835,17.64184 24.71027,17.64184 0.51904,0 5.14015,-2.5511 10.26912,-5.66913 z M 369.45441,360 c -0.35096,-1.232 -1.2977,-5.56685 -2.10386,-9.63299 -4.3403,-21.89173 -16.43575,-49.57417 -31.92362,-73.06246 -5.03936,-7.64251 -8.98658,-14.80875 -8.77161,-15.92502 0.26757,-1.38939 5.07296,-3.40093 15.23472,-6.37732 l 14.84386,-4.34776 -11.81713,-11.72722 C 336.15923,230.23631 331.93821,224.8796 328.61381,218.23788 323.17672,207.37526 320,197.09687 320,190.36757 l 0,-5.0078 -6.72,0.86703 c -34.92795,4.50646 -70.25681,23.4809 -91.70413,49.25246 -7.80788,9.38213 -9.13167,15.31364 -5.90912,26.47704 11.55568,40.03055 69.98015,82.40544 133.77325,97.02485 16.87354,3.8669 20.88388,4.07105 20.01441,1.01885 z m -135.32208,40.83209 c 3.62293,-19.03841 12.8869,-41.31869 21.93349,-52.75113 l 3.60761,-4.55905 -9.9955,-7.22923 c -12.58053,-9.09881 -29.2704,-24.742 -36.70295,-34.40116 -3.13819,-4.0783 -7.92552,-11.75555 -10.63852,-17.06053 l -4.93272,-9.64542 -1.89998,4.80721 c -6.60393,16.70892 -9.20507,34.29443 -8.2486,55.76645 1.48989,33.44764 13.77301,64.03422 35.46484,88.31214 l 8.32,9.3119 0.77281,-12.21163 c 0.42504,-6.71641 1.46883,-15.8692 2.31952,-20.33955 z M 417.76,443.59887 c 42.36637,-31.88585 64.84394,-89.80096 54.47831,-140.36742 -5.56328,-27.13925 -15.98646,-47.95766 -36.11659,-72.13631 l -3.15112,-3.78487 -8.8053,8.09411 c -14.96751,13.7586 -33.26787,24.5301 -55.8453,32.87026 -5.456,2.01546 -9.92,4.15367 -9.92,4.75159 0,0.59791 2.22496,4.93162 4.94436,9.63045 14.22209,24.57427 24.07988,54.45701 28.36438,85.98332 3.32946,24.49906 1.00787,64.5249 -4.9991,86.1879 l -2.37108,8.55086 11.87986,-6.25413 c 6.53393,-3.43978 16.22763,-9.52637 21.54158,-13.52576 z m -62.7786,27.55527 c 2.69578,-0.64366 5.22631,-1.49518 5.62341,-1.89228 1.60414,-1.60414 7.04201,-22.80167 9.42042,-36.72201 1.8636,-10.90733 2.43744,-19.35598 2.17345,-32 L 371.84,383.36 l -4.48,-0.36462 c -21.54874,-1.75383 -53.62156,-11.24294 -77.44,-22.91153 l -11.52,-5.64362 -4.04145,4.616 c -13.37506,15.27653 -22.19328,45.06628 -22.1968,74.98538 -0.003,16.6717 -0.31759,16.02791 10.87825,22.18887 13.99892,7.70346 32.35707,13.53751 50.56,16.06752 9.39493,1.30578 33.96641,0.62658 41.3814,-1.14386 z"
     id="path2987"
     style="fill:#ffffff" />
</svg>
