<?xml version="1.0" encoding="UTF-8" standalone="no"?>
<!-- Created with Inkscape (http://www.inkscape.org/) -->

<svg
   xmlns:dc="http://purl.org/dc/elements/1.1/"
   xmlns:cc="http://creativecommons.org/ns#"
   xmlns:rdf="http://www.w3.org/1999/02/22-rdf-syntax-ns#"
   xmlns:svg="http://www.w3.org/2000/svg"
   xmlns="http://www.w3.org/2000/svg"
   xmlns:sodipodi="http://sodipodi.sourceforge.net/DTD/sodipodi-0.dtd"
   xmlns:inkscape="http://www.inkscape.org/namespaces/inkscape"
   id="svg2"
   version="1.1"
   inkscape:version="0.48.3.1 r9886"
   width="400"
   height="400"
   sodipodi:docname="Icon.5_13.png">
  <metadata
     id="metadata8">
    <rdf:RDF>
      <cc:Work
         rdf:about="">
        <dc:format>image/svg+xml</dc:format>
        <dc:type
           rdf:resource="http://purl.org/dc/dcmitype/StillImage" />
        <dc:title></dc:title>
      </cc:Work>
    </rdf:RDF>
  </metadata>
  <defs
     id="defs6" />
  <sodipodi:namedview
     pagecolor="#ffffff"
     bordercolor="#666666"
     borderopacity="1"
     objecttolerance="10"
     gridtolerance="10"
     guidetolerance="10"
     inkscape:pageopacity="0"
     inkscape:pageshadow="2"
     inkscape:window-width="1280"
     inkscape:window-height="970"
     id="namedview4"
     showgrid="false"
     inkscape:zoom="1.668772"
     inkscape:cx="210.89222"
     inkscape:cy="202.07413"
     inkscape:window-x="0"
     inkscape:window-y="26"
     inkscape:window-maximized="1"
     inkscape:current-layer="svg2" />
  <rect
     style="fill:#000000;fill-opacity:1;stroke:none"
     id="rect3006"
     width="400"
     height="400"
     x="0"
     y="-1.1368684e-13" />
  <path
     id="path2987"
     style="fill:#ffffff"
     d="M 182.02144,153.36711 C 184.20965,151.91903 186,150.55319 186,150.33193 c 0,-1.54155 -4.18151,-6.09677 -9.37242,-10.21004 -11.76161,-9.3199 -23.1734,-14.13938 -36.87758,-15.57431 l -6.75,-0.70677 0,2.9546 c 0,4.21759 1.11966,9.24867 1.94478,8.73872 1.7186,-1.06215 15.12381,1.78635 20.72769,4.40447 6.59344,3.08044 15.28552,9.14794 19.25184,13.43875 1.33338,1.44246 2.58052,2.62265 2.77144,2.62265 0.19092,0 2.13748,-1.1848 4.32569,-2.63289 z M 80.5,163.55513 c 18.15,-4.05604 32.325,-7.47444 31.5,-7.59643 -0.825,-0.122 -6.675,-0.50012 -13,-0.84026 -8.823559,-0.47451 -11.5,-0.94023 -11.5,-2.00109 0,-0.76045 5.398411,-4.46819 11.996468,-8.2394 6.598062,-3.77122 12.130502,-7.25886 12.294322,-7.75032 0.16382,-0.49146 -6.45607,-5.78372 -14.710872,-11.76059 -8.254799,-5.97687 -15.024743,-11.44726 -15.044321,-12.15641 -0.02818,-1.02066 4.210379,-1.22906 20.338233,-1 13.26159,0.18836 20.26015,-0.0597 20.04818,-0.71063 -0.17911,-0.55 -1.50872,-6.175 -2.95468,-12.5 -1.44596,-6.325 -2.84797,-12.2875 -3.11557,-13.25 -0.60245,-2.166934 3.19972,-2.426127 6.17573,-0.420997 3.8174,2.572024 25.71739,13.875274 25.24235,13.028344 -6.98865,-12.459811 -41.316,-67.182959 -41.79749,-66.63172 C 105.60033,32.151532 104.05138,47.35 102.53023,65.5 100.88819,85.092368 99.304477,98.954923 98.632251,99.619694 97.796434,100.44624 89.645726,100.11832 67.5,98.367187 51,97.062477 36.548119,96.108614 35.384708,96.247493 c -1.464279,0.174794 4.998785,4.906817 21,15.375427 12.713411,8.31761 23.248154,15.78951 23.410542,16.60422 0.162387,0.81472 -6.83131,10.2094 -15.541549,20.87708 -14.987602,18.35574 -17.78757,21.94305 -17.062718,21.86065 C 47.360942,170.94556 62.35,167.61117 80.5,163.55513 z m 225.71453,19.01586 c 4.00701,-2.43595 9.97706,-6.93757 13.26678,-10.00359 l 5.98131,-5.57459 -5.41584,-3.64725 C 307.316,154.77216 287.495,147.44195 271.75,145.48443 c -5.58266,-0.69407 -5.74968,-0.64604 -5.73918,1.65035 0.034,7.42508 5.19009,17.86962 12.87606,26.08253 4.97338,5.31437 16.83465,13.78269 19.3049,13.78269 0.4055,0 4.01574,-1.99305 8.02275,-4.42901 z M 288.63626,281.25 c -0.27419,-0.9625 -1.01383,-4.3491 -1.64364,-7.52577 -3.39086,-17.10292 -12.84043,-38.72982 -24.94033,-57.08005 -3.937,-5.97071 -7.02077,-11.56934 -6.85282,-12.44142 0.20904,-1.08546 3.96325,-2.65698 11.90212,-4.98228 l 11.59677,-3.39669 -9.23213,-9.16189 C 262.6244,179.87212 259.32673,175.68719 256.72954,170.49834 252.48181,162.01192 250,153.98193 250,148.72466 l 0,-3.91234 -5.25,0.67737 c -27.28746,3.52067 -54.88813,18.34445 -71.64385,38.47848 -6.09991,7.32979 -7.13412,11.96378 -4.6165,20.68519 9.02787,31.27387 54.67199,64.37925 104.51035,75.80066 13.18245,3.02102 16.31553,3.18051 15.63626,0.79598 z m -105.72038,31.90007 c 2.83042,-14.87376 10.06789,-32.28023 17.13554,-41.21182 l 2.81845,-3.56176 -7.80899,-5.64783 c -9.82854,-7.10845 -22.8675,-19.32969 -28.67418,-26.87591 -2.45171,-3.18617 -6.19181,-9.18402 -8.31134,-13.32854 l -3.85369,-7.53548 -1.48436,3.75563 c -5.15932,13.05384 -7.19146,26.79252 -6.44422,43.56754 1.16398,26.13097 10.76017,50.02673 27.70691,68.99386 l 6.5,7.27492 0.60376,-9.54034 c 0.33206,-5.24719 1.14752,-12.39781 1.81212,-15.89027 z M 326.375,346.56162 c 33.09873,-24.91082 50.65933,-70.157 42.56118,-109.66205 -4.34631,-21.20254 -12.48942,-37.46692 -28.21609,-56.35649 l -2.46181,-2.95693 -6.87914,6.32352 c -11.69337,10.74891 -25.99052,19.16414 -43.62914,25.67989 -4.2625,1.57458 -7.75,3.24506 -7.75,3.71218 0,0.46712 1.73825,3.85283 3.86278,7.52379 11.11101,19.19865 18.81241,42.54454 22.15967,67.17447 2.60114,19.13989 0.7874,50.41008 -3.90554,67.3343 l -1.85241,6.68036 9.28114,-4.88604 c 5.10463,-2.68733 12.67784,-7.44248 16.82936,-10.567 z m -49.04578,21.52755 c 2.10608,-0.50286 4.08305,-1.16811 4.39329,-1.47834 1.25323,-1.25324 5.50157,-17.81381 7.3597,-28.68907 1.45594,-8.52135 1.90425,-15.12186 1.69801,-25 L 290.5,299.5 287,299.21514 c -16.83495,-1.37018 -41.89184,-8.78355 -60.5,-17.89963 l -9,-4.40908 -3.15738,3.60625 c -10.44927,11.93479 -17.3385,35.20803 -17.34125,58.58233 -0.002,13.02476 -0.24812,12.5218 8.49863,17.33505 10.93666,6.01833 25.27896,10.57618 39.5,12.55275 7.33979,1.02014 26.53626,0.48952 32.32922,-0.89364 z" />
</svg>
