<?xml version="1.0" encoding="UTF-8" standalone="no"?>
<!-- Created with Inkscape (http://www.inkscape.org/) -->

<svg
   xmlns:dc="http://purl.org/dc/elements/1.1/"
   xmlns:cc="http://creativecommons.org/ns#"
   xmlns:rdf="http://www.w3.org/1999/02/22-rdf-syntax-ns#"
   xmlns:svg="http://www.w3.org/2000/svg"
   xmlns="http://www.w3.org/2000/svg"
   xmlns:sodipodi="http://sodipodi.sourceforge.net/DTD/sodipodi-0.dtd"
   xmlns:inkscape="http://www.inkscape.org/namespaces/inkscape"
   id="svg2"
   version="1.1"
   inkscape:version="0.48.3.1 r9886"
   width="400"
   height="400"
   sodipodi:docname="Icons8_11.png">
  <metadata
     id="metadata8">
    <rdf:RDF>
      <cc:Work
         rdf:about="">
        <dc:format>image/svg+xml</dc:format>
        <dc:type
           rdf:resource="http://purl.org/dc/dcmitype/StillImage" />
        <dc:title></dc:title>
      </cc:Work>
    </rdf:RDF>
  </metadata>
  <defs
     id="defs6" />
  <sodipodi:namedview
     pagecolor="#ffffff"
     bordercolor="#666666"
     borderopacity="1"
     objecttolerance="10"
     gridtolerance="10"
     guidetolerance="10"
     inkscape:pageopacity="0"
     inkscape:pageshadow="2"
     inkscape:window-width="1280"
     inkscape:window-height="970"
     id="namedview4"
     showgrid="false"
     inkscape:zoom="0.834386"
     inkscape:cx="278.93224"
     inkscape:cy="208.4393"
     inkscape:window-x="0"
     inkscape:window-y="26"
     inkscape:window-maximized="1"
     inkscape:current-layer="svg2" />
  <rect
     style="fill:#000000;fill-opacity:1;stroke:none"
     id="rect3001"
     width="400"
     height="400"
     x="0"
     y="0" />
  <path
     id="path2987"
     style="fill:#ffffff"
     d="M 46,62.289232 C 41.00022,59.733299 38.550965,54.381307 39.969769,49.112269 41.4412,43.647793 45.041397,41 51,41 c 5.837434,0 9.499163,2.596316 11.073721,7.851723 C 64.930928,58.388228 54.851763,66.814333 46,62.289232 z m 110.55236,86.253578 c 28.0212,-31.79286 52.79525,-59.883663 55.05344,-62.424005 L 215.71161,81.5 195.2989,63.5 C 184.07192,53.6 173.89931,44.825 172.6931,44 170.52539,42.517367 170.51843,42.528945 172.0919,45 189.28795,72.005576 196,83.05993 196,84.375228 196,86.343782 155.06455,133 153.33737,133 c -0.67957,0 -2.49008,-1.6875 -4.02334,-3.75 -17.09769,-22.99931 -40.56896,-44.723447 -65.737807,-60.844498 -8.562373,-5.484337 -11.000006,-7.526969 -10.740406,-9 C 73.020516,58.357476 73.203148,55.025 73.241665,52 73.429818,37.22321 59.124954,26.39798 44.966373,30.602627 33.303564,34.066109 26.590476,45.329175 29.13031,57.172013 c 0.86739,4.044498 2.159407,6.192511 6.23197,10.360817 4.293437,4.394371 6.054457,5.459826 10.716346,6.483615 4.777946,1.049275 6.416643,0.981493 11.417384,-0.472261 5.359413,-1.558024 5.912887,-1.56491 6.741713,-0.08388 0.496626,0.887421 4.396433,5.984389 8.666238,11.326594 15.326303,19.175652 42.004959,42.642362 61.994929,54.531132 4.45561,2.64992 8.10111,5.2734 8.10111,5.82995 0,0.55655 -7.7625,9.81059 -17.25,20.56452 -9.4875,10.75393 -18.42365,20.93805 -19.85811,22.63138 -2.43411,2.87338 -2.8344,3.00563 -6,1.98239 C 98.026351,189.72325 87.275,184.88355 76,179.57137 c -11.275,-5.31218 -19.6,-8.81154 -18.5,-7.77635 1.1,1.0352 9.589892,8.5923 18.866426,16.79358 9.276535,8.20127 18.726535,16.58017 21,18.61978 l 4.133574,3.70838 2.05236,-2.28438 c 1.12881,-1.25641 24.97881,-28.29672 53,-60.08957 z M 370.64477,360.87542 C 369.80444,352.83561 365.00912,339.0335 358.52786,326 340.87316,290.49724 310.54569,251.31197 256.85182,194.62727 L 247.5,184.75455 243,187.12727 c -5.96462,3.14499 -18.47487,3.37796 -24.36596,0.45376 -4.79429,-2.37976 -9.9071,-7.55358 -12.25535,-12.40158 -2.73326,-5.64284 -3.02516,-15.92957 -0.60714,-21.39591 l 1.98229,-4.48128 -8.4545,-7.30083 -8.45449,-7.30083 -2.32137,2.3997 c -1.27676,1.31984 -9.58984,10.69148 -18.47351,20.82589 l -16.15214,18.42619 2.30108,2.22709 C 161.09051,183.31379 370.25683,367 370.75628,367 c 0.29075,0 0.24057,-2.75606 -0.11151,-6.12458 z" />
</svg>
