<?xml version="1.0" encoding="UTF-8" standalone="no"?>
<!-- Created with Inkscape (http://www.inkscape.org/) -->

<svg
   xmlns:dc="http://purl.org/dc/elements/1.1/"
   xmlns:cc="http://creativecommons.org/ns#"
   xmlns:rdf="http://www.w3.org/1999/02/22-rdf-syntax-ns#"
   xmlns:svg="http://www.w3.org/2000/svg"
   xmlns="http://www.w3.org/2000/svg"
   version="1.1"
   width="400"
   height="400"
   id="svg2">
  <metadata
     id="metadata8">
    <rdf:RDF>
      <cc:Work
         rdf:about="">
        <dc:format>image/svg+xml</dc:format>
        <dc:type
           rdf:resource="http://purl.org/dc/dcmitype/StillImage" />
        <dc:title></dc:title>
      </cc:Work>
    </rdf:RDF>
  </metadata>
  <defs
     id="defs6" />
  <path
     d="m 0,2e-5 400,0 0,400 -400,0 z"
     id="rect3028"
     style="fill:#000000;fill-opacity:1;fill-rule:nonzero;stroke:none" />
  <path
     d="m 355.70836,261.33464 c 14.36966,-3.74282 23.62292,-14.19711 27.98748,-31.62012 2.35233,-9.39035 1.78096,-27.42287 -1.21014,-38.19207 -6.19146,-22.29181 -19.04872,-35.32519 -34.77593,-35.25227 -10.05097,0.0466 -20.62238,5.65862 -31.69415,16.82538 -9.47775,9.55908 -15.15183,18.35278 -19.02531,29.48545 -2.38064,6.84215 -2.81647,9.20225 -3.08951,16.73042 -0.26469,7.29815 -0.0429,9.67002 1.32591,14.17637 3.37565,11.1136 12.78824,19.92583 26.34036,24.66032 12.1492,4.24438 25.34974,5.47642 34.14129,3.18652 z m -67.05638,57.61068 c -3.57627,-10.40814 -5.05994,-18.31882 -5.04896,-26.92019 0.0156,-12.2322 3.36818,-20.70509 10.69567,-27.0312 l 4.07895,-3.5215 -3.52542,-3.1032 c -3.79422,-3.33981 -9.09748,-10.65226 -10.96237,-15.11558 -1.41404,-3.38426 -2.34651,-2.83349 -5.70692,3.37085 -10.41221,19.22408 -8.91184,44.57898 3.98387,67.32422 2.47758,4.3699 8.23217,12.61378 8.80498,12.61378 0.16363,0 -0.88028,-3.42773 -2.3198,-7.61718 z m -187.81721,11.83954 c 9.93653,-2.91863 19.05783,-9.85248 22.70491,-17.25988 1.41527,-2.87447 1.83729,-4.98434 1.79292,-8.9636 -0.05,-4.48316 -0.42885,-5.82045 -2.73437,-9.65142 -3.02846,-5.03224 -9.9762,-11.82564 -15.26294,-14.92388 -2.90067,-1.6999 -3.46519,-2.38499 -3.07321,-3.72956 3.44704,-11.82414 1.55539,-25.20725 -5.184877,-36.68197 l -3.141031,-5.34733 3.835242,-3.75552 c 7.438356,-7.28376 11.202446,-18.10256 9.602976,-27.60102 -0.68502,-4.06803 -3.07482,-11.57724 -4.57875,-14.38736 -0.69477,-1.2982 -0.42055,-1.69874 1.93062,-2.81994 11.28774,-5.38275 19.58732,-16.19926 21.4922,-28.00992 1.91946,-11.90107 1.64592,-11.16908 4.17379,-11.16908 2.19023,0 2.59811,0.58184 8.04982,11.48311 9.91697,19.83 16.89534,24.69798 21.80233,15.20891 1.60729,-3.10816 2.4798,-13.61296 1.8601,-22.39514 -0.28804,-4.08204 -0.21142,-8.37069 0.17027,-9.53036 2.01243,-6.11426 17.78577,-4.24273 21.28581,2.5256 0.96797,1.87186 1.01733,3.78686 0.31521,12.22926 -2.03827,24.50845 2.93452,38.91935 10.66558,30.90831 3.21456,-3.33098 8.5065,-15.14517 11.98563,-26.75781 4.33952,-14.48443 7.2633,-17.04129 15.30783,-13.38674 4.10822,1.86633 8.19642,6.5441 8.19642,9.37847 0,1.20305 -1.42088,5.67324 -3.15752,9.93375 -4.30238,10.55514 -6.99873,20.16326 -6.99873,24.93918 0,10.92977 8.07345,6.81898 26.34953,-13.4165 6.66237,-7.37665 9.65127,-9.63566 12.74895,-9.63566 6.13969,0 11.49261,10.06236 8.44331,15.87167 -0.49264,0.93854 -3.05044,4.34317 -5.68398,7.56583 -14.01536,17.15052 -18.20754,26.05035 -13.31978,28.27735 2.75569,1.25558 8.42378,-0.64235 20.75472,-6.9496 l 9.83962,-5.03295 0.9056,-3.92327 c 3.62238,-15.69303 17.07304,-36.2699 30.91148,-47.28852 10.95375,-8.72173 24.65545,-14.27463 35.22242,-14.27463 5.60848,0 13.61487,1.86551 18.38883,4.28466 l 4.12153,2.08854 -0.51685,-7.69236 c -0.28426,-4.23079 -1.01424,-9.32441 -1.62217,-11.31915 -5.67776,-18.6298 -20.97548,-29.32704 -38.24799,-26.74571 -2.84363,0.42496 -5.1577,0.57717 -5.14239,0.33821 0.0153,-0.23894 0.53715,-2.54382 1.15967,-5.121948 4.68176,-19.389391 -6.62757,-40.744981 -26.99492,-50.974964 -10.44823,-5.247869 -24.06313,-7.038299 -33.94617,-4.464095 -4.73934,1.23444 -11.96883,4.935018 -13.68803,7.00652 -1.67133,2.013837 -2.77826,1.298997 -4.54429,-2.934648 -7.49822,-17.975241 -29.40197,-31.38505 -48.96722,-29.978481 -11.38316,0.81835 -18.97128,4.224481 -26.82754,12.042269 -3.79522,3.776626 -6.12322,6.987109 -8.33233,11.4909 -1.68609,3.4375 -3.1348,6.365224 -3.21934,6.506053 -0.0846,0.140829 -1.97738,-0.998398 -4.20629,-2.531616 -12.82735,-8.823673 -32.01867,-6.175714 -48.12449,6.640068 -11.337052,9.021169 -18.601255,23.565137 -17.167653,34.372111 l 0.491476,3.704961 -4.042195,-1.535914 C 78.248313,84.209624 67.078452,85.659476 58.569741,91.030788 42.013173,101.48249 30.988094,126.79515 34.339117,146.66227 c 0.975772,5.78503 5.058817,15.41545 7.334996,17.30058 1.911578,1.58318 1.620467,2.09846 -1.757272,3.11045 -4.419796,1.32421 -11.891023,7.11927 -14.757238,11.44646 -12.592219,19.01078 -6.860732,48.87307 11.353149,59.15234 l 4.092399,2.30961 -2.228729,3.25133 c -7.037715,10.26683 -10.460471,22.67379 -8.728228,31.63847 2.750855,14.23619 14.08206,23.55892 30.983674,25.49178 l 4.772493,0.54578 1.326417,4.8189 c 3.140644,11.41004 10.207592,21.65139 17.099363,24.78021 4.088375,1.85611 11.231757,1.97233 17.004629,0.27668 z m 241.74335,-0.45775 c 12.07759,-6.17156 22.46425,-16.07884 27.58697,-26.31372 4.36173,-8.71446 5.90528,-16.18041 5.45205,-26.37096 -0.19851,-4.46346 -0.54323,-8.29768 -0.76604,-8.5205 -0.22282,-0.22281 -2.61602,0.69183 -5.31824,2.03254 -2.70221,1.34071 -7.32448,3.0181 -10.2717,3.72753 -4.20547,1.01231 -5.24846,1.54205 -4.84684,2.46175 4.79941,10.99058 4.46116,19.06007 -1.28845,30.73921 -3.01256,6.11936 -10.39799,15.28761 -18.19247,22.58403 l -5.63652,5.27637 4.29687,-1.61049 c 2.36328,-0.88576 6.40625,-2.68836 8.98438,-4.00576 z m -171.37371,30.1965 c 9.5153,-2.00161 16.55004,-5.90133 23.75278,-13.1674 5.45311,-5.50107 13.38231,-16.62087 12.4889,-17.51428 -0.16777,-0.16777 -1.91896,0.80537 -3.89154,2.16253 -20.52176,14.11936 -44.40654,12.23482 -65.86382,-5.19674 l -3.32491,-2.7011 -5.26884,5.36984 c -2.89787,2.9534 -6.89994,6.40636 -8.8935,7.67325 -7.31071,4.64587 -6.78136,3.97636 -4.57848,5.79084 7.46792,6.15123 18.30692,12.06939 27.93784,15.25425 10.81898,3.57774 18.59139,4.23256 27.64157,2.32881 z"
     id="path2989"
     style="fill:#ffffff" />
</svg>
