<?xml version="1.0" encoding="UTF-8" standalone="no"?>
<!-- Created with Inkscape (http://www.inkscape.org/) -->

<svg
   xmlns:dc="http://purl.org/dc/elements/1.1/"
   xmlns:cc="http://creativecommons.org/ns#"
   xmlns:rdf="http://www.w3.org/1999/02/22-rdf-syntax-ns#"
   xmlns:svg="http://www.w3.org/2000/svg"
   xmlns="http://www.w3.org/2000/svg"
   xmlns:sodipodi="http://sodipodi.sourceforge.net/DTD/sodipodi-0.dtd"
   xmlns:inkscape="http://www.inkscape.org/namespaces/inkscape"
   id="svg2"
   version="1.1"
   inkscape:version="0.48.3.1 r9886"
   width="400"
   height="400"
   sodipodi:docname="1.png">
  <metadata
     id="metadata8">
    <rdf:RDF>
      <cc:Work
         rdf:about="">
        <dc:format>image/svg+xml</dc:format>
        <dc:type
           rdf:resource="http://purl.org/dc/dcmitype/StillImage" />
        <dc:title></dc:title>
      </cc:Work>
    </rdf:RDF>
  </metadata>
  <defs
     id="defs6" />
  <sodipodi:namedview
     pagecolor="#ffffff"
     bordercolor="#666666"
     borderopacity="1"
     objecttolerance="10"
     gridtolerance="10"
     guidetolerance="10"
     inkscape:pageopacity="0"
     inkscape:pageshadow="2"
     inkscape:window-width="1855"
     inkscape:window-height="1056"
     id="namedview4"
     showgrid="false"
     inkscape:zoom="0.4609375"
     inkscape:cx="-125.83051"
     inkscape:cy="256"
     inkscape:window-x="65"
     inkscape:window-y="24"
     inkscape:window-maximized="1"
     inkscape:current-layer="svg2" />
  <path
     style="fill:#000000;fill-opacity:1;fill-rule:nonzero;stroke:none"
     d="m 0,0 400,0 0,400 -400,0 z"
     id="rect3035" />
  <path
     inkscape:connector-curvature="0"
     id="path2989"
     style="fill:#ffffff"
     d="m 238.67187,76.830112 c 19.70277,-14.751415 54.28253,-23.652201 86.81497,-22.346062 12.03769,0.483299 17.56098,-0.47753 22.71724,-3.951885 4.54351,-3.061481 6.46041,-6.246677 7.01952,-11.663924 0.80875,-7.836021 -4.3868,-15.696727 -12.90355,-19.522681 -8.92982,-4.011514 -31.46497,-1.135039 -50.57246,6.455266 -22.57535,8.96789 -42.64135,23.961346 -54.50652,40.727674 -3.62056,5.116104 -9.89732,17.481133 -9.89732,19.49743 0,0.566539 1.8457,-0.744328 4.10156,-2.913032 2.25586,-2.16871 5.50781,-4.995963 7.22656,-6.282786 z M 196.87016,65.234375 c -1.18151,-15.309413 -3.55717,-32.504473 -5.23125,-37.86386 -1.77059,-5.668357 -7.06084,-11.226099 -11.95141,-12.555725 -7.29233,-1.982602 -15.6003,1.591087 -19.02053,8.181717 -2.04721,3.944884 -2.0027,10.52219 0.10611,15.675368 3.05033,7.453981 15.69754,30.830284 26.06772,48.181922 l 10.42482,17.443083 0.25447,-13.67188 c 0.13996,-7.519531 -0.15252,-18.945313 -0.64993,-25.390625 z M 169.54067,123.4375 C 164.38252,99.101586 142.41656,78.000327 111.84022,68.008444 90.357781,60.98831 63.220632,61.350571 48.253773,68.857277 30.139798,77.942434 24.100057,102.10487 36.774831,114.77964 c 4.057225,4.05723 8.696571,5.79257 15.568919,5.82356 6.281743,0.0284 6.831497,-0.1144 22.265625,-5.7806 16.422641,-6.0291 26.660895,-8.07577 40.625005,-8.12112 13.29397,-0.0432 19.66813,1.29776 29.75397,6.25938 6.64446,3.26867 16.84777,11.26431 21.53234,16.87343 l 3.40118,4.07246 0.26478,-3.08619 c 0.14562,-1.6974 -0.14506,-5.01978 -0.64598,-7.38306 z m 197.78332,56.85747 c 5.36833,-2.4577 10.28274,-6.79945 13.50986,-11.9356 4.23658,-6.74275 5.24829,-10.24593 5.6782,-19.6616 0.33661,-7.37208 0.14642,-9.55144 -1.22721,-14.0625 -3.02315,-9.92811 -9.22395,-18.41128 -19.25172,-26.33786 -9.0512,-7.15464 -16.61437,-11.814543 -28.1425,-17.339488 -24.63606,-11.807024 -45.87874,-15.348631 -65.44268,-10.910695 -26.29878,5.965687 -38.90878,19.898586 -43.51287,48.077773 -0.45633,2.79297 -1.02958,6.2878 -1.27387,7.76628 -0.43804,2.65091 -0.34586,2.59458 6.65136,-4.06418 9.59974,-9.13539 17.28188,-13.05762 26.72499,-13.64485 8.13648,-0.50597 14.41654,0.97525 22.40595,5.28469 11.71584,6.31944 24.97926,18.54729 38.94908,35.90806 11.8994,14.78778 17.28765,19.35122 26.43555,22.38886 4.78067,1.58746 13.29728,0.91109 18.49586,-1.46889 z M 63.775647,195.04728 c 15.732033,-7.70012 53.395803,-29.25701 56.536853,-32.35893 2.15743,-2.13055 -36.249094,-0.46761 -60.15625,2.60467 -18.646923,2.3963 -23.649629,4.67602 -27.645186,12.59787 -1.74578,3.4613 -1.63339,10.50784 0.225406,14.13242 3.22832,6.29511 7.845685,8.93226 15.023552,8.58052 4.554594,-0.2232 6.493391,-0.89585 16.015625,-5.55655 z M 332.96197,326.70699 c 9.07344,-2.99334 16.5487,-9.20489 21.36046,-17.74939 4.06181,-7.2128 5.30498,-13.20007 4.85782,-23.39587 -0.33377,-7.61026 -0.76402,-9.69582 -3.70989,-17.98361 -3.68146,-10.35721 -10.79668,-25.86592 -15.32535,-33.40396 -14.2771,-23.76438 -33.88963,-39.09146 -62.02001,-48.46828 -9.05687,-3.01897 -28.11287,-7.85343 -28.68816,-7.27813 -0.20108,0.20108 2.97438,5.0492 7.05658,10.77361 23.26117,32.61876 29.5097,48.94917 36.86489,96.34551 1.46699,9.45313 3.42121,19.39432 4.34273,22.09154 3.17955,9.30632 9.86318,16.28281 18.58348,19.39778 4.10234,1.4654 11.69178,1.31558 16.67745,-0.3292 z m -275.220529,5.40664 c 6.175546,-1.92205 11.33258,-5.28301 16.629425,-10.83779 5.042595,-5.28815 6.082626,-6.88435 15.720509,-24.12722 25.741035,-46.0526 50.965755,-82.20316 80.461565,-115.31268 5.17024,-5.80368 5.30525,-6.05469 3.25671,-6.05469 -6.91264,0 -31.05821,7.11633 -44.75199,13.18957 -15.34562,6.80584 -34.296308,18.6341 -49.760785,31.05869 -16.959031,13.62535 -48.964802,46.81523 -56.419084,58.50641 -3.465425,5.43512 -6.320939,13.3876 -6.925321,19.28672 -2.361308,23.04771 19.713409,41.16167 41.788971,34.29099 z m 86.259009,25.4317 c 3.80778,-2.23152 6.92092,-6.29737 8.70874,-11.37389 3.36203,-9.54652 19.50015,-103.12876 18.03677,-104.59215 -0.41672,-0.41671 -12.65468,17.91641 -21.52794,32.25002 -8.15768,13.17766 -23.1396,39.89068 -29.11979,51.92108 -3.87851,7.80242 -4.06257,8.45652 -4.06686,14.45313 -0.005,6.77135 1.05912,9.76987 4.95625,13.96779 5.69951,6.1394 15.77371,7.61642 23.01283,3.37402 z m 73.18705,25.87062 c 12.51397,-3.73791 21.74958,-14.92614 24.68199,-29.90033 3.11931,-15.92849 -1.90319,-47.95608 -13.01234,-82.97755 -4.30514,-13.5719 -13.3186,-38.50682 -13.91942,-38.50682 -0.49906,0 -9.47791,19.87962 -15.41385,34.12701 -6.65686,15.97775 -12.7134,35.67859 -16.64837,54.15424 -4.88333,22.92838 -5.64596,31.65002 -3.54638,40.55732 4.17689,17.72016 20.82412,27.63423 37.85837,22.54613 z" />
</svg>
