<?xml version="1.0" encoding="UTF-8" standalone="no"?>
<!-- Created with Inkscape (http://www.inkscape.org/) -->

<svg
   xmlns:dc="http://purl.org/dc/elements/1.1/"
   xmlns:cc="http://creativecommons.org/ns#"
   xmlns:rdf="http://www.w3.org/1999/02/22-rdf-syntax-ns#"
   xmlns:svg="http://www.w3.org/2000/svg"
   xmlns="http://www.w3.org/2000/svg"
   version="1.1"
   width="512"
   height="512"
   id="svg2">
  <metadata
     id="metadata8">
    <rdf:RDF>
      <cc:Work
         rdf:about="">
        <dc:format>image/svg+xml</dc:format>
        <dc:type
           rdf:resource="http://purl.org/dc/dcmitype/StillImage" />
        <dc:title></dc:title>
      </cc:Work>
    </rdf:RDF>
  </metadata>
  <defs
     id="defs6" />
  <path
     d="m 0,0 512,0 0,512 -512,0 z"
     id="rect3020"
     style="fill:#000000;fill-opacity:1;fill-rule:nonzero;stroke:none" />
  <path
     d="m 491,349.51139 c 0,-0.26873 -6.21901,-10.73123 -13.82002,-23.25 C 417.34339,227.7113 355.17478,137.73313 277.14788,36.75 L 262.66027,18 235.33014,18 C 220.29856,18 208,18.206512 208,18.458915 c 0,0.252403 14.02644,18.589903 31.16986,40.75 C 262.73887,89.674911 313.57145,156.8062 331.39147,181 c 0.60766,0.825 -4.74433,-3.92567 -11.89332,-10.55703 C 312.34917,163.8116 290.525,143.59244 271,125.5115 251.475,107.43057 222.72656,80.456232 207.11458,65.568537 191.5026,50.680842 173.87336,33.880753 167.9385,28.235006 L 157.14785,17.970011 127.38044,18.235006 97.613043,18.5 112.55652,32.058787 c 29.33224,26.614258 76.17763,66.411386 122.15892,103.779143 11.6685,9.48267 21.38692,17.56091 21.59651,17.95165 0.33259,0.62005 -0.16038,8.39311 -1.6161,25.48243 l -0.40649,4.77201 18.60532,14.839 C 320.5548,236.89519 373.38519,274.13395 457,328.65404 c 30.7328,20.03897 34,22.04324 34,20.85735 z m 0.45,101.63869 C 487.37937,447.50828 431.99522,405.36766 409,388.41562 360.7136,352.81898 327.45335,330.16186 290.37969,307.6106 l -11.12032,-6.76429 -14.62124,4.62686 -14.62123,4.62685 -31.25845,-18.92792 C 172.93271,263.42326 129.84498,238.67185 90.287872,217.37317 66.829931,204.74275 20.262524,181 18.948016,181 18.378687,181 18,190.00806 18,203.55103 l 0,22.55102 3.561342,1.48803 c 9.284624,3.87936 68.317541,32.34554 101.221518,48.80988 57.47287,28.75801 168.58762,86.5629 167.83712,87.31339 C 290.09852,364.23482 212.32939,339.41538 153,319.79297 108.2377,304.98843 71.472297,292.32238 29.25,277.15985 l -11.25,-4.04 0,20.29504 0,20.29504 25.169052,9.19353 C 181.93208,373.58961 321.88097,414.68715 462,445.89781 c 27.08435,6.03287 31.12876,6.75418 29.45,5.25227 z"
     id="path2989"
     style="fill:#ffffff" />
</svg>
