<?xml version="1.0" encoding="UTF-8" standalone="no"?>
<!-- Created with Inkscape (http://www.inkscape.org/) -->

<svg
   xmlns:dc="http://purl.org/dc/elements/1.1/"
   xmlns:cc="http://creativecommons.org/ns#"
   xmlns:rdf="http://www.w3.org/1999/02/22-rdf-syntax-ns#"
   xmlns:svg="http://www.w3.org/2000/svg"
   xmlns="http://www.w3.org/2000/svg"
   version="1.1"
   width="512"
   height="512"
   id="svg2">
  <metadata
     id="metadata8">
    <rdf:RDF>
      <cc:Work
         rdf:about="">
        <dc:format>image/svg+xml</dc:format>
        <dc:type
           rdf:resource="http://purl.org/dc/dcmitype/StillImage" />
        <dc:title></dc:title>
      </cc:Work>
    </rdf:RDF>
  </metadata>
  <defs
     id="defs6" />
  <rect
     width="512"
     height="512"
     x="0"
     y="-1.4210855e-14"
     id="rect3160"
     style="fill:#000000;fill-opacity:1;fill-rule:nonzero;stroke:none" />
  <path
     d="M 47.615141,104.76345 C 56.345506,97.995049 107.36407,53.373986 108.69499,51.342746 110.79492,48.13786 109.99243,37.865639 107.21715,32.42564 102.77764,23.723484 92.004319,17 82.5,17 71.506817,17 59.648913,25.708413 56.582653,36.03363 c -1.911634,6.437171 -1.950189,11.189629 -0.132136,16.287527 1.240035,3.477109 1.213574,3.757604 -0.293892,3.115304 -13.836584,-5.895485 -25.360316,-3.802123 -34.144569,6.202589 -4.769649,5.43233 -6.358425,9.8832 -6.375618,17.86095 -0.01127,5.227765 0.527097,8.042193 2.12644,11.11647 3.159635,6.073493 6.969382,10.20425 11.612913,12.59143 8.178277,4.20434 14.164254,4.71486 18.23935,1.55555 z m 59.634859,4.3135 c 8.1125,-5.07596 14.75,-9.393414 14.75,-9.594354 0,-0.20094 -2.42729,-5.311104 -5.39398,-11.35592 -2.96669,-6.044816 -5.58114,-11.552041 -5.80989,-12.238278 -0.24081,-0.722432 -8.696,5.853676 -20.084057,15.620573 -10.817488,9.277549 -19.542554,16.993879 -19.389036,17.147399 0.153518,0.15352 4.042606,2.99693 8.642419,6.31868 7.623861,5.50558 8.547694,5.91982 10.44892,4.68523 C 91.561469,118.9154 99.1375,114.1529 107.25,109.07695 z m 29.53885,31.92861 c 4.55887,-4.04838 8.0968,-7.86116 7.86208,-8.47284 -0.23473,-0.61168 -3.21375,-4.81075 -6.62006,-9.33126 -3.83154,-5.08484 -6.63899,-7.9554 -7.36208,-7.52756 -4.55205,2.6934 -25.39911,15.76269 -26.35461,16.52206 -0.84582,0.67219 1.73474,3.76782 9,10.79635 l 10.18582,9.85394 2.5,-2.24 c 1.375,-1.232 6.22998,-5.55231 10.78885,-9.60069 z m 31.56129,38.30679 21.66329,-23.18765 -13.69172,-6.58402 c -7.53044,-3.62121 -14.04872,-6.46176 -14.48505,-6.31235 C 159.77176,143.93542 133,168.54913 133,169.74048 c 0,0.74736 0.65898,2.63317 1.4644,4.19069 1.99689,3.86154 8.14096,20.56955 9.5412,25.94603 0.627,2.40747 1.48678,3.98247 1.91062,3.5 0.42385,-0.48246 10.51911,-11.31164 22.43392,-24.06485 z m 22.05016,93.29376 c 4.55911,-1.90493 8.21525,-7.03252 10.05745,-14.10521 2.7901,-10.71193 1.5088,-22.60096 -4.8229,-44.7509 -1.84734,-6.4625 -3.08471,-11.75 -2.7497,-11.75 0.33501,0 6.4604,2.21725 13.61198,4.92721 17.31554,6.56143 20.51927,7.33741 30.50287,7.38818 10.05151,0.0511 17.23182,-2.53752 21.95273,-7.91433 5.91732,-6.73946 5.92087,-14.5101 0.01,-21.94794 -6.04876,-7.61137 -13.96256,-11.50128 -35.52561,-17.46206 l -15.06285,-4.1639 -7.03499,7.33642 c -3.86924,4.03503 -17.48848,18.55284 -30.26497,32.2618 l -23.22999,24.92539 0.69664,6.07461 c 1.62718,14.18863 7.45419,25.71308 16.9283,33.4802 8.06349,6.61066 17.55734,8.78145 24.93102,5.70053 z M 462.96775,491.53068 C 475.02486,489.68611 493,485.72939 493,484.91992 c 0,-0.34093 -3.0375,-1.88632 -6.75,-3.43419 -13.06066,-5.44544 -34.88426,-16.44687 -47.35694,-23.87297 C 405.07992,437.4808 380.99755,413.96052 362.77316,383.26953 358.60274,376.24629 349.24398,358.575 341.97592,344 325.89197,311.74609 317.63996,297.57529 305.67583,281.66354 290.52398,261.51226 256.3012,228.86232 252.09242,230.54277 c -5.93914,2.37135 -26.21655,2.26551 -32.56328,-0.16996 -1.37216,-0.52655 -1.5069,-0.16967 -0.84975,2.25071 0.42954,1.58206 0.7554,8.27648 0.72413,14.87648 -0.0447,9.44262 -0.51016,13.37211 -2.18394,18.43834 l -2.12709,6.43834 3.7334,4.06166 c 10.91722,11.8771 20.53185,29.80664 24.81974,46.28431 4.87416,18.73058 3.15493,41.10582 -4.54955,59.21108 l -2.92987,6.88509 4.53992,7.34059 c 15.48941,25.04481 41.89531,49.44646 71.63323,66.19615 27.9853,15.76253 59.35592,26.10809 89.66064,29.56871 5.225,0.59667 11.075,1.26927 13,1.49468 6.78941,0.79501 38.61847,-0.45795 47.96775,-1.88827 z"
     id="path3021"
     style="fill:#ffffff" />
</svg>
