<?xml version="1.0" encoding="UTF-8" standalone="no"?>
<!-- Created with Inkscape (http://www.inkscape.org/) -->

<svg
   xmlns:dc="http://purl.org/dc/elements/1.1/"
   xmlns:cc="http://creativecommons.org/ns#"
   xmlns:rdf="http://www.w3.org/1999/02/22-rdf-syntax-ns#"
   xmlns:svg="http://www.w3.org/2000/svg"
   xmlns="http://www.w3.org/2000/svg"
   version="1.1"
   width="512"
   height="512"
   id="svg2">
  <metadata
     id="metadata8">
    <rdf:RDF>
      <cc:Work
         rdf:about="">
        <dc:format>image/svg+xml</dc:format>
        <dc:type
           rdf:resource="http://purl.org/dc/dcmitype/StillImage" />
        <dc:title></dc:title>
      </cc:Work>
    </rdf:RDF>
  </metadata>
  <defs
     id="defs6" />
  <path
     d="m 0,0 512,0 0,512 -512,0 z"
     id="rect3035"
     style="fill:#000000;fill-opacity:1;fill-rule:nonzero;stroke:none" />
  <path
     d="m 305.49999,98.342543 c 25.21955,-18.881811 69.48164,-30.274817 111.12317,-28.602959 15.40824,0.618623 22.47805,-0.611238 29.07806,-5.058413 5.8157,-3.918695 8.26933,-7.995746 8.98499,-14.929823 1.0352,-10.030106 -5.61511,-20.09181 -16.51655,-24.989031 -11.43017,-5.134738 -40.27516,-1.45285 -64.73274,8.26274 C 344.54047,44.503956 318.85599,63.69558 303.66857,85.15648 299.03425,91.705093 291,107.53233 291,110.11319 c 0,0.72517 2.3625,-0.95274 5.25,-3.72868 2.8875,-2.77595 7.04999,-6.394833 9.24999,-8.041967 z M 251.9938,83.5 C 250.48147,63.903951 247.44063,41.894275 245.2978,35.034259 243.03145,27.778762 236.25993,20.664852 230,18.962931 c -9.33418,-2.53773 -19.96838,2.036592 -24.34628,10.472598 -2.62043,5.049451 -2.56345,13.468403 0.13582,20.064471 3.90442,9.541096 20.09285,39.462764 33.36668,61.67286 L 252.49999,133.50001 252.82572,116 c 0.17914,-9.625 -0.19523,-24.250001 -0.83192,-32.5 z M 217.01206,158 C 210.40963,126.85003 182.2932,99.840419 143.15548,87.050808 115.65796,78.065037 80.922409,78.528731 61.764829,88.137315 38.578941,99.766316 30.848073,130.69423 47.071784,146.91794 52.265032,152.11119 58.203395,154.33243 67,154.3721 c 8.040631,0.0363 8.744316,-0.14644 28.5,-7.39917 21.02098,-7.71725 34.12595,-10.33699 52.00001,-10.39504 17.01628,-0.0553 25.1752,1.66114 38.08508,8.01201 8.50491,4.1839 21.56514,14.41832 27.56139,21.59799 l 4.35351,5.21275 0.33892,-3.95032 c 0.1864,-2.17268 -0.18567,-6.42532 -0.82685,-9.45032 z m 253.16265,72.77756 c 6.87146,-3.14585 13.1619,-8.70329 17.29262,-15.27757 5.42282,-8.63072 6.71781,-13.11479 7.26809,-25.16684 0.43086,-9.43627 0.18742,-12.22585 -1.57082,-18 -3.86964,-12.70799 -11.80666,-23.56644 -24.64221,-33.71247 -11.58553,-9.15793 -21.26639,-15.12261 -36.0224,-22.19454 -31.53415,-15.11299 -58.72478,-19.646248 -83.76663,-13.96569 -33.66244,7.63608 -49.80324,25.47019 -55.69647,61.53955 -0.5841,3.575 -1.31786,8.04838 -1.63055,9.94084 -0.5607,3.39316 -0.4427,3.32106 8.51374,-5.20215 12.28766,-11.6933 22.1208,-16.71376 34.20798,-17.46541 10.4147,-0.64764 18.45318,1.24832 28.67962,6.7644 14.99628,8.08889 31.97345,23.74053 49.85482,45.96232 15.23123,18.92836 22.12819,24.76956 33.83751,28.65774 6.11925,2.03195 17.02051,1.1662 23.6747,-1.88018 z M 81.632828,249.66052 C 101.76983,239.80436 149.97946,212.21155 154,208.24109 c 2.76151,-2.72711 -46.39884,-0.59854 -77,3.33398 -23.868061,3.06726 -30.271525,5.9853 -35.385838,16.12527 -2.234598,4.43046 -2.090739,13.45003 0.28852,18.0895 4.132249,8.05774 10.042476,11.43329 19.230146,10.98306 5.82988,-0.28569 8.311541,-1.14669 20.5,-7.11238 z M 426.19132,418.18495 c 11.614,-3.83148 21.18234,-11.78226 27.34139,-22.71922 5.19912,-9.23239 6.79037,-16.89609 6.21801,-29.94672 -0.42723,-9.74113 -0.97795,-12.41065 -4.74866,-23.01902 -4.71227,-13.25723 -13.81975,-33.10837 -19.61645,-42.75707 C 417.11092,269.32452 392.00689,249.70586 356,237.70353 c -11.59279,-3.86429 -35.98447,-10.05239 -36.72084,-9.31601 -0.25739,0.25738 3.8072,6.46298 9.03242,13.79022 29.7743,41.75201 37.77241,62.65494 47.18706,123.32225 1.87774,12.10001 4.37915,24.82473 5.55869,28.27717 4.06983,11.91209 12.62487,20.842 23.78686,24.82916 5.25099,1.87572 14.96547,1.68395 21.34713,-0.42137 z m -352.282276,6.9205 c 7.904699,-2.46023 14.505703,-6.76226 21.285664,-13.87237 6.454522,-6.76884 7.785762,-8.81197 20.122252,-30.88285 32.94852,-58.94732 65.23617,-105.22004 102.9908,-147.60023 6.61791,-7.42871 6.79072,-7.75 4.16859,-7.75 -8.84818,0 -39.75451,9.1089 -57.28255,16.88265 -19.64239,8.71147 -43.89927,23.85165 -63.6938,39.75512 -21.70756,17.44045 -62.674947,59.9235 -72.216428,74.88821 -4.435744,6.95695 -8.090801,17.13613 -8.86441,24.687 -3.022475,29.50107 25.233163,52.68694 53.489882,43.89247 z m 110.411536,32.55257 c 4.87395,-2.85634 8.85877,-8.06063 11.14718,-14.55858 4.3034,-12.21954 24.9602,-132.00481 23.08707,-133.87795 -0.5334,-0.53339 -16.19799,22.93301 -27.55576,41.28003 -10.44183,16.8674 -29.61869,51.06007 -37.27334,66.45898 -4.96449,9.9871 -5.20009,10.82434 -5.20558,18.50001 -0.006,8.66732 1.35568,12.50543 6.344,17.87877 7.29538,7.85843 20.19035,9.74901 29.45643,4.31874 z M 278,490.77242 c 16.01788,-4.78453 27.83946,-19.10546 31.59295,-38.27243 3.99271,-20.38846 -2.43609,-61.38378 -16.6558,-106.21126 C 287.42657,328.9167 275.88934,297 275.12029,297 c -0.63879,0 -12.13172,25.44591 -19.72972,43.68257 -8.52078,20.45152 -16.27316,45.6686 -21.30992,69.31743 -6.25066,29.34833 -7.22683,40.51203 -4.53936,51.91337 5.34642,22.6818 26.65487,35.37181 48.45871,28.85905 z"
     id="path2989"
     style="fill:#ffffff" />
</svg>
