<?xml version="1.0" encoding="UTF-8" standalone="no"?>
<!-- Created with Inkscape (http://www.inkscape.org/) -->

<svg
   xmlns:dc="http://purl.org/dc/elements/1.1/"
   xmlns:cc="http://creativecommons.org/ns#"
   xmlns:rdf="http://www.w3.org/1999/02/22-rdf-syntax-ns#"
   xmlns:svg="http://www.w3.org/2000/svg"
   xmlns="http://www.w3.org/2000/svg"
   version="1.1"
   width="512"
   height="512"
   id="svg2">
  <metadata
     id="metadata8">
    <rdf:RDF>
      <cc:Work
         rdf:about="">
        <dc:format>image/svg+xml</dc:format>
        <dc:type
           rdf:resource="http://purl.org/dc/dcmitype/StillImage" />
        <dc:title></dc:title>
      </cc:Work>
    </rdf:RDF>
  </metadata>
  <defs
     id="defs6" />
  <path
     d="m 0,0 512,0 0,512 -512,0 z"
     id="rect3020"
     style="fill:#000000;fill-opacity:1;fill-rule:nonzero;stroke:none" />
  <path
     d="m 491,349.51139 c 0,-0.26874 -6.21901,-10.73124 -13.82002,-23.25001 -59.83659,-98.5501 -122.0052,-188.52826 -200.0321,-289.511388 l -14.4876,-18.749999 -27.33014,0 c -15.03158,0 -27.33014,0.206511 -27.33014,0.458914 0,0.252403 14.02644,18.589903 31.16986,40.750001 23.56901,30.465995 74.4016,97.597292 92.22162,121.791082 0.60765,0.825 -4.74434,-3.92567 -11.89333,-10.55703 C 312.34917,163.81159 290.525,143.59244 271,125.51149 251.475,107.43056 222.72655,80.456224 207.11459,65.568529 191.5026,50.680833 173.87336,33.880745 167.9385,28.234998 l -10.79065,-10.264994 -29.76741,0.264994 -29.767397,0.264995 14.943477,13.558786 c 29.33224,26.614258 76.17762,66.411385 122.15892,103.779141 11.6685,9.48267 21.38692,17.56092 21.59651,17.95165 0.33259,0.62006 -0.16039,8.39311 -1.6161,25.48243 l -0.40649,4.77201 18.60532,14.839 C 320.5548,236.89518 373.38519,274.13394 457,328.65403 c 30.7328,20.03898 34,22.04324 34,20.85736 z m 0.45,101.63868 C 487.37937,447.50828 431.99523,405.36766 409,388.4156 360.7136,352.81897 327.45335,330.16184 290.37969,307.61059 l -11.12032,-6.76429 -14.62124,4.62687 -14.62123,4.62684 -31.25845,-18.92793 C 172.93271,263.42325 129.84498,238.67184 90.287872,217.37316 66.829932,204.74275 20.262524,180.99999 18.948017,180.99999 18.378687,180.99999 18,190.00805 18,203.55102 l 0,22.55102 3.561341,1.48803 c 9.284625,3.87936 68.317542,32.34553 101.221519,48.80988 57.47287,28.75802 168.58762,86.56291 167.83712,87.31339 C 290.09852,364.2348 212.3294,339.41537 153,319.79296 108.2377,304.98842 71.472297,292.32237 29.249999,277.15983 L 18,273.11984 l 0,20.29503 0,20.29504 25.169052,9.19354 C 181.93208,373.58959 321.88097,414.68714 462,445.89781 c 27.08435,6.03287 31.12876,6.75417 29.45,5.25226 z"
     id="path2989"
     style="fill:#ffffff" />
</svg>
