<?xml version="1.0" encoding="UTF-8" standalone="no"?>
<!-- Created with Inkscape (http://www.inkscape.org/) -->

<svg
   xmlns:dc="http://purl.org/dc/elements/1.1/"
   xmlns:cc="http://creativecommons.org/ns#"
   xmlns:rdf="http://www.w3.org/1999/02/22-rdf-syntax-ns#"
   xmlns:svg="http://www.w3.org/2000/svg"
   xmlns="http://www.w3.org/2000/svg"
   xmlns:sodipodi="http://sodipodi.sourceforge.net/DTD/sodipodi-0.dtd"
   xmlns:inkscape="http://www.inkscape.org/namespaces/inkscape"
   id="svg2"
   version="1.1"
   inkscape:version="0.48.3.1 r9886"
   width="400"
   height="400"
   sodipodi:docname="2.png">
  <metadata
     id="metadata8">
    <rdf:RDF>
      <cc:Work
         rdf:about="">
        <dc:format>image/svg+xml</dc:format>
        <dc:type
           rdf:resource="http://purl.org/dc/dcmitype/StillImage" />
        <dc:title></dc:title>
      </cc:Work>
    </rdf:RDF>
  </metadata>
  <defs
     id="defs6" />
  <sodipodi:namedview
     pagecolor="#ffffff"
     bordercolor="#666666"
     borderopacity="1"
     objecttolerance="10"
     gridtolerance="10"
     guidetolerance="10"
     inkscape:pageopacity="0"
     inkscape:pageshadow="2"
     inkscape:window-width="1855"
     inkscape:window-height="1056"
     id="namedview4"
     showgrid="false"
     inkscape:zoom="0.4609375"
     inkscape:cx="-125.83051"
     inkscape:cy="256"
     inkscape:window-x="65"
     inkscape:window-y="24"
     inkscape:window-maximized="1"
     inkscape:current-layer="svg2" />
  <path
     style="fill:#000000;fill-opacity:1;fill-rule:nonzero;stroke:none"
     d="m 0,7.6293945e-6 400,0 L 400,400.00001 l -400,0 z"
     id="rect3020" />
  <path
     inkscape:connector-curvature="0"
     id="path2989"
     style="fill:#ffffff"
     d="m 383.59375,273.05578 c 0,-0.20995 -4.8586,-8.38378 -10.79689,-18.16407 C 326.04952,177.89945 277.4803,107.60401 216.52178,28.710939 l -11.31844,-14.648437 -21.35167,0 c -11.74342,0 -21.35167,0.161337 -21.35167,0.358527 0,0.19719 10.95816,14.523362 24.35145,31.835938 18.41329,23.801559 58.12625,76.247883 72.04814,95.149283 0.47473,0.64453 -3.70651,-3.06693 -9.29166,-8.24768 C 244.02279,127.97781 226.97266,112.1816 211.71875,98.055861 196.46484,83.930134 174.00512,62.856433 161.80827,51.225421 149.61141,39.594409 135.83856,26.46934 131.20195,22.0586 L 122.77176,14.039073 99.515969,14.2461 76.26019,14.453127 87.934781,25.045929 c 22.915809,20.792389 59.513769,51.883895 95.436659,81.077451 9.11601,7.40834 16.70853,13.71947 16.87227,14.02473 0.25984,0.48442 -0.1253,6.55712 -1.26258,19.90815 l -0.31757,3.72813 14.53541,11.59297 c 37.23447,29.69701 78.50821,58.78979 143.83228,101.38361 24.01,15.65545 26.5625,17.22128 26.5625,16.29481 z m 0.35156,79.40522 c -3.18018,-2.84515 -46.44904,-35.76751 -64.41406,-49.0113 -37.72375,-27.80987 -63.70832,-45.51075 -92.67212,-63.12892 l -8.68775,-5.2846 -11.42284,3.61474 -11.42284,3.61472 -24.42066,-14.78744 C 135.10368,205.79942 101.44139,186.46238 70.5374,169.82279 52.210884,159.95528 15.830097,141.40625 14.803138,141.40625 c -0.444789,0 -0.740638,7.03755 -0.740638,17.61799 l 0,17.61799 2.782298,1.16252 c 7.253613,3.03075 53.373079,25.26995 79.079311,38.13272 44.900681,22.4672 131.709081,67.62727 131.122751,68.21359 -0.40739,0.40739 -61.16452,-18.98279 -107.51561,-34.3128 -34.970547,-11.56605 -63.693518,-21.4614 -96.679688,-33.30713 l -8.789062,-3.15625 0,15.8555 0,15.8555 19.663322,7.18245 c 108.408618,39.59855 217.743688,71.70601 327.211678,96.08934 21.15965,4.71318 24.31934,5.2767 23.00781,4.10333 z" />
</svg>
