<?xml version="1.0" encoding="UTF-8" standalone="no"?>
<!-- Created with Inkscape (http://www.inkscape.org/) -->

<svg
   xmlns:dc="http://purl.org/dc/elements/1.1/"
   xmlns:cc="http://creativecommons.org/ns#"
   xmlns:rdf="http://www.w3.org/1999/02/22-rdf-syntax-ns#"
   xmlns:svg="http://www.w3.org/2000/svg"
   xmlns="http://www.w3.org/2000/svg"
   version="1.1"
   width="512"
   height="512"
   id="svg2">
  <metadata
     id="metadata8">
    <rdf:RDF>
      <cc:Work
         rdf:about="">
        <dc:format>image/svg+xml</dc:format>
        <dc:type
           rdf:resource="http://purl.org/dc/dcmitype/StillImage" />
        <dc:title></dc:title>
      </cc:Work>
    </rdf:RDF>
  </metadata>
  <defs
     id="defs6" />
  <path
     d="m 0,0 512,0 0,512 -512,0 z"
     id="rect3030"
     style="fill:#000000;fill-opacity:1;fill-rule:nonzero;stroke:none" />
  <path
     d="M 48.019933,67.302363 C 34.713324,60.410731 38.975624,41.016626 53.79966,41.003738 62.098364,40.996523 67.992524,46.601391 67.992524,54.5 c 0,10.352031 -11.04001,17.42864 -19.972591,12.802363 z M 106.30433,126.044 c -6.445326,-3.92996 -8.51444,-10.51992 -5.46649,-17.41032 2.21846,-5.0152 5.29402,-7.45626 10.44814,-8.29266 8.59337,-1.394515 16.09864,4.96337 16.09864,13.63753 0,8.06334 -5.89571,14.01397 -13.88462,14.01397 -2.20474,0 -5.43426,-0.87452 -7.19567,-1.94852 z M 166.5,186.10042 c -8.71199,-3.84068 -10.53547,-16.5283 -3.34133,-23.24864 10.13968,-9.47188 26.50846,0.52954 22.88573,13.98332 -1.59878,5.93742 -5.96637,9.43293 -12.27227,9.82185 -2.89967,0.17884 -6.17213,-0.0716 -7.27213,-0.55653 z m 59,59.11731 c -3.93976,-2.48679 -5.38402,-4.32652 -6.52809,-8.31566 -2.08227,-7.26048 3.33166,-16.11799 10.69618,-17.49958 14.05522,-2.63678 22.66787,14.19503 12.33092,24.09846 -3.90081,3.73721 -11.96819,4.57665 -16.49901,1.71678 z m 171.10777,128.89006 -45.80483,-45.81295 9.98065,0.4806 c 6.18128,0.29765 12.02406,0.005 15.34853,-0.7687 12.26703,-2.85497 23.0175,-11.33142 28.19954,-22.23455 l 2.43818,-5.12998 2.72349,8.92889 c 23.10173,75.73853 33.39052,109.87839 33.17821,110.09069 -0.14242,0.14242 -20.87112,-20.35688 -46.06377,-45.554 z M 366.5,428.41307 C 339,419.96356 312.7511,411.88812 308.1691,410.46763 l -8.3309,-2.58269 5.06146,-2.52223 c 10.90525,-5.43431 18.41707,-14.80264 21.56743,-26.89767 1.70156,-6.53271 1.97336,-17.86012 0.5734,-23.89667 -0.8342,-3.59703 3.04012,0.0196 45.52386,42.49596 C 398.10396,422.59952 419,443.60625 419,443.74597 c 0,0.70314 -6.2394,-1.11911 -52.5,-15.3329 z M 487.03404,467.25 c -4.79572,-15.8125 -22.36651,-73.75 -39.04619,-128.75 -16.67969,-55 -30.64179,-100.36882 -31.02689,-100.81961 -0.3851,-0.45078 -3.29369,3.82422 -6.46353,9.5 -7.80292,13.97156 -18.80841,30.66366 -26.49292,40.18195 -16.14928,20.00305 -30.32147,24.68363 -42.82279,14.14285 -5.45837,-4.60235 -12.90792,-16.65924 -25.81403,-41.77928 -6.71803,-13.07575 -14.72763,-27.51221 -17.79912,-32.08103 -5.21817,-7.76198 -15.42602,-19.12076 -16.35158,-18.19521 -0.22678,0.22678 0.50888,2.87447 1.6348,5.88375 5.19941,13.89666 3.24029,33.69226 -4.50687,45.53899 l -1.55143,2.3724 -7.27045,-7.22193 -7.27045,-7.22192 1.6237,-3.15048 C 265.02093,243.42955 265.5,239.84455 265.5,233.5 c 0,-7.6336 -0.39668,-9.83502 -2.6128,-14.5 -5.4925,-11.56183 -17.109,-19.07708 -29.54867,-19.11639 -3.81473,-0.0121 -9.02783,0.71365 -11.73927,1.63421 l -4.87734,1.6559 -7.23467,-7.18638 -7.23466,-7.18638 1.6237,-3.15048 C 205.02093,183.42955 205.5,179.84455 205.5,173.5 c 0,-7.6336 -0.39668,-9.83502 -2.6128,-14.5 -5.4925,-11.56183 -17.109,-19.07708 -29.54867,-19.11639 -3.81403,-0.0121 -9.02778,0.71363 -11.73803,1.63379 l -4.8761,1.65548 -6.73085,-6.67928 -6.73085,-6.67928 1.96264,-5.15716 c 2.70663,-7.11214 2.14837,-17.15913 -1.37007,-24.65716 -5.4104,-11.529915 -17.06356,-19.077033 -29.51674,-19.116391 -3.81403,-0.01206 -9.02778,0.713635 -11.73803,1.63379 l -4.876096,1.655478 -6.877662,-6.82496 c -4.697075,-4.661083 -6.667659,-7.30418 -6.215305,-8.336439 0.364296,-0.831313 1.284755,-4.374311 2.045464,-7.873328 C 92.028005,36.524809 67.594823,14.643891 43.78446,22.726208 l -5.71554,1.940114 -3.230627,-3.333161 C 31.800311,18.198759 31.201948,18 24.803833,18 L 18,18 l 0,7.202393 c 0,6.658677 0.22797,7.437598 3.019831,10.318067 l 3.01983,3.115675 -1.617978,4.431932 c -1.924955,5.272798 -2.199785,15.789209 -0.564338,21.594515 2.644358,9.386616 13.131102,19.670633 22.830136,22.388789 5.381426,1.508146 17.939351,0.826461 21.812519,-1.184054 l 3,-1.557264 7.118192,6.939018 7.118192,6.939018 -1.962178,5.155951 C 77.599057,114.31495 81.110981,129.11098 90,138 c 6.537607,6.53761 13.81138,9.45054 23.5,9.41107 5.30619,-0.0216 9.3282,-0.61157 11.94445,-1.75205 l 3.94445,-1.71946 6.6742,6.62306 6.6742,6.62306 -1.96264,5.15716 C 136.59904,173.31501 140.11052,188.11052 149,197 c 6.53761,6.53761 13.81138,9.45054 23.5,9.41107 5.30703,-0.0216 9.32817,-0.61155 11.94558,-1.75252 l 3.94559,-1.71994 7.17261,7.12474 7.1726,7.12474 -1.96217,5.15595 C 196.59906,233.31495 200.11098,248.11098 209,257 c 6.53761,6.53761 13.81138,9.45054 23.5,9.41107 5.30619,-0.0216 9.3282,-0.61157 11.94445,-1.75205 l 3.94445,-1.71946 6.80555,6.7534 c 3.74305,3.71437 6.80555,7.09539 6.80555,7.51337 0,1.18829 -8.97358,5.43941 -15.46593,7.32679 -8.75025,2.54377 -24.85565,1.66719 -33.28112,-1.81141 -7.53894,-3.11258 -7.33187,-1.92374 1.04479,5.99856 8.1669,7.72391 20.20164,15.13714 46.50919,28.64901 24.84286,12.75958 31.20882,16.58037 37.5278,22.52386 19.14351,18.00593 3.51686,39.80602 -50.63068,70.63274 -6.48777,3.69355 -11.58946,6.92204 -11.33709,7.17441 0.79864,0.79864 255.03288,78.06341 257.2598,78.18428 2.00515,0.10883 1.62816,-1.52858 -6.59272,-28.63457 z"
     id="path2989"
     style="fill:#ffffff" />
</svg>
