<?xml version="1.0" encoding="UTF-8" standalone="no"?>
<!-- Created with Inkscape (http://www.inkscape.org/) -->

<svg
   xmlns:dc="http://purl.org/dc/elements/1.1/"
   xmlns:cc="http://creativecommons.org/ns#"
   xmlns:rdf="http://www.w3.org/1999/02/22-rdf-syntax-ns#"
   xmlns:svg="http://www.w3.org/2000/svg"
   xmlns="http://www.w3.org/2000/svg"
   version="1.1"
   width="512"
   height="512"
   id="svg2">
  <metadata
     id="metadata8">
    <rdf:RDF>
      <cc:Work
         rdf:about="">
        <dc:format>image/svg+xml</dc:format>
        <dc:type
           rdf:resource="http://purl.org/dc/dcmitype/StillImage" />
        <dc:title></dc:title>
      </cc:Work>
    </rdf:RDF>
  </metadata>
  <defs
     id="defs6" />
  <path
     d="m 0,0 512,0 0,512 -512,0 z"
     id="rect3023"
     style="fill:#000000;fill-opacity:1;fill-rule:nonzero;stroke:none" />
  <path
     d="m 373.48694,267.17277 c -2.75717,-0.93775 -7.16634,-2.96692 -9.79813,-4.50926 C 358.50031,259.62285 348,249.5257 348,247.57706 c 0,-0.66158 1.41181,-2.52457 3.13738,-4.13997 6.36327,-5.95706 18.28874,-23.17201 23.50953,-33.9371 5.19169,-10.70507 6.14659,-13.50469 4.60309,-13.49555 -0.4125,0.003 -10.40121,3.81375 -22.1971,8.46956 -11.79591,4.65582 -21.65049,8.26174 -21.89906,8.01317 -0.92839,-0.92839 -1.38055,-15.57538 -0.70377,-22.7976 l 0.70167,-7.48802 21.17414,-5.23704 c 11.64576,-2.88038 21.54266,-5.56676 21.9931,-5.96975 0.45043,-0.40299 -6.97457,-4.88698 -16.50001,-9.96445 -9.52543,-5.07747 -17.46035,-9.36531 -17.63315,-9.52854 -1.07164,-1.01234 14.9752,-28.28308 17.54814,-29.82213 0.42132,-0.25202 7.51604,5.75209 15.76603,13.34247 l 15,13.80066 0.79518,-4.66139 c 1.52098,-8.91625 -0.67993,-34.04599 -3.89017,-44.417235 -0.64672,-2.089305 5.14823,-4.935797 16.02737,-7.872701 10.6821,-2.883712 11.17349,-2.755252 12.92396,3.378555 5.3542,18.761701 4.59776,41.086421 -1.97175,58.191831 -0.5861,1.52605 0.28487,1.20488 4.06775,-1.50001 12.22328,-8.74007 24.34953,-21.94309 32.91856,-35.84166 l 4.4445,-7.20876 2.47425,3.3043 c 3.12719,4.17629 5.28884,8.4463 8.22547,16.24823 l 2.32312,6.17198 -4.79832,6.44205 c -9.18507,12.33151 -21.304,22.38172 -32.43771,26.90055 -3.12074,1.26663 -5.45719,2.51983 -5.19211,2.78491 1.05379,1.05379 13.58794,3.21844 22.0899,3.81492 6.23496,0.43742 11.10736,0.18684 15.85923,-0.81563 l 6.85922,-1.44704 -0.66458,5.10217 c -0.70354,5.40126 -3.92966,18.83017 -5.54333,23.07445 -0.90001,2.36722 -1.4,2.52771 -7.87531,2.52771 -8.93262,0 -21.41242,-2.39227 -31.2951,-5.99901 C 423.52805,195.42729 420,194.57621 420,195.1097 c 0,1.56081 3.98049,8.94787 8.02359,14.8903 3.84329,5.64876 14.33805,16.26061 19.22641,19.44091 1.5125,0.98401 2.75,2.3892 2.75,3.12264 0,2.30368 -16.75363,19.05536 -24.02966,24.02685 -3.82725,2.61505 -7.17936,4.53391 -7.44912,4.26415 -0.26976,-0.26976 -4.41676,-11.8224 -9.21556,-25.67251 C 404.50685,221.33192 400.22493,210 399.79028,210 c -0.43464,0 -0.79142,1.01251 -0.7928,2.25 -0.008,6.86293 -9.95184,35.73182 -17.37409,50.4389 l -3.1234,6.1889 -5.01305,-1.70503 z M 264.50796,491.37325 c 19.23779,-10.12266 37.7099,-29.04249 48.53354,-49.70986 24.26844,-46.33972 19.92903,-110.24093 -10.92674,-160.90505 -10.90446,-17.90478 -27.85495,-37.33053 -35.61477,-40.81554 -12.24416,-5.49899 -36.84643,-9.62559 -63.25985,-10.61073 l -17.25986,-0.64375 4.20424,-1.88229 c 16.72093,-7.48618 45.68817,-11.70401 66.79472,-9.72577 33.89796,3.17712 56.85229,15.3925 72.86949,38.77824 14.62651,21.35526 32.18322,31.72277 55.65126,32.86292 9.19294,0.44662 12.47852,0.17272 20,-1.66728 35.87514,-8.77621 66.67739,-40.54682 80.49562,-83.02626 5.64541,-17.35489 6.50597,-23.19114 6.4919,-44.02788 -0.0102,-16.06385 -0.31453,-19.64773 -2.30613,-27.21576 C 485.46196,114.85079 478.44306,101.79093 467.72865,91.007162 446.57167,69.713245 430.36474,62.198363 408,63.312006 c -19.98601,0.995195 -36.11308,8.995234 -53.79406,26.685237 -15.77687,15.784907 -31.29746,45.262287 -34.70892,65.920687 -0.93131,5.63966 -1.81912,4.12722 -4.05522,-6.90834 C 307.83206,111.45392 334.77196,66.360123 376.41682,46.945596 380.86257,44.87302 386.525,42.629435 389,41.959852 L 393.50001,40.742428 389,38.797144 c -20.31544,-8.782067 -50.62482,-16.659032 -78.49999,-20.401003 -17.94199,-2.408537 -56.00626,-2.412513 -74,-0.0077 -74.09063,9.901887 -129.43967,43.902004 -153.064743,94.025479 -9.649179,20.4719 -12.824242,35.28537 -12.878631,60.08614 -0.04353,19.85078 1.193509,27.92884 6.661402,43.49999 6.627611,18.87373 16.810123,35.73371 38.465222,63.68991 23.11389,29.83945 25.72422,33.66826 32.25417,47.31009 7.51851,15.70706 8.81329,31.07404 4.04204,47.97262 -9.39699,33.28177 -38.22785,54.00361 -75.47947,54.24997 -6.6,0.0437 -14.925,-0.47201 -18.5,-1.1459 C 44.157701,425.46743 29.631924,419.0058 21.440559,411.81368 L 18,408.79283 l 0,42.6036 0,42.60358 120.75796,0 120.75794,0 4.99206,-2.62675 z"
     id="path2989"
     style="fill:#ffffff" />
</svg>
