<?xml version="1.0" encoding="UTF-8" standalone="no"?>
<!-- Created with Inkscape (http://www.inkscape.org/) -->

<svg
   xmlns:dc="http://purl.org/dc/elements/1.1/"
   xmlns:cc="http://creativecommons.org/ns#"
   xmlns:rdf="http://www.w3.org/1999/02/22-rdf-syntax-ns#"
   xmlns:svg="http://www.w3.org/2000/svg"
   xmlns="http://www.w3.org/2000/svg"
   xmlns:sodipodi="http://sodipodi.sourceforge.net/DTD/sodipodi-0.dtd"
   xmlns:inkscape="http://www.inkscape.org/namespaces/inkscape"
   id="svg2"
   version="1.1"
   inkscape:version="0.48.3.1 r9886"
   width="400"
   height="400"
   sodipodi:docname="3.png">
  <metadata
     id="metadata8">
    <rdf:RDF>
      <cc:Work
         rdf:about="">
        <dc:format>image/svg+xml</dc:format>
        <dc:type
           rdf:resource="http://purl.org/dc/dcmitype/StillImage" />
        <dc:title></dc:title>
      </cc:Work>
    </rdf:RDF>
  </metadata>
  <defs
     id="defs6" />
  <sodipodi:namedview
     pagecolor="#ffffff"
     bordercolor="#666666"
     borderopacity="1"
     objecttolerance="10"
     gridtolerance="10"
     guidetolerance="10"
     inkscape:pageopacity="0"
     inkscape:pageshadow="2"
     inkscape:window-width="1855"
     inkscape:window-height="1056"
     id="namedview4"
     showgrid="false"
     inkscape:zoom="0.4609375"
     inkscape:cx="-125.83051"
     inkscape:cy="256"
     inkscape:window-x="65"
     inkscape:window-y="24"
     inkscape:window-maximized="1"
     inkscape:current-layer="svg2" />
  <path
     inkscape:connector-curvature="0"
     style="fill:#000000;fill-opacity:1;fill-rule:nonzero;stroke:none"
     d="m 0,0 400,0 0,400 -400,0 z"
     id="rect3023" />
  <path
     inkscape:connector-curvature="0"
     id="path2989"
     style="fill:#ffffff"
     d="m 291.78667,208.72873 c -2.15404,-0.73262 -5.5987,-2.31791 -7.65479,-3.52286 -4.05351,-2.37552 -12.25688,-10.26392 -12.25688,-11.78629 0,-0.51686 1.10298,-1.97232 2.45108,-3.23435 4.9713,-4.65396 14.28808,-18.10314 18.36682,-26.51336 4.05601,-8.36334 4.80202,-10.55054 3.59616,-10.5434 -0.32226,0.002 -8.12594,2.97949 -17.34148,6.61684 -9.21556,3.63736 -16.91445,6.45449 -17.10864,6.26029 -0.72531,-0.7253 -1.07856,-12.16826 -0.54982,-17.81062 l 0.54818,-5.85002 16.54229,-4.09144 c 9.09825,-2.25029 16.83021,-4.34903 17.18211,-4.66386 0.3519,-0.31484 -5.44888,-3.81796 -12.89063,-7.78473 -7.44174,-3.96677 -13.6409,-7.31665 -13.7759,-7.44417 -0.83722,-0.79089 11.69938,-22.096158 13.70949,-23.298541 0.32915,-0.196891 5.8719,4.49382 12.31721,10.423801 l 11.71875,10.78177 0.62123,-3.64171 c 1.18827,-6.96582 -0.53119,-26.598432 -3.03919,-34.700967 -0.50525,-1.632269 4.02205,-3.856091 12.52138,-6.150547 8.34539,-2.2529 8.72929,-2.152541 10.09684,2.639496 4.18297,14.657579 3.592,32.098768 -1.54043,45.462368 -0.45789,1.19223 0.22256,0.94131 3.17793,-1.17188 9.54944,-6.82818 19.02307,-17.14304 25.71763,-28.0013 l 3.47226,-5.631844 1.93301,2.581485 c 2.44312,3.262726 4.13191,6.598672 6.42615,12.693929 l 1.81494,4.82186 -3.74869,5.03285 c -7.17584,9.63399 -16.64375,17.48572 -25.34196,21.01606 -2.43808,0.98955 -4.26343,1.96861 -4.05634,2.17571 0.82328,0.82327 10.61558,2.5144 17.25774,2.9804 4.87106,0.34174 8.67762,0.14597 12.39002,-0.63721 l 5.35877,-1.1305 -0.51921,3.98607 c -0.54964,4.21974 -3.07004,14.71107 -4.33072,18.02692 -0.70314,1.84939 -1.09375,1.97477 -6.15259,1.97477 -6.97861,0 -16.72845,-1.86896 -24.4493,-4.68673 -3.3688,-1.22945 -6.12509,-1.89436 -6.12509,-1.47757 0,1.21939 3.10976,6.99053 6.26843,11.63305 3.00257,4.41309 11.2016,12.7036 15.02063,15.18821 1.18164,0.76876 2.14844,1.86656 2.14844,2.43956 0,1.79975 -13.08877,14.887 -18.77317,18.77098 -2.99004,2.04301 -5.60888,3.54212 -5.81963,3.33137 -0.21075,-0.21075 -3.45059,-9.23625 -7.19965,-20.05665 -3.74907,-10.82041 -7.09432,-19.67347 -7.43389,-19.67347 -0.33957,0 -0.6183,0.79102 -0.61938,1.75781 -0.006,5.36167 -7.77487,27.91549 -13.57351,39.40539 l -2.44015,4.83508 -3.91645,-1.33205 z m -85.13983,175.15662 c 15.02953,-7.90833 29.46086,-22.68944 37.91683,-38.83583 18.95972,-36.2029 15.56956,-86.12572 -8.53651,-125.70707 -8.51911,-13.98811 -21.76168,-29.16447 -27.82404,-31.88714 -9.56575,-4.29608 -28.78628,-7.51999 -49.42176,-8.28963 l -13.48427,-0.50293 3.28457,-1.47054 c 13.06322,-5.84858 35.69388,-9.14376 52.18337,-7.59826 26.48278,2.48213 44.41585,12.02539 56.92929,30.2955 11.42696,16.6838 25.14314,24.78342 43.47755,25.67416 7.18198,0.34892 9.74884,0.13494 15.625,-1.30256 28.02745,-6.85642 52.09171,-31.67721 62.8872,-64.86427 4.41048,-13.55851 5.08279,-18.11808 5.0718,-34.39678 -0.008,-12.54988 -0.24573,-15.34979 -1.80167,-21.26231 C 379.26716,89.72718 373.78364,79.524164 365.41301,71.099345 348.88412,54.463473 336.22245,48.592471 318.75,49.462505 c -15.61407,0.777496 -28.21334,7.027526 -42.02661,20.847841 -12.32568,12.331959 -24.45114,35.361164 -27.11634,51.500534 -0.72759,4.40599 -1.42119,3.22439 -3.16814,-5.39714 -5.94511,-29.340365 15.10168,-64.569894 47.63673,-79.737493 3.47324,-1.6192 7.89702,-3.372001 9.83061,-3.895113 l 3.51563,-0.951112 -3.51563,-1.519753 C 288.03481,23.449279 264.35561,17.2954 242.57813,14.371985 c -14.01718,-1.881669 -43.75489,-1.884776 -57.8125,-0.006 -57.8833,7.735834 -101.124739,34.298425 -119.581828,73.457389 -7.538421,15.993671 -10.018939,27.566701 -10.06143,46.942291 -0.03401,15.50842 0.932429,21.81941 5.20422,33.98437 5.177821,14.7451 13.132909,27.91696 30.050955,49.75774 18.057723,23.31207 20.097043,26.30333 25.198573,36.96101 5.87383,12.27114 6.88538,24.2766 3.15784,37.47862 -7.3414,26.00138 -29.865507,42.19031 -58.968335,42.38278 -5.15625,0.0341 -11.660156,-0.36876 -14.453125,-0.89523 -10.814296,-2.03853 -22.162559,-7.08667 -28.562063,-12.70551 l -2.687937,-2.36004 0,33.28406 0,33.28405 94.34216,0 94.34214,0 3.90004,-2.05215 z" />
</svg>
