<?xml version="1.0" encoding="UTF-8" standalone="no"?>
<!-- Created with Inkscape (http://www.inkscape.org/) -->

<svg
   xmlns:dc="http://purl.org/dc/elements/1.1/"
   xmlns:cc="http://creativecommons.org/ns#"
   xmlns:rdf="http://www.w3.org/1999/02/22-rdf-syntax-ns#"
   xmlns:svg="http://www.w3.org/2000/svg"
   xmlns="http://www.w3.org/2000/svg"
   version="1.1"
   width="512"
   height="512"
   id="svg2">
  <metadata
     id="metadata8">
    <rdf:RDF>
      <cc:Work
         rdf:about="">
        <dc:format>image/svg+xml</dc:format>
        <dc:type
           rdf:resource="http://purl.org/dc/dcmitype/StillImage" />
        <dc:title></dc:title>
      </cc:Work>
    </rdf:RDF>
  </metadata>
  <defs
     id="defs6" />
  <rect
     width="512"
     height="512"
     x="0"
     y="0"
     id="rect3004"
     style="fill:#000000;fill-opacity:1;stroke:none" />
  <path
     d="m 222.08,195.77417 c 15.95309,-10.8388 35.57652,-19.69676 46.98897,-21.21066 3.37207,-0.44732 6.13103,-1.1691 6.13103,-1.60397 0,-0.43486 -30.66998,-31.46465 -68.15552,-68.9551 L 138.88897,35.84 l -42.240704,0 -42.240706,0 81.27244,81.28 c 44.69984,44.704 81.56214,81.2762 81.91622,81.27157 0.35408,-0.005 2.37178,-1.18247 4.48378,-2.6174 z m -50.06921,55.51816 2.24494,-4.70769 -68.24787,-68.26715 -68.24786,-68.26714 -0.391164,7.29903 -0.391163,7.29904 65.666507,65.67579 C 138.76076,226.4459 168.63809,256 169.03827,256 c 0.40017,0 1.73781,-2.11845 2.97252,-4.70767 z M 99.353283,216.62472 37.76,154.84942 l -0.391153,7.29912 -0.391152,7.29913 60.551152,60.58282 60.551153,60.58282 1.43328,-6.10666 1.43328,-6.10665 z m 110.840687,90.9459 c -1.60932,-0.3084 -5.14946,-2.67796 -7.86701,-5.26567 -6.5858,-6.2712 -8.5792,-13.41042 -6.76948,-24.24456 5.73898,-34.35727 46.26763,-70.24518 76.58085,-67.81193 14.46379,1.16101 20.98167,8.77406 20.98167,24.5071 0,11.89016 -1.05789,13.8145 -9.13194,16.61125 -15.97452,5.53336 -31.33916,17.559 -40.03574,31.33527 -1.91135,3.02776 -5.05075,9.63366 -6.97645,14.67977 -3.04733,7.98522 -3.99101,9.27978 -7.27858,9.985 -4.30743,0.92398 -15.15384,1.03731 -19.50332,0.20377 z M 457.38785,461.76 c -12.36366,-12.87204 -34.23488,-44.40777 -43.33929,-62.49023 -7.57967,-15.05413 -9.95212,-23.83416 -9.34475,-34.58327 0.60121,-10.63997 3.07686,-14.57669 12.00271,-19.0865 5.83158,-2.94641 7.7142,-3.2 23.75658,-3.2 l 17.4231,0 -6.5431,-2.68371 c -3.5987,-1.47605 -12.5911,-5.72901 -19.9831,-9.45105 -23.27352,-11.71869 -37.07901,-22.36512 -41.28294,-31.83629 -6.9454,-15.64755 5.78645,-24.73783 40.64294,-29.01825 l 7.68,-0.94312 -10.88,-3.73835 c -37.08641,-12.74284 -71.48913,-19.25429 -102.1735,-19.33854 -20.55103,-0.0564 -20.88095,-0.10112 -20.12825,-2.72403 5.61653,-19.57194 6.00059,-28.03649 1.66175,-36.62511 -1.584,-3.13549 -4.7942,-6.97257 -7.13377,-8.52685 -17.27469,-11.47631 -55.54998,2.89349 -84.4245,31.69573 C 192.33608,252.13853 179.2,277.6185 179.2,299.27548 c 0,14.10117 5.81807,21.8249 18.59379,24.68397 7.27024,1.62701 6.99459,1.66031 29.72621,-3.5924 l 2.88,-0.66548 0,19.06279 c 0,10.48454 0.59881,23.94368 1.33068,29.90921 1.5961,13.00986 8.84858,44.80857 13.85297,60.73876 l 3.61027,11.49232 0.87104,-9.61234 c 1.1206,-12.36627 5.15854,-29.23223 8.62566,-36.02835 3.7485,-7.34766 7.18574,-9.89065 13.43733,-9.94137 11.73952,-0.0952 24.37355,15.01419 43.97846,52.59529 l 7.09359,13.59787 0,-15.51787 c 0,-13.24461 0.39133,-16.26792 2.67135,-20.63788 9.6699,-18.53371 35.69331,-15.34988 76.93773,9.41293 18.75914,11.26283 42.71614,28.03739 52.23092,36.57179 8.09688,7.2626 9.09418,7.439 2.34785,0.41528 z"
     id="path2987"
     style="fill:#ffffff" />
</svg>
