<?xml version="1.0" encoding="UTF-8" standalone="no"?>
<!-- Created with Inkscape (http://www.inkscape.org/) -->

<svg
   xmlns:dc="http://purl.org/dc/elements/1.1/"
   xmlns:cc="http://creativecommons.org/ns#"
   xmlns:rdf="http://www.w3.org/1999/02/22-rdf-syntax-ns#"
   xmlns:svg="http://www.w3.org/2000/svg"
   xmlns="http://www.w3.org/2000/svg"
   xmlns:sodipodi="http://sodipodi.sourceforge.net/DTD/sodipodi-0.dtd"
   xmlns:inkscape="http://www.inkscape.org/namespaces/inkscape"
   id="svg2"
   version="1.1"
   inkscape:version="0.48.3.1 r9886"
   width="400"
   height="400"
   sodipodi:docname="Icons8_75.svg">
  <metadata
     id="metadata8">
    <rdf:RDF>
      <cc:Work
         rdf:about="">
        <dc:format>image/svg+xml</dc:format>
        <dc:type
           rdf:resource="http://purl.org/dc/dcmitype/StillImage" />
        <dc:title></dc:title>
      </cc:Work>
    </rdf:RDF>
  </metadata>
  <defs
     id="defs6" />
  <sodipodi:namedview
     pagecolor="#ffffff"
     bordercolor="#666666"
     borderopacity="1"
     objecttolerance="10"
     gridtolerance="10"
     guidetolerance="10"
     inkscape:pageopacity="0"
     inkscape:pageshadow="2"
     inkscape:window-width="1216"
     inkscape:window-height="1000"
     id="namedview4"
     showgrid="false"
     inkscape:zoom="1.18"
     inkscape:cx="313.01404"
     inkscape:cy="267.08954"
     inkscape:window-x="64"
     inkscape:window-y="24"
     inkscape:window-maximized="1"
     inkscape:current-layer="svg2" />
  <rect
     style="fill:#000000;fill-opacity:1;stroke:none"
     id="rect3128"
     width="400"
     height="400"
     x="0"
     y="1.5258789e-05" />
  <path
     style="fill:#ffffff"
     d="m 74,368.11221 c -28.80077,-9.3222 -44.528244,-37.03045 -38.636981,-68.06961 2.994794,-15.7786 10.806364,-26.64294 22.375437,-31.11979 7.327207,-2.83539 20.82597,-3.12178 30.051214,-0.63757 6.753719,1.81866 17.21033,6.41195 17.21033,7.56 0,0.38499 -2.58684,1.30141 -5.748539,2.03647 -8.084435,1.87956 -14.705999,5.48919 -21.01493,11.45591 -22.646909,21.4185 -20.520042,60.54582 4.263469,78.43372 l 3,2.1653 -3,-0.0221 c -1.65,-0.0121 -5.475,-0.8232 -8.5,-1.80233 z m 27.83637,-5.03105 C 94.45136,360.71937 90.192035,358.01687 85.032152,352.41905 74.377807,340.86046 73.10321,324.05682 81.593507,307.08572 c 7.610294,-15.21209 21.100653,-21.54495 38.631923,-18.13524 3.90578,0.75965 25.98941,9.69037 58.49624,23.65615 74.89472,32.17673 102.59226,44.3073 103.7036,45.41864 0.63297,0.63297 -0.0596,0.97862 -1.97527,0.98583 -1.6225,0.006 -36.475,1.35111 -77.45,2.9889 -87.35335,3.49155 -93.42381,3.55643 -101.16363,1.08116 z M 203.76389,337.75 c -0.37489,-1.16348 -50.41897,-23.43785 -73.49134,-32.71063 -12.2592,-4.92697 -21.18097,-6.17233 -26.07775,-3.6401 -2.75017,1.42216 -3.1948,2.18561 -3.1948,5.48562 0,7.35341 10.07811,15.79094 23.5,19.67453 5.72824,1.65745 70.92063,12.12697 76.83333,12.33898 1.84669,0.0662 2.69308,-0.33369 2.43056,-1.1484 z M 198,281.41563 C 136.41229,264.83868 101.37826,254.94391 97.407928,253.00509 81.190966,245.08592 72,230.92734 72,213.86445 c 0,-18.96183 12.035743,-37.41896 28.65633,-43.94525 4.63931,-1.82169 7.80159,-2.2946 15.34367,-2.2946 10.87801,0 16.83624,1.85046 26.64582,8.27546 5.04358,3.30341 78.34114,65.62842 131.85418,112.1158 9.35,8.12245 18.125,15.70173 19.5,16.84284 2.28984,1.90035 2.33187,2.07131 0.5,2.03365 -1.1,-0.0226 -44.525,-11.48713 -96.5,-25.47672 z m 24.82332,-20.79375 c -0.33981,-1.4484 -74.62454,-65.42622 -83.42868,-71.85306 -11.59692,-8.46551 -23.46588,-11.36059 -26.83794,-6.54631 -2.29689,3.27927 -1.9066,7.54081 1.30759,14.27749 3.03257,6.356 12.26715,16.07296 19.63571,20.66139 5.58834,3.47988 87.30755,44.83861 88.59499,44.83861 0.57841,0 0.90616,-0.62015 0.72833,-1.37812 z m 88.06165,-45.75155 c -27.28826,-45.85368 -50.58502,-85.99945 -51.77057,-89.21283 -1.18555,-3.21337 -2.42699,-9.06337 -2.75876,-13 -1.93655,-22.978259 14.53541,-42.101091 39.28384,-45.605902 21.92086,-3.104377 41.2136,10.364747 46.85813,32.713751 1.42903,5.658151 18.85326,192.917411 18.2919,196.584241 -0.17105,1.11726 -20.59135,-32.22302 -49.90454,-81.47926 z M 341,211.01946 c 0,-8.96007 -9.08766,-101.95207 -10.48786,-107.32 -4.16761,-15.977262 -11.69447,-21.811579 -18.354,-14.226794 -5.57131,6.345376 -7.37895,18.396354 -4.72448,31.496704 1.37994,6.81025 21.0375,65.52248 29.55742,88.28063 2.51423,6.71591 4.00892,7.37564 4.00892,1.76946 z m -106.07759,8.45939 c -42.58233,-33.83663 -79.97482,-64.18628 -83.09444,-67.44366 -3.29923,-3.44492 -7.04113,-8.76982 -8.9448,-12.72885 -2.77692,-5.77511 -3.33613,-8.18591 -3.69093,-15.91186 -0.70329,-15.31425 4.15795,-26.948328 15.74121,-37.672381 14.24334,-13.186823 29.89315,-15.04413 48.66329,-5.775324 12.28477,6.066287 20.12219,14.805012 28.33076,31.588785 21.72003,44.41019 79.55054,163.50882 80.70845,166.21444 0.76499,1.7875 1.01244,3.25 0.54988,3.25 -0.46256,0 -35.6811,-27.68452 -78.26342,-61.52115 z m 31.57701,-8.48069 C 264.96894,206.17605 217.77071,110.4935 214.46843,105.5184 207.75306,95.40126 199.47736,89.761553 193.93031,91.522118 c -2.60946,0.828212 -5.8788,7.75482 -5.90835,12.517782 -0.0534,8.61352 5.53819,22.62863 12.99138,32.56221 4.83296,6.44133 56.05581,67.61089 60.83471,72.64789 3.94562,4.15872 5.61566,4.78638 4.65137,1.74816 z M 63.538018,246.72335 c -7.660427,-4.14162 -18.98686,-15.42814 -23.813606,-23.72969 -7.869162,-13.53423 -10.882232,-30.83175 -7.75029,-44.4931 4.22337,-18.42209 22.105414,-36.13038 40.907111,-40.50962 7.713729,-1.79667 21.06037,-0.78281 29.211987,2.21904 6.49262,2.39093 19.36546,10.22792 21.98536,13.3847 1.22138,1.47167 0.67751,1.55435 -6.11903,0.93027 -18.045378,-1.65699 -35.491925,6.1563 -46.642646,20.88853 C 62.270339,187.36571 58.023738,199.373 58.023738,213 c 0,12.8386 3.273897,23.07184 10.317668,32.25 2.004961,2.6125 3.085856,4.73801 2.401989,4.72335 -0.683867,-0.0147 -3.926287,-1.47715 -7.205377,-3.25 z M 122.60201,131.79754 c -20.00576,-22.85925 -20.59526,-56.121466 -1.35517,-76.465018 19.00925,-20.099485 57.51415,-20.139285 80.29929,-0.083 5.05689,4.451248 12.81179,13.725893 12.08471,14.452971 -0.24037,0.240367 -2.37149,-0.549858 -4.73583,-1.756055 -6.97643,-3.559107 -14.38718,-5.77658 -21.61776,-6.468543 -24.17039,-2.313096 -51.81431,17.130771 -59.49476,41.846745 -2.5329,8.15097 -2.93312,21.20568 -0.87454,28.5263 0.67293,2.39302 1.02253,4.55191 0.77691,4.79754 -0.24563,0.24562 -2.53291,-1.9373 -5.08285,-4.85094 z M 241.50376,102.81338 C 231.61153,75.864782 233.37227,58.036373 247.32595,43.860856 265.0861,25.818356 287.51954,22.469994 312,34.207761 323.38767,39.667865 334.0506,50.128722 339.30979,61 c 1.99554,4.125 3.93169,8.85 4.30255,10.5 0.62685,2.788976 0.18879,2.534985 -6.22765,-3.61084 C 326.60546,57.564561 315.71705,53 301.86772,53 c -10.73336,0 -16.88693,1.458241 -27.36996,6.485988 -12.0761,5.791799 -20.01189,13.562294 -25.56272,25.03029 -2.24146,4.630865 -4.27201,10.533318 -4.61242,13.407505 -0.60679,5.123377 -1.90587,7.376777 -2.81886,4.889597 z"
     id="path3126"
     inkscape:connector-curvature="0" />
</svg>
