<?xml version="1.0" encoding="UTF-8" standalone="no"?>
<!-- Created with Inkscape (http://www.inkscape.org/) -->

<svg
   xmlns:dc="http://purl.org/dc/elements/1.1/"
   xmlns:cc="http://creativecommons.org/ns#"
   xmlns:rdf="http://www.w3.org/1999/02/22-rdf-syntax-ns#"
   xmlns:svg="http://www.w3.org/2000/svg"
   xmlns="http://www.w3.org/2000/svg"
   xmlns:sodipodi="http://sodipodi.sourceforge.net/DTD/sodipodi-0.dtd"
   xmlns:inkscape="http://www.inkscape.org/namespaces/inkscape"
   id="svg2"
   version="1.1"
   inkscape:version="0.48.3.1 r9886"
   width="400"
   height="400"
   sodipodi:docname="Icon.7_20.svg">
  <metadata
     id="metadata8">
    <rdf:RDF>
      <cc:Work
         rdf:about="">
        <dc:format>image/svg+xml</dc:format>
        <dc:type
           rdf:resource="http://purl.org/dc/dcmitype/StillImage" />
        <dc:title></dc:title>
      </cc:Work>
    </rdf:RDF>
  </metadata>
  <defs
     id="defs6" />
  <sodipodi:namedview
     pagecolor="#ffffff"
     bordercolor="#666666"
     borderopacity="1"
     objecttolerance="10"
     gridtolerance="10"
     guidetolerance="10"
     inkscape:pageopacity="0"
     inkscape:pageshadow="2"
     inkscape:window-width="1216"
     inkscape:window-height="1000"
     id="namedview4"
     showgrid="false"
     inkscape:zoom="1.18"
     inkscape:cx="136.35233"
     inkscape:cy="218.89047"
     inkscape:window-x="64"
     inkscape:window-y="24"
     inkscape:window-maximized="1"
     inkscape:current-layer="svg2" />
  <rect
     style="fill:#000000;fill-opacity:1;stroke:none"
     id="rect3233"
     width="400"
     height="400"
     x="0"
     y="0.1" />
  <path
     id="path3218"
     style="fill:#ffffff"
     d="m 130.52168,270.11169 c 41.084,-8.47958 56.0785,-35.61365 24.71832,-44.7303 -14.07693,-4.09227 -28.41256,6.77305 -21.13807,16.02107 l 2.10194,2.67218 -4.64586,4.9668 -4.64587,4.9668 -2.54273,-2.74365 c -11.63141,-12.5505 -3.80273,-33.59426 14.47434,-38.90754 19.80981,-5.75887 43.6854,8.33892 46.76776,27.6149 0.39668,2.48072 1.10739,3.9421 1.77503,3.64986 0.6124,-0.26805 5.78248,-2.54207 11.48907,-5.05336 5.70659,-2.5113 13.45475,-5.6767 17.21814,-7.03423 44.98217,-16.22597 53.40049,-67.93903 12.06871,-74.13711 l -4.35125,-0.65251 0.66616,-4.6223 c 1.3415,-9.30836 1.02177,-8.93999 6.84354,-7.8847 33.23707,6.02478 47.39139,42.48242 27.85246,71.74027 l -3.68778,5.52213 13.00721,0 c 7.15396,0 14.86552,0.33415 17.13681,0.74257 l 4.1296,0.74256 -1.33571,-3.74256 c -7.11359,-19.93173 7.56951,-40.26182 30.32124,-41.98253 L 326,176.71132 l 0,6.46673 0,6.46674 -7.07649,1.09534 c -29.2153,4.5221 -22.83318,39.2117 7.22115,39.2501 43.86527,0.0561 60.41399,-52.81696 30.04397,-95.99023 -9.47309,-13.46671 -16.16138,-20.17126 -16.21059,-16.25 -0.11644,9.27783 -13.12532,22.60158 -26.72931,27.37627 -30.24817,10.61639 -60.01416,-17.74003 -43.34408,-41.29153 4.45678,-6.29654 5.33691,-6.362913 10.06235,-0.75882 l 4.18145,4.95895 -2.57423,3.05929 c -4.29165,5.10034 -3.67717,11.06604 1.69297,16.43618 17.8466,17.8466 54.23029,-4.6552 40.60445,-25.11216 C 317.3236,92.587365 275.2066,67.854717 257.40581,63.387003 l -2.59367,-0.65097 1.84393,3.381984 c 12.15244,22.288979 -10.33797,51.278333 -42.94731,55.357593 -33.66895,4.21181 -35.69881,47.65489 -2.93209,62.75222 3.69783,1.70378 6.83541,3.1741 6.9724,3.26738 0.87965,0.59898 -4.87138,11.95686 -5.94319,11.73738 -49.30478,-10.09641 -49.30992,-86.2547 -0.006,-91.19004 44.92846,-4.49737 45.50159,-49.459887 0.70027,-54.936697 -35.62022,-4.35445 -51.07169,1.634822 -45.03011,17.454489 3.78861,9.920325 14.67872,13.177759 26.42785,7.905061 3.3791,-1.516449 6.30533,-2.57903 6.50274,-2.361291 C 200.92151,76.678808 206,86.860309 206,87.330193 c 0,2.728958 -20.89727,8.183736 -27.35519,7.140477 -17.6526,-2.851727 -30.35137,-21.96128 -24.61683,-37.044259 1.40458,-3.694317 1.70913,-3.668606 -10.5808,-0.893225 -36.78165,8.306241 -71.755112,27.507416 -75.452075,41.424802 -4.115391,15.492572 11.852506,27.224682 28.05593,20.613572 1.229931,-0.50182 1.87444,0.71882 3.113186,5.8961 l 1.562149,6.52893 -4.113184,1.13903 c -17.898848,4.95659 -36.161048,-3.27921 -41.272225,-18.61274 l -1.974256,-5.92276 -4.153274,5.50097 c -30.623728,40.56083 11.308389,68.9653 60.137159,40.73642 25.51044,-14.7481 32.54536,-49.72022 10.70418,-53.21276 L 116,99.976365 l 0,-6.628085 0,-6.628086 5.4947,0.567104 c 35.71155,3.685756 31.67021,57.414262 -5.91643,78.657312 -32.050701,18.11427 -78.643946,15.32815 -85.124468,-5.09017 -2.54532,-8.01959 -4.646051,19.52658 -2.52709,33.13688 2.725443,17.5058 10.540362,34.21892 22.620663,48.37696 7.475562,8.76131 8.616532,9.29161 7.276031,3.38172 C 51.89183,219.59936 67.081059,198.80217 93.25,197.24369 l 8.75,-0.5211 0,6.93282 0,6.93283 -6.819047,0 c -20.36073,0 -30.969933,18.90292 -21.822843,38.8828 8.53153,18.63532 29.75319,26.29804 57.16357,20.64065 z M 154.29545,358.75 c 1.2125,-1.2375 5.57955,-8.23194 9.70455,-15.5432 14.92378,-26.45132 36.72492,-52.07157 57.79393,-67.91824 16.74427,-12.5939 41.06617,-37.7618 38.74022,-40.08774 -4.18593,-4.18593 -54.44073,13.05671 -78.73158,27.01315 C 131.68983,291.00652 98.253192,292.99289 61.25,269.37565 58.3625,267.53271 56,266.15893 56,266.32281 c 0,1.41374 5.230927,13.08573 7.413145,16.54127 24.063401,38.10434 100.349875,38.02701 112.543125,-0.11408 1.39353,-4.35903 0.78784,-4.20586 8.2985,-2.09848 6.84996,1.922 6.89188,2.25865 1.6338,13.12129 -5.58336,11.53466 -17.96282,22.73937 -28.51161,25.80598 l -5.16227,1.50071 -4.02217,9.71025 c -4.8629,11.73991 -7.51786,21.57814 -6.6196,24.52965 1.79992,5.91419 8.515,7.72489 12.72253,3.4306 z" />
</svg>
