<?xml version="1.0" encoding="UTF-8" standalone="no"?>
<!-- Created with Inkscape (http://www.inkscape.org/) -->

<svg
   xmlns:dc="http://purl.org/dc/elements/1.1/"
   xmlns:cc="http://creativecommons.org/ns#"
   xmlns:rdf="http://www.w3.org/1999/02/22-rdf-syntax-ns#"
   xmlns:svg="http://www.w3.org/2000/svg"
   xmlns="http://www.w3.org/2000/svg"
   xmlns:sodipodi="http://sodipodi.sourceforge.net/DTD/sodipodi-0.dtd"
   xmlns:inkscape="http://www.inkscape.org/namespaces/inkscape"
   id="svg2"
   version="1.1"
   inkscape:version="0.48.3.1 r9886"
   width="400"
   height="400"
   sodipodi:docname="Icon.1_04.svg">
  <metadata
     id="metadata8">
    <rdf:RDF>
      <cc:Work
         rdf:about="">
        <dc:format>image/svg+xml</dc:format>
        <dc:type
           rdf:resource="http://purl.org/dc/dcmitype/StillImage" />
        <dc:title></dc:title>
      </cc:Work>
    </rdf:RDF>
  </metadata>
  <defs
     id="defs6" />
  <sodipodi:namedview
     pagecolor="#ffffff"
     bordercolor="#666666"
     borderopacity="1"
     objecttolerance="10"
     gridtolerance="10"
     guidetolerance="10"
     inkscape:pageopacity="0"
     inkscape:pageshadow="2"
     inkscape:window-width="1280"
     inkscape:window-height="970"
     id="namedview4"
     showgrid="false"
     inkscape:zoom="1.18"
     inkscape:cx="203.61048"
     inkscape:cy="245.61881"
     inkscape:window-x="0"
     inkscape:window-y="26"
     inkscape:window-maximized="1"
     inkscape:current-layer="svg2" />
  <path
     style="fill:#000000"
     d="M 0,200 0,0 l 200,0 200,0 0,200 0,200 -200,0 -200,0 0,-200 z"
     id="path2999" />
  <path
     style="fill:#ffffff"
     d="m 204.69408,241.54582 c -11.92138,28.26326 -23.62848,56.67192 -38.31725,83.64889 -24.65358,-19.30137 -42.72091,-46.21595 -55.20325,-74.48942 -3.28626,-7.44363 -8.87774,-25.2847 -8.87774,-25.2847 0,0 51.11427,-20.58134 72.77633,-29.74842 -28.28139,-14.11032 -58.0989,-25.38349 -86.549564,-39.28622 -4.781571,-31.54196 -5.86112,-63.466575 -5.889572,-95.325764 27.141646,2.448568 54.237246,5.438862 81.442626,7.125655 14.64291,30.463681 26.85152,62.018909 40.3027,93.017209 13.92175,-31.13391 27.61254,-62.365804 42.12164,-93.23426 26.70029,-2.488943 53.41881,-4.808047 80.1784,-6.561469 0.5574,29.324439 -3.828,93.456209 -3.828,93.456209 0,0 -65.165,29.6852 -88.23488,40.61339 24.18142,11.07008 48.97921,20.94111 72.92388,32.39396 -0.26567,11.8153 -8.52294,29.37837 -13.11662,40.66177 -12.76275,31.34899 -52.81818,61.66792 -52.81818,61.66792 0,0 -24.50888,-60.28145 -36.91052,-88.65475 z m 108.97493,10.58414 c 4.17996,-9.82198 6.34906,-20.28863 8.22921,-30.7467 -20.19645,-9.16876 -40.63237,-17.80531 -61.13037,-26.27373 24.35101,-10.13347 48.68929,-20.33012 72.74818,-31.13777 6.0591,-38.66186 6.84628,-77.877846 6.90382,-116.943788 -37.2943,2.292975 -69.59144,5.082004 -103.44328,7.66988 -9.02687,21.90203 -33.01221,71.689498 -33.01221,71.689498 C 193.43021,104.78438 183.08963,70.036372 170.50015,53.993554 138.54556,54.127732 67.981705,47.516418 67.981705,47.516418 c -2.201868,39.906471 4.499762,77.957092 7.948916,115.286672 0,0 50.212429,22.53401 69.719609,32.39846 -18.36972,8.51857 -37.0415,16.34828 -55.596651,24.44427 5.646133,22.64584 15.624111,44.33138 26.573041,64.95457 13.71218,22.65182 53.98905,59.74546 53.98905,59.74546 0,0 26.66259,-53.73943 33.96326,-72.70096 9.56618,24.87613 20.83621,49.04288 31.72774,73.35511 34.23405,-16.92615 64.36862,-63.26944 77.36234,-92.87004 z M 97.026907,282.02118 C 66.267986,222.15348 57.403214,154.14839 52.889727,87.818986 52.458536,68.220096 52.121757,48.619483 51.825329,29.018133 90.240127,31.523402 128.36375,38.037214 166.94371,37.796617 236.12588,40.021356 295.45249,33.992679 356.99902,28.438996 356.89765,106.1332 354.63358,185.87499 327.43561,259.56284 301.6709,318.78008 251.23289,358.50123 200.59094,372.0707 163.71201,362.18902 115.49582,317.28027 97.026907,282.02118 z"
     id="path2989"
     inkscape:connector-curvature="0"
     sodipodi:nodetypes="ccscccccccccccsccccccccccccccccccccccccccc" />
</svg>
