<?xml version="1.0" encoding="UTF-8" standalone="no"?>
<!-- Created with Inkscape (http://www.inkscape.org/) -->

<svg
   xmlns:dc="http://purl.org/dc/elements/1.1/"
   xmlns:cc="http://creativecommons.org/ns#"
   xmlns:rdf="http://www.w3.org/1999/02/22-rdf-syntax-ns#"
   xmlns:svg="http://www.w3.org/2000/svg"
   xmlns="http://www.w3.org/2000/svg"
   xmlns:sodipodi="http://sodipodi.sourceforge.net/DTD/sodipodi-0.dtd"
   xmlns:inkscape="http://www.inkscape.org/namespaces/inkscape"
   id="svg2"
   version="1.1"
   inkscape:version="0.48.3.1 r9886"
   width="400"
   height="400"
   sodipodi:docname="Icon.3_33.svg">
  <metadata
     id="metadata8">
    <rdf:RDF>
      <cc:Work
         rdf:about="">
        <dc:format>image/svg+xml</dc:format>
        <dc:type
           rdf:resource="http://purl.org/dc/dcmitype/StillImage" />
        <dc:title></dc:title>
      </cc:Work>
    </rdf:RDF>
  </metadata>
  <defs
     id="defs6" />
  <sodipodi:namedview
     pagecolor="#ffffff"
     bordercolor="#666666"
     borderopacity="1"
     objecttolerance="10"
     gridtolerance="10"
     guidetolerance="10"
     inkscape:pageopacity="0"
     inkscape:pageshadow="2"
     inkscape:window-width="1280"
     inkscape:window-height="970"
     id="namedview4"
     showgrid="false"
     inkscape:zoom="0.834386"
     inkscape:cx="165.85521"
     inkscape:cy="253.51621"
     inkscape:window-x="0"
     inkscape:window-y="26"
     inkscape:window-maximized="1"
     inkscape:current-layer="svg2" />
  <rect
     style="fill:#000000;fill-opacity:1;stroke:none"
     id="rect3004"
     width="400"
     height="400"
     x="0"
     y="2.8421709e-14" />
  <path
     id="path2987"
     style="fill:#ffffff"
     d="m 173.5,152.94857 c 12.46335,-8.46781 27.79416,-15.38809 36.71013,-16.57083 2.63443,-0.34947 4.78987,-0.91336 4.78987,-1.2531 0,-0.33973 -23.96092,-24.58176 -53.2465,-53.871168 L 108.50701,28 75.506458,28 42.505906,28 106,91.5 c 34.92175,34.925 63.72042,63.49703 63.99705,63.49341 0.27662,-0.004 1.85295,-0.9238 3.50295,-2.04484 z m -39.11657,43.37356 1.75386,-3.67788 L 82.818644,139.31054 29.5,85.976836 29.194403,91.679207 28.888807,97.381579 80.190763,148.69079 C 108.40684,176.91086 131.74851,200 132.06115,200 c 0.31263,0 1.35766,-1.65504 2.32228,-3.67787 z M 77.619752,169.23806 29.5,120.97611 l -0.305588,5.70244 -0.305588,5.70244 47.305588,47.33033 47.305588,47.33033 1.11975,-4.77083 1.11975,-4.77082 z m 86.594288,71.05149 c -1.25728,-0.24094 -4.02302,-2.09216 -6.1461,-4.11381 -5.14516,-4.89937 -6.7025,-10.47689 -5.28866,-18.94106 4.48358,-26.84162 36.14659,-54.87905 59.82879,-52.97807 11.29984,0.90704 16.39193,6.85473 16.39193,19.14617 0,9.28919 -0.82648,10.79258 -7.13433,12.97754 -12.48009,4.32294 -24.48372,13.71797 -31.27792,24.48068 -1.49324,2.36544 -3.9459,7.5263 -5.45035,11.46857 -2.38073,6.23845 -3.11798,7.24983 -5.68639,7.80078 -3.36518,0.72186 -11.83894,0.8104 -15.23697,0.1592 z M 357.33426,360.75 c -9.65911,-10.05628 -26.746,-34.69357 -33.85882,-48.82049 -5.92162,-11.76104 -7.7751,-18.62044 -7.30059,-27.01818 0.4697,-8.31248 2.4038,-11.38804 9.37712,-14.91133 4.55592,-2.30188 6.02672,-2.5 18.55983,-2.5 l 13.61179,0 -5.11179,-2.09665 c -2.81149,-1.15316 -9.8368,-4.47579 -15.6118,-7.38363 -18.18244,-9.15523 -28.96798,-17.47275 -32.2523,-24.8721 -5.42609,-12.22465 4.52067,-19.32643 31.7523,-22.67051 l 6,-0.73681 -8.5,-2.92059 c -28.97376,-9.95534 -55.85088,-15.04241 -79.82305,-15.10823 -16.05549,-0.0441 -16.31324,-0.079 -15.72519,-2.12815 4.38791,-15.29058 4.68796,-21.90351 1.29824,-28.61337 -1.2375,-2.4496 -3.74547,-5.44732 -5.57326,-6.6616 -13.49585,-8.96587 -43.39842,2.26054 -65.95664,24.76229 C 150.26256,196.98323 140,216.88945 140,233.80897 c 0,11.01654 4.54537,17.0507 14.5264,19.28435 5.67987,1.2711 5.46452,1.29712 23.2236,-2.80656 l 2.25,-0.51991 0,14.89281 c 0,8.19104 0.46782,18.706 1.03959,23.36657 1.24696,10.16395 6.91296,35.00669 10.82264,47.45215 l 2.82052,8.97838 0.6805,-7.50964 c 0.87547,-9.66115 4.03011,-22.83768 6.7388,-28.14715 2.92851,-5.74036 5.61386,-7.72707 10.49791,-7.7667 9.1715,-0.0744 19.04184,11.72984 34.35817,41.09007 l 5.54187,10.62334 0,-12.12334 c 0,-10.34735 0.30573,-12.70931 2.08699,-16.12334 7.55461,-14.47946 27.8854,-11.99209 60.1076,7.35385 14.65558,8.79909 33.37199,21.90421 40.80541,28.57171 6.32569,5.67391 7.10483,5.81172 1.83426,0.32444 z"
     inkscape:connector-curvature="0"
     sodipodi:nodetypes="sssscccscsscccccssscccccccccssssssssssssssscsssscssssssssscssscsssscsssss" />
</svg>
