<svg xmlns="http://www.w3.org/2000/svg" viewBox="0 0 512 512" style="height: 512px; width: 512px;"><g class="" transform="translate(0,0)" style="touch-action: none;"><path d="M96 64L64 96l48 48-48 48h128V64l-48 48-48-48zm224 0v128h128l-48-48 48-48-32-32-48 48-48-48zM64 320l48 48-48 48 32 32 48-48 48 48V320H64zm256 0v128l48-48 48 48 32-32-48-48 48-48H320z" fill="#fff" fill-opacity="1" stroke="#000000" stroke-opacity="1" stroke-width="4" transform="translate(512, 512) scale(-1, -1) rotate(-180, 256, 256)"></path></g></svg>