<?xml version="1.0" encoding="UTF-8" standalone="no"?>
<svg
   xmlns:dc="http://purl.org/dc/elements/1.1/"
   xmlns:cc="http://creativecommons.org/ns#"
   xmlns:rdf="http://www.w3.org/1999/02/22-rdf-syntax-ns#"
   xmlns:svg="http://www.w3.org/2000/svg"
   xmlns="http://www.w3.org/2000/svg"
   xmlns:sodipodi="http://sodipodi.sourceforge.net/DTD/sodipodi-0.dtd"
   xmlns:inkscape="http://www.inkscape.org/namespaces/inkscape"
   id="svg8"
   version="1.1"
   height="256"
   width="256"
   viewBox="0 0 308.64344 308.43374"
   sodipodi:docname="discord.svg"
   inkscape:version="0.92.3 (2405546, 2018-03-11)">
  <sodipodi:namedview
     pagecolor="#ffffff"
     bordercolor="#666666"
     borderopacity="1"
     objecttolerance="10"
     gridtolerance="10"
     guidetolerance="10"
     inkscape:pageopacity="0"
     inkscape:pageshadow="2"
     inkscape:window-width="1920"
     inkscape:window-height="1007"
     id="namedview9"
     showgrid="false"
     inkscape:pagecheckerboard="true"
     inkscape:zoom="2.6074563"
     inkscape:cx="64.065646"
     inkscape:cy="132.48749"
     inkscape:window-x="0"
     inkscape:window-y="0"
     inkscape:window-maximized="1"
     inkscape:current-layer="svg8" />
  <metadata
     id="metadata14">
    <rdf:RDF>
      <cc:Work
         rdf:about="">
        <dc:format>image/svg+xml</dc:format>
        <dc:type
           rdf:resource="http://purl.org/dc/dcmitype/StillImage" />
        <dc:title></dc:title>
      </cc:Work>
    </rdf:RDF>
  </metadata>
  <defs
     id="defs12" />
  <path
     style="fill:#ffffff;stroke-width:2.10804272"
     d="m 120.69687,66.41864 c 0,0 -28.66984,-0.633581 -59.025648,21.92248 0,0 -30.354205,54.59989 -30.354205,121.84647 0,0 17.708171,30.35366 64.295925,31.82931 0,0 7.800358,-9.27537 14.124488,-17.28593 -26.772159,-8.01056 -36.891936,-24.66504 -36.891936,-24.66504 0,0 2.109524,1.47589 5.903997,3.58393 0.210798,0 0.41977,0.21168 0.841384,0.4225 0.632408,0.42159 1.265174,0.63458 1.897584,1.05618 5.270123,2.95127 10.539849,5.26705 15.388339,7.16428 8.642992,3.58368 18.972122,6.7466 30.987932,9.06544 15.81033,2.95128 34.36314,4.00574 54.60032,0.21125 9.90781,-1.89723 20.02523,-4.63855 30.56546,-9.06545 7.37814,-2.74044 15.59958,-6.74644 24.24254,-12.43813 0,0 -10.54043,17.07651 -38.15578,24.87627 6.32413,7.79975 13.91324,16.86344 13.91324,16.86344 46.58774,-1.47562 64.29592,-31.82889 64.29592,-31.61805 0,-67.24658 -30.35781,-121.84647 -30.35781,-121.84647 C 216.82363,65.785059 187.943,66.41864 187.943,66.41864 l -2.95022,3.372687 c 35.83676,10.75102 52.49151,26.559036 52.49151,26.559036 -21.92363,-11.805034 -43.42814,-17.706054 -63.45453,-20.024897 -15.1779,-1.686432 -29.72203,-1.263952 -42.58109,0.422481 -1.26481,0 -2.31909,0.211678 -3.58394,0.422482 -7.37812,0.843216 -25.29534,3.371713 -47.851377,13.279517 -7.79976,3.372866 -12.438133,5.900417 -12.438133,5.900417 0,0 17.285705,-16.652985 55.23047,-27.403997 z m -5.68917,77.78666 c 12.01584,0 21.71079,10.32729 21.49999,23.18636 0,12.85904 -9.48415,23.18991 -21.49999,23.18991 -11.80505,0 -21.503592,-10.33087 -21.503592,-23.18991 0,-12.85907 9.487752,-23.18636 21.503592,-23.18636 z m 76.9417,0 c 11.80503,0 21.50359,10.32729 21.50359,23.18636 0,12.85904 -9.48773,23.18991 -21.50359,23.18991 -11.80505,0 -21.49999,-10.33087 -21.49999,-23.18991 0,-12.85907 9.48416,-23.18636 21.49999,-23.18636 z"
     id="path4"
     inkscape:connector-curvature="0" />
</svg>
