<svg xmlns="http://www.w3.org/2000/svg" viewBox="0 0 512 512" style="height: 512px; width: 512px;"><g class="" transform="translate(0,0)" style="touch-action: none;"><path d="M370.28 18.156c-13.114.26-25.862 3.893-36.717 11.438-36.877 25.633-38.728 58.792-16.907 106.594-2.713-33.767 16.332-64.54 53.28-76.532 37.416-12.134 69.88 3.05 86.94 32.813-4.615-45.514-47.25-75.096-86.595-74.314zm-169.56 17.5c-25.69.084-50.2 11.088-62.94 31.844-18.908 30.812-16.85 74.963 23.782 110.22-14.844-31.385-7.762-67.772 23.313-92.657 31.466-25.2 68.138-22.4 95.28 0-15.72-33.71-48.432-49.507-79.436-49.407zM396.187 72c-6.785-.01-13.927 1.124-21.25 3.5-42.61 13.826-56.068 57.903-30.72 97l135.344 227.22L455.72 136.31C453.744 98.335 428.877 72.055 396.186 72zM230.405 82.563c-12.38.136-24.75 4.354-35.594 14.062-35 31.333-33.52 77.625 5.844 106.563l217.03 172.656-121.092-249.5c-11.607-24.556-38.95-44.08-66.188-43.78zm187.75 17.78c.39-.017.79.008 1.188.094 1.59.346 3.323 1.577 5.656 4.126 4.665 5.097 10.026 16.894 11.813 36.624l12.78 141.157-40.78-117.28c-6.34-18.24-7.058-33.418-4.97-44.314 2.09-10.896 7.065-17.154 10.657-19.125 1.347-.74 2.49-1.227 3.656-1.28zm-167.97 7.282c1.732-.044 3.88.58 6.814 2.063 6.71 3.39 16.43 13.048 25.563 31.78l66.875 137.25-86.72-103.312c-13.113-15.617-19.506-30.274-21.5-41.78-1.992-11.508.62-19.536 3.563-22.907 1.472-1.687 2.84-2.77 4.69-3.032.23-.033.47-.057.718-.063zm-155.592 61.03c-19.493.385-37.62 9.087-51.938 23.814-45.886 47.2-12.043 122.265 44 138.436-26.15-22.903-34.14-59.183-15.53-94.437 18.845-35.69 53.625-47.73 87.468-38.032-20.924-21.174-43.25-30.19-64-29.782zm45.187 41.72c-21.447-.102-41.55 11.294-53.624 34.156-21.46 40.655.133 82.744 46.75 93.376l262.156 70.375-206-176.78c-15.118-14.016-32.6-21.046-49.28-21.125zm2.345 19.47c.726-.014 1.546.007 2.438.06 7.135.44 19.594 5.314 35.125 18.595l111.937 95.75-115.22-57.938c-17.772-8.932-29.26-19.588-35.624-29.156-6.362-9.568-7.27-17.85-6.06-21.906 1.057-3.55 2.322-5.314 7.405-5.406zM79.845 346.78c-23.928.28-43.398 13.062-50.532 40.626-13.608 52.57 17.112 104.094 77.468 106.22-28.063-12.457-44.32-40.917-37.874-75.532 6.53-35.043 32.695-54.327 63.78-55.03-18.014-10.808-36.472-16.474-52.842-16.283zm52.905 29.783c-21.467.47-40.398 13.326-47.625 44.625-8.838 38.274 21.108 67.474 61.844 64.312l231.78-9.125-212.938-91.938c-10.182-4.9-20.824-7.723-30.968-7.875-.698-.01-1.4-.015-2.094 0zm-1.156 19.03c6.193-.18 15.28 1.372 26.97 6.407l107.155 46.188-101.47-15.407c-16.466-2.498-28.016-8.167-35.094-14.155-7.078-5.988-9.374-12.162-9.28-15.594.092-3.43.87-5.226 6.5-6.75 1.406-.38 3.153-.626 5.218-.686z" fill="#fff" fill-opacity="1" stroke="#000000" stroke-opacity="1" stroke-width="4" transform="translate(512, 512) scale(-1, -1) rotate(-180, 256, 256)"></path></g></svg>