<?xml version="1.0" encoding="UTF-8" standalone="no"?>
<svg
   xmlns:dc="http://purl.org/dc/elements/1.1/"
   xmlns:cc="http://creativecommons.org/ns#"
   xmlns:rdf="http://www.w3.org/1999/02/22-rdf-syntax-ns#"
   xmlns:svg="http://www.w3.org/2000/svg"
   xmlns="http://www.w3.org/2000/svg"
   id="svg6"
   version="1.1"
   style="height: 512px; width: 512px;"
   viewBox="0 0 512 512">
  <metadata
     id="metadata12">
    <rdf:RDF>
      <cc:Work
         rdf:about="">
        <dc:format>image/svg+xml</dc:format>
        <dc:type
           rdf:resource="http://purl.org/dc/dcmitype/StillImage" />
        <dc:title></dc:title>
      </cc:Work>
    </rdf:RDF>
  </metadata>
  <defs
     id="defs10" />
  <g
     id="g4"
     class="">
    <path
       style="fill:#ffffff;fill-opacity:1;stroke:#000000;stroke-width:5;stroke-opacity:1;stroke-miterlimit:4;stroke-dasharray:none"
       id="path2"
       transform="matrix(0.8,0,0,0.8,51.2,51.2)"
       d="m 254.28,17.313 c -81.048,0 -146.624,65.484 -146.624,146.406 V 236 h 49.594 v -69.094 c 0,-53.658 43.47,-97.187 97.03,-97.187 53.563,0 97.032,44.744 97.032,97.186 V 236 h 49.594 V 163.72 C 400.906,84.864 335.189,17.313 254.281,17.313 Z M 85.157,254.688 c -14.61,22.827 -22.844,49.148 -22.844,76.78 0,88.358 84.97,161.5 191.97,161.5 106.998,0 191.968,-73.142 191.968,-161.5 0,-27.635 -8.26,-53.95 -22.875,-76.78 H 85.155 Z M 254,278.625 c 22.34,0 40.875,17.94 40.875,40.28 0,16.756 -10.6,31.23 -25.125,37.376 l 32.72,98.126 h -96.376 l 32.125,-98.125 c -14.526,-6.145 -24.532,-20.62 -24.532,-37.374 0,-22.338 17.972,-40.28 40.312,-40.28 z" />
  </g>
</svg>
