<svg xmlns="http://www.w3.org/2000/svg" viewBox="0 0 512 512" style="height: 476px; width: 476px;"><path d="M0 0h512v512H0z" fill="#0000ff" fill-opacity="0"></path><g class="" transform="translate(0,0)" style="touch-action: none;"><path d="M228.576 26.213v207.32h54.848V26.214h-54.848zm-28.518 45.744C108.44 96.58 41 180.215 41 279.605c0 118.74 96.258 215 215 215 118.74 0 215-96.26 215-215 0-99.39-67.44-183.025-159.057-207.647v50.47c64.6 22.994 110.85 84.684 110.85 157.177 0 92.117-74.676 166.794-166.793 166.794-92.118 0-166.794-74.678-166.794-166.795 0-72.494 46.25-134.183 110.852-157.178v-50.47z" fill="#fff" fill-opacity="1" stroke="#000000" stroke-opacity="1" stroke-width="4"></path></g></svg>