<svg xmlns="https://www.w3.org/2000/svg" viewBox="0 0 512 512" style="height: 512px; width: 512px;"><g class="" transform="translate(0,0)" style="touch-action: none;"><path d="M136.645 32.4l45.85 57.313c.436.417.54.477.86.502.37.029 1.402-.067 3.026-.84 3.247-1.546 8.209-5.741 12.705-11.137 4.496-5.395 8.695-11.924 11.615-17.763 1.125-2.25 1.821-4.266 2.498-6.202L136.645 32.4zm238.71 0l-76.554 21.873c.677 1.936 1.373 3.953 2.498 6.202 2.92 5.84 7.119 12.368 11.615 17.763 4.496 5.396 9.458 9.59 12.705 11.137 1.624.773 2.657.869 3.026.84.32-.025.424-.085.86-.502l45.85-57.313zM97.283 48.48C82.865 73.02 65.837 88.542 38.977 102.46c-13.978 29.503-17.779 66.837-14.034 100.545 2.989 26.896 11.055 51.29 20.756 67.146.696-2.358 1.43-4.493 2.024-7.15 2.048-9.166 3.736-19.319 6.675-27.793 1.47-4.237 3.094-8.205 6.602-11.74 3.508-3.535 10.54-5.56 15.85-3.678 5.31 1.882 9.066 5.553 13.232 10.668 1.06 1.3 2.21 3.066 3.313 4.6 6.694-17.853 14.224-29.296 23.959-35.61 6.379-4.138 13.982-5.452 20.753-3.998 5.075 1.09 9.627 3.437 13.803 6.512 10.199-7.09 23.028-11.26 36.111-13.957-7.337-9.01-13.987-17.245-18.384-21.643l-3.276-3.275 3.899-23.39c-17.409-9.155-34.717-19.446-52.555-30.835 1.778 7.223 3.063 14.662 3.309 22.366.522 16.393-4.227 33.921-18.108 50.54L89.094 170.23c11.34-13.578 14.34-25.596 13.931-38.427-.273-8.589-2.356-17.57-5.119-26.907-5.357 5.364-11.082 10.912-17.11 15.987C70.733 129.359 60.5 136.998 48 136.998v-17.996c3.5 0 12.268-4.36 21.203-11.885 8.935-7.524 18.301-17.348 26.434-25.48l5.217-5.217 6.138 4.092c23.195 15.463 44.851 28.947 66.377 40.535l2.592-15.549c-29.679-14.697-58.79-33.458-78.678-57.02zm317.434 0c-19.888 23.561-49 42.322-78.678 57.02l2.592 15.548c21.526-11.588 43.182-25.072 66.377-40.535l6.138-4.092 5.217 5.217c8.133 8.132 17.5 17.956 26.434 25.48 8.935 7.524 17.702 11.885 21.203 11.885v17.996c-12.5 0-22.732-7.64-32.797-16.115-6.027-5.075-11.752-10.623-17.11-15.987-2.762 9.336-4.845 18.318-5.118 26.907-.41 12.83 2.59 24.85 13.931 38.427l-13.812 11.54c-13.881-16.62-18.63-34.148-18.108-50.541.246-7.704 1.53-15.143 3.309-22.366-17.838 11.389-35.146 21.68-52.555 30.834l3.899 23.39-3.276 3.276c-4.397 4.398-11.047 12.632-18.384 21.643 13.083 2.697 25.912 6.866 36.11 13.957 4.177-3.075 8.729-5.422 13.804-6.512 6.771-1.454 14.374-.14 20.753 3.998 9.735 6.314 17.265 17.757 23.96 35.61 1.102-1.534 2.253-3.3 3.312-4.6 4.166-5.115 7.923-8.786 13.232-10.668 5.31-1.882 12.342.143 15.85 3.678 3.508 3.535 5.132 7.503 6.602 11.74 2.939 8.474 4.627 18.627 6.675 27.793.594 2.657 1.328 4.792 2.024 7.15 9.7-15.856 17.767-40.25 20.756-67.146 3.745-33.708-.056-71.042-14.034-100.545-26.86-13.919-43.888-29.44-58.306-53.982zM247.002 59.525l-18.072 4.518a120.019 120.019 0 0 1-2.131 4.482c-3.58 7.16-8.381 14.632-13.885 21.237-5.485 6.582-11.503 12.368-18.723 15.826l-8.595 51.58c8.541 9.282 18.82 22.822 29.236 34.975a306.945 306.945 0 0 0 3.725 4.255l17.119-21.396h11.326v-11.895c-8.51-1.493-17.098-4.736-24.7-7.81-10.303-4.167-18.415-8.338-18.415-8.338l8.226-16.008s7.456 3.827 16.936 7.66c9.48 3.834 21.364 7.344 26.951 7.344s17.471-3.51 26.951-7.344c9.48-3.833 16.936-7.66 16.936-7.66l8.226 16.008s-8.112 4.171-18.416 8.338c-7.601 3.074-16.189 6.317-24.699 7.81v11.895h11.326l17.12 21.396c1.235-1.388 2.476-2.799 3.724-4.255 10.417-12.153 20.695-25.693 29.236-34.975l-8.595-51.58c-7.22-3.458-13.238-9.244-18.723-15.826-5.504-6.605-10.305-14.076-13.885-21.237a120.019 120.019 0 0 1-2.13-4.482l-18.073-4.518V96h-17.996V59.525zm-2.678 133.473L231.26 209.33l.123.11c4.877 4.211 9.117 5.562 8.617 5.562h32c-.5 0 3.74-1.35 8.617-5.563.04-.034.083-.074.123-.109l-13.064-16.332h-23.352zm-43.086 10.94c-1.89.28-3.773.578-5.629.916-19.81 3.601-35.87 10.742-42.466 21.468.766 28.334 15.33 58.5 30.906 89.653l.441.884 33.205 132.82-19.658 29.489 28.008-9.336 20.957 18.338V449.11l-32-128.004V320c0-16-1.607-45.879-13.365-57.637l12.726-12.726c17.055 17.055 18.589 43.786 18.65 61.365h45.973c.062-17.579 1.596-44.31 18.65-61.365l12.727 12.726C298.605 274.121 296.998 304 296.998 320v1.107l-32 128.004v39.059l20.957-18.338 28.008 9.336-19.658-29.488 33.205-132.82.441-.885c15.577-31.153 30.14-61.319 30.906-89.653-6.597-10.726-22.657-17.867-42.466-21.468a176.746 176.746 0 0 0-5.63-.917c-6.114 7.13-12.278 13.855-18.378 19.124-6.123 5.288-11.883 9.937-20.383 9.937h-32c-8.5 0-14.26-4.65-20.383-9.937-6.1-5.269-12.264-11.993-18.379-19.124zm-53.215 77.68a84.634 84.634 0 0 0-3.345 1.57c-8.107 4.037-15.415 9.336-20.022 14.31-4.607 4.974-5.759 9.089-5.533 10.463 7.857 47.767 33.241 87.677 47.24 101.676l9.65 9.65-52.76 21.104 32.21 1.039-9.768 22.793 29.573-8.344 9.863 10.203 13.174-19.762-30.803-123.209c-6.813-13.62-13.76-27.427-19.479-41.494zm215.954 0c-5.72 14.066-12.666 27.873-19.479 41.493l-30.803 123.21 13.174 19.761 9.863-10.203 29.573 8.344-9.768-22.793 32.21-1.04-52.76-21.103 9.65-9.65c13.999-14 39.383-53.909 47.24-101.676.226-1.374-.926-5.489-5.533-10.463-4.607-4.974-11.915-10.273-20.022-14.31a84.634 84.634 0 0 0-3.345-1.57zm-128.452 47.38L256 410.896l20.475-81.898h-40.95zM255.951 496l.049.043.049-.043h-.098z" fill="#ffffff" fill-opacity="1" stroke="#000000" stroke-opacity="1" stroke-width="4"></path></g></svg>