<svg xmlns="http://www.w3.org/2000/svg" viewBox="0 0 512 512" style="height: 512px; width: 512px;"><g class="" transform="translate(0,0)" style="touch-action: none;"><path d="M200.947 18.686c-6.98.087-14.64.774-22.85 1.9 27.57 20.468 51.098 45.25 67.594 70.527 1.66 0 3.312.012 4.958.047 18.066.39 35.487 2.906 53.217 7.2-15.695-28.457-29.935-50.19-47.45-63.22-13.817-10.278-30.063-16.168-52.52-16.454-.967-.013-1.95-.013-2.948 0zm-91.66 22.96c-.73-.002-1.46.006-2.195.022-14.045.31-29.36 3.92-46.86 11.13 56.18 18.807 106.985 50.468 133.907 83.585 18.377-5.13 29.44-14.72 36.454-28.817C195.84 78.18 168.118 56.19 140.65 46.96c-10.168-3.418-20.433-5.306-31.363-5.315zm-.203 52.786c-39.42 6.758-74.73 31.854-87.822 74.19v322.345h212.73C100.352 442.58 61.19 206.49 187.115 230.104c5.838-14.164 9.92-28.027 11.018-41.465l18.627 1.522c-1.684 20.592-8.828 40.49-18.033 59.943-.732 2.035-1.472 4.12-2.186 6.063 32.842 85.24 113.77 160.69 169.495 168.197.915.033 1.905-.002 2.953-.09 17.016 1.035 35.86-4.222 52.21-22.304l7.984-8.83-10.473-5.658c-6.507-3.515-14.29-7.094-18.167-10.925-1.938-1.916-2.793-3.47-3.074-5.194-.282-1.725-.13-4.227 2.23-8.578l10.673-19.656-21.484 6.222c-6.304 1.825-17.305-3.032-23.224-10.71-2.96-3.84-4.408-7.907-4.387-10.843.02-2.938.72-5.125 4.747-8.05l19.453-14.125-23.884-2.72c-9.974-1.137-16.37-6.658-19.17-12.294-2.802-5.634-2.312-10.084 1.375-13.31l12.204-10.677-15.358-5.205c-6.717-2.276-10.296-7.555-10.357-10.633-.028-1.373.238-2.666 1.843-4.476 10.93-2.39 21.258-.45 28.088 6.374 6.154 6.146 8.35 15.128 6.977 24.832 8.55-2.254 16.985-1.616 24.112 2.494 9.34 5.387 14.647 15.692 15.67 27.965 15.212-10.132 32.152-12.725 45.262-5.164 15.467 8.92 21.36 29.513 16.805 51.75 23.992-33.355 34.588-75.717 5.617-120.43-46.726-4.442-81.693-30.676-93.293-67.64-5.026-16.016-21.284-28.67-42-37.904l-.08.217c-29.74-10.823-55.575-17.35-82.604-18.733l.08.155c-2.294-.093-4.56-.16-6.762-.172-9.537 22.874-28.662 39.9-57.436 46.054l-5.906 1.262-3.576-4.864c-14.216-19.33-41.23-40.452-74.002-58.074zm156.215 65.26c27.927-.073 44.874 11.617 42.09 44.45-35.844 3.39-51.933-16.683-63.074-42.632 7.507-1.155 14.538-1.8 20.983-1.817zm48.407 66.363c3.708.07 7.14.994 10.014 2.812-1.51 1.102-2.898 2.28-4.16 3.543-5.246 5.24-8.087 12.122-7.956 18.742.183 9.322 5.27 17.184 12.68 22.56-3.14 8.103-2.452 17.455 1.407 25.22 3.813 7.668 10.54 14.273 19.302 18.398-1.445 3.366-2.375 6.862-2.4 10.33-.062 8.407 3.38 16.042 8.273 22.39 6.792 8.81 16.862 15.936 28.026 17.91-.183 2.18-.204 4.333.133 6.407 1.05 6.444 4.515 11.66 8.38 15.48 3.41 3.37 7.19 5.892 10.798 7.993-6.345 4.792-12.414 7.056-18.618 7.79-6.515-7.937-9.71-19.084-9.41-31.454-11.767 6.177-24.21 7.156-34.12 1.44-14.668-8.46-19.393-29.036-13.187-50.33-11.336 2.77-22.13.92-29.187-6.132-8.875-8.865-9.535-23.626-3.094-37.95-3.676-.615-6.963-2.166-9.525-4.725-8.808-8.798-5.773-26.09 6.776-38.626 7.843-7.835 17.546-11.957 25.87-11.8z" fill="#fff" fill-opacity="1" stroke="#000000" stroke-opacity="1" stroke-width="4" transform="translate(512, 512) scale(-1, -1) rotate(-180, 256, 256)"></path></g></svg>