<?xml version="1.0" encoding="UTF-8" standalone="no"?>
<!-- Created with Inkscape (http://www.inkscape.org/) -->

<svg
   xmlns:dc="http://purl.org/dc/elements/1.1/"
   xmlns:cc="http://creativecommons.org/ns#"
   xmlns:rdf="http://www.w3.org/1999/02/22-rdf-syntax-ns#"
   xmlns:svg="http://www.w3.org/2000/svg"
   xmlns="http://www.w3.org/2000/svg"
   xmlns:sodipodi="http://sodipodi.sourceforge.net/DTD/sodipodi-0.dtd"
   xmlns:inkscape="http://www.inkscape.org/namespaces/inkscape"
   id="svg2"
   version="1.1"
   inkscape:version="0.48.3.1 r9886"
   width="400"
   height="400"
   sodipodi:docname="Icons8_87.png">
  <metadata
     id="metadata8">
    <rdf:RDF>
      <cc:Work
         rdf:about="">
        <dc:format>image/svg+xml</dc:format>
        <dc:type
           rdf:resource="http://purl.org/dc/dcmitype/StillImage" />
        <dc:title></dc:title>
      </cc:Work>
    </rdf:RDF>
  </metadata>
  <defs
     id="defs6" />
  <sodipodi:namedview
     pagecolor="#ffffff"
     bordercolor="#666666"
     borderopacity="1"
     objecttolerance="10"
     gridtolerance="10"
     guidetolerance="10"
     inkscape:pageopacity="0"
     inkscape:pageshadow="2"
     inkscape:window-width="1855"
     inkscape:window-height="1056"
     id="namedview4"
     showgrid="false"
     inkscape:zoom="0.59"
     inkscape:cx="200"
     inkscape:cy="200"
     inkscape:window-x="65"
     inkscape:window-y="24"
     inkscape:window-maximized="1"
     inkscape:current-layer="svg2" />
  <path
     style="fill:#000000"
     d="m 0,0 400,0 0,400 -400,0 z"
     id="rect3034" />
  <path
     id="path2989"
     style="fill:#ffffff"
     d="m 249.60704,59 c 2.02411,-8.856453 7.38612,-19.645858 12.83556,-25.827629 l 2.05188,-2.327629 -5.99724,0.616113 C 250.85007,32.246469 32.344166,48 29.094648,48 c -1.33539,0 -2.125662,0.30232 -1.75616,0.671822 0.822963,0.822962 207.995312,16.170476 215.586532,15.970844 L 248.35003,64.5 249.60704,59 z m 1.33329,42.85848 c -1.18471,-3.497163 -2.63869,-10.681377 -3.23105,-15.964917 l -1.07703,-9.606437 -4.06613,0.395537 C 235.36633,77.383033 31.6958,92 29.136755,92 c -1.358548,0 -2.166026,0.304062 -1.794394,0.675694 0.938958,0.938958 225.087939,17.070686 225.454809,16.225706 0.16345,-0.37644 -0.67213,-3.54575 -1.85684,-7.04292 z m -24.48727,41.59111 c 4.28203,-8.1554 10.05875,-15.54608 15.45797,-19.77679 l 3.41103,-2.6728 -3.61781,0 c -1.9898,0 -50.09654,3.375 -106.90386,7.5 -56.807334,4.125 -104.376782,7.5 -105.70989,7.5 -1.333109,0 -2.122773,0.30106 -1.75481,0.66902 0.677484,0.67749 178.09959,13.99495 189.16431,14.19885 l 6,0.11057 3.95306,-7.52885 z M 213.52682,189.25 c 0.3689,-3.1625 1.45368,-9.4625 2.41061,-14 l 1.73988,-8.25 -3.68716,0 c -2.02794,0 -44.01231,2.925 -93.29862,6.5 -49.286299,3.575 -90.604472,6.5 -91.818159,6.5 -1.213687,0 -1.915432,0.29127 -1.559432,0.64727 0.356,0.356 41.7185,3.67604 91.916671,7.37788 50.19816,3.70183 91.79951,6.78555 92.44743,6.85272 0.71423,0.074 1.44213,-2.14176 1.84878,-5.62787 z m -2.34486,33.5 c 0.18749,-7.2875 0.20756,-13.45319 0.0446,-13.70153 C 210.83353,208.4495 36.791384,220.92422 31,221.96647 c -3.681512,0.66255 -3.954342,0.84158 -1.5,0.98429 1.65,0.0959 41.25,3.01878 88,6.49518 46.75,3.47641 86.87674,6.37324 89.17053,6.4374 l 4.17053,0.11666 0.3409,-13.25 z M 242,276 l 0,-6 -16,0 -16,0 0,-8.5 0,-8.5 -3.25,0.0214 c -7.35022,0.0485 -178.956603,12.85183 -179.496811,13.39204 -0.322587,0.32259 0.725978,0.61252 2.330144,0.64431 1.604167,0.0318 47.466667,3.35535 101.916667,7.38572 54.45,4.03037 101.5875,7.37937 104.75,7.44222 L 242,282 l 0,-6 z m 2.55242,36.75 c -0.96584,-19.55157 -0.74072,-18.91151 -6.4157,-18.24098 -2.5502,0.30132 -48.73672,3.68062 -102.63672,7.50956 -53.9,3.82894 -100.475,7.28682 -103.5,7.68418 -7.382586,0.96977 -14.55343,0.34454 106.5,9.2858 57.75,4.26554 105.39518,7.8131 105.87818,7.88348 0.49723,0.0724 0.57282,-6.05365 0.17424,-14.12204 z m 3.39667,53 c -0.0685,-7.06544 -1.61067,-26.74492 -2.13708,-27.27132 -0.2316,-0.2316 -49.36961,3.12651 -109.19557,7.46247 -95.314404,6.90802 -118.577685,8.88939 -107.033107,9.11614 C 31.1875,355.0888 79.975,358.63121 138,362.92933 c 58.025,4.29811 106.5125,7.87233 107.75,7.94271 2.06982,0.11771 2.24592,-0.29246 2.19909,-5.12204 z m 84.49385,2 c 0.32277,-2.8875 2.15736,-27.075 4.07686,-53.75 1.9195,-26.675 3.74037,-50.4125 4.04637,-52.75 l 0.55638,-4.25 16.06652,0 16.06652,0 -0.67155,-17.25 c -2.16311,-55.56329 -10.15939,-86.96326 -26.25311,-103.0912 -5.70787,-5.72001 -9.24724,-7.67022 -19.33093,-10.65145 -4.125,-1.21954 -7.65091,-2.35851 -7.83535,-2.53103 -0.18444,-0.17253 1.88854,-3.61278 4.60661,-7.645 6.53679,-9.69722 8.7325,-14.15586 10.78069,-21.8913 2.00022,-7.554302 2.21751,-20.847611 0.48123,-29.44002 -2.91165,-14.40896 -13.21802,-28.88519 -24.20703,-34.000953 -7.77279,-3.618502 -17.22744,-3.490341 -25.33107,0.343373 -7.4394,3.519478 -15.26665,11.797712 -19.45725,20.578323 -5.51433,11.554225 -7.15285,10.361385 20.63682,15.02356 13.29606,2.230634 24.41331,4.29794 24.70499,4.594014 0.29168,0.296075 -8.56192,2.029832 -19.67466,3.852795 C 257.36256,80.524732 260,79.878509 260,82.659444 c 0,7.255854 6.67565,26.785996 9.82006,28.729346 0.47565,0.29397 8.69822,1.93936 18.27238,3.65643 9.57416,1.71706 17.51589,3.23016 17.64829,3.36242 0.13241,0.13227 -5.71759,1.24646 -13,2.47597 -16.8673,2.84776 -32.89854,6.62952 -36.92107,8.70965 -4.6522,2.40574 -12.39406,10.0048 -15.37501,15.09139 -1.44153,2.4598 -2.42397,4.66936 -2.1832,4.91013 0.24078,0.24078 12.99295,2.24466 28.33816,4.45308 15.34522,2.20842 29.02539,4.29123 30.40039,4.62846 1.47987,0.36296 -11.57782,2.69638 -32,5.71842 L 230.5,169.5 228.89394,176 c -0.88333,3.575 -1.89889,8.76876 -2.25681,11.54169 l -0.65075,5.04169 40.69819,4.95831 40.69819,4.95831 -41.44138,5 -41.44138,5 -0.28412,10.17178 c -0.25277,9.0494 -0.0873,10.227 1.5,10.67218 0.98127,0.27521 18.65912,2.87956 39.28412,5.78745 27.61144,3.89289 36.70892,5.4941 34.5,6.07222 -1.65,0.43184 -19.19809,3.07327 -38.99575,5.86985 -19.79766,2.79658 -36.18516,5.2741 -36.41667,5.5056 -0.2315,0.23151 6.3383,0.42092 14.59955,0.42092 l 15.02047,0 0.8962,11.75 0.8962,11.75 28.48409,4.01453 28.4841,4.01452 -27.4841,3.80032 c -15.11625,2.09017 -27.74592,4.10863 -28.06593,4.48547 -0.47202,0.55584 0.90261,27.33899 1.42826,27.82806 0.0845,0.0786 11.37483,1.77484 25.0897,3.76945 13.71487,1.99461 25.08362,3.77405 25.26389,3.95433 0.18028,0.18028 -10.49922,1.84529 -23.73222,3.70002 -13.233,1.85474 -24.44559,3.61099 -24.91688,3.90278 -0.47274,0.29269 -0.38027,7.81538 0.20628,16.78052 l 1.06315,16.25 35.26787,0 35.26788,0 0.58685,-5.25 z" />
</svg>
