<?xml version="1.0" encoding="UTF-8" standalone="no"?>
<!-- Created with Inkscape (http://www.inkscape.org/) -->

<svg
   xmlns:dc="http://purl.org/dc/elements/1.1/"
   xmlns:cc="http://creativecommons.org/ns#"
   xmlns:rdf="http://www.w3.org/1999/02/22-rdf-syntax-ns#"
   xmlns:svg="http://www.w3.org/2000/svg"
   xmlns="http://www.w3.org/2000/svg"
   xmlns:sodipodi="http://sodipodi.sourceforge.net/DTD/sodipodi-0.dtd"
   xmlns:inkscape="http://www.inkscape.org/namespaces/inkscape"
   id="svg2"
   version="1.1"
   inkscape:version="0.48.3.1 r9886"
   width="400"
   height="400"
   sodipodi:docname="Icon.5_69.png">
  <metadata
     id="metadata8">
    <rdf:RDF>
      <cc:Work
         rdf:about="">
        <dc:format>image/svg+xml</dc:format>
        <dc:type
           rdf:resource="http://purl.org/dc/dcmitype/StillImage" />
        <dc:title></dc:title>
      </cc:Work>
    </rdf:RDF>
  </metadata>
  <defs
     id="defs6" />
  <sodipodi:namedview
     pagecolor="#ffffff"
     bordercolor="#666666"
     borderopacity="1"
     objecttolerance="10"
     gridtolerance="10"
     guidetolerance="10"
     inkscape:pageopacity="0"
     inkscape:pageshadow="2"
     inkscape:window-width="1280"
     inkscape:window-height="970"
     id="namedview4"
     showgrid="false"
     inkscape:zoom="0.59"
     inkscape:cx="200"
     inkscape:cy="200"
     inkscape:window-x="0"
     inkscape:window-y="26"
     inkscape:window-maximized="1"
     inkscape:current-layer="svg2" />
  <rect
     style="fill:#000000;fill-opacity:1;stroke:none"
     id="rect3014"
     width="400"
     height="400"
     x="0"
     y="0" />
  <path
     id="path2987"
     style="fill:#ffffff"
     d="m 135.05539,49.970356 c 1.05815,-0.566305 2.64339,-2.420972 3.52276,-4.121482 C 141.96771,39.294198 137.49576,32 130.08765,32 c -4.44682,0 -7.40576,1.939549 -9.06311,5.940762 C 118.49288,44.052729 123.01246,51 129.52029,51 c 1.98615,0 4.47695,-0.46334 5.5351,-1.029644 z M 51.222114,55.38905 C 65.11029,46.506715 58.069004,25 41.272758,25 35.90052,25 29.596619,29.136101 27.096049,34.30159 24.410908,39.848351 24.44919,43.498262 27.25,48.979568 c 4.875375,9.541318 14.889001,12.218686 23.972114,6.409482 z m 30.282673,6.197072 c 3.153017,-3.153017 4.022437,-6.899076 2.470676,-10.64536 C 81.375277,44.663358 73.550621,42.90198 68.305764,47.413416 65.975972,49.417419 65.5,50.619593 65.5,54.5 c 0,3.880407 0.475972,5.082581 2.805764,7.086584 3.850463,3.312029 9.886744,3.311817 13.199023,-4.62e-4 z m 80.425753,21.949795 c 4.4634,-2.308111 7.87993,-7.089217 8.6273,-12.073081 1.47199,-9.815938 -7.54623,-19.211648 -17.42208,-18.151326 -14.8333,1.592581 -19.56469,21.969025 -6.8949,29.693892 3.91505,2.387036 11.59725,2.646794 15.68968,0.530515 z m 145.55412,56.882173 c 3.61384,-2.36787 4.96438,-7.40762 3.14925,-11.75184 -2.70889,-6.48328 -10.59396,-7.86005 -15.71083,-2.74317 -8.20027,8.20026 2.79857,20.89199 12.56158,14.49501 z m -39.91392,3.6891 c 7.37209,-3.34833 12.4417,-11.5678 12.40172,-20.10719 -0.04,-8.53564 -7.83425,-17.80778 -16.77182,-19.95187 -19.68603,-4.722603 -34.26029,19.42497 -20.90467,34.63618 6.14539,6.99921 16.78027,9.28099 25.27477,5.42288 z M 116.5,149.10996 c 10.15744,-4.68796 13.63683,-16.08165 7.90026,-25.87036 l -2.59974,-4.43612 3.34974,-6.60088 c 2.82928,-5.57527 3.33869,-7.6187 3.27859,-13.151734 -0.23021,-21.196108 -20.92024,-34.225323 -40.439006,-25.465821 -5.662551,2.541202 -5.817314,2.554972 -9.125045,0.811934 -4.144813,-2.184146 -12.319247,-2.250744 -16.390745,-0.133536 -6.033191,3.137302 -10.496107,10.37664 -10.452092,16.954438 0.06468,9.666779 9.477543,18.741499 19.478038,18.778329 1.279848,0.005 3.029378,1.63671 4.85878,4.53238 2.511931,3.976 6.27914,7.1574 13.157717,11.11166 1.477041,0.8491 1.90728,1.99811 1.684984,4.5 -0.489232,5.50616 1.696055,11.36046 5.649178,15.13393 6.071381,5.79545 12.629451,7.07566 19.649341,3.83578 z m -34,52.99418 c 4.655741,-2.15554 8.924242,-6.41703 10.436382,-10.41924 2.933223,-7.76342 -0.338741,-17.93809 -7.235816,-22.50088 -3.443696,-2.2782 -5.159856,-2.6914 -11.35024,-2.73283 -6.307988,-0.0422 -7.642269,-0.37683 -9.878086,-2.47727 -6.11341,-5.74325 -15.926785,-1.33152 -15.926785,7.16008 0,3.52964 0.544906,4.60504 3.727272,7.35598 C 55.117123,180.94877 56,182.46429 56,184.8881 c 0,7.04691 4.698114,14.08258 11.5,17.22186 5.082292,2.34563 9.925168,2.34375 15,-0.006 z m 15.318029,40.86545 c 4.387171,-2.67477 7.526311,-9.61719 6.594491,-14.58418 -1.44099,-7.68114 -10.079414,-13.48852 -17.078284,-11.48127 -7.68513,2.20407 -11.32857,6.73938 -11.323909,14.09586 0.007,11.12038 12.212503,17.81959 21.807702,11.96959 z m 39.621011,61.49549 c 2.16648,-0.90744 5.43437,-2.66599 7.26199,-3.90789 3.12544,-2.1238 3.62516,-2.1796 8.40798,-0.93896 7.82788,2.03053 13.88678,0.36385 19.90597,-5.47572 8.6111,-8.35413 9.32071,-19.43617 1.82632,-28.52166 -4.07249,-4.93709 -9.85382,-7.57081 -16.6805,-7.59889 -4.98755,-0.0205 -5.62224,-0.3132 -9.63683,-4.4439 -6.23035,-6.41056 -11.54569,-8.82107 -20.6506,-9.36507 -9.97076,-0.59573 -16.14313,1.42585 -22.89892,7.49989 -12.42858,11.17436 -14.374232,28.125 -4.82192,42.00882 7.73519,11.24271 24.53668,16.08373 37.28651,10.74338 z M 309.5,372.00978 c 29.14945,-7.42625 51.99916,-29.68952 61.12799,-59.55912 2.41336,-7.89656 2.73932,-10.59941 2.7678,-22.95066 0.024,-10.4106 -0.43545,-15.7947 -1.79201,-21 -2.39924,-9.20616 -8.4663,-22.15199 -14.04607,-29.97133 -5.13447,-7.19531 -16.02264,-17.53663 -22.41064,-21.28508 l -4.35293,-2.55428 0.67417,-7.19444 c 2.34444,-25.01868 -14.76388,-48.27987 -39.26753,-53.38979 -19.5185,-4.07033 -40.30151,4.91577 -50.83376,21.97936 C 239.35881,179.338 237.63389,182 237.53386,182 c -0.10003,0 -3.66028,-1.8 -7.91167,-4 -4.2514,-2.2 -8.5763,-4 -9.6109,-4 -1.0346,0 -3.04373,-0.44203 -4.46473,-0.9823 l -2.58364,-0.9823 2.94274,-5.2677 c 9.78318,-17.51253 7.49651,-37.00337 -6.01765,-51.2926 -9.56152,-10.10989 -23.6888,-14.94525 -36.99731,-12.66309 -14.19976,2.43499 -25.81225,11.10408 -32.10292,23.96585 -3.21062,6.56439 -3.28778,7.03139 -3.28778,19.89953 l 0,13.1774 -4.16283,3.01573 c -8.55824,6.19996 -14.09986,18.45079 -13.03095,28.80748 1.14787,11.12181 8.33777,21.51031 18.27087,26.39909 4.23319,2.08345 6.38274,2.42799 15.34262,2.45918 l 10.4197,0.0363 1.23652,6.06193 c 1.74472,8.55326 5.75134,15.85285 12.29041,22.39163 6.06837,6.06811 15.64949,11.28574 22.87842,12.45901 2.33462,0.37891 4.47466,1.0609 4.75564,1.51554 0.28098,0.45465 -0.20347,3.90299 -1.07656,7.66299 -0.87309,3.76 -1.7376,11.33637 -1.92113,16.83637 -0.18353,5.5 -0.37172,10.3375 -0.4182,10.75 -0.0465,0.4125 -0.89616,0.75 -1.88817,0.75 -0.99201,0 -4.1322,1.16037 -6.97821,2.57859 -16.20921,8.07739 -19.04096,30.31435 -5.42667,42.61405 8.04535,7.26848 20.40073,8.66549 29.86355,3.37661 2.52829,-1.41309 4.65272,-2.56908 4.72094,-2.56887 0.0682,2.1e-4 2.82405,2.50586 6.12405,5.5681 14.1448,13.1257 30.89273,21.11108 50,23.83989 6.20944,0.88681 23.29241,-0.43497 31,-2.39859 z" />
</svg>
