<?xml version="1.0" encoding="UTF-8" standalone="no"?>
<!-- Created with Inkscape (http://www.inkscape.org/) -->

<svg
   xmlns:dc="http://purl.org/dc/elements/1.1/"
   xmlns:cc="http://creativecommons.org/ns#"
   xmlns:rdf="http://www.w3.org/1999/02/22-rdf-syntax-ns#"
   xmlns:svg="http://www.w3.org/2000/svg"
   xmlns="http://www.w3.org/2000/svg"
   xmlns:sodipodi="http://sodipodi.sourceforge.net/DTD/sodipodi-0.dtd"
   xmlns:inkscape="http://www.inkscape.org/namespaces/inkscape"
   id="svg2"
   version="1.1"
   inkscape:version="0.48.3.1 r9886"
   width="400"
   height="400"
   sodipodi:docname="Icon.6_03.png">
  <metadata
     id="metadata8">
    <rdf:RDF>
      <cc:Work
         rdf:about="">
        <dc:format>image/svg+xml</dc:format>
        <dc:type
           rdf:resource="http://purl.org/dc/dcmitype/StillImage" />
        <dc:title></dc:title>
      </cc:Work>
    </rdf:RDF>
  </metadata>
  <defs
     id="defs6" />
  <sodipodi:namedview
     pagecolor="#ffffff"
     bordercolor="#666666"
     borderopacity="1"
     objecttolerance="10"
     gridtolerance="10"
     guidetolerance="10"
     inkscape:pageopacity="0"
     inkscape:pageshadow="2"
     inkscape:window-width="1216"
     inkscape:window-height="1000"
     id="namedview4"
     showgrid="false"
     inkscape:zoom="1.668772"
     inkscape:cx="257.07725"
     inkscape:cy="242.08584"
     inkscape:window-x="64"
     inkscape:window-y="24"
     inkscape:window-maximized="1"
     inkscape:current-layer="svg2" />
  <rect
     style="fill:#000000;fill-opacity:1;stroke:none"
     id="rect3072"
     width="400"
     height="400"
     x="0"
     y="5.6843419e-14" />
  <path
     style="fill:#ffffff"
     d="m 137.99482,213.25 c -2.6066,-8.97335 -5.14388,-17.9662 -7.59481,-26.98334 6.79359,3.35827 13.49533,6.89058 20.09999,10.6068 0.18204,-11.62449 0.36409,-23.24897 0.54615,-34.87346 8.41129,7.13116 15.66538,16.92144 23.56885,25.13387 3.23553,1.85604 9.66131,15.02312 9.96347,6.47886 3.09174,-17.32046 6.56649,-34.60081 9.42156,-51.94606 5.36156,14.24673 9.11951,29.4102 13.53475,44.10733 13.65508,-9.49057 27.31017,-18.98114 40.96525,-28.47171 -2.60606,13.78064 -7.49413,27.67559 -11.05133,41.47971 12.70929,-4.90695 25.45567,-9.71559 38.23819,-14.42847 -6.99771,9.86703 -13.83198,19.85491 -20.93175,29.64647 19.25887,0 38.51773,0 57.7766,0 8.78658,-14.82957 17.48789,-29.709 26.10507,-44.63764 -12.0687,1.57897 -24.15299,3.02817 -36.25189,4.35586 4.54356,-20.26041 9.2996,-40.47078 14.27901,-60.62853 -16.69359,11.29797 -33.3107,22.72783 -50.26789,33.63965 C 277.25475,120.0211 288.6831,93.550092 299.94528,67.013799 277.20985,79.42684 254.28013,91.483627 231.46842,103.75681 228.50179,80.057479 225.56644,56.354271 222.65944,32.647552 210.09877,57.029072 197.82373,81.553698 185.8085,106.2085 176.83507,86.20337 169.69297,65.040477 161.58716,44.527973 c -4.28285,2.272679 -9.37547,7.83965 -13.91786,11.416038 -6.25115,-8.691463 -12.63846,-17.28132 -19.19868,-25.742166 4.79352,34.613619 9.75642,69.202924 14.89367,103.767205 -4.35788,1.33 -8.86634,-7.39332 -13.28459,-10.09405 -15.0975,-14.34237 -30.44093,-28.421133 -45.731803,-42.55623 9.270847,29.4467 18.705473,58.84082 28.307423,88.18123 -17.848419,0.0703 -35.700283,-2.75825 -53.553065,-3.5 9.278582,16.01979 18.383306,32.14894 27.943851,48 16.984634,0 33.969264,0 50.953894,0 l -0.005,-0.75 -1.8e-4,0 z m 120.66222,143.09029 c -0.24099,-12.04606 -0.77201,-24.08851 -0.65704,-36.139 -13.03948,-10.85334 -26.80503,-21.27286 -39.04112,-32.82464 14.18037,-6.77972 28.36074,-13.55944 42.54112,-20.33915 17.83041,4.15417 35.66081,8.30833 53.49122,12.4625 -9.89103,17.91605 -21.44727,35.32207 -32.24235,52.87894 9.78951,13.60179 19.81949,27.03385 29.75074,40.5341 16.59136,0.029 33.18271,0.058 49.77407,0.087 -18.88853,-13.09429 -37.58372,-26.45945 -56.1118,-40.05875 2.78959,-8.5036 5.84487,-16.90904 9.28054,-25.17394 5.24226,-1.52097 10.41344,3.52586 15.62757,4.60387 13.80987,5.46102 27.61975,10.92202 41.42962,16.38303 -0.34206,-7.82066 1.47193,-16.55807 -0.21682,-23.80613 C 355.91452,300.90927 339.49134,297.10915 323,293.6055 c 3.41435,-7.66674 8.56622,-14.82163 12.95215,-22.1055 -24.5698,-5.99299 -49.2694,-11.51081 -73.81808,-17.59222 C 252.26666,242.27185 242.39925,230.63592 232.53184,219 c -4.7972,0.51899 -14.02089,-1.01561 -16.14654,0.74281 10.89074,12.86087 21.84034,25.67182 32.78542,38.48647 -18.27286,9.72201 -37.35203,18.22426 -56.00966,27.32103 12.11743,15.02217 24.41527,29.89517 36.8937,44.61884 C 223.04152,344.5848 214.49936,358.48661 208,373 c 17.10469,0 34.20939,0 51.31408,0 -0.21901,-5.55324 -0.43803,-11.10647 -0.65704,-16.65971 z M 68.837775,356.22298 C 74.617033,350.64865 80.396291,345.07433 86.175549,339.5 81.695016,321.64424 77.214484,303.78847 72.733953,285.93271 c 10.813885,-2.88542 22.784055,-3.45974 34.043647,-5.45431 1.00169,13.14151 1.87199,26.29167 2.60052,39.45117 9.87396,8.12861 19.74792,16.25723 29.62188,24.38584 -2.99389,9.79365 -8.47693,19.04646 -12,28.68459 12.60411,0 25.20821,0 37.81232,0 1.68215,-14.03834 2.95726,-28.12343 4.32549,-42.19552 -15.05657,-7.18027 -30.99587,-12.98925 -46.5081,-19.35751 -2.01042,-10.83331 -2.09186,-22.00195 -2.79317,-33.00431 17.69891,-2.27271 35.39781,-4.54543 53.09672,-6.81815 -6.74221,-8.93064 -13.44251,-17.89302 -20.15958,-26.84264 11.02502,-9.1634 22.92004,-17.29139 34.48193,-25.78187 -7.44859,0.41632 -15.42783,-0.79845 -22.56586,0.57243 -10.00056,7.37126 -20.23284,14.49267 -29.9166,22.25442 4.87739,6.42383 9.55394,12.99085 14.03881,19.69452 -30.46885,4.1883 -60.930531,8.4281 -91.385169,12.71851 1.67446,16.34782 3.593024,32.6668 5.779162,48.95417 C 52.212915,329.25434 40.087526,333.6081 28.5,338.63837 28.317591,350.09225 28.135181,361.54612 27.952772,373 c 7.975082,-0.50832 16.726588,0.90039 24.247446,-0.72943 5.545852,-5.3492 11.091705,-10.69839 16.637557,-16.04759 z"
     id="path3001"
     inkscape:connector-curvature="0" />
</svg>
