<?xml version="1.0" encoding="UTF-8" standalone="no"?>
<!-- Created with Inkscape (http://www.inkscape.org/) -->

<svg
   xmlns:dc="http://purl.org/dc/elements/1.1/"
   xmlns:cc="http://creativecommons.org/ns#"
   xmlns:rdf="http://www.w3.org/1999/02/22-rdf-syntax-ns#"
   xmlns:svg="http://www.w3.org/2000/svg"
   xmlns="http://www.w3.org/2000/svg"
   version="1.1"
   width="512"
   height="512"
   id="svg2">
  <metadata
     id="metadata8">
    <rdf:RDF>
      <cc:Work
         rdf:about="">
        <dc:format>image/svg+xml</dc:format>
        <dc:type
           rdf:resource="http://purl.org/dc/dcmitype/StillImage" />
        <dc:title></dc:title>
      </cc:Work>
    </rdf:RDF>
  </metadata>
  <defs
     id="defs6" />
  <path
     d="m 0,0 512,0 0,512 -512,0 z"
     id="rect3038"
     style="fill:#000000;fill-opacity:1;fill-rule:nonzero;stroke:none" />
  <path
     d="m 288.5235,237.74981 c -0.22756,-0.6875 -1.40056,-5.01005 -2.60668,-9.60566 -2.28866,-8.72037 -2.01213,-10.06654 2.08318,-10.14098 2.23874,-0.0407 24.16035,-5.38115 34.91686,-8.50631 62.1216,-18.04858 113.29369,-52.28143 129.67158,-86.74705 0.98009,-2.0625 2.19031,-3.75 2.68936,-3.75 2.18727,0 13.7136,13.03999 16.62592,18.80928 4.02145,7.96645 6.4573,17.46242 5.77817,22.52575 -0.91041,6.78761 -6.58124,16.39271 -14.25029,24.13679 -26.74344,27.00506 -81.16944,45.81785 -153.3217,52.99689 -18.64779,1.85542 -21.055,1.88679 -21.5864,0.28129 z M 201.5,237.48366 C 112.02612,228.16981 48.233603,200.05758 36.020663,164.56006 34.304758,159.57269 34.266359,158.56616 35.55672,152.39889 38.111034,140.19057 44.764243,128.87316 53.387505,122.06791 57.613922,118.73254 59,118.29391 59,120.29181 c 0,0.71049 2.327168,5.09799 5.171483,9.75 6.445146,10.54132 25.450784,29.85772 38.297937,38.92413 20.91659,14.76114 46.71596,27.27874 76.26591,37.00348 14.21347,4.67758 42.20016,12.01423 45.95077,12.04589 4.04177,0.0341 4.3728,1.21734 2.3869,8.5316 -1.03831,3.8242 -2.16307,8.19059 -2.49947,9.70309 -0.57709,2.59467 -0.9071,2.74246 -5.84258,2.61651 C 215.85393,238.79309 208.1,238.17089 201.5,237.48385 z m -76,43.87451 c -16.16453,-1.8426 -22.7342,-2.92601 -33.415112,-5.51049 -36.283641,-8.77964 -57.499157,-26.54278 -54.009723,-45.22081 0.876156,-4.68984 5.963048,-13.32076 8.402772,-14.25697 0.708791,-0.27199 3.703715,1.04881 6.655387,2.93511 24.754942,15.81992 64.556606,29.19816 109.029256,36.64719 17.77847,2.97785 44.34957,6.04761 52.34655,6.04761 5.1262,0 5.08966,-0.10235 3.40875,9.55015 l -1.08211,6.21398 -4.79323,0.63584 c -19.34433,2.56612 -36.0883,3.54727 -58.54254,3.43044 -13.75,-0.0715 -26.35,-0.28396 -28,-0.47205 z m 219,0.50808 c -17.41795,-0.55176 -46.61604,-3.20209 -48.56814,-4.40855 -0.36765,-0.22723 -0.97851,-3.15359 -1.35746,-6.50304 -0.37894,-3.34944 -0.93635,-6.73451 -1.23868,-7.52237 -0.43466,-1.13271 0.57135,-1.43472 4.80729,-1.44319 6.50642,-0.013 28.36676,-2.28616 43.35699,-4.5085 46.65397,-6.91658 88.43023,-20.28222 116.3424,-37.22188 l 7.3424,-4.45604 2.91014,2.78809 c 6.70086,6.41983 8.73625,16.77831 4.94009,25.14096 -4.36742,9.62105 -18.12292,20.39637 -33.68952,26.39053 C 414.7062,279.61 385.89446,283.17754 344.5,281.86625 z m 38,63.01895 c -20.28997,-1.536 -54.47224,-9.5577 -75.5,-17.7179 l -7.5,-2.91051 -0.74449,-10.30067 c -0.40947,-5.66536 -0.57742,-10.46773 -0.37323,-10.67192 0.20419,-0.2042 4.13922,0.0839 8.74449,0.64016 27.38669,3.30811 64.77798,3.74377 88.87323,1.03548 21.43387,-2.40915 43.35101,-8.1668 57.67952,-15.15245 3.39873,-1.65701 6.70748,-2.68643 7.35277,-2.28762 2.80583,1.73409 5.94817,10.96859 5.94817,17.48004 0,17.05969 -14.69662,31.31426 -38.17041,37.0223 -6.75695,1.64307 -30.30016,4.25579 -34.31005,3.80759 -0.55,-0.0615 -5.95,-0.4865 -12,-0.9445 z m -279,0.0936 C 86.776944,343.71971 73.772593,340.10993 63.302258,333.82079 47.741167,324.47381 41.368495,306.91404 48.365796,292.66365 c 3.261125,-6.64146 2.1313,-6.57469 15.134204,-0.89442 31.38527,13.71054 82.22458,18.4688 136,12.72881 7.7,-0.8219 14.12772,-1.49519 14.28383,-1.4962 0.15611,-0.001 0.15611,4.79479 0,10.65733 l -0.28383,10.65917 -11,3.91444 c -36.64952,13.04203 -71.00851,18.85397 -99,16.74619 z m 279,57.0001 c -21.22766,-3.79851 -49.92492,-16.09141 -75.85952,-32.49554 l -10.85951,-6.86885 0.60951,-4.44691 c 0.33524,-2.44563 0.60952,-5.25416 0.60952,-6.241 0,-1.61507 1.02365,-1.44523 10.25,1.70062 29.04099,9.90193 63.41992,16.34892 87.25,16.36176 15.07526,0.008 34.60439,-2.88518 43.62769,-6.46359 2.16001,-0.8566 2.84752,3.70192 1.68061,11.14321 -1.04339,6.65363 -3.75122,12.24041 -8.96535,18.49725 -5.77055,6.92454 -12.39373,9.01165 -29.84295,9.40421 -7.425,0.16704 -15.75,-0.0989 -18.5,-0.59099 z m -284,0.005 c -7.437223,-1.48181 -12.49149,-4.16778 -16.651482,-8.84902 -7.126095,-8.019 -10.907402,-18.67701 -9.426663,-26.57002 l 0.646941,-3.44849 4.715602,1.46394 c 16.319478,5.06632 40.787472,6.64553 62.215602,4.01552 23.13139,-2.83908 48.72225,-8.80929 68.44194,-15.96715 l 6.51681,-2.36548 0.58802,3.6184 c 0.32341,1.99012 0.79141,4.7434 1.04001,6.1184 0.40368,2.23279 -0.59222,3.15669 -9.3174,8.64382 -37.42333,23.535 -67.53301,34.51332 -93.92646,34.24661 C 107.37931,402.83017 100.7,402.42223 98.5,401.9839 z m 269,47.53625 c -17.88297,-3.9368 -36.02051,-14.83965 -53.8244,-32.35498 -7.9947,-7.86512 -20.70782,-23.13144 -24.02785,-28.85341 -0.37919,-0.65353 3.93244,1.7286 9.5814,5.29363 13.95736,8.80841 41.94242,22.44378 54.94876,26.77309 15.04422,5.00765 28.8412,7.62152 40.22917,7.62152 l 9.59292,0 0,4.85212 c 0,13.87828 -15.99427,21.1822 -36.5,16.66803 z m -244.83253,0.11314 c -9.07282,-2.56464 -13.48474,-7.46268 -14.3599,-15.94212 L 107.72019,428 l 9.60445,0 c 26.19643,0 60.88372,-12.39313 95.52951,-34.13093 5.14478,-3.22799 9.5706,-5.86907 9.83516,-5.86907 0.911,0 -7.09749,10.51999 -15.23894,20.01795 -12.61636,14.71846 -26.93023,26.23482 -42.01047,33.79992 -15.54565,7.79858 -32.11895,10.82687 -42.77243,7.81542 z m 29.66012,17.93552 c 21.39411,-5.42706 40.53843,-17.25409 60.68945,-37.49289 7.43438,-7.46676 16.19696,-17.29816 19.47241,-21.84756 4.34593,-6.03624 6.36819,-8.08923 7.48296,-7.59664 0.84017,0.37126 4.00259,1.55525 7.02759,2.63109 6.59065,2.34397 15.60709,1.88927 22.43589,-1.13143 l 4.38335,-1.93896 7.4517,9.65379 c 19.95778,25.85561 42.17609,43.97695 65.35707,53.30548 13.42554,5.40273 23.30358,7.20157 36.27735,6.6063 12.67129,-0.58139 19.81439,-2.96655 27.43831,-9.16195 9.4474,-7.6772 14.77112,-20.8551 13.15941,-32.57368 l -0.62762,-4.56332 4.31227,-2.10617 c 5.22578,-2.55233 15.15491,-11.21521 19.86411,-17.33085 9.3402,-12.12974 13.51805,-24.15611 12.65247,-36.42147 -0.31542,-4.46943 -1.04849,-9.3756 -1.62905,-10.9026 -0.96563,-2.53981 -0.73691,-3.04359 2.68459,-5.91312 20.71813,-17.37577 29.17963,-35.90476 25.10988,-54.98561 -1.20807,-5.66398 -4.47446,-13.40863 -7.71789,-18.29922 l -1.9896,-3 5.46941,-7.5 c 11.27111,-15.45565 15.12704,-28.67116 11.96271,-41 -1.99247,-7.76306 -4.58653,-13.01546 -9.25664,-18.74265 l -3.45958,-4.24265 4.53723,-5.56993 c 2.49548,-3.06345 6.2354,-9.00592 8.31093,-13.20548 3.77281,-7.63376 3.77369,-7.63854 3.7196,-20.18743 -0.0607,-14.0741 -1.54295,-21.08368 -6.88356,-32.55186 -5.8457,-12.5528 -15.63227,-23.45326 -26.80464,-29.8555 -3.619,-2.073848 -3.74255,-2.328668 -3.75,-7.734537 -0.004,-3.074521 -0.8951,-9.059738 -1.9797,-13.300482 -4.76914,-18.647178 -17.87765,-34.893083 -38.528,-47.74932 -8.56297,-5.331024 -24.4145,-13.278996 -25.10555,-12.587944 -0.23013,0.230128 2.62448,2.458965 6.34357,4.952971 14.73806,9.88328 26.30882,23.373592 31.28163,36.471143 4.2619,11.225139 3.77562,26.687904 -1.23602,39.303669 -13.80373,34.74796 -62.69506,68.00409 -125.73123,85.52302 -19.43711,5.40194 -31.32024,7.69068 -32.15111,6.19244 -2.36401,-4.26284 -7.70855,-10.72993 -10.38049,-12.56077 C 260.79129,178.96961 258.0091,178 256.33816,178 c -4.15538,0 -10.262,4.64785 -14.22906,10.82998 -3.79597,5.91551 -1.74195,5.87025 -23.6091,0.52024 C 151.49151,172.95595 99.316418,139.96577 83.050721,103.70597 77.196999,90.656747 76.019151,75.883907 79.875106,63.876704 c 4.30364,-13.401263 18.759613,-30.59081 33.245334,-39.531903 3.25044,-2.006289 5.70954,-3.848158 5.46465,-4.093041 -0.24488,-0.244884 -4.81928,1.62676 -10.16534,4.15921 C 73.378737,41.010057 53,66.243756 53,93.033741 l 0,5.935299 -6.484687,4.09545 C 34.171539,110.86029 23.382385,125.17125 18.29237,140.5 c -2.368638,7.13323 -2.663818,9.58033 -2.724412,22.58589 l -0.06796,14.5859 3.84981,7.5908 c 2.117396,4.17495 5.839207,9.92145 8.270692,12.77001 l 4.420882,5.17919 -3.649219,4.03925 c -2.007071,2.22159 -5.038283,7.01143 -6.736028,10.6441 -2.809902,6.01236 -3.08501,7.50192 -3.066767,16.60486 0.01617,8.06694 0.455323,11.04971 2.271817,15.43031 2.313496,5.57916 12.047932,20.91945 14.639747,23.07046 1.244077,1.0325 1.003874,1.85862 -1.670703,5.74598 -7.091799,10.30758 -9.713855,25.59973 -6.47333,37.75325 2.820522,10.5783 6.645135,16.55832 17.614679,27.54164 L 55.5,354.58328 l -1.317933,3.95836 c -1.939421,5.82498 -1.592532,18.95222 0.674972,25.54284 5.39106,15.66938 15.714681,28.59515 28.800608,36.06002 l 5.157646,2.94217 0.342354,9.73382 c 0.302875,8.61135 0.722867,10.50603 3.64214,16.4305 4.625895,9.38795 13.247223,16.04241 24.960143,19.26574 8.15799,2.24503 23.65604,1.82004 34.56766,-0.94792 z"
     id="path2989"
     style="fill:#ffffff" />
</svg>
