<svg xmlns="http://www.w3.org/2000/svg" viewBox="0 0 512 512" ><path d="M0 0h512v512H0z" fill="#000" stroke="#fff" stroke-width="0"></path><path fill="#fff" d="M136 25c-16.457 0-31.287 3.45-41.23 8.422C84.826 38.394 81 44.027 81 48c0 3.973 3.826 9.606 13.77 14.578C104.713 67.55 119.543 71 136 71c16.457 0 31.287-3.45 41.23-8.422C187.174 57.606 191 51.973 191 48c0-3.973-3.826-9.606-13.77-14.578C167.287 28.45 152.457 25 136 25zm160 32c-16.457 0-31.287 3.45-41.23 8.422C244.826 70.394 241 76.027 241 80c0 3.973 3.826 9.606 13.77 14.578C264.713 99.55 279.543 103 296 103c4.55 0 8.967-.27 13.2-.758 4.32-5.534 10.53-10.092 17.52-13.588 7.064-3.53 15.262-6.227 24.24-7.98.025-.23.04-.455.04-.674 0-3.973-3.826-9.606-13.77-14.578C327.287 60.45 312.457 57 296 57zM81 75.445V80c0 2.515 1.283 5.574 5.467 9.197 4.184 3.624 11.075 7.284 20.03 9.87 17.908 5.17 41.098 5.17 59.007 0 8.954-2.586 15.845-6.246 20.03-9.87C189.716 85.574 191 82.515 191 80v-4.555c-1.832 1.158-3.74 2.243-5.72 3.233C172.06 85.288 154.89 89 136 89s-36.06-3.712-49.28-10.322c-1.98-.99-3.888-2.075-5.72-3.233zM376 96.33c-16.457 0-31.287 3.452-41.23 8.424-9.944 4.972-13.77 10.603-13.77 14.576 0 3.973 3.826 9.606 13.77 14.578 9.943 4.972 24.773 8.422 41.23 8.422 16.457 0 31.287-3.45 41.23-8.422 9.944-4.972 13.77-10.605 13.77-14.578 0-3.973-3.826-9.604-13.77-14.576-9.943-4.972-24.773-8.424-41.23-8.424zm-135 11.115v2.313c2.9 1.073 5.67 2.26 8.28 3.564 9.037 4.52 16.8 10.794 20.81 18.69 10.174 2.46 21.72 3.366 32.91 2.718v-13.917c-2.305.116-4.636.187-7 .187-18.89 0-36.06-3.712-49.28-10.322-1.98-.99-3.888-2.075-5.72-3.233zm-160 .024V112c0 2.515 1.283 5.574 5.467 9.197 4.184 3.624 11.075 7.284 20.03 9.87 6.83 1.972 14.433 3.186 22.216 3.654 1.988-5.227 5.6-9.806 10.19-13.712-12.785.277-25.663-1.26-37.4-4.65-7.796-2.25-14.69-5.2-20.503-8.89zM200 121c-16.457 0-31.287 3.45-41.23 8.422C148.826 134.394 145 140.027 145 144c0 3.973 3.826 9.606 13.77 14.578C168.713 163.55 183.543 167 200 167c16.457 0 31.287-3.45 41.23-8.422C251.174 153.606 255 147.973 255 144c0-3.973-3.826-9.606-13.77-14.578C231.287 124.45 216.457 121 200 121zM81 139.47V144c0 2.515 1.283 5.574 5.467 9.197 4.184 3.624 11.075 7.284 20.03 9.87 6.328 1.826 13.32 2.993 20.503 3.53V152.75c-8.772-.594-17.406-2.057-25.496-4.393-7.797-2.25-14.69-5.203-20.504-8.89zm240 7.305v4.555c0 2.515 1.283 5.574 5.467 9.197 4.184 3.624 11.075 7.285 20.03 9.87 17.908 5.17 41.098 5.17 59.007 0 8.954-2.585 15.845-6.246 20.03-9.87 4.183-3.623 5.466-6.682 5.466-9.197v-4.555c-1.832 1.158-3.74 2.243-5.72 3.233-13.22 6.61-30.39 10.322-49.28 10.322s-36.06-3.712-49.28-10.322c-1.98-.99-3.888-2.075-5.72-3.233zm-48 4.246v13.65c9.435 1.962 19.865 2.647 30 2.06v-13.878c-10.064.53-20.263-.08-30-1.83zm-128 20.425V176c0 2.515 1.283 5.574 5.467 9.197 4.184 3.624 11.075 7.284 20.03 9.87 17.908 5.17 41.098 5.17 59.007 0 8.954-2.586 15.845-6.246 20.03-9.87 4.183-3.623 5.466-6.682 5.466-9.197v-4.555c-1.832 1.158-3.74 2.243-5.72 3.233C236.06 181.288 218.89 185 200 185s-36.06-3.712-49.28-10.322c-1.98-.99-3.888-2.075-5.72-3.233zm-64 .024V176c0 2.515 1.283 5.574 5.467 9.197 4.184 3.624 11.075 7.284 20.03 9.87 6.328 1.826 13.32 2.993 20.503 3.53V184.75c-8.772-.594-17.406-2.057-25.496-4.393-7.797-2.25-14.69-5.203-20.504-8.89zm240 7.33v4.53c0 2.515 1.283 5.574 5.467 9.197 4.184 3.624 11.075 7.285 20.03 9.87 17.908 5.17 41.098 5.17 59.007 0 8.954-2.585 15.845-6.246 20.03-9.87 4.183-3.623 5.466-6.682 5.466-9.197v-4.53c-5.813 3.688-12.707 6.64-20.504 8.89-21.694 6.262-47.298 6.262-68.992 0-7.797-2.25-14.69-5.202-20.504-8.89zm-48 4.22v13.65c9.435 1.962 19.865 2.647 30 2.06v-13.878c-10.064.53-20.263-.08-30-1.83zM81 203.47V208c0 2.515 1.283 5.574 5.467 9.197 4.184 3.624 11.075 7.284 20.03 9.87 6.328 1.826 13.32 2.993 20.503 3.53V216.75c-8.772-.594-17.406-2.057-25.496-4.393-7.797-2.25-14.69-5.203-20.504-8.89zm64 0V208c0 2.515 1.283 5.574 5.467 9.197 4.184 3.624 11.075 7.284 20.03 9.87 17.908 5.17 41.098 5.17 59.007 0 8.954-2.586 15.845-6.246 20.03-9.87 4.183-3.623 5.466-6.682 5.466-9.197v-4.53c-5.813 3.687-12.707 6.64-20.504 8.89-21.694 6.262-47.298 6.262-68.992 0-7.797-2.25-14.69-5.203-20.504-8.89zm176 7.33v4.53c0 2.515 1.283 5.574 5.467 9.197 4.184 3.624 11.075 7.285 20.03 9.87 17.908 5.17 41.098 5.17 59.007 0 8.954-2.585 15.845-6.246 20.03-9.87 4.183-3.623 5.466-6.682 5.466-9.197v-4.53c-5.813 3.688-12.707 6.64-20.504 8.89-21.694 6.262-47.298 6.262-68.992 0-7.797-2.25-14.69-5.202-20.504-8.89zm-48 4.22v13.65c9.435 1.962 19.865 2.647 30 2.06v-13.878c-10.064.53-20.263-.08-30-1.83zm-128 20.45v2.288c2.9 1.073 5.67 2.26 8.28 3.564 9.038 4.52 16.802 10.795 20.812 18.692 17.338 4.196 38.678 3.883 55.412-.948 8.954-2.585 15.845-6.245 20.03-9.87 4.183-3.622 5.466-6.68 5.466-9.196v-4.53c-5.813 3.687-12.707 6.64-20.504 8.89-21.694 6.262-47.298 6.262-68.992 0-7.797-2.25-14.69-5.203-20.504-8.89zm176 7.33v4.53c0 2.515 1.283 5.574 5.467 9.197 4.184 3.624 11.075 7.285 20.03 9.87 17.908 5.17 41.098 5.17 59.007 0 8.954-2.585 15.845-6.246 20.03-9.87 4.183-3.623 5.466-6.682 5.466-9.197v-4.53c-5.813 3.688-12.707 6.64-20.504 8.89-21.694 6.262-47.298 6.262-68.992 0-7.797-2.25-14.69-5.202-20.504-8.89zm-48 4.22v13.65c9.435 1.962 19.865 2.647 30 2.06v-13.878c-10.064.53-20.263-.08-30-1.83zM104 249c-16.457 0-31.287 3.45-41.23 8.422C52.826 262.394 49 268.027 49 272c0 3.973 3.826 9.606 13.77 14.578C72.713 291.55 87.543 295 104 295c16.457 0 31.287-3.45 41.23-8.422C155.174 281.606 159 275.973 159 272c0-3.973-3.826-9.606-13.77-14.578C135.287 252.45 120.457 249 104 249zm151 18.47c-5.813 3.687-12.707 6.64-20.504 8.89-17.97 5.187-38.608 6.05-57.496 2.642v13.664c16.775 3.494 36.694 2.964 52.504-1.6 8.954-2.585 15.845-6.245 20.03-9.87 4.183-3.622 5.466-6.68 5.466-9.196v-4.53zm66 7.33v4.53c0 2.515 1.283 5.574 5.467 9.197 4.045 3.503 10.64 7.03 19.162 9.598 3.74-3.428 8.228-6.37 13.09-8.803 1.152-.575 2.344-1.12 3.553-1.652-7.14-.744-14.137-2.066-20.77-3.98-7.796-2.25-14.69-5.202-20.503-8.89zm110 0c-2.84 1.8-5.938 3.422-9.27 4.876 3.1.31 6.13.734 9.082 1.252.12-.553.188-1.09.188-1.598v-4.53zm-158 4.22v13.62c6.997 1.482 14.783 2.36 23 2.36 2.374 0 4.705-.087 7-.227v-13.92c-10.064.53-20.263-.082-30-1.832zM408 297c-16.457 0-31.287 3.45-41.23 8.422C356.826 310.394 353 316.027 353 320c0 3.973 3.826 9.606 13.77 14.578C376.713 339.55 391.543 343 408 343c16.457 0 31.287-3.45 41.23-8.422C459.174 329.606 463 323.973 463 320c0-3.973-3.826-9.606-13.77-14.578C439.287 300.45 424.457 297 408 297zm-359 2.445V304c0 2.515 1.283 5.574 5.467 9.197 4.184 3.624 11.075 7.284 20.03 9.87 17.908 5.17 41.098 5.17 59.007 0 8.954-2.586 15.845-6.246 20.03-9.87 4.183-3.623 5.466-6.682 5.466-9.197v-4.555c-1.832 1.158-3.74 2.243-5.72 3.233C140.06 309.288 122.89 313 104 313s-36.06-3.712-49.28-10.322c-1.98-.99-3.888-2.075-5.72-3.233zm206 .024c-5.813 3.687-12.707 6.64-20.504 8.89-17.97 5.187-38.608 6.05-57.496 2.642v13.664c16.775 3.494 36.694 2.964 52.504-1.6 8.954-2.585 15.845-6.245 20.03-9.87 4.183-3.622 5.466-6.68 5.466-9.196v-4.53zm66 7.33v4.53c0 3.973 3.826 9.606 13.77 14.578.074.037.155.073.23.11V313.56c-5.168-1.89-9.862-4.135-14-6.76zM49 331.47V336c0 2.515 1.283 5.574 5.467 9.197 4.184 3.624 11.075 7.284 20.03 9.87 17.908 5.17 41.098 5.17 59.007 0 8.954-2.586 15.845-6.246 20.03-9.87 4.183-3.623 5.466-6.682 5.466-9.197v-4.53c-5.813 3.687-12.707 6.64-20.504 8.89-21.694 6.262-47.298 6.262-68.992 0-7.797-2.25-14.69-5.203-20.504-8.89zM177 343v13.648c4.885 1.032 10.16 1.767 15.697 2.114 1.985-5.246 5.602-9.84 10.207-13.756-8.726.19-17.487-.487-25.904-2.006zM264 345c-16.457 0-31.287 3.45-41.23 8.422C212.826 358.394 209 364.027 209 368c0 3.973 3.826 9.606 13.77 14.578C232.713 387.55 247.543 391 264 391c16.457 0 31.287-3.45 41.23-8.422C315.174 377.606 319 371.973 319 368c0-3.973-3.826-9.606-13.77-14.578C295.287 348.45 280.457 345 264 345zm89 2.445V352c0 2.515 1.283 5.574 5.467 9.197 4.184 3.624 11.075 7.284 20.03 9.87 17.908 5.17 41.098 5.17 59.007 0 8.954-2.586 15.845-6.246 20.03-9.87 4.183-3.623 5.466-6.682 5.466-9.197v-4.555c-1.832 1.158-3.74 2.243-5.72 3.233C444.06 357.288 426.89 361 408 361s-36.06-3.712-49.28-10.322c-1.98-.99-3.888-2.075-5.72-3.233zM49 363.47V368c0 2.515 1.283 5.574 5.467 9.197 4.184 3.624 11.075 7.284 20.03 9.87 17.908 5.17 41.098 5.17 59.007 0 8.954-2.586 15.845-6.246 20.03-9.87 4.183-3.623 5.466-6.682 5.466-9.197v-4.53c-5.813 3.687-12.707 6.64-20.504 8.89-21.694 6.262-47.298 6.262-68.992 0-7.797-2.25-14.69-5.203-20.504-8.89zm304 16V384c0 2.515 1.283 5.574 5.467 9.197 4.184 3.624 11.075 7.284 20.03 9.87 17.908 5.17 41.098 5.17 59.007 0 8.954-2.586 15.845-6.246 20.03-9.87 4.183-3.623 5.466-6.682 5.466-9.197v-4.53c-5.813 3.687-12.707 6.64-20.504 8.89-21.694 6.262-47.298 6.262-68.992 0-7.797-2.25-14.69-5.203-20.504-8.89zm-144 15.975V400c0 2.515 1.283 5.574 5.467 9.197 4.184 3.624 11.075 7.284 20.03 9.87 17.908 5.17 41.098 5.17 59.007 0 8.954-2.586 15.845-6.246 20.03-9.87 4.183-3.623 5.466-6.682 5.466-9.197v-4.555c-1.832 1.158-3.74 2.243-5.72 3.233C300.06 405.288 282.89 409 264 409s-36.06-3.712-49.28-10.322c-1.98-.99-3.888-2.075-5.72-3.233zm-160 .024V400c0 2.515 1.283 5.574 5.467 9.197 4.184 3.624 11.075 7.284 20.03 9.87 17.908 5.17 41.098 5.17 59.007 0 8.954-2.586 15.845-6.246 20.03-9.87 4.183-3.623 5.466-6.682 5.466-9.197v-4.53c-5.813 3.687-12.707 6.64-20.504 8.89-21.694 6.262-47.298 6.262-68.992 0-7.797-2.25-14.69-5.203-20.504-8.89zm304 16V416c0 2.515 1.283 5.574 5.467 9.197 4.184 3.624 11.075 7.284 20.03 9.87 17.908 5.17 41.098 5.17 59.007 0 8.954-2.586 15.845-6.246 20.03-9.87 4.183-3.623 5.466-6.682 5.466-9.197v-4.53c-5.813 3.687-12.707 6.64-20.504 8.89-21.694 6.262-47.298 6.262-68.992 0-7.797-2.25-14.69-5.203-20.504-8.89zm-304 16V432c0 2.515 1.283 5.574 5.467 9.197 4.184 3.624 11.075 7.284 20.03 9.87 17.908 5.17 41.098 5.17 59.007 0 8.954-2.586 15.845-6.246 20.03-9.87 4.183-3.623 5.466-6.682 5.466-9.197v-4.53c-5.813 3.687-12.707 6.64-20.504 8.89-21.694 6.262-47.298 6.262-68.992 0-7.797-2.25-14.69-5.203-20.504-8.89zm160 0V432c0 3.973 3.826 9.606 13.77 14.578C232.713 451.55 247.543 455 264 455c16.457 0 31.287-3.45 41.23-8.422C315.174 441.606 319 435.973 319 432v-4.53c-5.813 3.687-12.707 6.64-20.504 8.89-21.694 6.262-47.298 6.262-68.992 0-7.797-2.25-14.69-5.203-20.504-8.89zm144 16V448c0 3.973 3.826 9.606 13.77 14.578C376.713 467.55 391.543 471 408 471c16.457 0 31.287-3.45 41.23-8.422C459.174 457.606 463 451.973 463 448v-4.53c-5.813 3.687-12.707 6.64-20.504 8.89-21.694 6.262-47.298 6.262-68.992 0-7.797-2.25-14.69-5.203-20.504-8.89zm-304 16V464c0 3.973 3.826 9.606 13.77 14.578C72.713 483.55 87.543 487 104 487c16.457 0 31.287-3.45 41.23-8.422C155.174 473.606 159 467.973 159 464v-4.53c-5.813 3.687-12.707 6.64-20.504 8.89-21.694 6.262-47.298 6.262-68.992 0-7.797-2.25-14.69-5.203-20.504-8.89z"></path></svg>