<?xml version="1.0" encoding="UTF-8" standalone="no"?>
<!-- Created with Inkscape (http://www.inkscape.org/) -->

<svg
   xmlns:dc="http://purl.org/dc/elements/1.1/"
   xmlns:cc="http://creativecommons.org/ns#"
   xmlns:rdf="http://www.w3.org/1999/02/22-rdf-syntax-ns#"
   xmlns:svg="http://www.w3.org/2000/svg"
   xmlns="http://www.w3.org/2000/svg"
   xmlns:sodipodi="http://sodipodi.sourceforge.net/DTD/sodipodi-0.dtd"
   xmlns:inkscape="http://www.inkscape.org/namespaces/inkscape"
   version="1.1"
   width="400"
   height="400"
   id="svg2"
   inkscape:version="0.48.3.1 r9886"
   sodipodi:docname="combat.svg">
  <sodipodi:namedview
     pagecolor="#ffffff"
     bordercolor="#666666"
     borderopacity="1"
     objecttolerance="10"
     gridtolerance="10"
     guidetolerance="10"
     inkscape:pageopacity="0"
     inkscape:pageshadow="2"
     inkscape:window-width="1855"
     inkscape:window-height="1056"
     id="namedview7"
     showgrid="false"
     inkscape:zoom="0.59"
     inkscape:cx="200"
     inkscape:cy="200"
     inkscape:window-x="65"
     inkscape:window-y="24"
     inkscape:window-maximized="1"
     inkscape:current-layer="svg2" />
  <metadata
     id="metadata8">
    <rdf:RDF>
      <cc:Work
         rdf:about="">
        <dc:format>image/svg+xml</dc:format>
        <dc:type
           rdf:resource="http://purl.org/dc/dcmitype/StillImage" />
        <dc:title />
      </cc:Work>
    </rdf:RDF>
  </metadata>
  <defs
     id="defs6" />
  <path
     d="m 0,-7.6293945e-6 400,0 L 400,399.99999 l -400,0 z"
     id="rect3030"
     style="fill:#000000;fill-opacity:1;stroke:none" />
  <path
     d="m 114.9367,298.75786 c -5.37312,-3.14277 -13.53959,-7.92511 -18.14771,-10.62741 -4.60812,-2.7023 -8.88312,-4.71112 -9.5,-4.46405 -0.61688,0.24708 -8.7716,4.94441 -18.1216,10.43852 l -17,9.98929 0,21.7384 0,21.7384 17,9.98929 c 9.35,5.49411 17.49582,10.18802 18.10182,10.43092 0.606,0.2429 9.156,-4.26109 19,-10.00887 l 17.89818,-10.45051 0.26931,-21.52992 0.26931,-21.52991 -9.76931,-5.71415 z M 156.93626,62.393843 C 147.16338,56.678232 138.67191,52.00125 138.06632,52.00055 c -0.60559,-7e-4 -9.04309,4.622424 -18.75,10.27361 l -17.64893,10.274883 0.0127,21.641784 0.0127,21.641783 17.82607,10.25 c 9.80433,5.6375 18.23613,10.2321 18.73732,10.21022 0.50119,-0.0219 8.78625,-4.64114 18.41125,-10.26504 l 17.5,-10.22526 0.26887,-21.508336 0.26887,-21.508331 -17.76887,-10.39202 z m 53.98113,84.644127 c -3.1625,-1.8917 -11.31953,-6.7001 -18.12673,-10.68532 l -12.37672,-7.24587 -3.8303,2.15274 c -2.10667,1.18402 -10.26214,5.9189 -18.12327,10.52197 l -14.29298,8.36922 0,21.69771 0,21.6977 16.98203,9.89325 c 9.34011,5.44128 17.40201,9.89324 17.91533,9.89324 0.51332,0 9.18391,-4.78624 19.26797,-10.63608 l 18.33467,-10.63609 0,-20.79151 0,-20.79151 -5.75,-3.43945 z m 29.88182,69.54464 c -9.79125,-5.6375 -18.35029,-10.25 -19.02009,-10.25 -0.66979,0 -9.06894,4.56471 -18.66477,10.1438 l -17.44696,10.14379 0,21.71675 0,21.71675 18.09154,10.50503 18.09154,10.50503 18.36975,-10.61557 18.36975,-10.61558 0.006,-21.5 0.006,-21.5 -17.80226,-10.25 z m 42.1372,77.76929 c -9.77296,-5.68079 -18.26424,-10.33409 -18.8695,-10.34067 -0.60527,-0.007 -9.04277,4.59898 -18.75,10.23458 l -17.64952,10.24653 0.0214,21.67013 0.0214,21.67014 17.02908,9.85683 c 9.36599,5.42125 17.79384,10.02442 18.72857,10.22926 0.93472,0.20483 9.57449,-4.24218 19.19949,-9.88227 l 17.5,-10.25469 0.26902,-21.55057 0.26902,-21.55056 -17.76902,-10.32871 z m 3.25754,-156.30269 -18.47344,-10.75704 -17.77656,10.35056 -17.77656,10.35057 -0.2546,21.91965 -0.25461,21.91966 17.20314,10 c 9.46172,5.5 17.70668,10.12968 18.32213,10.28818 0.61545,0.1585 9.30111,-4.49693 19.30147,-10.34541 l 18.18247,-10.63361 0,-21.16775 0,-21.16776 -18.47344,-10.75705 z m 51.47344,152.84919 -22.5,13.09557 -0.26621,25.96997 -0.26622,25.96997 -24.73378,14.36458 c -13.60359,7.90052 -25.03553,14.51969 -25.40433,14.70926 -0.36879,0.18957 -12.06879,-6.30902 -26,-14.44131 l -25.32946,-14.78599 -0.5,-26.82274 -0.5,-26.82273 -16.23265,-9.48229 -16.23264,-9.48228 -20.49938,11.8311 -20.49938,11.8311 -0.0268,24.5 -0.0267,24.5 -20.70208,12 c -11.38615,6.6 -22.76675,13.19495 -25.29023,14.65543 l -4.58815,2.65544 -25.45099,-14.80032 -25.451,-14.80031 0,-29.72321 0,-29.7232 23.25,-13.48181 23.25,-13.4818 0,-21.18443 0,-21.18442 -20.51185,-11.8775 C 51.87403,208.35386 42.19203,202.46477 41.64,201.7996 41.00556,201.03516 40.73399,189.96809 40.90184,171.71849 l 0.26555,-28.87173 22.5,-13.16774 22.5,-13.16774 0.5,-26.091881 0.5,-26.091882 24.95097,-14.497453 c 13.72303,-7.9736 25.389,-14.497454 25.92436,-14.497454 0.53536,0 10.27965,5.407663 21.65398,12.01703 l 20.68059,12.017029 22.26098,-13.017029 c 12.24354,-7.159367 22.62359,-13.01703 23.06679,-13.01703 0.44319,0 12.09103,6.5757 25.88407,14.612667 l 25.07826,14.612667 0,26.678964 0,26.678962 20.75,12.10578 20.75,12.10577 0.5,26.83596 0.5,26.83596 20.73804,12.01663 20.73805,12.01664 -0.23805,29.98512 -0.23804,29.98511 -22.5,13.09556 z"
     id="path2989"
     style="fill:#ffffff"
     inkscape:connector-curvature="0" />
</svg>
