<?xml version="1.0" encoding="UTF-8" standalone="no"?>
<!-- Created with Inkscape (http://www.inkscape.org/) -->

<svg
   xmlns:dc="http://purl.org/dc/elements/1.1/"
   xmlns:cc="http://creativecommons.org/ns#"
   xmlns:rdf="http://www.w3.org/1999/02/22-rdf-syntax-ns#"
   xmlns:svg="http://www.w3.org/2000/svg"
   xmlns="http://www.w3.org/2000/svg"
   version="1.1"
   width="400"
   height="400"
   id="svg2">
  <metadata
     id="metadata8">
    <rdf:RDF>
      <cc:Work
         rdf:about="">
        <dc:format>image/svg+xml</dc:format>
        <dc:type
           rdf:resource="http://purl.org/dc/dcmitype/StillImage" />
        <dc:title></dc:title>
      </cc:Work>
    </rdf:RDF>
  </metadata>
  <defs
     id="defs6" />
  <path
     d="m 0,0 400,0 0,400 -400,0 z"
     id="rect3022"
     style="fill:#000000;fill-opacity:1;stroke:none" />
  <path
     d="m 122.23627,156.25 c 0.54069,-33.14017 1.37375,-39.04148 7.35334,-52.09028 10.46555,-22.838139 30.13711,-38.589592 54.73229,-43.825358 11.25132,-2.395156 27.81773,-1.365389 38.90794,2.418515 23.59932,8.051925 40.96214,25.523886 49.43637,49.747123 l 2.79871,8 0.3402,32.75 0.3402,32.75 14.92734,0 14.92734,0 0,-31.81634 c 0,-17.50592 -0.4668,-34.4852 -1.03783,-37.75 C 298.5999,80.058408 272.51967,47.677557 238.94613,34.469077 216.43035,25.61093 190.08271,24.59164 167.52366,31.706013 132.33501,42.803338 105.03839,71.600139 95.943915,107.21966 93.036981,118.605 92.072269,131.81169 92.033675,160.75 L 92,186 l 14.87545,0 14.87545,0 0.48537,-29.75 z m 43.33888,186.5 c 0.39045,-1.2375 5.59578,-17.1684 11.56738,-35.402 C 183.11414,289.1144 188,273.96966 188,273.69302 c 0,-0.27664 -2.01064,-1.68129 -4.4681,-3.12146 -10.23455,-5.99784 -15.27001,-20.29483 -11.64796,-33.07156 4.34328,-15.32085 23.70211,-24.03556 38.88421,-17.50439 18.75804,8.06949 23.39781,33.37902 8.61677,47.0037 -2.4137,2.22487 -5.46126,4.53398 -6.77237,5.13136 l -2.38383,1.08615 11.88564,35.62597 C 228.65146,328.43707 234,344.58828 234,344.73438 234,344.88047 218.44468,345 199.43261,345 l -34.56739,0 0.70993,-2.25 z M 222.5,371.57791 C 276.59981,363.24527 318.72065,331.60546 333.76401,288 c 4.36037,-12.63917 5.5841,-21.79864 4.96956,-37.19629 -0.71695,-17.96345 -4.25468,-30.49219 -13.14535,-46.55371 l -2.90608,-5.25 -123.255,0 -123.255008,0 -3.45391,6.25 C 59.283667,229.56041 56.13195,258.71916 64.098188,285 70.89846,307.43429 87.852515,330.04779 109.5,345.55743 c 13.4247,9.61831 36.14891,19.69632 53,23.50509 17.57109,3.97151 43.49108,5.05816 60,2.51539 z"
     id="path2989"
     style="fill:#ffffff" />
</svg>
