<?xml version="1.0" encoding="UTF-8" standalone="no"?>
<!-- Created with Inkscape (http://www.inkscape.org/) -->

<svg
   xmlns:dc="http://purl.org/dc/elements/1.1/"
   xmlns:cc="http://creativecommons.org/ns#"
   xmlns:rdf="http://www.w3.org/1999/02/22-rdf-syntax-ns#"
   xmlns:svg="http://www.w3.org/2000/svg"
   xmlns="http://www.w3.org/2000/svg"
   version="1.1"
   width="400"
   height="400"
   id="svg2">
  <metadata
     id="metadata8">
    <rdf:RDF>
      <cc:Work
         rdf:about="">
        <dc:format>image/svg+xml</dc:format>
        <dc:type
           rdf:resource="http://purl.org/dc/dcmitype/StillImage" />
        <dc:title></dc:title>
      </cc:Work>
    </rdf:RDF>
  </metadata>
  <defs
     id="defs6" />
  <path
     d="m 0,0 400,0 0,400 -400,0 z"
     id="rect3026"
     style="fill:#000000;fill-opacity:1;stroke:none" />
  <path
     d="m 159.89853,340.00599 13.39853,-0.006 -0.59216,-8.39097 c -0.7362,-10.43216 -3.26664,-16.13057 -9.75236,-21.96179 -12.22178,-10.98844 -30.43596,-9.57246 -39.31165,3.0561 -3.38899,4.82195 -4.51012,12.13283 -2.70114,17.61411 0.6445,1.95284 3.01593,5.21666 5.26984,7.25294 l 4.09803,3.70232 8.09619,-0.63036 c 4.4529,-0.3467 14.12553,-0.63306 21.49472,-0.63636 z m -48.05957,-237.4427 c 0.40678,-6.527823 -1.72737,-14.40589 -6.43478,-23.753566 L 101.97486,72 l 15.95355,0 c 11.67263,0 16.16666,0.335421 16.74772,1.25 1.34621,2.118925 1.60279,23.089465 0.35599,29.09529 L 133.8582,108 l -11.1791,0.001 -11.1791,10e-4 0.33896,-5.43944 z m -35.888399,4.12635 C 57.174293,101.41261 46.378733,78.958217 54.299688,61.656572 57.605691,54.435311 64.932512,47.133272 72.521807,43.496086 87.500653,36.317443 114.2556,40.668333 124.13455,51.889352 L 128.19376,56.5 102.09688,56.766603 C 85.254128,56.938667 76,57.393747 76,58.049939 c 0,0.559202 3.201533,5.788539 7.114519,11.620748 8.47386,12.630083 13.627555,23.110033 14.495544,29.476438 0.585767,4.296405 0.424539,4.784095 -2.13632,6.462035 -3.479839,2.28008 -13.317626,2.82453 -19.523182,1.08048 z M 141,366.51125 c 8.75482,-2.06885 17.03978,-5.54148 21.69863,-9.09496 5.88812,-4.49108 4.80264,-4.78494 -15.02899,-4.06854 l -18.33035,0.66217 -6.19194,-3.09415 c -14.23004,-7.11084 -20.0259,-24.70699 -13.25553,-40.24359 3.0449,-6.98739 12.25612,-15.79665 19.61555,-18.75955 L 135.5,289.5 l 69.25,-0.28261 c 66.76378,-0.27247 69.25,-0.34944 69.25,-2.14405 0,-6.70524 2.46415,-24.0373 4.53467,-31.89543 6.02818,-22.87838 14.4899,-38.31625 32.98441,-60.17791 14.08966,-16.65486 25.5501,-36.70555 32.36172,-56.61869 1.71556,-5.01528 3.1192,-9.5723 3.1192,-10.12672 0,-0.55443 -6.29162,-4.76189 -13.98139,-9.34993 -7.68976,-4.58804 -13.65226,-8.62745 -13.25,-8.97648 0.40227,-0.34903 5.45639,-1.43719 11.23139,-2.41815 5.775,-0.98096 11.33291,-2.08624 12.3509,-2.45619 1.41012,-0.51245 -1.74072,-2.78658 -13.23065,-9.549254 -8.29485,-4.882139 -14.91803,-9.040143 -14.71816,-9.240009 0.19987,-0.199866 8.17866,-1.73018 17.73065,-3.400697 9.55199,-1.670517 17.55816,-3.226688 17.79149,-3.458157 0.23333,-0.23147 -0.2937,-3.729162 -1.17117,-7.77265 C 346.12626,54.920323 336.61145,42.214067 322.82241,35.66938 310.2821,29.717378 300.98931,28.788545 280.5,31.439166 c -20.03469,2.591808 -48.53222,3.847629 -87,3.833891 -43.04847,-0.01537 -68.34295,-1.426985 -74.80245,-4.17451 C 104.47484,25.048967 84.893525,23.881298 72.126007,28.321403 55.247961,34.191007 42.706573,47.257585 38.361353,63.5 c -2.598734,9.714058 -0.942029,22.473769 4.247703,32.715212 3.172995,6.261608 12.30856,16.064458 18.176748,19.504428 9.627996,5.644 14.62261,6.47677 42.904426,7.15359 l 26.19023,0.62677 -4.88252,11.80882 c -5.98907,14.48507 -11.9729,25.79595 -26.104321,49.34346 C 92.902129,194.63604 88,203.11246 88,203.48879 c 0,0.37632 5.409339,6.38279 12.02075,13.34772 8.88282,9.35777 11.55851,12.74196 10.25,12.9641 -0.97391,0.16534 -10.05543,1.74034 -20.181161,3.5 L 71.679178,236.5 l -2.372996,7 c -3.196718,9.42986 -6.886358,23.95768 -9.015957,35.5 -2.624536,14.22485 -2.335545,40.75709 0.559965,51.41033 5.457909,20.08089 14.356122,30.85589 30.00602,36.33483 6.21222,2.17486 7.81304,2.30037 24.64379,1.93218 12.53158,-0.27415 20.27851,-0.93221 25.5,-2.16609 z m 211.1224,1.85142 c 11.48848,-5.31209 17.96394,-15.36189 18.59731,-28.86267 0.61948,-13.20489 1.68128,-12.51847 -24.24692,-15.67497 C 334.38776,322.3538 323.375,321.07662 322,320.98686 c -1.72993,-0.11294 2.12042,-2.42294 12.5,-7.49931 13.62678,-6.66449 14.77113,-7.42324 12.5,-8.28792 -8.18254,-3.11534 -14.02244,-3.30452 -92.70407,-3.00307 l -79.20407,0.30344 3.49212,5.21008 c 2.18957,3.26674 4.27303,8.29817 5.58573,13.48916 4.4763,17.70139 0.12344,34.0318 -11.93619,44.78037 l -5.71253,5.09149 90.4895,-0.28555 c 90.02097,-0.28407 90.51344,-0.29662 95.11191,-2.42288 z"
     id="path2989"
     style="fill:#ffffff" />
</svg>
