<?xml version="1.0" encoding="UTF-8" standalone="no"?>
<!-- Created with Inkscape (http://www.inkscape.org/) -->

<svg
   xmlns:dc="http://purl.org/dc/elements/1.1/"
   xmlns:cc="http://creativecommons.org/ns#"
   xmlns:rdf="http://www.w3.org/1999/02/22-rdf-syntax-ns#"
   xmlns:svg="http://www.w3.org/2000/svg"
   xmlns="http://www.w3.org/2000/svg"
   xmlns:sodipodi="http://sodipodi.sourceforge.net/DTD/sodipodi-0.dtd"
   xmlns:inkscape="http://www.inkscape.org/namespaces/inkscape"
   id="svg2"
   version="1.1"
   inkscape:version="0.48.3.1 r9886"
   width="400"
   height="400"
   sodipodi:docname="Icon.5_24.png">
  <metadata
     id="metadata8">
    <rdf:RDF>
      <cc:Work
         rdf:about="">
        <dc:format>image/svg+xml</dc:format>
        <dc:type
           rdf:resource="http://purl.org/dc/dcmitype/StillImage" />
        <dc:title></dc:title>
      </cc:Work>
    </rdf:RDF>
  </metadata>
  <defs
     id="defs6" />
  <sodipodi:namedview
     pagecolor="#ffffff"
     bordercolor="#666666"
     borderopacity="1"
     objecttolerance="10"
     gridtolerance="10"
     guidetolerance="10"
     inkscape:pageopacity="0"
     inkscape:pageshadow="2"
     inkscape:window-width="1855"
     inkscape:window-height="1056"
     id="namedview4"
     showgrid="false"
     inkscape:zoom="0.59"
     inkscape:cx="200"
     inkscape:cy="200"
     inkscape:window-x="65"
     inkscape:window-y="24"
     inkscape:window-maximized="1"
     inkscape:current-layer="svg2" />
  <path
     style="fill:#000000"
     d="m 0,0 400,0 0,400 -400,0 z"
     id="rect3036" />
  <path
     id="path2989"
     style="fill:#ffffff"
     d="m 167.5,69.636658 c 22.92228,-5.543963 50.23918,-5.019665 70.7291,1.357516 3.40178,1.058752 6.29999,1.81007 6.44046,1.669595 0.14048,-0.140475 -9.85398,-10.357309 -22.2099,-22.704077 L 199.99435,27.511025 176.74718,50.814683 C 156.71809,70.892435 154.05372,73.908584 157.5,72.603077 c 2.2,-0.833395 6.7,-2.168284 10,-2.966419 z M 322,110 l 0,-32 -32.20804,0 -32.20803,0 8.95803,5.135299 c 21.38179,12.257357 39.0624,30.006991 50.46033,50.657301 2.47374,4.48183 4.61021,8.16197 4.74771,8.17809 C 321.8875,141.98681 322,127.6 322,110 z M 93.412513,118.95031 C 104.06008,104.53888 119.78179,90.939088 136,82.11074 l 7.5,-4.082609 -32.25,-0.01407 L 79,78 l 0.01261,32.25 0.01261,32.25 4.257528,-7.80083 c 2.341641,-4.29045 6.900033,-11.37744 10.129761,-15.74886 z M 71.890751,237.48561 C 65.310008,214.16632 64.813425,190.50953 70.421674,167.5 c 1.340547,-5.5 2.753458,-10.9 3.139801,-12 0.386343,-1.1 -9.706978,8.34637 -22.429602,20.99193 l -23.132045,22.99194 22.704356,22.72046 c 12.487396,12.49625 22.806408,22.61841 22.931138,22.49368 0.12473,-0.12473 -0.660327,-3.37031 -1.744571,-7.2124 z M 372,199.49982 C 372,198.94075 361.875,188.36583 349.5,176 337.125,163.63417 327,153.87479 327,154.31249 c 0,0.43771 1.0862,4.70896 2.41377,9.49167 3.45675,12.45327 4.58679,21.30361 4.58221,35.88739 -0.005,14.38052 -1.7702,26.98523 -5.42833,38.75124 l -2.46947,7.94279 22.95091,-22.93464 C 361.67209,210.83689 372,200.05889 372,199.49982 z M 189,301.33179 C 171.39598,298.54442 157.18562,293.4468 144.90342,285.51321 134.97638,279.10092 122.02814,266.31506 115.4089,256.38858 112.43401,251.9273 110,247.92822 110,247.50174 c 0,-0.42648 2.1375,1.2206 4.75,3.66019 13.32648,12.44445 32.77042,21.82426 55.30667,26.68007 10.81383,2.33003 27.4083,3.91186 26.81708,2.55629 -0.21548,-0.49406 -2.3555,-4.71074 -4.75561,-9.37041 C 186.73843,260.58347 180.84287,242.7812 178.3654,229.5 c -2.84267,-15.23892 -2.59954,-47.08393 0.4725,-61.89011 3.09978,-14.93986 7.21397,-27.26784 13.05207,-39.10989 2.71148,-5.5 4.74696,-10.18603 4.52328,-10.41339 -0.89712,-0.91189 -22.96896,2.11941 -31.86671,4.37651 -18.89199,4.79235 -37.04215,13.88556 -48.6444,24.37078 -3.24618,2.93365 -5.90214,5.01917 -5.90214,4.63449 0,-1.7897 10.10524,-15.60364 15.96788,-21.8282 8.86519,-9.41248 17.6159,-15.85539 29.53212,-21.74369 48.15473,-23.795283 105.84044,-6.25415 133.52854,40.6035 l 2.36359,4 -4.45766,-4.05084 C 272.26845,135.1216 249.02384,124.26677 227.25844,120.58149 215.80443,118.64211 204,117.55799 204,118.44542 c 0,0.38711 1.80753,4.13465 4.01674,8.32786 l 4.01675,7.62403 -4.47014,4.55134 c -6.3262,6.44113 -9.00924,12.85934 -9.00924,21.55135 0,14.04332 9.88862,26.69467 22.69589,29.0368 l 3.75,0.68578 -0.008,9.13871 c -0.0222,24.68407 -6.28808,52.08686 -16.47527,72.0515 -2.49694,4.89345 -4.29595,9.14113 -3.99779,9.43928 1.0058,1.00581 22.26908,-1.8633 31.88285,-4.30203 18.82205,-4.77461 36.56128,-13.66825 48.6706,-24.40123 l 6.37318,-5.64881 -2.8863,5 c -15.05896,26.08699 -43.20375,44.82448 -74.25062,49.4326 -6.89613,1.02355 -20.05442,1.2311 -25.30845,0.39919 z m 29.67162,15.17264 c 49.28773,-7.99387 87.10473,-44.29963 97.9174,-94.00443 2.39292,-11.00004 2.39292,-34.99996 0,-46 C 311.395,152.62356 300.59136,132.54528 284.02304,115.97696 266.02819,97.982117 242.80354,86.225435 217.8453,82.476765 165.9141,74.676816 113.89251,102.96312 92.743175,150.5 c -8.072788,18.14503 -10.259175,28.86968 -10.193277,50 0.05638,18.07696 1.905051,27.92761 8.153144,43.44392 14.763388,36.66293 47.743908,64.11085 85.844368,71.44366 4.37393,0.84181 8.85259,1.72177 9.95259,1.95549 4.79728,1.01925 23.76501,0.52481 32.17162,-0.83864 z M 322,288.78769 l 0,-32.21231 -5.25,9.14326 c -12.39061,21.57915 -30.8459,39.83159 -51.75,51.1812 l -7.5,4.07203 32.25,0.0141 32.25,0.014 0,-32.21231 z M 138.73777,318.53141 C 116.77295,307.63131 92.368693,283.22705 81.468586,261.26223 L 79.105316,256.5 79.052658,288.75 79,321 l 32.25,-0.0527 32.25,-0.0527 -4.76223,-2.36327 z m 84.27056,29.83656 C 235.37875,335.92036 244.6,326.08096 243.5,326.50264 c -12.71914,4.87586 -37.13975,7.82495 -53.70254,6.48524 -9.13269,-0.73872 -26.50134,-4.15406 -33.29746,-6.54756 -1.1,-0.3874 8.12125,9.48004 20.49167,21.92765 C 189.36208,360.81559 199.71583,371 200,371 c 0.28417,0 10.63792,-10.18441 23.00833,-22.63203 z" />
</svg>
