<?xml version="1.0" encoding="UTF-8" standalone="no"?>
<!-- Created with Inkscape (http://www.inkscape.org/) -->

<svg
   xmlns:dc="http://purl.org/dc/elements/1.1/"
   xmlns:cc="http://creativecommons.org/ns#"
   xmlns:rdf="http://www.w3.org/1999/02/22-rdf-syntax-ns#"
   xmlns:svg="http://www.w3.org/2000/svg"
   xmlns="http://www.w3.org/2000/svg"
   version="1.1"
   width="512"
   height="512"
   id="svg2">
  <metadata
     id="metadata8">
    <rdf:RDF>
      <cc:Work
         rdf:about="">
        <dc:format>image/svg+xml</dc:format>
        <dc:type
           rdf:resource="http://purl.org/dc/dcmitype/StillImage" />
        <dc:title></dc:title>
      </cc:Work>
    </rdf:RDF>
  </metadata>
  <defs
     id="defs6" />
  <rect
     width="512"
     height="512"
     x="0"
     y="0"
     id="rect3151"
     style="fill:#000000;fill-opacity:1;stroke:none" />
  <path
     d="m 141.44,83.937843 c 8.33992,-6.970738 33.38917,-19.121193 50.88073,-24.680329 21.29458,-6.767808 31.0495,-8.279994 57.27927,-8.879313 l 24.96,-0.570305 -10.88,3.603722 c -13.01137,4.309685 -34.7058,14.671884 -45.7183,21.837032 l -7.95828,5.17797 -24.04172,0.614348 c -21.14603,0.540353 -34.32814,2.07931 -45.65682,5.330248 -2.16171,0.620337 -1.93377,0.131691 1.13512,-2.433373 z M 272,94.60002 c -5.632,-1.96342 -15.55292,-4.858366 -22.04649,-6.433216 -6.49355,-1.574849 -11.5401,-3.294375 -11.21451,-3.82117 1.13254,-1.832499 24.37436,-11.355626 35.70219,-14.628661 13.7903,-3.984529 31.93338,-6.044802 42.35881,-4.810138 l 7.68,0.909527 -6.13489,3.606124 c -6.44535,3.788614 -26.23127,19.889134 -31.52823,25.655667 -1.70672,1.858015 -3.43472,3.31375 -3.84,3.234966 C 282.5716,98.234329 277.632,96.563439 272,94.60002 z m -133.12,35.74477 c -5.632,-1.29934 -16.44165,-3.05272 -24.02145,-3.89641 l -13.78145,-1.53397 5.46145,-3.6992 c 19.08382,-12.92601 51.17735,-22.23905 78.35279,-22.736667 0.66624,-0.01216 -4.91922,6.169887 -12.41212,13.737887 -7.4929,7.568 -14.84782,15.34398 -16.34424,17.27996 -3.10952,4.02291 -3.42738,4.03854 -17.25498,0.8484 z m 216.30872,6.01107 c -7.13528,-5.53256 -24.88267,-16.12293 -39.06503,-23.31129 l -14.12107,-7.15729 5.9904,-5.31548 c 22.21667,-19.713391 41.47682,-28.78507 49.68928,-23.404055 6.79723,4.453714 8.98723,23.994165 5.14861,45.938825 -2.9344,16.77537 -2.98391,16.8612 -7.64219,13.24929 z M 206.08,151.98694 c -3.168,-1.43474 -11.78458,-4.77977 -19.14794,-7.4334 -7.36336,-2.65363 -13.56915,-5.36846 -13.79066,-6.03296 -0.49637,-1.48913 23.18263,-24.63187 33.32177,-32.56714 l 7.42317,-5.80971 7.29683,1.08242 c 11.56743,1.71591 25.58386,4.83893 37.59714,8.37711 l 11.10032,3.26929 -7.92185,9.11194 c -4.357,5.01154 -10.67941,12.70876 -14.04978,17.10494 -3.37035,4.39617 -7.39266,8.25117 -8.93847,8.56666 -10.74092,2.19218 -17.44937,3.91714 -21.00942,5.40216 -5.04704,2.10529 -4.82217,2.12556 -11.88111,-1.07131 z m 195.3121,23.67262 c -4.16235,-4.57666 -11.65035,-11.83973 -16.64,-16.14013 -4.98966,-4.3004 -8.93659,-8.25339 -8.77097,-8.7844 2.13225,-6.83622 6.75697,-34.75519 6.95049,-41.95948 l 0.25255,-9.401404 2.96805,3.701174 c 12.23833,15.26101 24.73303,55.97747 23.21389,75.64718 l -0.40611,5.25828 -7.5679,-8.32122 z m -64.17334,9.6851 c -14.26295,-18.21605 -41.04,-33.11648 -67.51264,-37.56825 l -4.85387,-0.81625 6.60768,-7.93189 c 14.56662,-17.48583 16.17496,-18.88729 20.00457,-17.43128 13.48882,5.12843 46.10332,23.83686 58.24902,33.41301 l 4.75353,3.74787 -5.68187,16.11094 c -3.12502,8.861 -5.86766,16.29672 -6.09476,16.52381 -0.22709,0.22708 -2.68933,-2.49449 -5.47166,-6.04796 z M 99.458758,198.31248 C 75.389778,170.77531 70.5779,151.8068 86.163328,145.90164 c 7.76009,-2.94021 53.356672,0.25406 53.356672,3.73792 0,0.46597 -3.58748,6.27637 -7.97219,12.91201 -4.38469,6.63565 -11.72869,19.30682 -16.31999,28.15816 L 106.88,206.80306 99.458758,198.31248 z M 135.04,233.07811 c -15.57187,-13.2878 -15.06024,-10.45136 -5.41059,-29.99598 8.30874,-16.82872 28.08667,-48.30575 30.35191,-48.30575 1.3642,0 29.63372,9.98836 30.37909,10.73373 0.27258,0.27259 -4.92892,5.88901 -11.5589,12.48094 -17.35551,17.25592 -28.39533,37.89499 -31.19475,58.31897 -0.95541,6.97052 -0.46185,7.09746 -12.56676,-3.23191 z m 252.72349,28.38566 c -3.82992,-3.27392 -10.99549,-9.14706 -15.92349,-13.0514 -10.27299,-8.13906 -10.83379,-8.79021 -10.8604,-12.60992 -0.0102,-1.54766 -1.51049,-7.53342 -3.33269,-13.30169 l -3.31307,-10.48775 5.77113,-14.85832 c 3.17412,-8.17207 6.53325,-17.30631 7.46473,-20.29831 0.93148,-2.992 2.04867,-5.44 2.48263,-5.44 1.57506,0 26.73099,25.77277 32.59779,33.39712 l 6.02116,7.82494 -1.47717,10.42897 c -2.18848,15.45086 -9.69593,44.34896 -11.52144,44.34896 -0.52012,0 -4.07925,-2.67866 -7.90918,-5.9526 z m 70.04992,8.8326 c -0.31772,-0.528 -1.72921,-4.704 -3.13665,-9.28 -3.45957,-11.24803 -11.51284,-28.41533 -19.64709,-41.88199 l -6.71482,-11.11671 -0.22822,-21.18065 c -0.20302,-18.84101 -1.50975,-30.67278 -5.23722,-47.42064 -1.12343,-5.04768 7.54502,8.22732 14.79315,22.65445 14.063,27.99188 20.3489,53.4637 21.4958,87.10554 0.68174,19.99744 0.4285,24.03398 -1.32495,21.12 z m -377.524705,-10.56 C 69.414642,236.62969 62.944236,205.3884 65.837978,189.96342 l 0.901641,-4.80615 4.596748,6.88956 c 5.338583,8.00141 18.850166,24.45367 24.418519,29.733 l 3.842923,3.64347 -3.199459,9.15653 c -1.759703,5.0361 -4.816682,15.49254 -6.793289,23.23654 l -3.59383,14.08 -5.722526,-12.16 z m 357.609945,55.03289 c -3.09175,-4.57209 -8.85175,-11.9567 -12.8,-16.41024 -3.94826,-4.45355 -8.76357,-10.00105 -10.7007,-12.32779 l -3.52203,-4.23043 4.36592,-13.47005 c 2.40127,-7.40852 5.05662,-16.83701 5.90076,-20.95221 2.43898,-11.88981 2.91313,-11.86016 8.59229,0.53714 10.56764,23.06867 14.88912,42.25534 14.19278,63.01358 l -0.40767,12.15287 -5.62135,-8.31287 z m -312.06009,8.32711 c -7.66832,-7.744 -16.35283,-17.28151 -19.2989,-21.19448 l -5.35649,-7.11447 1.27393,-8.24553 c 1.8697,-12.10167 4.75446,-24.78021 8.34846,-36.69156 l 3.17602,-10.52605 11.80921,9.89495 c 6.49506,5.44221 13.65101,11.33093 15.9021,13.08604 3.47656,2.71055 4.39606,4.66616 6.10602,12.98634 1.10721,5.38738 3.06113,12.87538 4.34204,16.64 l 2.32893,6.84476 -6.79865,17.92 c -3.73925,9.856 -7.04425,18.496 -7.34445,19.2 -0.30019,0.704 -6.8199,-5.056 -14.48822,-12.8 z m 208.05606,24.6655 -14.90538,-5.26006 6.38711,-5.30402 c 17.45969,-14.499 30.41614,-37.16917 35.42342,-61.98117 l 2.17142,-10.75976 12.97468,11.14598 12.97468,11.14598 -3.12132,7.05785 c -9.34451,21.12961 -32.7375,59.57315 -36.0796,59.29247 -0.50579,-0.0425 -7.62705,-2.44425 -15.82501,-5.33727 z M 382.72,361.33453 c -5.28,-1.0107 -10.32372,-2.09111 -11.20827,-2.4009 -1.06847,-0.3742 0.48032,-3.69041 4.6144,-9.88025 7.42218,-11.113 16.30408,-26.54801 22.11813,-38.43701 2.32386,-4.752 4.62057,-8.64 5.10382,-8.64 1.38295,0 13.0216,13.93886 18.70352,22.4 13.89339,20.68913 15.03586,31.44556 3.87791,36.51022 -6.73199,3.05568 -28.41234,3.28044 -43.20951,0.44794 z M 84.45193,366.94466 C 63.104746,338.07104 46.886872,278.72121 50.660564,243.28406 l 0.866009,-8.13233 3.553776,11.05094 c 4.08297,12.69652 14.071542,33.65697 21.441062,44.99284 l 5.057263,7.77915 0.709665,24.86085 c 0.503472,17.6375 1.429975,28.11505 3.188778,36.06086 1.363513,6.16 2.381283,11.2 2.261713,11.2 -0.119565,0 -1.598675,-1.86827 -3.2869,-4.15171 z M 211.84,383.38728 c -20.46692,-9.55325 -55.68,-31.53573 -55.68,-34.75936 0,-1.43017 8.7499,-27.39637 9.58072,-28.43173 0.15013,-0.1871 5.39989,4.75983 11.66613,10.99319 16.30678,16.22118 33.80663,25.89934 54.62,30.20713 4.86865,1.00767 9.15273,2.13277 9.5202,2.50024 0.74528,0.74528 -18.68768,23.88785 -19.94823,23.75618 -0.43934,-0.046 -4.83082,-1.96543 -9.75882,-4.26565 z m 64,21.01477 c -10.15401,-2.04362 -33.72125,-8.36027 -34.64741,-9.28642 -0.29777,-0.29777 22.11193,-27.99578 24.93332,-30.81717 0.57616,-0.57615 5.25201,-1.91776 10.39077,-2.98134 5.13878,-1.06359 12.41976,-3.08486 16.17993,-4.49172 l 6.83671,-2.55794 13.11334,5.0565 c 7.21234,2.78108 15.84407,6.06783 19.18162,7.30388 l 6.06827,2.24738 -7.81297,8.35209 c -8.7889,9.39536 -19.64253,19.48264 -27.54777,25.60268 -6.24319,4.83332 -9.53005,5.02688 -26.69581,1.57206 z m -153.74976,-2.2209 c -11.43199,-17.54952 -17.60626,-35.51903 -20.93787,-60.9374 -2.637587,-20.12327 -3.53894,-20.04422 15.64763,-1.37237 9.328,9.07774 16.89092,17.36899 16.80649,18.42499 -0.0845,1.056 -1.38956,7.968 -2.90029,15.36 -1.51073,7.392 -3.16965,18.21215 -3.68649,24.04478 l -0.93971,10.60477 -3.98976,-6.12477 z m 213.54063,-4.43866 c 6.64983,-6.55936 14.27236,-14.45003 16.93893,-17.53481 l 4.84834,-5.60869 12.33093,2.77159 c 11.0096,2.47459 29.71241,5.16107 36.65093,5.26455 8.56268,0.12774 -24.91709,16.85637 -42.24,21.10586 -7.04,1.72699 -17.12,3.46901 -22.4,3.87115 -5.28,0.40213 -11.53944,1.02936 -13.90988,1.39381 -4.13222,0.63535 -3.81152,0.1711 7.78075,-11.26346 z M 152.09266,430.081 c -7.16766,-5.65629 -8.84059,-24.8545 -4.27727,-49.08479 2.31188,-12.27563 2.40222,-12.46583 5.02938,-10.58922 8.35147,5.96553 31.21324,19.52055 41.71523,24.73347 6.688,3.31975 12.448,6.23733 12.8,6.48353 0.86918,0.6079 -9.17339,9.54785 -18.56,16.52223 -16.79977,12.48243 -30.40704,16.90661 -36.70734,11.93478 z m 41.51534,13.00013 -7.99199,-0.4265 8.63199,-5.88149 c 9.73649,-6.63405 14.43617,-10.49767 24.80122,-20.38909 l 7.20921,-6.87978 13.27079,4.33197 c 7.29893,2.38258 17.87878,5.35877 23.51078,6.61373 l 10.24,2.28177 -11.52,5.49761 c -23.23183,11.08676 -45.94659,16.03679 -68.152,14.85178 z m 52.152,11.49412 c 13.56794,-4.54841 33.59657,-13.97986 45.69254,-21.51656 l 9.21256,-5.7401 23.42744,-0.46586 c 17.61988,-0.35039 26.44187,-1.12736 35.58746,-3.1343 6.688,-1.46764 12.44031,-2.676 12.78291,-2.68524 2.01872,-0.0545 -15.40274,10.41964 -26.82834,16.12973 -28.09063,14.03868 -51.7645,19.64731 -86.43457,20.47738 l -24.32,0.58227 10.88,-3.64732 z m 28.89769,21.42597 C 417.25028,462.38524 510.44095,322.35776 467.37103,186.43189 431.58331,73.488174 314.10922,8.5642535 199.23078,38.239848 73.453176,70.730967 1.8985066,204.07793 44.377802,326.81883 77.74873,423.24174 174.02235,485.61075 274.65769,476.00122 z"
     id="path3071"
     style="fill:#ffffff" />
</svg>
