<?xml version="1.0" encoding="UTF-8" standalone="no"?>
<!-- Created with Inkscape (http://www.inkscape.org/) -->

<svg
   xmlns:dc="http://purl.org/dc/elements/1.1/"
   xmlns:cc="http://creativecommons.org/ns#"
   xmlns:rdf="http://www.w3.org/1999/02/22-rdf-syntax-ns#"
   xmlns:svg="http://www.w3.org/2000/svg"
   xmlns="http://www.w3.org/2000/svg"
   xmlns:sodipodi="http://sodipodi.sourceforge.net/DTD/sodipodi-0.dtd"
   xmlns:inkscape="http://www.inkscape.org/namespaces/inkscape"
   id="svg2"
   version="1.1"
   inkscape:version="0.48.3.1 r9886"
   width="400"
   height="400"
   sodipodi:docname="Icon.5_32.png">
  <metadata
     id="metadata8">
    <rdf:RDF>
      <cc:Work
         rdf:about="">
        <dc:format>image/svg+xml</dc:format>
        <dc:type
           rdf:resource="http://purl.org/dc/dcmitype/StillImage" />
        <dc:title></dc:title>
      </cc:Work>
    </rdf:RDF>
  </metadata>
  <defs
     id="defs6" />
  <sodipodi:namedview
     pagecolor="#ffffff"
     bordercolor="#666666"
     borderopacity="1"
     objecttolerance="10"
     gridtolerance="10"
     guidetolerance="10"
     inkscape:pageopacity="0"
     inkscape:pageshadow="2"
     inkscape:window-width="1216"
     inkscape:window-height="1000"
     id="namedview4"
     showgrid="false"
     inkscape:zoom="1.18"
     inkscape:cx="181.62888"
     inkscape:cy="286.61531"
     inkscape:window-x="64"
     inkscape:window-y="24"
     inkscape:window-maximized="1"
     inkscape:current-layer="svg2" />
  <rect
     style="fill:#000000;fill-opacity:1;stroke:none"
     id="rect3151"
     width="400"
     height="400"
     x="0"
     y="-1.5258789e-05" />
  <path
     id="path3071"
     style="fill:#ffffff"
     d="M 110.5,67.657407 C 117.01556,62.211518 136.58529,52.718975 150.25057,48.3759 166.88696,43.08855 174.50799,41.907155 195,41.438937 l 19.5,-0.445551 -8.5,2.815408 c -10.16513,3.366941 -27.11391,11.462409 -35.71742,17.060181 l -6.21741,4.045289 -18.78259,0.479959 c -16.52034,0.422151 -26.81886,1.624461 -35.66939,4.164257 -1.68884,0.484638 -1.51076,0.102883 0.88681,-1.901073 z m 102,8.329826 c -4.4,-1.533922 -12.15072,-3.795599 -17.22382,-5.02595 -5.07309,-1.230351 -9.0157,-2.573731 -8.76134,-2.985289 0.8848,-1.43164 19.04247,-8.871583 27.89234,-11.428642 10.77367,-3.112913 24.94795,-4.722501 33.09282,-3.75792 l 6,0.710568 -4.79288,2.817284 c -5.03543,2.959855 -20.49318,15.538386 -24.63143,20.04349 -1.33338,1.451574 -2.68338,2.588867 -3,2.527317 C 220.75906,78.82654 216.9,77.521154 212.5,75.987233 z m -104,27.925587 c -4.4,-1.01512 -12.845041,-2.38496 -18.766757,-3.0441 L 78.966486,99.670296 83.233243,96.780302 C 98.14248,86.681856 123.21555,79.406092 144.44636,79.017329 c 0.5205,-0.0095 -3.84314,4.820171 -9.69697,10.732671 -5.85383,5.9125 -11.59986,11.9875 -12.76894,13.5 -2.42931,3.14291 -2.67764,3.15512 -13.48045,0.66282 z m 168.99119,4.69615 C 271.91675,104.28666 258.0516,96.01289 246.97163,90.396983 l -11.03208,-5.591633 4.68,-4.152675 c 17.35677,-15.401076 32.40376,-22.488325 38.81975,-18.284407 5.31033,3.479464 7.02127,18.745412 4.02235,35.889656 -2.2925,13.105796 -2.33118,13.172856 -5.97046,10.351046 z M 161,120.82075 c -2.475,-1.12089 -9.2067,-3.73419 -14.95933,-5.80734 -5.75262,-2.07315 -10.6009,-4.19411 -10.77395,-4.71325 -0.38779,-1.16338 18.11143,-19.243693 26.03263,-25.443119 l 5.79935,-4.538788 5.70065,0.845618 c 9.03706,1.340532 19.98739,3.780392 29.37277,6.544594 l 8.67212,2.55413 -6.18894,7.118702 c -3.40391,3.915283 -8.34329,9.928763 -10.97639,13.363273 -2.63309,3.43451 -5.77552,6.44623 -6.98318,6.69271 -8.39135,1.71264 -13.63232,3.06026 -16.41361,4.22043 -3.943,1.64476 -3.76732,1.6606 -9.28212,-0.83696 z m 152.58758,18.49424 c -3.25184,-3.57552 -9.10184,-9.24979 -13,-12.60948 -3.89817,-3.35969 -6.98171,-6.44796 -6.85232,-6.86281 1.66582,-5.3408 5.27888,-27.152538 5.43007,-32.780888 l 0.1973,-7.344793 2.31879,2.891491 c 9.5612,11.92266 19.32268,43.73244 18.13585,59.0994 l -0.31727,4.10803 -5.91242,-6.50095 z m -50.13542,7.56648 c -11.14293,-14.23129 -32.0625,-25.87225 -52.74425,-29.35019 l -3.79209,-0.6377 5.16225,-6.19679 c 11.38017,-13.660844 12.63669,-14.755735 15.62857,-13.618227 10.53814,4.006597 36.01822,18.622587 45.50705,26.103957 l 3.71369,2.92802 -4.43896,12.58667 c -2.44142,6.92266 -4.58411,12.73182 -4.76153,12.90923 -0.17741,0.17741 -2.10104,-1.94882 -4.27473,-4.72497 z M 77.702155,157.01258 C 58.898264,135.49917 55.138984,120.68002 67.3151,116.06661 73.37767,113.76957 109,116.2651 109,118.98686 c 0,0.36404 -2.80272,4.90342 -6.22827,10.08751 -3.425543,5.1841 -9.163043,15.08345 -12.749997,21.99856 L 83.5,163.64585 77.702155,157.01258 z M 105.5,184.17323 C 93.334475,173.79214 93.734185,176.00811 101.27298,160.73887 107.76418,147.59143 123.21569,123 124.98541,123 c 1.06578,0 23.15134,7.80341 23.73366,8.38573 0.21295,0.21296 -3.85072,4.60079 -9.03039,9.75073 -13.55899,13.48119 -22.18385,29.60547 -24.3709,45.5617 -0.74641,5.44572 -0.36082,5.54489 -9.81778,-2.52493 z m 197.44023,22.1763 C 299.9481,203.79178 294.35,199.20339 290.5,196.15312 c -8.02577,-6.35864 -8.4639,-6.86735 -8.48469,-9.8515 -0.008,-1.20911 -1.18007,-5.88548 -2.60366,-10.39194 l -2.58834,-8.19356 4.5087,-11.60806 c 2.47978,-6.38443 5.1041,-13.52056 5.83182,-15.85806 0.72772,-2.3375 1.60052,-4.25 1.93955,-4.25 1.23052,0 20.88359,20.13498 25.46703,26.0915 l 4.70403,6.11324 -1.15404,8.14763 C 316.41065,188.42336 310.54545,211 309.11927,211 c -0.40634,0 -3.18691,-2.09271 -6.17904,-4.65047 z m 54.7265,6.90047 c -0.24822,-0.4125 -1.35095,-3.675 -2.45051,-7.25 -2.70279,-8.78753 -8.99441,-22.19948 -15.34929,-32.72031 l -5.24595,-8.68493 -0.1783,-16.54738 C 334.28407,133.32784 333.26319,124.08427 330.3511,111 c -0.87768,-3.9435 5.89455,6.4276 11.55715,17.69879 10.98672,21.86866 15.89758,41.76852 16.79359,68.05121 0.53261,15.623 0.33477,18.77654 -1.03511,16.5 z M 62.725551,205 C 54.230189,186.9479 49.175184,162.54064 51.43592,150.48988 l 0.704407,-3.75481 3.59121,5.38247 c 4.170768,6.2511 14.726692,19.10443 19.076968,23.22891 l 3.002283,2.84646 -2.499577,7.15354 C 73.936443,189.2809 71.548178,197.45 70.003954,203.5 l -2.80768,11 -4.470723,-9.5 z m 279.382769,42.99444 c -2.41543,-3.57194 -6.91543,-9.34117 -10,-12.8205 -3.08458,-3.47933 -6.84654,-7.81332 -8.35992,-9.63108 l -2.75159,-3.30503 3.41088,-10.52347 c 1.87599,-5.78791 3.95048,-13.15392 4.60997,-16.36892 1.90545,-9.28891 2.27588,-9.26575 6.71272,0.41964 8.25597,18.0224 11.63213,33.01199 11.08811,49.22936 l -0.31849,9.49443 -4.39168,-6.49443 z M 98.311376,254.5 C 92.320499,248.45 85.53573,240.99882 83.234111,237.94181 l -4.184761,-5.55818 0.995258,-6.44182 c 1.460708,-9.45443 3.714426,-19.35954 6.522239,-28.66528 l 2.481261,-8.22348 9.225946,7.73043 c 5.074266,4.25173 10.664856,8.85229 12.423516,10.22347 2.71606,2.11762 3.43442,3.64544 4.77033,10.14558 0.86501,4.20889 2.39151,10.05889 3.39222,13 l 1.81947,5.34747 -5.31144,14 c -2.92129,7.7 -5.50332,14.45 -5.73785,15 -0.23453,0.55 -5.32805,-3.95 -11.318924,-10 z m 162.543794,19.26992 -11.64483,-4.10942 4.98993,-4.14377 c 13.64039,-11.32734 23.76261,-29.03841 27.67455,-48.42279 l 1.69642,-8.40606 10.13647,8.7078 10.13647,8.70779 -2.43853,5.51395 c -7.3004,16.50751 -25.57617,46.54152 -28.18719,46.32224 -0.39515,-0.0332 -5.95863,-1.90957 -12.36329,-4.16974 z M 299,284.37356 c -4.125,-0.78961 -8.06541,-1.63368 -8.75646,-1.8757 -0.83474,-0.29235 0.37525,-2.88314 3.605,-7.71895 5.79858,-8.68203 12.73756,-20.74063 17.27979,-30.02891 1.81551,-3.7125 3.60982,-6.75 3.98736,-6.75 1.08043,0 10.17312,10.88973 14.61212,17.5 10.85421,16.16338 11.74677,24.56684 3.02962,28.52361 -5.25937,2.38725 -22.19714,2.56284 -33.75743,0.34995 z M 65.97807,288.75647 C 49.300583,266.19896 36.630369,219.8319 39.578566,192.14663 l 0.676569,-6.35338 2.776388,8.63354 c 3.18982,9.91916 10.993392,26.29451 16.750829,35.15066 l 3.950987,6.07746 0.554426,19.42254 c 0.393337,13.7793 1.117168,21.96488 2.491233,28.17255 1.065244,4.8125 1.860377,8.75 1.766963,8.75 -0.09341,0 -1.248965,-1.45959 -2.567891,-3.24353 z M 165.5,301.60227 C 149.51022,294.13879 122,276.96498 122,274.44652 c 0,-1.11732 6.83586,-21.40341 7.48494,-22.21229 0.11729,-0.14617 4.21866,3.71862 9.11416,8.58843 12.73967,12.6728 26.41143,20.23386 42.67188,23.59932 3.80363,0.78724 7.15057,1.66623 7.43765,1.95331 0.58225,0.58225 -14.59975,18.66239 -15.58455,18.55952 -0.34324,-0.0359 -3.77408,-1.53549 -7.62408,-3.33254 z m 50,16.41779 c -7.93282,-1.59658 -26.34473,-6.53146 -27.06829,-7.25502 -0.23263,-0.23263 17.27495,-21.8717 19.47916,-24.07591 0.45012,-0.45012 4.10313,-1.49825 8.11779,-2.32917 4.01467,-0.83093 9.70293,-2.41005 12.64057,-3.50916 l 5.34118,-1.99839 10.24479,3.95039 c 5.63464,2.17272 12.37818,4.74049 14.98564,5.70616 l 4.74084,1.75576 -6.10388,6.52507 c -6.86633,7.34013 -15.34573,15.22082 -21.5217,20.0021 -4.87749,3.77603 -7.44535,3.92725 -20.8561,1.22817 z M 95.383,316.28498 C 86.451754,302.57442 81.628113,288.53574 79.025287,268.67764 76.964674,252.95633 76.260492,253.01809 91.25,267.60547 98.5375,274.69746 104.44603,281.175 104.38007,282 c -0.066,0.825 -1.08559,6.225 -2.26585,12 -1.18026,5.775 -2.47629,14.22824 -2.880072,18.78498 L 98.5,321.06996 95.383,316.28498 z m 166.82862,-3.4677 c 5.19518,-5.1245 11.15028,-11.28909 13.23354,-13.69907 l 3.78776,-4.38179 9.63354,2.1653 c 8.60125,1.93328 23.21282,4.03209 28.63354,4.11293 6.68959,0.0998 -19.46648,13.16904 -33,16.48896 -5.5,1.34921 -13.375,2.71016 -17.5,3.02433 -4.125,0.31417 -9.01519,0.80419 -10.86709,1.08892 -3.2283,0.49636 -2.97775,0.13367 6.07871,-8.79958 z m -143.38923,25.26446 c -5.59973,-4.41898 -6.90671,-19.41758 -3.34162,-38.34749 1.80616,-9.59034 1.87674,-9.73893 3.92921,-8.27283 6.52458,4.66057 24.38534,15.25043 32.59002,19.32302 5.225,2.59356 9.725,4.87292 10,5.06526 0.67905,0.47492 -7.16671,7.45926 -14.5,12.90799 -13.12482,9.7519 -23.7555,13.20829 -28.67761,9.32405 z m 32.43386,10.15635 -6.24374,-0.3332 6.74374,-4.59492 c 7.60663,-5.18285 11.27826,-8.2013 19.37595,-15.92897 l 5.6322,-5.37483 10.3678,3.38435 c 5.70229,1.86139 13.9678,4.18654 18.3678,5.16698 l 8,1.78263 -9,4.29501 c -18.14987,8.66153 -35.89577,12.52874 -53.24375,11.60295 z M 192,357.21787 c 10.59995,-3.55344 26.24732,-10.92176 35.6973,-16.80981 l 7.19731,-4.48445 18.30269,-0.36396 c 13.76553,-0.27374 20.65771,-0.88075 27.8027,-2.44867 5.225,-1.14659 9.71899,-2.09062 9.98665,-2.09784 1.57712,-0.0426 -12.03339,8.14034 -20.95964,12.60135 -21.94581,10.96772 -40.44102,15.34946 -67.52701,15.99795 l -19,0.4549 8.5,-2.84947 z m 22.57632,16.73904 C 325.97678,363.31943 398.78199,253.92296 365.13362,147.73087 337.17446,59.493603 245.39783,8.7717655 155.64905,31.955848 57.385294,57.339535 1.4832083,161.51684 34.670158,257.40817 60.741195,332.73857 135.95496,381.46436 214.57632,373.95691 z" />
</svg>
