<?xml version="1.0" encoding="UTF-8" standalone="no"?>
<!-- Created with Inkscape (http://www.inkscape.org/) -->

<svg
   xmlns:dc="http://purl.org/dc/elements/1.1/"
   xmlns:cc="http://creativecommons.org/ns#"
   xmlns:rdf="http://www.w3.org/1999/02/22-rdf-syntax-ns#"
   xmlns:svg="http://www.w3.org/2000/svg"
   xmlns="http://www.w3.org/2000/svg"
   xmlns:sodipodi="http://sodipodi.sourceforge.net/DTD/sodipodi-0.dtd"
   xmlns:inkscape="http://www.inkscape.org/namespaces/inkscape"
   id="svg2"
   version="1.1"
   inkscape:version="0.48.3.1 r9886"
   width="400"
   height="400"
   sodipodi:docname="Icon.2_47.png">
  <metadata
     id="metadata8">
    <rdf:RDF>
      <cc:Work
         rdf:about="">
        <dc:format>image/svg+xml</dc:format>
        <dc:type
           rdf:resource="http://purl.org/dc/dcmitype/StillImage" />
        <dc:title></dc:title>
      </cc:Work>
    </rdf:RDF>
  </metadata>
  <defs
     id="defs6" />
  <sodipodi:namedview
     pagecolor="#ffffff"
     bordercolor="#666666"
     borderopacity="1"
     objecttolerance="10"
     gridtolerance="10"
     guidetolerance="10"
     inkscape:pageopacity="0"
     inkscape:pageshadow="2"
     inkscape:window-width="1216"
     inkscape:window-height="1000"
     id="namedview4"
     showgrid="false"
     inkscape:zoom="0.59"
     inkscape:cx="200"
     inkscape:cy="200"
     inkscape:window-x="64"
     inkscape:window-y="24"
     inkscape:window-maximized="1"
     inkscape:current-layer="svg2" />
  <rect
     style="fill:#000000;fill-opacity:1;stroke:none"
     id="rect3024"
     width="400"
     height="400"
     x="0"
     y="2.8421709e-14" />
  <path
     id="path2989"
     style="fill:#ffffff"
     d="m 195.93161,232.92578 c -10.09896,-1.56517 -19.84024,-9.11239 -24.26973,-18.80338 -3.21422,-7.03218 -3.01211,-18.83029 0.44749,-26.1224 3.37567,-7.11522 8.86191,-12.62408 15.82405,-15.8893 7.52266,-3.52809 19.27714,-3.677 26.14215,-0.33118 6.68452,3.25786 12.08596,8.27677 15.45628,14.36168 2.70652,4.88644 2.96815,6.19619 2.96815,14.8588 0,7.92714 -0.38561,10.28297 -2.32909,14.22911 -6.22324,12.63597 -20.21879,19.86961 -34.2393,17.69667 z M 277,229.39542 C 260.53716,218.04809 257.54739,215.60776 257.80426,213.72734 257.9716,212.5023 258.17896,207 258.26505,201.5 258.52416,184.94622 253.02824,171.74587 240.98665,160 230.27546,149.55184 216.66292,144.0467 201.4601,144.01478 192.34429,143.99564 184.31738,146.06461 175,150.835 l -7.5,3.83991 -20.20444,-13.58746 c -11.11244,-7.4731 -20.22494,-13.87389 -20.25,-14.22399 -0.0819,-1.14442 13.31452,-11.60022 19.96054,-15.57903 9.26061,-5.5441 17.57383,-9.01853 28.75171,-12.016516 8.58454,-2.302433 11.64344,-2.612922 25.74219,-2.612922 14.18638,0 17.13085,0.302915 25.97652,2.672364 11.34432,3.038754 27.40204,10.551674 35.52348,16.620364 30.40447,22.71953 46.61548,58.68786 42.95295,95.30228 -1.35393,13.53534 -6.41525,31.92398 -8.71637,31.66809 C 296.83146,242.87304 287.725,236.78784 277,229.39542 z m -86.72232,76.54552 c -42.84717,-4.19201 -79.62396,-36.03948 -91.022055,-78.82206 -2.235112,-8.38945 -2.565673,-11.6639 -2.586269,-25.61888 -0.02076,-14.06582 0.285565,-17.14842 2.53399,-25.5 1.406684,-5.225 3.274594,-11.21422 4.150914,-13.30939 l 1.59331,-3.80938 20.34657,13.8075 20.34657,13.8075 -0.7768,4.00188 c -4.81366,24.79866 7.85891,50.64716 30.38251,61.97183 17.61927,8.85882 38.11634,8.27538 55.41754,-1.57745 l 5.16396,-2.94082 20.19629,13.76265 20.19629,13.76264 -4.83268,4.37531 c -21.13285,19.1328 -51.70353,28.96571 -81.11014,26.08867 z m 42.63709,62.05133 C 241.39289,366.34652 248.40579,365 248.49898,365 c 0.0932,0 -0.85936,-5.2875 -2.1168,-11.75 -1.25743,-6.4625 -2.30783,-12.45532 -2.33421,-13.31738 -0.032,-1.04723 1.8602,-2.16792 5.70203,-3.37704 7.75461,-2.44056 20.62538,-8.45487 27.48725,-12.84435 l 5.6186,-3.59417 8.32207,9.88145 c 4.57715,5.4348 8.59102,9.90846 8.91973,9.94147 0.78557,0.0789 23.90235,-19.8421 23.90235,-20.59795 0,-0.32011 -3.83964,-4.99083 -8.53254,-10.37939 l -8.53254,-9.79738 6.82024,-8.50049 c 3.75112,-4.67527 9.23943,-12.58746 12.19622,-17.58263 2.9568,-4.99518 5.47731,-9.08214 5.60115,-9.08214 0.12384,0 5.44535,1.8 11.82559,4 6.38024,2.2 11.99107,4 12.4685,4 0.47744,0 3.06976,-6.39606 5.76072,-14.21347 2.69096,-7.81741 5.02252,-14.50699 5.18124,-14.86574 0.15872,-0.35875 -5.39066,-2.62519 -12.33196,-5.03653 L 341.83608,233.5 l 0.66358,-4 c 2.02349,-12.1973 2.462,-17.08344 2.48023,-27.63604 L 345,190.22792 l 11.34322,-2.11396 c 6.23877,-1.16268 12.08877,-2.11396 13,-2.11396 0.91123,0 1.65744,-0.5625 1.65824,-1.25 0.002,-1.57622 -5.19862,-30.13035 -5.57109,-30.58915 -0.26996,-0.33252 -21.32927,3.45583 -24.58742,4.42302 -1.27011,0.37704 -2.05732,-0.74286 -3.3712,-4.79598 -2.02847,-6.25754 -10.2514,-23.09809 -13.90049,-28.46821 C 322.15707,123.23851 321,121.004 321,120.3541 c 0,-0.6499 4.275,-4.85924 9.5,-9.3541 5.225,-4.49486 9.5,-8.3842 9.5,-8.64298 0,-0.71883 -19.18314,-22.810906 -20.13137,-23.18409 -0.45708,-0.179889 -5.20455,3.467721 -10.54993,8.1058 l -9.71889,8.432869 -6.45675,-5.477437 C 286.16797,84.31701 276.1878,77.609778 269,74.008672 c -2.475,-1.239981 -4.65244,-2.389139 -4.83876,-2.553683 -0.18632,-0.164545 1.50118,-5.538766 3.75,-11.942714 C 270.16006,53.108328 272,47.497381 272,47.043505 c 0,-0.453876 -6.60156,-3.139518 -14.67014,-5.968093 -10.44382,-3.661259 -14.87741,-4.807485 -15.38962,-3.978713 -0.39572,0.640284 -2.411,6.105747 -4.47839,12.145474 l -3.75891,10.981322 -4.10147,-0.591068 c -14.04893,-2.024608 -23.14478,-2.754369 -30.70502,-2.46347 L 190.2929,57.5 l -2.22685,-12 c -1.22477,-6.6 -2.37884,-12.503331 -2.56461,-13.118513 -0.23254,-0.770083 -5.11381,-0.176311 -15.6696,1.906098 -8.43251,1.663536 -15.42027,3.080293 -15.52834,3.148349 -0.10808,0.06806 0.9027,5.735313 2.24617,12.593902 1.34346,6.85859 2.44439,12.749312 2.4465,13.090493 0.002,0.341181 -3.48367,1.856906 -7.74617,3.368276 -8.50601,3.016007 -21.35351,9.227979 -27.50648,13.299822 l -3.93758,2.605766 -1.65297,-2.096192 c -0.90913,-1.152906 -4.7493,-5.727984 -8.5337,-10.166841 -6.75984,-7.928849 -6.91862,-8.040433 -9.03689,-6.350905 C 93.642909,69.31518 79,82.41496 79,83.0882 c 0,0.437441 3.80289,5.13658 8.450866,10.442531 l 8.450867,9.647189 -6.738739,8.33023 c -5.488906,6.78523 -10.557696,14.58236 -17.234795,26.51164 -0.351773,0.62848 -5.406123,-0.69336 -13.135054,-3.43515 l -12.563254,-4.45673 -5.114946,14.73032 C 38.301725,152.95992 36,159.86887 36,160.21146 c 0,0.34259 5.661386,2.50956 12.580858,4.81549 11.733922,3.91035 12.542787,4.34427 12.015335,6.44581 -1.548802,6.17092 -2.55855,17.24599 -2.576384,28.25819 -0.01919,11.85034 -0.08982,12.24768 -2.269809,12.76872 -1.2375,0.29577 -6.88111,1.37295 -12.541355,2.39374 -5.660245,1.02078 -10.578595,2.14321 -10.929666,2.49428 -0.618157,0.61815 4.427838,29.65246 5.306056,30.53068 0.239709,0.23971 5.792141,-0.54386 12.338738,-1.74127 C 56.470369,244.9797 62.255378,244 62.779347,244 c 0.52397,0 1.971678,2.8125 3.21713,6.25 2.770925,7.64787 8.854395,19.91479 13.401091,27.02242 l 3.384506,5.29083 -9.891037,8.37929 C 67.450967,295.55115 63,299.59492 63,299.9287 c 0,0.33377 4.515375,5.89782 10.034167,12.36454 l 10.034167,11.75768 9.976621,-8.63895 c 11.117715,-9.62705 9.401015,-9.41866 17.856605,-2.16757 5.49167,4.70939 15.94353,11.63002 22.84844,15.12895 2.8875,1.46319 5.23732,2.76526 5.22183,2.8935 -0.0155,0.12823 -1.97832,5.75752 -4.36183,12.50952 -2.38352,6.75201 -3.99101,12.48816 -3.5722,12.74699 1.30759,0.80814 29.24623,10.53045 29.44397,10.24615 0.1031,-0.14823 2.13044,-5.81923 4.5052,-12.60222 l 4.31774,-12.33271 3.59765,0.68453 c 9.54537,1.81622 16.59199,2.44233 27.69518,2.46078 l 12.09753,0.0201 2.343,13 c 1.28865,7.15 2.36976,12.99652 2.40247,12.99227 0.0327,-0.004 6.99611,-1.35426 15.47423,-3 z" />
</svg>
