<?xml version="1.0" encoding="UTF-8" standalone="no"?>
<!-- Created with Inkscape (http://www.inkscape.org/) -->

<svg
   xmlns:dc="http://purl.org/dc/elements/1.1/"
   xmlns:cc="http://creativecommons.org/ns#"
   xmlns:rdf="http://www.w3.org/1999/02/22-rdf-syntax-ns#"
   xmlns:svg="http://www.w3.org/2000/svg"
   xmlns="http://www.w3.org/2000/svg"
   xmlns:sodipodi="http://sodipodi.sourceforge.net/DTD/sodipodi-0.dtd"
   xmlns:inkscape="http://www.inkscape.org/namespaces/inkscape"
   id="svg2"
   version="1.1"
   inkscape:version="0.48.3.1 r9886"
   width="400"
   height="400"
   sodipodi:docname="queued.svg">
  <metadata
     id="metadata8">
    <rdf:RDF>
      <cc:Work
         rdf:about="">
        <dc:format>image/svg+xml</dc:format>
        <dc:type
           rdf:resource="http://purl.org/dc/dcmitype/StillImage" />
        <dc:title />
      </cc:Work>
    </rdf:RDF>
  </metadata>
  <defs
     id="defs6" />
  <sodipodi:namedview
     pagecolor="#ffffff"
     bordercolor="#666666"
     borderopacity="1"
     objecttolerance="10"
     gridtolerance="10"
     guidetolerance="10"
     inkscape:pageopacity="0"
     inkscape:pageshadow="2"
     inkscape:window-width="1280"
     inkscape:window-height="975"
     id="namedview4"
     showgrid="false"
     inkscape:zoom="0.59"
     inkscape:cx="203.38983"
     inkscape:cy="200"
     inkscape:window-x="0"
     inkscape:window-y="0"
     inkscape:window-maximized="1"
     inkscape:current-layer="svg2" />
  <rect
     style="fill:#000000;fill-opacity:1;stroke:none"
     id="rect3024"
     width="400"
     height="400"
     x="0"
     y="2.8421709e-14" />
  <path
     id="path2989"
     style="fill:#ffffff"
     d="m 196.32944,230.72742 c -9.39193,-1.45559 -18.45122,-8.47443 -22.57061,-17.48695 -2.98919,-6.53986 -2.80123,-17.51198 0.41616,-24.29357 3.13935,-6.61708 8.2415,-11.74027 14.71621,-14.77689 6.996,-3.28109 17.92755,-3.41957 24.31194,-0.30799 6.21653,3.02977 11.23982,7.69731 14.37418,13.35621 2.51704,4.54435 2.76035,5.7624 2.76035,13.81854 0,7.37216 -0.35861,9.56306 -2.16603,13.23293 -5.78754,11.75132 -18.80327,18.47853 -31.8422,16.45772 z m 75.39278,-3.28319 c -15.31027,-10.55291 -18.09073,-12.82239 -17.85184,-14.57116 0.15562,-1.13928 0.34846,-6.25636 0.42852,-11.37131 0.24098,-15.39484 -4.87017,-27.67104 -16.06873,-38.59458 -9.96129,-9.71668 -22.62082,-14.8364 -36.75929,-14.86609 -8.47761,-0.0178 -15.94256,1.90632 -24.60763,6.34273 l -6.97492,3.57108 -18.78993,-12.63619 c -10.33445,-6.94992 -18.80899,-12.90258 -18.83229,-13.22818 -0.0761,-1.06429 12.38237,-10.78808 18.56309,-14.48833 8.61228,-5.15596 16.3435,-8.38715 26.73881,-11.17524 7.98353,-2.14124 10.82828,-2.42999 23.93998,-2.42999 13.19318,0 15.93152,0.28171 24.1579,2.48526 10.55009,2.82602 25.48362,9.81296 33.03647,15.45678 28.27585,21.12893 43.35193,54.57911 39.94582,88.63016 -1.25915,12.58772 -5.96613,29.68897 -8.10614,29.451 -0.37676,-0.0419 -8.84568,-5.70107 -18.81982,-12.57594 z m -80.65088,71.18655 c -39.84743,-3.89852 -74.04947,-33.51635 -84.64959,-73.30372 -2.07863,-7.8021 -2.38605,-10.84731 -2.40521,-23.8253 -0.0193,-13.08107 0.26558,-15.94785 2.3566,-23.71474 1.30819,-4.8592 3.04533,-10.42911 3.8603,-12.3776 l 1.48176,-3.54268 18.9221,12.84083 18.92211,12.84084 -0.72242,3.72171 c -4.47665,23.0625 7.30871,47.10134 28.25543,57.63317 16.38574,8.23862 35.44781,7.69602 51.53775,-1.46701 l 4.80243,-2.73494 18.78235,12.79913 18.78235,12.79912 -4.49435,4.06899 c -19.65333,17.79332 -48.08375,26.93782 -75.43161,24.2622 z m 39.65207,57.70711 c 7.88456,-1.53053 14.40648,-2.78278 14.49315,-2.78278 0.0867,0 -0.79919,-4.91732 -1.9686,-10.92738 -1.1694,-6.01006 -2.14626,-11.58332 -2.17079,-12.38503 -0.0298,-0.97391 1.72996,-2.01615 5.30283,-3.14061 7.21171,-2.2697 19.1814,-7.86295 25.56286,-11.94512 l 5.22525,-3.34254 7.73943,9.18965 c 4.25671,5.05431 7.98957,9.21477 8.29526,9.24546 0.73057,0.0734 22.22895,-18.45295 22.22895,-19.15588 0,-0.2977 -3.57083,-4.64142 -7.93518,-9.65273 l -7.93518,-9.11147 6.34276,-7.90536 c 3.48851,-4.34796 8.59258,-11.70622 11.34236,-16.35167 2.74979,-4.64547 5.09384,-8.4463 5.20902,-8.4463 0.11516,0 5.06411,1.67398 10.99768,3.71996 5.93355,2.04598 11.15157,3.71996 11.59557,3.71996 0.44402,0 2.85485,-5.94827 5.35741,-13.21839 2.50257,-7.2701 4.6709,-13.49135 4.8185,-13.82498 0.14761,-0.33364 -5.01325,-2.4414 -11.46859,-4.68392 l -11.73698,-4.07732 0.61713,-3.71995 c 1.88182,-11.34338 2.28963,-15.88743 2.30659,-25.70125 l 0.0187,-10.8214 10.54907,-1.96596 c 5.80199,-1.08128 11.24244,-1.96596 12.08987,-1.96596 0.84744,0 1.54141,-0.52312 1.54216,-1.16249 0.002,-1.46586 -4.83468,-28.02092 -5.18107,-28.4476 -0.25106,-0.30924 -19.836,3.21389 -22.86605,4.11336 -1.18119,0.35065 -1.91329,-0.69084 -3.13518,-4.46021 -1.88645,-5.81945 -9.5337,-21.48099 -12.92732,-26.47515 -1.31518,-1.93546 -2.39125,-4.01353 -2.39125,-4.61793 0,-0.6044 3.97571,-4.51904 8.83492,-8.69922 4.85919,-4.18017 8.8349,-7.79722 8.8349,-8.03788 0,-0.66851 -17.84013,-21.213918 -18.72197,-21.560976 -0.42509,-0.167294 -4.84018,3.224946 -9.81133,7.538312 l -9.03847,7.842484 -6.00471,-5.093963 c -6.48677,-5.50289 -15.76823,-11.740548 -22.45281,-15.08954 -2.30172,-1.15317 -4.32672,-2.221875 -4.49999,-2.374899 -0.17328,-0.153025 1.39608,-5.150997 3.48746,-11.106604 2.09138,-5.955606 3.8025,-11.17373 3.8025,-11.59583 0,-0.4221 -6.13938,-2.91972 -13.64307,-5.550266 -9.71265,-3.404934 -13.83585,-4.470913 -14.3122,-3.700163 -0.36801,0.595457 -2.24221,5.678283 -4.16486,11.295168 l -3.49574,10.212518 -3.81433,-0.549686 C 214.5767,67.68349 206.11766,67.004819 199.08671,67.275352 l -8.00121,0.307866 -2.07095,-11.159878 c -1.13903,-6.137933 -2.2123,-11.627971 -2.38507,-12.200085 -0.21626,-0.716169 -4.75578,-0.163967 -14.57256,1.772653 -7.84216,1.547071 -14.3407,2.864641 -14.4412,2.927932 -0.10055,0.06329 0.8395,5.333783 2.08891,11.712201 1.2494,6.37842 2.27327,11.856732 2.27522,12.174027 0.002,0.317295 -3.23978,1.726904 -7.20386,3.132463 -7.9105,2.804856 -19.85855,8.581927 -25.58074,12.3687 l -3.66192,2.423336 -1.53724,-1.949438 c -0.84548,-1.072191 -4.4168,-5.326967 -7.93625,-9.455059 -6.28659,-7.37375 -6.43425,-7.477522 -8.40422,-5.906278 -6.45364,5.147425 -20.071397,17.330088 -20.071397,17.956194 0,0.406816 3.53665,4.776968 7.85922,9.711454 l 7.859217,8.97179 -6.266959,7.74702 c -5.104624,6.31019 -9.818546,13.56145 -16.028181,24.65556 -0.327146,0.58448 -5.02764,-0.64482 -12.215468,-3.19466 l -11.6837,-4.14471 -4.756847,13.69905 c -2.616266,7.53449 -4.756848,13.95974 -4.756848,14.27835 0,0.31861 5.265032,2.33387 11.700071,4.47835 10.912429,3.63659 11.664665,4.04013 11.174141,5.99455 -1.440371,5.73889 -2.379426,16.03859 -2.396011,26.27982 -0.01785,11.02071 -0.08353,11.39023 -2.1109,11.87478 -1.150863,0.27507 -6.399362,1.27684 -11.663333,2.22616 -5.263971,0.94931 -9.837987,1.99316 -10.164479,2.31965 -0.57488,0.57488 4.117844,27.5765 4.934578,28.39323 0.222926,0.22293 5.386632,-0.50578 11.474902,-1.61936 6.088268,-1.11358 11.468267,-2.02468 11.955554,-2.02468 0.487286,0 1.83364,2.6156 2.991898,5.81243 2.576932,7.11244 8.234498,18.52055 12.462879,25.13057 l 3.147557,4.92042 -9.198565,7.79267 c -5.05921,4.28596 -9.198564,8.04662 -9.198564,8.35703 0,0.31041 4.199253,5.48491 9.331674,11.4989 l 9.331674,10.93452 9.278157,-8.03413 c 10.33937,-8.95307 8.74285,-8.75926 16.60646,-2.01582 5.1072,4.37968 14.82733,10.8158 21.24882,14.06976 2.68534,1.36076 4.87066,2.57167 4.85625,2.69093 -0.0145,0.11926 -1.83982,5.35444 -4.05646,11.63373 -2.21665,6.2793 -3.7116,11.61386 -3.32211,11.85458 1.21605,0.75155 27.1987,9.7932 27.38259,9.5288 0.0959,-0.13784 1.9813,-5.41182 4.1898,-11.71993 l 4.01545,-11.46929 3.34577,0.6366 c 8.87711,1.68907 15.4304,2.27135 25.75625,2.2885 l 11.25058,0.0187 2.17897,12.08986 c 1.19842,6.64943 2.20385,12.08663 2.23426,12.08269 0.0304,-0.004 6.50632,-1.25946 14.39089,-2.78998 z"
     inkscape:connector-curvature="0" />
</svg>
