<?xml version="1.0" encoding="UTF-8" standalone="no"?>
<!-- Created with Inkscape (http://www.inkscape.org/) -->

<svg
   xmlns:dc="http://purl.org/dc/elements/1.1/"
   xmlns:cc="http://creativecommons.org/ns#"
   xmlns:rdf="http://www.w3.org/1999/02/22-rdf-syntax-ns#"
   xmlns:svg="http://www.w3.org/2000/svg"
   xmlns="http://www.w3.org/2000/svg"
   xmlns:sodipodi="http://sodipodi.sourceforge.net/DTD/sodipodi-0.dtd"
   xmlns:inkscape="http://www.inkscape.org/namespaces/inkscape"
   id="svg2"
   version="1.1"
   inkscape:version="0.48.3.1 r9886"
   width="400"
   height="400"
   sodipodi:docname="Icons8_81.png">
  <metadata
     id="metadata8">
    <rdf:RDF>
      <cc:Work
         rdf:about="">
        <dc:format>image/svg+xml</dc:format>
        <dc:type
           rdf:resource="http://purl.org/dc/dcmitype/StillImage" />
        <dc:title></dc:title>
      </cc:Work>
    </rdf:RDF>
  </metadata>
  <defs
     id="defs6" />
  <sodipodi:namedview
     pagecolor="#ffffff"
     bordercolor="#666666"
     borderopacity="1"
     objecttolerance="10"
     gridtolerance="10"
     guidetolerance="10"
     inkscape:pageopacity="0"
     inkscape:pageshadow="2"
     inkscape:window-width="1216"
     inkscape:window-height="1000"
     id="namedview4"
     showgrid="false"
     inkscape:zoom="1.18"
     inkscape:cx="290.82247"
     inkscape:cy="215.87214"
     inkscape:window-x="64"
     inkscape:window-y="24"
     inkscape:window-maximized="1"
     inkscape:current-layer="svg2" />
  <rect
     style="fill:#000000;fill-opacity:1;stroke:none"
     id="rect3132"
     width="400"
     height="400"
     x="0"
     y="7.6293945e-06" />
  <path
     id="path3089"
     style="fill:#ffffff"
     d="m 340.44389,187.0567 5.88128,-5.94329 -7.31316,-12.30671 c -4.02224,-6.76868 -7.41652,-12.44031 -7.54284,-12.60362 -0.12632,-0.1633 -5.94323,1.80722 -12.92647,4.37893 l -12.69681,4.67584 3.76208,3.85272 c 2.06914,2.11899 3.56632,4.03323 3.32705,4.25385 -0.23926,0.22062 -3.74364,2.05776 -7.7875,4.08254 -4.04387,2.02477 -7.14544,3.88845 -6.89238,4.14151 0.52237,0.52237 33.69096,11.15825 35.27616,11.3117 0.56722,0.0549 3.67788,-2.57465 6.91259,-5.84347 z M 174.92048,153.59777 C 187.6301,115.15155 197.83986,83.506529 197.60884,83.275506 196.99724,82.663902 99.573325,65.183702 99.106236,65.601762 98.775602,65.897691 84.853849,194.37431 83.838474,206.5 l -0.33495,4 33.498236,7.13109 c 18.42403,3.9221 33.79346,6.8471 34.15428,6.5 0.36082,-0.3471 11.05481,-32.08709 23.76444,-70.53332 z m 192.87874,74.03959 c 3.96043,-3.22445 7.18384,-6.14945 7.16315,-6.5 -0.0584,-0.98821 -27.03793,-22.39513 -27.56313,-21.86993 -0.36514,0.36514 7.19326,29.74558 9.14419,35.54459 0.5208,1.54803 0.61921,1.4853 11.25579,-7.17466 z M 251.0241,217.25 c 1.22191,-2.0625 4.2521,-7.2375 6.73375,-11.5 l 4.51208,-7.75 8.24259,0 c 5.41471,0 8.5724,0.42885 9.2039,1.25 0.52872,0.6875 1.65693,4.51695 2.50714,8.50989 1.5326,7.19779 1.52756,7.26397 -0.58887,7.73705 C 276.80586,216.57632 251.56775,221 250.23846,221 c -1.10834,0 -0.92908,-0.85567 0.78564,-3.75 z m -8.69988,49.34749 c 0.31075,-0.80982 1.03721,-3.22601 1.61434,-5.36931 0.99091,-3.67996 1.38285,-3.98964 7.04028,-5.56255 3.29503,-0.91609 6.6088,-1.66563 7.36393,-1.66563 1.26238,0 9.30781,11.7513 8.50873,12.428 -0.19333,0.16372 -5.91818,0.60011 -12.7219,0.96977 -10.66476,0.57944 -12.29249,0.46909 -11.80538,-0.80028 z M 294,290.492 c 0,-0.2794 -5.4,-11.3008 -12,-24.492 -6.6,-13.1912 -11.99771,-24.3251 -11.9949,-24.742 0.005,-0.72604 18.43664,-8.758 20.09787,-8.758 0.44228,0 4.27874,4.95 8.52546,11 4.24673,6.05 8.20513,11.33061 8.79645,11.73469 0.59131,0.40408 7.69027,0.74158 15.77546,0.75 l 14.70035,0.0153 0.67882,6 c 0.37335,3.3 1.04643,6 1.49572,6 0.93913,0 24.75042,-14.707 26.75474,-16.52502 1.05898,-0.96055 -0.97855,-1.7626 -10,-3.93638 -6.23148,-1.50152 -12.06246,-2.92483 -12.95772,-3.16291 -1.12245,-0.29849 -2.49287,-3.69678 -4.41457,-10.94697 -1.53275,-5.78276 -3.05544,-10.68012 -3.38376,-10.88303 -0.32832,-0.20292 -7.86608,-0.69461 -16.75059,-1.09266 l -16.15366,-0.72373 0.44948,-3.11465 c 0.24721,-1.71306 0.80135,-6.63039 1.23141,-10.9274 0.91727,-9.16499 1.86659,-8.06136 -14.35056,-16.68328 -5.5,-2.92409 -10.14779,-5.4315 -10.32842,-5.57201 -0.18063,-0.14051 2.29437,-5.35768 5.5,-11.59371 5.80333,-11.28945 5.87079,-11.3704 15.67201,-18.80688 8.13194,-6.16996 9.52301,-7.60242 8,-8.23802 -2.35294,-0.98197 -109.74226,-23.72533 -110.14265,-23.32647 -0.57685,0.57463 -47.01326,141.03637 -46.7247,141.33377 0.58323,0.60108 41.89828,8.15816 42.31623,7.74021 C 195.02902,271.30432 194.6724,262.51093 194,252 c -0.6724,-10.51093 -1.00971,-19.32363 -0.74956,-19.58377 0.26014,-0.26015 4.45516,3.92728 9.32226,9.30539 4.92555,5.4427 9.48593,9.63314 10.28516,9.45081 0.78974,-0.18016 3.83526,-1.38867 6.76781,-2.68559 l 5.33193,-2.35803 0.98363,3.6856 c 0.54099,2.02707 2.34207,9.26462 4.00238,16.08344 1.66032,6.81882 3.28569,12.66882 3.61195,13 0.32627,0.33118 13.72223,3.13875 29.76882,6.23903 C 297.37694,291.71602 294,291.1265 294,290.492 z m 54.75,15.77524 c 7.8375,-2.06621 14.25,-4.05161 14.25,-4.41201 0,-0.3604 -6.34851,-3.7255 -14.1078,-7.47801 l -14.10781,-6.82275 -8.38626,-11.27723 C 321.78569,270.07476 317.81531,265 317.57506,265 316.94685,265 305,284.92125 305,285.96878 c 0,0.9319 27.68432,24.0229 28.82595,24.04321 0.37073,0.007 7.08655,-1.67854 14.92405,-3.74475 z M 70.345829,214.75 C 84.557272,81.028491 87.422603,56.306703 88.832036,55.252907 97.804609,48.544353 99.338497,39.871931 92.857931,32.490974 83.599898,21.946657 67,28.061447 67,42.016082 c 0,4.383966 1.109298,7.227674 4.107582,10.529867 1.815907,1.99997 1.48777,5.528285 -14.601141,157.000001 C 47.454103,294.77068 39.784352,366.4125 39.462549,368.75 l -0.585095,4.25 7.325067,0 7.325066,0 16.818242,-158.25 z" />
</svg>
