<?xml version="1.0" encoding="UTF-8" standalone="no"?>
<!-- Created with Inkscape (http://www.inkscape.org/) -->

<svg
   xmlns:dc="http://purl.org/dc/elements/1.1/"
   xmlns:cc="http://creativecommons.org/ns#"
   xmlns:rdf="http://www.w3.org/1999/02/22-rdf-syntax-ns#"
   xmlns:svg="http://www.w3.org/2000/svg"
   xmlns="http://www.w3.org/2000/svg"
   xmlns:sodipodi="http://sodipodi.sourceforge.net/DTD/sodipodi-0.dtd"
   xmlns:inkscape="http://www.inkscape.org/namespaces/inkscape"
   id="svg2"
   version="1.1"
   inkscape:version="0.48.3.1 r9886"
   width="400"
   height="400"
   sodipodi:docname="Icon.5_25.png">
  <metadata
     id="metadata8">
    <rdf:RDF>
      <cc:Work
         rdf:about="">
        <dc:format>image/svg+xml</dc:format>
        <dc:type
           rdf:resource="http://purl.org/dc/dcmitype/StillImage" />
        <dc:title></dc:title>
      </cc:Work>
    </rdf:RDF>
  </metadata>
  <defs
     id="defs6" />
  <sodipodi:namedview
     pagecolor="#ffffff"
     bordercolor="#666666"
     borderopacity="1"
     objecttolerance="10"
     gridtolerance="10"
     guidetolerance="10"
     inkscape:pageopacity="0"
     inkscape:pageshadow="2"
     inkscape:window-width="1855"
     inkscape:window-height="1056"
     id="namedview4"
     showgrid="false"
     inkscape:zoom="0.59"
     inkscape:cx="200"
     inkscape:cy="200"
     inkscape:window-x="65"
     inkscape:window-y="24"
     inkscape:window-maximized="1"
     inkscape:current-layer="svg2" />
  <path
     style="fill:#000000"
     d="m 0,0 400,0 0,400 -400,0 z"
     id="rect3044" />
  <path
     id="path2989"
     style="fill:#ffffff"
     d="M 68.663803,105.99753 C 112.18666,78.084716 156.73459,64.821775 202,66.300283 c 24.3116,0.794092 41.97029,4.038124 65.5,12.032837 18.73733,6.3664 39.00728,16.022131 57.06046,27.18114 6.43436,3.97719 10.44265,5.90985 10.7204,5.169 13.41792,-35.789391 17.81904,-49.005401 16.58077,-49.789941 -0.7489,-0.474481 -4.60108,-0.869584 -8.56041,-0.878006 C 323.94905,59.974148 298.98076,54.553191 258,41.49525 219.73391,29.3023 212.49325,27.681367 196,27.615604 180.4984,27.553795 168.84714,29.772674 143.87261,37.542809 93.469487,53.224342 64.874397,59.8147 46.5,59.984437 c -2.75,0.0254 -5.493365,0.376798 -6.096366,0.780876 -0.739351,0.495447 1.623491,8.224281 7.256117,23.734687 9.457669,26.04332 10.038808,27.5 10.971058,27.5 0.370527,0 4.885375,-2.70111 10.032994,-6.00247 z M 225.90884,122.43068 C 232.55898,102.04255 238,84.865808 238,84.260134 238,83.654461 236.7625,82.90148 235.25,82.586842 227.0712,80.88545 211.11654,79 204.89817,79 c -6.86547,0 -7.0968,0.07891 -6.59647,2.25 0.28519,1.2375 3.57908,19.68239 7.31977,40.98864 3.74069,21.30625 7.11512,38.40625 7.49873,38 0.38361,-0.40625 6.1385,-17.41983 12.78864,-37.80796 z M 187.95432,118.97897 194.72796,79 l -7.61398,0.01136 c -6.8494,0.01022 -31.67149,3.212818 -32.67439,4.215723 -0.3428,0.342797 22.78107,70.480347 25.12998,76.222357 0.48141,1.17682 0.95871,1.46573 1.20429,0.72897 0.22376,-0.67126 3.45496,-19.21101 7.18046,-41.19944 z m 131.50822,35.1498 c 8.8568,-24.25826 10.48977,-29.58337 9.38052,-30.58984 -4.53197,-4.11206 -36.59777,-22.11755 -37.60146,-21.11387 -0.33575,0.33575 2.88254,17.13996 7.15176,37.3427 8.12023,38.42649 9.54068,44.66219 10.04185,44.08318 0.16707,-0.19302 5.12937,-13.56799 11.02733,-29.72217 z M 93.452684,143.57467 C 98.153708,121.65536 102,103.32842 102,102.84812 c 0,-1.98159 -36.634869,19.13403 -38.537219,22.2121 -0.322174,0.52129 3.318761,11.6335 8.090968,24.69379 12.150096,33.25167 12.598874,34.4267 12.9966,34.02897 0.19526,-0.19526 4.201311,-18.289 8.902335,-40.20831 z m 182.544376,6.11663 10.69807,-49.911735 -6.59757,-2.966424 c -8.15827,-3.668156 -27.26562,-10.284842 -32.44081,-11.233932 -3.7996,-0.696818 -3.83678,-0.672876 -3.27384,2.107984 0.31317,1.547044 4.65364,27.112807 9.64549,56.812807 9.50642,56.56032 9.96179,58.94966 10.77775,56.55151 0.27106,-0.79666 5.30697,-23.90876 11.19091,-51.36021 z m -137.12598,-6.87283 c 6.98209,-41.04622 9.41059,-57.403981 8.55431,-57.619681 C 144.45857,84.451436 106,98.616413 106,100.4565 c 0,1.04493 21.13932,99.10649 21.67436,100.5435 0.37372,1.00374 0.70541,1.1091 1.00258,0.31847 0.24424,-0.64985 4.83161,-26.97485 10.19414,-58.5 z M 305.5,307.2661 c 8.8,-3.0145 16.96223,-5.99508 18.13829,-6.62351 2.10154,-1.12295 1.91248,-1.73034 -11,-35.34047 -7.22606,-18.80884 -13.40363,-33.88384 -13.72794,-33.5 -0.3243,0.38383 -3.85318,18.02288 -7.84195,39.19788 -3.98877,21.175 -7.49706,39.56168 -7.79619,40.85929 -0.5118,2.22011 -0.34414,2.31588 2.84195,1.6235 C 287.97637,313.07811 296.7,310.2806 305.5,307.2661 z M 109.62098,312.25 c -0.28259,-0.9625 -3.47303,-17.275 -7.08987,-36.25 -9.081811,-47.64584 -8.631939,-45.57397 -9.539017,-43.93163 -1.012527,1.83327 -24.80623,63.97469 -25.197956,65.80888 -0.353888,1.65702 8.37817,5.4797 26.705863,11.69116 14.62718,4.95732 15.85295,5.1747 15.12098,2.68159 z m 154.27483,6.68805 c 7.3677,-1.59299 13.6383,-3.13882 13.93466,-3.43519 0.57943,-0.57942 -17.595,-81.07493 -18.82929,-83.39593 -0.43787,-0.82339 -1.41281,2.24365 -2.38407,7.5 -0.90379,4.89119 -4.94496,25.68853 -8.98038,46.2163 l -7.33712,37.32324 5.1002,-0.65603 c 2.8051,-0.36082 11.12831,-1.95939 18.496,-3.55239 z M 151.79533,320.75 c -0.24081,-1.2375 -4.19398,-21.6 -8.78482,-45.25 -4.59085,-23.65 -8.61533,-43.32154 -8.94328,-43.71452 -0.32795,-0.39299 -4.83659,17.60701 -10.01919,40 -5.1826,22.39298 -9.60049,41.4425 -9.81752,42.33226 -0.25687,1.05306 0.4194,1.79717 1.93744,2.13179 1.28262,0.28273 7.73204,1.66542 14.33204,3.07264 20.87552,4.45099 21.89693,4.51948 21.29533,1.42783 z m 73.57192,4.28165 c 4.87699,-0.51305 9.07295,-1.13851 9.32436,-1.38992 0.2514,-0.25141 -3.202,-12.76115 -7.67424,-27.79942 C 216.914,261.86892 218.05013,265.15822 217.0552,267 216.23255,268.52287 200,324.00866 200,325.29777 c 0,0.99479 14.86336,0.83887 25.36725,-0.26612 z m -32.76024,-0.61337 c -0.33383,-0.86995 -4.29594,-14.36995 -8.8047,-30 -4.50876,-15.63005 -8.44627,-28.41797 -8.75003,-28.4176 -0.60631,7.4e-4 -17.90039,57.2859 -17.46331,57.8457 0.55576,0.71179 15.26904,1.88675 25.26802,2.01784 9.06656,0.11886 10.28136,-0.0613 9.75002,-1.44594 z M 241.5,370.63579 c 42.90816,-5.31181 75.69754,-15.3207 94.75432,-28.92354 l 4.50017,-3.21225 -5.02121,-13 c -2.76166,-7.15 -5.09602,-13.10209 -5.18745,-13.22688 -0.0914,-0.12478 -6.34861,2.02766 -13.90483,4.7832 -38.39601,14.00194 -72.71191,20.61469 -112.29918,21.64029 -45.82267,1.18715 -86.5017,-5.96572 -130.102178,-22.87675 -5.643197,-2.18879 -10.752566,-3.81555 -11.354153,-3.61502 -0.601588,0.20053 -3.320791,6.18756 -6.042673,13.30452 -4.637378,12.12543 -4.83752,13.02134 -3.17972,14.23356 2.884045,2.10886 20.336073,10.85934 27.171159,13.62367 22.045525,8.9159 57.221935,16.37215 89.665745,19.00618 10.82718,0.87904 59.48375,-0.31132 71,-1.73698 z" />
</svg>
