<?xml version="1.0" encoding="UTF-8" standalone="no"?>
<!-- Created with Inkscape (http://www.inkscape.org/) -->

<svg
   xmlns:dc="http://purl.org/dc/elements/1.1/"
   xmlns:cc="http://creativecommons.org/ns#"
   xmlns:rdf="http://www.w3.org/1999/02/22-rdf-syntax-ns#"
   xmlns:svg="http://www.w3.org/2000/svg"
   xmlns="http://www.w3.org/2000/svg"
   xmlns:sodipodi="http://sodipodi.sourceforge.net/DTD/sodipodi-0.dtd"
   xmlns:inkscape="http://www.inkscape.org/namespaces/inkscape"
   id="svg2"
   version="1.1"
   inkscape:version="0.48.3.1 r9886"
   width="400"
   height="400"
   sodipodi:docname="Icon.2_40.png">
  <metadata
     id="metadata8">
    <rdf:RDF>
      <cc:Work
         rdf:about="">
        <dc:format>image/svg+xml</dc:format>
        <dc:type
           rdf:resource="http://purl.org/dc/dcmitype/StillImage" />
        <dc:title></dc:title>
      </cc:Work>
    </rdf:RDF>
  </metadata>
  <defs
     id="defs6" />
  <sodipodi:namedview
     pagecolor="#ffffff"
     bordercolor="#666666"
     borderopacity="1"
     objecttolerance="10"
     gridtolerance="10"
     guidetolerance="10"
     inkscape:pageopacity="0"
     inkscape:pageshadow="2"
     inkscape:window-width="1855"
     inkscape:window-height="1056"
     id="namedview4"
     showgrid="false"
     inkscape:zoom="0.59"
     inkscape:cx="200"
     inkscape:cy="200"
     inkscape:window-x="65"
     inkscape:window-y="24"
     inkscape:window-maximized="1"
     inkscape:current-layer="svg2" />
  <path
     style="fill:#000000"
     d="m 0,0 400,0 0,400 -400,0 z"
     id="rect3020" />
  <path
     id="path2989"
     style="fill:#ffffff"
     d="m 210.94451,329.62265 c -4.5987,-9.81335 -16.8983,-46.15479 -20.00982,-59.12265 -3.05226,-12.72093 -3.73331,-31.81275 -1.49389,-41.87849 3.85731,-17.33787 13.86123,-30.37523 28.74298,-37.45855 11.28211,-5.36999 17.13986,-6.57725 31.81622,-6.55716 14.63785,0.02 28.04913,2.53212 42.95667,8.0463 10.14114,3.75113 36.04037,16.10082 44.79333,21.35909 2.8875,1.73464 5.25,2.64563 5.25,2.02441 0,-0.62121 -0.88645,-6.17086 -1.96989,-12.33254 -4.47614,-25.45646 -6.52946,-51.74297 -8.06151,-103.20306 -0.60585,-20.35 -1.42157,-45.1 -1.81271,-55 l -0.71115,-18 -1.27634,7.5 c -6.29254,36.976122 -10.79441,56.860047 -16.86737,74.5 -11.48905,33.37193 -25.5426,46.04266 -42.4576,38.27992 -19.0967,-8.76397 -44.79683,-47.03871 -71.3632,-106.27992 -3.20638,-7.15 -6.26736,-13.45 -6.80218,-14 -0.63444,-0.652441 -0.73641,-0.334518 -0.2934,0.914731 0.37345,1.053102 2.88999,9.603102 5.59231,19 14.24566,49.53711 19.6269,83.934489 15.92377,101.786049 C 205.9633,182.64373 171.71278,166.10451 103.13929,96.198152 93.590901,86.464169 86.878618,80.075 88.223106,82 c 1.344488,1.925 8.068155,11.375 14.941484,21 40.61886,56.88024 57.81154,88.82845 56.62557,105.22419 -0.51865,7.17035 -2.73396,10.43702 -9.34213,13.77581 -4.54582,2.29678 -5.96411,2.48978 -17.44803,2.37425 -8.06567,-0.0811 -16.75696,-0.9062 -24.5,-2.32575 -14.674726,-2.69037 -45.691862,-10.52826 -65.559888,-16.5667 -8.110449,-2.46499 -15.127386,-4.45935 -15.593192,-4.43192 -0.465806,0.0274 10.40308,5.57191 24.15308,12.32106 102.9858,50.5503 118.57462,76.34634 58.5,96.8045 -15.145591,5.15776 -36.156225,9.92662 -71,16.11511 -6.700711,1.19009 -2.064837,1.33219 43.5,1.33329 62.87969,0.002 89.15818,1.74459 118,7.82703 15.89931,3.353 14.98584,3.86273 10.44451,-5.82822 z m 108.25302,40.65846 C 375.61002,350.88247 392.19138,280.76984 350.33317,238.62719 345.18973,233.44879 336,226.19503 336,227.31353 c 0,0.22529 1.84559,4.348 4.10131,9.16158 4.25146,9.07239 7.86277,23.51114 7.88476,31.52489 l 0.0124,4.5 -3.04579,-6.43829 c -20.52264,-43.38135 -75.66431,-60.12544 -106.10625,-32.21978 -13.14638,12.05108 -18.6392,27.82126 -16.69504,47.93235 1.56629,16.20232 9.40757,31.76685 22.83365,45.32362 8.86174,8.94801 17.16618,14.51118 27.51501,18.4324 l 6,2.27343 -3.81489,0.7216 c -9.11967,1.72502 -28.39366,-1.88731 -40.16731,-7.52815 -3.29021,-1.57636 -6.16578,-2.68253 -6.39016,-2.45816 -0.22438,0.22438 1.46101,2.88339 3.7453,5.90892 7.24357,9.59403 20.44884,19.29744 33.12706,24.34219 10.75729,4.2804 16.66451,5.18489 31.5,4.82316 12.42175,-0.30287 14.98049,-0.67851 22.69753,-3.33218 z" />
</svg>
