<?xml version="1.0" encoding="UTF-8" standalone="no"?>
<!-- Created with Inkscape (http://www.inkscape.org/) -->

<svg
   xmlns:dc="http://purl.org/dc/elements/1.1/"
   xmlns:cc="http://creativecommons.org/ns#"
   xmlns:rdf="http://www.w3.org/1999/02/22-rdf-syntax-ns#"
   xmlns:svg="http://www.w3.org/2000/svg"
   xmlns="http://www.w3.org/2000/svg"
   version="1.1"
   width="512"
   height="512"
   id="svg2">
  <metadata
     id="metadata8">
    <rdf:RDF>
      <cc:Work
         rdf:about="">
        <dc:format>image/svg+xml</dc:format>
        <dc:type
           rdf:resource="http://purl.org/dc/dcmitype/StillImage" />
        <dc:title></dc:title>
      </cc:Work>
    </rdf:RDF>
  </metadata>
  <defs
     id="defs6" />
  <path
     d="m 0,0 512,0 0,512 -512,0 z"
     id="rect3020"
     style="fill:#000000;fill-opacity:1;fill-rule:nonzero;stroke:none" />
  <path
     d="M 411.82495,384.10288 C 399.90367,383.22129 389.89087,382.2372 389.57428,381.916 388.97649,381.3095 382,347.64636 382,345.36839 c 0,-1.03523 47.45294,34.14919 52.96429,39.27085 1.28571,1.19481 1.28571,1.34282 0,1.21364 -0.80536,-0.0809 -11.21806,-0.86842 -23.13934,-1.75 z M 377.5,490.52448 c 12.1,-0.78837 25.375,-2.13826 29.5,-2.99976 21.28944,-4.44628 39.79414,-13.74445 53.88925,-27.07808 l 6.39907,-6.05337 -2.89416,-8.19404 c -1.59179,-4.50672 -3.34416,-8.19515 -3.89416,-8.19651 -0.55,-0.001 -15.80275,6.53222 -33.895,14.51906 -18.09225,7.98685 -32.97721,14.3993 -33.07768,14.24988 -0.10047,-0.14941 1.00085,-7.92166 2.44738,-17.27166 1.44654,-9.35 2.33895,-17.12668 1.98314,-17.28151 -0.3558,-0.15483 -17.23367,6.24087 -37.50637,14.21267 -20.2727,7.9718 -37.05665,14.297 -37.29765,14.05599 -0.24101,-0.24101 3.75429,-10.12071 8.87844,-21.95489 5.12415,-11.83418 9.1114,-21.72194 8.86055,-21.97279 -0.25085,-0.25085 -3.81686,0.0201 -7.92445,0.602 -9.52364,1.34926 -37.35932,0.40223 -45.96836,-1.56394 -23.4386,-5.35304 -41.14806,-14.44303 -56.5892,-29.04637 l -6.9108,-6.53583 9,4.34656 c 22.45701,10.84563 46.30615,15.61374 78.17764,15.62991 18.76963,0.01 26.36785,-0.90074 46.24195,-5.53974 7.96663,-1.85956 14.57639,-3.2845 14.68835,-3.16654 0.11197,0.11796 -3.37049,8.48551 -7.73879,18.59454 -4.36829,10.10904 -7.81339,18.4975 -7.65575,18.64104 0.15763,0.14354 14.60107,-5.36302 32.09652,-12.2368 17.49546,-6.87378 32.02424,-12.28347 32.28618,-12.02153 0.26194,0.26194 -0.63874,7.61126 -2.00151,16.33182 -1.36277,8.72057 -2.30053,16.03281 -2.08391,16.24942 0.21662,0.21662 12.67753,-5.01366 27.69092,-11.62284 l 27.29708,-12.01669 3.80556,10.64776 c 2.09306,5.85627 4.16646,11.01086 4.60755,11.45465 0.99887,1.00497 7.26243,-13.57291 9.58444,-22.30689 0.9836,-3.69971 1.94611,-11.99287 2.23417,-19.25 0.47549,-11.97917 0.39314,-12.74638 -1.36216,-12.69015 -1.02753,0.0329 -7.49324,0.87255 -14.36824,1.86584 -6.875,0.99328 -12.6633,1.66555 -12.86288,1.49393 -0.2804,-0.24113 11.46518,-20.61091 18.19543,-31.55545 0.78259,-1.27263 -0.0247,-3.08019 -3.63609,-8.14106 -5.90593,-8.27642 -11.5897,-13.32171 -24.64863,-21.87974 C 429.96458,307.716 409.62265,299.48921 380.69183,293.58078 365.4858,290.47531 348,288.06565 348,289.07562 c 0,0.41866 3.9375,4.44441 8.75,8.9461 4.8125,4.5017 7.85,7.9444 6.75,7.65046 -1.1,-0.29394 -4.7,-1.06219 -8,-1.70721 -8.58986,-1.67897 -23.99907,-6.71595 -31,-10.1333 -13.61802,-6.64733 -21.4311,-15.05926 -22.29005,-23.9985 C 301.95452,267.17493 301.38896,265 300.95314,265 c -0.43582,0 -1.55973,2.31019 -2.49757,5.13377 -3.49594,10.52527 -0.24387,23.84243 8.72243,35.71821 l 4.10391,5.43559 -2.84993,-0.71529 c -10.74069,-2.69574 -22.63374,-12.44922 -27.19676,-22.30403 -3.49614,-7.55069 -4.32215,-23.19422 -1.80828,-34.24684 3.14933,-13.84657 8.60353,-21.96583 24.59175,-36.60797 37.98139,-34.78366 51.96128,-52.21097 66.67523,-83.11731 6.34044,-13.31797 12.40593,-27.52961 11.9459,-27.98964 -0.18081,-0.18081 -5.0764,4.80229 -10.87908,11.07355 l -10.55034,11.4023 0.50738,-18.14117 C 362.27846,90.594178 360.95316,77.081125 356.5059,57.5 c -3.02953,-13.338928 -8.60923,-32.730007 -9.23721,-32.102023 -0.25045,0.250453 -1.31523,7.800866 -2.36617,16.778696 -2.18604,18.67463 -4.19959,31.382601 -6.50578,41.059393 l -1.60535,6.736065 -4.8903,-8.136701 c -2.68966,-4.475186 -6.80523,-10.6301 -9.1457,-13.677588 -4.83685,-6.298004 -20.8479,-23.398664 -21.39527,-22.8513 -0.19847,0.198479 1.37384,4.624229 3.49403,9.835001 3.90157,9.58884 7.43081,19.939651 8.62008,25.281582 0.6095,2.737728 0.24462,2.543187 -5.753,-3.067293 C 279.03185,50.518327 233.68652,31.309238 179.24698,22.931865 161.92258,20.265917 121.32637,19.180935 103.46702,20.906556 78.953389,23.275132 53.803849,28.702689 35,35.682519 25.582558,39.178194 20.988215,41.687513 26,40.5981 39.123181,37.745513 76.787598,36.855865 95,38.968293 150.47289,45.402508 192.82887,69.666131 213.76008,107 c 6.82223,12.16843 11.88731,30.06207 10.80948,38.18713 -1.62184,12.22603 -13.45454,26.62924 -34.56956,42.07937 -5.775,4.22564 -16.02487,11.74435 -22.77749,16.70824 C 160.46989,208.93863 154.76106,213 154.53622,213 c -0.60567,0 3.04037,-12.99026 7.10472,-25.313 1.96152,-5.94714 3.34825,-11.03114 3.08162,-11.29777 -1.45144,-1.45144 -24.77794,27.04797 -30.91312,37.76844 -1.82019,3.18057 -3.53959,5.79623 -3.82087,5.81259 -0.87045,0.0506 -5.02784,-15.52044 -10.00438,-37.47026 -2.61865,-11.55 -5.00007,-20.325 -5.29204,-19.5 -1.96246,5.54527 -4.65269,38.99961 -4.66407,58 -0.0129,21.52847 0.80118,30.68891 4.57668,51.5 3.5904,19.79077 5.91463,28.42061 11.04229,41 17.44071,42.78625 54.91553,85.96015 105.22592,121.22841 5.70513,3.99937 9.71933,7.27159 8.92045,7.27159 -2.03913,0 -23.61345,-6.01204 -40.54342,-11.29809 -7.8375,-2.4471 -14.23606,-4.16862 -14.21903,-3.82559 0.046,0.92558 22.06511,16.05628 32.83684,22.5642 7.77472,4.69722 28.47825,15.57736 34.13219,17.93718 0.825,0.34434 -10.12809,0.44963 -24.34021,0.23398 -14.21211,-0.21565 -25.46211,-0.0537 -25,0.35994 0.46212,0.41362 2.64021,1.21541 4.84021,1.78174 2.2,0.56633 9.175,2.38868 15.5,4.04966 29.34243,7.70548 57.11624,12.91244 83.5,15.65433 26.17261,2.71995 41.98471,2.95761 71,1.06713 z"
     id="path2989"
     style="fill:#ffffff" />
</svg>
