<?xml version="1.0" encoding="UTF-8" standalone="no"?>
<!-- Created with Inkscape (http://www.inkscape.org/) -->

<svg
   xmlns:dc="http://purl.org/dc/elements/1.1/"
   xmlns:cc="http://creativecommons.org/ns#"
   xmlns:rdf="http://www.w3.org/1999/02/22-rdf-syntax-ns#"
   xmlns:svg="http://www.w3.org/2000/svg"
   xmlns="http://www.w3.org/2000/svg"
   xmlns:sodipodi="http://sodipodi.sourceforge.net/DTD/sodipodi-0.dtd"
   xmlns:inkscape="http://www.inkscape.org/namespaces/inkscape"
   id="svg2"
   version="1.1"
   inkscape:version="0.48.3.1 r9886"
   width="400"
   height="400"
   sodipodi:docname="Icons8_57.png">
  <metadata
     id="metadata8">
    <rdf:RDF>
      <cc:Work
         rdf:about="">
        <dc:format>image/svg+xml</dc:format>
        <dc:type
           rdf:resource="http://purl.org/dc/dcmitype/StillImage" />
        <dc:title></dc:title>
      </cc:Work>
    </rdf:RDF>
  </metadata>
  <defs
     id="defs6" />
  <sodipodi:namedview
     pagecolor="#ffffff"
     bordercolor="#666666"
     borderopacity="1"
     objecttolerance="10"
     gridtolerance="10"
     guidetolerance="10"
     inkscape:pageopacity="0"
     inkscape:pageshadow="2"
     inkscape:window-width="1855"
     inkscape:window-height="1056"
     id="namedview4"
     showgrid="false"
     inkscape:zoom="0.59"
     inkscape:cx="200"
     inkscape:cy="200"
     inkscape:window-x="65"
     inkscape:window-y="24"
     inkscape:window-maximized="1"
     inkscape:current-layer="svg2" />
  <path
     style="fill:#000000"
     d="m 0,0 400,0 0,400 -400,0 z"
     id="rect3066" />
  <path
     id="path3015"
     style="fill:#ffffff"
     d="M 270.21981,95.422248 C 253.928,87.303692 250.39388,64.672791 263.38857,51.678093 c 4.77862,-4.778616 8.57926,-6.656695 14.91519,-7.370306 L 283.5,43.722539 280.73002,45.949565 C 268.01999,56.168258 278.15596,77.063989 293.38484,72.038008 297.67633,70.621686 303,64.800474 303,61.524221 c 0,-1.323403 0.39777,-2.652025 0.88394,-2.952495 1.68156,-1.039261 3.6159,5.955976 3.57495,12.928274 -0.0901,15.33278 -10.98582,26.423523 -26.01255,26.478038 -4.53287,0.01645 -7.35317,-0.625613 -11.22653,-2.55579 z m 35.11499,14.624112 c 20.33818,-5.70691 36.82098,-15.296204 56.44734,-32.839709 l 7.28214,-6.509322 -2.28214,-2.452441 C 365.52696,66.896045 361.125,62.989648 357,59.564005 332.5634,39.270409 308.64974,29.862141 281.5,29.860299 c -28.45992,-0.0019 -51.89145,9.660174 -76.75,31.64822 -4.8125,4.256785 -8.75,8.316645 -8.75,9.021911 0,3.236034 24.09324,23.030921 36.13004,29.68426 23.19309,12.81998 49.81365,16.39522 73.20476,9.83167 z m -195.52524,36.59387 c -6.38507,-1.77078 -11.313234,-5.27932 -14.8624,-10.58106 -3.881258,-5.79782 -5.286219,-11.25979 -4.667892,-18.14702 1.155194,-12.86713 10.346272,-22.57354 23.168652,-24.467683 l 4.94792,-0.730914 -3.68397,3.23457 c -6.01371,5.280107 -6.97042,13.987447 -2.27127,20.671517 1.98094,2.81768 7.56451,5.38125 11.71053,5.37662 6.6378,-0.007 13.73545,-6.88435 13.92939,-13.49626 0.0853,-2.9077 0.15037,-2.86405 2.11509,1.41857 2.65827,5.7944 2.66898,15.33845 0.0239,21.31804 -5.43643,12.28995 -18.24432,18.77756 -30.40997,15.40362 z m 16.86808,15.30583 C 152.12929,158.51687 172.97642,147.6458 199,124.23242 l 4.5,-4.04864 -3,-3.19892 C 190.99678,106.85152 171.42096,93.469289 157.69712,87.724379 137.56435,79.296633 115.78589,76.890816 96.205574,80.931547 84.521864,83.34268 74.038927,87.243188 64.08856,92.881701 54.057302,98.566051 51.008604,100.79113 39.918317,110.52227 l -10.039277,8.80893 7.31048,7.4119 c 26.128855,26.49136 58.788842,39.33919 89.48812,35.20296 z m 149.5066,39.96979 C 264.4121,199.64092 255.70745,188.45965 255.61942,175.5 c -0.0538,-7.9264 1.77072,-12.88306 6.71792,-18.25015 4.92056,-5.33818 10.04957,-8.10083 16.40946,-8.83868 l 4.7532,-0.55145 -2.778,2.17394 c -11.37092,8.8984 -4.69766,27.89019 9.37591,26.68341 C 296.86405,176.13689 303,170.63809 303,165.15472 c 0,-4.17269 1.95628,-3.04104 3.45246,1.99715 1.9525,6.57478 1.94838,10.13536 -0.0194,16.7616 -3.71734,12.51761 -17.17753,20.52836 -30.24882,18.00238 z m 14.84199,15.04327 c 12.83512,-1.57661 22.25344,-4.48637 35.47377,-10.95949 12.52819,-6.13424 25.52158,-15.2543 36.32943,-25.49963 l 6.32942,-6 -8.5053,-7.37475 c -15.39095,-13.34514 -27.20565,-20.63004 -43.09948,-26.575 -38.9713,-14.5769 -81.41547,-4.7115 -113.70977,26.42982 l -8.3443,8.04639 9.41212,8.97418 c 26.3389,25.11339 56.37973,36.61092 86.11411,32.95848 z M 107.4628,250.4697 c -6.28858,-2.32792 -11.071403,-6.92923 -14.552399,-14.00014 -2.86954,-5.82886 -3.132551,-7.1185 -2.694973,-13.2144 0.983238,-13.69749 9.917992,-23.61593 23.034572,-25.57059 2.0625,-0.30735 3.75,-0.39674 3.75,-0.19862 0,0.19811 -1.31351,1.67371 -2.91891,3.27911 -6.79135,6.79135 -5.672,18.46486 2.23273,23.28471 3.93901,2.40179 10.8809,2.53899 14.68763,0.2903 3.39369,-2.0047 6.96721,-8.04711 7.08281,-11.97622 0.0795,-2.7022 0.19664,-2.61911 2.07532,1.47209 5.6969,12.40621 -0.22401,28.9942 -12.63017,35.38455 -5.12398,2.63934 -14.70081,3.23552 -20.06661,1.24921 z m 24.12477,15.0449 c 20.76553,-3.97311 38.52381,-12.73935 57.91243,-28.58806 3.85,-3.14708 8.54119,-7.33311 10.42487,-9.30228 3.40684,-3.56147 3.41474,-3.59157 1.5,-5.71705 C 198.36523,218.5108 185.05669,207.70982 178.5,203.30179 154.10145,186.89874 125.38707,180.05243 99.777515,184.53216 76.230024,188.65119 53.114327,200.99895 35.672678,218.77517 l -5.827323,5.9391 8.969227,8.22524 C 58.82805,251.29288 77.579137,261.51017 98.5,265.46152 c 9.59605,1.81242 23.77343,1.83516 33.08757,0.0531 z m 145.08539,40.28423 C 264.1694,303.54265 255.63241,292.66929 255.63241,279 c 0,-7.71228 2.43946,-13.91803 7.43478,-18.91335 4.16835,-4.16834 12.27943,-8.06378 16.81767,-8.07688 l 3.38486,-0.01 -2.65484,2.0883 c -7.79647,6.1327 -7.37275,19.09289 0.79928,24.44741 3.75464,2.46014 9.7292,2.95864 13.30398,1.11005 4.09219,-2.11616 8.28186,-7.2577 8.28186,-10.16347 0,-4.46081 1.90559,-3.53929 3.45246,1.66958 1.93646,6.52075 1.94788,10.13705 0.0522,16.52058 -2.73699,9.21644 -12.19405,17.3761 -21.50463,18.55443 -1.925,0.24363 -5.67217,0.051 -8.32704,-0.42805 z M 290.5,320.96293 c 13.05489,-1.48052 22.43065,-4.34643 36,-11.00423 12.56011,-6.16261 25.62418,-15.31613 36.34553,-25.46599 l 6.34554,-6.0073 -8.34554,-7.37737 C 335.76033,248.93298 309.52324,238 281.39247,238 c -28.50213,0 -55.67107,11.55039 -77.68342,33.02571 l -8.20905,8.00878 8,7.6545 c 20.64646,19.75479 43.62616,31.61091 66.44387,34.28098 9.53687,1.11598 10.65695,1.11559 20.55613,-0.007 z m -181.7076,33.71022 c -6.97177,-2.20599 -12.315936,-6.95988 -15.815639,-14.06879 -2.940694,-5.9734 -3.200595,-7.22984 -2.761333,-13.3492 1.002078,-13.95995 9.804562,-23.51996 23.734852,-25.77744 l 4.45028,-0.72119 -3.601,3.39618 c -5.75271,5.4255 -6.76298,12.44157 -2.84552,19.76141 3.33991,6.24068 14.4255,8.16174 20.00515,3.46676 3.7292,-3.13791 6.0102,-7.2646 6.12507,-11.08122 0.0782,-2.59799 0.22769,-2.48732 2.07532,1.53628 2.76785,6.02758 2.72602,15.37011 -0.0975,21.76784 -5.5193,12.50619 -18.93607,18.97195 -31.26973,15.06937 z M 138.5,368.10389 c 20.18097,-5.26364 39.88057,-16.67447 58.5,-33.88565 l 6.5,-6.00838 -2.5,-2.71888 c -9.61344,-10.4551 -30.88591,-24.6536 -45.9108,-30.64359 C 121.374,281.40614 86.092196,285.68253 54.428934,307.04809 47.097976,311.99483 31,326.4954 31,328.15216 c 0,1.56597 13.153052,14.03443 21.077532,19.98049 14.210339,10.66258 31.183555,18.41648 46.771646,21.36676 10.526172,1.99223 29.179062,1.33574 39.650822,-1.39552 z" />
</svg>
