<?xml version="1.0" encoding="UTF-8" standalone="no"?>
<!-- Created with Inkscape (http://www.inkscape.org/) -->

<svg
   xmlns:dc="http://purl.org/dc/elements/1.1/"
   xmlns:cc="http://creativecommons.org/ns#"
   xmlns:rdf="http://www.w3.org/1999/02/22-rdf-syntax-ns#"
   xmlns:svg="http://www.w3.org/2000/svg"
   xmlns="http://www.w3.org/2000/svg"
   xmlns:sodipodi="http://sodipodi.sourceforge.net/DTD/sodipodi-0.dtd"
   xmlns:inkscape="http://www.inkscape.org/namespaces/inkscape"
   id="svg2"
   version="1.1"
   inkscape:version="0.48.3.1 r9886"
   width="400"
   height="400"
   sodipodi:docname="2_85.png">
  <metadata
     id="metadata8">
    <rdf:RDF>
      <cc:Work
         rdf:about="">
        <dc:format>image/svg+xml</dc:format>
        <dc:type
           rdf:resource="http://purl.org/dc/dcmitype/StillImage" />
        <dc:title></dc:title>
      </cc:Work>
    </rdf:RDF>
  </metadata>
  <defs
     id="defs6" />
  <sodipodi:namedview
     pagecolor="#ffffff"
     bordercolor="#666666"
     borderopacity="1"
     objecttolerance="10"
     gridtolerance="10"
     guidetolerance="10"
     inkscape:pageopacity="0"
     inkscape:pageshadow="2"
     inkscape:window-width="1855"
     inkscape:window-height="1056"
     id="namedview4"
     showgrid="false"
     inkscape:zoom="0.59"
     inkscape:cx="200"
     inkscape:cy="200"
     inkscape:window-x="65"
     inkscape:window-y="24"
     inkscape:window-maximized="1"
     inkscape:current-layer="svg2" />
  <path
     style="fill:#000000;fill-opacity:1;stroke:none"
     d="m 0,0 400,0 0,400 -400,0 z"
     id="rect3048" />
  <path
     id="path2989"
     style="fill:#ffffff"
     d="m 226.1944,67.211006 c 5.88192,-9.216702 10.97881,-17.498817 11.32643,-18.4047 0.46925,-1.22284 -0.83237,-2.58383 -5.05362,-5.284129 -3.12711,-2.000388 -5.81273,-3.498719 -5.96805,-3.329623 -0.25826,0.28117 -19.23293,29.898719 -20.7454,32.381479 -0.62272,1.02222 7.66429,11.44315 9.07379,11.41029 0.36985,-0.0086 5.48493,-7.556615 11.36685,-16.773317 z M 79.828704,81.025727 C 93.672917,66.189877 105,53.59398 105,53.034845 105,51.414585 85.73823,42.191514 74.502571,38.431828 50.868823,30.523482 35.598651,33.701438 31.912504,47.295469 28.729871,59.032606 35.705789,80.861346 49.634381,102.75 c 1.837427,2.8875 3.719283,5.25 4.181902,5.25 0.462619,0 12.168208,-12.138423 26.012421,-26.974273 z M 256.19603,103.91082 c 8.41718,-5.60635 15.44916,-10.312482 15.62661,-10.458069 0.17746,-0.145587 -1.36129,-2.800899 -3.41944,-5.900694 -2.6275,-3.957296 -4.20156,-5.459674 -5.28471,-5.044032 C 260.06954,83.678016 231,103.26338 231,104.14759 c 0,1.85642 7.50315,10.87331 8.67404,10.424 0.66991,-0.25707 8.10481,-5.05442 16.52199,-10.66077 z M 116.92333,126.5 c 11.7731,-12.65 23.65089,-25.33428 26.39507,-28.187287 l 4.98941,-5.187287 -2.9368,-7.812713 L 142.43421,77.5 130.4671,68.760606 C 123.8852,63.95394 118.05,60.057841 117.5,60.102609 116.95,60.147377 104.17896,73.450302 89.119908,89.664664 63.822901,116.90243 61.829125,119.31098 62.913709,121.32266 c 0.645641,1.19754 5.590567,7.32985 10.988725,13.62736 8.405624,9.80604 10.517131,11.69899 14.706199,13.18404 2.690252,0.95371 5.345343,1.6512 5.900203,1.54998 C 95.063696,149.58282 105.15022,139.15 116.92333,126.5 z M 280.5,156.4653 c 4.4,-0.32167 9.29469,-0.83126 10.87709,-1.13244 l 2.8771,-0.5476 -0.67715,-6.60935 c -0.37243,-3.63514 -0.81546,-6.74766 -0.98451,-6.91671 -0.37629,-0.37629 -34.91777,2.73271 -35.3685,3.18344 -0.17689,0.17688 1.16029,3.32676 2.97151,6.99972 l 3.29313,6.67811 4.50566,-0.53517 c 2.47812,-0.29434 8.10567,-0.79834 12.50567,-1.12 z M 180,175.36492 c 0,-0.47185 -15.37748,-40.58907 -25.74227,-67.15718 -0.27728,-0.71075 -0.84575,-1.16075 -1.26326,-1 -1.11452,0.42909 -44.27816,46.85854 -43.85428,47.17234 0.71588,0.52998 68.39214,21.4809 69.60981,21.5495 0.6875,0.0387 1.25,-0.21537 1.25,-0.56466 z m 52.84016,15.22465 c 8.15282,-3.08049 18.24328,-4.75977 23.52532,-3.91514 l 3.94559,0.63093 -0.63731,-3.18658 c -2.79319,-13.96593 -20.72319,-47.03973 -37.95553,-70.013 C 196.83413,80.931551 154.91595,39.502444 142.25,35.564727 141.0125,35.180001 140,35.058149 140,35.293945 c 0,0.235797 12.82359,33.678621 28.49687,74.317385 l 28.49686,73.88867 9.08474,8.66173 9.08474,8.66173 5.50856,-3.85876 c 3.02971,-2.12232 8.50548,-4.99113 12.16839,-6.37513 z M 80.771079,224 c 5.587158,-4.125 10.17432,-7.78343 10.193695,-8.12985 0.07956,-1.4226 -11.071488,-8.92367 -12.234163,-8.22966 -1.403701,0.83788 -24.75724,18.22585 -26.13511,19.45901 -0.514574,0.46053 0.907176,3.20904 3.297998,6.37566 l 4.202496,5.56617 5.258308,-3.77066 C 68.246373,233.1968 75.183922,228.125 80.771079,224 z m 229.588901,15.774 c 7.83533,-2.34752 13.67654,-10.87897 13.61806,-19.89002 -0.0514,-7.92366 -7.14296,-16.77421 -15.1729,-18.93645 -18.98664,-5.11257 -33.46762,17.97792 -20.52164,32.72258 5.76194,6.56248 13.45053,8.68829 22.07648,6.10389 z m -114.16517,6.41741 c -0.49648,-10.38427 2.0094,-21.17113 7.04694,-30.33441 l 3.1191,-5.67365 -8.30759,-7.84168 c -4.56917,-4.31292 -9.48786,-8.57786 -10.93042,-9.47765 -2.12176,-1.32344 -137.352728,-43.88786 -147.485442,-46.42156 l -2.862602,-0.7158 1.822875,2.88667 c 5.146353,8.14966 11.654637,15.38223 23.193482,25.7746 44.702797,40.26121 87.635437,67.17151 124.621647,78.11317 4.44796,1.31585 8.56329,2.4164 9.14518,2.44567 0.69808,0.0351 0.91471,-2.94319 0.63683,-8.75536 z M 116.75,254.15229 c 4.5375,-8.15024 8.25,-15.0661 8.25,-15.36858 0,-0.30248 -2.66621,-2.13821 -5.92492,-4.07941 l -5.92491,-3.52946 -8.73037,15.61082 c -4.801704,8.58595 -8.322992,15.75475 -7.825085,15.93067 0.497907,0.17591 3.155285,1.65403 5.905285,3.28471 2.75,1.63067 5.225,2.96598 5.5,2.96736 0.275,0.001 4.2125,-6.66588 8.75,-14.81611 z m 55.02836,19.80088 0.27836,-12.54683 -6.747,-2.6512 c -3.71084,-1.45816 -6.85917,-2.53903 -6.99627,-2.40192 -0.1371,0.1371 -0.55886,7.10984 -0.93724,15.49498 l -0.68796,15.24571 7.40587,-0.29695 L 171.5,286.5 l 0.27836,-12.54683 z m 105.70289,8.61069 c 8.61614,-5.0494 17.75996,-17.29241 19.87748,-26.61473 0.52474,-2.31016 0.18129,-2.6581 -3.63966,-3.68726 -6.33947,-1.70753 -13.49946,-6.95895 -17.27203,-12.66801 C 273.27193,234.78897 270,225.09864 270,220.5 c 0,-2.06811 2.23805,-11.40296 3.53766,-14.75545 1.48807,-3.83868 -15.11358,-7.58973 -26.05322,-5.88659 -22.72339,3.53771 -38.43409,21.79575 -38.47257,44.71054 -0.01,5.79134 1.91698,15.8029 3.56934,18.54706 0.20386,0.33856 2.74398,-0.54592 5.64472,-1.96552 7.24014,-3.54326 19.94554,-3.68143 26.91019,-0.29264 9.76139,4.74959 16.50171,12.70862 18.89673,22.31339 l 1.16469,4.6708 4.11846,-1.45308 c 2.26516,-0.7992 5.93952,-2.52029 8.16525,-3.82465 z m 93.14021,3.18614 c -0.35858,-11.6875 -0.93207,-26.15039 -1.27442,-32.13975 l -0.62246,-10.88976 -20.11229,0.51749 -20.11229,0.51749 -5.2593,3.5609 c -2.89262,1.9585 -6.79424,4.11594 -8.67028,4.79433 -2.99448,1.08281 -3.59489,1.91451 -4.91726,6.81136 -0.82846,3.06787 -1.79161,6.49401 -2.14032,7.61365 -0.60435,1.94043 -0.22161,2.03682 8.17657,2.0592 20.35033,0.0542 41.88089,13.3303 51.33086,31.65139 1.91385,3.71047 3.65375,6.74797 3.86644,6.75 0.2127,0.002 0.0933,-9.5588 -0.26525,-21.2463 z m -128.98675,23.58822 c 2.19667,-1.12384 5.2683,-4.04679 7.11529,-6.77089 2.76193,-4.07351 3.25,-5.68343 3.25,-10.72018 0,-10.04382 -5.18811,-17.08318 -14.65047,-19.87814 -8.80815,-2.60171 -19.16533,1.82929 -23.32237,9.97775 -2.69463,5.28192 -2.71091,13.79266 -0.0364,19.03515 4.97906,9.75977 17.50172,13.54516 27.64394,8.35631 z m 52.28367,56.30821 24.41838,-1.14643 -9.49509,-4.70749 c -7.91804,-3.92563 -10.75521,-6.02646 -17.08208,-12.64872 -12.07745,-12.64132 -17.43106,-25.98352 -16.54786,-41.24032 0.25164,-4.34691 0.41944,-7.89684 0.3729,-7.88874 -0.0466,0.008 -2.6738,0.82309 -5.83834,1.81109 -5.32544,1.66266 -5.94377,2.17778 -8.30722,6.92061 -1.40444,2.81833 -4.35686,6.75345 -6.56094,8.74471 l -4.00742,3.62046 0.71334,23.9442 0.71333,23.9442 8.60131,-0.10357 c 4.73072,-0.057 19.58958,-0.61947 33.01969,-1.25 z" />
</svg>
