<?xml version="1.0" encoding="UTF-8" standalone="no"?>
<!-- Created with Inkscape (http://www.inkscape.org/) -->

<svg
   xmlns:dc="http://purl.org/dc/elements/1.1/"
   xmlns:cc="http://creativecommons.org/ns#"
   xmlns:rdf="http://www.w3.org/1999/02/22-rdf-syntax-ns#"
   xmlns:svg="http://www.w3.org/2000/svg"
   xmlns="http://www.w3.org/2000/svg"
   version="1.1"
   width="400"
   height="400"
   id="svg2">
  <metadata
     id="metadata8">
    <rdf:RDF>
      <cc:Work
         rdf:about="">
        <dc:format>image/svg+xml</dc:format>
        <dc:type
           rdf:resource="http://purl.org/dc/dcmitype/StillImage" />
        <dc:title></dc:title>
      </cc:Work>
    </rdf:RDF>
  </metadata>
  <defs
     id="defs6" />
  <path
     d="m 0,0 400,0 0,400 -400,0 z"
     id="rect3026"
     style="fill:#000000;fill-opacity:1;fill-rule:nonzero;stroke:none" />
  <path
     d="m 322.80678,345.89844 10.54392,38.86718 -28.9053,0.20495 c -15.89792,0.11272 -29.00495,0.10529 -29.12675,-0.0165 -0.32458,-0.32458 15.28949,-74.25961 15.78879,-74.76235 0.55951,-0.56337 14.75804,-2.93183 18.3443,-3.06001 l 2.81113,-0.10046 10.54391,38.86718 z m -106.16996,-62.9356 c -7.70133,11.30403 -14.25581,20.97843 -14.56552,21.49867 -0.56348,0.94654 14.33512,54.11983 15.16609,54.12794 0.24229,0.002 6.65511,-13.82336 14.25071,-30.72384 l 13.81019,-30.72815 -6.89182,-16.92598 c -3.7905,-9.3093 -7.08879,-17.12296 -7.32952,-17.36371 -0.24075,-0.24073 -6.7388,8.81105 -14.44013,20.11507 z m -54.34924,-85.68935 -22.92571,26.961 -1.41153,14.84273 c -1.12597,11.8398 -1.2159,15.07846 -0.44456,16.00787 0.53184,0.64083 7.89907,7.83225 16.37162,15.98091 l 15.40463,14.81577 7.88492,-10.71432 c 4.33671,-5.89288 9.99164,-13.56679 12.56651,-17.05315 l 4.68159,-6.33882 -16.80849,-5.68893 -16.80847,-5.68893 9.24675,-9.45662 c 5.08572,-5.20114 16.0539,-16.35372 24.37374,-24.78351 11.56272,-11.71553 15.02562,-15.67324 14.69679,-16.79687 -0.2366,-0.8085 -1.18214,-3.99912 -2.1012,-7.09028 l -1.67101,-5.62029 -9.50867,-3.16877 c -5.22976,-1.74283 -9.75898,-3.16878 -10.06494,-3.16878 -0.30594,0 -10.87283,12.13245 -23.48197,26.96099 z m -8.08931,-79.00615 -5.54124,8.82803 -3.30326,34.5609 c -1.81679,19.0085 -3.1574,34.70677 -2.97911,34.88505 0.26189,0.2619 25.03338,-28.43827 30.57289,-35.42166 1.45243,-1.831 1.413,-2.02074 -5.36493,-25.81804 -3.75547,-13.18542 -7.0565,-24.39848 -7.33562,-24.9179 -0.29754,-0.55369 -2.80003,2.70794 -6.04873,7.88362 z m 55.58271,-98.150153 11.14563,6.835938 6.78077,33.984375 c 3.72943,18.691406 9.94328,48.52104 13.80853,66.28806 3.86526,17.76703 6.91597,32.41058 6.77936,32.54122 -0.19153,0.18314 -32.29893,-9.27693 -37.19897,-10.96024 -0.65936,-0.22652 1.06811,-3.09615 4.9479,-8.21927 3.27852,-4.32918 5.7871,-8.32429 5.57461,-8.87802 -0.35633,-0.92859 -38.63365,-51.10993 -40.76963,-53.448758 -0.7635,-0.836008 -1.81698,0.343196 -5.44881,6.099063 l -4.50232,7.135445 8.41411,29.44781 c 4.62776,16.1963 8.72407,30.56422 9.10289,31.92872 0.68602,2.47098 0.78805,2.51379 25.4728,10.68965 13.63121,4.5148 28.83818,9.45099 33.79326,10.96932 l 9.00924,2.76059 16.77201,24.3406 16.77202,24.3406 9.06072,33.30291 c 4.98341,18.31661 8.9912,33.39669 8.90621,33.5113 -0.085,0.11461 -4.49108,0.91587 -9.79132,1.78057 -7.79929,1.27242 -9.80745,1.38165 -10.53182,0.57288 -0.49226,-0.54963 -6.29438,-9.43683 -12.89361,-19.74933 -6.59922,-10.3125 -12.06932,-18.85787 -12.15577,-18.98971 -0.0865,-0.13185 -2.82059,1.45938 -6.07587,3.53605 l -5.91869,3.77577 13.35141,20.6827 13.35141,20.68269 -8.37767,39.84375 c -4.60772,21.91407 -8.46213,39.93397 -8.56536,40.04424 -0.10323,0.11026 -25.51564,0.11026 -56.47201,0 l -56.28432,-0.20049 14.68308,-34.375 14.68307,-34.375 -23.17223,-23.25047 -23.17224,-23.25048 -1.02378,2.15673 c -0.56307,1.1862 -12.36151,27.11766 -26.21874,57.62547 l -25.194975,55.46875 -8.445655,0.2227 c -6.640973,0.17512 -8.355936,0.008 -8.025777,-0.78125 0.230934,-0.55217 13.668284,-30.13817 29.860776,-65.74667 l 29.440901,-64.74273 6.2648,-65.72602 6.26481,-65.72602 7.82929,-12.5 7.8293,-12.500005 9.28109,-26.849453 9.28109,-26.849453 14.63156,-15.113477 c 8.04736,-8.312414 14.93975,-15.126648 15.31642,-15.142734 0.37668,-0.01609 5.70039,3.046914 11.8305,6.80668 z"
     id="path2989"
     style="fill:#ffffff" />
</svg>
