<?xml version="1.0" encoding="UTF-8" standalone="no"?>
<!-- Created with Inkscape (http://www.inkscape.org/) -->

<svg
   xmlns:dc="http://purl.org/dc/elements/1.1/"
   xmlns:cc="http://creativecommons.org/ns#"
   xmlns:rdf="http://www.w3.org/1999/02/22-rdf-syntax-ns#"
   xmlns:svg="http://www.w3.org/2000/svg"
   xmlns="http://www.w3.org/2000/svg"
   xmlns:sodipodi="http://sodipodi.sourceforge.net/DTD/sodipodi-0.dtd"
   xmlns:inkscape="http://www.inkscape.org/namespaces/inkscape"
   id="svg2"
   version="1.1"
   inkscape:version="0.48.3.1 r9886"
   width="400"
   height="400"
   sodipodi:docname="Icon.3_32.png">
  <metadata
     id="metadata8">
    <rdf:RDF>
      <cc:Work
         rdf:about="">
        <dc:format>image/svg+xml</dc:format>
        <dc:type
           rdf:resource="http://purl.org/dc/dcmitype/StillImage" />
        <dc:title></dc:title>
      </cc:Work>
    </rdf:RDF>
  </metadata>
  <defs
     id="defs6" />
  <sodipodi:namedview
     pagecolor="#ffffff"
     bordercolor="#666666"
     borderopacity="1"
     objecttolerance="10"
     gridtolerance="10"
     guidetolerance="10"
     inkscape:pageopacity="0"
     inkscape:pageshadow="2"
     inkscape:window-width="1280"
     inkscape:window-height="970"
     id="namedview4"
     showgrid="false"
     inkscape:zoom="0.834386"
     inkscape:cx="320.63229"
     inkscape:cy="206.45358"
     inkscape:window-x="0"
     inkscape:window-y="26"
     inkscape:window-maximized="1"
     inkscape:current-layer="svg2" />
  <rect
     style="fill:#000000;fill-opacity:1;stroke:none"
     id="rect3002"
     width="400"
     height="400"
     x="0"
     y="0" />
  <path
     id="path2987"
     style="fill:#ffffff"
     d="M 271.49066,90.429861 C 287.23493,76.916285 300.35984,65.225859 300.65712,64.451137 301.30137,62.77226 277.51957,34.634649 275.11197,34.227197 273.19082,33.902071 211.5,86.71258 211.5,88.682305 c 0,1.530944 28.37162,26.241425 30.18236,26.287565 0.6503,0.0166 14.06404,-11.02643 29.8083,-24.540009 z m 6.86118,171.858409 c -18.6551,-18.38263 -22.80837,-29.56021 -15.9862,-43.02313 3.93128,-7.75801 4.80504,-8.05101 9.09224,-3.04892 13.23958,15.44727 21.04167,35.50414 18.92508,48.65081 -0.48563,3.01637 -1.38463,5.64748 -1.99777,5.84691 -0.61315,0.19943 -5.12816,-3.59212 -10.03335,-8.42567 z m 24.92404,100.31135 c 6.22822,-2.98623 16.4514,-12.72202 24.03954,-22.89343 5.79027,-7.7615 12.02438,-20.50253 15.33088,-31.33267 2.48731,-8.14695 2.71041,-10.26549 2.7247,-25.87352 0.0189,-20.68698 -1.41873,-26.96294 -10.39674,-45.38581 -3.31979,-6.81219 -5.81058,-12.6112 -5.53511,-12.88668 0.27548,-0.27547 5.31522,0.51434 11.19943,1.75514 12.1165,2.55501 18.56666,2.28969 23.85941,-0.98141 4.37188,-2.70197 7.5064,-9.21951 7.4867,-15.56696 -0.0242,-7.78336 -0.31412,-7.94873 -10.62084,-6.05706 -4.87512,0.89477 -10.9187,1.62593 -13.43019,1.62481 -11.59471,-0.005 -24.28701,-4.24676 -34.43366,-11.50727 -3.3,-2.36134 -46.725,-39.21327 -96.5,-81.89319 -49.775,-42.679913 -91.175,-77.569032 -92,-77.531373 -1.59079,0.07262 -26,28.121595 -26,29.876982 0,0.567374 33.1875,29.447325 73.75,64.177671 72.63044,62.18749 83.25,71.51267 83.25,73.10294 0,0.44164 -1.57571,3.17617 -3.50157,6.07673 -5.01801,7.55766 -7.50463,15.35832 -7.46578,23.4205 0.0674,13.9878 5.63633,23.86482 23.71735,42.06496 7.2875,7.33551 13.25,13.8961 13.25,14.57909 0,2.74568 -11.41824,14.81668 -22.39498,23.67525 -13.4911,10.88774 -16.27805,15.02872 -15.2352,22.63718 1.7175,12.53053 14.81257,25.55848 31.13018,30.97064 2.49206,0.82655 7.39287,1.21175 13,1.02177 7.37618,-0.24992 10.04211,-0.80459 14.77588,-3.07429 z M 110.39595,269.83165 c -0.39714,-0.64259 -0.70369,-5.03009 -0.68121,-9.75 0.0652,-13.69502 5.77965,-27.27556 17.89126,-42.51915 l 4.71757,-5.9375 2.82181,3.38008 c 6.21856,7.44883 7.3199,18.19049 2.7864,27.17653 -2.93956,5.82662 -11.95323,16.76504 -19.2748,23.39069 -6.33239,5.73048 -7.10547,6.12908 -8.26103,4.25935 z m 15.74871,94.18486 c 14.83757,-4.63077 27.96515,-17.96073 29.58553,-30.04163 1.01462,-7.56453 -1.77234,-12.17495 -12.54286,-20.74946 -10.95557,-8.72182 -21.13751,-18.86083 -23.67792,-23.57808 l -1.73501,-3.22174 13.41871,-13.4628 c 18.56188,-18.62287 23.98974,-28.22776 23.99633,-42.4628 0.004,-8.17948 -2.52771,-15.8297 -7.86026,-23.75384 -2.56879,-3.8172 -3.26,-5.63261 -2.56467,-6.73586 0.52353,-0.83067 10.54499,-9.8353 22.26992,-20.0103 11.72492,-10.175 21.48843,-19.02409 21.69669,-19.66464 C 189.19037,158.92278 160.50274,134 158.41752,134 c -0.81094,0 -15.56356,12.09825 -32.78359,26.885 -17.22004,14.78675 -34.058139,28.97561 -37.418003,31.53081 -7.585522,5.76884 -15.016128,9.22301 -23.881135,11.10131 -8.879847,1.88146 -14.848592,1.85149 -25.637823,-0.12872 -4.841667,-0.88862 -9.042003,-1.3767 -9.334079,-1.08462 -1.286302,1.2863 -1.51866,9.06822 -0.391021,13.09575 C 31.038045,222.77918 38.346622,228 46.611164,228 c 1.821995,0 7.840685,-0.96416 13.374866,-2.14258 5.534182,-1.17842 10.33858,-1.86614 10.67644,-1.52828 0.337861,0.33786 -2.145872,6.13952 -5.519407,12.89257 -8.502227,17.01955 -10.566627,25.85434 -10.580042,45.27829 -0.01185,17.15086 1.789273,25.71524 8.43713,40.11883 9.328575,20.21178 26.340321,38.26303 39.999849,42.44404 4.93801,1.51147 16.64491,0.9822 23.14466,-1.04636 z" />
</svg>
