<?xml version="1.0" encoding="UTF-8" standalone="no"?>
<!-- Created with Inkscape (http://www.inkscape.org/) -->

<svg
   xmlns:dc="http://purl.org/dc/elements/1.1/"
   xmlns:cc="http://creativecommons.org/ns#"
   xmlns:rdf="http://www.w3.org/1999/02/22-rdf-syntax-ns#"
   xmlns:svg="http://www.w3.org/2000/svg"
   xmlns="http://www.w3.org/2000/svg"
   xmlns:sodipodi="http://sodipodi.sourceforge.net/DTD/sodipodi-0.dtd"
   xmlns:inkscape="http://www.inkscape.org/namespaces/inkscape"
   id="svg2"
   version="1.1"
   inkscape:version="0.48.3.1 r9886"
   width="400"
   height="400"
   sodipodi:docname="Icon.5_28.png">
  <metadata
     id="metadata8">
    <rdf:RDF>
      <cc:Work
         rdf:about="">
        <dc:format>image/svg+xml</dc:format>
        <dc:type
           rdf:resource="http://purl.org/dc/dcmitype/StillImage" />
        <dc:title></dc:title>
      </cc:Work>
    </rdf:RDF>
  </metadata>
  <defs
     id="defs6" />
  <sodipodi:namedview
     pagecolor="#ffffff"
     bordercolor="#666666"
     borderopacity="1"
     objecttolerance="10"
     gridtolerance="10"
     guidetolerance="10"
     inkscape:pageopacity="0"
     inkscape:pageshadow="2"
     inkscape:window-width="1216"
     inkscape:window-height="1000"
     id="namedview4"
     showgrid="false"
     inkscape:zoom="0.834386"
     inkscape:cx="409.06749"
     inkscape:cy="310.47091"
     inkscape:window-x="64"
     inkscape:window-y="24"
     inkscape:window-maximized="1"
     inkscape:current-layer="svg2" />
  <rect
     style="fill:#000000;fill-opacity:1;stroke:none"
     id="rect4145"
     width="400"
     height="400"
     x="0"
     y="0" />
  <path
     id="path4100"
     style="fill:#ffffff;fill-opacity:1"
     d="M 140.59151,38.451421 128.68302,27 114.34151,27 c -15.701404,0 -15.516157,-0.08811 -12.54348,5.966479 l 1.70197,3.46648 24,6.700349 c 13.2,3.685191 24.225,6.715915 24.5,6.734941 0.275,0.01903 -4.85882,-5.118547 -11.40849,-11.416828 z M 177,39.5 177,27 166,27 c -6.05,0 -11,0.262443 -11,0.583208 C 155,28.248341 176.02641,52 176.61522,52 176.82685,52 177,46.375 177,39.5 z m 103.56263,-8.249049 c -0.12507,-0.136977 -5.89253,0.948406 -12.81658,2.411962 l -12.58919,2.661011 2.00553,5.088038 c 1.10304,2.798421 3.38394,8.662371 5.06867,13.031 l 3.06314,7.942961 7.74791,-15.442961 c 4.26135,-8.493629 7.64558,-15.555034 7.52052,-15.692011 z m -74.69824,36.96449 c 3.92459,-5.656507 7.1367,-10.831507 7.13803,-11.5 C 213.0057,55.066496 203.65045,31 203.00618,31 c -0.28171,0 -2.72129,5.73385 -5.42127,12.741888 l -4.90905,12.741888 1.1175,6.508112 c 2.03334,11.841753 3.40406,17.211777 4.17458,16.354563 0.41847,-0.465548 3.97187,-5.474502 7.89645,-11.13101 z m 79.29935,27.090667 C 290.02368,94.374467 294,93.218465 294,92.737213 c 0,-1.019258 -14.22972,-19.633868 -15.05611,-19.695642 -0.30586,-0.02286 -1.35308,4.120929 -2.32716,9.208429 -0.97408,5.0875 -2.01758,10.4875 -2.31889,12 -0.65613,3.293564 -0.75551,3.283905 10.8659,1.056108 z M 54,100.42144 c 8.525,-1.905639 16.343297,-3.812766 17.373993,-4.238058 1.411283,-0.582332 -3.156583,-2.949141 -18.5,-9.585652 C 41.668297,81.750913 31.9375,77.56049 31.25,77.285679 30.284497,76.899743 30,80.086344 30,91.286714 l 0,14.500696 4.25,-0.95058 c 2.3375,-0.52282 11.225,-2.50975 19.75,-4.41539 z M 88.077506,136.25 c -1.132276,-1.5125 -6.746418,-7.7 -12.475872,-13.75 l -10.417189,-11 -13.342223,4.40919 C 40.40274,119.68959 38.856526,120.44187 41,121.18428 c 1.375,0.47624 12.85,4.63018 25.5,9.23098 12.65,4.6008 23.143142,8.41451 23.318094,8.47492 0.174952,0.0604 -0.608313,-1.12768 -1.740588,-2.64018 z m 162.510604,1.5 C 244.30859,115.01007 236.663,87.481355 236.58639,87.335438 c -0.20909,-0.398291 -23.71135,-3.538337 -23.99615,-3.206034 -0.1747,0.203828 -0.0415,5.78496 0.29607,12.402516 L 213.5,108.56384 233,127.27071 c 10.725,10.28878 19.58242,18.71191 19.68315,18.71808 0.10074,0.006 -0.84203,-3.70129 -2.09504,-8.23879 z M 82.967119,167.6665 c 2.309564,-7.60843 4.049284,-13.94954 3.866044,-14.09135 -0.273187,-0.21143 -28.957535,-11.70444 -49.149264,-19.69272 -3.15885,-1.24971 -4.553829,-1.47128 -4.053917,-0.64389 1.186719,1.96409 44.555348,48.91358 44.86389,48.56821 0.150722,-0.16871 2.163684,-6.53183 4.473247,-14.14025 z m -38.744349,25.75926 13.725138,-4.57425 -10.223954,-8.81809 c -6.380776,-5.50338 -10.469503,-8.38869 -10.877184,-7.67576 -0.359277,0.62829 -2.057111,5.96997 -3.772966,11.8704 -1.715854,5.90043 -3.382546,11.41293 -3.703758,12.25 C 29.048833,197.31513 29.171134,198 29.641827,198 c 0.470692,0 7.032117,-2.05841 14.580943,-4.57424 z m 210.31266,-9.63597 c -0.974,-10.36734 -2.22015,-18.75506 -2.87687,-19.36392 -0.63721,-0.59076 -8.80856,-7.98289 -18.15856,-16.42694 -9.35,-8.44405 -18.63224,-16.88556 -20.6272,-18.75891 -3.38287,-3.17665 -3.60237,-3.24894 -3.25859,-1.07306 0.20274,1.28317 1.76041,12.23304 3.4615,24.33304 1.70108,12.1 3.18386,22.09142 3.29506,22.20315 1.77816,1.78659 39.13265,28.12677 39.44508,27.81433 0.24084,-0.24084 -0.33535,-8.6683 -1.28042,-18.72769 z m -153.71518,34.05905 c 12.70791,-4.57782 22.78454,-8.6002 22.39252,-8.93863 -1.43456,-1.23844 -57.648943,-11.87404 -58.462119,-11.06086 -2.237173,2.23717 -11.603962,18.6905 -10.972705,19.27421 1.563331,1.44559 21.78926,9.81012 22.829538,9.44127 0.609116,-0.21598 11.504861,-4.13817 24.212766,-8.71599 z m 71.94137,28.32704 4.26163,-0.67588 -7.76163,-12.20474 -7.76162,-12.20475 -14.5,0.0124 c -7.975,0.007 -16.16674,0.32394 -18.20386,0.70474 l -3.70386,0.69237 17.20386,12.22964 c 18.72034,13.30766 18.7228,13.30858 30.46548,11.44624 z M 59.714929,251.25 C 54.744398,242.00204 48.512897,231.99608 47.860255,232.21486 47.39243,232.37169 44.139448,236.55 40.631407,241.5 l -6.378256,9 8.623425,0.56103 c 14.426374,0.93856 17.25832,0.97034 16.838353,0.18897 z m 47.705481,10.15385 c 3.14634,-4.72788 5.57639,-8.71357 5.40011,-8.85709 -0.17629,-0.14351 -6.04375,-0.89948 -13.03881,-1.67992 -12.69573,-1.41648 -12.715985,-1.4154 -11.418482,0.60708 0.714895,1.11435 3.668957,5.73858 6.564581,10.27608 2.895625,4.5375 5.603891,8.25 6.018371,8.25 0.41449,0 3.32789,-3.86827 6.47423,-8.59615 z M 372.61949,370.75 C 371.84545,368.9625 364.93292,354.675 357.2583,339 L 343.30446,310.5 332.92997,264.65758 322.55547,218.81515 308.49116,205.15758 294.42685,191.5 l -3.32758,-17.52697 -3.32758,-17.52697 -11.88584,-11.30555 c -6.53722,-6.21806 -11.89464,-10.70592 -11.90537,-9.97303 -0.0107,0.73288 1.84212,12.58287 4.11746,26.3333 l 4.13699,25.00078 16.94808,18.99922 c 9.32144,10.44957 18.48391,20.83377 20.36104,23.07599 l 3.41297,4.07677 -3.9458,13.80718 c -2.17018,7.59395 -4.13878,14.00017 -4.37465,14.23604 -0.23587,0.23587 -2.55442,-6.0119 -5.15234,-13.88395 -2.59792,-7.87205 -5.23215,-14.80286 -5.85386,-15.40181 -1.01086,-0.97387 -21.44304,-9.92202 -24.26624,-10.62726 -0.62473,-0.15606 -5.24088,2.59589 -10.25813,6.11543 l -9.12226,6.39917 19.07956,11.44607 c 10.49375,6.29534 18.91066,11.61496 18.70424,11.82138 -0.20642,0.20642 -13.40106,-2.97741 -29.32142,-7.07518 -15.92037,-4.09777 -29.28362,-7.45952 -29.69612,-7.47055 -1.45417,-0.0389 -0.6916,-2.16899 5.27722,-14.74089 3.31498,-6.98219 5.83575,-13.19388 5.60172,-13.80375 -0.23402,-0.60986 -10.33828,-8.6289 -22.45391,-17.82009 -17.1576,-13.01615 -22.15318,-17.31313 -22.59271,-19.43329 -0.31037,-1.49712 -4.15934,-24.96552 -8.55327,-52.152 C 181.63512,96.883562 177.69356,74.32058 177.27004,73.93008 176.84652,73.53958 169.3,70.964412 160.5,68.207486 146.72692,63.892559 144.46623,63.4249 144.25734,64.847447 144.12388,65.756351 145.49735,76.175 147.30949,88 l 3.29482,21.5 8.94784,1.3362 c 4.92132,0.73491 9.54866,1.52299 10.28298,1.75128 0.73433,0.2283 -6.01567,6.21867 -15,13.31194 -10.09144,7.96736 -16.57184,12.45801 -16.95442,11.74872 C 137.5401,137.01666 133.99158,119.175 129.99512,98 125.99866,76.825 122.60007,59.347723 122.44269,59.161606 122.28531,58.975489 114.38618,57.052844 104.88906,54.889061 95.391945,52.725278 87.534344,50.852556 87.427727,50.727455 87.321109,50.602355 86.01226,45.2125 84.519175,38.75 L 81.804473,27 C 64.519801,27 47.235129,27 29.950457,27 L 30.225229,43.159826 30.5,59.319652 57.066842,71.215519 83.633684,83.111386 81.911838,93.805693 80.189991,104.5 l 9.66038,10 c 5.313209,5.5 12.684989,13.15074 16.381739,17.00165 l 6.72135,7.00164 -9.48207,23.40968 c -5.215145,12.87532 -9.367174,23.50443 -9.226734,23.62023 0.140439,0.11581 27.480344,9.1177 60.755344,20.0042 33.275,10.8865 60.6875,19.94416 60.91667,20.12812 0.94515,0.75872 -1.32333,1.60872 -14.79105,5.54224 C 193.35653,233.47687 187,235.64021 187,236.01519 c 0,0.37497 5.11099,12.33745 11.35777,26.58329 6.24677,14.24583 11.20689,26.0789 11.02249,26.29569 -0.1844,0.2168 -5.10649,-4.0582 -10.93798,-9.5 -18.83486,-17.57619 -16.87394,-16.39935 -30.18088,-18.11303 l -11.67977,-1.50413 -19.40323,-13.41094 c -15.78685,-10.91142 -19.0098,-12.80103 -17.29235,-10.13851 1.16098,1.79984 7.39906,11.70849 13.86241,22.01922 l 11.75154,18.74679 15.67965,-0.64714 15.67965,-0.64713 17.32035,15.83972 c 9.52619,8.71185 18.26415,16.66841 19.41769,17.68125 2.04228,1.79318 2.41014,1.77435 14.01251,-0.71746 l 11.91516,-2.55899 66.9875,34.01029 c 36.84312,18.70566 67.10603,34.0183 67.25091,34.02809 0.14488,0.01 -0.36989,-1.4447 -1.14393,-3.2322 z"
     inkscape:connector-curvature="0"
     sodipodi:nodetypes="scsscscsscsssscscsscscsssscssssscsssssssscsssscssscssccscscsscssssscssssssssssssscssssssscccccscsccssscssscssssssscccccccscscsscsssssscssscssssssssscsssssssssccccccccsscscscssscsscssscccssscscs" />
</svg>
