<?xml version="1.0" encoding="UTF-8" standalone="no"?>
<!-- Created with Inkscape (http://www.inkscape.org/) -->

<svg
   xmlns:dc="http://purl.org/dc/elements/1.1/"
   xmlns:cc="http://creativecommons.org/ns#"
   xmlns:rdf="http://www.w3.org/1999/02/22-rdf-syntax-ns#"
   xmlns:svg="http://www.w3.org/2000/svg"
   xmlns="http://www.w3.org/2000/svg"
   version="1.1"
   width="512"
   height="512"
   id="svg2">
  <metadata
     id="metadata8">
    <rdf:RDF>
      <cc:Work
         rdf:about="">
        <dc:format>image/svg+xml</dc:format>
        <dc:type
           rdf:resource="http://purl.org/dc/dcmitype/StillImage" />
        <dc:title></dc:title>
      </cc:Work>
    </rdf:RDF>
  </metadata>
  <defs
     id="defs6" />
  <path
     d="M 0,256 0,0 l 256,0 256,0 0,256 0,256 -256,0 -256,0 0,-256 z"
     id="path2999"
     style="fill:#000000" />
  <path
     d="m 262.00842,309.17865 c -15.25936,36.17697 -30.24445,72.54006 -49.04608,107.07058 -31.55658,-24.70575 -54.68276,-59.15642 -70.66016,-95.34646 -4.20641,-9.52785 -11.3635,-32.36441 -11.3635,-32.36441 0,0 65.42626,-26.34412 93.1537,-38.07798 -36.20018,-18.06121 -74.36659,-32.49087 -110.78344,-50.28636 -6.12042,-40.37371 -7.50224,-81.23722 -7.53866,-122.016982 34.74131,3.134167 69.42368,6.961743 104.24656,9.120838 18.74293,38.993514 34.36995,79.384204 51.58746,119.062024 17.81984,-39.8514 35.34405,-79.82823 53.9157,-119.339849 34.17637,-3.185847 68.37608,-6.1543 102.62835,-8.39868 0.71347,37.535279 -4.89984,119.623949 -4.89984,119.623949 0,0 -83.4112,37.99705 -112.94064,51.98514 30.95221,14.1697 62.69338,26.80462 93.34256,41.46427 -0.34006,15.12358 -10.90936,37.60431 -16.78927,52.04706 -16.33632,40.12671 -67.60727,78.93494 -67.60727,78.93494 0,0 -31.37137,-77.16026 -47.24547,-113.47808 z m 139.48791,13.5477 c 5.35035,-12.57214 8.1268,-25.96945 10.53339,-39.35578 -25.85145,-11.73601 -52.00943,-22.79079 -78.24687,-33.63037 31.16929,-12.97084 62.32229,-26.02256 93.11767,-39.85635 7.75565,-49.48718 8.76324,-99.68364 8.83689,-149.688046 -47.73671,2.935008 -89.07705,6.504965 -132.4074,9.817447 C 291.77562,98.047849 261.07438,161.77581 261.07438,161.77581 247.59067,134.12401 234.35473,89.646556 218.24019,69.111749 177.33832,69.283497 87.016582,60.821015 87.016582,60.821015 84.198191,111.9013 92.776278,160.60609 97.191195,208.38795 c 0,0 64.271905,28.84354 89.241095,41.47003 -23.51324,10.90377 -47.41312,20.9258 -71.16371,31.28867 7.22705,28.98667 19.99886,56.74417 34.01349,83.14185 17.55159,28.99433 69.10599,76.47419 69.10599,76.47419 0,0 34.12811,-68.78647 43.47297,-93.05723 12.24471,31.84145 26.67035,62.77489 40.61151,93.89454 43.81958,-21.66547 82.39183,-80.98488 99.02379,-118.87365 z M 124.19444,360.98711 C 84.823022,284.35645 73.476114,197.30994 67.698851,112.4083 67.146926,87.321723 66.715849,62.232938 66.336421,37.14321 115.50736,40.349955 164.3056,48.687634 213.68795,48.37967 302.24113,51.227336 378.17919,43.510629 456.95875,36.401915 456.82899,135.8505 453.93098,237.91999 419.11758,332.24044 386.13875,408.0385 321.5781,458.88157 256.7564,476.2505 209.55137,463.60195 147.83465,406.11875 124.19444,360.98711 z"
     id="path2989"
     style="fill:#ffffff" />
</svg>
