<?xml version="1.0" encoding="UTF-8" standalone="no"?>
<!-- Created with Inkscape (http://www.inkscape.org/) -->

<svg
   xmlns:dc="http://purl.org/dc/elements/1.1/"
   xmlns:cc="http://creativecommons.org/ns#"
   xmlns:rdf="http://www.w3.org/1999/02/22-rdf-syntax-ns#"
   xmlns:svg="http://www.w3.org/2000/svg"
   xmlns="http://www.w3.org/2000/svg"
   version="1.1"
   width="512"
   height="512"
   id="svg2">
  <metadata
     id="metadata8">
    <rdf:RDF>
      <cc:Work
         rdf:about="">
        <dc:format>image/svg+xml</dc:format>
        <dc:type
           rdf:resource="http://purl.org/dc/dcmitype/StillImage" />
        <dc:title></dc:title>
      </cc:Work>
    </rdf:RDF>
  </metadata>
  <defs
     id="defs6" />
  <path
     d="m 0,-7.6293945e-6 512,0 L 512,511.99999 l -512,0 z"
     id="rect3056"
     style="fill:#000000;fill-opacity:1;fill-rule:nonzero;stroke:none" />
  <path
     d="M 449.75756,63.262824 426.02637,39.531637 419.51319,45.98693 C 415.93093,49.537341 413,52.901706 413,53.463297 c 0,0.56159 10.45876,11.486945 23.2417,24.278567 l 23.2417,23.257496 7.00267,-7.002675 7.00268,-7.002674 -23.73119,-23.731187 z M 310.99262,80.859532 C 322.06216,69.232274 330.75477,59.366673 330.30953,58.935973 329.40971,58.065541 247.20805,16 246.40693,16 c -0.76946,0 42.99382,85.95261 43.77616,85.97791 0.3757,0.0122 9.73999,-9.491121 20.80953,-21.118378 z m -73.21464,77.296208 11.27797,-11.97476 -40.60821,-20.67692 c -22.33452,-11.3723 -40.76112,-20.52401 -40.94801,-20.33713 -0.18688,0.18689 9.18673,18.95644 20.83024,41.71013 L 209.5,188.2474 218,179.18894 c 4.675,-4.98215 13.57509,-14.44709 19.77798,-21.0332 z m 237.6213,65.74699 C 463.50355,200.58123 453.70659,181.42182 453.62826,181.32626 453.27731,180.89811 410.5,221.46753 410.5,222.22852 c 0,0.81365 85.71268,44.86122 86.26394,44.33086 0.14517,-0.13966 -9.46893,-19.33516 -21.36466,-42.65665 z m -328.14919,29.9512 c 9.76245,-10.25534 17.7438,-19.03034 17.73633,-19.5 -0.0162,-1.0192 -74.951169,-39.72251 -75.617729,-39.05595 -0.567903,0.5679 38.934349,77.744 39.631399,77.42842 0.27505,-0.12452 8.48755,-8.61713 18.25,-18.87247 z m 243.21164,56.47213 c -9.74572,-19.15433 -19.26047,-37.64205 -21.14389,-41.08382 l -3.4244,-6.25776 -20.98358,19.6709 c -11.54096,10.819 -20.62949,20.00914 -20.19672,20.42254 1.26586,1.20919 82.75249,42.78414 83.12747,42.41212 0.18733,-0.18586 -7.63316,-16.00965 -17.37888,-35.16398 z m -8.50169,-138.21888 c 13.37809,-5.08327 22.1662,-18.90601 20.74913,-32.6361 -1.19375,-11.56636 -8.18226,-21.45516 -18.62269,-26.35126 -8.13409,-3.81454 -19.28698,-3.74906 -27.24702,0.15996 -6.21832,3.0537 -11.51471,8.30846 -15.04338,14.92516 -1.92525,3.61008 -2.29055,5.81013 -2.29055,13.79506 0,8.03387 0.36317,10.19448 2.35326,14 4.2398,8.10751 11.80999,14.52145 20.14121,17.06487 4.80991,1.46841 14.84183,0.98708 19.96004,-0.95769 z M 356,189.72418 c -17.16955,-5.87511 -28.51222,-17.75723 -33.52426,-35.11866 -2.29371,-7.94531 -1.63369,-21.89549 1.40789,-29.75731 8.77161,-22.67261 32.4439,-36.270494 55.61637,-31.947265 33.78334,6.302872 51.37641,43.759805 34.70668,73.893025 -3.5543,6.42496 -13.6863,16.4019 -19.80621,19.5031 -11.89488,6.02759 -26.88985,7.36584 -38.40047,3.42711 z m -55.27656,63.4417 c 9.92387,-5.12103 15.37812,-13.67842 16.04009,-25.16588 0.5537,-9.60877 -1.95189,-16.7724 -8.01033,-22.902 -5.14053,-5.20091 -9.6543,-7.62593 -16.51564,-8.87301 -21.47554,-3.90331 -39.40731,15.16585 -34.71931,36.92151 2.02868,9.41451 10.77503,18.80236 20.47528,21.97704 4.75548,1.55636 18.15696,0.40214 22.72991,-1.95766 z M 272.7977,272.0692 c -8.0445,-2.57214 -14.02837,-6.33038 -20.42019,-12.82515 -9.20105,-9.34924 -13.3836,-19.72234 -13.36669,-33.1506 0.0175,-13.91378 4.38847,-24.65274 13.90918,-34.17345 15.32274,-15.32274 37.48747,-18.42552 57.75627,-8.08515 5.48882,2.80018 15.87258,13.34055 18.76024,19.04318 7.6649,15.13685 7.54144,31.48389 -0.35468,46.96156 -2.7848,5.45868 -12.78356,15.45744 -18.24224,18.24224 -12.22854,6.23854 -26.36658,7.72042 -38.04189,3.98737 z m -57.07345,63.27579 c 17.13561,-8.09144 20.62977,-31.12141 6.81745,-44.93373 -6.51417,-6.51417 -12.95617,-8.86567 -22.42547,-8.18589 -13.16053,0.94476 -22.1166,8.88967 -25.11789,22.28205 -3.15272,14.06803 7.41492,30.02447 21.92783,33.10958 7.00743,1.48962 12.14757,0.86836 18.79808,-2.27201 z M 197,355.90773 C 171.65942,352.68514 153.5619,328.81214 157.08006,303.24811 160.15428,280.90991 179.49713,264 201.97505,264 228.43825,264 249,284.59665 249,311.10476 c 0,27.27319 -24.41696,48.31073 -52,44.80297 z m 140,-90.36675 c 73.975,-69.12196 134.61293,-125.98464 134.75096,-126.36151 0.13802,-0.37686 -21.79809,-22.73081 -48.74692,-49.675427 l -48.99787,-48.990217 -5.86416,5.993087 C 354.06738,60.890954 114.46292,314.4184 114.12614,315.28319 c -0.20563,0.52799 18.00896,19.34692 40.47685,41.81983 l 40.85073,40.85983 3.52314,-3.37279 C 200.91459,392.73503 263.025,334.66294 337,265.54098 z M 317.83333,423.0178 c -1.0459,-3.08187 -39.44964,-76.98563 -40.01279,-77.00021 -0.77852,-0.0202 -39.2052,35.72901 -39.54205,36.78681 -0.20712,0.65045 77.24107,40.92553 79.05484,41.11058 0.45834,0.0468 0.68334,-0.35697 0.5,-0.89718 z M 116.00054,444.49946 166.49366,393.99892 142.74739,370.25265 119.00112,346.50638 69.000559,396.49944 19,446.4925 19,470.74625 19,495 l 23.253713,0 23.253713,0 50.493114,-50.50054 z"
     id="path2989"
     style="fill:#ffffff" />
</svg>
