<?xml version="1.0" encoding="UTF-8" standalone="no"?>
<!-- Created with Inkscape (http://www.inkscape.org/) -->

<svg
   xmlns:dc="http://purl.org/dc/elements/1.1/"
   xmlns:cc="http://creativecommons.org/ns#"
   xmlns:rdf="http://www.w3.org/1999/02/22-rdf-syntax-ns#"
   xmlns:svg="http://www.w3.org/2000/svg"
   xmlns="http://www.w3.org/2000/svg"
   version="1.1"
   width="512"
   height="512"
   id="svg2">
  <metadata
     id="metadata8">
    <rdf:RDF>
      <cc:Work
         rdf:about="">
        <dc:format>image/svg+xml</dc:format>
        <dc:type
           rdf:resource="http://purl.org/dc/dcmitype/StillImage" />
        <dc:title></dc:title>
      </cc:Work>
    </rdf:RDF>
  </metadata>
  <defs
     id="defs6" />
  <path
     d="m 0,0 512,0 0,512 -512,0 z"
     id="rect3026"
     style="fill:#000000;fill-opacity:1;fill-rule:nonzero;stroke:none" />
  <path
     d="m 308.28604,273.60959 c -6.156,-2.01205 -12.21506,-5.85978 -16.97502,-10.77977 C 287.10178,258.47907 280,247.59293 280,245.49145 c 0,-0.61941 2.3625,-1.84064 5.25,-2.71384 20.64755,-6.24395 42.49244,-6.6853 61.28897,-1.23828 4.90492,1.42139 9.07047,2.73678 9.25677,2.92308 1.01253,1.01252 -5.60705,11.33171 -10.89592,16.98553 -7.93253,8.4799 -16.08211,12.66846 -25.64089,13.17839 -4.02281,0.21461 -8.46481,-0.19698 -10.97289,-1.01674 z m -122.95719,-0.54338 c -10.04224,-3.61524 -18.31338,-10.98875 -25.21774,-22.48099 -1.8639,-3.10242 -3.19848,-5.83118 -2.96575,-6.06391 1.45533,-1.45533 19.93858,-5.6491 28.10464,-6.37682 14.82319,-1.32098 33.89932,1.06386 46.03216,5.75479 2.77906,1.07448 2.7803,1.0793 1.115,4.3382 -10.67657,20.89343 -29.87242,31.01932 -47.06831,24.82873 z m 91.05204,112.83504 c 22.96654,-5.53121 46.01796,-22.75614 63.46792,-47.42573 15.94851,-22.54694 30.87918,-62.44473 33.78997,-90.2937 l 0.6321,-6.04752 -6.83703,-8.81715 C 350.14789,211.02487 324.21322,189.73 293.47103,172.58651 c -10.84598,-6.04829 -38.92263,-18.57787 -41.64185,-18.58322 -3.32332,-0.007 -36.10497,20.03805 -56.32918,34.44291 -22.02831,15.68985 -48.207,39.25381 -55.69797,50.13485 l -2.69797,3.91895 1.97006,11.5 c 7.62901,44.53333 24.96187,80.37199 51.0614,105.57818 25.50681,24.63377 55.38953,33.75432 86.24537,26.32307 z M 215.79887,489.25 C 206.69382,468.54357 186.25136,438.74878 149.41785,392.5 112.13352,345.68516 101.09857,328.31243 95.924738,308.28378 92.470183,294.91071 94.700633,280.7351 103.012,263.24074 c 9.29724,-19.5695 20.78846,-35.23852 39.41194,-53.74074 23.20379,-23.0527 52.75399,-44.50724 93.544,-67.91639 l 13.46794,-7.72917 10.03206,3.70218 c 55.8131,20.59699 104.42779,56.68281 131.27462,97.44282 6.82908,10.3682 16.29999,29.19595 19.1154,38.00056 7.07158,22.11492 5.75368,36.71378 -5.02546,55.66884 -9.1714,16.12786 -19.02285,28.29108 -62.10081,76.67356 -20.64766,23.19017 -35.06832,41.10319 -44.99031,55.88594 C 290.18209,472.49091 280,490.62949 280,492.83318 280,493.64705 283.12807,494 290.34107,494 l 10.34107,0 2.85679,-5.25 c 8.98689,-16.51549 26.90208,-40.21991 50.3846,-66.66619 46.12013,-51.94103 51.85324,-58.82094 62.6075,-75.13087 26.51375,-40.21083 30.48668,-87.71075 12.00308,-143.50783 C 412.71858,155.70219 385.24005,112.1171 346.56507,73.429833 313.81359,40.667954 284.40496,22.628709 257.77008,18.963003 214.90284,13.06327 148.60829,58.21679 106.49082,122 80.242383,161.75094 66.599633,202.02492 65.276938,243.66514 c -0.927757,29.20701 2.559386,48.56571 13.908756,77.21376 9.773921,24.67131 20.412393,40.70765 58.791036,88.6211 24.66019,30.78677 40.29732,52.47999 50.53856,70.11157 3.15901,5.43864 6.37077,10.90093 7.13724,12.13843 1.30082,2.10023 2.0872,2.25 11.81429,2.25 l 10.42072,0 -2.08867,-4.75 z"
     id="path2989"
     style="fill:#ffffff" />
</svg>
