<?xml version="1.0" encoding="UTF-8" standalone="no"?>
<!-- Created with Inkscape (http://www.inkscape.org/) -->

<svg
   xmlns:dc="http://purl.org/dc/elements/1.1/"
   xmlns:cc="http://creativecommons.org/ns#"
   xmlns:rdf="http://www.w3.org/1999/02/22-rdf-syntax-ns#"
   xmlns:svg="http://www.w3.org/2000/svg"
   xmlns="http://www.w3.org/2000/svg"
   xmlns:sodipodi="http://sodipodi.sourceforge.net/DTD/sodipodi-0.dtd"
   xmlns:inkscape="http://www.inkscape.org/namespaces/inkscape"
   id="svg2"
   version="1.1"
   inkscape:version="0.48.3.1 r9886"
   width="400"
   height="400"
   sodipodi:docname="Icon.5_74.svg">
  <metadata
     id="metadata8">
    <rdf:RDF>
      <cc:Work
         rdf:about="">
        <dc:format>image/svg+xml</dc:format>
        <dc:type
           rdf:resource="http://purl.org/dc/dcmitype/StillImage" />
        <dc:title></dc:title>
      </cc:Work>
    </rdf:RDF>
  </metadata>
  <defs
     id="defs6" />
  <sodipodi:namedview
     pagecolor="#ffffff"
     bordercolor="#666666"
     borderopacity="1"
     objecttolerance="10"
     gridtolerance="10"
     guidetolerance="10"
     inkscape:pageopacity="0"
     inkscape:pageshadow="2"
     inkscape:window-width="1216"
     inkscape:window-height="1000"
     id="namedview4"
     showgrid="false"
     inkscape:zoom="1.668772"
     inkscape:cx="281.90185"
     inkscape:cy="165.13769"
     inkscape:window-x="64"
     inkscape:window-y="24"
     inkscape:window-maximized="1"
     inkscape:current-layer="svg2" />
  <rect
     style="fill:#000000;fill-opacity:1;stroke:none"
     id="rect3285"
     width="400"
     height="400"
     x="0"
     y="-1.5258789e-05" />
  <path
     id="path3186"
     style="fill:#ffffff"
     d="M 354.42638,227.5 C 411.8518,111.49221 294.27026,-9.7083591 175.5,43.066453 c -4.37246,1.942873 -18.40684,9.9738 -18.94154,10.838956 -0.25127,0.406559 4.58279,-0.945592 10.74235,-3.00478 114.60176,-38.312265 222.90541,73.474001 179.84807,185.631271 -4.32192,11.25789 -0.28798,6.25148 7.2775,-9.0319 z m -52.66481,23.75 C 326.12089,218.0387 330.15758,173.06034 312.01521,137 281.56254,76.471362 204.94965,57.612425 149.25,96.933912 c -9.06594,6.400148 -9.06594,6.770798 0,2.602887 C 243.97107,55.9904 344.39285,157.30437 299.55143,251.17356 297.75788,254.9281 296.40749,258 296.55056,258 c 0.14307,0 2.48802,-3.0375 5.21101,-6.75 z m -84.97648,26.15936 C 271.65534,266.0756 297.77724,202.04769 266.63961,155.21 238.58812,113.01454 178.97314,107.30971 143.5,143.42622 c -55.339002,56.34265 -4.12588,149.97282 73.28509,133.98314 z m -21.11947,47.52165 C 216.18113,322.64339 238.5101,313.32804 253,301.01185 l 2.5,-2.12496 -4,1.94444 C 155.48017,347.50746 51.155503,244.74676 98.078961,149.71027 c 3.558999,-7.20823 2.463339,-6.6256 -3.649368,1.9406 -54.959199,77.01842 7.393557,183.7442 101.236027,173.28014 z M 187.5,369.3782 c 16.41272,-2.72803 35.90711,-10.36304 50.5,-19.7784 6.69711,-4.32098 6.44592,-4.38593 -2.6411,-0.68286 C 122.1724,395.04187 5.6144411,278.53407 50.461254,164.09887 c 3.103644,-7.91954 1.853969,-7.03942 -3.764957,2.65157 C -11.459884,267.05274 72.883181,388.42914 187.5,369.3782 z" />
</svg>
