<?xml version="1.0" encoding="UTF-8" standalone="no"?>
<!-- Created with Inkscape (http://www.inkscape.org/) -->

<svg
   xmlns:dc="http://purl.org/dc/elements/1.1/"
   xmlns:cc="http://creativecommons.org/ns#"
   xmlns:rdf="http://www.w3.org/1999/02/22-rdf-syntax-ns#"
   xmlns:svg="http://www.w3.org/2000/svg"
   xmlns="http://www.w3.org/2000/svg"
   xmlns:sodipodi="http://sodipodi.sourceforge.net/DTD/sodipodi-0.dtd"
   xmlns:inkscape="http://www.inkscape.org/namespaces/inkscape"
   id="svg2"
   version="1.1"
   inkscape:version="0.48.3.1 r9886"
   width="400"
   height="400"
   sodipodi:docname="Icon.1_41.svg">
  <metadata
     id="metadata8">
    <rdf:RDF>
      <cc:Work
         rdf:about="">
        <dc:format>image/svg+xml</dc:format>
        <dc:type
           rdf:resource="http://purl.org/dc/dcmitype/StillImage" />
        <dc:title />
      </cc:Work>
    </rdf:RDF>
  </metadata>
  <defs
     id="defs6" />
  <sodipodi:namedview
     pagecolor="#ffffff"
     bordercolor="#666666"
     borderopacity="1"
     objecttolerance="10"
     gridtolerance="10"
     guidetolerance="10"
     inkscape:pageopacity="0"
     inkscape:pageshadow="2"
     inkscape:window-width="1216"
     inkscape:window-height="1000"
     id="namedview4"
     showgrid="false"
     inkscape:zoom="1.985"
     inkscape:cx="285.59891"
     inkscape:cy="188.23129"
     inkscape:window-x="64"
     inkscape:window-y="24"
     inkscape:window-maximized="1"
     inkscape:current-layer="svg2" />
  <rect
     style="fill:#000000;fill-opacity:1;stroke:none"
     id="rect3009"
     width="400"
     height="400"
     x="0"
     y="3.0198066e-14" />
  <path
     inkscape:connector-curvature="0"
     d="M 85.3264,278.9553 C 61.765141,274.29837 63.202199,246.34995 89.026211,207 113.48749,169.72656 159.2408,126.06012 202.1861,99.001504 c 14.692,-9.257011 40.60308,-22.01308 52.3139,-25.754221 29.45114,-9.408468 46.83073,-5.533916 50.59332,11.279117 1.49109,6.662888 -0.0335,15.196908 -5.02931,28.15139 l -3.12493,8.10322 -11.55081,3.73376 c -35.53237,11.48574 -77.57926,39.50996 -113.91753,75.92596 -21.96941,22.01641 -39.29601,45.01366 -49.10347,65.17405 l -4.44852,9.14447 -5.70937,1.5643 c -10.1085,2.76962 -20.860158,3.82217 -26.88298,2.63175 z m 66.74759,32.86193 C 132.08568,301.3524 150.06253,261.0232 194.42803,216.80035 226.18048,185.15 265.16093,159.20168 295,149.8521 c 10.04887,-3.14865 23.86191,-3.31697 28.89547,-0.3521 5.89601,3.47287 7.47277,6.5543 7.5426,14.74038 0.0728,8.53364 -1.77574,14.80979 -7.89605,26.80864 l -4.31062,8.45098 -9.8657,3.59595 c -27.18169,9.90747 -53.29883,27.68173 -77.9353,53.03959 -15.60383,16.06074 -25.8585,29.77807 -33.24335,44.46852 l -3.0685,6.10406 -9.80927,3.31469 c -13.43599,4.54021 -26.63005,5.25257 -33.23529,1.79442 z m 66.2791,20.25643 c -4.84273,-2.95293 -5.93991,-7.55821 -3.8411,-16.12259 6.38313,-26.04694 49.5944,-70.00773 87.33399,-88.84884 13.48365,-6.73157 19.2619,-8.46391 28.48114,-8.53872 7.60851,-0.0617 7.90875,0.0277 10.75,3.20227 2.39893,2.68036 2.92288,4.15514 2.92288,8.22717 0,11.50052 -12.14363,33.604 -19.82957,36.09318 -19.15786,6.2045 -49.34582,30.87453 -62.4746,51.05512 -5.49593,8.44795 -5.78469,8.70863 -12.90876,11.65353 -10.04441,4.1521 -14.31201,5.19377 -21.28707,5.19591 -4.15802,0.001 -6.96609,-0.58725 -9.14691,-1.91703 z m 50.12855,11.49889 c -2.29595,-2.29595 -2.58674,-3.2169 -2.01387,-6.37799 1.79876,-9.92544 9.4879,-21.13567 24.03789,-35.04554 15.99387,-15.29025 33.75436,-25.81819 45.32484,-26.86737 5.11856,-0.46413 6.2012,-0.24995 8.04216,1.59101 4.07755,4.07755 1.70718,13.40689 -6.18742,24.35247 -5.83761,8.09365 -7.57114,9.71871 -17.06946,16.00137 -4.33631,2.86825 -10.63631,8.29727 -14,12.06449 -5.03942,5.64399 -7.69975,7.62923 -15.11578,11.27994 -5.91946,2.91399 -10.93988,4.64517 -14.66747,5.05775 -5.22877,0.57873 -5.87519,0.41957 -8.35089,-2.05613 z m 36.58253,4.00478 c -5.21179,-6.27984 19.4116,-30.77513 31.98116,-31.81479 5.26098,-0.43514 6.02185,2.17436 2.56189,8.78642 -6.88926,13.1655 -29.96257,28.5475 -34.54305,23.02837 z m 11.73757,-0.55234 C 329.72279,340.13814 344,323.87576 344,316.04496 344,311.31564 342.5526,310 337.34961,310 l -4.2504,0 5.49026,-7.25 c 7.76625,-10.25551 11.60015,-18.66494 12.17412,-26.7032 0.43456,-6.08588 0.27711,-6.73703 -2.2364,-9.24877 -2.77376,-2.77183 -9.59044,-4.53776 -13.53469,-3.50632 -2.76785,0.72381 -2.55604,0.041 2.10693,-6.79171 11.71496,-17.16621 17.86694,-35.83154 14.88683,-45.1672 -1.57264,-4.92654 -6.36758,-9.97119 -10.91417,-11.48255 -1.96465,-0.65308 -6.62405,-1.13429 -10.35421,-1.06935 l -6.78213,0.11807 1.86961,-2.69949 c 3.12281,-4.50895 9.90819,-17.36586 12.24379,-23.19948 6.53181,-16.31446 7.76346,-30.96987 3.34747,-39.83162 -4.76866,-9.56944 -12.47894,-13.37157 -27.48325,-13.55267 L 304.32675,119.5 308.55086,111 C 324.39288,79.121746 325.06404,52.776079 310.3209,41.518859 302.278,35.377643 296.16563,33.656066 282.5,33.682969 269.38679,33.708784 261.37505,35.125611 246,40.137773 148.628,71.880381 29,193.5997 29,260.93134 c 0,10.11633 1.581893,15.54619 6.475914,22.22861 6.845206,9.34662 22.556807,14.01062 39.926443,11.85218 9.441387,-1.17323 24.508655,-4.84624 32.786693,-7.99254 2.92102,-1.11022 5.60106,-2.01881 5.95564,-2.01909 0.35458,-2.7e-4 0.25281,1.687 -0.22614,3.7495 -1.26823,5.46126 -1.10788,16.8804 0.30377,21.63398 1.87195,6.30356 9.21292,13.10526 16.39896,15.1943 12.91522,3.75456 33.60411,-0.10353 58.43344,-10.89671 l 3.55471,-1.54522 -0.35086,8.68182 c -1.00825,17.21946 10.05801,20.62979 22.24143,20.5591 10.91966,-0.13402 18.8624,-2.24995 33.04696,-8.80362 l 7.24908,-3.34928 -0.89802,3.13121 c -5.35908,18.68603 11.25957,23.36026 36.59443,10.2927 4.40415,-2.27164 8.38875,-4.29887 8.85466,-4.50497 0.4659,-0.20609 0.32644,0.59814 -0.30992,1.78719 -0.63636,1.18905 -1.01755,3.59336 -0.8471,5.3429 0.62245,6.38891 7.5129,6.66716 18.61165,0.75159 z"
     style="fill:#ffffff"
     id="path2989"
     sodipodi:nodetypes="sssssscssscsssssssscssscssssssssssscssssssssssssssssssscsssssssscsssscsssssssscsssscccscssssss" />
</svg>
