<svg xmlns="http://www.w3.org/2000/svg" viewBox="0 0 512 512" style="height: 512px; width: 512px;"><g class="" transform="translate(0,0)" style="touch-action: none;"><path d="M253.844 15.563l-79.916 84.11 2.27 58.81 50.61 36.22 31.88 181.965 10.78-26.89 11.876-235.35 18.666.94-9.135 181.007 28.373-70.773 8.15-107.99.924-17.938-74.478-84.112zm138.965 50.57L346.194 116.9l-3.857 51.104 10.52-26.24 30.406-13.618 9.545-62.013zm60.31 51.205l-85.727 38.394L264.81 411.62l14.585 83.25h7.81l147.613-293.083 16.692 8.406L308.13 494.87h24.41l146.585-291.802-26.006-85.73zM112.923 136.18L58.79 235.29l69.087 259.58h93.596l-51.118-274.724 18.374-3.417 51.752 278.14h19.938l-50.7-289.417-96.796-69.273zm345.463 232.193L405.44 391.38l-49.825 99.186 69.748-36.662v-.002l33.024-85.53zm-423.15.225l42.47 126.72h30.95L80.603 389.902l-45.366-21.304zm48.732 145.408l.096.29 1.65-.29h-1.747z" fill="#fff" fill-opacity="1" stroke="#000000" stroke-opacity="1" stroke-width="4" transform="translate(512, 512) scale(-1, -1) rotate(-180, 256, 256)"></path></g></svg>