<svg xmlns="http://www.w3.org/2000/svg" viewBox="0 0 512 512" style="height: 512px; width: 512px;"><g class="" transform="translate(0,0)" style="touch-action: none;"><path d="M187.125 19.53c-.733-.008-1.454.004-2.188.032-3.91.152-7.823.84-11.656 2.157-15.33 5.26-25.474 19.04-29.843 35.218-4.368 16.177-3.47 35.265 3.125 54.25 1.056 3.038 2.25 5.988 3.532 8.843l9.72 28.22 54.686 18.844c2.874-.326 5.74-.97 8.563-1.938 15.33-5.262 25.475-19.04 29.843-35.22 4.368-16.176 3.47-35.264-3.125-54.25-6.595-18.983-17.755-34.555-31.218-44.592-9.465-7.058-20.435-11.42-31.437-11.563zm-1.28 18.657c6.724-.256 14.112 2.322 21.56 7.876 9.933 7.404 19.25 20.007 24.72 35.75 5.47 15.742 5.93 31.353 2.72 43.25-3.213 11.896-9.573 19.556-17.876 22.406-8.303 2.848-18.1.716-28.032-6.69-3.308-2.464-6.543-5.523-9.594-9.06l-16.125-29.69c-4.522-14.7-4.756-29.12-1.75-40.25 3.21-11.895 9.57-19.524 17.874-22.374 2.076-.712 4.258-1.133 6.5-1.218zm-111.595 106c-6.73.138-13.183 1.02-19.25 2.657-16.178 4.368-29.957 14.544-35.22 29.875-5.26 15.33-.66 31.786 9.376 45.25 10.037 13.46 25.61 24.653 44.594 31.25 18.985 6.595 38.072 7.46 54.25 3.093 13.807-3.73 25.866-11.66 32.375-23.438l.063.063 14.343-25.72 6.595 3.563c.026.076.036.082.063.157l57.937 31.344.03.032 251.19 136.344c14.236-41.16-36.206-109.062-143.626-146.22l-228.814-78.905c-2.875-1.29-5.845-2.498-8.906-3.56-11.865-4.124-23.785-6.01-35-5.782zm.344 18.72c1.773-.035 3.597-.006 5.437.093 6.374.345 13.134 1.512 19.94 3.594l29.81 16.187c3.54 3.057 6.598 6.288 9.064 9.595 7.405 9.932 9.537 19.73 6.687 28.03-2.85 8.304-10.51 14.664-22.405 17.876-11.896 3.213-27.507 2.752-43.25-2.718-15.743-5.47-28.345-14.818-35.75-24.75-7.405-9.93-9.506-19.728-6.656-28.03 2.85-8.304 10.478-14.664 22.374-17.876 4.46-1.204 9.43-1.896 14.75-2zm115.844 74.187c12.42 36.016 25.524 74.023 38.593 111.812 37.156 107.42 105.06 157.862 146.22 143.625L255.75 272.44l-65.313-35.344z" fill="#fff" fill-opacity="1" stroke="#000000" stroke-opacity="1" stroke-width="4" transform="translate(512, 512) scale(-1, -1) rotate(-270, 256, 256)"></path></g></svg>