<svg xmlns="http://www.w3.org/2000/svg" viewBox="0 0 512 512" style="height: 512px; width: 512px;"><g class="" transform="translate(0,0)" style="touch-action: none;"><path d="M364.563 27.5c-24.54 10.796-66.057 18.094-113.875 18.094-47.3 0-89.258-6.898-113.907-17.5C107.477 64.73 97.12 118.44 107 177c10.73 63.596 50.354 119.6 85.688 155.78 17.285-4.952 36.943-7.717 57.843-7.717 20.725 0 40.228 2.72 57.407 7.593 35.5-36.38 75.654-92.59 86.407-155.656 10.04-58.882-.233-112.842-29.78-149.5zm-187.625 80.03c10.768.263 21.255 4.955 29.937 12.282 11.577 9.77 20.607 24.33 25.25 41.657 4.643 17.326 4.078 34.437-1.063 48.686-5.14 14.25-15.398 26.053-29.78 29.906-14.384 3.854-29.174-1.23-40.75-11-11.577-9.77-20.608-24.328-25.25-41.656-4.644-17.327-4.08-34.47 1.062-48.72 5.14-14.248 15.398-26.02 29.78-29.874 3.597-.963 7.224-1.368 10.814-1.28zm146.75 0c3.59-.086 7.216.32 10.812 1.282 14.383 3.854 24.64 15.626 29.78 29.876 5.142 14.25 5.707 31.39 1.064 48.718-4.643 17.328-13.674 31.887-25.25 41.656-11.577 9.77-26.367 14.854-40.75 11-14.383-3.853-24.64-15.657-29.78-29.906-5.142-14.25-5.707-31.36-1.064-48.687 4.643-17.33 13.673-31.888 25.25-41.657 8.682-7.328 19.17-12.02 29.938-12.282zm-148.47 18.657c-1.44.063-2.867.286-4.25.657-7.374 1.976-13.434 8.13-17.062 18.187-3.628 10.058-4.295 23.6-.562 37.532 3.733 13.933 11.08 25.324 19.25 32.22 8.17 6.894 16.47 9.194 23.844 7.218 4.996-1.34 9.37-4.6 12.812-9.688-.557.206-1.108.376-1.688.532-14.782 3.96-31.402-10.042-37.093-31.28-5.692-21.24 1.685-41.665 16.468-45.626 3.214-.862 6.526-.853 9.78-.125-.63-.595-1.265-1.178-1.905-1.72-6.128-5.17-12.326-7.766-18.157-7.905-.486-.012-.957-.02-1.437 0zm148.75 0c-5.83.14-12.028 2.736-18.156 7.907-8.17 6.895-15.516 18.255-19.25 32.187-3.733 13.934-3.065 27.476.563 37.532 3.628 10.057 9.657 16.212 17.03 18.188 7.376 1.976 15.706-.324 23.876-7.22.87-.732 1.748-1.51 2.595-2.343-3.923 1.263-7.97 1.453-11.875.407-14.783-3.96-22.13-24.386-16.438-45.625 5.692-21.24 22.28-35.244 37.063-31.282 1.253.335 2.45.812 3.594 1.375-3.514-5.533-8.07-9.064-13.314-10.47-1.843-.493-3.744-.702-5.687-.656zm-73.437 217.594c-30.047 0-57.177 6.322-76 15.94-18.82 9.616-28.155 21.615-28.155 32.686 0 2.838.615 5.752 1.844 8.656 5.233-4.285 11.252-8.117 17.81-11.468 22.253-11.37 51.873-18 84.5-18 32.63 0 62.25 6.63 84.5 18 6.547 3.344 12.56 7.163 17.783 11.437 1.22-2.894 1.843-5.794 1.843-8.624 0-11.07-9.334-23.07-28.156-32.687-18.822-9.618-45.92-15.94-75.97-15.94zm0 46.5c-30.047 0-57.177 6.322-76 15.94-18.82 9.616-28.155 21.615-28.155 32.686 0 11.07 9.334 23.07 28.156 32.688 18.823 9.617 45.953 15.97 76 15.97 30.05-.002 57.148-6.353 75.97-15.97 18.822-9.617 28.156-21.617 28.156-32.688 0-11.07-9.334-23.07-28.156-32.687-18.822-9.618-45.92-15.94-75.97-15.94zm0 28.19c15.2 0 28.952 2.186 39.75 6.186 5.4 2 10.118 4.412 14 7.813 3.884 3.4 7.25 8.417 7.25 14.467 0 6.05-3.366 11.07-7.25 14.47-3.882 3.4-8.6 5.812-14 7.812-10.798 4-24.55 6.186-39.75 6.186-15.197 0-28.98-2.187-39.78-6.187-5.4-2-10.086-4.413-13.97-7.814-3.882-3.4-7.25-8.418-7.25-14.47 0-6.05 3.368-11.067 7.25-14.467 3.884-3.402 8.57-5.814 13.97-7.814 10.8-4 24.583-6.187 39.78-6.187zm0 18.686c-13.327 0-25.384 2.107-33.28 5.03-3.948 1.464-6.812 3.168-8.156 4.345-.292.256-.263.258-.406.408.143.15.114.15.406.406 1.344 1.177 4.208 2.913 8.156 4.375 7.896 2.923 19.953 5 33.28 5 13.33 0 25.387-2.077 33.282-5 3.948-1.463 6.812-3.2 8.157-4.376.29-.255.26-.257.405-.406-.144-.15-.115-.152-.406-.407-1.346-1.176-4.21-2.88-8.158-4.342-7.895-2.925-19.953-5.032-33.28-5.032z" fill="#fff" fill-opacity="1" stroke="#000000" stroke-opacity="1" stroke-width="4" transform="translate(512, 512) scale(-1, -1) rotate(-180, 256, 256)"></path></g></svg>