<?xml version="1.0" encoding="UTF-8" standalone="no"?>
<!-- Created with Inkscape (http://www.inkscape.org/) -->

<svg
   xmlns:dc="http://purl.org/dc/elements/1.1/"
   xmlns:cc="http://creativecommons.org/ns#"
   xmlns:rdf="http://www.w3.org/1999/02/22-rdf-syntax-ns#"
   xmlns:svg="http://www.w3.org/2000/svg"
   xmlns="http://www.w3.org/2000/svg"
   version="1.1"
   width="512"
   height="512"
   id="svg2">
  <metadata
     id="metadata8">
    <rdf:RDF>
      <cc:Work
         rdf:about="">
        <dc:format>image/svg+xml</dc:format>
        <dc:type
           rdf:resource="http://purl.org/dc/dcmitype/StillImage" />
        <dc:title></dc:title>
      </cc:Work>
    </rdf:RDF>
  </metadata>
  <defs
     id="defs6" />
  <rect
     width="512"
     height="512"
     x="0"
     y="0"
     id="rect2989"
     style="fill:#000000;fill-opacity:1;stroke:none" />
  <path
     d="M 339.046,446.44977 C 289.02895,390.20986 236.72076,340.49856 154.96731,271.50986 137.76732,256.99544 114.15132,236.70378 102.4873,226.41729 L 81.28,207.7146 65.259386,191.21729 C 49.382559,174.86807 37.12,160.19099 37.12,157.53723 l 0,-1.37723 3.52,0.009 c 1.936,0.005 8.188474,1.12827 13.894387,2.49629 l 10.374387,2.48734 12.977384,5.17018 12.977384,5.17016 15.688228,8.44926 15.68823,8.44927 18.37263,12.22411 c 34.13931,22.71435 65.94581,49.20486 98.75003,82.24538 l 19.84266,19.98559 13.51145,15.93672 c 18.26006,21.5377 31.40635,39.15699 45.49746,60.97788 l 11.79598,18.26675 7.6559,15.06605 c 10.91413,21.47791 23.41352,53.13308 21.66903,54.87758 -0.3344,0.33439 -9.46451,-9.3504 -20.28914,-21.52177 z M 429.30266,409.92 C 384.68783,355.10515 339.66712,310.99551 230.4,215.04251 186.65146,176.62469 152.91868,145.24366 135.78344,127.0223 121.43014,111.75922 104.9238,91.783944 100.72763,84.599246 L 98.415268,80.64 l 4.150592,0 c 6.36537,0 19.67529,3.681115 33.07699,9.148087 l 12.12286,4.945288 16.03714,9.137565 c 91.71404,52.25634 200.10063,162.71695 250.66041,255.45692 12.92226,23.70282 29.7324,64.35214 26.61221,64.35214 -0.31532,0 -5.61308,-6.192 -11.77281,-13.76 z m 36.53402,-81.88289 C 454.18452,311.90349 431.45751,283.60884 414.65738,264.32 L 400.16433,247.68 365.52216,213.0266 330.88,178.37318 294.4,145.24045 c -20.064,-18.223 -46.03913,-42.66097 -57.7225,-54.306589 L 215.435,69.76 207.4767,58.980182 c -4.37706,-5.9289 -8.82842,-12.462428 -9.89188,-14.518952 l -1.93358,-3.739132 0.71228,-0.712283 0.71228,-0.712284 9.13193,1.508106 c 12.7887,2.112009 22.4149,5.528017 40.41758,14.342812 l 15.5853,7.631158 11.9347,7.821541 C 351.752,121.46159 429.8564,218.24851 464.04517,305.92494 c 7.13005,18.28488 11.45655,31.80001 10.48947,32.76709 -0.32021,0.32021 -4.23429,-4.47451 -8.69796,-10.65492 z"
     id="path2987"
     style="fill:#ffffff" />
</svg>
