<?xml version="1.0" encoding="UTF-8" standalone="no"?>
<!-- Created with Inkscape (http://www.inkscape.org/) -->

<svg
   xmlns:dc="http://purl.org/dc/elements/1.1/"
   xmlns:cc="http://creativecommons.org/ns#"
   xmlns:rdf="http://www.w3.org/1999/02/22-rdf-syntax-ns#"
   xmlns:svg="http://www.w3.org/2000/svg"
   xmlns="http://www.w3.org/2000/svg"
   xmlns:sodipodi="http://sodipodi.sourceforge.net/DTD/sodipodi-0.dtd"
   xmlns:inkscape="http://www.inkscape.org/namespaces/inkscape"
   id="svg2"
   version="1.1"
   inkscape:version="0.48.3.1 r9886"
   width="400"
   height="400"
   sodipodi:docname="Icon.3_31.svg">
  <metadata
     id="metadata8">
    <rdf:RDF>
      <cc:Work
         rdf:about="">
        <dc:format>image/svg+xml</dc:format>
        <dc:type
           rdf:resource="http://purl.org/dc/dcmitype/StillImage" />
        <dc:title />
      </cc:Work>
    </rdf:RDF>
  </metadata>
  <defs
     id="defs6" />
  <sodipodi:namedview
     pagecolor="#ffffff"
     bordercolor="#666666"
     borderopacity="1"
     objecttolerance="10"
     gridtolerance="10"
     guidetolerance="10"
     inkscape:pageopacity="0"
     inkscape:pageshadow="2"
     inkscape:window-width="1216"
     inkscape:window-height="1000"
     id="namedview4"
     showgrid="false"
     inkscape:zoom="7.98"
     inkscape:cx="195.62857"
     inkscape:cy="121.00136"
     inkscape:window-x="64"
     inkscape:window-y="24"
     inkscape:window-maximized="1"
     inkscape:current-layer="svg2" />
  <path
     style="fill:#000000;fill-opacity:1;stroke:none"
     d="m 0,0 400,0 0,400 -400,0 z"
     id="rect3020" />
  <path
     id="path2989"
     style="fill:#ffffff"
     d="m 134.43672,295.47537 c 3.0598,-0.88951 5.56328,-1.77152 5.56328,-1.96002 0,-0.18851 -4.3875,-2.70231 -9.75,-5.58623 C 111.60504,277.90197 89.544007,262.42291 75.82734,249.74364 L 70.15468,244.5 72.482497,227 c 2.675285,-20.11218 3.781141,-26.78267 6.631332,-40 2.455962,-11.38916 7.427675,-30.44903 9.402759,-36.04702 2.065098,-5.85311 0.298343,-4.0746 -5.889315,5.92849 -19.357637,31.29393 -30.26939,65.99635 -31.359027,99.73045 l -0.520427,16.11192 9.931972,6.61198 C 72.140869,286.96577 84.688313,293.08311 94,295.58065 c 12.744,3.41814 28.45732,3.37723 40.43672,-0.10528 z m 156.99153,-120.1842 c 0.16669,-0.22303 10.79955,4.6033 11.3465,5.15025 l -53.48118,122.12259 c -0.44332,2.0083 -0.23081,2.04088 7.87541,1.20726 8.64315,-0.88885 27.58269,-5.44376 34.03319,-8.1849 8.15909,-3.46721 30.88843,-36.94063 44.87439,-66.08637 11.89942,-24.79754 21.56363,-57.0966 20.65134,-69.01949 -1.25895,-16.45342 -15.16825,-29.02925 -35.11584,-31.74932 l -8.80803,-1.20107 -3.3559,-7.07188 c -4.46298,-9.40483 -10.06053,-15.61502 -16.61675,-18.43543 -4.37895,-1.88378 -6.51816,-2.182135 -12.96853,-1.80873 -6.62274,0.38339 -9.07433,1.09972 -17.18733,5.02203 l -9.46277,4.57485 -0.70046,-6.5408 C 251.35667,92.479158 249.43892,87.641424 243.92537,81.608718 232.43672,69.038312 214.48726,68.633296 195.4249,80.514342 c -4.17108,2.599723 -7.91717,4.335019 -8.32464,3.856213 -0.40747,-0.478805 -2.04129,-4.011438 -3.63072,-7.850296 -5.40546,-13.05554 -13.03075,-18.677316 -25.43899,-18.754994 -11.51958,-0.07211 -23.37518,7.054242 -27.95909,16.806105 -3.22136,6.853143 -19.56735,50.86252 -25.60151,68.92863 -9.295591,27.83071 -15.27387,53.87804 -19.001379,82.7889 -1.382066,10.71942 -1.432025,13.05388 -0.308729,14.42641 2.01,2.45597 19.359128,16.10191 27.615218,21.72074 4.43483,3.01819 7.60176,4.57235 8.15085,4 l 48.40873,-141.10403 c 0.59953,-0.59953 10.92971,3.19357 11.29396,4.14699 L 133,273.63505 c 0,1.58287 30.26302,14.92181 44.60946,20.70597 18.24722,-49.02973 55.25622,-146.25417 55.25622,-146.25417 l 11.43281,5.28658 c 0,0 -53.22399,144.10107 -52.62101,144.70405 1.70737,1.70737 30.97551,6.12157 41.71368,6.56344 z"
     inkscape:connector-curvature="0"
     sodipodi:nodetypes="sssscssssscssscccssssscsssscssssssssssscccccccccc" />
</svg>
