<?xml version="1.0" encoding="UTF-8" standalone="no"?>
<!-- Created with Inkscape (http://www.inkscape.org/) -->

<svg
   xmlns:dc="http://purl.org/dc/elements/1.1/"
   xmlns:cc="http://creativecommons.org/ns#"
   xmlns:rdf="http://www.w3.org/1999/02/22-rdf-syntax-ns#"
   xmlns:svg="http://www.w3.org/2000/svg"
   xmlns="http://www.w3.org/2000/svg"
   version="1.1"
   width="512"
   height="512"
   id="svg2">
  <metadata
     id="metadata8">
    <rdf:RDF>
      <cc:Work
         rdf:about="">
        <dc:format>image/svg+xml</dc:format>
        <dc:type
           rdf:resource="http://purl.org/dc/dcmitype/StillImage" />
        <dc:title></dc:title>
      </cc:Work>
    </rdf:RDF>
  </metadata>
  <defs
     id="defs6" />
  <path
     d="m 0,0 512,0 0,512 -512,0 z"
     id="rect3020"
     style="fill:#000000;fill-opacity:1;stroke:none" />
  <path
     d="m 172.079,378.20847 c 3.91655,-1.13857 7.121,-2.26754 7.121,-2.50882 0,-0.24129 -5.616,-3.45896 -12.48,-7.15038 -23.86555,-12.83475 -52.10367,-32.64795 -69.661005,-48.87741 L 89.79799,312.96 l 2.979606,-22.4 c 3.424365,-25.74359 4.839861,-34.28182 8.488104,-51.2 3.14363,-14.57812 9.50743,-38.97476 12.03553,-46.14019 2.64333,-7.49198 0.38188,-5.21548 -7.53832,7.58847 -24.777776,40.05623 -38.74482,84.47533 -40.139555,127.65498 l -0.666147,20.62326 12.712924,8.46333 c 14.67018,9.76634 30.730908,17.59653 42.649868,20.79338 16.31232,4.37522 36.42537,4.32286 51.759,-0.13476 z M 373.02816,224.3727 c 0.21336,-0.28548 13.82342,5.89222 14.52352,6.59232 l -68.45591,156.31691 c -0.56745,2.57063 -0.29544,2.61233 10.08052,1.5453 11.06324,-1.13773 35.30585,-6.96802 43.56249,-10.47668 10.44363,-4.43803 39.53719,-47.284 57.43922,-84.59055 15.23125,-31.74085 27.60144,-73.08365 26.43371,-88.34495 -1.61145,-21.06038 -19.41536,-37.15744 -44.94827,-40.63913 l -11.27428,-1.53737 -4.29555,-9.052 c -5.71262,-12.03819 -12.87748,-19.98723 -21.26944,-23.59735 -5.60506,-2.41124 -8.34325,-2.79314 -16.59972,-2.31518 -8.47711,0.49074 -11.61514,1.40764 -21.99978,6.4282 l -12.11235,5.85581 -0.89659,-8.37223 c -1.47919,-13.81248 -3.93391,-20.00478 -10.99126,-27.72664 -14.70547,-16.090121 -37.68078,-16.608541 -62.0806,-1.4008 -5.33898,3.32764 -10.13398,5.54882 -10.65554,4.93595 -0.52156,-0.61287 -2.61285,-5.13464 -4.64732,-10.048378 -6.91899,-16.711092 -16.67936,-23.906965 -32.56191,-24.006393 -14.74506,-0.0923 -29.92023,9.02943 -35.78763,21.511815 -4.12334,8.772026 -25.04621,65.104026 -32.76993,88.228646 -11.89836,35.62331 -19.55056,68.96389 -24.32177,105.96979 -1.76904,13.72086 -1.83299,16.70897 -0.39517,18.46581 2.5728,3.14364 24.77968,20.61044 35.34748,27.80254 5.67658,3.86329 9.73025,5.85261 10.43308,5.12 l 61.96318,-180.61315 c 0.7674,-0.7674 13.99003,4.08776 14.45627,5.30814 L 170.24,350.25286 c 0,2.02608 38.73667,19.09992 57.10011,26.50365 23.35644,-62.75806 70.72796,-187.20534 70.72796,-187.20534 l 14.634,6.76682 c 0,0 -68.12671,184.44937 -67.3549,185.22118 2.18544,2.18544 39.64866,7.83561 53.39351,8.40121 z"
     id="path2989"
     style="fill:#ffffff" />
</svg>
