<?xml version="1.0" encoding="UTF-8" standalone="no"?>
<!-- Created with Inkscape (http://www.inkscape.org/) -->

<svg
   xmlns:dc="http://purl.org/dc/elements/1.1/"
   xmlns:cc="http://creativecommons.org/ns#"
   xmlns:rdf="http://www.w3.org/1999/02/22-rdf-syntax-ns#"
   xmlns:svg="http://www.w3.org/2000/svg"
   xmlns="http://www.w3.org/2000/svg"
   version="1.1"
   width="512"
   height="512"
   id="svg2">
  <metadata
     id="metadata8">
    <rdf:RDF>
      <cc:Work
         rdf:about="">
        <dc:format>image/svg+xml</dc:format>
        <dc:type
           rdf:resource="http://purl.org/dc/dcmitype/StillImage" />
        <dc:title></dc:title>
      </cc:Work>
    </rdf:RDF>
  </metadata>
  <defs
     id="defs6" />
  <path
     d="m 0,0 512,0 0,512 -512,0 z"
     id="rect3038"
     style="fill:#000000;fill-opacity:1;fill-rule:nonzero;stroke:none" />
  <path
     d="m 284.67338,131.75 c -0.32447,-2.3375 -1.12656,-19.48123 -1.78241,-38.097184 -0.92295,-26.197351 -0.92315,-38.373881 -9e-4,-53.875852 0.65536,-11.015767 0.96934,-20.250885 0.69774,-20.522484 -1.82282,-1.822828 -23.3963,19.012831 -30.28114,29.24552 -12.62281,18.760839 -22.45665,48.044253 -26.78132,79.75 l -0.6479,4.75 6.81128,0.0978 c 5.67687,0.0815 46.68649,2.29163 51.19294,2.75894 1.06262,0.11019 1.24544,-0.83812 0.79171,-4.10673 z m -115.92306,15.20284 c 14.67254,-1.67594 26.8163,-3.18612 26.98613,-3.35596 0.16984,-0.16984 -0.35057,-4.76111 -1.15647,-10.20284 C 190.3756,105.00441 186.01967,54.881892 186.00725,34.75 186.00311,28.045153 185.59428,23 185.05509,23 183.71314,23 171.0475,37.566332 166.27939,44.593303 152.73214,64.558474 143.70062,94.81718 141.53367,127.5 c -0.3282,4.95 -0.85321,12.0375 -1.16669,15.75 -0.39795,4.71287 -0.22652,6.75 0.56802,6.75 0.62589,0 13.14278,-1.37122 27.81532,-3.04716 z m 209.634,16.79716 c 0.31723,-5.6375 0.83071,-16.775 1.14107,-24.75 0.76773,-19.72795 3.13516,-54.071194 5.0795,-73.685993 0.88244,-8.902296 1.44485,-16.618736 1.24978,-17.147646 -0.41507,-1.12542 -11.32775,11.230076 -22.05783,24.974208 C 345.39185,96.715456 329.86086,124.45017 322.15677,147.5 317.06385,162.73747 314.2432,160.36516 346,167.5533 c 15.125,3.42354 28.4692,6.27459 29.65377,6.33566 2.03707,0.10502 2.18502,-0.44433 2.73055,-10.13896 z m -264.12597,16.35544 c 0.41708,-0.39717 -2.14467,-12.17087 -5.69279,-26.16379 C 101.46571,125.94158 95.164166,96.016574 92.468642,77.5 91.507857,70.9 90.570616,65.323752 90.385884,65.108337 89.914616,64.558795 86.647492,68.487502 81.852387,75.369839 71.121951,90.771061 63.29031,113.66138 60.955452,136.44741 c -1.227628,11.9805 -0.937374,54.15479 0.38746,56.29842 0.639699,1.03505 51.250288,-11.05475 52.915438,-12.64039 z m 133.85923,85.92128 c 11.21033,-1.0853 23.19492,-2.24612 26.63242,-2.57959 3.76077,-0.36484 6.25022,-1.07246 6.25055,-1.77672 3e-4,-0.64373 -0.6848,-13.77041 -1.52245,-29.17041 -0.83765,-15.4 -1.87985,-39.35446 -2.31601,-53.23213 -0.43615,-13.87767 -0.99148,-25.43059 -1.23405,-25.67316 -0.9059,-0.9059 -45.13008,-2.79134 -45.92647,-1.95801 -1.04202,1.09036 -3.69006,25.92829 -4.99622,46.8633 -1.87903,30.11693 -1.02226,69.5 1.51197,69.5 0.66981,0 10.38992,-0.88798 21.60026,-1.97328 z m -65.26244,6.37025 c 11.06015,-1.01793 19.52514,-2.23471 19.7518,-2.83917 0.43736,-1.16633 -10.12584,-106.44946 -10.73039,-106.94947 -0.2071,-0.17129 -10.38905,0.8327 -22.62655,2.23111 l -22.25,2.54255 0.001,20.05901 c 0.001,20.69432 1.92625,51.05578 4.56874,72.059 2.09041,16.61515 1.72836,15.85923 7.2876,15.21573 2.55335,-0.29556 13.35226,-1.339 23.99759,-2.31876 z m -82.37085,8.70627 c 2.19136,-0.58927 9.84136,-1.58788 17,-2.21913 7.15864,-0.63125 13.41515,-1.51035 13.90335,-1.95356 0.9214,-0.83648 -16.98207,-74.67914 -18.51666,-76.37172 -1.17485,-1.29581 -39.943336,8.52027 -40.633585,10.28831 -1.174299,3.00792 8.211055,49.46537 13.91235,68.86605 l 2.119745,7.21319 4.115255,-2.37587 c 2.26339,-1.30672 5.908185,-2.858 8.099545,-3.44727 z m 262.4768,-39.22274 c 2.67559,-27.70928 4.5664,-50.66399 4.20181,-51.01049 -0.98299,-0.93419 -44.0903,-10.27595 -44.68301,-9.68323 -2.23778,2.23778 -17.39719,81.79666 -15.93479,83.62818 0.13832,0.17323 3.10976,0.97443 6.60319,1.78044 13.65822,3.15126 35.23754,16.2272 42.06666,25.4902 1.53921,2.08778 2.38238,2.62224 2.58324,1.63742 0.16401,-0.80411 2.48731,-24.13325 5.1629,-51.84252 z M 468.6042,366.50996 c 11.58434,-13.11323 20.45246,-29.05583 24.56178,-44.15578 2.96417,-10.89202 3.19999,-36.57992 0.45996,-50.10418 -1.03073,-5.0875 -2.19989,-9.25 -2.59812,-9.25 -0.39824,0 -1.57991,1.90857 -2.62595,4.24127 -7.52677,16.78507 -23.45887,33.2661 -49.90187,51.62121 -4.95,3.43599 -9,6.5686 -9,6.96135 0,1.07928 31.8963,47.06692 32.68542,47.12538 0.37699,0.0279 3.26544,-2.86973 6.41878,-6.43925 z M 388,415.77272 c 18.71598,-7.86792 35.91213,-18.73745 52.39842,-33.12058 l 3.89842,-3.4011 -12.39842,-17.81638 c -6.81913,-9.79901 -12.68821,-18.24235 -13.04239,-18.76298 -0.37218,-0.54708 -3.83959,0.38374 -8.21554,2.20545 -4.16436,1.73363 -12.78616,4.65098 -19.15957,6.483 l -11.588,3.33094 -0.36416,18.90446 c -0.33169,17.21922 -2.89119,39.97345 -5.16205,45.89121 -0.83502,2.17605 0.46391,1.82219 13.63329,-3.71402 z M 164.99263,490.75 c -0.004,-0.6875 -5.85406,-36.75435 -13,-80.14854 C 144.84668,367.20726 139,331.39221 139,331.01247 c 0,-0.71997 16.88559,-3.50791 17.40813,-2.87422 0.16406,0.19896 6.31797,37.14925 13.67534,82.11175 l 13.37704,81.75 16.80419,0 16.80419,0 -0.53242,-4.75 c -0.90351,-8.06076 -9.84991,-164.27112 -9.43086,-164.66925 0.21691,-0.20609 4.24566,-0.53357 8.95277,-0.72773 l 8.55838,-0.35302 4.751,82.5 c 2.61304,45.375 4.98503,83.7375 5.27107,85.25 l 0.52008,2.75 15.81438,0 15.81439,0 0.63571,-8.75 C 268.32566,470.83107 276,327.99063 276,323.61585 l 0,-3.62752 8.75,0.64467 c 4.8125,0.35456 8.91173,0.78142 9.10939,0.94856 0.34196,0.28915 -7.16601,143.29276 -8.48791,161.66844 l -0.62945,8.75 20.51398,0 20.51397,0 1.61644,-2.46699 c 9.00087,-13.73707 19.50407,-37.36826 24.97223,-56.1851 C 372.01014,365.72383 360.7915,309.20185 323.90924,290.01359 302.61483,278.93502 295.35481,278.92322 187,289.79109 c -44.275,4.44074 -81.4,8.40263 -82.5,8.80421 -7.084767,2.58646 -12.536859,11.41824 -14.448337,23.4047 -1.498713,9.39809 -1.285917,29.98309 0.436814,42.25544 4.320363,30.77729 14.830863,67.18899 28.070333,97.24456 4.97059,11.28397 7.33146,16.00652 13.12271,26.25 l 2.40279,4.25 15.45784,0 c 11.70355,0 15.45606,-0.30359 15.45048,-1.25 z"
     id="path2989"
     style="fill:#ffffff" />
</svg>
