<?xml version="1.0" encoding="UTF-8" standalone="no"?>
<!-- Created with Inkscape (http://www.inkscape.org/) -->

<svg
   xmlns:dc="http://purl.org/dc/elements/1.1/"
   xmlns:cc="http://creativecommons.org/ns#"
   xmlns:rdf="http://www.w3.org/1999/02/22-rdf-syntax-ns#"
   xmlns:svg="http://www.w3.org/2000/svg"
   xmlns="http://www.w3.org/2000/svg"
   version="1.1"
   width="512"
   height="512"
   id="svg2">
  <metadata
     id="metadata8">
    <rdf:RDF>
      <cc:Work
         rdf:about="">
        <dc:format>image/svg+xml</dc:format>
        <dc:type
           rdf:resource="http://purl.org/dc/dcmitype/StillImage" />
        <dc:title></dc:title>
      </cc:Work>
    </rdf:RDF>
  </metadata>
  <defs
     id="defs6" />
  <path
     d="m 0,0 512,0 0,512 -512,0 z"
     id="rect3020"
     style="fill:#000000" />
  <path
     d="m 254.43133,209.04218 c 1.6224,-2.94682 3.29549,-8.2765 3.71798,-11.84375 l 0.76817,-6.48593 -4.33874,0.81816 c -10.39694,1.96054 -24.16051,7.2472 -31.85874,12.23708 l -8.32,5.39293 8.33782,0.98071 c 4.5858,0.53939 11.7858,1.82461 16,2.85603 10.72182,2.62417 12.28855,2.2293 15.69351,-3.95523 z M 323.84,454.72791 C 391.55415,431.93716 444.4858,374.64781 461.96522,305.23127 480.37271,232.12913 459.67973,155.69592 407.04,102.3551 319.5281,13.677656 175.55745,17.761211 93.804024,111.23966 47.043875,164.70611 30.023978,236.58432 47.535028,306.64229 c 1.419038,5.67726 3.057327,11.09452 3.640644,12.03835 0.818204,1.32388 4.379227,-0.20943 15.582452,-6.70952 C 85.994921,300.80998 117.36661,285.52182 136,278.22793 c 22.17504,-8.68026 21.08216,-8.75809 -12.45986,-0.8875 -23.839568,5.59392 -38.570034,6.64882 -52.74266,3.77707 -5.715908,-1.15818 -12.596725,-3.02675 -15.290704,-4.15237 l -4.898142,-2.04658 3.815682,-3.1457 c 24.602663,-20.28284 53.972094,-38.87941 77.518574,-49.08438 11.72665,-5.08229 31.33746,-11.15626 39.52763,-12.24272 4.78946,-0.63534 8.61401,-2.60352 17.4897,-9.00052 13.30587,-9.58995 41.6155,-23.94714 51.64054,-26.18942 3.85041,-0.86122 10.51541,-1.6221 14.81111,-1.69083 l 7.81035,-0.12498 18.29574,-16 c 24.39254,-21.33178 51.4815,-42.86835 67.84131,-53.93601 l 13.35927,-9.037737 4.25551,8.441197 c 5.53458,10.97832 8.06595,20.97256 8.06595,31.84562 0,9.14294 -1.45367,13.72693 -4.35306,13.72693 -0.93664,0 -5.7583,2.02879 -10.71479,4.50842 -9.96232,4.98394 -22.58253,17.21518 -27.29634,26.45501 -7.55636,14.81169 -9.05935,33.07885 -3.62382,44.04339 4.52967,9.13724 10.01004,12.38412 19.87793,11.77676 9.27132,-0.57065 18.49009,-5.50627 30.0036,-16.06358 4.03076,-3.696 7.63669,-6.72 8.01321,-6.72 1.09757,0 5.87906,15.49084 6.61778,21.44 0.37152,2.992 0.96025,7.68122 1.30831,10.42047 l 0.63281,4.98046 -22.71281,21.15072 c -23.85793,22.21709 -36.85934,33.24608 -59.14514,50.17237 l -13.48768,10.24403 -0.83795,12.15597 c -1.19034,17.26785 -4.01562,29.62486 -12.29068,53.75598 -5.74069,16.74062 -7.23096,22.7125 -7.18692,28.8 0.0872,12.05742 6.26065,21.98803 20.14992,32.41331 4.26783,3.20342 4.77357,3.13375 23.84563,-3.2854 z"
     id="path2989"
     style="fill:#ffffff" />
</svg>
