<?xml version="1.0" encoding="UTF-8" standalone="no"?>
<!-- Created with Inkscape (http://www.inkscape.org/) -->

<svg
   xmlns:dc="http://purl.org/dc/elements/1.1/"
   xmlns:cc="http://creativecommons.org/ns#"
   xmlns:rdf="http://www.w3.org/1999/02/22-rdf-syntax-ns#"
   xmlns:svg="http://www.w3.org/2000/svg"
   xmlns="http://www.w3.org/2000/svg"
   xmlns:sodipodi="http://sodipodi.sourceforge.net/DTD/sodipodi-0.dtd"
   xmlns:inkscape="http://www.inkscape.org/namespaces/inkscape"
   id="svg2"
   version="1.1"
   inkscape:version="0.48.3.1 r9886"
   width="400"
   height="400"
   sodipodi:docname="Icon.2_11.png">
  <metadata
     id="metadata8">
    <rdf:RDF>
      <cc:Work
         rdf:about="">
        <dc:format>image/svg+xml</dc:format>
        <dc:type
           rdf:resource="http://purl.org/dc/dcmitype/StillImage" />
        <dc:title></dc:title>
      </cc:Work>
    </rdf:RDF>
  </metadata>
  <defs
     id="defs6" />
  <sodipodi:namedview
     pagecolor="#ffffff"
     bordercolor="#666666"
     borderopacity="1"
     objecttolerance="10"
     gridtolerance="10"
     guidetolerance="10"
     inkscape:pageopacity="0"
     inkscape:pageshadow="2"
     inkscape:window-width="1855"
     inkscape:window-height="1056"
     id="namedview4"
     showgrid="false"
     inkscape:zoom="0.59"
     inkscape:cx="200"
     inkscape:cy="200"
     inkscape:window-x="65"
     inkscape:window-y="24"
     inkscape:window-maximized="1"
     inkscape:current-layer="svg2" />
  <path
     style="fill:#000000"
     d="m 0,0 400,0 0,400 -400,0 z"
     id="rect3020" />
  <path
     id="path2989"
     style="fill:#ffffff"
     d="m 198.77448,163.3142 c 1.2675,-2.3022 2.5746,-6.46601 2.90467,-9.25293 l 0.60013,-5.06713 -3.38964,0.63919 C 190.76703,151.165 180.01424,155.2952 174,159.19355 l -6.5,4.21322 6.51392,0.76618 c 3.58266,0.4214 9.20766,1.42548 12.5,2.23128 8.37642,2.05013 9.60043,1.74164 12.26056,-3.09003 z M 253,355.25618 C 305.90168,337.45091 347.25453,292.6936 360.91033,238.46193 375.29118,181.35088 359.12479,121.63744 318,79.964918 249.63133,10.685669 137.15426,13.875946 73.284394,86.905984 36.753027,128.67665 23.456233,184.8315 37.136741,239.56429 c 1.108623,4.43536 2.388536,8.66759 2.844253,9.40496 0.639222,1.03428 3.421271,-0.16362 12.17379,-5.24181 15.028748,-8.71964 39.537878,-20.66352 54.095216,-26.36187 17.32425,-6.78145 16.47044,-6.84226 -9.734262,-0.69336 -18.624666,4.37025 -30.132843,5.19439 -41.205207,2.95084 -4.465553,-0.90483 -9.841191,-2.36465 -11.945862,-3.24404 l -3.826674,-1.59889 2.981002,-2.45758 c 19.22083,-15.84597 42.165695,-30.37454 60.561383,-38.34717 9.16145,-3.97054 24.48239,-8.71583 30.88096,-9.56463 3.74177,-0.49636 6.7297,-2.034 13.66383,-7.03165 10.39521,-7.49215 32.51211,-18.70871 40.34417,-20.46049 3.00814,-0.67283 8.21517,-1.26726 11.57118,-1.32096 L 205.64236,135.5 219.93591,123 c 19.05667,-16.66545 40.21992,-33.490901 53.00102,-42.137504 l 10.43693,-7.060736 3.32462,6.594684 C 291.02237,88.973257 293,96.781258 293,105.27584 293,112.41876 291.86432,116 289.59917,116 c -0.73175,0 -4.49867,1.58499 -8.37093,3.5222 -7.78306,3.89371 -17.6426,13.44936 -21.32526,20.66798 -5.90341,11.57163 -7.07762,25.84285 -2.83111,34.4089 3.5388,7.13847 7.82034,9.67509 15.52963,9.20059 7.24322,-0.44582 14.44538,-4.30177 23.44031,-12.54967 3.14903,-2.8875 5.96617,-5.25 6.26032,-5.25 0.85748,0 4.59302,12.10222 5.17014,16.75 0.29025,2.3375 0.7502,6.00095 1.02212,8.14099 l 0.49438,3.89099 -17.74438,16.524 c -18.63901,17.3571 -28.79636,25.9735 -46.20714,39.19716 l -10.53725,8.00315 -0.65465,9.49685 c -0.92995,13.49051 -3.1372,23.14442 -9.60209,41.99686 -4.48492,13.07861 -5.64919,17.74414 -5.61478,22.5 0.0681,9.41986 4.89113,17.17815 15.74212,25.3229 3.33424,2.50267 3.72935,2.44824 18.6294,-2.56672 z" />
</svg>
