<?xml version="1.0" encoding="UTF-8" standalone="no"?>
<!-- Created with Inkscape (http://www.inkscape.org/) -->

<svg
   xmlns:dc="http://purl.org/dc/elements/1.1/"
   xmlns:cc="http://creativecommons.org/ns#"
   xmlns:rdf="http://www.w3.org/1999/02/22-rdf-syntax-ns#"
   xmlns:svg="http://www.w3.org/2000/svg"
   xmlns="http://www.w3.org/2000/svg"
   xmlns:sodipodi="http://sodipodi.sourceforge.net/DTD/sodipodi-0.dtd"
   xmlns:inkscape="http://www.inkscape.org/namespaces/inkscape"
   id="svg2"
   version="1.1"
   inkscape:version="0.48.3.1 r9886"
   width="400"
   height="400"
   sodipodi:docname="Icon.1_02.svg">
  <metadata
     id="metadata8">
    <rdf:RDF>
      <cc:Work
         rdf:about="">
        <dc:format>image/svg+xml</dc:format>
        <dc:type
           rdf:resource="http://purl.org/dc/dcmitype/StillImage" />
      </cc:Work>
    </rdf:RDF>
  </metadata>
  <defs
     id="defs6" />
  <sodipodi:namedview
     pagecolor="#ffffff"
     bordercolor="#666666"
     borderopacity="1"
     objecttolerance="10"
     gridtolerance="10"
     guidetolerance="10"
     inkscape:pageopacity="0"
     inkscape:pageshadow="2"
     inkscape:window-width="1280"
     inkscape:window-height="970"
     id="namedview4"
     showgrid="false"
     inkscape:zoom="1.18"
     inkscape:cx="138.49452"
     inkscape:cy="258.49983"
     inkscape:window-x="0"
     inkscape:window-y="26"
     inkscape:window-maximized="1"
     inkscape:current-layer="svg2"
     showborder="true"
     inkscape:showpageshadow="true" />
  <rect
     style="fill:#000000;fill-opacity:1;stroke:none"
     id="rect2983"
     width="400"
     height="400"
     x="0"
     y="-1.1368684e-13" />
  <path
     id="path2987"
     style="fill:#ffffff"
     d="M 165.22698,137.72626 184.99901,116.53851 204,136.58382 184.29986,153.92054 z M 128.2883,175.22661 145.87354,155.5 l 18.12642,17.95826 -17.47788,16.50803 z M 202.62889,172.04807 220.38995,154 243,176.10681 225.39547,192.0633 z M 167.84713,207.33773 183.00711,191.54655 202,211.56 186.20816,226.69814 z M 280.27006,371.39658 C 281.26243,370.40421 275.4424,355.7547 267.64993,339.63064 254.70397,312.8431 237.89441,287.18904 216.25,261.18617 210.0625,253.75271 205,247.3697 205,247.00169 205,246.0209 220.03464,230 220.95505,230 c 1.93515,0 68.04809,70.90577 101.39911,108.75 9.81516,11.1375 18.25077,20.25 18.74579,20.25 1.62485,0 0.95106,-2.98998 -2.61522,-11.6052 C 321.64534,306.71514 284.7569,252.22469 249.85687,216.47648 246.08559,212.61355 243,209.00299 243,208.45302 c 4.90424,-6.34564 9.51013,-10.45429 15.54297,-16.45175 l 8.56247,8.74937 c 18.18693,18.58387 55.68432,60.68412 83.29929,93.52437 14.04849,16.70674 18.67062,20.89865 17.06321,15.47499 -1.91924,-6.47582 -8.48284,-21.7898 -14.47782,-33.77915 -15.16783,-30.3341 -33.84944,-57.25931 -61.27029,-88.3069 -6.72091,-7.60982 -12.38787,-14.30144 -12.59325,-14.87027 -0.20539,-0.56882 12.82444,-14.23778 28.95516,-30.37545 16.13072,-16.13768 28.55641,-30.11341 28.55641,-30.11341 0,0 -40.1299,24.52398 -57.15241,36.70543 -7.09949,5.10531 -14.03483,9.38606 -14.03483,9.38606 l -25.39789,-24.49539 c 0,0 14.89635,-15.33293 32.01192,-32.03447 29.79324,-29.072551 32.53125,-34.603595 32.53125,-34.603595 0,0 -33.89817,20.33385 -60.37805,39.638275 -9.50503,6.92938 -20.78761,15.13758 -20.78761,15.13758 l -23.7848,-19.06441 c 0,0 15.1783,-16.688418 34.77367,-36.12857 32.05541,-31.801487 34.06066,-37.476451 34.06066,-37.476451 0,0 -47.5372,30.796488 -68.86368,46.844063 -8.73599,6.573589 -17.23842,12.471864 -17.23842,12.471864 0,0 -25.23904,-16.166932 -30.60791,-19.989427 -11.4458,-6.097342 -34.00734,-20.366721 -34.00734,-20.366721 0,0 9.47571,11.053706 24.73729,26.046802 25.87407,25.418885 24,27.48116 24,27.48116 L 143.50408,121 c 0,0 -64.56937,-43.60118 -97.374431,-64.249316 0,0 16.320351,18.835897 38.870351,40.407303 22.55,21.571403 41,39.653883 41,40.183293 0,0.93812 -19.23101,20.48939 -19.23101,20.48939 0,0 -6.944101,-4.13178 -14.510997,-9.58589 C 60.967051,125.69072 32.189097,109.2843 32.189097,109.2843 c 0,0 7.448639,9.40637 29.560903,31.1826 C 78.9375,157.39321 93,172.62595 93,172.62595 l -9.106512,12.62899 c 0,0 -29.790824,41.58515 -37.679826,56.29352 C 37.91293,257.02446 27,281.77159 27,285.11906 c 0,2.97536 4.182849,-1.01378 16.462116,-15.69975 C 70.717444,236.822 112.56445,192 112.56445,192 l 17.6149,16.93938 c 0,0 -7.42082,9.52447 -10.65935,13.49135 -21.775184,26.64969 -42.834638,61.92782 -53.912549,90.31259 -3.705965,9.49574 -4.156428,11.26789 -2.857451,11.24137 1.511997,-0.0309 3.19256,-1.85918 19.748517,-21.48469 18.235993,-21.61703 41.273503,-47.87756 56.399663,-64.29015 l 9.4836,-10.29016 c 5.45021,6.8343 14.09701,11.8749 18.61822,19.35485 0,0.44773 -4.19663,5.85662 -9.32585,12.01975 -26.99576,32.43741 -47.56011,65.76223 -60.061002,97.32969 C 93.955923,365.85927 93.266962,369 94.898301,369 c 0.494065,0 8.009339,-8.4375 16.700599,-18.75 29.71061,-35.25272 73.03267,-83.58165 74.42854,-83.03048 2.23731,0.88341 51.71985,56.55882 77.37729,87.06124 8.19759,9.74558 15.21009,17.71924 15.58333,17.71924 0.37323,0 0.95013,-0.27153 1.282,-0.60339 z"
     inkscape:connector-curvature="0"
     sodipodi:nodetypes="cccccccccccccccccccccssssssssccssssscsccccscsccscscccscccsscscsccssscccscssccssssssscc" />
</svg>
