<?xml version="1.0" encoding="UTF-8" standalone="no"?>
<!-- Created with Inkscape (http://www.inkscape.org/) -->

<svg
   xmlns:dc="http://purl.org/dc/elements/1.1/"
   xmlns:cc="http://creativecommons.org/ns#"
   xmlns:rdf="http://www.w3.org/1999/02/22-rdf-syntax-ns#"
   xmlns:svg="http://www.w3.org/2000/svg"
   xmlns="http://www.w3.org/2000/svg"
   version="1.1"
   width="512"
   height="512"
   id="svg2">
  <metadata
     id="metadata8">
    <rdf:RDF>
      <cc:Work
         rdf:about="">
        <dc:format>image/svg+xml</dc:format>
        <dc:type
           rdf:resource="http://purl.org/dc/dcmitype/StillImage" />
        <dc:title></dc:title>
      </cc:Work>
    </rdf:RDF>
  </metadata>
  <defs
     id="defs6" />
  <rect
     width="512"
     height="512"
     x="0"
     y="0"
     id="rect2983"
     style="fill:#000000;fill-opacity:1;stroke:none" />
  <path
     d="m 211.49053,176.28961 25.3082,-27.12032 24.32127,25.658 -25.21618,22.191 z m -47.28151,48.00045 22.50911,-25.25006 23.20182,22.98657 -22.37169,21.13028 z m 95.15596,-4.06853 22.73416,-23.10153 28.94086,28.29672 -22.5338,20.4243 z m -44.52065,45.17076 19.40477,-20.21271 24.3109,25.61722 -20.21356,19.37682 z m 143.90135,209.99533 c 1.27023,-1.27023 -6.17941,-20.0216 -16.15377,-40.6604 C 326.02108,400.43917 304.50484,367.60197 276.8,334.3183 c -7.92,-9.51483 -14.4,-17.68508 -14.4,-18.15614 0,-1.25541 19.24434,-21.76216 20.42246,-21.76216 2.477,0 87.10156,90.75939 129.79086,139.2 12.56341,14.256 23.36099,25.92 23.99462,25.92 2.0798,0 1.21735,-3.82717 -3.34749,-14.85466 C 411.70604,392.59538 364.48883,322.8476 319.81679,277.08989 314.98956,272.14534 311.04,267.52383 311.04,266.81987 c 6.27743,-8.12242 12.17297,-13.3815 19.895,-21.05824 l 10.95996,11.19919 c 23.27927,23.78735 71.27593,77.67567 106.62309,119.71119 17.98207,21.38463 23.8984,26.75027 21.84091,19.80799 -2.45662,-8.28905 -10.85803,-27.89094 -18.53161,-43.23731 -19.41482,-38.82765 -43.32728,-73.29192 -78.42597,-113.03283 -8.60276,-9.74057 -15.85647,-18.30585 -16.11936,-19.03395 -0.2629,-0.72809 16.41529,-18.22436 37.06261,-38.88058 20.64732,-20.65623 36.5522,-38.54516 36.5522,-38.54516 0,0 -51.36627,31.39069 -73.15508,46.98295 -9.08735,6.5348 -17.96459,12.01416 -17.96459,12.01416 l -32.50929,-31.3541 c 0,0 19.06732,-19.62615 40.97525,-41.00412 38.13535,-37.212869 41.64,-44.292606 41.64,-44.292606 0,0 -43.38965,26.027326 -77.2839,50.736996 -12.16644,8.8696 -26.60814,19.3761 -26.60814,19.3761 L 255.54653,131.8071 c 0,0 19.42823,-21.36117 44.5103,-46.244566 41.03093,-40.705903 43.59765,-47.969857 43.59765,-47.969857 0,0 -60.84762,39.419505 -88.14551,59.960401 -11.18207,8.414192 -22.06518,15.963982 -22.06518,15.963982 0,0 -32.30597,-20.693669 -39.17813,-25.586463 -14.65062,-7.804598 -43.52939,-26.069403 -43.52939,-26.069403 0,0 12.12891,14.148744 31.66373,33.339907 33.11881,32.536169 30.72,35.175889 30.72,35.175889 L 183.68522,154.88 c 0,0 -82.64879,-55.80951 -124.639269,-82.239124 0,0 20.890049,24.109948 49.754049,51.721344 28.864,27.6114 52.48,50.75697 52.48,51.43462 0,1.20079 -24.61569,26.22642 -24.61569,26.22642 0,0 -8.88845,-5.28868 -18.57408,-12.26994 -40.052405,-28.8692 -76.888186,-49.86942 -76.888186,-49.86942 0,0 9.534258,12.04016 37.837956,39.91373 22,21.66568 40,41.16359 40,41.16359 l -11.65634,16.1651 c 0,0 -38.13225,53.229 -48.230173,72.05571 C 48.52855,328.99131 34.56,360.66764 34.56,364.9524 c 0,3.80846 5.354047,-1.29764 21.071508,-20.09568 C 90.518328,303.13216 144.0825,245.76 144.0825,245.76 l 22.54707,21.68241 c 0,0 -9.49865,12.19132 -13.64397,17.26892 -27.87224,34.11161 -54.828337,79.26761 -69.008063,115.60012 -4.743635,12.15455 -5.320228,14.4229 -3.657537,14.38895 1.935356,-0.0396 4.086477,-2.37975 25.2781,-27.5004 23.34207,-27.6698 52.83009,-61.28328 72.19157,-82.29139 l 12.13901,-13.17141 c 6.97627,8.74791 18.04417,15.19988 23.83132,24.77421 0,0.5731 -5.37169,7.49647 -11.93709,15.38528 -34.55457,41.51989 -60.87694,84.17566 -76.87808,124.582 -4.68125,11.82118 -5.56312,15.84131 -3.475,15.84131 0.6324,0 10.25195,-10.8 21.37676,-24 38.02958,-45.12348 93.48182,-106.98451 95.26853,-106.27901 2.86376,1.13076 66.20141,72.39529 99.04293,111.43838 10.49292,12.47435 19.46892,22.68063 19.94667,22.68063 0.47773,0 1.21616,-0.34756 1.64096,-0.77234 z"
     id="path2987"
     style="fill:#ffffff" />
</svg>
