<svg viewBox="0 0 512 512" xmlns="http://www.w3.org/2000/svg">
<path d="m0,0h512v512h-512z"/>
<g transform="matrix(18.68858,0,0,18.68858,712.88948,-13637.14691)">
<path d="m-34.6082,739.9568c-3.7232,3.7232-3.7232,9.7666-2e-05,13.4898s9.7666,3.7232 13.4898,0 3.7231-9.7666 0-13.4898-9.7666-3.7232-13.4898,1e-05zm3.3157,1.8421c2.2996-2.2996 6.0323-2.2996 8.3319,0s2.2996,6.0323 0,8.3319-6.0323,2.2996-8.3319-1e-05-2.2996-6.0323 0-8.3319z" fill="#fff" stroke="#000"/>
<path d="m-30.1352,737.553c.3844-1.6952 1.2362-3.3055 2.5552-4.6246 3.7232-3.7232 9.7666-3.7232 13.4898,0s3.7232,9.7666 0,13.4898-9.7666,3.7232-13.4898,2e-05c-1.5321-1.5321-2.4337-3.4571-2.7049-5.4517m2.8311-.88c-.0882,1.614.4838,3.2575 1.7159,4.4896 2.2996,2.2996 6.0323,2.2996 8.3319-1e-05s2.2996-6.0323 0-8.3319-6.0323-2.2996-8.3319-1e-05c-.3086.3086-.5757.643-.8015.9962" fill="#fff" stroke="#000"/>
<path d="m-21.1185,739.9567c-3.7232-3.7232-9.7666-3.7232-13.4898,1e-05s-3.7232,9.7666-2e-05,13.4898m3.3158-3.3158c-2.2996-2.2996-2.2996-6.0323 0-8.3319s6.0323-2.2996 8.3319,0" fill="none" stroke="#000"/>
<path d="m-21.1185,739.9567c-3.7232-3.7232-9.7666-3.7232-13.4898,0s-3.7232,9.7666 0,13.4898m3.3158-3.3158c-2.2996-2.2996-2.2996-6.0323 0-8.3319s6.0323-2.2996 8.3319,0" fill="none" stroke="#000"/>
</g>
</svg>
