<svg viewBox="0 0 512 512" xmlns="http://www.w3.org/2000/svg">
<path d="m0,0h512v512h-512z"/>
<g transform="matrix(18.68858,0,0,18.68858,-2097.98882,-3482.25283)">
<path d="m135.2672,189.3037c0,7.9277-4.1662,14.3617-9.2995,14.3617s-9.2995-6.4341-9.2995-14.3617h18.5989z" fill="#fff"/>
<path d="m132.75,201.4247c0,1.1046-2.7003,2-6.0312,2s-6.0312-.8954-6.0312-2 2.7003-2 6.0312-2 6.0312.8954 6.0312,2z" stroke="#fff" stroke-width="1.0061" transform="matrix(1.45265,0,0,.68011,-58.11067,52.35682)"/>
<path d="m132.75,201.4247c0,1.1046-2.7003,2-6.0312,2s-6.0312-.8954-6.0312-2 2.7003-2 6.0312-2 6.0312.8954 6.0312,2z" fill="#fff" stroke="#fff" stroke-width="1.3272" transform="matrix(1.14899,0,0,.49413,-19.63146,111.67122)"/>
<path d="m123.1732,202.9544c1.4234,1.0239.6801,1.6863-1.085,2.0713 3.3484.603 1.9315,3.6875-1.3151,5.2275h10.3893c-3.2466-1.54-4.6635-4.6245-1.3151-5.2275-1.7651-.385-2.5084-1.0474-1.085-2.0713h-5.5892z" fill="#fff" fill-rule="evenodd"/>
<path d="m138.0138,189.2559-1.4645.4252c.2972,5.0118-1.5593,9.8685-5.2903,13.2406l.8668,1.5841c4.2335-3.8502 6.2178-9.6064 5.888-15.2499zm-24.0901.0299c-.4572,5.708 1.7668,11.2636 5.8582,15.22l.8369-1.5841c-3.9463-3.2698-5.4943-8.3227-5.2604-13.3004l-1.4346-.3355z" fill="#fff"/>
<path d="m115.1481,190.8996h21.6393v1.4346h-21.6393z" fill="#fff"/>
<path d="m125.9949,198.039c-2.9857,0-5.6303,1.2788-7.2592,3.2626l1.1419,1.1419c1.4498-1.5712 3.6416-2.5829 6.1173-2.5829 2.4386,0 4.6126.9976 6.0629,2.5285l1.1419-1.1419c-1.6335-1.9422-4.2561-3.2082-7.2048-3.2082z" fill="#fff"/>
</g>
</svg>
