<?xml version="1.0" encoding="UTF-8" standalone="no"?>
<!-- Created with Inkscape (http://www.inkscape.org/) -->

<svg
   xmlns:dc="http://purl.org/dc/elements/1.1/"
   xmlns:cc="http://creativecommons.org/ns#"
   xmlns:rdf="http://www.w3.org/1999/02/22-rdf-syntax-ns#"
   xmlns:svg="http://www.w3.org/2000/svg"
   xmlns="http://www.w3.org/2000/svg"
   xmlns:sodipodi="http://sodipodi.sourceforge.net/DTD/sodipodi-0.dtd"
   xmlns:inkscape="http://www.inkscape.org/namespaces/inkscape"
   id="svg2"
   version="1.1"
   inkscape:version="0.48.3.1 r9886"
   width="400"
   height="400"
   sodipodi:docname="8_06.png">
  <metadata
     id="metadata8">
    <rdf:RDF>
      <cc:Work
         rdf:about="">
        <dc:format>image/svg+xml</dc:format>
        <dc:type
           rdf:resource="http://purl.org/dc/dcmitype/StillImage" />
        <dc:title></dc:title>
      </cc:Work>
    </rdf:RDF>
  </metadata>
  <defs
     id="defs6" />
  <sodipodi:namedview
     pagecolor="#ffffff"
     bordercolor="#666666"
     borderopacity="1"
     objecttolerance="10"
     gridtolerance="10"
     guidetolerance="10"
     inkscape:pageopacity="0"
     inkscape:pageshadow="2"
     inkscape:window-width="1855"
     inkscape:window-height="1056"
     id="namedview4"
     showgrid="false"
     inkscape:zoom="0.59"
     inkscape:cx="200"
     inkscape:cy="200"
     inkscape:window-x="65"
     inkscape:window-y="24"
     inkscape:window-maximized="1"
     inkscape:current-layer="svg2" />
  <path
     style="fill:#000000"
     d="m 0,0 400,0 0,400 -400,0 z"
     id="rect3022" />
  <path
     id="path2989"
     style="fill:#ffffff"
     d="m 254.8943,108.19272 c 7.55548,-4.62982 9.80822,-12.093474 6.69837,-22.19272 -0.76212,-2.475 -4.14253,-11.816258 -7.51201,-20.75835 -3.36947,-8.942093 -6.81708,-19.067093 -7.66135,-22.5 C 245.57505,39.308742 244.63779,35.825 244.33653,35 c -0.30127,-0.825 -1.59359,3.087801 -2.87182,8.695114 -1.27823,5.607312 -5.31962,17.757312 -8.98086,27 -7.32314,18.486993 -8.66863,25.113097 -6.1058,30.069056 3.29732,6.37633 13.59591,11.69164 20.62195,10.64343 1.925,-0.28719 5.47743,-1.73389 7.8943,-3.21488 z m -68.49459,64.75918 c -29.17622,-1.66138 -59.08418,-10.92679 -60.20714,-18.65203 -0.78851,-5.42438 14.54242,-13.06923 33.40879,-16.65949 l 7.10136,-1.35139 1.17665,3.25397 c 2.94233,8.13686 16.86266,16.65704 27.2144,16.65704 10.89046,0 22.24386,-7.91945 25.12116,-17.52303 l 1.1725,-3.91347 6.55629,0.66653 c 20.81687,2.11629 42.42185,9.61969 46.7593,16.23948 1.48041,2.25939 1.43119,2.55881 -0.81364,4.94958 -7.10863,7.57074 -31.59188,14.67496 -54.7706,15.89258 -5.84033,0.30681 -12.64378,0.69921 -15.11878,0.87201 -2.475,0.1728 -10.39513,-0.0215 -17.60029,-0.43178 z M 231.5,370.50002 c 24.40924,-4.44063 38.55077,-13.31874 35.43798,-22.2481 -0.57299,-1.64366 -4.01955,-5.61905 -7.65903,-8.8342 C 246.7073,328.31183 229.90361,302.31635 223.13326,283.5 c -4.1258,-11.46653 -7.06201,-23.59648 -5.80553,-23.98361 9.72025,-2.99489 13.09454,-4.25262 18.17227,-6.77348 23.86478,-11.84777 43.08102,-36.72089 50.41761,-65.25955 4.15532,-16.16381 5.3398,-34.26268 2.65781,-40.61124 -1.59657,-3.77925 -7.29324,-9.5042 -12.57542,-12.63786 -10.36652,-6.14995 -30.36026,-11.52231 -51.18093,-13.75242 l -5.68092,-0.60849 -2.47455,-7.18668 C 215.30259,108.734 211.06488,97.4 207.24645,87.5 201.02301,71.364571 198.56425,63.721756 194.86063,49 c -1.318,-5.238998 -1.18579,-5.506061 -3.84827,7.773439 -2.27609,11.352285 -6.70391,26.227829 -7.80587,26.224296 -1.08201,-0.0035 -14.8974,-37.345604 -17.49517,-47.288358 C 163.57608,27.536893 162,25.340959 162,30.538442 c 0,4.971882 -5.21439,22.175878 -11.83095,39.034214 -7.83095,19.952483 -9.25248,26.431535 -6.82791,31.120154 3.94957,7.63761 13.93939,12.8633 23.13298,12.10089 3.03924,-0.25203 5.49251,-0.19622 5.45172,0.12403 -0.0408,0.32025 -0.84786,2.33381 -1.79348,4.47459 l -1.71932,3.89232 -11.78771,2.37655 c -13.4076,2.70314 -25.69784,7.13065 -33.30893,11.99941 -10.85848,6.94609 -13.36685,13.84434 -11.50025,31.62689 4.61294,43.94626 29.96581,78.88665 65.501,90.27103 7.00716,2.24488 7.17648,2.37744 6.92254,5.41932 -0.39351,4.71351 -7.86284,26.32377 -11.80244,34.14677 -9.59228,19.04772 -19.66788,32.42764 -35.18725,46.72703 -2.45722,2.26405 -3.25,3.83415 -3.25,6.43658 0,10.28031 17.90719,18.35869 49,22.10513 7.75891,0.93489 39.83733,-0.31738 48.5,-1.89333 z" />
</svg>
