<?xml version="1.0" encoding="UTF-8" standalone="no"?>
<!-- Created with Inkscape (http://www.inkscape.org/) -->

<svg
   xmlns:dc="http://purl.org/dc/elements/1.1/"
   xmlns:cc="http://creativecommons.org/ns#"
   xmlns:rdf="http://www.w3.org/1999/02/22-rdf-syntax-ns#"
   xmlns:svg="http://www.w3.org/2000/svg"
   xmlns="http://www.w3.org/2000/svg"
   xmlns:sodipodi="http://sodipodi.sourceforge.net/DTD/sodipodi-0.dtd"
   xmlns:inkscape="http://www.inkscape.org/namespaces/inkscape"
   id="svg2"
   version="1.1"
   inkscape:version="0.48.3.1 r9886"
   width="400"
   height="400"
   sodipodi:docname="Icon.6_83.png">
  <metadata
     id="metadata8">
    <rdf:RDF>
      <cc:Work
         rdf:about="">
        <dc:format>image/svg+xml</dc:format>
        <dc:type
           rdf:resource="http://purl.org/dc/dcmitype/StillImage" />
        <dc:title></dc:title>
      </cc:Work>
    </rdf:RDF>
  </metadata>
  <defs
     id="defs6" />
  <sodipodi:namedview
     pagecolor="#ffffff"
     bordercolor="#666666"
     borderopacity="1"
     objecttolerance="10"
     gridtolerance="10"
     guidetolerance="10"
     inkscape:pageopacity="0"
     inkscape:pageshadow="2"
     inkscape:window-width="1855"
     inkscape:window-height="1056"
     id="namedview4"
     showgrid="false"
     inkscape:zoom="0.59"
     inkscape:cx="200"
     inkscape:cy="200"
     inkscape:window-x="65"
     inkscape:window-y="24"
     inkscape:window-maximized="1"
     inkscape:current-layer="svg2" />
  <path
     style="fill:#000000"
     d="m 0,0 400,0 0,400 -400,0 z"
     id="rect3020" />
  <path
     id="path2989"
     style="fill:#ffffff"
     d="m 194.00428,320.31904 c -2.95699,-4.23517 -8.86589,-11.58785 -13.13089,-16.33928 l -7.75453,-8.63898 4.55582,-2.21338 c 32.03299,-15.56283 49.82705,-48.13754 45.40866,-83.1274 -1.0423,-8.25416 -5.64207,-26.70132 -7.05255,-28.28394 -0.38426,-0.43116 -1.25984,3.16884 -1.94572,8 -5.24128,36.91836 -20.71384,60.75727 -45.08507,69.46358 -6.88503,2.45959 -22.17668,3.43347 -31.34499,1.99628 -7.3691,-1.15515 -7.08747,-0.97484 -32.15501,-20.58693 C 75.326178,216.98189 58.040601,198.61157 49.900148,181.5 44.090041,169.28691 41.778186,154.19325 43.638637,140.61978 l 0.638636,-4.65936 4.754518,7.99372 c 16.177729,27.19946 44.922182,50.07984 73.686369,58.65385 11.58007,3.45177 26.49289,3.67509 36.28184,0.54331 16.67495,-5.33483 26,-16.81472 26,-32.00811 0,-10.8245 -5.76174,-22.61293 -16.74071,-34.25121 -3.60017,-3.81637 -6.71213,-6.77247 -6.91547,-6.56913 -0.20335,0.20335 0.70248,2.80139 2.01296,5.77343 6.53949,14.831 5.8291,28.38451 -1.89246,36.10607 -12.77378,12.77378 -38.67924,2.99788 -62.268484,-23.49813 C 86.763505,134.73992 77.620387,117.84419 72.99668,100.29035 L 70.944692,92.5 73.722346,90.199079 C 78.634192,86.130262 89.304317,80.15871 96.5,77.451531 c 20.12361,-7.570961 38.81761,-7.014672 56.45426,1.679946 6.67413,3.290252 10.27726,5.978723 17.11211,12.768177 10.42975,10.360486 15.66814,18.949976 23.4894,38.516016 3.09651,7.74638 5.7564,14.21502 5.91088,14.37475 0.15447,0.15973 2.21161,-4.56527 4.57142,-10.5 11.04772,-27.78408 21.2374,-42.507155 35.00121,-50.573288 6.34036,-3.7157 16.24935,-6.079966 22.41936,-5.349219 7.43949,0.881098 16.62734,5.821619 22.05675,11.860426 5.70963,6.350489 7.89593,10.541021 9.46453,18.140931 2.21988,10.75542 -0.65748,20.36717 -8.15626,27.24572 -11.95925,10.97009 -33.02777,11.87314 -52.12257,2.23412 -3.24691,-1.63903 -6.12897,-2.75456 -6.40458,-2.47895 -1.09998,1.09998 4.48419,10.28387 9.02058,14.83551 26.19549,26.2835 75.741,12.78226 86.8733,-23.67314 4.109,-13.45592 2.21448,-30.005144 -4.57334,-39.949538 l -1.99108,-2.917009 3.43702,1.917009 C 320.95334,86.637346 327.04198,92 332.59329,97.5 c 9.01296,8.92965 10.64795,11.12387 15.27529,20.5 6.00977,12.17726 8.09563,20.80476 8.09928,33.5 0.006,21.087 -8.80477,39.21731 -29.32888,60.35101 -7.62854,7.85512 -25.622,23.49931 -26.27598,22.84533 -0.21647,-0.21648 -1.07575,-3.01256 -1.90949,-6.21352 -4.84789,-18.61231 -21.37768,-34.78853 -43.57595,-42.64387 -4.33266,-1.53321 -7.87449,-2.46169 -7.87073,-2.0633 0.004,0.39839 1.61755,1.82143 3.5862,3.16231 9.13757,6.22376 19.23558,20.82963 22.81062,32.99354 3.1717,10.79156 1.42157,28.78237 -3.67091,37.73589 -0.67801,1.19206 -6.15356,6.0362 -12.16788,10.76476 -23.53383,18.50264 -39.37307,34.04064 -51.03853,50.06785 -3.20256,4.4 -6.12048,8.34185 -6.48426,8.75968 -0.36378,0.41782 -3.08079,-2.70547 -6.03779,-6.94064 z m 12.06994,26.61542 c 7.31655,-14.35094 15.2074,-25.32979 26.62981,-37.0511 l 8.39691,-8.61664 7.19953,-0.65413 c 12.27579,-1.11534 24.06813,-5.86658 32.39154,-13.05086 6.03049,-5.20517 12.76915,-15.89825 15.81765,-25.09986 1.84152,-5.55845 3.44565,-8.5656 5.31406,-9.96187 8.08348,-6.04083 26.77335,-22.27406 34.06433,-29.58686 32.0794,-32.17535 41.77009,-64.79889 29.73122,-100.08963 C 355.63185,93.546393 329.88416,69.757434 298.5,60.810291 287.99962,57.816793 265.16097,57.518636 255,60.2424 234.66838,65.692527 216.6386,79.887646 203.92035,100.45819 201.21416,104.8352 199,107.92195 199,107.31763 199,105.55169 187.54503,88.925443 182.82506,83.840604 172.89983,73.14813 160.48569,65.40398 145.95693,60.841636 139.51988,58.820264 136.44846,58.500664 123.5,58.504851 c -12.63473,0.0041 -16.24493,0.36467 -22.89503,2.286729 C 72.60909,68.88314 50.232164,87.360057 37.982206,112.5 c -5.698143,11.694 -7.908444,19.58822 -8.959677,32 -2.453143,28.96398 8.769138,53.46071 37.115416,81.01795 6.79913,6.60987 13.998697,13.26199 15.999037,14.78249 3.360788,2.55459 3.689906,3.27466 4.333901,9.48205 0.825158,7.95358 4.553891,19.69727 8.264368,26.02872 3.742229,6.38563 12.107989,14.29723 18.945959,17.91742 10.07706,5.33504 15.49703,6.54141 30.13389,6.70715 l 13.31511,0.15077 8.04685,7.95672 c 11.24398,11.11805 19.74105,22.82677 27.36391,37.70673 3.59244,7.0125 6.72299,12.75 6.95679,12.75 0.23379,0 3.1932,-5.42949 6.57646,-12.06554 z" />
</svg>
