<?xml version="1.0" encoding="UTF-8" standalone="no"?>
<!-- Created with Inkscape (http://www.inkscape.org/) -->

<svg
   xmlns:dc="http://purl.org/dc/elements/1.1/"
   xmlns:cc="http://creativecommons.org/ns#"
   xmlns:rdf="http://www.w3.org/1999/02/22-rdf-syntax-ns#"
   xmlns:svg="http://www.w3.org/2000/svg"
   xmlns="http://www.w3.org/2000/svg"
   xmlns:sodipodi="http://sodipodi.sourceforge.net/DTD/sodipodi-0.dtd"
   xmlns:inkscape="http://www.inkscape.org/namespaces/inkscape"
   id="svg2"
   version="1.1"
   inkscape:version="0.48.3.1 r9886"
   width="400"
   height="400"
   sodipodi:docname="Icon.3_44.png">
  <metadata
     id="metadata8">
    <rdf:RDF>
      <cc:Work
         rdf:about="">
        <dc:format>image/svg+xml</dc:format>
        <dc:type
           rdf:resource="http://purl.org/dc/dcmitype/StillImage" />
        <dc:title></dc:title>
      </cc:Work>
    </rdf:RDF>
  </metadata>
  <defs
     id="defs6" />
  <sodipodi:namedview
     pagecolor="#ffffff"
     bordercolor="#666666"
     borderopacity="1"
     objecttolerance="10"
     gridtolerance="10"
     guidetolerance="10"
     inkscape:pageopacity="0"
     inkscape:pageshadow="2"
     inkscape:window-width="1855"
     inkscape:window-height="1056"
     id="namedview4"
     showgrid="false"
     inkscape:zoom="0.59"
     inkscape:cx="200"
     inkscape:cy="200"
     inkscape:window-x="65"
     inkscape:window-y="24"
     inkscape:window-maximized="1"
     inkscape:current-layer="svg2" />
  <path
     style="fill:#000000"
     d="m 0,0 400,0 0,400 -400,0 z"
     id="rect3028" />
  <path
     id="path2989"
     style="fill:#ffffff"
     d="m 236.02984,180.1962 c 57.60599,-36.03173 70.35616,-48.03714 69.07148,-65.0369 -0.0557,-0.73738 -2.01382,1.49318 -4.35132,4.95679 -7.09581,10.51431 -21.41193,19.92147 -46.25,30.39101 -6.05,2.55015 -23.92462,9.75818 -39.72139,16.01784 -15.79676,6.25966 -29.9065,12.00214 -31.35496,12.76107 -2.55284,1.33757 -2.14752,1.56584 13.22139,7.44599 8.72023,3.33636 16.54339,6.11153 17.3848,6.16705 0.84141,0.0555 10.74141,-5.66076 22,-12.70285 z m 54.98149,27.0163 c 29.14282,-17.97611 38.09652,-24.40262 50.37918,-36.15966 C 356.699,156.39947 363.4307,142.44895 363.37161,125.5 363.25078,90.836995 336.80934,58.292818 295,41.348079 249.03427,22.718813 200.03365,28.097597 183.12245,53.628847 c -3.28097,4.953362 -7.85639,17.970551 -6.71697,19.109968 0.34791,0.347907 2.3115,-0.379241 4.36354,-1.615884 C 196.17333,61.83966 207.5741,58.771929 227,58.683055 c 24.72385,-0.113112 46.6304,6.295812 64,18.723675 8.80698,6.301354 19.55592,17.789025 23.17918,24.77219 2.98751,5.75789 3.28155,7.12296 3.30027,15.32108 0.0181,7.90654 -0.32776,9.70935 -2.84629,14.83848 -7.74471,15.77256 -22.52517,27.78739 -73.97229,60.13109 l -10.83914,6.81433 13.33914,5.67985 c 7.33652,3.12391 16.48913,7.3129 20.33913,9.30886 3.85,1.99596 7.6801,3.65116 8.51133,3.67821 0.83123,0.0271 9.38123,-4.80519 19,-10.73832 z M 256,335.06538 c 0,-24.62198 -8.15918,-42.25645 -29.45721,-63.666 C 214.40691,259.19996 204.85212,251.41935 180,233.4989 150.84588,212.47635 139.94041,203.29242 130.8958,192.14628 120.82054,179.73002 116.71484,169.58106 116.67759,157 c -0.0588,-19.8479 7.34657,-31.03177 26.82241,-40.50848 11.64824,-5.66789 23.22286,-8.54155 37,-9.18607 13.38285,-0.62607 27.15779,1.8678 36.47845,6.60422 3.34475,1.69968 6.52549,3.09033 7.0683,3.09033 1.66905,0 -3.93712,-9.92575 -8.24707,-14.60149 -9.48184,-10.286591 -22.64053,-15.34871 -41.95267,-16.139106 -15.46935,-0.633121 -25.68397,0.742026 -39.75849,5.352499 -30.30881,9.928427 -52.227142,30.114587 -58.61235,53.980297 -3.540395,13.23278 -1.243585,30.08313 5.562721,40.81042 9.425085,14.8547 24.558919,26.3722 66.461109,50.57974 44.25317,25.56574 64.60153,40.29418 79.85371,57.79928 11.8273,13.57433 21.17537,29.80806 25.31804,43.96697 1.00554,3.43674 2.16575,6.24924 2.57825,6.25 0.4125,7.7e-4 0.75,-4.46919 0.75,-9.93323 z M 366.5634,362.25 C 362.95876,312.79287 339.18449,275.06809 292.5,244.72694 272.5388,231.75377 246.56308,219.4179 208.76623,204.96177 162.92784,187.42998 147.60045,180.9003 137.15377,174.45385 l -4.34623,-2.68198 1.24423,2.36407 c 6.82265,12.96323 19.1938,24.28681 53.94823,49.37999 50.26826,36.29439 68.67739,56.69853 77.62148,86.03341 2.45878,8.06431 2.73271,10.48556 2.76627,24.45066 0.033,13.74344 -0.26134,16.5766 -2.59741,25 -1.44905,5.225 -2.94282,10.2875 -3.31948,11.25 -0.64696,1.6532 2.23256,1.75 52.05916,1.75 l 52.744,0 -0.71062,-9.75 z m -195.26998,-8 c 0.56521,-17.82592 1.50619,-23.80538 5.86202,-37.25 2.53792,-7.83351 9.54775,-22.15324 14.29602,-29.20402 1.90165,-2.8238 3.24899,-5.47164 2.99409,-5.88409 -0.71296,-1.15358 -22.86169,-15.91816 -32.87937,-21.91774 l -8.93381,-5.35045 -11.4784,11.88986 c -22.57384,23.38305 -37.3235,46.98889 -45.222888,72.37621 C 93.149496,347.84932 90,363.35514 90,368.11008 L 90,372 l 40.36531,0 40.3653,0 0.56281,-17.75 z m -94.290394,14 c 0.004,-5.01151 3.354609,-21.84194 6.320721,-31.75 8.330161,-27.82624 23.366443,-52.46676 47.184153,-77.32246 l 10.60159,-11.06361 -6.72214,-3.80697 c -3.69717,-2.09383 -12.59114,-7.4726 -19.76436,-11.95283 l -13.04223,-8.14587 -7.375526,6.10082 c -17.304802,14.31404 -32.497593,33.33843 -41.634816,52.13506 -9.844251,20.25109 -13.545492,35.93561 -14.305724,60.62248 -0.29753,9.66165 -0.221423,20.12415 0.169128,23.25 L 39.143913,372 58.071956,372 77,372 l 0.003,-3.75 z" />
</svg>
