<?xml version="1.0" encoding="UTF-8" standalone="no"?>
<!-- Created with Inkscape (http://www.inkscape.org/) -->

<svg
   xmlns:dc="http://purl.org/dc/elements/1.1/"
   xmlns:cc="http://creativecommons.org/ns#"
   xmlns:rdf="http://www.w3.org/1999/02/22-rdf-syntax-ns#"
   xmlns:svg="http://www.w3.org/2000/svg"
   xmlns="http://www.w3.org/2000/svg"
   version="1.1"
   width="512"
   height="512"
   id="svg2">
  <metadata
     id="metadata8">
    <rdf:RDF>
      <cc:Work
         rdf:about="">
        <dc:format>image/svg+xml</dc:format>
        <dc:type
           rdf:resource="http://purl.org/dc/dcmitype/StillImage" />
        <dc:title></dc:title>
      </cc:Work>
    </rdf:RDF>
  </metadata>
  <defs
     id="defs6" />
  <path
     d="m 0,0 512,0 0,512 -512,0 z"
     id="rect3062"
     style="fill:#000000;fill-opacity:1;stroke:none" />
  <path
     d="m 323.25326,89.753016 c 10.78628,-3.191558 17.59021,-5.685874 17.33779,-6.356023 -0.40484,-1.074803 -24.17423,-36.047672 -25.66029,-37.755021 -0.84097,-0.966197 -36.91531,9.424527 -36.92472,10.635664 -0.009,1.139727 26.01447,38.721824 26.81496,38.72538 0.37344,0.0017 8.66796,-2.360843 18.43226,-5.25 z m -58.45361,17.635004 c 10.2852,-3.08658 19.27577,-5.9242 19.97906,-6.30581 0.90091,-0.48885 -2.46992,-6.14306 -11.4094,-19.138026 -6.97847,-10.1443 -12.69138,-19.013204 -12.69538,-19.708674 -0.004,-0.695469 -0.71975,-1.05604 -1.5906,-0.801269 -17.41278,5.09429 -39.86245,11.940822 -40.77662,12.435751 -1.44396,0.781748 24.51227,39.112028 26.49294,39.122888 0.71483,0.004 9.71483,-2.51827 20,-5.60486 z M 361.25,145.80879 c 9.76251,-2.88938 17.75,-5.64976 17.75,-6.13417 0,-0.64069 -24.32113,-36.80116 -26.59412,-39.53995 -0.2332,-0.28098 -29.8067,8.20175 -36.12423,10.36171 -0.73602,0.25165 4.2124,8.34979 12.49999,20.45632 7.54511,11.02188 13.94336,20.05547 14.21836,20.07465 0.275,0.0192 8.4875,-2.32915 18.25,-5.21856 z m -232.5215,6.85622 c 9.47569,-2.90877 17.50589,-5.56607 17.84493,-5.90511 0.80143,-0.80144 -24.3579,-37.73996 -26.18194,-38.43991 -1.13749,-0.4365 -35.067069,9.13696 -36.24514,10.22681 -0.429105,0.39697 26.14508,39.38466 26.85365,39.39769 0.275,0.005 8.25283,-2.3707 17.7285,-5.27948 z m 195.81162,4.08334 c 0.52393,-0.63949 -26.81546,-39.28517 -27.97837,-39.5489 -1.26956,-0.28792 -37.7174,10.29536 -40.32276,11.70844 C 254.30845,129.95496 267.6688,149 270.33388,149 c 4.77841,0 17.89998,4.45807 26.16472,8.88952 l 8.92507,4.7855 9.45648,-2.83915 c 5.20107,-1.56155 9.54805,-2.95093 9.65997,-3.08752 z M 71.751868,169.82694 c 14.729258,-4.47257 20.190005,-6.53603 19.823628,-7.4908 -0.278119,-0.72476 -5.961451,-9.21794 -12.629625,-18.87371 -6.668174,-9.65579 -11.893751,-18.15587 -11.612393,-18.88908 0.352322,-0.91813 -2.966181,-0.27648 -10.66096,2.06136 -6.144885,1.86693 -16.010018,4.8283 -21.922519,6.58078 C 28.8375,134.96797 24,136.74525 24,137.165 24,138.26237 50.033414,176 50.790437,176 c 0.347672,0 9.780316,-2.77787 20.961431,-6.17306 z m 326.057062,30.16101 c 9.18009,-2.75662 17.23689,-5.21111 17.90403,-5.4544 C 416.84315,194.12138 391.68988,156 390.28773,156 c -1.4086,0 -34.86146,10.26001 -35.54363,10.90125 -0.80957,0.761 24.20789,38.01246 25.56484,38.06652 0.44492,0.0177 8.31992,-2.22319 17.49999,-4.97982 z m -230.30894,8.55362 c 8.8,-2.61262 16.56101,-5.05782 17.24667,-5.43378 1.43653,-0.78768 -25.08153,-40.10056 -27.06154,-40.11857 -3.34465,-0.0303 -35.70279,10.52234 -35.3204,11.51884 1.37099,3.57273 27.0701,39.54224 28.0061,39.19847 0.62104,-0.2281 8.32917,-2.55233 17.12917,-5.16496 z m 194.0771,2.18857 c 0.25767,-0.29065 -23.94948,-35.50253 -25.41329,-36.96634 -0.77682,-0.77682 -2.93331,-0.58166 -7.63475,0.69096 -3.60367,0.97547 -6.74943,2.09281 -6.99057,2.48297 -0.24114,0.39017 1.14517,2.9263 3.08068,5.63582 6.18271,8.65525 11.08086,20.22543 13.78241,32.55617 l 0.57615,2.6297 11.19767,-3.39957 c 6.15872,-1.86978 11.28948,-3.50313 11.4017,-3.62971 z m -251.45176,15.13643 c 11.20607,-3.37339 20.50474,-6.24094 20.66371,-6.37237 0.2066,-0.1708 -25.43482,-38.0372 -27.25369,-40.24737 C 103.03404,178.63768 62,191.52474 62,192.29134 c 0,1.14266 26.327491,39.66455 27.125332,39.68928 0.343933,0.0102 9.793933,-2.74066 20.999998,-6.11405 z m 326.44258,30.02579 c 9.31265,-2.8092 17.2665,-5.41611 17.67523,-5.79313 0.60387,-0.55703 -23.2755,-36.53159 -26.1714,-39.42749 -0.78668,-0.78668 -34.7554,8.75408 -36.29122,10.1931 C 391.013,221.58397 417.64014,261 418.89345,261 c 0.40831,0 8.36182,-2.29844 17.67446,-5.10764 z m -232.06792,6.64921 c 8.8,-2.61262 16.57218,-5.06407 17.2715,-5.44767 1.60914,-0.88267 -23.5554,-38.05386 -25.77149,-38.06772 -1.1959,-0.006 -12.3054,3.2222 -35.30006,10.26226 -0.44004,0.13472 5.13339,8.92469 12.3854,19.53328 7.252,10.60859 13.68702,19.10423 14.30006,18.87921 0.61303,-0.22503 8.31459,-2.54673 17.11459,-5.15936 z m 175.11403,10.49903 c 10.80096,-3.27767 19.82092,-6.14221 20.04434,-6.36562 0.62826,-0.62826 -25.87883,-38.82235 -27.32943,-39.37901 -1.40674,-0.5398 -31.12856,8.08075 -32.37861,9.39115 -0.42651,0.44708 -1.06743,3.73788 -1.42429,7.31288 l -0.64885,6.50001 9.81142,14.24286 c 5.39626,7.83357 10.36848,14.24607 11.04935,14.25 0.68088,0.004 10.07511,-2.6746 20.87607,-5.95227 z m -232.53492,6.85116 c 11.2315,-3.35954 20.56907,-6.24521 20.75016,-6.41259 0.78211,-0.72295 -26.16887,-38.56403 -27.19371,-38.18194 -0.62455,0.23286 -10.02199,3.07374 -20.8832,6.31307 -13.12558,3.91468 -19.59784,6.29181 -19.30091,7.08881 0.71517,1.91964 24.98864,37.20744 25.62766,37.25646 0.31851,0.0245 9.76852,-2.70428 21,-6.06381 z m 157.83195,12.98302 c 4.83708,-3.07879 7.79036,-5.57433 7.39643,-6.25 -0.36066,-0.61864 -2.37651,-3.68627 -4.47964,-6.81698 -2.10313,-3.13072 -3.39997,-5.95419 -2.88188,-6.2744 2.78597,-1.72183 11.29633,-16.54212 13.67768,-23.81889 2.2856,-6.98417 2.68823,-9.93694 2.68823,-19.71451 0,-9.77757 -0.40263,-12.73034 -2.68823,-19.71451 C 309.91295,183.66797 285.34783,166 257.05014,166 c -16.7995,0 -32.52368,6.48395 -44.54288,18.36753 -3.96764,3.92286 -7.70955,8.07737 -8.31535,9.23224 -0.97592,1.86042 2.69736,7.61684 32.2249,50.50001 32.8392,47.69268 33.37275,48.39642 36.4981,48.14054 1.74443,-0.14282 6.05304,-1.56614 9.57468,-3.16293 l 6.40299,-2.90325 3.80371,5.90418 c 2.09204,3.2473 3.88445,5.90812 3.98313,5.91292 0.0987,0.005 3.80292,-2.2976 8.23163,-5.11646 z m 168.70172,17.04728 c 9.28798,-2.79286 17.23345,-5.41158 17.65661,-5.81938 0.55349,-0.53339 -21.60718,-34.39307 -24.86942,-37.99839 C 465.76113,265.39827 430,276.41674 430,277.31959 430,278.60786 455.08166,315 455.96954,315 c 0.4158,0 8.35526,-2.28507 17.64323,-5.07794 z m -241.96811,12.00796 c 25.64608,-7.74387 29.49946,-9.11209 29.03937,-10.31105 -0.9775,-2.54728 -25.837,-38.13162 -26.89971,-38.5047 -0.60431,-0.21216 -9.11474,2.01609 -18.91205,4.95165 l -17.8133,5.33741 1.72051,2.68352 c 2.29127,3.57373 25.68036,37.82073 25.86518,37.87257 0.0796,0.0223 3.22957,-0.89091 7,-2.0294 z m 185.21373,5.10882 c 10.64712,-3.25726 19.57028,-6.13417 19.82926,-6.39316 0.25897,-0.25897 -5.40867,-9.00492 -12.59476,-19.43543 l -13.06564,-18.96455 -19.76362,5.9721 c -10.87,3.28466 -20.3358,6.29019 -21.03512,6.67894 -1.61097,0.89554 23.55587,38.0685 25.77149,38.06604 0.825,-9.2e-4 10.21128,-2.66669 20.85839,-5.92394 z m -230.06491,8.43708 c 14.63008,-4.40331 19.16378,-6.14491 18.75683,-7.2054 -1.45439,-3.79008 -26.90118,-39.3529 -27.89894,-38.9898 -0.63326,0.23045 -10.03848,3.07406 -20.9005,6.31914 -11.5109,3.43892 -19.58359,6.34449 -19.35229,6.96536 0.21826,0.58587 6.35362,9.73497 13.63416,20.33132 9.60354,13.97737 13.68064,19.14534 14.85229,18.82617 0.88823,-0.24195 10.29704,-3.05301 20.90845,-6.24679 z m 167.68742,30.36597 c 9.3621,-5.93699 14.19136,-9.5697 13.73031,-10.32832 C 359.84637,341.75025 331.47228,298 330.91095,298 c -0.42394,0 -6.98982,3.97181 -14.59087,8.82625 -8.88677,5.67557 -13.77462,9.39898 -13.69274,10.4307 0.15492,1.95204 35.55648,57.73758 36.64236,57.74078 0.42333,0.001 7.26837,-4.11888 15.2112,-9.15584 z m -72.63584,6.11319 c 9.08253,-2.73927 16.61583,-5.08729 16.74066,-5.21779 0.43944,-0.45948 -24.55185,-36.24905 -25.95053,-37.16326 -1.81963,-1.18934 -36.89675,9.30377 -36.29801,10.85834 0.43113,1.1194 19.1855,28.65857 23.4166,34.38529 1.61554,2.1866 2.98413,3.11316 4.01439,2.71782 0.85975,-0.32992 8.99435,-2.84111 18.07689,-5.5804 z M 223.75,389.48897 c 10.5875,-3.18661 19.25,-6.13976 19.25,-6.56258 0,-0.57691 -24.04713,-36.17991 -25.47049,-37.71034 -0.26355,-0.28338 -40.4208,11.67599 -41.70886,12.42148 -0.37365,0.21626 5.21583,8.96861 12.42107,19.44971 9.326,13.56612 13.55532,18.93252 14.67934,18.62605 0.86842,-0.23677 10.24144,-3.03772 20.82894,-6.22432 z m 180.4619,53.27179 c 4.20119,-2.36121 8.13662,-8.07309 9.25114,-13.42708 C 415.41368,419.963 406.00081,408 396.677,408 c -1.77802,0 -3.40299,-1.46735 -6.36764,-5.75 -2.18924,-3.1625 -4.28294,-6.27519 -4.65267,-6.91708 -0.42966,-0.74592 5.55559,-5.04139 16.58552,-11.90304 9.49179,-5.90477 17.85685,-11.28222 18.58903,-11.94988 2.40849,-2.19622 -10.63347,-4.98001 -23.33125,-4.98001 l -11,0 -21,13.38069 c -25.76201,16.41492 -26.95749,17.29968 -30.09874,22.27574 -4.55235,7.21141 -11.52803,27.05013 -10.03598,28.54219 0.23828,0.23827 9.5316,-5.25592 20.65184,-12.2093 11.12023,-6.9534 20.76247,-12.85123 21.42718,-13.10631 0.66893,-0.25669 3.22738,2.57224 5.7298,6.33553 3.38407,5.08918 4.3257,7.30008 3.74385,8.79039 -2.17123,5.56116 0.25537,15.73265 4.69306,19.67184 6.01899,5.34285 15.71558,6.44976 22.6009,2.58 z"
     id="path2989"
     style="fill:#ffffff" />
</svg>
