<?xml version="1.0" encoding="UTF-8" standalone="no"?>
<!-- Created with Inkscape (http://www.inkscape.org/) -->

<svg
   xmlns:dc="http://purl.org/dc/elements/1.1/"
   xmlns:cc="http://creativecommons.org/ns#"
   xmlns:rdf="http://www.w3.org/1999/02/22-rdf-syntax-ns#"
   xmlns:svg="http://www.w3.org/2000/svg"
   xmlns="http://www.w3.org/2000/svg"
   version="1.1"
   width="400"
   height="400"
   id="svg2">
  <metadata
     id="metadata8">
    <rdf:RDF>
      <cc:Work
         rdf:about="">
        <dc:format>image/svg+xml</dc:format>
        <dc:type
           rdf:resource="http://purl.org/dc/dcmitype/StillImage" />
        <dc:title></dc:title>
      </cc:Work>
    </rdf:RDF>
  </metadata>
  <defs
     id="defs6" />
  <path
     d="m 0,0 400,0 0,400 -400,0 z"
     id="rect3062"
     style="fill:#000000;fill-opacity:1;stroke:none" />
  <path
     d="m 252.54161,70.119544 c 8.42678,-2.493405 13.74235,-4.442089 13.54515,-4.965643 -0.31628,-0.83969 -18.88612,-28.162244 -20.0471,-29.49611 -0.65701,-0.754842 -28.84009,7.362911 -28.84744,8.309112 -0.007,0.890412 20.3238,30.251425 20.94919,30.254203 0.29175,0.0013 6.77184,-1.844408 14.4002,-4.101562 z m -45.66688,13.777347 c 8.03531,-2.411391 15.05919,-4.628282 15.60864,-4.926414 0.70383,-0.381915 -1.92963,-4.799266 -8.9136,-14.951583 -5.45193,-7.925235 -9.91514,-14.854066 -9.91826,-15.397402 -0.003,-0.543335 -0.56231,-0.825031 -1.24266,-0.625991 -13.60373,3.979914 -31.14254,9.328767 -31.85673,9.71543 -1.1281,0.610741 19.15021,30.556272 20.69761,30.564757 0.55846,0.0031 7.58971,-1.967399 15.625,-4.378797 z m 75.35183,30.016229 c 7.62696,-2.25733 13.86719,-4.41388 13.86719,-4.79232 0,-0.50054 -19.00088,-28.750909 -20.77666,-30.890589 -0.18218,-0.219516 -23.28648,6.407617 -28.22205,8.095086 -0.57502,0.196601 3.29094,6.523273 9.76562,15.981503 5.89461,8.61084 10.89325,15.66833 11.10809,15.68332 0.21484,0.015 6.63086,-1.81965 14.25781,-4.077 z m -181.65742,5.35642 c 7.40288,-2.27248 13.67648,-4.34849 13.94135,-4.61337 0.62612,-0.62612 -19.029607,-29.484342 -20.454638,-30.031178 -0.888665,-0.341015 -27.396148,7.13825 -28.316516,7.989695 -0.335238,0.310133 20.425844,30.769263 20.979414,30.779443 0.214844,0.004 6.447523,-1.85211 13.85039,-4.12459 z m 152.97783,3.19011 c 0.40932,-0.4996 -20.94958,-30.691541 -21.8581,-30.89758 -0.99185,-0.224937 -29.46672,8.04325 -31.50216,9.14722 -1.50823,0.81802 8.92954,15.69696 11.01163,15.69696 3.73314,0 13.98436,3.48287 20.44119,6.94494 l 6.97271,3.73867 7.38788,-2.21809 c 4.06333,-1.21996 7.45941,-2.30541 7.54685,-2.41212 z M 56.056147,132.6773 c 11.507233,-3.4942 15.773441,-5.10628 15.487209,-5.85219 -0.21728,-0.56622 -4.657383,-7.20152 -9.866894,-14.74509 -5.209511,-7.54358 -9.291993,-14.18427 -9.072182,-14.75709 0.275251,-0.717289 -2.317329,-0.216 -8.328875,1.610437 -4.800692,1.458543 -12.507827,3.772113 -17.126968,5.141233 -4.61914,1.36913 -8.398437,2.75763 -8.398437,3.08556 0,0.85732 20.338605,30.33984 20.930029,30.33984 0.271619,0 7.640872,-2.17021 16.376118,-4.8227 z m 254.732083,23.56329 c 7.17194,-2.15361 13.46632,-4.07118 13.98752,-4.26125 0.88296,-0.32201 -18.76803,-30.10434 -19.86346,-30.10434 -1.10047,0 -27.23552,8.01563 -27.76846,8.5166 -0.63248,0.59453 18.91241,29.69724 19.97253,29.73947 0.34759,0.0138 6.49994,-1.73687 13.67187,-3.89048 z m -179.92886,6.68251 c 6.875,-2.04111 12.93829,-3.95142 13.47396,-4.24514 1.12229,-0.61537 -19.59495,-31.32856 -21.14183,-31.34263 -2.61301,-0.0237 -27.892805,8.22058 -27.594063,8.99909 1.071086,2.7912 21.148513,30.89238 21.879763,30.62381 0.48519,-0.17821 6.50717,-1.99401 13.38217,-4.03513 z m 151.62273,1.70982 c 0.20131,-0.22707 -18.71053,-27.73635 -19.85413,-28.87995 -0.60689,-0.60689 -2.29165,-0.45442 -5.96465,0.53981 -2.81537,0.76209 -5.27299,1.63501 -5.46138,1.93982 -0.18839,0.30482 0.89466,2.28617 2.40678,4.40299 4.83024,6.76191 8.65692,15.80111 10.76751,25.4345 l 0.45011,2.05446 8.74818,-2.65592 c 4.8115,-1.46076 8.81991,-2.73682 8.90758,-2.83571 z M 86.035414,176.45826 c 8.754742,-2.63546 16.019326,-4.87574 16.143526,-4.97842 0.1614,-0.13343 -19.870956,-29.71656 -21.291948,-31.44325 -0.391648,-0.4759 -32.449492,9.59211 -32.449492,10.19102 0,0.8927 20.568352,30.98793 21.191666,31.00725 0.268697,0.008 7.65151,-2.14114 16.406248,-4.7766 z m 255.033266,23.45765 c 7.27551,-2.19469 13.48945,-4.23134 13.80877,-4.52589 0.47178,-0.43518 -18.18398,-28.5403 -20.4464,-30.80272 -0.6146,-0.6146 -27.15266,6.83912 -28.35252,7.96336 -0.59962,0.56182 20.20283,31.35559 21.18198,31.35559 0.31899,0 6.53267,-1.79566 13.80817,-3.99034 z m -181.30306,5.19469 c 6.875,-2.04111 12.94701,-3.9563 13.49336,-4.25599 1.25714,-0.68959 -18.40266,-29.72958 -20.13398,-29.74041 -0.9343,-0.005 -9.61359,2.51735 -27.57817,8.01739 -0.34378,0.10525 4.01046,6.97242 9.67609,15.26038 5.66563,8.28796 10.69299,14.92518 11.17192,14.74938 0.47893,-0.1758 6.49578,-1.98963 13.37078,-4.03075 z m 136.80783,8.20237 c 8.43825,-2.56068 15.4851,-4.7986 15.65964,-4.97314 0.49083,-0.49083 -20.21783,-30.32996 -21.35111,-30.76485 -1.09902,-0.42172 -24.31919,6.31308 -25.29579,7.33683 -0.33321,0.34928 -0.83393,2.92022 -1.11273,5.71319 l -0.50691,5.07813 7.66517,11.12724 c 4.21583,6.11997 8.10037,11.12974 8.6323,11.13281 0.53194,0.003 7.87118,-2.08953 16.30943,-4.65021 z m -181.6679,5.35247 c 8.77461,-2.62464 16.06958,-4.87907 16.21106,-5.00984 0.61102,-0.5648 -20.44443,-30.12815 -21.24509,-29.82964 -0.48793,0.18192 -7.82968,2.40136 -16.314997,4.93209 -10.254359,3.05834 -15.310812,4.91547 -15.078836,5.53813 0.558727,1.49972 19.522375,29.06831 20.02161,29.10661 0.248836,0.0191 7.631653,-2.11272 16.406253,-4.73735 z m 123.30621,10.14298 c 3.77897,-2.4053 6.08622,-4.35494 5.77846,-4.88281 -0.28177,-0.48331 -1.85665,-2.8799 -3.49972,-5.32577 -1.64307,-2.44587 -2.65623,-4.65171 -2.25147,-4.90187 2.17654,-1.34518 8.82526,-12.92353 10.68569,-18.60851 1.78562,-5.45638 2.10018,-7.76323 2.10018,-15.40196 0,-7.63873 -0.31456,-9.94558 -2.10018,-15.40196 -6.80523,-20.79494 -25.99673,-34.59804 -48.1043,-34.59804 -13.12461,0 -25.40912,5.06559 -34.79912,14.34963 -3.09972,3.06474 -6.02309,6.31045 -6.49637,7.21269 -0.76244,1.45345 2.10731,5.95066 25.1757,39.45313 25.65563,37.25991 26.07246,37.80971 28.51414,37.6098 1.36284,-0.11158 4.72894,-1.22355 7.48022,-2.47104 l 5.00234,-2.26816 2.97165,4.61264 c 1.6344,2.53695 3.03472,4.61572 3.11182,4.61947 0.0771,0.004 2.97103,-1.795 6.43096,-3.99724 z m 131.79822,13.31819 c 7.25623,-2.18192 13.46363,-4.2278 13.79422,-4.54639 0.43242,-0.41671 -16.88061,-26.86959 -19.42923,-29.68624 -0.49909,-0.55158 -28.43747,8.0566 -28.43747,8.76195 0,1.00646 19.59505,29.43782 20.2887,29.43782 0.32485,0 6.52755,-1.78521 13.78378,-3.96714 z m -189.03759,9.38122 c 20.036,-6.0499 23.04645,-7.11882 22.68701,-8.05551 -0.76367,-1.99006 -20.18516,-29.79033 -21.0154,-30.0818 -0.47212,-0.16575 -7.12089,1.57507 -14.77504,3.86848 l -13.91664,4.16985 1.34415,2.0965 c 1.79005,2.79198 20.06278,29.54745 20.20717,29.58795 0.0622,0.0174 2.5231,-0.69603 5.46875,-1.58547 z m 144.69823,3.99126 c 8.31806,-2.54473 15.28928,-4.79232 15.49161,-4.99465 0.20232,-0.20232 -4.22553,-7.0351 -9.83966,-15.18393 l -10.20753,-14.81606 -15.44033,4.66571 c -8.49219,2.56614 -15.88734,4.91421 -16.43369,5.21792 -1.25857,0.69964 18.40303,29.74101 20.13398,29.73909 0.64453,-7.2e-4 7.97756,-2.08335 16.29562,-4.62808 z m -179.73821,6.59147 c 11.42975,-3.44008 14.9717,-4.80071 14.65377,-5.62922 -1.13624,-2.961 -21.01655,-30.74445 -21.79605,-30.46078 -0.49473,0.18004 -7.84256,2.40161 -16.32851,4.93683 -8.99289,2.68666 -15.29968,4.95663 -15.11898,5.44169 0.17052,0.45771 4.96377,7.60544 10.65169,15.88384 7.50276,10.91982 10.688,14.9573 11.60335,14.70795 0.69393,-0.18903 8.04456,-2.38517 16.33473,-4.88031 z m 131.00579,23.72342 c 7.31414,-4.63828 11.087,-7.47633 10.72681,-8.069 -6.53503,-10.7526 -28.70229,-44.93248 -29.14083,-44.93248 -0.3312,0 -5.4608,3.10298 -11.39912,6.89551 -6.94279,4.43404 -10.76142,7.34295 -10.69745,8.14898 0.12103,1.52503 27.7785,45.10749 28.62684,45.10999 0.33073,7.8e-4 5.67842,-3.21788 11.88375,-7.153 z m -56.74675,4.77593 c 7.09573,-2.14006 12.98112,-3.97445 13.07864,-4.0764 0.34332,-0.35897 -19.18113,-28.31957 -20.27385,-29.0338 -1.42158,-0.92917 -28.82558,7.26857 -28.35782,8.48308 0.33682,0.87453 14.98867,22.38951 18.29422,26.86351 1.26214,1.70828 2.33135,2.43215 3.13624,2.12329 0.67168,-0.25775 7.02684,-2.21961 14.12257,-4.35968 z m -45.38676,13.69835 c 8.27148,-2.48954 15.03906,-4.79669 15.03906,-5.12702 0,-0.45071 -18.78682,-28.26555 -19.89882,-29.4612 -0.2059,-0.22139 -31.57875,9.12187 -32.58505,9.70428 -0.29191,0.16895 4.07487,7.00673 9.70396,15.19509 7.28594,10.59853 10.5901,14.79103 11.46824,14.5516 0.67845,-0.18498 8.00112,-2.37322 16.27261,-4.86275 z m 140.98586,41.61858 c 3.28218,-1.84469 6.35673,-6.3071 7.22745,-10.4899 1.52394,-7.32085 -5.82987,-16.66694 -13.11409,-16.66694 -1.38908,0 -2.65859,-1.14637 -4.97472,-4.49219 -1.71035,-2.4707 -3.34605,-4.90249 -3.6349,-5.40397 -0.33567,-0.58275 4.3403,-3.93858 12.95744,-9.29925 7.41546,-4.6131 13.95066,-8.81423 14.52268,-9.33584 1.88163,-1.7158 -8.3074,-3.89063 -18.22754,-3.89063 l -8.59375,0 -16.40625,10.45366 c -20.12657,12.82416 -21.06054,13.51538 -23.51464,17.40292 -3.55653,5.63392 -9.00628,21.13292 -7.84061,22.29859 0.18615,0.18615 7.44656,-4.10619 16.13425,-9.53852 8.68768,-5.43234 16.22068,-10.04002 16.73998,-10.2393 0.5226,-0.20054 2.52139,2.00956 4.47641,4.94963 2.6438,3.97592 3.37945,5.70319 2.92488,6.86749 -1.69627,4.34466 0.19951,12.29114 3.66645,15.36863 4.70234,4.1741 12.2778,5.03887 17.65696,2.01562 z"
     id="path2989"
     style="fill:#ffffff" />
</svg>
