<?xml version="1.0" encoding="UTF-8" standalone="no"?>
<!-- Created with Inkscape (http://www.inkscape.org/) -->

<svg
   xmlns:dc="http://purl.org/dc/elements/1.1/"
   xmlns:cc="http://creativecommons.org/ns#"
   xmlns:rdf="http://www.w3.org/1999/02/22-rdf-syntax-ns#"
   xmlns:svg="http://www.w3.org/2000/svg"
   xmlns="http://www.w3.org/2000/svg"
   xmlns:sodipodi="http://sodipodi.sourceforge.net/DTD/sodipodi-0.dtd"
   xmlns:inkscape="http://www.inkscape.org/namespaces/inkscape"
   id="svg2"
   version="1.1"
   inkscape:version="0.48.3.1 r9886"
   width="400"
   height="400"
   sodipodi:docname="Icon.7_73.png">
  <metadata
     id="metadata8">
    <rdf:RDF>
      <cc:Work
         rdf:about="">
        <dc:format>image/svg+xml</dc:format>
        <dc:type
           rdf:resource="http://purl.org/dc/dcmitype/StillImage" />
        <dc:title></dc:title>
      </cc:Work>
    </rdf:RDF>
  </metadata>
  <defs
     id="defs6" />
  <sodipodi:namedview
     pagecolor="#ffffff"
     bordercolor="#666666"
     borderopacity="1"
     objecttolerance="10"
     gridtolerance="10"
     guidetolerance="10"
     inkscape:pageopacity="0"
     inkscape:pageshadow="2"
     inkscape:window-width="1216"
     inkscape:window-height="1000"
     id="namedview4"
     showgrid="false"
     inkscape:zoom="0.834386"
     inkscape:cx="112.13203"
     inkscape:cy="218.36788"
     inkscape:window-x="64"
     inkscape:window-y="24"
     inkscape:window-maximized="1"
     inkscape:current-layer="svg2" />
  <path
     style="fill:#000000;fill-opacity:1;stroke:none"
     d="m 0,7.6293945e-6 400,0 L 400,400.00001 l -400,0 z"
     id="rect3022" />
  <path
     id="path2989"
     style="fill:#ffffff"
     d="M 214.92327,214.41111 C 217.40427,212.32349 218,211.05613 218,207.86565 218,202.37877 214.57003,199 209,199 c -8.51768,0 -12.14771,9.00614 -6.07692,15.07692 3.72648,3.72649 7.83277,3.84084 12.00019,0.33419 z m -6.34066,48.48202 c -0.25546,-0.76622 -2.09123,-8.80581 -4.0795,-17.86576 -1.98827,-9.05994 -3.73571,-16.5933 -3.8832,-16.74079 -0.14749,-0.14749 -7.37272,4.23362 -16.05608,9.73581 -8.68336,5.50218 -15.56818,9.43554 -15.2996,8.74079 0.26857,-0.69475 4.60624,-7.69883 9.63926,-15.56463 5.03302,-7.8658 8.93039,-14.65832 8.66083,-15.09448 -0.26957,-0.43617 -8.37323,-2.52159 -18.00815,-4.63429 -9.63492,-2.11269 -17.34773,-4.01155 -17.13959,-4.21969 0.20814,-0.20814 8.13728,-2.13728 17.62031,-4.28698 9.48303,-2.1497 17.46186,-4.12853 17.73073,-4.3974 0.39377,-0.39377 -9.05437,-15.86416 -18.3929,-30.11657 -1.24272,-1.89663 2.62267,0.13602 14.49292,7.62123 8.9032,5.61422 16.4002,9.99512 16.66,9.73532 0.2598,-0.2598 2.05447,-7.63486 3.98815,-16.38903 1.93368,-8.75416 3.84617,-16.7135 4.24999,-17.6874 0.47328,-1.14143 2.15488,4.63375 4.73161,16.25 2.19856,9.9114 4.31183,18.02074 4.69615,18.02074 0.38431,0 7.45079,-4.275 15.70328,-9.5 8.25249,-5.225 15.23249,-9.5 15.51111,-9.5 0.27862,0 -3.52629,6.33351 -8.45534,14.07446 -4.92906,7.74095 -9.40471,14.90181 -9.94589,15.91303 -1.06822,1.99598 -3.31649,1.3117 26.4933,8.06342 l 10,2.26493 -18.5,4.15779 c -10.282,2.31083 -18.40981,4.62129 -18.29696,5.2012 0.11167,0.57387 4.18067,7.2943 9.04222,14.93429 4.86155,7.63998 9.23736,14.53932 9.72401,15.33186 0.98035,1.59654 -1.16748,0.34331 -18.96927,-11.06834 -6.6,-4.23086 -12.28187,-7.39551 -12.62639,-7.03255 -0.34451,0.36295 -2.3046,8.30991 -4.35575,17.65991 -2.05115,9.35 -3.89619,17.17691 -4.10008,17.39313 -0.20388,0.21622 -0.57971,-0.23378 -0.83517,-1 z M 124,358.24594 c 15.10404,-6.61597 24.969,-24.16352 22.30143,-39.66926 -2.88605,-16.77566 -14.57714,-28.55101 -31.42971,-31.65622 l -6.60694,-1.21738 -1.38239,-7.10154 C 106.0306,274.22577 105.51985,265.16685 105.55173,255 c 0.0461,-14.70791 0.34321,-17.56274 2.73552,-26.28475 3.42181,-12.47542 7.7997,-22.97711 12.89614,-30.93531 5.28575,-8.25381 5.97163,-8.87918 4.60079,-4.19487 -1.77867,6.07792 -1.43853,26.54085 0.62192,37.41493 6.35255,33.52576 18.79493,58.19202 40.07175,79.43984 18.10881,18.08413 38.56146,29.22864 64.52215,35.15769 10.55985,2.41171 36.51186,2.94355 49.58482,1.01614 11.7622,-1.73415 27.58613,-5.54687 35.49778,-8.55306 l 4.77804,-1.81551 2.81968,2.9707 c 7.00579,7.381 18.91277,10.3449 28.96643,7.21037 8.35244,-2.60413 16.53622,-10.80787 18.90292,-18.94902 8.13093,-27.96944 -25.52518,-49.54633 -46.57342,-29.85817 -5.8234,5.44711 -8.66017,11.15525 -9.69732,19.51295 l -0.77893,6.2768 -8.66101,2.75856 c -41.9776,13.37004 -81.70824,9.10022 -112.67458,-12.10903 -10.09478,-6.91405 -22.66817,-19.12405 -29.2828,-28.43647 l -4.1753,-5.87821 4.89684,2.8004 c 2.69327,1.54023 5.38232,3.1641 5.97568,3.6086 2.1745,1.629 14.88051,5.97155 21.62112,7.38948 8.85284,1.86225 23.5565,1.86623 32.96208,0.009 11.50239,-2.27137 31.39227,-9.15084 42.2151,-14.60127 29.95036,-15.08316 51.64275,-39.47225 62.50859,-70.27939 C 331.59858,203.814 333,198.99756 333,197.96712 c 0,-1.24259 1.43127,-2.50666 4.25,-3.75353 7.20058,-3.1852 12.73885,-11.32101 12.73885,-18.71359 0,-6.65699 -5.11812,-14.96413 -11.13729,-18.07676 C 336.55858,156.23749 336,155.27802 336,152.52508 c 0,-6.34907 -4.1263,-24.94078 -8.34042,-37.57916 l -4.18603,-12.55409 5.09753,-4.638194 C 337.96195,89.208974 342.75127,75.501783 340.93176,62.377015 338.02075,41.378881 320.17571,26 298.72132,26 c -2.20313,0 -7.05204,0.907242 -10.77536,2.016094 -15.817,4.710507 -27.61847,18.962179 -29.47048,35.589091 -0.75258,6.756522 1.25171,16.979577 4.62551,23.592763 3.39769,6.660022 11.25802,14.205262 18.6775,17.928802 6.32762,3.17557 7.36613,3.38177 17.72151,3.51862 l 11,0.14537 3.67776,10.85463 c 3.3639,9.9283 5.78566,20.64087 7.3143,32.35463 0.56437,4.32463 0.45905,4.56174 -2.7024,6.08422 -5.0304,2.42251 -9.0334,8.80985 -9.56902,15.26866 -0.59243,7.144 1.13345,12.00121 5.98995,16.85771 l 3.97908,3.97908 -1.16405,4.65517 c -1.85315,7.41093 -8.38823,21.30091 -13.78385,29.29687 -4.68794,6.94723 -19.09821,23.33518 -19.85428,22.57911 -0.19216,-0.19216 0.98533,-3.52611 2.61666,-7.40878 4.87832,-11.61076 6.35136,-19.40695 6.29409,-33.31204 -0.0387,-9.4056 -0.56914,-14.42689 -2.14259,-20.28378 -2.76613,-10.29643 -8.73012,-22.73624 -14.63793,-30.53208 -6.1303,-8.08943 -27.77246,-27.91205 -37.50543,-34.35221 -26.28877,-17.39487 -56.39594,-24.61167 -86.78095,-20.80171 -24.57387,3.08131 -49.68657,15.38482 -72.572782,35.55573 l -9.841442,8.67381 -4.072865,-1.34416 c -9.710646,-3.20481 -21.893467,-0.50785 -29.027878,6.426 -11.788566,11.45718 -12.5042,28.71896 -1.700737,41.02343 5.475714,6.23649 12.068571,9.01923 21.484364,9.06819 6.775918,0.0352 8.765051,-0.36358 13,-2.60651 10.485989,-5.55364 15.945888,-14.56795 15.945888,-26.32671 0,-5.03575 -0.603526,-8.32278 -2.150787,-11.714 l -2.150787,-4.71399 7.980731,-7.5077 c 9.731886,-9.15506 21.472135,-17.09109 33.974785,-22.96586 25.23525,-11.85758 51.05499,-13.42664 78.90017,-4.79473 l 8.5,2.63496 -8.5,0.63524 c -10.99643,0.82181 -19.35656,3.13992 -30.5,8.45709 -28.47132,13.58528 -54.27653,38.27345 -67.60652,64.68 -7.046556,13.95915 -11.267301,29.36 -13.06245,47.66287 -1.100392,11.21932 -0.383456,21.36227 2.802383,39.64708 0.469531,2.69483 0.101219,3.2599 -3.411642,5.23424 -5.508089,3.09572 -11.923015,10.371 -15.051047,17.06965 -2.301241,4.92809 -2.643023,6.9257 -2.5964,15.17515 0.04192,7.41825 0.508171,10.48609 2.127702,14 4.763583,10.33558 12.499858,17.55106 22.797974,21.26323 6.54757,2.36022 19.96517,1.84513 26.5,-1.01729 z" />
</svg>
