<?xml version="1.0" encoding="UTF-8" standalone="no"?>
<!-- Created with Inkscape (http://www.inkscape.org/) -->

<svg
   xmlns:dc="http://purl.org/dc/elements/1.1/"
   xmlns:cc="http://creativecommons.org/ns#"
   xmlns:rdf="http://www.w3.org/1999/02/22-rdf-syntax-ns#"
   xmlns:svg="http://www.w3.org/2000/svg"
   xmlns="http://www.w3.org/2000/svg"
   xmlns:sodipodi="http://sodipodi.sourceforge.net/DTD/sodipodi-0.dtd"
   xmlns:inkscape="http://www.inkscape.org/namespaces/inkscape"
   id="svg2"
   version="1.1"
   inkscape:version="0.48.3.1 r9886"
   width="400"
   height="400"
   sodipodi:docname="Icon.3_13.png">
  <metadata
     id="metadata8">
    <rdf:RDF>
      <cc:Work
         rdf:about="">
        <dc:format>image/svg+xml</dc:format>
        <dc:type
           rdf:resource="http://purl.org/dc/dcmitype/StillImage" />
        <dc:title></dc:title>
      </cc:Work>
    </rdf:RDF>
  </metadata>
  <defs
     id="defs6" />
  <sodipodi:namedview
     pagecolor="#ffffff"
     bordercolor="#666666"
     borderopacity="1"
     objecttolerance="10"
     gridtolerance="10"
     guidetolerance="10"
     inkscape:pageopacity="0"
     inkscape:pageshadow="2"
     inkscape:window-width="1855"
     inkscape:window-height="1056"
     id="namedview4"
     showgrid="false"
     inkscape:zoom="0.59"
     inkscape:cx="200"
     inkscape:cy="200"
     inkscape:window-x="65"
     inkscape:window-y="24"
     inkscape:window-maximized="1"
     inkscape:current-layer="svg2" />
  <path
     style="fill:#000000;fill-opacity:1;stroke:none"
     d="m 0,0 400,0 0,400 -400,0 z"
     id="rect3021" />
  <path
     id="path2989"
     style="fill:#ffffff"
     d="m 225.4178,369.75 c 0.27964,-1.7875 1.66663,-21.925 3.0822,-44.75 1.41557,-22.825 2.80256,-42.9625 3.0822,-44.75 l 0.50843,-3.25 12.45468,0 12.45469,0 -0.01,-4.75 c -0.0258,-12.81989 -2.19957,-44.82217 -3.61701,-53.25 -3.73608,-22.21393 -10.90736,-36.84063 -21.17316,-43.18524 -2.01293,-1.24406 -7.26896,-3.23455 -11.68007,-4.4233 -4.41111,-1.18876 -7.93933,-2.55065 -7.8405,-3.02642 0.0988,-0.47577 2.46496,-4.65538 5.25804,-9.28802 5.28939,-8.77304 6.77534,-12.85016 8.04624,-22.07702 2.12746,-15.44565 -5.00923,-34.15333 -15.70991,-41.180984 -11.39779,-7.485489 -23.08714,-6.239704 -32.50599,3.464309 -7.81768,8.054365 -11.73651,18.841735 -11.75621,32.361335 -0.0162,11.08852 2.66479,19.30429 9.60724,29.44139 3.04674,4.44875 5.39134,8.20216 5.21021,8.34092 -0.18112,0.13876 -3.25432,1.05126 -6.82932,2.02778 -3.575,0.97652 -8.09523,2.58576 -10.04495,3.57608 C 156.20987,178.96486 148.7134,189.94935 144.18474,204 139.65929,218.04072 136,246.4551 136,267.55447 l 0,9.44553 12.92041,0 12.9204,0 0.61688,6.25 C 163.14108,290.17395 169,369.2516 169,371.5514 169,372.78165 173.2136,373 196.95469,373 l 27.95468,0 0.50843,-3.25 z m -78.84959,-4.01807 c -22.8957,-23.27012 -39.15161,-62.96971 -43.66182,-106.62931 -1.67206,-16.18583 -0.63654,-51.35401 1.93166,-65.60262 4.30108,-23.86284 9.38529,-40.0477 18.07803,-57.5489 9.70349,-19.53615 20.15595,-33.08865 32.9625,-42.738678 C 169.90339,82.644414 182.35548,78 196.66444,78 c 43.89451,0 81.75607,48.89631 92.48363,119.43798 2.57917,16.95991 3.09042,51.30708 0.99078,66.56202 -6.00829,43.65309 -21.05836,78.87016 -43.48303,101.75 l -7.10576,7.25 9.82424,0 c 9.47442,0 10.02546,-0.1242 15.47497,-3.48782 10.68239,-6.59354 16.01937,-7.95995 31.15073,-7.97544 10.89461,-0.0111 15.08707,0.41821 21.7235,2.22472 10.26843,2.79519 10.86937,2.78677 8.60991,-0.12061 -11.56801,-14.88522 -17.97215,-25.9389 -20.85906,-36.00322 -2.13825,-7.45432 -1.65916,-18.55433 1.04098,-24.11869 6.34209,-13.06953 27.39226,-23.15743 53.94097,-25.85019 l 11.9563,-1.21269 -13.4431,-8.86304 C 341.69329,256.20282 337.95261,253.34545 329.74579,245.2701 308.09358,223.96476 315.00894,207.99761 358.5,178.87838 l 14,-9.37363 -8.80641,-0.67324 c -27.91068,-2.13372 -49.90776,-11.8844 -56.99283,-25.2633 -1.65134,-3.11827 -2.15523,-5.81948 -2.15795,-11.56821 -0.005,-9.8631 2.50547,-17.16688 13.04352,-37.952874 4.58769,-9.04908 8.17611,-16.618022 7.97426,-16.819869 -0.20185,-0.201848 -6.14805,3.694159 -13.21379,8.657793 -15.28413,10.736996 -23.80391,15.10022 -30.91917,15.83457 -7.01186,0.72369 -9.73065,-0.0952 -14.43874,-4.348618 -10.628,-9.601768 -18.04608,-33.288049 -19.80565,-63.240403 L 246.5,22.5 242.27918,30.149734 C 229.4558,53.390564 214.79751,65.926279 200.38436,65.978038 185.72781,66.030671 169.38393,51.745915 156.93185,28 l -2.35975,-4.5 -0.7423,8.5 c -2.82177,32.31181 -8.58757,52.404809 -18.27267,63.677757 -4.39052,5.110333 -8.91703,6.748743 -16.69626,6.043343 -7.07638,-0.64166 -14.46996,-4.468611 -30.644325,-15.861626 -6.2059,-4.371355 -11.928678,-8.195515 -12.717285,-8.498132 -0.788607,-0.302616 1.813948,5.454784 5.783455,12.794223 15.396983,28.468325 18.763085,39.284105 15.556727,49.985995 -4.32304,14.42902 -29.033684,26.40341 -58.854936,28.52019 -4.941478,0.35075 -8.978636,0.90785 -8.971461,1.23799 0.0072,0.33014 5.069674,3.74715 11.25,7.59335 22.93174,14.2711 38.713082,27.83214 42.756944,36.74141 2.528706,5.57113 2.525122,13.01966 -0.0088,18.19978 C 78.318117,242.02861 65.596013,252.84607 41.1834,268 c -6.645275,4.125 -12.105061,7.77111 -12.132859,8.10247 -0.0278,0.33136 3.820473,0.90003 8.551712,1.2637 28.193945,2.16716 51.347699,12.65649 58.014082,26.28208 2.397988,4.90131 2.608006,6.20242 2.095338,12.98107 -0.482585,6.38088 -1.335529,9.08985 -5.573716,17.70223 -3.002068,6.10047 -8.21842,14.26905 -13.038959,20.41845 -4.419262,5.6375 -7.59372,10.25 -7.054352,10.25 0.539369,0 4.237475,-0.91298 8.218012,-2.02884 19.254391,-5.39758 34.979632,-3.15897 48.237342,6.86694 3.84971,2.91128 4.39863,3.02751 14.60966,3.09342 l 10.60967,0.0685 -7.15112,-7.26807 z" />
</svg>
