<?xml version="1.0" encoding="UTF-8" standalone="no"?>
<!-- Created with Inkscape (http://www.inkscape.org/) -->

<svg
   xmlns:dc="http://purl.org/dc/elements/1.1/"
   xmlns:cc="http://creativecommons.org/ns#"
   xmlns:rdf="http://www.w3.org/1999/02/22-rdf-syntax-ns#"
   xmlns:svg="http://www.w3.org/2000/svg"
   xmlns="http://www.w3.org/2000/svg"
   version="1.1"
   width="400"
   height="400"
   id="svg2">
  <metadata
     id="metadata8">
    <rdf:RDF>
      <cc:Work
         rdf:about="">
        <dc:format>image/svg+xml</dc:format>
        <dc:type
           rdf:resource="http://purl.org/dc/dcmitype/StillImage" />
        <dc:title></dc:title>
      </cc:Work>
    </rdf:RDF>
  </metadata>
  <defs
     id="defs6" />
  <path
     d="m 0,0 400,0 0,400 -400,0 z"
     id="rect3026"
     style="fill:#000000;fill-opacity:1;stroke:none" />
  <path
     d="m 240.09907,204.82668 c -4.3713,-2.01014 -8.16448,-3.87377 -8.4293,-4.1414 -0.26482,-0.26762 2.525,-6.18287 6.1996,-13.145 3.67459,-6.96212 6.52906,-12.89551 6.34326,-13.18529 -0.1858,-0.28977 -9.85683,-4.9214 -21.49115,-10.29249 -13.97857,-6.45333 -21.15127,-10.1631 -21.14725,-10.9375 0.003,-0.64453 2.24095,-9.43359 4.97247,-19.53125 4.38284,-16.20207 5.13914,-18.32757 6.43642,-18.08868 3.2035,0.5899 55.97645,14.91283 56.36013,15.29652 0.22555,0.22554 -3.90874,16.50269 -9.1873,36.17143 -5.27857,19.66875 -9.94161,37.07971 -10.36233,38.69104 -0.42071,1.61133 -0.98584,2.90443 -1.25584,2.87356 -0.27,-0.0309 -4.06742,-1.7008 -8.43871,-3.71094 z m -38.47573,64.55228 c -15.65013,-4.2178 -28.621,-7.83496 -28.82417,-8.03812 -0.3888,-0.3888 16.17663,-63.06148 17.03554,-64.45121 0.44667,-0.72273 15.6571,5.4021 17.45984,7.03062 0.35966,0.3249 -1.67635,4.99525 -4.52447,10.37855 -2.84813,5.38331 -4.90021,9.95238 -4.56018,10.1535 0.34002,0.20112 9.58307,5.19329 20.5401,11.09373 10.95703,5.90043 19.96612,10.77537 20.0202,10.8332 0.21344,0.22825 -7.9667,30.10363 -8.31741,30.37672 -0.20606,0.16046 -13.17932,-3.15918 -28.82945,-7.37699 z m 63.49757,-61.17584 c 12.7515,-47.69531 23.17909,-87.1172 23.17243,-87.60419 -0.0134,-0.98423 0.18748,-0.91799 -12.90272,-4.25388 -5.15625,-1.31401 -9.62067,-2.62881 -9.92093,-2.92177 -0.30027,-0.29296 0.1857,-3.44512 1.07993,-7.0048 0.89423,-3.55968 1.49018,-6.607839 1.32434,-6.773683 -0.29607,-0.29607 -38.32068,-10.582297 -39.11908,-10.582297 -0.22429,0 -1.21847,3.016602 -2.20929,6.70357 l -1.8015,6.70356 -2.4897,-0.46707 c -1.36934,-0.25689 -6.67309,-1.65478 -11.78611,-3.106427 -5.11302,-1.451649 -9.50511,-2.412367 -9.76019,-2.134938 -0.53051,0.577024 -46.84313,173.490495 -46.81819,174.801125 0.009,0.47255 7.48705,2.86614 16.61791,5.31909 9.13086,2.45293 28.73047,7.72964 43.55469,11.72603 14.82422,3.99638 27.1603,7.05201 27.4135,6.79029 0.2532,-0.26172 10.89341,-39.49929 23.64491,-87.19461 z m -71.16475,89.52586 c -35.01249,-9.367 -57.21993,-15.66796 -57.22657,-16.23701 -0.009,-0.72798 47.65203,-179.36223 52.82733,-197.999783 l 1.22137,-4.398429 9.88429,2.689687 c 14.85317,4.041813 14.05669,4.20336 16.11206,-3.26782 1.24416,-4.522448 2.05566,-6.223848 2.93589,-6.155388 2.19408,0.170645 64.2574,16.89756 64.9259,17.498411 0.35862,0.322344 -0.0808,3.197891 -0.97656,6.39011 -0.89574,3.192219 -1.62862,6.150762 -1.62862,6.574532 0,0.42377 5.27344,2.15325 11.71875,3.84329 6.70923,1.75923 11.71875,3.46508 11.71875,3.99047 0,0.99725 -53.76624,202.00021 -54.09597,202.23561 -0.1105,0.0789 -25.94798,-6.74476 -57.41662,-15.16368 z m -19.34679,58.48413 c 21.28267,-25.21922 25.13835,-29.43904 25.93039,-28.37933 0.51172,0.68465 8.77344,13.85855 18.35937,29.27534 9.58595,15.41679 17.64982,28.03426 17.91971,28.03883 0.26989,0.005 3.57027,-12.38428 7.33417,-27.53076 3.7639,-15.14649 7.0587,-27.75587 7.32178,-28.02086 0.26308,-0.26499 8.50771,3.71736 18.32138,8.84966 9.81368,5.1323 18.05356,9.12094 18.31085,8.86365 0.2573,-0.25729 -1.34899,-20.56507 -3.56952,-45.12839 -2.22053,-24.56332 -3.95651,-44.73709 -3.85773,-44.83058 0.0988,-0.0935 14.48623,8.49756 31.9721,19.09123 17.48589,10.59367 31.54839,19.47126 31.25,19.72797 -0.29837,0.25672 -8.62421,1.60016 -18.50188,2.98543 -9.87765,1.38527 -18.12919,2.68848 -18.33675,2.89604 -0.20754,0.20755 -0.004,0.62193 0.45179,0.92082 0.45604,0.29891 17.95713,12.44626 38.89131,26.99411 20.93418,14.54786 38.17116,26.32521 38.3044,26.17188 0.13324,-0.15332 0.48907,-14.69392 0.79074,-32.31242 l 0.54849,-32.03365 -23.62144,-19.91948 c -12.99179,-10.95571 -24.13245,-20.2964 -24.75703,-20.75709 -0.83665,-0.61712 3.56737,-1.21092 16.72927,-2.25561 9.82567,-0.77989 19.44689,-1.65307 21.38048,-1.9404 l 3.51562,-0.52241 -21.875,-14.4481 c -12.03125,-7.94646 -29.54067,-19.49161 -38.90983,-25.6559 -9.36917,-6.16429 -16.74347,-11.49916 -16.38735,-11.85528 0.35612,-0.35612 14.80779,-7.07258 32.11483,-14.92547 17.30703,-7.85288 31.4758,-14.62239 31.48614,-15.04337 0.0104,-0.42097 -12.13697,-4.81174 -26.99404,-9.75725 -14.85708,-4.94552 -27.01287,-9.216 -27.01287,-9.48995 0,-0.27396 1.74102,-1.24707 3.86892,-2.16247 10.97841,-4.72278 49.95694,-24.67727 49.08372,-25.12767 -0.54973,-0.28356 -10.5791,-3.81894 -22.28748,-7.85641 -11.70839,-4.03746 -21.28171,-7.51663 -21.27407,-7.73147 0.008,-0.21484 7.62164,-9.179688 16.92,-19.921875 9.96094,-11.50766 16.45389,-19.613199 15.80532,-19.730734 -0.60543,-0.109715 -14.63594,2.223001 -31.17891,5.183814 -16.54297,2.960815 -30.198,5.274458 -30.34451,5.141431 -0.25883,-0.235001 3.44096,-46.640906 4.12404,-51.727324 0.18754,-1.396484 0.0852,-2.539062 -0.22731,-2.539062 -0.31256,0 -11.05426,10.01485 -23.87045,22.255222 -12.81618,12.240372 -23.55743,22.09744 -23.86947,21.904597 -0.31202,-0.192844 -6.86268,-11.075685 -14.557,-24.184093 -7.69432,-13.108407 -14.16546,-23.839031 -14.3803,-23.845829 -0.21484,-0.0068 -4.08203,11.233949 -8.59375,24.97944 l -8.20313,24.9918 -21.09375,-13.674033 c -11.60156,-7.520719 -21.30581,-13.674724 -21.565,-13.675569 -0.25919,-8.59e-4 -0.3239,1.668387 -0.1438,3.709402 1.00837,11.427488 4.68213,63.124793 4.5007,63.334013 -0.11832,0.13644 -14.82787,-9.355747 -32.6879,-21.093755 l -32.472776,-21.34182 9.153136,-2.866549 c 5.03423,-1.576602 13.3227,-4.157046 18.41882,-5.734321 5.11768,-1.583946 8.96488,-3.165384 8.59375,-3.532568 -0.36956,-0.365639 -13.15239,-8.243419 -28.4063,-17.506178 L 79.296875,15.628377 48.242187,15.626688 17.1875,15.625 l 0.02502,25.195312 0.02502,25.195313 37.084352,17.555781 c 20.396394,9.655688 37.083171,17.741624 37.081734,17.968754 -0.0016,0.22713 -9.521008,3.22547 -21.154589,6.66297 -11.633585,3.4375 -21.564048,6.51367 -22.067696,6.83593 -0.686123,0.43903 -0.661732,0.75006 0.09728,1.2405 0.55715,0.36002 22.753007,13.80728 49.324123,29.88282 26.571116,16.07553 48.192116,29.43196 48.046676,29.68094 -0.14545,0.24898 -15.83739,0.91092 -34.871,1.47098 -19.033598,0.56007 -35.077151,1.26667 -35.652331,1.57023 -0.669875,0.35354 9.085225,6.98571 27.138941,18.45089 15.5016,9.84442 28.18083,18.07474 28.17607,18.28958 -0.005,0.21484 -17.7544,7.57913 -39.443629,16.36507 -21.689236,8.78595 -39.43227,16.16876 -39.428964,16.40625 0.0033,0.23749 14.329478,4.62288 31.835932,9.74531 17.506461,5.12242 32.046861,9.51696 32.312011,9.76562 0.26515,0.24867 -11.09124,13.98112 -25.236425,30.51655 -14.145181,16.53543 -25.43634,30.15629 -25.091459,30.26859 0.344878,0.1123 17.15049,-4.13049 37.345804,-9.42842 l 36.71874,-9.63261 0.5719,2.02026 c 0.50871,1.79709 8.44507,70.8805 8.42182,73.30932 -0.005,0.53711 0.25433,0.954 0.5766,0.92643 0.32226,-0.0276 11.83594,-13.38099 25.58594,-29.67426 z"
     id="path2989"
     style="fill:#ffffff" />
</svg>
