<?xml version="1.0" encoding="UTF-8" standalone="no"?>
<!-- Created with Inkscape (http://www.inkscape.org/) -->

<svg
   xmlns:dc="http://purl.org/dc/elements/1.1/"
   xmlns:cc="http://creativecommons.org/ns#"
   xmlns:rdf="http://www.w3.org/1999/02/22-rdf-syntax-ns#"
   xmlns:svg="http://www.w3.org/2000/svg"
   xmlns="http://www.w3.org/2000/svg"
   xmlns:sodipodi="http://sodipodi.sourceforge.net/DTD/sodipodi-0.dtd"
   xmlns:inkscape="http://www.inkscape.org/namespaces/inkscape"
   id="svg2"
   version="1.1"
   inkscape:version="0.48.3.1 r9886"
   width="400"
   height="400"
   sodipodi:docname="Icon.7_83.svg">
  <metadata
     id="metadata8">
    <rdf:RDF>
      <cc:Work
         rdf:about="">
        <dc:format>image/svg+xml</dc:format>
        <dc:type
           rdf:resource="http://purl.org/dc/dcmitype/StillImage" />
        <dc:title />
      </cc:Work>
    </rdf:RDF>
  </metadata>
  <defs
     id="defs6" />
  <sodipodi:namedview
     pagecolor="#ffffff"
     bordercolor="#666666"
     borderopacity="1"
     objecttolerance="10"
     gridtolerance="10"
     guidetolerance="10"
     inkscape:pageopacity="0"
     inkscape:pageshadow="2"
     inkscape:window-width="1216"
     inkscape:window-height="1000"
     id="namedview4"
     showgrid="false"
     inkscape:zoom="1.995"
     inkscape:cx="200"
     inkscape:cy="200"
     inkscape:window-x="64"
     inkscape:window-y="24"
     inkscape:window-maximized="1"
     inkscape:current-layer="svg2" />
  <rect
     style="fill:#000000;fill-opacity:1;stroke:none"
     id="rect3112"
     width="400"
     height="400"
     x="0"
     y="-7.6293945e-06" />
  <path
     id="path3001"
     style="fill:#ffffff"
     d="M 149.12857,38.892398 137.25764,22.979655 126,38.987507 137.10295,54 z M 301.03725,49.5 286.04618,29.035226 271,49.5 286.04618,69.964774 z M 64,60.370632 52.59737,45 41.711354,61.353028 52.571707,76 z m 143.10391,2.510746 -16.17396,-20.12341 -15.14773,20.207561 16.2952,20.276503 z M 285,99.77843 269.57049,79.175952 254.09898,99.772802 270.08689,119.78781 z M 346.71406,102.5 367.5,93.100232 347.10341,83.700994 337.00746,64 327.59335,83.330965 306.7052,93.183872 327.5,103.10639 336.99049,122 z M 156.5,110.79431 130.5,98.351503 117.94188,73.70704 106.28862,98.490423 79.917914,110.77983 l 26.262906,12.63978 11.97053,25.87838 12.28963,-26.57949 z m 53.54516,31.19544 -12.90369,-17.10718 -13.04542,17.29509 L 197,158.91599 z M 86.366597,169.2757 75.40263,153 64,168.37063 c 0,0 11.357813,15.66374 11.993207,14.92435 3.501478,-4.93425 10.37339,-14.01928 10.37339,-14.01928 z M 155,188 l -11.10295,-15 -11.94463,15 11.94463,15 z M 281.91888,188.87173 302,178.94124 282.4791,169.11966 271.96319,149 262.12725,169.02806 242,178.9787 262.2573,189.37022 271.97812,209 z M 73.877124,290.93293 C 86.784461,288.1648 87.790205,275.53431 75.377725,272.08785 64.866347,269.16925 54,273.95346 54,281.5 c 0,5.34441 4.97094,8.98241 14.200779,10.39291 0.385428,0.0589 2.939783,-0.37309 5.676345,-0.95998 z m 284.437806,6.99656 C 363.43875,296.50667 366,293.75542 366,289.67431 c 0,-11.37631 -24.83041,-11.99445 -25.79451,-0.64214 -0.62418,7.34976 8.15304,11.66208 18.10944,8.89732 z M 49.770392,307.99856 c 12.856431,-7.83859 -2.09529,-20.57381 -16.485104,-14.04129 -4.670207,2.12013 -6.22752,5.43382 -4.668221,9.93316 1.977106,5.70493 14.534471,8.14366 21.153325,4.10813 z m 192.857848,6.86483 c 2.88153,-0.72558 5.23668,-2.11424 6.5126,-3.84001 l 1.99872,-2.70341 3.94357,1.95112 c 4.89102,2.41989 16.7363,2.66685 22.02017,0.45911 2.61616,-1.0931 4.07141,-1.21193 5.44283,-0.44445 2.86614,1.60397 12.54293,1.25062 16.08269,-0.58726 3.43701,-1.78454 4.37118,-3.4259 4.37118,-7.68028 0,-1.88748 1.1559,-3.97411 3.5,-6.31821 9.97981,-9.97981 -3.18567,-20.56314 -20.50395,-16.48249 -0.65939,0.15537 -1.75502,-1.51751 -2.43475,-3.71751 -1.8128,-5.86731 -5.69225,-13.0198 -11.66144,-21.5 -6.84856,-9.72951 -37.31706,-40.24067 -51.36784,-51.43979 -21.97428,-17.51449 -24.94175,-17.4733 -47.78777,0.66341 -38.78488,30.79007 -64.45056,59.03304 -67.26129,74.01552 -0.55492,2.95795 -1.22239,3.76436 -3.53653,4.27263 -14.306283,3.14218 -7.735406,19.19867 7.04545,17.21614 3.50339,-0.4699 4.00812,-0.28945 4.00812,1.43299 0,9.05502 17.64596,12.50236 24.78301,4.84164 1.91328,-2.05366 2.15873,-2.07248 7.84603,-0.60149 13.65251,3.53114 29.98204,4.83516 54.54167,4.35549 l 23.67071,-0.46231 2.02656,2.74108 c 1.15774,1.56592 3.65686,3.17342 5.82929,3.74953 5.18274,1.37443 5.76789,1.37863 10.93097,0.0786 z m 107.54788,12.54553 c 9.53645,-4.93149 6.50949,-15.1999 -5.17612,-17.55906 -18.80677,-3.79681 -27.87925,14.59515 -9.5,19.25865 3.80844,0.96634 11.16918,0.11392 14.67612,-1.69959 z m -135.43689,2.94503 c 6.15693,-4.57768 3.49794,-12.32251 -4.98923,-14.53211 -14.09764,-3.67027 -24.67955,8.23419 -13.53456,15.22613 4.36659,2.73944 14.41203,2.36307 18.52379,-0.69402 z m -84.58246,2.24756 c 1.8251,-0.95224 4.66244,-1.22518 9.06381,-0.87188 11.42205,0.91686 18.09381,-4.55598 14.68216,-12.04374 -2.42355,-5.31911 -13.99703,-7.41595 -20.83391,-3.77461 -2.70718,1.44185 -4.15085,1.62874 -6.84189,0.88571 -13.09434,-3.61552 -23.60595,9.59107 -12.4518,15.64421 3.46191,1.87871 12.91088,1.97117 16.38163,0.16031 z m -57.702432,5.98202 C 83.379408,334.01874 78.565644,322 65.812279,322 c -9.608413,0 -15.495095,5.30968 -13.182564,11.89043 1.836943,5.22737 12.502861,7.75232 19.824623,4.6931 z M 179.12656,353.9815 c 8.16769,-2.26872 11.57721,-10.36864 6.50117,-15.44468 -6.17373,-6.17373 -20.72442,-5.77592 -26.18696,0.71594 -7.51172,8.92717 5.5065,18.6673 19.68579,14.72874 z M 309.5,362.52613 c 1.65,-0.68755 3.85724,-2.21221 4.90499,-3.38811 1.27616,-1.43227 3.09168,-2.13925 5.5,-2.14176 10.34456,-0.0108 14.67583,-10.29346 6.57232,-15.60309 -3.52559,-2.31005 -12.91124,-2.37094 -17.38095,-0.11276 C 304.01775,343.84623 296,343.63431 296,340.93426 c 0,-5.55468 -5.28681,-9.07712 -13.62378,-9.07712 -16.75036,0 -17.93593,16.88951 -1.22838,17.49937 3.4817,0.12709 3.87065,0.38716 3.40233,2.27496 -2.40297,9.6863 12.3695,16.1369 24.94983,10.89466 z m -53,5.93487 C 269.60867,362.03447 262.40948,347 246.22349,347 226.21438,347 221.17843,363.28029 239,370.35221 c 2.99141,1.18704 13.54815,0.0462 17.5,-1.89121 z m -112.32388,1.94792 c 7.88434,-4.07715 7.79886,-12.34039 -0.16972,-16.40565 -8.19345,-4.17999 -22.24749,-1.16393 -24.44837,5.24673 -3.3993,9.9014 12.82685,17.25641 24.61809,11.15892 z"
     inkscape:connector-curvature="0"
     sodipodi:nodetypes="cccccccccccccccccccccccccccccccccccccccccccccccccccccccccccccccccccssssssssssssscscsssssssssssssssssscssccsssssssssssssssssssssssssssssssssssssssss" />
</svg>
