<?xml version="1.0" encoding="UTF-8" standalone="no"?>
<!-- Created with Inkscape (http://www.inkscape.org/) -->

<svg
   xmlns:dc="http://purl.org/dc/elements/1.1/"
   xmlns:cc="http://creativecommons.org/ns#"
   xmlns:rdf="http://www.w3.org/1999/02/22-rdf-syntax-ns#"
   xmlns:svg="http://www.w3.org/2000/svg"
   xmlns="http://www.w3.org/2000/svg"
   xmlns:sodipodi="http://sodipodi.sourceforge.net/DTD/sodipodi-0.dtd"
   xmlns:inkscape="http://www.inkscape.org/namespaces/inkscape"
   id="svg2"
   version="1.1"
   inkscape:version="0.48.3.1 r9886"
   width="400"
   height="400"
   sodipodi:docname="Icon.5_75.png">
  <metadata
     id="metadata8">
    <rdf:RDF>
      <cc:Work
         rdf:about="">
        <dc:format>image/svg+xml</dc:format>
        <dc:type
           rdf:resource="http://purl.org/dc/dcmitype/StillImage" />
        <dc:title></dc:title>
      </cc:Work>
    </rdf:RDF>
  </metadata>
  <defs
     id="defs6" />
  <sodipodi:namedview
     pagecolor="#ffffff"
     bordercolor="#666666"
     borderopacity="1"
     objecttolerance="10"
     gridtolerance="10"
     guidetolerance="10"
     inkscape:pageopacity="0"
     inkscape:pageshadow="2"
     inkscape:window-width="1855"
     inkscape:window-height="1056"
     id="namedview4"
     showgrid="false"
     inkscape:zoom="0.834386"
     inkscape:cx="104.18917"
     inkscape:cy="334.03588"
     inkscape:window-x="65"
     inkscape:window-y="24"
     inkscape:window-maximized="1"
     inkscape:current-layer="svg2" />
  <path
     style="fill:#000000;fill-opacity:1;stroke:none"
     d="m 0,0 400,0 0,400 -400,0 z"
     id="rect3037" />
  <path
     id="path2989"
     style="fill:#ffffff"
     d="m 224.47491,110.14158 c -0.30384,-0.30384 -5.249,4.15251 -10.98925,9.90299 L 203.04883,130.5 213.77442,154 224.5,177.5 l 0.26367,-33.403 c 0.14502,-18.37164 0.0151,-33.65159 -0.28876,-33.95542 z m 60.54258,35.55765 c 11.11787,-26.84042 20.01275,-49.002327 19.76639,-49.24868 -0.24635,-0.246353 -6.43439,3.81542 -13.75119,9.02617 -7.3168,5.21074 -13.60341,9.28859 -13.97024,9.06188 -0.36682,-0.22671 -6.04344,-9.21039 -12.6147,-19.96373 -6.8477,-11.205698 -12.06959,-18.809497 -12.23318,-17.813198 -0.15698,0.956081 2.20552,27.658508 5.25,59.338728 3.04449,31.68023 5.53543,58.20773 5.53543,58.95 0,0.83732 0.34222,0.989 0.90159,0.3996 0.49588,-0.5225 9.99803,-22.91035 21.1159,-49.75077 z m 25.158,55.89761 c 10.07848,-8.19674 18.26539,-15.48898 18.19312,-16.20498 C 328.01782,181.91606 320.59482,155 319.98704,155 c -0.38333,0 -2.52896,3.9375 -4.76805,8.75 -2.2391,4.8125 -8.81192,18.79419 -14.60628,31.07042 -5.79436,12.27622 -10.13617,22.17622 -9.64846,22 0.48771,-0.17623 9.13277,-7.02684 19.21124,-15.22358 z m -129.25882,47.00317 c -0.22917,-0.22 -11.15998,-9.22 -24.29068,-20 C 134.90008,210.76355 132.4102,209 128.95356,209 c -2.08912,0 -14.91824,-0.69008 -28.50914,-1.53351 -13.590908,-0.84343 -24.882876,-1.36137 -25.093266,-1.15098 -0.300889,0.30089 13.532267,12.75111 23.786663,21.40865 0.900803,0.76052 18.900803,5.81806 40.000003,11.23897 34.76049,8.93084 43.03048,10.83843 41.77885,9.63688 z M 123,286 l 27.5,-14.98111 -27.5,-0.0134 -27.5,-0.0134 -18.766187,8.15443 c -10.321403,4.48494 -18.600685,8.31994 -18.398404,8.52222 0.53993,0.53993 34.988141,13.14898 36.164591,13.2373 0.55,0.0413 13.375,-6.66643 28.5,-14.90604 z m 37.30656,18 c 9.69631,-7.425 17.644,-13.77171 17.66154,-14.10381 0.034,-0.64319 -46.68119,10.48356 -47.51484,11.31722 -0.45542,0.45541 1.27828,9.03883 3.65288,18.08514 l 0.99709,3.79855 3.78685,-2.79855 C 140.97284,318.75935 150.61026,311.425 160.30656,304 z m 175.28689,66.93471 c 7.60824,-2.66032 17.66179,-4.5776 28.65655,-5.46502 l 8.75,-0.70624 0,-6.88173 0,-6.88172 -6.82378,0 c -14.98269,0 -36.20125,5.2422 -46.67622,11.53169 -6.11796,3.6734 -11.5,8.19217 -11.5,9.6554 0,0.4471 4.87955,0.81291 10.84345,0.81291 8.38445,0 12.18289,-0.46835 16.75,-2.06529 z m -63.0923,-5.0222 c 14.34766,-17.75782 39.55368,-31.55422 67.64202,-37.02355 3.49626,-0.68079 12.33666,-1.27181 19.64535,-1.31338 l 13.28851,-0.0756 -0.28851,-7 -0.28852,-7 -15,0.0704 c -16.12756,0.0756 -21.52755,0.8902 -36.88699,5.56426 -20.98944,6.38733 -38.89295,16.83691 -52.6822,30.74853 C 260.76797,357.10955 252,369.47267 252,372.3461 c 0,0.35964 3.32431,0.6539 7.38736,0.6539 l 7.38736,0 5.72643,-7.08749 z m -59.75883,0.1447 c 9.38565,-19.98285 29.16013,-42.11583 50.26461,-56.25964 29.83417,-19.99427 63.19582,-30.11858 93.80003,-28.46562 6.43117,0.34735 12.70554,0.91724 13.94304,1.26643 2.19047,0.61809 2.25,0.43548 2.25,-6.90215 l 0,-7.53704 -6.62632,-0.70962 c -10.90265,-1.16758 -35.78088,0.16831 -46.37368,2.49014 -27.20404,5.96281 -53.24699,18.22864 -75.5,35.55934 -11.25196,8.76306 -27.03574,25.50272 -34.33302,36.41228 -6.25012,9.34403 -13.48364,23.27453 -14.71508,28.33867 l -0.66872,2.75 7.35841,-0.0198 7.35841,-0.0198 3.24232,-6.90318 z m -48.88279,0.41355 c 20.47011,-57.07718 78.57923,-108.75278 139.89731,-124.40867 19.2166,-4.90644 44.71849,-6.43508 61.49316,-3.68604 l 7.75,1.27007 0,-7.21465 c 0,-8.48366 1.10705,-7.81822 -15.63301,-9.39686 -21.7238,-2.04862 -44.55396,0.98471 -72.50666,9.63362 -1.45416,0.44993 -1.72159,-1.3496 -2.36362,-15.90471 -0.39817,-9.02662 -1.01032,-19.03835 -1.36033,-22.24828 L 280.5,188.679 l -9.88703,19.29263 -9.88703,19.29262 -10.82418,-29.76 C 239.48598,168.86708 238,165.17396 238,167.92461 c 0,1.51055 -4.99929,45.25112 -5.29501,46.32789 -0.11366,0.41388 -16.82929,-25.37491 -37.14583,-57.30841 -20.31655,-31.93351 -37.26197,-58.260419 -37.6565,-58.504249 -0.39452,-0.243829 -13.61094,2.530529 -29.36982,6.165249 -15.75888,3.63472 -28.775101,6.448 -28.924939,6.25174 C 99.458063,110.66058 90.627148,91.825 79.983647,69 69.340145,46.175 60.209565,26.9375 59.693468,26.25 59.007672,25.336441 54.212476,25 41.877555,25 L 25,25 l 0,14.372227 0,14.372226 27.634423,46.377777 c 15.198932,25.50777 27.944503,46.72584 28.323491,47.15126 0.378988,0.42542 14.580004,-2.62074 31.557816,-6.76925 16.97781,-4.14851 31.21015,-7.42158 31.62742,-7.27349 0.77998,0.27681 54.70043,82.27242 55.58227,84.52269 0.27016,0.68939 -11.75113,-5.97952 -26.71396,-14.81981 -14.96284,-8.84029 -27.36019,-15.91823 -27.54967,-15.72876 -0.18947,0.18948 14.49577,16.49423 32.63388,36.23279 18.13811,19.73856 32.62422,36.2062 32.19136,36.59476 -0.43287,0.38855 -9.56203,2.14933 -20.28703,3.91282 -10.725,1.7635 -20.58984,3.53553 -21.92186,3.93785 -1.94466,0.58735 1.35526,2.07596 16.74728,7.55477 l 19.16916,6.82328 -9.5433,9.94276 c -15.69104,16.34783 -27.65694,33.65482 -37.6244,54.41843 C 152.50597,355.62338 147,369.94054 147,372.17515 147,372.62882 150.26652,373 154.25894,373 l 7.25895,0 2.34164,-6.52924 z" />
</svg>
