<?xml version="1.0" encoding="UTF-8" standalone="no"?>
<!-- Created with Inkscape (http://www.inkscape.org/) -->

<svg
   xmlns:dc="http://purl.org/dc/elements/1.1/"
   xmlns:cc="http://creativecommons.org/ns#"
   xmlns:rdf="http://www.w3.org/1999/02/22-rdf-syntax-ns#"
   xmlns:svg="http://www.w3.org/2000/svg"
   xmlns="http://www.w3.org/2000/svg"
   version="1.1"
   width="400"
   height="400"
   id="svg2">
  <metadata
     id="metadata8">
    <rdf:RDF>
      <cc:Work
         rdf:about="">
        <dc:format>image/svg+xml</dc:format>
        <dc:type
           rdf:resource="http://purl.org/dc/dcmitype/StillImage" />
        <dc:title></dc:title>
      </cc:Work>
    </rdf:RDF>
  </metadata>
  <defs
     id="defs6" />
  <path
     d="m 0,0 400,0 0,400 -400,0 z"
     id="rect3038"
     style="fill:#000000;fill-opacity:1;stroke:none" />
  <path
     d="m 246.94684,144.0718 c 4.8774,-4.67285 4.58031,-11.76283 -0.66039,-15.76011 -2.31361,-1.76467 -3.60102,-2.13982 -7.34343,-2.13982 -4.02972,0 -4.80829,0.27033 -6.95161,2.41365 -3.12871,3.12871 -4.29247,7.94495 -2.78915,11.54291 2.76307,6.61295 12.66201,8.81279 17.74458,3.94337 z m -54.5278,35.60812 c 2.35654,-0.88169 5.51113,-2.89269 7.19507,-4.58673 2.93708,-2.95471 3.09619,-3.0097 7.74697,-2.67711 6.14642,0.43953 9.07222,-1.24838 11.02438,-6.36003 1.16488,-3.05021 1.2337,-4.0881 0.44552,-6.71882 -1.10791,-3.69789 -5.63443,-7.10202 -9.60947,-7.22674 -2.30014,-0.0722 -2.78803,-0.51004 -4.48517,-4.02542 -2.75143,-5.69918 -9.83881,-12.46784 -16.21946,-15.49006 -4.76556,-2.25723 -6.03914,-2.51631 -12.34501,-2.51128 -8.27695,0.006 -11.71341,1.43494 -17.31227,7.19574 -5.24275,5.3944 -6.10405,7.46651 -6.09921,14.67365 0.004,5.3314 0.32741,6.86809 2.20326,10.45531 7.56805,14.47249 24.30669,22.19105 37.45539,17.27149 z m 91.79306,50.88585 c 4.73805,-2.43683 9.36635,-7.34598 11.67029,-12.37846 1.65352,-3.61176 1.90943,-5.10096 1.58057,-9.19776 -0.78011,-9.71859 -8.64444,-19.86021 -19.33796,-24.93772 -4.44373,-2.10998 -5.90772,-2.41025 -11.71875,-2.40357 -7.97574,0.009 -11.99216,1.57941 -17.0555,6.66796 -5.13866,5.16426 -6.722,8.73372 -6.74942,15.21583 -0.0196,4.64555 0.36834,6.28052 2.53469,10.68101 3.90464,7.93143 11.73914,14.51668 20.8796,17.55024 4.66135,1.54702 14.06316,0.92828 18.19648,-1.19753 z m -66.71014,0.87954 c 1.09195,-8.78841 3.69294,-40.0708 3.45827,-41.59303 -0.22482,-1.45826 -2.60506,-0.0137 -18.95421,11.5032 -10.2834,7.24397 -18.80215,13.50596 -18.93054,13.9155 -0.20268,0.64654 32.0867,19.82416 33.45277,19.8686 0.28195,0.009 0.72012,-1.65325 0.97371,-3.69427 z m -5.10003,53.89007 -5.1762,-2.91351 3.80504,-6.64062 c 2.09277,-3.65234 3.80682,-6.87353 3.809,-7.15819 0.005,-0.58718 -12.51809,-7.94618 -12.84967,-7.55119 -0.11831,0.14093 -1.87573,3.15665 -3.90536,6.70157 -2.02963,3.54492 -3.9794,6.44531 -4.33283,6.44531 -0.98803,0 -9.37691,-4.94834 -9.37691,-5.53116 0,-0.28293 1.63139,-3.39386 3.62531,-6.91319 2.38847,-4.21572 3.36187,-6.66222 2.85314,-7.17095 -0.97194,-0.97194 -11.16484,-6.949 -11.83852,-6.94204 -0.27462,0.003 -2.19234,2.99111 -4.2616,6.64062 -2.06927,3.64951 -3.97181,6.63547 -4.22786,6.63547 -0.25606,0 -2.64743,-1.27634 -5.31417,-2.83632 l -4.8486,-2.83631 3.80302,-6.46151 c 2.09167,-3.55383 3.80303,-6.77784 3.80303,-7.16449 0,-0.91001 -11.50391,-7.46603 -12.50985,-7.1293 -0.42071,0.14083 -2.44115,3.1343 -4.48988,6.65216 l -3.72494,6.3961 -5.63071,-3.12293 -5.63071,-3.12293 3.10071,-6.00755 c 3.70041,-7.16944 4.88322,-13.73239 4.52421,-25.10297 -0.13651,-4.32361 0.0334,-7.86034 0.37747,-7.8594 0.34413,7.8e-4 5.57289,1.24755 11.61947,2.77026 6.04657,1.52271 11.06456,2.66529 11.15108,2.53907 0.31328,-0.45703 3.5569,-12.93729 3.5569,-13.68565 0,-0.4225 -9.4043,-3.16545 -20.89844,-6.09545 -11.49414,-2.93 -21.0541,-5.45159 -21.24435,-5.60355 -0.3354,-0.26787 2.11524,-8.44485 10.19656,-34.02255 3.30819,-10.47055 4.57285,-13.32797 8.49213,-19.18735 5.46187,-8.16558 12.74526,-16.21163 20.184,-22.29749 2.96844,-2.42857 5.57394,-4.41559 5.78999,-4.41559 0.21606,0 0.97085,1.51353 1.67733,3.3634 1.51951,3.97878 5.7604,8.29183 10.64653,10.82766 4.67137,2.42438 15.21102,2.61241 19.75992,0.35253 2.93363,-1.45742 2.98016,-1.45596 4.6875,0.14682 2.6362,2.47477 8.3998,4.80653 11.8807,4.80653 4.14831,0 9.1304,-2.348 11.22565,-5.29053 0.93285,-1.31005 2.07916,-4.28942 2.54737,-6.62081 1.78256,-8.87599 -4.06749,-15.47618 -14.226,-16.05019 -5.06694,-0.2863 -5.35021,-0.40647 -6.11244,-2.59299 -0.43959,-1.26103 -1.52102,-3.30639 -2.40317,-4.54526 -1.49798,-2.10371 -1.51276,-2.27915 -0.22391,-2.65626 3.66202,-1.07149 11.54651,-2.11402 19.36522,-2.56059 l 8.6395,-0.49343 -0.29086,3.04992 c -0.23324,2.44572 0.2249,3.82166 2.31265,6.94562 2.11851,3.17001 3.74577,4.47574 8.73548,7.00942 5.1265,2.60316 7.06384,3.16079 11.81498,3.40071 6.75233,0.34097 11.71889,-1.44775 14.51293,-5.22689 l 1.76656,-2.38939 4.56953,3.20534 c 6.03806,4.23546 15.7885,14.48983 20.42614,21.48183 13.63005,20.54954 19.34498,49.5893 14.94842,75.9586 -2.36263,14.17032 -9.68464,32.50317 -15.5939,39.04402 -1.4945,1.65423 -2.71726,3.31664 -2.71725,3.69425 2e-5,0.37761 1.19121,1.63701 2.6471,2.79867 3.11703,2.48707 5.94663,7.91154 5.94663,11.39993 0,2.09034 0.47433,2.71382 3.07338,4.03975 1.69035,0.86236 3.62394,2.35398 4.29687,3.31472 2.55973,3.65453 0.87105,10.39727 -3.05155,12.18452 -2.58461,1.17763 -6.78842,1.19842 -9.31754,0.0461 -1.60132,-0.72961 -2.57811,-0.59079 -5.497,0.78125 -4.38497,2.06118 -11.81639,2.22331 -17.23777,0.37605 -3.27912,-1.11731 -6.20391,-3.73785 -21.58086,-19.33594 l -17.78766,-18.04348 -5.24885,5.2134 -5.24886,5.21341 7.94055,8.37923 c 4.3673,4.60857 7.94054,8.6085 7.94054,8.88873 0,0.28023 -1.62255,1.29781 -3.60566,2.26127 -10.13409,4.92352 -19.05915,12.32377 -22.73959,18.85461 -1.45831,2.58774 -2.8948,4.6977 -3.19218,4.6888 -0.29738,-0.009 -2.86998,-1.32726 -5.71689,-2.92969 z m 92.67619,26.4341 c -8.94001,-2.17644 -13.56278,-9.1095 -11.41882,-17.12553 1.96905,-7.36205 6.14715,-10.5739 13.82384,-10.62682 8.63038,-0.0595 15.19381,5.84177 15.15595,13.62693 -0.0342,7.03693 -3.87655,12.13889 -10.52972,13.98167 -3.45361,0.95657 -3.67393,0.96108 -7.03125,0.14375 z m 33.49868,14.45168 c -4.71814,-2.05345 -6.34451,-7.25974 -3.80309,-12.1743 1.50835,-2.91683 3.61537,-4.02161 7.79029,-4.08473 6.51096,-0.0984 10.65258,4.98884 9.01438,11.07264 -1.46817,5.45238 -7.16708,7.7257 -13.00158,5.18639 z m -92.3741,1.78867 c -8.94258,-2.57338 -16.5152,-12.26787 -16.5152,-21.14285 0,-6.54419 5.24877,-14.0915 12.1471,-17.46653 3.66202,-1.79167 5.00307,-2.05 8.83691,-1.70236 2.48585,0.2254 5.92269,1.12556 7.6374,2.00035 l 3.11768,1.59052 1.43329,-2.66144 c 1.7809,-3.30694 4.36504,-5.05339 7.66057,-5.17728 5.48159,-0.20608 10.72061,4.77396 10.72663,10.19636 0.004,3.61946 -4.96663,8.69715 -8.5138,8.69715 -2.29815,0 -2.41319,0.13362 -1.84973,2.14844 0.92882,3.32128 0.46386,9.15736 -0.94689,11.88547 -4.85043,9.37969 -14.73187,14.22265 -23.73396,11.63217 z m -91.56174,-20.2867 c -21.67362,-12.48966 -40.18401,-23.20317 -41.13421,-23.80779 -1.72144,-1.09536 -1.70077,-1.14616 5.77297,-14.187 4.12532,-7.19825 7.93679,-13.56036 8.46991,-14.13804 0.80276,-0.86984 1.85804,-0.53919 6.1411,1.92422 2.84447,1.63599 5.17177,3.25399 5.17177,3.59553 0,0.34156 -1.8043,3.7944 -4.00955,7.673 -2.20526,3.87861 -3.87518,7.16799 -3.71094,7.30975 0.16423,0.14175 3.08869,1.87864 6.49876,3.85972 l 6.20015,3.60199 4.21087,-7.20128 c 2.31597,-3.96071 4.3439,-7.33433 4.50649,-7.49693 0.1626,-0.1626 2.58469,1.0434 5.38242,2.68 l 5.08678,2.97565 -1.41924,2.39246 c -0.78058,1.31586 -2.70207,4.54782 -4.26998,7.18216 -1.56792,2.63434 -2.85076,4.97661 -2.85076,5.20506 0,0.91271 12.7129,7.6796 13.2784,7.0679 0.33376,-0.36102 2.3345,-3.7058 4.44608,-7.43283 l 3.83924,-6.77642 5.14737,2.87098 5.14738,2.87097 -4.25721,7.22476 c -2.34146,3.97362 -4.05201,7.55678 -3.80121,7.96258 0.72059,1.16595 12.1836,7.29095 12.69256,6.78198 0.2518,-0.2518 2.257,-3.58242 4.45598,-7.40137 l 3.99814,-6.94355 5.53472,3.17651 5.53474,3.17651 -8.14736,14.10027 c -4.48105,7.75515 -8.22868,14.1816 -8.32807,14.28099 -0.0994,0.0994 -17.91368,-10.03811 -39.5873,-22.52778 z m 137.93716,31.06572 c -3.72751,-1.71027 -5.44926,-4.14812 -5.35906,-7.58799 0.21988,-8.38547 9.9205,-12.0661 15.93899,-6.04762 1.86105,1.86105 2.3107,2.98074 2.3107,5.75391 0,6.61348 -6.71126,10.71694 -12.89063,7.8817 z m 94.92188,14.91494 0,-33.79621 -16.07984,-16.00848 c -20.69432,-20.60247 -28.40247,-30.3871 -36.13184,-45.86526 -8.09849,-16.21735 -9.89837,-30.0391 -5.61755,-43.13889 14.0155,-42.88911 3.71593,-91.0966 -25.71727,-120.37053 -17.84992,-17.75331 -38.76202,-26.84283 -64.18739,-27.89927 -15.48268,-0.64331 -26.37034,0.94894 -44.06299,6.44394 -6.24089,1.9383 -8.21678,2.18296 -17.57812,2.17655 -11.97243,-0.008 -18.06255,-1.29282 -29.09213,-6.13654 C 132.71198,61.94165 121.20268,53.32874 100.34491,32.67381 L 83.111695,15.60818 49.173036,15.8119 15.234375,16.01562 15.033382,66.54723 14.83239,117.07884 43.158382,142.57159 c 29.957675,26.96123 35.398704,32.50346 42.91672,43.7149 21.131168,31.51244 24.165948,64.96468 8.639718,95.23487 -2.881953,5.61869 -3.340437,7.04444 -2.450375,7.61986 3.080953,1.99184 105.251215,60.85387 106.378385,61.28641 0.9633,0.36965 1.7743,-0.26404 3.00295,-2.34646 3.85051,-6.52613 13.33581,-11.27847 23.74484,-11.89669 11.59118,-0.68843 25.93775,4.42154 47.56002,16.94001 8.0678,4.67095 11.84159,7.62407 25.46784,19.92949 l 15.9966,14.44602 36.54246,0 36.54246,0 0,-33.79621 z"
     id="path2989"
     style="fill:#ffffff" />
</svg>
