<?xml version="1.0" encoding="UTF-8" standalone="no"?>
<!-- Created with Inkscape (http://www.inkscape.org/) -->

<svg
   xmlns:dc="http://purl.org/dc/elements/1.1/"
   xmlns:cc="http://creativecommons.org/ns#"
   xmlns:rdf="http://www.w3.org/1999/02/22-rdf-syntax-ns#"
   xmlns:svg="http://www.w3.org/2000/svg"
   xmlns="http://www.w3.org/2000/svg"
   xmlns:sodipodi="http://sodipodi.sourceforge.net/DTD/sodipodi-0.dtd"
   xmlns:inkscape="http://www.inkscape.org/namespaces/inkscape"
   id="svg2"
   version="1.1"
   inkscape:version="0.48.3.1 r9886"
   width="400"
   height="400"
   sodipodi:docname="Icon.5_33.png">
  <metadata
     id="metadata8">
    <rdf:RDF>
      <cc:Work
         rdf:about="">
        <dc:format>image/svg+xml</dc:format>
        <dc:type
           rdf:resource="http://purl.org/dc/dcmitype/StillImage" />
        <dc:title></dc:title>
      </cc:Work>
    </rdf:RDF>
  </metadata>
  <defs
     id="defs6" />
  <sodipodi:namedview
     pagecolor="#ffffff"
     bordercolor="#666666"
     borderopacity="1"
     objecttolerance="10"
     gridtolerance="10"
     guidetolerance="10"
     inkscape:pageopacity="0"
     inkscape:pageshadow="2"
     inkscape:window-width="1216"
     inkscape:window-height="1000"
     id="namedview4"
     showgrid="false"
     inkscape:zoom="0.59"
     inkscape:cx="200"
     inkscape:cy="200"
     inkscape:window-x="64"
     inkscape:window-y="24"
     inkscape:window-maximized="1"
     inkscape:current-layer="svg2" />
  <path
     style="fill:#000000;fill-opacity:1;stroke:none"
     d="m 0,0 400,0 0,400 -400,0 z"
     id="rect3066" />
  <path
     id="path2989"
     style="fill:#ffffff"
     d="M 305.45,63.13113 C 301.41928,59.444634 285.48045,49.785406 275.54315,45.007018 254.49805,34.887403 235.91721,29.874895 212.62853,28.034695 199.92045,27.030542 189.02922,27.234714 180,28.646365 c -3.15969,0.493993 -2.62283,0.76939 5.52141,2.832358 14.96427,3.790513 30.90529,10.95626 46.33631,20.828927 l 6.35771,4.067626 13.64229,-0.235814 c 15.84561,-0.273899 33.09326,1.743647 44.68086,5.226551 9.22793,2.773657 10.23147,2.97243 8.91142,1.765117 z M 183.94434,68.451976 C 192.47588,65.471237 213.27028,60 216.06758,60 c 3.96084,0 1.65592,-1.828312 -8.0756,-6.405747 C 196.28159,48.086009 189.49162,45.628732 178.5,42.921158 169.48076,40.699441 149.72264,39.449214 143.15618,40.684721 l -4.34383,0.817308 9.34383,6.185519 c 5.1391,3.402035 13.61882,10.0356 18.84382,14.741255 5.225,4.705655 9.53405,8.559215 9.57567,8.563467 0.0416,0.0043 3.35752,-1.138881 7.36867,-2.540294 z m 108.06226,31.53498 c 7.40412,-2.147107 22.88723,-4.85049 31.64046,-5.524492 l 9.14707,-0.704327 -3.14707,-2.693609 C 315.81805,79.228112 290.90145,70.763098 265.59901,69.305233 l -10.901,-0.628089 11.901,11.599365 c 6.54554,6.37965 13.47599,13.635258 15.40099,16.123572 3.74909,4.846189 4.60544,5.153149 10.0066,3.586875 z M 130.5,93.809708 c 4.95,-3.091758 14.32453,-8.284752 20.83229,-11.539988 l 11.8323,-5.918609 -5.8323,-5.347384 C 144.85512,59.563932 130.76014,50.980016 122.03142,49.505308 107.94441,47.125324 103.38138,67.072937 110.64515,99.281133 l 1.52932,6.781137 4.66276,-3.31559 C 119.40176,100.9231 125.55,96.901467 130.5,93.809708 z m 123,19.534012 c 8.8,-3.52454 16.9,-6.78574 18,-7.2471 1.76816,-0.7416 0.49302,-2.33557 -11,-13.750456 -7.15,-7.101389 -15.80715,-15.056576 -19.23812,-17.678193 l -6.23811,-4.766577 -7.91432,1.083621 c -8.70239,1.191522 -32.77195,7.024835 -37.80644,9.162477 L 186.11763,81.5 l 6.4846,7.5 c 3.56653,4.125 11.66692,14.3389 18.00086,22.69756 l 11.51625,15.19756 7.69033,-3.57157 C 234.03935,121.35918 244.7,116.86826 253.5,113.34372 z m -160.242849,8.00641 7.757149,-7.0179 -1.931518,-7.91612 C 96.904388,97.488216 95.287968,87.236061 94.223129,75.593732 L 93.5,67.687463 89.376154,73.593732 C 78.536104,89.119104 71.891981,108.67236 70.490182,129.17402 70.177074,133.75331 69.709133,139.3 69.450313,141.5 l -0.470582,4 8.260135,-8.56599 c 4.543074,-4.71129 11.750852,-11.72404 16.017285,-15.58388 z M 330.49175,155 c 6.47689,-7.24264 15.39232,-20.38174 17.98136,-26.5 0.93097,-2.2 1.76786,-6.18588 1.85978,-8.85752 0.15067,-4.37962 -0.16237,-5.13278 -3.18185,-7.65544 -6.72575,-5.6191 -21.5966,-6.27132 -42.10499,-1.84669 -5.25033,1.13275 -9.7124,2.21841 -9.91572,2.4126 -0.20332,0.19418 1.19753,2.5117 3.113,5.15005 5.48972,7.56149 15.60399,24.80294 20.54303,35.01899 2.48446,5.13892 4.82666,9.21626 5.20491,9.06075 0.37824,-0.15551 3.30345,-3.20774 6.50048,-6.78274 z M 176,151.83369 c 7.975,-4.68079 18.89318,-10.86702 24.26262,-13.74718 6.29904,-3.3788 9.52251,-5.6535 9.08584,-6.41158 C 208.97623,131.02872 204.81307,125.325 200.09698,119 187.99729,102.77244 174.25103,86.998154 172.21996,87.010203 169.93665,87.023748 147.3655,98.394494 137.40876,104.54716 127.08077,110.92923 116,118.93504 116,120.0149 c 0,2.76423 11.87308,33.74152 18.88508,49.27183 l 3.06423,6.78672 11.77534,-7.86461 C 156.20109,163.8833 168.025,156.51448 176,151.83369 z m 103.5,48.79565 c 18.8117,-14.12576 33.5,-26.9014 33.5,-29.13775 0,-0.67006 -2.73737,-6.79229 -6.08305,-13.60494 C 297.56854,138.85089 283.43862,117 280.4775,117 276.87662,117 230,136.52959 230,138.02978 c 0,0.38473 3.76799,6.72292 8.37331,14.08487 9.19837,14.70429 21.3113,36.10231 27.21513,48.07676 2.18989,4.44164 4.23989,7.42812 4.85185,7.06828 0.58284,-0.34272 4.65971,-3.32638 9.05971,-6.63035 z M 344.71182,210.75 c 6.37857,-12.59795 10.66973,-24.50501 13.42445,-37.25 2.26911,-10.49825 1.49302,-40.34466 -0.87606,-33.69133 -1.22586,3.44268 -11.24791,16.94404 -19.38056,26.1088 l -9.05027,10.19885 1.49904,3.74646 c 2.20929,5.52156 7.34729,23.70095 8.72959,30.88722 0.66121,3.4375 1.4918,6.25 1.84576,6.25 0.35396,0 2.06758,-2.8125 3.80805,-6.25 z M 117.25,191.32558 c 5.3625,-4.06926 9.75,-7.57896 9.75,-7.79932 0,-0.22036 -2.65078,-6.39142 -5.89062,-13.71346 C 115.4545,157.03277 106,132.13045 106,130.01603 106,129.45721 105.42612,129 104.72472,129 c -1.66793,0 -22.173067,20.6575 -28.786101,29 l -5.152502,6.5 0.620197,6.10756 c 1.110005,10.93106 7.147339,35.29326 11.076826,44.69785 l 1.556468,3.72515 11.730196,-10.15316 C 102.22141,203.29317 111.8875,195.39485 117.25,191.32558 z m -86.265313,27.30107 c 0.0579,-7.08316 13.526652,-38.12654 21.876879,-50.4228 l 3.876141,-5.70787 0.514648,-20.49799 c 0.508559,-20.25551 1.771972,-29.89412 5.415208,-41.31277 0.844913,-2.648133 1.328262,-5.022728 1.074109,-5.276881 -0.945117,-0.945117 -12.653147,17.687781 -18.031371,28.696261 -11.093533,22.70693 -17.720682,50.3337 -17.704307,73.8044 0.0088,12.63164 1.151762,25.44768 2.131655,23.90252 0.457449,-0.72134 0.838616,-2.15453 0.847038,-3.18487 z m 168.427173,32.01787 c 24.47436,-12.77817 57.25453,-32.61156 58.26898,-35.2552 0.55653,-1.45027 -6.637,-16.0508 -16.45058,-33.38932 -7.94159,-14.03112 -22.09152,-36.79622 -23.35745,-37.57861 C 215.32922,142.84937 144,185.01685 144,188.09256 144,191.66804 182.67667,258 184.76145,258 c 0.30925,0 6.90193,-3.30997 14.65041,-7.35548 z M 47.123067,265.75 c 3.472989,-6.8217 11.379971,-18.08972 19.409207,-27.65953 l 7.455198,-8.88563 -2.600768,-6.85242 c -3.536217,-9.31711 -7.085263,-21.17323 -9.33266,-31.17715 -1.02859,-4.5786 -2.088686,-8.54325 -2.355769,-8.81033 -0.267083,-0.26708 -2.734416,4.15405 -5.482962,9.82473 -4.883494,10.07541 -8.70421,20.75264 -11.382937,31.81033 -1.784498,7.36634 -1.77324,33.7852 0.01737,40.75 0.742357,2.8875 1.520711,5.25 1.729676,5.25 0.208964,0 1.353607,-1.9125 2.54365,-4.25 z m 262.016493,-7.5 c 6.86405,-7.0125 14.39764,-15.30823 16.7413,-18.43495 4.82032,-6.43087 4.79561,-5.81256 0.99144,-24.81505 -1.90133,-9.49747 -7.53463,-29 -8.37664,-29 -0.24537,0 -5.06977,3.86851 -10.72089,8.5967 -5.65113,4.72818 -15.14837,12.23875 -21.105,16.69015 -8.81464,6.58719 -10.73849,8.4768 -10.33729,10.1533 0.27112,1.13292 3.16975,8.35985 6.4414,16.05985 3.27165,7.7 7.47343,18.3853 9.33729,23.74512 1.86386,5.35981 3.64971,9.74731 3.96856,9.75 0.31884,0.003 6.19577,-5.73262 13.05983,-12.74512 z m -178.58604,22.36834 c 13.29898,-4.52146 22.00358,-7.87054 33.06473,-12.72158 l 9.21014,-4.03925 -7.78661,-12.17876 c -9.1395,-14.29474 -22.25813,-37.04097 -27.66467,-47.9674 C 135.27848,199.47011 133.27722,196 132.92985,196 129.79297,196 90,230.04005 90,232.72343 c 0,4.72271 27.16741,51.04079 30.05352,51.23863 0.30443,0.0209 5.02943,-1.48381 10.5,-3.34372 z m -35.686939,9.85237 c 12.078389,-2.2197 12.155909,-2.29918 7.925449,-8.12554 -4.782512,-6.58666 -14.700226,-23.21078 -19.290579,-32.33494 l -3.768092,-7.48978 -4.403776,4.98978 C 65.505937,258.64108 53,280.12731 53,285.8743 c 0,2.60414 3.438567,4.90954 9.120253,6.11469 5.78712,1.22752 21.860379,0.48228 32.746328,-1.51828 z M 342.17628,297.25 c 18.19052,-26.91814 27.69062,-54.70834 29.6925,-86.8581 1.26149,-20.25922 -0.33183,-40.85252 -2.29702,-29.68853 -2.06455,11.7284 -12.83859,36.8181 -21.56009,50.20736 l -4.17583,6.41074 -0.25853,18.58926 c -0.26395,18.97886 -1.67977,29.96938 -5.51864,42.83927 -1.02535,3.4375 -1.69672,6.25 -1.49194,6.25 0.20478,0 2.72908,-3.4875 5.60955,-7.75 z m -102.85083,10.43027 c 12.75876,-6.0739 29.08925,-15.67993 38.84609,-22.8503 l 6.67154,-4.90296 -3.3032,-9.7135 C 274.8126,250.43104 265.4475,228 263.91546,228 c -0.47673,0 -5.26523,2.8425 -10.64112,6.31667 -12.72926,8.22629 -32.56175,19.72692 -48.50106,28.12522 l -12.72671,6.7056 4.21118,5.67626 C 206.75889,288.97824 226.55569,313 227.71954,313 c 0.23725,0 5.45991,-2.39388 11.60591,-5.31973 z m -60.27603,19.70472 c 10.45229,-1.79546 32.75545,-7.78986 34.14187,-9.17628 0.52152,-0.52152 -2.26189,-4.57144 -6.7107,-9.7642 -4.18101,-4.88019 -11.47713,-14.06414 -16.2136,-20.40879 -4.73646,-6.34464 -8.95579,-11.93483 -9.37629,-12.42264 -0.42381,-0.49165 -6.47493,1.5723 -13.57762,4.63113 -7.04719,3.03494 -18.21308,7.45272 -24.81308,9.81731 -6.6,2.36459 -12.37662,4.61719 -12.83693,5.0058 -1.04563,0.88273 17.27917,19.47844 27.33693,27.74105 8.44064,6.93413 8.38832,6.92327 22.04942,4.57662 z M 145,330.44657 c 0,-0.30439 -5.34018,-5.81689 -11.86706,-12.25 -6.52688,-6.43311 -13.18926,-13.3803 -14.80529,-15.4382 l -2.93823,-3.74163 -10.94471,2.4958 c -6.019591,1.37269 -16.455312,3.0126 -23.190492,3.64425 -14.10029,1.32237 -14.096621,1.31178 -2.872701,8.29227 14.297935,8.89233 34.502833,15.05696 53.946823,16.45949 6.14441,0.44321 11.50916,0.8701 11.92166,0.94864 0.4125,0.0786 0.75,-0.10623 0.75,-0.41062 z m 170.53047,-11.37342 c 8.50529,-14.32901 13.95726,-33.759 15.03238,-53.57315 l 0.59687,-11 -6.82986,7.01008 c -3.75642,3.85555 -10.81921,10.70467 -15.69508,15.22027 l -8.86521,8.21019 1.67428,7.27973 c 2.90819,12.64477 4.51946,24.01424 4.57465,32.27973 l 0.0534,8 2.52509,-3 c 1.3888,-1.65 4.50885,-6.34208 6.93345,-10.42685 z m -29.49774,29.40992 c 5.5071,-2.84783 6.46837,-6.26905 6.45762,-22.98307 -0.007,-11.08205 -0.502,-17.15488 -1.89465,-23.25 -1.03675,-4.5375 -2.07688,-8.25 -2.31139,-8.25 -0.23452,0 -4.78192,2.87119 -10.10535,6.38042 -10.80214,7.12083 -29.43018,17.56725 -35.92896,20.14861 -2.3375,0.92847 -4.25,2.05122 -4.25,2.49499 0,1.78027 17.62757,16.04807 25.7038,20.80473 10.06293,5.92676 17.05137,7.38345 22.32893,4.65432 z m -27.11826,9.88404 3.16448,-0.6329 -5.70872,-3.43889 c -8.13851,-4.90257 -16.78728,-11.656 -24.87023,-19.42 l -7,-6.72379 -11.5,3.83383 c -6.325,2.10861 -15.325,4.62343 -20,5.5885 -4.675,0.96506 -8.91971,2.12295 -9.43268,2.57308 -1.23524,1.08392 19.89356,11.04838 29.3657,13.84903 4.08817,1.20875 10.38817,2.78687 14,3.50692 6.97405,1.39033 26.68736,1.92303 31.98145,0.86422 z m -44.19557,12.98108 c 4.52039,-0.35191 7.98133,-1.02421 7.69098,-1.49401 C 222.11953,369.38438 221.0139,369 219.95294,369 c -7.28693,0 -36.58779,-12.44211 -50.45712,-21.42577 L 162.5,343.0428 146.62834,343.0214 c -16.67932,-0.0225 -31.50713,-1.72797 -43.19093,-4.96779 -3.799751,-1.05364 -7.051278,-1.77308 -7.225614,-1.59874 -0.862695,0.8627 14.799314,10.71378 26.556324,16.70339 28.92962,14.7382 59.24771,20.7358 91.95078,18.18993 z" />
</svg>
