<?xml version="1.0" encoding="UTF-8" standalone="no"?>
<!-- Created with Inkscape (http://www.inkscape.org/) -->

<svg
   xmlns:dc="http://purl.org/dc/elements/1.1/"
   xmlns:cc="http://creativecommons.org/ns#"
   xmlns:rdf="http://www.w3.org/1999/02/22-rdf-syntax-ns#"
   xmlns:svg="http://www.w3.org/2000/svg"
   xmlns="http://www.w3.org/2000/svg"
   version="1.1"
   width="400"
   height="400"
   id="svg2">
  <metadata
     id="metadata8">
    <rdf:RDF>
      <cc:Work
         rdf:about="">
        <dc:format>image/svg+xml</dc:format>
        <dc:type
           rdf:resource="http://purl.org/dc/dcmitype/StillImage" />
        <dc:title></dc:title>
      </cc:Work>
    </rdf:RDF>
  </metadata>
  <defs
     id="defs6" />
  <path
     d="m 0,0 400,0 0,400 -400,0 z"
     id="rect3042"
     style="fill:#000000;fill-opacity:1;stroke:none" />
  <path
     d="M 68.75,89.41459 C 73.26172,88.3792 79.90605,86.6182 83.51518,85.50127 l 6.56206,-2.03079 -0.50085,-9.31473 C 89.30093,69.03265 88.51425,62.11703 87.82822,58.7877 86.43329,52.01806 82.72918,41.93721 80.6518,39.25683 c -1.42497,-1.83858 -2.3334,0.29329 -20.6406,48.43848 -1.65855,4.36175 -2.26011,4.2434 8.7388,1.71928 z M 36.19965,93.8271 41.53992,93.35937 54.61352,59.375 67.68712,25.39062 65.36263,23.65511 c -2.60649,-1.94606 -12.78791,-6.3609 -15.36425,-6.6622 -1.53326,-0.17932 -2.8694,3.06316 -15.67111,38.03002 -7.69722,21.02433 -13.91152,38.29549 -13.80954,38.38036 0.63569,0.52908 11.21553,0.815 15.68192,0.42381 z m 84.6687,20.75747 c 12.18008,-16.74902 16.2363,-22.86091 15.30666,-23.06398 -2.08168,-0.45473 -26.41367,2.88607 -30.80972,4.23021 -1.28782,0.39375 -2.37112,5.87989 -3.38445,17.13982 -0.45528,5.05888 0.64991,20.0244 1.68283,22.7877 0.54709,1.46355 2.88703,-1.40533 17.20468,-21.09375 z m 32.15174,17.8832 c 13.90714,-19.50501 25.27952,-35.75638 25.27196,-36.11415 -0.0314,-1.48672 -20.91414,-5.65013 -22.07565,-4.40124 -2.20087,2.36645 -44.49765,61.22952 -44.49765,61.92595 0,2.05725 13.16198,14.1318 15.33905,14.07176 0.37211,-0.0102 12.05515,-15.97731 25.96229,-35.48232 z m 33.28753,16.32282 c 11.44081,-15.70423 20.97471,-29.0046 21.18644,-29.55636 0.88289,-2.30079 -12.24059,-16.78523 -14.47427,-15.97532 -0.38941,0.14119 -11.97391,16.06981 -25.74334,35.39692 -18.05682,25.34499 -24.74712,35.30148 -24.00141,35.7188 1.65055,0.9237 14.38597,2.96912 18.48662,2.96912 l 3.74448,0 20.80148,-28.55316 z m 10.73207,27.01464 c 5.03198,-0.75145 10.71195,-1.80385 12.62214,-2.33867 l 3.47308,-0.9724 0.81904,-4.80177 c 1.39194,-8.16047 1.78857,-15.81324 1.2206,-23.55079 -0.29968,-4.08257 -0.76038,-7.40612 -1.02378,-7.38565 -0.26339,0.0205 -4.06265,5.03021 -8.44281,11.13281 -4.38016,6.10258 -10.97403,15.22647 -14.65306,20.2753 -7.6536,10.50324 -8.23238,9.76428 5.98479,7.64117 z m 35.5303,26.81153 c 9.37166,-8.87328 17.21517,-16.3042 17.43001,-16.51314 0.54865,-0.5336 -24.23113,0.47372 -26.33063,1.07036 -1.26645,0.35989 -2.13932,1.75779 -3.30342,5.2904 -2.90576,8.81792 -6.39596,26.28562 -5.25208,26.28562 0.2292,0 8.08446,-7.25996 17.45612,-16.13324 z m 27.16345,26.77489 c 18.02918,-17.34826 32.89445,-31.8847 33.03395,-32.3032 0.33335,-1.00005 -9.58766,-5.22499 -16.95373,-7.21987 l -5.82696,-1.57806 -2.37616,2.20273 c -2.71951,2.52102 -46.57721,43.82982 -49.84591,46.94898 l -2.15725,2.05857 1.26781,4.27304 c 2.03051,6.84359 7.76451,17.16764 9.53176,17.16189 0.30039,-7.8e-4 15.29732,-14.19582 33.32649,-31.54408 z m 26.83962,24.88429 c 14.64568,-13.87391 27.34588,-25.72775 28.22267,-26.34188 l 1.59417,-1.11659 -1.58404,-4.69059 c -1.61763,-4.79006 -7.45885,-14.40932 -9.04334,-14.89245 -0.88427,-0.26963 -66.70002,62.71279 -66.70002,63.82862 0,0.84677 8.7403,4.67783 15.32384,6.71677 l 5.55821,1.7214 26.62851,-25.22528 z m 19.60903,27.04203 4.22897,-0.4586 1.84567,-5.46875 c 2.00129,-5.92982 4.47163,-17.52541 5.32604,-25 l 0.53582,-4.6875 -2.20364,1.95313 c -1.21199,1.07422 -9.06797,8.4272 -17.45772,16.33995 -8.38976,7.91275 -16.12502,15.20768 -17.18947,16.21094 l -1.93538,1.82411 11.31038,-0.12734 c 6.2207,-0.07 13.2134,-0.33371 15.53933,-0.58594 z m 24.79377,30.92598 c 17.29495,-11.8093 19.41643,-13.47974 17.7161,-13.94954 -2.77719,-0.76732 -17.71243,-2.20066 -22.93074,-2.20066 l -4.43616,0 -2.41181,5.27344 c -3.25719,7.1219 -5.54024,12.93464 -7.28762,18.55468 -1.62676,5.23206 -1.72639,5.88602 -0.88344,5.79864 0.32226,-0.0334 9.42742,-6.09786 20.23367,-13.47656 z m -32.71673,66.6623 c -4.957,-9.9717 -6.32559,-16.52248 -6.36552,-30.46875 -0.0402,-14.04981 0.98813,-19.98478 6.15932,-35.54688 1.85617,-5.58593 3.2701,-10.26202 3.14206,-10.39129 -0.12804,-0.12928 -2.99812,0.46226 -6.37795,1.31452 -10.68507,2.69435 -18.4677,3.44748 -31.03312,3.00311 -13.13151,-0.46438 -20.62755,-2.01756 -31.14486,-6.4532 -12.11983,-5.1115 -25.21395,-15.74361 -32.58683,-26.45973 -14.23644,-20.69194 -15.2948,-49.94652 -2.75461,-76.14114 l 3.50204,-7.31523 -2.54827,0.47168 c -17.76384,3.28811 -43.29516,2.487 -59.61374,-1.87053 -24.13124,-6.44373 -40.60652,-21.34933 -47.91038,-43.34569 -3.06572,-9.23273 -4.17654,-17.4762 -3.86911,-28.71264 0.13817,-5.04976 0.0754,-9.09273 -0.13941,-8.98437 -18.25883,9.20913 -24.9174,11.53412 -38.67187,13.50312 -8.16045,1.16821 -23.36136,1.50236 -29.57847,0.65021 l -3.62466,-0.49682 0.0308,-28.99537 0.0308,-28.99538 9.15698,-25 9.15698,-25 21.9187,-0.20723 21.9187,-0.20724 3.58579,2.79366 c 8.60901,6.70722 17.42832,21.19485 20.90412,34.33956 0.90897,3.4375 2.05027,10.29297 2.53623,15.23438 0.48596,4.94141 0.94546,9.07973 1.02111,9.19628 0.0756,0.11655 2.34791,-0.88477 5.04948,-2.22516 13.4415,-6.66902 25.20357,-9.31487 41.40906,-9.31487 20.05229,0 37.01559,4.9216 53.10023,15.40609 24.2992,15.83903 37.50861,41.39976 34.43947,66.64178 -0.88205,7.25445 -3.80984,17.74422 -6.34654,22.73855 l -1.43907,2.83329 16.17764,0.40665 c 20.94832,0.52656 31.48778,2.48976 45.6563,8.50444 20.23576,8.5903 34.13956,25.28294 38.42438,46.13157 2.31628,11.27033 1.26611,32.31218 -2.25339,45.15013 -1.72373,6.28761 -1.85573,6.1323 4.07692,4.79683 3.55345,-0.79991 9.60525,-1.1965 18.55468,-1.21595 14.08155,-0.0306 20.56226,1.06606 30.66407,5.18892 l 4.10156,1.67397 0,16.26119 0,16.26119 -3.71094,-2.64262 c -2.04101,-1.45344 -5.82031,-3.69533 -8.39844,-4.98196 l -4.6875,-2.33934 -31.25,21.1942 -31.25,21.1942 -0.2319,5.31278 c -0.25168,5.7658 1.76627,14.66289 4.57395,20.16638 l 1.58107,3.09916 6.02282,-4.2056 c 3.31255,-2.31308 18.15172,-12.57637 32.97594,-22.80733 14.82422,-10.23096 28.62305,-19.80827 30.66406,-21.28292 l 3.71094,-2.68118 0,9.3449 0,9.34491 -30.66406,21.20691 -30.66407,21.20692 -12.10937,-0.21184 -12.10938,-0.21185 -2.91274,-5.85937 z m 59.61847,5.95979 c 0.58767,-0.52393 25.28296,-15.84156 27.08334,-16.79885 l 1.75781,-0.93467 0,9.01187 0,9.01186 -14.58333,0 c -8.02084,0 -14.43685,-0.13059 -14.25782,-0.29021 z"
     id="path2989"
     style="fill:#ffffff" />
</svg>
