<?xml version="1.0" encoding="UTF-8" standalone="no"?>
<!-- Created with Inkscape (http://www.inkscape.org/) -->

<svg
   xmlns:dc="http://purl.org/dc/elements/1.1/"
   xmlns:cc="http://creativecommons.org/ns#"
   xmlns:rdf="http://www.w3.org/1999/02/22-rdf-syntax-ns#"
   xmlns:svg="http://www.w3.org/2000/svg"
   xmlns="http://www.w3.org/2000/svg"
   xmlns:sodipodi="http://sodipodi.sourceforge.net/DTD/sodipodi-0.dtd"
   xmlns:inkscape="http://www.inkscape.org/namespaces/inkscape"
   id="svg2"
   version="1.1"
   inkscape:version="0.48.3.1 r9886"
   width="400"
   height="400"
   sodipodi:docname="Icon.4_45.png">
  <metadata
     id="metadata8">
    <rdf:RDF>
      <cc:Work
         rdf:about="">
        <dc:format>image/svg+xml</dc:format>
        <dc:type
           rdf:resource="http://purl.org/dc/dcmitype/StillImage" />
        <dc:title></dc:title>
      </cc:Work>
    </rdf:RDF>
  </metadata>
  <defs
     id="defs6" />
  <sodipodi:namedview
     pagecolor="#ffffff"
     bordercolor="#666666"
     borderopacity="1"
     objecttolerance="10"
     gridtolerance="10"
     guidetolerance="10"
     inkscape:pageopacity="0"
     inkscape:pageshadow="2"
     inkscape:window-width="1855"
     inkscape:window-height="1056"
     id="namedview4"
     showgrid="false"
     inkscape:zoom="0.59"
     inkscape:cx="200"
     inkscape:cy="200"
     inkscape:window-x="65"
     inkscape:window-y="24"
     inkscape:window-maximized="1"
     inkscape:current-layer="svg2" />
  <path
     style="fill:#000000"
     d="m 0,0 400,0 0,400 -400,0 z"
     id="rect3962" />
  <path
     id="path3923"
     style="fill:#ffffff"
     d="m 202.90779,74.797136 c 1.69757,-5.061575 2.75027,-9.516473 2.33935,-9.899773 C 204.15212,63.875958 115.87206,33.794612 115.38854,34.278131 114.85079,34.815879 109,52.133653 109,53.187588 109,53.634415 109.81113,54 110.80251,54 c 3.4177,0 30.04291,6.936867 42.11656,10.972947 13.32647,4.454881 24.14333,8.794999 37.08093,14.878222 4.675,2.198171 8.79729,4.03091 9.16065,4.072753 0.36336,0.04184 2.04958,-4.065211 3.74714,-9.126786 z M 375,155.58599 c 0,-0.75702 -25.34684,-19.20746 -35.5,-25.84112 C 310.43226,110.75322 262.06364,86.67381 224.84374,72.665405 l -6.65625,-2.505207 -3.17364,8.801386 c -3.12111,8.655732 -3.14749,8.878396 -1.59374,13.454848 1.97974,5.83118 1.99573,14.194028 0.043,22.478118 -0.82903,3.51701 -1.29793,6.60396 -1.04199,6.85989 0.25594,0.25594 14.77839,5.28477 32.27211,11.17518 39.80611,13.40333 66.73529,20.01242 91.30678,22.40894 5.23981,0.51105 39,0.72524 39,0.24743 z m -175.49953,18.54909 c 7.19741,-9.40395 8.46543,-11.58296 7.34889,-12.62858 -2.6332,-2.46596 -97.12718,-74.675877 -98.31983,-75.13354 C 107.48992,85.974024 90,107.53588 90,109.21647 c 0,0.32784 6.64955,4.65433 14.77678,9.61443 26.23532,16.01159 47.38785,32.14863 70.72322,53.95399 7.7,7.19515 14.293,12.99951 14.65111,12.8986 0.3581,-0.10092 4.56532,-5.2977 9.34936,-11.54841 z M 101.5,180.18367 c 2.2,-1.34902 4.11894,-2.54866 4.26431,-2.66586 0.35123,-0.28318 -50.446031,-87.599531 -51.6797,-88.8332 -1.279537,-1.279537 -20.216156,9.370548 -19.614273,11.031202 0.24236,0.668698 3.579695,5.393698 7.4163,10.499998 14.001889,18.63572 33.318805,52.57759 41.897929,73.6191 l 2.17517,5.33491 5.770132,-3.26669 C 94.90344,184.10645 99.3,181.5327 101.5,180.18367 z M 373,341.35755 C 373,340.08916 358.43874,319.221 347.63065,305 327.69268,278.76615 307.67266,256.51957 277.37277,226.92826 260.61613,210.56348 230.92975,184.26117 217.9213,174.25392 c -1.34735,-1.0365 -2.54138,0.0649 -8.14785,7.5158 l -6.56916,8.73028 -0.45068,9.5 c -0.51794,10.91791 -2.65015,17.43547 -8.83404,27.00314 -2.20808,3.41633 -3.88079,6.59632 -3.71713,7.06665 0.6619,1.90222 54.5622,42.82902 74.08055,56.24979 32.01678,22.01465 65.32846,38.71801 96.02739,48.15068 12.09775,3.7172 12.68962,3.85187 12.68962,2.88729 z m -197.43394,13.10968 c -8.04348,-36.12216 -18.39252,-67.26275 -34.62589,-104.19037 -9.22125,-20.97645 -28.9855,-60.28254 -30.28665,-60.23245 -0.63444,0.0244 -4.68429,2.16192 -8.99968,4.75 -6.364877,3.81722 -8.075782,5.37527 -9.062454,8.25283 -2.627784,7.66373 -7.58434,13.23526 -19.974479,22.45276 l -2.688394,2 6.655091,11.5 c 42.549906,73.52626 61.942516,99.10017 95.799396,126.33499 3.23565,2.60279 6.0254,4.58995 6.19944,4.41591 0.17404,-0.17404 -1.18333,-7.0517 -3.01638,-15.28367 z" />
</svg>
