<?xml version="1.0" encoding="UTF-8" standalone="no"?>
<!-- Created with Inkscape (http://www.inkscape.org/) -->

<svg
   xmlns:dc="http://purl.org/dc/elements/1.1/"
   xmlns:cc="http://creativecommons.org/ns#"
   xmlns:rdf="http://www.w3.org/1999/02/22-rdf-syntax-ns#"
   xmlns:svg="http://www.w3.org/2000/svg"
   xmlns="http://www.w3.org/2000/svg"
   xmlns:sodipodi="http://sodipodi.sourceforge.net/DTD/sodipodi-0.dtd"
   xmlns:inkscape="http://www.inkscape.org/namespaces/inkscape"
   id="svg2"
   version="1.1"
   inkscape:version="0.48.3.1 r9886"
   width="400"
   height="400"
   sodipodi:docname="Icon.4_08.png">
  <metadata
     id="metadata8">
    <rdf:RDF>
      <cc:Work
         rdf:about="">
        <dc:format>image/svg+xml</dc:format>
        <dc:type
           rdf:resource="http://purl.org/dc/dcmitype/StillImage" />
        <dc:title></dc:title>
      </cc:Work>
    </rdf:RDF>
  </metadata>
  <defs
     id="defs6" />
  <sodipodi:namedview
     pagecolor="#ffffff"
     bordercolor="#666666"
     borderopacity="1"
     objecttolerance="10"
     gridtolerance="10"
     guidetolerance="10"
     inkscape:pageopacity="0"
     inkscape:pageshadow="2"
     inkscape:window-width="1216"
     inkscape:window-height="1000"
     id="namedview4"
     showgrid="false"
     inkscape:zoom="1.18"
     inkscape:cx="318.32076"
     inkscape:cy="120.0682"
     inkscape:window-x="64"
     inkscape:window-y="24"
     inkscape:window-maximized="1"
     inkscape:current-layer="svg2" />
  <rect
     style="fill:#000000;fill-opacity:1;stroke:none"
     id="rect3066"
     width="400"
     height="400"
     x="0"
     y="-7.6293945e-06" />
  <path
     id="path3023"
     style="fill:#ffffff"
     d="m 173.66763,78.910447 c 4.49219,-1.070474 12.52502,-2.358566 17.85071,-2.862427 5.3257,-0.503861 9.81419,-1.058291 9.97444,-1.232066 0.37105,-0.402379 -24.96974,-47.692912 -26.23371,-48.956881 -0.58992,-0.589922 -3.08752,8.891931 -6.6772,25.349243 -3.15413,14.460426 -5.99272,27.378175 -6.308,28.706109 -0.48858,2.057896 -0.2927,2.305736 1.32645,1.678382 1.04483,-0.404824 5.57511,-1.611886 10.06731,-2.68236 z M 318.53497,125.13556 C 334.82693,92.22654 341.4517,77.912465 340.24162,78.234245 339.28373,78.488962 317.2375,87.814837 291.25,98.958412 L 244,119.21946 l 0,4.34105 c 0,21.20791 16.8429,41.78849 39.20581,47.90616 2.91181,0.79656 6.7762,1.35492 8.58754,1.24081 L 295.0867,172.5 318.53497,125.13556 z m -192.44469,59.68316 c 20.13091,-9.99139 32.85324,-35.71566 27.57924,-55.76463 l -1.16952,-4.44591 -51,-8.78073 C 73.45,110.99805 49.956034,107.14871 49.291187,107.27336 48.626341,107.39801 63.1322,125.6125 81.526431,147.75 108.23063,179.88857 115.44509,188 117.32552,188 c 1.29527,0 5.23941,-1.43157 8.76476,-3.18128 z M 88.975412,238.25 c -0.01352,-0.4125 -0.907142,-3.38801 -1.985819,-6.61224 -2.641157,-7.89458 -4.982491,-21.72786 -4.986398,-29.46108 -0.0024,-4.75978 -0.332499,-6.24338 -1.334973,-6 C 78.687443,196.65756 27,226.31081 27,226.96631 c 0,0.51673 56.25551,11.64087 60.25,11.91402 0.9625,0.0658 1.738935,-0.21783 1.725412,-0.63033 z m 258.442448,6.2167 c 24.64093,-2.26023 28.71515,-2.82351 27.49881,-3.80183 -2.50219,-2.01256 -49.70788,-35.02813 -50.54377,-35.35022 -0.72684,-0.28007 -1.37833,1.91174 -1.83457,6.17202 -0.8493,7.93063 -4.53219,22.07695 -7.91492,30.40189 l -2.45857,6.05059 4.16758,-0.50169 c 2.29217,-0.27593 16.28062,-1.61277 31.08544,-2.97076 z M 210.24999,302.14124 C 209.08778,301.23856 202.91111,296.45 196.52405,291.5 l -11.61283,-9 0.56511,-5.5 c 2.59467,-25.2528 24.98297,-48.82019 52.33898,-55.09543 8.03111,-1.84227 21.31924,-1.32316 29.68233,1.15957 4.12404,1.2243 7.88227,2.72321 8.35163,3.33092 0.46935,0.60772 2.55745,9.76744 4.64022,20.35494 2.08276,10.5875 4.07861,19.25 4.43522,19.25 1.2524,0 8.44122,-10.4624 12.66995,-18.43947 10.4794,-19.76832 14.74942,-40.8996 12.48001,-61.76042 -0.60818,-5.59051 -1.31938,-10.37816 -1.58045,-10.63922 -0.26106,-0.26106 -1.41667,1.79207 -2.56802,4.56251 l -2.09335,5.03718 -5.66643,0.64105 c -14.6995,1.66299 -33.2644,-5.16268 -45.92604,-16.88542 -15.3904,-14.24914 -22.57351,-31.79724 -20.79311,-50.79681 l 0.70329,-7.50516 10.41512,-4.35712 c 5.72831,-2.39642 10.41943,-4.65263 10.42472,-5.0138 0.0147,-1.00682 -13.63247,-6.460002 -21.90153,-8.751476 -23.29434,-6.455191 -49.38259,-4.583172 -71.33636,5.118895 -8.32727,3.680081 -18.95559,9.898501 -19.4492,11.379331 -0.18942,0.56827 4.3343,1.75798 10.38576,2.73139 5.89674,0.94852 11.08105,2.27673 11.52068,2.95156 1.77851,2.73007 4.6843,13.88078 5.33314,20.46547 2.96859,30.12647 -22.68817,62.89553 -52.32238,66.82665 l -4.93519,0.65467 -7.39266,-8.78784 -7.39266,-8.78785 -0.623895,5.42794 c -0.934656,8.13157 0.940597,26.07168 3.73217,35.70482 12.612875,43.52441 50.811705,74.98434 94.809275,78.08338 4.99535,0.35186 11.30165,0.4783 14.014,0.28098 4.78578,-0.34815 4.86909,-0.40727 2.81844,-2 z M 286.4992,342.75 C 286.00737,340.69651 265,235.78247 265,235.37966 c 0,-0.0959 -3.01822,-0.69995 -6.70716,-1.34235 -23.98302,-4.17646 -51.49241,13.37147 -58.74604,37.47344 l -1.39361,4.63061 13.67341,10.81455 c 44.332,35.06299 73.77059,58.00947 74.44245,58.02561 0.42298,0.0102 0.52655,-0.99402 0.23015,-2.23152 z m -98.20328,-24.99425 c 0.11224,-0.53281 -3.84246,-1.80469 -8.78822,-2.82639 -10.98058,-2.2684 -16.64789,-4.07108 -26.88826,-8.5527 -4.33431,-1.89688 -7.99287,-3.32013 -8.13014,-3.16277 -0.34618,0.39686 5.56239,64.96638 6.09866,66.64681 0.38371,1.20239 37.19307,-49.66088 37.70796,-52.10495 z" />
</svg>
