<?xml version="1.0" encoding="UTF-8" standalone="no"?>
<!-- Created with Inkscape (http://www.inkscape.org/) -->

<svg
   xmlns:dc="http://purl.org/dc/elements/1.1/"
   xmlns:cc="http://creativecommons.org/ns#"
   xmlns:rdf="http://www.w3.org/1999/02/22-rdf-syntax-ns#"
   xmlns:svg="http://www.w3.org/2000/svg"
   xmlns="http://www.w3.org/2000/svg"
   xmlns:sodipodi="http://sodipodi.sourceforge.net/DTD/sodipodi-0.dtd"
   xmlns:inkscape="http://www.inkscape.org/namespaces/inkscape"
   id="svg2"
   version="1.1"
   inkscape:version="0.48.3.1 r9886"
   width="400"
   height="400"
   sodipodi:docname="Icon.3_55.png">
  <metadata
     id="metadata8">
    <rdf:RDF>
      <cc:Work
         rdf:about="">
        <dc:format>image/svg+xml</dc:format>
        <dc:type
           rdf:resource="http://purl.org/dc/dcmitype/StillImage" />
        <dc:title></dc:title>
      </cc:Work>
    </rdf:RDF>
  </metadata>
  <defs
     id="defs6" />
  <sodipodi:namedview
     pagecolor="#ffffff"
     bordercolor="#666666"
     borderopacity="1"
     objecttolerance="10"
     gridtolerance="10"
     guidetolerance="10"
     inkscape:pageopacity="0"
     inkscape:pageshadow="2"
     inkscape:window-width="1216"
     inkscape:window-height="1000"
     id="namedview4"
     showgrid="false"
     inkscape:zoom="0.59"
     inkscape:cx="438.48221"
     inkscape:cy="316.71387"
     inkscape:window-x="64"
     inkscape:window-y="24"
     inkscape:window-maximized="1"
     inkscape:current-layer="svg2" />
  <rect
     style="fill:#000000;fill-opacity:1;stroke:none"
     id="rect3013"
     width="400"
     height="400"
     x="0"
     y="0" />
  <path
     id="path2989"
     style="fill:#ffffff;fill-opacity:1"
     d="M 94.376756,175.03152 C 119.4964,168.607 140.78456,147.11152 145.90645,123 c 2.83838,-13.36179 2.05602,-31.69391 -1.92281,-45.054655 -3.89366,-13.074757 -11.84578,-21.282047 -20.45298,-21.109282 -5.65784,0.113566 -9.4215,2.050199 -13.70125,7.050134 -4.76464,5.56641 -6.80992,12.158147 -7.83267,25.243886 -1.30413,16.686017 -4.832637,26.749397 -12.491844,35.626967 -7.802535,9.0437 -20.007657,12.61408 -30.032653,8.7855 C 50.271948,130.02892 41.738724,118.78311 37.43502,104.5 c -0.994337,-3.3 -2.108173,-6.361682 -2.475191,-6.803738 -0.367018,-0.442056 -1.628421,1.430434 -2.803117,4.161088 -9.568389,22.24232 -5.579477,43.59783 11.343288,60.72875 7.370583,7.46125 14.678761,11.77949 22.545302,13.32154 8.056731,1.57932 20.198904,1.20384 28.331454,-0.87612 z m 242.799644,0.0798 c 10.65584,-3.66615 18.80448,-10.37269 25.85239,-21.27718 7.75471,-11.99804 10.52875,-25.13292 8.03221,-38.0319 C 369.83004,109.44224 365.31427,98 364.03518,98 c -0.38042,0 -1.23635,2.3625 -1.90204,5.25 -2.07003,8.97884 -7.81196,19.25577 -13.83335,24.75899 -15.14169,13.83865 -34.92396,8.41576 -45.16175,-12.38015 -3.35367,-6.81228 -5.24573,-15.5287 -7.02653,-32.370091 -1.15533,-10.926249 -4.47779,-18.057783 -10.41942,-22.364902 -7.28854,-5.2835 -14.35861,-4.9968 -20.82417,0.844446 -6.94553,6.274865 -11.10771,16.703418 -12.93304,32.404406 -4.06808,34.992351 10.65473,63.035901 40.33646,76.831621 4.52576,2.10352 10.70366,4.3154 13.72866,4.91529 3.025,0.59989 6.4,1.29709 7.5,1.54933 4.03577,0.92546 18.2959,-0.47644 23.6764,-2.3276 z m -89.47757,66.84991 c -4.71838,-5.51236 -6.9496,-13.8936 -6.8309,-25.65922 0.0514,-5.09465 0.61019,-11.40928 1.24178,-14.03251 C 244.99271,190.29512 252.90006,179 258.39994,179 c 10.39425,0 16.77707,23.15414 12.07489,43.80259 C 267.6262,235.31163 259.77269,246 253.43004,246 c -1.41955,0 -3.57334,-1.51776 -5.73121,-4.03875 z m -105.80095,1.76319 c -4.13662,-2.77029 -10.09533,-14.1031 -11.75159,-22.35019 -3.01517,-15.01364 -0.16104,-32.5595 6.35654,-39.07708 4.12188,-4.12188 7.3731,-4.22302 11.76597,-0.36602 8.83949,7.76118 14.12257,27.21813 11.67455,42.996 -1.374,8.85569 -3.71482,14.61447 -7.44782,18.32285 -3.36811,3.34589 -6.12564,3.46934 -10.59765,0.47444 z M 172.96659,345.25 c -0.0184,-9.7625 -0.65253,-29.9 -1.40921,-44.75 -0.75669,-14.85 -1.23869,-27.14046 -1.07112,-27.31213 0.16757,-0.17168 6.46714,8.7504 13.99903,19.82684 7.5319,11.07643 13.88556,19.94777 14.11924,19.71409 0.23369,-0.23369 6.77757,-9.38076 14.54196,-20.32684 L 227.26357,272.5 226.64595,281 c -1.32297,18.2074 -1.99878,81 -0.87177,81 0.60367,0 3.93894,-1.94291 7.4117,-4.31758 l 6.31412,-4.31757 0.72264,-14.93243 c 1.46476,-30.26737 4.68431,-50.55656 10.97808,-69.18242 2.63978,-7.81221 3.45833,-9.25 5.26611,-9.25 1.17726,0 4.51407,-1.18281 7.41511,-2.62846 9.20633,-4.58771 17.21729,-17.11969 20.6824,-32.35461 1.67876,-7.38094 1.54777,-25.36019 -0.27654,-37.95641 -0.77524,-5.35276 -0.88345,-5.49445 -6.7878,-8.88782 -3.42288,-1.96721 -10.11336,-7.60856 -15.57665,-13.13406 -8.38045,-8.47588 -10.21191,-10.98807 -14.66243,-20.11218 -6.99565,-14.34195 -8.69088,-22.07203 -8.64633,-39.42646 0.0198,-7.7 0.58204,-16.7 1.2495,-20 l 1.21355,-6 -4.23745,-3.81214 C 215.81864,56.776243 184.7624,57.123636 163.19831,76.511615 l -4.94759,4.448302 0.98113,4.770042 c 1.62323,7.891863 1.27738,32.838921 -0.55829,40.270041 -5.23253,21.1822 -16.797,37.92026 -34.1863,49.48016 -3.29299,2.18909 -6.15592,4.08275 -6.36205,4.20813 -0.77001,0.46835 -2.23925,14.21846 -2.7727,25.94883 -0.46656,10.25942 -0.22686,13.43093 1.54934,20.5 3.89105,15.48592 11.39131,26.91082 20.82648,31.72429 3.62136,1.84747 4.21691,2.76009 7.06605,10.82805 7.32486,20.74196 12.19186,51.08168 12.2022,76.06565 l 0.003,8.25511 6.75,4.9798 c 3.7125,2.73889 7.3125,4.98659 8,4.99489 0.95486,0.0115 1.24211,-4.17594 1.21659,-17.73491 z m 38.08854,23.09487 c 0.60257,-0.60257 0.87694,-10.65708 0.71242,-26.10735 L 211.5,317.11015 l -6.66275,9.53208 -6.66275,9.53208 -5.18768,-7.33716 c -2.85322,-4.03543 -5.41563,-7.89965 -5.69424,-8.58715 -1.45186,-3.58266 -1.79258,0.92463 -1.79258,23.71389 0,24.14293 0.0657,24.97827 2,25.42374 3.53163,0.81334 22.54053,-0.0282 23.55513,-1.04276 z" />
</svg>
