<svg xmlns="http://www.w3.org/2000/svg" viewBox="0 0 512 512"><path d="m0,0h512v512h-512z"/>
<g transform="matrix(15 0 0 15 -4304 -2744)">
<use width="744.094" height="1052.362" transform="translate(324 180)"/>
</g>
<g fill="#fff">
<g transform="matrix(11.25001 0 0 11.25002 -74.00006 -8043.08562)">
<path d="m23.4919,384.9443c-1.5492,2.6833-29.4347,2.6833-30.9839,0-1.5492-2.6833 12.3935-26.8328 15.4919-26.8328 3.0984,0 17.0411,24.1495 15.4919,26.8328z" transform="matrix(.29268 -.29268 .42241 .42241 -145.52087 567.52422)"/>
</g>
<g transform="matrix(11.25001 0 0 -11.25002 -74.00006 8555.08562)">
<path d="m23.4919,384.9443c-1.5492,2.6833-29.4347,2.6833-30.9839,0-1.5492-2.6833 12.3935-26.8328 15.4919-26.8328 3.0984,0 17.0411,24.1495 15.4919,26.8328z" transform="matrix(.29268 -.29268 .42241 .42241 -145.52087 567.52422)"/>
</g>
<g transform="matrix(-11.25001 0 0 11.25002 586.00004 -8043.08562)">
<path d="m23.4919,384.9443c-1.5492,2.6833-29.4347,2.6833-30.9839,0-1.5492-2.6833 12.3935-26.8328 15.4919-26.8328 3.0984,0 17.0411,24.1495 15.4919,26.8328z" transform="matrix(.29268 -.29268 .42241 .42241 -145.52087 567.52422)"/>
</g>
<g transform="matrix(-11.25001 0 0 -11.25002 586.00004 8555.08562)">
<path d="m23.4919,384.9443c-1.5492,2.6833-29.4347,2.6833-30.9839,0-1.5492-2.6833 12.3935-26.8328 15.4919-26.8328 3.0984,0 17.0411,24.1495 15.4919,26.8328z" transform="matrix(.29268 -.29268 .42241 .42241 -145.52087 567.52422)"/>
</g>
<g transform="matrix(7.5 0 0 7.50001 -12524.0018 -3436.71945)">
<path d="m1686,806 10,10-10,10 8,8 10-10 10,10 8-8-10-10 10-10-8-8-10,10-10-10z" transform="translate(0 -323.6378)"/>
</g>
</g>
</svg>
