<svg viewBox="0 0 512 512" xmlns="http://www.w3.org/2000/svg">
<path d="m0,0h512v512h-512z"/>
<g transform="matrix(18.68858,0,0,18.68858,4525.34073,-4770.184)">
<path d="m512.3125,272.3309c0,1.398-2.2666,2.5312-5.0625,2.5312s-5.0625-1.1333-5.0625-2.5312 2.2666-2.5312 5.0625-2.5312 5.0625,1.1333 5.0625,2.5312z" fill="#fff" stroke="#fff" stroke-width="1.4107" transform="matrix(.68593,-.15129,0,.73255,-583.7768,155.99449)"/>
<path d="m512.3125,272.3309c0,1.398-2.2666,2.5312-5.0625,2.5312s-5.0625-1.1333-5.0625-2.5312 2.2666-2.5312 5.0625-2.5312 5.0625,1.1333 5.0625,2.5312z" fill="#fff" stroke="#fff" stroke-width="1.4107" transform="matrix(.68593,-.15129,0,.73255,-569.75568,150.31514)"/>
<path d="m-232.5281,278.0801v-16.3615l14.0229-4.4202v15.042" fill="none" stroke="#fff"/>
<path d="m-232.5281,264.3298 14.0229-4.4202" fill="none" stroke="#fff"/>
<path d="m-232.5281,266.9305 14.0229-4.4202" fill="none" stroke="#fff"/>
</g>
</svg>
