<?xml version="1.0" encoding="UTF-8" standalone="no"?>
<!-- Created with Inkscape (http://www.inkscape.org/) -->

<svg
   xmlns:dc="http://purl.org/dc/elements/1.1/"
   xmlns:cc="http://creativecommons.org/ns#"
   xmlns:rdf="http://www.w3.org/1999/02/22-rdf-syntax-ns#"
   xmlns:svg="http://www.w3.org/2000/svg"
   xmlns="http://www.w3.org/2000/svg"
   version="1.1"
   width="400"
   height="400"
   id="svg2">
  <metadata
     id="metadata8">
    <rdf:RDF>
      <cc:Work
         rdf:about="">
        <dc:format>image/svg+xml</dc:format>
        <dc:type
           rdf:resource="http://purl.org/dc/dcmitype/StillImage" />
        <dc:title></dc:title>
      </cc:Work>
    </rdf:RDF>
  </metadata>
  <defs
     id="defs6" />
  <path
     d="m 0,0 400,0 0,400 -400,0 z"
     id="rect3018"
     style="fill:#000000;fill-opacity:1;stroke:none" />
  <path
     d="m 254.45834,370.46775 4.95834,-4.44263 -3.28594,-3.39023 -3.28595,-3.39024 5.02146,-4.32537 5.02145,-4.32538 -5.42243,-6.17624 -5.42243,-6.17623 2.72858,-0.60736 c 1.50072,-0.33404 4.43417,-1.02005 6.51878,-1.52447 l 3.7902,-0.91711 12.11645,13.40375 C 283.86089,355.96831 289.59262,362 289.93403,362 c 0.3414,0 2.85268,-1.96401 5.58061,-4.36447 l 4.95988,-4.36447 -4.98726,-5.71684 c -11.87799,-13.61562 -12.20195,-13.39554 5.26038,-3.57362 8.75663,4.92529 16.62705,9.22595 17.48983,9.55703 1.13048,0.43381 2.36397,-0.81399 4.41561,-4.46682 1.56581,-2.78783 3.29692,-5.06755 3.84692,-5.06606 0.55,0.002 2.35,0.81466 4,1.80702 1.65,0.99236 5.55686,3.25617 8.68191,5.0307 l 5.68192,3.2264 3.6272,-6.18888 c 2.61986,-4.47011 3.29103,-6.39665 2.41673,-6.937 -0.66576,-0.41146 -7.44236,-4.24907 -15.05912,-8.52802 C 328.23189,328.13602 322,324.30207 322,323.89508 c 0,-0.40699 1.6875,-1.32169 3.75,-2.03268 3.78044,-1.3032 28.75614,-1.43633 38,-0.20256 l 4.25,0.56725 0,-7.61355 0,-7.61354 -9.8185,0 c -6.01494,0 -11.92259,-0.61445 -15.25,-1.58613 C 316.27028,297.62813 292.91128,265.58739 285.4001,226.5 283.43901,216.2947 283.23631,204.31898 284.45792,170.83391 285.39153,145.2432 284.39846,130.36349 280.39786,110 272.62428,70.431642 256.73997,40.782174 238.31338,31.445585 L 232.5,28.5 167.16548,28.222058 101.83096,27.944116 97.383295,30.165387 C 71.507834,43.088218 51.8855,107.69078 54.400605,171.67719 c 2.486709,63.26401 21.412911,113.96299 45.915335,122.99673 2.20509,0.81299 14.3624,1.19732 39.54105,1.25 34.2449,0.0717 36.31598,-0.0256 35.65114,-1.67392 -3.12758,-7.75413 -8.78969,-26.93414 -10.89546,-36.9076 -4.51975,-21.40664 -5.66671,-34.51613 -5.65732,-64.6618 0.009,-29.58747 -0.85735,-41.98735 -4.04579,-57.89223 C 149.48828,107.74544 136.06698,81.222955 124.87481,75.435262 111.08018,68.301783 95.962363,85.94648 88.405721,118 c -4.441092,18.83808 -5.7396,50.81641 -2.883015,71 3.439744,24.30399 10.68228,42.46904 18.556134,46.54077 2.59259,1.34068 3.24539,1.34292 5.8037,0.02 6.41156,-3.31555 11.79268,-15.446 14.64034,-33.00316 1.88321,-11.61092 1.86054,-18.75598 -0.09,-28.34974 -3.78743,-18.62897 -13.5424,-20.74388 -18.02477,-3.90783 -0.76143,2.85999 -1.43462,6.54999 -1.49597,8.19999 -0.22055,5.93151 -1.70592,-1.47494 -1.80496,-9 -0.18856,-14.32746 3.72402,-28.50413 9.45257,-34.25 3.82823,-3.83981 5.96988,-4.04153 10.4996,-0.98895 13.84197,9.3281 19.88117,50.38128 11.95081,81.23895 C 129.45165,237.12877 119.52581,249 107,249 95.305266,249 86.04891,239.1431 79.315343,219.51918 67.182142,184.15887 68.541398,128.90795 82.389392,94.565505 98.004681,55.840241 126.82261,49.74618 147.35752,80.826847 c 8.32352,12.598095 13.50957,24.910923 18.09732,42.967083 4.87092,19.17062 5.82457,29.32377 6.07762,64.70607 0.25305,35.384 1.26889,46.8247 6.06341,68.28805 6.31241,28.25841 18.27831,55.20301 33.89532,76.3249 6.85484,9.27112 35.66304,41.81153 37.00881,41.80344 0.55,-0.003 3.23125,-2.0052 5.95834,-4.44864 z"
     id="path2989"
     style="fill:#ffffff" />
</svg>
