<?xml version="1.0" encoding="UTF-8" standalone="no"?>
<!-- Created with Inkscape (http://www.inkscape.org/) -->

<svg
   xmlns:dc="http://purl.org/dc/elements/1.1/"
   xmlns:cc="http://creativecommons.org/ns#"
   xmlns:rdf="http://www.w3.org/1999/02/22-rdf-syntax-ns#"
   xmlns:svg="http://www.w3.org/2000/svg"
   xmlns="http://www.w3.org/2000/svg"
   xmlns:sodipodi="http://sodipodi.sourceforge.net/DTD/sodipodi-0.dtd"
   xmlns:inkscape="http://www.inkscape.org/namespaces/inkscape"
   id="svg2"
   version="1.1"
   inkscape:version="0.48.3.1 r9886"
   width="400"
   height="400"
   sodipodi:docname="Icon.7_55.png">
  <metadata
     id="metadata8">
    <rdf:RDF>
      <cc:Work
         rdf:about="">
        <dc:format>image/svg+xml</dc:format>
        <dc:type
           rdf:resource="http://purl.org/dc/dcmitype/StillImage" />
        <dc:title></dc:title>
      </cc:Work>
    </rdf:RDF>
  </metadata>
  <defs
     id="defs6" />
  <sodipodi:namedview
     pagecolor="#ffffff"
     bordercolor="#666666"
     borderopacity="1"
     objecttolerance="10"
     gridtolerance="10"
     guidetolerance="10"
     inkscape:pageopacity="0"
     inkscape:pageshadow="2"
     inkscape:window-width="1216"
     inkscape:window-height="1000"
     id="namedview4"
     showgrid="false"
     inkscape:zoom="0.59"
     inkscape:cx="200"
     inkscape:cy="200"
     inkscape:window-x="64"
     inkscape:window-y="24"
     inkscape:window-maximized="1"
     inkscape:current-layer="svg2" />
  <rect
     style="fill:#000000;fill-opacity:1;stroke:none"
     id="rect3020"
     width="400"
     height="400"
     x="0"
     y="1.4210855e-14" />
  <path
     id="path2989"
     style="fill:#ffffff"
     d="m 115.28604,152.61184 c -11.25987,-3.68623 -18.998371,-11.57056 -21.758897,-22.16894 -1.99517,-7.65997 -1.930138,-9.92748 0.511427,-17.83235 1.609388,-5.21059 3.136372,-7.72456 7.25301,-11.94108 15.4053,-15.779068 41.17558,-11.583339 50.97517,8.29941 1.8157,3.68394 2.23004,6.21384 2.21609,13.53112 -0.0193,10.0967 -1.61028,14.31465 -8.11561,21.51528 -7.14479,7.90843 -21.25889,11.81217 -31.08119,8.59656 z m 146.59825,218.89068 c -2.53864,-1.3224 -7.16171,-4.73126 -10.27348,-7.57524 -17.30252,-15.81353 -21.02211,-41.1924 -9.0351,-61.64669 8.83827,-15.08135 28.59129,-25.46254 45.4876,-23.90597 12.57309,1.15829 23.44004,6.18564 31.85971,14.73917 15.46994,15.71588 18.56449,38.32898 8.06238,58.91483 -2.99719,5.87498 -13.29861,16.06129 -19.50815,19.29016 l -4.97725,2.5881 34.25,0.0466 L 372,374 l 0,-107.97968 0,-107.97967 -4.12844,-2.10617 c -3.42201,-1.74579 -4.33762,-1.8776 -5.35095,-0.77033 -0.67239,0.73472 -5.17249,8.31085 -10.00023,16.83585 -4.82774,8.525 -8.89974,15.64243 -9.04889,15.81652 -0.14916,0.17408 -4.92876,-1.26426 -10.62134,-3.19632 -5.69258,-1.93206 -14.28765,-4.31338 -19.10015,-5.29182 l -8.75,-1.77899 0,-20.2747 0,-20.27469 -20,0 -20,0 0,20.43873 0,20.43872 -4.75,0.6566 c -6.00334,0.82984 -21.19108,4.86097 -27.78358,7.37431 l -5.03358,1.91902 -9.34148,-16.43196 c -5.13781,-9.03758 -9.74204,-16.67953 -10.23162,-16.9821 -0.48957,-0.30258 -6.39579,2.51815 -13.12494,6.26827 -6.72914,3.75013 -12.53924,6.81841 -12.91133,6.81841 -0.37209,0 -1.9819,-1.8 -3.57735,-4 l -2.90083,-4 3.17426,-5 c 1.74585,-2.75 4.33865,-7.925 5.76178,-11.5 l 2.58752,-6.5 15.8056,-1.82336 c 8.69308,-1.00284 15.87642,-1.90284 15.96298,-2 0.28153,-0.31598 -3.80606,-39.166075 -4.15859,-39.524969 -0.39283,-0.399911 -24.84641,1.680164 -28.20949,2.399561 -1.80021,0.385083 -2.51309,-0.198828 -3.69435,-3.025985 -1.95361,-4.67564 -7.05228,-12.172749 -11.37992,-16.733088 l -3.51864,-3.707842 6.10428,-13.580196 6.10429,-13.580196 -5.19251,-2.330529 C 150.96715,31.944847 143.87398,28.960668 143.23689,29.359647 c -0.40529,0.253813 -3.173,6.065345 -6.15046,12.914516 l -5.41357,12.453037 -9.58643,0.588677 C 116.81389,55.639649 110.25,56.492581 107.5,57.211281 l -5,1.306726 -7.862726,-11.009003 C 90.312775,41.454052 86.453332,36.150557 86.060734,35.72346 85.551666,35.169658 56.428642,55.335034 53.193981,58.48107 c -0.16831,0.163698 3.595269,5.756297 8.363508,12.427998 l 8.669527,12.130363 -3.585115,6.822486 c -1.971813,3.752367 -4.266008,9.436611 -5.098211,12.631653 -0.832203,3.19504 -1.635275,5.93135 -1.784604,6.08068 -0.14933,0.14933 -7.018714,1.03219 -15.265297,1.96191 -8.246584,0.92973 -15.140667,1.82381 -15.320186,1.98685 -0.546258,0.49614 3.512257,38.49618 4.183158,39.16708 0.551736,0.55174 16.894572,-0.78832 28.199366,-2.31225 l 4.056128,-0.54678 4.113586,6.33447 c 2.262473,3.48396 5.668956,7.8312 7.569962,9.66054 l 3.456375,3.32607 -6.94078,15.55924 c -3.817429,8.55758 -6.574169,15.89051 -6.126089,16.2954 1.185114,1.07088 35.409181,16.24824 35.715331,15.8387 0.14205,-0.19002 3.34254,-7.35899 7.11221,-15.93107 l 6.85395,-15.58558 4.5666,0.39371 c 2.51163,0.21654 7.97795,-0.21125 12.14737,-0.95064 l 7.58077,-1.34435 9.91923,13.73413 c 5.45558,7.55377 10.15984,13.75757 10.45391,13.78623 0.29407,0.0286 5.45347,-3.54791 11.46532,-7.94791 6.01185,-4.4 11.17125,-7.99466 11.46532,-7.98813 0.58899,0.0131 7.52682,12.10378 7.53166,13.12558 0.002,0.35059 -3.32949,3.62564 -7.40255,7.27787 -4.07306,3.65224 -10.06984,9.66539 -13.32618,13.36256 -3.25634,3.69717 -6.26641,6.84881 -6.68905,7.00366 -0.42264,0.15484 -7.92585,-3.82419 -16.67381,-8.8423 -8.74797,-5.01811 -16.65151,-9.52598 -17.56342,-10.0175 -1.38996,-0.74918 -3.13694,1.79372 -10.805,15.72778 -5.03083,9.1418 -8.94628,17.14443 -8.701,17.78362 0.24528,0.63919 7.68736,5.33378 16.53795,10.43242 8.8506,5.09865 16.33231,9.65911 16.62603,10.13436 0.29373,0.47526 -0.53265,3.7072 -1.83638,7.18209 -1.9825,5.28404 -5.67663,19.76301 -7.2835,28.54733 -0.40392,2.20812 -0.60042,2.23191 -20.64394,2.5 L 94.5,308.5 94.22886,328.25 93.95772,348 l 20.52114,0 C 125.76549,348 135,348.19558 135,348.43462 c 0,1.28523 3.26381,15.66505 4.59434,20.24189 l 1.54758,5.32349 62.67904,-0.0466 62.67904,-0.0466 -4.61571,-2.40436 z" />
</svg>
