<?xml version="1.0" encoding="UTF-8" standalone="no"?>
<!-- Created with Inkscape (http://www.inkscape.org/) -->

<svg
   xmlns:dc="http://purl.org/dc/elements/1.1/"
   xmlns:cc="http://creativecommons.org/ns#"
   xmlns:rdf="http://www.w3.org/1999/02/22-rdf-syntax-ns#"
   xmlns:svg="http://www.w3.org/2000/svg"
   xmlns="http://www.w3.org/2000/svg"
   version="1.1"
   width="400"
   height="400"
   id="svg2">
  <metadata
     id="metadata8">
    <rdf:RDF>
      <cc:Work
         rdf:about="">
        <dc:format>image/svg+xml</dc:format>
        <dc:type
           rdf:resource="http://purl.org/dc/dcmitype/StillImage" />
        <dc:title></dc:title>
      </cc:Work>
    </rdf:RDF>
  </metadata>
  <defs
     id="defs6" />
  <path
     d="m 0,0 400,0 0,400 -400,0 z"
     id="rect3031"
     style="fill:#000000;fill-opacity:1;stroke:none" />
  <path
     d="m 204.76987,189.93038 c 4.14115,-1.44361 6.79165,-6.88084 5.35841,-10.99223 C 209.19483,176.26043 209.30136,176 211.33023,176 c 3.33287,0 15.46684,-6.15192 21.35468,-10.82682 9.37343,-7.44244 19.57967,-21.88057 26.43138,-37.39084 3.07187,-6.9538 8.12509,-21.87429 7.58966,-22.40972 -0.13987,-0.13987 -2.26843,0.6616 -4.73013,1.78106 -18.04703,8.20685 -41.28363,13.07537 -62.47582,13.08989 -21.2848,0.0146 -37.15188,-2.69298 -54.15856,-9.24167 -4.23963,-1.63254 -7.84788,-2.8288 -8.01832,-2.65835 -0.36232,0.36232 4.54047,13.91755 7.65208,21.15645 9.6,22.33362 30.10161,43.17257 45.27396,46.01892 3.39547,0.63699 3.56423,0.84171 2.65823,3.22467 -1.50134,3.94883 0.64151,9.15349 4.45116,10.81118 3.87328,1.68539 3.68191,1.67569 7.41132,0.37561 z m 2.59489,27.17859 c 2.93464,-2.53209 3.84006,-5.95832 2.58196,-9.7704 C 208.84891,204.01216 204.83492,201 201.5,201 c -3.33492,0 -7.34891,3.01216 -8.44672,6.33857 -2.93024,8.87871 7.27234,15.84398 14.31148,9.7704 z m -1.21436,29.81054 c 1.1104,-0.59427 2.66186,-2.61927 3.44768,-4.5 3.6324,-8.69355 -6.45451,-16.25328 -13.88644,-10.40732 -3.36864,2.64976 -4.2779,6.99211 -2.27509,10.86512 0.85988,1.66281 2.35092,3.48197 3.31343,4.04258 2.31178,1.34649 6.88412,1.3463 9.40042,-3.8e-4 z m -0.18403,28.59788 C 214.01634,271.35459 210.66214,258.8 201.5,258.8 c -9.01698,0 -12.49553,12.42009 -4.66898,16.67048 3.43901,1.86763 5.59308,1.87869 9.13535,0.0469 z M 255.93362,339.25 c -1.22623,-2.0625 -4.92895,-7.8 -8.22828,-12.75 -27.92563,-41.89702 -48.02278,-49.01907 -71.41594,-25.30845 -9.06204,9.18502 -18.43146,21.83171 -28.19595,38.05845 L 145.83688,343 202,343 l 56.16312,0 -2.2295,-3.75 z m -143.58699,5.5 c 3.40375,-58.78059 28.28682,-110.95919 62.22233,-130.47718 L 181,210.57401 l 0,-10.6552 0,-10.6552 -6.52664,-3.81692 C 148.00692,169.96853 127.53233,136.3043 117.6391,92 114.68564,78.773699 112,58.428108 112,49.279859 L 112,43 l 90.11892,0 90.11892,0 -0.68486,9.75 c -1.5438,21.978364 -5.35921,41.883787 -11.63668,60.70996 -10.99878,32.98537 -28.20569,57.55722 -49.54854,70.7564 l -8.86776,5.48414 -0.28448,10.10411 c -0.32123,11.40938 -1.48848,9.55075 10.2252,16.28171 8.08872,4.64798 21.95873,18.58973 28.83521,28.98437 17.55903,26.5426 28.24785,61.32279 31.2486,101.67931 l 0.68779,9.25 -90.25856,0 -90.25857,0 0.65144,-11.25 z m 193.84598,12.75 c -1.08594,-45.92574 -13.3253,-89.43298 -33.82716,-120.24536 -7.15526,-10.7537 -20.53164,-24.7889 -29.40096,-30.84904 -8.71794,-5.9567 -8.97522,-7.71981 -1.73734,-11.9056 8.02719,-4.64227 23.45576,-20.5669 31.07433,-32.07344 C 293.47878,130.44188 304.44483,91.080843 306.34007,40.25 L 306.75953,29 201.72272,29 96.685917,29 97.340223,45.25 c 1.867978,46.392151 13.640527,86.88224 34.362187,118.18405 7.52415,11.36587 22.06814,26.36769 30.11787,31.06595 7.18451,4.19327 6.91813,5.95917 -1.79717,11.91407 -14.07343,9.61595 -29.86674,29.20859 -39.56737,49.08593 -14.60795,29.93283 -23.373196,69.8532 -23.439912,106.75461 L 97,371.00921 201.75,370.75461 306.5,370.5 l -0.30739,-13 z"
     id="path2989"
     style="fill:#ffffff" />
</svg>
