<?xml version="1.0" encoding="UTF-8" standalone="no"?>
<!-- Created with Inkscape (http://www.inkscape.org/) -->

<svg
   xmlns:dc="http://purl.org/dc/elements/1.1/"
   xmlns:cc="http://creativecommons.org/ns#"
   xmlns:rdf="http://www.w3.org/1999/02/22-rdf-syntax-ns#"
   xmlns:svg="http://www.w3.org/2000/svg"
   xmlns="http://www.w3.org/2000/svg"
   xmlns:sodipodi="http://sodipodi.sourceforge.net/DTD/sodipodi-0.dtd"
   xmlns:inkscape="http://www.inkscape.org/namespaces/inkscape"
   id="svg2"
   version="1.1"
   inkscape:version="0.48.3.1 r9886"
   width="400"
   height="400"
   sodipodi:docname="Icon.5_72.svg">
  <metadata
     id="metadata8">
    <rdf:RDF>
      <cc:Work
         rdf:about="">
        <dc:format>image/svg+xml</dc:format>
        <dc:type
           rdf:resource="http://purl.org/dc/dcmitype/StillImage" />
        <dc:title />
      </cc:Work>
    </rdf:RDF>
  </metadata>
  <defs
     id="defs6" />
  <sodipodi:namedview
     pagecolor="#ffffff"
     bordercolor="#666666"
     borderopacity="1"
     objecttolerance="10"
     gridtolerance="10"
     guidetolerance="10"
     inkscape:pageopacity="0"
     inkscape:pageshadow="2"
     inkscape:window-width="1855"
     inkscape:window-height="1056"
     id="namedview4"
     showgrid="false"
     inkscape:zoom="0.834386"
     inkscape:cx="392.70993"
     inkscape:cy="204.1281"
     inkscape:window-x="65"
     inkscape:window-y="24"
     inkscape:window-maximized="1"
     inkscape:current-layer="svg2" />
  <path
     style="fill:#000000;fill-opacity:1;stroke:none"
     d="m 0,3.8146973e-6 400,0 L 400,400 0,400 z"
     id="rect3082" />
  <path
     id="path3047"
     style="fill:#ffffff"
     d="M 246.66667,176.33333 C 246.3,175.96667 246,167.86667 246,158.33333 L 246,141 l 6.5,0 6.5,0 0,18 0,18 -5.83333,0 c -3.20834,0 -6.13334,-0.3 -6.5,-0.66667 z M 193,159 l 0,-18 6,0 6,0 0,18 0,18 -6,0 -6,0 0,-18 z m -54,0 0,-18 6.5,0 6.5,0 0,18 0,18 -6.5,0 -6.5,0 0,-18 z m 176.63727,209.25 c -0.27363,-0.9625 -4.2022,-24.1375 -8.73016,-51.5 L 298.67446,267 289.33723,267 280,267 280,200.5489 280,134.09779 296.46768,115.7989 312.93536,97.5 312.96768,63.25 313,29 l -20,0 -20,0 0,16 0,16 -11.5,0 -11.5,0 0,-16 0,-16 -20,0 -20,0 0,16 0,16 -11,0 -11,0 0,-16 0,-16 -20,0 -20,0 0,16 0,16 -11.5,0 -11.5,0 0,-16 0,-16 -20,0 -20,0 0,34.081063 0,34.081064 16.5,18.352753 16.5,18.35274 0,66.52867 0,66.52866 -9.25,0.28752 L 99.5,267.5 90.912181,318.75 82.324362,370 199.22957,370 c 110.86115,0 116.87948,-0.0905 116.4077,-1.75 z" />
</svg>
