<?xml version="1.0" encoding="UTF-8" standalone="no"?>
<!-- Created with Inkscape (http://www.inkscape.org/) -->

<svg
   xmlns:dc="http://purl.org/dc/elements/1.1/"
   xmlns:cc="http://creativecommons.org/ns#"
   xmlns:rdf="http://www.w3.org/1999/02/22-rdf-syntax-ns#"
   xmlns:svg="http://www.w3.org/2000/svg"
   xmlns="http://www.w3.org/2000/svg"
   xmlns:sodipodi="http://sodipodi.sourceforge.net/DTD/sodipodi-0.dtd"
   xmlns:inkscape="http://www.inkscape.org/namespaces/inkscape"
   id="svg2"
   version="1.1"
   inkscape:version="0.48.3.1 r9886"
   width="400"
   height="400"
   sodipodi:docname="Icon.2_31.svg">
  <metadata
     id="metadata8">
    <rdf:RDF>
      <cc:Work
         rdf:about="">
        <dc:format>image/svg+xml</dc:format>
        <dc:type
           rdf:resource="http://purl.org/dc/dcmitype/StillImage" />
        <dc:title></dc:title>
      </cc:Work>
    </rdf:RDF>
  </metadata>
  <defs
     id="defs6" />
  <sodipodi:namedview
     pagecolor="#ffffff"
     bordercolor="#666666"
     borderopacity="1"
     objecttolerance="10"
     gridtolerance="10"
     guidetolerance="10"
     inkscape:pageopacity="0"
     inkscape:pageshadow="2"
     inkscape:window-width="1216"
     inkscape:window-height="1000"
     id="namedview4"
     showgrid="false"
     inkscape:zoom="1.18"
     inkscape:cx="232.13344"
     inkscape:cy="121.54075"
     inkscape:window-x="64"
     inkscape:window-y="24"
     inkscape:window-maximized="1"
     inkscape:current-layer="svg2" />
  <rect
     style="fill:#000000;fill-opacity:1;stroke:none"
     id="rect3130"
     width="400"
     height="400"
     x="0"
     y="7.6293945e-06" />
  <path
     style="fill:#ffffff"
     d="m 225,348.48932 c 31.95096,-7.60264 53.99439,-25.59621 70.90098,-51.19187 7.39115,-11.79599 13.06316,-25.028 15.47719,-38.73079 -0.63919,-14.58407 2.43209,-29.74435 -3.8713,-43.50728 -3.62207,-12.93652 -10.90288,-24.39442 -19.38504,-34.61993 -12.27488,-13.63067 -27.91107,-23.99917 -45.42594,-29.53673 -5.26173,1.9541 3.14854,9.25318 3.75703,13.50221 8.36528,15.16624 10.95863,32.64875 11.8264,49.71242 -1.26195,19.49368 -5.97723,38.97214 -16.66665,55.56697 -5.82036,10.78847 -14.85699,19.38728 -23.71208,27.6091 -12.73404,9.22928 -26.81004,17.00642 -42.55613,19.37085 -9.9918,2.28666 -20.55581,1.35173 -30.70748,0.85884 -10.6797,-1.01855 -20.61724,-5.16897 -30.63698,-8.73706 -0.38052,6.3645 7.46957,9.33076 10.79595,14.16476 16.00288,17.03736 39.67854,25.93513 62.60325,27.92261 12.49805,-0.90083 25.39911,0.82405 37.6008,-2.3841 z m -105,21.39647 c -8.84815,-12.35734 -19.68663,-23.56993 -25.285532,-37.98706 -6.789352,-13.39102 -10.558924,-28.44517 -12.099267,-43.29875 0.315784,-14.66319 -1.4156,-29.56341 3.245969,-43.75029 3.369053,-16.27862 10.507666,-31.56069 19.44482,-45.43493 17.20401,-22.64412 39.09561,-42.14133 64.8353,-54.4808 16.19883,-6.78263 33.69,-11.41143 51.29642,-10.74428 16.6567,0.92015 33.00428,5.42328 47.58858,13.56745 33.07037,18.80479 55.49626,55.36912 56.5631,93.49851 0.16694,14.92025 -2.41011,30.00014 -8.36621,43.73985 -3.77413,10.18033 -11.7751,19.39243 -14.80609,29.00451 14.43542,-5.53399 27.30279,-14.66717 37.28426,-26.44801 15.90062,-17.97372 23.95904,-41.4631 28.09043,-64.77522 1.39326,-14.27713 0.47761,-28.86853 0.51399,-43.22895 -4.6556,-31.33903 -16.038,-62.02934 -35.44977,-87.226654 C 325.4602,82.485534 316.19082,73.991655 307.16786,65.675443 270.89389,35.723165 222.60329,29.365242 177.20239,27.383032 163.05558,26.726557 148.77901,28.224445 134.74033,29.88322 113.40604,32.893429 92.499363,39.63954 73.873355,50.510158 63.87457,56.739444 54.317998,63.509513 46.524121,72.435192 39.401686,78.867759 33.369678,87.013272 29,95.280332 29,186.13236 29,276.9844 29,367.83643 30.621454,374.15248 39.683622,369.64351 44.714093,371 69.809395,371 94.904698,371 120,371 l 0,-0.96667 0,-0.14754 z"
     id="path3120"
     inkscape:connector-curvature="0"
     sodipodi:nodetypes="ccccccccccccccccccccccccccccccccccccccccccc" />
</svg>
