<?xml version="1.0" encoding="UTF-8" standalone="no"?>
<!-- Created with Inkscape (http://www.inkscape.org/) -->

<svg
   xmlns:dc="http://purl.org/dc/elements/1.1/"
   xmlns:cc="http://creativecommons.org/ns#"
   xmlns:rdf="http://www.w3.org/1999/02/22-rdf-syntax-ns#"
   xmlns:svg="http://www.w3.org/2000/svg"
   xmlns="http://www.w3.org/2000/svg"
   xmlns:sodipodi="http://sodipodi.sourceforge.net/DTD/sodipodi-0.dtd"
   xmlns:inkscape="http://www.inkscape.org/namespaces/inkscape"
   id="svg2"
   version="1.1"
   inkscape:version="0.48.3.1 r9886"
   width="400"
   height="400"
   sodipodi:docname="Icon.5_11.png">
  <metadata
     id="metadata8">
    <rdf:RDF>
      <cc:Work
         rdf:about="">
        <dc:format>image/svg+xml</dc:format>
        <dc:type
           rdf:resource="http://purl.org/dc/dcmitype/StillImage" />
        <dc:title></dc:title>
      </cc:Work>
    </rdf:RDF>
  </metadata>
  <defs
     id="defs6" />
  <sodipodi:namedview
     pagecolor="#ffffff"
     bordercolor="#666666"
     borderopacity="1"
     objecttolerance="10"
     gridtolerance="10"
     guidetolerance="10"
     inkscape:pageopacity="0"
     inkscape:pageshadow="2"
     inkscape:window-width="1280"
     inkscape:window-height="970"
     id="namedview4"
     showgrid="false"
     inkscape:zoom="0.59"
     inkscape:cx="203.38983"
     inkscape:cy="200"
     inkscape:window-x="0"
     inkscape:window-y="26"
     inkscape:window-maximized="1"
     inkscape:current-layer="svg2" />
  <rect
     style="fill:#000000;fill-opacity:1;stroke:none"
     id="rect3002"
     width="400"
     height="400"
     x="0"
     y="-7.6293945e-06" />
  <path
     id="path2987"
     style="fill:#ffffff"
     d="m 127.39121,349.75 c -0.39975,-0.6875 -2.00626,-2.89601 -3.57002,-4.90779 -4.1202,-5.30069 -11.47445,-19.5011 -14.32537,-27.66105 -5.33862,-15.28031 -6.88567,-34.98314 -4.02805,-51.30017 7.03729,-40.18291 36.30972,-71.89268 76.25488,-82.60416 8.62372,-2.31249 11.6652,-2.62184 25.77735,-2.62184 14.16879,0 17.13634,0.30447 25.92862,2.66022 65.11665,17.44696 96.58081,88.96386 65.45853,148.78482 -2.34619,4.50967 -5.98891,10.3793 -8.09492,13.04361 l -3.82913,4.84421 9.26845,-6.22871 c 11.21824,-7.53903 28.35212,-24.36483 35.51322,-34.87466 26.06037,-38.24695 32.29825,-88.7104 16.75225,-135.523 -6.43463,-19.37616 -17.09784,-37.59075 -29.27349,-50.00415 -6.53773,-6.66539 -16.96595,-14.94825 -17.78669,-14.1275 -0.28058,0.28058 0.37532,2.7566 1.45757,5.50228 7.59279,19.26308 6.68618,46.01154 -2.11985,62.54313 C 297.32617,183.74891 287.65593,195 285.54024,195 c -0.91687,0 -1.40167,-4.27643 -1.84219,-16.25 -1.12472,-30.57029 -8.5054,-49.1259 -25.97303,-65.29825 C 248.72821,105.12209 237.2687,98.353698 215.5,88.512176 195.02086,79.253656 188.32605,75.313375 183.2217,69.514522 178.72701,64.408291 177,59.474264 177,51.739316 c 0,-5.692582 3.08492,-17.529664 5.59365,-21.463317 1.38222,-2.16729 1.19511,-2.146381 -7.33763,0.81999 -29.25393,10.169999 -43.28712,23.241668 -43.24264,40.279738 0.0183,7.030087 4.453,19.234314 11.54206,31.763963 3.22392,5.69817 7.97942,14.41031 10.56778,19.36031 11.19668,21.41266 8.51246,31.05502 -10.88046,39.08512 -5.70265,2.36132 -8.20819,2.80147 -16.24276,2.85344 -11.61239,0.0751 -17.19061,-2.18886 -22.48831,-9.12704 C 99.026316,148.12754 97.688323,141.80868 98.305094,126 c 0.289685,-7.425 0.84854,-14.625 1.241901,-16 1.039885,-3.63495 -9.161154,6.32668 -16.512275,16.12474 C 51.11306,168.67203 47.714611,233.07348 74.466216,288.5 85.500767,311.36243 101.90193,331.82312 120,345.30404 c 8.22815,6.129 8.44604,6.26006 7.39121,4.44596 z m 70.53814,-19.05307 c -20.61228,-5.84762 -31.36713,-27.64806 -23.90043,-48.44693 1.59758,-4.45017 3.39268,-4.07626 5.9677,1.24302 6.38729,13.19438 23.97074,13.24043 30.52888,0.08 1.36098,-2.73112 2.47199,-5.66481 2.46892,-6.51932 -0.0122,-3.39319 -2.19966,-9.14412 -4.53285,-11.91696 -3.79652,-4.51191 -3.2656,-5.45245 2.78843,-4.93978 12.60585,1.06748 25.32606,10.70859 29.75835,22.55494 2.59395,6.93296 2.8721,18.63269 0.59456,25.00912 -4.95504,13.87263 -17.11438,22.96029 -31.86287,23.81369 -4.23498,0.24505 -9.13714,-0.11926 -11.81069,-0.87774 z m 20.5291,10.77188 c 29.33692,-7.6413 44.22424,-39.22293 31.09715,-65.96881 -14.38879,-29.31652 -52.25557,-35.51431 -75.42483,-12.34505 -17.76732,17.76732 -18.04525,46.50244 -0.6264,64.76428 11.96046,12.5393 29.05324,17.69122 44.95408,13.54958 z m -27.11148,15.60579 c -21.15231,-5.72204 -36.65097,-20.38591 -43.95156,-41.5842 -2.38823,-6.93457 -2.74891,-9.50998 -2.72957,-19.4904 0.0188,-9.69342 0.43784,-12.76907 2.66753,-19.57841 5.3956,-16.47789 16.76473,-29.54861 32.09992,-36.90424 C 190.12383,234.38956 196.10791,233 207.5,233 c 11.39209,0 17.37617,1.38956 28.06671,6.51735 15.33519,7.35563 26.70432,20.42635 32.09992,36.90424 2.22454,6.79361 2.6508,9.90738 2.6802,19.57841 0.0312,10.26525 -0.28724,12.41738 -2.96586,20.04417 -6.78341,19.31427 -21.62566,34.05532 -40.38097,40.10563 -9.4915,3.06188 -26.1552,3.49411 -35.65303,0.9248 z M 231.5,367.52084 c 29.85306,-8.75239 52.44043,-31.97174 60.72831,-62.42745 2.83428,-10.41518 3.01884,-31.53207 0.36279,-41.50893 -8.8659,-33.30282 -33.57391,-57.63751 -66.22462,-65.22401 -10.48076,-2.43524 -27.22919,-2.44078 -37.67701,-0.0124 -48.21789,11.207 -77.92333,59.39993 -65.79636,106.74539 8.56094,33.42314 36.00857,58.60574 70.76664,64.92683 9.09481,1.65398 27.91341,0.411 37.84025,-2.49938 z" />
</svg>
