<?xml version="1.0" standalone="no"?>
<!DOCTYPE svg PUBLIC "-//W3C//DTD SVG 20010904//EN" "http://www.w3.org/TR/2001/REC-SVG-20010904/DTD/svg10.dtd">
<!-- Created using Karbon, part of Calligra: http://www.calligra.org/karbon -->
<svg xmlns="http://www.w3.org/2000/svg" xmlns:xlink="http://www.w3.org/1999/xlink" width="409.6pt" height="409.6pt">
<defs/>
<g id="layer0">
  <rect id="rect2994" transform="" fill="#000000" width="409.60000000000pt" height="409.60000000000pt"/>
  <path id="path2987" transform="translate(45.6633, 35.84)" fill="#ffffff" d="M158.974 436.8C151.716 397.126 129.354 367.211 70.1207 317.937C55.3212 305.626 49.0567 299.628 49.0567 297.767C49.0567 296.31 54.5621 278.109 61.2909 257.319C68.0197 236.53 74.1124 217.648 74.8301 215.36C77.0358 208.329 79.7717 210.088 79.8097 218.56C79.988 258.289 93.4376 298.589 111.537 313.627C118.223 319.183 130.51 324.851 138.017 325.844L144.417 326.69L136.737 321.586C127.146 315.211 118.177 306.527 118.177 303.616C118.177 302.401 119.454 300.838 121.015 300.144C128.861 296.651 137.633 277.864 142.296 254.563C146.308 234.518 147.806 213.833 147.415 183.885C147.109 160.421 147.316 157.07 149.135 156.052C150.273 155.415 168.274 148.79 189.138 141.329C227.487 127.615 236.672 125.567 226.977 132.891C217.614 139.965 201.141 156.964 194.898 165.994C171.338 200.075 169.228 240.466 189.725 265.018L193.114 269.078L213.413 221.899C224.577 195.95 233.827 174.578 233.967 174.404C234.402 173.865 312.001 153.632 313.697 153.615C317.478 153.579 314.638 157.203 306.688 162.56C294.548 170.74 277.765 184.947 267.204 195.981C245.318 218.85 235.844 241.208 238.773 263.073C239.975 272.044 245.521 285.997 247.418 284.824C247.992 284.469 259.752 268.371 273.552 249.049C287.352 229.728 299.175 213.591 299.825 213.189C300.475 212.788 322.942 215.742 349.752 219.755C405.138 228.045 407.913 229.153 384.417 233.597C372.698 235.813 349.706 244.011 336.079 250.833C287.716 275.041 259.335 313.403 242.911 376.76L238.649 393.201L241.843 404.28C243.599 410.374 247.061 419.968 249.536 425.6C252.012 431.232 254.629 437.424 255.352 439.36C256.467 442.345 257.401 442.88 261.49 442.88L266.313 442.88L263.755 434.24C261.909 428.005 261.155 421.502 261.047 410.88C260.804 387.09 266.773 372.877 284.718 354.508C296.364 342.587 306.847 335.194 340.257 315.337C377.997 292.906 390.017 284.672 401.43 273.433C412.041 262.984 417.178 254.108 422.203 237.537C429.139 214.666 430.727 197.416 427.358 181.522C423.477 163.206 416.07 150.033 399.86 132.619C387.636 119.486 375.588 108.297 378.45 112.734C379.618 114.545 382.149 120.305 384.074 125.534C387.157 133.908 387.576 136.869 387.595 150.4C387.615 164.655 387.359 166.285 384.032 173.059C377.65 186.057 365.451 194.56 353.187 194.56C332.754 194.56 322.24 169.014 327.373 131.84C333.442 87.8813 333.72 84.4222 332.095 73.0084C328.46 47.4663 314.253 30.258 284.453 15.2996C274.79 10.4491 248.12 0 245.403 0C245.114 0 247.182 3.37736 250 7.50524C269.84 36.5714 270.362 71.9686 251.255 92.6971C241.25 103.551 224.026 109.6 206.497 108.416C187.27 107.117 174.137 98.9159 166.544 83.4655C162.554 75.3481 162.338 74.1773 162.359 60.8129C162.372 52.8844 163.074 44.8096 163.965 42.3524C164.836 39.9503 165.267 37.7034 164.923 37.3594C163.789 36.2256 145.408 51.1568 137.113 59.949C122.246 75.7088 112.625 92.559 105.772 114.836C102.503 125.463 102.314 127.484 102.318 151.68C102.322 176.395 102.463 177.811 106.406 192.64C110.886 209.49 111.139 211.2 109.148 211.2C106.602 211.2 89.3635 196.686 75.8332 183.15C64.4089 171.72 61.4251 167.854 56.7635 158.439C52.1866 149.196 51.1361 145.678 50.6483 137.959C49.9685 127.202 52.4701 116.792 57.5257 109.342L60.7387 104.608L56.6973 105.416C42.9065 108.174 24.4003 122.436 18.2563 135.04C15.6553 140.376 15.1367 143.355 15.1367 152.96C15.1367 167.112 17.2783 172.078 29.7494 186.843C39.8573 198.81 45.9641 210.582 48.6306 223.24C52.4652 241.443 46.9188 256.478 35.2927 259.396C27.4518 261.364 15.5677 254.092 6.71855 241.912L1.05668 234.118L0.283284 241.539C-0.75292 251.482 1.15279 268.53 4.38164 278.203C13.0406 304.142 32.4496 325.643 79.4469 361.359C126.989 397.489 140.643 412.836 145.299 435.377L146.849 442.88L153.468 442.88L160.086 442.88Z"/>
 </g>
</svg>
