<?xml version="1.0" encoding="UTF-8" standalone="no"?>
<!-- Created with Inkscape (http://www.inkscape.org/) -->

<svg
   xmlns:dc="http://purl.org/dc/elements/1.1/"
   xmlns:cc="http://creativecommons.org/ns#"
   xmlns:rdf="http://www.w3.org/1999/02/22-rdf-syntax-ns#"
   xmlns:svg="http://www.w3.org/2000/svg"
   xmlns="http://www.w3.org/2000/svg"
   xmlns:sodipodi="http://sodipodi.sourceforge.net/DTD/sodipodi-0.dtd"
   xmlns:inkscape="http://www.inkscape.org/namespaces/inkscape"
   id="svg2"
   version="1.1"
   inkscape:version="0.48.3.1 r9886"
   width="400"
   height="400"
   sodipodi:docname="Icon.4_35.png">
  <metadata
     id="metadata8">
    <rdf:RDF>
      <cc:Work
         rdf:about="">
        <dc:format>image/svg+xml</dc:format>
        <dc:type
           rdf:resource="http://purl.org/dc/dcmitype/StillImage" />
        <dc:title></dc:title>
      </cc:Work>
    </rdf:RDF>
  </metadata>
  <defs
     id="defs6" />
  <sodipodi:namedview
     pagecolor="#ffffff"
     bordercolor="#666666"
     borderopacity="1"
     objecttolerance="10"
     gridtolerance="10"
     guidetolerance="10"
     inkscape:pageopacity="0"
     inkscape:pageshadow="2"
     inkscape:window-width="1280"
     inkscape:window-height="970"
     id="namedview4"
     showgrid="false"
     inkscape:zoom="0.59"
     inkscape:cx="332.46428"
     inkscape:cy="193.48961"
     inkscape:window-x="0"
     inkscape:window-y="26"
     inkscape:window-maximized="1"
     inkscape:current-layer="svg2" />
  <rect
     style="fill:#000000;fill-opacity:1;stroke:none"
     id="rect3010"
     width="400"
     height="400"
     x="0"
     y="0" />
  <path
     id="path2987"
     style="fill:#ffffff"
     d="M 183.61702,77.605389 C 178.99758,70.898166 169.94436,62.197173 164,58.751605 161.525,57.317004 155.97272,54.74986 151.66159,53.046841 141.01801,48.842316 136.69059,46.545242 132.5278,42.890268 129.45533,40.192603 129,40.040899 129,41.714907 c 0,3.68029 3.20889,12.806722 5.63016,16.012797 3.44672,4.563895 8.90756,7.426093 24.36984,12.772994 12.74171,4.40612 25.12718,10.278029 26.55617,12.590188 0.35426,0.573197 0.89892,0.787357 1.21037,0.475911 0.31144,-0.311446 -1.10584,-2.994079 -3.14952,-5.961408 z M 65,103.5 c 7.843455,-1.59744 15.745372,-2.51681 21.887518,-2.54656 L 96.5,100.90688 91.923887,98.522644 C 78.973592,91.775317 66.522821,89.982659 49.575931,92.425396 37.066175,94.228562 30.873394,94.397671 26.220291,93.063179 l -3.266505,-0.936822 2.035073,2.857997 C 32.971878,106.19547 42.161733,108.15136 65,103.5 z m 213.85611,9.80279 C 277.40415,98.283208 272.77962,90.458959 256.36495,75.249951 250.93923,70.22275 245.15,64.069822 243.5,61.576777 c -1.65,-2.493045 -3.28125,-4.542701 -3.625,-4.554793 -2.19642,-0.07726 -2.45653,15.650462 -0.34251,20.710027 0.87102,2.084645 7.07469,9.300622 14.37258,16.717882 13.19701,13.412887 18.43888,20.143967 22.35043,28.700207 l 2.2445,4.90968 0.56595,-3.36602 c 0.31127,-1.85132 0.21684,-6.97725 -0.20984,-11.39097 z M 329.62375,144.5 c -0.68728,-11.31986 -1.90458,-15.14598 -9.97426,-31.35022 -3.58469,-7.19821 -6.82508,-15.137924 -7.20087,-17.643807 -0.59327,-3.956219 -0.88617,-4.388254 -2.2244,-3.281062 -2.78091,2.300783 -5.17968,9.114639 -5.20147,14.775089 -0.0234,6.06896 2.52591,12.37002 9.80436,24.23349 6.07584,9.90327 10.92371,19.89764 12.32509,25.4094 l 1.23493,4.85711 0.89152,-4 c 0.49034,-2.2 0.64563,-8.05 0.3451,-13 z m -198.06038,31.82371 c 4.86235,-1.65677 13.74937,-9.30251 16.25528,-13.98486 1.02932,-1.92329 0.64217,-2.30769 -4.77065,-4.73682 -14.68568,-6.59054 -34.9656,-9.26168 -47.048686,-6.19693 -9.779654,2.4805 -16.662816,6.3728 -24.413651,13.80548 -7.197581,6.90214 -7.977093,8.64914 -3.017951,6.76368 5.573511,-2.11905 17.215843,-1.23946 31.932288,2.41251 15.69892,3.89577 23.82705,4.4026 31.06337,1.93694 z m 61.83129,33.63611 C 197.0276,208.83772 200,207.71179 200,207.45775 c 0,-0.25404 -2.8125,-2.5345 -6.25,-5.0677 -16.4048,-12.08918 -30.03824,-14.94448 -45.74314,-9.58015 l -5.49314,1.87629 3.99314,0.73593 c 6.01652,1.10884 12.46995,4.24537 17.55245,8.53093 10.40771,8.77579 16.39865,10.00251 29.33535,6.00677 z M 226.83137,266.75 c -2.363,-3.4375 -8.12924,-10.11988 -12.81387,-14.84973 -10.77771,-10.88176 -19.5303,-15.43328 -39.10128,-20.33344 -15.43881,-3.86555 -19.85379,-5.51909 -24.79126,-9.28509 -4.1418,-3.1591 -3.92854,-1.96376 1.17358,6.57805 6.5472,10.96114 17.06847,17.84699 34.70146,22.71104 21.2325,5.85698 34.43898,11.94529 40.95392,18.88012 4.32102,4.59952 4.25714,2.67026 -0.12255,-3.70095 z m 92.25,53.66153 C 299.18824,315.06308 283.80284,293.10045 281.3205,266.508 l -0.65268,-6.992 5.05113,4.5414 c 8.31634,7.47711 16.39242,11.2219 25.31529,11.73844 8.74067,0.50599 14.23108,-1.55097 17.90259,-6.70713 6.97512,-9.79566 6.79228,-27.33832 -0.45576,-43.72743 l -2.42238,-5.47743 2.22066,0.65183 c 3.55167,1.04253 11.86087,6.81145 16.46826,11.43361 15.81671,15.8674 22.0856,44.6575 14.22724,65.33902 -4.4831,11.79855 -12.82074,20.0836 -23.36111,23.21376 -6.07609,1.8044 -9.49493,1.78154 -16.53237,-0.11054 z m 23.08648,12.83363 c 6.64818,-2.3882 12.75569,-6.40399 18.54605,-12.19435 24.9445,-24.9445 20.59552,-87.55258 -10.00341,-144.00957 L 344.5,165.58249 l -0.64586,8.95875 c -0.36216,5.02355 -1.52278,11.25134 -2.64222,14.17796 -2.14525,5.60844 -8.35308,14.73726 -10.61089,15.60366 -1.52058,0.5835 -2.60103,-3.15088 -2.60103,-8.99002 0,-6.19177 -3.12215,-18.71217 -6.48106,-25.99021 -3.58233,-7.76216 -11.24804,-18.66421 -19.18549,-27.2853 l -5.01107,-5.44267 -0.59672,7.11766 c -0.32819,3.91471 -1.35031,8.61391 -2.27137,10.44267 C 292.78304,157.49322 286.18268,165 284.93634,165 c -0.36177,0 -0.92286,-2.23839 -1.24688,-4.9742 -0.69653,-5.88108 -4.17224,-14.85263 -8.83485,-22.80459 -4.70921,-8.03145 -23.45718,-26.44042 -34.78304,-34.15409 -8.91051,-6.068664 -34.06857,-19.403449 -34.94812,-18.523908 -0.22442,0.224425 1.61044,2.781512 4.07748,5.682416 C 218.5395,101.20654 226.83792,116.71679 229.41127,128 l 1.48245,6.5 -3.16842,-4 C 207.01323,104.35184 180.44274,88.267158 149,82.84295 140.47092,81.371594 110.51329,81.098086 101.5,82.409284 l -6,0.872843 10,3.175424 c 12.07441,3.834138 20.81829,7.648717 29.5,12.869581 7.89577,4.748228 20.24411,13.762088 19.65716,14.349038 -0.23405,0.23405 -4.41515,-0.26312 -9.29135,-1.10482 -14.94998,-2.58058 -36.13935,-3.77166 -47.076522,-2.64623 -18.591147,1.91303 -38.068183,8.24404 -54.789288,17.80926 -9.542736,5.45888 -22.81606,14.28289 -22.28442,14.81453 0.20802,0.20802 4.594436,-0.48559 9.747591,-1.54136 29.303366,-6.00364 64.648124,-7.24677 88.536829,-3.11398 20.25294,3.5038 37.53967,8.87956 55.76822,17.34258 l 8.76823,4.07085 -5.03295,2.5965 c -5.08922,2.62553 -13.21201,9.74908 -15.06533,13.21203 -0.90728,1.69527 -0.61947,1.88447 2.86668,1.88447 5.29434,0 17.46434,3.22158 26.70986,7.0705 14.05022,5.84912 31.06743,18.55697 44.43103,33.1795 5.25692,5.75216 5.63928,6.66864 1.96083,4.7 -2.90046,-1.55228 -17.54626,-1.23881 -24.20084,0.51798 -7.43727,1.96341 -13.7692,5.16365 -11.70573,5.91622 0.825,0.30089 4.01817,1.46892 7.09594,2.59564 13.33616,4.88213 34.34738,22.12982 45.70724,37.52016 2.84174,3.85 7.95779,12.175 11.36898,18.5 8.91342,16.52717 13.11126,22.47422 22.23792,31.50433 12.68317,12.54898 24.49297,17.79105 38.58992,17.12906 4.14043,-0.19443 10.03887,-1.26422 13.16785,-2.38823 z" />
</svg>
