<?xml version="1.0" standalone="no"?>
<!DOCTYPE svg PUBLIC "-//W3C//DTD SVG 20010904//EN" "http://www.w3.org/TR/2001/REC-SVG-20010904/DTD/svg10.dtd">
<!-- Created using Karbon, part of Calligra: http://www.calligra.org/karbon -->
<svg xmlns="http://www.w3.org/2000/svg" xmlns:xlink="http://www.w3.org/1999/xlink" width="409.6pt" height="409.6pt">
<defs/>
<g id="layer0">
  <rect id="rect3010" transform="" fill="#000000" width="409.60000000000pt" height="409.60000000000pt"/>
  <path id="path2987" transform="translate(27.1361, 52.0002)" fill="#ffffff" d="M207.894 47.3347C201.981 38.7495 190.393 27.6122 182.784 23.2019C179.616 21.3656 172.509 18.0797 166.991 15.8998C153.367 10.518 147.828 7.57775 142.499 2.89939C138.567 -0.553625 137.984 -0.747806 137.984 1.39492C137.984 6.10569 142.091 17.7875 145.19 21.8913C149.602 27.7331 156.592 31.3967 176.384 38.2407C192.693 43.8806 208.547 51.3966 210.376 54.3562C210.829 55.0899 211.526 55.364 211.925 54.9653C212.324 54.5667 210.51 51.1329 207.894 47.3347ZM56.0639 80.4798C66.1035 78.4351 76.218 77.2583 84.0799 77.2202L96.3839 77.1605L90.5265 74.1087C73.9501 65.4722 58.0131 63.1776 36.3211 66.3043C20.3086 68.6124 12.3818 68.8288 6.42585 67.1207L2.24472 65.9215L4.84962 69.5798C15.0679 83.93 26.8309 86.4336 56.0639 80.4798ZM329.8 93.0274C327.941 73.8024 322.022 63.7873 301.011 44.3198C294.066 37.885 286.656 30.0092 284.544 26.8181C282.432 23.627 280.344 21.0035 279.904 20.988C277.092 20.8891 276.76 41.0206 279.465 47.4968C280.58 50.1652 288.521 59.4016 297.862 68.8957C314.755 86.0642 321.464 94.68 326.471 105.632L329.344 111.916L330.068 107.608C330.467 105.238 330.346 98.677 329.8 93.0274ZM394.782 132.96C393.903 118.47 392.344 113.573 382.015 92.8316C377.427 83.6179 373.279 73.455 372.798 70.2475C372.039 65.1835 371.664 64.6305 369.951 66.0477C366.391 68.9927 363.321 77.7145 363.293 84.9598C363.263 92.7281 366.526 100.793 375.843 115.979C383.62 128.655 389.825 141.448 391.619 148.503L393.199 154.72L394.341 149.6C394.968 146.784 395.167 139.296 394.782 132.96ZM141.265 173.694C147.489 171.574 158.864 161.787 162.072 155.794C163.389 153.332 162.894 152.84 155.965 149.73C137.168 141.295 111.209 137.875 95.743 141.798C83.225 144.973 74.4146 149.956 64.4935 159.469C55.2806 168.304 54.2828 170.54 60.6305 168.127C67.7646 165.415 82.6668 166.54 101.504 171.215C121.598 176.201 132.002 176.85 141.265 173.694ZM220.409 216.748C225.059 215.312 228.864 213.871 228.864 213.546C228.864 213.221 225.264 210.302 220.864 207.059C199.866 191.585 182.415 187.93 162.313 194.797L155.281 197.198L160.393 198.14C168.094 199.559 176.354 203.574 182.86 209.06C196.182 220.293 203.85 221.863 220.409 216.748ZM263.208 289.44C260.183 285.04 252.803 276.486 246.806 270.432C233.011 256.504 221.807 250.678 196.757 244.405C176.995 239.457 171.344 237.341 165.024 232.52C159.722 228.477 159.995 230.007 166.526 240.94C174.906 254.971 188.374 263.785 210.944 270.011C238.121 277.507 255.026 285.3 263.365 294.177C268.896 300.064 268.814 297.595 263.208 289.44ZM381.288 358.127C355.825 351.281 336.132 323.168 332.954 289.13L332.119 280.18L338.584 285.993C349.229 295.564 359.566 300.357 370.988 301.019C382.176 301.666 389.203 299.033 393.903 292.433C402.831 279.895 402.597 257.44 393.32 236.462L390.219 229.451L393.061 230.286C397.608 231.62 408.243 239.004 414.141 244.921C434.386 265.231 442.41 302.082 432.352 328.554C426.613 343.657 415.941 354.261 402.449 358.268C394.672 360.578 390.296 360.548 381.288 358.127ZM410.839 374.554C419.348 371.497 427.166 366.357 434.578 358.945C466.507 327.016 460.94 246.878 421.773 174.613L413.824 159.945L412.997 171.413C412.534 177.843 411.048 185.814 409.615 189.56C406.869 196.739 398.923 208.424 396.033 209.533C394.087 210.28 392.704 205.5 392.704 198.026C392.704 190.1 388.708 174.074 384.408 164.758C379.823 154.823 370.011 140.868 359.851 129.833L353.437 122.867L352.673 131.977C352.253 136.988 350.944 143.003 349.765 145.344C347.626 149.591 339.178 159.2 337.582 159.2C337.119 159.2 336.401 156.335 335.986 152.833C335.095 145.305 330.646 133.822 324.678 123.643C318.65 113.363 294.653 89.7993 280.155 79.9258C268.75 72.1579 236.548 55.0893 235.422 56.2152C235.135 56.5024 237.483 59.7755 240.641 63.4886C252.594 77.5442 263.216 97.3973 266.51 111.84L268.408 120.16L264.352 115.04C237.841 81.5702 203.831 60.9818 163.584 54.0388C152.667 52.1555 114.321 51.8054 102.784 53.4837L95.1039 54.601L107.904 58.6655C123.359 63.5732 134.551 68.4559 145.664 75.1386C155.77 81.2163 171.576 92.754 170.825 93.5053C170.525 93.8049 165.174 93.1685 158.932 92.0912C139.796 88.788 112.674 87.2634 98.6742 88.704C74.8775 91.1527 49.9469 99.2564 28.5439 111.5C16.3292 118.487 -0.660681 129.782 0.0198181 130.462C0.286084 130.729 5.9007 129.841 12.4967 128.49C50.005 120.805 95.2463 119.214 125.824 124.504C151.748 128.988 173.875 135.869 197.207 146.702L208.431 151.913L201.988 155.236C195.474 158.597 185.077 167.715 182.705 172.148C181.543 174.318 181.912 174.56 186.374 174.56C193.151 174.56 208.728 178.683 220.563 183.61C238.547 191.097 260.329 207.363 277.434 226.08C284.163 233.443 284.653 234.616 279.944 232.096C276.232 230.109 257.485 230.51 248.967 232.759C239.448 235.272 231.343 239.368 233.984 240.332C235.04 240.717 239.127 242.212 243.067 243.654C260.137 249.903 287.031 271.98 301.572 291.68C305.209 296.608 311.758 307.264 316.124 315.36C327.533 336.515 332.907 344.127 344.589 355.685C360.823 371.748 375.94 378.458 393.984 377.611C399.284 377.362 406.834 375.992 410.839 374.554Z"/>
 </g>
</svg>
