<?xml version="1.0" standalone="no"?>
<!DOCTYPE svg PUBLIC "-//W3C//DTD SVG 20010904//EN" "http://www.w3.org/TR/2001/REC-SVG-20010904/DTD/svg10.dtd">
<!-- Created using Karbon, part of Calligra: http://www.calligra.org/karbon -->
<svg xmlns="http://www.w3.org/2000/svg" xmlns:xlink="http://www.w3.org/1999/xlink" width="409.6pt" height="409.6pt">
<defs/>
<g id="layer0">
  <rect id="rect3008" transform="" fill="#000000" width="409.60000000000pt" height="409.60000000000pt"/>
  <path id="path2993" transform="translate(49.8355, 30.7335)" fill="#ffffff" d="M126.262 93.4265C129.014 81.3137 128.999 61.1926 126.228 49.3019C121.763 30.1337 110.688 13.8065 97.9778 7.65357C90.8167 4.18694 79.938 3.918 73.0221 7.03661L67.7467 9.4155L75.5772 12.97C99.9265 24.023 115.419 59.3133 115.675 104.307L115.77 120.947L119.925 111.987C122.211 107.059 125.063 98.7065 126.262 93.4265ZM298.843 130.369C309.904 125.33 308.079 97.7757 294.411 63.4625C291.442 56.0067 288.947 49.9072 288.868 49.9081C288.789 49.9089 288.725 55.2369 288.725 61.7481C288.725 76.1541 286.453 84.5803 281.013 90.3478C277.729 93.8301 275.918 94.7065 272.006 94.7065C267.762 94.7065 266.218 93.7859 260.421 87.8015L253.733 80.8965L255.509 85.9294C262.479 105.684 279.449 127.476 290.005 130.227C292.821 130.961 295.241 131.621 295.384 131.694C295.527 131.767 297.083 131.171 298.843 130.369ZM392.857 267.227C397.129 263.906 403.27 257.858 406.505 253.787C413.572 244.895 422.867 226.281 425.583 215.58C434.199 181.63 423.693 149.505 400.337 138.383C395.974 136.306 390.873 134.271 389.002 133.861C385.631 133.124 385.651 133.195 391.118 141.348C400.428 155.231 404.535 169.776 404.555 188.939C404.581 213.527 394.307 245.646 378.401 270.707C376.167 274.227 373.841 277.931 373.233 278.939C371.662 281.54 383.658 274.381 392.857 267.227ZM30.6496 341.427C27.5868 332.561 27.5585 319.239 30.5859 311.36C31.8737 308.009 36.9881 298.807 41.9514 290.912C53.4211 272.668 56.2564 263.399 54.1423 251.057C52.4941 241.435 45.0065 225.427 37.402 215.269L32.3132 208.471L32.9919 215.956C33.9149 226.135 30.5508 233.589 17.6018 250.057C11.9931 257.19 5.75773 266.483 3.74539 270.707C-3.17848 285.24 -0.540205 301.521 11.9737 321.485C16.8968 329.339 31.4644 348.147 32.6248 348.147C32.8153 348.147 31.9265 345.123 30.6496 341.427ZM367.014 439.799C353.474 425.649 345.755 407.843 344.703 388.333C343.637 368.542 349.295 357.607 360.071 358.635C362.718 358.888 364.885 358.912 364.885 358.689C364.885 358.467 363.749 356.058 362.36 353.337C354.743 338.405 339.62 338.259 326.49 352.99C320.417 359.804 314.965 370.822 314.965 376.279C314.965 377.619 314.389 379.071 313.685 379.507C312.274 380.378 311.717 372.205 312.201 357.747C312.986 334.325 321.097 315.891 345.148 282.867C367.849 251.696 373.728 240.898 379.141 220.433C382.513 207.688 384.13 170.052 380.955 178.242C368.092 211.419 343.587 229.747 315.282 227.361C307.164 226.677 297.045 223.869 297.045 222.301C297.045 222.005 300.872 219.528 305.549 216.795C328.445 203.419 347.045 178.695 352.879 153.881C355.66 142.048 354.705 123.641 350.771 113.267C346.799 102.794 339.441 92.2716 331.331 85.4655C324.928 80.0918 314.965 73.4298 314.965 74.5217C314.965 74.7989 316.117 77.4108 317.525 80.326C323.659 93.0216 325.931 119.933 322.205 135.761C318.766 150.368 310.464 159.987 301.294 159.987C283.229 157.753 261.71 133.677 252.482 119.933C236.959 96.0877 230.098 64.7037 233.117 31.3465C233.882 22.8985 235.259 12.3896 236.178 7.99326L237.849 0L232.807 2.83364C225.554 6.91046 215.497 18.0632 211.807 26.123C205.637 39.6006 204.758 48.0477 205.158 90.0491C205.476 123.528 205.23 129.691 203.297 136.682C199.801 149.322 194.842 158.128 187.017 165.593C180.624 171.691 169.045 179.183 169.045 177.222C169.045 176.817 170.812 172.342 172.972 167.276C184.992 139.094 186.245 103.263 176.148 76.439C170.408 61.1897 161.077 47.1257 148.824 35.2582C134.371 21.2587 133.798 21.2349 140.273 34.9024C152.765 61.2733 152.906 75.0768 141.056 111.462C136.794 124.55 132.717 137.889 131.997 141.105C126.22 166.88 128.958 198.935 139.558 229.637C140.995 233.8 141.882 237.496 141.528 237.85C141.174 238.204 140.885 237.894 140.885 237.161C140.885 236.428 134.204 224.72 126.039 211.142C100.722 169.045 97.437 159.768 96.4262 127.522L95.7496 105.938L91.8588 112.162C85.7218 121.98 78.6441 137.866 74.8254 150.394C71.7449 160.5 71.3054 164.096 71.2283 179.827C71.1535 195.08 71.59 199.27 74.1612 207.987C78.5298 222.795 86.082 238.167 101.832 264.307C128.512 308.586 137.005 331.009 137.035 357.248C137.046 367.35 135.773 377.587 134.505 377.587C134.004 377.587 132.498 375.152 131.159 372.176C126.25 361.267 113.081 350.549 86.9909 336.229C77.0588 330.778 69.7989 323.746 67.7762 317.617C66.0399 312.356 67.0218 302.405 69.809 297.015C72.9324 290.975 70.0655 292.37 62.9511 300.353C44.9545 320.544 45.7536 332.965 67.3848 369.267C79.584 389.739 82.0743 402.462 76.6958 416.837C74.5317 422.621 71.5816 426.579 62.8242 435.445L51.7013 446.707L212.662 446.707L373.623 446.707Z"/>
 </g>
</svg>
