<?xml version="1.0" encoding="UTF-8" standalone="no"?>
<!-- Created with Inkscape (http://www.inkscape.org/) -->

<svg
   xmlns:dc="http://purl.org/dc/elements/1.1/"
   xmlns:cc="http://creativecommons.org/ns#"
   xmlns:rdf="http://www.w3.org/1999/02/22-rdf-syntax-ns#"
   xmlns:svg="http://www.w3.org/2000/svg"
   xmlns="http://www.w3.org/2000/svg"
   xmlns:sodipodi="http://sodipodi.sourceforge.net/DTD/sodipodi-0.dtd"
   xmlns:inkscape="http://www.inkscape.org/namespaces/inkscape"
   id="svg2"
   version="1.1"
   inkscape:version="0.48.3.1 r9886"
   width="400"
   height="400"
   sodipodi:docname="Icon.6_73.png">
  <metadata
     id="metadata8">
    <rdf:RDF>
      <cc:Work
         rdf:about="">
        <dc:format>image/svg+xml</dc:format>
        <dc:type
           rdf:resource="http://purl.org/dc/dcmitype/StillImage" />
        <dc:title></dc:title>
      </cc:Work>
    </rdf:RDF>
  </metadata>
  <defs
     id="defs6" />
  <sodipodi:namedview
     pagecolor="#ffffff"
     bordercolor="#666666"
     borderopacity="1"
     objecttolerance="10"
     gridtolerance="10"
     guidetolerance="10"
     inkscape:pageopacity="0"
     inkscape:pageshadow="2"
     inkscape:window-width="1855"
     inkscape:window-height="1056"
     id="namedview4"
     showgrid="false"
     inkscape:zoom="0.59"
     inkscape:cx="200"
     inkscape:cy="200"
     inkscape:window-x="65"
     inkscape:window-y="24"
     inkscape:window-maximized="1"
     inkscape:current-layer="svg2" />
  <path
     style="fill:#000000"
     d="m 0,0 400,0 0,400 -400,0 z"
     id="rect3044" />
  <path
     id="path2989"
     style="fill:#ffffff"
     d="m 246.25,102.29525 9.75,-0.56264 0.18248,-4.116307 c 0.8687,-19.595629 -5.59393,-35.581255 -19.45623,-48.12591 -20.94584,-18.954897 -49.98342,-24.994036 -77.97003,-16.215943 -7.36165,2.309006 -7.27136,3.683748 0.24378,3.711604 5.47186,0.02028 18.51701,2.305106 26,4.553831 8.22875,2.472834 18.47049,8.176045 23.98412,13.355791 7.23418,6.796096 10.31237,14.194132 10.84708,26.069638 l 0.42619,9.465314 6.12131,6.809127 c 4.77313,5.309465 6.56179,6.677975 8.1213,6.213635 1.1,-0.32752 6.3875,-0.84868 11.75,-1.15814 z m 35.41847,53.65622 c 2.41567,-2.22669 6.4035,-4.91069 8.86183,-5.96446 2.45834,-1.05376 4.4653,-2.49443 4.45993,-3.20147 -0.0172,-2.26403 -4.58667,-11.17512 -7.49984,-14.62573 -4.3035,-5.09742 -12.23179,-10.5266 -19.99039,-13.68913 -5.81825,-2.37161 -8.83823,-2.92489 -17.88863,-3.27736 l -10.88863,-0.42406 0.54592,2.36537 c 3.572,15.47674 3.89331,17.90723 3.45243,26.11537 l -0.46999,8.75 5.12445,0.0174 c 7.03959,0.0239 17.7011,2.4113 23.93134,5.35897 2.85621,1.35133 5.36779,2.49448 5.58128,2.54032 0.21349,0.0458 2.36463,-1.73849 4.7803,-3.96518 z m -66.88523,3.66116 c 2.59422,-1.31306 6.62764,-2.9588 8.96316,-3.65721 3.61654,-1.08149 4.39444,-1.80276 5.24443,-4.86263 1.44513,-5.20237 1.21314,-17.73725 -0.44347,-23.96137 C 223.98339,109.98391 210.96693,96.69855 190.62023,88.420748 161.76718,76.682247 134.38333,82.02529 126.1498,101 c -5.8794,13.54947 -1.62943,30.36018 10.32706,40.84858 7.47236,6.55486 12.84667,7.93946 35.46114,9.13593 17.11415,0.90546 22.96182,2.31998 31.41743,7.5997 2.82951,1.76676 5.49703,3.25808 5.92781,3.31404 0.43079,0.056 2.90579,-0.97257 5.5,-2.28562 z m 156.18959,13.22629 c -5.10886,-30.28878 -22.55167,-48.4272 -44.77127,-46.55673 -6.24349,0.52559 -19.35713,4.47338 -21.29429,6.41054 -0.47264,0.47264 0.172,3.90225 1.44257,7.67477 2.28259,6.77736 2.33121,6.8328 7.7236,8.8067 2.98461,1.09252 6.10156,1.96467 6.92656,1.9381 0.825,-0.0266 5.16435,-0.34273 9.643,-0.70259 7.38744,-0.59358 8.6603,-0.41747 13.71807,1.89805 7.38412,3.38057 14.55065,10.24752 21.33386,20.44205 3.05194,4.58678 5.76472,8.12387 6.02839,7.8602 0.26368,-0.26367 -0.074,-3.76067 -0.75049,-7.77109 z M 54.5,185.12818 c 2.2,-1.00534 5.84328,-3.67918 8.096178,-5.94186 3.531832,-3.54717 4.246468,-5.02094 5.187022,-10.697 1.639354,-9.89318 7.817512,-21.73286 15.903214,-30.47654 6.520981,-7.05163 17.444226,-15.1674 24.156156,-17.94757 3.02586,-1.25335 3.15743,-1.54761 3.15743,-7.06153 0,-3.16452 0.28421,-7.17472 0.63157,-8.91154 l 0.63157,-3.15785 -4.38157,0.63571 c -23.666927,3.43377 -38.615403,12.62183 -47.101097,28.95061 -2.006648,3.86134 -5.286245,12.86134 -7.287993,20 -2.001747,7.13867 -4.716105,14.83333 -6.031906,17.09926 -2.977521,5.12757 -7.986558,7.69875 -14.057632,7.2159 C 30.981324,174.64317 29,174.81067 29,175.208 c 0,1.78509 6.862546,8.27845 10.491423,9.92702 5.093786,2.31406 9.934567,2.31185 15.008577,-0.007 z m 260.42648,9.81012 c 15.06987,-10.91656 7.02995,-35.02478 -11.64436,-34.91634 -4.21437,0.0245 -11.05798,2.78599 -13.14027,5.30234 -1.18711,1.43456 -0.75858,2.3046 3.40272,6.90848 5.04767,5.58453 10.83714,14.05382 12.47142,18.24418 3.53265,9.05786 2.96058,8.77143 8.91049,4.46134 z m -137.36014,46.986 c 13.80609,-2.50289 27.41258,-12.03669 32.74435,-22.94334 8.2125,-16.79944 4.74012,-35.21094 -8.69525,-46.10454 -8.64246,-7.00744 -15.49324,-8.8767 -36.11544,-9.85423 -18.01195,-0.8538 -22.47902,-1.88965 -31.86178,-7.38832 -5.58314,-3.27194 -14.0281,-12.49634 -17.23599,-18.82682 -2.14118,-4.22541 -2.7992,-4.8172 -4.69616,-4.2235 -6.77393,2.12006 -19.979748,13.87831 -25.176171,22.41645 -9.887885,16.24659 -8.429498,36.34834 3.992735,55.03405 10.370476,15.59942 27.502476,26.56156 48.477366,31.01891 9.79629,2.08179 29.44113,2.52563 38.56634,0.87134 z M 74.990523,256.41107 c 3.019788,-4.14313 8.644788,-10.83154 12.5,-14.86314 L 94.5,234.21775 88.222955,227.46578 c -3.452374,-3.71357 -7.884539,-9.3563 -9.849255,-12.5394 -3.878744,-6.28406 -4.05798,-6.32481 -10.416003,-2.36801 -8.942283,5.56507 -14.498075,16.52572 -13.687338,27.00283 0.62211,8.03951 3.572906,14.38919 9.251728,19.90837 2.563806,2.49174 4.957666,4.51784 5.319689,4.50245 0.362023,-0.0154 3.128959,-3.41782 6.148747,-7.56095 z m 136.087197,20.4475 c 8.55281,-2.56249 14.85727,-10.98753 14.90032,-19.91223 0.0289,-5.99675 -3.9245,-13.87732 -8.64772,-17.23793 l -3.63912,-2.58927 -4.0956,3.30484 c -6.8467,5.52478 -12.24442,8.70097 -18.82226,11.07564 -5.80267,2.09482 -6.29774,2.51058 -6.59854,5.54138 -0.73856,7.4414 5.65985,16.71311 13.44997,19.48989 4.80393,1.71236 8.5285,1.80308 13.45295,0.32768 z m 57.34262,7.29191 C 284.4009,277.04185 296.3642,256.27552 299.19773,230.72599 303.29843,193.75062 279.7416,165 245.34512,165 c -7.31528,0 -16.7356,2.13824 -22.59912,5.12958 l -3.87396,1.97635 2.42729,4.19704 c 7.42591,12.84011 8.31237,30.30813 2.25752,44.48491 l -2.43962,5.71212 2.69139,1.95675 c 5.09021,3.70081 9.53489,9.05374 12.07565,14.54325 3.75389,8.11059 3.68067,19.22563 -0.18098,27.47288 -1.53819,3.28508 -3.48803,6.73676 -4.33297,7.67041 -1.3962,1.54279 -1.32357,1.81223 0.79672,2.95563 1.28313,0.69195 5.48296,2.30943 9.33296,3.5944 8.88384,2.96507 19.51637,2.75067 26.92034,-0.54284 z m -109.70258,17.3407 c 6.66555,-1.97946 16.1217,-8.36891 20.75639,-14.02494 l 3.70675,-4.5236 -3.70312,-4.09892 c -4.54066,-5.02596 -7.3815,-11.23519 -8.1643,-17.84471 L 170.72142,256 l -9.61071,-0.006 c -15.72028,-0.01 -30.94442,-2.85565 -42.98613,-8.03585 -2.85199,-1.2269 -5.50925,-1.90496 -5.90501,-1.50681 -0.39576,0.39814 -0.69299,5.74695 -0.66051,11.88623 0.0472,8.91272 0.50253,12.37155 2.25949,17.16233 7.47082,20.37097 26.57833,31.43189 44.89921,25.99118 z m 205.67845,25.65389 4.10379,-1.80308 -4.79399,-2.13422 c -14.44672,-6.4315 -16.40942,-12.9031 -11.04437,-36.41651 2.35995,-10.34295 2.80246,-14.51042 2.7917,-26.29126 -0.0113,-12.35465 -0.29127,-14.70515 -2.38227,-20 -4.70075,-11.90328 -14.30353,-23.65049 -25.92989,-31.72036 l -4.35882,-3.02546 -4.25071,2.12291 C 316.19376,209.04469 313.80207,210 313.2168,210 c -0.69684,0 -1.06924,4.48566 -1.0789,12.99587 -0.008,7.14773 -0.26573,13.40194 -0.57246,13.89824 -0.30673,0.4963 1.57806,2.273 4.18843,3.94821 13.83071,8.87589 16.94009,18.28904 12.05384,36.49107 -1.59919,5.95726 -2.20789,11.14249 -2.25,19.16661 -0.0515,9.80905 0.22195,11.59613 2.5253,16.50609 3.94062,8.40005 10.34322,14.00167 18.41699,16.11301 4.26156,1.11442 13.08111,0.14159 17.89621,-1.97403 z M 278.45,359.21602 c -0.5225,-0.43119 -3.56891,-2.53263 -6.76981,-4.66986 C 255.59806,343.80816 245,324.66772 245,306.36086 l 0,-7.21894 -5.60438,-1.62924 c -3.08241,-0.89608 -8.34192,-2.95532 -11.68781,-4.57609 -7.10249,-3.44049 -7.29487,-3.30609 -8.26747,5.77593 -2.91885,27.25579 14.94132,51.58247 43.05966,58.64996 9.0829,2.28297 17.68116,3.28217 15.95,1.85354 z M 144.5,371.63735 c 16.14202,-3.47698 26.34079,-11.70219 30.48289,-24.58414 1.74872,-5.43853 2.15387,-8.43917 1.7144,-12.69726 -0.69207,-6.7055 -3.31093,-14.33914 -6.1326,-17.87573 L 168.5,313.8924 l -0.13999,6.8038 c -0.27175,13.20787 -6.67539,24.72087 -16.17936,29.0886 -12.68881,5.83138 -26.39538,2.15453 -37.9286,-10.17451 -3.27563,-3.50167 -7.00516,-8.53456 -8.28783,-11.18421 -4.55652,-9.41251 -3.46789,-20.10875 2.80539,-27.56412 2.50404,-2.97588 2.52697,-3.13116 0.84336,-5.71051 -7.55249,-11.57068 -12.268069,-28.29625 -11.39685,-40.42325 0.228059,-3.17448 0.111925,-5.64948 -0.258076,-5.5 -1.831301,0.73989 -11.945148,13.43597 -18.075982,22.6911 -8.997035,13.58195 -11.967815,22.42945 -12.618701,37.5807 -0.704328,16.39525 2.953884,28.00467 12.716085,40.35478 13.787571,17.44259 41.396364,26.7635 64.520554,21.78257 z" />
</svg>
