<?xml version="1.0" encoding="UTF-8" standalone="no"?>
<!-- Created with Inkscape (http://www.inkscape.org/) -->

<svg
   xmlns:dc="http://purl.org/dc/elements/1.1/"
   xmlns:cc="http://creativecommons.org/ns#"
   xmlns:rdf="http://www.w3.org/1999/02/22-rdf-syntax-ns#"
   xmlns:svg="http://www.w3.org/2000/svg"
   xmlns="http://www.w3.org/2000/svg"
   xmlns:sodipodi="http://sodipodi.sourceforge.net/DTD/sodipodi-0.dtd"
   xmlns:inkscape="http://www.inkscape.org/namespaces/inkscape"
   id="svg2"
   version="1.1"
   inkscape:version="0.48.3.1 r9886"
   width="400"
   height="400"
   sodipodi:docname="Icon.1_93.png">
  <metadata
     id="metadata8">
    <rdf:RDF>
      <cc:Work
         rdf:about="">
        <dc:format>image/svg+xml</dc:format>
        <dc:type
           rdf:resource="http://purl.org/dc/dcmitype/StillImage" />
        <dc:title></dc:title>
      </cc:Work>
    </rdf:RDF>
  </metadata>
  <defs
     id="defs6" />
  <sodipodi:namedview
     pagecolor="#ffffff"
     bordercolor="#666666"
     borderopacity="1"
     objecttolerance="10"
     gridtolerance="10"
     guidetolerance="10"
     inkscape:pageopacity="0"
     inkscape:pageshadow="2"
     inkscape:window-width="1855"
     inkscape:window-height="1056"
     id="namedview4"
     showgrid="false"
     inkscape:zoom="0.59"
     inkscape:cx="200"
     inkscape:cy="200"
     inkscape:window-x="65"
     inkscape:window-y="24"
     inkscape:window-maximized="1"
     inkscape:current-layer="svg2" />
  <path
     style="fill:#000000"
     d="m 0,0 400,0 0,400 -400,0 z"
     id="rect3024" />
  <path
     id="path2989"
     style="fill:#ffffff"
     d="m 220.23496,223.48751 c 4.3537,-7.93946 9.53834,-22.04232 12.68597,-34.50742 9.43444,-37.36177 4.07602,-79.26982 -15.01402,-117.424169 C 208.70167,53.157838 203.57964,46.047185 197.20487,42.816317 186.6006,37.441857 173.66212,38.3901 160.05823,45.538742 149.49824,51.087857 136,64.38681 136,69.241769 c 0,0.759781 7.57762,9.003702 16.83915,18.319825 17.88367,17.989066 24.70568,26.049726 33.47285,39.550346 17.0245,26.21616 25.06185,52.85504 27.21219,90.19174 0.58806,10.21058 0.90224,11.76101 2.32781,11.48751 0.9064,-0.17389 2.87873,-2.56054 4.38296,-5.30368 z m 68.48894,24.95104 c 7.44104,-13.70665 13.26437,-32.93777 15.77634,-52.10017 2.34571,-17.89405 1.71756,-33.56873 -2.11745,-52.83838 -4.9308,-24.77567 -22.36559,-63.131629 -32.90154,-72.382322 -7.03595,-6.177643 -20.84702,-7.698712 -32.6693,-3.598001 -7.4218,2.574347 -7.55285,3.11006 -3.35415,13.71128 7.8436,19.804133 11.5697,34.498253 13.40296,52.855443 0.80435,8.05419 1.17287,9.05376 5.94565,16.12671 16.06016,23.80013 25.09784,49.98018 28.18415,81.64284 0.55519,5.69578 1.00944,12.93328 1.00944,16.08334 0,9.21434 1.91547,9.35657 6.7239,0.49926 z m 52.19284,34.72704 c 5.15475,-10.25228 10.54421,-25.87085 13.29125,-38.51783 1.86842,-8.60196 2.21087,-13.34667 2.2481,-31.14776 0.0497,-23.77996 -1.58885,-34.80907 -8.08593,-54.42592 C 344.35845,146.96142 333.16505,123.56571 326.80499,114 321.48584,105.99983 314.694,101.83257 306.6437,101.62965 c -4.88267,-0.12307 -5.13791,-0.003 -5.02961,2.37035 0.0627,1.375 1.53021,6.45099 3.26103,11.27997 9.28817,25.91395 13.33399,57.65725 10.15342,79.66324 -0.87297,6.03993 -0.74046,6.87792 2.11703,13.38846 10.00467,22.79472 15.82941,48.66217 15.86808,70.46955 0.0261,14.72736 2.11319,15.87992 7.90309,4.36437 z m -220.70892,29.59162 c -0.1607,-0.95854 -2.11924,-4.49348 -4.35231,-7.85544 -5.34481,-8.04677 -14.23382,-24.69087 -17.360647,-32.5067 -6.511323,-16.27575 -9.04942,-37.59153 -7.993726,-67.13396 l 0.687499,-19.23889 -2.844318,-1.10879 c -4.525291,-1.76408 -20.808509,-0.5582 -27.626629,2.04593 -10.520671,4.0183 -18.654975,11.89301 -20.846873,20.18158 -1.128259,4.26647 -0.924358,5.88025 2.526986,20 7.158682,29.28679 15.479636,46.96114 28.900725,61.3874 8.187799,8.80102 17.709446,15.81625 27.109554,19.97343 14.309689,6.32842 22.412449,7.91013 21.799739,4.25544 z" />
</svg>
