<?xml version="1.0" encoding="UTF-8" standalone="no"?>
<!-- Created with Inkscape (http://www.inkscape.org/) -->

<svg
   xmlns:dc="http://purl.org/dc/elements/1.1/"
   xmlns:cc="http://creativecommons.org/ns#"
   xmlns:rdf="http://www.w3.org/1999/02/22-rdf-syntax-ns#"
   xmlns:svg="http://www.w3.org/2000/svg"
   xmlns="http://www.w3.org/2000/svg"
   xmlns:sodipodi="http://sodipodi.sourceforge.net/DTD/sodipodi-0.dtd"
   xmlns:inkscape="http://www.inkscape.org/namespaces/inkscape"
   id="svg2"
   version="1.1"
   inkscape:version="0.48.3.1 r9886"
   width="400"
   height="400"
   sodipodi:docname="Icon.1_87.png">
  <metadata
     id="metadata8">
    <rdf:RDF>
      <cc:Work
         rdf:about="">
        <dc:format>image/svg+xml</dc:format>
        <dc:type
           rdf:resource="http://purl.org/dc/dcmitype/StillImage" />
        <dc:title></dc:title>
      </cc:Work>
    </rdf:RDF>
  </metadata>
  <defs
     id="defs6" />
  <sodipodi:namedview
     pagecolor="#ffffff"
     bordercolor="#666666"
     borderopacity="1"
     objecttolerance="10"
     gridtolerance="10"
     guidetolerance="10"
     inkscape:pageopacity="0"
     inkscape:pageshadow="2"
     inkscape:window-width="1855"
     inkscape:window-height="1056"
     id="namedview4"
     showgrid="false"
     inkscape:zoom="0.59"
     inkscape:cx="200"
     inkscape:cy="200"
     inkscape:window-x="65"
     inkscape:window-y="24"
     inkscape:window-maximized="1"
     inkscape:current-layer="svg2" />
  <path
     style="fill:#000000"
     d="m 0,0 400,0 0,400 -400,0 z"
     id="rect3030" />
  <path
     id="path2989"
     style="fill:#ffffff"
     d="m 142.5,230.15771 c 31.95064,-12.94197 80.21683,-14.22094 115.20335,-3.05269 5.38816,1.71998 11.07597,3.78317 12.63958,4.58485 1.56361,0.80168 3.07891,1.22162 3.36734,0.93319 0.74521,-0.74521 -4.80233,-12.2998 -9.22395,-19.2119 C 254.5252,197.83942 235.27631,177.37939 219,165.06285 c -10.91671,-8.26085 -14.68243,-10.35937 -17.37624,-9.68327 -2.78945,0.70011 -18.19429,12.03838 -25.06466,18.44809 -9.86945,9.20769 -21.39007,22.24467 -27.36042,30.9616 -7.75701,11.32554 -16.39434,28.21662 -14.42393,28.2073 0.39889,-0.002 3.87525,-1.27937 7.72525,-2.83886 z m 172.63605,33.63985 c 7.96818,-5.2618 19.25485,-16.43397 24.54657,-24.29756 15.96301,-23.72134 19.12936,-56.65543 8.64065,-89.874 C 332.65637,100.00764 291.52162,56.185752 243.03567,37.46046 235.41962,34.519141 215.87087,29 213.06878,29 c -0.74604,0 -1.06877,17.439039 -1.06875,57.75 l 4e-5,57.75 6.91773,4.66556 c 3.80476,2.56606 7.17974,4.40356 7.49997,4.08334 C 226.738,152.92867 227,128.90131 227,99.854758 l 0,-52.811909 9.25,3.285198 9.25,3.285199 0.25892,52.193374 0.25892,52.19338 7.49108,0 7.49108,0 0,-48.01254 0,-48.012549 4.25,2.676497 c 2.3375,1.472074 6.14495,4.065219 8.461,5.762545 L 277.922,73.5 277.961,133.75 278,194 l 7,0 7,0 0,-53.69617 0,-53.696164 3.61931,3.446167 c 1.99063,1.895392 5.81563,6.057029 8.5,9.248083 L 309,105.10383 l 0,57.44809 0,57.44808 6.99001,0 6.99002,0 0.25998,-46.25 0.25999,-46.25 2.86495,6 c 8.87424,18.5851 12.49446,32.18812 13.30669,50 0.85474,18.74431 -2.18322,31.71328 -10.81703,46.1776 -4.06663,6.81288 -14.18888,17.19599 -21.48954,22.04335 -2.95079,1.95922 -5.36507,3.71146 -5.36507,3.89388 0,0.18242 0.8695,2.25621 1.93221,4.60842 1.06272,2.35221 2.1736,5.06425 2.46862,6.02675 0.76384,2.49202 1.60537,2.25576 8.73522,-2.45244 z m -209.48281,-5.23179 c 1.63124,-2.85333 1.61187,-2.97739 -0.70271,-4.5 C 87.271546,242.43593 76.250406,228.00775 71.290358,210 c -2.501045,-9.08019 -2.520084,-35.44348 -0.03301,-45.70543 2.4523,-10.11846 8.031903,-25.14933 12.474591,-33.60524 L 87.5,123.51746 88,171.50873 88.5,219.5 l 7,0 7,0 0.27236,-59.5 0.27236,-59.5 8.43143,-9 8.43144,-9 0.0462,55.75 L 120,194 l 7,0 7,0 0,-60.41667 c 0,-41.342376 -0.33181,-60.527265 -1.05097,-60.766988 -0.57804,-0.192678 3.13446,-3.12637 8.25,-6.519315 L 150.5,60.128035 150.75942,109.06402 151.01885,158 l 6.99057,0 6.99058,0 0,-52.41246 0,-52.412467 8.08544,-3.087537 C 177.53243,48.389391 181.35743,47 181.58544,47 181.81345,47 182,70.625 182,99.5 c 0,28.875 0.20364,52.5 0.45253,52.5 0.24889,0 3.62389,-2.1044 7.5,-4.67645 L 197,142.64711 197,85.823554 C 197,46.169992 196.67705,29 195.93122,29 c -2.25649,0 -21.1928,5.136887 -28.14333,7.634493 C 107.74564,58.210097 58.669667,120.90996 54.399837,181.5 c -1.274755,18.08911 3.380105,38.89034 11.983016,53.54864 5.880949,10.02042 17.198112,21.96639 27.074124,28.57843 l 8.016813,5.3673 1.25098,-3.74718 c 0.68804,-2.06096 2.00585,-5.06759 2.92847,-6.68142 z m 40.84996,40.84934 c 15.31935,-10.99066 34.48385,-16.41477 57.9968,-16.41477 23.6791,0 42.94773,5.45544 57.39125,16.24892 l 5.39125,4.02882 5.10875,-2.50852 c 11.31287,-5.55492 19.64576,-14.56591 21.63787,-23.39869 1.98698,-8.80998 -3.97996,-18.8606 -15.90321,-26.78717 C 259.87322,238.44934 236.32464,232.65435 205,232.58841 c -27.36395,-0.0576 -47.04859,3.82708 -65.5,12.92619 -25.93674,12.79042 -32.34741,30.90697 -16.33511,46.16299 3.44965,3.28672 15.56986,11.16063 17.33831,11.26385 0.55176,0.0322 3.25176,-1.55464 6,-3.52633 z m 148.47871,48.59412 c 14.12273,-7.20488 13.87289,-27.34751 -0.42825,-34.5263 -5.66023,-2.84128 -10.07323,-3.12833 -15.19486,-0.98838 -2.78755,1.16471 -3.41861,1.88196 -2.85943,3.25 3.32982,8.14646 3.22836,19.19519 -0.24061,26.20088 -1.21068,2.44499 -2.10167,4.52312 -1.97999,4.61806 4.87283,3.80209 14.73443,4.49075 20.70314,1.44574 z m -164.44979,0.5418 C 132.43945,347.75409 134,346.68629 134,346.17814 c 0,-0.50814 -0.93971,-3.04826 -2.08824,-5.64471 -2.57404,-5.81905 -2.81877,-16.42689 -0.50663,-21.96061 1.89003,-4.5235 1.63694,-5.0738 -3.04403,-6.61866 -8.70632,-2.87334 -18.9496,1.81971 -23.0119,10.54312 -2.80142,6.01578 -2.93411,10.64022 -0.45916,16.00272 4.52991,9.81498 15.71448,14.19904 25.64208,10.05103 z M 222.5,360.56124 c 19.09367,-3.42737 34.59917,-11.69892 40.83378,-21.78315 C 274.91915,320.03918 251.00728,299.3441 214,296.08101 c -34.86558,-3.07424 -68.68252,11.28209 -71.54541,30.37323 -1.79289,11.95584 12.70247,26.02903 32.54541,31.59755 14.28026,4.00746 33.49846,5.02277 47.5,2.50945 z" />
</svg>
