<?xml version="1.0" encoding="UTF-8" standalone="no"?>
<!-- Created with Inkscape (http://www.inkscape.org/) -->

<svg
   xmlns:dc="http://purl.org/dc/elements/1.1/"
   xmlns:cc="http://creativecommons.org/ns#"
   xmlns:rdf="http://www.w3.org/1999/02/22-rdf-syntax-ns#"
   xmlns:svg="http://www.w3.org/2000/svg"
   xmlns="http://www.w3.org/2000/svg"
   xmlns:sodipodi="http://sodipodi.sourceforge.net/DTD/sodipodi-0.dtd"
   xmlns:inkscape="http://www.inkscape.org/namespaces/inkscape"
   id="svg2"
   version="1.1"
   inkscape:version="0.48.3.1 r9886"
   width="400"
   height="400"
   sodipodi:docname="Icon.2_59.png">
  <metadata
     id="metadata8">
    <rdf:RDF>
      <cc:Work
         rdf:about="">
        <dc:format>image/svg+xml</dc:format>
        <dc:type
           rdf:resource="http://purl.org/dc/dcmitype/StillImage" />
        <dc:title></dc:title>
      </cc:Work>
    </rdf:RDF>
  </metadata>
  <defs
     id="defs6" />
  <sodipodi:namedview
     pagecolor="#ffffff"
     bordercolor="#666666"
     borderopacity="1"
     objecttolerance="10"
     gridtolerance="10"
     guidetolerance="10"
     inkscape:pageopacity="0"
     inkscape:pageshadow="2"
     inkscape:window-width="1855"
     inkscape:window-height="1056"
     id="namedview4"
     showgrid="false"
     inkscape:zoom="0.59"
     inkscape:cx="200"
     inkscape:cy="200"
     inkscape:window-x="65"
     inkscape:window-y="24"
     inkscape:window-maximized="1"
     inkscape:current-layer="svg2" />
  <path
     style="fill:#000000"
     d="m 0,0 400,0 0,400 -400,0 z"
     id="rect3032" />
  <path
     id="path2989"
     style="fill:#ffffff"
     d="m 192.48456,54.93207 c 20.8915,-3.337319 38.16676,-6.250053 38.38945,-6.472743 1.00889,-1.008895 -5.39653,-7.642769 -10.97907,-11.37065 -8.97638,-5.994195 -17.87501,-8.42989 -28.87633,-7.90391 -7.6946,0.367884 -9.79035,0.895528 -16.17912,4.073407 -8.87447,4.4143 -17.35863,12.486247 -21.71533,20.660261 -3.73335,7.00447 -3.88171,8.294441 -0.87416,7.600578 1.2375,-0.2855 19.34305,-3.249624 40.23456,-6.586943 z m 47.3006,27.077937 c 2.08724,-0.912629 2.23335,-1.454361 1.68695,-6.254589 -1.12254,-9.861594 -2.55618,-14.755567 -4.32185,-14.753286 -0.90764,0.0012 -21.17314,3.151172 -45.03444,7 C 168.25453,71.850959 148.34203,75 147.86582,75 147.38962,75 147,77.843324 147,81.318499 c 0,6.250007 1.95585,14.73298 4.56414,19.795771 l 1.34684,2.61426 42.29451,-10.359674 c 23.26198,-5.697823 43.32283,-10.809305 44.57967,-11.358849 z M 268,150.38398 c 0,-2.06788 -8.1543,-11.10662 -13.39105,-14.84349 -6.44323,-4.59779 -13.70734,-7.33037 -26.87292,-10.10891 l -7.76398,-1.63856 2.76398,-3.3075 c 1.52018,-1.81913 4.44788,-5.30202 6.50598,-7.73976 3.46823,-4.10796 10.07256,-15.764525 9.34437,-16.492709 -0.27082,-0.270826 -61.85539,14.588119 -73.86364,17.821609 l -3.99227,1.07501 4.22831,4.30833 c 2.32557,2.36959 3.84872,4.53107 3.38477,4.8033 -0.46395,0.27223 -5.08295,1.48119 -10.26444,2.68658 -8.78608,2.04394 -18.23057,5.87013 -19.48005,7.89183 -0.29836,0.48276 6.53229,1.68541 15.17923,2.67255 8.64694,0.98714 37.32171,4.37785 63.72171,7.53491 55.7774,6.67018 50.5,6.11247 50.5,5.33681 z m -95,17.11207 c 59.10065,-5.93199 64.31817,-6.51121 63.75206,-7.07733 -0.2068,-0.20679 -25.27967,-3.30217 -55.71749,-6.87861 -52.12275,-6.12442 -55.42092,-6.40193 -56.70706,-4.77137 -1.95896,2.48356 -10.10324,19.25054 -10.84058,22.31796 -0.5693,2.36839 -0.38399,2.55687 2.19565,2.23314 1.54958,-0.19447 27.34242,-2.81517 57.31742,-5.82379 z m 21.5,58.99936 c 45.1,-5.1893 83.82609,-9.68827 86.05798,-9.99772 l 4.05797,-0.56264 -1.24541,-12.71753 c -1.25102,-12.77475 -4.77815,-31.01001 -6.29298,-32.53469 -0.66324,-0.66755 -151.77421,13.95894 -164.273,15.90049 -3.53375,0.54892 -3.74063,0.80029 -4.72851,5.74536 C 106.30686,201.18477 104,222.49059 104,229.97443 l 0,7.14812 4.25,-0.59603 c 2.3375,-0.32782 41.15,-4.84182 86.25,-10.03111 z m 54.04895,35.02672 0.6715,-4.47787 18.13977,-0.27213 L 285.5,256.5 285.24363,243.07697 c -0.141,-7.38267 -0.41478,-13.58145 -0.60839,-13.77507 -0.40477,-0.40476 -163.33907,18.30698 -168.63524,19.36646 -3.15481,0.63111 -3.25344,0.74419 -1,1.14662 5.08034,0.90726 126.61237,15.9734 129.68873,16.07731 3.03247,0.10243 3.22163,-0.11172 3.86022,-4.37016 z M 243,332.78025 c 0,-1.22086 0.92915,-13.64171 2.06478,-27.60188 1.13563,-13.96018 1.90857,-25.53835 1.71763,-25.72929 -0.19093,-0.19093 -23.50758,-3.19707 -51.81478,-6.6803 L 143.5,266.43562 l -0.3091,2.72513 c -0.39284,3.46331 3.62044,47.9836 4.39545,48.75988 0.56164,0.56256 90.15735,16.8164 93.66365,16.99182 1.16738,0.0584 1.75,-0.65147 1.75,-2.1322 z M 240.45522,362.25 c 0.35302,-5.3625 0.84157,-10.71458 1.08565,-11.89352 0.33014,-1.59459 -0.13045,-2.2731 -1.79854,-2.64955 -7.42725,-1.67612 -90.78485,-15.98511 -91.07773,-15.63421 -0.19615,0.235 0.44351,8.75228 1.42146,18.92728 0.97795,10.175 1.80866,19.0625 1.84602,19.75 0.0532,0.97999 9.55215,1.25 43.9746,1.25 l 43.90667,0 0.64187,-9.75 z" />
</svg>
