<?xml version="1.0" encoding="UTF-8" standalone="no"?>
<!-- Created with Inkscape (http://www.inkscape.org/) -->

<svg
   xmlns:dc="http://purl.org/dc/elements/1.1/"
   xmlns:cc="http://creativecommons.org/ns#"
   xmlns:rdf="http://www.w3.org/1999/02/22-rdf-syntax-ns#"
   xmlns:svg="http://www.w3.org/2000/svg"
   xmlns="http://www.w3.org/2000/svg"
   version="1.1"
   width="512"
   height="512"
   id="svg2">
  <metadata
     id="metadata8">
    <rdf:RDF>
      <cc:Work
         rdf:about="">
        <dc:format>image/svg+xml</dc:format>
        <dc:type
           rdf:resource="http://purl.org/dc/dcmitype/StillImage" />
        <dc:title></dc:title>
      </cc:Work>
    </rdf:RDF>
  </metadata>
  <defs
     id="defs6" />
  <path
     d="m 0,1.5258789e-5 512,0 L 512,512.00002 l -512,0 z"
     id="rect3022"
     style="fill:#000000;fill-opacity:1;fill-rule:nonzero;stroke:none" />
  <path
     d="M 239.63445,213.31714 C 236.48745,209.56771 228.81909,199.75 222.59365,191.5 193.24596,152.60818 171.00489,116.17366 144.78694,64.039851 136.63845,47.836768 128.74042,33.284122 127.23576,31.700637 125.73109,30.117152 122.475,27.624219 120,26.160786 116.07733,23.841368 114.40948,23.5 107,23.5 99.709204,23.5 97.686622,23.899419 92.782421,26.307687 73.752383,35.652618 66.769609,57.096145 76.33294,76.82269 77.580085,79.395211 79.455042,82.85 80.49951,84.5 l 1.899034,3 -2.449272,-2.153953 C 68.245091,75.053087 49.86317,70.991947 38.026421,76.08398 31.830828,78.749252 23.883822,87.106701 22.199564,92.728253 c -3.106305,10.367917 -0.526799,19.845807 7.68134,28.223567 4.880523,4.98138 8.103661,6.94667 24.521767,14.95201 C 113.01078,164.48069 161.94355,196.53143 210,237.81935 l 9.5,8.16197 12.92814,-12.92352 12.92814,-12.92352 -5.72183,-6.81714 z m 183.64839,272.36299 c 16.62927,-9.7454 19.49348,-30.67312 6.93246,-50.6528 -1.91124,-3.04003 -4.87905,-7.04563 -6.59514,-8.90132 l -3.12016,-3.374 4.4056,2.73477 c 11.90825,7.39201 24.768,11.00839 36.48075,10.25901 13.69666,-0.87631 24.41392,-7.17223 29.64656,-17.41602 2.07005,-4.0525 2.45833,-6.1977 2.41263,-13.32977 -0.0476,-7.43098 -0.40359,-9.09625 -2.83041,-13.24091 -3.11568,-5.32111 -9.1577,-10.92519 -15.05451,-13.96333 -2.16666,-1.1163 -11.48692,-4.87502 -20.7117,-8.35272 C 414.16143,354.10407 379.44485,335.91462 345.5,312.15063 333.80262,303.96157 310.88508,285.88746 300.1667,276.39814 l -5.3333,-4.72174 -12.5163,12.51631 -12.51631,12.51631 7.41599,8.39549 c 36.59694,41.43065 69.92465,93.4281 93.61465,146.05635 8.49065,18.86232 11.94827,24.68251 17.62339,29.66532 7.27011,6.38324 12.58237,8.21628 22.66198,7.81968 6.09956,-0.23999 8.52299,-0.83076 12.16604,-2.96573 z m -304.94911,0.39114 c 2.62359,-1.1246 7.18062,-4.45518 10.12673,-7.4013 5.64716,-5.64716 8.75071,-11.16196 17.54145,-31.16997 17.28249,-39.33552 46.35232,-86.53915 76.36401,-124 C 252.59226,285.77122 293.23253,245.70824 332,215.42327 c 39.78393,-31.07903 76.82154,-54.11871 127.13044,-79.08298 22.70831,-11.26831 29.11223,-16.11333 33.0429,-24.99925 2.84603,-6.43392 2.78906,-15.321831 -0.13809,-21.545429 C 487.68208,80.540072 475.84706,73 465.67259,73 456.9402,73 443.96977,77.788779 437.14256,83.533501 435.41415,84.987859 434,85.714343 434,85.147911 c 0,-0.566433 0.50594,-1.342565 1.12431,-1.724739 0.61837,-0.382174 2.4844,-3.671232 4.14673,-7.309017 3.25364,-7.120151 4.55874,-17.09511 3.31865,-25.3646 -0.96258,-6.418949 -7.08623,-16.117918 -13.1111,-20.766072 -6.76,-5.215302 -12.48488,-7.22451 -20.97859,-7.362659 -8.50144,-0.138274 -14.82926,2.658496 -20.37677,9.00612 -2.043,2.337665 -9.60169,16.080132 -17.33096,31.509434 C 334.76425,135.0562 299.90659,187.18677 254.87087,236.5 198.83633,297.85672 136.21596,340.48902 60.143353,369.0716 40.81685,376.33311 36.88387,378.31457 30.672317,383.91933 24.407426,389.57221 21.554474,396.149 21.527716,405 c -0.0275,9.09651 2.678061,15.25069 9.246498,21.03246 14.109741,12.41989 33.857117,12.72633 56.068188,0.87006 l 7.342402,-3.91937 -3.979366,4.5208 c -5.650344,6.41913 -11.187394,18.1635 -12.469927,26.44937 -2.378095,15.3638 6.178261,29.60536 20.40395,33.96119 4.759309,1.45727 14.587199,0.56023 20.194269,-1.84324 z"
     id="path2989"
     style="fill:#ffffff" />
</svg>
