<?xml version="1.0" encoding="UTF-8" standalone="no"?>
<!-- Created with Inkscape (http://www.inkscape.org/) -->

<svg
   xmlns:dc="http://purl.org/dc/elements/1.1/"
   xmlns:cc="http://creativecommons.org/ns#"
   xmlns:rdf="http://www.w3.org/1999/02/22-rdf-syntax-ns#"
   xmlns:svg="http://www.w3.org/2000/svg"
   xmlns="http://www.w3.org/2000/svg"
   version="1.1"
   width="512"
   height="512"
   id="svg2">
  <metadata
     id="metadata8">
    <rdf:RDF>
      <cc:Work
         rdf:about="">
        <dc:format>image/svg+xml</dc:format>
        <dc:type
           rdf:resource="http://purl.org/dc/dcmitype/StillImage" />
        <dc:title></dc:title>
      </cc:Work>
    </rdf:RDF>
  </metadata>
  <defs
     id="defs6" />
  <path
     d="m 0,0 512,0 0,512 -512,0 z"
     id="rect3020"
     style="fill:#000000;fill-opacity:1;fill-rule:nonzero;stroke:none" />
  <path
     d="m 409.06996,421.27413 c -3.07315,-8.5689 -12.75837,-28.22543 -18.20218,-36.94204 -5.77918,-9.25359 -15.22511,-21.85941 -20.48462,-27.33721 l -4.32559,-4.50513 1.99277,-17.43022 c 1.09602,-9.58661 1.87052,-17.79696 1.7211,-18.24521 -0.14942,-0.44825 -5.81273,2.78516 -12.58513,7.18534 C 350.4139,328.39985 344.45249,332 343.93873,332 c -0.51375,0 -3.07264,-1.5078 -5.68642,-3.35066 -2.61377,-1.84286 -6.59438,-4.36114 -8.8458,-5.59618 l -4.0935,-2.24552 -1.29705,-17.47349 c -0.71338,-9.61042 -1.58101,-18.86185 -1.92806,-20.55875 l -0.631,-3.08525 -10.87029,11.90492 c -5.97866,6.54771 -11.84472,12.93296 -13.03569,14.18944 l -2.1654,2.28451 -11.13967,-2.19789 -11.13968,-2.19789 -7.49335,-16.08662 C 261.49148,278.73898 257.83599,271.5 257.48952,271.5 c -0.34648,0 -4.00719,7.24107 -8.13493,16.09126 l -7.50498,16.09126 -10.17481,2.04829 c -5.59614,1.12656 -10.862,2.33265 -11.7019,2.68019 -1.0798,0.44682 -5.16653,-3.3756 -13.95208,-13.0497 -11.3568,-12.5054 -12.47994,-13.47441 -13.06424,-11.27146 -0.35159,1.32559 -1.2221,10.12433 -1.93447,19.55276 l -1.29521,17.14261 -4.11345,2.25674 c -2.2624,1.2412 -6.25199,3.76453 -8.86576,5.60739 -2.61378,1.84286 -5.1786,3.35066 -5.69961,3.35066 -0.52101,0 -6.4683,-3.57667 -13.2162,-7.94815 -6.7479,-4.37148 -12.42586,-7.7912 -12.61768,-7.59938 -0.34593,0.34593 2.31444,26.04944 3.3439,32.3075 0.46946,2.85387 -0.0703,3.91274 -4.3329,8.5 -13.84873,14.90352 -29.02534,40.04051 -37.73248,62.49626 -1.54747,3.99093 -2.93754,7.13228 -3.08904,6.98078 -0.50326,-0.50325 2.48327,-21.03728 5.1124,-35.15062 7.03698,-37.77486 17.46454,-72.47214 30.83023,-102.58639 5.83039,-13.13644 11.42361,-24 12.35667,-24 0.30401,0 4.34869,3.19653 8.98816,7.10339 4.63947,3.90687 8.59062,6.94437 8.78032,6.75 0.18971,-0.19436 -0.95621,-7.55339 -2.54648,-16.35339 -1.59027,-8.8 -2.89896,-16.74853 -2.90819,-17.66341 -0.0345,-3.41817 21.15127,-29.46879 23.02423,-28.31124 0.46411,0.28684 4.78955,6.18611 9.61209,13.10949 7.04415,10.11281 8.9106,12.22196 9.49219,10.72656 0.60842,-1.56437 3.8547,-37.39801 3.8547,-42.54958 0,-1.93125 7.48982,-6.38727 17,-10.11404 12.72886,-4.98807 10.62302,-6.42748 21.03955,14.38123 l 9.14533,18.26927 3.47939,-6.42414 c 1.91367,-3.53328 6.17188,-11.7542 9.46268,-18.26871 5.77357,-11.42942 6.07774,-11.8211 8.67817,-11.17469 4.66004,1.15838 15.49003,5.64914 20.75362,8.6057 l 5.05875,2.84149 1.83232,23.28603 c 1.00778,12.80732 2.13981,23.6345 2.51561,24.06039 0.37581,0.4259 4.92483,-5.29548 10.10893,-12.71418 5.18411,-7.41869 9.87565,-13.35786 10.42565,-13.19816 1.44458,0.41946 13.44024,14.4529 17.94437,20.99269 l 3.83887,5.57387 -3.0865,17.2575 c -1.69757,9.49163 -2.91478,17.42923 -2.70489,17.63911 0.20988,0.20988 4.17754,-2.81492 8.81701,-6.72179 4.63947,-3.90686 8.71147,-7.10339 9.04888,-7.10339 0.33741,0 2.0608,2.8125 3.82975,6.25 17.25346,33.52756 31.18588,76.26557 39.30275,120.56207 2.73343,14.9172 5.72515,35.30588 5.25027,35.78075 -0.16372,0.16372 -1.36547,-2.67969 -2.67055,-6.31869 z M 445,481.1726 C 445,451.87317 440.46695,400.77799 434.47163,362.5 415.89063,243.86684 373.50746,139.01402 317.40673,72.890062 301.86135,54.567271 280.86031,35.274588 263.72879,23.578615 l -5.7438,-3.921386 -6.74249,4.623009 C 190.41316,65.988013 138.21079,147.9385 105.86675,252.5 91.372766,299.35603 80.778133,351.4223 75.038986,404 72.227455,429.75711 70,463.64357 70,480.65853 L 70,495 l 187.5,0 187.5,0 0,-13.8274 z"
     id="path2989"
     style="fill:#ffffff" />
</svg>
