<?xml version="1.0" encoding="UTF-8" standalone="no"?>
<!-- Created with Inkscape (http://www.inkscape.org/) -->

<svg
   xmlns:dc="http://purl.org/dc/elements/1.1/"
   xmlns:cc="http://creativecommons.org/ns#"
   xmlns:rdf="http://www.w3.org/1999/02/22-rdf-syntax-ns#"
   xmlns:svg="http://www.w3.org/2000/svg"
   xmlns="http://www.w3.org/2000/svg"
   version="1.1"
   width="512"
   height="512"
   id="svg2">
  <metadata
     id="metadata8">
    <rdf:RDF>
      <cc:Work
         rdf:about="">
        <dc:format>image/svg+xml</dc:format>
        <dc:type
           rdf:resource="http://purl.org/dc/dcmitype/StillImage" />
        <dc:title></dc:title>
      </cc:Work>
    </rdf:RDF>
  </metadata>
  <defs
     id="defs6" />
  <path
     d="m 0,0 512,0 0,512 -512,0 z"
     id="rect3102"
     style="fill:#000000;fill-opacity:1;fill-rule:nonzero;stroke:none" />
  <path
     d="m 32.482742,225.15226 c 10.953822,-11.55544 28.239231,-22.8221 43.220648,-28.1713 l 6.203391,-2.21495 1.110046,-5.63301 c 2.046679,-10.38601 3.960481,-15.90698 8.943426,-25.80018 5.839219,-11.59325 12.253537,-19.67474 21.898517,-27.5903 17.90835,-14.69723 38.89522,-21.63765 66.02222,-21.83374 l 12.61901,-0.0912 -6,-1.93513 C 137.12269,95.95724 93.575261,102.32157 64.978867,129.6424 52.064133,141.98107 44.913969,152.44931 36.73022,171 29.606907,187.14693 23.282843,212.10377 20.639322,234.5 l -0.590171,5 3.208166,-4 c 1.764491,-2.2 5.915932,-6.85648 9.225425,-10.34774 z M 163.75745,311 c -0.33101,-0.825 -1.12405,-3.975 -1.76231,-7 -0.63826,-3.025 -3.46359,-10.225 -6.27852,-16 -4.45,-9.12945 -6.29924,-11.68606 -14.16733,-19.58664 -4.97711,-4.99766 -11.59826,-10.52114 -14.71367,-12.27441 -30.303355,-17.05391 -62.170255,-6.1132 -87.046469,29.88527 L 38.078301,288.5 38.630084,285 c 1.14333,-7.25223 5.637713,-19.10426 9.525448,-25.11934 18.675071,-28.89397 58.201478,-40.36278 86.982878,-25.23859 17.50403,9.19811 28.48447,28.56524 30.25195,53.35793 0.62663,8.78979 -0.57027,25.64845 -1.63291,23 z M 208.5,418.61939 C 248.55673,405.50864 284.53043,365.87625 296.19992,322 c 3.07367,-11.55672 3.10588,-32.7738 0.0668,-44 l -2.03034,-7.5 5.72354,6.21447 c 13.30584,14.44709 19.51678,34.3484 17.05146,54.63679 -3.90608,32.14505 -24.80935,60.42177 -56.33131,76.20171 -15.47416,7.74639 -38.30807,13.4992 -53.18007,13.39827 l -6,-0.0407 7,-2.29113 z m -0.68337,44.30778 C 186.70186,461.70414 164.36752,457.42291 141.5,450.21507 l -9,-2.8368 26.68858,0.44334 c 16.21156,0.2693 31.71791,-0.0165 39.5,-0.72816 45.53135,-4.16348 80.06533,-15.05725 109.31142,-34.48237 13.45731,-8.93828 32.15347,-27.44671 40.41549,-40.00968 33.99711,-51.69496 33.68128,-122.64455 -0.85586,-192.2638 -7.87212,-15.86847 -7.19476,-15.96757 5.00645,-0.73246 C 379.31315,213.00301 394.055,250.57901 395.87629,290 l 0.62371,13.5 4.12807,-10 c 9.0836,-22.00449 16.41079,-47.1811 20.22669,-69.5 3.38869,-19.82021 4.33658,-32.71035 3.98444,-54.18324 -0.18656,-11.37579 -0.0532,-20.15079 0.29637,-19.5 0.34957,0.65078 2.21994,5.45824 4.15638,10.68324 17.84555,48.15182 10.57482,111.76649 -19.8299,173.5 C 376.4711,401.48456 324.78746,446.1356 265.5,458.87309 c -18.79281,4.03751 -36.49289,5.28149 -57.68337,4.05408 z M 262,494.42341 c 26.77341,-3.77926 58.43822,-14.59083 79.43029,-27.12052 9.63554,-5.75122 26.24752,-17.03611 36.56971,-24.8426 59.09561,-44.69298 99.07283,-112.02251 111.05334,-187.03574 4.97284,-31.13634 3.1197,-77.89812 -4.09867,-103.42455 l -1.27251,-4.5 -2.41442,8 c -3.45937,11.46233 -9.91327,28.47684 -14.77909,38.9623 L 462.29467,203.5 462.10371,190 C 461.6716,159.45173 455.27061,132.86089 441.52202,104.5 434.23612,89.470505 425.66225,76.047165 416.02042,64.57446 408.81403,55.999654 393.47714,40.783727 386,34.790817 380.51042,30.390929 363.75523,18.911435 363.37615,19.290519 c -0.1505,0.1505 2.34026,5.490103 5.53502,11.865784 14.37849,28.694673 20.40258,54.293718 20.43645,86.843697 0.0195,18.6897 -0.6467,25.19631 -4.47194,43.67974 l -2.10676,10.17974 -10.13446,-8.76134 C 355.09641,147.93632 334.79949,133.5779 310,118.78936 c -14.77533,-8.81089 -31.96808,-18.16866 -32.43484,-17.65381 -0.18173,0.20045 2.66608,4.52365 6.32848,9.60712 20.85829,28.95165 34.34517,56.4382 41.58804,84.75733 5.06054,19.78635 6.02618,28.94874 5.95516,56.50492 -0.072,27.92816 -0.82969,31.74096 -4.22507,21.26029 C 326.00633,269.54435 322.64487,261.775 319.74185,256 299.16051,215.0574 264.88332,187.27003 221.5,176.35863 c -13.59391,-3.41902 -38.5245,-4.35131 -52.5,-1.96325 -10.81332,1.84772 -27.1554,6.54415 -26.49421,7.61398 0.24267,0.39266 5.74064,0.95889 12.21772,1.2583 24.33948,1.12513 47.86866,10.39307 67.59459,26.62492 9.30959,7.66058 13.2281,11.84497 20.23448,21.60742 27.11986,37.78789 28.2822,88.56067 2.91949,127.52733 -6.92733,10.64299 -23.10135,26.29155 -33.53779,32.44823 -16.54403,9.75969 -32.63527,14.3396 -53.47492,15.22014 -35.04265,1.48064 -69.970717,-12.39612 -88.868841,-35.30719 -16.434198,-19.92395 -18.540721,-43.23073 -5.702573,-63.09385 6.032766,-9.33386 12.596259,-14.01174 20.915818,-14.90696 6.458164,-0.69492 11.005721,1.77443 14.018815,7.6123 7.412681,14.36208 -8.358536,38.88015 -25.072579,38.97804 -2.0625,0.0121 -3.75,0.29365 -3.75,0.62573 0,0.33207 1.574775,3.60057 3.499501,7.26333 C 77.822492,356.09376 88.322774,368 91.254999,368 c 3.640579,0 16.228781,-6.89574 22.034701,-12.07046 7.30844,-6.51391 13.12079,-15.51974 16.41219,-25.42954 2.27433,-6.84758 2.66084,-9.72863 2.68312,-20 0.0233,-10.7563 -0.2831,-12.89656 -2.95654,-20.65054 -2.56427,-7.43731 -2.7261,-8.47091 -1.1539,-7.3697 5.79377,4.05812 13.53041,16.4044 16.30525,26.02024 2.20915,7.65553 2.2335,20.98561 0.0537,29.37565 -3.92013,15.08827 -15.45671,30.01299 -29.09519,37.64006 l -6.89223,3.85435 4.42697,1.88021 c 2.43483,1.03412 6.93247,2.57683 9.99475,3.42826 5.37648,1.49486 5.72005,1.4706 10,-0.706 23.79085,-12.09902 41.41948,-35.53291 49.18464,-65.38158 2.86655,-11.01895 3.08421,-33.64038 0.429,-44.59095 -7.38016,-30.43709 -26.71623,-52.8795 -53.18146,-61.72504 -7.04697,-2.35532 -9.60824,-2.67988 -21.5,-2.72441 -12.248515,-0.0459 -14.287972,0.21289 -22,2.79122 -32.772301,10.95664 -54.496613,33.71555 -64.215981,67.2742 -2.14409,7.40303 -2.283417,9.6533 -2.283708,36.88403 -2.58e-4,24.02061 0.310828,30.54533 1.811764,38 9.918031,49.25969 37.26722,83.44432 87.187925,108.97898 25.13725,12.85781 65.48172,26.57341 90,30.5966 18.45307,3.02796 43.53972,3.16538 63.5,0.34783 z M 32.882649,224.74937 c 4.664286,-4.81285 11.715316,-10.98685 15.668955,-13.71999 7.477164,-5.16896 23.326105,-13.31324 29.517956,-15.16837 3.54385,-1.06176 3.59514,-1.15691 5.776174,-10.71614 1.210316,-5.30468 3.267784,-12.23942 4.572152,-15.41053 8.52492,-20.72536 26.479224,-38.72475 47.582114,-47.70161 13.15938,-5.5978 20.90221,-7.138 39,-7.75789 l 16.5,-0.56516 -5.5,-1.9112 c -9.73488,-3.38279 -26.17306,-6.66412 -38.84831,-7.75476 -35.11189,-3.0212 -64.850567,7.16859 -86.047848,29.48381 -21.60985,22.74955 -35.026475,56.74667 -40.401525,102.37563 l -0.40089,3.40316 2.050351,-2.90316 c 1.127692,-1.59674 5.866584,-6.84094 10.530871,-11.65379 z M 162.18755,306.31274 C 155.5359,271.24841 120.49499,243.4201 90,248.98384 c -16.525363,3.01501 -33.798761,15.10905 -46.776917,32.75105 -2.522648,3.42919 -4.770537,6.05099 -4.995308,5.82622 -0.224771,-0.22477 0.513026,-4.05351 1.63955,-8.5083 C 42.924228,266.96439 48.149138,257.80205 57.005217,249 70.707895,235.38092 84.902271,229.11802 104,228.26479 c 8.7706,-0.39185 13.02556,-0.12233 17.92776,1.13556 25.27979,6.48673 40.58323,26.29579 43.56144,56.38673 0.75668,7.64524 -0.22772,27.21292 -1.36902,27.21292 -0.36524,0 -1.23493,-3.00927 -1.93263,-6.68726 z m 46.62103,112.14652 c 16.16259,-5.50565 31.72771,-15.2744 45.94497,-28.83529 21.29028,-20.30736 35.28749,-43.41793 41.45878,-68.45191 3.59695,-14.59111 2.76877,-36.70998 -1.81978,-48.60209 -0.69661,-1.80541 -0.60324,-1.83095 1.44611,-0.39553 3.7531,2.62877 11.92844,13.55038 15.03227,20.08193 4.8509,10.20801 6.46755,17.9014 6.46032,30.74363 -0.007,12.95423 -1.60291,20.98738 -6.51003,32.77481 -6.62025,15.90256 -21.42568,33.77386 -36.39847,43.93576 -18.22263,12.36755 -46.22573,21.34213 -66.34897,21.26386 l -6.57378,-0.0256 7.30858,-2.4896 z M 203.5,462.95558 c -19.43359,-1.58803 -47.6636,-7.5231 -65.5,-13.7707 l -5.5,-1.92649 25.50446,0.51402 c 54.23114,1.09299 92.1701,-5.78969 128.49554,-23.31098 20.8313,-10.04781 33.69862,-19.34779 47.98855,-34.68419 47.3485,-50.8159 51.9062,-132.31373 11.84347,-211.77724 -7.20116,-14.28334 -7.25029,-14.43276 -3.28752,-10 34.3608,38.43609 51.97506,80.98732 54.02104,130.5 0.24943,6.03635 14.74475,-34.22532 19.36026,-53.77436 6.47637,-27.43076 8.96315,-50.15634 8.43078,-77.04518 -0.41413,-20.917 -0.1684,-21.10625 5.58856,-4.30412 19.3097,56.35677 4.6288,135.54235 -37.17225,200.49908 -14.18765,22.04688 -32.398,42.509 -51.12909,57.45135 -20.71113,16.5219 -35.57166,24.99763 -56.60891,32.28701 -22.85284,7.91848 -54.85539,11.5628 -82.03489,9.3418 z m 46.70373,32.55485 c 25.22308,-1.7598 54.01177,-9.70313 77.81088,-21.46945 35.53193,-17.56704 74.65525,-49.02148 99.55566,-80.04098 18.41154,-22.93604 36.70626,-55.23129 46.98974,-82.94994 17.35723,-46.78562 21.94617,-101.72932 12.45742,-149.15351 -1.14409,-5.7181 -2.33254,-11.07155 -2.64099,-11.89655 -0.30845,-0.825 -2.89738,5.475 -5.75319,14 -2.8558,8.525 -7.65182,20.9 -10.65781,27.5 L 462.5,203.5 461.86456,187 c -1.05004,-27.26553 -5.3908,-47.52358 -15.32054,-71.5 C 433.07266,82.971967 408.7785,51.821012 380.84393,31.256679 370.90548,23.940378 364,19.483698 364,20.385884 c 0,0.301952 2.41107,5.401154 5.35794,11.33156 14.93096,30.047754 21.66881,61.184921 20.29383,93.782556 -0.63909,15.15153 -1.50122,21.73799 -4.80335,36.69644 l -2.14052,9.69644 -8.9292,-7.69644 c -14.48481,-12.48506 -31.61475,-25.09298 -49.37512,-36.34092 -13.32036,-8.436 -45.66889,-26.92354 -46.19276,-26.39967 -0.23072,0.23072 2.2943,4.16004 5.61115,8.73182 27.84097,38.37451 43.3594,76.62405 47.30069,116.58589 1.23752,12.54759 0.55866,51.94512 -0.92056,53.42434 -0.45569,0.45569 -1.63034,-1.76492 -2.61034,-4.93469 -2.46545,-7.97442 -8.11567,-20.39231 -13.17208,-28.94924 C 295.60989,214.48234 266.29822,190.6533 232.5,179.71705 c -16.54945,-5.35498 -22.62694,-6.22268 -43,-6.13919 -19.71613,0.0808 -24.19134,0.74459 -42,6.22969 l -6,1.84801 10,0.74583 c 48.64637,3.62821 86.71069,30.14946 104.19628,72.59861 5.88312,14.28222 7.63847,23.72413 7.71529,41.5 0.0893,20.66305 -2.24645,31.72945 -10.36737,49.11883 -5.23982,11.22007 -11.0048,19.4559 -20.38658,29.12418 -22.2028,22.88084 -49.26024,33.23446 -83.59543,31.98807 -30.51816,-1.10783 -56.312946,-11.62334 -75.09643,-30.61381 -18.881253,-19.08933 -23.593872,-40.60734 -13.53537,-61.80306 8.081915,-17.03057 23.571822,-25.79145 33.671727,-19.04428 9.991043,6.67445 8.883413,23.52098 -2.325714,35.37297 -5.602529,5.92385 -10.05227,8.35094 -16.936347,9.23784 l -4.806654,0.61926 2.342611,5 c 3.056448,6.52359 10.661114,16.5282 15.187772,19.98085 l 3.584675,2.73417 4.67577,-1.74638 c 6.86931,-2.56567 17.53555,-9.91079 22.18409,-15.27671 C 126.44652,341.45153 133,323.66341 133,310.5 c 0,-6.7039 -2.68029,-19.1219 -5.41791,-25.10167 -2.16327,-4.72518 -2.24807,-5.28993 -0.66729,-4.44393 2.26395,1.21163 6.95775,6.52 10.79071,12.20355 7.77145,11.52357 10.76719,26.67253 7.97775,40.34205 -2.03606,9.97764 -8.1757,22.60692 -14.30358,29.4226 -4.8846,5.43285 -15.31575,13.35134 -19.12968,14.52172 -3.50117,1.0744 -2.6983,2.24458 3,4.37244 13.2979,4.96571 12.77583,4.96385 21.36082,0.0759 8.75574,-4.98516 21.10495,-16.10355 28.01759,-25.22512 14.536,-19.18098 22.40431,-48.46579 19.46303,-72.43883 -5.3226,-43.38216 -37.49348,-75.14422 -76.18148,-75.21337 -25.332378,-0.0453 -56.387787,17.10937 -71.617803,39.56083 -14.105301,20.79346 -17.970952,38.04075 -16.981885,75.76771 0.714256,27.24458 3.501286,42.40137 11.153442,60.65611 19.159067,45.70527 61.571101,77.90192 131.036286,99.47481 26.95664,8.37157 37.74784,10.42732 60,11.43015 8.8,0.39659 16.9,0.60669 18,0.4669 1.1,-0.1398 5.91668,-0.52744 10.70373,-0.86143 z M 34.628621,222.39615 C 45.967025,211.41108 60.87521,202.10458 75.612477,196.81178 l 6.112476,-2.19525 1.189037,-6.45314 c 4.559408,-24.74479 19.21578,-46.39434 40.27563,-59.49285 16.04825,-9.98146 33.77792,-14.77307 55.26939,-14.93707 l 12.959,-0.0989 -7.459,-2.29773 C 157.02622,103.04025 128.3391,101.43717 106.432,107.00451 97.536287,109.26521 84.750174,115.06762 76.290241,120.683 54.185405,135.35537 37.056938,162.5191 27.966283,197.31913 24.849426,209.25081 21,230.2103 21,235.24941 l 0,3.05067 3.148138,-4.40004 c 1.731475,-2.42002 6.447693,-7.59677 10.480483,-11.50389 z M 162.71425,309.25 C 161.46949,298.77288 154.76567,284.05677 146.66382,274.01636 133.54893,257.76341 116.25001,248.65408 98.5,248.65408 c -16.160174,0 -29.278588,6.1136 -43.604261,20.32097 -5.282343,5.23872 -11.244843,11.99394 -13.25,15.0116 C 39.640583,287.00431 38,288.71396 38,287.78587 c 0,-4.71006 2.635423,-13.25891 6.695303,-21.71838 3.763123,-7.84113 5.900004,-10.79916 12.66578,-17.53295 C 71.350271,234.61149 87.511048,228 107.55463,228 c 33.02038,0 55.00684,22.32103 58.06113,58.94465 0.71292,8.54852 -0.36087,27.05535 -1.56979,27.05535 -0.42207,0 -1.02134,-2.1375 -1.33172,-4.75 z M 200.5,420.94299 c 1.65,-0.55802 5.925,-1.96924 9.5,-3.13605 17.08327,-5.57566 34.74651,-17.44972 50.5,-33.94845 26.89339,-28.16564 41.33695,-64.13503 37.58274,-93.59387 -0.69225,-5.43199 -2.04115,-12.18785 -2.99756,-15.01302 -1.66932,-4.93103 -1.667,-5.09816 0.0581,-4.17493 3.16484,1.69377 11.83497,13.1988 15.39091,20.42333 5.46885,11.11092 6.95797,18.17903 6.84713,32.5 -0.0814,10.51408 -0.52611,13.92986 -2.79936,21.5 -11.54183,38.43543 -46.04012,66.73844 -90.08194,73.90484 -11.75115,1.91213 -28.22835,2.96814 -24,1.53815 z m -3,41.64716 c -19.36662,-2.29118 -38.32017,-6.44838 -57,-12.50218 l -9,-2.91674 24.5,0.54836 c 43.00453,0.96254 74.42313,-2.98167 105.82373,-13.28484 59.164,-19.4129 95.85457,-58.57383 108.38798,-115.68572 1.98321,-9.03702 2.25019,-13.08717 2.25766,-34.24903 0.009,-25.02679 -0.83899,-32.85785 -5.6298,-52 -4.80696,-19.20674 -15.16589,-45.4496 -24.67082,-62.5 l -4.18095,-7.5 5.54012,6 c 30.37726,32.89882 49.17437,74.72728 52.57637,116.99604 0.53137,6.60218 1.06881,12.6782 1.19429,13.50228 0.12549,0.82408 2.1475,-3.32043 4.49337,-9.21002 16.59628,-41.6671 24.15789,-82.55373 22.9665,-124.18297 l -0.51212,-17.89466 2.89091,6.77662 c 3.65837,8.57564 7.40008,21.44535 9.59802,33.01271 2.70395,14.23036 2.40687,50.03198 -0.55181,66.5 -13.69921,76.2498 -53.95048,141.71699 -110.65979,179.98403 -20.42161,13.78036 -45.85042,23.3996 -73.02366,27.62347 -13.0565,2.02953 -41.80888,2.54323 -55,0.98265 z m 71.70355,30.5466 c 23.0084,-4.40412 43.19704,-11.16737 61.91424,-20.74146 13.63957,-6.97681 39.53731,-24.14874 53.88221,-35.72749 11.82903,-9.54803 33.44242,-31.25439 42.72331,-42.9071 45.8714,-57.59427 69.34116,-132.18474 63.32632,-201.2607 -1.17554,-13.50023 -3.99652,-31.70965 -6.19404,-39.98246 l -1.05787,-3.98246 -5.29036,15.98246 C 475.59765,173.30789 470.73276,185.675 467.69648,192 l -5.52051,11.5 -0.088,-11.53801 C 461.58259,125.68577 428.3504,63.484808 373.42006,26.00153 c -4.82365,-3.291556 -8.90304,-5.851881 -9.06531,-5.689611 -0.16227,0.16227 2.35988,5.670972 5.60478,12.241559 14.26368,28.882449 21.01783,60.81258 19.75177,93.376272 -0.54065,13.90594 -3.22878,32.78578 -5.94467,41.75183 L 382.5,171.86316 375,165.37694 c -22.91347,-19.81624 -49.4466,-37.87849 -84,-57.18243 -6.875,-3.84085 -12.62668,-6.8667 -12.78151,-6.7241 -0.15483,0.1426 3.14889,5.1576 7.3416,11.14443 37.49234,53.53588 49.6456,95.6812 45.78517,158.77486 -0.3601,5.88546 -0.96411,10.34296 -1.34224,9.90556 -0.37813,-0.43739 -1.93647,-4.39526 -3.46297,-8.79526 -15.91096,-45.86187 -56.21377,-83.40028 -102.01645,-95.01909 -25.5559,-6.48278 -53.58477,-5.65801 -76.36109,2.24698 l -5.33749,1.85248 12.83749,1.18843 c 16.53551,1.53078 29.11104,4.95392 42.88926,11.67475 31.3878,15.31055 53.121,41.64766 62.20877,75.38691 2.35064,8.727 2.6048,11.4241 2.60745,27.66954 0.003,16.44154 -0.23139,18.86581 -2.70352,28 -3.81666,14.10201 -12.85145,31.87239 -21.7493,42.77834 -20.4788,25.10052 -50.37508,38.78548 -84.72344,38.78199 -32.98664,-0.003 -62.521267,-11.70447 -81.888669,-32.44289 -17.921794,-19.19049 -21.804779,-40.54131 -11.25698,-61.89718 7.716444,-15.6233 23.398587,-23.90192 33.056036,-17.45033 5.210133,3.4806 7.102943,7.98593 6.608613,15.73007 -0.956306,14.98137 -13.683378,28.91215 -26.47415,28.97804 l -4.26342,0.022 1.553817,3.75 c 0.8546,2.0625 3.047416,6.01036 4.872924,8.77301 C 79.929431,357.86447 89.735893,368 91.374405,368 c 0.538742,0 4.673357,-1.78791 9.188035,-3.97314 19.71682,-9.54349 31.38061,-28.83796 31.75326,-52.52686 0.16807,-10.6846 -1.13397,-17.65525 -4.90323,-26.25 -1.26633,-2.8875 -1.91493,-5.25 -1.44134,-5.25 1.90286,0 11.99154,12.48188 14.95632,18.50419 8.01312,16.27696 7.81648,34.32643 -0.56101,51.49581 -4.32142,8.85662 -16.86372,21.95185 -24.90217,26 -2.73035,1.375 -5.17624,2.63697 -5.43531,2.80437 -0.95349,0.61612 2.67098,2.26677 10.42231,4.74649 l 7.95127,2.54369 6.00577,-3.14814 c 24.32167,-12.74908 42.25836,-38.3259 48.70187,-69.44641 1.73854,-8.3967 1.47471,-29.38434 -0.48074,-38.24252 -6.31427,-28.60366 -24.25847,-51.0696 -48.66475,-60.92773 -19.69928,-7.9569 -38.311216,-6.97729 -59.670392,3.14065 -12.002915,5.68583 -19.912329,11.35097 -28.859205,20.67046 C 30.992067,253.1854 23.565325,268.50752 20.360382,289.87253 18.148214,304.61943 18.954348,339.97093 21.84551,355 33.577058,415.98389 75.159432,455.73685 155,482.29636 c 16.43881,5.46848 35.26341,10.24417 48,12.17732 14.20447,2.15594 51.93653,1.39397 66.20355,-1.33693 z M 29.529342,227.36393 C 38.935073,216.3577 55.777495,204.7851 72.420134,197.89324 l 8.920134,-3.69391 2.338629,-9.72101 c 6.665207,-27.70536 24.526493,-49.86041 49.566433,-61.48194 14.03282,-6.51292 36.78078,-10.8146 50.75467,-9.59781 l 6.5,0.56599 -5.5,-2.00892 c -6.28393,-2.29526 -19.46517,-5.44455 -29,-6.92874 -9.52546,-1.48274 -31.47926,-1.24735 -41.11901,0.44087 C 71.440258,113.07561 41.819847,144.59192 27.915164,198 c -2.86124,10.99006 -6.951501,33.27886 -6.881698,37.5 0.03046,1.84225 0.193722,1.80282 2.069878,-0.5 1.120243,-1.375 4.011942,-4.81123 6.425998,-7.63607 z M 162.7442,310.81052 C 161.27334,296.55919 152.72648,279.75891 140.97437,268.01828 119.85305,246.91757 93.733698,242.75424 70.114846,256.72352 61.589415,261.76586 50.971393,271.71338 43.668341,281.5 l -5.969825,8 0.641654,-4.82327 C 42.531725,253.16912 73.052462,227.84934 107,227.71703 c 38.03666,-0.14824 60.81389,28.3004 58.73771,73.36311 -0.622,13.50024 -2.10643,18.32536 -2.99351,9.73038 z M 197,421.73388 c 0.275,-0.28432 3.36953,-1.24605 6.87672,-2.13718 38.22429,-9.71232 77.82228,-50.30912 90.80621,-93.0967 2.54646,-8.39166 2.7293,-10.21667 2.70497,-27 -0.023,-15.84938 -0.28023,-18.687 -2.15314,-23.75 -1.16987,-3.1625 -1.75859,-5.75 -1.30826,-5.75 1.18197,0 8.09107,7.6975 11.94905,13.31255 11.29179,16.43449 14.8903,38.8759 9.57099,59.68745 -2.21488,8.66559 -9.34315,23.69976 -14.98695,31.60883 -16.31151,22.85854 -44.13435,39.53152 -74.78865,44.81749 -8.69453,1.49927 -29.50953,3.17455 -28.67094,2.30756 z m -0.5,40.82404 c -13.27279,-1.63404 -23.9483,-3.63581 -37.69481,-7.06817 -10.37998,-2.59177 -29.19991,-8.47844 -28.61835,-8.9515 0.17224,-0.1401 5.26316,0.10301 11.31316,0.54026 23.41949,1.69257 54.8937,0.61558 77,-2.63479 68.68736,-10.09935 116.64188,-41.16829 139.98822,-90.69605 10.21383,-21.668 14.51556,-42.44544 14.50717,-70.07003 C 372.98489,249.0517 364.30444,214.89373 346.39403,179 l -8.23324,-16.5 5.01835,5.42714 c 13.62804,14.73817 25.29074,31.85668 34.45486,50.57286 11.63212,23.75665 16.79585,43.44149 19.14939,73 l 0.71661,9 4.73453,-12.15621 c 6.28908,-16.14763 10.17668,-28.30643 13.69794,-42.84154 6.77007,-27.94554 8.52804,-42.89873 8.54963,-72.72271 l 0.0179,-24.72046 2.28626,5.18085 c 3.25256,7.3706 7.83202,22.73977 9.9103,33.26007 2.80852,14.21676 2.53487,51.77903 -0.49904,68.5 -10.38353,57.22734 -36.31086,109.27682 -73.63664,147.82651 -32.24897,33.30643 -67.27465,52.19086 -109.06088,58.80122 -13.10246,2.07274 -43.66781,2.57154 -57,0.93019 z m 72.5,30.47455 c 39.52579,-7.37176 68.63971,-20.94363 108,-50.34573 14.88365,-11.11807 39.12183,-34.53008 50.40482,-48.68674 34.25758,-42.98268 55.76072,-94.07075 62.71458,-149 1.66189,-13.12742 1.69964,-49.331 0.0647,-62 -1.44661,-11.20926 -5.13528,-30.94055 -6.13442,-32.81401 -0.40613,-0.76153 -1.64879,2.14522 -2.95554,6.91343 -2.64874,9.66505 -9.32968,27.10377 -14.71163,38.40058 l -3.81131,8 -0.69247,-15.5 c -0.98755,-22.10458 -3.08056,-34.70083 -9.02123,-54.29198 -12.0027,-39.5825 -38.01364,-76.717398 -71.07011,-101.464253 -10.0936,-7.556312 -18.23026,-12.898223 -17.63268,-11.57628 0.20698,0.457882 2.92138,6.007513 6.032,12.332513 19.69825,40.053616 24.98244,86.45654 14.78947,129.87301 -1.96626,8.37517 -2.33109,9.12891 -3.82486,7.9021 -0.9082,-0.74589 -5.02627,-4.30405 -9.15127,-7.90702 -8.1045,-7.07886 -25.96225,-20.50038 -38,-28.56004 -14.56076,-9.7489 -56,-33.95052 -56,-32.7055 0,0.25337 2.44138,3.70895 5.42528,7.67906 13.07548,17.39705 28.902,46.00437 36.08098,65.21839 5.11267,13.68369 9.20356,30.36422 10.99438,44.82935 1.5373,12.4174 1.85531,40.02569 0.64125,55.67065 l -0.6596,8.5 -2.35906,-7 c -3.98766,-11.83253 -13.7222,-30.68512 -21.48195,-41.60346 -21.57016,-30.35023 -52.76824,-50.98222 -89.42607,-59.13947 -7.98608,-1.77709 -12.8299,-2.15428 -27.21521,-2.11922 -18.20694,0.0444 -28.73633,1.58664 -41.97008,6.14747 l -5.47009,1.8852 10.31743,0.67614 c 52.99389,3.47289 94.9951,37.8302 108.24449,88.54481 2.64164,10.11138 3.59059,31.41678 1.91352,42.96124 -4.85129,33.39472 -25.46616,63.74183 -54.18557,79.76647 -29.68715,16.56462 -68.48226,18.2291 -102.3497,4.39125 -12.540651,-5.12396 -22.558936,-11.8772 -32.518469,-21.9204 -13.723904,-13.83919 -19.746706,-28.0745 -18.69063,-44.1766 0.887215,-13.52746 8.427347,-27.72092 18.36097,-34.56247 5.142716,-3.54192 6.136945,-3.85096 12.389213,-3.85096 5.87082,0 7.162638,0.34091 9.473366,2.5 4.010548,3.74737 5.48555,7.31611 5.48555,13.2722 0,7.31647 -2.201533,13.20628 -7.423037,19.85901 C 88.547416,335.53938 80.842725,340 74.803656,340 72.683213,340 71,340.49121 71,341.11002 c 0,2.87819 7.143668,14.04139 12.89214,20.14618 7.168825,7.61317 6.591272,7.52426 16.88067,2.59878 7.64586,-3.66004 17.26832,-12.34658 22.33712,-20.16454 9.78257,-15.08832 12.03941,-37.53243 5.52215,-54.91737 -1.29341,-3.45019 -2.68032,-7.17307 -3.08202,-8.27307 -0.4017,-1.1 2.20486,1.00959 5.79237,4.68797 17.09204,17.525 20.40725,43.52082 8.43213,66.11945 -4.36536,8.23799 -15.06514,19.3538 -23.22026,24.12309 -3.62906,2.12235 -6.43359,4.02353 -6.23228,4.22484 0.20131,0.20131 4.31244,1.69999 9.13585,3.33041 l 8.76983,2.96439 5.19491,-2.5437 c 16.18163,-7.92337 32.66871,-25.5006 41.16245,-43.88417 18.93834,-40.98957 9.67242,-89.22002 -21.92308,-114.11267 C 138.51527,214.26406 125.02848,209.57342 107,209.52859 c -10.068171,-0.025 -12.558308,0.32889 -20,2.84257 -17.026508,5.75126 -30.152817,13.86888 -41.236278,25.5015 -21.163237,22.21182 -27.67919,43.36158 -26.46948,85.91577 0.608952,21.4212 2.306313,33.61609 6.667259,47.90174 15.721846,51.50182 57.537363,87.1618 129.771749,110.66844 22.93251,7.46273 33.27064,9.92414 54.76675,13.03942 1.65,0.23912 12.9,0.28728 25,0.10701 17.18133,-0.25597 24.51885,-0.79754 33.5,-2.47257 z M 34.79468,222.13825 c 10.65861,-10.49098 24.608815,-19.34282 39.650033,-25.15916 l 6.944714,-2.68548 1.714293,-7.89681 c 4.177846,-19.24502 10.919521,-31.56783 24.8361,-45.3968 18.74745,-18.62943 40.30815,-27.20395 68.91211,-27.40578 l 13.35193,-0.0942 -7.13478,-2.23776 C 165.54182,105.76497 156.7549,104.53529 135.5,104.6052 c -22.019,0.0724 -27.55524,1.02951 -42.895493,7.41567 -31.281655,13.02259 -53.820406,43.46362 -65.085843,87.9055 -2.245011,8.85652 -6.517995,32.48896 -6.518468,36.05147 -1.08e-4,0.81282 1.420747,-0.31218 3.157455,-2.5 1.736708,-2.18781 6.523371,-7.29063 10.637029,-11.33959 z m 128.23573,91.50609 c -0.0469,-5.94579 -2.77417,-15.33812 -7.01086,-24.14434 -9.33989,-19.41351 -24.36513,-32.90251 -42.93128,-38.54181 -9.15678,-2.78128 -23.444587,-2.42889 -32.325447,0.79727 C 67.918677,256.42137 54.644782,267.0338 44.025202,281.12704 38.430493,288.55178 38,288.90804 38,286.11317 c 0,-4.37806 4.49938,-17.77857 8.01464,-23.87001 4.173099,-7.23138 14.771999,-18.21771 22.318817,-23.13465 8.630609,-5.62307 16.926619,-8.80766 27.882332,-10.70319 32.033921,-5.54246 58.575651,11.6146 67.440371,43.59468 2.22004,8.00895 2.68096,40.12722 0.62425,43.5 -1.09599,1.79731 -1.22267,1.60925 -1.25,-1.85566 z M 202,420.10511 c 25.90981,-7.51125 47.73834,-22.45323 66.36522,-45.42807 12.85976,-15.86153 21.27639,-31.67257 26.80348,-50.35164 2.03759,-6.88612 2.30846,-9.8659 2.2567,-24.8254 -0.0505,-14.59993 -0.36135,-17.91161 -2.2017,-23.45708 -1.17858,-3.55139 -1.99273,-6.60722 -1.80921,-6.79074 0.18351,-0.18352 3.11809,2.70505 6.52129,6.41904 7.50737,8.19297 14.43611,21.61825 16.68479,32.32878 2.06804,9.85013 1.34639,26.62829 -1.59141,37 -5.90015,20.83009 -20.27264,40.65029 -39.12948,53.96097 -19.50052,13.76505 -42.63092,21.30385 -69.06797,22.51104 L 195.5,421.98945 202,420.10511 z m -6.5,42.37983 c -19.96819,-2.32584 -39.46664,-6.76028 -57,-12.96323 -9.16547,-3.24256 -9.58274,-3.49774 -5,-3.05777 23.61831,2.26747 60.96498,1.34463 84.5,-2.08801 60.05964,-8.75986 104.54267,-33.61078 130.44755,-72.87593 34.25927,-51.92824 32.72552,-125.89908 -4.07434,-196.5 -5.9143,-11.34665 -6.2227,-12.2232 -3.34243,-9.5 5.11189,4.83313 18.66832,22.054 24.70418,31.38199 18.0008,27.81891 28.82786,60.10343 30.84448,91.97317 l 0.71097,11.23582 2.90961,-6.79549 c 4.15861,-9.71257 12.22632,-34.07989 15.16231,-45.79549 6.78395,-27.07027 9.07089,-45.98864 9.1074,-75.33947 l 0.0303,-24.33946 2.34091,5.33946 c 3.53619,8.0658 6.95014,19.07675 9.38674,30.27482 1.92068,8.827 2.19339,13.13889 2.21772,35.06465 0.0244,21.94719 -0.25504,26.5264 -2.288,37.5 -15.74835,85.00697 -66.82664,158.71861 -131.65737,189.99616 -31.69475,15.29112 -69.79725,21.05501 -109,16.48878 z m 72.25413,30.62218 C 309.17118,485.76211 343.7256,469.1866 384,437.34479 394.69143,428.89192 418.4061,405.18922 427.36668,394 c 21.12514,-26.37928 38.08729,-57.56565 49.18308,-90.42729 16.50716,-48.88812 19.57486,-100.56003 8.78622,-147.99404 l -1.59431,-7.00963 -2.80563,9.46548 C 477.33257,170.1917 472.38185,183.03469 466.68657,195 l -4.52183,9.5 -0.0852,-11 C 461.82161,160.19279 453.08324,126.20015 437.27262,97 421.46303,67.80177 399.72622,43.95456 371.82793,25.201379 l -7.67207,-5.157152 6.33103,13.227887 C 380.62947,54.463793 386.51648,74.6525 389.06985,97 c 1.60821,14.07521 0.61474,43.26607 -1.92289,56.5 -2.25306,11.74989 -4.00044,18.5 -4.78903,18.5 -0.31074,0 -4.2309,-3.2934 -8.71146,-7.31868 C 357.40418,150.08948 335.41625,134.51255 308.94661,118.84594 292.12532,108.88992 279,101.65543 279,102.33981 c 0,0.26394 3.42219,5.35796 7.60487,11.32004 25.18237,35.89549 39.1909,69.44368 43.90328,105.14137 2.17141,16.44907 1.75183,66.0185 -0.53746,63.49571 -0.39774,-0.43831 -1.74556,-3.92461 -2.99515,-7.74734 -14.86783,-45.48339 -53.30688,-82.6424 -99.26665,-95.96102 -25.86314,-7.49484 -55.47544,-7.00605 -78.70889,1.29921 l -5.5,1.96609 5.5,0.079 c 14.04734,0.20167 33.34308,4.71904 47.76267,11.18182 16.90511,7.57679 36.48446,23.92488 47.17539,39.38985 7.00063,10.12676 13.59752,24.34568 16.80347,36.21815 2.39061,8.85308 2.64579,11.52619 2.69933,28.27735 0.0523,16.3444 -0.21454,19.5354 -2.28967,27.38609 -9.49801,35.93309 -33.87556,63.74098 -66.71341,76.10111 -18.66273,7.02463 -44.90226,8.87592 -65.27716,4.60554 C 86.172345,396.0828 55,366.8305 55,335.5 c 0,-12.06533 5.465662,-25.67988 13.718283,-34.1712 10.569415,-10.87513 25.785798,-11.21568 30.781087,-0.68889 2.33608,4.92292 1.71699,15.2727 -1.282207,21.43566 -4.869445,10.00608 -14.659894,17.70668 -23.127933,18.1911 -2.243377,0.12833 -4.081199,0.62034 -4.084049,1.09335 C 70.988961,344.0523 78.403,355.44787 84,361.3334 l 6.5,6.83509 5.315722,-2.09556 C 112.91202,359.33325 125.8896,344.3026 130.6475,325.7307 c 1.16518,-4.54813 1.46424,-9.22136 1.13301,-17.70491 -0.43686,-11.18904 -1.05313,-13.88335 -6.296,-27.52579 -1.68386,-4.38156 10.91767,9.44673 14.53315,15.94797 15.07883,27.11418 4.46843,62.64742 -23.61022,79.06842 l -6.6385,3.88235 6.36553,2.40631 c 10.50229,3.9701 12.81531,3.95728 20.04976,-0.11114 22.88563,-12.87012 40.24021,-37.62893 46.03851,-65.68057 2.84482,-13.76293 2.1236,-34.8569 -1.61908,-47.35437 C 175.35686,251.13896 167.0404,238.00294 154,226.63792 138.30931,212.96311 113.11632,206.04719 94.762688,210.37622 66.506045,217.04105 42.338303,235.47061 30.051941,259.72259 21.20752,277.18055 18.472857,293.34468 19.346612,323 c 0.961032,32.61752 5.334507,51.42906 17.133864,73.69755 21.529569,40.63197 65.867484,70.59199 132.814424,89.74538 28.60206,8.183 38.89228,9.57909 66.7051,9.05 14.5594,-0.27696 23.76128,-0.96833 31.75413,-2.38581 z M 31.912143,224.71038 c 10.612228,-11.23667 26.270364,-21.49008 42.403381,-27.767 l 7.07194,-2.75149 1.275759,-6.34595 C 86.165397,170.42526 94.215929,154.1845 104.64547,143.5 c 18.70833,-19.16566 40.85495,-28.82296 69.28659,-30.21324 13.84702,-0.67711 13.74465,-0.93036 -1.93206,-4.77978 -29.11216,-7.1485 -59.3611,-5.5633 -81,4.2448 C 52.718695,130.10327 30.133194,169.21638 21.563788,233 l -0.60458,4.5 2.742528,-3.5 c 1.50839,-1.925 5.203073,-6.10533 8.210407,-9.28962 z M 163.01327,314.5 c -0.14111,-11.87168 -8.61769,-31.32978 -18.4224,-42.2889 C 133.97273,260.34279 123.64716,253.64258 111,250.41416 c -8.69937,-2.22068 -22.228144,-1.50666 -30.5,1.60971 -13.280205,5.00324 -27.561249,16.79533 -37.918858,31.31022 -2.65232,3.71689 -4.971435,6.60895 -5.153588,6.4268 -1.066186,-1.06619 3.295796,-16.478 6.583497,-23.26089 8.592384,-17.72705 24.030635,-30.62613 43.353115,-36.22272 35.582904,-10.30627 66.922354,6.81394 76.375634,41.72272 2.17839,8.04427 2.58063,41.15459 0.54061,44.5 -1.09201,1.79078 -1.22457,1.58156 -1.26714,-2 z M 199,420.87371 c 1.925,-0.60199 6.425,-2.0081 10,-3.12469 34.85172,-10.88539 70.70698,-47.78854 83.44339,-85.88208 1.90638,-5.70182 3.99116,-13.74194 4.63283,-17.86694 1.46349,-9.40801 0.62323,-28.59943 -1.57618,-36 -0.89902,-3.025 -1.88963,-6.4 -2.20137,-7.5 -0.96559,-3.40723 8.38876,6.31694 13.74219,14.28549 2.77657,4.13289 6.08611,10.84011 7.64817,15.5 2.52336,7.52765 2.75176,9.46874 2.73153,23.21451 -0.0209,14.16883 -0.19836,15.52641 -3.20333,24.5 -12.1106,36.16521 -43.83726,62.5673 -85.35166,71.02739 -11.12059,2.26624 -36.15794,3.81406 -29.86557,1.84632 z m -2,42.09001 c -11.54041,-1.39119 -24.32722,-3.81507 -37.41115,-7.0917 -13.37586,-3.34973 -30.98041,-8.81379 -30.36851,-9.4257 0.22093,-0.22092 9.14923,0.0559 19.84067,0.61518 73.83886,3.86255 135.90353,-12.97434 174.73632,-47.40243 57.44756,-50.93142 65.34224,-139.39658 20.11501,-225.40218 C 340.66055,168.07319 338,162.81909 338,162.58113 c 0,-0.87912 10.83392,11.14098 16.15058,17.91887 25.81767,32.91338 39.86059,68.77265 42.6857,109 l 0.70228,10 4.26021,-10.75005 c 10.41133,-26.27159 16.74008,-50.60291 20.87347,-80.2494 1.17084,-8.39782 1.68779,-19.26592 1.72194,-36.20119 0.0268,-13.31036 0.3975,-23.66036 0.82371,-23 1.67418,2.59396 6.75199,16.69028 8.73136,24.23881 16.4714,62.81535 -5.36994,147.13568 -54.51556,210.46183 -20.62456,26.5756 -48.10175,49.34198 -74.878,62.04059 -16.62482,7.8843 -32.57635,12.8453 -51.55569,16.03407 -8.55543,1.43742 -46.45933,2.03919 -56,0.88906 z m 70.5,30.01808 c 39.81221,-6.9849 70.59044,-21.18695 109.5,-50.52675 55.4316,-41.79826 95.2826,-105.26817 108.97278,-173.55879 7.00325,-34.93429 7.13353,-73.97291 0.36137,-108.29028 -0.87979,-4.45829 -1.89821,-8.67371 -2.26314,-9.36759 -0.36493,-0.69389 -1.6793,2.23111 -2.92082,6.5 -3.30942,11.3792 -8.57695,25.14135 -14.12435,36.90183 -2.68768,5.69788 -5.0305,10.36081 -5.20627,10.36208 -0.17576,0.001 -0.16675,-4.16124 0.02,-9.25 C 462.25634,184.39897 460.61553,168.25389 457.49474,153 450.796,120.25777 437.23126,91.72209 415.9007,65.5 409.76672,57.959365 391.01973,39.341114 384.5,34.314922 377.93707,29.255424 365.6835,20.983171 365.30803,21.358633 c -0.19213,0.192135 2.09079,5.252543 5.07315,11.245351 9.60738,19.305198 16.06362,41.316929 18.70954,63.78781 2.34044,19.876476 0.33416,50.195196 -4.62016,69.819706 l -1.69436,6.71149 -8.6381,-7.73998 C 363.88486,155.99581 349.49782,145.01988 334.92557,135.26763 317.34752,123.50379 279,101.06976 279,102.5501 c 0,0.331 1.94963,3.15513 4.3325,6.27586 6.8834,9.01482 18.31116,27.32215 24.64575,39.48264 11.6897,22.44067 19.2036,45.39167 22.51087,68.75886 1.69087,11.94664 2.07256,46.44048 0.66871,60.43254 l -0.70232,7 -2.33392,-7 C 304.09493,205.43829 232.9218,161.55448 163.53193,176.01759 158.56437,177.05299 152.025,178.78972 149,179.877 l -5.5,1.97687 6.5,0.0771 c 14.6118,0.17329 31.94534,4.28854 46.62027,11.06837 62.51578,28.88238 86.46654,103.53857 51.97491,162.00943 -17.79198,30.16131 -46.8712,48.2344 -83.83553,52.10478 -48.63408,5.09228 -98.454102,-22.24128 -108.361687,-59.45222 -6.446836,-24.21305 9.755776,-54.36284 29.453282,-54.80662 9.8052,-0.2209 15.517865,6.20312 15.413035,17.33233 C 101.12681,324.78084 86.362321,341 73.214872,341 c -1.896248,0 -2.285105,0.38374 -1.773323,1.75 1.688283,4.50706 7.595762,13.1695 12.847367,18.83876 6.617449,7.14373 6.393303,7.12578 17.699054,1.4178 13.27858,-6.70401 24.46631,-21.31713 28.38094,-37.07045 3.21409,-12.93422 1.30815,-31.80815 -4.32763,-42.85519 C 124.89622,280.83642 124.34436,279 124.81492,279 c 0.47056,0 3.02874,2.1375 5.68486,4.75 13.53934,13.31702 19.11112,31.76822 15.51044,51.36351 -1.62362,8.8359 -8.99811,22.53608 -15.98743,29.70111 C 124.24584,370.73681 114.34441,378 112.04804,378 c -2.85657,0 -0.42206,2.09464 4.70196,4.04552 9.83202,3.74339 12.82922,3.63446 20.11068,-0.7309 24.28996,-14.56224 41.38746,-40.70127 46.17726,-70.59681 1.89626,-11.83555 0.77003,-31.05459 -2.46205,-42.0144 -7.53896,-25.56427 -24.53481,-45.22605 -46.71152,-54.03861 -9.88056,-3.92632 -16.22241,-5.06885 -27.86437,-5.01996 -8.686577,0.0365 -11.854379,0.50617 -18.342066,2.71959 -33.031225,11.26938 -55.236497,33.40863 -64.04414,63.85373 -7.192859,24.86333 -5.631363,70.18701 3.366736,97.72226 12.703975,38.87566 39.789642,68.01141 83.59842,89.92588 29.66604,14.83984 69.82704,27.524 98.42105,31.08458 12.35923,1.539 44.71166,0.45003 58.5,-1.96908 z M 36.02552,220.59456 C 45.682695,211.51101 58.852826,203.09989 71.643852,197.84688 81.158075,193.93958 82,193.37553 82,190.90878 c 0,-5.06704 5.134895,-20.41402 9.778485,-29.22558 15.348625,-29.12516 44.931245,-46.69363 81.486525,-48.39308 7.02075,-0.32639 12.59901,-0.75943 12.39613,-0.96231 -0.20287,-0.20288 -4.82213,-1.49983 -10.265,-2.88212 C 135.18995,99.234803 101.0668,103.64689 74.495637,122.492 62.637273,130.90233 48.387307,148.21715 40.74637,163.5 32.341332,180.31115 25.55219,205.10527 21.643851,233.26291 l -0.5223,3.76291 3.781227,-4.76291 c 2.079675,-2.6196 7.084909,-7.87036 11.122742,-11.66835 z m 127.00489,94.38534 c -0.0659,-9.80116 -6.8835,-27.56272 -14.63042,-38.11614 -4.73413,-6.44918 -15.46626,-16.28395 -21.68841,-19.87497 C 118.62677,252.32277 107.03529,249 98.842723,249 c -20.294656,0 -38.488362,10.97758 -55.372578,33.4103 -3.163353,4.20289 -5.931142,7.46204 -6.150642,7.24254 -1.096461,-1.09646 3.137162,-16.1138 6.527148,-23.15284 7.135725,-14.81677 17.82197,-25.20527 33.424691,-32.49339 23.521328,-10.98695 49.029318,-8.70617 67.549608,6.0399 9.37881,7.46752 17.6432,22.83183 20.21291,37.57777 1.48625,8.52867 0.89254,36.93475 -0.83419,39.91206 -0.97527,1.6816 -1.14322,1.31439 -1.16926,-2.55644 z m 38.04389,105.0844 c 10.7351,-2.866 20.2907,-6.87979 29.11864,-12.23117 30.78519,-18.66156 55.42807,-50.5244 64.49494,-83.3909 2.3963,-8.68638 2.74654,-11.77379 2.77271,-24.44223 0.0223,-10.78023 -0.4105,-16.03921 -1.68699,-20.5 -3.33344,-11.64887 -3.4477,-11.55016 4.18904,-3.61903 7.98081,8.28847 13.89008,19.0876 16.4811,30.11903 2.20927,9.40609 1.99329,25.60419 -0.48002,36 -2.46727,10.37046 -10.04382,26.21419 -16.77357,35.07609 C 278.42885,404.41512 240.1116,422.27221 203,421.90384 l -8.5,-0.0844 6.5743,-1.75517 z M 199.5,463.29116 c -17.59605,-1.63921 -44.72424,-7.66004 -62,-13.76027 l -10,-3.5311 11.04946,0.5714 c 74.06536,3.83007 127.87137,-7.19481 168.85173,-34.59782 60.59454,-40.51875 80.82934,-115.16637 53.49181,-197.3351 -4.93187,-14.82377 -12.92056,-33.01285 -20.19609,-45.98356 -2.11182,-3.76491 -3.66637,-7.01859 -3.45456,-7.23039 0.48813,-0.48814 10.59877,10.86427 18.0512,20.26822 24.95808,31.49367 41.60934,75.89922 41.72841,111.28123 l 0.022,6.52623 1.94594,-4.2875 c 10.18434,-22.43928 19.40529,-56.54332 23.58096,-87.21517 1.78604,-13.11914 2.5258,-54.38112 1.05325,-58.74733 -0.4244,-1.25834 -0.35127,-2.25 0.16591,-2.25 1.19774,0 7.58507,16.34664 10.15932,26 4.83058,18.1146 6.81832,41.7655 5.12674,61 -5.55487,63.16266 -34.24867,126.40806 -77.19453,170.14819 -33.53597,34.15621 -68.16132,52.21007 -111.809,58.29787 -10.25868,1.43084 -39.10965,1.91296 -50.57251,0.8451 z m 51,31.68257 c 39.84471,-3.71134 76.13126,-17.16819 110,-40.79345 24.23852,-16.90767 42.50144,-32.62777 56.5,-48.63326 39.32307,-44.9607 62.56169,-94.40693 71.69371,-152.54702 1.43156,-9.11425 1.80067,-17.30879 1.77922,-39.5 -0.0277,-28.60762 -0.76337,-36.73727 -5.10274,-56.38504 l -1.63104,-7.38505 -3.21298,10.38505 c -4.94988,15.99908 -13.10464,35.95467 -17.72909,43.38504 l -1.86711,3 0.62676,-5 c 0.96082,-7.66503 -1.34644,-34.59543 -4.1124,-48 C 446.49572,100.44017 416.30538,55.47909 371.25,25.134785 367.8125,22.819666 365,21.174062 365,21.477887 c 0,0.303826 1.32391,2.908093 2.94201,5.787262 7.45616,13.267069 14.91416,34.257205 18.57943,52.290778 5.8132,28.601673 4.89376,61.906113 -2.46334,89.228293 l -1.13382,4.21071 -10.21214,-8.82907 c -21.9362,-18.96529 -51.13016,-38.64313 -84.58028,-57.01035 -7.24186,-3.97645 -8.9992,-4.6346 -7.74262,-2.89974 28.90131,39.9018 44.53871,74.76653 50.19152,111.90571 1.8682,12.27414 2.34115,40.52555 0.97482,58.22944 -0.8382,10.86058 -1.27813,10.91817 -4.65249,0.60908 -7.42331,-22.67913 -24.17551,-48.22275 -42.20356,-64.35165 C 246.90429,176.83462 195.43125,165.12388 149.5,179.88882 l -6,1.92875 7.63953,0.0912 c 29.09769,0.34743 62.29113,15.49868 83.01958,37.89454 32.00989,34.58478 39.60872,86.33626 18.73188,127.57247 C 232.71457,387.22851 192.9456,410.10157 148,407.70367 104.29949,405.3722 66.860699,381.55212 56.793199,349.67421 c -1.537789,-4.86928 -1.876057,-8.31654 -1.600498,-16.31055 0.336625,-9.76552 0.522245,-10.48451 5.07387,-19.6533 5.733423,-11.54941 11.678054,-17.47555 20.227645,-20.16472 4.840371,-1.52249 6.255993,-1.59552 10.0946,-0.52077 8.327874,2.33166 12.625914,10.82852 10.561794,20.87978 -2.803032,13.64943 -13.729752,25.11647 -25.465814,26.72508 l -4.65327,0.6378 3.574067,6.80146 C 78.855651,356.15686 88.61112,367 91.637649,367 c 1.1515,0 5.361099,-1.63464 9.354661,-3.63254 9.0321,-4.51858 18.34907,-13.48651 23.34314,-22.46867 9.2113,-16.56711 10.09076,-39.36663 2.18465,-56.63586 -1.40189,-3.06211 -2.36741,-5.74896 -2.1456,-5.97076 0.2218,-0.22181 3.29671,2.49015 6.83312,6.02657 7.15564,7.15563 12.78874,17.33987 14.84448,26.83774 1.73226,8.00332 0.71041,23.70938 -2.05716,31.61905 -2.74461,7.84404 -10.31128,19.51588 -15.92035,24.55764 -2.34546,2.10825 -7.00632,5.60531 -10.35745,7.77126 -3.35114,2.16594 -6.26196,4.10705 -6.46848,4.31358 -0.49004,0.49004 14.80108,5.58199 16.76271,5.58199 2.1179,0 10.57059,-4.62843 16.48863,-9.02865 14.01883,-10.42338 26.02138,-26.32795 32.45122,-43.00109 5.40024,-14.00329 6.55711,-20.88774 6.46456,-38.47026 -0.0751,-14.27563 -0.36756,-16.93101 -2.71333,-24.63857 -3.36021,-11.04077 -6.63648,-18.41654 -11.30409,-25.44859 C 154.54832,222.04031 132.62355,209.85926 107,209.74531 97.804534,209.70441 95.354183,210.08655 87.27749,212.82103 51.280206,225.00846 29.428421,249.06792 21.721594,285 c -1.669099,7.78196 -2.04768,13.29778 -2.093383,30.5 -0.06037,22.72147 0.998745,33.17882 5.013316,49.5 13.372706,54.36654 56.322127,92.71173 131.088863,117.03597 23.36848,7.60259 37.78848,10.81675 59.76961,13.32239 6.77476,0.77226 24.69381,0.57534 35,-0.38463 z"
     id="path2989"
     style="fill:#ffffff" />
</svg>
