<?xml version="1.0" encoding="UTF-8" standalone="no"?>
<!-- Created with Inkscape (http://www.inkscape.org/) -->

<svg
   xmlns:dc="http://purl.org/dc/elements/1.1/"
   xmlns:cc="http://creativecommons.org/ns#"
   xmlns:rdf="http://www.w3.org/1999/02/22-rdf-syntax-ns#"
   xmlns:svg="http://www.w3.org/2000/svg"
   xmlns="http://www.w3.org/2000/svg"
   xmlns:sodipodi="http://sodipodi.sourceforge.net/DTD/sodipodi-0.dtd"
   xmlns:inkscape="http://www.inkscape.org/namespaces/inkscape"
   id="svg2"
   version="1.1"
   inkscape:version="0.48.3.1 r9886"
   width="400"
   height="400"
   sodipodi:docname="Icon.4_96.png">
  <metadata
     id="metadata8">
    <rdf:RDF>
      <cc:Work
         rdf:about="">
        <dc:format>image/svg+xml</dc:format>
        <dc:type
           rdf:resource="http://purl.org/dc/dcmitype/StillImage" />
        <dc:title></dc:title>
      </cc:Work>
    </rdf:RDF>
  </metadata>
  <defs
     id="defs6" />
  <sodipodi:namedview
     pagecolor="#ffffff"
     bordercolor="#666666"
     borderopacity="1"
     objecttolerance="10"
     gridtolerance="10"
     guidetolerance="10"
     inkscape:pageopacity="0"
     inkscape:pageshadow="2"
     inkscape:window-width="1855"
     inkscape:window-height="1056"
     id="namedview4"
     showgrid="false"
     inkscape:zoom="0.59"
     inkscape:cx="200"
     inkscape:cy="200"
     inkscape:window-x="65"
     inkscape:window-y="24"
     inkscape:window-maximized="1"
     inkscape:current-layer="svg2" />
  <path
     style="fill:#000000"
     d="m 0,0 400,0 0,400 -400,0 z"
     id="rect3022"
     inkscape:connector-curvature="0" />
  <path
     id="path2989"
     style="fill:#ffffff"
     d="m 214.79962,218.46672 c -1.94274,-4.23272 -2.25402,-6.44455 -2.10627,-14.96672 0.0953,-5.5 0.61467,-11.35 1.15405,-13 0.77539,-2.37197 0.99869,-2.55103 1.06665,-0.85534 0.17615,4.39533 4.16643,15.16636 7.13857,19.26929 3.39319,4.68416 3.43012,4.5123 -2.48207,11.55277 l -2.49128,2.96671 -2.27965,-4.96671 z m -22.72235,31.95432 C 189.50778,235.4469 181.45714,209.81053 175.8132,198.62995 l -3.02972,-6.00184 2.85826,1.8154 c 14.81639,9.41049 24.65411,32.54215 21.54669,50.66325 -0.66553,3.88102 -1.82058,8.22166 -2.5668,9.64586 -1.31008,2.50037 -1.39761,2.35136 -2.54436,-4.33158 z m -48.24783,120.93537 c 12.06113,-4.77992 23.30063,-14.01259 30.70685,-25.2241 3.37601,-5.1106 4.13268,-4.12669 2.41966,3.14631 -1.4898,6.32528 -4.98007,13.49663 -8.72863,17.93446 C 161.89377,374.71122 159.86735,374 187.56465,374 l 24.80953,0 -2.61995,-2.75 C 201.7309,362.82843 197,349.56597 197,335.49522 197,327.24401 198.85362,314 200.00846,314 c 0.39344,0 1.00429,2.82022 1.35744,6.26714 0.35315,3.44693 1.49548,9.18443 2.53852,12.75 5.3626,18.33179 14.07923,29.48779 29.31402,37.51764 6.48004,3.41545 7.0478,3.53089 16,3.25316 L 258.5,373.5 251,368.62197 c -9.87178,-6.42066 -24.3994,-21.22442 -29.56008,-30.12197 -9.12057,-15.72483 -11.8626,-26.35568 -11.86483,-46 -0.002,-17.02165 1.73282,-26.00968 8.09565,-41.94476 3.20738,-8.03255 5.12746,-10.87397 17.00112,-25.15895 l 13.38538,-16.10371 15.72138,4.3965 c 8.64676,2.41808 18.76509,5.24434 22.48519,6.28057 3.7201,1.03623 6.54591,1.53149 6.27959,1.10057 -0.26632,-0.43092 -6.34754,-4.48703 -13.51381,-9.01359 C 271.86331,207.53008 266,203.63696 266,203.40526 c 0,-0.23171 2.89657,-7.6457 6.43681,-16.47554 3.54025,-8.82985 6.04356,-15.91374 5.56292,-15.74199 -0.48065,0.17175 -5.65421,5.82477 -11.49679,12.56227 -5.84259,6.7375 -11.16644,12.25 -11.83078,12.25 -0.66434,0 -2.86348,-1.125 -4.88697,-2.5 -2.0235,-1.375 -4.04046,-2.50612 -4.48214,-2.5136 -0.44168,-0.007 -3.13129,2.58002 -5.97693,5.75 l -5.17387,5.7636 -2.1113,-4.72373 c -4.39814,-9.84022 -3.70674,-24.14604 2.08551,-43.15167 4.48748,-14.72439 7.37714,-20.52643 13.13568,-26.3746 2.84325,-2.8875 5.52834,-5.25 5.96688,-5.25 1.90816,0 29.71048,18.25075 30.15049,19.7922 0.26812,0.93929 2.3844,10.0328 4.70285,20.2078 2.31845,10.175 4.52632,18.85545 4.9064,19.2899 0.60786,0.69482 19.09332,6.0047 49.01124,14.07829 5.225,1.41001 8.7539,1.99715 7.842,1.30476 -0.9119,-0.69239 -11.3078,-6.62807 -23.10199,-13.1904 l -21.44399,-11.93151 -3.68204,-16.40815 c -2.02513,-9.02448 -3.55424,-16.49505 -3.39802,-16.60126 1.76219,-1.19804 18.87,-8.7672 19.11617,-8.45773 1.94559,2.44587 30.86793,33.9161 31.17018,33.9161 0.41121,0 -2.69757,-6.83091 -12.91998,-28.38906 -3.10065,-6.53898 -5.51262,-12.00208 -5.35994,-12.14022 2.05268,-1.8571 11.94521,-3.37149 26.02761,-3.98442 9.2125,-0.40097 16.74881,-1.01192 16.74735,-1.35767 -10e-4,-0.34575 -5.40146,-2.60187 -12,-5.01362 C 354.39881,111.70327 349,109.3468 349,108.87841 c 0,-0.46839 2.96676,-8.76588 6.59281,-18.438872 3.62605,-9.672987 6.41369,-17.766375 6.19475,-17.985308 -0.21893,-0.218932 -6.89819,7.639114 -14.84281,17.462323 L 332.5,107.77693 l -20.52904,9.53789 c -11.29098,5.24583 -20.99582,9.68352 -21.56633,9.86153 -0.5705,0.17801 -6.74616,-3.20592 -13.72368,-7.51983 l -12.68641,-7.84349 8.02062,-8.57263 c 4.41135,-4.714945 14.99988,-14.185572 23.53008,-21.045835 8.5302,-6.860264 15.33743,-12.64523 15.12718,-12.855481 -0.21025,-0.210251 -8.66006,2.469332 -18.77735,5.95463 -10.11729,3.485298 -19.20211,6.158257 -20.18849,5.939909 -1.51516,-0.335398 0.47261,-4.822766 12.81109,-28.920883 8.03249,-15.688137 14.46407,-28.664329 14.29242,-28.835981 -0.17165,-0.171652 -9.53664,11.167907 -20.81109,25.19902 -11.27445,14.031114 -20.79002,25.691893 -21.1457,25.912843 -0.35569,0.22095 -7.55569,-2.260828 -16,-5.515063 L 225.5,63.156769 225,41.828384 224.5,20.5 l -4.83118,18 c -2.65715,9.9 -5.87602,21.753692 -7.15304,26.341537 l -2.32187,8.341537 3.15304,1.286722 c 1.73418,0.707697 12.94055,5.008282 24.90305,9.556856 11.9625,4.548573 21.75,8.566684 21.75,8.929135 0,0.36245 -6.30559,7.236363 -14.01243,15.275363 -12.30527,12.83564 -14.65052,14.82852 -19.25,16.35773 -6.11962,2.03462 -11.79046,2.21717 -16.85023,0.54243 -2.73266,-0.90449 -4.0496,-2.16474 -5.40647,-5.17373 -0.9866,-2.18788 -1.6109,-4.15659 -1.38734,-4.3749 0.22356,-0.21832 6.70647,-5.42766 14.40647,-11.57631 7.7,-6.148659 14.13808,-11.554679 14.30684,-12.01338 0.16875,-0.458701 -6.80625,1.663056 -15.5,4.715016 -8.69376,3.051961 -16.70684,5.729084 -17.80684,5.949164 -1.7339,0.3469 -3.37584,-2.6152 -12.34084,-22.263147 -6.40908,-14.046316 -10.16461,-23.467583 -9.87735,-24.778653 0.25492,-1.163453 2.53106,-6.50287 5.05809,-11.86537 2.52703,-5.3625 4.34291,-9.75 4.0353,-9.75 -0.30761,0 -5.13037,3.285348 -10.71725,7.300774 -5.58687,4.015426 -10.68237,7.61845 -11.32333,8.006721 -0.64096,0.38827 -15.64654,-2.478999 -33.34573,-6.371709 -17.6992,-3.892709 -32.364956,-6.893053 -32.590579,-6.667431 -0.225622,0.225623 14.104959,6.448042 31.845729,13.827599 L 161.5,63.51333 l 4.13086,8.493335 c 2.27197,4.671334 3.84697,8.767917 3.5,9.103518 -0.34697,0.335601 -4.45586,1.362401 -9.13086,2.281779 -4.675,0.919377 -14.38214,2.938248 -21.57143,4.486378 L 125.35714,90.693123 113.45541,75.903057 C 106.90946,67.76852 101.39713,61.269536 101.2058,61.460871 c -0.28436,0.284352 7.92811,24.821371 10.26568,30.671581 0.54968,1.375674 -0.8379,1.913123 -8.82146,3.416793 L 93.176276,97.333586 72.838138,84.311878 C 61.652162,77.149938 51.825,70.922529 51,70.473191 c -1.853859,-1.00971 -1.348069,-0.369548 9.315185,11.789919 4.226648,4.819711 7.664184,9.094711 7.638969,9.5 C 67.928939,92.1684 61.639177,97.45 53.976907,103.5 c -7.662271,6.05 -13.600856,11.11359 -13.196855,11.25243 0.404,0.13884 8.831261,-2.6166 18.727247,-6.12321 L 77.5,102.25358 l 5.5,5.78686 5.5,5.78686 28.33071,-5.99961 c 15.58189,-3.29978 28.55888,-5.77143 28.83775,-5.49256 0.27887,0.27887 -0.008,7.11712 -0.63721,15.19612 -0.62934,8.079 -0.95925,14.87408 -0.73314,15.10019 0.22611,0.22611 3.68432,-7.13597 7.68493,-16.36017 4.0006,-9.2242 7.40726,-16.925 7.57035,-17.112893 0.34306,-0.395243 16.85288,-4.138095 16.98314,-3.850156 0.0477,0.105478 3.81585,8.291779 8.37363,18.191779 8.12915,17.65739 10.01644,23.96544 10.06973,33.65674 l 0.0201,3.65675 -15.15423,-5.93867 c -8.33483,-3.26627 -15.5643,-5.80198 -16.06549,-5.63491 -0.75508,0.25169 8.49398,8.56313 25.38917,22.81537 l 3.02913,2.55527 -2.8026,3.3307 c -1.54143,1.83188 -4.27165,3.94451 -6.06717,4.69472 -3.69274,1.54293 -13.30781,1.80403 -17.90294,0.48617 -1.68352,-0.48283 -15.18055,-8.87421 -29.9934,-18.64751 -14.81286,-9.7733 -27.40069,-17.77826 -27.97296,-17.7888 -0.57227,-0.0105 -5.16751,2.75584 -10.211641,6.1475 C 92.203737,146.225 87.889566,149 87.660823,149 c -0.228744,0 -3.007211,-5.8638 -6.174371,-13.03066 -3.16716,-7.16686 -5.952192,-12.83693 -6.188961,-12.60016 -0.236769,0.23676 0.04944,6.41551 0.63601,13.73055 1.54928,19.32071 1.562457,19.17609 -1.935553,21.24241 -1.651129,0.97535 -3.563629,1.43425 -4.25,1.01978 -0.686372,-0.41447 -11.32229,-8.38848 -23.635375,-17.72003 -12.313085,-9.33155 -22.213085,-16.47156 -22,-15.8667 0.213085,0.60487 10.191053,13.04773 22.173263,27.65081 l 21.785835,26.55105 19.44551,-12.98853 C 98.212212,159.84484 107.23602,154 107.57009,154 c 0.33408,0 5.62997,3.45166 11.76866,7.67035 6.13869,4.21869 11.27099,7.74094 11.40513,7.82721 0.13413,0.0863 -1.71785,6.87211 -4.11551,15.07965 L 122.26899,199.5 110.8845,204.25438 c -6.26148,2.61491 -14.214099,5.93531 -17.672499,7.37867 -3.458399,1.44336 -6.132127,2.78016 -5.941619,2.97067 0.847237,0.84723 46.096098,-2.57866 46.687018,-3.53479 0.35713,-0.57785 2.63959,-8.02976 5.07212,-16.55979 C 141.46206,185.97911 143.81829,179 144.26561,179 c 1.95136,0 11.12723,7.11384 13.29974,10.31099 4.03615,5.93972 11.28146,20.67497 15.33193,31.18149 8.02015,20.80352 11.47852,37.78295 11.50945,56.50752 0.0192,11.59494 -0.31891,14.5518 -2.39566,20.95345 -3.83529,11.82237 -12.10315,18.24419 -21.27589,16.52541 l -3.23518,-0.6062 0,9.8354 c 0,9.14913 -0.23715,10.32232 -3.39869,16.81367 -4.71889,9.68896 -17.646,22.45083 -28.34053,27.97827 -4.25657,2.2 -7.74407,4.3375 -7.75,4.75 -0.006,0.4125 4.29997,0.75 9.56866,0.75 8.00797,0 10.67373,-0.43367 16.25,-2.64359 z" />
</svg>
