<?xml version="1.0" encoding="UTF-8" standalone="no"?>
<!-- Created with Inkscape (http://www.inkscape.org/) -->

<svg
   xmlns:dc="http://purl.org/dc/elements/1.1/"
   xmlns:cc="http://creativecommons.org/ns#"
   xmlns:rdf="http://www.w3.org/1999/02/22-rdf-syntax-ns#"
   xmlns:svg="http://www.w3.org/2000/svg"
   xmlns="http://www.w3.org/2000/svg"
   xmlns:sodipodi="http://sodipodi.sourceforge.net/DTD/sodipodi-0.dtd"
   xmlns:inkscape="http://www.inkscape.org/namespaces/inkscape"
   id="svg2"
   version="1.1"
   inkscape:version="0.48.3.1 r9886"
   width="400"
   height="400"
   sodipodi:docname="Icon.6_64.png">
  <metadata
     id="metadata8">
    <rdf:RDF>
      <cc:Work
         rdf:about="">
        <dc:format>image/svg+xml</dc:format>
        <dc:type
           rdf:resource="http://purl.org/dc/dcmitype/StillImage" />
        <dc:title></dc:title>
      </cc:Work>
    </rdf:RDF>
  </metadata>
  <defs
     id="defs6" />
  <sodipodi:namedview
     pagecolor="#ffffff"
     bordercolor="#666666"
     borderopacity="1"
     objecttolerance="10"
     gridtolerance="10"
     guidetolerance="10"
     inkscape:pageopacity="0"
     inkscape:pageshadow="2"
     inkscape:window-width="1855"
     inkscape:window-height="1056"
     id="namedview4"
     showgrid="false"
     inkscape:zoom="0.59"
     inkscape:cx="200"
     inkscape:cy="200"
     inkscape:window-x="65"
     inkscape:window-y="24"
     inkscape:window-maximized="1"
     inkscape:current-layer="svg2" />
  <path
     style="fill:#000000"
     d="m 0,0 400,0 0,400 -400,0 z"
     id="rect3026" />
  <path
     id="path2989"
     style="fill:#ffffff"
     d="m 297.19831,136.3674 c 8.16528,-4.1315 11.34422,-16.35318 6.43325,-24.73312 -6.11777,-10.43919 -20.21772,-11.56434 -28.38273,-2.2649 -3.85403,4.3895 -4.64947,7.10927 -4.01386,13.72422 1.15788,12.0503 14.69915,18.9733 25.96334,13.2738 z M 351.5,183.2533 c 11.51561,-5.98248 17.08146,-19.41809 13.45439,-32.47804 -2.52541,-9.09324 -13.00064,-17.40849 -23.26508,-18.46788 -11.09974,-1.14559 -22.5685,5.72799 -27.29318,16.35765 l -2.29576,5.16503 -6.75025,0.72289 c -17.16359,1.83807 -40.77871,-1.65357 -58.1043,-8.59107 -4.13988,-1.65769 -7.6936,-2.84743 -7.89716,-2.64387 -0.47559,0.47558 9.40398,8.17079 17.15134,13.3592 31.84168,21.32438 79.4647,34.64684 95,26.57609 z M 116.28212,301.62888 C 126.38185,297.32544 130.74255,282.35473 128.99043,258 128.00225,244.26411 125.94158,233.88032 121.87909,222.16573 110.42476,189.13598 87.387313,159.7721 58,140.74445 50.49283,135.88372 35.968069,128 34.519953,128 c -0.291487,0 6.831292,7.3125 15.828397,16.25 23.966813,23.80804 38.794638,43.6729 51.69061,69.25 10.11375,20.05901 14.3151,35.24866 13.78318,49.832 l -0.32214,8.83201 -5.14445,0.27474 c -10.10097,0.53945 -16.848213,9.30421 -14.338235,18.62555 2.53857,9.42753 11.710945,14.20933 20.264805,10.56458 z M 166.5,345.12116 c 12.27697,-5.6318 16.94969,-19.78848 10.87098,-32.93524 -1.44596,-3.12725 -10.65438,-23.56921 -20.46316,-45.42656 C 140.61015,230.4425 134.81319,218.15115 136.50545,223.5 c 6.95233,21.97475 10.17593,53.45045 7.55569,73.77491 -0.7376,5.72129 -1.42613,7.38669 -4.42733,10.70866 -9.47393,10.48651 -7.71301,27.04973 3.71146,34.90998 4.95962,3.4123 6.44944,3.84529 13.65473,3.96849 3.39602,0.0581 7.03017,-0.6079 9.5,-1.74088 z M 313,373.60425 c 0,-0.21767 -2.3625,-1.89283 -5.25,-3.72258 C 300.812,365.4852 284.88536,353.82026 278,348.09227 247.06906,322.36056 223.96708,294.35361 206.573,261.5 l -4.76498,-9 4.84599,5.48806 c 30.26148,34.27094 52.13004,53.80597 83.34599,74.45239 18.06866,11.95072 29.24745,18.39685 45.07462,25.9918 15.68845,7.52838 36.22796,15.66517 37.16865,14.72448 0.42689,-0.42689 0.65929,-22.57429 0.51645,-49.21645 L 372.5,275.5 l -16,-5.58419 c -36.80994,-12.8471 -65.52252,-27.12936 -92.87684,-46.19897 -16.2482,-11.32716 -33.68286,-26.4589 -43.90377,-38.10457 l -6.21939,-7.08636 6.5,5.04991 c 13.78286,10.70805 35.36275,24.08978 53.57221,33.22022 24.89766,12.48398 60.2159,25.02333 85.09824,30.21319 5.04375,1.052 10.33125,2.20408 11.75,2.56016 l 2.57955,0.64743 0,-18.97758 0,-18.97758 -9.25,-1.1747 C 312.32548,204.55635 256.23893,180.67534 208.448,144.96114 190.16818,131.30061 177.72152,119.78314 154.37677,94.926489 123.4373,61.983255 108.14586,47.80436 88.818916,34.138358 L 80.137831,28 55.818916,28.055556 31.5,28.111111 34.392631,30.305556 C 57.09417,47.527682 87.489018,76.552629 102.14049,95 c 21.41856,26.96769 36.99762,53.59563 47.09766,80.5 6.79917,18.11153 6.54353,19.20789 -1.29122,5.53766 C 123.27179,137.98398 88.055408,98.449436 54,75.571165 45.589598,69.921094 31.367547,62 29.633442,62 29.285049,62 29,67.81689 29,74.926423 l 0,12.926423 11.305191,7.967245 C 63.513051,112.17565 83.6556,129.93833 99.342951,147.88246 120.22135,171.76442 128.96694,185.14809 156.27005,235 c 20.83882,38.04893 30.39877,53.23148 45.71191,72.59692 14.73155,18.62993 38.70501,42.5341 58.51804,58.34891 l 10,7.98202 21.25,0.0361 c 11.6875,0.0199 21.25,-0.14201 21.25,-0.35967 z" />
</svg>
