<?xml version="1.0" encoding="UTF-8" standalone="no"?>
<!-- Created with Inkscape (http://www.inkscape.org/) -->

<svg
   xmlns:dc="http://purl.org/dc/elements/1.1/"
   xmlns:cc="http://creativecommons.org/ns#"
   xmlns:rdf="http://www.w3.org/1999/02/22-rdf-syntax-ns#"
   xmlns:svg="http://www.w3.org/2000/svg"
   xmlns="http://www.w3.org/2000/svg"
   version="1.1"
   width="512"
   height="512"
   id="svg2">
  <metadata
     id="metadata8">
    <rdf:RDF>
      <cc:Work
         rdf:about="">
        <dc:format>image/svg+xml</dc:format>
        <dc:type
           rdf:resource="http://purl.org/dc/dcmitype/StillImage" />
        <dc:title></dc:title>
      </cc:Work>
    </rdf:RDF>
  </metadata>
  <defs
     id="defs6" />
  <rect
     width="512"
     height="512"
     x="0"
     y="0"
     id="rect2996"
     style="fill:#000000;fill-opacity:1;stroke:none" />
  <path
     d="m 287.62372,415.0977 c -1.86349,-0.47643 -0.77786,-2.19822 5.76,-9.13528 18.0022,-19.10144 28.55833,-40.92058 35.75524,-73.90478 3.78045,-17.32625 4.10926,-58.42935 0.6289,-78.61763 -2.21096,-12.82497 -7.45628,-35.50239 -9.35813,-40.45852 -1.47184,-3.83552 14.19714,9.12339 30.34731,25.09852 35.32718,34.94432 53.72296,70.12027 53.72296,102.72776 0,45.34455 -35.66314,70.91217 -103.68,74.33024 -5.984,0.30072 -11.91333,0.28257 -13.17628,-0.0403 z m -43.93722,21.57942 c 10.82312,-3.28343 23.19263,-8.99254 30.7518,-14.19337 l 5.69062,-3.91525 13.21554,3.11664 c 33.64104,7.93366 65.89699,11.58171 93.83734,10.61272 27.78361,-0.96356 44.31092,-5.14089 60.39275,-15.26448 14.77184,-9.29894 23.2189,-22.3653 26.18205,-40.49983 1.82003,-11.13854 0.2401,-24.20358 -4.89653,-40.49132 C 457.0389,298.55837 422.59836,255.14134 376.32,219.38271 358.77267,205.82412 325.44104,184.89648 311.68,178.79774 307.38671,176.895 305.73329,174.95022 301.44,166.75326 279.69943,125.24515 253.51176,91.472008 220.8,62.755274 206.5002,50.201883 183.02743,32.00001 181.13862,32.00001 c -0.56999,0 6.39506,7.632 15.47789,16.96 25.59473,26.285567 41.94112,48.647189 56.56085,77.3744 7.71489,15.15947 14.69684,31.17806 13.9256,31.94931 -0.22704,0.22704 -7.28208,-1.89766 -15.67788,-4.72156 -56.0579,-18.8549 -119.4099,-25.94705 -176.261483,-19.73219 -30.768972,3.36359 -29.734017,3.85931 8.036403,3.84923 27.78163,-0.008 40.44768,0.52935 53.12,2.25111 47.74495,6.48701 89.14392,18.48387 123.84796,35.88948 l 15.67204,7.86022 1.57565,7.04 c 13.77353,61.53977 4.6093,119.63072 -25.21552,159.83798 -42.93349,57.87924 -118.2638,63.98268 -199.188418,16.13874 -5.411144,-3.19916 -10.072852,-5.58225 -10.359351,-5.29575 -0.764419,0.76442 26.447987,22.08024 40.547639,31.76148 32.67356,22.43462 66.06033,37.6956 97.28,44.46636 16.65684,3.61246 49.80707,3.11332 63.2065,-0.9517 z"
     id="path2987"
     style="fill:#ffffff" />
</svg>
