<?xml version="1.0" encoding="UTF-8" standalone="no"?>
<!-- Created with Inkscape (http://www.inkscape.org/) -->

<svg
   xmlns:dc="http://purl.org/dc/elements/1.1/"
   xmlns:cc="http://creativecommons.org/ns#"
   xmlns:rdf="http://www.w3.org/1999/02/22-rdf-syntax-ns#"
   xmlns:svg="http://www.w3.org/2000/svg"
   xmlns="http://www.w3.org/2000/svg"
   xmlns:sodipodi="http://sodipodi.sourceforge.net/DTD/sodipodi-0.dtd"
   xmlns:inkscape="http://www.inkscape.org/namespaces/inkscape"
   id="svg2"
   version="1.1"
   inkscape:version="0.48.3.1 r9886"
   width="400"
   height="400"
   sodipodi:docname="Icon.3_42.png">
  <metadata
     id="metadata8">
    <rdf:RDF>
      <cc:Work
         rdf:about="">
        <dc:format>image/svg+xml</dc:format>
        <dc:type
           rdf:resource="http://purl.org/dc/dcmitype/StillImage" />
        <dc:title></dc:title>
      </cc:Work>
    </rdf:RDF>
  </metadata>
  <defs
     id="defs6" />
  <sodipodi:namedview
     pagecolor="#ffffff"
     bordercolor="#666666"
     borderopacity="1"
     objecttolerance="10"
     gridtolerance="10"
     guidetolerance="10"
     inkscape:pageopacity="0"
     inkscape:pageshadow="2"
     inkscape:window-width="1216"
     inkscape:window-height="1000"
     id="namedview4"
     showgrid="false"
     inkscape:zoom="1.18"
     inkscape:cx="227.98781"
     inkscape:cy="234.84127"
     inkscape:window-x="64"
     inkscape:window-y="24"
     inkscape:window-maximized="1"
     inkscape:current-layer="svg2" />
  <rect
     style="fill:#000000;fill-opacity:1;stroke:none"
     id="rect3035"
     width="400"
     height="400"
     x="0"
     y="-7.6293945e-06" />
  <path
     id="path3026"
     style="fill:#ffffff"
     d="m 216.25121,362.09928 c 42.52548,-25.35943 72.57709,-54.82885 95.09404,-93.25176 27.89287,-47.59639 42.74906,-112.8878 43.05504,-189.222496 L 354.5,54.750047 341.81455,50.948081 C 316.68081,43.415223 285.79245,37.125176 256,33.472966 237.94211,31.259277 188.40457,30.378903 168,31.909042 132.2522,34.589769 90.224004,42.555712 56.609339,53.02181 l -6.890662,2.145442 0.683601,23.166374 C 52.686258,155.73489 62.30663,205.46419 83.805416,251 c 17.978914,38.08049 46.538364,71.63713 82.183594,96.56367 8.64627,6.0463 34.89692,22.23702 36.2622,22.36559 0.41317,0.0389 6.71317,-3.48458 14,-7.82998 z M 191.84144,349.09999 C 158.22583,328.79761 131.82321,304.30539 112.50063,275.5 85.806665,235.70561 71.175836,188.21473 65.520896,123.00631 63.816787,103.35583 62.404518,64 63.403477,64 63.790925,64 70.721144,62.243562 78.803964,60.096805 163.66801,37.557331 246.70394,37.894226 330.75,61.119005 l 11.25,3.108757 -0.01,14.636119 c -0.0113,16.73265 -1.30105,37.569309 -3.5366,57.136119 -10.68113,93.48738 -44.47009,156.77903 -107.61302,201.57486 -9.70401,6.88437 -27.01247,17.44986 -28.49137,17.39181 -0.46702,-0.0183 -5.19547,-2.65834 -10.50768,-5.86668 z m 33.42177,-75.37501 19.45493,-11.27502 -10.8984,-18.85231 c -5.99412,-10.36878 -10.7682,-18.94089 -10.60907,-19.04915 3.99251,-2.71604 11.20655,-6.57472 11.87042,-6.3493 0.48725,0.16544 5.57857,8.4008 11.31405,18.3008 6.4471,11.12834 10.93906,17.877 11.7665,17.67781 0.7361,-0.1772 9.76066,-5.1272 20.05458,-11 L 296.93244,232.5 296.96622,209.25 297,186 l -21.85294,0 -21.85294,0 0,-7 0,-7 21.85294,0 L 297,172 296.9815,148.75 296.963,125.5 277.3879,114.24881 c -10.76631,-6.18816 -19.9142,-11.04162 -20.32866,-10.78547 -0.41446,0.25615 -5.09629,8.01919 -10.40405,17.25119 -5.30777,9.23201 -10.03961,17.38678 -10.5152,18.12172 -0.68489,1.05836 -2.08912,0.6579 -6.75239,-1.92567 -3.23823,-1.79406 -6.03247,-3.36516 -6.20944,-3.49134 -0.17696,-0.12618 4.59385,-8.73387 10.6018,-19.12819 L 244.70358,95.392271 225.46231,84.232975 C 214.87961,78.095363 205.82361,72.944602 205.33786,72.78684 204.57717,72.539784 165,94.820721 165,95.496025 c 0,0.136303 4.725,8.378655 10.5,18.316335 5.775,9.93768 10.5,18.51151 10.5,19.05296 0,1.38765 -11.22769,7.31347 -12.11202,6.39256 -0.40027,-0.41684 -5.28859,-8.62016 -10.86294,-18.22961 -5.57434,-9.60945 -10.31432,-17.65088 -10.53328,-17.86984 -0.21896,-0.21896 -9.19418,4.69339 -19.94493,10.91633 L 113,125.38919 l 0,23.30541 0,23.3054 21.5,0 21.5,0 0,7 0,7 -21.5,0 -21.5,0 0.0111,23.25 0.0111,23.25 19.61707,11.3516 c 15.16574,8.77581 19.81197,11.04491 20.47603,10 0.47243,-0.74338 5.45528,-9.32692 11.07298,-19.07453 8.98257,-15.58619 10.40074,-17.55928 11.76284,-16.36557 0.85186,0.74655 3.64663,2.42187 6.21061,3.72293 l 4.66179,2.36557 -10.93279,18.89566 c -6.01304,10.39261 -10.81084,19.01331 -10.66179,19.15709 1.2271,1.18375 38.5368,22.40274 39.42515,22.4221 0.63478,0.0138 9.90887,-5.04861 20.60907,-11.24987 z M 195.27118,213.4601 C 185.48407,210.82415 176.94877,203.62192 172.2092,194 169.87169,189.25458 169.5,187.26524 169.5,179.5 c 0,-13.82255 4.28617,-22.43307 14.93582,-30.00469 17.23143,-12.2511 42.7135,-5.86903 52.35565,13.11265 10.32054,20.31716 -0.86138,45.06623 -23.02748,50.96699 -6.52897,1.73806 -11.73311,1.70574 -18.49281,-0.11485 z" />
</svg>
