<?xml version="1.0" encoding="UTF-8" standalone="no"?>
<!-- Created with Inkscape (http://www.inkscape.org/) -->

<svg
   xmlns:dc="http://purl.org/dc/elements/1.1/"
   xmlns:cc="http://creativecommons.org/ns#"
   xmlns:rdf="http://www.w3.org/1999/02/22-rdf-syntax-ns#"
   xmlns:svg="http://www.w3.org/2000/svg"
   xmlns="http://www.w3.org/2000/svg"
   version="1.1"
   width="512"
   height="512"
   id="svg2">
  <metadata
     id="metadata8">
    <rdf:RDF>
      <cc:Work
         rdf:about="">
        <dc:format>image/svg+xml</dc:format>
        <dc:type
           rdf:resource="http://purl.org/dc/dcmitype/StillImage" />
        <dc:title></dc:title>
      </cc:Work>
    </rdf:RDF>
  </metadata>
  <defs
     id="defs6" />
  <rect
     width="512"
     height="512"
     x="0"
     y="0"
     id="rect3912"
     style="fill:#000000;fill-opacity:1;stroke:none" />
  <path
     d="m 252.46323,420.47999 c -0.73748,-3.52 -3.23466,-16.336 -5.54927,-28.48 -2.53937,-13.3232 -4.79127,-22.08 -5.67809,-22.08 -0.80834,0 -10.59189,3.75773 -21.74121,8.35053 -11.14934,4.59278 -20.7498,8.19109 -21.33435,7.99623 -0.58457,-0.19485 8.06597,-9.46971 19.2234,-20.61079 l 20.28624,-20.25652 -2.80434,-14.73305 c -1.94059,-10.19523 -2.37025,-14.87831 -1.39498,-15.20463 0.77516,-0.25937 3.31651,-0.93677 5.64745,-1.50534 2.33094,-0.56859 4.26369,-1.4724 4.295,-2.00846 0.20163,-3.45239 -5.98452,-24.2783 -7.36951,-24.80977 -0.9339,-0.35836 -3.59375,-0.0663 -5.91078,0.64902 -2.31703,0.71533 -7.58271,2.24077 -11.70152,3.38987 l -7.48872,2.08926 0.92566,4.72683 c 0.50911,2.59975 0.99904,5.51458 1.08872,6.4774 0.10457,1.12235 -4.64037,3.41908 -13.22207,6.4 l -13.38515,4.64942 -7.65057,27.89968 c -4.20781,15.34482 -8.0361,27.15282 -8.50729,26.24 -0.47121,-0.91283 -2.16658,-11.59568 -3.7675,-23.73968 -1.60093,-12.144 -3.34583,-22.08 -3.87757,-22.08 -0.53173,0 -12.91048,4.0598 -27.50834,9.02178 -14.59785,4.96197 -26.74372,8.8196 -26.99083,8.5725 -0.24711,-0.24712 8.72007,-8.38893 19.92706,-18.09293 11.207,-9.704 20.96495,-18.35286 21.68434,-19.21968 0.97355,-1.17305 -3.75752,-5.45172 -18.50355,-16.73414 -10.89635,-8.33696 -19.62402,-15.34564 -19.39482,-15.57483 0.2292,-0.22921 13.26651,3.04055 28.97179,7.26611 23.57181,6.34209 28.91739,7.40334 30.63132,6.08116 1.14194,-0.88092 6.275,-5.30125 11.40678,-9.82294 l 9.33054,-8.22126 4.15567,4.02784 4.15569,4.02784 9.52175,-9.58572 9.52174,-9.58573 -9.52174,-9.58573 -9.52175,-9.58573 -3.94715,3.82573 c -2.17093,2.10415 -4.49573,3.82482 -5.16622,3.82372 -0.67048,-0.001 -5.82706,-4.01918 -11.45906,-8.92904 -5.632,-4.90987 -10.77921,-8.94096 -11.43826,-8.95799 -0.65905,-0.017 -13.26189,3.1582 -28.00632,7.05605 -14.74443,3.89786 -27.03001,6.86506 -27.30129,6.59378 -0.27128,-0.27128 7.87918,-7.02556 18.11215,-15.00951 10.23296,-7.98395 18.44976,-14.93682 18.25955,-15.45081 -0.19021,-0.514 -9.99383,-9.37279 -21.78583,-19.68618 -11.792,-10.31341 -21.44,-18.9664 -21.44,-19.22888 0,-0.26247 12.46552,3.82392 27.70116,9.08087 15.23563,5.25695 27.82785,9.3996 27.98271,9.2059 0.15485,-0.1937 1.55431,-10.43218 3.10992,-22.75218 1.55561,-12.32 3.2328,-23.45143 3.72707,-24.73651 0.58473,-1.52028 3.61337,7.84641 8.66971,26.81277 l 7.77103,29.14929 13.95919,4.70798 c 7.67757,2.58939 13.86586,5.21165 13.75176,5.82723 -0.11405,0.61559 -0.59584,3.20272 -1.07055,5.74919 l -0.86309,4.62994 10.03054,2.69732 c 17.18411,4.62096 15.70855,5.34095 19.72665,-9.6255 l 3.49776,-13.02827 -4.70312,-0.79459 c -7.9098,-1.33636 -7.88375,-1.24411 -4.70729,-16.669 l 2.89946,-14.07985 -20.56087,-20.75391 c -11.3085,-11.41465 -20.30015,-21.00814 -19.98147,-21.31887 0.31869,-0.31073 10.30728,3.41253 22.19688,8.27391 11.8896,4.86137 21.9696,8.83783 22.4,8.83657 0.4304,-10e-4 3.31547,-13.08663 6.41123,-29.07859 3.59924,-18.592645 5.95765,-28.168197 6.54105,-26.557701 0.5018,1.385225 3.09142,14.038591 5.75471,28.118591 2.66328,14.08 5.19182,25.9984 5.61896,26.48533 0.42712,0.48693 11.0006,-3.32926 23.4966,-8.48041 12.496,-5.15117 22.72,-9.01192 22.72,-8.57946 0,0.43246 -9.33183,10.13099 -20.73741,21.55231 l -20.73741,20.766 2.25643,11.88812 c 1.24102,6.53847 2.56153,13.14521 2.93446,14.68166 0.58111,2.3941 -0.11648,3.02194 -4.879,4.39082 -3.05639,0.87852 -5.71045,1.6948 -5.89793,1.81399 -0.37645,0.23932 6.14469,25.31528 6.75416,25.97206 0.20947,0.22571 6.22237,-1.15936 13.36201,-3.07795 l 12.98114,-3.48838 -0.88211,-3.96204 c -0.48517,-2.17913 -0.94337,-4.76369 -1.01822,-5.74346 -0.0891,-1.16589 4.68688,-3.40041 13.82199,-6.46687 10.12546,-3.3989 14.21612,-5.38296 14.89783,-7.22575 0.51685,-1.39719 3.96757,-14.0391 7.6683,-28.09315 3.70071,-14.05405 7.11559,-25.99493 7.58863,-26.53528 0.47302,-0.54036 2.16728,9.25164 3.76503,21.76 1.59774,12.50835 3.17391,23.72609 3.50261,24.9283 0.52241,1.91075 4.05244,0.9938 28.04856,-7.2859 15.09801,-5.20946 27.41142,-9.07309 27.36311,-8.58584 -0.0483,0.48724 -9.80078,9.2379 -21.67218,19.4459 -11.8714,10.208 -21.59523,18.848 -21.60851,19.2 -0.0133,0.352 8.54706,7.25615 19.02295,15.34256 10.4759,8.08642 18.86047,14.88919 18.63237,15.11729 -0.2281,0.22811 -12.5019,-2.78804 -27.27511,-6.70255 -14.77321,-3.91452 -27.55583,-7.1173 -28.40582,-7.1173 -0.84999,0 -6.49362,4.3377 -12.54139,9.63935 l -10.99595,9.63936 -4.90858,-4.79311 -4.90858,-4.7931 -9.58755,9.52356 -9.58754,9.52356 9.87666,9.93494 9.87666,9.93492 4.15276,-4.02502 4.15277,-4.02501 7.27178,6.28027 c 3.99948,3.45415 9.22042,7.91722 11.6021,9.91792 l 4.33033,3.63766 27.17032,-7.22915 c 14.94368,-3.97603 27.92024,-7.47837 28.83681,-7.78298 3.63853,-1.20925 -0.67161,2.54077 -18.98067,16.51395 l -19.11448,14.58787 21.7723,18.89288 c 11.97477,10.39108 21.55232,19.11284 21.28345,19.38171 -0.26886,0.26887 -12.48912,-3.55863 -27.15612,-8.50555 -16.73019,-5.64281 -26.97098,-8.50302 -27.48229,-7.6757 -0.44825,0.7253 -2.14538,11.42479 -3.77138,23.77665 -1.62601,12.35186 -3.39908,21.98703 -3.94014,21.41148 -0.54109,-0.57555 -4.26805,-13.1834 -8.28214,-28.01743 l -7.29836,-26.97097 -12.34832,-4.07784 c -16.69664,-5.51382 -16.36592,-5.24385 -14.41237,-11.76423 0.88081,-2.93987 1.33084,-5.61585 1.00007,-5.94663 -0.74137,-0.74137 -22.70235,-6.82936 -24.63529,-6.82936 -1.44012,0 -8.49392,24.12244 -7.51634,25.7042 0.30103,0.48707 2.54948,1.2612 4.99657,1.72027 2.44707,0.45907 4.70892,1.25489 5.02634,1.76848 0.31741,0.51357 -0.50368,6.10726 -1.82464,12.43041 -1.32097,6.32315 -2.42446,12.94338 -2.45221,14.71164 -0.0389,2.47745 4.63731,7.89591 20.38368,23.6192 11.23877,11.22231 20.22415,20.61418 19.9675,20.87082 -0.25664,0.25664 -10.38696,-3.64824 -22.5118,-8.67753 -12.12485,-5.02928 -22.47637,-8.66791 -23.00339,-8.08582 -0.52703,0.58208 -3.08114,12.29033 -5.67581,26.01833 -5.80576,30.71735 -6.31894,32.21624 -8.10741,23.68 z m 28.25159,19.73774 c 41.23937,-6.19258 77.462,-24.37717 106.25003,-53.33998 62.36507,-62.74368 72.01269,-159.95657 23.21452,-233.91776 C 346.41919,56.321553 209.37902,41.142477 126.25567,121.51155 94.996847,151.73462 76.556721,187.98601 70.323052,231.46933 c -1.968794,13.73344 -0.844678,48.70186 1.981861,61.65066 16.743521,76.70457 75.883617,133.36976 152.975087,146.57334 12.02548,2.05962 43.2443,2.35494 55.43482,0.5244 z M 241.28,459.94842 C 200.49624,457.46232 159.27526,441.3166 126.70497,415.07085 86.399265,382.59176 60.37653,336.97897 52.383619,284.79999 c -2.0818,-13.59031 -2.095876,-44.67521 -0.02638,-58.24 6.768215,-44.36305 26.595456,-83.78611 57.866051,-115.05671 39.05191,-39.051911 90.20572,-60.367569 144.66098,-60.279841 78.94099,0.127181 148.57092,43.834559 184.50657,115.816551 20.51893,41.10111 25.60387,95.89719 13.18467,142.08 -13.3474,49.63449 -47.62962,95.17682 -91.53226,121.59632 -27.55557,16.58224 -56.29094,25.91655 -88.58203,28.7747 -14.0605,1.24453 -17.45244,1.2943 -31.18122,0.45741 z m 48,14.29892 c 46.96484,-7.35707 88.36236,-28.55197 122.30289,-62.61721 40.62199,-40.77124 62.04874,-90.39369 64.16053,-148.59014 C 478.90079,176.03052 431.27309,96.53685 352.36004,57.105202 286.91319,24.402412 202.57958,28.036608 140.81129,66.221495 95.604864,94.167908 62.395795,135.3973 45.686417,184.31999 9.3243928,290.78284 58.799013,407.60192 160.64,455.74751 c 39.86456,18.84608 84.99676,25.33657 128.64,18.49983 z"
     id="path3891"
     style="fill:#ffffff;fill-opacity:1" />
</svg>
