<?xml version="1.0" encoding="UTF-8" standalone="no"?>
<!-- Created with Inkscape (http://www.inkscape.org/) -->

<svg
   xmlns:dc="http://purl.org/dc/elements/1.1/"
   xmlns:cc="http://creativecommons.org/ns#"
   xmlns:rdf="http://www.w3.org/1999/02/22-rdf-syntax-ns#"
   xmlns:svg="http://www.w3.org/2000/svg"
   xmlns="http://www.w3.org/2000/svg"
   version="1.1"
   width="512"
   height="512"
   id="svg2">
  <metadata
     id="metadata8">
    <rdf:RDF>
      <cc:Work
         rdf:about="">
        <dc:format>image/svg+xml</dc:format>
        <dc:type
           rdf:resource="http://purl.org/dc/dcmitype/StillImage" />
        <dc:title></dc:title>
      </cc:Work>
    </rdf:RDF>
  </metadata>
  <defs
     id="defs6" />
  <rect
     width="512"
     height="512"
     x="0"
     y="0"
     id="rect3030"
     style="fill:#000000;fill-opacity:1;stroke:none" />
  <path
     d="m 144.25262,108.78273 1.98645,-59.244294 3.99171,-7.489219 3.99171,-7.489217 23.69188,0 23.69188,0 -0.72813,14.784243 -0.72812,14.784242 -15.00389,27.775758 c -35.50761,65.733047 -41.82699,77.175717 -42.3388,76.663907 -0.29763,-0.29762 0.35275,-27.20107 1.44531,-59.78542 z m 150.61467,84.0138 31.15853,-50.5931 42.88,-26.42519 c 23.584,-14.53386 46.48,-28.68255 50.88,-31.441533 4.4,-2.758984 8,-4.572813 8,-4.030731 0,0.542084 -13.968,23.658324 -31.04,51.369424 l -31.04,50.38383 -50.54756,31.11616 c -27.80115,17.11389 -50.75049,30.91322 -50.99853,30.6652 -0.24802,-0.24804 13.57038,-23.21786 30.70756,-51.04406 z m 41.06312,162.31222 c 0.40219,-0.40219 23.68219,-13.17551 51.73333,-28.38515 l 51.00208,-27.6539 16.96,-0.54043 16.96,-0.54044 -0.0138,22.84559 -0.0138,22.84558 -9.2662,4.82294 -9.26619,4.82292 -35.84,1.05817 c -45.35338,1.33902 -83.2032,1.67249 -82.25542,0.72472 z m -118.91409,92.11071 c -46.34877,-10.9893 -84.69932,-20.37492 -85.22344,-20.85694 -0.52411,-0.48201 30.45292,-8.31529 68.83784,-17.40729 38.38492,-9.092 70.39049,-16.90156 71.12348,-17.35458 0.8952,-0.55325 0.64178,-3.3018 -0.7719,-8.37216 -2.33468,-8.3736 -7.21823,-23.98549 -7.67998,-24.55168 -0.23433,-0.28731 -132.90977,38.95596 -140.08473,41.43482 -3.03605,1.04891 0.5964,-2.51315 53.32006,-52.28682 l 50.19183,-47.38349 -2.6195,-3.34066 c -3.58535,-4.57242 -21.82389,-20.77714 -22.88904,-20.33664 -0.47343,0.19579 -23.27401,24.09865 -50.66795,53.11746 -27.39395,29.01881 -49.97923,52.26265 -50.18952,51.65296 -0.21029,-0.60968 8.6126,-31.1796 19.60641,-67.93316 10.99382,-36.75355 19.71998,-67.52509 19.39146,-68.3812 -0.65821,-1.71526 -24.91807,-7.62935 -28.44764,-6.93499 -1.8054,0.35518 -5.21294,13.07222 -18.586531,69.3655 -9.00672,37.91182 -16.663232,69.21795 -17.014477,69.5692 -0.351232,0.35124 -1.22574,-1.57952 -1.943334,-4.29059 C 69.245544,357.34943 34.603636,210.13055 34.560065,208 34.502593,205.19284 72.658817,43.16635 74.344283,39.060161 75.462388,36.336196 75.853044,37.871635 100.28357,141.01103 l 13.23885,55.89104 7.0517,0.83065 c 3.87844,0.45686 13.6048,2.56741 21.61416,4.69011 l 14.56245,3.85945 4.81288,-4.69965 c 2.64709,-2.58482 28.06198,-29.35141 56.47754,-59.48132 28.41557,-30.12992 51.81299,-54.399587 51.99429,-53.932606 0.1813,0.466982 -9.97013,35.350306 -22.55873,77.518506 l -22.88836,76.66945 6.54587,5.17421 c 3.60023,2.84582 11.60723,10.23557 17.79333,16.42167 6.1861,6.18611 11.78693,11.24746 12.4463,11.24746 0.65935,0 35.87686,-10.36692 78.26112,-23.03762 42.38426,-12.67068 77.25642,-22.84348 77.4937,-22.60621 0.3768,0.37682 -92.61214,88.77242 -110.1551,104.71379 l -6.54775,5.94998 3.73895,10.69002 c 2.05643,5.87953 5.25223,16.70468 7.10179,24.0559 l 3.36284,13.36586 78.29572,18.56996 c 43.06264,10.21349 77.99602,18.88685 77.62975,19.27414 -0.5035,0.53238 -164.20054,40.28623 -168.41855,40.90047 -0.46723,0.0681 -38.77123,-8.86753 -85.12,-19.85683 z"
     id="path2989"
     style="fill:#ffffff" />
</svg>
