<?xml version="1.0" encoding="UTF-8" standalone="no"?>
<!-- Created with Inkscape (http://www.inkscape.org/) -->

<svg
   xmlns:dc="http://purl.org/dc/elements/1.1/"
   xmlns:cc="http://creativecommons.org/ns#"
   xmlns:rdf="http://www.w3.org/1999/02/22-rdf-syntax-ns#"
   xmlns:svg="http://www.w3.org/2000/svg"
   xmlns="http://www.w3.org/2000/svg"
   version="1.1"
   width="512"
   height="512"
   id="svg2">
  <metadata
     id="metadata8">
    <rdf:RDF>
      <cc:Work
         rdf:about="">
        <dc:format>image/svg+xml</dc:format>
        <dc:type
           rdf:resource="http://purl.org/dc/dcmitype/StillImage" />
        <dc:title></dc:title>
      </cc:Work>
    </rdf:RDF>
  </metadata>
  <defs
     id="defs6" />
  <path
     d="M 0,256 0,0 l 256,0 256,0 0,256 0,256 -256,0 -256,0 0,-256 z"
     id="path3028"
     style="fill:#000000" />
  <path
     d="M 244.18078,418.75 C 209.93443,381.07802 189.62561,352.26745 169.98913,313.5 147.94617,269.98154 134.96643,224.13939 131.44866,177.38182 l -0.686,-9.11819 7.36867,1.39528 c 10.9063,2.06513 45.02396,6.08995 63.86867,7.5345 21.53883,1.65107 90.49086,1.63432 112,-0.0272 17.57267,-1.35745 52.94558,-5.43902 61.88649,-7.1409 10.10753,-1.92395 9.51024,-2.62287 8.73783,10.22469 -3.94851,65.67515 -34.36892,140.69594 -82.01097,202.25 -13.58004,17.54557 -42.69341,50.5 -44.61388,50.5 -0.47547,0 -6.69388,-6.4125 -13.81869,-14.25 z m 23.47102,67.40247 C 286.30084,471.72017 303.20738,455.08827 317.61593,437 323.99341,428.9938 331,419.31218 331,418.50604 c 0,-0.26913 -4.95,-2.97185 -11,-6.00604 -6.05,-3.03419 -11,-5.74084 -11,-6.01478 0,-0.27394 3.74606,-5.33268 8.32459,-11.24165 13.1896,-17.02227 35.0503,-49.86825 36.91694,-55.46815 0.26319,-0.78959 2.45479,0.57343 5.83988,3.632 16.71893,15.1062 40.31434,17.30876 64.72643,6.04201 C 432.37477,345.95711 446,337.39086 446,336.12581 c 0,-0.39633 -2.94852,-0.53285 -6.55226,-0.30338 -20.35253,1.29595 -39.87631,-10.25685 -48.70876,-28.82243 -1.96244,-4.125 -3.98919,-9.075 -4.50389,-11 l -0.93582,-3.5 13.60037,-0.0639 c 16.28405,-0.0765 22.34845,-1.47202 36.60036,-8.42253 16.24155,-7.92084 29.59696,-19.92311 41.18655,-37.0136 7.09491,-10.46246 15.4986,-30.31745 18.70337,-44.18958 l 1.39918,-6.05646 -8.14455,7.982 c -10.35932,10.15255 -15.66643,14.07402 -25.91115,19.14598 -15.18769,7.51911 -32.16485,10.39899 -48.0283,8.14717 -4.78781,-0.67963 -8.68564,-1.52671 -8.66186,-1.8824 0.0238,-0.35569 3.92264,-2.89671 8.66411,-5.64671 37.03891,-21.48212 63.82217,-59.98469 71.99695,-103.5 2.12504,-11.31185 2.40643,-38.628123 0.50991,-49.5 -1.71331,-9.821635 -5.45976,-24.5 -6.25328,-24.5 -0.36525,0 -1.48589,3.035981 -2.49032,6.746625 -7.14455,26.394114 -24.124,53.386015 -45.14177,71.761025 C 425.88762,132.01321 409.3324,144 407.78864,144 c -0.26869,0 0.65097,-3.7125 2.04369,-8.25 2.29466,-7.47606 2.53851,-9.9386 2.59928,-26.25 0.0595,-15.957488 -0.19504,-18.905723 -2.24282,-25.981849 -4.3883,-15.163853 -12.14635,-29.444688 -22.29788,-41.045415 l -5.15909,-5.895579 0.64807,3.961421 C 383.73633,42.71736 384.28964,50.8 384.60947,58.5 c 0.4835,11.640378 0.24993,15.603421 -1.38582,23.513341 -6.53679,31.609789 -27.02701,57.836869 -55.88435,71.530859 -6.51226,3.09034 -8.54581,3.5247 -21.02445,4.49077 -17.4622,1.35188 -79.64842,1.35209 -96.78583,3.2e-4 -11.5969,-0.91474 -13.74725,-1.39177 -20.29879,-4.50309 C 160.99497,140.12334 140.01018,113.55562 133.51962,83 c -2.91094,-13.70385 -2.90847,-26.341548 0.008,-43 l 0.61284,-3.5 -4.59393,5 c -20.05966,21.83275 -29.866457,54.068999 -25.15666,82.69326 0.8772,5.3313 2.30558,11.78647 3.17416,14.34482 0.86858,2.55836 1.37756,4.85325 1.13105,5.09975 -0.24651,0.24651 -4.55364,-2.32576 -9.571412,-5.71615 C 83.217769,127.17415 66.367475,109.88402 56.319713,94 48.551835,81.720139 41.02881,65.080577 38.008982,53.5 36.200527,46.564852 35.326456,46.044406 34.016546,51.122796 33.39557,53.530258 32.478849,56.85 31.979389,58.5 31.479929,60.15 30.325855,65.948288 29.414779,71.385084 27.152491,84.885179 27.911358,112.38122 30.922104,126 c 9.329995,42.20322 36.474744,79.46247 72.298586,99.23801 4.24638,2.3441 7.73388,4.54479 7.75,4.89043 C 111.01359,231.04817 96.856687,233 90.142811,233 c -11.808996,0 -25.604759,-3.65921 -38.184918,-10.12822 -8.88843,-4.57064 -22.036108,-14.82051 -27.387474,-21.35115 -2.086776,-2.54663 -3.991688,-4.43269 -4.233138,-4.19124 -0.719887,0.71988 3.388214,15.5977 6.587594,23.85749 7.083304,18.28687 15.9867,32.02809 29.035932,44.81312 19.517596,19.12244 42.41067,28.30807 66.367473,26.62933 l 8.82828,-0.61863 -0.66717,3.24465 c -0.36695,1.78456 -2.41509,6.90561 -4.55143,11.38012 -9.13229,19.12736 -28.082912,30.3694 -49.18796,29.17966 -3.7125,-0.20928 -6.746439,-0.1408 -6.742087,0.15218 0.0044,0.29298 3.696192,2.99581 8.204091,6.00628 9.881754,6.59925 21.894766,11.58438 33.039996,13.71084 16.25193,3.1008 33.98979,-1.64947 45.22388,-12.11115 2.68579,-2.50112 4.92941,-4.44079 4.98583,-4.31038 0.0564,0.1304 3.1937,5.4121 6.97172,11.7371 7.83545,13.11779 20.40566,31.57515 29.93265,43.95136 l 6.5057,8.45136 -10.18589,5.39832 c -5.60224,2.96908 -10.75443,5.71223 -11.44931,6.0959 -2.83248,1.56393 18.64379,28.95526 35.22196,44.9229 12.50187,12.04146 37.53376,32.92929 39.69326,33.122 0.35849,0.032 4.63349,-3.02323 9.5,-6.78937 z"
     id="path2989"
     style="fill:#ffffff" />
</svg>
