<?xml version="1.0" encoding="UTF-8" standalone="no"?>
<!-- Created with Inkscape (http://www.inkscape.org/) -->

<svg
   xmlns:dc="http://purl.org/dc/elements/1.1/"
   xmlns:cc="http://creativecommons.org/ns#"
   xmlns:rdf="http://www.w3.org/1999/02/22-rdf-syntax-ns#"
   xmlns:svg="http://www.w3.org/2000/svg"
   xmlns="http://www.w3.org/2000/svg"
   version="1.1"
   width="512"
   height="512"
   id="svg2">
  <metadata
     id="metadata8">
    <rdf:RDF>
      <cc:Work
         rdf:about="">
        <dc:format>image/svg+xml</dc:format>
        <dc:type
           rdf:resource="http://purl.org/dc/dcmitype/StillImage" />
        <dc:title></dc:title>
      </cc:Work>
    </rdf:RDF>
  </metadata>
  <defs
     id="defs6" />
  <path
     d="m 0,0 512,0 0,512 -512,0 z"
     id="rect3046"
     style="fill:#000000;fill-opacity:1;fill-rule:nonzero;stroke:none" />
  <path
     d="m 151.40597,239.04966 c 3.4623,-1.49804 3.52098,-1.61021 3.52098,-6.73063 l 0,-5.20721 -4.26397,-2.0043 c -5.22708,-2.45703 -7.41468,-6.17003 -6.7138,-11.39542 0.58472,-4.35952 3.63849,-7.95287 7.63978,-8.98971 2.75473,-0.71382 2.86852,-0.9453 2.86852,-5.83508 0,-4.6558 -0.22604,-5.20011 -2.64002,-6.35711 -6.88108,-3.29801 -24.38941,-3.57275 -33.74345,-0.5295 l -4.45992,1.45099 0,21.95633 c 0,24.59424 -0.5021,22.86965 7.22062,24.80076 5.69296,1.42356 26.41829,0.63776 30.57126,-1.15912 z m 4.5514,53.71767 c 14.45174,-1.58013 28.88294,-6.0243 35.35305,-10.8872 2.49322,-1.87389 3.05153,-2.93818 3.05153,-5.81708 0,-8.19252 -9.05326,-19.34345 -20.34166,-25.05486 -5.04116,-2.55059 -5.34599,-2.59358 -7.71109,-1.08731 -9.8266,6.25828 -19.75957,8.48804 -35.32493,7.92974 -13.04526,-0.46791 -19.95832,-2.22892 -26.78544,-6.82323 l -4.70425,-3.16573 -5.602761,3 c -11.49401,6.15446 -17.909505,13.60117 -19.642506,22.79978 -0.773775,4.10713 -0.647385,4.84976 1.15382,6.77961 5.583387,5.98214 25.673847,11.81104 45.384827,13.16765 11.91904,0.82033 22.22698,0.57373 35.16941,-0.84137 z M 326.50201,158.09095 c -0.84889,-14.37534 -4.20595,-22.51138 -13.33026,-32.30682 -4.03885,-4.33592 -4.38701,-4.98492 -2.38267,-4.44152 19.3992,5.25933 34.6339,4.51482 52.23592,-2.55276 4.44589,-1.78513 7.504,-2.7309 6.7958,-2.10174 -0.70819,0.62916 -4.90604,4.16027 -9.32855,7.84692 -16.43471,13.70015 -23.25963,21.53009 -29.34291,33.66391 -1.78253,3.55548 -3.43267,7.0983 -3.66693,7.87291 -0.23427,0.77462 -0.67546,-2.81679 -0.9804,-7.9809 z m 40.37238,110.15104 c -7.94865,-10.67593 -10.01867,-20.61775 -6.83663,-32.83444 3.74972,-14.39614 18.09123,-28.94378 30.90312,-31.3473 2.79617,-0.52456 3.38507,-0.97747 2.84688,-2.18944 -6.86798,-15.46627 -6.66772,-28.28198 0.61939,-39.63795 1.57656,-2.45687 3.53201,-5.01936 4.34541,-5.69444 1.31667,-1.09273 1.39651,-0.86887 0.72763,2.04043 -0.41321,1.7973 -0.70852,6.25803 -0.65624,9.91272 0.30013,20.97798 16.86673,40.67658 37.92989,45.10072 3.79148,0.79638 8.50915,1.19431 10.48369,0.88429 4.3305,-0.67991 3.96257,0.27089 -1.58058,4.08469 -5.77777,3.97522 -13.79299,6.08753 -20.22897,5.33111 -5.69855,-0.66976 -13.75472,-3.98203 -18.51368,-7.61187 -2.9126,-2.22155 -3.14267,-2.25012 -7.04149,-0.87452 -19.46088,6.8662 -33.91132,30.42496 -30.7866,50.19183 0.4402,2.78468 0.64414,5.21927 0.45322,5.41021 -0.19094,0.19092 -1.3902,-1.05379 -2.66504,-2.76604 z m 58.43785,121.22027 c 7.07109,-1.62937 15.43674,-6.20632 20.55822,-11.24766 4.89276,-4.81617 10.56802,-14.59638 11.81836,-20.36662 0.72435,-3.34277 1.56229,-3.77164 3.29352,-1.68564 1.58549,1.91041 8.25684,5.71269 13.98435,7.97026 l 4.82951,1.90362 0,-142.0206 0,-142.020594 -3.52098,-5.959471 C 458.95535,46.720653 416.77249,42.801811 392.07255,68.213019 l -4.62847,4.761762 -3.35242,-5.764809 c -7.8744,-13.540825 -21.32372,-24.383066 -35.22873,-28.399839 -7.04084,-2.033907 -20.53124,-2.022316 -28.21511,0.02425 -11.73847,3.126488 -23.8171,10.698672 -31.70471,19.875928 -13.18562,15.341509 -16.50576,31.945165 -10.5052,52.535329 0.50656,1.73821 0.10359,2.04243 -3.31223,2.50058 -16.63751,2.23156 -31.93946,21.46376 -31.93946,40.14299 0,15.12422 13.54551,34.75306 29.37025,42.56052 7.18223,3.54351 16.52231,6.1404 22.74029,6.32267 8.56153,0.25096 -7.59089,2.72679 -18.03984,2.76514 -17.37464,0.0637 -28.2127,-3.91134 -38.46435,-14.10763 l -5.46509,-5.43559 -37.8485,14.35105 c -20.81667,7.89307 -38.01551,14.51805 -38.21963,14.72218 -0.20414,0.20414 22.45041,11.21955 50.34344,24.4787 l 50.71461,24.10754 5.15525,-4.19901 c 10.1347,-8.25482 20.14683,-11.65813 34.3678,-11.68227 8.71277,-0.0148 24.9342,2.08071 19.99059,2.5824 -18.53408,1.88089 -34.95958,11.29768 -43.3759,24.86757 -5.21957,8.41567 -5.91785,10.42101 -5.91785,16.99508 0,7.37321 3.01492,13.84501 9.03473,19.39389 5.8885,5.42781 11.55928,7.73712 20.26554,8.2527 l 7.23546,0.42847 -1.68902,3.40273 c -8.60819,17.34222 -1.63342,35.85569 17.07388,45.32006 7.78493,3.93854 17.14478,5.86236 24.62464,5.06133 3.34426,-0.35814 6.08048,-0.75211 6.08048,-0.87547 0,-0.12338 -0.66456,-2.46217 -1.47683,-5.19731 -1.78061,-5.996 -1.99675,-16.44965 -0.48873,-23.63809 1.80751,-8.61613 8.99893,-21.3514 17.96893,-31.82118 2.25635,-2.6336 2.29825,-2.81113 -1.77305,7.51143 -2.13517,5.41366 -2.41197,7.4818 -2.45039,18.3091 -0.0477,13.43242 1.40966,19.19532 7.36059,29.10679 7.44468,12.39934 15.32369,18.33819 28.60363,21.56014 6.3595,1.54293 20.57115,1.77442 26.40509,0.43012 z m -230.95029,1.48296 c 0,-49.83364 -0.1304,-90.6066 -0.28976,-90.6066 -0.15935,0 -3.70284,1.24563 -7.8744,2.76806 -4.17156,1.52243 -12.3859,3.74065 -18.25409,4.92937 -9.48611,1.92161 -13.2728,2.15746 -34.14264,2.1265 -18.55933,-0.0275 -25.17299,-0.37964 -31.59294,-1.68198 -9.368407,-1.90045 -18.528764,-4.48448 -23.538951,-6.64006 -1.919953,-0.82604 -3.715655,-1.50189 -3.990445,-1.50189 -0.274793,0 -0.499622,40.77296 -0.499622,90.6066 l 0,90.60659 60.091418,0 60.09143,0 0,-90.60659 z"
     id="path3007"
     style="fill:#ffffff" />
</svg>
