<?xml version="1.0" encoding="UTF-8" standalone="no"?>
<!-- Created with Inkscape (http://www.inkscape.org/) -->

<svg
   xmlns:dc="http://purl.org/dc/elements/1.1/"
   xmlns:cc="http://creativecommons.org/ns#"
   xmlns:rdf="http://www.w3.org/1999/02/22-rdf-syntax-ns#"
   xmlns:svg="http://www.w3.org/2000/svg"
   xmlns="http://www.w3.org/2000/svg"
   version="1.1"
   width="512"
   height="512"
   id="svg2">
  <metadata
     id="metadata8">
    <rdf:RDF>
      <cc:Work
         rdf:about="">
        <dc:format>image/svg+xml</dc:format>
        <dc:type
           rdf:resource="http://purl.org/dc/dcmitype/StillImage" />
        <dc:title></dc:title>
      </cc:Work>
    </rdf:RDF>
  </metadata>
  <defs
     id="defs6" />
  <path
     d="M 0,256 0,0 l 256,0 256,0 0,256 0,256 -256,0 -256,0 0,-256 z"
     id="path3793"
     style="fill:#000000" />
  <path
     d="m 143.25,237.72457 c 3.68751,-1.59548 3.75,-1.71494 3.75,-7.16842 l 0,-5.5459 -4.54131,-2.13467 c -5.56708,-2.61684 -7.89696,-6.57136 -7.1505,-12.13662 0.62276,-4.64308 3.87516,-8.47016 8.13671,-9.57444 2.9339,-0.76025 3.0551,-1.00679 3.0551,-6.21461 0,-4.95864 -0.24075,-5.53835 -2.81175,-6.7706 -7.32865,-3.51253 -25.97578,-3.80514 -35.93825,-0.56394 l -4.75,1.54536 0,23.38445 c 0,26.19395 -0.53477,24.35718 7.69027,26.4139 6.06325,1.51616 28.13663,0.67924 32.55973,-1.23451 z m 4.84744,57.21167 c 15.39174,-1.6829 30.7616,-6.41614 37.65256,-11.59534 2.65538,-1.99577 3.25,-3.12929 3.25,-6.19545 0,-8.7254 -9.64212,-20.60162 -21.66476,-26.68452 -5.36905,-2.71649 -5.69371,-2.76227 -8.21264,-1.15804 -10.46576,6.66535 -21.04482,9.04014 -37.6226,8.44553 -13.89377,-0.49835 -21.25649,-2.3739 -28.527675,-7.26704 l -5.010229,-3.37164 -5.967188,3.19513 c -12.241624,6.55477 -19.074407,14.48584 -20.92013,24.28277 -0.824104,4.37426 -0.689494,5.1652 1.228869,7.22057 5.946553,6.37124 27.343766,12.57929 48.336833,14.02413 12.6943,0.87368 23.67271,0.61104 37.45696,-0.8961 z M 329.73496,151.5 c -0.9041,-15.31037 -4.47951,-23.97562 -14.19731,-34.40819 -4.30155,-4.61794 -4.67235,-5.30915 -2.53765,-4.73041 20.66101,5.60141 36.88663,4.80847 55.63355,-2.71881 4.73507,-1.90123 7.99209,-2.90853 7.23783,-2.23844 -0.75426,0.67008 -5.22515,4.43087 -9.93531,8.35731 -17.50369,14.59126 -24.77253,22.93049 -31.25149,35.85354 -1.89848,3.78675 -3.65594,7.56 -3.90545,8.385 -0.24951,0.825 -0.71939,-3 -1.04417,-8.5 z m 42.99836,117.31568 c -8.46565,-11.37033 -10.67033,-21.9588 -7.28131,-34.97012 3.99361,-15.33251 19.26795,-30.82639 32.91318,-33.38625 2.97804,-0.55868 3.60525,-1.04105 3.03205,-2.33185 -7.3147,-16.47226 -7.10141,-30.12155 0.65968,-42.21616 1.67911,-2.61667 3.76174,-5.34583 4.62806,-6.06482 1.40231,-1.16381 1.48734,-0.92538 0.77495,2.17314 -0.44009,1.91421 -0.75461,6.66508 -0.69892,10.55749 0.31965,22.34247 17.9638,43.32234 40.39699,48.03425 4.0381,0.84817 9.06262,1.27198 11.16559,0.9418 4.61217,-0.72414 4.22031,0.28852 -1.68339,4.35038 -6.15358,4.23378 -14.69014,6.48348 -21.54474,5.67786 -6.0692,-0.71332 -14.64938,-4.24104 -19.71788,-8.10698 -3.10204,-2.36604 -3.34707,-2.39647 -7.4995,-0.9314 -20.72669,7.3128 -36.11704,32.40392 -32.78907,53.4565 0.46883,2.96581 0.68604,5.55876 0.48269,5.76211 -0.20335,0.20335 -1.48062,-1.12233 -2.83838,-2.94595 z m 62.23887,129.10491 c 7.53102,-1.73535 16.44081,-6.61001 21.89541,-11.97925 5.211,-5.12944 11.2554,-15.54579 12.58707,-21.69134 0.77146,-3.56021 1.66391,-4.01697 3.50774,-1.79529 1.68863,2.03467 8.7939,6.08426 14.89395,8.48867 L 493,372.97082 493,221.71266 493,70.454495 489.25,64.107397 C 470.80358,32.88574 425.87699,28.712001 399.57047,55.776053 l -4.92953,5.071484 -3.57047,-6.139774 C 382.68388,40.286191 368.35977,28.738729 353.55033,24.460689 346.05152,22.294488 331.68365,22.306834 323.5,24.48651 c -12.50199,3.329846 -25.36626,11.394554 -33.76691,21.168735 -14.04326,16.33938 -17.57936,34.023002 -11.1885,55.952435 0.53951,1.85126 0.11033,2.17527 -3.52767,2.66323 C 257.29725,106.64761 241,127.13076 241,147.02495 c 0,16.10796 14.42656,37.01354 31.28059,45.32882 7.6494,3.77399 17.59699,6.5398 24.21941,6.73392 9.11841,0.26729 -8.08463,2.90416 -19.21321,2.94499 -18.50476,0.0679 -30.04777,-4.16575 -40.96622,-15.02524 L 230.5,181.2183 190.18969,196.50279 c -22.17067,8.40647 -40.48819,15.46237 -40.70559,15.67978 -0.21741,0.21741 23.91068,11.94931 53.61798,26.07089 l 54.01328,25.67559 5.49057,-4.47213 c 10.7939,-8.79175 21.45726,-12.41643 36.60322,-12.44214 9.27948,-0.0157 26.55601,2.21605 21.29085,2.75037 -19.7396,2.00323 -37.23348,12.03253 -46.19723,26.48506 C 268.7437,285.21326 268,287.34904 268,294.35071 c 0,7.8528 3.21102,14.74555 9.62238,20.65534 6.27151,5.78086 12.31114,8.24038 21.58369,8.78949 l 7.70608,0.45635 -1.79888,3.62405 c -9.1681,18.47023 -1.73967,38.18788 18.18443,48.26785 8.2913,4.19472 18.25994,6.24367 26.22632,5.39054 C 353.08581,381.1529 356,380.7333 356,380.60191 c 0,-0.1314 -0.70779,-2.62231 -1.57288,-5.53536 -1.89643,-6.386 -2.12663,-17.5196 -0.52053,-25.1756 1.92509,-9.17656 9.58426,-22.74018 19.1377,-33.89095 2.40311,-2.8049 2.44774,-2.99399 -1.88837,8 -2.27406,5.76578 -2.56886,7.96844 -2.60978,19.5 -0.0508,14.3061 1.50135,20.44385 7.83935,31 7.92891,13.20585 16.32041,19.53098 30.46413,22.96249 6.77314,1.64329 21.90917,1.88984 28.12257,0.4581 z M 189,399.5 c 0,-53.075 -0.13887,-96.5 -0.3086,-96.5 -0.16972,0 -3.94369,1.32665 -8.38658,2.9481 -4.4429,1.62146 -13.19153,3.98396 -19.44141,5.25 -10.10312,2.0466 -14.13611,2.29779 -36.36341,2.26482 -19.7665,-0.0293 -26.810343,-0.40433 -33.647867,-1.79138 -9.977764,-2.02407 -19.733946,-4.77618 -25.070014,-7.07196 C 63.737284,303.71981 61.824784,303 61.532119,303 61.239453,303 61,346.425 61,399.5 l 0,96.5 64,0 64,0 0,-96.5 z"
     id="path2989"
     style="fill:#ffffff" />
</svg>
