<?xml version="1.0" encoding="UTF-8" standalone="no"?>
<!-- Created with Inkscape (http://www.inkscape.org/) -->

<svg
   xmlns:dc="http://purl.org/dc/elements/1.1/"
   xmlns:cc="http://creativecommons.org/ns#"
   xmlns:rdf="http://www.w3.org/1999/02/22-rdf-syntax-ns#"
   xmlns:svg="http://www.w3.org/2000/svg"
   xmlns="http://www.w3.org/2000/svg"
   version="1.1"
   width="512"
   height="512"
   id="svg2">
  <metadata
     id="metadata8">
    <rdf:RDF>
      <cc:Work
         rdf:about="">
        <dc:format>image/svg+xml</dc:format>
        <dc:type
           rdf:resource="http://purl.org/dc/dcmitype/StillImage" />
        <dc:title></dc:title>
      </cc:Work>
    </rdf:RDF>
  </metadata>
  <defs
     id="defs6" />
  <path
     d="m 0,0 512,0 0,512 -512,0 z"
     id="rect3046"
     style="fill:#000000;fill-opacity:1;fill-rule:nonzero;stroke:none" />
  <path
     d="m 396.35573,451.40034 -2.9845,-16.28093 72.96551,-11.06163 2.98452,16.28094 z m 64.42197,10.97184 -13.09041,9.78179 -45.77251,-59.06802 13.09042,-9.78179 z m -23.82279,-61.67684 15.51798,6.38153 -26.73532,67.68592 -15.51799,-6.38153 z"
     id="path3778"
     style="fill:#ffffff;fill-opacity:1;fill-rule:nonzero;stroke:none" />
  <path
     d="m 212.32425,436.34127 -9.50253,-19.12006 85.24142,-42.36441 9.50255,19.12006 z m 82.71621,-11.56028 -12.48955,17.31725 -77.20397,-55.68118 12.48956,-17.31723 z m -51.30295,-67.52963 21.26879,1.87439 -8.3564,94.82096 -21.2688,-1.87438 z"
     id="path3774"
     style="fill:#ffffff;fill-opacity:1;fill-rule:nonzero;stroke:none" />
  <path
     d="m 350.99141,373.39393 -13.64867,-13.26744 61.00238,-59.0003 13.64869,13.26744 z m 67.68251,-32.65829 -5.74696,17.89174 -82.26434,-24.84292 5.74697,-17.89173 z m -63.43431,-41.91801 18.79534,-4.36328 20.06198,81.24813 -18.79533,4.3633 z"
     id="path3776"
     style="fill:#ffffff;fill-opacity:1;fill-rule:nonzero;stroke:none" />
  <path
     d="m 335.40356,278.10457 c 15.61542,-4.03659 30.03461,-13.22414 42.85166,-27.30403 l 7.37788,-8.10481 6.11946,8.55434 c 9.83618,13.74988 20.60081,20.74262 35.20885,22.87176 32.3536,4.71559 60.64467,-25.8163 53.74263,-57.99937 -1.91103,-8.91085 -6.33769,-16.76044 -13.52414,-23.98176 -8.02902,-8.06797 -15.67504,-11.98252 -27.9295,-14.29914 -4.65853,-0.88066 -8.47005,-1.94092 -8.47005,-2.35613 0,-0.41522 1.06236,-5.25105 2.36081,-10.7463 2.87262,-12.15743 3.01023,-21.10893 0.47897,-31.15624 -7.51316,-29.82184 -33.59765,-50.494563 -63.74872,-50.522718 -22.73627,-0.02123 -37.29813,7.557972 -55.47257,28.872558 -4.20872,4.9359 -7.73557,8.87093 -7.83741,8.7445 -0.10186,-0.12641 -1.7758,-5.75416 -3.71986,-12.50608 -5.37885,-18.681284 -10.97537,-29.631237 -21.65722,-42.373738 -10.19852,-12.165934 -30.9669,-24.676739 -48.24,-29.05962 -12.62797,-3.204224 -32.17913,-3.004685 -45.26018,0.461926 -18.12893,4.804352 -32.5944,13.546268 -45.86715,27.718892 -15.91058,16.9893 -22.86574,34.617633 -25.07548,63.55552 l -0.54082,7.08244 -15.75766,0.0177 c -15.747574,0.0176 -15.763119,0.0198 -24.256594,3.32686 -11.022354,4.29176 -17.799034,8.87793 -25.83818,17.48616 -11.455431,12.26637 -17.214436,27.09599 -17.214436,44.32771 0,11.20782 1.96989,19.66683 6.927152,29.74623 3.163293,6.43179 5.643534,9.73982 12.482,16.64786 7.345035,7.41978 9.784376,9.222 17.505354,12.93321 24.553582,11.80206 51.262854,8.58337 71.574284,-8.6253 2.26285,-1.91717 5.28796,-4.4431 6.72247,-5.61316 l 2.6082,-2.12739 7.23836,6.59827 c 11.42195,10.41189 20.64441,14.18219 34.69081,14.18219 10.06829,0 18.11169,-2.28631 25.96511,-7.38051 6.52871,-4.23492 10.33761,-8.27457 17.29619,-18.34407 l 5.05179,-7.31025 6.62055,9.67106 c 15.55885,22.72786 31.17312,33.56708 54.85864,38.08216 8.4483,1.61046 24.37205,1.08953 32.7288,-1.07069 z"
     id="path3009"
     style="fill:#ffffff" />
  <path
     d="m -380.40884,-30.149015 18.47696,0 0,82.374374 -18.47696,0 z m -22.89912,68.553376 -8.60971,-16.348439 72.88492,-38.383932 8.6097,16.34843896 z m 72.09125,-13.748543 -9.64414,15.760365 -70.26316,-42.9956551 9.64413,-15.7603659 z"
     transform="matrix(-0.28203799,-0.95940324,0.95940324,-0.28203799,0,0)"
     id="rect3768"
     style="fill:#ffffff;fill-opacity:1;fill-rule:nonzero;stroke:none" />
</svg>
