<?xml version="1.0" encoding="UTF-8" standalone="no"?>
<!-- Created with Inkscape (http://www.inkscape.org/) -->

<svg
   xmlns:dc="http://purl.org/dc/elements/1.1/"
   xmlns:cc="http://creativecommons.org/ns#"
   xmlns:rdf="http://www.w3.org/1999/02/22-rdf-syntax-ns#"
   xmlns:svg="http://www.w3.org/2000/svg"
   xmlns="http://www.w3.org/2000/svg"
   version="1.1"
   width="512"
   height="512"
   id="svg2">
  <metadata
     id="metadata8">
    <rdf:RDF>
      <cc:Work
         rdf:about="">
        <dc:format>image/svg+xml</dc:format>
        <dc:type
           rdf:resource="http://purl.org/dc/dcmitype/StillImage" />
        <dc:title></dc:title>
      </cc:Work>
    </rdf:RDF>
  </metadata>
  <defs
     id="defs6" />
  <rect
     width="512"
     height="512"
     x="0"
     y="0"
     id="rect3596"
     style="fill:#000000;fill-opacity:1;stroke:none" />
  <path
     d="m 305.57024,133.76003 c 11.96177,-21.824 22.75607,-41.643616 23.98735,-44.043588 l 2.23871,-4.363585 -5.47501,-27.508274 -5.47499,-27.508274 -2.02316,2.486729 C 317.71041,34.190738 309.6,43.541412 300.8,53.602312 l -16,18.292545 -0.82446,11.092585 c -0.87422,11.761872 -1.42441,91.891808 -0.62474,90.985918 0.25894,-0.29333 10.25769,-18.38933 22.21944,-40.21333 z M 247.62932,111.67649 246.78181,95.992944 227.39091,69.82122 208,43.649498 l -0.75212,0.895264 c -0.41365,0.492396 -2.3555,15.387169 -4.31523,33.099497 l -3.56313,32.204231 24.15524,43.25566 24.15524,43.25567 0.39841,-34.49989 0.39842,-34.4999 -0.84751,-15.68354 z m 108.39412,66.41216 39.22342,-23.33295 13.11535,-30.05239 13.11535,-30.052394 -0.64708,-0.647078 -0.64708,-0.647079 -30.03287,12.984041 -30.03286,12.98405 -22.60463,37.93759 c -12.43254,20.86568 -24.15373,40.50309 -26.04708,43.63869 l -3.44247,5.70111 4.38826,-2.59032 c 2.41353,-1.42467 22.0388,-13.09015 43.61169,-25.92327 z m -143.89447,35.99137 c -0.27617,-0.528 -7.87521,-16.51199 -16.88678,-35.51999 l -16.38465,-34.56 -2.70878,-2.7152 C 173.97751,139.10842 89.291782,78.556541 83.576342,75.093818 l -1.543658,-0.935232 6.426604,13.800721 c 3.534633,7.590396 11.141279,23.304723 16.903662,34.920723 l 10.47705,21.12 48,35.46757 c 26.4,19.50716 48.178,35.49116 48.39555,35.52 0.21754,0.0288 0.16958,-0.37958 -0.10663,-0.90758 z m 219.44197,10.07957 4.69095,-0.79957 20.46726,-19.19999 20.46728,-19.2 -2.11822,-0.76489 c -1.16502,-0.42069 -13.48403,-2.11752 -27.37558,-3.77075 l -25.25737,-3.00589 -9.94263,6.92878 c -5.46845,3.81083 -21.17463,14.90518 -34.90263,24.6541 l -24.96,17.72533 37.12,-0.88378 c 20.416,-0.48608 39.23092,-1.24358 41.81094,-1.68334 z m -233.24233,24.35384 6.96862,-0.83341 -37.15351,-21.91785 -37.1535,-21.91784 -48.53511,-0.94153 -48.53511,-0.94153 0.725944,0.75865 c 0.399269,0.41727 19.407269,11.13395 42.24,23.81488 L 118.4,249.59101 l 36.48,-0.12211 36.48,-0.12211 6.96861,-0.83342 z m 247.45807,22.0367 c 15.32666,-5.39188 27.68354,-9.98656 27.45971,-10.21038 -0.55408,-0.55407 -85.40723,-13.29758 -88.5504,-13.29878 -2.96729,-10e-4 -54.64589,18.15582 -53.87358,18.92813 0.75609,0.75608 78.63207,14.08274 83.25759,14.24759 l 3.84,0.13686 27.86668,-9.80342 z m -305.69255,31.84989 33.8371,-21.44 -4.08561,-0.81566 c -2.24709,-0.44862 -14.74162,-1.17557 -27.76562,-1.61544 -13.024,-0.43988 -29.47288,-1.152 -36.55308,-1.58249 l -12.87307,-0.78268 -20.787767,18.23063 -20.787767,18.23063 0.794229,0.8075 c 0.964584,0.98072 45.892794,10.04035 50.855965,10.25495 l 3.52852,0.15256 33.8371,-21.44 z M 245.12,312.473 c 6.336,-7.75643 11.89514,-14.13195 12.35366,-14.16779 0.45851,-0.0358 3.91451,3.97599 7.68,8.91522 l 6.84634,8.98041 0.35095,-21.14041 0.35095,-21.14041 1.69516,0 c 0.93234,0 8.20567,1.44 16.16294,3.2 7.95727,1.76 14.63524,3.2 14.83991,3.2 0.20467,0 -2.15031,-5.616 -5.23331,-12.48 l -5.60542,-12.48 19.43941,-18.81644 19.43941,-18.81644 -1.44001,-0.0636 c -0.792,-0.035 -10.008,2.19284 -20.48,4.95066 l -19.03999,5.01426 -0.88137,-0.8542 c -0.48475,-0.46983 -4.1289,-6.61423 -8.09811,-13.65423 -3.9692,-7.03999 -7.70762,-13.30623 -8.3076,-13.92496 l -1.09085,-1.12497 -5.29817,16.80497 -5.29815,16.80496 -0.87288,-0.0261 c -0.48008,-0.0143 -7.78061,-5.78715 -16.22339,-12.82844 l -15.35052,-12.80234 -0.3236,0.98844 c -0.17797,0.54364 2.23583,10.78044 5.36402,22.74844 l 5.6876,21.76 -0.89349,0.78736 c -0.49142,0.43304 -11.07699,4.45756 -23.52348,8.94334 -12.4465,4.48579 -22.50085,8.28512 -22.34303,8.44296 0.15784,0.15782 10.34134,1.82698 22.62999,3.70922 12.28867,1.88224 22.51634,3.56592 22.72817,3.74149 0.21184,0.17559 -1.94816,11.54361 -4.8,25.26225 -2.85183,13.71867 -5.18514,25.37588 -5.18514,25.90493 l 0,0.96192 1.6,-1.34894 c 0.88,-0.74191 6.784,-7.6951 13.12,-15.45154 z m 212.90666,58.79716 c -0.23466,-0.66543 -9.48865,-12.64294 -20.56441,-26.61667 l -20.13776,-25.4068 -46.42224,-13.15736 c -25.53224,-7.23654 -47.4773,-13.45679 -48.76681,-13.82277 l -2.34455,-0.66542 24.74455,24.13446 c 13.60951,13.27395 29.99969,29.20062 36.42261,35.3926 l 11.67806,11.25815 31.84194,4.88438 c 17.51308,2.68641 32.32195,4.95749 32.90861,5.04684 l 1.06668,0.16245 -0.42668,-1.20986 z M 128.86757,404.59131 173.44,377.8226 196.27601,337.29399 c 12.5598,-22.29074 22.6398,-40.70158 22.4,-40.91299 -0.23981,-0.2114 -18.58001,9.83751 -40.75601,22.33091 l -40.32,22.71529 -27.15415,44.96641 c -14.934774,24.73153 -26.928368,44.96641 -26.652424,44.96641 0.275944,0 20.559304,-12.04591 45.074144,-26.76871 z m 232.36129,8.1771 -11.22437,-48.67163 -29.40225,-32.70886 c -16.17123,-17.98989 -29.5647,-32.3203 -29.76325,-31.84535 -0.19857,0.47495 2.84009,22.06543 6.75255,47.97885 l 7.11357,47.1153 27.80745,28.61902 c 15.2941,15.74047 30.39944,31.53169 33.56744,35.0916 l 5.76,6.47256 0.30661,-1.68993 c 0.16864,-0.92947 -4.74434,-23.59218 -10.91775,-50.36156 z m -93.1371,31.16192 6.11683,-17.5097 -6.67431,-44.5703 c -3.67087,-24.51367 -6.83238,-44.73888 -7.02558,-44.94494 -0.19321,-0.20604 -2.45325,5.55396 -5.02233,12.8 -2.56907,7.24606 -7.12954,20.08663 -10.13438,28.53463 l -5.46334,15.36 6.75968,40.32 c 3.71784,22.176 7.10811,41.76 7.53395,43.52 l 0.77428,3.2 3.50919,-9.6 c 1.93006,-5.28 6.26176,-17.47936 9.62601,-27.10969 z m -72.73418,18.64461 20.27653,-21.2651 1.52928,-31.5349 c 0.84112,-17.34421 1.57145,-35.7803 1.62295,-40.96912 l 0.0937,-9.43419 -24.17423,33.32057 c -13.29582,18.32629 -24.5837,33.9831 -25.08416,34.79287 l -0.90994,1.47232 2.90512,27.44132 c 1.5978,15.09272 3.03091,27.44131 3.18467,27.44131 0.15375,0 9.40399,-9.56929 20.55608,-21.26508 z"
     id="path3513"
     style="fill:#ffffff" />
</svg>
