<?xml version="1.0" encoding="UTF-8" standalone="no"?>
<!-- Created with Inkscape (http://www.inkscape.org/) -->

<svg
   xmlns:dc="http://purl.org/dc/elements/1.1/"
   xmlns:cc="http://creativecommons.org/ns#"
   xmlns:rdf="http://www.w3.org/1999/02/22-rdf-syntax-ns#"
   xmlns:svg="http://www.w3.org/2000/svg"
   xmlns="http://www.w3.org/2000/svg"
   xmlns:sodipodi="http://sodipodi.sourceforge.net/DTD/sodipodi-0.dtd"
   xmlns:inkscape="http://www.inkscape.org/namespaces/inkscape"
   id="svg2"
   version="1.1"
   inkscape:version="0.48.3.1 r9886"
   width="400"
   height="400"
   sodipodi:docname="Icons8_37.png">
  <metadata
     id="metadata8">
    <rdf:RDF>
      <cc:Work
         rdf:about="">
        <dc:format>image/svg+xml</dc:format>
        <dc:type
           rdf:resource="http://purl.org/dc/dcmitype/StillImage" />
        <dc:title></dc:title>
      </cc:Work>
    </rdf:RDF>
  </metadata>
  <defs
     id="defs6" />
  <sodipodi:namedview
     pagecolor="#ffffff"
     bordercolor="#666666"
     borderopacity="1"
     objecttolerance="10"
     gridtolerance="10"
     guidetolerance="10"
     inkscape:pageopacity="0"
     inkscape:pageshadow="2"
     inkscape:window-width="1216"
     inkscape:window-height="1000"
     id="namedview4"
     showgrid="false"
     inkscape:zoom="1.18"
     inkscape:cx="415.097"
     inkscape:cy="158.91545"
     inkscape:window-x="64"
     inkscape:window-y="24"
     inkscape:window-maximized="1"
     inkscape:current-layer="svg2" />
  <rect
     style="fill:#000000;fill-opacity:1;stroke:none"
     id="rect3299"
     width="400"
     height="400"
     x="0"
     y="-7.6293945e-06" />
  <path
     id="path3256"
     style="fill:#ffffff;fill-opacity:1"
     d="m 157.86063,231.85065 2.84184,-10.59295 -3.33196,-5.93216 -3.33195,-5.93216 4.34235,-16.28604 4.34235,-16.28603 -9.61163,-7.34664 c -25.33068,-19.36148 -58.588976,-44.33066 -58.785509,-44.13412 -0.120794,0.12079 2.12365,19.27814 4.987653,42.57189 l 5.207276,42.35228 15.95874,4.30726 c 9.7813,2.63997 16.43238,4.95501 17.18235,5.98064 0.67298,0.92036 4.48425,7.33021 8.46949,14.24411 8.25184,14.31595 7.01465,14.62671 11.729,-2.94608 z M 365.35184,328.75 373.10668,284.5 372.80334,246 372.5,207.5 358.09626,289 c -7.92206,44.825 -14.6077,82.0625 -14.85699,82.75 -0.33659,0.92827 1.45278,1.25 6.95224,1.25 l 7.40549,0 7.75484,-44.25 z m -41.93781,42 c 0.24867,-1.2375 2.73778,-41.625 5.53135,-89.75 2.79357,-48.125 5.3338,-90.00935 5.64495,-93.07634 l 0.56573,-5.57634 18.3627,-16.25619 18.36269,-16.2562 -4.63882,-13.16746 C 339.80161,58.775174 329.30145,29.838587 328.47804,29.839104 c -0.53792,3.38e-4 -13.6439,25.658245 -29.12439,57.017573 l -28.14635,57.016963 17.40316,19.53811 17.40316,19.5381 -5.50681,91.20893 C 297.47806,324.3237 295,367.08498 295,369.18386 l 0,3.81614 13.98095,0 c 13.69813,0 13.99009,-0.0455 14.43308,-2.25 z m -45.43579,1.5 c -0.012,-0.4125 -3.08133,-24.89678 -6.82081,-54.40952 l -6.79906,-53.65952 7.73708,-10.50035 7.73707,-10.50035 -17.16626,-28.09826 c -12.80201,-20.95472 -17.34713,-27.65129 -17.87769,-26.34013 -1.76234,4.35522 -15.79182,61.44385 -15.29666,62.24504 0.30535,0.49407 5.0373,4.14671 10.51544,8.11697 5.47813,3.97026 10.16678,7.93358 10.41921,8.80739 0.25243,0.8738 3.19747,23.86373 6.54453,51.08873 3.34705,27.225 6.30638,50.5125 6.57628,51.75 0.45182,2.0716 1.04425,2.25 7.47168,2.25 3.83952,0 6.97116,-0.3375 6.95919,-0.75 z m -31.78218,-2.5 c -1.08189,-1.7875 -12.66669,-21.925 -25.74401,-44.75 -13.07732,-22.825 -23.92884,-41.6875 -24.1145,-41.91667 -0.70305,-0.86782 -1.26322,0.76194 -4.45487,12.96095 l -3.28128,12.54157 16.37584,28.45707 c 9.00672,15.6514 17.42705,30.14458 18.71185,32.20708 l 2.336,3.75 11.06901,0 11.06902,0 -1.96706,-3.25 z m -87.82249,1.5 c 0.27958,-0.9625 4.16813,-15.7 8.64122,-32.75 4.47309,-17.05 9.88523,-37.3 12.02698,-45 2.14175,-7.7 5.06866,-18.725 6.50424,-24.5 1.43559,-5.775 5.24338,-20.175 8.46177,-32 3.21838,-11.825 8.60548,-31.85 11.97133,-44.5 3.36585,-12.65 6.34347,-23.75805 6.61692,-24.68455 0.27346,-0.9265 8.01372,-6.02583 17.20058,-11.33184 9.18687,-5.306 17.09118,-10.02075 17.56515,-10.4772 0.78654,-0.75749 -11.43173,-93.934128 -13.13485,-100.166461 -0.66935,-2.449426 -3.24354,0.572774 -32.51024,38.168292 l -31.78333,40.828339 10.03333,17.41021 C 185.485,151.8224 190,160.38722 190,161.27972 c 0,1.64208 -11.79288,46.49089 -18.99015,72.22028 -2.15391,7.7 -5.98769,22.1 -8.5195,32 -2.53182,9.9 -6.13617,23.4 -8.00968,30 C 149.49547,313.06183 134,370.99928 134,372.07704 134,372.58942 139.30825,373 145.93261,373 c 10.50407,0 11.99347,-0.20951 12.44096,-1.75 z m -53.05975,-27.84615 7.02862,-29.09614 11.29573,-6.40386 c 10.95331,-6.20973 11.28078,-6.49479 10.80273,-9.40385 -0.27116,-1.65 -2.29035,-16.02157 -4.48711,-31.93683 -2.19676,-15.91525 -4.21754,-29.16025 -4.49062,-29.43333 -0.6501,-0.65011 0.63151,-2.21778 -21.33827,26.10099 l -19.186241,24.73084 6.530671,11.37377 C 95.061198,305.59101 98,311.39347 98,312.2298 c 0,0.83633 -3.15,14.42606 -7,30.19941 -3.85,15.77335 -7,29.12422 -7,29.66861 0,0.5881 2.898725,0.87056 7.142594,0.69599 L 98.285189,372.5 105.31382,343.40385 z M 53.664386,319 c 2.310478,-29.425 4.343687,-55.06427 4.518242,-56.97617 0.275751,-3.02029 1.563219,-4.51944 9.817372,-11.4315 5.225,-4.37544 9.625007,-8.44227 9.777794,-9.03741 0.29823,-1.16168 -18.23683,-60.34729 -19.200722,-61.31118 -0.781433,-0.78143 0.497332,-3.01084 -16.390558,28.57537 l -15.141101,28.31911 8.477294,10.11981 C 40.185218,252.82392 44,258.19435 44,259.19231 c 0,2.39531 -7.750882,101.77608 -8.470044,108.60178 l -0.557791,5.29409 7.245676,-0.29409 L 49.463517,372.5 53.664386,319 z" />
</svg>
