<?xml version="1.0" encoding="UTF-8" standalone="no"?>
<svg
   xmlns:dc="http://purl.org/dc/elements/1.1/"
   xmlns:cc="http://creativecommons.org/ns#"
   xmlns:rdf="http://www.w3.org/1999/02/22-rdf-syntax-ns#"
   xmlns:svg="http://www.w3.org/2000/svg"
   xmlns="http://www.w3.org/2000/svg"
   xmlns:xlink="http://www.w3.org/1999/xlink"
   width="32"
   height="32"
   id="svg2"
   version="1.0">
  <defs
     id="defs4">
    <linearGradient
       id="linearGradient3212">
      <stop
         style="stop-color:#1367c4;stop-opacity:1;"
         offset="0"
         id="stop3214" />
      <stop
         id="stop3220"
         offset="1"
         style="stop-color:#3844c2;stop-opacity:0.49803922;" />
      <stop
         style="stop-color:#1836ca;stop-opacity:0;"
         offset="1"
         id="stop3216" />
    </linearGradient>
    <radialGradient
       xlink:href="#linearGradient3212"
       id="radialGradient3218"
       cx="31.942568"
       cy="30.737693"
       fx="31.942568"
       fy="30.737693"
       r="24.484351"
       gradientTransform="matrix(1,0,0,0.895698,0.4940484,3.2060036)"
       gradientUnits="userSpaceOnUse" />
    <filter
       id="filter3398">
      <feGaussianBlur
         stdDeviation="1.6144325"
         id="feGaussianBlur3400" />
    </filter>
  </defs>
  <metadata
     id="metadata7">
    <rdf:RDF>
      <cc:Work
         rdf:about="">
        <dc:format>image/svg+xml</dc:format>
        <dc:type
           rdf:resource="http://purl.org/dc/dcmitype/StillImage" />
        <dc:title></dc:title>
      </cc:Work>
    </rdf:RDF>
  </metadata>
  <g
     id="layer1">
    <path
       style="fill:#8f8ffa;fill-opacity:1;fill-rule:evenodd;stroke:#210000;stroke-width:1.39999998000000003;stroke-linecap:butt;stroke-linejoin:miter;stroke-miterlimit:4;stroke-opacity:1;stroke-dasharray:none"
       d="m 31.294107,14.14253 c -0.435812,7.746386 -15.259204,16.423315 -15.259204,16.423315 0,0 -15.07390479,-8.535393 -15.25920597,-16.423315 -0.078126,-3.325672 0.99481177,-9.2526252 6.32396847,-10.6805684 4.4087645,-1.1813249 8.9352375,5.178673 8.9352375,5.178673 0,0 4.002278,-6.616587 9.12054,-5.2451529 5.399529,1.4467993 6.320786,7.5098933 6.138664,10.7470483 z"
       id="path2383" />
    <path
       transform="matrix(0.49462371,0,0,0.49462371,0.24952003,1.6835077)"
       id="path3210"
       d="M 56.887399,26.337436 C 56.18868,38.756905 32.42293,52.668277 32.42293,52.668277 c 0,0 -24.1673848,-13.684453 -24.4644707,-26.330841 C 7.8332031,21.005519 9.553401,11.503074 18.097423,9.21371 c 7.068395,-1.8939707 14.325507,8.302758 14.325507,8.302758 0,0 6.416693,-10.6081077 14.622596,-8.4093425 8.656848,2.3195955 10.133862,12.0403105 9.841873,17.2303105 z"
       style="opacity:0.71238942;fill:url(#radialGradient3218);fill-opacity:1;fill-rule:evenodd;stroke:none;filter:url(#filter3398)" />
    <path
       style="fill:#ffffff;fill-opacity:0.80423279;stroke:none"
       d="m 5.6377799,5.9516777 c 3.8792657,-3.2134164 7.9283031,1.6436726 7.9283031,1.6436726 0,0 -3.8378026,-2.9710071 -7.3481839,-0.6768066 C 2.8418547,9.124949 2.447121,14.556787 2.447121,14.556787 c 0,0 -0.5751236,-5.4856971 3.1906589,-8.6051093 z"
       id="rect3200" />
    <path
       id="path3203"
       d="m 20.431589,5.756353 c 3.461633,-2.8554195 5.608042,-0.085915 5.608042,-0.085915 0,0 -2.130471,-0.9217151 -4.917822,0.8591509 -2.726515,1.7419968 -4.2276,5.4126491 -4.2276,5.4126491 0,0 0.177013,-3.4139968 3.53738,-6.185885 z"
       style="fill:#ffffff;fill-opacity:0.80952382;stroke:none" />
  </g>
</svg>
