<?xml version="1.0" encoding="UTF-8" standalone="no"?>
<!-- Created with Inkscape (http://www.inkscape.org/) -->

<svg
   xmlns:dc="http://purl.org/dc/elements/1.1/"
   xmlns:cc="http://creativecommons.org/ns#"
   xmlns:rdf="http://www.w3.org/1999/02/22-rdf-syntax-ns#"
   xmlns:svg="http://www.w3.org/2000/svg"
   xmlns="http://www.w3.org/2000/svg"
   version="1.1"
   width="512"
   height="512"
   id="svg2">
  <metadata
     id="metadata8">
    <rdf:RDF>
      <cc:Work
         rdf:about="">
        <dc:format>image/svg+xml</dc:format>
        <dc:type
           rdf:resource="http://purl.org/dc/dcmitype/StillImage" />
        <dc:title></dc:title>
      </cc:Work>
    </rdf:RDF>
  </metadata>
  <defs
     id="defs6" />
  <path
     d="m 0,0 512,0 0,512 -512,0 z"
     id="rect3022"
     style="fill:#000000" />
  <path
     d="m 259.57484,382.97839 c 3.02215,-4.01411 31.24615,-38.85068 62.72,-77.41459 31.47384,-38.56392 57.41716,-70.67592 57.65182,-71.36 0.26925,-0.78489 -12.32654,-1.2438 -34.13916,-1.2438 l -34.56582,0 3.76125,-14.33617 c 19.18165,-73.11166 44.22353,-130.503756 76.90375,-176.251332 4.22265,-5.911126 7.98012,-11.535928 8.3499,-12.499564 0.56137,-1.462908 -5.52772,-1.69602 -36.89547,-1.412498 L 325.79332,28.8 315.44241,49.28 c -23.7243,46.940198 -37.26944,97.78793 -47.22495,177.28 -1.10211,8.8 -2.33508,18.15148 -2.73996,20.78107 l -0.73612,4.78107 38.43863,0.33893 38.43863,0.33893 -43.36254,53.12 c -23.84941,29.216 -43.95343,53.12 -44.67563,53.12 -0.7222,0 -20.86942,-23.904 -44.7716,-53.12 l -43.45851,-53.12 39.70381,-0.33843 39.70382,-0.33843 -0.74097,-4.14157 C 243.6095,245.70371 242.10829,234.624 240.68101,223.36 230.8699,145.93157 215.14176,90.310843 189.61659,42.776727 L 182.11128,28.8 145.45564,28.460371 C 125.29504,28.273574 108.8,28.457371 108.8,28.868829 c 0,0.411449 4.81297,7.764282 10.6955,16.339629 32.53123,47.422935 56.09834,101.372922 73.76863,168.871542 l 4.94254,18.88 -35.74334,0 c -19.65882,0 -35.74333,0.33972 -35.74333,0.75493 0,0.41522 9.68609,12.65522 21.52465,27.2 11.83855,14.54479 40.07001,49.62907 62.73657,77.96507 22.66656,28.336 41.63647,51.49228 42.15536,51.45839 0.51888,-0.0339 3.4161,-3.34587 6.43826,-7.36 z m 35.64844,47.76419 c 33.55349,-3.58947 54.85476,-8.65626 72.95669,-17.35369 10.9682,-5.2699 17.10003,-10.9697 17.10003,-15.89522 0,-7.77791 -21.70706,-19.83219 -46.08,-25.58897 -2.98812,-0.70579 -3.03254,-0.6482 -0.67075,0.86974 6.75687,4.34268 10.91075,9.72025 10.91075,14.12494 0,5.89432 -3.39596,9.91222 -12.39843,14.66911 -14.85282,7.84821 -34.64681,12.34859 -63.13939,14.3554 -37.62625,2.65014 -74.27242,-2.22373 -96.83863,-12.87935 C 165.65372,397.6569 161.28,393.37247 161.28,387.58323 c 0,-5.25159 1.86341,-8.18148 8.06653,-12.68316 5.12181,-3.71697 5.19363,-3.858 1.53347,-3.01133 -23.19503,5.36549 -45.44,17.90029 -45.44,25.60493 0,10.32538 27.62131,23.46222 62.08,29.52558 31.98124,5.62742 75.75766,7.14079 107.70328,3.72333 z m 0.82619,45.36663 c 72.98389,-4.4087 134.37631,-19.37144 163.55336,-39.8617 9.84417,-6.91329 16.55717,-15.76376 16.55717,-21.8291 0,-15.5042 -24.82881,-32.42879 -65.12645,-44.39354 -7.30756,-2.16968 -13.63045,-3.94487 -14.05088,-3.94487 -0.42043,0 2.87585,2.15348 7.32507,4.78554 43.60832,25.79756 13.51324,57.79078 -67.66774,71.93561 -60.32019,10.51008 -136.71348,8.17732 -189.44,-5.78478 -61.613686,-16.31545 -78.562804,-43.80407 -40.78774,-66.15083 4.44922,-2.63206 7.74551,-4.78554 7.32508,-4.78554 -0.42044,0 -6.59396,1.73183 -13.71895,3.8485 C 59.177908,382.06127 34.56,398.79325 34.56,414.41841 c 0,6.06534 6.712993,14.91581 16.55717,21.8291 41.173839,28.91527 145.38422,45.87506 244.9323,39.8617 z"
     id="path2989"
     style="fill:#ffffff" />
</svg>
