<?xml version="1.0" encoding="UTF-8" standalone="no"?>
<!-- Created with Inkscape (http://www.inkscape.org/) -->

<svg
   xmlns:dc="http://purl.org/dc/elements/1.1/"
   xmlns:cc="http://creativecommons.org/ns#"
   xmlns:rdf="http://www.w3.org/1999/02/22-rdf-syntax-ns#"
   xmlns:svg="http://www.w3.org/2000/svg"
   xmlns="http://www.w3.org/2000/svg"
   xmlns:sodipodi="http://sodipodi.sourceforge.net/DTD/sodipodi-0.dtd"
   xmlns:inkscape="http://www.inkscape.org/namespaces/inkscape"
   id="svg2"
   version="1.1"
   inkscape:version="0.48.3.1 r9886"
   width="400"
   height="400"
   sodipodi:docname="Icon.6_46.png">
  <metadata
     id="metadata8">
    <rdf:RDF>
      <cc:Work
         rdf:about="">
        <dc:format>image/svg+xml</dc:format>
        <dc:type
           rdf:resource="http://purl.org/dc/dcmitype/StillImage" />
        <dc:title></dc:title>
      </cc:Work>
    </rdf:RDF>
  </metadata>
  <defs
     id="defs6" />
  <sodipodi:namedview
     pagecolor="#ffffff"
     bordercolor="#666666"
     borderopacity="1"
     objecttolerance="10"
     gridtolerance="10"
     guidetolerance="10"
     inkscape:pageopacity="0"
     inkscape:pageshadow="2"
     inkscape:window-width="1855"
     inkscape:window-height="1056"
     id="namedview4"
     showgrid="false"
     inkscape:zoom="0.59"
     inkscape:cx="200"
     inkscape:cy="200"
     inkscape:window-x="65"
     inkscape:window-y="24"
     inkscape:window-maximized="1"
     inkscape:current-layer="svg2" />
  <path
     style="fill:#000000"
     d="m 0,0 400,0 0,400 -400,0 z"
     id="rect3022" />
  <path
     id="path2989"
     style="fill:#ffffff"
     d="m 202.79284,299.20187 c 2.36106,-3.13603 24.41106,-30.3521 49,-60.48015 24.58894,-30.12806 44.85716,-55.21556 45.04049,-55.75 C 297.04368,182.35852 287.20322,182 270.16211,182 l -27.00455,0 2.93848,-11.20013 c 14.98566,-57.11849 34.54963,-101.956062 60.08105,-137.696356 3.29895,-4.618067 6.23447,-9.012444 6.52336,-9.765284 0.43857,-1.142897 -4.31853,-1.325016 -28.82458,-1.103514 L 254.52603,22.5 l -8.08665,16 c -18.53461,36.67203 -29.11675,76.39682 -36.89449,138.5 -0.86102,6.875 -1.82428,14.18084 -2.14059,16.23521 l -0.5751,3.73521 30.03018,0.26479 30.03018,0.26479 -33.87698,41.5 c -18.63235,22.825 -34.33862,41.5 -34.90284,41.5 -0.56422,0 -16.30423,-18.675 -34.97781,-41.5 l -33.95196,-41.5 31.0186,-0.2644 31.01861,-0.2644 -0.57888,-3.2356 C 190.31992,191.95602 189.1471,183.3 188.03204,174.5 180.36711,114.00904 168.0795,70.555346 148.13796,33.419318 L 142.27444,22.5 113.63722,22.234665 C 97.886748,22.08873 85,22.232329 85,22.553773 c 0,0.321444 3.760136,6.065845 8.355858,12.765335 C 118.77088,72.368276 137.18269,114.5167 150.9876,167.25 l 3.86136,14.75 -27.92448,0 C 111.56602,182 99,182.26541 99,182.58979 c 0,0.32439 7.56726,9.88689 16.81613,21.25 9.24887,11.36312 31.3047,38.77271 49.01295,60.91021 17.70825,22.1375 32.52849,40.22834 32.93387,40.20187 0.40538,-0.0265 2.66883,-2.61396 5.02989,-5.75 z m 27.85035,37.31577 c 26.21366,-2.80427 42.85528,-6.7627 56.99741,-13.55757 8.56891,-4.11711 13.3594,-8.57008 13.3594,-12.41814 0,-6.07649 -16.95864,-15.4939 -36,-19.99138 -2.33447,-0.5514 -2.36917,-0.50641 -0.52402,0.67948 5.2788,3.39272 8.52402,7.59395 8.52402,11.03511 0,4.60494 -2.65309,7.74392 -9.68627,11.46024 -11.60377,6.13142 -27.06782,9.64734 -49.32765,11.21516 -29.39551,2.07042 -58.02533,-1.73729 -75.65518,-10.06199 C 129.41697,310.66945 126,307.32224 126,302.7994 c 0,-4.10281 1.45579,-6.39178 6.30198,-9.90872 4.00141,-2.90388 4.05752,-3.01406 1.19802,-2.3526 -18.12112,4.19179 -35.5,13.9846 -35.5,20.00385 0,8.0667 21.57915,18.32986 48.5,23.06686 24.98534,4.39642 59.18567,5.57874 84.14319,2.90885 z m 0.64546,35.44268 c 57.01866,-3.4443 104.98149,-15.13394 127.77606,-31.14195 C 366.75547,335.41736 372,328.50293 372,323.76438 372,311.65173 352.60249,298.42939 321.11996,289.08193 315.41093,287.38687 310.47117,286 310.14271,286 c -0.32846,0 2.24676,1.68241 5.72271,3.7387 34.069,20.15435 10.55722,45.14905 -52.86542,56.1997 -47.12515,8.211 -106.80741,6.38853 -148,-4.51936 C 66.864308,328.67259 53.622809,307.19711 83.134582,289.7387 86.610534,287.68241 89.185754,286 88.857293,286 c -0.328462,0 -5.151527,1.35299 -10.717922,3.00664 C 46.232741,298.48537 27,311.55723 27,323.76438 c 0,4.73855 5.244526,11.65298 12.935289,17.05399 32.167062,22.59005 113.581421,35.83989 191.353361,31.14195 z" />
</svg>
