<?xml version="1.0" encoding="UTF-8" standalone="no"?>
<!-- Created with Inkscape (http://www.inkscape.org/) -->

<svg
   xmlns:dc="http://purl.org/dc/elements/1.1/"
   xmlns:cc="http://creativecommons.org/ns#"
   xmlns:rdf="http://www.w3.org/1999/02/22-rdf-syntax-ns#"
   xmlns:svg="http://www.w3.org/2000/svg"
   xmlns="http://www.w3.org/2000/svg"
   xmlns:sodipodi="http://sodipodi.sourceforge.net/DTD/sodipodi-0.dtd"
   xmlns:inkscape="http://www.inkscape.org/namespaces/inkscape"
   id="svg2"
   version="1.1"
   inkscape:version="0.48.3.1 r9886"
   width="400"
   height="400"
   sodipodi:docname="Icon.5_04.png">
  <metadata
     id="metadata8">
    <rdf:RDF>
      <cc:Work
         rdf:about="">
        <dc:format>image/svg+xml</dc:format>
        <dc:type
           rdf:resource="http://purl.org/dc/dcmitype/StillImage" />
        <dc:title></dc:title>
      </cc:Work>
    </rdf:RDF>
  </metadata>
  <defs
     id="defs6" />
  <sodipodi:namedview
     pagecolor="#ffffff"
     bordercolor="#666666"
     borderopacity="1"
     objecttolerance="10"
     gridtolerance="10"
     guidetolerance="10"
     inkscape:pageopacity="0"
     inkscape:pageshadow="2"
     inkscape:window-width="1855"
     inkscape:window-height="1056"
     id="namedview4"
     showgrid="false"
     inkscape:zoom="0.59"
     inkscape:cx="200"
     inkscape:cy="200"
     inkscape:window-x="65"
     inkscape:window-y="24"
     inkscape:window-maximized="1"
     inkscape:current-layer="svg2" />
  <path
     style="fill:#000000"
     d="m 0,0 400,0 0,400 -400,0 z"
     id="rect3025" />
  <path
     id="path2989"
     style="fill:#ffffff"
     d="M 151,269.92287 C 127.04894,267.55203 104.19947,256.28125 86.966288,238.33747 73.230096,224.03488 65.09409,209.61498 60.373623,191.20581 42.81979,122.74829 97.707287,56.171411 168.29477,60.300729 c 25.42825,1.487534 48.43727,11.653053 67.05195,29.623936 11.37233,10.979015 13.60716,14.474055 5.17329,8.090484 C 232.1945,91.713591 217.95368,84.728456 207.5,81.818809 c -6.71903,-1.870157 -10.56193,-2.230025 -24,-2.24748 -15.50332,-0.02014 -16.2949,0.08091 -25.5,3.255041 -13.05185,4.500587 -22.06014,10.103007 -31.53295,19.61092 -8.91281,8.94583 -14.53505,18.47403 -18.62402,31.56271 -3.42942,10.97752 -3.25933,28.28526 0.38607,39.28368 7.06038,21.30171 25.02319,36.6886 46.40225,39.74806 19.88901,2.84623 38.59636,-6.74363 46.75928,-23.96999 2.83468,-5.98207 3.1093,-7.44517 3.1086,-16.56175 -6.9e-4,-8.91043 -0.2909,-10.54478 -2.6636,-15 -4.88491,-9.17239 -13.53378,-15.46866 -23.42012,-17.04955 -8.06906,-1.29029 -18.3079,3.43282 -22.57525,10.41382 -3.09869,5.06917 -3.24948,15.76259 -0.27847,19.74706 3.70592,4.97006 7.02648,6.77329 12.47273,6.77329 4.31029,0 5.4945,-0.4521 8.15619,-3.1138 2.5491,-2.5491 3.13152,-3.96121 3.21154,-7.7866 0.0847,-4.05007 -0.30206,-4.99276 -2.90225,-7.07355 -1.65,-1.3204 -3.81406,-2.40297 -4.80902,-2.4057 -0.99496,-0.003 -1.5309,-0.45497 -1.19098,-1.00497 1.17154,-1.89559 9.04183,-1.10945 12.54805,1.2534 5.2857,3.56203 7.45805,8.17527 7.41496,15.7466 -0.0457,8.03001 -2.47199,13.07746 -9.08403,18.89761 -6.24949,5.50103 -13.25529,7.55168 -23.22368,6.79777 -28.23836,-2.13566 -46.14315,-33.98115 -35.71606,-63.52465 11.15568,-31.6078 45.51701,-48.636694 79.99926,-39.646271 14.6371,3.816273 25.60502,9.837981 36.37545,19.971181 13.17463,12.39515 21.81195,27.22392 26.21369,45.00436 3.72917,15.06364 1.37144,30.42098 -7.57668,49.35152 -7.74414,16.38342 -17.96099,28.9949 -31.92322,39.40539 C 203.8088,265.45096 178.03194,272.59867 151,269.92287 z m 117.37473,71.83803 c 39.50143,-26.56778 61.44527,-57.89219 70.83326,-101.11314 1.87422,-8.62866 2.20752,-13.29143 2.22644,-31.14776 0.0251,-23.64659 -1.36729,-32.66961 -8.10128,-52.5 C 325.39161,133.61362 314.22841,115.81499 292.29417,91.567393 274.85436,72.288242 256.90901,59.158157 237.43793,51.4307 224.4885,46.291477 223.82788,45.937557 228.5,46.642296 c 19.25396,2.904251 45.57234,14.070961 63.74361,27.04598 9.29111,6.634235 25.08661,21.906075 31.98843,30.927944 29.86664,39.04085 40.00909,88.48853 27.88319,135.9395 -9.89575,38.724 -36.4306,74.28715 -70.61523,94.64157 -6.13215,3.65124 -16.51482,8.84335 -13.12527,6.56361 z m -105.43734,5.2802 C 138.19848,342.53086 114.56571,331.77032 95,316.10767 78.161512,302.6282 61.772026,278.67181 53.193898,255 c -3.466431,-9.56581 -6.68776,-22.0275 -7.625701,-29.5 -0.559838,-4.46017 -0.262106,-3.97433 2.757651,4.5 10.553736,29.61688 30.15223,54.67552 56.234572,71.90153 33.22772,21.94516 74.13964,28.80551 113.4953,19.03156 C 276.79636,306.34488 320.436,254.28476 324.87709,193.5 l 0.73063,-10 0.94614,7 c 1.49933,11.09274 1.0725,33.83542 -0.82834,44.13569 -8.46395,45.86468 -38.242,83.9209 -80.29235,102.61329 -18.2805,8.12612 -30.90283,10.77134 -53.93317,11.30261 -14.75827,0.34044 -19.90229,0.0684 -28.56261,-1.51049 z m 61.28112,23.42608 C 276.44088,362.6235 320.40799,333.28398 347.80077,288 c 9.98601,-16.50824 18.32929,-39.6796 21.78413,-60.5 2.22091,-13.38411 2.22436,-39.58064 0.007,-53 C 363.57519,138.08726 347.93119,107.17108 322.5,81.435471 306.35273,65.094918 291.65542,54.616924 272.5,45.789518 248.16597,34.575649 227.15496,30 199.99582,30 160.34099,30 126.54392,41.836017 93.188954,67.404654 77.3362,79.556768 65.289964,93.353841 53.816173,112.5 c -11.665567,19.46617 -19.242138,40.62069 -22.92184,64 -1.622135,10.30637 -1.622135,38.69363 0,49 3.855911,24.49887 12.317034,47.30387 24.777983,66.78332 27.249463,42.59745 69.913894,70.29397 120.424384,78.17607 11.85742,1.85033 35.82854,1.85421 48.12181,0.008 z" />
</svg>
