<?xml version="1.0" encoding="UTF-8" standalone="no"?>
<!-- Created with Inkscape (http://www.inkscape.org/) -->

<svg
   xmlns:dc="http://purl.org/dc/elements/1.1/"
   xmlns:cc="http://creativecommons.org/ns#"
   xmlns:rdf="http://www.w3.org/1999/02/22-rdf-syntax-ns#"
   xmlns:svg="http://www.w3.org/2000/svg"
   xmlns="http://www.w3.org/2000/svg"
   xmlns:sodipodi="http://sodipodi.sourceforge.net/DTD/sodipodi-0.dtd"
   xmlns:inkscape="http://www.inkscape.org/namespaces/inkscape"
   id="svg2"
   version="1.1"
   inkscape:version="0.48.3.1 r9886"
   width="400"
   height="400"
   sodipodi:docname="Icon.6_47.png">
  <metadata
     id="metadata8">
    <rdf:RDF>
      <cc:Work
         rdf:about="">
        <dc:format>image/svg+xml</dc:format>
        <dc:type
           rdf:resource="http://purl.org/dc/dcmitype/StillImage" />
        <dc:title></dc:title>
      </cc:Work>
    </rdf:RDF>
  </metadata>
  <defs
     id="defs6" />
  <sodipodi:namedview
     pagecolor="#ffffff"
     bordercolor="#666666"
     borderopacity="1"
     objecttolerance="10"
     gridtolerance="10"
     guidetolerance="10"
     inkscape:pageopacity="0"
     inkscape:pageshadow="2"
     inkscape:window-width="1855"
     inkscape:window-height="1056"
     id="namedview4"
     showgrid="false"
     inkscape:zoom="0.59"
     inkscape:cx="200"
     inkscape:cy="200"
     inkscape:window-x="65"
     inkscape:window-y="24"
     inkscape:window-maximized="1"
     inkscape:current-layer="svg2" />
  <path
     style="fill:#000000"
     d="m 0,0 400,0 0,400 -400,0 z"
     id="rect3028" />
  <path
     id="path2989"
     style="fill:#ffffff"
     d="m 266.95457,124.84102 c 2.2701,-3.93745 3.7715,-7.48045 3.33645,-7.87335 C 268.84939,115.66575 210.07294,82 209.24157,82 208.37479,82 201,94.318738 201,95.766585 c 0,0.748612 59.44123,35.861085 61.16356,36.129865 0.36495,0.057 2.52091,-3.11799 4.79101,-7.05543 z m -157.4704,-2.6632 C 142.03637,65.696289 148.06004,54.65134 146.8921,53.586949 143.52624,50.519495 107.77372,30.8296 107.01172,31.623725 105.77018,32.91759 29,166.03471 29,166.89363 c 0,1.19601 40.365998,24.15009 41.053446,23.34499 0.346879,-0.40624 18.090704,-31.0336 39.430724,-68.0608 z m 80.65972,135.69664 c 3.96006,-6.66577 4.11813,-7.2097 2.44963,-8.42974 -3.33799,-2.44079 -59.27427,-34.44476 -60.18603,-34.43546 -0.86444,0.009 -8.42903,12.49574 -8.38778,13.84574 0.0148,0.48543 60.64531,35.98646 61.68563,36.11887 0.11294,0.0144 2.11029,-3.18036 4.43855,-7.09941 z m 88.3649,-38.03375 c 15.04629,-26.03739 27.04961,-47.64948 26.67405,-48.02686 -2.09517,-2.10533 -156.79942,-90.583608 -157.37708,-90.006921 -0.38183,0.381189 -12.90739,21.837611 -27.83457,47.680931 -25.822087,44.70558 -27.044526,47.05149 -25.167621,48.29771 5.050326,3.35329 155.735631,90.00325 156.022381,89.71899 0.17928,-0.17773 12.63656,-21.62645 27.68284,-47.66385 z m 51.94706,30.83982 c 21.22475,-36.7507 38.69254,-67.26744 38.81731,-67.81497 0.22488,-0.98689 -37.80375,-23.73168 -39.82588,-23.81972 -0.96874,-0.0422 -78.11482,132.41842 -78.6921,135.11513 -0.29209,1.36442 39.38741,24.8652 40.42751,23.94381 0.37548,-0.33263 18.0484,-30.67354 39.27316,-67.42425 z M 137.10643,321 c 26.41483,-45.8308 29.50359,-51.64066 28.05882,-52.77777 -2.79618,-2.20077 -35.19084,-20.53282 -35.54922,-20.11721 C 128.74059,249.12024 58,371.95467 58,372.45956 c 0,0.31646 11.120429,0.45502 24.712063,0.30791 L 107.42413,372.5 137.10643,321 z" />
</svg>
