<?xml version="1.0" encoding="UTF-8" standalone="no"?>
<!-- Created with Inkscape (http://www.inkscape.org/) -->

<svg
   xmlns:dc="http://purl.org/dc/elements/1.1/"
   xmlns:cc="http://creativecommons.org/ns#"
   xmlns:rdf="http://www.w3.org/1999/02/22-rdf-syntax-ns#"
   xmlns:svg="http://www.w3.org/2000/svg"
   xmlns="http://www.w3.org/2000/svg"
   xmlns:sodipodi="http://sodipodi.sourceforge.net/DTD/sodipodi-0.dtd"
   xmlns:inkscape="http://www.inkscape.org/namespaces/inkscape"
   id="svg2"
   version="1.1"
   inkscape:version="0.48.3.1 r9886"
   width="400"
   height="400"
   sodipodi:docname="Icon.7_79.png">
  <metadata
     id="metadata8">
    <rdf:RDF>
      <cc:Work
         rdf:about="">
        <dc:format>image/svg+xml</dc:format>
        <dc:type
           rdf:resource="http://purl.org/dc/dcmitype/StillImage" />
        <dc:title></dc:title>
      </cc:Work>
    </rdf:RDF>
  </metadata>
  <defs
     id="defs6" />
  <sodipodi:namedview
     pagecolor="#ffffff"
     bordercolor="#666666"
     borderopacity="1"
     objecttolerance="10"
     gridtolerance="10"
     guidetolerance="10"
     inkscape:pageopacity="0"
     inkscape:pageshadow="2"
     inkscape:window-width="1855"
     inkscape:window-height="1056"
     id="namedview4"
     showgrid="false"
     inkscape:zoom="0.59"
     inkscape:cx="200"
     inkscape:cy="200"
     inkscape:window-x="65"
     inkscape:window-y="24"
     inkscape:window-maximized="1"
     inkscape:current-layer="svg2" />
  <path
     style="fill:#000000"
     d="m 0,0 400,0 0,400 -400,0 z"
     id="rect3020" />
  <path
     id="path2989"
     style="fill:#ffffff"
     d="m 130.49789,310.25 c 3.99133,-9.81198 14.8111,-44.25372 15.62048,-49.72346 0.88929,-6.00983 0.77508,-7.82236 -0.78932,-12.52654 -1.59633,-4.80021 -2.40161,-5.79619 -6.32905,-7.82794 -3.87874,-2.00655 -5.54028,-2.26323 -12.03515,-1.85928 -4.36823,0.27168 -10.63633,1.54713 -14.9139,3.03472 l -7.37876,2.56608 14.50591,-14.70679 C 145.00186,203.02541 146.58235,198.00741 133.1016,185 123.4587,175.69569 109.02619,168.07374 85.5,159.86112 c -6.05,-2.11196 -10.325,-3.8395 -9.5,-3.83898 0.825,5.2e-4 9.375,1.35939 19,3.01972 28.31947,4.88515 43,5.06119 43,0.51563 0,-2.35732 -9.64617,-10.18291 -23.07145,-18.71702 -7.09572,-4.51058 -12.75161,-8.35075 -12.56864,-8.53371 0.18296,-0.18296 2.98933,0.84328 6.23637,2.28054 16.72609,7.40358 32.38962,12.38171 39.01886,12.40083 6.34567,0.0183 9.38486,-2.89244 9.38486,-8.98823 0,-4.07637 -2.87331,-13.98765 -6.42662,-22.16818 -0.39855,-0.91755 3.06111,2.06669 7.68815,6.63166 11.45359,11.29997 18.32335,15.75472 25.17141,16.32262 7.21281,0.59814 12.01468,-1.18917 17.84383,-6.64166 9.00672,-8.42473 14.913,-20.4474 25.86217,-52.64434 3.74075,-11 6.57545,-18.425 6.29933,-16.5 -0.27611,1.925 -1.83768,12.724391 -3.47015,23.998647 -3.3642,23.234103 -3.89994,37.706553 -1.43087,38.654023 2.84054,1.09001 8.32921,-5.75669 20.36408,-25.40267 3.45345,-5.6375 6.46947,-10.25 6.70226,-10.25 0.23279,0 -0.30193,1.6875 -1.18827,3.75 -4.40671,10.25438 -13.59554,34.84434 -14.918,39.92161 -1.89853,7.28893 -1.91778,15.61464 -0.0445,19.2372 2.3682,4.57958 6.51944,5.70482 13.69073,3.71103 3.31123,-0.92061 8.70674,-3.02988 11.99004,-4.68728 l 5.96963,-3.01346 -7.0173,8.12062 c -9.36706,10.83985 -12.47712,17.22966 -11.88155,24.41141 1.24268,14.98514 15.47612,23.90324 65.54085,41.06528 4.53489,1.55454 8.05994,3.01174 7.83346,3.23822 -0.22648,0.22648 -7.76184,-0.57821 -16.74524,-1.78819 C 283.68367,220.57897 268,220.98947 268,225.03518 c 0,1.95696 7.82297,8.69047 19.00663,16.35969 14.6199,10.02562 14.7736,10.18518 6.99222,7.2587 -27.25037,-10.24853 -42.24574,-13.77972 -43.59417,-10.26577 -0.83844,2.18494 2.76373,7.52736 12.30957,18.25646 l 7.67122,8.62212 -12.82161,-9.5444 c -15.17739,-11.29805 -20.16628,-14.14913 -28.48979,-16.28151 -12.55988,-3.2177 -24.03961,1.97297 -33.30576,15.05953 -6.06009,8.55865 -12.94455,23.5354 -17.34721,37.73787 -0.97828,3.15583 -1.9256,5.59097 -2.10514,5.41142 -0.17954,-0.17954 0.81005,-6.35767 2.19909,-13.72918 5.56,-29.5063 2.46168,-34.1063 -12.65085,-18.78242 -5.84007,5.92176 -24.21102,30.11352 -32.35929,42.61231 -2.86893,4.4007 -4.24586,5.54546 -3.00702,2.5 z M 113.5,357.80061 c 18.63879,-24.00867 35.74985,-39.75972 43.22695,-39.79123 1.29142,-0.005 2.92977,1.06327 3.89998,2.54399 1.42857,2.18028 1.57775,4.26247 1.02094,14.25 -0.35865,6.43315 -1.54611,16.64663 -2.63879,22.69663 -2.66476,14.75441 -2.68815,14.5 1.33293,14.5 3.22442,0 3.44061,-0.25512 6.14371,-7.25 15.72247,-40.68529 33.27844,-65.84308 53.01428,-75.96968 8.34042,-4.27953 14.60638,-5.75464 24.50318,-5.76845 20.24019,-0.0283 33.73289,7.22939 82.48157,44.36632 8.57571,6.53301 15.79358,11.67681 16.03973,11.43067 0.24614,-0.24614 -7.01491,-8.93106 -16.13566,-19.29981 -18.9133,-21.50124 -23.66696,-27.53714 -25.90412,-32.89144 -2.22896,-5.33463 -0.89023,-6.6195 6.88774,-6.6106 8.27287,0.009 18.83201,2.67427 43.55469,10.99192 C 362.3723,294.84952 372.0208,298 372.36826,298 372.71572,298 373,295.58871 373,292.64158 l 0,-5.35842 -5.75,-3.80659 c -9.0237,-5.97383 -24.43631,-17.91934 -27.88969,-21.61584 -4.41371,-4.72445 -5.03467,-7.37865 -2.16004,-9.23276 3.65124,-2.35502 14.44679,-3.83449 25.29729,-3.46687 L 372.5,249.5 l 0,-10.81135 0,-10.81134 -11,-4.77101 c -31.34116,-13.59354 -47.40353,-25.74564 -55.05391,-41.65144 -4.73552,-9.84555 -4.98227,-17.59651 -0.88593,-27.82897 5.10045,-12.7407 12.4286,-22.57176 30.84195,-41.37589 6.59749,-6.7375 11.74819,-12.25 11.44602,-12.25 -0.30218,0 -7.12794,3.40144 -15.16836,7.55875 C 312.33314,118.07902 303.415,121.26983 294,121.39794 c -6.35528,0.0865 -7.9995,-0.25421 -10.77264,-2.23215 -12.59963,-8.98671 -10.49445,-32.539415 6.8972,-77.16579 2.67931,-6.875 4.87236,-12.8375 4.87345,-13.25 10e-4,-0.4125 -2.61615,-0.75 -5.81611,-0.75 l -5.8181,0 -7.89373,11.703524 C 266.79966,52.558568 260.26495,60 257.64667,60 c -2.94243,0 -3.92608,-4.878942 -3.78019,-18.75 l 0.13935,-13.25 -11.96691,0 -11.96691,0 -5.50379,11.039974 C 211.44081,65.372056 195.74741,80.907048 178.13295,85.006544 161.23196,88.939989 145.27886,79.812186 114.61786,48.665436 98.549797,32.342808 96.990709,31.007229 99.249185,35.5 c 9.123335,18.148992 14.872215,36.704057 14.970155,48.31765 0.0869,10.305707 -1.42331,12.831612 -9.30112,15.556446 -4.8474,1.676654 -6.394606,1.755694 -14.686104,0.750194 C 79.64717,98.840672 65.014441,94.358348 43.736183,85.881571 35.616084,82.646707 28.753584,80 28.486183,80 28.218782,80 28,81.795972 28,83.991048 l 0,3.991049 13.558466,9.020598 c 22.705081,15.105945 31.363263,22.011475 34.006272,27.122495 2.032795,3.93099 1.863206,4.44385 -2.089732,6.31965 C 69.422245,132.368 50.259889,132.68014 39,131.00641 27.108991,129.23887 27.997154,128.4912 28.019332,140.25 l 0.01933,10.25 8.230668,4.38259 c 20.898458,11.12782 38.820415,26.23748 44.097778,37.178 4.090483,8.48 4.452202,14.47004 1.290794,21.37547 -4.320652,9.43755 -16.194735,24.08384 -35.406932,43.67329 L 28,275.71871 l 0,6.24763 c 0,5.54559 0.196647,6.17032 1.75,5.55955 8.202091,-3.22499 18.64116,-4.911 30.75,-4.9664 12.304901,-0.0563 13.307892,0.0917 18.758307,2.76812 10.343735,5.07929 14.257356,13.2492 14.213927,29.67239 -0.03675,13.89582 -1.512523,20.22214 -13.005113,55.75 -0.307415,0.95033 2.285118,1.24637 10.814264,1.23486 l 11.218615,-0.0151 11,-14.16912 z" />
</svg>
