<?xml version="1.0" encoding="UTF-8" standalone="no"?>
<!-- Created with Inkscape (http://www.inkscape.org/) -->

<svg
   xmlns:dc="http://purl.org/dc/elements/1.1/"
   xmlns:cc="http://creativecommons.org/ns#"
   xmlns:rdf="http://www.w3.org/1999/02/22-rdf-syntax-ns#"
   xmlns:svg="http://www.w3.org/2000/svg"
   xmlns="http://www.w3.org/2000/svg"
   xmlns:sodipodi="http://sodipodi.sourceforge.net/DTD/sodipodi-0.dtd"
   xmlns:inkscape="http://www.inkscape.org/namespaces/inkscape"
   id="svg2"
   version="1.1"
   inkscape:version="0.48.3.1 r9886"
   width="400"
   height="400"
   sodipodi:docname="Icon.6_42.png">
  <metadata
     id="metadata8">
    <rdf:RDF>
      <cc:Work
         rdf:about="">
        <dc:format>image/svg+xml</dc:format>
        <dc:type
           rdf:resource="http://purl.org/dc/dcmitype/StillImage" />
        <dc:title></dc:title>
      </cc:Work>
    </rdf:RDF>
  </metadata>
  <defs
     id="defs6" />
  <sodipodi:namedview
     pagecolor="#ffffff"
     bordercolor="#666666"
     borderopacity="1"
     objecttolerance="10"
     gridtolerance="10"
     guidetolerance="10"
     inkscape:pageopacity="0"
     inkscape:pageshadow="2"
     inkscape:window-width="1855"
     inkscape:window-height="1056"
     id="namedview4"
     showgrid="false"
     inkscape:zoom="0.59"
     inkscape:cx="200"
     inkscape:cy="200"
     inkscape:window-x="65"
     inkscape:window-y="24"
     inkscape:window-maximized="1"
     inkscape:current-layer="svg2" />
  <path
     style="fill:#000000"
     d="m 0,0 400,0 0,400 -400,0 z"
     id="rect3056" />
  <path
     id="path3007"
     style="fill:#ffffff"
     d="m 345.09028,352.81745 c 7.95843,-3.95152 17.01617,-12.91087 19.42236,-19.21139 3.1143,-8.15466 0.55913,-15.03563 -7.06933,-19.03744 -5.55285,-2.91297 -17.3314,-2.85533 -22.94331,0.11227 -13.43987,7.10706 -19.98087,22.42212 -14.22508,33.30649 4.52497,8.55684 13.70924,10.34447 24.81536,4.83007 z M 264.49847,204.87001 c 13.20078,-14.61168 11.29395,-36.16906 -3.90379,-44.13374 -3.23491,-1.69532 -5.77446,-2.13379 -12.09468,-2.08824 -7.37251,0.0531 -10.9986,0.90176 -20.75,4.85627 -1.56629,0.63518 -1.75,-0.0157 -1.75,-6.19977 l 0,-6.90944 4.75,-1.66557 c 17.83507,-6.25382 32.69077,-3.94506 44.26251,6.87895 9.87509,9.23699 13.59266,25.54799 9.13107,40.06293 -1.15443,3.75573 -3.00239,8.2911 -4.10658,10.0786 l -2.0076,3.25 -8.63106,0 -8.63106,0 3.73119,-4.12999 z M 197.76279,173.80991 197.5,138.61983 188,135.80616 c -5.225,-1.54752 -10.175,-3.08938 -11,-3.42634 -1.68182,-0.68693 -1.69434,-0.68188 12.25,-4.9422 l 8.75,-2.67333 0,-4.38215 0,-4.38214 6.5,0 6.5,0 0,4.45706 0,4.45705 10.25,3.10342 c 5.6375,1.70689 10.7,3.23509 11.25,3.396 0.55,0.16092 -3.95,1.83843 -10,3.7278 l -11,3.43521 -0.26279,35.21173 -0.2628,35.21173 -6.47441,0 -6.47441,0 -0.2628,-35.19009 z m -69.25428,30.20689 c -6.75225,-13.32493 -7.14609,-28.15505 -1.06011,-39.9186 2.63775,-5.09848 10.91955,-12.89835 16.01395,-15.08206 8.22494,-3.52562 15.60053,-4.53067 23.21799,-3.16384 3.75081,0.67303 8.95716,1.91775 11.56966,2.76606 l 4.75,1.54237 0,7.02663 c 0,6.2957 -0.18204,6.9528 -1.75,6.31694 -9.6921,-3.93046 -13.41743,-4.80712 -20.82842,-4.90146 -7.34003,-0.0934 -8.52585,0.17378 -12.97356,2.9236 -3.03281,1.87503 -6.04655,4.88823 -7.92158,7.92013 -2.75318,4.45185 -3.02644,5.66839 -3.02644,13.47357 0,9.57896 1.91764,14.70295 8.28765,22.14488 l 3.3682,3.93498 -8.56108,0 -8.56108,0 -2.52518,-4.9832 z M 233,243 l 0,-7 -11,0 -11,0 0,7 0,7 11,0 11,0 0,-7 z m -35,0 0,-7 -10,0 -10,0 0,7 0,7 10,0 10,0 0,-7 z m -60,13.5 0,-6.5 13.54569,0 13.54569,0 -0.29569,-6.75 -0.29569,-6.75 -13.25,-0.27903 -13.25,-0.27902 0,-5.87964 0,-5.87963 33.25,-0.34134 c 18.2875,-0.18774 48.2125,-0.19158 66.5,-0.009 l 33.25,0.33279 0,5.91721 0,5.9172 -12.5,0 -12.5,0 0,7 0,7 12.5,0 12.5,0 0,6.5 0,6.5 -66.5,0 -66.5,0 0,-6.5 z m 64,35.79377 c -5.44762,-1.99141 -8.09394,-8.27765 -5.55307,-13.19114 1.91777,-3.70857 4.3359,-5.10263 8.85096,-5.10263 6.64399,0 10.96161,7.90957 7.67247,14.05539 -1.84398,3.44549 -7.33549,5.56713 -10.97036,4.23838 z m 17,13.25396 c 28.1916,-4.27467 51.95667,-18.57538 69.04443,-41.54773 5.55955,-7.47412 12.36175,-21.61622 15.63216,-32.5 2.51737,-8.3777 2.70436,-10.27917 2.70436,-27.5 0,-17.28501 -0.1793,-19.09108 -2.73021,-27.5 -5.70514,-18.80671 -14.4589,-33.25716 -27.98882,-46.20314 -9.50213,-9.09202 -16.59213,-13.98881 -27.97041,-19.3181 C 218.31083,97.217621 183.17748,98.400898 155.12737,114.09628 116.70044,135.598 96.040847,178.5657 103.51676,221.43576 113.0644,276.18599 164.68468,313.78352 219,305.54773 z m -25,13.40373 c -40.78702,-3.69327 -76.47592,-28.81497 -93.9699,-66.14616 -24.198278,-51.63777 -6.748124,-113.25085 41.09017,-145.08135 19.45452,-12.944591 39.35714,-18.809122 63.91938,-18.834566 53.74878,-0.05568 98.7708,35.659066 112.24729,89.042736 3.14981,12.47717 3.13691,39.70694 -0.0248,52.23994 -10.84439,42.98787 -42.34363,75.06876 -84.26219,85.81816 -6.10567,1.56571 -28.08415,4.40058 -30,3.86951 -0.275,-0.0762 -4.325,-0.48495 -9,-0.90827 z m 48,50.99079 c 8.76163,-1.40542 21.77118,-5.97151 28.71104,-10.07699 9.35659,-5.53516 19.41684,-16.16699 23.52849,-24.86526 15.25917,-32.28102 17.21115,-35.40258 27.77836,-44.42259 2.88072,-2.45894 6.86767,-5.2275 8.85989,-6.15236 23.27404,-10.80462 27.83652,-14.37831 33.42909,-26.1843 C 367.26699,251.99189 367.5,250.73379 367.5,241 c 0,-9.31742 -0.30401,-11.14873 -2.69926,-16.26002 -1.4846,-3.16801 -4.77105,-8.45246 -7.30324,-11.74323 -6.62468,-8.60927 -8.77165,-14.05212 -9.28892,-23.54865 -0.58857,-10.80535 1.96064,-19.88032 10.80025,-38.4481 8.2534,-17.33641 9.38062,-21.47584 8.78808,-32.27197 C 366.96236,103.52254 359.16869,93.819433 343.5,88.478449 340.0585,87.305345 333.2011,86.542936 321.5,86.032478 306.41059,85.374206 303.78125,84.994783 298.10473,82.656458 287.47102,78.276114 282.2702,74.270744 263.76852,56.212666 244.144,37.058665 241.17611,35.141677 227.8076,32.985103 210.57989,30.205975 182.01937,36.952678 157.5,49.593505 c -34.17498,17.618724 -42.28425,21.578588 -51.76304,25.276591 -5.919679,2.309469 -17.570857,5.986183 -25.891512,8.170476 -9.766701,2.563901 -17.603036,5.298371 -22.11059,7.715435 -10.083676,5.407121 -19.594199,14.571313 -24.33932,23.453003 -3.594791,6.72855 -3.895289,7.90812 -3.895409,15.29099 -1.63e-4,10.11699 2.221857,14.23595 12.80271,23.7324 18.092466,16.23822 27.086126,34.48377 26.996241,54.7676 -0.07064,15.94201 -5.270231,28.26524 -18.784837,44.52085 -3.619215,4.35325 -7.702183,10.20787 -9.073261,13.01025 -12.856261,26.27725 5.031045,57.24275 37.084508,64.19862 6.712246,1.45661 9.394147,1.51142 22.30213,0.45575 42.29742,-3.45926 57.05348,0.4084 80.28485,21.04319 4.61314,4.09753 10.30392,8.65544 12.64617,10.12869 12.78113,8.03921 31.20431,11.31775 48.24136,8.5849 z" />
</svg>
