<?xml version="1.0" encoding="UTF-8" standalone="no"?>
<!-- Created with Inkscape (http://www.inkscape.org/) -->

<svg
   xmlns:dc="http://purl.org/dc/elements/1.1/"
   xmlns:cc="http://creativecommons.org/ns#"
   xmlns:rdf="http://www.w3.org/1999/02/22-rdf-syntax-ns#"
   xmlns:svg="http://www.w3.org/2000/svg"
   xmlns="http://www.w3.org/2000/svg"
   xmlns:sodipodi="http://sodipodi.sourceforge.net/DTD/sodipodi-0.dtd"
   xmlns:inkscape="http://www.inkscape.org/namespaces/inkscape"
   id="svg2"
   version="1.1"
   inkscape:version="0.48.3.1 r9886"
   width="400"
   height="400"
   sodipodi:docname="Icon.7_57.png">
  <metadata
     id="metadata8">
    <rdf:RDF>
      <cc:Work
         rdf:about="">
        <dc:format>image/svg+xml</dc:format>
        <dc:type
           rdf:resource="http://purl.org/dc/dcmitype/StillImage" />
        <dc:title></dc:title>
      </cc:Work>
    </rdf:RDF>
  </metadata>
  <defs
     id="defs6" />
  <sodipodi:namedview
     pagecolor="#ffffff"
     bordercolor="#666666"
     borderopacity="1"
     objecttolerance="10"
     gridtolerance="10"
     guidetolerance="10"
     inkscape:pageopacity="0"
     inkscape:pageshadow="2"
     inkscape:window-width="1280"
     inkscape:window-height="969"
     id="namedview4"
     showgrid="false"
     inkscape:zoom="0.59"
     inkscape:cx="216.81469"
     inkscape:cy="194.38458"
     inkscape:window-x="0"
     inkscape:window-y="27"
     inkscape:window-maximized="1"
     inkscape:current-layer="svg2" />
  <rect
     style="fill:#000000;fill-opacity:1;stroke:none"
     id="rect2994"
     width="400"
     height="400"
     x="0"
     y="-5.6843419e-14" />
  <path
     id="path2987"
     style="fill:#ffffff"
     d="M 373.28525,371.75 C 366.77254,363.26673 333.29896,321.92833 326.25,313.66354 321.1625,307.69852 317,302.34679 317,301.77079 c 0,-0.57599 3.64379,-8.97255 8.0973,-18.65903 4.45352,-9.68647 8.34915,-18.28676 8.65697,-19.11176 0.30781,-0.825 -2.32347,1.47468 -5.84731,5.11039 -10.97504,11.32351 -22.10943,14.89367 -30.00908,9.62218 -2.04069,-1.36177 -10.23816,-11.82985 -20.52338,-26.20812 l -17.1255,-23.94069 10.95103,-16.38302 c 6.02307,-9.01065 10.72899,-16.60506 10.45759,-16.87645 -0.27139,-0.27139 -6.97017,3.14462 -14.88617,7.59114 C 254.11088,210.02702 251.7778,211 247.3857,211 240.31282,211 232.89952,207.00768 225,198.94452 c -11.66079,-11.90234 -18.08318,-25.24656 -18.78965,-39.04044 -0.54021,-10.54747 0.14723,-12.29892 12.29656,-31.32936 4.80079,-7.51984 8.46537,-13.93577 8.14352,-14.25762 -0.32185,-0.32186 -14.7566,5.55013 -32.07723,13.04886 -17.32062,7.49872 -31.8478,13.61714 -32.28262,13.59649 -0.43482,-0.0206 -2.42691,-1.48315 -4.42686,-3.25 -16.62539,-14.68762 -36.43584,-32.13589 -36.75791,-32.37493 -0.2168,-0.16091 3.97683,-4.84654 9.31919,-10.41252 5.34236,-5.565976 9.54502,-10.288317 9.33924,-10.494092 -0.20577,-0.205774 -7.77018,1.617237 -16.80979,4.051136 l -16.43566,4.425271 -4.50939,-3.795543 C 81.364154,71.734744 30.342381,32.324286 29.535497,33.131169 29.2947,33.371966 37.63183,44.578461 48.062452,58.034491 72.501676,89.562325 72.613749,89.71506 75.10209,94.884518 c 3.975582,8.259162 0.304946,17.065332 -9.894158,23.736922 -10.52839,6.887 -10.011195,6.48634 -7.707932,5.97111 6.134256,-1.37221 38.637382,-6.77537 38.879312,-6.46311 0.157901,0.20381 4.132508,4.98099 8.832468,10.61595 12.71242,15.24145 18.81564,29.13326 18.76626,42.71471 -0.0304,8.35164 -2.17805,12.48083 -13.54673,26.04535 -5.3314,6.36115 -9.50479,11.7544 -9.2742,11.985 0.2306,0.23059 13.45208,-3.38366 29.38108,-8.03167 15.92899,-4.64802 29.82786,-8.4527 30.88637,-8.45486 1.16308,-0.002 8.40374,6.52516 18.30004,16.49767 14.31101,14.42122 16.82191,17.44161 19.91645,23.95785 4.36925,9.20039 5.41616,17.49298 3.00267,23.78415 -0.89809,2.34102 -5.2193,9.63494 -9.60268,16.2087 -4.38338,6.57377 -7.80733,12.11475 -7.60877,12.31331 0.19855,0.19856 10.07146,-5.10492 21.93978,-11.78551 l 21.57877,-12.14653 19.77459,15.2338 c 23.55638,18.14718 24.83485,19.27827 27.61617,24.43264 1.78222,3.30282 2.14262,5.56866 2.06776,13 -0.0891,8.84027 -1.50781,14.89184 -5.8025,24.75 -0.89852,2.0625 -1.29014,3.7126 -0.87026,3.6669 0.41988,-0.0457 3.04198,-2.85821 5.82688,-6.25 6.99321,-8.51718 12.37618,-11.96258 19.49433,-12.47746 7.87038,-0.56929 11.65384,1.35742 29.27112,14.9062 C 344.7489,353.26176 372.11394,373 373.33382,373 c 0.52219,0 0.50146,-0.53355 -0.0486,-1.25 z" />
</svg>
