<?xml version="1.0" encoding="UTF-8" standalone="no"?>
<!-- Created with Inkscape (http://www.inkscape.org/) -->

<svg
   xmlns:dc="http://purl.org/dc/elements/1.1/"
   xmlns:cc="http://creativecommons.org/ns#"
   xmlns:rdf="http://www.w3.org/1999/02/22-rdf-syntax-ns#"
   xmlns:svg="http://www.w3.org/2000/svg"
   xmlns="http://www.w3.org/2000/svg"
   xmlns:sodipodi="http://sodipodi.sourceforge.net/DTD/sodipodi-0.dtd"
   xmlns:inkscape="http://www.inkscape.org/namespaces/inkscape"
   id="svg2"
   version="1.1"
   inkscape:version="0.48.3.1 r9886"
   width="400"
   height="400"
   sodipodi:docname="Icon.3_78.png">
  <metadata
     id="metadata8">
    <rdf:RDF>
      <cc:Work
         rdf:about="">
        <dc:format>image/svg+xml</dc:format>
        <dc:type
           rdf:resource="http://purl.org/dc/dcmitype/StillImage" />
        <dc:title></dc:title>
      </cc:Work>
    </rdf:RDF>
  </metadata>
  <defs
     id="defs6" />
  <sodipodi:namedview
     pagecolor="#ffffff"
     bordercolor="#666666"
     borderopacity="1"
     objecttolerance="10"
     gridtolerance="10"
     guidetolerance="10"
     inkscape:pageopacity="0"
     inkscape:pageshadow="2"
     inkscape:window-width="1855"
     inkscape:window-height="1056"
     id="namedview4"
     showgrid="false"
     inkscape:zoom="0.59"
     inkscape:cx="200"
     inkscape:cy="200"
     inkscape:window-x="65"
     inkscape:window-y="24"
     inkscape:window-maximized="1"
     inkscape:current-layer="svg2" />
  <path
     style="fill:#000000"
     d="m 0,0 400,0 0,400 -400,0 z"
     id="rect3028" />
  <path
     id="path2989"
     style="fill:#ffffff"
     d="m 194,223.92292 c -13.22303,-2.64605 -22.63449,-17.03133 -20.05193,-30.64908 2.45724,-12.95698 12.60923,-21.22992 26.05193,-21.22992 7.80516,0 13.14147,2.16422 18.46667,7.48941 5.32035,5.32035 7.48502,10.65765 7.51137,18.52033 0.0569,16.99238 -15.0929,29.24814 -31.97804,25.86926 z m 9.73763,51.86598 c 1.86478,-6.15852 4.91942,-14.50645 6.78809,-18.55094 12.34866,-26.72706 35.03839,-45.2912 67.72407,-55.41004 5.91238,-1.83035 10.74988,-3.56162 10.75,-3.84725 1.2e-4,-0.28563 -3.74524,-1.55278 -8.32302,-2.8159 C 240.38289,184.04672 215.46719,159.6204 203.49606,119.5 c -3.79622,-12.72276 -3.64794,-12.45836 -4.76676,-8.5 -8.63509,30.55098 -21.44059,51.52367 -40.07546,65.63509 -8.55409,6.47766 -26.095,14.74275 -38.34758,18.06897 -9.35951,2.54083 -12.90692,4.29594 -8.68291,4.29594 0.89284,0 6.24844,1.54765 11.90132,3.43922 39.26714,13.13961 61.52263,35.90608 72.61705,74.28433 1.78448,6.17295 3.46071,11.00735 3.72495,10.74311 0.26425,-0.26424 2.00618,-5.51924 3.87096,-11.67776 z m -16.67948,30.08939 C 162.13512,302.99061 135.7161,288.63512 119.37561,269.10115 108.30462,255.86652 99.809088,238.49395 96.342205,222 c -2.40873,-11.45971 -2.40873,-31.54029 0,-43 6.702795,-31.88904 27.814155,-59.04772 57.138565,-73.50579 13.09426,-6.455985 22.14748,-9.077778 36.55543,-10.586377 20.15872,-2.110739 38.64584,1.294175 57.4638,10.583547 33.30748,16.44203 54.30726,46.7912 58.55233,84.62066 1.34726,12.00595 0.20053,26.28809 -3.06104,38.1242 -2.35377,8.54172 -2.57369,8.86939 -5.27669,7.86185 -11.3789,-4.2415 -26.06849,-0.56382 -35.54711,8.89956 -7.07482,7.06344 -9.66749,13.63518 -9.66749,24.50459 0,7.80213 0.36463,9.73515 2.73519,14.5 3.27578,6.58434 3.61034,6.15279 -9.73519,12.5575 -18.17864,8.7242 -37.28195,11.77022 -58.44185,9.31855 z M 220.5,319.43286 c 15.0507,-2.61005 32.16771,-9.14783 44.7557,-17.09427 l 3.86227,-2.43815 5.69101,2.13393 c 10.89586,4.08557 25.30808,1.90826 33.95608,-5.12987 4.91654,-4.0013 10.02609,-11.67591 11.7875,-17.70495 2.98871,-10.22995 0.34351,-24.42347 -5.76314,-30.9237 l -2.11288,-2.24906 2.67601,-8.7634 c 9.73761,-31.88872 6.87088,-64.09376 -8.26793,-92.88241 C 276.34684,85.928598 204.45086,63.165937 145.62474,93.261891 111.25342,110.84656 88.134958,142.54422 81.367865,181.36431 79.224019,193.6627 79.986343,216.03217 82.957152,228 c 11.814023,47.59247 49.130648,82.78614 96.964578,91.44821 10.40446,1.8841 29.66719,1.87681 40.57827,-0.0154 z M 182,354.90972 C 149.63991,350.74438 121.24543,338.01225 97,316.79556 69.183791,292.45416 51.409202,259.77953 45.432407,222 43.17783,207.74874 43.914943,181.73258 46.97655,167.5 52.948944,139.73596 66.913386,112.35397 84.295129,94.324374 l 4.989651,-5.175626 3.525583,1.889599 c 11.447497,6.135491 27.271477,4.071011 36.825967,-4.804509 7.10737,-6.602297 10.63514,-15.019563 10.53984,-25.148022 l -0.0627,-6.660454 7.69325,-2.679049 c 18.36314,-6.39466 32.64967,-8.752711 52.8848,-8.728854 30.37058,0.03581 55.24701,6.961353 81.80845,22.775306 19.02524,11.327108 38.27708,30.566429 51.32453,51.291155 24.01134,38.1399 29.77616,89.04959 14.99428,132.41608 C 326.94793,313.66395 266.36737,356.68442 199.02623,355.8732 193.23681,355.80345 185.575,355.36989 182,354.90972 z m 46.5,13.16621 c 58.46366,-9.83787 108.68612,-50.04345 130.30221,-104.3134 9.95218,-24.98622 13.97653,-50.29282 12.14454,-76.36943 C 365.3075,107.12364 305.12122,42.1672 225,29.87912 c -12.00407,-1.841048 -39.15998,-1.599116 -51.66099,0.460248 -10.76322,1.773088 -22.82351,4.999101 -33.20974,8.883291 l -6.29729,2.355031 -3.66599,-3.458174 c -6.25141,-5.89703 -13.40763,-8.617923 -22.66599,-8.617923 -9.498001,0 -16.605382,2.82939 -22.887199,9.111208 -8.673833,8.673833 -11.954764,23.226785 -7.735891,34.313451 l 2.064884,5.426252 -4.720897,5.429769 C 50.189056,111.42265 37.113239,138.77165 31.326002,173.5 c -1.877861,11.26877 -2.093527,37.06911 -0.409592,49 9.243531,65.49157 55.257735,120.09351 117.87502,139.8743 24.6047,7.77262 54.63552,9.92075 79.70857,5.70163 z" />
</svg>
