<?xml version="1.0" encoding="UTF-8" standalone="no"?>
<!-- Created with Inkscape (http://www.inkscape.org/) -->

<svg
   xmlns:dc="http://purl.org/dc/elements/1.1/"
   xmlns:cc="http://creativecommons.org/ns#"
   xmlns:rdf="http://www.w3.org/1999/02/22-rdf-syntax-ns#"
   xmlns:svg="http://www.w3.org/2000/svg"
   xmlns="http://www.w3.org/2000/svg"
   version="1.1"
   width="512"
   height="512"
   id="svg2">
  <metadata
     id="metadata8">
    <rdf:RDF>
      <cc:Work
         rdf:about="">
        <dc:format>image/svg+xml</dc:format>
        <dc:type
           rdf:resource="http://purl.org/dc/dcmitype/StillImage" />
        <dc:title></dc:title>
      </cc:Work>
    </rdf:RDF>
  </metadata>
  <defs
     id="defs6" />
  <path
     d="m 0,0 512,0 0,512 -512,0 z"
     id="rect3022"
     style="fill:#000000" />
  <path
     d="m 315.28169,108.92969 c -4.88224,-3.05591 -6.80169,-6.30272 -6.80169,-11.505314 0,-5.460449 2.19514,-9.616889 6.38656,-12.092829 9.52563,-5.626925 20.40689,0.545199 20.46497,11.608258 0.057,10.846415 -11.16004,17.554225 -20.04984,11.989885 z m 19.85558,213.9988 c -4.09582,-2.54097 -6.17727,-6.68679 -6.17727,-12.30391 0,-11.5979 15.12977,-17.38572 23.51858,-8.99691 8.43434,8.43435 2.22406,23.55261 -9.63617,23.45827 -2.35533,-0.0187 -5.82263,-0.98958 -7.70514,-2.15745 z M 101.82175,471.36 c 5.85219,-27.44719 19.72443,-54.47032 38.04482,-74.11135 29.3142,-31.42729 76.95962,-49.90406 117.64991,-45.62432 13.62979,1.43356 30.60189,6.25888 31.44649,8.94052 0.26414,0.83866 -3.83509,4.87066 -9.10939,8.96 -5.2743,4.08933 -9.44503,8.01115 -9.2683,8.71515 0.17674,0.704 24.67869,22.7366 54.44879,48.96133 l 54.12745,47.68135 5.93924,-4.88768 c 3.26659,-2.68822 8.69507,-6.83271 12.0633,-9.20996 9.93284,-7.01049 14.67335,-15.61836 16.83178,-30.56331 l 0.81143,-5.61827 -7.482,6.89827 c -4.11511,3.79405 -10.5073,8.44127 -14.2049,10.32716 l -6.72288,3.42889 -4.68915,-2.76667 c -15.04602,-8.87736 -23.62424,-27.16855 -20.84246,-44.44192 5.54547,-34.43419 45.51706,-49.59781 72.48641,-27.49844 5.44958,4.46552 5.6584,4.8891 4.93751,10.01598 -1.32519,9.42478 -4.45822,19.24421 -8.37945,26.26258 -3.76399,6.7369 -3.77567,6.81692 -0.86298,5.91423 6.89454,-2.13676 14.92218,-7.11918 18.82609,-11.68458 4.52,-5.28588 27.00654,-39.59867 27.00654,-41.20999 0,-0.53784 -3.312,-2.32791 -7.36,-3.97793 -13.82875,-5.63677 -37.88814,-18.19343 -50.15069,-26.1738 -17.85814,-11.62191 -29.94326,-21.75682 -55.1049,-46.21243 C 337.41027,259.32808 328.12376,251.28867 314.29428,241.95663 292.52991,227.27018 269.85043,217.18991 232,205.37958 c -3.20805,-1.00098 -1.34135,0.70482 12.16,11.11193 22.95178,17.69168 42.73975,39.07467 52.1429,56.34593 l 3.24346,5.95743 -14.82614,-4.9549 C 234.16905,256.94574 188.66524,253.21198 146.7222,262.5167 c -18.77934,4.16604 -41.45938,13.40116 -55.518364,22.60662 -3.16215,2.0705 -2.932202,1.31765 3.094857,-10.13246 25.534267,-48.50961 77.421037,-85.73848 137.381307,-98.57143 16.85274,-3.60689 43.18518,-3.88502 56.03942,-0.59188 10.19682,2.61231 10.24986,2.71769 5.78404,11.4914 -1.01872,2.00142 -1.66575,3.80657 -1.43785,4.01143 0.50896,0.45747 140.99569,28.82962 142.75196,28.82962 0.69147,0 1.98393,-2.448 2.87215,-5.44 0.88821,-2.992 3.41304,-9.184 5.61073,-13.76 5.43378,-11.31409 5.69416,-24.0542 0.70635,-34.56 l -3.34236,-7.04 -1.00546,5.12 c -1.25223,6.37667 -4.51508,14.1121 -8.84729,20.97475 -3.2298,5.11633 -3.52109,5.26525 -10.29973,5.26525 -11.32096,0 -20.54667,-4.17189 -29.68758,-13.42479 -6.61596,-6.69702 -8.32745,-9.39044 -10.56,-16.61862 -3.16864,-10.25884 -3.3206,-15.53934 -0.73309,-25.47344 3.27606,-12.57766 12.96454,-23.73937 25.56632,-29.45395 6.83327,-3.0987 21.60611,-4.07936 28.1326,-1.86751 4.73226,1.60378 5.27493,2.31551 8.1418,10.67831 1.68938,4.928 3.38402,13.5105 3.76587,19.07223 l 0.69427,10.11224 3.61056,-4.35224 c 7.97589,-9.6143 9.05156,-13.81244 10.39851,-40.583305 0.68381,-13.591091 0.90666,-25.047712 0.49522,-25.459157 -0.41145,-0.411447 -8.02878,-0.0058 -16.9274,0.901546 -18.97808,1.93499 -45.32668,1.091656 -63.24904,-2.024401 -15.70479,-2.730502 -26.9743,-6.029934 -60.59204,-17.739849 -39.42245,-13.731846 -56.4855,-17.30323 -82.86515,-17.344105 -18.52657,-0.02871 -57.25435,5.360235 -63.67648,8.860534 -0.93152,0.507712 3.86683,1.606458 10.66299,2.441656 36.29343,4.460198 68.71836,17.042895 86.4704,33.555376 5.77189,5.36885 6.41391,6.36432 3.76028,5.830335 C 249.58579,82.934138 206.7684,82.486252 178.80192,86.835891 128.05633,94.72837 82.433884,112.7188 44.16,139.92961 l -7.68,5.46009 -0.324829,164.74515 -0.32483,164.74515 32.620443,0 32.620446,0 0.75052,-3.52 z"
     id="path2989"
     style="fill:#ffffff" />
</svg>
