<?xml version="1.0" encoding="UTF-8" standalone="no"?>
<!-- Created with Inkscape (http://www.inkscape.org/) -->

<svg
   xmlns:dc="http://purl.org/dc/elements/1.1/"
   xmlns:cc="http://creativecommons.org/ns#"
   xmlns:rdf="http://www.w3.org/1999/02/22-rdf-syntax-ns#"
   xmlns:svg="http://www.w3.org/2000/svg"
   xmlns="http://www.w3.org/2000/svg"
   xmlns:sodipodi="http://sodipodi.sourceforge.net/DTD/sodipodi-0.dtd"
   xmlns:inkscape="http://www.inkscape.org/namespaces/inkscape"
   id="svg2"
   version="1.1"
   inkscape:version="0.48.3.1 r9886"
   width="400"
   height="400"
   sodipodi:docname="Icons8_41.png">
  <metadata
     id="metadata8">
    <rdf:RDF>
      <cc:Work
         rdf:about="">
        <dc:format>image/svg+xml</dc:format>
        <dc:type
           rdf:resource="http://purl.org/dc/dcmitype/StillImage" />
        <dc:title></dc:title>
      </cc:Work>
    </rdf:RDF>
  </metadata>
  <defs
     id="defs6" />
  <sodipodi:namedview
     pagecolor="#ffffff"
     bordercolor="#666666"
     borderopacity="1"
     objecttolerance="10"
     gridtolerance="10"
     guidetolerance="10"
     inkscape:pageopacity="0"
     inkscape:pageshadow="2"
     inkscape:window-width="1855"
     inkscape:window-height="1056"
     id="namedview4"
     showgrid="false"
     inkscape:zoom="0.59"
     inkscape:cx="200"
     inkscape:cy="200"
     inkscape:window-x="65"
     inkscape:window-y="24"
     inkscape:window-maximized="1"
     inkscape:current-layer="svg2" />
  <path
     style="fill:#000000"
     d="m 0,0 400,0 0,400 -400,0 z"
     id="rect3022" />
  <path
     id="path2989"
     style="fill:#ffffff"
     d="M 246.31382,85.101323 C 242.49957,82.713894 241,80.177321 241,76.112794 c 0,-4.265976 1.71495,-7.513195 4.9895,-9.447523 7.4419,-4.396035 15.94288,0.425937 15.98826,9.068952 0.0445,8.473758 -8.71878,13.714235 -15.66394,9.3671 z M 261.82599,252.28788 C 258.62613,250.30275 257,247.06383 257,242.67545 c 0,-9.06086 11.82013,-13.58259 18.37389,-7.02883 6.58933,6.58933 1.73755,18.40047 -7.52826,18.32677 -1.8401,-0.0146 -4.54893,-0.77311 -6.01964,-1.68551 z M 79.548241,368.25 c 4.572024,-21.44312 15.409712,-42.55494 29.722519,-57.89949 22.90172,-24.55257 60.1247,-38.98755 91.91399,-35.644 10.64827,1.11997 23.90773,4.88975 24.56757,6.98478 0.20636,0.6552 -2.99616,3.8052 -7.11671,7 -4.12055,3.19479 -7.37893,6.25871 -7.24086,6.80871 0.13808,0.55 19.28023,17.76297 42.53812,38.25104 l 42.28707,37.25105 4.64003,-3.8185 c 2.55202,-2.10017 6.79302,-5.33805 9.42445,-7.19528 7.76003,-5.47694 11.46356,-12.20184 13.14983,-23.87758 l 0.63393,-4.38928 -5.84531,5.38928 c -3.21493,2.9641 -8.20883,6.59474 -11.09758,8.06809 l -5.25225,2.67882 -3.6634,-2.16146 c -11.7547,-6.93544 -18.45644,-21.22543 -16.28317,-34.72025 4.3324,-26.90171 35.5602,-38.74829 56.63001,-21.48316 4.25748,3.48869 4.42062,3.81961 3.85743,7.82499 -1.03531,7.36311 -3.48299,15.03454 -6.54645,20.51764 -2.94062,5.2632 -2.94974,5.32572 -0.6742,4.62049 5.38636,-1.66934 11.65795,-5.56186 14.70788,-9.12858 C 353.43239,309.19772 371,282.39085 371,281.13201 c 0,-0.42019 -2.5875,-1.81868 -5.75,-3.10776 -10.80371,-4.40373 -29.60011,-14.21362 -39.18023,-20.44828 -13.95167,-9.07962 -23.39317,-16.99752 -43.0507,-36.10346 -19.4173,-18.87245 -26.67238,-25.15324 -37.47666,-32.44389 -17.00342,-11.47379 -34.72176,-19.349 -64.29241,-28.57582 -2.50629,-0.78202 -1.04793,0.55064 9.5,8.68119 17.93108,13.82163 33.39043,30.52709 40.73664,44.02026 l 2.53395,4.65424 -11.58292,-3.87101 c -39.4931,-13.19862 -75.04295,-16.11562 -107.81095,-8.84631 -14.671364,3.25472 -32.39014,10.46966 -43.373723,17.66142 -2.47043,1.61758 -2.290783,1.02942 2.417857,-7.91598 C 93.619499,176.93848 134.15604,147.85342 181,137.82768 c 13.1662,-2.81788 33.73842,-3.03517 43.7808,-0.46241 7.96626,2.04087 8.0077,2.1232 4.51878,8.97766 -0.79588,1.56361 -1.30137,2.97388 -1.12332,3.13393 C 228.57388,149.83426 338.32914,172 339.70123,172 c 0.54021,0 1.54994,-1.9125 2.24386,-4.25 0.69392,-2.3375 2.66644,-7.175 4.38339,-10.75 4.24514,-8.83913 4.44856,-18.79234 0.55183,-27 l -2.61122,-5.5 -0.78551,4 c -0.97831,4.98177 -3.52741,11.02508 -6.91195,16.38652 -2.52328,3.99714 -2.75085,4.11348 -8.04666,4.11348 -8.8445,0 -16.05209,-3.25929 -23.19342,-10.48812 -5.16872,-5.23204 -6.50582,-7.33628 -8.25,-12.98329 -2.4755,-8.01472 -2.59422,-12.14011 -0.57273,-19.90113 2.55942,-9.826295 10.12855,-18.546385 19.97369,-23.010895 5.33849,-2.420861 16.87977,-3.187 21.97859,-1.458993 3.69708,1.252953 4.12104,1.808989 6.36078,8.342428 1.31983,3.85 2.64377,10.55508 2.94209,14.90018 l 0.5424,7.90019 2.82075,-3.40019 c 6.23116,-7.51117 7.07153,-10.79097 8.12383,-31.705707 0.53423,-10.61804 0.70833,-19.568525 0.38689,-19.889967 -0.32144,-0.321443 -6.27248,-0.0045 -13.22453,0.704333 C 331.58669,59.52055 311.00184,58.861695 297,56.427276 284.73063,54.294071 275.92633,51.71639 249.66247,42.568019 218.86368,31.840014 205.53317,29.04987 184.92407,29.017937 c -14.47388,-0.02243 -44.72996,4.187683 -49.74725,6.922292 -0.72775,0.39665 3.02096,1.255045 8.33046,1.907544 28.35424,3.484529 53.68622,13.314761 67.555,26.215137 4.50929,4.194414 5.01087,4.972125 2.93772,4.554949 C 194.9889,64.792295 161.53781,64.442384 139.689,67.84054 100.04401,74.006539 64.401472,88.061559 34.5,109.32001 l -6,4.26569 L 28.246227,242.29285 27.992454,371 l 25.484721,0 25.484721,0 0.586345,-2.75 z" />
</svg>
