<?xml version="1.0" encoding="UTF-8" standalone="no"?>
<!-- Created with Inkscape (http://www.inkscape.org/) -->

<svg
   xmlns:dc="http://purl.org/dc/elements/1.1/"
   xmlns:cc="http://creativecommons.org/ns#"
   xmlns:rdf="http://www.w3.org/1999/02/22-rdf-syntax-ns#"
   xmlns:svg="http://www.w3.org/2000/svg"
   xmlns="http://www.w3.org/2000/svg"
   xmlns:sodipodi="http://sodipodi.sourceforge.net/DTD/sodipodi-0.dtd"
   xmlns:inkscape="http://www.inkscape.org/namespaces/inkscape"
   id="svg2"
   version="1.1"
   inkscape:version="0.48.3.1 r9886"
   width="400"
   height="400"
   sodipodi:docname="Icon.5_99.png">
  <metadata
     id="metadata8">
    <rdf:RDF>
      <cc:Work
         rdf:about="">
        <dc:format>image/svg+xml</dc:format>
        <dc:type
           rdf:resource="http://purl.org/dc/dcmitype/StillImage" />
        <dc:title></dc:title>
      </cc:Work>
    </rdf:RDF>
  </metadata>
  <defs
     id="defs6" />
  <sodipodi:namedview
     pagecolor="#ffffff"
     bordercolor="#666666"
     borderopacity="1"
     objecttolerance="10"
     gridtolerance="10"
     guidetolerance="10"
     inkscape:pageopacity="0"
     inkscape:pageshadow="2"
     inkscape:window-width="1855"
     inkscape:window-height="1056"
     id="namedview4"
     showgrid="false"
     inkscape:zoom="0.59"
     inkscape:cx="200"
     inkscape:cy="200"
     inkscape:window-x="65"
     inkscape:window-y="24"
     inkscape:window-maximized="1"
     inkscape:current-layer="svg2" />
  <path
     style="fill:#000000"
     d="m 0,0 400,0 0,400 -400,0 z"
     id="rect3020" />
  <path
     id="path2989"
     style="fill:#ffffff"
     d="m 303.37736,148.33886 c -2.47166,-5.05189 -2.75946,-6.6931 -2.67425,-15.25 0.11162,-11.20899 2.34479,-19.43195 8.51402,-31.35014 6.4247,-12.411742 15.17876,-20.28675 24.53287,-22.069366 2.23371,-0.425679 3.25188,-0.236291 3.25603,0.605646 0.009,1.860183 -29.40649,73.70132 -30.18248,73.71397 -0.37205,0.006 -1.92283,-2.53648 -3.44619,-5.65011 z m 20.12528,195.16016 c 31.42977,-6.07024 52.80426,-27.01614 49.41943,-48.42849 -3.41979,-21.63342 -33.06344,-36.14416 -65.69335,-32.15728 -9.63707,1.1775 -22.93234,4.89679 -29.58326,8.27577 -2.11999,1.07706 -3.62564,1.58765 -3.34588,1.13464 C 275.41608,270.51573 356,72.828455 356,71.897387 c 0,-0.549692 -1.6875,-1.697219 -3.75,-2.55006 C 350.1875,68.494486 343.1,65.415415 336.5,62.504946 312.99441,52.13945 297.0105,48.613667 273.5,48.608205 249.54362,48.60264 236.03372,51.271488 190.29395,65.045366 138.90703,80.519804 117.69734,83.397571 91.346332,78.470743 81.55464,76.639997 67.701337,71.877737 58.0471,67.023681 c -4.425905,-2.225301 -8.042774,-3.70348 -8.037487,-3.284842 0.0053,0.418639 2.32697,3.846523 5.159295,7.617522 6.306137,8.396083 17.539654,18.1245 28.74365,24.892492 8.745813,5.283077 25.965792,12.766267 34.281512,14.897527 2.64326,0.67744 4.80593,1.53944 4.80593,1.91554 0,0.3761 -3.27286,3.79272 -7.27303,7.59248 -14.80074,14.05927 -39.98558,23.62058 -69.611334,26.42763 -5.822504,0.55169 -13.067955,0.72901 -16.101003,0.39406 L 24.5,146.86708 l 2.5,2.0431 c 3.858127,3.15302 22.327655,10.94851 32.198514,13.59013 18.230239,4.87873 35.855321,5.46005 57.301486,1.88994 4.95,-0.82401 20.77141,-4.4143 35.15869,-7.97842 35.07423,-8.68882 49.13464,-10.73028 69.84131,-10.14038 24.51758,0.69847 44.19335,5.79934 69.25,17.95283 5.6375,2.73442 10.25,5.08508 10.25,5.2237 0,0.13861 -3.11555,7.85703 -6.92345,17.15202 L 287.1531,203.5 156.82655,204 26.5,204.5 l 0,7 0,7 127.18084,0.25381 127.18084,0.25381 -6.27362,15.24619 L 268.31444,249.5 147.15722,249.754 26,250.008 l 0,6.996 0,6.996 118.06739,0 c 111.99124,0 118.03864,0.0901 117.50884,1.75 -0.3072,0.9625 -3.23405,8.275 -6.50412,16.25 l -5.94558,14.5 -110.56326,0.25437 L 28,297.00873 28,304 l 0,6.99127 110.70903,0.25436 110.70904,0.25437 0.6479,3.16802 c 0.35634,1.74241 1.80136,5.11741 3.21115,7.5 11.04889,18.67301 39.39976,27.28458 70.22552,21.331 z" />
</svg>
