<?xml version="1.0" encoding="UTF-8" standalone="no"?>
<!-- Created with Inkscape (http://www.inkscape.org/) -->

<svg
   xmlns:dc="http://purl.org/dc/elements/1.1/"
   xmlns:cc="http://creativecommons.org/ns#"
   xmlns:rdf="http://www.w3.org/1999/02/22-rdf-syntax-ns#"
   xmlns:svg="http://www.w3.org/2000/svg"
   xmlns="http://www.w3.org/2000/svg"
   version="1.1"
   width="512"
   height="512"
   id="svg2">
  <metadata
     id="metadata8">
    <rdf:RDF>
      <cc:Work
         rdf:about="">
        <dc:format>image/svg+xml</dc:format>
        <dc:type
           rdf:resource="http://purl.org/dc/dcmitype/StillImage" />
        <dc:title></dc:title>
      </cc:Work>
    </rdf:RDF>
  </metadata>
  <defs
     id="defs6" />
  <path
     d="m 0,0 512,0 0,512 -512,0 z"
     id="rect3020"
     style="fill:#000000" />
  <path
     d="m 388.32302,189.87374 c -3.16372,-6.46642 -3.53211,-8.56717 -3.42304,-19.52 0.14287,-14.34751 3.00133,-24.8729 10.89795,-40.12818 8.22361,-15.88703 19.42881,-25.96704 31.40207,-28.24879 2.85915,-0.54487 4.16241,-0.30245 4.16772,0.77523 0.0115,2.38103 -37.64031,94.33769 -38.63358,94.35388 -0.47622,0.008 -2.46122,-3.24669 -4.41112,-7.23214 z m 25.76036,249.80501 c 40.2301,-7.76991 67.58945,-34.58066 63.25687,-61.98847 -4.37733,-27.69078 -42.3212,-46.26453 -84.08749,-41.16132 -12.33545,1.5072 -29.35339,6.26789 -37.86657,10.59299 -2.71359,1.37863 -4.64082,2.03219 -4.28273,1.45233 C 352.53258,346.26013 455.68,93.220422 455.68,92.028655 c 0,-0.703605 -2.16,-2.17244 -4.8,-3.264076 -2.64,-1.091637 -11.712,-5.032848 -20.16,-8.758248 C 400.63284,66.738496 380.17344,62.225494 350.08,62.218502 319.41583,62.211402 302.12316,65.627505 243.57626,83.258068 177.801,103.06535 150.6526,106.74889 116.9233,100.44255 104.38994,98.099196 86.657711,92.003503 74.300288,85.790312 68.63513,82.941926 64.005537,81.049857 64.012305,81.585714 c 0.0068,0.535858 2.978521,4.923549 6.603897,9.750428 8.071856,10.746988 22.450757,23.199358 36.791868,31.862388 11.19464,6.76234 33.23622,16.34082 43.88034,19.06884 3.38337,0.86712 6.15159,1.97048 6.15159,2.45189 0,0.48141 -4.18926,4.85468 -9.30948,9.71837 -18.94495,17.99587 -51.181541,30.23434 -89.102506,33.82737 -7.452805,0.70616 -16.726982,0.93313 -20.609284,0.50439 l -7.05873,-0.77953 3.2,2.61517 c 4.938403,4.03587 28.579398,14.01409 41.214098,17.39537 23.334706,6.24477 45.894812,6.98886 73.345902,2.41912 6.336,-1.05473 26.5874,-5.6503 45.00312,-10.21238 44.89502,-11.12169 62.89234,-13.73476 89.39688,-12.97968 31.3825,0.89404 56.56749,7.42315 88.64,22.97962 7.216,3.50006 13.12,6.5089 13.12,6.68633 0,0.17743 -3.9879,10.057 -8.86202,21.95459 l -8.86201,21.632 -166.81799,0.64 -166.81798,0.64 0,8.96 0,8.96 162.79148,0.32488 162.79147,0.32487 -8.03023,19.51513 -8.03024,19.51512 -155.08124,0.32512 -155.08124,0.32512 0,8.95488 0,8.95488 151.12626,0 c 143.34879,0 151.08946,0.11533 150.41131,2.24 -0.39321,1.232 -4.13958,10.592 -8.32527,20.8 l -7.61034,18.56 -141.52097,0.32559 -141.52099,0.32558 0,8.94883 0,8.94883 141.70756,0.32558 141.70757,0.32559 0.82931,4.05507 c 0.45612,2.23028 2.30574,6.55028 4.11027,9.6 14.14258,23.90145 50.4317,34.92426 89.88867,27.30368 z"
     id="path2989"
     style="fill:#ffffff" />
</svg>
