<?xml version="1.0" encoding="UTF-8" standalone="no"?>
<!-- Created with Inkscape (http://www.inkscape.org/) -->

<svg
   xmlns:dc="http://purl.org/dc/elements/1.1/"
   xmlns:cc="http://creativecommons.org/ns#"
   xmlns:rdf="http://www.w3.org/1999/02/22-rdf-syntax-ns#"
   xmlns:svg="http://www.w3.org/2000/svg"
   xmlns="http://www.w3.org/2000/svg"
   xmlns:sodipodi="http://sodipodi.sourceforge.net/DTD/sodipodi-0.dtd"
   xmlns:inkscape="http://www.inkscape.org/namespaces/inkscape"
   id="svg2"
   version="1.1"
   inkscape:version="0.48.3.1 r9886"
   width="400"
   height="400"
   sodipodi:docname="Icon.7_27.png">
  <metadata
     id="metadata8">
    <rdf:RDF>
      <cc:Work
         rdf:about="">
        <dc:format>image/svg+xml</dc:format>
        <dc:type
           rdf:resource="http://purl.org/dc/dcmitype/StillImage" />
        <dc:title></dc:title>
      </cc:Work>
    </rdf:RDF>
  </metadata>
  <defs
     id="defs6" />
  <sodipodi:namedview
     pagecolor="#ffffff"
     bordercolor="#666666"
     borderopacity="1"
     objecttolerance="10"
     gridtolerance="10"
     guidetolerance="10"
     inkscape:pageopacity="0"
     inkscape:pageshadow="2"
     inkscape:window-width="1855"
     inkscape:window-height="1056"
     id="namedview4"
     showgrid="false"
     inkscape:zoom="0.59"
     inkscape:cx="200"
     inkscape:cy="200"
     inkscape:window-x="65"
     inkscape:window-y="24"
     inkscape:window-maximized="1"
     inkscape:current-layer="svg2" />
  <path
     style="fill:#000000"
     d="m 0,0 400,0 0,400 -400,0 z"
     id="rect3018" />
  <path
     id="path2989"
     style="fill:#ffffff"
     d="m 224.34683,364.998 c -24.0359,-9.73942 -45.12101,-29.70658 -55.27999,-52.34902 -5.41987,-12.07988 -7.51931,-22.63184 -7.49072,-37.64898 0.0289,-15.18265 1.81203,-23.47808 7.86073,-36.56969 10.42158,-22.55615 30.57732,-39.87783 54.26397,-46.63402 11.32677,-3.23076 29.78855,-3.20287 40.29918,0.0609 13.42237,4.16791 22.58811,9.61903 32.09053,19.08513 13.17085,13.12052 19.46355,26.32315 20.60885,43.2392 2.93067,43.28558 -39.7726,76.20458 -76.38996,58.88731 -8.28398,-3.9177 -17.56665,-12.81459 -21.31555,-20.4297 -7.18132,-14.58734 -5.29726,-30.84542 4.85026,-41.85418 C 230,244.10659 235.93917,241.5 245,241.5 c 6.41064,0 8.19077,0.40605 12.25578,2.79554 5.32178,3.12825 10.71885,11.19925 10.73484,16.05333 0.009,2.70533 -2.66214,9.65113 -3.7114,9.65113 -1.64876,0 -9.78513,-7.75645 -9.51864,-9.07417 0.17509,-0.8658 -0.88578,-2.7783 -2.35748,-4.25 C 250.31041,254.58314 248.76549,254 245.31398,254 c -10.39881,0 -17.68548,8.6571 -17.67566,21 0.009,11.38943 6.97283,21.1121 19.24167,26.86483 4.77046,2.23682 6.98368,2.63517 14.64104,2.63517 8.12187,0 9.66681,-0.31794 15.5,-3.18979 25.23869,-12.42577 34.25116,-41.85548 20.74107,-67.72876 -7.23902,-13.86349 -23.82153,-26.27993 -40.2621,-30.14692 -12.3401,-2.90252 -27.71392,-1.2298 -40.75688,4.43448 -9.95469,4.32311 -22.6411,14.95379 -29.46255,24.68837 -3.55369,5.07131 -8.86854,16.53933 -10.86447,23.44262 -2.5625,8.86287 -2.62686,29.73082 -0.12029,39 5.28936,19.55976 18.13725,37.142 35.74912,48.92238 15.21455,10.17685 31.45221,15.08942 49.79304,15.06448 45.56379,-0.0619 85.67597,-34.11173 95.39048,-80.97352 1.63098,-7.86767 1.88238,-12.02164 1.4533,-24.01334 -0.60561,-16.92504 -2.94009,-26.87278 -10.00378,-42.62828 C 346.24377,205.94228 334.2297,177.425 321.98003,148 309.73036,118.575 299.32362,94.0725 298.85395,93.55 298.3791,93.021735 298,102.3336 298,114.52591 l 0,21.92592 -17.14377,-29.47592 C 271.42716,90.764161 263.55216,77.3125 263.35623,77.083333 262.17974,75.70725 262.62002,80.106522 266,103.5 c 2.06612,14.3 3.62237,26.15148 3.45833,26.33663 -0.16404,0.18514 -24.93137,-22.65526 -55.03852,-50.756441 -30.10715,-28.101185 -54.9196,-50.913729 -55.13879,-50.694542 -0.21919,0.219186 5.94698,21.428022 13.70259,47.130746 7.75561,25.702727 13.86682,46.966507 13.58047,47.252857 -0.28634,0.28635 -36.1929,-14.11624 -79.79235,-32.005741 C 63.172277,72.874004 27.301834,58.419448 27.059631,58.642271 c -0.242203,0.222823 25.38063,26.274134 56.939629,57.891799 33.40531,33.46742 56.9874,57.835 56.44037,58.32035 -0.5168,0.45852 -25.66332,11.14135 -55.881154,23.73963 L 29.616951,221.5 l 47.411126,0.80294 c 26.076123,0.44161 47.573383,0.96519 47.771703,1.1635 0.19831,0.19832 -9.39683,24.137 -21.32253,53.19707 -11.925711,29.06007 -22.094279,53.89798 -22.596821,55.19536 -0.502542,1.29738 9.106276,-7.3418 21.352931,-19.19817 12.24665,-11.85637 22.38621,-21.01787 22.53236,-20.35887 0.14614,0.65899 2.02253,14.17456 4.16975,30.03458 2.14721,15.86003 4.10121,29.0336 4.34221,29.2746 0.241,0.241 2.18961,-6.09725 4.33025,-14.085 2.14064,-7.98776 4.16667,-14.41132 4.5023,-14.2746 0.33562,0.13672 3.09865,3.19456 6.14007,6.79519 18.52847,21.93526 50.54005,37.39076 78.2497,37.7797 l 5,0.0702 -7.15317,-2.89848 z" />
</svg>
