<?xml version="1.0" encoding="UTF-8" standalone="no"?>
<!-- Created with Inkscape (http://www.inkscape.org/) -->

<svg
   xmlns:dc="http://purl.org/dc/elements/1.1/"
   xmlns:cc="http://creativecommons.org/ns#"
   xmlns:rdf="http://www.w3.org/1999/02/22-rdf-syntax-ns#"
   xmlns:svg="http://www.w3.org/2000/svg"
   xmlns="http://www.w3.org/2000/svg"
   version="1.1"
   width="512"
   height="512"
   id="svg2">
  <metadata
     id="metadata8">
    <rdf:RDF>
      <cc:Work
         rdf:about="">
        <dc:format>image/svg+xml</dc:format>
        <dc:type
           rdf:resource="http://purl.org/dc/dcmitype/StillImage" />
        <dc:title></dc:title>
      </cc:Work>
    </rdf:RDF>
  </metadata>
  <defs
     id="defs6" />
  <path
     d="m 0,0 512,0 0,512 -512,0 z"
     id="rect3024"
     style="fill:#000000" />
  <path
     d="M 203.2,120.07098 C 227.312,108.64913 247.02356,98.992584 247.00347,98.61199 246.98337,98.231396 226.98885,83.664 202.57121,66.24 l -44.39572,-31.68 -61.167745,0 -61.167745,0 0,18.591512 0,18.591511 5.44,3.24818 c 14.850863,8.867326 115.68956,65.603217 116.8,65.716367 0.704,0.0717 21.008,-9.21473 45.12,-20.63659 z m 46.6284,143.60838 c 15.01038,-9.85636 27.06074,-18.35236 26.77856,-18.88 -0.28216,-0.52765 -8.20216,-7.78595 -17.6,-16.12955 C 249.60914,220.3262 241.92,213.3049 241.92,213.06691 c 0,-0.23798 50.46973,-25.52882 112.15496,-56.20186 L 466.22991,101.09588 422.23496,67.841923 378.24,34.587965 299.2,34.573983 c -43.472,-0.0077 -79.04,0.235653 -79.04,0.540763 0,0.305109 19.28804,12.155224 42.8623,26.333588 C 302.94922,85.461742 309.28627,89.6 306.13187,89.6 c -0.67057,0 -11.79257,5.109135 -24.71554,11.35363 -12.92298,6.2445 -34.15233,16.38719 -47.17633,22.53932 -13.024,6.15212 -37.216,17.66431 -53.76,25.58265 -16.544,7.91833 -48.07932,22.92832 -70.0785,33.35552 -21.999183,10.4272 -39.756651,19.20039 -39.461046,19.496 1.38183,1.38183 148.764036,79.55864 150.087946,79.61204 0.82962,0.0334 13.78962,-8.00345 28.8,-17.8598 z M 431.15441,381.12 c -18.4803,-16.368 -40.52596,-35.90648 -48.99035,-43.41887 l -15.3898,-13.65885 -8.34714,4.6438 c -4.59091,2.5541 -11.92252,6.70696 -16.29244,9.22858 l -7.94532,4.58477 63.62532,34.05073 c 34.99392,18.72789 64.37119,34.11352 65.28279,34.19028 0.91162,0.0768 -13.46276,-13.25244 -31.94306,-29.62044 z m 45.56025,93.94108 c -0.65706,-0.58094 -39.65419,-31.19725 -86.66027,-68.03624 l -85.46563,-66.97999 13.78563,-7.65849 C 325.95647,328.17418 343.968,318.0231 358.4,309.8284 c 14.432,-8.1947 43.36717,-24.37847 64.30039,-35.96393 20.93321,-11.58546 38.06921,-21.39445 38.08,-21.79776 0.0102,-0.40331 -23.92065,-17.88962 -53.18097,-38.85848 l -53.20056,-38.12518 -35.70056,17.63596 c -19.6353,9.69978 -35.44039,18.05691 -35.12242,18.57141 0.31797,0.51448 9.5519,5.96075 20.51984,12.10281 l 19.94171,11.16737 -17.05872,11.24531 c -45.15237,29.76498 -109.16733,71.8293 -119.75863,78.69356 -6.50095,4.21329 -11.82895,7.96043 -11.84,8.32699 -0.0269,0.89138 301.26513,144.30023 301.97458,143.73376 0.30508,-0.24359 0.017,-0.9182 -0.64,-1.49914 z"
     id="path2989"
     style="fill:#ffffff" />
</svg>
