<?xml version="1.0" encoding="UTF-8" standalone="no"?>
<!-- Created with Inkscape (http://www.inkscape.org/) -->

<svg
   xmlns:dc="http://purl.org/dc/elements/1.1/"
   xmlns:cc="http://creativecommons.org/ns#"
   xmlns:rdf="http://www.w3.org/1999/02/22-rdf-syntax-ns#"
   xmlns:svg="http://www.w3.org/2000/svg"
   xmlns="http://www.w3.org/2000/svg"
   xmlns:sodipodi="http://sodipodi.sourceforge.net/DTD/sodipodi-0.dtd"
   xmlns:inkscape="http://www.inkscape.org/namespaces/inkscape"
   id="svg2"
   version="1.1"
   inkscape:version="0.48.3.1 r9886"
   width="400"
   height="400"
   sodipodi:docname="Icon.2_98.png">
  <metadata
     id="metadata8">
    <rdf:RDF>
      <cc:Work
         rdf:about="">
        <dc:format>image/svg+xml</dc:format>
        <dc:type
           rdf:resource="http://purl.org/dc/dcmitype/StillImage" />
        <dc:title></dc:title>
      </cc:Work>
    </rdf:RDF>
  </metadata>
  <defs
     id="defs6" />
  <sodipodi:namedview
     pagecolor="#ffffff"
     bordercolor="#666666"
     borderopacity="1"
     objecttolerance="10"
     gridtolerance="10"
     guidetolerance="10"
     inkscape:pageopacity="0"
     inkscape:pageshadow="2"
     inkscape:window-width="1280"
     inkscape:window-height="969"
     id="namedview4"
     showgrid="false"
     inkscape:zoom="0.59"
     inkscape:cx="203.38983"
     inkscape:cy="200"
     inkscape:window-x="0"
     inkscape:window-y="27"
     inkscape:window-maximized="1"
     inkscape:current-layer="svg2" />
  <rect
     style="fill:#000000;fill-opacity:1;stroke:none"
     id="rect3028"
     width="400"
     height="400"
     x="0"
     y="0" />
  <path
     id="path2989"
     style="fill:#ffffff"
     d="m 322.8,57.8 c 1.67494,-1.674942 1.67494,-29.925058 0,-31.6 C 321.88003,25.28003 293.66032,25 201.87143,25 94.360606,25 81.9825,25.160357 80.571429,26.571429 79.298125,27.844732 79,30.702946 79,41.63717 79,49.059042 79.465833,56.001899 80.035184,57.065741 81.04983,58.961626 83.456341,59 201.33518,59 293.54115,59 321.87997,58.720029 322.8,57.8 z M 209.5399,191.448 c 8.02032,-2.08848 13.75744,-5.60121 21.09415,-12.91556 16.05207,-16.00314 29.0946,-44.78886 35.35576,-78.03244 2.24531,-11.921439 3.78623,-27.972971 2.85595,-29.75 -0.85861,-1.640137 -5.12209,-1.75 -67.91233,-1.75 -61.27236,0 -67.05017,0.140634 -67.62786,1.646093 -0.89955,2.34417 1.3839,20.760091 4.32164,34.853907 6.74722,32.36981 19.39529,58.78883 35.3512,73.84082 12.66303,11.94566 23.45621,15.51978 36.56149,12.10718 z m 94.48485,135.9869 C 304.63959,325.81775 305,278.53856 305,199.5 305,120.46144 304.63959,73.18225 304.02475,71.5651 303.09845,69.128743 302.67594,69 295.60654,69 c -4.09363,0 -8.15477,0.273145 -9.02475,0.606989 C 285.15069,70.156153 285,82.532632 285,199.52366 c 0,102.51207 0.25904,129.4142 1.25,129.81406 0.6875,0.27741 4.74864,0.53991 9.02475,0.58333 7.4573,0.0757 7.81457,-0.0258 8.75,-2.48615 z m -35.08855,1.14197 c 2.67984,-3.229 -3.4142,-39.61381 -10.03612,-59.92124 -9.86208,-30.24406 -25.37883,-52.61032 -42.42334,-61.15017 -5.31113,-2.66104 -6.98138,-2.99514 -14.99777,-3 -8.24763,-0.005 -9.61432,0.28662 -15.94134,3.4014 -19.29078,9.49682 -36.2205,36.76471 -45.66675,73.55322 -4.22842,16.46765 -7.95944,43.26079 -6.53947,46.96117 0.54358,1.41657 7.47929,1.57875 67.51476,1.57875 56.64835,0 67.09006,-0.21824 68.09003,-1.42313 z M 118.02475,327.4349 c 1.32934,-3.49643 1.32934,-252.373372 0,-255.8698 C 117.09845,69.128743 116.67594,69 109.60654,69 c -4.09363,0 -8.15477,0.273145 -9.02475,0.606989 C 99.150689,70.156153 99,82.532632 99,199.52366 c 0,102.51207 0.259045,129.4142 1.25,129.81406 0.6875,0.27741 4.74864,0.53991 9.02475,0.58333 7.4573,0.0757 7.81457,-0.0258 8.75,-2.48615 z m 204.04099,45.52992 C 323.84401,372.01312 324,370.7389 324,357.16482 324,347.0144 323.62497,342.02497 322.8,341.2 321.87997,340.27997 293.54115,340 201.33518,340 83.456341,340 81.04983,340.03837 80.035184,341.93426 79.465833,342.9981 79,349.94096 79,357.36283 c 0,10.93422 0.298125,13.79244 1.571429,15.06574 C 81.982392,373.83953 94.293855,374 201.13717,374 c 80.11344,0 119.62632,-0.33824 120.92857,-1.03518 z" />
</svg>
