<?xml version="1.0" encoding="UTF-8" standalone="no"?>
<!-- Created with Inkscape (http://www.inkscape.org/) -->

<svg
   xmlns:dc="http://purl.org/dc/elements/1.1/"
   xmlns:cc="http://creativecommons.org/ns#"
   xmlns:rdf="http://www.w3.org/1999/02/22-rdf-syntax-ns#"
   xmlns:svg="http://www.w3.org/2000/svg"
   xmlns="http://www.w3.org/2000/svg"
   version="1.1"
   width="512"
   height="512"
   id="svg2">
  <metadata
     id="metadata8">
    <rdf:RDF>
      <cc:Work
         rdf:about="">
        <dc:format>image/svg+xml</dc:format>
        <dc:type
           rdf:resource="http://purl.org/dc/dcmitype/StillImage" />
        <dc:title></dc:title>
      </cc:Work>
    </rdf:RDF>
  </metadata>
  <defs
     id="defs6" />
  <path
     d="m 0,0 512,0 0,512 -512,0 z"
     id="rect3032"
     style="fill:#000000;fill-opacity:1;fill-rule:nonzero;stroke:none" />
  <path
     d="m 354.00774,198.75 c -0.9869,-4.5375 -3.4917,-16.04864 -5.56623,-25.5803 l -3.77186,-17.33031 -3.53493,0.66316 c -10.21696,1.91671 -30.16863,12.01115 -41.35655,20.92412 -7.89,6.28565 -20.23932,21.46519 -18.69634,22.98118 0.50471,0.49588 63.47253,6.31809 70.06922,6.47882 L 355.8021,207 354.00774,198.75 z M 200.5,203.89333 c 19.25,-1.71486 35.18793,-3.29283 35.41763,-3.50659 0.71907,-0.6692 -4.21457,-8.90445 -9.10193,-15.19297 -9.12466,-11.74062 -27.23066,-22.7021 -45.5657,-27.58573 -5.0875,-1.35508 -9.25,-2.13445 -9.25,-1.73194 0,0.67461 -9.24962,43.76392 -10.49135,48.8739 -0.69518,2.8608 -3.40764,2.9204 38.99135,-0.85667 z m 50.43044,52.17441 7.43043,-9.90189 7.41991,9.66707 c 4.08096,5.3169 7.87575,9.66708 8.43289,9.66708 1.22398,0 14.71489,-9.73094 14.75678,-10.64401 0.024,-0.52312 -27.51183,-37.45534 -29.91713,-40.12612 -0.79923,-0.88744 -31.33859,38.94944 -30.86609,40.26308 0.43688,1.21461 13.09092,10.88119 14.31277,10.9337 0.55,0.0236 4.3437,-4.41287 8.43044,-9.85891 z m -21.91524,55.36918 c -5.96686,-16.7497 -9.70932,-25.94798 -10.20034,-25.07058 -0.42656,0.76223 -4.20898,11.22912 -8.40537,23.25976 -4.1964,12.03065 -7.9608,22.23196 -8.36534,22.66959 -0.92841,1.00435 -6.39398,-11.13699 -10.05816,-22.34344 -7.83837,-23.97268 -7.9673,-46.75057 -0.41142,-72.68825 l 0.65137,-2.236 -31.95589,-0.264 -31.95589,-0.264 17.18159,-71.10838 c 9.44987,-39.10961 17.42471,-71.741958 17.72186,-72.516328 1.0378,-2.704444 40.53056,-13.011765 60.89677,-15.893607 13.03938,-1.845087 33.78762,-2.596749 50.42174,-1.826665 23.31843,1.079537 43.36321,4.832103 67.22932,12.585946 11.02466,3.581792 11.28576,3.73589 12.2156,7.209528 C 355.84987,99.931949 388,233.42712 388,234.20552 388,234.64248 373.825,235 356.5,235 c -17.325,0 -31.5,0.34047 -31.5,0.7566 0,0.41613 0.45887,2.32863 1.01972,4.25 C 328.0022,246.79828 330,263.1075 330,272.5 c 0,10.61728 -1.94872,25.17722 -4.88521,36.5 -2.6382,10.17264 -9.19899,25.61996 -10.13496,23.86268 -0.3992,-0.74947 -4.26473,-11.60018 -8.59008,-24.11268 -4.32535,-12.5125 -8.14437,-22.75 -8.48671,-22.75 -0.34234,0 -4.80748,11.475 -9.92254,25.5 -5.11505,14.025 -9.59264,25.5 -9.95019,25.5 -0.35755,0 -4.83154,-10.6191 -9.9422,-23.59801 -5.11065,-12.9789 -9.66055,-23.2164 -10.11089,-22.75 -0.45033,0.46641 -4.94559,11.19801 -9.98945,23.84801 -5.04387,12.65 -9.25552,23.08851 -9.35924,23.19668 -0.10371,0.10818 -4.42971,-11.70872 -9.61333,-26.25976 z M 160.35704,388.388 C 127.78762,346.25721 104.22168,285.50595 93.09834,215 88.988356,188.94862 86.23976,156.71868 85.743754,128.76039 85.534084,116.94198 85.709744,115.08308 87,115.46631 c 7.454434,2.21411 22.44302,3.90794 34.7179,3.9234 13.81034,0.0174 14.20414,0.0766 13.73777,2.0641 -0.26407,1.1254 -1.05649,4.96671 -1.76095,8.53622 -1.27902,6.48093 -1.28637,6.49103 -5.23777,7.20004 -2.17632,0.39049 -8.63857,0.43673 -14.36055,0.10275 l -10.4036,-0.60725 0.70105,13.90722 c 1.82327,36.16944 7.80682,76.99697 15.74125,107.40721 11.6369,44.60068 26.002,77.82625 48.20709,111.5 1.09786,1.6649 1.05402,4.08051 -0.26168,14.41717 L 166.5,396.33433 160.35704,388.388 z m 189.42469,-1.84667 -1.66514,-11.45867 8.56459,-12.79133 c 9.30353,-13.89494 21.71067,-38.34862 28.30701,-55.79133 15.91621,-42.08722 26.61815,-94.34582 29.48949,-144 0.31805,-5.5 0.83752,-13.4875 1.15438,-17.75 l 0.5761,-7.75 -15.0037,0 -15.0037,0 -1.66961,-7.75 c -0.91828,-4.2625 -1.85874,-8.425 -2.08991,-9.25 -0.3632,-1.29617 1.7185,-1.46097 15.31922,-1.21281 12.00665,0.21909 18.1705,-0.15375 25.98954,-1.57205 l 10.25,-1.85926 -0.01,8.57206 c -0.015,13.47166 -1.86553,46.1151 -3.5471,62.57206 -8.51554,83.33849 -33.19252,154.26134 -70.12493,201.54245 -4.27794,5.47665 -8.0241,9.95755 -8.32481,9.95755 -0.3007,0 -1.29604,-5.1564 -2.21187,-11.45867 z M 239,446.44717 c -15.85959,-3.40085 -32.90648,-11.77202 -49.06328,-24.09335 L 185,418.58903 l 0.008,-9.04452 c 0.0118,-13.05016 1.68846,-25.78825 4.49459,-34.14757 C 191.74004,368.73231 199.63069,354 200.96304,354 c 0.30892,0 3.70611,12.37349 7.54932,27.49664 3.8432,15.12315 7.25852,27.49815 7.5896,27.5 0.33108,0.002 2.10277,-3.25914 3.93709,-7.24664 1.83431,-3.9875 6.8131,-14.39808 11.06397,-23.13463 l 7.72886,-15.88463 9.24872,28.38463 c 5.08679,15.61155 9.53835,28.72586 9.89235,29.14292 0.354,0.41706 4.86617,-12.29917 10.02705,-28.25829 5.16088,-15.95912 9.71823,-28.67535 10.12746,-28.25829 0.40922,0.41706 5.07687,10.43329 10.37254,22.25829 5.29567,11.825 9.98847,21.86638 10.42844,22.31419 0.43996,0.4478 4.06836,-10.8022 8.0631,-25 3.99474,-14.19781 7.5776,-26.66742 7.96192,-27.71025 0.57688,-1.56537 1.49558,-0.69334 5.26755,5 10.1252,15.28279 13.7598,30.30275 12.9409,53.47824 L 333,418.66436 l -8.75,6.01409 c -16.69453,11.47456 -32.26583,18.60574 -47.45784,21.73426 -9.47898,1.95202 -28.76775,1.96961 -37.79216,0.0345 z m 26.5,35.63134 C 301.11323,470.6579 328.48552,454.077 356.36315,427.03771 421.65308,363.71116 462.18963,254.83526 472.54068,115 c 0.7939,-10.725 1.44702,-25.962581 1.45139,-33.861291 L 474,66.777418 l -3.25,0.6085 c -15.85323,2.968214 -47.90669,3.47537 -70.25,1.111508 C 354.14844,63.593558 299.33933,48.73096 266.10801,32.054323 l -10.39198,-5.215062 -12.10802,6.004195 C 193.25435,57.813134 125.62494,72.884281 74,70.640431 60.798185,70.066622 55.791287,69.548685 43.350828,67.469938 L 39.201655,66.77663 39.631649,79.638315 C 42.489801,165.12943 57.120212,242.04627 83.068501,308 c 6.524823,16.58439 24.190739,51.88748 32.944719,65.83587 31.83316,50.72218 72.87747,86.34524 119.98678,104.13858 7.27308,2.74707 18.98458,6.80448 20,6.92894 0.275,0.0337 4.55,-1.23749 9.5,-2.82488 z"
     id="path2989"
     style="fill:#ffffff" />
</svg>
