<?xml version="1.0" encoding="UTF-8" standalone="no"?>
<!-- Created with Inkscape (http://www.inkscape.org/) -->

<svg
   xmlns:dc="http://purl.org/dc/elements/1.1/"
   xmlns:cc="http://creativecommons.org/ns#"
   xmlns:rdf="http://www.w3.org/1999/02/22-rdf-syntax-ns#"
   xmlns:svg="http://www.w3.org/2000/svg"
   xmlns="http://www.w3.org/2000/svg"
   version="1.1"
   width="512"
   height="512"
   id="svg2">
  <metadata
     id="metadata8">
    <rdf:RDF>
      <cc:Work
         rdf:about="">
        <dc:format>image/svg+xml</dc:format>
        <dc:type
           rdf:resource="http://purl.org/dc/dcmitype/StillImage" />
        <dc:title></dc:title>
      </cc:Work>
    </rdf:RDF>
  </metadata>
  <defs
     id="defs6" />
  <path
     d="m 0,0 512,0 0,512 -512,0 z"
     id="rect3022"
     style="fill:#000000;fill-opacity:1;fill-rule:nonzero;stroke:none" />
  <path
     d="m 312.32418,304.62373 c -5.77108,-1.89188 -10.50886,-4.97887 -14.61236,-9.52096 -7.76234,-8.59198 -11.61165,-18.34734 -15.23202,-38.60277 -1.96475,-10.99249 -9.46798,-45.38199 -11.04441,-50.61979 -0.34519,-1.14693 0.32288,-1.78597 2.28855,-2.18904 1.52683,-0.3131 5.51415,-1.21442 8.86071,-2.00295 l 6.08464,-1.4337 4.33368,19.37274 C 295.3865,230.28227 297.71722,239 298.18235,239 c 0.46514,0 2.47346,-1.0125 4.46294,-2.25 3.22035,-2.00312 5.41275,-5.89977 19.9813,-35.51351 l 16.36405,-33.26352 7.94479,3.99456 7.94478,3.99456 -9.29488,19.26896 c -5.11219,10.59792 -10.96412,22.57757 -13.00429,26.62143 -2.04017,4.04387 -3.56802,7.45323 -3.39522,7.57635 0.1728,0.12312 2.04633,1.2663 4.16339,2.54039 l 3.84921,2.31653 23.16919,-23.15345 23.16919,-23.15346 6.4816,6.55653 6.4816,6.55654 -23.30199,22.70404 -23.30198,22.70405 2.09282,3.34132 c 1.51198,2.41397 2.56718,3.15959 3.80199,2.68655 0.94004,-0.36012 14.00339,-7.41948 29.02968,-15.68747 15.02628,-8.26799 27.4983,-14.85491 27.7156,-14.63761 1.52667,1.52666 8.40518,15.32696 7.76568,15.58022 -0.44099,0.17466 -13.6268,7.41259 -29.3018,16.0843 l -28.5,15.76674 0.23802,3.83766 c 0.13091,2.11071 0.45927,4.05891 0.7297,4.32934 0.27042,0.27042 12.29177,-2.48323 26.7141,-6.11923 14.42233,-3.636 26.39243,-6.4409 26.60023,-6.23311 1.0594,1.05941 4.2226,15.93986 3.52742,16.59385 -0.44521,0.41883 -15.43447,4.43624 -33.30947,8.92758 -17.875,4.49135 -36.775,9.52673 -42,11.18973 -11.32736,3.60526 -25.85295,4.70054 -32.67582,2.46386 z M 190.5,305.37459 c -1.1,-0.27573 -5.375,-1.57384 -9.5,-2.88468 -4.125,-1.31085 -22.8,-6.25231 -41.5,-10.98103 -18.7,-4.72872 -34.51869,-8.77176 -35.15265,-8.98453 -0.8259,-0.2772 -0.57059,-2.74496 0.90068,-8.70561 1.12933,-4.57531 2.16582,-8.46153 2.3033,-8.63606 0.13748,-0.17452 11.71377,2.63798 25.72508,6.25 14.0113,3.61203 25.95069,6.56732 26.53196,6.56732 0.58127,0 1.31218,-0.9 1.62424,-2 0.31207,-1.1 0.80732,-2.85148 1.10056,-3.89219 0.45141,-1.60202 -3.99574,-4.37864 -29,-18.10644 C 117.28993,245.08353 104,237.40051 104,236.92798 c 0,-1.1392 6.97092,-13.79198 7.9226,-14.38015 0.4086,-0.25252 13.39997,6.49591 28.86972,14.99652 C 156.26206,246.04496 169.2903,253 169.74396,253 c 0.45365,0 1.6533,-1.40249 2.66588,-3.11665 l 1.84105,-3.11666 -23.12654,-23.14225 -23.12653,-23.14226 6.24218,-6.24218 6.24218,-6.24218 23.11204,23.09634 23.11204,23.09634 4.14687,-2.11557 C 193.13391,230.91136 195,229.58477 195,229.12694 c 0,-0.45782 -5.625,-12.32435 -12.5,-26.37006 -6.875,-14.04571 -12.5,-25.93831 -12.5,-26.42799 0,-0.86276 14.98503,-8.73143 15.48002,-8.12858 0.13534,0.16483 7.26763,14.69969 15.84953,32.29969 14.36267,29.45538 15.97585,32.30219 20.28672,35.80023 2.5758,2.09012 5.00519,3.44012 5.39864,3 0.39346,-0.44013 2.44314,-9.06219 4.55485,-19.16014 2.17695,-10.40989 4.37269,-18.56451 5.07089,-18.83244 1.56426,-0.60026 16.35935,2.65362 16.35935,3.59791 0,0.38764 -1.33962,6.83385 -2.97693,14.32491 -1.63731,7.49106 -4.78617,22.54123 -6.99746,33.44482 -6.32305,31.17814 -12.50134,42.89422 -26.39741,50.05828 -4.32474,2.2296 -6.61662,2.68288 -14.6282,2.89309 -5.225,0.13709 -10.4,0.0237 -11.5,-0.25207 z M 78.629559,449.47992 c 41.325271,-39.25298 47.838751,-45.05208 55.055051,-49.01673 l 8.18461,-4.49664 9.18763,7.02344 c 25.58997,19.56213 55.30695,32.10463 85.60046,36.12897 l 9.15731,1.2165 6.69991,23.58227 c 3.68496,12.97025 7.0348,23.94291 7.44411,24.38369 0.40931,0.44078 3.83964,-10.07559 7.62295,-23.36971 3.78332,-13.29412 7.33768,-24.28878 7.89858,-24.43256 0.56091,-0.14379 5.46033,-0.77051 10.88762,-1.39271 11.08538,-1.27088 26.48049,-4.93732 36.3847,-8.66526 3.63475,-1.36811 7.06056,-2.33683 7.61292,-2.15271 0.55236,0.18412 8.02967,14.93204 16.61625,32.77315 L 362.5936,493.5 l 10.82364,0.28505 c 8.49931,0.22384 10.71458,0.009 10.31579,-1 -0.27932,-0.70678 -8.23899,-17.36622 -17.68815,-37.02099 -9.44916,-19.65476 -16.91532,-36.16468 -16.59146,-36.6887 0.32386,-0.52402 3.10739,-2.39373 6.18562,-4.15491 3.07823,-1.76118 9.94613,-6.43905 15.262,-10.39526 l 9.66523,-7.1931 21.28408,11.93341 c 11.70624,6.56337 21.52359,11.6939 21.81632,11.40117 0.29273,-0.29273 -4.85816,-10.12499 -11.44642,-21.84946 L 400.24159,377.5 403.63672,373 c 21.42228,-28.39375 33.40633,-56.5608 37.83989,-88.93811 0.86145,-6.29096 1.75909,-11.63092 1.99476,-11.86659 0.23567,-0.23567 8.88852,-2.85284 19.22856,-5.81594 29.32114,-8.40243 29.54214,-8.47062 29.04899,-8.96377 -0.38836,-0.38836 -14.45135,-4.4924 -44.27929,-12.92212 l -5.03037,-1.42164 -1.29632,-9.65922 c -0.71298,-5.31257 -0.92432,-10.00174 -0.46964,-10.42039 0.45469,-0.41864 12.6392,-5.16637 27.0767,-10.55052 l 26.25,-9.78935 0,-10.43316 c 0,-9.53257 -0.15106,-10.3736 -1.75,-9.7431 -11.41009,4.49931 -57.56726,21.53154 -57.75956,21.31357 -0.14055,-0.15931 -1.44482,-3.61063 -2.89837,-7.66959 -5.44773,-15.21254 -17.4942,-36.29325 -28.46362,-49.80988 l -5.02334,-6.18982 12.91055,-23.26374 c 7.10081,-12.79506 12.77527,-23.399038 12.60991,-23.564393 -0.16535,-0.165354 -10.80432,5.528521 -23.64214,12.653053 -12.86799,7.14128 -23.86124,12.63984 -24.49981,12.25421 -3.51641,-2.12355 -13.42963,-9.80706 -13.45447,-10.42826 -0.016,-0.40082 13.70712,-20.650823 30.49589,-45.000003 L 423.05008,18.5 411.83733,18.215493 c -9.69147,-0.245906 -11.44413,-0.04239 -12.91807,1.5 C 397.98134,20.696972 385.63148,38.375 371.47513,59 c -14.15635,20.625 -26.08486,37.882872 -26.5078,38.350828 -0.42294,0.467955 -4.30469,-0.745587 -8.62611,-2.696761 C 320.45918,87.483124 305.53885,83.270843 283.59677,79.76335 L 275.69355,78.5 268.19286,52.20391 c -4.12537,-14.462849 -7.83365,-25.937849 -8.24061,-25.5 C 259.54529,27.14176 255.96152,38.975 251.9883,53 c -3.97321,14.025 -7.37566,25.667178 -7.561,25.871507 -0.18534,0.204329 -5.1948,1.167511 -11.13214,2.140405 -19.16662,3.140646 -33.99777,7.916434 -52.2686,16.83105 -5.7604,2.810578 -10.81814,4.765458 -11.23943,4.344168 -0.42129,-0.42129 -10.41537,-19.423237 -22.20906,-42.226554 L 126.13498,18.5 115.00718,18.216685 103.87938,17.93337 114.38521,38.216685 C 120.16342,49.372508 131.41624,71.1 139.39148,86.5 l 14.50043,28 -2.69595,2.21902 c -1.48278,1.22046 -3.46326,2.48187 -4.40106,2.80314 -1.08186,0.37061 -9.48877,-3.76849 -23,-11.32394 C 112.0827,101.64879 101.01357,95.525945 99.196819,94.5919 l -3.303181,-1.698262 1.698262,3.303181 c 0.934045,1.816749 7.03298,12.843161 13.55318,24.503131 C 117.66529,132.35993 123,142.21987 123,142.61093 c 0,0.39106 -2.45436,3.97194 -5.45414,7.9575 -18.290781,24.30151 -30.482127,53.36033 -34.691883,82.69023 -1.221364,8.50939 -1.343894,8.78277 -4.305559,9.60608 -22.711145,6.31347 -50.505745,14.51127 -50.208436,14.80857 0.209327,0.20933 11.938974,3.68898 26.065882,7.73255 14.126908,4.04358 25.917004,7.58367 26.200211,7.86688 0.283208,0.28321 1.18215,5.4002 1.997649,11.37109 4.071026,29.80709 15.669588,58.27638 33.709576,82.74193 l 5.07731,6.88577 -3.83293,7.11423 c -2.10811,3.91283 -5.00849,8.40228 -6.4453,9.97656 -1.43681,1.57427 -22.97488,22.21372 -47.86238,45.86543 L 18,480.23087 l 0,6.88457 0,6.88456 6.879559,0 6.879559,0 46.870441,-44.52008 z"
     id="path2989"
     style="fill:#ffffff" />
</svg>
