<?xml version="1.0" encoding="UTF-8" standalone="no"?>
<!-- Created with Inkscape (http://www.inkscape.org/) -->

<svg
   xmlns:dc="http://purl.org/dc/elements/1.1/"
   xmlns:cc="http://creativecommons.org/ns#"
   xmlns:rdf="http://www.w3.org/1999/02/22-rdf-syntax-ns#"
   xmlns:svg="http://www.w3.org/2000/svg"
   xmlns="http://www.w3.org/2000/svg"
   version="1.1"
   width="512"
   height="512"
   id="svg2">
  <metadata
     id="metadata8">
    <rdf:RDF>
      <cc:Work
         rdf:about="">
        <dc:format>image/svg+xml</dc:format>
        <dc:type
           rdf:resource="http://purl.org/dc/dcmitype/StillImage" />
        <dc:title></dc:title>
      </cc:Work>
    </rdf:RDF>
  </metadata>
  <defs
     id="defs6" />
  <path
     d="m 0,0 512,0 0,512 -512,0 z"
     id="rect3019"
     style="fill:#000000;fill-opacity:1;fill-rule:nonzero;stroke:none" />
  <path
     d="m 67.436423,373.14264 c 13.4714,56.1437 24.581721,102.17251 24.689599,102.28625 0.312997,0.32998 201.324598,-59.38873 201.926358,-59.99048 0.2988,-0.29881 -17.16563,-10.78398 -38.80984,-23.30038 l -39.35314,-22.75711 11.71641,-20.29318 c 62.17834,-107.6948 76.38156,-132.72385 75.68174,-133.36702 -2.77276,-2.54832 -92.66397,-53.56099 -93.24941,-52.91842 -0.39684,0.43558 -20.35184,34.88244 -44.34445,76.54858 L 122.07078,315.10751 83.884507,293.04682 C 45.430965,270.83173 42.942964,269.46133 42.942964,270.496 c 0,0.31194 11.022052,46.50293 24.493459,102.64664 z"
     id="path3015"
     style="fill:#ffffff" />
  <path
     d="m 256.95244,119.97161 c 19.87566,11.48007 36.64333,21.3453 37.2615,21.92273 0.8591,0.80251 -1.32152,5.32007 -9.25443,19.1724 -5.70809,9.96738 -10.22654,18.26236 -10.04099,18.43329 0.98176,0.90438 15.17872,8.9867 15.39223,8.76279 0.88383,-0.92685 28.95813,-50.27126 29.26137,-51.43084 0.27122,-1.03714 -7.23472,-5.84303 -26.9619,-17.26311 -15.03577,-8.70423 -26.99223,-16.15589 -26.56991,-16.55925 0.92616,-0.88461 141.06512,-42.58122 141.42376,-42.07889 0.69396,0.971964 34.38389,143.82335 34.00784,144.1994 -0.24127,0.24127 -12.57161,-6.59495 -27.40075,-15.1916 -14.82913,-8.59665 -27.4194,-15.44654 -27.97835,-15.22199 -0.55895,0.22455 -20.62683,34.5616 -44.59529,76.30451 -23.96846,41.74293 -43.68789,76.04506 -43.82096,76.22698 -0.13308,0.18189 -6.62329,-3.35484 -14.4227,-7.85941 -7.7994,-4.50457 -14.31627,-8.0325 -14.48191,-7.83983 -0.16566,0.19265 -2.24639,3.69861 -4.62385,7.79101 -3.93899,6.78031 -4.1794,7.53562 -2.70859,8.50993 6.47901,4.29191 41.71401,24.02863 42.45575,23.78138 0.51149,-0.1705 20.61172,-34.52318 44.66716,-76.3393 24.05544,-41.81611 43.84777,-76.14594 43.98295,-76.28849 0.13517,-0.14255 17.44334,9.71682 38.46258,21.90971 21.01926,12.1929 38.34251,22.02442 38.49613,21.84786 0.43418,-0.49904 -48.37362,-203.935255 -49.07571,-204.552838 -0.34222,-0.301041 -45.60645,12.876571 -100.58718,29.28358 -54.98072,16.407011 -100.15502,29.852914 -100.38734,29.879786 -1.1656,0.13483 4.13875,3.331732 37.49859,22.600192 z"
     id="path2989"
     style="fill:#ffffff" />
</svg>
