<?xml version="1.0" encoding="UTF-8" standalone="no"?>
<!-- Created with Inkscape (http://www.inkscape.org/) -->

<svg
   xmlns:dc="http://purl.org/dc/elements/1.1/"
   xmlns:cc="http://creativecommons.org/ns#"
   xmlns:rdf="http://www.w3.org/1999/02/22-rdf-syntax-ns#"
   xmlns:svg="http://www.w3.org/2000/svg"
   xmlns="http://www.w3.org/2000/svg"
   version="1.1"
   width="512"
   height="512"
   id="svg2">
  <metadata
     id="metadata8">
    <rdf:RDF>
      <cc:Work
         rdf:about="">
        <dc:format>image/svg+xml</dc:format>
        <dc:type
           rdf:resource="http://purl.org/dc/dcmitype/StillImage" />
        <dc:title></dc:title>
      </cc:Work>
    </rdf:RDF>
  </metadata>
  <defs
     id="defs6" />
  <path
     d="m 0,1.5258789e-5 512,0 L 512,512.00002 l -512,0 z"
     id="rect3022"
     style="fill:#000000;fill-opacity:1;fill-rule:nonzero;stroke:none" />
  <path
     d="m 382,210.47943 c 20.625,-3.07899 38.625,-5.94856 40,-6.37681 2.03946,-0.63521 -1.3225,-2.04858 -18.25,-7.67236 -11.4125,-3.79155 -20.75,-7.18884 -20.75,-7.54955 0,-0.36071 16.875,-10.48889 37.5,-22.50706 20.625,-12.01817 37.5,-22.10999 37.5,-22.42625 0,-0.31626 -2.5875,-0.42505 -5.75,-0.24175 -16.12168,0.93441 -67.63908,3.23653 -67.83093,3.0311 -0.1216,-0.13021 13.42929,-17.77932 30.11309,-39.22025 16.6838,-21.440921 30.18646,-39.131213 30.00592,-39.311758 -0.18055,-0.180544 -17.54701,7.352997 -38.59213,16.741204 -21.04513,9.388207 -38.42803,16.905314 -38.62866,16.704684 -0.20063,-0.20064 1.4459,-14.024244 3.65896,-30.719129 C 373.18931,54.236616 375,39.733052 375,38.701359 c 0,-1.080126 -7.37238,7.261153 -17.38029,19.664457 -9.55917,11.847144 -17.60718,21.313383 -17.88448,21.036086 -0.27729,-0.277298 -5.84366,-9.701621 -12.3697,-20.942941 -6.52604,-11.24132 -12.1101,-20.443308 -12.40901,-20.448863 -0.49387,-0.0092 -4.05521,39.755337 -3.98592,44.505183 0.0222,1.523566 1.31036,2.45967 5.2794,3.836598 8.67042,3.007922 18.78767,9.587965 26.26001,17.078961 15.49081,15.52946 23.02766,38.80228 20.42482,63.06916 -1.87823,17.51116 -7.90292,31.81063 -18.08361,42.92107 -3.21817,3.51206 -5.85122,6.68983 -5.85122,7.0617 0,0.37188 1.2375,0.43285 2.75,0.13549 1.5125,-0.29736 19.625,-3.05983 40.25,-6.13883 z m -84.5,14.17609 c 18.24181,-5.89352 31.96413,-17.84969 39.99871,-34.85062 4.55608,-9.64053 6.67263,-19.96395 6.72579,-32.8049 0.0544,-13.13738 -1.42701,-20.25081 -6.41759,-30.81622 C 329.50102,108.59962 312.86096,98.023738 293.5,98.023738 c -26.24379,0 -45.65012,20.141592 -41.544,43.118012 3.58329,20.05088 24.85718,30.4666 40.43116,19.79514 3.0493,-2.08942 9.37754,-10.91797 6.99921,-9.76464 -9.66337,4.68611 -10.74807,5.0006 -15.03193,4.35819 -14.49508,-2.17367 -18.31281,-25.57369 -5.55031,-34.01951 11.56503,-7.65338 28.9811,-4.23926 38.3734,7.52245 7.20282,9.0199 9.79922,27.71257 5.95873,42.89963 -3.79974,15.02593 -11.39004,24.64079 -24.55687,31.10693 -14.55837,7.1495 -28.64314,7.56387 -47.07939,1.38506 -26.7514,-8.96559 -48.78897,-27.12806 -72.09548,-59.41817 C 151.85286,106.83526 131.96708,85.402262 111.59252,71.918729 85.555767,54.688047 61.18651,53.780236 32.308878,68.965233 L 21.5,74.648967 21.231901,98.324484 C 21.065077,113.05661 21.328383,122 21.928944,122 c 0.530827,0 3.918055,-2.23505 7.527172,-4.96678 23.01569,-17.420519 50.460616,-19.896966 77.459934,-6.98947 19.96777,9.54594 38.91544,25.40821 55.68169,46.61461 29.22344,36.96257 49.44483,53.74707 77.40226,64.24672 15.73513,5.90946 22.41368,7.11818 37,6.69646 10.02471,-0.28984 14.08419,-0.87322 20.5,-2.94602 z M 318.32318,492.75 c -1.114,-1.2375 -21.06661,-24.49065 -44.33914,-51.67367 l -42.31367,-49.42368 6.91481,-6.58788 c 17.69672,-16.86001 48.96872,-31.93596 75.79581,-36.54047 14.56552,-2.49997 12.20971,-5.04568 21.49313,23.2257 18.41843,56.09081 37.85706,95.12147 58.79054,118.04502 L 399.5,495.09005 430.18687,494.79502 460.87375,494.5 454.3311,487 c -9.43164,-10.81171 -23.83559,-30.22752 -31.14924,-41.98759 -24.38097,-39.20372 -38.31373,-78.84724 -43.50393,-123.78378 l -0.49335,-4.27138 2.97707,3.74616 C 389.3304,329.72412 399.29784,334 413.15709,334 c 32.47508,0 68.75246,-30.00454 79.15322,-65.46659 2.91872,-9.95156 2.82116,-23.93821 -0.22167,-31.78007 -8.56439,-22.07183 -34.92744,-28.89389 -63.2422,-16.3654 -15.63031,6.91597 -34.71371,23.68272 -41.40257,36.37645 -0.0766,0.14542 -2.64822,-0.88422 -5.71465,-2.28808 -15.72873,-7.20085 -41.84312,-10.60568 -66.06035,-8.61305 -33.13648,2.72653 -61.25561,11.60311 -88.87606,28.05618 -34.50457,20.55383 -57.54306,46.66565 -65.36137,74.08056 -2.61888,9.18311 -2.64501,31.05723 -0.0472,39.5 2.53087,8.22515 9.60957,21.68031 15.51983,29.5 4.93758,6.53277 19.14451,20.82232 26.59591,26.75058 l 4,3.18236 -59.64589,0.0335 L 88.208227,447 76.239501,468.75 c -6.5828,11.9625 -12.495484,22.7625 -13.139298,24 l -1.170571,2.25 129.209498,0 129.2095,0 -2.02545,-2.25 z"
     id="path2989"
     style="fill:#ffffff" />
</svg>
