<?xml version="1.0" encoding="UTF-8" standalone="no"?>
<!-- Created with Inkscape (http://www.inkscape.org/) -->

<svg
   xmlns:dc="http://purl.org/dc/elements/1.1/"
   xmlns:cc="http://creativecommons.org/ns#"
   xmlns:rdf="http://www.w3.org/1999/02/22-rdf-syntax-ns#"
   xmlns:svg="http://www.w3.org/2000/svg"
   xmlns="http://www.w3.org/2000/svg"
   xmlns:sodipodi="http://sodipodi.sourceforge.net/DTD/sodipodi-0.dtd"
   xmlns:inkscape="http://www.inkscape.org/namespaces/inkscape"
   id="svg2"
   version="1.1"
   inkscape:version="0.48.3.1 r9886"
   width="400"
   height="400"
   sodipodi:docname="Icon.4_36.svg">
  <metadata
     id="metadata8">
    <rdf:RDF>
      <cc:Work
         rdf:about="">
        <dc:format>image/svg+xml</dc:format>
        <dc:type
           rdf:resource="http://purl.org/dc/dcmitype/StillImage" />
        <dc:title></dc:title>
      </cc:Work>
    </rdf:RDF>
  </metadata>
  <defs
     id="defs6" />
  <sodipodi:namedview
     pagecolor="#ffffff"
     bordercolor="#666666"
     borderopacity="1"
     objecttolerance="10"
     gridtolerance="10"
     guidetolerance="10"
     inkscape:pageopacity="0"
     inkscape:pageshadow="2"
     inkscape:window-width="1855"
     inkscape:window-height="1056"
     id="namedview4"
     showgrid="false"
     inkscape:zoom="0.59"
     inkscape:cx="200"
     inkscape:cy="200"
     inkscape:window-x="65"
     inkscape:window-y="24"
     inkscape:window-maximized="1"
     inkscape:current-layer="svg2" />
  <path
     style="fill:#000000"
     d="m 0,0 400,0 0,400 -400,0 z"
     id="rect3022" />
  <path
     id="path2989"
     style="fill:#ffffff"
     d="m 199,162.43493 c 0,-0.31079 -3.4875,-2.16328 -7.75,-4.11665 C 156.09665,142.20858 131.26814,115.34025 119.33962,80.5 115.76446,70.057856 115.4906,57.01044 118.69686,49.877595 c 2.95029,-6.563398 8.58322,-12.378275 15.06118,-15.547641 l 5.57912,-2.729611 -2.91858,-0.908259 c -4.94959,-1.540306 -20.41959,-1.190974 -26.203,0.591697 -12.891031,3.973514 -24.375328,13.837616 -27.848594,23.919738 -3.686491,10.701066 -1.666812,25.151394 5.642561,40.371181 4.745995,9.88225 9.665633,16.56716 19.611233,26.64817 18.61807,18.87158 48.07682,33.14192 79.87922,38.69492 6.05,1.05638 11.1125,1.95704 11.25,2.00145 0.1375,0.0444 0.25,-0.17352 0.25,-0.48431 z m 11.19088,108.9172 c 7.85105,-2.32935 13.76389,-5.60685 19.62991,-10.88091 9.3316,-8.38991 13.14616,-17.66349 13.16734,-32.01112 0.0408,-27.61988 -17.87231,-49.32876 -46.52413,-56.38264 -11.56242,-2.84659 -25.22824,-3.56567 -38.86934,-2.04526 -11.93186,1.3299 -15.52011,2.9678 -6.50174,2.9678 7.25276,0 24.15976,3.6376 32.59316,7.01253 18.77754,7.51452 32.15211,20.40321 37.34412,35.98747 5.31136,15.94253 -0.94886,29.88216 -17.07599,38.02311 -11.74053,5.9266 -25.65263,7.38308 -38.45421,4.02583 -3.85,-1.00968 -7.12353,-1.72271 -7.27451,-1.58451 -0.8784,0.804 8.61235,8.70348 13.74075,11.43689 11.38001,6.06548 25.20523,7.31358 38.22464,3.45081 z m 6.58413,101.24048 c 60.10077,-10.95207 100.17661,-48.48642 110.68591,-103.66653 2.37993,-12.49606 2.17583,-32.98733 -0.45726,-45.90814 -5.27564,-25.88798 -16.28272,-43.69987 -39.65642,-64.17286 C 262.49154,137.074 250.31178,115.66673 249.23376,91.856455 248.58683,77.567717 250.57224,68.846616 257.61109,55.058236 260.57499,49.252251 263,44.353217 263,44.171494 c 0,-1.023285 -7.40965,1.519055 -13.17014,4.518832 -9.0034,4.688524 -17.82383,13.971609 -22.31928,23.489987 -5.47185,11.585719 -6.99614,18.648753 -7.00382,32.453397 l -0.007,12.1337 -8.9525,-6.13168 c -15.43139,-10.56917 -28.03181,-24.77967 -32.88082,-37.082351 -2.92367,-7.417793 -2.82409,-18.471821 0.22787,-25.295022 4.21291,-9.418694 14.17706,-16.127812 26.98788,-18.171635 3.51033,-0.560035 6.5665,-1.202321 6.79149,-1.427304 0.22498,-0.224982 -1.52211,-1.206006 -3.88243,-2.180053 -5.58385,-2.304321 -19.42647,-3.092944 -26.66357,-1.519041 -18.94188,4.119423 -36.60398,19.98203 -41.11044,36.92192 -2.85414,10.728803 -0.33025,26.36591 6.12648,37.957375 11.40238,20.470181 30.15121,37.517201 62.35604,56.696051 7.7,4.58556 16.57482,10.38757 19.72183,12.89337 12.01362,9.56581 22.50263,25.65817 26.21235,40.2153 2.02348,7.94023 2.00087,21.95931 -0.0488,30.29177 -4.96134,20.16872 -21.39683,37.19811 -42.38534,43.91695 -17.86208,5.718 -35.90725,5.30936 -48.48047,-1.09787 -9.75977,-4.97351 -19.6782,-15.26717 -25.22744,-26.18183 -4.93218,-9.70099 -7.79664,-23.16216 -6.17699,-29.02803 4.04641,-14.6549 34.49887,-22.18148 46.05801,-11.38362 2.82794,2.64169 3.03851,3.28412 2.59371,7.91324 -0.38478,4.00451 -1.17732,5.75336 -3.86297,8.52425 -4.40179,4.5415 -11.87684,8.13705 -19.93865,9.59063 l -6.4652,1.1657 4.5,1.43627 c 2.64093,0.8429 9.0444,1.48782 15.5,1.56106 12.54443,0.14232 19.33385,-1.46387 26.51962,-6.27382 23.01775,-15.40743 3.2085,-44.84357 -32.12107,-47.73126 -16.75257,-1.36928 -41.1799,5.10173 -58.09461,15.38975 -9.486337,5.76988 -15.199424,10.73748 -21.399583,18.6072 C 75.729872,239.89363 71,254.07524 71,272.53174 c 0,35.70833 22.262512,70.30057 56.77064,88.21211 14.39463,7.47158 25.3757,10.9767 42.72936,13.63905 6.01711,0.92313 38.22207,-0.32282 46.27501,-1.79029 z" />
</svg>
