<?xml version="1.0" encoding="UTF-8" standalone="no"?>
<!-- Created with Inkscape (http://www.inkscape.org/) -->

<svg
   xmlns:dc="http://purl.org/dc/elements/1.1/"
   xmlns:cc="http://creativecommons.org/ns#"
   xmlns:rdf="http://www.w3.org/1999/02/22-rdf-syntax-ns#"
   xmlns:svg="http://www.w3.org/2000/svg"
   xmlns="http://www.w3.org/2000/svg"
   xmlns:sodipodi="http://sodipodi.sourceforge.net/DTD/sodipodi-0.dtd"
   xmlns:inkscape="http://www.inkscape.org/namespaces/inkscape"
   id="svg2"
   version="1.1"
   inkscape:version="0.48.3.1 r9886"
   width="400"
   height="400"
   sodipodi:docname="Icon.3_43.png">
  <metadata
     id="metadata8">
    <rdf:RDF>
      <cc:Work
         rdf:about="">
        <dc:format>image/svg+xml</dc:format>
        <dc:type
           rdf:resource="http://purl.org/dc/dcmitype/StillImage" />
        <dc:title></dc:title>
      </cc:Work>
    </rdf:RDF>
  </metadata>
  <defs
     id="defs6" />
  <sodipodi:namedview
     pagecolor="#ffffff"
     bordercolor="#666666"
     borderopacity="1"
     objecttolerance="10"
     gridtolerance="10"
     guidetolerance="10"
     inkscape:pageopacity="0"
     inkscape:pageshadow="2"
     inkscape:window-width="1855"
     inkscape:window-height="1056"
     id="namedview4"
     showgrid="false"
     inkscape:zoom="0.59"
     inkscape:cx="200"
     inkscape:cy="200"
     inkscape:window-x="65"
     inkscape:window-y="24"
     inkscape:window-maximized="1"
     inkscape:current-layer="svg2" />
  <path
     style="fill:#000000"
     d="m 0,0 400,0 0,400 -400,0 z"
     id="rect3028" />
  <path
     id="path2989"
     style="fill:#ffffff"
     d="m 198,213.91597 c 8.80593,-3.99223 13.32608,-10.75957 13.30258,-19.91597 -0.0172,-6.69834 -1.93062,-11.47419 -6.3795,-15.92308 -9.67104,-9.67103 -25.96921,-8.099 -33.61592,3.24241 -12.34053,18.30316 6.76304,41.63195 26.69284,32.59664 z m 63.24489,59.09359 c 10.01034,-3.74534 17.59641,-14.16342 18.49875,-25.40463 0.89696,-11.17423 -4.2035,-21.5227 -13.51229,-27.41548 -20.91936,-13.24266 -47.62906,2.51896 -46.05879,27.17969 0.76311,11.98431 9.56762,23.27341 20.82097,26.69652 4.92407,1.49784 14.8022,0.9827 20.25136,-1.0561 z m -72.73631,9.12546 c 15.55296,-7.06556 16.86819,-29.23962 2.30591,-38.87648 -3.63431,-2.40508 -5.13879,-2.75723 -11.74146,-2.74835 -6.55395,0.009 -8.14391,0.37991 -11.81534,2.75769 -6.01697,3.89684 -9.40624,9.71357 -10.0048,17.17042 -0.54566,6.79781 0.81775,11.13315 5.09722,16.20801 5.87916,6.97189 17.51797,9.414 26.15847,5.48871 z m 128.06149,-0.31766 c 6.58292,-9.14287 15.30945,-25.5353 18.80123,-35.31736 16.35831,-45.82696 8.67463,-96.93795 -20.29266,-134.98446 C 295.70735,86.07271 269.6162,68.565033 237.59284,59.521046 216.65261,53.607138 184.43957,53.542867 166,59.378205 l -4.5,1.424058 7.11901,0.09887 c 6.38245,0.08864 21.93795,2.257112 26.7165,3.72434 1.75841,0.539912 1.75283,0.65412 -0.13303,2.719057 -5.21141,5.706293 -6.66406,14.221657 -3.65475,21.423943 1.99335,4.77077 4.97883,7.927095 9.86986,10.434671 5.28564,2.709886 15.18928,2.202966 19.52039,-0.999164 3.949,-2.919624 4.69475,-2.79034 5.44148,0.943343 0.37569,1.878407 2.57759,5.095447 5.46147,7.979317 l 4.832,4.832 -2.38552,2.24108 c -1.31204,1.23259 -4.00606,4.68252 -5.98671,7.6665 -13.59655,20.48408 -7.91019,48.21245 12.71104,61.98279 14.51406,9.69211 34.22763,9.96896 48.93095,0.68717 4.80701,-3.03453 13.78016,-12.0876 14.62771,-14.75798 1.08832,-3.42901 2.33126,-1.70382 4.94412,6.86241 6.7519,22.13603 9.31982,43.5996 7.52447,62.89215 -2.18553,23.48537 -7.63656,40.77609 -19.06275,60.46724 l -3.19148,5.5 8.11597,-7.98484 c 4.46378,-4.39166 10.61499,-11.45567 13.66934,-15.6978 z M 181,354.90972 C 127.28455,347.99556 82.348294,316.2337 57.977105,267.95464 51.131813,254.3942 45.23156,234.50801 42.9512,217.31139 41.241173,204.41575 42.242807,179.33052 44.980059,166.5 53.295005,127.52477 74.08514,95.207398 106.5,70.869882 141.17954,44.832013 187.87879,34.664115 231.85749,43.575606 c 51.35256,10.405669 95.9028,48.399566 115.23394,98.275244 6.83497,17.6347 10.08721,35.89842 10.06314,56.51196 -0.0644,55.16485 -27.01115,103.67383 -74.40346,133.93957 C 254.28202,350.48333 214.78621,359.25863 181,354.90972 z m 47,13.14243 c 37.054,-6.75378 67.86081,-22.72962 93.51713,-48.49625 26.26299,-26.3759 42.75461,-59.13234 48.61222,-96.5559 1.66635,-10.64606 1.67299,-40.02293 0.0113,-50 C 363.8114,134.9979 347.4622,102.6622 321.4,76.6 289.98875,45.188754 250.72227,28.078072 205.9733,26.301896 156.40779,24.334542 109.97537,43.146509 75.5,79.162803 50.472135,105.30932 35.478528,135.51172 29.41213,172 c -2.142396,12.88612 -2.136831,39.38177 0.01103,52.5 6.099752,37.25479 22.338793,69.09979 48.657924,95.41892 25.672636,25.67264 57.477726,42.07113 93.418916,48.16619 15.89693,2.69586 41.61086,2.68086 56.5,-0.033 z" />
</svg>
