<?xml version="1.0" encoding="UTF-8" standalone="no"?>
<!-- Created with Inkscape (http://www.inkscape.org/) -->

<svg
   xmlns:dc="http://purl.org/dc/elements/1.1/"
   xmlns:cc="http://creativecommons.org/ns#"
   xmlns:rdf="http://www.w3.org/1999/02/22-rdf-syntax-ns#"
   xmlns:svg="http://www.w3.org/2000/svg"
   xmlns="http://www.w3.org/2000/svg"
   version="1.1"
   width="512"
   height="512"
   id="svg2">
  <metadata
     id="metadata8">
    <rdf:RDF>
      <cc:Work
         rdf:about="">
        <dc:format>image/svg+xml</dc:format>
        <dc:type
           rdf:resource="http://purl.org/dc/dcmitype/StillImage" />
        <dc:title></dc:title>
      </cc:Work>
    </rdf:RDF>
  </metadata>
  <defs
     id="defs6" />
  <path
     d="m 0,0 512,0 0,512 -512,0 z"
     id="rect3030"
     style="fill:#000000;fill-opacity:1;fill-rule:nonzero;stroke:none" />
  <path
     d="m 205.2,212.8 c -2.91609,-2.91609 0.26739,-7.50722 6.69922,-9.66148 4.94792,-1.65724 8.55994,-1.40053 11.24,0.79883 2.82318,2.31681 2.02884,4.29894 -3.13093,7.81265 -3.6968,2.51745 -12.7023,3.15599 -14.80829,1.05 z M 226,240.30806 C 216.27874,235.28616 227.04823,224 241.56149,224 248.07191,224 253,226.44205 253,229.66821 c 0,7.7799 -18.45683,15.05316 -27,10.63985 z m 33.27505,34.78171 c -4.44033,-1.13857 -8.15569,-3.73369 -9.46758,-6.61298 -2.84556,-6.24533 5.91386,-15.70627 18.04787,-19.49329 6.9861,-2.18036 18.29603,-2.6346 22.82956,-0.91689 13.01282,4.93043 7.96092,18.43243 -9.31516,24.89624 -6.12822,2.29286 -17.2661,3.36504 -22.09469,2.12692 z m 34.02149,46.86075 c -7.61756,-1.50475 -12.54121,-5.13181 -14.33193,-10.55775 -0.90405,-2.73929 -0.75719,-4.05612 0.84788,-7.60295 5.39398,-11.91936 24.05464,-21.11089 42.68751,-21.02623 17.03003,0.0774 26.54411,8.01507 22.16601,18.49333 -5.68156,13.5979 -32.53272,24.41458 -51.36947,20.6936 z M 318,381.33621 c -19.78724,-1.34888 -33.37332,-10.70528 -31.34391,-21.58578 2.62247,-14.06012 21.40523,-24.37699 46.34391,-25.45548 14.30524,-0.61864 22.42553,0.87515 29.98114,5.51528 6.71597,4.12449 9.29321,8.49051 8.78098,14.87559 -0.53536,6.67336 -5.00641,12.33797 -13.88212,17.58796 -10.62838,6.28671 -26.77461,9.95582 -39.88,9.06243 z m -23.45276,71.55248 c -13.93522,-2.03061 -24.95617,-8.11715 -29.13256,-16.08903 -6.7393,-12.86396 8.30408,-29.07501 33.46754,-36.0653 11.24979,-3.12513 33.75194,-3.13851 43.61778,-0.0259 18.25136,5.75814 25.89178,16.90234 19.73938,28.79156 -8.50892,16.44308 -40.20397,27.39421 -67.69214,23.38869 z m -74.30418,28.8593 c 19.94954,-15.22783 62.83275,-17.72213 98.33994,-5.71993 4.70065,1.58892 10.10544,3.85234 12.01064,5.02982 l 3.46401,2.14087 5.50952,-4.25057 c 8.00366,-6.17478 19.5521,-18.81538 25.88466,-28.33263 22.31827,-33.5423 27.61442,-79.4266 13.99298,-121.23125 -3.79115,-11.63516 -13.51479,-30.5923 -21.14773,-41.22947 -8.24958,-11.4965 -22.9466,-26.14343 -34.84883,-34.73005 -5.48587,-3.95767 -18.03006,-10.98318 -32.41947,-18.15689 C 262.23685,220.91394 245.07383,209.7283 230.5187,195.83169 217.77956,183.6689 211.36818,175.39432 205.46718,163.5 c -5.98256,-12.05873 -7.84937,-19.70181 -7.81593,-32 0.0487,-17.92479 6.47612,-31.917302 20.75515,-45.184178 C 230.09698,75.453904 243.7129,68.373423 262,63.646497 301.33662,53.4786 338.9347,62.166691 362.16548,86.792542 c 8.56025,9.074312 13.39823,18.682948 15.48436,30.753208 4.71861,27.3018 -10.20386,54.99181 -33.52756,62.21345 -8.43185,2.61072 -23.54051,2.3217 -33.07921,-0.63279 -13.0481,-4.04147 -26.73229,-11.73501 -39.84944,-22.40418 -4.0185,-3.26855 -7.49959,-5.7496 -7.73576,-5.51344 -0.63681,0.63682 7.56891,13.64027 14.21367,22.52413 7.73055,10.33551 21.3266,23.94437 29.20657,29.23407 8.13276,5.4594 19.04443,10.46954 26.26733,12.06076 9.24148,2.03593 24.90734,0.85893 33.35456,-2.50597 30.41405,-12.11526 52.86372,-45.97557 57.6055,-86.88502 C 429.97139,75.029059 394.47954,31.050003 337.31458,18.091433 317.87069,13.68375 296.61353,12.18687 278.5,13.949847 197.81954,21.802419 140.7557,50.044772 113.26818,95.727304 103.3678,112.1811 98.819303,128.58671 98.775434,148 c -0.05335,23.6089 6.680406,44.43703 21.984466,68 12.70704,19.56447 27.48639,34.79558 55.7401,57.44393 29.3641,23.53845 42.36989,37.45981 50.50095,54.05607 5.46867,11.16208 7.33819,19.82391 6.69087,31 C 231.4926,396.4701 191.2493,433.81333 107.1451,475.92735 98.265293,480.37378 91,484.23413 91,484.50589 91,484.77765 119.12111,485 153.49135,485 l 62.49134,0 4.26037,-3.25201 z"
     id="path2989"
     style="fill:#ffffff" />
</svg>
