<?xml version="1.0" encoding="UTF-8" standalone="no"?>
<!-- Created with Inkscape (http://www.inkscape.org/) -->

<svg
   xmlns:dc="http://purl.org/dc/elements/1.1/"
   xmlns:cc="http://creativecommons.org/ns#"
   xmlns:rdf="http://www.w3.org/1999/02/22-rdf-syntax-ns#"
   xmlns:svg="http://www.w3.org/2000/svg"
   xmlns="http://www.w3.org/2000/svg"
   xmlns:sodipodi="http://sodipodi.sourceforge.net/DTD/sodipodi-0.dtd"
   xmlns:inkscape="http://www.inkscape.org/namespaces/inkscape"
   id="svg2"
   version="1.1"
   inkscape:version="0.48.3.1 r9886"
   width="400"
   height="400"
   sodipodi:docname="Icon.7_17.png">
  <metadata
     id="metadata8">
    <rdf:RDF>
      <cc:Work
         rdf:about="">
        <dc:format>image/svg+xml</dc:format>
        <dc:type
           rdf:resource="http://purl.org/dc/dcmitype/StillImage" />
        <dc:title></dc:title>
      </cc:Work>
    </rdf:RDF>
  </metadata>
  <defs
     id="defs6" />
  <sodipodi:namedview
     pagecolor="#ffffff"
     bordercolor="#666666"
     borderopacity="1"
     objecttolerance="10"
     gridtolerance="10"
     guidetolerance="10"
     inkscape:pageopacity="0"
     inkscape:pageshadow="2"
     inkscape:window-width="1855"
     inkscape:window-height="1056"
     id="namedview4"
     showgrid="false"
     inkscape:zoom="0.59"
     inkscape:cx="200"
     inkscape:cy="200"
     inkscape:window-x="65"
     inkscape:window-y="24"
     inkscape:window-maximized="1"
     inkscape:current-layer="svg2" />
  <path
     style="fill:#000000"
     d="m 0,0 400,0 0,400 -400,0 z"
     id="rect3034" />
  <path
     id="path2989"
     style="fill:#ffffff"
     d="m 315,204.51274 0,-34.35201 5.25,-1.70347 c 5.78584,-1.87733 11.04787,-4.70553 14.5,-7.79334 l 2.25,-2.01255 -10e-4,34.92432 -0.001,34.92431 -5.85357,1.72001 c -3.21946,0.94601 -8.16883,3.27808 -10.99861,5.18238 L 315,238.86475 l 0,-34.35201 z m -17.06474,32.90925 c -1.66154,-2.00203 -9.16136,-5.81579 -14.68526,-7.46765 l -4.25,-1.27092 0,-35.01602 0,-35.01603 2.25,2.01255 c 3.45213,3.08781 8.71416,5.91601 14.5,7.79334 l 5.25,1.70347 0,34.41964 C 301,223.65842 300.60885,239 300.12244,239 c -0.48265,0 -1.46688,-0.7101 -2.18718,-1.57801 z M 243,204.66071 l 0,-34.58323 4.84251,-1.43807 c 5.97893,-1.77555 12.36089,-4.97464 14.09683,-7.06632 C 262.65739,160.70789 263.63979,160 264.12244,160 264.60882,160 265,175.30836 265,194.34171 l 0,34.34171 -4.25,1.27092 c -4.43858,1.3273 -11.65105,4.89567 -15.5,7.66861 l -2.25,1.62099 0,-34.58323 z m -17.11514,32.47674 c -3.32903,-2.59994 -9.60912,-5.68287 -14.63486,-7.18432 l -4.25,-1.26971 0,-34.77408 0,-34.77409 5.0451,3.3951 c 2.7748,1.8673 7.7248,4.37217 11,5.56637 l 5.9549,2.17126 0,34.36601 C 229,223.5353 228.83569,239 228.63486,239 c -0.20083,0 -1.43833,-0.83815 -2.75,-1.86255 z M 171,204.66071 l 0,-34.58323 4.84251,-1.43807 c 5.97893,-1.77555 12.36089,-4.97464 14.09683,-7.06632 C 190.65739,160.70789 191.63979,160 192.12244,160 192.60882,160 193,175.30836 193,194.34171 l 0,34.34171 -4.25,1.27092 c -4.43858,1.3273 -11.65105,4.89567 -15.5,7.66861 l -2.25,1.62099 0,-34.58323 z m -17.11514,32.47674 c -3.32903,-2.59994 -9.60912,-5.68287 -14.63486,-7.18432 l -4.25,-1.26971 0,-34.76561 0,-34.76562 5.75,3.7949 c 3.1625,2.0872 8.1125,4.56412 11,5.50427 l 5.25,1.70937 0,34.41964 C 157,223.51117 156.83569,239 156.63486,239 c -0.20083,0 -1.43833,-0.83815 -2.75,-1.86255 z M 99,204.53874 l 0,-34.46126 4.84251,-1.43807 c 5.97893,-1.77555 12.36089,-4.97464 14.09683,-7.06632 C 118.65739,160.70789 119.63979,160 120.12244,160 120.60882,160 121,175.30836 121,194.34171 l 0,34.34171 -4.25,1.27092 c -5.5239,1.65186 -13.02372,5.46562 -14.68526,7.46765 C 101.34444,238.2899 100.36021,239 99.877555,239 99.391125,239 99,223.64068 99,204.53874 z m -19.5,30.97235 c -2.75,-1.90208 -7.5875,-4.2045 -10.75,-5.11649 l -5.75,-1.65815 0,-35.04254 0,-35.04254 2.25,2.00554 c 3.315542,2.95531 8.70915,5.83664 14.569127,7.78301 L 85,170.16073 l 0,34.41964 c 0,18.9308 -0.1125,34.41275 -0.25,34.40434 -0.1375,-0.008 -2.5,-1.57154 -5.25,-3.47362 z M 63,308 c 0,-43.63464 0.330886,-64 1.039838,-64 2.251804,0 9.029728,4.17076 12.374074,7.61432 1.939568,1.99711 4.552398,5.71339 5.806288,8.2584 2.275083,4.61771 2.280417,4.7385 2.578141,58.37728 l 0.298342,53.75 6.902927,0 6.902927,0 0.298731,-53.25 c 0.298115,-53.14001 0.303481,-53.26033 2.598082,-58.25 1.26464,-2.75 3.96464,-6.72563 6,-8.83473 C 111.30759,248.02991 117.70098,244 119.96016,244 120.66911,244 121,264.36536 121,308 l 0,64 7,0 7,0 0,-64 c 0,-43.63464 0.33089,-64 1.03984,-64 1.7956,0 8.34604,3.6883 11.10729,6.25408 4.14909,3.85539 7.48722,9.81372 8.72092,15.56624 0.7579,3.53398 1.13195,21.94949 1.13195,55.7289 L 157,372 l 6.95882,0 6.95882,0 0.29118,-53.25 0.29118,-53.25 2.59339,-5.5 c 1.42636,-3.025 4.12636,-7.00221 6,-8.83825 C 183.42105,247.90086 189.88465,244 191.96016,244 192.66911,244 193,264.36536 193,308 l 0,64 7,0 7,0 0,-64 c 0,-43.63464 0.33089,-64 1.03984,-64 2.07551,0 8.53911,3.90086 11.86677,7.16175 1.87364,1.83604 4.57364,5.81325 6,8.83825 l 2.59339,5.5 0.29118,53.25 0.29118,53.25 6.95882,0 6.95882,0 0,-50.45078 c 0,-33.77941 0.37405,-52.19492 1.13195,-55.7289 1.2337,-5.75252 4.57183,-11.71085 8.72092,-15.56624 C 255.61412,247.6883 262.16456,244 263.96016,244 264.66911,244 265,264.36536 265,308 l 0,64 7,0 7,0 0,-64 c 0,-43.63464 0.33089,-64 1.03984,-64 2.25918,0 8.65257,4.02991 12.16081,7.66527 2.03536,2.1091 4.73536,6.08473 6,8.83473 2.29396,4.98828 2.30008,5.12487 2.61249,58.25 l 0.31315,53.25 6.93685,0 6.93686,0 0,-51.8185 c 0,-56.85487 0.0917,-57.8667 5.98496,-66.00204 3.15805,-4.35956 9.07663,-8.65485 13.43195,-9.74796 L 337,243.78318 l 0,64.10841 0,64.10841 7,0 7,0 0,-64 c 0,-35.2 0.23945,-64 0.53212,-64 0.29266,0 2.01289,0.61871 3.82273,1.3749 7.94705,3.3205 14.99811,12.88077 16.63641,22.55671 0.53759,3.17505 0.80938,-0.3607 0.89112,-11.59272 L 373,240.17779 369.86647,237.5411 c -3.8434,-3.23401 -8.99562,-5.90872 -14.61647,-7.58797 l -4.25,-1.26971 0,-35.01602 0,-35.01603 2.25,1.9897 c 3.67188,3.24707 7.60982,5.41842 13.50556,7.44685 3.05665,1.05165 5.71209,1.91208 5.90099,1.91208 0.1889,0 0.34345,-3.26876 0.34345,-7.26392 l 0,-7.26392 -5.01418,-2.38057 c -5.90454,-2.8033 -11.37609,-8.52082 -14.32516,-14.96919 -1.90591,-4.1674 -2.15039,-6.81254 -2.48376,-26.8724 C 350.97353,99.0125 351.06172,89 351.37289,89 c 0.31116,0 4.44076,2.288795 9.17689,5.08621 4.73612,2.797416 8.7872,4.910141 9.0024,4.694944 0.4952,-0.495204 -24.8672,-67.781622 -25.54839,-67.779825 -0.64965,0.0017 -25.96791,67.367886 -25.49619,67.839605 0.19567,0.195673 4.25381,-1.938488 9.01808,-4.742582 C 332.28996,91.294258 336.40812,89 336.67717,89 c 0.26904,0 0.33225,10.0125 0.14046,22.25 -0.3235,20.64157 -0.5147,22.61921 -2.64496,27.3574 -2.68422,5.97029 -7.84914,11.27534 -14.17267,14.55716 -3.54471,1.83966 -6.09215,2.33544 -12,2.33544 -8.57455,0 -13.91297,-2.17577 -20.1882,-8.22804 -7.22511,-6.96841 -8.15552,-10.85694 -8.61901,-36.02196 C 278.9674,99.0125 279.02133,89 279.31263,89 c 0.2913,0 4.45066,2.264464 9.24303,5.032143 4.79236,2.767678 8.88238,4.863147 9.08893,4.656596 0.51219,-0.512183 -24.89355,-67.693843 -25.58994,-67.668768 -0.64701,0.0233 -26.01921,67.324772 -25.55965,67.7987 0.16995,0.175269 4.29061,-1.956865 9.157,-4.738075 l 8.848,-5.056745 0.27553,19.738079 c 0.31138,22.30605 -0.4732,27.75354 -4.93116,34.23807 -4.06548,5.91363 -8.03371,9.02484 -14.25287,11.17468 -6.69732,2.31513 -12.33181,2.26887 -18.80399,-0.15438 -7.603,-2.84664 -12.20327,-7.08811 -15.95648,-14.71197 l -3.25925,-6.62047 -0.40685,-21.84393 C 206.94117,98.829768 207.08197,89 207.47783,89 c 0.39586,0 4.56318,2.262116 9.2607,5.026923 4.69753,2.764808 8.72584,4.842045 8.9518,4.616082 C 226.0888,98.244538 202.62733,35.013094 200.96303,32 c -0.69299,-1.254609 -0.95789,-1.172812 -1.61924,0.5 -5.79129,14.648384 -24.98103,66.091189 -24.75507,66.362046 0.16612,0.199125 4.26412,-1.913176 9.10666,-4.694002 L 192.5,89.111996 192.78811,109.306 c 0.32033,22.45303 -0.3311,26.89549 -4.94084,33.694 -8.52172,12.56794 -24.23003,16.46567 -37.14983,9.21804 -5.66013,-3.17516 -11.67003,-10.22657 -13.67434,-16.04405 C 135.67237,132.25348 134.23497,89 135.45542,89 c 0.37157,0 4.52338,2.272723 9.22625,5.050496 4.70287,2.777773 8.74011,4.861054 8.97165,4.629514 0.23154,-0.231539 -5.31152,-15.623432 -12.31792,-34.204205 -8.85512,-23.483543 -13.01031,-33.35296 -13.62911,-32.371948 -1.33467,2.115893 -25.52562,66.339162 -25.14547,66.757393 0.18059,0.198688 4.29078,-1.938493 9.13376,-4.74929 l 8.80542,-5.110542 0.28811,20.249292 c 0.17393,12.22448 -0.14341,22.03264 -0.80075,24.74929 -3.31595,13.70404 -18.12064,23.71268 -31.992,21.62802 C 81.520199,154.6549 73.447752,149.69194 69.691641,144.37484 64.171658,136.56083 63.745159,134.33698 63.242944,110.75 62.988238,98.7875 63.018887,89 63.311054,89 c 0.292167,0 4.452238,2.264464 9.244603,5.032143 4.792365,2.767678 8.884341,4.861193 9.093279,4.652254 0.519202,-0.519201 -24.879352,-67.689429 -25.585455,-67.664517 -0.665078,0.02346 -26.00732,67.322233 -25.538299,67.819417 0.176043,0.186613 3.392394,-1.439626 7.147448,-3.613864 3.755053,-2.174238 7.87059,-4.496695 9.145637,-5.161016 l 2.318268,-1.207856 -0.318268,22.821719 c -0.307175,22.02634 -0.404968,22.99148 -2.80598,27.69278 -2.938448,5.75361 -10.664274,13.02895 -15.546883,14.64036 L 27,155.1551 l 0,7.52944 c 0,6.13638 0.26595,7.42738 1.437454,6.97783 0.7906,-0.30338 3.233182,-1.03514 5.427962,-1.62613 2.19478,-0.59099 6.318145,-2.64092 9.163035,-4.55539 C 45.873341,161.56638 48.380758,160 48.600489,160 48.82022,160 49,175.45377 49,194.34171 l 0,34.34171 -4.25,1.27092 c -5.087753,1.52143 -12.39158,5.25894 -15.5,7.93164 -2.17246,1.86793 -2.245971,2.49771 -2.133097,18.27431 0.09321,13.02754 0.295209,15.2688 0.996529,11.05668 1.130144,-6.78765 3.750491,-11.79949 8.551834,-16.35679 C 40.409485,247.30628 45.848355,244 47.95034,244 48.672286,244 49,263.98142 49,308 l 0,64 7,0 7,0 0,-64 z" />
</svg>
