<?xml version="1.0" encoding="UTF-8" standalone="no"?>
<!-- Created with Inkscape (http://www.inkscape.org/) -->

<svg
   xmlns:dc="http://purl.org/dc/elements/1.1/"
   xmlns:cc="http://creativecommons.org/ns#"
   xmlns:rdf="http://www.w3.org/1999/02/22-rdf-syntax-ns#"
   xmlns:svg="http://www.w3.org/2000/svg"
   xmlns="http://www.w3.org/2000/svg"
   xmlns:sodipodi="http://sodipodi.sourceforge.net/DTD/sodipodi-0.dtd"
   xmlns:inkscape="http://www.inkscape.org/namespaces/inkscape"
   id="svg2"
   version="1.1"
   inkscape:version="0.48.3.1 r9886"
   width="400"
   height="400"
   sodipodi:docname="1.svg">
  <metadata
     id="metadata8">
    <rdf:RDF>
      <cc:Work
         rdf:about="">
        <dc:format>image/svg+xml</dc:format>
        <dc:type
           rdf:resource="http://purl.org/dc/dcmitype/StillImage" />
        <dc:title />
      </cc:Work>
    </rdf:RDF>
  </metadata>
  <defs
     id="defs6" />
  <sodipodi:namedview
     pagecolor="#ffffff"
     bordercolor="#666666"
     borderopacity="1"
     objecttolerance="10"
     gridtolerance="10"
     guidetolerance="10"
     inkscape:pageopacity="0"
     inkscape:pageshadow="2"
     inkscape:window-width="1855"
     inkscape:window-height="1056"
     id="namedview4"
     showgrid="false"
     inkscape:zoom="0.59"
     inkscape:cx="200"
     inkscape:cy="200"
     inkscape:window-x="65"
     inkscape:window-y="24"
     inkscape:window-maximized="1"
     inkscape:current-layer="svg2" />
  <path
     style="fill:#000000"
     d="m 0,-1.5258789e-5 400,0 L 400,399.99998 l -400,0 z"
     id="rect3018" />
  <path
     id="path2989"
     style="fill:#ffffff"
     d="m 372.40387,130.89293 c -0.59096,0 -89.23336,37.83193 -90.77872,38.7437 -0.47053,0.27761 3.01375,4.39201 7.74284,9.14311 l 8.59835,8.63837 -34.25089,34.24009 -34.25088,34.24009 -17.48596,-17.50741 -17.48597,-17.5074 49.23419,-49.23419 49.23419,-49.2342 8.83712,8.79616 8.8371,8.79616 19.54534,-45.807244 c 10.74993,-25.19398 19.41979,-45.9526 19.26635,-46.13026 -0.33301,-0.38558 -89.63903,37.73401 -90.70228,38.71557 -0.4048,0.3737 3.08683,4.48243 7.75918,9.13051 l 8.49519,8.451064 -49.25208,49.25963 -49.25208,49.25962 -17.25979,-17.23865 -17.25978,-17.23864 34.24009,-34.25088 34.24009,-34.250884 8.57311,8.533384 8.5731,8.53339 19.61188,-45.784824 c 10.78653,-25.18165 19.43967,-45.95703 19.2292,-46.1675 -0.3362,-0.3362 -84.99671,35.5638 -89.83877,38.09582 -1.67142,0.87402 -0.90725,1.95527 6.98738,9.88664 l 8.86403,8.9053 -42.98112,42.989844 -42.98112,42.98984 22.98821,23.00451 22.9882,23.00451 -63.74446,63.75029 -63.74446,63.75029 0,15.7471 0,15.74709 15.25293,0 15.25293,0 63.9917,-63.99756 63.9917,-63.99756 23.01146,22.99584 23.01145,22.99583 42.98236,-42.99108 42.98236,-42.99107 9.11342,9.07553 9.11342,9.07553 19.55254,-45.33273 c 10.7539,-24.933 19.59556,-45.67023 19.64814,-46.08273 0.0526,-0.4125 -0.16396,-0.75 -0.48119,-0.75 z"
     inkscape:connector-curvature="0" />
</svg>
