<?xml version="1.0" encoding="UTF-8" standalone="no"?>
<!-- Created with Inkscape (http://www.inkscape.org/) -->

<svg
   xmlns:dc="http://purl.org/dc/elements/1.1/"
   xmlns:cc="http://creativecommons.org/ns#"
   xmlns:rdf="http://www.w3.org/1999/02/22-rdf-syntax-ns#"
   xmlns:svg="http://www.w3.org/2000/svg"
   xmlns="http://www.w3.org/2000/svg"
   xmlns:sodipodi="http://sodipodi.sourceforge.net/DTD/sodipodi-0.dtd"
   xmlns:inkscape="http://www.inkscape.org/namespaces/inkscape"
   id="svg2"
   version="1.1"
   inkscape:version="0.48.3.1 r9886"
   width="400"
   height="400"
   sodipodi:docname="Icon.2_21.png">
  <metadata
     id="metadata8">
    <rdf:RDF>
      <cc:Work
         rdf:about="">
        <dc:format>image/svg+xml</dc:format>
        <dc:type
           rdf:resource="http://purl.org/dc/dcmitype/StillImage" />
        <dc:title></dc:title>
      </cc:Work>
    </rdf:RDF>
  </metadata>
  <defs
     id="defs6" />
  <sodipodi:namedview
     pagecolor="#ffffff"
     bordercolor="#666666"
     borderopacity="1"
     objecttolerance="10"
     gridtolerance="10"
     guidetolerance="10"
     inkscape:pageopacity="0"
     inkscape:pageshadow="2"
     inkscape:window-width="1216"
     inkscape:window-height="1000"
     id="namedview4"
     showgrid="false"
     inkscape:zoom="1.18"
     inkscape:cx="324.59798"
     inkscape:cy="291.66153"
     inkscape:window-x="64"
     inkscape:window-y="24"
     inkscape:window-maximized="1"
     inkscape:current-layer="svg2" />
  <rect
     style="fill:#000000;fill-opacity:1;stroke:none"
     id="rect3040"
     width="400"
     height="400"
     x="0"
     y="7.6293945e-06" />
  <path
     id="path3007"
     style="fill:#ffffff;fill-opacity:1"
     d="M 73.858696,80.351129 79.5,74.702257 55,50.855839 C 41.525,37.74031 29.9375,27.007302 29.25,27.004711 28.331652,27.00125 27.997307,29.719544 27.989851,37.25 l -0.01015,10.25 19.760148,19.19861 c 10.868082,10.559236 19.921562,19.221736 20.118845,19.25 0.197282,0.02827 2.897282,-2.490602 6,-5.597481 z M 178.62678,330.22601 c 3.81686,-6.11176 20.51303,-24.4984 37.74583,-41.56753 l 20.03176,-19.84153 -8.45218,-8.14138 c -43.85382,-42.24118 -51.57948,-50.27274 -52.90213,-54.99676 -2.00166,-7.14924 -0.071,-12.80804 6.60137,-19.34875 6.58161,-6.45175 13.25155,-8.45709 20.95508,-6.30024 4.92042,1.37763 3.20327,-0.19195 55.70561,50.91824 l 9.81211,9.55194 13.18789,-13.50737 C 313.10223,194.43237 325,170.42728 325,138.84737 325,124.53761 322.89518,114.59524 317.51689,103.5 306.97146,81.745136 287.82813,69.668339 264,69.738241 c -28.1695,0.08264 -50.25446,14.444332 -65.97433,42.902639 -2.89347,5.23816 -5.62434,9.14935 -6.06861,8.69153 C 191.51279,120.87458 189.25851,117.125 186.94754,113 174.21093,90.265553 159.50249,77.294126 141,72.478686 132.19993,70.188387 117.01159,70.865931 108,73.950798 79.320587,83.7684 61.16158,112.07544 61.034888,147.16203 c -0.0762,21.10409 6.264945,39.13244 20.589088,58.53629 6.719829,9.10285 13.416337,16.3574 40.893824,44.30168 12.16829,12.375 24.39703,25.425 27.17498,29 11.66028,15.00585 20.05465,30.43848 24.33843,44.745 1.35783,4.53475 2.69804,8.24725 2.97824,8.25 0.2802,0.003 1.008,-0.7933 1.61733,-1.76899 z M 371.98019,366.75 c -0.053,-11.36548 -4.5598,-31.38412 -11.17759,-49.6492 -4.70786,-12.99366 -17.07829,-38.08268 -24.11759,-48.91395 l -4.75286,-7.31315 -4.07799,6.10684 c -2.82695,4.23338 -5.65425,7.0308 -9.21608,9.11865 -4.71938,2.76639 -5.74925,2.98086 -12.63808,2.63191 -15.80011,-0.80035 -24.91373,-7.48772 -70.82812,-51.97212 -18.88047,-18.29244 -35.14121,-33.64215 -36.13499,-34.11047 -4.11915,-1.94117 -13.05446,5.53617 -11.48939,9.61468 0.29334,0.76443 15.89376,16.43044 34.66759,34.81334 34.99273,34.26407 43.72032,43.95097 49.03384,54.42347 4.18687,8.25198 4.89994,17.4953 1.83766,23.82113 -2.0781,4.29278 -9.40497,12.06984 -13.5977,14.43321 -2.64742,1.4923 -2.00537,2.01844 10.51111,8.61355 28.22311,14.87114 65.51496,27.54884 92.8194,31.5548 9.63252,1.41323 9.18289,1.56895 9.16079,-3.17269 z" />
</svg>
