<?xml version="1.0" encoding="UTF-8" standalone="no"?>
<!-- Created with Inkscape (http://www.inkscape.org/) -->

<svg
   xmlns:dc="http://purl.org/dc/elements/1.1/"
   xmlns:cc="http://creativecommons.org/ns#"
   xmlns:rdf="http://www.w3.org/1999/02/22-rdf-syntax-ns#"
   xmlns:svg="http://www.w3.org/2000/svg"
   xmlns="http://www.w3.org/2000/svg"
   xmlns:sodipodi="http://sodipodi.sourceforge.net/DTD/sodipodi-0.dtd"
   xmlns:inkscape="http://www.inkscape.org/namespaces/inkscape"
   id="svg2"
   version="1.1"
   inkscape:version="0.48.3.1 r9886"
   width="400"
   height="400"
   sodipodi:docname="Icon.7_21.svg">
  <metadata
     id="metadata8">
    <rdf:RDF>
      <cc:Work
         rdf:about="">
        <dc:format>image/svg+xml</dc:format>
        <dc:type
           rdf:resource="http://purl.org/dc/dcmitype/StillImage" />
        <dc:title></dc:title>
      </cc:Work>
    </rdf:RDF>
  </metadata>
  <defs
     id="defs6" />
  <sodipodi:namedview
     pagecolor="#ffffff"
     bordercolor="#666666"
     borderopacity="1"
     objecttolerance="10"
     gridtolerance="10"
     guidetolerance="10"
     inkscape:pageopacity="0"
     inkscape:pageshadow="2"
     inkscape:window-width="1216"
     inkscape:window-height="1000"
     id="namedview4"
     showgrid="false"
     inkscape:zoom="3.337544"
     inkscape:cx="266.08562"
     inkscape:cy="172.90306"
     inkscape:window-x="64"
     inkscape:window-y="24"
     inkscape:window-maximized="1"
     inkscape:current-layer="svg2" />
  <rect
     style="fill:#000000;fill-opacity:1;stroke:none"
     id="rect3102"
     width="400"
     height="400"
     x="0"
     y="7.6293945e-06" />
  <path
     style="fill:#ffffff"
     d="M 369.58127,30.355492 C 336.85539,35.269622 304.19173,40.594259 271.5,45.732108 L 299.96574,59.484343 276.1809,75.80863 286.95328,92.345459 313.3098,74.309271 311.99986,111.32457 C 331.2034,84.342002 350.55603,57.463762 369.58127,30.355492 z M 144.6091,178.04111 c 3.79093,-3.15375 4.94876,-9.7244 2.02444,-13.49847 -5.02198,-8.04894 -14.19556,-0.28501 -19.73703,2.93043 C 93.790588,187.56955 60.967573,208.12657 28.032037,228.5 28.021356,235.66667 28.010677,242.83333 28,250 z m 24.62016,127.0722 c 4.65226,-15.52576 -5.9093,-30.94553 -10.1766,-45.76019 -4.00802,-10.90079 -7.3591,-21.99696 -6.94105,-33.7127 -1.07546,-9.33096 2.71465,-18.43462 5.94429,-27.01735 10.43294,9.52206 19.05005,20.84433 27.02728,32.37693 6.80546,-5.8191 10.13661,-18.51962 18.71973,-21 5.52149,7.58011 7.46511,16.66262 6.40218,25.84998 -2.40739,12.6452 -8.88011,24.62194 -11.20455,37.27762 -0.99978,7.36207 1.41304,15.56857 8.74102,18.64324 5.26834,2.95561 12.6264,2.14923 17.49072,-1.58331 7.67344,-4.56074 9.78784,-15.30849 5.78206,-23.09806 -5.14903,-17.09848 -14.75939,-34.58343 -10.89667,-52.94498 1.1607,-10.95125 5.64742,-21.77799 11.63406,-30.82904 4.02747,-6.61358 7.95405,-5.30973 9.17129,2.15073 0.93635,8.49844 -1.12573,16.46073 -4.01442,24.43611 -2.5513,7.04388 -6.99426,16.25726 -0.096,22.4621 4.28511,3.85437 10.52227,4.45302 15.13871,1.17602 4.13495,-2.93522 5.67087,-8.21452 4.43784,-13.46053 -2.34905,-9.99419 -9.49898,-18.79747 -8.15043,-29.57261 -2.51,-16.86192 9.424,-31.29193 19.48783,-43.61054 5.82209,-10.35469 9.60807,-21.81716 8.26975,-33.7678 -1.08677,-11.74389 -5.794,-23.950172 -15.23045,-31.503844 C 229.65946,54.468132 200.0725,80.09639 185.33399,106.02586 171.05993,85.654011 157.27638,68.505795 132.62447,70.889843 99.381166,74.104751 91.444259,97.771716 94.190884,124.41627 c 1.37475,13.33622 10.606356,24.51886 20.309126,33.71284 8.81383,-5.41624 17.77669,-12.81521 28.69834,-11.12457 9.21511,0.25795 16.89868,9.02807 19.16254,17.46123 -0.0413,6.56869 1.1023,13.5063 -3.73843,18.82706 -3.83807,7.94216 -12.80431,10.59462 -19.42312,15.64956 3.41743,10.81021 1.90818,22.36747 1.92575,33.49524 -3.58336,20.99624 -15.82622,39.23265 -20.12508,59.98257 -1.72562,8.32928 1.07599,17.01304 7.61553,22.72867 13.90851,12.15618 35.43282,7.2544 40.61372,-10.03556 z m 84.79823,25.16745 c 7.61459,-4.40148 7.2839,-13.70054 2.92795,-19.81483 -3.9909,-7.69429 -8.65857,-18.14942 -10.07615,-26.81234 -2.08627,10.76012 -7.51525,22.91796 -11.77079,32.79769 -2.57141,5.92429 0.90327,11.57955 6.40654,14.34865 3.28085,1.65084 9.16277,1.41705 12.51245,-0.51917 z m -46.64587,20.92548 c -1.91999,-10.05247 -8.84273,-18.06594 -13.17488,-27.23459 -5.57901,-11.8075 -5.8912,-13.44714 -7.5409,-26.96326 -2.54857,14.94791 -3.43335,18.80855 -7.17652,27.06497 -3.74317,8.25642 -9.26926,16.18401 -10.98279,22.99465 -3.39853,13.50788 5.04465,25.30973 20.09484,24.89147 11.27093,-0.31323 20.45778,-11.97026 18.78025,-20.75324 z"
     id="path3001"
     inkscape:connector-curvature="0"
     sodipodi:nodetypes="ccccccccccccccscccccccccccccsssscccccssccccccsssscccsssscssss" />
</svg>
