<?xml version="1.0" encoding="UTF-8" standalone="no"?>
<svg
   id="svg8"
   version="1.1"
   height="512"
   width="512"
   viewBox="0 0 617.28688 616.86748"
   sodipodi:docname="discord.svg"
   inkscape:version="1.2.2 (b0a8486541, 2022-12-01)"
   xmlns:inkscape="http://www.inkscape.org/namespaces/inkscape"
   xmlns:sodipodi="http://sodipodi.sourceforge.net/DTD/sodipodi-0.dtd"
   xmlns="http://www.w3.org/2000/svg"
   xmlns:svg="http://www.w3.org/2000/svg"
   xmlns:rdf="http://www.w3.org/1999/02/22-rdf-syntax-ns#"
   xmlns:cc="http://creativecommons.org/ns#"
   xmlns:dc="http://purl.org/dc/elements/1.1/">
  <sodipodi:namedview
     pagecolor="#ffffff"
     bordercolor="#666666"
     borderopacity="1"
     objecttolerance="10"
     gridtolerance="10"
     guidetolerance="10"
     inkscape:pageopacity="0"
     inkscape:pageshadow="2"
     inkscape:window-width="1876"
     inkscape:window-height="1052"
     id="namedview9"
     showgrid="false"
     inkscape:pagecheckerboard="true"
     inkscape:zoom="0.99999999"
     inkscape:cx="53"
     inkscape:cy="370.5"
     inkscape:window-x="0"
     inkscape:window-y="0"
     inkscape:window-maximized="1"
     inkscape:current-layer="svg8"
     inkscape:showpageshadow="0"
     inkscape:deskcolor="#d1d1d1" />
  <metadata
     id="metadata14">
    <rdf:RDF>
      <cc:Work
         rdf:about="">
        <dc:format>image/svg+xml</dc:format>
        <dc:type
           rdf:resource="http://purl.org/dc/dcmitype/StillImage" />
      </cc:Work>
    </rdf:RDF>
  </metadata>
  <defs
     id="defs12" />
  <path
     style="fill:#ffffff;stroke:#000000;stroke-width:4.82255375;stroke-linecap:square;stroke-linejoin:round;stroke-dasharray:none;stroke-opacity:1;paint-order:stroke fill markers"
     d="m 241.39374,132.83728 c 0,0 -57.33968,-1.26716 -118.0513,43.84496 0,0 -60.708406,109.19978 -60.708406,243.69294 0,0 35.416342,60.70732 128.591846,63.65862 0,0 15.60072,-18.55074 28.24898,-34.57186 -53.54432,-16.02112 -73.78387,-49.33008 -73.78387,-49.33008 0,0 4.21905,2.95178 11.80799,7.16786 0.4216,0 0.83954,0.42336 1.68277,0.845 1.26482,0.84318 2.53035,1.26916 3.79517,2.11236 10.54024,5.90254 21.0797,10.5341 30.77668,14.32856 17.28598,7.16736 37.94424,13.4932 61.97586,18.13088 31.62066,5.90256 68.72628,8.01148 109.20064,0.4225 19.81562,-3.79446 40.05046,-9.2771 61.13092,-18.1309 14.75628,-5.48088 31.19916,-13.49288 48.48508,-24.87626 0,0 -21.08086,34.15302 -76.31156,49.75254 12.64826,15.5995 27.82648,33.72688 27.82648,33.72688 93.17548,-2.95124 128.59184,-63.2361 128.59184,-63.2361 0,-134.49316 -60.71562,-243.69294 -60.71562,-243.69294 C 433.64726,131.57012 375.886,132.83728 375.886,132.83728 l -5.90044,6.74537 c 71.67352,21.50204 104.98302,53.11808 104.98302,53.11808 -43.84726,-23.61007 -86.85628,-35.41211 -126.90906,-40.0498 -30.3558,-3.37286 -59.44406,-2.5279 -85.16218,0.84496 -2.52962,0 -4.63818,0.42336 -7.16788,0.84497 -14.75624,1.68643 -50.59068,6.74342 -95.70275,26.55903 -15.59952,6.74573 -24.87627,11.80084 -24.87627,11.80084 0,0 34.57141,-33.30597 110.46094,-54.808 z M 230.0154,288.4106 c 24.03168,0 43.42158,20.65458 42.99998,46.37272 0,25.71808 -18.9683,46.37982 -42.99998,46.37982 -23.6101,0 -43.00718,-20.66174 -43.00718,-46.37982 0,-25.71814 18.9755,-46.37272 43.00718,-46.37272 z m 153.8834,0 c 23.61006,0 43.00718,20.65458 43.00718,46.37272 0,25.71808 -18.97546,46.37982 -43.00718,46.37982 -23.6101,0 -42.99998,-20.66174 -42.99998,-46.37982 0,-25.71814 18.96832,-46.37272 42.99998,-46.37272 z"
     id="path4"
     inkscape:connector-curvature="0"
     sodipodi:nodetypes="ccccccccccccccccccccccccccccscssssssss" />
</svg>
