<?xml version="1.0" encoding="UTF-8" standalone="no"?>
<svg
   viewBox="0 0 512 512"
   style="height: 512px; width: 512px;"
   version="1.1"
   id="svg6"
   sodipodi:docname="execute.svg"
   inkscape:version="1.2.2 (b0a8486541, 2022-12-01)"
   xmlns:inkscape="http://www.inkscape.org/namespaces/inkscape"
   xmlns:sodipodi="http://sodipodi.sourceforge.net/DTD/sodipodi-0.dtd"
   xmlns="http://www.w3.org/2000/svg"
   xmlns:svg="http://www.w3.org/2000/svg">
  <defs
     id="defs10" />
  <sodipodi:namedview
     id="namedview8"
     pagecolor="#505050"
     bordercolor="#eeeeee"
     borderopacity="1"
     inkscape:showpageshadow="0"
     inkscape:pageopacity="0"
     inkscape:pagecheckerboard="0"
     inkscape:deskcolor="#505050"
     showgrid="false"
     inkscape:zoom="1.84375"
     inkscape:cx="325.9661"
     inkscape:cy="249.22034"
     inkscape:window-width="1876"
     inkscape:window-height="1052"
     inkscape:window-x="0"
     inkscape:window-y="0"
     inkscape:window-maximized="1"
     inkscape:current-layer="svg6" />
  <g
     class=""
     transform="translate(0,0)"
     style="stroke:#000000;stroke-opacity:1;stroke-width:4;stroke-dasharray:none;stroke-linecap:round;stroke-linejoin:round"
     id="g4">
    <path
       d="M326.1 32.71C225.6 59.65 191.7 102.6 180.2 136.3l-18.9 189c-33.4 27.9-75.14 45.3-122.16 60.9l18.31 37.3 38.59-13.8 22.06 21.4-17.3 27.6 36.2 19.1 20.5-29.9 36.8 7.2-10.9 30.4 41.8 9.9 12.6-37.5 42 .4 23 32.7 42.4-3.6-15.1-32.4 35.9-9.6 23.7 28.6 47.9-19.2-35.3-27.5 25.2-17.2 30.8 9.6 15.7-33c-42.9-18.7-87-37.1-114.8-59.9l-15.8-197.4c.6-19.4-43.1-50.58-17.3-96.69zM198.5 208c6 28.1 28.7 33.1 57.5 40.9-26.5.9-43.2 15.6-57.5 0-10.7-11.5-6.3-27.8 0-40.9zm131 0c6.3 13.1 10.7 29.4 0 40.9-14.3 15.6-31 .9-57.5 0 28.8-7.8 51.5-12.8 57.5-40.9z"
       fill="#ffffff"
       fill-opacity="1"
       id="path2"
       style="stroke:#000000;stroke-opacity:1;stroke-width:4;stroke-dasharray:none;stroke-linecap:round;stroke-linejoin:round" />
  </g>
</svg>
