<?xml version="1.0" encoding="UTF-8" standalone="no"?>
<!-- Created with Inkscape (http://www.inkscape.org/) -->

<svg
   xmlns:dc="http://purl.org/dc/elements/1.1/"
   xmlns:cc="http://creativecommons.org/ns#"
   xmlns:rdf="http://www.w3.org/1999/02/22-rdf-syntax-ns#"
   xmlns:svg="http://www.w3.org/2000/svg"
   xmlns="http://www.w3.org/2000/svg"
   xmlns:sodipodi="http://sodipodi.sourceforge.net/DTD/sodipodi-0.dtd"
   xmlns:inkscape="http://www.inkscape.org/namespaces/inkscape"
   version="1.1"
   width="400"
   height="400"
   id="svg2"
   inkscape:version="0.48.3.1 r9886"
   sodipodi:docname="locked.svg">
  <sodipodi:namedview
     pagecolor="#ffffff"
     bordercolor="#666666"
     borderopacity="1"
     objecttolerance="10"
     gridtolerance="10"
     guidetolerance="10"
     inkscape:pageopacity="0"
     inkscape:pageshadow="2"
     inkscape:window-width="629"
     inkscape:window-height="451"
     id="namedview7"
     showgrid="false"
     inkscape:zoom="0.59"
     inkscape:cx="200"
     inkscape:cy="200"
     inkscape:window-x="558"
     inkscape:window-y="113"
     inkscape:window-maximized="0"
     inkscape:current-layer="svg2" />
  <metadata
     id="metadata8">
    <rdf:RDF>
      <cc:Work
         rdf:about="">
        <dc:format>image/svg+xml</dc:format>
        <dc:type
           rdf:resource="http://purl.org/dc/dcmitype/StillImage" />
        <dc:title />
      </cc:Work>
    </rdf:RDF>
  </metadata>
  <defs
     id="defs6" />
  <path
     d="m 0,0 400,0 0,400 -400,0 z"
     id="rect3022"
     style="fill:#000000;fill-opacity:1;stroke:none" />
  <path
     d="m 129.30137,160.25765 c 0.49115,-30.10313 1.24787,-35.46361 6.67946,-47.31657 9.50647,-20.745191 27.37526,-35.053129 49.71648,-39.809091 10.2202,-2.175656 25.2684,-1.240249 35.34228,2.196879 21.4366,7.314021 37.20825,23.184798 44.90585,45.188132 l 2.54226,7.26688 0.30901,29.74868 0.30903,29.7487 13.55933,0 13.55935,0 0,-28.9006 c 0,-15.90162 -0.42401,-31.32487 -0.94269,-34.29048 -5.77922,-33.041706 -29.46937,-62.455081 -59.96614,-74.453096 -20.45236,-8.046363 -44.38543,-8.972227 -64.87709,-2.509839 -31.96385,10.080317 -56.75892,36.238096 -65.01995,68.593335 -2.64055,10.34196 -3.51684,22.33835 -3.55192,48.62467 l -0.0306,22.93601 13.51225,0 13.51221,0 0.44088,-27.02361 z m 39.3672,169.40856 c 0.35466,-1.12411 5.08297,-15.59503 10.50728,-32.15764 5.42438,-16.56263 9.86246,-30.31947 9.86246,-30.57075 0,-0.25128 -1.82636,-1.5272 -4.05863,-2.83542 -9.29661,-5.44816 -13.8706,-18.43493 -10.58049,-30.04076 3.94526,-13.91682 21.52997,-21.83288 35.32074,-15.90025 17.039,7.32997 21.25356,30.32006 7.8271,42.69616 -2.1925,2.02097 -4.96077,4.11846 -6.15173,4.66109 l -2.16537,0.98663 10.79641,32.36109 c 5.93802,17.7986 10.7964,32.46967 10.7964,32.60238 0,0.1327 -14.12979,0.24126 -31.39955,0.24126 l -31.39952,0 0.6449,-2.04379 z m 51.70807,26.18603 c 49.14192,-7.56903 87.40268,-36.30925 101.06743,-75.91861 3.96077,-11.48086 5.07236,-19.80093 4.51414,-33.78749 -0.65127,-16.3172 -3.86479,-27.69777 -11.94068,-42.28736 l -2.63975,-4.76889 -111.95954,0 -111.959546,0 -3.137386,5.67724 c -12.203366,22.08254 -15.066251,48.56907 -7.830064,72.44146 6.177087,20.37835 21.577416,40.91948 41.241046,55.00777 12.19441,8.73685 32.83612,17.89127 48.14293,21.351 15.96082,3.60755 39.50541,4.59462 54.50142,2.28488 z"
     id="path2989"
     style="fill:#ffffff"
     inkscape:connector-curvature="0" />
</svg>
