<?xml version="1.0" encoding="UTF-8" standalone="no"?>
<svg
   xmlns:dc="http://purl.org/dc/elements/1.1/"
   xmlns:cc="http://creativecommons.org/ns#"
   xmlns:rdf="http://www.w3.org/1999/02/22-rdf-syntax-ns#"
   xmlns:svg="http://www.w3.org/2000/svg"
   xmlns="http://www.w3.org/2000/svg"
   id="svg6"
   version="1.1"
   style="height: 512px; width: 512px;"
   viewBox="0 0 512 512">
  <metadata
     id="metadata12">
    <rdf:RDF>
      <cc:Work
         rdf:about="">
        <dc:format>image/svg+xml</dc:format>
        <dc:type
           rdf:resource="http://purl.org/dc/dcmitype/StillImage" />
        <dc:title></dc:title>
      </cc:Work>
    </rdf:RDF>
  </metadata>
  <defs
     id="defs10" />
  <g
     id="g4"
     class="">
    <path
       style="fill:#ffffff;fill-opacity:1;stroke:#000000;stroke-width:5;stroke-opacity:1;stroke-miterlimit:4;stroke-dasharray:none"
       id="path2"
       transform="matrix(0.8,0,0,0.8,51.2,51.2)"
       d="m 235.045,25.752 -41.775,8.215 6.894,35.947 c -19.303,5.91 -37.997,14.43 -54.643,25.852 l -23.834,-27.78 -32.647,28.172 24.433,27.988 c -13.495,14.454 -25.328,31.203 -34.16,49.78 l -34.673,-12.113 -14.203,40.652 34.674,12.11 c -4.54,19.832 -5.6,40.113 -4.057,59.624 l -36.547,6.685 8.006,42.37 35.947,-6.896 c 5.91,19.303 15.235,37.61 26.657,54.255 l -27.777,23.837 27.572,32.44 27.78,-23.837 c 14.537,13.64 31.05,25.255 49.78,34.158 l -12.115,34.675 40.653,14.2 12.11,-34.67 c 20.202,4.695 40.354,5.885 60.222,4.267 l 6.894,35.947 41.774,-8.214 -6.895,-35.947 c 19.304,-5.912 38,-14.43 54.645,-25.853 l 23.836,27.778 32.646,-28.17 -24.433,-27.99 c 13.355,-14.305 25.153,-30.836 33.948,-49.18 l 34.674,12.113 14.2,-40.652 -34.673,-12.112 c 4.654,-20.034 5.825,-40.508 4.27,-60.22 l 36.543,-6.688 -8.003,-42.37 -35.948,6.894 c -5.91,-19.304 -15.237,-37.608 -26.66,-54.254 l 27.78,-23.836 -27.573,-32.438 -27.78,23.836 c -14.538,-13.64 -31.05,-25.257 -49.78,-34.16 l 11.905,-34.076 -40.65,-14.2 v 0.003 L 302.16,65.97 c -20.2,-4.698 -40.35,-5.887 -60.22,-4.27 z m 23.178,87.603 c 28.01,0.105 56.29,8.287 81.183,25.24 59.008,40.186 79.122,116.127 51.112,179.13 l -57.065,-38.862 c 8.25,-31.382 -3.378,-65.89 -31.715,-85.19 -28.34,-19.3 -64.227,-17.152 -90.408,2.02 L 154.014,156.66 c 27.96,-28.41 65.826,-43.448 104.21,-43.305 z m -133.523,86.227 56.89,38.744 c -8.423,31.474 2.948,66.307 31.39,85.676 28.44,19.37 65.5,17.52 91.7,-1.848 l 56.625,38.565 c -48.347,49.327 -126.52,58.51 -185.614,18.266 C 116.6,338.742 96.51,262.64 124.7,199.582 Z m 132.87,14.29 c 8.663,0.03 17.408,2.56 25.102,7.798 20.516,13.973 25.83,41.964 11.857,62.48 -13.972,20.517 -41.967,25.827 -62.483,11.856 -20.516,-13.972 -25.827,-41.964 -11.856,-62.48 8.734,-12.823 22.942,-19.707 37.38,-19.655 z" />
  </g>
</svg>
