<svg xmlns="http://www.w3.org/2000/svg" viewBox="0 0 512 512" style="height: 512px; width: 512px;"><g class="" transform="translate(0,0)" style="touch-action: none;"><path d="M257.78 19.438c-127.92.016-231.75 103.855-231.75 231.78 0 55.734 19.71 106.776 52.532 146.72L57.75 434.094h132.406l-66.312-114.72-22.375 39c-20.9-30.478-33.064-67.442-33.064-107.155 0-104.523 84.854-189.376 189.375-189.376 104.523 0 189.408 84.853 189.408 189.375 0 39.108-11.68 75.664-32 105.874l-21.875-37.72L327 434.095h132.406l-21.594-37.47c32.225-39.78 51.75-90.253 51.75-145.405 0-127.927-103.827-231.766-231.75-231.782h-.03zm-.655 75.468c-49.528-.047-110.474 29.232-128.406 104.938l60.75 14.312c26.965-76.242 90.87-70.824 113.31-28.625 26.775 50.346-89.687 107.283-84.124 190.407h77.688c6.49-98.144 118.973-123.49 59.562-229.53C337.963 114.38 301 96.572 261.876 95.03V95a124.446 124.446 0 0 0-4.75-.094zm-2.375 301.064a48.45 48.45 0 0 0-48.594 48.592 48.452 48.452 0 0 0 48.594 48.594 48.452 48.452 0 0 0 48.594-48.594 48.452 48.452 0 0 0-48.594-48.593z" fill="#fff" fill-opacity="1" stroke="#000000" stroke-opacity="1" stroke-width="4" transform="translate(512, 512) scale(-1, -1) rotate(-180, 256, 256)"></path></g></svg>
