<svg xmlns="http://www.w3.org/2000/svg" viewBox="0 0 512 512" style="height: 512px; width: 512px;"><g class="" transform="translate(0,0)" style="touch-action: none;"><path d="M256 20.688C143.01 20.688 51.25 112.415 51.25 225.344c0 112.93 91.76 204.656 204.75 204.656 112.99 0 204.75-91.728 204.75-204.656C460.75 112.416 368.99 20.688 256 20.688zm0 35.625c93.42 0 169.125 75.666 169.125 169.03 0 93.368-75.705 169.564-169.125 169.564-93.417 0-169.156-76.197-169.156-169.564 0-93.366 75.737-169.03 169.156-169.03zm0 67.312c-9.68 0-19.17 1.363-28.28 3.94l9.72 40.157c6.24-1.71 12.73-2.624 19.34-2.624 36.455 0 65.97 29.487 65.97 65.904 0 36.416-29.514 65.904-65.97 65.904-36.458 0-65.97-29.488-65.97-65.904 0-13.15 3.844-25.39 10.437-35.625H181.75v-51.688h149.313c-2.75-8.67-4.28-17.87-4.28-27.406 0-7.04.74-13.89 2.094-20.5l-41.97-9.28c-2.14 8.53-3.312 17.44-3.312 26.56 0 10.68 1.58 20.98 4.374 30.688h-38.063v51.688H256zm-76.312 51.688v25.844h51.687v-25.844H179.688zm0 102.25c0-9.374 7.594-16.968 16.97-16.968h84.374c9.374 0 16.968 7.594 16.968 16.968 0 9.376-7.594 16.97-16.968 16.97H196.657c-9.376 0-16.97-7.595-16.97-16.97zm221.78-35.53c-3.77 14.9-11.55 27.94-22.03 38.25l29.53 29.53c18.18-22.03 29.44-50.69 29.44-82.25 0-70.14-56.76-126.905-126.906-126.905-25.87 0-49.73 7.74-69.22 20.905l33.874 33.874c12.94-7.03 27.78-11.03 43.53-11.03 47.574 0 86.158 38.58 86.158 86.157 0 19.35-6.37 37.19-17.094 51.688H281.78v40.53H379.53v-40.53h-54.374z" fill="#fff" fill-opacity="1" stroke="#000000" stroke-opacity="1" stroke-width="4" transform="translate(512, 512) scale(-1, -1) rotate(-180, 256, 256)"></path></g></svg>
