<?xml version="1.0" encoding="UTF-8" standalone="no"?>
<!-- Created with Inkscape (http://www.inkscape.org/) -->

<svg
   xmlns:dc="http://purl.org/dc/elements/1.1/"
   xmlns:cc="http://creativecommons.org/ns#"
   xmlns:rdf="http://www.w3.org/1999/02/22-rdf-syntax-ns#"
   xmlns:svg="http://www.w3.org/2000/svg"
   xmlns="http://www.w3.org/2000/svg"
   version="1.1"
   width="512"
   height="512"
   id="svg2">
  <metadata
     id="metadata8">
    <rdf:RDF>
      <cc:Work
         rdf:about="">
        <dc:format>image/svg+xml</dc:format>
        <dc:type
           rdf:resource="http://purl.org/dc/dcmitype/StillImage" />
        <dc:title></dc:title>
      </cc:Work>
    </rdf:RDF>
  </metadata>
  <defs
     id="defs6" />
  <path
     d="m 0,0 512,0 0,512 -512,0 z"
     id="rect3285"
     style="fill:#000000;fill-opacity:1;fill-rule:nonzero;stroke:none" />
  <path
     d="m 457.78048,132.22296 c 9.85485,-2.6357 18.12116,-4.9954 18.36956,-5.24381 0.40655,-0.40654 -13.38102,-53.372317 -14.87209,-57.131989 -0.54981,-1.386337 -2.78008,-0.984511 -19.99746,3.602935 -10.65825,2.839812 -19.54852,5.308748 -19.75614,5.486526 -0.20764,0.177777 3.1592,13.523934 7.48185,29.658128 6.49656,24.24823 8.1192,29.2556 9.35786,28.87763 0.82416,-0.25149 9.56155,-2.61374 19.41642,-5.24942 z m -84.28187,8.40376 c 23.5023,-6.29964 42.87013,-11.57839 43.03963,-11.73055 0.34567,-0.3103 -6.10828,-24.99656 -6.68615,-25.57443 -0.63641,-0.63641 -93.35109,24.46198 -93.35109,25.27066 0,0.42226 1.73282,3.59882 3.85069,7.05903 2.11789,3.46022 4.85948,8.57233 6.09243,11.36025 1.23295,2.78791 2.71003,5.06894 3.2824,5.06894 0.57236,0 20.26981,-5.15425 43.77209,-11.4539 z m -52.27128,50.92014 c -6.3e-4,-8.344 -5.78178,-28.4342 -11.45218,-39.79778 -6.60499,-13.23649 -16.89572,-26.59196 -26.69887,-34.65018 l -4.59311,-3.77555 -61.34151,0 -61.34152,0 0,-29.77692 0,-29.776923 -9.45299,0 -9.45299,0 0,31.466732 0,31.466731 -4.81958,4.69096 c -11.66288,11.35163 -23.90315,31.25541 -28.39743,46.17671 -2.4586,8.16271 -4.592334,18.86003 -4.593845,23.03092 l -0.0011,3.07222 111.072645,0 111.07265,0 -1.6e-4,-2.12692 z m -258.199286,96.18419 7.844869,-3.30855 181.245257,0 181.24527,0 8.3897,2.8359 c 4.61433,1.55974 8.57089,2.8359 8.79235,2.8359 0.22146,0 0.11441,-2.02058 -0.23791,-4.49017 -2.00253,-14.03734 -14.56915,-28.34398 -36.30811,-41.33549 -20.02905,-11.96965 -60.19815,-25.23677 -96.55317,-31.88975 -11.78357,-2.1564 -12.06845,-2.16237 -103.03761,-2.16237 l -91.22137,0 -34.03077,16.18705 -34.03077,16.18706 -0.252283,24.22448 c -0.138757,13.32347 -0.125842,24.22449 0.0287,24.22449 0.154541,0 3.811172,-1.48885 8.12585,-3.30855 z m 296.761566,36.63343 -4.44898,-5.91124 9.0549,0 c 7.10185,0 8.8575,0.25486 8.13969,1.18163 -0.50337,0.64989 -2.57603,3.30995 -4.60592,5.91124 l -3.6907,4.72965 -4.44899,-5.91125 z m -108.7094,0.16568 -4.44899,-6.07692 9.41181,0 c 5.17649,0 9.41181,0.35124 9.41181,0.78053 0,0.42928 -1.09,1.80453 -2.42224,3.05609 -1.33223,1.25157 -3.28115,3.66533 -4.33095,5.36392 -1.04978,1.69859 -2.19304,3.05797 -2.54057,3.02083 -0.34753,-0.0371 -2.63393,-2.80214 -5.08087,-6.14445 z m -107.82772,-0.0363 -4.51262,-6.04059 9.00279,0 c 4.95153,0 9.00278,0.26748 9.00278,0.59441 0,0.32692 -1.3825,2.13862 -3.07222,4.02601 -1.68972,1.88738 -3.7103,4.33816 -4.49017,5.44619 -1.3867,1.97018 -1.51742,1.88144 -5.93056,-4.02602 z m 268.03922,82.74705 c -13.29239,-1.70544 -27.16345,-11.99547 -33.1743,-24.60984 -12.81906,-26.90204 4.01074,-58.66565 33.50868,-63.24241 29.03517,-4.50496 55.07687,21.62644 50.44529,50.61904 -3.89882,24.40564 -25.76971,40.44205 -50.77967,37.23321 z m -51.5021,-4.89546 4.44899,-5.91125 3.6907,4.72963 c 2.02989,2.60128 4.10255,5.26134 4.60592,5.91124 0.71781,0.92676 -1.03784,1.18162 -8.13969,1.18162 l -9.0549,0 4.44898,-5.91124 z m -55.5775,4.91414 c -15.22706,-2.04019 -26.87398,-10.78907 -33.90858,-25.47128 -3.06426,-6.39556 -3.4309,-8.01532 -3.74443,-16.54273 -0.28814,-7.83724 0.004,-10.49451 1.70981,-15.54643 10.59647,-31.38419 49.05892,-41.06195 72.88227,-18.33833 17.86289,17.03832 18.45521,44.698 1.34141,62.64003 -10.02142,10.50642 -23.63382,15.22117 -38.28048,13.25874 z M 250.3099,403.443 c 2.09275,-2.64753 4.23988,-5.51887 4.77139,-6.38077 0.86184,-1.39753 1.1429,-1.31231 2.59776,0.78768 0.89724,1.29512 3.01385,3.89898 4.70357,5.78637 1.68972,1.88738 3.07222,3.69908 3.07222,4.02601 0,0.32692 -4.26373,0.5944 -9.47497,0.5944 l -9.47498,0 3.80501,-4.81369 z m -54.80719,3.8328 c -16.23124,-2.12412 -30.67603,-14.20598 -35.86433,-29.99751 -2.65814,-8.09048 -2.65158,-19.9284 0.0154,-27.84528 10.48012,-31.10976 49.07352,-40.69194 72.78796,-18.07219 17.8629,17.03832 18.45522,44.698 1.34142,62.64003 -10.0128,10.49741 -23.57267,15.19971 -38.28045,13.27495 z m -52.25022,-5.0597 c 4.41314,-5.90746 4.54386,-5.9962 5.93056,-4.02601 0.77987,1.10802 2.80045,3.5588 4.49017,5.44619 1.68972,1.88738 3.07222,3.69908 3.07222,4.02601 0,0.32692 -4.05125,0.5944 -9.00278,0.5944 l -9.00279,0 4.51262,-6.04059 z m -56.736078,4.98867 c -11.0941,-1.5819 -23.563761,-9.75723 -29.868487,-19.58229 -9.403399,-14.65392 -9.403399,-33.88108 0,-48.535 6.513887,-10.15101 18.433721,-17.78935 30.740554,-19.69882 29.050041,-4.50727 55.237491,21.66924 50.527361,50.50623 -4.03826,24.72363 -26.30668,40.88785 -51.399428,37.30988 z m 349.092278,16.78627 c 27.89832,-9.41017 45.37436,-32.76429 45.37436,-60.63606 0,-29.03655 -19.42313,-53.73017 -48.01381,-61.04244 -6.89505,-1.76345 -12.37151,-1.81944 -176.40962,-1.80354 -187.059583,0.0181 -175.83724,-0.34332 -189.406055,6.10049 -13.49934,6.4108 -23.605209,16.51667 -30.016017,30.01601 -14.853212,31.27664 -1.440109,68.53653 30.056973,83.49443 13.337781,6.33408 1.63552,5.97943 191.170579,5.79354 164.82021,-0.16165 172.26276,-0.24238 177.24359,-1.92243 z"
     id="path3236"
     style="fill:#ffffff" />
</svg>
