<?xml version="1.0" encoding="UTF-8" standalone="no"?>
<!-- Created with Inkscape (http://www.inkscape.org/) -->

<svg
   xmlns:dc="http://purl.org/dc/elements/1.1/"
   xmlns:cc="http://creativecommons.org/ns#"
   xmlns:rdf="http://www.w3.org/1999/02/22-rdf-syntax-ns#"
   xmlns:svg="http://www.w3.org/2000/svg"
   xmlns="http://www.w3.org/2000/svg"
   version="1.1"
   width="512"
   height="512"
   id="svg2">
  <metadata
     id="metadata8">
    <rdf:RDF>
      <cc:Work
         rdf:about="">
        <dc:format>image/svg+xml</dc:format>
        <dc:type
           rdf:resource="http://purl.org/dc/dcmitype/StillImage" />
        <dc:title></dc:title>
      </cc:Work>
    </rdf:RDF>
  </metadata>
  <defs
     id="defs6" />
  <path
     d="m 0,0 512,0 0,512 -512,0 z"
     id="rect3026"
     style="fill:#000000;fill-opacity:1;stroke:none" />
  <path
     d="m 376.64,246.16407 c 29.76522,-14.73814 32.96,-16.62586 32.96,-19.47519 0,-5.89868 -15.65512,-132.605188 -16.46972,-133.29961 -0.44566,-0.379902 -18.48778,-0.379902 -40.09362,0 L 313.75332,94.08 295.03425,121.6 c -10.29549,15.136 -19.40449,28.22194 -20.24225,29.07987 -1.19293,1.22167 -2.84022,0.70317 -7.59759,-2.39147 -3.34093,-2.17324 -6.0413,-4.60319 -6.00082,-5.39987 0.0405,-0.79669 9.98674,-15.84853 22.10282,-33.44853 l 22.02923,-32 25.38358,-0.347482 c 19.45704,-0.266351 25.23373,-0.71463 24.74179,-1.92 -2.67529,-6.554944 -16.63095,-38.783049 -16.94449,-39.130231 -0.5096,-0.564309 -144.27488,6.249565 -145.30611,6.886905 -0.42776,0.264368 -8.16347,19.657451 -17.19048,43.095739 -9.02701,23.438289 -16.47448,42.719449 -16.54996,42.847029 -0.0755,0.12762 -9.92085,1.78532 -21.87861,3.68387 -11.95774,1.89854 -22.42971,4.09816 -23.27102,4.88804 -1.3298,1.24848 -41.203335,90.44061 -41.775297,93.44611 -0.118272,0.6215 8.136957,7.66292 18.344957,15.64759 l 18.56,14.51761 116.48,0.35923 c 64.064,0.19757 116.768,0.51908 117.12,0.71445 0.352,0.19538 15.472,-6.98879 33.6,-15.96479 z m -272.83417,83.57256 c 1.33385,-2.18715 4.23345,-9.44863 6.44356,-16.13663 6.04327,-18.28751 10.37391,-27.05176 15.65389,-31.68 l 4.7458,-4.16 -13.05059,0 -13.05059,0 -9.679291,-7.36 C 74.514271,254.92283 74.933759,255.20061 76.06009,257.94542 c 2.69435,6.56602 6.017804,22.45715 9.083749,43.43405 1.84725,12.63872 4.127609,24.81989 5.067466,27.06929 3.200639,7.66019 9.352872,8.24303 13.594525,1.28787 z m 287.61773,71.65258 c 5.03267,-2.63656 11.35024,-9.63844 13.63157,-15.1081 3.59053,-8.60857 2.59639,-15.16018 -5.27477,-34.7621 l -7.25962,-18.07901 -0.5717,-16.31904 c -0.64818,-18.50244 1.48871,-33.48572 7.51867,-52.71905 1.98503,-6.33146 3.41438,-11.70649 3.17635,-11.94451 -0.32259,-0.3226 -40.84124,19.10196 -44.16962,21.17482 -0.31105,0.19371 1.2351,3.93771 3.43588,8.32 5.31282,10.57908 7.47157,17.4762 9.38775,29.99352 2.10658,13.76104 0.53201,22.96791 -6.86723,40.1545 -9.4873,22.0366 -9.99293,25.40724 -5.2143,34.75947 2.51426,4.92065 10.32626,12.45434 15.04371,14.50777 5.222,2.27304 12.84756,2.28271 17.16331,0.0218 z m -284.80245,11.60146 c 5.65136,-2.36129 12.1093,-10.03875 13.16137,-15.64677 2.6736,-14.25154 -11.28572,-28.16726 -25.092593,-25.01422 -6.159139,1.40655 -9.530316,3.3626 -12.666279,7.34933 -13.353465,16.97618 4.812814,41.57822 24.597502,33.31166 z m 173.12393,61.94792 c 8.12852,-3.52584 14.19165,-9.72647 19.09536,-19.5284 7.77304,-15.53738 5.91184,-25.11173 -9.51307,-48.93708 -10.74339,-16.59427 -12.84975,-24.20565 -12.84218,-46.40579 0.006,-17.60918 2.58517,-35.23527 7.15838,-48.92041 4.00488,-11.98443 8.24293,-19.37783 15.64214,-27.28818 l 5.70464,-6.09873 -76.01515,0.11546 c -50.21356,0.0763 -74.58637,0.52748 -71.80576,1.32939 6.32331,1.82359 17.99665,14.42392 24.79717,26.76632 9.85335,17.88306 15.63388,40.7235 13.36597,52.8125 -0.46712,2.48994 -3.40595,7.81963 -6.53074,11.84375 -10.23915,13.18601 -11.7395,21.92906 -5.4003,31.46955 3.38066,5.08789 12.53239,10.06304 18.51083,10.06304 13.24809,0 25.15144,-13.77038 22.78897,-26.3634 -0.43292,-2.30769 -2.77075,-6.96798 -5.19516,-10.35619 -9.0698,-12.6754 -10.11931,-16.10638 -10.10683,-33.04041 0.0128,-16.76021 2.07449,-26.42836 7.71117,-36.15287 5.25595,-9.06768 14.80898,-11.86315 23.15339,-6.77529 12.07637,7.36336 20.98412,41.19052 18.38266,69.80816 -1.49581,16.45497 -3.42193,21.53472 -13.01225,34.31742 -11.38577,15.17577 -16.51608,26.3788 -16.50714,36.04647 0.009,9.72825 1.52595,15.19566 6.30844,22.73686 9.00548,14.20017 28.06802,19.60272 44.30946,12.55784 z"
     id="path2989"
     style="fill:#ffffff" />
</svg>
