<?xml version="1.0" encoding="UTF-8" standalone="no"?>
<!-- Created with Inkscape (http://www.inkscape.org/) -->

<svg
   xmlns:dc="http://purl.org/dc/elements/1.1/"
   xmlns:cc="http://creativecommons.org/ns#"
   xmlns:rdf="http://www.w3.org/1999/02/22-rdf-syntax-ns#"
   xmlns:svg="http://www.w3.org/2000/svg"
   xmlns="http://www.w3.org/2000/svg"
   xmlns:sodipodi="http://sodipodi.sourceforge.net/DTD/sodipodi-0.dtd"
   xmlns:inkscape="http://www.inkscape.org/namespaces/inkscape"
   id="svg2"
   version="1.1"
   inkscape:version="0.48.3.1 r9886"
   width="400"
   height="400"
   sodipodi:docname="Icon.6_86.png">
  <metadata
     id="metadata8">
    <rdf:RDF>
      <cc:Work
         rdf:about="">
        <dc:format>image/svg+xml</dc:format>
        <dc:type
           rdf:resource="http://purl.org/dc/dcmitype/StillImage" />
        <dc:title></dc:title>
      </cc:Work>
    </rdf:RDF>
  </metadata>
  <defs
     id="defs6" />
  <sodipodi:namedview
     pagecolor="#ffffff"
     bordercolor="#666666"
     borderopacity="1"
     objecttolerance="10"
     gridtolerance="10"
     guidetolerance="10"
     inkscape:pageopacity="0"
     inkscape:pageshadow="2"
     inkscape:window-width="1855"
     inkscape:window-height="1056"
     id="namedview4"
     showgrid="false"
     inkscape:zoom="0.59"
     inkscape:cx="200"
     inkscape:cy="200"
     inkscape:window-x="65"
     inkscape:window-y="24"
     inkscape:window-maximized="1"
     inkscape:current-layer="svg2" />
  <path
     style="fill:#000000"
     d="m 0,0 400,0 0,400 -400,0 z"
     id="rect3020" />
  <path
     id="path2989"
     style="fill:#ffffff"
     d="m 154,301.5 0,-55.5 -55.5,0 -55.5,0 0,-44 0,-44 55.5,0 55.5,0 0,-56 0,-56 44.5,0 44.5,0 0,56 0,56 55.5,0 55.5,0 0,44 0,44 -55.5,0 -55.5,0 0,55.5 0,55.5 -44.5,0 -44.5,0 0,-55.5 z m 103,43.5 0,-26 29.5,0 29.5,0 0,-29.5 0,-29.5 26,0 26,0 0,-58.5 0,-58.5 -26,0 -26,0 0,-29.5 0,-29.5 -29.5,0 -29.5,0 0,-26 0,-26 -58.5,0 -58.5,0 0,26 0,26 -29.5,0 -29.5,0 0,29.5 0,29.5 -26,0 -26,0 0,58.5 0,58.5 26,0 26,0 0,29.5 0,29.5 29.5,0 29.5,0 0,26 0,26 58.5,0 58.5,0 0,-26 z" />
</svg>
