<?xml version="1.0" encoding="UTF-8" standalone="no"?>
<!-- Created with Inkscape (http://www.inkscape.org/) -->

<svg
   xmlns:dc="http://purl.org/dc/elements/1.1/"
   xmlns:cc="http://creativecommons.org/ns#"
   xmlns:rdf="http://www.w3.org/1999/02/22-rdf-syntax-ns#"
   xmlns:svg="http://www.w3.org/2000/svg"
   xmlns="http://www.w3.org/2000/svg"
   xmlns:sodipodi="http://sodipodi.sourceforge.net/DTD/sodipodi-0.dtd"
   xmlns:inkscape="http://www.inkscape.org/namespaces/inkscape"
   id="svg2"
   version="1.1"
   inkscape:version="0.48.3.1 r9886"
   width="400"
   height="400"
   sodipodi:docname="Icon.3_34.png">
  <metadata
     id="metadata8">
    <rdf:RDF>
      <cc:Work
         rdf:about="">
        <dc:format>image/svg+xml</dc:format>
        <dc:type
           rdf:resource="http://purl.org/dc/dcmitype/StillImage" />
        <dc:title></dc:title>
      </cc:Work>
    </rdf:RDF>
  </metadata>
  <defs
     id="defs6" />
  <sodipodi:namedview
     pagecolor="#ffffff"
     bordercolor="#666666"
     borderopacity="1"
     objecttolerance="10"
     gridtolerance="10"
     guidetolerance="10"
     inkscape:pageopacity="0"
     inkscape:pageshadow="2"
     inkscape:window-width="1855"
     inkscape:window-height="1056"
     id="namedview4"
     showgrid="false"
     inkscape:zoom="0.59"
     inkscape:cx="200"
     inkscape:cy="200"
     inkscape:window-x="65"
     inkscape:window-y="24"
     inkscape:window-maximized="1"
     inkscape:current-layer="svg2" />
  <path
     style="fill:#000000"
     d="m 0,0 400,0 0,400 -400,0 z"
     id="rect3024" />
  <path
     id="path2989"
     style="fill:#ffffff"
     d="m 33.984687,217.42489 c 0.02519,-6.70244 3.913581,-26.30006 7.127918,-35.92489 6.466795,-19.36382 16.202544,-34.99341 29.578929,-47.48548 29.964976,-27.98398 70.455336,-26.34249 101.888956,4.13062 l 7.08049,6.86413 5.35333,-8.25463 c 9.98479,-15.3962 27.04235,-30.17297 44.09085,-38.195413 7.56403,-3.559373 23.41884,-8.547054 27.25671,-8.57454 5.72667,-0.04101 4.68177,-1.665985 -10.80196,-16.798564 C 237.03135,64.850976 226.37914,55.306982 221.88832,51.977247 208.31134,41.910526 192.45449,35.259651 174,31.891336 164.26418,30.114354 134.57247,30.079611 126.5,31.835756 94.114713,38.881093 70.898021,54.60966 53.095439,81.565003 30.634591,115.57355 23.039792,162.25986 31.181468,216.2733 c 1.214176,8.05507 2.774869,8.69622 2.803219,1.15159 z M 271.80029,276.5 c -4.94451,-6.71789 -6.92536,-13.48049 -6.9285,-23.65381 -0.003,-10.49763 1.89116,-18.57506 8.38357,-35.74651 5.0296,-13.30253 5.14307,-13.84041 5.19329,-24.61721 0.0489,-10.48715 -0.1071,-11.33954 -3.24014,-17.70699 -2.24853,-4.56981 -5.07652,-8.28043 -8.92488,-11.71043 l -5.6334,-5.02096 3.64277,-1.52205 c 5.19415,-2.17025 9.57585,-1.89003 15.33695,0.98084 6.86945,3.4232 15.19078,11.82001 22.52871,22.73308 11.87241,17.65681 17.67596,22.10619 28.8916,22.15014 5.52991,0.0217 7.71071,-0.54059 14,-3.60947 4.09736,-1.99933 8.98585,-4.65778 10.86332,-5.90766 l 3.41358,-2.27252 -0.64489,4.70498 c -2.04229,14.90016 -16.10926,25.12107 -44.49585,32.33021 -7.52753,1.91171 -15.52406,4.55176 -17.77006,5.86676 -11.33534,6.6367 -18.48902,21.01775 -20.28011,40.76915 l -0.65585,7.23245 -3.68011,-5 z m 13.92803,14.42402 c 45.05781,-5.02425 79.52456,-40.00289 84.17119,-85.42128 3.03732,-29.68823 -7.67201,-57.9723 -29.79396,-78.68791 -32.723,-30.642733 -81.67023,-34.236673 -119.19794,-8.75209 -17.63428,11.97521 -32.12176,32.68682 -38.07809,54.43726 -1.8069,6.59815 -2.19606,10.71609 -2.22085,23.5 -0.0346,17.84751 1.76731,26.61433 8.32427,40.5 14.16051,29.98768 42.60749,50.62867 75.06706,54.46827 9.60172,1.13578 11.17444,1.13258 21.72832,-0.0443 z M 196,372.43981 c 0,-0.3081 -5.5125,-6.7206 -12.25,-14.25 -25.55117,-28.55434 -38.40668,-45.62845 -54.83148,-72.82473 -25.29609,-41.88539 -39.734551,-86.44828 -37.454164,-115.5986 1.288214,-16.46731 5.962955,-27.91619 15.252884,-37.35573 l 5.27407,-5.35901 -3.24566,0.61696 C 98.326775,129.64922 88.431086,134.9746 79.07727,143.6348 59.440421,161.81551 48.025271,190.51857 46.320794,226 c -1.249848,26.0176 4.72161,59.17977 15.285873,84.88928 5.697578,13.8658 21.095982,42.22641 30.601075,56.36072 l 3.86678,5.75 49.962738,0 C 173.51677,373 196,372.74792 196,372.43981 z" />
</svg>
