<?xml version="1.0" encoding="UTF-8" standalone="no"?>
<!-- Created with Inkscape (http://www.inkscape.org/) -->

<svg
   xmlns:dc="http://purl.org/dc/elements/1.1/"
   xmlns:cc="http://creativecommons.org/ns#"
   xmlns:rdf="http://www.w3.org/1999/02/22-rdf-syntax-ns#"
   xmlns:svg="http://www.w3.org/2000/svg"
   xmlns="http://www.w3.org/2000/svg"
   xmlns:sodipodi="http://sodipodi.sourceforge.net/DTD/sodipodi-0.dtd"
   xmlns:inkscape="http://www.inkscape.org/namespaces/inkscape"
   id="svg2"
   version="1.1"
   inkscape:version="0.48.3.1 r9886"
   width="400"
   height="400"
   sodipodi:docname="1_96.png">
  <metadata
     id="metadata8">
    <rdf:RDF>
      <cc:Work
         rdf:about="">
        <dc:format>image/svg+xml</dc:format>
        <dc:type
           rdf:resource="http://purl.org/dc/dcmitype/StillImage" />
        <dc:title></dc:title>
      </cc:Work>
    </rdf:RDF>
  </metadata>
  <defs
     id="defs6" />
  <sodipodi:namedview
     pagecolor="#ffffff"
     bordercolor="#666666"
     borderopacity="1"
     objecttolerance="10"
     gridtolerance="10"
     guidetolerance="10"
     inkscape:pageopacity="0"
     inkscape:pageshadow="2"
     inkscape:window-width="1855"
     inkscape:window-height="1056"
     id="namedview4"
     showgrid="false"
     inkscape:zoom="0.59"
     inkscape:cx="200"
     inkscape:cy="200"
     inkscape:window-x="65"
     inkscape:window-y="24"
     inkscape:window-maximized="1"
     inkscape:current-layer="svg2" />
  <path
     style="fill:#000000;fill-opacity:1;stroke:none"
     d="m 0,0 400,0 0,400 -400,0 z"
     id="rect3024" />
  <path
     id="path2989"
     style="fill:#ffffff"
     d="M 237.70736,162.20737 C 188.91831,113.41601 149,73.196208 149,72.830027 c 0,-0.986767 14.26257,-5.446774 24,-7.504972 12.08568,-2.554546 41.13798,-2.529709 52.94742,0.04526 54.68484,11.923678 94.87131,51.292125 107.20054,105.018405 2.64385,11.52095 3.66118,37.16043 1.92,48.38936 -1.34981,8.705 -5.22483,24.09145 -7.28626,28.93139 l -1.36697,3.20947 -88.70737,-88.71157 z m -50.11583,48.88416 -95.904573,-95.90847 3.079272,-3.84153 c 2.853414,-3.55976 11.305951,-11.924944 17.265991,-17.087553 l 2.53222,-2.193419 96.2715,96.275382 96.2715,96.27538 -6.80372,7.58802 C 293.81873,299.43188 285.5605,307 284.15343,307 c -0.36153,0 -43.81439,-43.15881 -96.5619,-95.90847 z M 186.5,336.35332 C 163.43296,333.68508 141.14714,325.8977 124.5,314.68853 108.2913,303.77459 96.064832,291.72313 85.923151,276.66387 62.314398,241.60752 56.06914,198.86481 68.668697,158.57392 c 1.388658,-4.44066 2.830513,-8.40064 3.204121,-8.79997 0.373608,-0.39933 40.699942,39.29649 89.614062,88.21293 l 88.93478,88.93899 -3.63863,1.52032 C 231.884,334.6714 203.80253,338.35476 186.5,336.35332 z M 213,369.98536 C 283.98786,363.82776 342.94734,315.932 363.16347,248 c 7.63598,-25.65912 8.83824,-57.27365 3.17539,-83.5 -3.28396,-15.20895 -9.80302,-32.90264 -17.05342,-46.28548 C 336.5825,94.767379 314.5726,71.039929 292.17993,56.652788 241.34317,23.990499 178.51597,20.230323 124.34782,46.608122 89.232123,63.708111 62.632079,90.617687 45.374913,126.5 32.638692,152.98204 27.492471,179.23461 29.104645,209.5 33.359891,289.38382 92.356803,354.99095 172,368.40583 c 15.30456,2.57785 25.12794,2.9563 41,1.57953 z" />
</svg>
