<?xml version="1.0" standalone="no"?>
<!DOCTYPE svg PUBLIC "-//W3C//DTD SVG 20010904//EN" "http://www.w3.org/TR/2001/REC-SVG-20010904/DTD/svg10.dtd">
<!-- Created using Karbon, part of Calligra: http://www.calligra.org/karbon -->
<svg xmlns="http://www.w3.org/2000/svg" xmlns:xlink="http://www.w3.org/1999/xlink" width="409.6pt" height="409.6pt">
<defs/>
<g id="layer0">
  <rect id="rect3002" transform="" fill="#000000" width="409.60000000000pt" height="409.60000000000pt"/>
  <path id="path2987" transform="translate(72.3448, 36.7973)" fill="#ffffff" d="M90.7159 410.883C90.2043 410.003 88.1479 407.176 86.1463 404.601C80.8725 397.816 71.459 379.639 67.8098 369.195C60.9764 349.636 58.9962 324.416 62.6539 303.53C71.6617 252.096 109.13 211.508 160.26 197.797C171.299 194.837 175.192 194.441 193.255 194.441C211.391 194.441 215.19 194.831 226.444 197.846C309.793 220.178 350.067 311.72 310.231 388.291C307.228 394.063 302.565 401.576 299.869 404.987L294.968 411.187L306.832 403.214C321.191 393.564 343.122 372.027 352.288 358.575C385.646 309.619 393.63 245.026 373.731 185.105C365.495 160.304 351.846 136.989 336.261 121.1C327.893 112.568 314.545 101.966 313.494 103.017C313.135 103.376 313.975 106.545 315.36 110.06C325.079 134.717 323.918 168.955 312.647 190.115C308.233 198.401 295.855 212.803 293.147 212.803C291.973 212.803 291.353 207.329 290.789 192.003C289.349 152.873 279.902 129.122 257.543 108.421C246.027 97.759 231.359 89.0954 203.495 76.4983C177.282 64.6474 168.713 59.6038 162.179 52.1813C156.426 45.6453 154.215 39.3297 154.215 29.429C154.215 22.1425 158.164 6.99104 161.375 1.95596C163.144 -0.818171 162.905 -0.791408 151.983 3.00555C114.538 16.0231 96.5754 32.7549 96.6323 54.5636C96.6557 63.5621 102.332 79.1835 111.406 95.2215C115.533 102.515 121.62 113.667 124.933 120.003C139.265 147.411 135.829 159.753 111.006 170.032C103.707 173.054 100.499 173.618 90.2152 173.684C75.3513 173.78 68.2112 170.882 61.4301 162.001C54.4089 152.806 52.6962 144.718 53.4857 124.483C53.8565 114.979 54.5718 105.763 55.0753 104.003C56.4064 99.3499 43.3491 112.101 33.9396 124.642C-6.9201 179.103 -11.2701 261.537 22.9719 332.483C37.0962 361.747 58.0897 387.936 81.2552 405.192C91.7872 413.037 92.0661 413.205 90.7159 410.883ZM181.005 386.495C154.621 379.01 140.855 351.105 150.412 324.483C152.457 318.786 154.755 319.265 158.051 326.074C166.227 342.963 188.733 343.022 197.128 326.176C198.87 322.68 200.292 318.925 200.288 317.831C200.272 313.488 197.472 306.127 194.486 302.578C189.626 296.802 190.306 295.599 198.055 296.255C214.191 297.621 230.473 309.962 236.146 325.125C239.466 333.999 239.822 348.975 236.907 357.137C230.564 374.894 215.001 386.526 196.122 387.618C190.702 387.932 184.427 387.466 181.005 386.495ZM207.282 400.283C244.833 390.502 263.889 350.077 247.086 315.843C228.669 278.318 180.199 270.384 150.543 300.041C127.8 322.783 127.445 359.564 149.741 382.939C165.05 398.99 186.929 405.584 207.282 400.283ZM172.579 420.258C145.504 412.934 125.666 394.164 116.321 367.03C113.264 358.154 112.803 354.858 112.827 342.083C112.852 329.675 113.388 325.738 116.242 317.022C123.148 295.931 137.701 279.2 157.33 269.785C171.014 263.221 178.673 261.443 193.255 261.443C207.837 261.443 215.497 263.221 229.181 269.785C248.81 279.2 263.362 295.931 270.268 317.022C273.116 325.718 273.661 329.704 273.699 342.083C273.739 355.222 273.331 357.977 269.903 367.739C261.22 392.462 242.222 411.33 218.215 419.074C206.066 422.994 184.737 423.547 172.579 420.258ZM223.975 433.629C262.187 422.426 291.099 392.706 301.707 353.722C305.335 340.391 305.572 313.361 302.172 300.591C290.823 257.963 259.197 226.815 217.404 217.104C203.989 213.987 182.551 213.98 169.178 217.088C107.459 231.433 69.4358 293.12 84.9584 353.722C95.9164 396.504 131.049 428.738 175.54 436.829C187.181 438.946 211.269 437.355 223.975 433.629Z"/>
 </g>
</svg>
